<?xml version="1.0" encoding="utf-8" standalone="no"?>
<!DOCTYPE svg PUBLIC "-//W3C//DTD SVG 1.1//EN"
  "http://www.w3.org/Graphics/SVG/1.1/DTD/svg11.dtd">
<svg xmlns:xlink="http://www.w3.org/1999/xlink" width="338.4pt" height="338.4pt" viewBox="0 0 338.4 338.4" xmlns="http://www.w3.org/2000/svg" version="1.1">
 <metadata>
  <rdf:RDF xmlns:dc="http://purl.org/dc/elements/1.1/" xmlns:cc="http://creativecommons.org/ns#" xmlns:rdf="http://www.w3.org/1999/02/22-rdf-syntax-ns#">
   <cc:Work>
    <dc:type rdf:resource="http://purl.org/dc/dcmitype/StillImage"/>
    <dc:date>2025-08-21T01:24:46.263311</dc:date>
    <dc:format>image/svg+xml</dc:format>
    <dc:creator>
     <cc:Agent>
      <dc:title>Matplotlib v3.8.0, https://matplotlib.org/</dc:title>
     </cc:Agent>
    </dc:creator>
   </cc:Work>
  </rdf:RDF>
 </metadata>
 <defs>
  <style type="text/css">*{stroke-linejoin: round; stroke-linecap: butt}</style>
 </defs>
 <g id="figure_1">
  <g id="patch_1">
   <path d="M -0 338.4 
L 338.4 338.4 
L 338.4 0 
L -0 0 
z
" style="fill: #ffffff"/>
  </g>
  <g id="axes_1">
   <g id="patch_2">
    <path d="M 7.2 331.2 
L 331.2 331.2 
L 331.2 7.2 
L 7.2 7.2 
z
" style="fill: #ffffff"/>
   </g>
   <g id="patch_3">
    <path d="M 13.430769 324.969231 
L 13.430769 13.430769 
L 324.969231 13.430769 
L 324.969231 324.969231 
L 13.430769 324.969231 
z
" clip-path="url(#p3f48ba56aa)" style="fill: none; stroke: #000000; stroke-linejoin: miter"/>
   </g>
   <g id="patch_4">
    <path d="M 130.257692 247.084615 
L 129.858333 247.083592 
L 129.433636 247.080256 
L 129.123159 247.076352 
L 128.747005 247.069963 
L 128.173889 247.056734 
L 127.871242 247.048045 
L 127.379961 247.031433 
L 127.143828 247.022344 
L 126.686456 247.002697 
L 126.222006 246.979988 
L 125.98212 246.96717 
L 125.557264 246.942648 
L 125.113323 246.914534 
L 124.963808 246.904492 
L 124.23496 246.851401 
L 123.836677 246.819481 
L 123.793744 246.815918 
L 123.049682 246.750357 
L 122.890308 246.735379 
L 122.423954 246.68965 
L 122.107538 246.657009 
L 121.656554 246.608228 
L 121.274675 246.564842 
L 121.050903 246.538531 
L 120.564539 246.479079 
L 120.000021 246.406175 
L 119.60733 246.352985 
L 119.449469 246.331029 
L 118.985096 246.264531 
L 118.45089 246.184497 
L 118.133339 246.135124 
L 117.722458 246.069247 
L 117.396292 246.015348 
L 116.93209 245.936182 
L 116.720558 245.899148 
L 115.992591 245.767096 
L 115.726617 245.717064 
L 115.212258 245.617591 
L 115.083721 245.592172 
L 114.585374 245.491492 
L 114.26978 245.42598 
L 113.953303 245.358914 
L 113.581503 245.278368 
L 113.090059 245.168978 
L 112.815151 245.106331 
L 112.121171 244.943514 
L 111.859458 244.880369 
L 111.322144 244.747722 
L 111.080208 244.68667 
L 110.6649 244.579943 
L 110.11603 244.435143 
L 109.955471 244.391975 
L 109.407816 244.241961 
L 109.273009 244.204376 
L 108.898141 244.098484 
L 108.519478 243.98946 
L 108.047719 243.850723 
L 107.462075 243.673976 
L 107.211201 243.596724 
L 106.737482 243.44832 
L 106.211446 243.279629 
L 106.117635 243.249112 
L 105.413057 243.015699 
L 105.250922 242.96093 
L 104.787545 242.802207 
L 104.232464 242.607771 
L 104.066281 242.548642 
L 103.591884 242.37751 
L 103.097677 242.195526 
L 102.708977 242.049719 
L 102.473208 241.960125 
L 102.14113 241.832446 
L 101.523854 241.590468 
L 101.278451 241.492578 
L 100.903838 241.341282 
L 100.495317 241.173706 
L 100.059103 240.991772 
L 99.535541 240.769286 
L 99.524739 240.764648 
L 99.12068 240.589774 
L 98.615244 240.367189 
L 98.096931 240.134468 
L 97.884134 240.037603 
L 97.407114 239.817652 
L 97.070382 239.660029 
L 96.484343 239.38101 
L 96.362748 239.322365 
L 95.628477 238.962675 
L 95.513044 238.905256 
L 94.96109 238.627395 
L 94.622239 238.454081 
L 94.249239 238.260876 
L 93.967151 238.113061 
L 93.426678 237.825722 
L 93.121084 237.660833 
L 92.649358 237.402833 
L 92.406196 237.268183 
L 91.904169 236.986581 
L 91.569373 236.796059 
L 90.924026 236.422586 
L 90.553287 236.20428 
L 90.38251 236.102789 
L 89.779737 235.739826 
L 89.587729 235.622642 
L 89.322739 235.459663 
L 88.825007 235.149571 
L 88.507142 234.948801 
L 87.880838 234.546886 
L 87.587785 234.355908 
L 87.238175 234.125607 
L 86.976031 233.951148 
L 86.304036 233.496885 
L 86.043261 233.31784 
L 85.620886 233.024516 
L 85.309374 232.805518 
L 84.869125 232.492111 
L 84.46849 232.202875 
L 83.926296 231.805231 
L 83.57923 231.546888 
L 83.279355 231.321246 
L 83.087079 231.175371 
L 82.449319 230.684736 
L 82.010576 230.341059 
L 81.868699 230.228835 
L 81.346848 229.811407 
L 80.971405 229.50651 
L 80.498139 229.11661 
L 80.301516 228.952772 
L 79.794973 228.525604 
L 79.321841 228.119881 
L 78.791805 227.65747 
L 78.711366 227.586553 
L 78.079662 227.022716 
L 77.808686 226.777036 
L 77.274083 226.285466 
L 77.123799 226.145611 
L 76.778775 225.821716 
L 76.063265 225.137263 
L 75.942902 225.020398 
L 75.358964 224.446203 
L 74.968816 224.055752 
L 74.74559 223.829843 
L 74.350117 223.425053 
L 73.992154 223.053529 
L 73.375814 222.402117 
L 73.248064 222.265202 
L 72.832973 221.815729 
L 72.425454 221.367476 
L 71.985731 220.875835 
L 71.403862 220.212156 
L 71.265212 220.051751 
L 70.751109 219.449178 
L 70.239539 218.837028 
L 69.877412 218.395884 
L 69.480075 217.904154 
L 69.379543 217.778434 
L 68.818785 217.067254 
L 68.352937 216.463248 
L 67.954381 215.93661 
L 67.795976 215.724695 
L 67.249421 214.981776 
L 66.900895 214.498229 
L 66.484145 213.909597 
L 66.088851 213.34038 
L 65.638711 212.678737 
L 65.120416 211.898344 
L 64.867161 211.509476 
L 64.505876 210.945802 
L 63.999442 210.137239 
L 63.796681 209.807232 
L 63.469884 209.267467 
L 63.143086 208.717629 
L 63.065929 208.586295 
L 62.748218 208.03921 
L 62.430508 207.481672 
L 62.101308 206.892448 
L 61.614138 205.997769 
L 61.304159 205.413582 
L 61.011408 204.850602 
L 60.688187 204.215672 
L 60.350641 203.536825 
L 60.013095 202.840897 
L 59.892637 202.588206 
L 59.574732 201.909821 
L 59.291958 201.291711 
L 59.009185 200.658917 
L 58.661502 199.8594 
L 58.398337 199.237415 
L 58.135171 198.59992 
L 57.871696 197.945102 
L 57.577581 197.19312 
L 57.283466 196.417195 
L 57.156056 196.07311 
L 56.855711 195.241551 
L 56.681337 194.744731 
L 56.506964 194.23684 
L 56.332591 193.717191 
L 56.158217 193.185018 
L 55.903435 192.383135 
L 55.683071 191.664174 
L 55.462706 190.919193 
L 55.323079 190.432452 
L 55.183451 189.933347 
L 55.025245 189.35173 
L 54.867039 188.751541 
L 54.708833 188.131012 
L 54.550627 187.488073 
L 54.400847 186.856511 
L 54.251067 186.200185 
L 54.154898 185.764358 
L 54.058728 185.316176 
L 53.98723 184.974342 
L 53.915732 184.624604 
L 53.844234 184.26641 
L 53.772736 183.899142 
L 53.701238 183.522102 
L 53.62974 183.134498 
L 53.558242 182.735422 
L 53.486744 182.323826 
L 53.432713 182.003742 
L 53.378681 181.675214 
L 53.32465 181.337556 
L 53.270618 180.989984 
L 53.212606 180.604735 
L 53.154594 180.205703 
L 53.096582 179.791331 
L 53.038569 179.359742 
L 52.980557 178.90864 
L 52.922545 178.435166 
L 52.864533 177.935683 
L 52.835527 177.674761 
L 52.80652 177.405443 
L 52.77943 177.145579 
L 52.75234 176.876827 
L 52.72525 176.598221 
L 52.69816 176.3086 
L 52.671069 176.00656 
L 52.643979 175.690365 
L 52.616889 175.357837 
L 52.589799 175.00617 
L 52.562708 174.631648 
L 52.535618 174.229167 
L 52.522073 174.01527 
L 52.508528 173.79138 
L 52.494983 173.555955 
L 52.481438 173.307012 
L 52.467893 173.041925 
L 52.454348 172.757086 
L 52.440802 172.447302 
L 52.427257 172.104602 
L 52.413712 171.715568 
L 52.400167 171.254042 
L 52.386622 170.65249 
L 52.373077 169.2 
L 52.373077 169.2 
L 52.389127 167.618922 
L 52.405177 166.964133 
L 52.421226 166.461775 
L 52.437276 166.038333 
L 52.453326 165.665331 
L 52.469376 165.328164 
L 52.485426 165.018155 
L 52.501475 164.72965 
L 52.517525 164.458722 
L 52.533575 164.202512 
L 52.549625 163.95886 
L 52.565675 163.726091 
L 52.581724 163.502868 
L 52.597774 163.288112 
L 52.629874 162.880578 
L 52.661973 162.497933 
L 52.694073 162.13613 
L 52.726172 161.792116 
L 52.758272 161.463516 
L 52.790372 161.148444 
L 52.822471 160.845369 
L 52.854571 160.553029 
L 52.88667 160.27037 
L 52.947665 159.756853 
L 53.00866 159.270232 
L 53.069655 158.806726 
L 53.130649 158.363371 
L 53.175723 158.047274 
L 53.220797 157.74007 
L 53.310944 157.149638 
L 53.401091 156.587459 
L 53.491239 156.049909 
L 53.599382 155.433493 
L 53.707525 154.844335 
L 53.815668 154.279204 
L 53.923811 153.735466 
L 54.045966 153.144283 
L 54.168121 152.575005 
L 54.306931 151.951953 
L 54.44574 151.351715 
L 54.58455 150.772063 
L 54.72336 150.21111 
L 54.875813 149.614659 
L 55.028266 149.036996 
L 55.209822 148.371403 
L 55.391378 147.727966 
L 55.526632 147.261863 
L 55.661886 146.806275 
L 55.797139 146.360574 
L 55.932393 145.924191 
L 56.096097 145.407753 
L 56.2598 144.903391 
L 56.409808 144.451197 
L 56.559816 144.008012 
L 56.709823 143.573368 
L 56.859831 143.146837 
L 57.08434 142.522785 
L 57.337235 141.839075 
L 57.59013 141.17432 
L 57.820389 140.584437 
L 58.053915 140.000209 
L 58.28744 139.429274 
L 58.521828 138.868842 
L 58.756216 138.320359 
L 59.009881 137.739506 
L 59.256732 137.186301 
L 59.503583 136.644366 
L 59.698521 136.223999 
L 59.996961 135.592813 
L 60.295402 134.975868 
L 60.697678 134.165478 
L 61.030353 133.512623 
L 61.418288 132.769934 
L 61.676939 132.285319 
L 62.005902 131.680586 
L 62.311126 131.130623 
L 62.61635 130.590906 
L 62.797353 130.27551 
L 63.20648 129.574904 
L 63.637416 128.85459 
L 63.963864 128.3204 
L 64.290779 127.794932 
L 64.617694 127.278598 
L 64.739204 127.088944 
L 65.068032 126.581677 
L 65.396859 126.082885 
L 65.640388 125.718771 
L 65.888435 125.352401 
L 66.33036 124.710569 
L 66.766208 124.090747 
L 67.095416 123.630929 
L 67.459668 123.130254 
L 68.176834 122.168304 
L 68.439529 121.82355 
L 68.974248 121.133871 
L 69.069112 121.013166 
L 69.526014 120.438575 
L 70.099552 119.732723 
L 70.227511 119.577519 
L 70.908957 118.764488 
L 70.969353 118.693504 
L 71.571896 117.994623 
L 71.970828 117.540976 
L 72.205249 117.277682 
L 72.876363 116.536955 
L 73.291769 116.087884 
L 73.564197 115.797183 
L 73.705809 115.647242 
L 74.160709 115.170917 
L 74.654146 114.663233 
L 74.98389 114.32906 
L 75.37291 113.939942 
L 75.690408 113.626402 
L 76.309243 113.025467 
L 76.642298 112.707497 
L 77.117318 112.260436 
L 77.589105 111.823758 
L 77.851397 111.584086 
L 78.393863 111.095297 
L 78.430462 111.06265 
L 79.018682 110.543567 
L 79.502065 110.124797 
L 79.884518 109.798345 
L 80.281898 109.463635 
L 80.620942 109.181616 
L 81.01231 108.860082 
L 81.470733 108.488832 
L 81.789408 108.234118 
L 82.262447 107.861026 
L 82.562984 107.62705 
L 83.08773 107.224134 
L 83.39735 106.989698 
L 83.563046 106.865232 
L 84.183519 106.405224 
L 84.305651 106.315795 
L 84.972673 105.83376 
L 85.325453 105.583122 
L 85.617131 105.378111 
L 86.025385 105.094491 
L 86.365151 104.861379 
L 86.902041 104.498371 
L 87.24713 104.26846 
L 87.678594 103.984713 
L 88.027605 103.758171 
L 88.403702 103.516998 
L 88.851108 103.234038 
L 89.131454 103.058894 
L 89.575538 102.784824 
L 89.953147 102.554993 
L 90.289295 102.352857 
L 90.899795 101.991598 
L 91.208995 101.811481 
L 91.497108 101.645352 
L 92.092603 101.307148 
L 92.191048 101.251903 
L 92.778784 100.925958 
L 93.25603 100.666137 
L 93.529875 100.518993 
L 93.891747 100.326701 
L 94.226149 100.151168 
L 94.824096 99.842423 
L 94.938077 99.784309 
L 95.455743 99.523335 
L 95.913188 99.296721 
L 96.28362 99.115938 
L 96.415936 99.051951 
L 96.963366 98.790475 
L 97.491203 98.543291 
L 97.881871 98.363431 
L 98.011422 98.304363 
L 98.39112 98.132885 
L 98.947611 97.885961 
L 99.326858 97.720655 
L 99.648799 97.582202 
L 100.193668 97.351773 
L 100.490369 97.228341 
L 101.026605 97.008887 
L 101.374628 96.868942 
L 101.741645 96.723463 
L 101.960287 96.637818 
L 102.653525 96.371274 
L 102.695818 96.355258 
L 103.295532 96.131161 
L 103.624154 96.010739 
L 104.090589 95.842683 
L 104.525558 95.688977 
L 104.876613 95.567031 
L 105.218036 95.450228 
L 105.79596 95.256528 
L 105.988693 95.193048 
L 106.313281 95.087393 
L 106.584565 95.000294 
L 107.245168 94.792762 
L 107.717456 94.648333 
L 108.098579 94.534164 
L 108.32957 94.466 
L 108.654167 94.371523 
L 109.122552 94.237882 
L 109.456945 94.144406 
L 109.888241 94.02621 
L 110.28925 93.918697 
L 110.846648 93.773051 
L 111.024855 93.727414 
L 111.380891 93.637578 
L 111.963421 93.494433 
L 112.117872 93.457276 
L 112.808238 93.295258 
L 112.850889 93.285466 
L 113.555022 93.127442 
L 113.993195 93.032556 
L 114.068738 93.016465 
L 114.742734 92.876351 
L 115.054696 92.813599 
L 115.496693 92.726958 
L 115.918051 92.646829 
L 116.129386 92.607544 
L 116.660335 92.511505 
L 116.847674 92.478525 
L 117.171357 92.422652 
L 117.719143 92.331293 
L 118.174588 92.258386 
L 118.520434 92.20487 
L 118.759654 92.168783 
L 119.433028 92.071277 
L 119.745961 92.028005 
L 120.209865 91.966235 
L 120.324107 91.951458 
L 120.77846 91.894389 
L 121.157376 91.848868 
L 121.545882 91.804149 
L 121.907263 91.764326 
L 122.480257 91.704679 
L 122.689853 91.68393 
L 123.289587 91.627719 
L 123.770773 91.585999 
L 124.134755 91.556437 
L 124.210393 91.550509 
L 124.812515 91.505963 
L 125.065422 91.488652 
L 125.587263 91.455544 
L 125.821924 91.441803 
L 126.165648 91.422957 
L 126.926887 91.38664 
L 127.294934 91.371757 
L 127.515495 91.363674 
L 127.836324 91.353033 
L 128.249702 91.341274 
L 128.825075 91.328562 
L 128.964674 91.326119 
L 129.594273 91.31821 
L 129.910725 91.316157 
L 130.257692 91.315385 
z
" clip-path="url(#p3f48ba56aa)" style="fill: #808080; opacity: 0.5"/>
   </g>
   <g id="patch_5">
    <path d="M 169.2 101.749945 
L 169.040487 101.842291 
L 168.899308 101.924445 
L 168.568545 102.118478 
L 168.369906 102.236059 
L 168.145279 102.369984 
L 168.11272 102.389481 
L 167.890702 102.523006 
L 167.679198 102.651145 
L 167.376481 102.836149 
L 167.245125 102.917018 
L 167.003999 103.066401 
L 166.892355 103.13598 
L 166.66111 103.280932 
L 166.479953 103.395278 
L 166.280907 103.52172 
L 166.151222 103.604558 
L 165.832666 103.809576 
L 165.644673 103.931598 
L 165.552799 103.991511 
L 165.30457 104.154312 
L 165.161946 104.248466 
L 164.990205 104.362439 
L 164.759505 104.516573 
L 164.510498 104.684277 
L 164.215822 104.884549 
L 164.171072 104.915136 
L 163.871752 105.120899 
L 163.670087 105.260693 
L 163.608756 105.303395 
L 163.352023 105.483097 
L 163.231237 105.568176 
L 162.955015 105.764033 
L 162.722626 105.930214 
L 162.591028 106.024893 
L 162.398711 106.164005 
L 162.107938 106.376039 
L 161.900028 106.528915 
L 161.673362 106.696797 
L 161.545069 106.792383 
L 161.37879 106.916882 
L 161.138042 107.098371 
L 160.951895 107.239704 
L 160.808435 107.34923 
L 160.588704 107.518008 
L 160.332037 107.716739 
L 160.157199 107.853096 
L 160.001088 107.975525 
L 159.882764 108.068749 
L 159.586742 108.30361 
L 159.507131 108.367173 
L 159.166151 108.641356 
L 159.015371 108.763608 
L 158.796009 108.942585 
L 158.587847 109.113656 
L 158.408004 109.262429 
L 158.228791 109.411588 
L 157.999892 109.603427 
L 157.755591 109.809832 
L 157.668816 109.883561 
L 157.539355 109.993966 
L 157.186681 110.29722 
L 156.989722 110.468184 
L 156.892622 110.552894 
L 156.631885 110.78177 
L 156.415003 110.973723 
L 156.330479 111.048923 
L 156.128918 111.22914 
L 155.875857 111.457196 
L 155.703561 111.61362 
L 155.484543 111.813825 
L 155.232722 112.045918 
L 155.114325 112.155751 
L 154.834023 112.417608 
L 154.785762 112.462954 
L 154.582699 112.654605 
L 154.254017 112.967755 
L 154.133736 113.083269 
L 153.942753 113.267706 
L 153.800007 113.406383 
L 153.500059 113.700108 
L 153.267171 113.930364 
L 153.150348 114.046599 
L 153.041763 114.155079 
L 152.679741 114.519866 
L 152.657825 114.542105 
L 152.35326 114.853008 
L 152.177936 115.033568 
L 152.024916 115.192115 
L 151.836777 115.388286 
L 151.669335 115.564036 
L 151.38987 115.859827 
L 151.235389 116.024669 
L 151.090029 116.180656 
L 150.872383 116.415826 
L 150.548983 116.768881 
L 150.415869 116.915475 
L 150.174465 117.183247 
L 150.086617 117.281313 
L 149.885468 117.507119 
L 149.707302 117.708608 
L 149.528983 117.911683 
L 149.274377 118.204117 
L 149.028846 118.488936 
L 148.940646 118.591931 
L 148.595086 118.998987 
L 148.366774 119.271061 
L 148.249325 119.41201 
L 148.015858 119.694209 
L 147.958724 119.763681 
L 147.662593 120.126407 
L 147.405307 120.445204 
L 147.189449 120.715339 
L 146.997493 120.957644 
L 146.947738 121.020772 
L 146.662901 121.384774 
L 146.409415 121.712493 
L 146.274223 121.88876 
L 146.102317 122.114409 
L 146.006058 122.24151 
L 145.813592 122.497275 
L 145.464997 122.966159 
L 145.272796 123.227858 
L 145.150638 123.395384 
L 144.993557 123.612188 
L 144.797166 123.885473 
L 144.563118 124.214447 
L 144.299961 124.5887 
L 144.232754 124.685034 
L 143.926138 125.128503 
L 143.715922 125.436384 
L 143.469489 125.801385 
L 143.422559 125.871402 
L 143.079724 126.387928 
L 143.042736 126.444192 
L 142.748789 126.895142 
L 142.596285 127.131814 
L 142.386432 127.460592 
L 142.246425 127.68198 
L 141.962441 128.136165 
L 141.849417 128.318881 
L 141.581172 128.757096 
L 141.497281 128.895488 
L 141.143534 129.486305 
L 140.972384 129.776471 
L 140.855137 129.976921 
L 140.576276 130.459263 
L 140.469164 130.646674 
L 140.333745 130.885353 
L 140.122179 131.262217 
L 139.884344 131.691819 
L 139.736836 131.961516 
L 139.549163 132.30835 
L 139.361491 132.659439 
L 139.346623 132.68744 
L 139.15991 133.041431 
L 138.973197 133.399896 
L 138.911428 133.519493 
L 138.701031 133.930717 
L 138.557306 134.215134 
L 138.361686 134.606964 
L 138.11857 135.101767 
L 137.983047 135.381493 
L 137.810379 135.742069 
L 137.637712 136.107473 
L 137.402391 136.613539 
L 137.311673 136.811199 
L 137.100914 137.276127 
L 136.896992 137.733855 
L 136.631443 138.342107 
L 136.506081 138.634263 
L 136.41761 138.842447 
L 136.242713 139.259031 
L 136.067816 139.682531 
L 135.972568 139.916182 
L 135.779113 140.397546 
L 135.534825 141.019036 
L 135.400101 141.368638 
L 135.265378 141.723349 
L 135.238829 141.793868 
L 135.079047 142.222728 
L 134.919264 142.65948 
L 134.749239 143.133339 
L 134.615453 143.513138 
L 134.497562 143.853112 
L 134.379671 144.198264 
L 134.185167 144.779626 
L 134.03658 145.234306 
L 133.940296 145.5341 
L 133.844012 145.838138 
L 133.728518 146.208671 
L 133.613024 146.585864 
L 133.505598 146.942982 
L 133.398172 147.30645 
L 133.31692 147.585775 
L 133.235669 147.869066 
L 133.155061 148.15419 
L 133.074453 148.443543 
L 132.993845 148.737305 
L 132.913237 149.035668 
L 132.80384 149.448328 
L 132.687441 149.897762 
L 132.603108 150.230483 
L 132.518774 150.569527 
L 132.434441 150.915245 
L 132.350108 151.268023 
L 132.256578 151.66805 
L 132.163047 152.077931 
L 132.063587 152.525423 
L 131.996299 152.835445 
L 131.929011 153.151737 
L 131.861723 153.474678 
L 131.794436 153.804684 
L 131.741369 154.070232 
L 131.688302 154.340714 
L 131.635236 154.616405 
L 131.582169 154.897606 
L 131.53953 155.127765 
L 131.496892 155.361882 
L 131.454253 155.600163 
L 131.411614 155.842829 
L 131.361881 156.131743 
L 131.312147 156.427384 
L 131.268525 156.692608 
L 131.224903 156.963735 
L 131.181281 157.241167 
L 131.137659 157.525353 
L 131.094037 157.816798 
L 131.050415 158.116075 
L 131.006793 158.423837 
L 130.963171 158.740833 
L 130.934557 158.954197 
L 130.905942 159.172181 
L 130.877328 159.395093 
L 130.848713 159.623278 
L 130.821602 159.844689 
L 130.794491 160.071549 
L 130.76738 160.304276 
L 130.740269 160.543341 
L 130.713158 160.789287 
L 130.686047 161.042734 
L 130.658936 161.304406 
L 130.631825 161.575149 
L 130.600067 161.905187 
L 130.584189 162.075991 
L 130.56831 162.251027 
L 130.552432 162.430626 
L 130.536553 162.615159 
L 130.520674 162.805055 
L 130.504796 163.000805 
L 130.488917 163.202984 
L 130.473038 163.412264 
L 130.45716 163.629446 
L 130.441281 163.855494 
L 130.425402 164.091584 
L 130.409524 164.339179 
L 130.393645 164.600136 
L 130.385706 164.736354 
L 130.377766 164.876876 
L 130.370262 165.014052 
L 130.362757 165.155893 
L 130.355252 165.302907 
L 130.347748 165.455704 
L 130.340243 165.615023 
L 130.332739 165.781776 
L 130.325234 165.95711 
L 130.317729 166.1425 
L 130.310225 166.339902 
L 130.306472 166.443907 
L 130.30272 166.552 
L 130.298968 166.664702 
L 130.295215 166.782659 
L 130.291463 166.906682 
L 130.287711 167.037813 
L 130.283958 167.177435 
L 130.280206 167.327446 
L 130.276454 167.490579 
L 130.272702 167.671029 
L 130.268949 167.875856 
L 130.265197 168.118828 
L 130.261445 168.435487 
L 130.257692 169.2 
L 130.257692 91.315385 
L 130.4303 91.315576 
L 130.624074 91.316246 
L 130.805834 91.317314 
L 131.061439 91.319532 
L 131.153401 91.320535 
L 131.334795 91.322833 
L 131.666913 91.328135 
L 131.775594 91.330177 
L 132.059761 91.336235 
L 132.241219 91.340646 
L 132.370773 91.344055 
L 132.583824 91.350129 
L 132.734112 91.354765 
L 133.07055 91.366195 
L 133.204681 91.371158 
L 133.324179 91.375775 
L 133.63074 91.388459 
L 133.747678 91.393616 
L 134.046455 91.407593 
L 134.251785 91.417865 
L 134.336312 91.422251 
L 134.640896 91.438822 
L 134.784336 91.44704 
L 134.877637 91.452528 
L 135.075835 91.464559 
L 135.307182 91.479244 
L 135.58007 91.497454 
L 135.735577 91.508262 
L 135.914968 91.521119 
L 136.14937 91.538546 
L 136.41165 91.558889 
L 136.448305 91.561803 
L 136.719521 91.583906 
L 136.984722 91.606441 
L 137.02051 91.609552 
L 137.280816 91.632681 
L 137.564764 91.658914 
L 137.674813 91.669363 
L 137.964163 91.69759 
L 138.076158 91.708808 
L 138.290783 91.730762 
L 138.511613 91.753979 
L 138.640077 91.767778 
L 138.914963 91.79803 
L 138.973465 91.804596 
L 139.355918 91.848623 
L 139.485542 91.863979 
L 139.599612 91.877676 
L 139.83538 91.906525 
L 139.957484 91.921754 
L 140.279577 91.962864 
L 140.421194 91.981372 
L 140.570655 92.001191 
L 140.887162 92.044134 
L 141.088057 92.072077 
L 141.251268 92.095171 
L 141.37883 92.113467 
L 141.627529 92.149756 
L 141.78104 92.172565 
L 142.083856 92.218475 
L 142.1737 92.232331 
L 142.354754 92.26058 
L 142.508879 92.284971 
L 142.839359 92.338339 
L 143.048748 92.372907 
L 143.248915 92.406501 
L 143.334593 92.421045 
L 143.593195 92.465538 
L 143.684152 92.481401 
L 143.961696 92.530491 
L 144.228381 92.578638 
L 144.423388 92.614451 
L 144.526677 92.633628 
L 144.665336 92.659598 
L 144.862924 92.697055 
L 145.209314 92.763999 
L 145.402881 92.802117 
L 145.557114 92.832854 
L 145.650329 92.851588 
L 146.008874 92.924751 
L 146.177326 92.959731 
L 146.39127 93.004718 
L 146.461444 93.01961 
L 146.650809 93.060135 
L 146.853811 93.104125 
L 147.157043 93.170892 
L 147.222189 93.185402 
L 147.429143 93.231884 
L 147.757034 93.306744 
L 147.933475 93.347643 
L 148.074734 93.3807 
L 148.241711 93.420132 
L 148.542349 93.49211 
L 148.699349 93.5302 
L 148.760818 93.545207 
L 149.045972 93.615518 
L 149.191991 93.651965 
L 149.436081 93.713559 
L 149.727567 93.788215 
L 149.869353 93.824964 
L 150.023129 93.865142 
L 150.153887 93.89957 
L 150.386651 93.961457 
L 150.554384 94.006532 
L 150.809377 94.075826 
L 150.907932 94.102857 
L 151.256153 94.19948 
L 151.478573 94.262109 
L 151.639301 94.30781 
L 151.700722 94.325373 
L 152.052299 94.426954 
L 152.109845 94.443751 
L 152.385637 94.524921 
L 152.626321 94.596664 
L 152.750377 94.633972 
L 152.925729 94.687092 
L 153.071511 94.731597 
L 153.313006 94.80601 
L 153.467242 94.853984 
L 153.723759 94.93455 
L 153.902088 94.991134 
L 154.173962 95.078307 
L 154.272368 95.110131 
L 154.514732 95.189127 
L 154.644979 95.231942 
L 154.919735 95.323096 
L 155.169599 95.406977 
L 155.286337 95.44649 
L 155.507584 95.521942 
L 155.754324 95.606963 
L 155.951319 95.675508 
L 156.070634 95.717313 
L 156.292054 95.795468 
L 156.429477 95.844353 
L 156.72536 95.950591 
L 156.863841 96.000777 
L 157.114133 96.092238 
L 157.276719 96.15217 
L 157.37599 96.188965 
L 157.67456 96.300558 
L 157.936319 96.39954 
L 158.055355 96.444909 
L 158.26185 96.524141 
L 158.416631 96.583972 
L 158.594416 96.653164 
L 158.763896 96.719591 
L 159.031683 96.825482 
L 159.253029 96.913876 
L 159.324371 96.942533 
L 159.696752 97.093447 
L 159.896412 97.175285 
L 159.999914 97.217964 
L 160.193944 97.298441 
L 160.443156 97.402708 
L 160.504602 97.428573 
L 160.830073 97.566608 
L 160.903727 97.598087 
L 161.100493 97.682625 
L 161.324316 97.779567 
L 161.586149 97.894032 
L 161.745081 97.964071 
L 161.967694 98.062885 
L 162.07469 98.110676 
L 162.282755 98.204165 
L 162.485014 98.295748 
L 162.656896 98.374123 
L 162.977164 98.521506 
L 163.054329 98.55728 
L 163.247442 98.647256 
L 163.442777 98.738922 
L 163.80791 98.912048 
L 163.917653 98.964536 
L 164.13864 99.070871 
L 164.368673 99.182471 
L 164.40907 99.202166 
L 164.742077 99.365621 
L 164.894396 99.441043 
L 165.027053 99.507067 
L 165.328232 99.658138 
L 165.403113 99.695952 
L 165.658326 99.825592 
L 165.955516 99.978048 
L 166.097943 100.051683 
L 166.194228 100.101674 
L 166.480716 100.251426 
L 166.651104 100.341211 
L 166.824828 100.433308 
L 167.128388 100.59559 
L 167.307352 100.692073 
L 167.43462 100.761054 
L 167.703059 100.907557 
L 167.890523 101.01068 
L 168.05205 101.100075 
L 168.136364 101.146936 
L 168.33376 101.257183 
L 168.539695 101.373002 
L 168.83721 101.541785 
L 168.979621 101.623188 
z
" clip-path="url(#p3f48ba56aa)" style="fill: #808080; opacity: 0.5"/>
   </g>
   <g id="patch_6">
    <path d="M 169.2 236.650055 
L 168.932694 236.495018 
L 168.713181 236.366638 
L 168.544742 236.267474 
L 168.363343 236.160042 
L 168.178772 236.050049 
L 168.121983 236.016068 
L 167.822348 235.835682 
L 167.539438 235.663676 
L 167.472139 235.622516 
L 167.312737 235.524652 
L 167.099998 235.393218 
L 166.89501 235.265677 
L 166.592016 235.075539 
L 166.548606 235.048138 
L 166.358353 234.927578 
L 166.075655 234.747006 
L 165.884282 234.623792 
L 165.629757 234.458688 
L 165.497768 234.372513 
L 165.280384 234.229753 
L 165.084903 234.100487 
L 164.964578 234.020498 
L 164.72159 233.857982 
L 164.569996 233.755921 
L 164.318879 233.585716 
L 164.060806 233.409302 
L 163.862693 233.272842 
L 163.714991 233.170516 
L 163.427934 232.970198 
L 163.348395 232.914352 
L 163.122569 232.754987 
L 163.004791 232.671394 
L 162.822139 232.541105 
L 162.520954 232.324523 
L 162.317079 232.176676 
L 162.23424 232.116314 
L 162.010119 231.952167 
L 161.823765 231.814742 
L 161.492319 231.568196 
L 161.406884 231.504201 
L 161.182738 231.335434 
L 161.052097 231.236484 
L 160.838819 231.074011 
L 160.626645 230.911224 
L 160.377069 230.718251 
L 160.251315 230.620405 
L 159.975254 230.404152 
L 159.880829 230.329723 
L 159.703582 230.189369 
L 159.411847 229.956527 
L 159.281963 229.852123 
L 158.966082 229.596292 
L 158.743895 229.4147 
L 158.615724 229.309324 
L 158.394826 229.126633 
L 158.221806 228.98258 
L 158.122663 228.899652 
L 157.911634 228.722203 
L 157.747131 228.58299 
L 157.447422 228.327336 
L 157.195384 228.110307 
L 157.069521 228.001222 
L 156.949794 227.897017 
L 156.672911 227.65438 
L 156.499475 227.50121 
L 156.305979 227.329239 
L 156.177112 227.214065 
L 155.874057 226.941175 
L 155.756067 226.834149 
L 155.474709 226.577151 
L 155.345339 226.45813 
L 155.157929 226.284752 
L 154.840565 225.988534 
L 154.761198 225.913935 
L 154.519742 225.685695 
L 154.350577 225.524622 
L 154.188868 225.369739 
L 153.92885 225.118819 
L 153.723919 224.919406 
L 153.486728 224.686764 
L 153.400848 224.602039 
L 153.204467 224.407309 
L 152.913737 224.116467 
L 152.737608 223.938766 
L 152.599149 223.798268 
L 152.416479 223.611813 
L 152.173231 223.361571 
L 151.913994 223.092393 
L 151.758789 222.929993 
L 151.491758 222.648373 
L 151.479928 222.635831 
L 151.231619 222.371297 
L 151.075124 222.203301 
L 150.763566 221.865865 
L 150.613911 221.702351 
L 150.405585 221.473168 
L 150.300425 221.356782 
L 150.083755 221.115487 
L 149.842801 220.844756 
L 149.662315 220.640293 
L 149.531084 220.490719 
L 149.321954 220.250752 
L 149.073629 219.96322 
L 148.907871 219.769703 
L 148.653132 219.469785 
L 148.432516 219.207541 
L 148.212405 218.943543 
L 148.085099 218.789767 
L 147.793539 218.434535 
L 147.745322 218.375375 
L 147.537815 218.119411 
L 147.318091 217.845945 
L 147.107605 217.581592 
L 146.867161 217.276706 
L 146.614807 216.953324 
L 146.586542 216.916884 
L 146.247258 216.475957 
L 146.068093 216.240464 
L 145.962261 216.10048 
L 145.672894 215.71436 
L 145.502877 215.485149 
L 145.359773 215.290853 
L 145.188257 215.056306 
L 144.845572 214.582117 
L 144.752814 214.452463 
L 144.46566 214.047495 
L 144.395456 213.94765 
L 144.169094 213.623432 
L 143.932564 213.280858 
L 143.767246 213.039078 
L 143.522651 212.677734 
L 143.315355 212.368038 
L 143.100666 212.043881 
L 142.977675 211.856581 
L 142.719441 211.459458 
L 142.544788 211.18784 
L 142.369351 210.912486 
L 142.182888 210.617004 
L 142.069491 210.435861 
L 141.757088 209.93102 
L 141.627914 209.719732 
L 141.427677 209.389195 
L 141.244209 209.083051 
L 140.978782 208.634429 
L 140.909381 208.515987 
L 140.571497 207.932401 
L 140.405819 207.641922 
L 140.316074 207.483355 
L 139.944829 206.818044 
L 139.79984 206.553987 
L 139.68953 206.351454 
L 139.547321 206.088224 
L 139.212415 205.45856 
L 139.007012 205.065363 
L 138.946072 204.947648 
L 138.719528 204.505678 
L 138.438519 203.947593 
L 138.233443 203.533132 
L 138.048237 203.153418 
L 137.968329 202.987957 
L 137.783632 202.601647 
L 137.598934 202.209783 
L 137.418334 201.821048 
L 137.235958 201.422708 
L 137.148428 201.229398 
L 136.99383 200.884499 
L 136.839233 200.535041 
L 136.667688 200.141753 
L 136.612485 200.013922 
L 136.439984 199.610361 
L 136.267483 199.200381 
L 136.047365 198.667483 
L 136.006351 198.566939 
L 135.769146 197.977402 
L 135.614499 197.585388 
L 135.459851 197.18703 
L 135.265792 196.67775 
L 135.198612 196.498911 
L 135.011208 195.992827 
L 134.8717 195.608926 
L 134.732192 195.218614 
L 134.576055 194.773812 
L 134.42797 194.343782 
L 134.279885 193.905381 
L 134.24734 193.807865 
L 134.13489 193.467581 
L 134.022441 193.121928 
L 133.847875 192.574142 
L 133.733106 192.206173 
L 133.618337 191.831639 
L 133.505707 191.457384 
L 133.393077 191.076147 
L 133.245911 190.566867 
L 133.141387 190.197027 
L 133.036863 189.820025 
L 132.924552 189.406497 
L 132.812241 188.983689 
L 132.674073 188.449905 
L 132.604989 188.177007 
L 132.535905 187.899871 
L 132.488959 187.709029 
L 132.398572 187.335593 
L 132.308184 186.953844 
L 132.217796 186.563233 
L 132.127409 186.163149 
L 132.060707 185.861434 
L 131.994006 185.553882 
L 131.941714 185.308469 
L 131.889421 185.059087 
L 131.801563 184.630619 
L 131.713704 184.189393 
L 131.625846 183.734248 
L 131.581917 183.501043 
L 131.537987 183.263834 
L 131.468036 182.877332 
L 131.398085 182.479217 
L 131.35731 182.241377 
L 131.316536 181.998988 
L 131.275761 181.751786 
L 131.234987 181.499482 
L 131.174725 181.116564 
L 131.114463 180.720611 
L 131.054202 180.31023 
L 131.024071 180.099121 
L 130.99394 179.883757 
L 130.945424 179.527363 
L 130.896908 179.157987 
L 130.848392 178.774124 
L 130.824134 178.576207 
L 130.799876 178.373958 
L 130.774899 178.160885 
L 130.749923 177.942549 
L 130.724947 177.718545 
L 130.699971 177.488415 
L 130.674995 177.251633 
L 130.650019 177.007593 
L 130.625043 176.755592 
L 130.600067 176.494806 
L 130.574249 176.214955 
L 130.548431 175.923368 
L 130.522614 175.618444 
L 130.509705 175.460375 
L 130.496796 175.298183 
L 130.481852 175.104824 
L 130.466908 174.904876 
L 130.451964 174.69762 
L 130.43702 174.482196 
L 130.422076 174.257561 
L 130.407132 174.022427 
L 130.392188 173.775175 
L 130.377244 173.513724 
L 130.369772 173.376845 
L 130.3623 173.235313 
L 130.354828 173.088618 
L 130.347356 172.936153 
L 130.339884 172.77718 
L 130.332412 172.610789 
L 130.32494 172.435836 
L 130.317468 172.250849 
L 130.309996 172.053876 
L 130.302524 171.842239 
L 130.295052 171.612081 
L 130.28758 171.357483 
L 130.280108 171.06848 
L 130.272636 170.725644 
L 130.265164 170.278819 
L 130.257692 169.2 
L 130.257692 247.084615 
L 130.52959 247.084141 
L 130.703039 247.083342 
L 130.84363 247.082411 
L 131.006356 247.081017 
L 131.212301 247.078765 
L 131.469702 247.075184 
L 131.62425 247.072626 
L 131.820569 247.068933 
L 132.101213 247.062794 
L 132.253314 247.059044 
L 132.381341 247.055658 
L 132.587924 247.049748 
L 132.877387 247.040545 
L 133.04434 247.034747 
L 133.2507 247.027085 
L 133.419409 247.020414 
L 133.589314 247.013325 
L 133.839442 247.002213 
L 133.999499 246.99468 
L 134.140277 246.987781 
L 134.340221 246.977543 
L 134.591722 246.963934 
L 134.800489 246.952018 
L 134.921142 246.944875 
L 135.125191 246.932366 
L 135.2847 246.922214 
L 135.577715 246.902707 
L 135.747955 246.890864 
L 135.92754 246.877964 
L 136.159637 246.860675 
L 136.278571 246.851544 
L 136.550709 246.829964 
L 136.63721 246.822903 
L 137.008893 246.79146 
L 137.196595 246.774899 
L 137.243662 246.770674 
L 137.506254 246.746577 
L 137.63575 246.734364 
L 137.803709 246.718197 
L 138.008591 246.69798 
L 138.258391 246.67259 
L 138.393975 246.658468 
L 138.707917 246.624847 
L 138.927301 246.600589 
L 139.022456 246.589872 
L 139.173365 246.572631 
L 139.427012 246.542982 
L 139.588691 246.523643 
L 139.880414 246.487881 
L 140.033408 246.468679 
L 140.328024 246.430834 
L 140.404998 246.420758 
L 140.666403 246.385958 
L 140.904306 246.353502 
L 141.047552 246.3336 
L 141.19091 246.31341 
L 141.385774 246.285531 
L 141.668145 246.24424 
L 141.812415 246.222735 
L 142.036774 246.188743 
L 142.232292 246.158575 
L 142.42412 246.128482 
L 142.661064 246.090635 
L 142.814101 246.065792 
L 142.945351 246.044236 
L 143.250755 245.993187 
L 143.348941 245.97651 
L 143.549054 245.94212 
L 143.838512 245.891425 
L 143.920652 245.876834 
L 144.130397 245.839163 
L 144.394399 245.790906 
L 144.489785 245.773238 
L 144.795202 245.715842 
L 144.969197 245.682579 
L 145.137396 245.650034 
L 145.25258 245.627525 
L 145.497948 245.578976 
L 145.621622 245.554194 
L 145.87128 245.503533 
L 146.062487 245.464158 
L 146.259995 245.42296 
L 146.495546 245.373128 
L 146.622972 245.345853 
L 146.976865 245.268933 
L 147.048479 245.253158 
L 147.287993 245.199883 
L 147.41517 245.171273 
L 147.752988 245.094189 
L 147.873828 245.066231 
L 148.03983 245.027494 
L 148.331332 244.958543 
L 148.401045 244.941878 
L 148.559468 244.903754 
L 148.928834 244.813503 
L 149.068377 244.778909 
L 149.312048 244.717845 
L 149.494505 244.671573 
L 149.555206 244.656075 
L 149.749147 244.60621 
L 150.020512 244.535545 
L 150.225902 244.481365 
L 150.344832 244.449719 
L 150.600661 244.380961 
L 150.87299 244.306743 
L 151.00765 244.269652 
L 151.28377 244.192782 
L 151.334096 244.178654 
L 151.584043 244.107944 
L 151.823823 244.039263 
L 152.050939 243.973443 
L 152.241626 243.917602 
L 152.358786 243.88303 
L 152.597011 243.812118 
L 152.700308 243.781112 
L 152.869149 243.730097 
L 153.150908 243.644033 
L 153.310715 243.5947 
L 153.573405 243.512791 
L 153.727401 243.464299 
L 153.873666 243.417916 
L 154.151516 243.328932 
L 154.308857 243.278032 
L 154.609028 243.179901 
L 154.738722 243.137085 
L 154.820046 243.110108 
L 155.046041 243.03462 
L 155.314428 242.943971 
L 155.498336 242.881227 
L 155.664163 242.824212 
L 155.860663 242.756109 
L 155.994925 242.709239 
L 156.189111 242.640962 
L 156.539082 242.51645 
L 156.764378 242.435298 
L 156.827604 242.412384 
L 157.033812 242.337219 
L 157.318063 242.232525 
L 157.486892 242.169747 
L 157.56342 242.141144 
L 157.829869 242.040843 
L 158.142693 241.921662 
L 158.272269 241.871843 
L 158.355242 241.839803 
L 158.66217 241.720335 
L 158.920974 241.618434 
L 158.95596 241.604577 
L 159.159627 241.52352 
L 159.481709 241.393976 
L 159.559097 241.362601 
L 159.71101 241.300731 
L 159.929312 241.211168 
L 160.230622 241.086277 
L 160.371838 241.027234 
L 160.607734 240.927877 
L 160.73892 240.872227 
L 161.02606 240.749429 
L 161.197195 240.675594 
L 161.467731 240.557878 
L 161.559419 240.517706 
L 161.807039 240.408511 
L 162.009659 240.318394 
L 162.153798 240.253865 
L 162.259335 240.206395 
L 162.538718 240.079819 
L 162.830047 239.946413 
L 162.881048 239.92291 
L 163.148913 239.798731 
L 163.298797 239.728708 
L 163.511126 239.628847 
L 163.674109 239.551663 
L 163.957662 239.416275 
L 164.170812 239.313577 
L 164.286974 239.257272 
L 164.437492 239.183959 
L 164.602605 239.103078 
L 164.819057 238.996313 
L 165.132272 238.84034 
L 165.326824 238.742572 
L 165.573899 238.617425 
L 165.694304 238.556037 
L 165.96405 238.417551 
L 166.080024 238.357602 
L 166.346033 238.219164 
L 166.490431 238.143469 
L 166.666933 238.050421 
L 166.919937 237.916033 
L 167.05256 237.845109 
L 167.149703 237.79295 
L 167.360497 237.679159 
L 167.672384 237.509254 
L 167.835902 237.419436 
L 168.110362 237.267531 
L 168.124232 237.259815 
L 168.488411 237.055917 
L 168.628439 236.976833 
L 168.81075 236.873297 
L 168.969912 236.782375 
z
" clip-path="url(#p3f48ba56aa)" style="fill: #808080; opacity: 0.5"/>
   </g>
   <g id="patch_7">
    <path d="M 286.026923 169.2 
L 286.014305 170.601913 
L 286.001687 171.182524 
L 285.989069 171.627988 
L 285.97645 172.003485 
L 285.963832 172.334264 
L 285.951214 172.633276 
L 285.938596 172.908211 
L 285.925978 173.164084 
L 285.91336 173.404375 
L 285.900742 173.631621 
L 285.888123 173.847735 
L 285.875505 174.054204 
L 285.850269 174.442715 
L 285.825033 174.804243 
L 285.799796 175.143715 
L 285.77456 175.464718 
L 285.749324 175.769958 
L 285.724088 176.061541 
L 285.698851 176.341138 
L 285.673615 176.610108 
L 285.648379 176.869568 
L 285.623142 177.120452 
L 285.592628 177.413473 
L 285.562114 177.696285 
L 285.5316 177.969875 
L 285.501086 178.235082 
L 285.440058 178.743118 
L 285.37903 179.225071 
L 285.318002 179.684539 
L 285.256974 180.124358 
L 285.195946 180.546815 
L 285.134917 180.95378 
L 285.083649 181.284839 
L 285.03238 181.606855 
L 284.969356 181.991321 
L 284.906332 182.364263 
L 284.843308 182.726633 
L 284.780285 183.079259 
L 284.717261 183.422866 
L 284.654237 183.758092 
L 284.528189 184.405607 
L 284.431616 184.882943 
L 284.335044 185.345595 
L 284.238472 185.794793 
L 284.141899 186.2316 
L 284.015609 186.785663 
L 283.889318 187.321914 
L 283.763027 187.841891 
L 283.636737 188.346919 
L 283.511297 188.834885 
L 283.385858 189.310233 
L 283.260419 189.773836 
L 283.134979 190.226472 
L 282.994039 190.722818 
L 282.853098 191.20707 
L 282.64611 191.897947 
L 282.439121 192.566574 
L 282.283973 193.054282 
L 282.128825 193.531226 
L 281.986705 193.959207 
L 281.844585 194.379112 
L 281.560345 195.196253 
L 281.520948 195.307248 
L 281.344807 195.797131 
L 281.168666 196.277007 
L 280.992525 196.747398 
L 280.816384 197.208783 
L 280.512082 197.985918 
L 280.288236 198.542432 
L 280.06439 199.08691 
L 279.882647 199.52057 
L 279.662895 200.035352 
L 279.443143 200.540138 
L 279.160766 201.174864 
L 278.878389 201.794786 
L 278.70154 202.17587 
L 278.339454 202.939798 
L 278.003579 203.629872 
L 277.667704 204.303171 
L 277.51272 204.608463 
L 277.177436 205.257792 
L 276.82543 205.923861 
L 276.438939 206.637729 
L 276.052447 207.334319 
L 276.036164 207.363302 
L 275.756426 207.85675 
L 275.476688 208.341979 
L 275.186511 208.836954 
L 274.864467 209.376694 
L 274.316847 210.27242 
L 273.922834 210.900548 
L 273.679405 211.282089 
L 273.342114 211.8028 
L 273.004823 212.314585 
L 272.712857 212.750631 
L 272.362006 213.266355 
L 272.112501 213.62778 
L 271.523712 214.463792 
L 271.079544 215.079381 
L 270.836478 215.410976 
L 270.513471 215.846021 
L 270.168339 216.303978 
L 269.505533 217.164236 
L 269.031079 217.76512 
L 268.820949 218.027408 
L 268.319176 218.644493 
L 268.188975 218.802531 
L 267.569039 219.543589 
L 267.085047 220.109398 
L 266.843576 220.387639 
L 266.620603 220.642223 
L 266.161102 221.159915 
L 265.84699 221.508536 
L 265.21673 222.195506 
L 264.812395 222.627656 
L 264.364962 223.098298 
L 264.221796 223.247242 
L 263.575583 223.909828 
L 263.376977 224.110332 
L 262.843614 224.641685 
L 262.634778 224.846958 
L 262.08871 225.376499 
L 261.870895 225.584858 
L 261.430143 226.001584 
L 260.943044 226.454655 
L 260.447249 226.907941 
L 260.300115 227.040958 
L 259.943273 227.360754 
L 259.304859 227.923136 
L 259.099533 228.101397 
L 258.66008 228.478732 
L 258.242953 228.831692 
L 257.666376 229.311397 
L 257.33531 229.582629 
L 257.146318 229.736108 
L 256.821959 229.997244 
L 256.354572 230.368545 
L 255.907165 230.718548 
L 255.397509 231.110898 
L 255.199797 231.261308 
L 254.656522 231.669522 
L 254.314128 231.923013 
L 254.070151 232.10188 
L 253.713989 232.360392 
L 253.028474 232.849394 
L 252.586104 233.159068 
L 252.185775 233.435397 
L 251.956504 233.591999 
L 251.581103 233.845838 
L 251.235451 234.076763 
L 250.618249 234.482522 
L 250.526638 234.542037 
L 250.192672 234.757457 
L 249.745289 235.042276 
L 249.11213 235.438108 
L 248.799306 235.630579 
L 248.453095 235.841232 
L 248.074676 236.068672 
L 247.691896 236.295778 
L 247.253703 236.55215 
L 246.731117 236.852917 
L 246.362543 237.061822 
L 245.918663 237.309913 
L 245.872287 237.335615 
L 245.412991 237.587934 
L 244.99028 237.816618 
L 244.543393 238.054733 
L 244.252888 238.207531 
L 243.857225 238.413135 
L 243.48082 238.606072 
L 243.165087 238.765927 
L 242.680519 239.007774 
L 242.179075 239.253635 
L 241.770542 239.450659 
L 241.411894 239.621218 
L 240.853872 239.882154 
L 240.433178 240.075334 
L 240.36604 240.105884 
L 240.03244 240.256546 
L 239.472156 240.505357 
L 238.985401 240.717249 
L 238.842595 240.778668 
L 238.281104 241.016894 
L 237.994198 241.136625 
L 237.347215 241.401708 
L 237.153322 241.479834 
L 236.860674 241.596607 
L 236.378566 241.785997 
L 235.869828 241.981852 
L 235.713534 242.041203 
L 235.304213 242.194823 
L 234.680488 242.423891 
L 234.436333 242.51192 
L 233.779333 242.744247 
L 233.762534 242.750101 
L 233.19013 242.946999 
L 232.934075 243.033472 
L 232.509592 243.174649 
L 231.967414 243.351046 
L 231.518968 243.493641 
L 231.304917 243.560654 
L 230.760259 243.728126 
L 230.280119 243.872154 
L 230.130992 243.916204 
L 229.607637 244.068237 
L 229.290826 244.158345 
L 228.835891 244.285211 
L 228.592139 244.351964 
L 228.143177 244.472695 
L 227.886497 244.540429 
L 227.351607 244.678581 
L 227.102117 244.741637 
L 226.647803 244.854213 
L 226.091298 244.988172 
L 225.87693 245.038621 
L 225.508151 245.123915 
L 224.90482 245.259395 
L 224.761443 245.290851 
L 224.356254 245.37822 
L 223.845389 245.485166 
L 223.585227 245.538258 
L 223.206592 245.613877 
L 222.590522 245.732754 
L 222.147931 245.814984 
L 221.742947 245.887913 
L 221.279406 245.968678 
L 221.114005 245.996799 
L 220.702543 246.065166 
L 220.104296 246.160536 
L 219.808698 246.2059 
L 219.567783 246.242013 
L 218.953493 246.330614 
L 218.714947 246.363674 
L 218.269288 246.423426 
L 218.119825 246.44288 
L 217.446893 246.526826 
L 217.04627 246.57398 
L 216.603293 246.623672 
L 216.464491 246.638715 
L 216.145753 246.672306 
L 215.632128 246.723647 
L 215.097228 246.773465 
L 214.937601 246.787611 
L 214.271408 246.843077 
L 214.060398 246.859446 
L 213.710816 246.885295 
L 213.388436 246.907731 
L 212.841275 246.942736 
L 212.290764 246.974055 
L 212.235847 246.976965 
L 211.618583 247.006997 
L 211.288812 247.021031 
L 211.016746 247.031555 
L 210.486388 247.049333 
L 209.956375 247.063486 
L 209.896039 247.064868 
L 209.153036 247.078057 
L 209.084199 247.07892 
L 208.729048 247.082405 
L 208.142308 247.084615 
L 208.142308 91.315385 
L 208.395394 91.315796 
L 209.074575 91.320964 
L 209.410648 91.325713 
L 209.555564 91.328208 
L 210.266664 91.344362 
L 210.674341 91.356554 
L 210.834786 91.361938 
L 211.317842 91.380148 
L 211.701454 91.396749 
L 212.126302 91.417347 
L 212.295899 91.426219 
L 212.881568 91.45971 
L 213.189329 91.479083 
L 213.766169 91.518693 
L 213.957488 91.53278 
L 214.573413 91.581354 
L 214.771895 91.598055 
L 215.154086 91.631654 
L 215.481319 91.66193 
L 215.828487 91.695575 
L 216.408908 91.755332 
L 216.57094 91.772799 
L 217.200714 91.843949 
L 217.436624 91.871939 
L 217.903039 91.929427 
L 218.234624 91.972036 
L 218.62824 92.024495 
L 219.116064 92.092348 
L 219.540422 92.153934 
L 219.757241 92.186322 
L 220.10832 92.240089 
L 220.781129 92.347716 
L 221.176074 92.41371 
L 221.466625 92.463595 
L 221.913525 92.542535 
L 222.343014 92.620935 
L 222.798795 92.706858 
L 223.048223 92.755072 
L 223.489423 92.842424 
L 223.632199 92.87126 
L 224.003139 92.947476 
L 224.652279 93.085388 
L 225.12799 93.190133 
L 225.377816 93.246392 
L 225.906015 93.368186 
L 226.28168 93.457169 
L 226.352513 93.474167 
L 226.986406 93.629415 
L 227.298887 93.708022 
L 227.537472 93.768966 
L 228.125815 93.922694 
L 228.38508 93.991998 
L 228.747216 94.090406 
L 229.19748 94.215381 
L 229.583493 94.324845 
L 229.931051 94.425245 
L 230.494073 94.59161 
L 230.786528 94.679851 
L 231.054726 94.761875 
L 231.435603 94.88018 
L 232.157071 95.11016 
L 232.417127 95.194957 
L 232.743479 95.302803 
L 233.309347 95.4936 
L 233.68187 95.621851 
L 233.815589 95.668402 
L 234.535249 95.923633 
L 234.663163 95.969832 
L 235.320671 96.211303 
L 235.419026 96.248003 
L 235.826965 96.401834 
L 236.250117 96.564166 
L 236.641633 96.716886 
L 237.052561 96.879805 
L 237.438204 97.035162 
L 237.852782 97.204854 
L 238.103565 97.308857 
L 238.489075 97.470738 
L 239.121633 97.741658 
L 239.265767 97.804317 
L 239.907349 98.087445 
L 240.041078 98.147331 
L 240.524617 98.366397 
L 240.92997 98.553114 
L 241.393405 98.77005 
L 241.811537 98.968979 
L 242.130197 99.122638 
L 242.572137 99.338707 
L 243.115307 99.609033 
L 243.34545 99.72517 
L 243.784856 99.94957 
L 244.066714 100.095367 
L 244.662366 100.408295 
L 244.790129 100.476274 
L 245.355645 100.780845 
L 245.57929 100.90296 
L 246.002564 101.136689 
L 246.627182 101.487905 
L 246.782919 101.576657 
L 247.197797 101.815417 
L 247.691414 102.103938 
L 248.213149 102.414216 
L 248.485807 102.578566 
L 248.666932 102.688586 
L 249.172584 102.999322 
L 249.46922 103.184095 
L 249.829719 103.411148 
L 250.332648 103.732539 
L 250.690423 103.964495 
L 251.138875 104.259192 
L 251.533464 104.522176 
L 251.973542 104.819598 
L 252.409588 105.118636 
L 252.704078 105.323072 
L 252.98836 105.522336 
L 253.454408 105.853123 
L 253.875684 106.15659 
L 254.386864 106.530595 
L 254.796766 106.835148 
L 255.055838 107.029798 
L 255.570709 107.421686 
L 256.068224 107.806842 
L 256.257057 107.954721 
L 256.782413 108.371113 
L 257.153661 108.669838 
L 257.590526 109.026193 
L 257.896412 109.278865 
L 258.299294 109.61569 
L 258.608869 109.877665 
L 259.01287 110.22374 
L 259.59543 110.731295 
L 259.943007 111.039009 
L 260.267888 111.329998 
L 260.536196 111.572803 
L 260.789091 111.80375 
L 261.183095 112.167657 
L 261.650067 112.605539 
L 262.104612 113.038776 
L 262.678665 113.596051 
L 262.991042 113.904162 
L 263.175851 114.088092 
L 263.60358 114.518554 
L 264.029875 114.954326 
L 264.673053 115.62493 
L 264.818235 115.778539 
L 265.443996 116.45031 
L 265.84287 116.88692 
L 266.11556 117.189277 
L 266.304425 117.400566 
L 266.807313 117.970805 
L 267.11934 118.330333 
L 267.574854 118.863277 
L 267.9601 119.321698 
L 268.568723 120.060793 
L 268.7694 120.3086 
L 269.151072 120.785705 
L 269.408304 121.111634 
L 270.009158 121.887146 
L 270.203897 122.142881 
L 270.775671 122.90664 
L 270.9752 123.177821 
L 271.464434 123.853317 
L 272.078585 124.723425 
L 272.148625 124.824278 
L 272.540305 125.394621 
L 272.984656 126.055091 
L 273.467891 126.790314 
L 274.053952 127.707008 
L 274.310239 128.116936 
L 274.843503 128.988512 
L 275.004589 129.256932 
L 275.459526 130.028513 
L 275.881178 130.762274 
L 276.232621 131.388328 
L 276.667134 132.181606 
L 277.150771 133.091202 
L 277.275865 133.331288 
L 277.665735 134.09293 
L 278.022907 134.809374 
L 278.380079 135.544854 
L 278.679127 136.176215 
L 279.094436 137.07822 
L 279.477278 137.937637 
L 279.690212 138.428086 
L 279.903146 138.927978 
L 279.984251 139.120962 
L 280.317212 139.928914 
L 280.650173 140.763707 
L 280.836278 141.242891 
L 281.022383 141.731693 
L 281.219415 142.260259 
L 281.390945 142.730196 
L 281.562474 143.209761 
L 281.734003 143.699496 
L 281.905532 144.2 
L 282.097261 144.773003 
L 282.28899 145.361317 
L 282.432493 145.812359 
L 282.581717 146.291756 
L 282.730942 146.782395 
L 282.880166 147.285032 
L 283.029391 147.800512 
L 283.209254 148.440257 
L 283.389117 149.101964 
L 283.500466 149.523586 
L 283.611815 149.955086 
L 283.761903 150.553549 
L 283.91199 151.173117 
L 284.062078 151.816047 
L 284.212165 152.485034 
L 284.312126 152.946627 
L 284.391419 153.322772 
L 284.470712 153.708453 
L 284.550005 154.104401 
L 284.629298 154.511446 
L 284.708591 154.930537 
L 284.787884 155.36277 
L 284.867177 155.809417 
L 284.94647 156.271971 
L 285.019814 156.715515 
L 285.093158 157.175857 
L 285.166501 157.655004 
L 285.239845 158.155405 
L 285.30373 158.61094 
L 285.367615 159.087376 
L 285.431501 159.587823 
L 285.495386 160.116246 
L 285.527329 160.392513 
L 285.559271 160.677849 
L 285.591214 160.973201 
L 285.623157 161.279687 
L 285.655099 161.598655 
L 285.687042 161.931747 
L 285.718985 162.281004 
L 285.750927 162.649009 
L 285.785427 163.071429 
L 285.802676 163.294034 
L 285.819926 163.525417 
L 285.837176 163.766699 
L 285.854426 164.019264 
L 285.871675 164.28485 
L 285.888925 164.565695 
L 285.906175 164.864764 
L 285.923425 165.186129 
L 285.93205 165.356905 
L 285.940674 165.535651 
L 285.949299 165.723597 
L 285.957924 165.922325 
L 285.966549 166.133931 
L 285.975174 166.361293 
L 285.983799 166.608555 
L 285.992424 166.882077 
L 286.001048 167.192564 
L 286.009673 167.56089 
L 286.018298 168.040942 
z
" clip-path="url(#p3f48ba56aa)" style="fill: #808080; opacity: 0.5"/>
   </g>
   <g id="patch_8">
    <path d="M 208.142308 169.2 
L 208.135928 168.203163 
L 208.129549 167.790288 
L 208.123169 167.473498 
L 208.11679 167.206448 
L 208.11041 166.971187 
L 208.104031 166.758507 
L 208.097651 166.562941 
L 208.091272 166.380923 
L 208.084892 166.209978 
L 208.078513 166.048305 
L 208.072134 165.894542 
L 208.065754 165.747633 
L 208.059375 165.606736 
L 208.052995 165.47117 
L 208.046616 165.340373 
L 208.040236 165.213876 
L 208.027477 164.97225 
L 208.014718 164.743743 
L 208.001959 164.52643 
L 207.9892 164.318816 
L 207.976441 164.11971 
L 207.963683 163.928151 
L 207.950924 163.743341 
L 207.938165 163.564618 
L 207.922416 163.351577 
L 207.906667 163.14607 
L 207.890918 162.947353 
L 207.875169 162.754798 
L 207.85942 162.567869 
L 207.843671 162.386102 
L 207.827922 162.209095 
L 207.812173 162.036496 
L 207.788673 161.786471 
L 207.765172 161.544679 
L 207.741671 161.310364 
L 207.71817 161.082878 
L 207.69467 160.861663 
L 207.671169 160.646231 
L 207.647668 160.436156 
L 207.624167 160.231061 
L 207.580567 159.862634 
L 207.536966 159.508398 
L 207.493365 159.16685 
L 207.449765 158.836736 
L 207.406164 158.516996 
L 207.362564 158.206724 
L 207.318963 157.90514 
L 207.275362 157.611566 
L 207.237071 157.359874 
L 207.198779 157.113544 
L 207.160488 156.872253 
L 207.122196 156.635712 
L 207.083674 156.402271 
L 207.045151 156.173126 
L 207.002345 155.923269 
L 206.959539 155.678163 
L 206.916732 155.437554 
L 206.873926 155.201212 
L 206.788313 154.740491 
L 206.7027 154.294495 
L 206.654486 154.049317 
L 206.606272 153.808196 
L 206.509845 153.337384 
L 206.474617 153.168977 
L 206.416626 152.8957 
L 206.358634 152.627132 
L 206.300643 152.363047 
L 206.242651 152.103237 
L 206.16 151.739958 
L 206.077348 151.384468 
L 205.983339 150.989022 
L 205.889331 150.602458 
L 205.776756 150.150478 
L 205.664182 149.709627 
L 205.584086 149.402329 
L 205.503989 149.100047 
L 205.423893 148.802559 
L 205.343797 148.509658 
L 205.233701 148.114189 
L 205.095929 147.630306 
L 204.958156 147.157903 
L 204.82619 146.715506 
L 204.728568 146.394256 
L 204.630947 146.077882 
L 204.466668 145.555948 
L 204.346452 145.181903 
L 204.226236 144.814186 
L 204.091324 144.408709 
L 203.912488 143.882331 
L 203.723783 143.339861 
L 203.540731 142.825588 
L 203.357678 142.3224 
L 203.155535 141.778878 
L 203.041237 141.476923 
L 202.88901 141.080523 
L 202.749262 140.72219 
L 202.609513 140.368987 
L 202.427074 139.915301 
L 202.358163 139.746045 
L 202.173192 139.297255 
L 201.988222 138.856229 
L 201.97203 138.817981 
L 201.821216 138.464427 
L 201.670402 138.115626 
L 201.426258 137.560648 
L 201.284517 137.243725 
L 201.020998 136.664359 
L 200.991033 136.599266 
L 200.827883 136.247587 
L 200.664732 135.90042 
L 200.503381 135.561382 
L 200.399491 135.34529 
L 200.226053 134.988279 
L 200.052615 134.635826 
L 199.866821 134.263164 
L 199.786016 134.102628 
L 199.590116 133.717211 
L 199.28634 133.129803 
L 199.179754 132.926556 
L 198.877061 132.357151 
L 198.753972 132.128811 
L 198.480399 131.627728 
L 198.399084 131.480454 
L 198.119651 130.980007 
L 197.885513 130.567226 
L 197.729116 130.294726 
L 197.477922 129.862307 
L 197.475753 129.858601 
L 197.117925 129.253503 
L 196.978704 129.0214 
L 196.746691 128.638611 
L 196.516004 128.26286 
L 196.351368 127.997581 
L 196.165594 127.701063 
L 195.995245 127.431741 
L 195.882542 127.254887 
L 195.659506 126.907967 
L 195.420175 126.540134 
L 195.20593 126.214656 
L 195.05577 125.988631 
L 194.788116 125.589936 
L 194.630651 125.357834 
L 194.401858 125.023769 
L 194.310015 124.890709 
L 194.046521 124.512209 
L 193.933971 124.351981 
L 193.611968 123.898245 
L 193.547617 123.808384 
L 193.268325 123.421473 
L 193.074779 123.15625 
L 192.90814 122.929764 
L 192.654625 122.588455 
L 192.581172 122.490288 
L 192.341809 122.172606 
L 192.017298 121.74724 
L 191.930625 121.634648 
L 191.740407 121.389027 
L 191.433162 120.996522 
L 191.252728 120.76841 
L 191.188683 120.68786 
L 190.99543 120.446123 
L 190.637336 120.003334 
L 190.47326 119.802644 
L 190.334203 119.633619 
L 190.073971 119.319883 
L 189.92428 119.140918 
L 189.842104 119.043134 
L 189.520463 118.663505 
L 189.342908 118.456029 
L 189.157303 118.240711 
L 188.946237 117.997773 
L 188.806722 117.838298 
L 188.523383 117.517096 
L 188.401549 117.380069 
L 188.196439 117.150841 
L 187.915715 116.840037 
L 187.709028 116.613335 
L 187.562392 116.453581 
L 187.478919 116.363038 
L 187.197411 116.059791 
L 186.971455 115.818707 
L 186.864108 115.704888 
L 186.559173 115.384049 
L 186.49117 115.312996 
L 186.230871 115.042668 
L 186.116973 114.925199 
L 185.874596 114.676855 
L 185.569678 114.36755 
L 185.523565 114.321073 
L 185.214886 114.011956 
L 185.125471 113.923059 
L 184.87216 113.67277 
L 184.741381 113.544444 
L 184.49068 113.300122 
L 184.276514 113.093135 
L 184.159992 112.981183 
L 183.909591 112.742166 
L 183.758676 112.599134 
L 183.465503 112.323447 
L 183.380112 112.243685 
L 183.10321 111.986675 
L 182.923051 111.820794 
L 182.64419 111.566085 
L 182.604252 111.529808 
L 182.296641 111.252083 
L 182.183301 111.150499 
L 182.000138 110.987178 
L 181.645872 110.674208 
L 181.573077 110.610371 
L 181.341277 110.408158 
L 181.184303 110.272131 
L 181.005023 110.11767 
L 180.784959 109.929361 
L 180.62417 109.792667 
L 180.438448 109.635706 
L 180.067315 109.325007 
L 179.899853 109.186091 
L 179.694822 109.017083 
L 179.618535 108.954498 
L 179.338308 108.725986 
L 179.234312 108.64173 
L 179.038342 108.483763 
L 178.816025 108.305816 
L 178.676702 108.194977 
L 178.333249 107.923951 
L 178.189756 107.811642 
L 178.072803 107.720503 
L 177.823494 107.527414 
L 177.700763 107.432951 
L 177.420068 107.21836 
L 177.208355 107.057836 
L 177.035735 106.927791 
L 176.832271 106.77547 
L 176.552455 106.567674 
L 176.462048 106.50095 
L 176.222642 106.32523 
L 176.062736 106.208641 
L 175.79653 106.015923 
L 175.642591 105.905258 
L 175.505557 105.807224 
L 175.20033 105.590467 
L 174.995375 105.446152 
L 174.867129 105.356351 
L 174.593264 105.165866 
L 174.49787 105.099922 
L 174.338397 104.99015 
L 174.028142 104.778256 
L 173.87549 104.674803 
L 173.774374 104.606566 
L 173.494195 104.418689 
L 173.317093 104.300837 
L 173.097188 104.15547 
L 173.003042 104.093561 
L 172.73311 103.917137 
L 172.43614 103.724876 
L 172.332966 103.658527 
L 172.071545 103.491439 
L 171.864971 103.36044 
L 171.746384 103.285648 
L 171.58127 103.182008 
L 171.446953 103.098123 
L 171.120213 102.895643 
L 170.896848 102.758504 
L 170.805333 102.702615 
L 170.572012 102.560905 
L 170.419882 102.469109 
L 170.183473 102.327395 
L 169.986485 102.210177 
L 169.741823 102.065682 
L 169.594779 101.979416 
L 169.403373 101.867771 
L 169.2 101.749945 
L 169.2 101.749945 
L 169.472692 101.593239 
L 169.564346 101.540897 
L 169.8405 101.384184 
L 170.01815 101.284156 
L 170.108172 101.233701 
L 170.320921 101.115082 
L 170.589399 100.966633 
L 170.779251 100.86249 
L 170.878567 100.808283 
L 171.233351 100.616167 
L 171.309753 100.575105 
L 171.558789 100.442023 
L 171.825964 100.300533 
L 171.885286 100.269298 
L 172.11839 100.147189 
L 172.381823 100.010398 
L 172.524884 99.936644 
L 172.80875 99.791405 
L 172.928515 99.730567 
L 173.041093 99.673616 
L 173.260567 99.563246 
L 173.416843 99.485185 
L 173.650056 99.369506 
L 173.810482 99.290494 
L 174.117139 99.140731 
L 174.239528 99.081423 
L 174.490434 98.960661 
L 174.689186 98.865784 
L 174.968841 98.733452 
L 175.067136 98.687261 
L 175.221846 98.614899 
L 175.408991 98.527917 
L 175.699545 98.394065 
L 175.784602 98.355154 
L 176.028299 98.244353 
L 176.33531 98.106201 
L 176.486732 98.038649 
L 176.542921 98.013681 
L 176.771995 97.912436 
L 176.958221 97.830777 
L 177.210551 97.721054 
L 177.41287 97.633842 
L 177.589393 97.558303 
L 177.80718 97.465815 
L 178.02388 97.374562 
L 178.2678 97.272765 
L 178.38683 97.223442 
L 178.646594 97.116603 
L 178.823122 97.044622 
L 179.073204 96.943509 
L 179.144828 96.914735 
L 179.38216 96.81998 
L 179.668694 96.706782 
L 179.834242 96.641977 
L 179.950933 96.596558 
L 180.149213 96.519879 
L 180.426444 96.413709 
L 180.632941 96.335413 
L 180.732055 96.29807 
L 181.007306 96.195171 
L 181.118094 96.154088 
L 181.289575 96.090876 
L 181.610269 95.973883 
L 181.748755 95.923853 
L 181.951275 95.851223 
L 182.174729 95.771816 
L 182.232013 95.751583 
L 182.528355 95.647714 
L 182.658512 95.602517 
L 182.811325 95.549782 
L 183.011184 95.481346 
L 183.261038 95.396641 
L 183.582319 95.289106 
L 183.707504 95.247626 
L 183.910839 95.180751 
L 184.155607 95.10107 
L 184.246792 95.071614 
L 184.453844 95.005189 
L 184.635197 94.947532 
L 184.816053 94.890518 
L 184.979738 94.839334 
L 185.237687 94.759476 
L 185.505732 94.677528 
L 185.614504 94.644575 
L 185.820391 94.582674 
L 185.996526 94.530209 
L 186.231915 94.4608 
L 186.475403 94.38985 
L 186.668486 94.334198 
L 186.752585 94.310127 
L 187.079553 94.217511 
L 187.194028 94.185449 
L 187.449477 94.114582 
L 187.565358 94.082742 
L 187.86767 94.000582 
L 187.949051 93.978688 
L 188.095488 93.93953 
L 188.376885 93.865138 
L 188.641327 93.796253 
L 188.754445 93.767089 
L 189.029965 93.69681 
L 189.07317 93.685887 
L 189.418561 93.599507 
L 189.551513 93.566703 
L 189.737109 93.521324 
L 189.84946 93.494088 
L 190.166822 93.418107 
L 190.324876 93.380791 
L 190.470298 93.346764 
L 190.647534 93.305691 
L 190.949957 93.236611 
L 191.071705 93.20916 
L 191.308877 93.15627 
L 191.489687 93.11647 
L 191.75721 93.058409 
L 191.951131 93.016937 
L 192.049284 92.996142 
L 192.227732 92.958675 
L 192.575676 92.886873 
L 192.71437 92.858713 
L 192.925367 92.816376 
L 193.125583 92.776762 
L 193.248228 92.752765 
L 193.523131 92.699719 
L 193.572037 92.690389 
L 193.880111 92.632363 
L 194.080574 92.595294 
L 194.215974 92.570564 
L 194.378718 92.541165 
L 194.668749 92.489658 
L 194.750776 92.475296 
L 194.999722 92.432261 
L 195.241346 92.391286 
L 195.483907 92.350939 
L 195.67936 92.319 
L 195.852846 92.291077 
L 196.075756 92.255789 
L 196.229833 92.231784 
L 196.340187 92.214785 
L 196.529054 92.186068 
L 196.853895 92.137785 
L 196.895609 92.131686 
L 197.230255 92.083592 
L 197.476578 92.049138 
L 197.477578 92.049 
L 197.843981 91.999237 
L 197.965789 91.983086 
L 198.19882 91.952732 
L 198.43831 91.922282 
L 198.488124 91.916043 
L 198.816676 91.875709 
L 199.020284 91.851425 
L 199.210076 91.829278 
L 199.356694 91.812493 
L 199.573717 91.788163 
L 199.727007 91.771349 
L 199.89181 91.753615 
L 200.053089 91.736603 
L 200.255382 91.715745 
L 200.416431 91.699522 
L 200.680379 91.673663 
L 200.99082 91.64441 
L 201.050637 91.638917 
L 201.345872 91.61249 
L 201.522062 91.597257 
L 201.651609 91.586315 
L 201.820249 91.572396 
L 202.004288 91.557627 
L 202.355904 91.530631 
L 202.554765 91.516072 
L 202.57889 91.51434 
L 202.8053 91.498458 
L 203.043317 91.482476 
L 203.15888 91.47498 
L 203.403384 91.459689 
L 203.55628 91.45052 
L 203.93429 91.429145 
L 204.057393 91.422582 
L 204.245523 91.412929 
L 204.428744 91.403967 
L 204.662129 91.393177 
L 204.873619 91.384006 
L 205.059856 91.376406 
L 205.164896 91.372316 
L 205.323634 91.366406 
L 205.675634 91.354455 
L 205.744772 91.352295 
L 205.970766 91.345663 
L 206.095576 91.342282 
L 206.380891 91.335305 
L 206.479908 91.333128 
L 206.769824 91.327479 
L 206.888562 91.325476 
L 207.210754 91.320956 
L 207.417045 91.318762 
L 207.523364 91.317844 
L 207.817618 91.316061 
L 207.884155 91.315812 
L 208.142308 91.315385 
z
" clip-path="url(#p3f48ba56aa)" style="fill: #808080; opacity: 0.5"/>
   </g>
   <g id="patch_9">
    <path d="M 208.142308 169.2 
L 208.135416 170.236081 
L 208.128524 170.665207 
L 208.121633 170.994466 
L 208.114741 171.272025 
L 208.107849 171.516543 
L 208.100958 171.737589 
L 208.094066 171.940849 
L 208.087174 172.130026 
L 208.080283 172.307693 
L 208.073391 172.475724 
L 208.066499 172.635532 
L 208.059608 172.788217 
L 208.052716 172.934652 
L 208.045824 173.075545 
L 208.038933 173.211482 
L 208.032041 173.342949 
L 208.018257 173.594066 
L 208.004474 173.831547 
L 207.990691 174.057393 
L 207.976907 174.273157 
L 207.963124 174.480075 
L 207.949341 174.67915 
L 207.935557 174.871208 
L 207.921774 175.056939 
L 207.900178 175.336586 
L 207.878582 175.603961 
L 207.856987 175.860542 
L 207.835391 176.107531 
L 207.813795 176.345923 
L 207.792199 176.576552 
L 207.770604 176.800124 
L 207.749008 177.017245 
L 207.727793 177.224763 
L 207.706578 177.426994 
L 207.685363 177.624319 
L 207.664148 177.817074 
L 207.642933 178.005559 
L 207.621718 178.190044 
L 207.579288 178.547952 
L 207.542288 178.849068 
L 207.505289 179.14093 
L 207.46829 179.42433 
L 207.431291 179.699954 
L 207.387093 180.019837 
L 207.342895 180.330356 
L 207.298697 180.632273 
L 207.2545 180.926252 
L 207.216556 181.172745 
L 207.178612 181.414146 
L 207.140669 181.650752 
L 207.102725 181.882832 
L 207.064782 182.110628 
L 207.026838 182.334365 
L 206.950951 182.77046 
L 206.883653 183.145445 
L 206.816355 183.510292 
L 206.749057 183.865756 
L 206.681759 184.212505 
L 206.624498 184.501119 
L 206.567238 184.784178 
L 206.469452 185.255559 
L 206.371667 185.71291 
L 206.272068 186.165496 
L 206.194856 186.507817 
L 206.117644 186.843159 
L 206.040432 187.171913 
L 205.96322 187.494435 
L 205.855819 187.933302 
L 205.769857 188.276852 
L 205.683895 188.613944 
L 205.570184 189.050487 
L 205.456474 189.476997 
L 205.356664 189.843587 
L 205.256855 190.203306 
L 205.147364 190.590428 
L 205.037872 190.970118 
L 204.929687 191.33835 
L 204.821502 191.700037 
L 204.72682 192.011452 
L 204.632139 192.318284 
L 204.480622 192.800213 
L 204.315282 193.314035 
L 204.160546 193.784171 
L 204.00581 194.244528 
L 203.812968 194.805365 
L 203.686403 195.166089 
L 203.559838 195.521261 
L 203.468021 195.775573 
L 203.268569 196.318723 
L 203.130045 196.688789 
L 202.997676 197.037172 
L 202.865306 197.380626 
L 202.728393 197.730877 
L 202.591479 198.07623 
L 202.454547 198.416903 
L 202.337129 198.70539 
L 202.162892 199.127504 
L 201.988655 199.542746 
L 201.944732 199.646373 
L 201.777995 200.036011 
L 201.611258 200.419896 
L 201.410045 200.875795 
L 201.333733 201.046659 
L 201.160875 201.429676 
L 200.964443 201.858363 
L 200.725826 202.370099 
L 200.422569 203.006855 
L 200.246334 203.370211 
L 200.032777 203.804203 
L 199.844795 204.180686 
L 199.66324 204.539542 
L 199.624076 204.616354 
L 199.386341 205.078171 
L 199.187768 205.458213 
L 198.878244 206.040646 
L 198.669759 206.426367 
L 198.53213 206.678187 
L 198.36684 206.977735 
L 198.089204 207.474003 
L 197.908291 207.792873 
L 197.679638 208.190954 
L 197.54651 208.420254 
L 197.382789 208.699807 
L 197.095635 209.183781 
L 197.017962 209.313335 
L 196.696758 209.843128 
L 196.614706 209.976956 
L 196.456218 210.233749 
L 196.112928 210.782462 
L 195.94821 211.042194 
L 195.759521 211.336964 
L 195.671214 211.473921 
L 195.471031 211.782083 
L 195.155932 212.260792 
L 195.061385 212.402949 
L 194.921181 212.612517 
L 194.695438 212.946889 
L 194.390223 213.39312 
L 194.256163 213.587036 
L 193.97333 213.992085 
L 193.861467 214.150785 
L 193.586502 214.537349 
L 193.489982 214.671868 
L 193.176337 215.104874 
L 193.116843 215.186308 
L 192.835061 215.569022 
L 192.722668 215.72032 
L 192.451497 216.082236 
L 192.32677 216.247242 
L 192.091579 216.555927 
L 191.897611 216.808127 
L 191.753338 216.994339 
L 191.563484 217.237623 
L 191.344815 217.515388 
L 191.149991 217.760697 
L 190.915802 218.052913 
L 190.714774 218.301472 
L 190.474598 218.595724 
L 190.418489 218.664046 
L 190.041975 219.118462 
L 190.024545 219.139329 
L 189.704728 219.519611 
L 189.478163 219.786057 
L 189.403323 219.873541 
L 189.234682 220.069715 
L 189.053303 220.279247 
L 188.728125 220.651159 
L 188.551095 220.851645 
L 188.28559 221.149749 
L 188.120166 221.333937 
L 187.929945 221.544289 
L 187.845052 221.637671 
L 187.686535 221.811229 
L 187.491511 222.023321 
L 187.135123 222.406872 
L 186.942909 222.611605 
L 186.737049 222.829242 
L 186.705583 222.862361 
L 186.396915 223.185193 
L 186.265232 223.321796 
L 185.970923 223.624712 
L 185.740004 223.860099 
L 185.712975 223.88752 
L 185.383813 224.219307 
L 185.192521 224.410306 
L 185.042879 224.558799 
L 184.783461 224.814331 
L 184.755833 224.841405 
L 184.554946 225.037456 
L 184.336778 225.24878 
L 184.068056 225.506821 
L 183.798861 225.762855 
L 183.625038 225.926887 
L 183.412591 226.126005 
L 183.226705 226.299011 
L 183.183713 226.338863 
L 182.963991 226.541603 
L 182.633047 226.844041 
L 182.445979 227.013459 
L 182.316717 227.129882 
L 182.114962 227.310558 
L 181.895283 227.505853 
L 181.807356 227.583606 
L 181.568373 227.793748 
L 181.289487 228.036802 
L 181.175652 228.135343 
L 180.881624 228.388097 
L 180.712609 228.53224 
L 180.587973 228.638003 
L 180.447872 228.756353 
L 180.218275 228.949087 
L 180.028322 229.10741 
L 179.850977 229.254304 
L 179.506253 229.537323 
L 179.357476 229.658453 
L 179.18471 229.798352 
L 178.906476 230.021946 
L 178.780512 230.122486 
L 178.530199 230.321015 
L 178.344262 230.467407 
L 178.13149 230.633809 
L 177.948519 230.775956 
L 177.712894 230.95773 
L 177.637751 231.015398 
L 177.448824 231.159748 
L 177.146822 231.388607 
L 177.018443 231.485195 
L 176.742939 231.691081 
L 176.640706 231.766999 
L 176.39446 231.948801 
L 176.260465 232.047102 
L 176.138288 232.136351 
L 175.835866 232.355707 
L 175.695381 232.456856 
L 175.422775 232.651782 
L 175.324718 232.721465 
L 175.146498 232.847533 
L 174.81701 233.078639 
L 174.71707 233.148237 
L 174.38773 233.375954 
L 174.273945 233.454049 
L 174.025776 233.623351 
L 173.812617 233.767653 
L 173.724767 233.826827 
L 173.55217 233.942579 
L 173.274338 234.12751 
L 173.047407 234.277289 
L 172.898279 234.3751 
L 172.643194 234.541277 
L 172.56865 234.589572 
L 172.409383 234.692353 
L 172.201264 234.825834 
L 171.995396 234.956957 
L 171.68637 235.152089 
L 171.61283 235.198226 
L 171.326481 235.376793 
L 171.110922 235.510082 
L 171.034265 235.557248 
L 170.837171 235.67796 
L 170.474332 235.89809 
L 170.315115 235.993833 
L 170.264823 236.023969 
L 170.009596 236.176111 
L 169.786867 236.307806 
L 169.583637 236.427103 
L 169.357076 236.559124 
L 169.2 236.650055 
L 169.2 236.650055 
L 169.419624 236.776379 
L 169.498879 236.821732 
L 169.79805 236.991823 
L 169.959461 237.082866 
L 170.165186 237.198173 
L 170.464569 237.364517 
L 170.53308 237.402341 
L 170.712685 237.501073 
L 170.90764 237.607549 
L 171.144859 237.736137 
L 171.381485 237.863347 
L 171.627027 237.994241 
L 171.813371 238.092827 
L 172.032863 238.208125 
L 172.232123 238.312024 
L 172.414658 238.406563 
L 172.566017 238.484492 
L 172.813955 238.611244 
L 172.955101 238.682903 
L 173.089268 238.750685 
L 173.314663 238.863825 
L 173.520022 238.966114 
L 173.788295 239.098606 
L 173.845772 239.126826 
L 174.034962 239.219299 
L 174.269055 239.332846 
L 174.481366 239.434993 
L 174.714558 239.546278 
L 174.877202 239.623334 
L 175.107095 239.731469 
L 175.276028 239.810346 
L 175.417084 239.875831 
L 175.638482 239.977925 
L 175.836068 240.06833 
L 175.969363 240.128943 
L 176.187099 240.227304 
L 176.460548 240.349697 
L 176.546291 240.387815 
L 176.736138 240.471774 
L 177.014558 240.593813 
L 177.308366 240.721195 
L 177.471712 240.791395 
L 177.621803 240.85551 
L 177.85135 240.952848 
L 177.921841 240.982566 
L 178.271761 241.12888 
L 178.467519 241.209862 
L 178.626504 241.275174 
L 178.728271 241.316765 
L 179.078573 241.458651 
L 179.094688 241.465131 
L 179.312806 241.552423 
L 179.558625 241.649889 
L 179.852077 241.764979 
L 179.892487 241.78072 
L 180.147305 241.879386 
L 180.263656 241.924096 
L 180.570805 242.041098 
L 180.683674 242.083721 
L 180.919556 242.172153 
L 181.204155 242.277693 
L 181.349981 242.331283 
L 181.588931 242.418382 
L 181.711327 242.462655 
L 181.916601 242.536387 
L 182.075382 242.592975 
L 182.22259 242.645092 
L 182.449526 242.724787 
L 182.717489 242.817878 
L 182.899345 242.880433 
L 183.145966 242.964464 
L 183.225371 242.991324 
L 183.546757 243.099068 
L 183.634711 243.128283 
L 183.95152 243.232555 
L 184.158424 243.299842 
L 184.195296 243.311766 
L 184.369863 243.367946 
L 184.620639 243.447858 
L 184.854311 243.521481 
L 184.988472 243.563386 
L 185.205158 243.630508 
L 185.477073 243.71376 
L 185.635665 243.761816 
L 185.909158 243.843824 
L 185.973596 243.862986 
L 186.1813 243.924343 
L 186.434492 243.998289 
L 186.595388 244.044797 
L 186.865877 244.122138 
L 186.931892 244.140854 
L 187.237382 244.226644 
L 187.46087 244.288557 
L 187.684616 244.349825 
L 187.817366 244.385837 
L 187.954461 244.422764 
L 188.150607 244.47513 
L 188.473154 244.560054 
L 188.563451 244.583564 
L 188.845346 244.656216 
L 189.01914 244.700449 
L 189.167836 244.737956 
L 189.389659 244.79333 
L 189.491579 244.81854 
L 189.752442 244.882403 
L 189.897965 244.917615 
L 190.175434 244.983935 
L 190.334008 245.021354 
L 190.521031 245.065038 
L 190.698344 245.106004 
L 190.876971 245.146833 
L 191.086336 245.194126 
L 191.259814 245.232853 
L 191.589038 245.305207 
L 191.66115 245.320856 
L 191.962997 245.385584 
L 192.018769 245.397407 
L 192.264366 245.448962 
L 192.552889 245.508475 
L 192.602018 245.518495 
L 192.898113 245.578189 
L 193.027374 245.603875 
L 193.332242 245.663555 
L 193.419049 245.680317 
L 193.663487 245.72697 
L 193.824225 245.757206 
L 194.050035 245.799094 
L 194.343817 245.85256 
L 194.459999 245.873383 
L 194.585437 245.895662 
L 194.840767 245.940357 
L 194.966862 245.962106 
L 195.199005 246.00159 
L 195.485189 246.049272 
L 195.688971 246.082558 
L 195.900611 246.11654 
L 195.983715 246.129721 
L 196.12505 246.151925 
L 196.381945 246.191605 
L 196.608729 246.225904 
L 196.784298 246.251989 
L 196.981383 246.280783 
L 197.138762 246.303407 
L 197.388207 246.338594 
L 197.648559 246.374442 
L 197.785801 246.392979 
L 198.023597 246.42451 
L 198.066425 246.43011 
L 198.281325 246.457843 
L 198.608204 246.498863 
L 198.660415 246.505285 
L 198.863908 246.529972 
L 199.058385 246.553058 
L 199.285885 246.579436 
L 199.589317 246.613562 
L 199.794863 246.635996 
L 199.84529 246.641415 
L 200.143451 246.67278 
L 200.359739 246.694806 
L 200.594327 246.718006 
L 200.689748 246.727238 
L 200.993189 246.755808 
L 201.158424 246.770862 
L 201.305155 246.783933 
L 201.567895 246.806639 
L 201.764607 246.823052 
L 201.898621 246.833947 
L 202.137721 246.852806 
L 202.354658 246.869276 
L 202.479728 246.878494 
L 202.634397 246.889615 
L 202.835869 246.903636 
L 203.118567 246.922425 
L 203.183404 246.926589 
L 203.470553 246.944376 
L 203.688302 246.957155 
L 203.897815 246.968873 
L 204.103779 246.979841 
L 204.199075 246.98473 
L 204.339932 246.991743 
L 204.69173 247.008141 
L 204.898241 247.017025 
L 204.989882 247.020791 
L 205.204824 247.029201 
L 205.434175 247.037519 
L 205.608971 247.043404 
L 205.769534 247.048463 
L 206.035419 247.056113 
L 206.104191 247.057944 
L 206.418644 247.06554 
L 206.480047 247.066875 
L 206.71635 247.071561 
L 206.871337 247.074244 
L 207.157858 247.078393 
L 207.38343 247.080918 
L 207.529293 247.082203 
L 207.823757 247.083964 
L 207.948772 247.084375 
L 208.142308 247.084615 
z
" clip-path="url(#p3f48ba56aa)" style="fill: #808080; opacity: 0.5"/>
   </g>
   <g id="matplotlib.axis_1"/>
   <g id="matplotlib.axis_2"/>
   <g id="line2d_1">
    <path d="M 52.373077 169.2 
L 52.533575 164.202512 
L 52.88667 160.27037 
L 53.491239 156.049909 
L 54.306931 151.951953 
L 55.391378 147.727966 
L 56.709823 143.573368 
L 58.053915 140.000209 
L 59.698521 136.223999 
L 61.676939 132.285319 
L 63.637416 128.85459 
L 65.888435 125.352401 
L 68.439529 121.82355 
L 70.969353 118.693504 
L 73.705809 115.647242 
L 76.642298 112.707497 
L 79.884518 109.798345 
L 83.08773 107.224134 
L 86.365151 104.861379 
L 89.953147 102.554993 
L 93.529875 100.518993 
L 96.963366 98.790475 
L 101.026605 97.008887 
L 104.876613 95.567031 
L 108.654167 94.371523 
L 112.850889 93.285466 
L 117.171357 92.422652 
L 121.545882 91.804149 
L 125.821924 91.441803 
L 129.910725 91.316157 
L 130.257692 91.315385 
L 130.257692 91.315385 
" clip-path="url(#p3f48ba56aa)" style="fill: none; stroke: #0000ff; stroke-linecap: square"/>
   </g>
   <g id="line2d_2">
    <path d="M 130.257692 91.315385 
L 134.336312 91.422251 
L 138.511613 91.753979 
L 142.508879 92.284971 
L 146.650809 93.060135 
L 150.554384 94.006532 
L 154.644979 95.231942 
L 158.594416 96.653164 
L 162.485014 98.295748 
L 166.194228 100.101674 
L 169.2 101.749945 
L 169.2 101.749945 
" clip-path="url(#p3f48ba56aa)" style="fill: none; stroke: #0000ff; stroke-linecap: square"/>
   </g>
   <g id="line2d_3">
    <path d="M 130.257692 247.084615 
L 134.340221 246.977543 
L 138.393975 246.658468 
L 142.661064 246.090635 
L 146.622972 245.345853 
L 150.600661 244.380961 
L 154.609028 243.179901 
L 158.355242 241.839803 
L 162.259335 240.206395 
L 166.080024 238.357602 
L 169.2 236.650055 
L 169.2 236.650055 
" clip-path="url(#p3f48ba56aa)" style="fill: none; stroke: #0000ff; stroke-linecap: square"/>
   </g>
   <g id="line2d_4">
    <path d="M 208.142308 91.315385 
L 212.295899 91.426219 
L 216.57094 91.772799 
L 220.781129 92.347716 
L 224.652279 93.085388 
L 228.747216 94.090406 
L 232.743479 95.302803 
L 236.641633 96.716886 
L 240.524617 98.366397 
L 244.066714 100.095367 
L 247.691414 102.103938 
L 251.138875 104.259192 
L 254.386864 106.530595 
L 257.590526 109.026193 
L 260.789091 111.80375 
L 263.60358 114.518554 
L 266.304425 117.400566 
L 269.151072 120.785705 
L 271.464434 123.853317 
L 274.053952 127.707008 
L 276.232621 131.388328 
L 278.022907 134.809374 
L 279.903146 138.927978 
L 281.390945 142.730196 
L 282.730942 146.782395 
L 283.761903 150.553549 
L 284.708591 154.930537 
L 285.367615 159.087376 
L 285.802676 163.294034 
L 286.009673 167.56089 
L 286.026923 169.2 
L 286.026923 169.2 
" clip-path="url(#p3f48ba56aa)" style="fill: none; stroke: #ff0000; stroke-linecap: square"/>
   </g>
   <g id="line2d_5">
    <path d="M 169.2 101.749945 
L 172.928515 99.730567 
L 176.542921 98.013681 
L 180.426444 96.413709 
L 184.453844 95.005189 
L 188.376885 93.865138 
L 192.227732 92.958675 
L 196.340187 92.214785 
L 200.416431 91.699522 
L 204.662129 91.393177 
L 208.142308 91.315385 
L 208.142308 91.315385 
" clip-path="url(#p3f48ba56aa)" style="fill: none; stroke: #ff0000; stroke-linecap: square"/>
   </g>
   <g id="line2d_6">
    <path d="M 169.2 236.650055 
L 172.955101 238.682903 
L 176.736138 240.471774 
L 180.683674 242.083721 
L 184.620639 243.447858 
L 188.563451 244.583564 
L 192.602018 245.518495 
L 196.784298 246.251989 
L 200.993189 246.755808 
L 205.204824 247.029201 
L 208.142308 247.084615 
L 208.142308 247.084615 
" clip-path="url(#p3f48ba56aa)" style="fill: none; stroke: #ff0000; stroke-linecap: square"/>
   </g>
   <g id="text_1">
    <!-- $\Omega$ -->
    <g transform="translate(17.569231 23.978606) scale(0.1 -0.1)">
     <defs>
      <path id="Cmr10-ad" d="M 494 0 
L 281 1063 
L 469 1063 
Q 503 878 531 736 
Q 559 594 604 536 
Q 650 478 750 459 
Q 850 441 1081 441 
L 1472 441 
Q 1378 803 1004 1386 
Q 631 1969 495 2233 
Q 359 2497 359 2913 
Q 359 3397 646 3761 
Q 934 4125 1389 4319 
Q 1844 4513 2309 4513 
Q 2772 4513 3226 4319 
Q 3681 4125 3968 3758 
Q 4256 3391 4256 2913 
Q 4256 2588 4137 2300 
Q 4019 2013 3834 1725 
Q 3650 1438 3436 1084 
Q 3222 731 3144 441 
L 3531 441 
Q 3766 441 3869 459 
Q 3972 478 4015 536 
Q 4059 594 4086 736 
Q 4113 878 4147 1063 
L 4331 1063 
L 4122 0 
L 2988 0 
Q 2925 0 2925 84 
Q 2925 409 3004 721 
Q 3084 1034 3240 1478 
Q 3397 1922 3484 2261 
Q 3572 2600 3572 2913 
Q 3572 3297 3422 3625 
Q 3272 3953 2984 4150 
Q 2697 4347 2309 4347 
Q 1725 4347 1384 3930 
Q 1044 3513 1044 2913 
Q 1047 2584 1122 2293 
Q 1197 2003 1364 1518 
Q 1531 1034 1611 721 
Q 1691 409 1691 84 
Q 1691 0 1625 0 
L 494 0 
z
" transform="scale(0.015625)"/>
     </defs>
     <use xlink:href="#Cmr10-ad" transform="translate(0 0.484375)"/>
    </g>
   </g>
   <g id="text_2">
    <!-- $A$ -->
    <g style="fill: #0000ff" transform="translate(87.565385 94.07476) scale(0.1 -0.1)">
     <defs>
      <path id="Cmmi10-41" d="M 288 0 
Q 225 0 225 84 
Q 250 225 306 225 
Q 566 225 755 328 
Q 944 431 1081 647 
Q 1094 659 1094 659 
L 3378 4513 
Q 3428 4581 3500 4581 
L 3584 4581 
Q 3603 4581 3622 4573 
Q 3641 4566 3655 4548 
Q 3669 4531 3669 4513 
L 4056 378 
Q 4056 350 4084 294 
Q 4147 225 4563 225 
Q 4628 225 4628 141 
Q 4606 56 4592 28 
Q 4578 0 4519 0 
L 2919 0 
Q 2859 0 2859 84 
Q 2894 225 2944 225 
Q 3450 225 3481 397 
L 3384 1453 
L 1806 1453 
L 1294 594 
Q 1247 525 1247 434 
Q 1247 322 1355 273 
Q 1463 225 1594 225 
Q 1656 225 1656 141 
Q 1634 50 1621 25 
Q 1609 0 1550 0 
L 288 0 
z
M 1931 1678 
L 3359 1678 
L 3169 3750 
L 1931 1678 
z
" transform="scale(0.015625)"/>
     </defs>
     <use xlink:href="#Cmmi10-41" transform="translate(0 0.421875)"/>
    </g>
   </g>
   <g id="text_3">
    <!-- $B$ -->
    <g style="fill: #ff0000" transform="translate(243.284615 94.07476) scale(0.1 -0.1)">
     <defs>
      <path id="Cmmi10-42" d="M 319 0 
Q 256 0 256 84 
Q 259 100 268 137 
Q 278 175 293 200 
Q 309 225 341 225 
Q 522 225 656 234 
Q 791 244 884 269 
Q 959 297 1006 441 
L 1881 3956 
Q 1894 4019 1894 4044 
Q 1894 4113 1819 4122 
Q 1697 4147 1356 4147 
Q 1294 4147 1294 4231 
Q 1297 4247 1306 4286 
Q 1316 4325 1333 4348 
Q 1350 4372 1375 4372 
L 3669 4372 
Q 3878 4372 4083 4320 
Q 4288 4269 4461 4156 
Q 4634 4044 4736 3876 
Q 4838 3709 4838 3488 
Q 4838 3247 4714 3040 
Q 4591 2834 4395 2681 
Q 4200 2528 3973 2429 
Q 3747 2331 3500 2284 
Q 3675 2284 3854 2215 
Q 4034 2147 4175 2028 
Q 4316 1909 4402 1743 
Q 4488 1578 4488 1388 
Q 4488 1003 4219 684 
Q 3950 366 3542 183 
Q 3134 0 2753 0 
L 319 0 
z
M 1497 275 
Q 1497 225 1716 225 
L 2631 225 
Q 2944 225 3231 398 
Q 3519 572 3692 859 
Q 3866 1147 3866 1459 
Q 3866 1650 3786 1820 
Q 3706 1991 3556 2089 
Q 3406 2188 3213 2188 
L 1966 2188 
L 1522 416 
Q 1497 328 1497 275 
z
M 2009 2356 
L 2981 2356 
Q 3288 2356 3577 2512 
Q 3866 2669 4048 2937 
Q 4231 3206 4231 3506 
Q 4231 3784 4057 3965 
Q 3884 4147 3609 4147 
L 2731 4147 
Q 2559 4147 2500 4115 
Q 2441 4084 2400 3928 
L 2009 2356 
z
" transform="scale(0.015625)"/>
     </defs>
     <use xlink:href="#Cmmi10-42" transform="translate(0 0.6875)"/>
    </g>
   </g>
   <g id="patch_10">
    <path d="M 130.257692 247.084615 
C 150.912934 247.084615 170.724971 238.878201 185.330432 224.27274 
C 199.935893 209.667278 208.142308 189.855241 208.142308 169.2 
C 208.142308 148.544759 199.935893 128.732722 185.330432 114.12726 
C 170.724971 99.521799 150.912934 91.315385 130.257692 91.315385 
C 109.602451 91.315385 89.790414 99.521799 75.184953 114.12726 
C 60.579491 128.732722 52.373077 148.544759 52.373077 169.2 
C 52.373077 189.855241 60.579491 209.667278 75.184953 224.27274 
C 89.790414 238.878201 109.602451 247.084615 130.257692 247.084615 
L 130.257692 247.084615 
z
" clip-path="url(#p3f48ba56aa)" style="fill: none; stroke: #0000ff; stroke-linejoin: miter"/>
   </g>
   <g id="patch_11">
    <path d="M 208.142308 247.084615 
C 228.797549 247.084615 248.609586 238.878201 263.215047 224.27274 
C 277.820509 209.667278 286.026923 189.855241 286.026923 169.2 
C 286.026923 148.544759 277.820509 128.732722 263.215047 114.12726 
C 248.609586 99.521799 228.797549 91.315385 208.142308 91.315385 
C 187.487066 91.315385 167.675029 99.521799 153.069568 114.12726 
C 138.464107 128.732722 130.257692 148.544759 130.257692 169.2 
C 130.257692 189.855241 138.464107 209.667278 153.069568 224.27274 
C 167.675029 238.878201 187.487066 247.084615 208.142308 247.084615 
L 208.142308 247.084615 
z
" clip-path="url(#p3f48ba56aa)" style="fill: none; stroke: #ff0000; stroke-linejoin: miter"/>
   </g>
  </g>
 </g>
 <defs>
  <clipPath id="p3f48ba56aa">
   <rect x="7.2" y="7.2" width="324" height="324"/>
  </clipPath>
 </defs>
</svg>
