<?xml version="1.0" encoding="utf-8" standalone="no"?>
<!DOCTYPE svg PUBLIC "-//W3C//DTD SVG 1.1//EN"
  "http://www.w3.org/Graphics/SVG/1.1/DTD/svg11.dtd">
<svg xmlns:xlink="http://www.w3.org/1999/xlink" width="338.4pt" height="338.4pt" viewBox="0 0 338.4 338.4" xmlns="http://www.w3.org/2000/svg" version="1.1">
 <metadata>
  <rdf:RDF xmlns:dc="http://purl.org/dc/elements/1.1/" xmlns:cc="http://creativecommons.org/ns#" xmlns:rdf="http://www.w3.org/1999/02/22-rdf-syntax-ns#">
   <cc:Work>
    <dc:type rdf:resource="http://purl.org/dc/dcmitype/StillImage"/>
    <dc:date>2025-08-24T20:28:26.323600</dc:date>
    <dc:format>image/svg+xml</dc:format>
    <dc:creator>
     <cc:Agent>
      <dc:title>Matplotlib v3.8.0, https://matplotlib.org/</dc:title>
     </cc:Agent>
    </dc:creator>
   </cc:Work>
  </rdf:RDF>
 </metadata>
 <defs>
  <style type="text/css">*{stroke-linejoin: round; stroke-linecap: butt}</style>
 </defs>
 <g id="figure_1">
  <g id="patch_1">
   <path d="M -0 338.4 
L 338.4 338.4 
L 338.4 0 
L -0 0 
z
" style="fill: #ffffff"/>
  </g>
  <g id="axes_1">
   <g id="patch_2">
    <path d="M 7.2 331.2 
L 331.2 331.2 
L 331.2 7.2 
L 7.2 7.2 
z
" style="fill: #ffffff"/>
   </g>
   <g id="patch_3">
    <path d="M 13.430769 324.969231 
L 13.430769 13.430769 
L 324.969231 13.430769 
L 324.969231 324.969231 
L 13.430769 324.969231 
z
" clip-path="url(#p299f70cfe0)" style="fill: none; stroke: #000000; stroke-linejoin: miter"/>
   </g>
   <g id="patch_4">
    <path d="M 130.257692 247.084615 
L 129.702697 247.082638 
L 129.437538 247.080297 
L 129.180988 247.077173 
L 128.561822 247.06615 
L 128.478631 247.064294 
L 127.746903 247.044134 
L 127.568753 247.038184 
L 127.102987 247.020699 
L 126.802001 247.007914 
L 126.382937 246.988171 
L 125.883537 246.961688 
L 125.728536 246.952814 
L 125.050474 246.910348 
L 124.712527 246.886965 
L 124.222063 246.850399 
L 124.122721 246.842614 
L 123.414977 246.783443 
L 123.185634 246.762873 
L 122.772841 246.724127 
L 122.457662 246.69305 
L 121.937003 246.638876 
L 121.602971 246.602255 
L 121.339291 246.572317 
L 121.028555 246.535867 
L 120.560438 246.478565 
L 119.93277 246.39721 
L 119.572121 246.348116 
L 119.370294 246.319893 
L 118.970871 246.262449 
L 118.564927 246.2019 
L 118.288714 246.15945 
L 117.668469 246.060424 
L 117.394984 246.015129 
L 117.072614 245.960452 
L 116.471755 245.854819 
L 116.356059 245.833921 
L 115.63456 245.699525 
L 115.240455 245.623137 
L 115.11698 245.59877 
L 114.681131 245.511101 
L 114.052107 245.379999 
L 113.733662 245.311561 
L 113.283997 245.212545 
L 113.203685 245.194567 
L 112.669074 245.072616 
L 112.256229 244.975726 
L 111.705063 244.842668 
L 111.449989 244.779651 
L 110.99923 244.666052 
L 110.728191 244.596365 
L 110.356677 244.499156 
L 110.090001 244.42817 
L 109.490804 244.26497 
L 109.03301 244.136814 
L 108.915452 244.103418 
L 108.447916 243.968623 
L 107.877174 243.79977 
L 107.483441 243.680513 
L 107.047362 243.545772 
L 106.684794 243.431609 
L 106.24753 243.291331 
L 105.95627 243.196312 
L 105.410195 243.014735 
L 105.32642 242.986482 
L 104.827231 242.815929 
L 104.598052 242.73636 
L 103.995034 242.523162 
L 103.49276 242.341313 
L 103.447245 242.324642 
L 102.837663 242.098253 
L 102.43789 241.946628 
L 102.060577 241.801212 
L 101.710688 241.664349 
L 101.238225 241.47644 
L 100.858122 241.322663 
L 100.488401 241.170845 
L 100.079046 241.000158 
L 99.658269 240.821845 
L 99.346832 240.687985 
L 99.003029 240.538344 
L 98.449232 240.293144 
L 97.981869 240.082188 
L 97.746949 239.974747 
L 97.486187 239.854382 
L 96.965233 239.610407 
L 96.439109 239.359224 
L 96.103811 239.196612 
L 95.671964 238.984244 
L 95.464312 238.880944 
L 94.876913 238.584536 
L 94.798258 238.544371 
L 94.134099 238.20072 
L 93.795318 238.022297 
L 93.344138 237.781359 
L 92.898604 237.53968 
L 92.821271 237.497347 
L 92.160635 237.13105 
L 91.862303 236.962876 
L 91.461185 236.734024 
L 90.965565 236.446874 
L 90.839642 236.373139 
L 90.217342 236.004069 
L 90.034925 235.894395 
L 89.507804 235.573639 
L 89.202178 235.385029 
L 88.744631 235.099006 
L 88.553242 234.978052 
L 87.91016 234.565892 
L 87.566179 234.341753 
L 87.372672 234.214524 
L 86.640858 233.725848 
L 86.470751 233.610536 
L 86.178241 233.41071 
L 85.466965 232.916592 
L 85.422815 232.885532 
L 84.96275 232.559147 
L 84.599921 232.298188 
L 84.249922 232.043444 
L 83.765203 231.685692 
L 83.11756 231.198558 
L 82.707464 230.884593 
L 82.68727 230.869022 
L 81.965103 230.305148 
L 81.757495 230.140497 
L 81.297445 229.771507 
L 80.820329 229.382725 
L 80.492992 229.112335 
L 80.178132 228.8494 
L 79.666146 228.415782 
L 79.546421 228.313284 
L 78.993793 227.834682 
L 78.519723 227.4168 
L 78.277584 227.200704 
L 77.724839 226.700545 
L 77.574416 226.562755 
L 77.150956 226.170939 
L 76.740581 225.785618 
L 76.292838 225.358774 
L 75.800757 224.881735 
L 75.309132 224.39664 
L 74.921366 224.007886 
L 74.534841 223.614861 
L 74.145674 223.213468 
L 73.9336 222.992285 
L 73.631888 222.674588 
L 73.208305 222.222455 
L 72.648959 221.614189 
L 72.507819 221.45864 
L 71.869692 220.744687 
L 71.586145 220.421702 
L 71.27858 220.067254 
L 70.7225 219.415279 
L 70.427228 219.063101 
L 69.950303 218.485212 
L 69.697619 218.17439 
L 69.030901 217.338274 
L 68.810643 217.056801 
L 68.565969 216.740979 
L 68.164856 216.21588 
L 67.669822 215.554847 
L 67.141825 214.833328 
L 66.980955 214.609998 
L 66.337357 213.699484 
L 65.952482 213.141475 
L 65.73435 212.820541 
L 65.422095 212.355054 
L 65.056292 211.800361 
L 64.696699 211.244851 
L 64.337106 210.678785 
L 64.157932 210.392657 
L 63.855413 209.903202 
L 63.516481 209.345037 
L 63.177549 208.7761 
L 62.950747 208.389137 
L 62.566024 207.720791 
L 62.163967 207.005527 
L 61.957049 206.630408 
L 61.683127 206.126173 
L 61.409205 205.612897 
L 61.124664 205.069733 
L 60.816353 204.469161 
L 60.508042 203.85544 
L 60.207601 203.24406 
L 59.776944 202.343287 
L 59.534061 201.821791 
L 59.197622 201.08228 
L 58.861184 200.321567 
L 58.623184 199.769764 
L 58.385027 199.205555 
L 58.146871 198.628605 
L 58.026178 198.33111 
L 57.794807 197.75072 
L 57.563437 197.15637 
L 57.284472 196.419892 
L 57.005508 195.659984 
L 56.852497 195.232493 
L 56.699487 194.796949 
L 56.487296 194.178831 
L 56.275106 193.543176 
L 56.141578 193.133551 
L 56.008049 192.716033 
L 55.874521 192.290196 
L 55.740993 191.855569 
L 55.571782 191.291358 
L 55.442997 190.851206 
L 55.314213 190.401136 
L 55.185428 189.940503 
L 55.056643 189.468585 
L 54.925236 188.974586 
L 54.793828 188.46703 
L 54.66242 187.944815 
L 54.531012 187.40668 
L 54.375868 186.748848 
L 54.277217 186.316678 
L 54.178566 185.872727 
L 54.079914 185.416025 
L 53.981263 184.945465 
L 53.847146 184.281172 
L 53.780088 183.937343 
L 53.713029 183.584987 
L 53.645971 183.223459 
L 53.578912 182.852031 
L 53.511853 182.469873 
L 53.444795 182.076028 
L 53.358803 181.55209 
L 53.272811 181.004295 
L 53.186819 180.429151 
L 53.143823 180.129983 
L 53.100827 179.822218 
L 53.032183 179.311081 
L 52.963538 178.772198 
L 52.929215 178.490853 
L 52.894893 178.200587 
L 52.86057 177.900507 
L 52.826248 177.589561 
L 52.797925 177.323898 
L 52.769602 177.049146 
L 52.741278 176.764316 
L 52.712955 176.468222 
L 52.684632 176.159427 
L 52.656309 175.836158 
L 52.627986 175.496185 
L 52.599662 175.136641 
L 52.571339 174.753725 
L 52.557178 174.551947 
L 52.543016 174.342218 
L 52.528854 174.123523 
L 52.514693 173.894608 
L 52.500531 173.653899 
L 52.48637 173.399368 
L 52.472208 173.128327 
L 52.458046 172.83709 
L 52.443885 172.520345 
L 52.429723 172.169942 
L 52.415562 171.772162 
L 52.4014 171.300257 
L 52.387239 170.685173 
L 52.373077 169.2 
L 52.373077 169.2 
L 52.379639 168.188989 
L 52.386201 167.770245 
L 52.392763 167.448952 
L 52.399326 167.178106 
L 52.405888 166.939502 
L 52.41245 166.7238 
L 52.419012 166.525455 
L 52.425574 166.340851 
L 52.432137 166.167479 
L 52.438699 166.003509 
L 52.451823 165.698568 
L 52.464947 165.41818 
L 52.478072 165.157235 
L 52.491196 164.912181 
L 52.504321 164.680432 
L 52.517445 164.460037 
L 52.530569 164.249479 
L 52.556818 163.853278 
L 52.583067 163.484595 
L 52.607369 163.163398 
L 52.631671 162.858542 
L 52.655973 162.567772 
L 52.680275 162.289312 
L 52.704577 162.021727 
L 52.728879 161.763844 
L 52.753181 161.514687 
L 52.777483 161.273432 
L 52.826087 160.811923 
L 52.874691 160.374783 
L 52.923295 159.958553 
L 52.971899 159.560523 
L 53.018497 159.194003 
L 53.065094 158.840652 
L 53.111691 158.499166 
L 53.158289 158.168442 
L 53.204886 157.847539 
L 53.251483 157.535648 
L 53.344678 156.936169 
L 53.437873 156.365334 
L 53.531067 155.819479 
L 53.624262 155.295659 
L 53.717457 154.791472 
L 53.769868 154.515791 
L 53.893942 153.883637 
L 54.018017 153.277526 
L 54.142091 152.694589 
L 54.266166 152.132451 
L 54.387067 151.602796 
L 54.507969 151.08943 
L 54.628871 150.591006 
L 54.749772 150.106353 
L 54.90778 149.492031 
L 55.065788 148.897518 
L 55.185308 148.459931 
L 55.304829 148.032063 
L 55.424349 147.613335 
L 55.54387 147.203226 
L 55.745605 146.529267 
L 55.94734 145.876517 
L 56.089767 145.427491 
L 56.232195 144.987627 
L 56.392042 144.504271 
L 56.55189 144.03121 
L 56.711737 143.567875 
L 56.871585 143.113747 
L 56.996932 142.763769 
L 57.214607 142.168149 
L 57.432281 141.587089 
L 57.606229 141.132614 
L 57.780176 140.686443 
L 58.001418 140.130358 
L 58.22266 139.586365 
L 58.495089 138.93216 
L 58.767519 138.2942 
L 58.974263 137.820293 
L 59.181006 137.35478 
L 59.496824 136.659058 
L 59.713111 136.192798 
L 59.929398 135.734431 
L 60.202402 135.16664 
L 60.598055 134.36398 
L 60.96057 133.648317 
L 61.187597 133.209233 
L 61.53508 132.550091 
L 61.882562 131.905833 
L 62.273872 131.197191 
L 62.390633 130.989065 
L 62.871632 130.147059 
L 63.158642 129.655964 
L 63.445652 129.172952 
L 63.632501 128.862707 
L 64.143128 128.031108 
L 64.535278 127.407924 
L 64.75274 127.067891 
L 65.105113 126.52501 
L 65.457486 125.991822 
L 65.639293 125.720397 
L 66.01199 125.171566 
L 66.351516 124.680185 
L 66.82511 124.007956 
L 67.206888 123.476818 
L 67.684222 122.825716 
L 68.004779 122.396282 
L 68.360125 121.927339 
L 68.998952 121.10239 
L 69.133735 120.93122 
L 69.632151 120.306676 
L 70.13587 119.68859 
L 70.360383 119.417216 
L 70.83567 118.850853 
L 71.053125 118.595331 
L 71.745087 117.796807 
L 71.996356 117.512187 
L 72.306878 117.164278 
L 72.730959 116.695826 
L 73.139968 116.251168 
L 73.67985 115.674669 
L 73.78283 115.566025 
L 74.247325 115.08113 
L 74.548737 114.770912 
L 74.962449 114.350666 
L 75.571045 113.743856 
L 75.917455 113.404374 
L 76.089998 113.236849 
L 76.538709 112.805992 
L 76.960641 112.407064 
L 77.553973 111.856026 
L 77.61916 111.796183 
L 78.289964 111.188203 
L 78.621446 110.892956 
L 78.936453 110.615499 
L 79.306205 110.29364 
L 79.829663 109.844906 
L 80.28836 109.458229 
L 80.433695 109.336968 
L 80.985874 108.881667 
L 81.150629 108.74746 
L 81.720083 108.289297 
L 82.105532 107.98413 
L 82.580954 107.613135 
L 82.772727 107.465153 
L 83.253335 107.09844 
L 83.868451 106.637618 
L 84.108904 106.460039 
L 84.286225 106.329995 
L 84.807628 105.952036 
L 85.365884 105.554585 
L 85.683857 105.33149 
L 85.943957 105.150752 
L 86.259509 104.933577 
L 86.989998 104.439519 
L 87.23003 104.279791 
L 87.549849 104.068952 
L 87.93033 103.821045 
L 88.343496 103.5554 
L 88.637978 103.3683 
L 89.007688 103.136012 
L 89.543876 102.804228 
L 89.879595 102.59953 
L 90.183274 102.416362 
L 90.602798 102.166407 
L 91.107796 101.870222 
L 91.448447 101.673296 
L 91.868863 101.433407 
L 92.302819 101.189406 
L 92.666992 100.987446 
L 93.029497 100.788928 
L 93.434922 100.569854 
L 93.881851 100.331927 
L 94.067394 100.234243 
L 94.803505 99.852946 
L 95.169902 99.66684 
L 95.562981 99.469875 
L 95.997207 99.255505 
L 96.316334 99.100089 
L 96.657139 98.936097 
L 96.928497 98.806974 
L 97.23238 98.663895 
L 97.702257 98.445799 
L 98.048735 98.287403 
L 98.405826 98.126292 
L 98.765992 97.965976 
L 99.437039 97.673078 
L 99.907417 97.472222 
L 100.169835 97.36175 
L 100.592405 97.186223 
L 100.8559 97.078242 
L 101.459825 96.83498 
L 101.694618 96.741984 
L 101.952869 96.640712 
L 102.513953 96.424329 
L 102.666915 96.366201 
L 103.194158 96.168648 
L 103.610808 96.015597 
L 104.125922 95.830088 
L 104.618777 95.656412 
L 104.625052 95.654225 
L 105.356986 95.403197 
L 105.723291 95.280608 
L 106.140453 95.143454 
L 106.193116 95.126324 
L 106.893209 94.902529 
L 107.290237 94.778838 
L 107.742474 94.640774 
L 107.837561 94.612125 
L 108.293306 94.47665 
L 108.554033 94.400505 
L 109.231213 94.20733 
L 109.656112 94.089493 
L 110.092895 93.971054 
L 110.470301 93.870906 
L 110.74718 93.798719 
L 110.949192 93.746736 
L 111.511599 93.605045 
L 111.864171 93.518485 
L 112.240976 93.427899 
L 112.571865 93.349985 
L 113.130251 93.22195 
L 113.569477 93.124269 
L 113.93788 93.044389 
L 114.023649 93.02606 
L 114.668188 92.891543 
L 114.837928 92.857062 
L 115.265576 92.771931 
L 115.941168 92.642502 
L 116.036559 92.624725 
L 116.5283 92.535033 
L 116.821982 92.48302 
L 117.374315 92.388335 
L 117.547275 92.359525 
L 118.05515 92.277238 
L 118.624104 92.189138 
L 118.851513 92.155127 
L 119.389401 92.077412 
L 119.608466 92.046858 
L 120.114563 91.978693 
L 120.287647 91.956156 
L 120.694807 91.904693 
L 121.237116 91.839529 
L 121.841895 91.771403 
L 122.160202 91.737467 
L 122.619629 91.690818 
L 122.980777 91.656078 
L 123.259649 91.630414 
L 123.478495 91.610981 
L 123.830151 91.581059 
L 124.557933 91.524225 
L 124.883008 91.501055 
L 125.230958 91.477769 
L 125.618676 91.453663 
L 125.915689 91.43651 
L 126.297339 91.41614 
L 126.861545 91.389464 
L 127.301251 91.371517 
L 127.390195 91.368189 
L 127.998113 91.348169 
L 128.285309 91.340363 
L 128.623136 91.332539 
L 129.156008 91.323177 
L 129.622323 91.317976 
L 129.671287 91.317592 
L 130.257692 91.315385 
z
" clip-path="url(#p299f70cfe0)" style="fill: #808080; opacity: 0.5"/>
   </g>
   <g id="patch_5">
    <path d="M 169.2 101.749945 
L 168.959725 101.889239 
L 168.855505 101.950015 
L 168.642325 102.075007 
L 168.390154 102.224037 
L 168.284655 102.286766 
L 167.935031 102.496265 
L 167.734709 102.617425 
L 167.671286 102.655957 
L 167.528514 102.742998 
L 167.302879 102.881417 
L 167.132232 102.986806 
L 166.829493 103.175273 
L 166.692669 103.261083 
L 166.507039 103.378136 
L 166.326639 103.492594 
L 166.149053 103.605947 
L 165.959538 103.72766 
L 165.612397 103.952625 
L 165.552397 103.991773 
L 165.379173 104.105241 
L 165.036342 104.331756 
L 164.858052 104.450587 
L 164.677485 104.571659 
L 164.599365 104.624266 
L 164.376508 104.775097 
L 164.059038 104.991911 
L 163.83369 105.147212 
L 163.718301 105.227186 
L 163.515461 105.36852 
L 163.372605 105.468634 
L 163.045989 105.699328 
L 162.991365 105.738156 
L 162.647952 105.983887 
L 162.536515 106.064234 
L 162.260602 106.264458 
L 162.246476 106.274759 
L 162.038827 106.426738 
L 161.828215 106.581966 
L 161.482692 106.839006 
L 161.46388 106.853086 
L 161.268812 106.999608 
L 160.94755 107.243014 
L 160.862508 107.307885 
L 160.664995 107.459267 
L 160.381967 107.677946 
L 160.21634 107.806882 
L 159.949358 108.016236 
L 159.768706 108.158965 
L 159.514869 108.360987 
L 159.368695 108.478109 
L 159.245126 108.577571 
L 158.947233 108.81906 
L 158.89267 108.863556 
L 158.535146 109.157158 
L 158.511418 109.17677 
L 158.222234 109.417063 
L 158.069055 109.545304 
L 157.850815 109.729175 
L 157.682406 109.872 
L 157.54569 109.988551 
L 157.207057 110.2796 
L 157.144441 110.333788 
L 156.881181 110.562894 
L 156.715614 110.708047 
L 156.518208 110.882201 
L 156.194953 111.169959 
L 156.021393 111.325796 
L 155.926267 111.411606 
L 155.67188 111.642485 
L 155.534916 111.767643 
L 155.387795 111.902752 
L 155.184604 112.090501 
L 155.000773 112.261519 
L 154.755984 112.490973 
L 154.560894 112.675268 
L 154.370707 112.85616 
L 154.106056 113.109922 
L 153.90049 113.30869 
L 153.78027 113.425614 
L 153.555686 113.645396 
L 153.28547 113.912201 
L 153.175442 114.021589 
L 152.996889 114.200035 
L 152.810484 114.387569 
L 152.576889 114.624387 
L 152.441022 114.763063 
L 152.24587 114.963466 
L 152.002177 115.215752 
L 151.810197 115.416112 
L 151.612806 115.623618 
L 151.381171 115.869083 
L 151.171347 116.093287 
L 150.951727 116.329868 
L 150.765326 116.532218 
L 150.525338 116.794865 
L 150.337727 117.00188 
L 150.162386 117.196712 
L 149.986754 117.393196 
L 149.754519 117.655074 
L 149.59702 117.834033 
L 149.413234 118.044266 
L 149.256223 118.225081 
L 148.953157 118.5773 
L 148.790688 118.767882 
L 148.623323 118.965512 
L 148.423891 119.20276 
L 148.265068 119.393078 
L 148.048231 119.654916 
L 147.884069 119.854706 
L 147.720712 120.054867 
L 147.534151 120.285128 
L 147.346688 120.51832 
L 147.024479 120.92346 
L 146.914496 121.063025 
L 146.78802 121.224333 
L 146.531364 121.554381 
L 146.373365 121.759395 
L 146.170861 122.024232 
L 145.988529 122.264713 
L 145.705191 122.642297 
L 145.618938 122.758192 
L 145.245088 123.265774 
L 145.170081 123.368657 
L 144.943192 123.682035 
L 144.664766 124.071129 
L 144.529625 124.261822 
L 144.414292 124.425528 
L 144.154289 124.797897 
L 143.922275 125.134132 
L 143.783412 125.337193 
L 143.570273 125.651571 
L 143.459479 125.816305 
L 143.177198 126.24016 
L 142.985639 126.531254 
L 142.829315 126.770926 
L 142.620151 127.094653 
L 142.349601 127.518673 
L 142.162297 127.815806 
L 141.93311 128.183474 
L 141.884156 128.262601 
L 141.525808 128.848354 
L 141.314278 129.199653 
L 141.127415 129.51351 
L 141.053773 129.638126 
L 140.878302 129.937207 
L 140.558665 130.489994 
L 140.497008 130.59784 
L 140.252114 131.030182 
L 140.077223 131.342933 
L 139.919036 131.628755 
L 139.593103 132.226769 
L 139.433444 132.524321 
L 139.303009 132.769735 
L 139.066695 133.219825 
L 138.887046 133.56684 
L 138.700123 133.932504 
L 138.494724 134.339888 
L 138.355645 134.619152 
L 138.163126 135.01042 
L 137.952478 135.444985 
L 137.735908 135.899066 
L 137.479354 136.446981 
L 137.27117 136.89992 
L 137.04106 137.409656 
L 136.828707 137.88892 
L 136.68656 138.214689 
L 136.588168 138.442588 
L 136.428323 138.817148 
L 136.268478 139.197235 
L 136.219548 139.314719 
L 136.044827 139.738728 
L 135.870105 140.16998 
L 135.731519 140.517409 
L 135.594316 140.866235 
L 135.444243 141.25354 
L 135.294169 141.647106 
L 135.189093 141.926536 
L 135.062063 142.268769 
L 134.935033 142.616015 
L 134.83447 142.894598 
L 134.660905 143.3834 
L 134.487341 143.882827 
L 134.427744 144.056883 
L 134.252091 144.577872 
L 134.076439 145.111407 
L 133.912518 145.621374 
L 133.744571 146.156779 
L 133.598632 146.633348 
L 133.471641 147.057172 
L 133.344649 147.490011 
L 133.244644 147.837574 
L 133.144638 148.191363 
L 133.052337 148.523694 
L 132.942341 148.927399 
L 132.832345 149.339918 
L 132.728022 149.739815 
L 132.623698 150.148676 
L 132.546845 150.455953 
L 132.469991 150.768672 
L 132.402634 151.047449 
L 132.335276 151.330829 
L 132.267918 151.619034 
L 132.200561 151.912306 
L 132.099527 152.362282 
L 131.998493 152.825241 
L 131.93528 153.121995 
L 131.872068 153.424583 
L 131.791291 153.820285 
L 131.710515 154.226877 
L 131.655773 154.509075 
L 131.60103 154.797009 
L 131.546288 155.091031 
L 131.491545 155.391528 
L 131.450307 155.622433 
L 131.409069 155.85746 
L 131.367831 156.096832 
L 131.326593 156.340791 
L 131.285355 156.589604 
L 131.244117 156.843563 
L 131.202879 157.102994 
L 131.161641 157.368255 
L 131.114004 157.68246 
L 131.066367 158.005684 
L 131.029318 158.263818 
L 130.992268 158.528323 
L 130.955218 158.799685 
L 130.918169 159.078455 
L 130.877012 159.397582 
L 130.835855 159.727632 
L 130.794699 160.069791 
L 130.753542 160.425475 
L 130.732964 160.608911 
L 130.712386 160.796401 
L 130.691807 160.988222 
L 130.671229 161.184685 
L 130.650651 161.386141 
L 130.630072 161.592985 
L 130.609494 161.80567 
L 130.588916 162.024716 
L 130.573577 162.192484 
L 130.558238 162.364402 
L 130.542899 162.540793 
L 130.52756 162.722021 
L 130.512221 162.908504 
L 130.496882 163.100725 
L 130.481543 163.299244 
L 130.466204 163.504721 
L 130.453172 163.685338 
L 130.44014 163.872108 
L 130.427108 164.065699 
L 130.414076 164.266917 
L 130.401044 164.476735 
L 130.388012 164.696355 
L 130.37498 164.927288 
L 130.361948 165.17148 
L 130.355432 165.299321 
L 130.348916 165.431507 
L 130.3424 165.568513 
L 130.335884 165.710907 
L 130.329368 165.859378 
L 130.322852 166.014775 
L 130.316336 166.178167 
L 130.30982 166.350929 
L 130.303304 166.534883 
L 130.296788 166.732529 
L 130.290272 166.94747 
L 130.283756 167.185234 
L 130.27724 167.455125 
L 130.270724 167.775286 
L 130.264208 168.192554 
L 130.257692 169.2 
L 130.257692 91.315385 
L 130.547457 91.315924 
L 130.738639 91.31687 
L 130.848272 91.317624 
L 130.981902 91.318752 
L 131.237614 91.321549 
L 131.514373 91.325524 
L 131.534747 91.325855 
L 131.891369 91.33252 
L 131.943489 91.333631 
L 132.248193 91.340824 
L 132.465226 91.346676 
L 132.558681 91.349382 
L 132.878521 91.359493 
L 133.08839 91.366842 
L 133.259022 91.373235 
L 133.460696 91.381274 
L 133.658515 91.389668 
L 133.815129 91.396671 
L 133.88362 91.399833 
L 134.187501 91.414591 
L 134.315102 91.421142 
L 134.603689 91.436733 
L 134.701093 91.442238 
L 134.997697 91.459755 
L 135.16885 91.47038 
L 135.430349 91.487344 
L 135.579254 91.497398 
L 135.82726 91.514781 
L 135.891818 91.519437 
L 136.07378 91.532848 
L 136.401765 91.558106 
L 136.508932 91.566661 
L 136.77523 91.588564 
L 136.877582 91.597227 
L 137.079001 91.614672 
L 137.215427 91.626788 
L 137.529175 91.655568 
L 137.600472 91.662287 
L 137.876956 91.688968 
L 138.075823 91.708774 
L 138.205382 91.721954 
L 138.4044 91.742628 
L 138.765289 91.781436 
L 138.925594 91.79922 
L 139.049897 91.813241 
L 139.306172 91.842787 
L 139.524016 91.86858 
L 139.620032 91.880145 
L 139.886131 91.912831 
L 139.998619 91.926928 
L 140.290632 91.964299 
L 140.362159 91.973625 
L 140.566585 92.000647 
L 140.90349 92.046385 
L 140.99285 92.058768 
L 141.263039 92.096851 
L 141.503991 92.131627 
L 141.547285 92.137957 
L 141.870337 92.185977 
L 141.926567 92.194476 
L 142.196066 92.235797 
L 142.397911 92.267378 
L 142.527866 92.287997 
L 142.824257 92.335868 
L 143.017445 92.367702 
L 143.248537 92.406437 
L 143.408696 92.433703 
L 143.518149 92.452534 
L 143.666926 92.478388 
L 143.895976 92.518773 
L 144.164643 92.567043 
L 144.434863 92.616574 
L 144.554976 92.638907 
L 144.697489 92.665657 
L 144.854285 92.695407 
L 145.206708 92.763489 
L 145.316216 92.784987 
L 145.444409 92.810361 
L 145.793134 92.880518 
L 145.875685 92.897368 
L 146.128723 92.949599 
L 146.309837 92.987521 
L 146.463308 93.020007 
L 146.602937 93.049844 
L 146.988542 93.133634 
L 147.025976 93.141878 
L 147.33789 93.211316 
L 147.494464 93.246679 
L 147.743756 93.303683 
L 147.884188 93.336175 
L 148.012542 93.366112 
L 148.314274 93.437389 
L 148.394321 93.456512 
L 148.652779 93.518866 
L 148.767438 93.546827 
L 149.041455 93.614396 
L 149.233617 93.662409 
L 149.358606 93.693918 
L 149.577812 93.74971 
L 149.923478 93.839067 
L 150.106933 93.887179 
L 150.218623 93.916705 
L 150.433631 93.974042 
L 150.594913 94.017484 
L 150.797196 94.072494 
L 150.936987 94.110852 
L 151.159254 94.172418 
L 151.424253 94.246748 
L 151.660001 94.313723 
L 151.71717 94.330085 
L 152.064838 94.43061 
L 152.133605 94.450701 
L 152.448241 94.543501 
L 152.485292 94.554524 
L 152.832558 94.658812 
L 152.985339 94.705253 
L 153.155574 94.757402 
L 153.288389 94.798385 
L 153.591818 94.892989 
L 153.674422 94.918979 
L 153.851546 94.975049 
L 154.157761 95.073082 
L 154.342665 95.132953 
L 154.616989 95.22272 
L 154.80909 95.286252 
L 154.903825 95.317787 
L 155.014504 95.3548 
L 155.400543 95.485345 
L 155.545447 95.534928 
L 155.628527 95.5635 
L 155.875794 95.649159 
L 156.111041 95.731519 
L 156.231981 95.77419 
L 156.559697 95.890943 
L 156.683964 95.935646 
L 156.931905 96.025553 
L 157.03287 96.062437 
L 157.22883 96.134474 
L 157.4008 96.198185 
L 157.634479 96.285496 
L 157.934968 96.399027 
L 158.117796 96.468797 
L 158.181288 96.493149 
L 158.458973 96.600406 
L 158.668722 96.682232 
L 158.890367 96.769459 
L 159.040611 96.829033 
L 159.168092 96.879864 
L 159.369777 96.960815 
L 159.630941 97.066613 
L 159.771269 97.123915 
L 160.074885 97.248986 
L 160.265284 97.328185 
L 160.393684 97.381929 
L 160.533567 97.440786 
L 160.765587 97.539121 
L 160.935016 97.611487 
L 161.198278 97.724875 
L 161.438679 97.829422 
L 161.60122 97.900655 
L 161.691125 97.940246 
L 161.99111 98.073328 
L 162.229022 98.179951 
L 162.408545 98.26104 
L 162.626921 98.360418 
L 162.726935 98.406204 
L 163.028204 98.545157 
L 163.121899 98.588689 
L 163.394483 98.716197 
L 163.513159 98.772113 
L 163.759182 98.88881 
L 163.876952 98.945045 
L 164.099101 99.051783 
L 164.373893 99.185015 
L 164.561133 99.276561 
L 164.711989 99.350771 
L 164.975116 99.481181 
L 165.111012 99.549017 
L 165.304028 99.645937 
L 165.53363 99.762103 
L 165.740678 99.867677 
L 165.967674 99.984319 
L 166.165318 100.086646 
L 166.258073 100.134916 
L 166.546374 100.28596 
L 166.751899 100.394577 
L 166.823446 100.432574 
L 167.005308 100.529584 
L 167.21704 100.643309 
L 167.418219 100.752147 
L 167.556159 100.827215 
L 167.758361 100.937908 
L 167.997778 101.069983 
L 168.225172 101.196443 
L 168.50359 101.352637 
L 168.651546 101.436254 
L 168.869628 101.56028 
L 169.011345 101.641376 
z
" clip-path="url(#p299f70cfe0)" style="fill: #808080; opacity: 0.5"/>
   </g>
   <g id="patch_6">
    <path d="M 169.2 236.650055 
L 169.005925 236.537633 
L 168.874808 236.461258 
L 168.592019 236.295365 
L 168.430174 236.1997 
L 168.159172 236.038329 
L 168.002738 235.9445 
L 167.886375 235.874382 
L 167.600728 235.70108 
L 167.504231 235.642156 
L 167.16406 235.432896 
L 166.995114 235.328071 
L 166.775768 235.191081 
L 166.66191 235.119571 
L 166.50846 235.022762 
L 166.232294 234.84727 
L 166.134341 234.784633 
L 165.861427 234.609024 
L 165.696612 234.502192 
L 165.47992 234.360832 
L 165.307788 234.247808 
L 165.17844 234.162446 
L 164.806583 233.914977 
L 164.7039 233.846098 
L 164.406739 233.645429 
L 164.212352 233.51308 
L 164.052249 233.403427 
L 163.923367 233.31473 
L 163.653909 233.128051 
L 163.460542 232.993049 
L 163.341115 232.909234 
L 163.207165 232.814828 
L 163.02474 232.685577 
L 162.766772 232.501454 
L 162.533559 232.333631 
L 162.26618 232.139608 
L 162.142661 232.04939 
L 162.027665 231.965062 
L 161.840377 231.827027 
L 161.472201 231.553143 
L 161.422882 231.516198 
L 161.095905 231.269713 
L 161.060523 231.242879 
L 160.805624 231.048619 
L 160.561084 230.860688 
L 160.468397 230.789053 
L 160.22526 230.60008 
L 159.995569 230.420134 
L 159.80354 230.268624 
L 159.591359 230.100071 
L 159.4105 229.955446 
L 159.259855 229.834307 
L 159.018565 229.638987 
L 158.887106 229.531902 
L 158.565371 229.267801 
L 158.340349 229.081368 
L 158.252257 229.007994 
L 158.141861 228.915732 
L 157.773151 228.605062 
L 157.715777 228.556367 
L 157.529903 228.397954 
L 157.195563 228.110462 
L 157.042287 227.977557 
L 156.941828 227.890069 
L 156.692512 227.671633 
L 156.538672 227.535908 
L 156.250241 227.279486 
L 156.004943 227.059385 
L 155.837855 226.908384 
L 155.787655 226.862845 
L 155.514075 226.61326 
L 155.268711 226.387377 
L 155.200211 226.323967 
L 154.899865 226.044134 
L 154.789734 225.94078 
L 154.592811 225.75497 
L 154.411154 225.582413 
L 154.22902 225.40828 
L 153.860216 225.052196 
L 153.833248 225.025974 
L 153.521324 224.72082 
L 153.422674 224.623596 
L 153.212859 224.415659 
L 153.03455 224.237699 
L 152.812544 224.014511 
L 152.526421 223.724183 
L 152.324704 223.517662 
L 152.252699 223.443571 
L 151.897064 223.074724 
L 151.817233 222.991257 
L 151.678605 222.845723 
L 151.337489 222.484387 
L 151.211006 222.349225 
L 151.08899 222.218226 
L 150.901921 222.016204 
L 150.524985 221.604746 
L 150.3451 221.406284 
L 150.256212 221.307708 
L 150.097909 221.131311 
L 149.759958 220.751087 
L 149.631567 220.605317 
L 149.375096 220.311918 
L 149.32916 220.259053 
L 149.114205 220.010397 
L 148.913323 219.776088 
L 148.629331 219.441605 
L 148.49432 219.281243 
L 148.248609 218.987129 
L 148.068003 218.769055 
L 147.877864 218.537716 
L 147.704083 218.324682 
L 147.394433 217.941246 
L 147.299214 217.822333 
L 146.991764 217.435094 
L 146.808831 217.202271 
L 146.663524 217.016027 
L 146.488635 216.790313 
L 146.28245 216.521996 
L 146.039092 216.202169 
L 145.982807 216.127709 
L 145.628048 215.65407 
L 145.606669 215.625287 
L 145.399637 215.345103 
L 145.094691 214.927577 
L 144.945496 214.721163 
L 144.733985 214.426076 
L 144.492679 214.085834 
L 144.367117 213.907252 
L 144.064333 213.472187 
L 144.051574 213.453714 
L 143.707215 212.950796 
L 143.646259 212.860887 
L 143.282915 212.319283 
L 143.175688 212.157557 
L 143.059324 211.981054 
L 142.81897 211.613145 
L 142.642478 211.340072 
L 142.311906 210.821767 
L 142.130752 210.533858 
L 142.053547 210.410303 
L 141.740318 209.903675 
L 141.614973 209.698482 
L 141.441451 209.412051 
L 141.287769 209.156025 
L 140.979132 208.635024 
L 140.78546 208.303304 
L 140.644356 208.059232 
L 140.380986 207.598132 
L 140.292893 207.442257 
L 140.00696 206.930461 
L 139.812893 206.57786 
L 139.651404 206.281119 
L 139.385442 205.785609 
L 139.31877 205.660032 
L 139.150994 205.341555 
L 138.864465 204.789237 
L 138.663863 204.396009 
L 138.524252 204.119045 
L 138.339421 203.748088 
L 138.052382 203.161974 
L 137.871758 202.786653 
L 137.725124 202.478124 
L 137.520863 202.042426 
L 137.366215 201.707814 
L 137.211566 201.368978 
L 137.073292 201.062334 
L 136.813829 200.477172 
L 136.790399 200.423684 
L 136.644942 200.089156 
L 136.499484 199.750273 
L 136.256523 199.174111 
L 136.207928 199.057299 
L 136.023948 198.610125 
L 135.839968 198.154878 
L 135.76084 197.956503 
L 135.605122 197.561418 
L 135.449404 197.159883 
L 135.283141 196.72372 
L 135.183119 196.457477 
L 135.0283 196.039432 
L 134.87348 195.613865 
L 134.831709 195.497707 
L 134.692828 195.107281 
L 134.553947 194.710124 
L 134.354401 194.127057 
L 134.232157 193.762225 
L 134.109912 193.391275 
L 134.010031 193.083445 
L 133.91015 192.771172 
L 133.780472 192.358814 
L 133.647725 191.928187 
L 133.514978 191.48845 
L 133.440091 191.236154 
L 133.282673 190.695312 
L 133.203964 190.419284 
L 133.125255 190.139322 
L 132.981695 189.61802 
L 132.856555 189.151662 
L 132.731416 188.673335 
L 132.700293 188.55241 
L 132.576998 188.065241 
L 132.453703 187.564325 
L 132.391528 187.30615 
L 132.329353 187.044023 
L 132.267177 186.777768 
L 132.205002 186.507194 
L 132.127318 186.162743 
L 132.049633 185.810787 
L 131.9872 185.522161 
L 131.924767 185.228096 
L 131.862334 184.928285 
L 131.799901 184.622395 
L 131.722422 184.233774 
L 131.63467 183.78063 
L 131.590795 183.548491 
L 131.546919 183.312398 
L 131.503043 183.072148 
L 131.459168 182.827523 
L 131.415292 182.578281 
L 131.371416 182.32416 
L 131.328654 182.071517 
L 131.285892 181.813669 
L 131.239518 181.527785 
L 131.193145 181.234934 
L 131.146771 180.934593 
L 131.100398 180.626172 
L 131.043109 180.232991 
L 131.014465 180.030936 
L 130.985821 179.824962 
L 130.957176 179.614836 
L 130.928532 179.400302 
L 130.899888 179.181077 
L 130.871244 178.956842 
L 130.837253 178.683767 
L 130.803262 178.402467 
L 130.769272 178.112163 
L 130.735281 177.811944 
L 130.713224 177.611322 
L 130.691167 177.405738 
L 130.66911 177.194807 
L 130.647053 176.978097 
L 130.624996 176.755108 
L 130.602939 176.525268 
L 130.580881 176.28791 
L 130.558824 176.042253 
L 130.536767 175.787367 
L 130.51471 175.522136 
L 130.492653 175.245199 
L 130.470596 174.954866 
L 130.459567 174.80403 
L 130.448539 174.648997 
L 130.43751 174.4894 
L 130.426482 174.324811 
L 130.415453 174.154732 
L 130.404424 173.978579 
L 130.393396 173.795653 
L 130.382367 173.605109 
L 130.374575 173.465335 
L 130.366783 173.320808 
L 130.358991 173.17101 
L 130.351199 173.015318 
L 130.343406 172.852981 
L 130.335614 172.683067 
L 130.327822 172.504411 
L 130.32003 172.315506 
L 130.312238 172.114362 
L 130.308342 172.008385 
L 130.304445 171.898243 
L 130.300549 171.783403 
L 130.296653 171.663209 
L 130.292757 171.536834 
L 130.288861 171.403216 
L 130.284965 171.260946 
L 130.281069 171.108089 
L 130.277173 170.941861 
L 130.273277 170.757987 
L 130.269381 170.549273 
L 130.265484 170.301691 
L 130.261588 169.979023 
L 130.257692 169.2 
L 130.257692 247.084615 
L 130.533539 247.084127 
L 130.651411 247.08362 
L 130.920405 247.081796 
L 131.054971 247.080535 
L 131.257327 247.0782 
L 131.378894 247.076545 
L 131.661398 247.071965 
L 131.857774 247.068177 
L 132.105791 247.062686 
L 132.127047 247.062178 
L 132.463121 247.053384 
L 132.661773 247.047503 
L 132.834179 247.041988 
L 133.012506 247.035881 
L 133.264139 247.026567 
L 133.391718 247.021534 
L 133.545305 247.015197 
L 133.846172 247.001903 
L 134.009119 246.994216 
L 134.182758 246.985649 
L 134.334178 246.97786 
L 134.655343 246.960363 
L 134.744559 246.955266 
L 135.047562 246.937188 
L 135.109133 246.93337 
L 135.440525 246.911978 
L 135.592983 246.90166 
L 135.691535 246.89483 
L 135.905063 246.879602 
L 136.164548 246.860301 
L 136.362208 246.845014 
L 136.49191 246.834708 
L 136.802265 246.809161 
L 136.891836 246.801556 
L 137.143343 246.779644 
L 137.319754 246.763784 
L 137.530879 246.744272 
L 137.63652 246.734291 
L 137.809258 246.717657 
L 138.036243 246.695209 
L 138.202938 246.678296 
L 138.487224 246.648616 
L 138.650082 246.631138 
L 138.929176 246.600379 
L 139.079452 246.583395 
L 139.355597 246.551415 
L 139.501713 246.53409 
L 139.745059 246.504613 
L 139.856517 246.490853 
L 139.976314 246.475881 
L 140.153418 246.453401 
L 140.427188 246.417839 
L 140.665437 246.386088 
L 140.773449 246.371447 
L 141.063462 246.331373 
L 141.191505 246.313326 
L 141.490577 246.270329 
L 141.56033 246.26013 
L 141.751892 246.23179 
L 141.98399 246.1968 
L 142.288371 246.149828 
L 142.392022 246.133552 
L 142.593176 246.101555 
L 142.859218 246.058408 
L 142.968962 246.040334 
L 143.07708 246.02237 
L 143.322027 245.981095 
L 143.544478 245.942913 
L 143.796928 245.898777 
L 143.927001 245.875702 
L 144.241255 245.819014 
L 144.430729 245.784191 
L 144.584067 245.755655 
L 144.819452 245.711231 
L 144.917428 245.692519 
L 145.208856 245.636091 
L 145.357982 245.60677 
L 145.597149 245.559115 
L 145.708603 245.53664 
L 145.978464 245.481522 
L 146.160341 245.443813 
L 146.293357 245.415948 
L 146.571882 245.356815 
L 146.664738 245.336865 
L 146.959934 245.272652 
L 146.998919 245.264082 
L 147.246461 245.209178 
L 147.511007 245.149565 
L 147.714205 245.103119 
L 147.799579 245.083434 
L 148.086908 245.016439 
L 148.231917 244.982192 
L 148.424808 244.936182 
L 148.646486 244.882664 
L 148.807238 244.843425 
L 149.105537 244.76965 
L 149.250788 244.733275 
L 149.499131 244.670394 
L 149.663628 244.628264 
L 149.815525 244.589021 
L 149.97881 244.546472 
L 150.223548 244.481989 
L 150.50212 244.407556 
L 150.671779 244.361682 
L 150.822753 244.320514 
L 151.071391 244.252004 
L 151.136561 244.2339 
L 151.297434 244.18895 
L 151.653387 244.088167 
L 151.819784 244.040427 
L 151.898025 244.017841 
L 152.128676 243.950742 
L 152.318248 243.895014 
L 152.64564 243.797541 
L 152.762378 243.762406 
L 152.895041 243.722237 
L 153.147175 243.64518 
L 153.350789 243.582271 
L 153.473492 243.544065 
L 153.739003 243.460631 
L 153.949272 243.393816 
L 154.034625 243.366507 
L 154.342807 243.267 
L 154.455133 243.23038 
L 154.807375 243.114318 
L 154.947846 243.067514 
L 155.075411 243.024753 
L 155.215887 242.97738 
L 155.507216 242.878185 
L 155.690097 242.815257 
L 155.850237 242.759738 
L 156.069722 242.683008 
L 156.259951 242.61591 
L 156.391264 242.56927 
L 156.639581 242.480347 
L 156.956805 242.365365 
L 157.110834 242.308974 
L 157.359062 242.21732 
L 157.415699 242.196274 
L 157.604832 242.125628 
L 157.76239 242.06635 
L 158.100841 241.937696 
L 158.157871 241.91584 
L 158.446401 241.804477 
L 158.642344 241.728097 
L 158.854863 241.644566 
L 159.04179 241.570498 
L 159.262405 241.482363 
L 159.335727 241.452897 
L 159.637483 241.330723 
L 159.829186 241.252342 
L 159.92102 241.214584 
L 160.167505 241.112561 
L 160.371394 241.02742 
L 160.517371 240.966045 
L 160.818683 240.838252 
L 161.011904 240.755515 
L 161.106053 240.714977 
L 161.394745 240.589756 
L 161.541933 240.525378 
L 161.721617 240.446297 
L 161.88243 240.375061 
L 162.091495 240.2818 
L 162.354008 240.163651 
L 162.586704 240.057945 
L 162.827569 239.947554 
L 162.9824 239.87607 
L 163.086909 239.827586 
L 163.366174 239.697105 
L 163.568883 239.601548 
L 163.74556 239.517679 
L 163.980633 239.405246 
L 164.128834 239.333866 
L 164.372965 239.215438 
L 164.594073 239.107269 
L 164.717196 239.04666 
L 164.958978 238.926853 
L 165.010761 238.901058 
L 165.29702 238.757594 
L 165.544012 238.632621 
L 165.7178 238.544027 
L 165.947421 238.426126 
L 166.103098 238.345645 
L 166.18431 238.303484 
L 166.39765 238.19215 
L 166.559324 238.107219 
L 166.850852 237.952847 
L 166.952524 237.898636 
L 167.228367 237.750584 
L 167.485811 237.611114 
L 167.55905 237.571208 
L 167.753152 237.464953 
L 167.975184 237.342528 
L 168.153449 237.243552 
L 168.359621 237.128318 
L 168.67053 236.952987 
L 168.819931 236.868065 
L 169.101505 236.706826 
z
" clip-path="url(#p299f70cfe0)" style="fill: #808080; opacity: 0.5"/>
   </g>
   <g id="patch_7">
    <path d="M 286.026923 169.2 
L 286.018097 170.372511 
L 286.009271 170.858135 
L 286.000444 171.230734 
L 285.991618 171.544824 
L 285.982792 171.821518 
L 285.973965 172.071648 
L 285.965139 172.301646 
L 285.956313 172.515705 
L 285.947487 172.716737 
L 285.93866 172.906861 
L 285.929834 173.087679 
L 285.921008 173.260433 
L 285.903355 173.58552 
L 285.885703 173.888052 
L 285.86805 174.172148 
L 285.850398 174.440807 
L 285.832745 174.696293 
L 285.815093 174.940365 
L 285.79744 175.174422 
L 285.779788 175.399599 
L 285.744482 175.826898 
L 285.719772 176.110167 
L 285.695061 176.382187 
L 285.67035 176.644192 
L 285.645639 176.897204 
L 285.596217 177.37956 
L 285.546796 177.834731 
L 285.497374 178.266811 
L 285.447952 178.678959 
L 285.39853 179.073671 
L 285.349109 179.452961 
L 285.275442 179.993191 
L 285.201775 180.507161 
L 285.128108 180.998302 
L 285.054441 181.469357 
L 284.980774 181.922558 
L 284.907107 182.359748 
L 284.83344 182.782474 
L 284.759773 183.192047 
L 284.648771 183.786787 
L 284.53777 184.357397 
L 284.426769 184.906506 
L 284.315767 185.436298 
L 284.22921 185.837206 
L 284.142653 186.228237 
L 284.00058 186.850376 
L 283.858508 187.450213 
L 283.716436 188.029882 
L 283.574364 188.59119 
L 283.465879 189.008407 
L 283.2883 189.671763 
L 283.110722 190.312796 
L 282.933144 190.933479 
L 282.755566 191.53551 
L 282.648758 191.889253 
L 282.465817 192.481522 
L 282.282876 193.05769 
L 282.040029 193.799594 
L 281.797182 194.51744 
L 281.615431 195.040151 
L 281.43368 195.551244 
L 281.206752 196.174066 
L 280.979825 196.780961 
L 280.787547 197.283491 
L 280.59527 197.775891 
L 280.377708 198.321474 
L 280.160146 198.855425 
L 279.828827 199.647599 
L 279.63092 200.109409 
L 279.433014 200.563172 
L 279.047914 201.424343 
L 278.770732 202.027413 
L 278.405571 202.801893 
L 278.040409 203.555039 
L 277.899734 203.839786 
L 277.650489 204.337246 
L 277.401244 204.826016 
L 277.137249 205.334628 
L 276.873255 205.834277 
L 276.595592 206.350521 
L 276.169423 207.125253 
L 275.994366 207.437567 
L 275.630978 208.075348 
L 275.26759 208.699491 
L 274.970678 209.199779 
L 274.77957 209.517349 
L 274.45438 210.049998 
L 273.885101 210.96001 
L 273.312073 211.848739 
L 273.016938 212.296353 
L 272.905112 212.464218 
L 272.53066 213.019555 
L 272.156208 213.564782 
L 271.799078 214.075705 
L 271.703224 214.211368 
L 271.312434 214.758188 
L 270.781111 215.485998 
L 270.432607 215.953951 
L 269.963844 216.572049 
L 269.402243 217.296088 
L 269.254932 217.483128 
L 268.737521 218.130904 
L 268.290948 218.678827 
L 268.136683 218.865765 
L 267.487935 219.63917 
L 267.099125 220.093094 
L 266.81249 220.423266 
L 266.60444 220.660591 
L 266.169392 221.150657 
L 265.864352 221.489377 
L 265.185828 222.228767 
L 264.826715 222.612463 
L 264.396436 223.065447 
L 263.951656 223.526144 
L 263.896323 223.58293 
L 263.383368 224.103903 
L 262.844156 224.64115 
L 262.367692 225.107253 
L 262.282246 225.190002 
L 261.756812 225.693347 
L 261.475412 225.959081 
L 261.124669 226.286624 
L 260.550098 226.814554 
L 260.123677 227.199574 
L 259.875741 227.420831 
L 259.410875 227.830601 
L 258.856021 228.311188 
L 258.562993 228.561332 
L 258.434163 228.670519 
L 257.883075 229.132207 
L 257.500401 229.447754 
L 257.021985 229.836544 
L 256.674153 230.115296 
L 256.424817 230.313113 
L 255.727636 230.857521 
L 255.422631 231.091715 
L 255.107978 231.330823 
L 254.724861 231.618579 
L 254.176154 232.024345 
L 254.025018 232.134809 
L 253.355743 232.617337 
L 252.994892 232.873064 
L 252.733061 233.056699 
L 252.315952 233.345947 
L 251.783554 233.70934 
L 251.530883 233.879555 
L 251.101818 234.165328 
L 250.90897 234.292441 
L 250.478723 234.573092 
L 250.193984 234.756616 
L 249.452928 235.2261 
L 249.328442 235.303825 
L 248.836332 235.607904 
L 248.294461 235.936931 
L 248.240813 235.969179 
L 247.720572 236.278866 
L 247.322166 236.512347 
L 246.958187 236.722891 
L 246.36728 237.059154 
L 246.074349 237.223331 
L 245.781529 237.385793 
L 245.345577 237.624631 
L 244.822616 237.906392 
L 244.671472 237.98687 
L 244.013844 238.332093 
L 243.76557 238.460353 
L 243.267471 238.714288 
L 242.802631 238.947224 
L 242.571453 239.06163 
L 242.140026 239.272594 
L 241.618189 239.523386 
L 241.235685 239.704196 
L 240.888175 239.866269 
L 240.732647 239.93813 
L 240.210282 240.176463 
L 239.953806 240.291785 
L 239.433935 240.522138 
L 239.048543 240.689985 
L 238.620755 240.873409 
L 238.145674 241.073579 
L 237.858306 241.192866 
L 237.441219 241.363614 
L 237.29665 241.422141 
L 236.813513 241.615298 
L 236.313757 241.811175 
L 235.898093 241.971077 
L 235.534197 242.108832 
L 235.316962 242.190078 
L 234.920834 242.336337 
L 234.388042 242.529222 
L 234.048131 242.649994 
L 233.685288 242.776963 
L 233.165588 242.95533 
L 232.740144 243.098307 
L 232.316052 243.238121 
L 232.154921 243.290537 
L 231.576379 243.475552 
L 231.083236 243.629343 
L 230.979389 243.661272 
L 230.28355 243.871137 
L 230.240709 243.883827 
L 229.573923 244.077895 
L 229.147174 244.198726 
L 229.053427 244.224918 
L 228.316065 244.426543 
L 228.200869 244.457341 
L 227.578042 244.620591 
L 227.367483 244.674538 
L 226.784532 244.820637 
L 226.424228 244.908551 
L 226.04059 245.000164 
L 225.566678 245.110504 
L 225.250826 245.182313 
L 224.802604 245.28185 
L 224.621273 245.321331 
L 224.102303 245.43183 
L 223.850511 245.484112 
L 223.580936 245.539125 
L 223.116953 245.631494 
L 222.514943 245.746983 
L 222.293778 245.788179 
L 221.917697 245.856715 
L 221.343577 245.957669 
L 220.875102 246.03677 
L 220.680931 246.068695 
L 220.444413 246.106902 
L 220.052644 246.168547 
L 219.360314 246.272496 
L 219.073936 246.313636 
L 218.804364 246.35137 
L 218.271393 246.42315 
L 217.923406 246.467997 
L 217.574344 246.511383 
L 217.215572 246.554309 
L 216.901396 246.590514 
L 216.314297 246.654709 
L 215.939477 246.693338 
L 215.420934 246.743761 
L 215.121284 246.771304 
L 214.609148 246.815677 
L 214.422438 246.831007 
L 214.019578 246.862546 
L 213.448519 246.903651 
L 213.311262 246.912903 
L 212.894561 246.939497 
L 212.349276 246.970912 
L 212.123005 246.982822 
L 211.759551 247.000571 
L 211.445781 247.014525 
L 210.724613 247.041795 
L 210.507128 247.048705 
L 210.269175 247.05557 
L 209.515926 247.072501 
L 209.285919 247.076219 
L 208.921152 247.080721 
L 208.545849 247.08357 
L 208.142308 247.084615 
L 208.142308 91.315385 
L 208.565253 91.316533 
L 209.119097 91.32151 
L 209.146903 91.321864 
L 209.881557 91.334807 
L 210.187322 91.342237 
L 210.529245 91.35197 
L 210.996956 91.367717 
L 211.468729 91.386452 
L 211.730992 91.398106 
L 212.025551 91.412252 
L 212.437727 91.433923 
L 212.791 91.454241 
L 213.422756 91.494594 
L 213.705222 91.514304 
L 213.950323 91.532244 
L 214.284707 91.557974 
L 214.861646 91.605775 
L 215.362832 91.650807 
L 215.69613 91.682563 
L 215.838335 91.696552 
L 216.512108 91.766417 
L 216.888299 91.808005 
L 217.226127 91.846929 
L 217.395404 91.866996 
L 218.109775 91.955823 
L 218.357879 91.988243 
L 218.604361 92.021254 
L 219.162168 92.098924 
L 219.522839 92.151335 
L 219.851621 92.200615 
L 220.253041 92.26273 
L 220.508661 92.303403 
L 220.979796 92.380652 
L 221.312345 92.436966 
L 221.862046 92.533305 
L 222.058232 92.568672 
L 222.747709 92.697088 
L 222.989041 92.743556 
L 223.569251 92.858512 
L 223.761646 92.897644 
L 224.256623 93.000642 
L 224.385954 93.028107 
L 224.925906 93.145256 
L 225.489861 93.271904 
L 225.594915 93.295983 
L 226.007853 93.392114 
L 226.643956 93.544846 
L 226.99893 93.632539 
L 227.459379 93.748929 
L 227.759494 93.826402 
L 228.225693 93.949279 
L 228.538454 94.033448 
L 228.754518 94.09241 
L 229.10675 94.189964 
L 229.751915 94.373279 
L 230.116011 94.479389 
L 230.503784 94.59452 
L 230.843985 94.697335 
L 231.038114 94.756764 
L 231.580862 94.925863 
L 232.123102 95.099158 
L 232.367771 95.178785 
L 232.813575 95.326176 
L 233.217613 95.462341 
L 233.735505 95.64049 
L 233.808619 95.665968 
L 234.521633 95.91873 
L 234.688225 95.978913 
L 235.179096 96.158742 
L 235.673012 96.343472 
L 235.989734 96.463942 
L 236.390872 96.618791 
L 236.873069 96.808311 
L 237.148736 96.918326 
L 237.48732 97.055121 
L 237.988322 97.260937 
L 238.258113 97.373462 
L 238.56248 97.501838 
L 238.982868 97.681659 
L 239.573362 97.939196 
L 239.700594 97.995451 
L 240.383256 98.301942 
L 240.671127 98.433559 
L 241.20226 98.680124 
L 241.559689 98.848796 
L 241.874927 98.999404 
L 242.094298 99.105238 
L 242.430931 99.269294 
L 242.987211 99.544806 
L 243.233496 99.668555 
L 243.742443 99.927757 
L 243.991747 100.056446 
L 244.661267 100.407712 
L 244.980892 100.578342 
L 245.272205 100.735527 
L 245.547355 100.885465 
L 246.284756 101.294426 
L 246.643202 101.497013 
L 246.886091 101.635715 
L 247.316673 101.884456 
L 247.677278 102.095608 
L 248.196556 102.404263 
L 248.373314 102.510575 
L 249.027437 102.909582 
L 249.214062 103.025048 
L 249.60602 103.269932 
L 249.832969 103.413207 
L 250.506579 103.844955 
L 250.828861 104.054996 
L 251.29493 104.362785 
L 251.575016 104.550072 
L 252.116847 104.917396 
L 252.48454 105.170477 
L 252.611826 105.258814 
L 253.230384 105.693475 
L 253.646725 105.991129 
L 254.103053 106.322156 
L 254.249628 106.429559 
L 254.600503 106.688806 
L 255.268257 107.19066 
L 255.379151 107.275094 
L 255.869688 107.652372 
L 256.297597 107.986591 
L 256.645963 108.262256 
L 257.254069 108.751276 
L 257.344655 108.824986 
L 257.698641 109.1152 
L 258.082284 109.433688 
L 258.681089 109.939179 
L 259.171041 110.360543 
L 259.604086 110.738913 
L 259.65572 110.784406 
L 260.306465 111.364769 
L 260.560439 111.594854 
L 260.800792 111.814485 
L 261.417573 112.386626 
L 261.74576 112.696166 
L 262.045413 112.981955 
L 262.502482 113.423798 
L 262.929851 113.843533 
L 263.142669 114.054977 
L 263.888288 114.808833 
L 264.260153 115.192587 
L 264.644085 115.59438 
L 264.80355 115.762963 
L 265.42944 116.434502 
L 265.728705 116.761272 
L 265.924759 116.977383 
L 266.490707 117.61049 
L 266.702141 117.850616 
L 267.093447 118.300329 
L 267.436943 118.700895 
L 267.917202 119.270296 
L 268.569148 120.061316 
L 268.986843 120.579471 
L 269.228993 120.884058 
L 269.534712 121.273118 
L 269.930772 121.784824 
L 270.21618 122.159085 
L 270.903781 123.080472 
L 270.982658 123.188004 
L 271.461653 123.849434 
L 272.05399 124.688089 
L 272.44737 125.258308 
L 272.781529 125.75136 
L 273.086258 126.20818 
L 273.424063 126.72288 
L 273.846382 127.379098 
L 274.231251 127.989991 
L 274.655754 128.678712 
L 275.144812 129.492599 
L 275.443854 130.001592 
L 275.86198 130.728461 
L 276.263499 131.443987 
L 276.540274 131.947731 
L 276.817048 132.460466 
L 277.110978 133.015254 
L 277.263574 133.307607 
L 277.70849 134.177728 
L 278.017468 134.798324 
L 278.326446 135.433151 
L 278.688681 136.196629 
L 278.919232 136.693996 
L 279.149782 137.200752 
L 279.479644 137.943036 
L 279.723531 138.505672 
L 279.985929 139.12497 
L 280.248326 139.759629 
L 280.529342 140.457513 
L 280.857614 141.298431 
L 281.084035 141.89583 
L 281.310457 142.508516 
L 281.465561 142.937597 
L 281.620665 143.374736 
L 281.85091 144.039412 
L 282.081155 144.724296 
L 282.337935 145.514092 
L 282.466324 145.920097 
L 282.594714 146.334031 
L 282.830658 147.116893 
L 282.94863 147.519885 
L 283.066603 147.931165 
L 283.183511 148.347395 
L 283.300419 148.772772 
L 283.489257 149.480706 
L 283.629817 150.025819 
L 283.770377 150.587951 
L 283.910938 151.168693 
L 284.051498 151.769907 
L 284.171177 152.299574 
L 284.290855 152.847262 
L 284.410534 153.414848 
L 284.530212 154.004562 
L 284.617011 154.447607 
L 284.703809 154.904903 
L 284.790608 155.377865 
L 284.877406 155.868159 
L 284.973788 156.435326 
L 285.070171 157.029658 
L 285.118362 157.338279 
L 285.166553 157.655348 
L 285.214744 157.981582 
L 285.262935 158.317805 
L 285.333743 158.831987 
L 285.40455 159.373546 
L 285.439954 159.656039 
L 285.475358 159.947288 
L 285.510762 160.248148 
L 285.546165 160.559623 
L 285.581569 160.882904 
L 285.616973 161.219427 
L 285.652377 161.570944 
L 285.687781 161.939632 
L 285.723184 162.328255 
L 285.758588 162.74041 
L 285.793992 163.180928 
L 285.811694 163.413831 
L 285.829396 163.656567 
L 285.854087 164.014182 
L 285.878778 164.398485 
L 285.891123 164.602717 
L 285.903469 164.816488 
L 285.915814 165.041271 
L 285.928159 165.278957 
L 285.940505 165.532055 
L 285.95285 165.804008 
L 285.965196 166.099775 
L 285.971369 166.25881 
L 285.977541 166.426964 
L 285.983714 166.606011 
L 285.989887 166.798385 
L 285.996059 167.007592 
L 286.002232 167.239012 
L 286.008405 167.501701 
L 286.014578 167.813317 
L 286.02075 168.219448 
z
" clip-path="url(#p299f70cfe0)" style="fill: #808080; opacity: 0.5"/>
   </g>
   <g id="patch_8">
    <path d="M 208.142308 169.2 
L 208.134879 168.12434 
L 208.127451 167.678823 
L 208.120023 167.336991 
L 208.112594 167.048833 
L 208.105166 166.79498 
L 208.097738 166.565495 
L 208.09031 166.354477 
L 208.082881 166.158081 
L 208.075453 165.973635 
L 208.068025 165.799193 
L 208.060596 165.633289 
L 208.053168 165.474781 
L 208.04574 165.322761 
L 208.038312 165.176495 
L 208.030883 165.035376 
L 208.023455 164.898898 
L 208.008598 164.63821 
L 207.993742 164.391681 
L 207.978885 164.157233 
L 207.964029 163.933253 
L 207.949172 163.718458 
L 207.934315 163.511806 
L 207.919459 163.312441 
L 207.904602 163.119646 
L 207.882939 162.849063 
L 207.861276 162.589618 
L 207.839613 162.340047 
L 207.817949 162.099307 
L 207.796286 161.866531 
L 207.774623 161.640981 
L 207.75296 161.422029 
L 207.731297 161.209133 
L 207.705968 160.967263 
L 207.680639 160.732374 
L 207.65531 160.503901 
L 207.629981 160.281351 
L 207.604621 160.06403 
L 207.579261 159.851829 
L 207.553901 159.644406 
L 207.528542 159.441456 
L 207.503182 159.242707 
L 207.477822 159.047912 
L 207.427102 158.669308 
L 207.370781 158.264515 
L 207.31446 157.87446 
L 207.258139 157.49767 
L 207.201818 157.132901 
L 207.16082 156.874325 
L 207.119822 156.621196 
L 207.078824 156.373192 
L 207.037826 156.130022 
L 206.996829 155.891421 
L 206.955831 155.657147 
L 206.873835 155.200715 
L 206.78947 154.746617 
L 206.705105 154.306836 
L 206.64812 154.01725 
L 206.591134 153.733294 
L 206.496567 153.273691 
L 206.402 152.82753 
L 206.3186 152.444355 
L 206.2352 152.070155 
L 206.169236 151.780159 
L 206.103272 151.495159 
L 206.037307 151.214916 
L 205.971343 150.939212 
L 205.85457 150.461658 
L 205.737796 149.996687 
L 205.638376 149.610057 
L 205.503476 149.098126 
L 205.368576 148.599795 
L 205.295507 148.335204 
L 205.207698 148.021947 
L 205.11989 147.713616 
L 205.032081 147.410001 
L 204.944273 147.110908 
L 204.85981 146.827309 
L 204.735417 146.416633 
L 204.611024 146.013896 
L 204.496475 145.649704 
L 204.381926 145.291608 
L 204.266469 144.936565 
L 204.082188 144.381517 
L 203.922314 143.910935 
L 203.76244 143.449944 
L 203.574363 142.919226 
L 203.49615 142.702045 
L 203.347852 142.295692 
L 203.199555 141.896191 
L 203.132327 141.717261 
L 202.935786 141.201643 
L 202.721993 140.652872 
L 202.552472 140.22625 
L 202.345959 139.716189 
L 202.177483 139.307575 
L 202.009006 138.905409 
L 201.918051 138.690881 
L 201.768949 138.343016 
L 201.619848 137.999742 
L 201.506865 137.742589 
L 201.34008 137.367508 
L 201.179292 137.010872 
L 200.988989 136.594831 
L 200.720939 136.019521 
L 200.535643 135.628837 
L 200.297795 135.135395 
L 200.062128 134.655043 
L 199.830527 134.190945 
L 199.750918 134.033184 
L 199.623588 133.782691 
L 199.449642 133.444058 
L 199.275697 133.109442 
L 199.231538 133.02512 
L 198.951535 132.496195 
L 198.770697 132.159732 
L 198.488225 131.641942 
L 198.369875 131.427736 
L 198.208853 131.138824 
L 198.010249 130.786404 
L 197.831221 130.472341 
L 197.56613 130.013426 
L 197.40538 129.73861 
L 197.185689 129.367143 
L 196.921484 128.926532 
L 196.703215 128.567429 
L 196.587203 128.378322 
L 196.440713 128.141248 
L 196.193347 127.745172 
L 195.976137 127.401683 
L 195.834234 127.179404 
L 195.543699 126.729415 
L 195.373381 126.468742 
L 195.235812 126.259841 
L 195.067146 126.005694 
L 194.869268 125.710259 
L 194.709143 125.473306 
L 194.384333 124.998334 
L 194.230461 124.775928 
L 194.104279 124.594769 
L 193.932278 124.349576 
L 193.590075 123.867643 
L 193.52592 123.778147 
L 193.312555 123.482414 
L 193.124802 123.224574 
L 192.86137 122.866503 
L 192.633389 122.560041 
L 192.49858 122.380291 
L 192.326938 122.15298 
L 192.022701 121.754273 
L 191.833903 121.509502 
L 191.796971 121.461855 
L 191.427384 120.989191 
L 191.383568 120.933649 
L 191.145024 120.633075 
L 190.949875 120.389425 
L 190.79696 120.199894 
L 190.543847 119.888816 
L 190.35011 119.652905 
L 190.143394 119.403252 
L 190.000006 119.231318 
L 189.666852 118.835676 
L 189.576576 118.729382 
L 189.310626 118.418464 
L 189.2026 118.293113 
L 189.057349 118.12541 
L 188.863555 117.903156 
L 188.612643 117.6179 
L 188.299705 117.266021 
L 188.218304 117.175191 
L 187.905574 116.828872 
L 187.777896 116.688673 
L 187.637099 116.53486 
L 187.341557 116.214665 
L 187.283867 116.152581 
L 187.101201 115.956889 
L 186.74444 115.578544 
L 186.684089 115.515039 
L 186.376791 115.193889 
L 186.180589 114.990748 
L 186.045756 114.851999 
L 185.844055 114.645719 
L 185.734906 114.534727 
L 185.443897 114.24096 
L 185.342045 114.138876 
L 184.961177 113.760464 
L 184.828365 113.629729 
L 184.721396 113.524886 
L 184.472351 113.282346 
L 184.266435 113.083433 
L 183.996254 112.824648 
L 183.827498 112.664266 
L 183.67491 112.520073 
L 183.539533 112.392793 
L 183.229916 112.103968 
L 183.142959 112.023415 
L 182.904865 111.804107 
L 182.616652 111.541066 
L 182.41635 111.359809 
L 182.376184 111.323614 
L 182.200882 111.166231 
L 182.00886 110.994932 
L 181.710245 110.730793 
L 181.53376 110.575959 
L 181.274087 110.349845 
L 181.051476 110.157602 
L 180.991962 110.106454 
L 180.723606 109.877113 
L 180.498314 109.686193 
L 180.328685 109.543408 
L 180.09892 109.351313 
L 179.923632 109.205769 
L 179.789476 109.094961 
L 179.538961 108.889389 
L 179.361861 108.745109 
L 179.147699 108.571784 
L 179.061947 108.502735 
L 178.837622 108.323044 
L 178.508136 108.061567 
L 178.386248 107.96557 
L 178.217705 107.833474 
L 178.089359 107.733384 
L 177.787817 107.499914 
L 177.674034 107.41243 
L 177.448656 107.240124 
L 177.18899 107.04321 
L 177.11322 106.986072 
L 176.846029 106.785737 
L 176.577263 106.586018 
L 176.348894 106.417722 
L 176.178198 106.292763 
L 176.039121 106.191476 
L 175.819189 106.032261 
L 175.673017 105.927086 
L 175.465717 105.778806 
L 175.294308 105.656971 
L 175.114093 105.529626 
L 174.809904 105.316405 
L 174.752377 105.276324 
L 174.49707 105.09937 
L 174.279402 104.94969 
L 174.006034 104.763241 
L 173.864112 104.667113 
L 173.760888 104.597482 
L 173.534977 104.445927 
L 173.263347 104.26521 
L 173.205759 104.227107 
L 172.871909 104.007655 
L 172.697431 103.893937 
L 172.552927 103.800257 
L 172.327008 103.654703 
L 172.057211 103.482319 
L 171.854472 103.353806 
L 171.670454 103.237916 
L 171.512052 103.138732 
L 171.383163 103.058417 
L 171.252972 102.977645 
L 171.001277 102.822492 
L 170.829316 102.717245 
L 170.487484 102.509842 
L 170.300888 102.397636 
L 170.134329 102.298078 
L 169.906748 102.162953 
L 169.777297 102.086557 
L 169.673191 102.025363 
L 169.350941 101.837316 
L 169.2 101.749945 
L 169.2 101.749945 
L 169.323908 101.678558 
L 169.662223 101.485184 
L 169.703684 101.461639 
L 170.00993 101.288771 
L 170.252459 101.153158 
L 170.393223 101.074969 
L 170.628459 100.945151 
L 170.715559 100.897351 
L 170.881087 100.80691 
L 171.181858 100.643903 
L 171.3946 100.529633 
L 171.627064 100.405739 
L 171.727724 100.352405 
L 171.991551 100.213508 
L 172.168465 100.121089 
L 172.261476 100.072731 
L 172.597083 99.899565 
L 172.694583 99.849642 
L 172.967943 99.710595 
L 173.2087 99.589251 
L 173.280691 99.553169 
L 173.49523 99.446195 
L 173.69144 99.34908 
L 173.947914 99.22317 
L 174.188798 99.105974 
L 174.310676 99.047067 
L 174.487221 98.962201 
L 174.760162 98.832069 
L 174.802797 98.811859 
L 175.018693 98.710005 
L 175.358428 98.551358 
L 175.380695 98.54103 
L 175.610734 98.434825 
L 175.814408 98.341548 
L 176.069981 98.225504 
L 176.26936 98.135744 
L 176.504354 98.030813 
L 176.54365 98.013357 
L 176.806268 97.897364 
L 176.999655 97.812687 
L 177.263978 97.697958 
L 177.463478 97.612133 
L 177.591751 97.557298 
L 177.855497 97.445401 
L 177.938992 97.410217 
L 178.138231 97.326718 
L 178.409963 97.213883 
L 178.549262 97.156507 
L 178.86182 97.028909 
L 178.990189 96.976962 
L 179.142851 96.915528 
L 179.434373 96.799256 
L 179.636673 96.719367 
L 179.762448 96.670028 
L 179.947473 96.597902 
L 180.153801 96.518112 
L 180.450711 96.404473 
L 180.582522 96.354468 
L 180.743407 96.293803 
L 181.024022 96.188961 
L 181.219787 96.116546 
L 181.360863 96.064731 
L 181.609443 95.974182 
L 181.67993 95.94868 
L 181.914429 95.86439 
L 182.196656 95.764066 
L 182.341079 95.713199 
L 182.584915 95.628042 
L 182.630474 95.612232 
L 182.96762 95.496212 
L 183.104435 95.449622 
L 183.272028 95.392937 
L 183.549716 95.299947 
L 183.654585 95.265132 
L 183.813578 95.212662 
L 184.12736 95.110219 
L 184.213753 95.082272 
L 184.523156 94.983095 
L 184.615364 94.953813 
L 184.841006 94.882689 
L 185.069534 94.811423 
L 185.261753 94.752075 
L 185.512647 94.675428 
L 185.676993 94.625722 
L 185.890997 94.561588 
L 186.10725 94.497459 
L 186.213167 94.466299 
L 186.371236 94.420098 
L 186.620349 94.348022 
L 186.847893 94.282971 
L 186.964188 94.250013 
L 187.176117 94.190453 
L 187.471322 94.108565 
L 187.51584 94.096324 
L 187.823598 94.012479 
L 187.905146 93.990489 
L 188.184962 93.915754 
L 188.357331 93.870271 
L 188.649121 93.794238 
L 188.70961 93.778627 
L 188.89678 93.730649 
L 189.097862 93.679656 
L 189.29358 93.63057 
L 189.633121 93.54669 
L 189.785401 93.509596 
L 189.985557 93.461333 
L 190.059823 93.443568 
L 190.381497 93.367507 
L 190.576009 93.322214 
L 190.695933 93.29455 
L 191.00753 93.223604 
L 191.138462 93.194194 
L 191.332083 93.151136 
L 191.451443 93.124851 
L 191.686127 93.07374 
L 191.932268 93.020948 
L 191.998426 93.006901 
L 192.354621 92.932299 
L 192.434648 92.915777 
L 192.699158 92.861789 
L 192.83497 92.83444 
L 193.034213 92.794772 
L 193.281671 92.746257 
L 193.505079 92.703171 
L 193.596295 92.685774 
L 193.858722 92.63635 
L 194.12196 92.587709 
L 194.343518 92.547494 
L 194.520761 92.515798 
L 194.667938 92.489801 
L 194.854818 92.457209 
L 194.933554 92.443618 
L 195.283945 92.384143 
L 195.487082 92.350416 
L 195.590003 92.333538 
L 195.881781 92.286459 
L 196.064993 92.257477 
L 196.207808 92.235196 
L 196.404052 92.205022 
L 196.626187 92.171484 
L 196.747174 92.153493 
L 197.038503 92.110968 
L 197.132706 92.097458 
L 197.397801 92.060069 
L 197.478421 92.048883 
L 197.74689 92.012251 
L 198.045111 91.972674 
L 198.128516 91.961815 
L 198.304139 91.939248 
L 198.614058 91.900415 
L 198.693109 91.890712 
L 198.970877 91.857268 
L 199.069857 91.845595 
L 199.27757 91.821516 
L 199.578634 91.787619 
L 199.728131 91.771227 
L 200.009354 91.741183 
L 200.206156 91.720772 
L 200.412282 91.699935 
L 200.458478 91.695342 
L 200.719766 91.669882 
L 200.906781 91.652205 
L 201.161832 91.628831 
L 201.371779 91.610225 
L 201.456319 91.602894 
L 201.707198 91.581686 
L 201.953105 91.561691 
L 202.091508 91.550781 
L 202.269928 91.537084 
L 202.539002 91.517207 
L 202.645303 91.509613 
L 202.798835 91.498902 
L 203.052711 91.48186 
L 203.338494 91.463672 
L 203.532216 91.451943 
L 203.659357 91.444508 
L 203.779103 91.437697 
L 204.035645 91.423727 
L 204.138993 91.418339 
L 204.468378 91.402085 
L 204.562961 91.397676 
L 204.733289 91.390027 
L 205.090553 91.375196 
L 205.155764 91.372666 
L 205.450109 91.361928 
L 205.622486 91.356158 
L 205.709428 91.353392 
L 205.896914 91.347758 
L 206.110218 91.341899 
L 206.295474 91.337284 
L 206.625405 91.330158 
L 206.698942 91.32876 
L 206.983596 91.324004 
L 207.219004 91.320858 
L 207.319179 91.319734 
L 207.631569 91.317059 
L 207.766174 91.316293 
L 208.010829 91.315496 
L 208.142308 91.315385 
z
" clip-path="url(#p299f70cfe0)" style="fill: #808080; opacity: 0.5"/>
   </g>
   <g id="patch_9">
    <path d="M 208.142308 169.2 
L 208.13547 170.232014 
L 208.128632 170.659457 
L 208.121795 170.987423 
L 208.114957 171.263893 
L 208.108119 171.507452 
L 208.101282 171.727631 
L 208.094444 171.930094 
L 208.087606 172.118529 
L 208.080769 172.295499 
L 208.073931 172.462871 
L 208.067093 172.622053 
L 208.060256 172.774139 
L 208.053418 172.92 
L 208.04658 173.060342 
L 208.039742 173.195746 
L 208.032905 173.326698 
L 208.019229 173.576832 
L 208.005554 173.813383 
L 207.991879 174.038344 
L 207.978203 174.253264 
L 207.964528 174.459373 
L 207.950853 174.657669 
L 207.937177 174.848976 
L 207.923502 175.033981 
L 207.910299 175.207159 
L 207.897096 175.375454 
L 207.883894 175.539256 
L 207.870691 175.698903 
L 207.844286 176.006898 
L 207.81788 176.301449 
L 207.791475 176.584165 
L 207.765069 176.856359 
L 207.738664 177.119114 
L 207.712258 177.373341 
L 207.686642 177.612553 
L 207.661026 177.845073 
L 207.635409 178.071427 
L 207.609793 178.292074 
L 207.584177 178.507423 
L 207.55856 178.717831 
L 207.532944 178.923619 
L 207.507328 179.125076 
L 207.475717 179.36809 
L 207.444105 179.605333 
L 207.416171 179.810486 
L 207.388237 180.011675 
L 207.33237 180.40301 
L 207.276502 180.780859 
L 207.220634 181.146503 
L 207.174015 181.443067 
L 207.127395 181.732442 
L 207.080776 182.015115 
L 207.034156 182.29152 
L 206.975904 182.628673 
L 206.917653 182.957319 
L 206.859401 183.278053 
L 206.801149 183.591406 
L 206.720549 184.013672 
L 206.639949 184.423804 
L 206.55662 184.836076 
L 206.473292 185.237322 
L 206.379411 185.677174 
L 206.28553 186.105064 
L 206.191649 186.521879 
L 206.097768 186.9284 
L 206.011313 187.29426 
L 205.924858 187.652462 
L 205.829604 188.038774 
L 205.757715 188.324848 
L 205.685826 188.60644 
L 205.613937 188.883741 
L 205.542048 189.156931 
L 205.46082 189.460871 
L 205.379592 189.759998 
L 205.278627 190.125407 
L 205.186269 190.453745 
L 205.093911 190.776692 
L 204.98872 191.138249 
L 204.883529 191.493447 
L 204.766187 191.882537 
L 204.648845 192.264468 
L 204.468709 192.837646 
L 204.309135 193.332907 
L 204.149561 193.817171 
L 204.056751 194.094022 
L 203.902275 194.547363 
L 203.754657 194.972263 
L 203.607039 195.389439 
L 203.489738 195.715672 
L 203.283845 196.277561 
L 203.155307 196.621727 
L 203.026768 196.961032 
L 202.901548 197.287071 
L 202.750625 197.674341 
L 202.599701 198.055624 
L 202.386868 198.583589 
L 202.297866 198.801126 
L 202.15843 199.138222 
L 202.018995 199.470923 
L 201.902021 199.746742 
L 201.671764 200.281242 
L 201.48019 200.717758 
L 201.242066 201.250461 
L 201.103403 201.555812 
L 200.863346 202.076358 
L 200.659657 202.510308 
L 200.57375 202.691272 
L 200.324955 203.208706 
L 200.173666 203.518653 
L 200.000693 203.868822 
L 199.775042 204.319103 
L 199.479328 204.898438 
L 199.379678 205.091008 
L 199.214229 205.407863 
L 198.922399 205.958283 
L 198.775386 206.231595 
L 198.646338 206.469376 
L 198.336897 207.03167 
L 198.185842 207.302228 
L 197.958941 207.703951 
L 197.847645 207.898987 
L 197.581516 208.360134 
L 197.444836 208.594175 
L 197.177227 209.047072 
L 196.98607 209.366366 
L 196.771407 209.720847 
L 196.583143 210.028273 
L 196.386884 210.345393 
L 196.192241 210.656586 
L 195.992089 210.973227 
L 195.875523 211.156092 
L 195.611063 211.566853 
L 195.356228 211.957385 
L 195.172212 212.236246 
L 195.00369 212.489365 
L 194.769155 212.838108 
L 194.580142 213.116236 
L 194.392746 213.389458 
L 194.276821 213.557237 
L 194.11855 213.784797 
L 193.9445 214.033067 
L 193.612043 214.50165 
L 193.466668 214.704271 
L 193.198083 215.075053 
L 193.053297 215.273043 
L 192.891297 215.493033 
L 192.601175 215.883011 
L 192.419826 216.12422 
L 192.330074 216.242881 
L 192.153691 216.474714 
L 191.922781 216.77552 
L 191.683768 217.083719 
L 191.45538 217.375266 
L 191.268419 217.611823 
L 191.097374 217.826602 
L 190.911467 218.058294 
L 190.798162 218.198621 
L 190.569233 218.480132 
L 190.408031 218.676762 
L 190.107532 219.039844 
L 190.005143 219.16254 
L 189.816772 219.386943 
L 189.487701 219.774889 
L 189.431013 219.841203 
L 189.17093 220.143535 
L 188.921823 220.430197 
L 188.810082 220.557872 
L 188.500639 220.908534 
L 188.377517 221.046883 
L 188.191716 221.254416 
L 188.05116 221.410424 
L 187.696629 221.800208 
L 187.617118 221.886902 
L 187.336139 222.191171 
L 187.268099 222.264365 
L 187.018539 222.531225 
L 186.761089 222.803913 
L 186.62916 222.942636 
L 186.388702 223.193732 
L 186.254582 223.332815 
L 185.965563 223.630198 
L 185.829769 223.768833 
L 185.600057 224.001788 
L 185.53787 224.064518 
L 185.20247 224.400405 
L 184.991196 224.609899 
L 184.918291 224.681819 
L 184.579501 225.013568 
L 184.478071 225.112109 
L 184.182531 225.397198 
L 183.991506 225.579877 
L 183.940194 225.628737 
L 183.646822 225.906385 
L 183.464672 226.07733 
L 183.320741 226.211632 
L 183.002596 226.506094 
L 182.887178 226.612111 
L 182.787325 226.703487 
L 182.50374 226.961266 
L 182.318908 227.127913 
L 182.151937 227.27754 
L 181.951383 227.456121 
L 181.793807 227.595567 
L 181.565903 227.795911 
L 181.419523 227.923763 
L 181.052639 228.241398 
L 181.02066 228.268896 
L 180.707579 228.536517 
L 180.496954 228.714955 
L 180.417683 228.781781 
L 180.131985 229.021136 
L 179.986858 229.141834 
L 179.696511 229.38153 
L 179.667752 229.405144 
L 179.363516 229.653547 
L 179.23219 229.759986 
L 178.92799 230.004732 
L 178.864726 230.055317 
L 178.557106 230.299754 
L 178.462048 230.374778 
L 178.298618 230.503204 
L 178.068585 230.682777 
L 177.77461 230.910257 
L 177.57365 231.064477 
L 177.354626 231.23138 
L 177.261639 231.301871 
L 176.945449 231.539928 
L 176.890537 231.581016 
L 176.566379 231.822032 
L 176.425102 231.926259 
L 176.292778 232.023437 
L 176.106171 232.159752 
L 175.932613 232.285774 
L 175.637028 232.49873 
L 175.536632 232.570584 
L 175.229437 232.788957 
L 175.078347 232.895543 
L 174.829293 233.070069 
L 174.697087 233.162125 
L 174.539886 233.271059 
L 174.197184 233.506566 
L 174.075568 233.589495 
L 173.926386 233.690763 
L 173.747772 233.811348 
L 173.551917 233.942748 
L 173.214356 234.16721 
L 173.155032 234.206396 
L 172.882571 234.385374 
L 172.752796 234.470051 
L 172.582508 234.580603 
L 172.40412 234.69574 
L 172.189306 234.833475 
L 172.025941 234.937559 
L 171.799972 235.080591 
L 171.480889 235.280719 
L 171.434022 235.309933 
L 171.218566 235.443642 
L 170.871868 235.656768 
L 170.76746 235.720463 
L 170.599791 235.822282 
L 170.370327 235.960691 
L 170.173308 236.078673 
L 169.994161 236.18527 
L 169.722773 236.345519 
L 169.629324 236.400357 
L 169.442718 236.509338 
L 169.2 236.650055 
L 169.2 236.650055 
L 169.324421 236.721737 
L 169.518172 236.832754 
L 169.738662 236.958198 
L 169.950572 237.077866 
L 170.187145 237.210433 
L 170.276513 237.26023 
L 170.558775 237.416504 
L 170.797287 237.547368 
L 170.917643 237.612993 
L 171.142951 237.735107 
L 171.35148 237.847275 
L 171.515498 237.934927 
L 171.723779 238.045509 
L 171.910116 238.143757 
L 172.091429 238.238739 
L 172.330963 238.363292 
L 172.456318 238.428054 
L 172.670423 238.538004 
L 172.984642 238.697855 
L 173.103291 238.75775 
L 173.247675 238.830295 
L 173.512922 238.96259 
L 173.781356 239.095195 
L 173.835116 239.121598 
L 174.136006 239.268429 
L 174.206508 239.302602 
L 174.403252 239.397503 
L 174.692403 239.535746 
L 174.836436 239.604064 
L 175.035139 239.697721 
L 175.204164 239.776852 
L 175.491132 239.91007 
L 175.627056 239.972676 
L 175.921623 240.107269 
L 175.973439 240.130791 
L 176.299428 240.277734 
L 176.482577 240.359502 
L 176.642372 240.430382 
L 176.855951 240.52445 
L 177.10309 240.632348 
L 177.191475 240.670688 
L 177.356333 240.741856 
L 177.656524 240.870289 
L 177.769124 240.91808 
L 178.049585 241.036212 
L 178.10946 241.061265 
L 178.448815 241.202151 
L 178.608823 241.26793 
L 178.868058 241.373621 
L 178.992147 241.423829 
L 179.084674 241.461105 
L 179.422763 241.59614 
L 179.555681 241.648727 
L 179.839617 241.76012 
L 179.889055 241.779384 
L 180.181433 241.892522 
L 180.327987 241.948724 
L 180.533332 242.026903 
L 180.745609 242.107024 
L 180.998775 242.201657 
L 181.109947 242.242897 
L 181.362577 242.335897 
L 181.571791 242.412164 
L 181.735069 242.471216 
L 181.961888 242.552566 
L 182.120473 242.608974 
L 182.326578 242.681708 
L 182.417068 242.713437 
L 182.78201 242.840129 
L 182.852151 242.864247 
L 183.177888 242.975274 
L 183.356842 243.035588 
L 183.513438 243.08797 
L 183.775079 243.174668 
L 183.843556 243.197189 
L 184.112298 243.284897 
L 184.220011 243.319748 
L 184.464313 243.398153 
L 184.655376 243.458854 
L 184.945002 243.549837 
L 185.051058 243.582844 
L 185.233297 243.639173 
L 185.458221 243.708023 
L 185.549165 243.735651 
L 185.800463 243.811362 
L 186.077005 243.893612 
L 186.147343 243.914355 
L 186.467873 244.007969 
L 186.583216 244.041291 
L 186.885065 244.127585 
L 186.991475 244.157692 
L 187.187112 244.21262 
L 187.405027 244.273154 
L 187.632868 244.335718 
L 187.832544 244.389938 
L 187.910207 244.410873 
L 188.204368 244.489388 
L 188.463281 244.557476 
L 188.593209 244.591286 
L 188.719709 244.623975 
L 189.027781 244.702637 
L 189.136681 244.730123 
L 189.375143 244.789727 
L 189.621846 244.850551 
L 189.723924 244.875468 
L 189.848837 244.905761 
L 190.127741 244.972612 
L 190.373795 245.030688 
L 190.572253 245.076917 
L 190.786508 245.126211 
L 190.829002 245.135912 
L 191.168612 245.212545 
L 191.379062 245.259233 
L 191.495825 245.284873 
L 191.613024 245.31042 
L 191.806478 245.352176 
L 192.084999 245.411391 
L 192.378809 245.472704 
L 192.504148 245.498501 
L 192.760622 245.550619 
L 192.967576 245.592021 
L 193.012333 245.600898 
L 193.30324 245.657932 
L 193.40712 245.67802 
L 193.719806 245.737603 
L 193.889739 245.76943 
L 194.022185 245.793965 
L 194.18438 245.823688 
L 194.3628 245.855975 
L 194.684398 245.913089 
L 194.84666 245.941378 
L 195.101402 245.985077 
L 195.153959 245.993985 
L 195.397395 246.034761 
L 195.633013 246.073473 
L 195.772993 246.096121 
L 196.016548 246.134903 
L 196.122245 246.151487 
L 196.393383 246.193351 
L 196.600176 246.224623 
L 196.756688 246.247913 
L 196.965949 246.278547 
L 197.194986 246.311409 
L 197.432851 246.344804 
L 197.627986 246.371642 
L 197.719712 246.384084 
L 198.062427 246.429588 
L 198.178057 246.444592 
L 198.336219 246.46483 
L 198.49495 246.48481 
L 198.805222 246.522908 
L 198.914397 246.536013 
L 199.082506 246.555887 
L 199.351545 246.586923 
L 199.495952 246.60319 
L 199.810581 246.637689 
L 199.919313 246.64931 
L 200.12021 246.670377 
L 200.233986 246.682074 
L 200.537334 246.712436 
L 200.608246 246.71936 
L 200.807693 246.738486 
L 201.12749 246.768071 
L 201.237173 246.777912 
L 201.51134 246.801827 
L 201.746758 246.821584 
L 201.93721 246.837041 
L 202.150021 246.853756 
L 202.18885 246.856743 
L 202.493254 246.879479 
L 202.740111 246.897037 
L 202.884993 246.906975 
L 202.969308 246.912633 
L 203.246439 246.930585 
L 203.394464 246.939766 
L 203.585787 246.951215 
L 203.819383 246.964553 
L 203.96776 246.972659 
L 204.288745 246.989224 
L 204.503636 246.999572 
L 204.634177 247.005568 
L 204.857439 247.015313 
L 205.012983 247.021723 
L 205.239115 247.030488 
L 205.39257 247.03606 
L 205.524013 247.040593 
L 205.700126 247.046317 
L 205.999195 247.055124 
L 206.2249 247.06101 
L 206.446604 247.066154 
L 206.627271 247.069879 
L 206.818967 247.073372 
L 206.995069 247.076166 
L 207.084182 247.077427 
L 207.337959 247.080462 
L 207.620199 247.082865 
L 207.695029 247.083331 
L 207.951083 247.084381 
L 208.142308 247.084615 
z
" clip-path="url(#p299f70cfe0)" style="fill: #808080; opacity: 0.5"/>
   </g>
   <g id="matplotlib.axis_1"/>
   <g id="matplotlib.axis_2"/>
   <g id="line2d_1">
    <path d="M 52.373077 169.2 
L 52.504321 164.680432 
L 52.826087 160.811923 
L 53.344678 156.936169 
L 54.142091 152.694589 
L 55.185308 148.459931 
L 56.392042 144.504271 
L 57.780176 140.686443 
L 59.496824 136.659058 
L 61.187597 133.209233 
L 63.158642 129.655964 
L 65.457486 125.991822 
L 67.684222 122.825716 
L 70.360383 119.417216 
L 73.139968 116.251168 
L 76.089998 113.236849 
L 79.306205 110.29364 
L 82.772727 107.465153 
L 86.259509 104.933577 
L 89.879595 102.59953 
L 93.434922 100.569854 
L 97.23238 98.663895 
L 100.8559 97.078242 
L 104.625052 95.654225 
L 108.554033 94.400505 
L 112.571865 93.349985 
L 116.821982 92.48302 
L 120.694807 91.904693 
L 124.883008 91.501055 
L 129.156008 91.323177 
L 130.257692 91.315385 
L 130.257692 91.315385 
" clip-path="url(#p299f70cfe0)" style="fill: none; stroke: #0000ff; stroke-linecap: square"/>
   </g>
   <g id="line2d_2">
    <path d="M 130.257692 91.315385 
L 134.315102 91.421142 
L 138.4044 91.742628 
L 142.527866 92.287997 
L 146.602937 93.049844 
L 150.797196 94.072494 
L 154.80909 95.286252 
L 158.668722 96.682232 
L 162.408545 98.26104 
L 166.258073 100.134916 
L 169.2 101.749945 
L 169.2 101.749945 
" clip-path="url(#p299f70cfe0)" style="fill: none; stroke: #0000ff; stroke-linecap: square"/>
   </g>
   <g id="line2d_3">
    <path d="M 130.257692 247.084615 
L 134.334178 246.97786 
L 138.487224 246.648616 
L 142.593176 246.101555 
L 146.664738 245.336865 
L 150.822753 244.320514 
L 154.807375 243.114318 
L 158.642344 241.728097 
L 162.354008 240.163651 
L 166.18431 238.303484 
L 169.2 236.650055 
L 169.2 236.650055 
" clip-path="url(#p299f70cfe0)" style="fill: none; stroke: #0000ff; stroke-linecap: square"/>
   </g>
   <g id="line2d_4">
    <path d="M 208.142308 91.315385 
L 212.437727 91.433923 
L 216.512108 91.766417 
L 220.508661 92.303403 
L 224.385954 93.028107 
L 228.538454 94.033448 
L 232.367771 95.178785 
L 236.390872 96.618791 
L 240.383256 98.301942 
L 243.991747 100.056446 
L 247.677278 102.095608 
L 251.29493 104.362785 
L 254.600503 106.688806 
L 258.082284 109.433688 
L 261.417573 112.386626 
L 264.260153 115.192587 
L 267.093447 118.300329 
L 269.534712 121.273118 
L 272.05399 124.688089 
L 274.231251 127.989991 
L 276.540274 131.947731 
L 278.326446 135.433151 
L 279.985929 139.12497 
L 281.465561 142.937597 
L 282.830658 147.116893 
L 283.910938 151.168693 
L 284.790608 155.377865 
L 285.439954 159.656039 
L 285.829396 163.656567 
L 286.014578 167.813317 
L 286.026923 169.2 
L 286.026923 169.2 
" clip-path="url(#p299f70cfe0)" style="fill: none; stroke: #ff0000; stroke-linecap: square"/>
   </g>
   <g id="line2d_5">
    <path d="M 169.2 101.749945 
L 172.694583 99.849642 
L 176.54365 98.013357 
L 180.450711 96.404473 
L 184.213753 95.082272 
L 188.357331 93.870271 
L 192.434648 92.915777 
L 196.626187 92.171484 
L 200.719766 91.669882 
L 204.733289 91.390027 
L 208.142308 91.315385 
L 208.142308 91.315385 
" clip-path="url(#p299f70cfe0)" style="fill: none; stroke: #ff0000; stroke-linecap: square"/>
   </g>
   <g id="line2d_6">
    <path d="M 169.2 236.650055 
L 172.670423 238.538004 
L 176.482577 240.359502 
L 180.327987 241.948724 
L 184.220011 243.319748 
L 188.204368 244.489388 
L 192.378809 245.472704 
L 196.393383 246.193351 
L 200.608246 246.71936 
L 204.857439 247.015313 
L 208.142308 247.084615 
L 208.142308 247.084615 
" clip-path="url(#p299f70cfe0)" style="fill: none; stroke: #ff0000; stroke-linecap: square"/>
   </g>
   <g id="text_1">
    <!-- $\Omega$ -->
    <g transform="translate(17.569231 23.978606) scale(0.1 -0.1)">
     <defs>
      <path id="Cmr10-ad" d="M 494 0 
L 281 1063 
L 469 1063 
Q 503 878 531 736 
Q 559 594 604 536 
Q 650 478 750 459 
Q 850 441 1081 441 
L 1472 441 
Q 1378 803 1004 1386 
Q 631 1969 495 2233 
Q 359 2497 359 2913 
Q 359 3397 646 3761 
Q 934 4125 1389 4319 
Q 1844 4513 2309 4513 
Q 2772 4513 3226 4319 
Q 3681 4125 3968 3758 
Q 4256 3391 4256 2913 
Q 4256 2588 4137 2300 
Q 4019 2013 3834 1725 
Q 3650 1438 3436 1084 
Q 3222 731 3144 441 
L 3531 441 
Q 3766 441 3869 459 
Q 3972 478 4015 536 
Q 4059 594 4086 736 
Q 4113 878 4147 1063 
L 4331 1063 
L 4122 0 
L 2988 0 
Q 2925 0 2925 84 
Q 2925 409 3004 721 
Q 3084 1034 3240 1478 
Q 3397 1922 3484 2261 
Q 3572 2600 3572 2913 
Q 3572 3297 3422 3625 
Q 3272 3953 2984 4150 
Q 2697 4347 2309 4347 
Q 1725 4347 1384 3930 
Q 1044 3513 1044 2913 
Q 1047 2584 1122 2293 
Q 1197 2003 1364 1518 
Q 1531 1034 1611 721 
Q 1691 409 1691 84 
Q 1691 0 1625 0 
L 494 0 
z
" transform="scale(0.015625)"/>
     </defs>
     <use xlink:href="#Cmr10-ad" transform="translate(0 0.484375)"/>
    </g>
   </g>
   <g id="text_2">
    <!-- $A$ -->
    <g style="fill: #0000ff" transform="translate(87.565385 94.07476) scale(0.1 -0.1)">
     <defs>
      <path id="Cmmi10-41" d="M 288 0 
Q 225 0 225 84 
Q 250 225 306 225 
Q 566 225 755 328 
Q 944 431 1081 647 
Q 1094 659 1094 659 
L 3378 4513 
Q 3428 4581 3500 4581 
L 3584 4581 
Q 3603 4581 3622 4573 
Q 3641 4566 3655 4548 
Q 3669 4531 3669 4513 
L 4056 378 
Q 4056 350 4084 294 
Q 4147 225 4563 225 
Q 4628 225 4628 141 
Q 4606 56 4592 28 
Q 4578 0 4519 0 
L 2919 0 
Q 2859 0 2859 84 
Q 2894 225 2944 225 
Q 3450 225 3481 397 
L 3384 1453 
L 1806 1453 
L 1294 594 
Q 1247 525 1247 434 
Q 1247 322 1355 273 
Q 1463 225 1594 225 
Q 1656 225 1656 141 
Q 1634 50 1621 25 
Q 1609 0 1550 0 
L 288 0 
z
M 1931 1678 
L 3359 1678 
L 3169 3750 
L 1931 1678 
z
" transform="scale(0.015625)"/>
     </defs>
     <use xlink:href="#Cmmi10-41" transform="translate(0 0.421875)"/>
    </g>
   </g>
   <g id="text_3">
    <!-- $B$ -->
    <g style="fill: #ff0000" transform="translate(243.284615 94.07476) scale(0.1 -0.1)">
     <defs>
      <path id="Cmmi10-42" d="M 319 0 
Q 256 0 256 84 
Q 259 100 268 137 
Q 278 175 293 200 
Q 309 225 341 225 
Q 522 225 656 234 
Q 791 244 884 269 
Q 959 297 1006 441 
L 1881 3956 
Q 1894 4019 1894 4044 
Q 1894 4113 1819 4122 
Q 1697 4147 1356 4147 
Q 1294 4147 1294 4231 
Q 1297 4247 1306 4286 
Q 1316 4325 1333 4348 
Q 1350 4372 1375 4372 
L 3669 4372 
Q 3878 4372 4083 4320 
Q 4288 4269 4461 4156 
Q 4634 4044 4736 3876 
Q 4838 3709 4838 3488 
Q 4838 3247 4714 3040 
Q 4591 2834 4395 2681 
Q 4200 2528 3973 2429 
Q 3747 2331 3500 2284 
Q 3675 2284 3854 2215 
Q 4034 2147 4175 2028 
Q 4316 1909 4402 1743 
Q 4488 1578 4488 1388 
Q 4488 1003 4219 684 
Q 3950 366 3542 183 
Q 3134 0 2753 0 
L 319 0 
z
M 1497 275 
Q 1497 225 1716 225 
L 2631 225 
Q 2944 225 3231 398 
Q 3519 572 3692 859 
Q 3866 1147 3866 1459 
Q 3866 1650 3786 1820 
Q 3706 1991 3556 2089 
Q 3406 2188 3213 2188 
L 1966 2188 
L 1522 416 
Q 1497 328 1497 275 
z
M 2009 2356 
L 2981 2356 
Q 3288 2356 3577 2512 
Q 3866 2669 4048 2937 
Q 4231 3206 4231 3506 
Q 4231 3784 4057 3965 
Q 3884 4147 3609 4147 
L 2731 4147 
Q 2559 4147 2500 4115 
Q 2441 4084 2400 3928 
L 2009 2356 
z
" transform="scale(0.015625)"/>
     </defs>
     <use xlink:href="#Cmmi10-42" transform="translate(0 0.6875)"/>
    </g>
   </g>
   <g id="patch_10">
    <path d="M 130.257692 247.084615 
C 150.912934 247.084615 170.724971 238.878201 185.330432 224.27274 
C 199.935893 209.667278 208.142308 189.855241 208.142308 169.2 
C 208.142308 148.544759 199.935893 128.732722 185.330432 114.12726 
C 170.724971 99.521799 150.912934 91.315385 130.257692 91.315385 
C 109.602451 91.315385 89.790414 99.521799 75.184953 114.12726 
C 60.579491 128.732722 52.373077 148.544759 52.373077 169.2 
C 52.373077 189.855241 60.579491 209.667278 75.184953 224.27274 
C 89.790414 238.878201 109.602451 247.084615 130.257692 247.084615 
L 130.257692 247.084615 
z
" clip-path="url(#p299f70cfe0)" style="fill: none; stroke: #0000ff; stroke-linejoin: miter"/>
   </g>
   <g id="patch_11">
    <path d="M 208.142308 247.084615 
C 228.797549 247.084615 248.609586 238.878201 263.215047 224.27274 
C 277.820509 209.667278 286.026923 189.855241 286.026923 169.2 
C 286.026923 148.544759 277.820509 128.732722 263.215047 114.12726 
C 248.609586 99.521799 228.797549 91.315385 208.142308 91.315385 
C 187.487066 91.315385 167.675029 99.521799 153.069568 114.12726 
C 138.464107 128.732722 130.257692 148.544759 130.257692 169.2 
C 130.257692 189.855241 138.464107 209.667278 153.069568 224.27274 
C 167.675029 238.878201 187.487066 247.084615 208.142308 247.084615 
L 208.142308 247.084615 
z
" clip-path="url(#p299f70cfe0)" style="fill: none; stroke: #ff0000; stroke-linejoin: miter"/>
   </g>
  </g>
 </g>
 <defs>
  <clipPath id="p299f70cfe0">
   <rect x="7.2" y="7.2" width="324" height="324"/>
  </clipPath>
 </defs>
</svg>
