<?xml version="1.0" encoding="utf-8" standalone="no"?>
<!DOCTYPE svg PUBLIC "-//W3C//DTD SVG 1.1//EN"
  "http://www.w3.org/Graphics/SVG/1.1/DTD/svg11.dtd">
<svg xmlns:xlink="http://www.w3.org/1999/xlink" width="338.4pt" height="338.4pt" viewBox="0 0 338.4 338.4" xmlns="http://www.w3.org/2000/svg" version="1.1">
 <metadata>
  <rdf:RDF xmlns:dc="http://purl.org/dc/elements/1.1/" xmlns:cc="http://creativecommons.org/ns#" xmlns:rdf="http://www.w3.org/1999/02/22-rdf-syntax-ns#">
   <cc:Work>
    <dc:type rdf:resource="http://purl.org/dc/dcmitype/StillImage"/>
    <dc:date>2025-08-24T20:29:26.456466</dc:date>
    <dc:format>image/svg+xml</dc:format>
    <dc:creator>
     <cc:Agent>
      <dc:title>Matplotlib v3.8.0, https://matplotlib.org/</dc:title>
     </cc:Agent>
    </dc:creator>
   </cc:Work>
  </rdf:RDF>
 </metadata>
 <defs>
  <style type="text/css">*{stroke-linejoin: round; stroke-linecap: butt}</style>
 </defs>
 <g id="figure_1">
  <g id="patch_1">
   <path d="M -0 338.4 
L 338.4 338.4 
L 338.4 0 
L -0 0 
z
" style="fill: #ffffff"/>
  </g>
  <g id="axes_1">
   <g id="patch_2">
    <path d="M 7.2 331.2 
L 331.2 331.2 
L 331.2 7.2 
L 7.2 7.2 
z
" style="fill: #ffffff"/>
   </g>
   <g id="patch_3">
    <path d="M 13.430769 324.969231 
L 13.430769 13.430769 
L 324.969231 13.430769 
L 324.969231 324.969231 
L 13.430769 324.969231 
z
" clip-path="url(#p13ab2079df)" style="fill: none; stroke: #000000; stroke-linejoin: miter"/>
   </g>
   <g id="patch_4">
    <path d="M 169.2 169.2 
L 169.2 101.749945 
L 169.364128 101.84497 
L 169.602219 101.98377 
L 169.722087 102.054078 
L 170.015814 102.22758 
L 170.147531 102.305949 
L 170.308719 102.402331 
L 170.634918 102.599002 
L 170.700995 102.639106 
L 170.969139 102.802776 
L 171.135344 102.90497 
L 171.28029 102.994564 
L 171.566977 103.173064 
L 171.703223 103.258501 
L 171.98371 103.435627 
L 172.209484 103.579421 
L 172.28989 103.630894 
L 172.545213 103.795269 
L 172.786431 103.951861 
L 172.910676 104.033012 
L 173.145983 104.187633 
L 173.389977 104.349253 
L 173.408753 104.361745 
L 173.653779 104.525484 
L 173.798849 104.623061 
L 174.082955 104.815532 
L 174.216955 104.906948 
L 174.477033 105.085546 
L 174.677725 105.224427 
L 174.965332 105.425081 
L 175.055118 105.488117 
L 175.278264 105.645602 
L 175.543441 105.834281 
L 175.740117 105.975302 
L 175.898823 106.089775 
L 176.021896 106.178964 
L 176.207849 106.314418 
L 176.430169 106.47747 
L 176.646394 106.637218 
L 176.855729 106.792979 
L 177.017299 106.913946 
L 177.21044 107.059411 
L 177.400316 107.203336 
L 177.655541 107.398243 
L 177.867197 107.561145 
L 177.990046 107.656229 
L 178.152504 107.782573 
L 178.381559 107.961885 
L 178.630478 108.158318 
L 178.830933 108.317707 
L 179.017563 108.467074 
L 179.164654 108.585461 
L 179.396167 108.77299 
L 179.518727 108.872861 
L 179.714651 109.033377 
L 179.982246 109.25434 
L 180.24597 109.474081 
L 180.317992 109.534434 
L 180.569451 109.746318 
L 180.728926 109.88164 
L 181.03366 110.142279 
L 181.142594 110.236112 
L 181.415503 110.472734 
L 181.508226 110.553635 
L 181.706109 110.727154 
L 181.91943 110.915541 
L 182.070164 111.049496 
L 182.371413 111.319317 
L 182.450827 111.390918 
L 182.723731 111.638484 
L 182.950221 111.845744 
L 183.181558 112.059141 
L 183.27225 112.143274 
L 183.400166 112.262395 
L 183.678162 112.523138 
L 183.867707 112.702392 
L 184.081279 112.905819 
L 184.333778 113.148325 
L 184.387667 113.200364 
L 184.613644 113.419682 
L 184.775575 113.577938 
L 185.075734 113.873735 
L 185.255939 114.052868 
L 185.433852 114.230875 
L 185.721939 114.52157 
L 185.908767 114.711733 
L 186.067464 114.87429 
L 186.285925 115.099627 
L 186.432067 115.251386 
L 186.64221 115.471055 
L 186.820965 115.659273 
L 187.093952 115.949151 
L 187.268719 116.1363 
L 187.449566 116.331267 
L 187.499071 116.384871 
L 187.839654 116.756401 
L 188.006712 116.940416 
L 188.091145 117.03387 
L 188.343197 117.31467 
L 188.52212 117.515671 
L 188.694243 117.710362 
L 188.90765 117.953577 
L 189.126044 118.204603 
L 189.291324 118.396027 
L 189.622654 118.783588 
L 189.839867 119.040477 
L 190.00705 119.23974 
L 190.188045 119.456999 
L 190.237041 119.516089 
L 190.513078 119.851223 
L 190.70216 120.083001 
L 190.960096 120.402137 
L 191.082901 120.555295 
L 191.390958 120.943009 
L 191.494441 121.074395 
L 191.743344 121.392804 
L 191.979075 121.697535 
L 192.100811 121.85613 
L 192.19994 121.9859 
L 192.395959 122.244179 
L 192.628212 122.553118 
L 192.889905 122.905084 
L 193.109225 123.203281 
L 193.321974 123.495408 
L 193.46791 123.697454 
L 193.650783 123.952577 
L 193.911334 124.319857 
L 194.02658 124.483758 
L 194.16168 124.677044 
L 194.492023 125.154977 
L 194.644533 125.378224 
L 194.761042 125.5499 
L 194.966536 125.855117 
L 195.212245 126.2242 
L 195.404999 126.516962 
L 195.618386 126.844445 
L 195.740834 127.034 
L 196.027924 127.483218 
L 196.160068 127.692287 
L 196.463791 128.178472 
L 196.684922 128.53753 
L 196.717079 128.590109 
L 197.0007 129.05795 
L 197.248016 129.472052 
L 197.290764 129.544224 
L 197.630335 130.123915 
L 197.763256 130.353994 
L 198.011053 130.787822 
L 198.256615 131.22422 
L 198.34976 131.391488 
L 198.549899 131.754201 
L 198.683177 131.998302 
L 199.033973 132.650903 
L 199.215231 132.994044 
L 199.426167 133.398667 
L 199.477141 133.497321 
L 199.700023 133.93279 
L 199.839502 134.208787 
L 200.160334 134.854199 
L 200.349087 135.241058 
L 200.448771 135.447582 
L 200.672855 135.9176 
L 200.914256 136.433197 
L 201.01313 136.647252 
L 201.297085 137.271674 
L 201.438788 137.588849 
L 201.579631 137.907919 
L 201.720475 138.230918 
L 201.810339 138.439116 
L 202.076302 139.065292 
L 202.208477 139.382256 
L 202.340653 139.703219 
L 202.442048 139.952229 
L 202.574786 140.28199 
L 202.707524 140.616172 
L 202.858558 141.001992 
L 202.985016 141.32977 
L 203.131949 141.716259 
L 203.278882 142.109058 
L 203.408583 142.461254 
L 203.576273 142.924555 
L 203.733343 143.367035 
L 203.890413 143.8182 
L 204.08742 144.397083 
L 204.251508 144.890976 
L 204.345195 145.178026 
L 204.442099 145.478974 
L 204.539003 145.78419 
L 204.643179 146.117264 
L 204.747355 146.455692 
L 204.859665 146.826825 
L 204.971976 147.204792 
L 205.098664 147.639797 
L 205.225351 148.084522 
L 205.35566 148.552757 
L 205.489102 149.044399 
L 205.622545 149.549242 
L 205.712484 149.89747 
L 205.802424 150.252523 
L 205.868986 150.519915 
L 205.935548 150.791431 
L 206.002111 151.067257 
L 206.068673 151.347592 
L 206.096827 151.467574 
L 206.196439 151.899132 
L 206.296051 152.342322 
L 206.382974 152.739293 
L 206.469896 153.146548 
L 206.556819 153.56489 
L 206.643741 153.995235 
L 206.700352 154.282456 
L 206.756963 154.575536 
L 206.813574 154.874835 
L 206.870184 155.180751 
L 206.916606 155.436849 
L 206.963027 155.697965 
L 207.031898 156.095245 
L 207.10077 156.505325 
L 207.169641 156.929488 
L 207.204077 157.147314 
L 207.238512 157.36925 
L 207.277769 157.627571 
L 207.317025 157.891927 
L 207.356282 158.162753 
L 207.395538 158.440536 
L 207.424023 158.64677 
L 207.452509 158.857193 
L 207.480994 159.072068 
L 207.509479 159.291683 
L 207.537964 159.516361 
L 207.56645 159.746464 
L 207.594935 159.982396 
L 207.62342 160.224619 
L 207.661161 160.556137 
L 207.698902 160.901059 
L 207.731112 161.207348 
L 207.763323 161.525987 
L 207.795534 161.858584 
L 207.81164 162.03072 
L 207.827745 162.20713 
L 207.843851 162.388145 
L 207.859956 162.574142 
L 207.876061 162.765554 
L 207.892167 162.962879 
L 207.908272 163.166697 
L 207.924378 163.37769 
L 207.940483 163.596669 
L 207.956589 163.824609 
L 207.968196 163.995106 
L 207.979803 164.171407 
L 207.991411 164.354146 
L 208.003018 164.54408 
L 208.014626 164.74213 
L 208.026233 164.949429 
L 208.037841 165.167404 
L 208.049448 165.39789 
L 208.055252 165.518555 
L 208.061056 165.64332 
L 208.066859 165.772633 
L 208.072663 165.907031 
L 208.078467 166.047163 
L 208.08427 166.193832 
L 208.090074 166.348046 
L 208.095878 166.511102 
L 208.101682 166.684719 
L 208.107485 166.871259 
L 208.113289 167.07412 
L 208.119093 167.29852 
L 208.124897 167.553239 
L 208.1307 167.855401 
L 208.136504 168.249207 
L 208.142308 169.2 
L 208.142308 169.2 
z
" clip-path="url(#p13ab2079df)" style="fill: #808080; opacity: 0.5"/>
   </g>
   <g id="patch_5">
    <path d="M 169.2 169.2 
L 169.2 236.650055 
L 169.466025 236.495765 
L 169.661214 236.381662 
L 169.857228 236.266311 
L 170.000331 236.181609 
L 170.244509 236.036126 
L 170.467752 235.902057 
L 170.595161 235.825085 
L 170.685386 235.770375 
L 170.979768 235.590706 
L 171.1424 235.490678 
L 171.341544 235.367442 
L 171.560796 235.230803 
L 171.672432 235.160842 
L 171.902813 235.015631 
L 172.147461 234.86019 
L 172.288448 234.770031 
L 172.530397 234.614309 
L 172.684787 234.514278 
L 172.917199 234.362718 
L 173.051315 234.27472 
L 173.257375 234.138745 
L 173.459645 234.004356 
L 173.673775 233.861094 
L 173.832305 233.754368 
L 173.999794 233.640995 
L 174.271519 233.455711 
L 174.504405 233.295567 
L 174.701081 233.159351 
L 174.925266 233.002987 
L 175.080849 232.893783 
L 175.24645 232.776922 
L 175.426667 232.649011 
L 175.746902 232.419816 
L 175.775846 232.39898 
L 176.026212 232.217901 
L 176.153707 232.125108 
L 176.391498 231.950978 
L 176.554857 231.83055 
L 176.792605 231.654105 
L 177.098183 231.42525 
L 177.221512 231.332222 
L 177.391396 231.203445 
L 177.655452 231.001826 
L 177.88212 230.827325 
L 178.004737 230.732374 
L 178.162155 230.609899 
L 178.30975 230.494478 
L 178.63466 230.238367 
L 178.878792 230.04408 
L 178.955961 229.982333 
L 179.199672 229.786269 
L 179.380529 229.639724 
L 179.539817 229.509912 
L 179.688867 229.387808 
L 179.869744 229.238801 
L 180.111526 229.038186 
L 180.451897 228.75296 
L 180.598793 228.628839 
L 180.82561 228.435961 
L 180.863695 228.403427 
L 181.103006 228.198028 
L 181.272039 228.051931 
L 181.605178 227.761498 
L 181.703747 227.674925 
L 181.837238 227.557209 
L 182.136741 227.291115 
L 182.399595 227.055296 
L 182.489794 226.973877 
L 182.670563 226.809932 
L 182.810557 226.682255 
L 183.178307 226.34387 
L 183.274293 226.254827 
L 183.469335 226.072967 
L 183.686519 225.868984 
L 183.8225 225.74047 
L 184.081083 225.494368 
L 184.282932 225.300684 
L 184.441292 225.147751 
L 184.630256 224.964125 
L 184.877885 224.721598 
L 185.137499 224.464999 
L 185.332624 224.270548 
L 185.44419 224.158746 
L 185.547415 224.054898 
L 185.860302 223.737722 
L 186.121049 223.470606 
L 186.20553 223.383511 
L 186.442073 223.138193 
L 186.581941 222.992122 
L 186.751086 222.814455 
L 187.045249 222.502784 
L 187.131089 222.411184 
L 187.345946 222.180606 
L 187.669847 221.829439 
L 187.807736 221.678623 
L 188.023653 221.440856 
L 188.139371 221.312614 
L 188.435412 220.98191 
L 188.515725 220.891536 
L 188.693899 220.690029 
L 188.883017 220.4746 
L 189.203207 220.106184 
L 189.371083 219.911147 
L 189.516057 219.741661 
L 189.809478 219.395599 
L 190.036662 219.124824 
L 190.215604 218.909779 
L 190.376349 218.715255 
L 190.621849 218.415667 
L 190.732231 218.27997 
L 190.944303 218.017503 
L 191.105125 217.816903 
L 191.327399 217.5374 
L 191.426902 217.411421 
L 191.631138 217.151157 
L 191.992625 216.684855 
L 192.06752 216.587324 
L 192.342466 216.226527 
L 192.468709 216.059393 
L 192.753547 215.678828 
L 192.836333 215.567306 
L 193.1606 215.126436 
L 193.298508 214.936953 
L 193.413377 214.778205 
L 193.678407 214.408697 
L 193.760876 214.292781 
L 193.983387 213.977775 
L 194.321544 213.49262 
L 194.483553 213.257372 
L 194.65907 213.00041 
L 194.90644 212.634465 
L 195.073843 212.384256 
L 195.212021 212.176139 
L 195.326431 212.002717 
L 195.576783 211.619685 
L 195.808014 211.261486 
L 195.914912 211.094425 
L 196.123525 210.765676 
L 196.320269 210.452265 
L 196.668157 209.889845 
L 196.770369 209.722551 
L 197.053037 209.254902 
L 197.258924 208.909548 
L 197.351079 208.753645 
L 197.504876 208.491597 
L 197.746896 208.074422 
L 197.923461 207.766269 
L 198.251854 207.184303 
L 198.442453 206.841091 
L 198.589189 206.574053 
L 198.656034 206.451579 
L 198.839637 206.112467 
L 199.023239 205.769288 
L 199.191577 205.45097 
L 199.354873 205.138739 
L 199.522037 204.8155 
L 199.823519 204.22298 
L 199.833694 204.202762 
L 200.022325 203.82527 
L 200.210956 203.442578 
L 200.345911 203.165497 
L 200.531064 202.780746 
L 200.794236 202.224374 
L 200.912869 201.969793 
L 201.08479 201.596536 
L 201.219454 201.300493 
L 201.462739 200.757165 
L 201.726777 200.154534 
L 201.94979 199.634461 
L 201.980725 199.561487 
L 202.168388 199.114298 
L 202.35605 198.659126 
L 202.427709 198.483135 
L 202.568156 198.134584 
L 202.696065 197.812855 
L 202.823974 197.486888 
L 202.976712 197.091888 
L 203.12945 196.690366 
L 203.202282 196.496522 
L 203.348376 196.102886 
L 203.49447 195.702599 
L 203.666287 195.222903 
L 203.74173 195.009097 
L 203.87954 194.61332 
L 204.01735 194.210521 
L 204.159504 193.787304 
L 204.301658 193.355838 
L 204.345509 193.221006 
L 204.502743 192.730528 
L 204.659977 192.228532 
L 204.767313 191.87884 
L 204.874648 191.523155 
L 204.991459 191.128917 
L 205.108271 190.726826 
L 205.206831 190.381121 
L 205.322727 189.966653 
L 205.404529 189.668666 
L 205.48633 189.365946 
L 205.568132 189.058274 
L 205.649933 188.745418 
L 205.71445 188.494846 
L 205.804718 188.138328 
L 205.894986 187.77453 
L 205.980518 187.422707 
L 206.066049 187.063547 
L 206.151581 186.696597 
L 206.237113 186.321358 
L 206.319099 185.953381 
L 206.401084 185.576728 
L 206.497451 185.122076 
L 206.586607 184.689029 
L 206.675764 184.242994 
L 206.76492 183.782778 
L 206.809498 183.546927 
L 206.854076 183.306993 
L 206.918585 182.95212 
L 206.983094 182.587532 
L 207.024271 182.349359 
L 207.065449 182.10666 
L 207.106626 181.859175 
L 207.147803 181.606617 
L 207.206694 181.235967 
L 207.265584 180.853237 
L 207.298883 180.631022 
L 207.332182 180.404301 
L 207.365481 180.172797 
L 207.39878 179.936198 
L 207.432079 179.69416 
L 207.465378 179.446299 
L 207.498677 179.19218 
L 207.531975 178.931314 
L 207.567487 178.645047 
L 207.602999 178.34969 
L 207.638511 178.044332 
L 207.674023 177.7279 
L 207.709535 177.399111 
L 207.745047 177.056414 
L 207.762803 176.879271 
L 207.780558 176.697902 
L 207.798314 176.511993 
L 207.81607 176.321188 
L 207.841521 176.038342 
L 207.866971 175.743181 
L 207.892421 175.433957 
L 207.905146 175.273405 
L 207.917871 175.108463 
L 207.931898 174.921103 
L 207.945926 174.72736 
L 207.959953 174.526537 
L 207.97398 174.317802 
L 207.988008 174.100143 
L 208.002035 173.872314 
L 208.016062 173.632746 
L 208.030089 173.379421 
L 208.037103 173.246798 
L 208.044117 173.109667 
L 208.05113 172.967534 
L 208.058144 172.819811 
L 208.065158 172.665783 
L 208.072171 172.504569 
L 208.079185 172.33506 
L 208.086199 172.15583 
L 208.093212 171.964988 
L 208.100226 171.759939 
L 208.107239 171.536946 
L 208.114253 171.290275 
L 208.121267 171.010272 
L 208.12828 170.678115 
L 208.135294 170.245208 
L 208.142308 169.2 
L 208.142308 169.2 
z
" clip-path="url(#p13ab2079df)" style="fill: #808080; opacity: 0.5"/>
   </g>
   <g id="patch_6">
    <path d="M 130.257692 169.2 
L 130.257692 169.2 
L 130.265863 168.071863 
L 130.274034 167.604615 
L 130.282205 167.246112 
L 130.290376 166.943904 
L 130.298546 166.677674 
L 130.306717 166.437003 
L 130.314888 166.2157 
L 130.323059 166.009733 
L 130.33123 165.816299 
L 130.3394 165.63336 
L 130.347571 165.459375 
L 130.355742 165.293147 
L 130.363913 165.133725 
L 130.372084 164.980338 
L 130.380254 164.832349 
L 130.388425 164.689228 
L 130.396596 164.550525 
L 130.404767 164.415855 
L 130.421108 164.157333 
L 130.43745 163.911484 
L 130.453792 163.676615 
L 130.470133 163.451381 
L 130.486475 163.23469 
L 130.502816 163.025641 
L 130.519158 162.823485 
L 130.54299 162.539728 
L 130.566822 162.267658 
L 130.590654 162.005949 
L 130.614486 161.753508 
L 130.634841 161.544545 
L 130.655197 161.341189 
L 130.675552 161.143015 
L 130.695907 160.94965 
L 130.716262 160.760764 
L 130.736617 160.576062 
L 130.777327 160.218183 
L 130.818499 159.870375 
L 130.859671 159.535251 
L 130.900843 159.211533 
L 130.942015 158.898148 
L 130.983187 158.594178 
L 131.02436 158.298836 
L 131.065532 158.011439 
L 131.106704 157.731389 
L 131.154805 157.412814 
L 131.191446 157.175931 
L 131.228087 156.943735 
L 131.264729 156.715964 
L 131.30137 156.49238 
L 131.374652 156.056925 
L 131.447935 155.635838 
L 131.513599 155.269665 
L 131.579262 154.913175 
L 131.644926 154.565661 
L 131.710589 154.226498 
L 131.783272 153.860151 
L 131.855954 153.502688 
L 131.956194 153.023183 
L 132.056434 152.558093 
L 132.117038 152.283389 
L 132.177643 152.013289 
L 132.238248 151.74758 
L 132.298852 151.486063 
L 132.352582 151.257569 
L 132.475246 150.747111 
L 132.59791 150.251193 
L 132.722247 149.762208 
L 132.846584 149.286003 
L 132.961745 148.855559 
L 133.037048 148.579301 
L 133.11235 148.306967 
L 133.262956 147.773474 
L 133.410044 147.26596 
L 133.545354 146.810096 
L 133.680664 146.364131 
L 133.699073 146.30419 
L 133.840721 145.848607 
L 133.98237 145.402586 
L 134.087172 145.07843 
L 134.191974 144.759022 
L 134.335309 144.329531 
L 134.43774 144.027595 
L 134.540171 143.729649 
L 134.667654 143.364201 
L 134.795136 143.00447 
L 135.012291 142.404218 
L 135.088378 142.197469 
L 135.26739 141.718011 
L 135.396317 141.378531 
L 135.525244 141.043733 
L 135.67034 140.672343 
L 135.815436 140.306455 
L 135.888981 140.123032 
L 136.04318 139.742758 
L 136.19738 139.368127 
L 136.270075 139.19341 
L 136.48836 138.675828 
L 136.628216 138.349587 
L 136.776556 138.007968 
L 136.924897 137.670748 
L 137.152221 137.162197 
L 137.307947 136.819348 
L 137.461052 136.486496 
L 137.677793 136.022213 
L 137.86973 135.617591 
L 138.177231 134.981564 
L 138.366524 134.597206 
L 138.551382 134.226919 
L 138.580953 134.168139 
L 138.846119 133.646498 
L 139.088113 133.178735 
L 139.236089 132.896469 
L 139.403562 132.580358 
L 139.586078 132.239795 
L 139.813339 131.821325 
L 140.039387 131.41104 
L 140.286128 130.969748 
L 140.372104 130.817545 
L 140.651719 130.327983 
L 140.891282 129.91498 
L 140.969875 129.780745 
L 141.198098 129.394396 
L 141.442992 128.985393 
L 141.620506 128.69243 
L 141.892705 128.248767 
L 141.993581 128.086021 
L 142.198451 127.758221 
L 142.358186 127.505124 
L 142.658952 127.034333 
L 142.803303 126.810994 
L 142.926782 126.621267 
L 143.075705 126.394036 
L 143.318006 126.02798 
L 143.518826 125.727952 
L 143.781824 125.339523 
L 143.880951 125.194417 
L 144.081004 124.903695 
L 144.40321 124.441305 
L 144.531628 124.258986 
L 144.703587 124.016573 
L 144.924844 123.707521 
L 145.163595 123.37757 
L 145.343867 123.130822 
L 145.42836 123.015868 
L 145.674517 122.68346 
L 145.953157 122.311592 
L 146.169874 122.025529 
L 146.227523 121.949891 
L 146.426343 121.690495 
L 146.634883 121.42082 
L 146.846015 121.150257 
L 147.0366 120.908119 
L 147.332737 120.535748 
L 147.396675 120.455961 
L 147.755615 120.011987 
L 147.905253 119.828849 
L 148.131496 119.554096 
L 148.188028 119.48584 
L 148.486137 119.128505 
L 148.638119 118.947986 
L 148.752087 118.813345 
L 149.075935 118.434097 
L 149.265677 118.214162 
L 149.49777 117.947375 
L 149.544486 117.893971 
L 149.837767 117.560928 
L 150.025609 117.349613 
L 150.291648 117.052953 
L 150.35397 116.983897 
L 150.706086 116.596827 
L 150.899364 116.386567 
L 150.951856 116.329729 
L 151.180899 116.083042 
L 151.347037 115.905436 
L 151.596933 115.64037 
L 151.773859 115.454197 
L 152.025341 115.191674 
L 152.108741 115.105151 
L 152.351826 114.85448 
L 152.469629 114.733807 
L 152.685233 114.514296 
L 153.027844 114.169016 
L 153.148446 114.048495 
L 153.432303 113.766898 
L 153.493736 113.706335 
L 153.817888 113.388973 
L 153.894216 113.31478 
L 154.130502 113.086382 
L 154.367519 112.859203 
L 154.426629 112.802844 
L 154.695037 112.548411 
L 154.987195 112.274195 
L 155.084305 112.183672 
L 155.237407 112.041582 
L 155.525418 111.776345 
L 155.764848 111.557871 
L 155.798393 111.527407 
L 156.178643 111.184563 
L 156.192804 111.171883 
L 156.408004 110.979942 
L 156.680184 110.739217 
L 156.955779 110.497763 
L 157.125853 110.349897 
L 157.34832 110.157776 
L 157.418306 110.09764 
L 157.586749 109.953491 
L 157.770404 109.797267 
L 158.025528 109.581868 
L 158.278266 109.370319 
L 158.39314 109.274767 
L 158.546698 109.147616 
L 158.838094 108.908144 
L 158.958967 108.809502 
L 159.246836 108.576191 
L 159.458451 108.406124 
L 159.680626 108.22887 
L 159.711796 108.204108 
L 159.909517 108.04764 
L 160.196882 107.822076 
L 160.445358 107.628787 
L 160.564261 107.536861 
L 160.713291 107.422159 
L 160.90694 107.273969 
L 161.175973 107.06968 
L 161.413869 106.89056 
L 161.538239 106.797483 
L 161.828449 106.581793 
L 161.96955 106.477677 
L 162.235427 106.282819 
L 162.332168 106.212347 
L 162.57029 106.03985 
L 162.803895 105.871952 
L 163.01535 105.721098 
L 163.151972 105.624195 
L 163.301338 105.518757 
L 163.61288 105.300521 
L 163.729651 105.219306 
L 163.849148 105.136521 
L 164.048776 104.998958 
L 164.368524 104.780522 
L 164.507474 104.686323 
L 164.754269 104.520085 
L 164.957561 104.384176 
L 165.026879 104.338045 
L 165.334911 104.13434 
L 165.539412 104.000256 
L 165.770919 103.84957 
L 165.862809 103.790082 
L 166.153755 103.602937 
L 166.217805 103.561982 
L 166.530317 103.363418 
L 166.746182 103.227475 
L 166.82853 103.175875 
L 167.103813 103.004417 
L 167.191533 102.950114 
L 167.381764 102.832904 
L 167.610108 102.693203 
L 167.755724 102.604676 
L 167.961345 102.480411 
L 168.145229 102.370014 
L 168.319753 102.265872 
L 168.708934 102.035855 
L 168.889418 101.930215 
L 169.045922 101.839137 
L 169.2 101.749945 
L 169.2 169.2 
z
" clip-path="url(#p13ab2079df)" style="fill: #808080; opacity: 0.5"/>
   </g>
   <g id="patch_7">
    <path d="M 130.257692 169.2 
L 130.257692 169.2 
L 130.2615 169.970136 
L 130.265308 170.289124 
L 130.269115 170.533883 
L 130.272923 170.740216 
L 130.276731 170.921993 
L 130.280539 171.086326 
L 130.284346 171.23744 
L 130.288154 171.378088 
L 130.291962 171.510183 
L 130.295769 171.635117 
L 130.299577 171.753941 
L 130.303385 171.867472 
L 130.307193 171.976359 
L 130.311 172.081128 
L 130.318616 172.279981 
L 130.326231 172.466733 
L 130.333847 172.643355 
L 130.341462 172.811332 
L 130.349077 172.971821 
L 130.356693 173.12574 
L 130.364308 173.273833 
L 130.371924 173.416715 
L 130.379539 173.554898 
L 130.391028 173.755425 
L 130.402518 173.947461 
L 130.414007 174.131999 
L 130.425497 174.309851 
L 130.436986 174.481693 
L 130.448475 174.648093 
L 130.459965 174.809535 
L 130.471454 174.966437 
L 130.494433 175.268016 
L 130.517411 175.555217 
L 130.54039 175.829909 
L 130.563369 176.093588 
L 130.585396 176.337145 
L 130.607424 176.572595 
L 130.629452 176.800691 
L 130.65148 177.022076 
L 130.673507 177.237306 
L 130.695535 177.446861 
L 130.717563 177.651165 
L 130.73959 177.850588 
L 130.761618 178.045462 
L 130.783646 178.236081 
L 130.827701 178.605581 
L 130.871757 178.960905 
L 130.915812 179.303549 
L 130.959455 179.631708 
L 131.003097 179.949676 
L 131.04674 180.258334 
L 131.090383 180.558439 
L 131.138101 180.877564 
L 131.18582 181.188007 
L 131.233539 181.490426 
L 131.281257 181.785399 
L 131.337234 182.122613 
L 131.39321 182.451013 
L 131.449186 182.771237 
L 131.505163 183.083852 
L 131.568061 183.426667 
L 131.630959 183.761143 
L 131.708522 184.162943 
L 131.786084 184.55384 
L 131.844268 184.840412 
L 131.902452 185.121614 
L 131.960637 185.397725 
L 132.018821 185.669003 
L 132.077141 185.936301 
L 132.135462 186.199197 
L 132.19323 186.455462 
L 132.250999 186.707786 
L 132.366536 187.201271 
L 132.457205 187.578753 
L 132.547874 187.948198 
L 132.633301 188.289348 
L 132.718728 188.624131 
L 132.804004 188.952298 
L 132.88928 189.274738 
L 132.974556 189.591724 
L 133.059832 189.903506 
L 133.169815 190.298308 
L 133.279797 190.685294 
L 133.327323 190.850203 
L 133.479143 191.368111 
L 133.630963 191.873175 
L 133.762419 192.300768 
L 133.885676 192.693957 
L 134.008934 193.080037 
L 134.183544 193.615457 
L 134.29414 193.947958 
L 134.404736 194.275562 
L 134.493032 194.533721 
L 134.6608 195.0163 
L 134.828569 195.488952 
L 134.945002 195.811422 
L 135.124425 196.299854 
L 135.245334 196.623429 
L 135.366242 196.942704 
L 135.536274 197.384698 
L 135.69245 197.783762 
L 135.910748 198.331 
L 136.044721 198.661014 
L 136.178694 198.986769 
L 136.420587 199.564586 
L 136.51722 199.791832 
L 136.672875 200.153733 
L 136.868858 200.602367 
L 137.022594 200.94901 
L 137.173424 201.284745 
L 137.324254 201.616302 
L 137.452523 201.89507 
L 137.664122 202.348735 
L 137.913435 202.873711 
L 138.012936 203.080444 
L 138.316629 203.702 
L 138.500224 204.071098 
L 138.61195 204.293342 
L 138.898758 204.855913 
L 139.082685 205.210857 
L 139.201774 205.438324 
L 139.389494 205.793222 
L 139.712425 206.393607 
L 139.942993 206.814715 
L 140.095497 207.089904 
L 140.187412 207.254506 
L 140.394452 207.621887 
L 140.704645 208.163765 
L 140.893763 208.489267 
L 140.96277 208.607145 
L 141.195472 209.001186 
L 141.317752 209.206151 
L 141.573117 209.629645 
L 141.784071 209.974965 
L 141.986991 210.303374 
L 142.201672 210.646905 
L 142.333407 210.855755 
L 142.574033 211.233494 
L 142.740246 211.49165 
L 142.962943 211.834067 
L 143.262536 212.288613 
L 143.36629 212.444431 
L 143.525692 212.682252 
L 143.824652 213.123256 
L 144.026372 213.417192 
L 144.139863 213.581307 
L 144.386575 213.934995 
L 144.518284 214.122121 
L 144.694619 214.370833 
L 145.019264 214.823401 
L 145.178557 215.042986 
L 145.259065 215.153358 
L 145.541279 215.537076 
L 145.656497 215.69233 
L 145.830321 215.925043 
L 146.078257 216.253873 
L 146.284973 216.525295 
L 146.578751 216.906832 
L 146.751542 217.128981 
L 146.858309 217.265423 
L 147.138688 217.620777 
L 147.353639 217.890359 
L 147.399763 217.947888 
L 147.619332 218.220228 
L 147.903038 218.568448 
L 148.064471 218.764775 
L 148.23898 218.975542 
L 148.461908 219.242613 
L 148.749756 219.583907 
L 148.830331 219.678736 
L 149.001539 219.879215 
L 149.155544 220.058382 
L 149.44172 220.388419 
L 149.603843 220.573743 
L 149.889516 220.897443 
L 150.052334 221.080327 
L 150.13178 221.169144 
L 150.394218 221.460611 
L 150.529492 221.609701 
L 150.828574 221.936602 
L 151.074566 222.2027 
L 151.133717 222.266316 
L 151.383862 222.533781 
L 151.675244 222.842185 
L 151.784249 222.956698 
L 152.064209 223.248683 
L 152.236574 223.426951 
L 152.407918 223.603043 
L 152.574906 223.773594 
L 152.771849 223.973402 
L 152.9939 224.196968 
L 153.203082 224.405931 
L 153.290254 224.492545 
L 153.64154 224.838832 
L 153.803284 224.996808 
L 153.939009 225.128666 
L 154.148334 225.330777 
L 154.242042 225.420768 
L 154.531221 225.696591 
L 154.69573 225.852243 
L 154.84659 225.994188 
L 155.161491 226.288058 
L 155.303847 226.419843 
L 155.460493 226.564098 
L 155.731277 226.811606 
L 155.895785 226.960836 
L 156.054647 227.104135 
L 156.364182 227.381088 
L 156.407456 227.419571 
L 156.60085 227.59085 
L 156.904283 227.857294 
L 157.088212 228.017452 
L 157.181467 228.098269 
L 157.391098 228.278998 
L 157.605891 228.462837 
L 157.799911 228.627741 
L 158.060618 228.847612 
L 158.234302 228.993012 
L 158.391211 229.123632 
L 158.666506 229.351129 
L 158.743798 229.414621 
L 159.099366 229.704572 
L 159.219501 229.801751 
L 159.472335 230.004992 
L 159.706531 230.191711 
L 159.732576 230.212386 
L 159.915103 230.356766 
L 160.158256 230.547731 
L 160.369001 230.711987 
L 160.616749 230.903602 
L 160.710856 230.975972 
L 161.023741 231.21495 
L 161.21553 231.360203 
L 161.466008 231.548507 
L 161.64059 231.678825 
L 161.707065 231.728246 
L 161.915611 231.88258 
L 162.184064 232.079672 
L 162.305219 232.168044 
L 162.494674 232.305522 
L 162.751387 232.490423 
L 162.886203 232.586894 
L 163.160151 232.781593 
L 163.298333 232.879127 
L 163.483497 233.009121 
L 163.772507 233.210422 
L 163.834052 233.253039 
L 164.187283 233.49595 
L 164.275669 233.556284 
L 164.585295 233.766245 
L 164.719634 233.856668 
L 164.981503 234.031769 
L 165.181879 234.164721 
L 165.280686 234.229952 
L 165.536976 234.398152 
L 165.623159 234.454389 
L 165.786935 234.560812 
L 166.075768 234.747079 
L 166.305201 234.893758 
L 166.507628 235.022236 
L 166.668661 235.123819 
L 166.760243 235.181346 
L 167.083231 235.382819 
L 167.259629 235.491929 
L 167.380965 235.566605 
L 167.676867 235.747438 
L 167.760318 235.79811 
L 168.008333 235.947864 
L 168.285357 236.113652 
L 168.442357 236.206919 
L 168.606409 236.303845 
L 168.804048 236.419897 
L 168.913944 236.48409 
L 169.2 236.650055 
L 169.2 169.2 
z
" clip-path="url(#p13ab2079df)" style="fill: #808080; opacity: 0.5"/>
   </g>
   <g id="matplotlib.axis_1"/>
   <g id="matplotlib.axis_2"/>
   <g id="line2d_1">
    <path d="M 169.2 101.749945 
L 172.786431 103.951861 
L 176.207849 106.314418 
L 179.518727 108.872861 
L 182.723731 111.638484 
L 185.721939 114.52157 
L 188.52212 117.515671 
L 191.082901 120.555295 
L 193.650783 123.952577 
L 196.027924 127.483218 
L 198.011053 130.787822 
L 199.839502 134.208787 
L 201.720475 138.230918 
L 203.278882 142.109058 
L 204.643179 146.117264 
L 205.802424 150.252523 
L 206.700352 154.282456 
L 207.395538 158.440536 
L 207.859956 162.574142 
L 208.101682 166.684719 
L 208.142308 169.2 
L 208.142308 169.2 
" clip-path="url(#p13ab2079df)" style="fill: none; stroke: #0000ff; stroke-linecap: square"/>
   </g>
   <g id="line2d_2">
    <path d="M 169.2 236.650055 
L 172.684787 234.514278 
L 176.153707 232.125108 
L 179.539817 229.509912 
L 182.670563 226.809932 
L 185.547415 224.054898 
L 188.515725 220.891536 
L 191.105125 217.816903 
L 193.678407 214.408697 
L 195.914912 211.094425 
L 197.923461 207.766269 
L 200.022325 203.82527 
L 201.726777 200.154534 
L 203.348376 196.102886 
L 204.659977 192.228532 
L 205.804718 188.138328 
L 206.675764 184.242994 
L 207.39878 179.936198 
L 207.866971 175.743181 
L 208.107239 171.536946 
L 208.142308 169.2 
L 208.142308 169.2 
" clip-path="url(#p13ab2079df)" style="fill: none; stroke: #0000ff; stroke-linecap: square"/>
   </g>
   <g id="line2d_3">
    <path d="M 130.257692 169.2 
L 130.396596 164.550525 
L 130.736617 160.576062 
L 131.30137 156.49238 
L 132.117038 152.283389 
L 133.11235 148.306967 
L 134.335309 144.329531 
L 135.815436 140.306455 
L 137.461052 136.486496 
L 139.403562 132.580358 
L 141.442992 128.985393 
L 143.781824 125.339523 
L 146.227523 121.949891 
L 148.752087 118.813345 
L 151.596933 115.64037 
L 154.426629 112.802844 
L 157.586749 109.953491 
L 160.90694 107.273969 
L 164.368524 104.780522 
L 167.755724 102.604676 
L 169.2 101.749945 
L 169.2 101.749945 
" clip-path="url(#p13ab2079df)" style="fill: none; stroke: #0000ff; stroke-linecap: square"/>
   </g>
   <g id="line2d_4">
    <path d="M 130.257692 169.2 
L 130.391028 173.755425 
L 130.73959 177.850588 
L 131.281257 181.785399 
L 132.077141 185.936301 
L 133.059832 189.903506 
L 134.29414 193.947958 
L 135.69245 197.783762 
L 137.324254 201.616302 
L 139.201774 205.438324 
L 141.317752 209.206151 
L 143.525692 212.682252 
L 146.078257 216.253873 
L 148.749756 219.583907 
L 151.383862 222.533781 
L 154.242042 225.420768 
L 157.391098 228.278998 
L 160.710856 230.975972 
L 164.187283 233.49595 
L 167.676867 235.747438 
L 169.2 236.650055 
L 169.2 236.650055 
" clip-path="url(#p13ab2079df)" style="fill: none; stroke: #0000ff; stroke-linecap: square"/>
   </g>
   <g id="text_1">
    <!-- $\Omega$ -->
    <g transform="translate(17.569231 23.978606) scale(0.1 -0.1)">
     <defs>
      <path id="Cmr10-ad" d="M 494 0 
L 281 1063 
L 469 1063 
Q 503 878 531 736 
Q 559 594 604 536 
Q 650 478 750 459 
Q 850 441 1081 441 
L 1472 441 
Q 1378 803 1004 1386 
Q 631 1969 495 2233 
Q 359 2497 359 2913 
Q 359 3397 646 3761 
Q 934 4125 1389 4319 
Q 1844 4513 2309 4513 
Q 2772 4513 3226 4319 
Q 3681 4125 3968 3758 
Q 4256 3391 4256 2913 
Q 4256 2588 4137 2300 
Q 4019 2013 3834 1725 
Q 3650 1438 3436 1084 
Q 3222 731 3144 441 
L 3531 441 
Q 3766 441 3869 459 
Q 3972 478 4015 536 
Q 4059 594 4086 736 
Q 4113 878 4147 1063 
L 4331 1063 
L 4122 0 
L 2988 0 
Q 2925 0 2925 84 
Q 2925 409 3004 721 
Q 3084 1034 3240 1478 
Q 3397 1922 3484 2261 
Q 3572 2600 3572 2913 
Q 3572 3297 3422 3625 
Q 3272 3953 2984 4150 
Q 2697 4347 2309 4347 
Q 1725 4347 1384 3930 
Q 1044 3513 1044 2913 
Q 1047 2584 1122 2293 
Q 1197 2003 1364 1518 
Q 1531 1034 1611 721 
Q 1691 409 1691 84 
Q 1691 0 1625 0 
L 494 0 
z
" transform="scale(0.015625)"/>
     </defs>
     <use xlink:href="#Cmr10-ad" transform="translate(0 0.484375)"/>
    </g>
   </g>
   <g id="text_2">
    <!-- $A$ -->
    <g style="fill: #0000ff" transform="translate(87.565385 94.07476) scale(0.1 -0.1)">
     <defs>
      <path id="Cmmi10-41" d="M 288 0 
Q 225 0 225 84 
Q 250 225 306 225 
Q 566 225 755 328 
Q 944 431 1081 647 
Q 1094 659 1094 659 
L 3378 4513 
Q 3428 4581 3500 4581 
L 3584 4581 
Q 3603 4581 3622 4573 
Q 3641 4566 3655 4548 
Q 3669 4531 3669 4513 
L 4056 378 
Q 4056 350 4084 294 
Q 4147 225 4563 225 
Q 4628 225 4628 141 
Q 4606 56 4592 28 
Q 4578 0 4519 0 
L 2919 0 
Q 2859 0 2859 84 
Q 2894 225 2944 225 
Q 3450 225 3481 397 
L 3384 1453 
L 1806 1453 
L 1294 594 
Q 1247 525 1247 434 
Q 1247 322 1355 273 
Q 1463 225 1594 225 
Q 1656 225 1656 141 
Q 1634 50 1621 25 
Q 1609 0 1550 0 
L 288 0 
z
M 1931 1678 
L 3359 1678 
L 3169 3750 
L 1931 1678 
z
" transform="scale(0.015625)"/>
     </defs>
     <use xlink:href="#Cmmi10-41" transform="translate(0 0.421875)"/>
    </g>
   </g>
   <g id="text_3">
    <!-- $B$ -->
    <g style="fill: #ff0000" transform="translate(243.284615 94.07476) scale(0.1 -0.1)">
     <defs>
      <path id="Cmmi10-42" d="M 319 0 
Q 256 0 256 84 
Q 259 100 268 137 
Q 278 175 293 200 
Q 309 225 341 225 
Q 522 225 656 234 
Q 791 244 884 269 
Q 959 297 1006 441 
L 1881 3956 
Q 1894 4019 1894 4044 
Q 1894 4113 1819 4122 
Q 1697 4147 1356 4147 
Q 1294 4147 1294 4231 
Q 1297 4247 1306 4286 
Q 1316 4325 1333 4348 
Q 1350 4372 1375 4372 
L 3669 4372 
Q 3878 4372 4083 4320 
Q 4288 4269 4461 4156 
Q 4634 4044 4736 3876 
Q 4838 3709 4838 3488 
Q 4838 3247 4714 3040 
Q 4591 2834 4395 2681 
Q 4200 2528 3973 2429 
Q 3747 2331 3500 2284 
Q 3675 2284 3854 2215 
Q 4034 2147 4175 2028 
Q 4316 1909 4402 1743 
Q 4488 1578 4488 1388 
Q 4488 1003 4219 684 
Q 3950 366 3542 183 
Q 3134 0 2753 0 
L 319 0 
z
M 1497 275 
Q 1497 225 1716 225 
L 2631 225 
Q 2944 225 3231 398 
Q 3519 572 3692 859 
Q 3866 1147 3866 1459 
Q 3866 1650 3786 1820 
Q 3706 1991 3556 2089 
Q 3406 2188 3213 2188 
L 1966 2188 
L 1522 416 
Q 1497 328 1497 275 
z
M 2009 2356 
L 2981 2356 
Q 3288 2356 3577 2512 
Q 3866 2669 4048 2937 
Q 4231 3206 4231 3506 
Q 4231 3784 4057 3965 
Q 3884 4147 3609 4147 
L 2731 4147 
Q 2559 4147 2500 4115 
Q 2441 4084 2400 3928 
L 2009 2356 
z
" transform="scale(0.015625)"/>
     </defs>
     <use xlink:href="#Cmmi10-42" transform="translate(0 0.6875)"/>
    </g>
   </g>
   <g id="text_4">
    <!-- $A\cap B$, colorée en gris -->
    <g transform="translate(116.25 55.323077) scale(0.1 -0.1)">
     <defs>
      <path id="Cmsy10-5c" d="M 359 -25 
L 359 2472 
Q 359 2897 625 3206 
Q 891 3516 1306 3672 
Q 1722 3828 2131 3828 
Q 2434 3828 2745 3745 
Q 3056 3663 3320 3489 
Q 3584 3316 3743 3056 
Q 3903 2797 3903 2472 
L 3903 -25 
Q 3903 -75 3865 -108 
Q 3828 -141 3775 -141 
Q 3728 -141 3687 -108 
Q 3647 -75 3647 -25 
L 3647 2450 
Q 3647 2731 3508 2945 
Q 3369 3159 3151 3293 
Q 2934 3428 2662 3500 
Q 2391 3572 2131 3572 
Q 1775 3572 1426 3447 
Q 1078 3322 847 3069 
Q 616 2816 616 2450 
L 616 -25 
Q 616 -75 575 -108 
Q 534 -141 488 -141 
Q 434 -141 396 -108 
Q 359 -75 359 -25 
z
" transform="scale(0.015625)"/>
      <path id="DejaVuSans-2c" d="M 750 794 
L 1409 794 
L 1409 256 
L 897 -744 
L 494 -744 
L 750 256 
L 750 794 
z
" transform="scale(0.015625)"/>
      <path id="DejaVuSans-20" transform="scale(0.015625)"/>
      <path id="DejaVuSans-63" d="M 3122 3366 
L 3122 2828 
Q 2878 2963 2633 3030 
Q 2388 3097 2138 3097 
Q 1578 3097 1268 2742 
Q 959 2388 959 1747 
Q 959 1106 1268 751 
Q 1578 397 2138 397 
Q 2388 397 2633 464 
Q 2878 531 3122 666 
L 3122 134 
Q 2881 22 2623 -34 
Q 2366 -91 2075 -91 
Q 1284 -91 818 406 
Q 353 903 353 1747 
Q 353 2603 823 3093 
Q 1294 3584 2113 3584 
Q 2378 3584 2631 3529 
Q 2884 3475 3122 3366 
z
" transform="scale(0.015625)"/>
      <path id="DejaVuSans-6f" d="M 1959 3097 
Q 1497 3097 1228 2736 
Q 959 2375 959 1747 
Q 959 1119 1226 758 
Q 1494 397 1959 397 
Q 2419 397 2687 759 
Q 2956 1122 2956 1747 
Q 2956 2369 2687 2733 
Q 2419 3097 1959 3097 
z
M 1959 3584 
Q 2709 3584 3137 3096 
Q 3566 2609 3566 1747 
Q 3566 888 3137 398 
Q 2709 -91 1959 -91 
Q 1206 -91 779 398 
Q 353 888 353 1747 
Q 353 2609 779 3096 
Q 1206 3584 1959 3584 
z
" transform="scale(0.015625)"/>
      <path id="DejaVuSans-6c" d="M 603 4863 
L 1178 4863 
L 1178 0 
L 603 0 
L 603 4863 
z
" transform="scale(0.015625)"/>
      <path id="DejaVuSans-72" d="M 2631 2963 
Q 2534 3019 2420 3045 
Q 2306 3072 2169 3072 
Q 1681 3072 1420 2755 
Q 1159 2438 1159 1844 
L 1159 0 
L 581 0 
L 581 3500 
L 1159 3500 
L 1159 2956 
Q 1341 3275 1631 3429 
Q 1922 3584 2338 3584 
Q 2397 3584 2469 3576 
Q 2541 3569 2628 3553 
L 2631 2963 
z
" transform="scale(0.015625)"/>
      <path id="DejaVuSans-e9" d="M 3597 1894 
L 3597 1613 
L 953 1613 
Q 991 1019 1311 708 
Q 1631 397 2203 397 
Q 2534 397 2845 478 
Q 3156 559 3463 722 
L 3463 178 
Q 3153 47 2828 -22 
Q 2503 -91 2169 -91 
Q 1331 -91 842 396 
Q 353 884 353 1716 
Q 353 2575 817 3079 
Q 1281 3584 2069 3584 
Q 2775 3584 3186 3129 
Q 3597 2675 3597 1894 
z
M 3022 2063 
Q 3016 2534 2758 2815 
Q 2500 3097 2075 3097 
Q 1594 3097 1305 2825 
Q 1016 2553 972 2059 
L 3022 2063 
z
M 2469 5119 
L 3091 5119 
L 2072 3944 
L 1594 3944 
L 2469 5119 
z
" transform="scale(0.015625)"/>
      <path id="DejaVuSans-65" d="M 3597 1894 
L 3597 1613 
L 953 1613 
Q 991 1019 1311 708 
Q 1631 397 2203 397 
Q 2534 397 2845 478 
Q 3156 559 3463 722 
L 3463 178 
Q 3153 47 2828 -22 
Q 2503 -91 2169 -91 
Q 1331 -91 842 396 
Q 353 884 353 1716 
Q 353 2575 817 3079 
Q 1281 3584 2069 3584 
Q 2775 3584 3186 3129 
Q 3597 2675 3597 1894 
z
M 3022 2063 
Q 3016 2534 2758 2815 
Q 2500 3097 2075 3097 
Q 1594 3097 1305 2825 
Q 1016 2553 972 2059 
L 3022 2063 
z
" transform="scale(0.015625)"/>
      <path id="DejaVuSans-6e" d="M 3513 2113 
L 3513 0 
L 2938 0 
L 2938 2094 
Q 2938 2591 2744 2837 
Q 2550 3084 2163 3084 
Q 1697 3084 1428 2787 
Q 1159 2491 1159 1978 
L 1159 0 
L 581 0 
L 581 3500 
L 1159 3500 
L 1159 2956 
Q 1366 3272 1645 3428 
Q 1925 3584 2291 3584 
Q 2894 3584 3203 3211 
Q 3513 2838 3513 2113 
z
" transform="scale(0.015625)"/>
      <path id="DejaVuSans-67" d="M 2906 1791 
Q 2906 2416 2648 2759 
Q 2391 3103 1925 3103 
Q 1463 3103 1205 2759 
Q 947 2416 947 1791 
Q 947 1169 1205 825 
Q 1463 481 1925 481 
Q 2391 481 2648 825 
Q 2906 1169 2906 1791 
z
M 3481 434 
Q 3481 -459 3084 -895 
Q 2688 -1331 1869 -1331 
Q 1566 -1331 1297 -1286 
Q 1028 -1241 775 -1147 
L 775 -588 
Q 1028 -725 1275 -790 
Q 1522 -856 1778 -856 
Q 2344 -856 2625 -561 
Q 2906 -266 2906 331 
L 2906 616 
Q 2728 306 2450 153 
Q 2172 0 1784 0 
Q 1141 0 747 490 
Q 353 981 353 1791 
Q 353 2603 747 3093 
Q 1141 3584 1784 3584 
Q 2172 3584 2450 3431 
Q 2728 3278 2906 2969 
L 2906 3500 
L 3481 3500 
L 3481 434 
z
" transform="scale(0.015625)"/>
      <path id="DejaVuSans-69" d="M 603 3500 
L 1178 3500 
L 1178 0 
L 603 0 
L 603 3500 
z
M 603 4863 
L 1178 4863 
L 1178 4134 
L 603 4134 
L 603 4863 
z
" transform="scale(0.015625)"/>
      <path id="DejaVuSans-73" d="M 2834 3397 
L 2834 2853 
Q 2591 2978 2328 3040 
Q 2066 3103 1784 3103 
Q 1356 3103 1142 2972 
Q 928 2841 928 2578 
Q 928 2378 1081 2264 
Q 1234 2150 1697 2047 
L 1894 2003 
Q 2506 1872 2764 1633 
Q 3022 1394 3022 966 
Q 3022 478 2636 193 
Q 2250 -91 1575 -91 
Q 1294 -91 989 -36 
Q 684 19 347 128 
L 347 722 
Q 666 556 975 473 
Q 1284 391 1588 391 
Q 1994 391 2212 530 
Q 2431 669 2431 922 
Q 2431 1156 2273 1281 
Q 2116 1406 1581 1522 
L 1381 1569 
Q 847 1681 609 1914 
Q 372 2147 372 2553 
Q 372 3047 722 3315 
Q 1072 3584 1716 3584 
Q 2034 3584 2315 3537 
Q 2597 3491 2834 3397 
z
" transform="scale(0.015625)"/>
     </defs>
     <use xlink:href="#Cmmi10-41" transform="translate(0 0.015625)"/>
     <use xlink:href="#Cmsy10-5c" transform="translate(92.558594 0.015625)"/>
     <use xlink:href="#Cmmi10-42" transform="translate(176.71875 0.015625)"/>
     <use xlink:href="#DejaVuSans-2c" transform="translate(252.5 0.015625)"/>
     <use xlink:href="#DejaVuSans-20" transform="translate(284.287109 0.015625)"/>
     <use xlink:href="#DejaVuSans-63" transform="translate(316.074219 0.015625)"/>
     <use xlink:href="#DejaVuSans-6f" transform="translate(371.054688 0.015625)"/>
     <use xlink:href="#DejaVuSans-6c" transform="translate(432.236328 0.015625)"/>
     <use xlink:href="#DejaVuSans-6f" transform="translate(460.019531 0.015625)"/>
     <use xlink:href="#DejaVuSans-72" transform="translate(521.201172 0.015625)"/>
     <use xlink:href="#DejaVuSans-e9" transform="translate(562.314453 0.015625)"/>
     <use xlink:href="#DejaVuSans-65" transform="translate(623.837891 0.015625)"/>
     <use xlink:href="#DejaVuSans-20" transform="translate(685.361328 0.015625)"/>
     <use xlink:href="#DejaVuSans-65" transform="translate(717.148438 0.015625)"/>
     <use xlink:href="#DejaVuSans-6e" transform="translate(778.671875 0.015625)"/>
     <use xlink:href="#DejaVuSans-20" transform="translate(842.050781 0.015625)"/>
     <use xlink:href="#DejaVuSans-67" transform="translate(873.837891 0.015625)"/>
     <use xlink:href="#DejaVuSans-72" transform="translate(937.314453 0.015625)"/>
     <use xlink:href="#DejaVuSans-69" transform="translate(978.427734 0.015625)"/>
     <use xlink:href="#DejaVuSans-73" transform="translate(1006.210938 0.015625)"/>
    </g>
   </g>
   <g id="patch_8">
    <path d="M 130.257692 247.084615 
C 150.912934 247.084615 170.724971 238.878201 185.330432 224.27274 
C 199.935893 209.667278 208.142308 189.855241 208.142308 169.2 
C 208.142308 148.544759 199.935893 128.732722 185.330432 114.12726 
C 170.724971 99.521799 150.912934 91.315385 130.257692 91.315385 
C 109.602451 91.315385 89.790414 99.521799 75.184953 114.12726 
C 60.579491 128.732722 52.373077 148.544759 52.373077 169.2 
C 52.373077 189.855241 60.579491 209.667278 75.184953 224.27274 
C 89.790414 238.878201 109.602451 247.084615 130.257692 247.084615 
L 130.257692 247.084615 
z
" clip-path="url(#p13ab2079df)" style="fill: none; stroke: #0000ff; stroke-linejoin: miter"/>
   </g>
   <g id="patch_9">
    <path d="M 208.142308 247.084615 
C 228.797549 247.084615 248.609586 238.878201 263.215047 224.27274 
C 277.820509 209.667278 286.026923 189.855241 286.026923 169.2 
C 286.026923 148.544759 277.820509 128.732722 263.215047 114.12726 
C 248.609586 99.521799 228.797549 91.315385 208.142308 91.315385 
C 187.487066 91.315385 167.675029 99.521799 153.069568 114.12726 
C 138.464107 128.732722 130.257692 148.544759 130.257692 169.2 
C 130.257692 189.855241 138.464107 209.667278 153.069568 224.27274 
C 167.675029 238.878201 187.487066 247.084615 208.142308 247.084615 
L 208.142308 247.084615 
z
" clip-path="url(#p13ab2079df)" style="fill: none; stroke: #ff0000; stroke-linejoin: miter"/>
   </g>
  </g>
 </g>
 <defs>
  <clipPath id="p13ab2079df">
   <rect x="7.2" y="7.2" width="324" height="324"/>
  </clipPath>
 </defs>
</svg>
