<?xml version="1.0" encoding="utf-8" standalone="no"?>
<!DOCTYPE svg PUBLIC "-//W3C//DTD SVG 1.1//EN"
  "http://www.w3.org/Graphics/SVG/1.1/DTD/svg11.dtd">
<svg xmlns:xlink="http://www.w3.org/1999/xlink" width="453.6pt" height="337.728392pt" viewBox="0 0 453.6 337.728392" xmlns="http://www.w3.org/2000/svg" version="1.1">
 <metadata>
  <rdf:RDF xmlns:dc="http://purl.org/dc/elements/1.1/" xmlns:cc="http://creativecommons.org/ns#" xmlns:rdf="http://www.w3.org/1999/02/22-rdf-syntax-ns#">
   <cc:Work>
    <dc:type rdf:resource="http://purl.org/dc/dcmitype/StillImage"/>
    <dc:date>2025-08-24T20:28:14.855947</dc:date>
    <dc:format>image/svg+xml</dc:format>
    <dc:creator>
     <cc:Agent>
      <dc:title>Matplotlib v3.8.0, https://matplotlib.org/</dc:title>
     </cc:Agent>
    </dc:creator>
   </cc:Work>
  </rdf:RDF>
 </metadata>
 <defs>
  <style type="text/css">*{stroke-linejoin: round; stroke-linecap: butt}</style>
 </defs>
 <g id="figure_1">
  <g id="patch_1">
   <path d="M 0 337.728392 
L 453.6 337.728392 
L 453.6 0 
L 0 0 
z
" style="fill: #ffffff"/>
  </g>
  <g id="axes_1">
   <g id="patch_2">
    <path d="M 7.2 325.508256 
L 446.4 325.508256 
L 446.4 10.131253 
L 7.2 10.131253 
z
" style="fill: #ffffff"/>
   </g>
   <g id="matplotlib.axis_1">
    <g id="xtick_1">
     <g id="line2d_1">
      <defs>
       <path id="m02e63c566d" d="M 0 0 
L 0 3.5 
" style="stroke: #000000; stroke-width: 0.8"/>
      </defs>
      <g>
       <use xlink:href="#m02e63c566d" x="25.16293" y="167.824352" style="stroke: #000000; stroke-width: 0.8"/>
      </g>
     </g>
     <g id="text_1">
      <!-- −3 -->
      <g transform="translate(17.791836 182.42279) scale(0.1 -0.1)">
       <defs>
        <path id="DejaVuSans-2212" d="M 678 2272 
L 4684 2272 
L 4684 1741 
L 678 1741 
L 678 2272 
z
" transform="scale(0.015625)"/>
        <path id="DejaVuSans-33" d="M 2597 2516 
Q 3050 2419 3304 2112 
Q 3559 1806 3559 1356 
Q 3559 666 3084 287 
Q 2609 -91 1734 -91 
Q 1441 -91 1130 -33 
Q 819 25 488 141 
L 488 750 
Q 750 597 1062 519 
Q 1375 441 1716 441 
Q 2309 441 2620 675 
Q 2931 909 2931 1356 
Q 2931 1769 2642 2001 
Q 2353 2234 1838 2234 
L 1294 2234 
L 1294 2753 
L 1863 2753 
Q 2328 2753 2575 2939 
Q 2822 3125 2822 3475 
Q 2822 3834 2567 4026 
Q 2313 4219 1838 4219 
Q 1578 4219 1281 4162 
Q 984 4106 628 3988 
L 628 4550 
Q 988 4650 1302 4700 
Q 1616 4750 1894 4750 
Q 2613 4750 3031 4423 
Q 3450 4097 3450 3541 
Q 3450 3153 3228 2886 
Q 3006 2619 2597 2516 
z
" transform="scale(0.015625)"/>
       </defs>
       <use xlink:href="#DejaVuSans-2212"/>
       <use xlink:href="#DejaVuSans-33" x="83.789062"/>
      </g>
     </g>
    </g>
    <g id="xtick_2">
     <g id="line2d_2">
      <g>
       <use xlink:href="#m02e63c566d" x="92.375287" y="167.824352" style="stroke: #000000; stroke-width: 0.8"/>
      </g>
     </g>
     <g id="text_2">
      <!-- −2 -->
      <g transform="translate(85.004193 182.42279) scale(0.1 -0.1)">
       <defs>
        <path id="DejaVuSans-32" d="M 1228 531 
L 3431 531 
L 3431 0 
L 469 0 
L 469 531 
Q 828 903 1448 1529 
Q 2069 2156 2228 2338 
Q 2531 2678 2651 2914 
Q 2772 3150 2772 3378 
Q 2772 3750 2511 3984 
Q 2250 4219 1831 4219 
Q 1534 4219 1204 4116 
Q 875 4013 500 3803 
L 500 4441 
Q 881 4594 1212 4672 
Q 1544 4750 1819 4750 
Q 2544 4750 2975 4387 
Q 3406 4025 3406 3419 
Q 3406 3131 3298 2873 
Q 3191 2616 2906 2266 
Q 2828 2175 2409 1742 
Q 1991 1309 1228 531 
z
" transform="scale(0.015625)"/>
       </defs>
       <use xlink:href="#DejaVuSans-2212"/>
       <use xlink:href="#DejaVuSans-32" x="83.789062"/>
      </g>
     </g>
    </g>
    <g id="xtick_3">
     <g id="line2d_3">
      <g>
       <use xlink:href="#m02e63c566d" x="159.587643" y="167.824352" style="stroke: #000000; stroke-width: 0.8"/>
      </g>
     </g>
     <g id="text_3">
      <!-- −1 -->
      <g transform="translate(152.21655 182.42279) scale(0.1 -0.1)">
       <defs>
        <path id="DejaVuSans-31" d="M 794 531 
L 1825 531 
L 1825 4091 
L 703 3866 
L 703 4441 
L 1819 4666 
L 2450 4666 
L 2450 531 
L 3481 531 
L 3481 0 
L 794 0 
L 794 531 
z
" transform="scale(0.015625)"/>
       </defs>
       <use xlink:href="#DejaVuSans-2212"/>
       <use xlink:href="#DejaVuSans-31" x="83.789062"/>
      </g>
     </g>
    </g>
    <g id="xtick_4">
     <g id="line2d_4">
      <g>
       <use xlink:href="#m02e63c566d" x="226.8" y="167.824352" style="stroke: #000000; stroke-width: 0.8"/>
      </g>
     </g>
    </g>
    <g id="xtick_5">
     <g id="line2d_5">
      <g>
       <use xlink:href="#m02e63c566d" x="294.012357" y="167.824352" style="stroke: #000000; stroke-width: 0.8"/>
      </g>
     </g>
     <g id="text_4">
      <!-- 1 -->
      <g transform="translate(290.831107 182.42279) scale(0.1 -0.1)">
       <use xlink:href="#DejaVuSans-31"/>
      </g>
     </g>
    </g>
    <g id="xtick_6">
     <g id="line2d_6">
      <g>
       <use xlink:href="#m02e63c566d" x="361.224713" y="167.824352" style="stroke: #000000; stroke-width: 0.8"/>
      </g>
     </g>
     <g id="text_5">
      <!-- 2 -->
      <g transform="translate(358.043463 182.42279) scale(0.1 -0.1)">
       <use xlink:href="#DejaVuSans-32"/>
      </g>
     </g>
    </g>
    <g id="xtick_7">
     <g id="line2d_7">
      <g>
       <use xlink:href="#m02e63c566d" x="428.43707" y="167.824352" style="stroke: #000000; stroke-width: 0.8"/>
      </g>
     </g>
     <g id="text_6">
      <!-- 3 -->
      <g transform="translate(425.25582 182.42279) scale(0.1 -0.1)">
       <use xlink:href="#DejaVuSans-33"/>
      </g>
     </g>
    </g>
    <g id="xtick_8">
     <g id="line2d_8">
      <defs>
       <path id="m6265b4793f" d="M 0 0 
L 0 2 
" style="stroke: #000000; stroke-width: 0.6"/>
      </defs>
      <g>
       <use xlink:href="#m6265b4793f" x="11.720458" y="167.824352" style="stroke: #000000; stroke-width: 0.6"/>
      </g>
     </g>
    </g>
    <g id="xtick_9">
     <g id="line2d_9">
      <g>
       <use xlink:href="#m6265b4793f" x="38.605401" y="167.824352" style="stroke: #000000; stroke-width: 0.6"/>
      </g>
     </g>
    </g>
    <g id="xtick_10">
     <g id="line2d_10">
      <g>
       <use xlink:href="#m6265b4793f" x="52.047872" y="167.824352" style="stroke: #000000; stroke-width: 0.6"/>
      </g>
     </g>
    </g>
    <g id="xtick_11">
     <g id="line2d_11">
      <g>
       <use xlink:href="#m6265b4793f" x="65.490344" y="167.824352" style="stroke: #000000; stroke-width: 0.6"/>
      </g>
     </g>
    </g>
    <g id="xtick_12">
     <g id="line2d_12">
      <g>
       <use xlink:href="#m6265b4793f" x="78.932815" y="167.824352" style="stroke: #000000; stroke-width: 0.6"/>
      </g>
     </g>
    </g>
    <g id="xtick_13">
     <g id="line2d_13">
      <g>
       <use xlink:href="#m6265b4793f" x="105.817758" y="167.824352" style="stroke: #000000; stroke-width: 0.6"/>
      </g>
     </g>
    </g>
    <g id="xtick_14">
     <g id="line2d_14">
      <g>
       <use xlink:href="#m6265b4793f" x="119.260229" y="167.824352" style="stroke: #000000; stroke-width: 0.6"/>
      </g>
     </g>
    </g>
    <g id="xtick_15">
     <g id="line2d_15">
      <g>
       <use xlink:href="#m6265b4793f" x="132.702701" y="167.824352" style="stroke: #000000; stroke-width: 0.6"/>
      </g>
     </g>
    </g>
    <g id="xtick_16">
     <g id="line2d_16">
      <g>
       <use xlink:href="#m6265b4793f" x="146.145172" y="167.824352" style="stroke: #000000; stroke-width: 0.6"/>
      </g>
     </g>
    </g>
    <g id="xtick_17">
     <g id="line2d_17">
      <g>
       <use xlink:href="#m6265b4793f" x="173.030115" y="167.824352" style="stroke: #000000; stroke-width: 0.6"/>
      </g>
     </g>
    </g>
    <g id="xtick_18">
     <g id="line2d_18">
      <g>
       <use xlink:href="#m6265b4793f" x="186.472586" y="167.824352" style="stroke: #000000; stroke-width: 0.6"/>
      </g>
     </g>
    </g>
    <g id="xtick_19">
     <g id="line2d_19">
      <g>
       <use xlink:href="#m6265b4793f" x="199.915057" y="167.824352" style="stroke: #000000; stroke-width: 0.6"/>
      </g>
     </g>
    </g>
    <g id="xtick_20">
     <g id="line2d_20">
      <g>
       <use xlink:href="#m6265b4793f" x="213.357529" y="167.824352" style="stroke: #000000; stroke-width: 0.6"/>
      </g>
     </g>
    </g>
    <g id="xtick_21">
     <g id="line2d_21">
      <g>
       <use xlink:href="#m6265b4793f" x="240.242471" y="167.824352" style="stroke: #000000; stroke-width: 0.6"/>
      </g>
     </g>
    </g>
    <g id="xtick_22">
     <g id="line2d_22">
      <g>
       <use xlink:href="#m6265b4793f" x="253.684943" y="167.824352" style="stroke: #000000; stroke-width: 0.6"/>
      </g>
     </g>
    </g>
    <g id="xtick_23">
     <g id="line2d_23">
      <g>
       <use xlink:href="#m6265b4793f" x="267.127414" y="167.824352" style="stroke: #000000; stroke-width: 0.6"/>
      </g>
     </g>
    </g>
    <g id="xtick_24">
     <g id="line2d_24">
      <g>
       <use xlink:href="#m6265b4793f" x="280.569885" y="167.824352" style="stroke: #000000; stroke-width: 0.6"/>
      </g>
     </g>
    </g>
    <g id="xtick_25">
     <g id="line2d_25">
      <g>
       <use xlink:href="#m6265b4793f" x="307.454828" y="167.824352" style="stroke: #000000; stroke-width: 0.6"/>
      </g>
     </g>
    </g>
    <g id="xtick_26">
     <g id="line2d_26">
      <g>
       <use xlink:href="#m6265b4793f" x="320.897299" y="167.824352" style="stroke: #000000; stroke-width: 0.6"/>
      </g>
     </g>
    </g>
    <g id="xtick_27">
     <g id="line2d_27">
      <g>
       <use xlink:href="#m6265b4793f" x="334.339771" y="167.824352" style="stroke: #000000; stroke-width: 0.6"/>
      </g>
     </g>
    </g>
    <g id="xtick_28">
     <g id="line2d_28">
      <g>
       <use xlink:href="#m6265b4793f" x="347.782242" y="167.824352" style="stroke: #000000; stroke-width: 0.6"/>
      </g>
     </g>
    </g>
    <g id="xtick_29">
     <g id="line2d_29">
      <g>
       <use xlink:href="#m6265b4793f" x="374.667185" y="167.824352" style="stroke: #000000; stroke-width: 0.6"/>
      </g>
     </g>
    </g>
    <g id="xtick_30">
     <g id="line2d_30">
      <g>
       <use xlink:href="#m6265b4793f" x="388.109656" y="167.824352" style="stroke: #000000; stroke-width: 0.6"/>
      </g>
     </g>
    </g>
    <g id="xtick_31">
     <g id="line2d_31">
      <g>
       <use xlink:href="#m6265b4793f" x="401.552128" y="167.824352" style="stroke: #000000; stroke-width: 0.6"/>
      </g>
     </g>
    </g>
    <g id="xtick_32">
     <g id="line2d_32">
      <g>
       <use xlink:href="#m6265b4793f" x="414.994599" y="167.824352" style="stroke: #000000; stroke-width: 0.6"/>
      </g>
     </g>
    </g>
    <g id="xtick_33">
     <g id="line2d_33">
      <g>
       <use xlink:href="#m6265b4793f" x="441.879542" y="167.824352" style="stroke: #000000; stroke-width: 0.6"/>
      </g>
     </g>
    </g>
   </g>
   <g id="matplotlib.axis_2">
    <g id="ytick_1">
     <g id="line2d_34">
      <defs>
       <path id="mf4704b7c6c" d="M 0 0 
L -3.5 0 
" style="stroke: #000000; stroke-width: 0.8"/>
      </defs>
      <g>
       <use xlink:href="#mf4704b7c6c" x="226.8" y="324.649486" style="stroke: #000000; stroke-width: 0.8"/>
      </g>
     </g>
     <g id="text_7">
      <!-- −1.0 -->
      <g transform="translate(195.517187 328.448704) scale(0.1 -0.1)">
       <defs>
        <path id="DejaVuSans-2e" d="M 684 794 
L 1344 794 
L 1344 0 
L 684 0 
L 684 794 
z
" transform="scale(0.015625)"/>
        <path id="DejaVuSans-30" d="M 2034 4250 
Q 1547 4250 1301 3770 
Q 1056 3291 1056 2328 
Q 1056 1369 1301 889 
Q 1547 409 2034 409 
Q 2525 409 2770 889 
Q 3016 1369 3016 2328 
Q 3016 3291 2770 3770 
Q 2525 4250 2034 4250 
z
M 2034 4750 
Q 2819 4750 3233 4129 
Q 3647 3509 3647 2328 
Q 3647 1150 3233 529 
Q 2819 -91 2034 -91 
Q 1250 -91 836 529 
Q 422 1150 422 2328 
Q 422 3509 836 4129 
Q 1250 4750 2034 4750 
z
" transform="scale(0.015625)"/>
       </defs>
       <use xlink:href="#DejaVuSans-2212"/>
       <use xlink:href="#DejaVuSans-31" x="83.789062"/>
       <use xlink:href="#DejaVuSans-2e" x="147.412109"/>
       <use xlink:href="#DejaVuSans-30" x="179.199219"/>
      </g>
     </g>
    </g>
    <g id="ytick_2">
     <g id="line2d_35">
      <g>
       <use xlink:href="#mf4704b7c6c" x="226.8" y="246.236919" style="stroke: #000000; stroke-width: 0.8"/>
      </g>
     </g>
     <g id="text_8">
      <!-- −0.5 -->
      <g transform="translate(195.517187 250.036138) scale(0.1 -0.1)">
       <defs>
        <path id="DejaVuSans-35" d="M 691 4666 
L 3169 4666 
L 3169 4134 
L 1269 4134 
L 1269 2991 
Q 1406 3038 1543 3061 
Q 1681 3084 1819 3084 
Q 2600 3084 3056 2656 
Q 3513 2228 3513 1497 
Q 3513 744 3044 326 
Q 2575 -91 1722 -91 
Q 1428 -91 1123 -41 
Q 819 9 494 109 
L 494 744 
Q 775 591 1075 516 
Q 1375 441 1709 441 
Q 2250 441 2565 725 
Q 2881 1009 2881 1497 
Q 2881 1984 2565 2268 
Q 2250 2553 1709 2553 
Q 1456 2553 1204 2497 
Q 953 2441 691 2322 
L 691 4666 
z
" transform="scale(0.015625)"/>
       </defs>
       <use xlink:href="#DejaVuSans-2212"/>
       <use xlink:href="#DejaVuSans-30" x="83.789062"/>
       <use xlink:href="#DejaVuSans-2e" x="147.412109"/>
       <use xlink:href="#DejaVuSans-35" x="179.199219"/>
      </g>
     </g>
    </g>
    <g id="ytick_3">
     <g id="line2d_36">
      <g>
       <use xlink:href="#mf4704b7c6c" x="226.8" y="167.824352" style="stroke: #000000; stroke-width: 0.8"/>
      </g>
     </g>
    </g>
    <g id="ytick_4">
     <g id="line2d_37">
      <g>
       <use xlink:href="#mf4704b7c6c" x="226.8" y="89.411785" style="stroke: #000000; stroke-width: 0.8"/>
      </g>
     </g>
     <g id="text_9">
      <!-- 0.5 -->
      <g transform="translate(203.896875 93.211004) scale(0.1 -0.1)">
       <use xlink:href="#DejaVuSans-30"/>
       <use xlink:href="#DejaVuSans-2e" x="63.623047"/>
       <use xlink:href="#DejaVuSans-35" x="95.410156"/>
      </g>
     </g>
    </g>
    <g id="ytick_5">
     <g id="line2d_38">
      <g>
       <use xlink:href="#mf4704b7c6c" x="226.8" y="10.999219" style="stroke: #000000; stroke-width: 0.8"/>
      </g>
     </g>
     <g id="text_10">
      <!-- 1.0 -->
      <g transform="translate(203.896875 14.798438) scale(0.1 -0.1)">
       <use xlink:href="#DejaVuSans-31"/>
       <use xlink:href="#DejaVuSans-2e" x="63.623047"/>
       <use xlink:href="#DejaVuSans-30" x="95.410156"/>
      </g>
     </g>
    </g>
    <g id="ytick_6">
     <g id="line2d_39">
      <defs>
       <path id="m5b3d928a59" d="M 0 0 
L -2 0 
" style="stroke: #000000; stroke-width: 0.6"/>
      </defs>
      <g>
       <use xlink:href="#m5b3d928a59" x="226.8" y="308.966972" style="stroke: #000000; stroke-width: 0.6"/>
      </g>
     </g>
    </g>
    <g id="ytick_7">
     <g id="line2d_40">
      <g>
       <use xlink:href="#m5b3d928a59" x="226.8" y="293.284459" style="stroke: #000000; stroke-width: 0.6"/>
      </g>
     </g>
    </g>
    <g id="ytick_8">
     <g id="line2d_41">
      <g>
       <use xlink:href="#m5b3d928a59" x="226.8" y="277.601946" style="stroke: #000000; stroke-width: 0.6"/>
      </g>
     </g>
    </g>
    <g id="ytick_9">
     <g id="line2d_42">
      <g>
       <use xlink:href="#m5b3d928a59" x="226.8" y="261.919432" style="stroke: #000000; stroke-width: 0.6"/>
      </g>
     </g>
    </g>
    <g id="ytick_10">
     <g id="line2d_43">
      <g>
       <use xlink:href="#m5b3d928a59" x="226.8" y="230.554406" style="stroke: #000000; stroke-width: 0.6"/>
      </g>
     </g>
    </g>
    <g id="ytick_11">
     <g id="line2d_44">
      <g>
       <use xlink:href="#m5b3d928a59" x="226.8" y="214.871892" style="stroke: #000000; stroke-width: 0.6"/>
      </g>
     </g>
    </g>
    <g id="ytick_12">
     <g id="line2d_45">
      <g>
       <use xlink:href="#m5b3d928a59" x="226.8" y="199.189379" style="stroke: #000000; stroke-width: 0.6"/>
      </g>
     </g>
    </g>
    <g id="ytick_13">
     <g id="line2d_46">
      <g>
       <use xlink:href="#m5b3d928a59" x="226.8" y="183.506865" style="stroke: #000000; stroke-width: 0.6"/>
      </g>
     </g>
    </g>
    <g id="ytick_14">
     <g id="line2d_47">
      <g>
       <use xlink:href="#m5b3d928a59" x="226.8" y="152.141839" style="stroke: #000000; stroke-width: 0.6"/>
      </g>
     </g>
    </g>
    <g id="ytick_15">
     <g id="line2d_48">
      <g>
       <use xlink:href="#m5b3d928a59" x="226.8" y="136.459325" style="stroke: #000000; stroke-width: 0.6"/>
      </g>
     </g>
    </g>
    <g id="ytick_16">
     <g id="line2d_49">
      <g>
       <use xlink:href="#m5b3d928a59" x="226.8" y="120.776812" style="stroke: #000000; stroke-width: 0.6"/>
      </g>
     </g>
    </g>
    <g id="ytick_17">
     <g id="line2d_50">
      <g>
       <use xlink:href="#m5b3d928a59" x="226.8" y="105.094299" style="stroke: #000000; stroke-width: 0.6"/>
      </g>
     </g>
    </g>
    <g id="ytick_18">
     <g id="line2d_51">
      <g>
       <use xlink:href="#m5b3d928a59" x="226.8" y="73.729272" style="stroke: #000000; stroke-width: 0.6"/>
      </g>
     </g>
    </g>
    <g id="ytick_19">
     <g id="line2d_52">
      <g>
       <use xlink:href="#m5b3d928a59" x="226.8" y="58.046759" style="stroke: #000000; stroke-width: 0.6"/>
      </g>
     </g>
    </g>
    <g id="ytick_20">
     <g id="line2d_53">
      <g>
       <use xlink:href="#m5b3d928a59" x="226.8" y="42.364245" style="stroke: #000000; stroke-width: 0.6"/>
      </g>
     </g>
    </g>
    <g id="ytick_21">
     <g id="line2d_54">
      <g>
       <use xlink:href="#m5b3d928a59" x="226.8" y="26.681732" style="stroke: #000000; stroke-width: 0.6"/>
      </g>
     </g>
    </g>
   </g>
   <g id="line2d_55">
    <path d="M 15.646154 167.824352 
L 17.280075 167.963243 
L 19.019419 168.414583 
L 21.360724 169.505963 
L 23.228809 170.759958 
L 25.70665 172.914697 
L 27.29717 174.570218 
L 30.271949 178.168453 
L 32.365833 181.032939 
L 37.534742 188.895681 
L 44.338384 199.655885 
L 47.69543 204.497213 
L 49.519435 206.857613 
L 51.662232 209.313151 
L 53.111005 210.746897 
L 55.520606 212.666852 
L 56.481435 213.254903 
L 57.644243 213.820726 
L 59.672498 214.402575 
L 60.537946 214.486186 
L 61.656354 214.442114 
L 62.774762 214.22172 
L 64.068948 213.740614 
L 66.159066 212.437252 
L 67.85946 210.886395 
L 69.855466 208.495979 
L 71.734338 205.681519 
L 73.61321 202.323954 
L 75.362732 198.718142 
L 77.661827 193.299518 
L 80.39176 185.917039 
L 83.11026 177.631041 
L 86.078621 167.65677 
L 89.743729 154.274861 
L 96.276859 128.73489 
L 100.389916 112.548359 
L 104.749712 96.252319 
L 107.86048 85.63647 
L 109.930245 79.213714 
L 111.957266 73.516481 
L 114.117048 68.177732 
L 115.922232 64.355413 
L 117.856531 60.961818 
L 119.890387 58.231232 
L 120.743922 57.353483 
L 121.583599 56.649623 
L 122.423277 56.107074 
L 123.262954 55.728541 
L 124.102632 55.516464 
L 125.013611 55.47715 
L 126.04686 55.675794 
L 127.080108 56.135725 
L 128.113357 56.859169 
L 129.146606 57.847676 
L 130.082035 58.971948 
L 131.66075 61.363931 
L 132.986528 63.850902 
L 134.823676 68.011795 
L 136.702771 73.111635 
L 138.151653 77.611919 
L 139.744474 83.111883 
L 141.976703 91.751294 
L 144.385419 102.215154 
L 146.60618 112.819344 
L 149.303432 126.78549 
L 152.410594 144.102262 
L 156.621896 169.077322 
L 167.990742 237.99683 
L 171.35632 256.692432 
L 174.155946 270.979351 
L 176.253117 280.755441 
L 178.418035 289.891805 
L 180.23841 296.74609 
L 182.058785 302.783029 
L 183.633784 307.307062 
L 185.156534 311.034992 
L 186.519436 313.813547 
L 187.722489 315.816085 
L 188.324016 316.656202 
L 189.204305 317.689465 
L 190.084594 318.487358 
L 190.9173 319.023522 
L 191.750006 319.345628 
L 192.921327 319.434226 
L 194.092647 319.094932 
L 195.206165 318.374927 
L 196.466839 317.092812 
L 197.727514 315.317122 
L 199.0399 312.948743 
L 200.352286 310.056749 
L 201.740484 306.437671 
L 203.128681 302.255593 
L 204.975151 295.847402 
L 207.103923 287.314146 
L 209.12382 278.15111 
L 211.257659 267.429961 
L 214.278508 250.61998 
L 217.039694 233.829847 
L 219.835546 215.728669 
L 223.473126 191.019326 
L 234.100634 117.694758 
L 237.488349 96.041068 
L 240.817509 76.480524 
L 243.534044 62.104883 
L 244.978216 55.127351 
L 247.508216 44.128671 
L 249.707852 35.927591 
L 251.304105 30.817506 
L 253.412556 25.200236 
L 255.344381 21.221182 
L 256.239751 19.76354 
L 257.135122 18.553514 
L 258.612215 17.10204 
L 259.775662 16.438209 
L 260.357385 16.264901 
L 261.028473 16.196195 
L 261.699561 16.26781 
L 262.773991 16.67354 
L 263.848421 17.435365 
L 264.599328 18.17742 
L 266.101141 20.172485 
L 266.852048 21.421998 
L 267.857237 23.352989 
L 268.862427 25.574633 
L 270.816218 30.700552 
L 272.470012 35.840414 
L 274.237191 42.100892 
L 276.319382 50.42943 
L 278.375231 59.579573 
L 280.52462 70.027808 
L 283.894705 87.946961 
L 286.237543 101.289221 
L 291.587176 133.466434 
L 299.943491 184.305343 
L 304.104669 207.82889 
L 306.985029 222.785696 
L 310.199391 237.848519 
L 312.260499 246.471062 
L 314.726128 255.613523 
L 316.77328 262.171199 
L 318.681823 267.400649 
L 320.63555 271.842776 
L 322.543437 275.273505 
L 323.929632 277.198406 
L 325.315828 278.644437 
L 326.534893 279.521537 
L 327.753958 280.031893 
L 328.995627 280.178609 
L 330.237296 279.954114 
L 331.51187 279.344601 
L 333.043635 278.116256 
L 334.575399 276.363436 
L 335.735837 274.698771 
L 336.923766 272.705303 
L 338.111696 270.430493 
L 340.437796 265.209202 
L 342.815315 258.912617 
L 344.845617 252.855856 
L 347.426217 244.384649 
L 350.718663 232.575215 
L 354.729815 217.170948 
L 364.594999 178.598547 
L 368.403513 164.936546 
L 371.251048 155.609518 
L 373.91672 147.721187 
L 375.544796 143.35116 
L 378.239506 136.925659 
L 379.873587 133.544198 
L 381.655252 130.316322 
L 383.436916 127.576093 
L 385.514656 125.001848 
L 386.652196 123.875578 
L 387.789735 122.948065 
L 389.728916 121.818595 
L 391.407917 121.289862 
L 392.494941 121.163141 
L 393.690985 121.213253 
L 394.88703 121.455362 
L 396.413475 122.031168 
L 397.939921 122.889931 
L 399.968515 124.435945 
L 400.857508 125.247757 
L 402.92858 127.424412 
L 405.195995 130.208055 
L 408.193115 134.394338 
L 410.02143 137.155085 
L 420.129871 153.015397 
L 423.875687 158.187396 
L 426.182355 160.945005 
L 427.532252 162.375998 
L 429.180075 163.920307 
L 430.715494 165.144589 
L 432.250912 166.149506 
L 433.649148 166.865516 
L 435.805015 167.584287 
L 436.879431 167.764265 
L 437.953846 167.824352 
L 437.953846 167.824352 
" clip-path="url(#pc81be076ff)" style="fill: none; stroke: #000000; stroke-linecap: square"/>
   </g>
   <g id="patch_3">
    <path d="M 226.8 325.508256 
L 226.8 10.131253 
" style="fill: none; stroke: #000000; stroke-width: 0.8; stroke-linejoin: miter; stroke-linecap: square"/>
   </g>
   <g id="patch_4">
    <path d="M 7.2 167.824352 
L 446.4 167.824352 
" style="fill: none; stroke: #000000; stroke-width: 0.8; stroke-linejoin: miter; stroke-linecap: square"/>
   </g>
  </g>
 </g>
 <defs>
  <clipPath id="pc81be076ff">
   <rect x="7.2" y="10.131253" width="439.2" height="315.377003"/>
  </clipPath>
 </defs>
</svg>
