<?xml version="1.0" encoding="utf-8" standalone="no"?>
<!DOCTYPE svg PUBLIC "-//W3C//DTD SVG 1.1//EN"
  "http://www.w3.org/Graphics/SVG/1.1/DTD/svg11.dtd">
<svg xmlns:xlink="http://www.w3.org/1999/xlink" width="453.6pt" height="337.729815pt" viewBox="0 0 453.6 337.729815" xmlns="http://www.w3.org/2000/svg" version="1.1">
 <metadata>
  <rdf:RDF xmlns:dc="http://purl.org/dc/elements/1.1/" xmlns:cc="http://creativecommons.org/ns#" xmlns:rdf="http://www.w3.org/1999/02/22-rdf-syntax-ns#">
   <cc:Work>
    <dc:type rdf:resource="http://purl.org/dc/dcmitype/StillImage"/>
    <dc:date>2025-08-27T15:08:45.976292</dc:date>
    <dc:format>image/svg+xml</dc:format>
    <dc:creator>
     <cc:Agent>
      <dc:title>Matplotlib v3.8.0, https://matplotlib.org/</dc:title>
     </cc:Agent>
    </dc:creator>
   </cc:Work>
  </rdf:RDF>
 </metadata>
 <defs>
  <style type="text/css">*{stroke-linejoin: round; stroke-linecap: butt}</style>
 </defs>
 <g id="figure_1">
  <g id="patch_1">
   <path d="M 0 337.729815 
L 453.6 337.729815 
L 453.6 0 
L 0 0 
z
" style="fill: #ffffff"/>
  </g>
  <g id="axes_1">
   <g id="patch_2">
    <path d="M 7.2 325.512239 
L 446.4 325.512239 
L 446.4 10.142707 
L 7.2 10.142707 
z
" style="fill: #ffffff"/>
   </g>
   <g id="matplotlib.axis_1">
    <g id="xtick_1">
     <g id="line2d_1">
      <defs>
       <path id="m7018f3de2b" d="M 0 0 
L 0 3.5 
" style="stroke: #000000; stroke-width: 0.8"/>
      </defs>
      <g>
       <use xlink:href="#m7018f3de2b" x="25.16293" y="167.825064" style="stroke: #000000; stroke-width: 0.8"/>
      </g>
     </g>
     <g id="text_1">
      <!-- −3 -->
      <g transform="translate(17.791836 182.423501) scale(0.1 -0.1)">
       <defs>
        <path id="DejaVuSans-2212" d="M 678 2272 
L 4684 2272 
L 4684 1741 
L 678 1741 
L 678 2272 
z
" transform="scale(0.015625)"/>
        <path id="DejaVuSans-33" d="M 2597 2516 
Q 3050 2419 3304 2112 
Q 3559 1806 3559 1356 
Q 3559 666 3084 287 
Q 2609 -91 1734 -91 
Q 1441 -91 1130 -33 
Q 819 25 488 141 
L 488 750 
Q 750 597 1062 519 
Q 1375 441 1716 441 
Q 2309 441 2620 675 
Q 2931 909 2931 1356 
Q 2931 1769 2642 2001 
Q 2353 2234 1838 2234 
L 1294 2234 
L 1294 2753 
L 1863 2753 
Q 2328 2753 2575 2939 
Q 2822 3125 2822 3475 
Q 2822 3834 2567 4026 
Q 2313 4219 1838 4219 
Q 1578 4219 1281 4162 
Q 984 4106 628 3988 
L 628 4550 
Q 988 4650 1302 4700 
Q 1616 4750 1894 4750 
Q 2613 4750 3031 4423 
Q 3450 4097 3450 3541 
Q 3450 3153 3228 2886 
Q 3006 2619 2597 2516 
z
" transform="scale(0.015625)"/>
       </defs>
       <use xlink:href="#DejaVuSans-2212"/>
       <use xlink:href="#DejaVuSans-33" x="83.789062"/>
      </g>
     </g>
    </g>
    <g id="xtick_2">
     <g id="line2d_2">
      <g>
       <use xlink:href="#m7018f3de2b" x="92.375287" y="167.825064" style="stroke: #000000; stroke-width: 0.8"/>
      </g>
     </g>
     <g id="text_2">
      <!-- −2 -->
      <g transform="translate(85.004193 182.423501) scale(0.1 -0.1)">
       <defs>
        <path id="DejaVuSans-32" d="M 1228 531 
L 3431 531 
L 3431 0 
L 469 0 
L 469 531 
Q 828 903 1448 1529 
Q 2069 2156 2228 2338 
Q 2531 2678 2651 2914 
Q 2772 3150 2772 3378 
Q 2772 3750 2511 3984 
Q 2250 4219 1831 4219 
Q 1534 4219 1204 4116 
Q 875 4013 500 3803 
L 500 4441 
Q 881 4594 1212 4672 
Q 1544 4750 1819 4750 
Q 2544 4750 2975 4387 
Q 3406 4025 3406 3419 
Q 3406 3131 3298 2873 
Q 3191 2616 2906 2266 
Q 2828 2175 2409 1742 
Q 1991 1309 1228 531 
z
" transform="scale(0.015625)"/>
       </defs>
       <use xlink:href="#DejaVuSans-2212"/>
       <use xlink:href="#DejaVuSans-32" x="83.789062"/>
      </g>
     </g>
    </g>
    <g id="xtick_3">
     <g id="line2d_3">
      <g>
       <use xlink:href="#m7018f3de2b" x="159.587643" y="167.825064" style="stroke: #000000; stroke-width: 0.8"/>
      </g>
     </g>
     <g id="text_3">
      <!-- −1 -->
      <g transform="translate(152.21655 182.423501) scale(0.1 -0.1)">
       <defs>
        <path id="DejaVuSans-31" d="M 794 531 
L 1825 531 
L 1825 4091 
L 703 3866 
L 703 4441 
L 1819 4666 
L 2450 4666 
L 2450 531 
L 3481 531 
L 3481 0 
L 794 0 
L 794 531 
z
" transform="scale(0.015625)"/>
       </defs>
       <use xlink:href="#DejaVuSans-2212"/>
       <use xlink:href="#DejaVuSans-31" x="83.789062"/>
      </g>
     </g>
    </g>
    <g id="xtick_4">
     <g id="line2d_4">
      <g>
       <use xlink:href="#m7018f3de2b" x="226.8" y="167.825064" style="stroke: #000000; stroke-width: 0.8"/>
      </g>
     </g>
    </g>
    <g id="xtick_5">
     <g id="line2d_5">
      <g>
       <use xlink:href="#m7018f3de2b" x="294.012357" y="167.825064" style="stroke: #000000; stroke-width: 0.8"/>
      </g>
     </g>
     <g id="text_4">
      <!-- 1 -->
      <g transform="translate(290.831107 182.423501) scale(0.1 -0.1)">
       <use xlink:href="#DejaVuSans-31"/>
      </g>
     </g>
    </g>
    <g id="xtick_6">
     <g id="line2d_6">
      <g>
       <use xlink:href="#m7018f3de2b" x="361.224713" y="167.825064" style="stroke: #000000; stroke-width: 0.8"/>
      </g>
     </g>
     <g id="text_5">
      <!-- 2 -->
      <g transform="translate(358.043463 182.423501) scale(0.1 -0.1)">
       <use xlink:href="#DejaVuSans-32"/>
      </g>
     </g>
    </g>
    <g id="xtick_7">
     <g id="line2d_7">
      <g>
       <use xlink:href="#m7018f3de2b" x="428.43707" y="167.825064" style="stroke: #000000; stroke-width: 0.8"/>
      </g>
     </g>
     <g id="text_6">
      <!-- 3 -->
      <g transform="translate(425.25582 182.423501) scale(0.1 -0.1)">
       <use xlink:href="#DejaVuSans-33"/>
      </g>
     </g>
    </g>
    <g id="xtick_8">
     <g id="line2d_8">
      <defs>
       <path id="mf557906e02" d="M 0 0 
L 0 2 
" style="stroke: #000000; stroke-width: 0.6"/>
      </defs>
      <g>
       <use xlink:href="#mf557906e02" x="11.720458" y="167.825064" style="stroke: #000000; stroke-width: 0.6"/>
      </g>
     </g>
    </g>
    <g id="xtick_9">
     <g id="line2d_9">
      <g>
       <use xlink:href="#mf557906e02" x="38.605401" y="167.825064" style="stroke: #000000; stroke-width: 0.6"/>
      </g>
     </g>
    </g>
    <g id="xtick_10">
     <g id="line2d_10">
      <g>
       <use xlink:href="#mf557906e02" x="52.047872" y="167.825064" style="stroke: #000000; stroke-width: 0.6"/>
      </g>
     </g>
    </g>
    <g id="xtick_11">
     <g id="line2d_11">
      <g>
       <use xlink:href="#mf557906e02" x="65.490344" y="167.825064" style="stroke: #000000; stroke-width: 0.6"/>
      </g>
     </g>
    </g>
    <g id="xtick_12">
     <g id="line2d_12">
      <g>
       <use xlink:href="#mf557906e02" x="78.932815" y="167.825064" style="stroke: #000000; stroke-width: 0.6"/>
      </g>
     </g>
    </g>
    <g id="xtick_13">
     <g id="line2d_13">
      <g>
       <use xlink:href="#mf557906e02" x="105.817758" y="167.825064" style="stroke: #000000; stroke-width: 0.6"/>
      </g>
     </g>
    </g>
    <g id="xtick_14">
     <g id="line2d_14">
      <g>
       <use xlink:href="#mf557906e02" x="119.260229" y="167.825064" style="stroke: #000000; stroke-width: 0.6"/>
      </g>
     </g>
    </g>
    <g id="xtick_15">
     <g id="line2d_15">
      <g>
       <use xlink:href="#mf557906e02" x="132.702701" y="167.825064" style="stroke: #000000; stroke-width: 0.6"/>
      </g>
     </g>
    </g>
    <g id="xtick_16">
     <g id="line2d_16">
      <g>
       <use xlink:href="#mf557906e02" x="146.145172" y="167.825064" style="stroke: #000000; stroke-width: 0.6"/>
      </g>
     </g>
    </g>
    <g id="xtick_17">
     <g id="line2d_17">
      <g>
       <use xlink:href="#mf557906e02" x="173.030115" y="167.825064" style="stroke: #000000; stroke-width: 0.6"/>
      </g>
     </g>
    </g>
    <g id="xtick_18">
     <g id="line2d_18">
      <g>
       <use xlink:href="#mf557906e02" x="186.472586" y="167.825064" style="stroke: #000000; stroke-width: 0.6"/>
      </g>
     </g>
    </g>
    <g id="xtick_19">
     <g id="line2d_19">
      <g>
       <use xlink:href="#mf557906e02" x="199.915057" y="167.825064" style="stroke: #000000; stroke-width: 0.6"/>
      </g>
     </g>
    </g>
    <g id="xtick_20">
     <g id="line2d_20">
      <g>
       <use xlink:href="#mf557906e02" x="213.357529" y="167.825064" style="stroke: #000000; stroke-width: 0.6"/>
      </g>
     </g>
    </g>
    <g id="xtick_21">
     <g id="line2d_21">
      <g>
       <use xlink:href="#mf557906e02" x="240.242471" y="167.825064" style="stroke: #000000; stroke-width: 0.6"/>
      </g>
     </g>
    </g>
    <g id="xtick_22">
     <g id="line2d_22">
      <g>
       <use xlink:href="#mf557906e02" x="253.684943" y="167.825064" style="stroke: #000000; stroke-width: 0.6"/>
      </g>
     </g>
    </g>
    <g id="xtick_23">
     <g id="line2d_23">
      <g>
       <use xlink:href="#mf557906e02" x="267.127414" y="167.825064" style="stroke: #000000; stroke-width: 0.6"/>
      </g>
     </g>
    </g>
    <g id="xtick_24">
     <g id="line2d_24">
      <g>
       <use xlink:href="#mf557906e02" x="280.569885" y="167.825064" style="stroke: #000000; stroke-width: 0.6"/>
      </g>
     </g>
    </g>
    <g id="xtick_25">
     <g id="line2d_25">
      <g>
       <use xlink:href="#mf557906e02" x="307.454828" y="167.825064" style="stroke: #000000; stroke-width: 0.6"/>
      </g>
     </g>
    </g>
    <g id="xtick_26">
     <g id="line2d_26">
      <g>
       <use xlink:href="#mf557906e02" x="320.897299" y="167.825064" style="stroke: #000000; stroke-width: 0.6"/>
      </g>
     </g>
    </g>
    <g id="xtick_27">
     <g id="line2d_27">
      <g>
       <use xlink:href="#mf557906e02" x="334.339771" y="167.825064" style="stroke: #000000; stroke-width: 0.6"/>
      </g>
     </g>
    </g>
    <g id="xtick_28">
     <g id="line2d_28">
      <g>
       <use xlink:href="#mf557906e02" x="347.782242" y="167.825064" style="stroke: #000000; stroke-width: 0.6"/>
      </g>
     </g>
    </g>
    <g id="xtick_29">
     <g id="line2d_29">
      <g>
       <use xlink:href="#mf557906e02" x="374.667185" y="167.825064" style="stroke: #000000; stroke-width: 0.6"/>
      </g>
     </g>
    </g>
    <g id="xtick_30">
     <g id="line2d_30">
      <g>
       <use xlink:href="#mf557906e02" x="388.109656" y="167.825064" style="stroke: #000000; stroke-width: 0.6"/>
      </g>
     </g>
    </g>
    <g id="xtick_31">
     <g id="line2d_31">
      <g>
       <use xlink:href="#mf557906e02" x="401.552128" y="167.825064" style="stroke: #000000; stroke-width: 0.6"/>
      </g>
     </g>
    </g>
    <g id="xtick_32">
     <g id="line2d_32">
      <g>
       <use xlink:href="#mf557906e02" x="414.994599" y="167.825064" style="stroke: #000000; stroke-width: 0.6"/>
      </g>
     </g>
    </g>
    <g id="xtick_33">
     <g id="line2d_33">
      <g>
       <use xlink:href="#mf557906e02" x="441.879542" y="167.825064" style="stroke: #000000; stroke-width: 0.6"/>
      </g>
     </g>
    </g>
   </g>
   <g id="matplotlib.axis_2">
    <g id="ytick_1">
     <g id="line2d_34">
      <defs>
       <path id="mf65d04f5c8" d="M 0 0 
L -3.5 0 
" style="stroke: #000000; stroke-width: 0.8"/>
      </defs>
      <g>
       <use xlink:href="#mf65d04f5c8" x="226.8" y="324.650909" style="stroke: #000000; stroke-width: 0.8"/>
      </g>
     </g>
     <g id="text_7">
      <!-- −1.0 -->
      <g transform="translate(195.517187 328.450128) scale(0.1 -0.1)">
       <defs>
        <path id="DejaVuSans-2e" d="M 684 794 
L 1344 794 
L 1344 0 
L 684 0 
L 684 794 
z
" transform="scale(0.015625)"/>
        <path id="DejaVuSans-30" d="M 2034 4250 
Q 1547 4250 1301 3770 
Q 1056 3291 1056 2328 
Q 1056 1369 1301 889 
Q 1547 409 2034 409 
Q 2525 409 2770 889 
Q 3016 1369 3016 2328 
Q 3016 3291 2770 3770 
Q 2525 4250 2034 4250 
z
M 2034 4750 
Q 2819 4750 3233 4129 
Q 3647 3509 3647 2328 
Q 3647 1150 3233 529 
Q 2819 -91 2034 -91 
Q 1250 -91 836 529 
Q 422 1150 422 2328 
Q 422 3509 836 4129 
Q 1250 4750 2034 4750 
z
" transform="scale(0.015625)"/>
       </defs>
       <use xlink:href="#DejaVuSans-2212"/>
       <use xlink:href="#DejaVuSans-31" x="83.789062"/>
       <use xlink:href="#DejaVuSans-2e" x="147.412109"/>
       <use xlink:href="#DejaVuSans-30" x="179.199219"/>
      </g>
     </g>
    </g>
    <g id="ytick_2">
     <g id="line2d_35">
      <g>
       <use xlink:href="#mf65d04f5c8" x="226.8" y="246.237987" style="stroke: #000000; stroke-width: 0.8"/>
      </g>
     </g>
     <g id="text_8">
      <!-- −0.5 -->
      <g transform="translate(195.517187 250.037205) scale(0.1 -0.1)">
       <defs>
        <path id="DejaVuSans-35" d="M 691 4666 
L 3169 4666 
L 3169 4134 
L 1269 4134 
L 1269 2991 
Q 1406 3038 1543 3061 
Q 1681 3084 1819 3084 
Q 2600 3084 3056 2656 
Q 3513 2228 3513 1497 
Q 3513 744 3044 326 
Q 2575 -91 1722 -91 
Q 1428 -91 1123 -41 
Q 819 9 494 109 
L 494 744 
Q 775 591 1075 516 
Q 1375 441 1709 441 
Q 2250 441 2565 725 
Q 2881 1009 2881 1497 
Q 2881 1984 2565 2268 
Q 2250 2553 1709 2553 
Q 1456 2553 1204 2497 
Q 953 2441 691 2322 
L 691 4666 
z
" transform="scale(0.015625)"/>
       </defs>
       <use xlink:href="#DejaVuSans-2212"/>
       <use xlink:href="#DejaVuSans-30" x="83.789062"/>
       <use xlink:href="#DejaVuSans-2e" x="147.412109"/>
       <use xlink:href="#DejaVuSans-35" x="179.199219"/>
      </g>
     </g>
    </g>
    <g id="ytick_3">
     <g id="line2d_36">
      <g>
       <use xlink:href="#mf65d04f5c8" x="226.8" y="167.825064" style="stroke: #000000; stroke-width: 0.8"/>
      </g>
     </g>
    </g>
    <g id="ytick_4">
     <g id="line2d_37">
      <g>
       <use xlink:href="#mf65d04f5c8" x="226.8" y="89.412141" style="stroke: #000000; stroke-width: 0.8"/>
      </g>
     </g>
     <g id="text_9">
      <!-- 0.5 -->
      <g transform="translate(203.896875 93.21136) scale(0.1 -0.1)">
       <use xlink:href="#DejaVuSans-30"/>
       <use xlink:href="#DejaVuSans-2e" x="63.623047"/>
       <use xlink:href="#DejaVuSans-35" x="95.410156"/>
      </g>
     </g>
    </g>
    <g id="ytick_5">
     <g id="line2d_38">
      <g>
       <use xlink:href="#mf65d04f5c8" x="226.8" y="10.999219" style="stroke: #000000; stroke-width: 0.8"/>
      </g>
     </g>
     <g id="text_10">
      <!-- 1.0 -->
      <g transform="translate(203.896875 14.798438) scale(0.1 -0.1)">
       <use xlink:href="#DejaVuSans-31"/>
       <use xlink:href="#DejaVuSans-2e" x="63.623047"/>
       <use xlink:href="#DejaVuSans-30" x="95.410156"/>
      </g>
     </g>
    </g>
    <g id="ytick_6">
     <g id="line2d_39">
      <defs>
       <path id="mf435552621" d="M 0 0 
L -2 0 
" style="stroke: #000000; stroke-width: 0.6"/>
      </defs>
      <g>
       <use xlink:href="#mf435552621" x="226.8" y="308.968325" style="stroke: #000000; stroke-width: 0.6"/>
      </g>
     </g>
    </g>
    <g id="ytick_7">
     <g id="line2d_40">
      <g>
       <use xlink:href="#mf435552621" x="226.8" y="293.28574" style="stroke: #000000; stroke-width: 0.6"/>
      </g>
     </g>
    </g>
    <g id="ytick_8">
     <g id="line2d_41">
      <g>
       <use xlink:href="#mf435552621" x="226.8" y="277.603156" style="stroke: #000000; stroke-width: 0.6"/>
      </g>
     </g>
    </g>
    <g id="ytick_9">
     <g id="line2d_42">
      <g>
       <use xlink:href="#mf435552621" x="226.8" y="261.920571" style="stroke: #000000; stroke-width: 0.6"/>
      </g>
     </g>
    </g>
    <g id="ytick_10">
     <g id="line2d_43">
      <g>
       <use xlink:href="#mf435552621" x="226.8" y="230.555402" style="stroke: #000000; stroke-width: 0.6"/>
      </g>
     </g>
    </g>
    <g id="ytick_11">
     <g id="line2d_44">
      <g>
       <use xlink:href="#mf435552621" x="226.8" y="214.872818" style="stroke: #000000; stroke-width: 0.6"/>
      </g>
     </g>
    </g>
    <g id="ytick_12">
     <g id="line2d_45">
      <g>
       <use xlink:href="#mf435552621" x="226.8" y="199.190233" style="stroke: #000000; stroke-width: 0.6"/>
      </g>
     </g>
    </g>
    <g id="ytick_13">
     <g id="line2d_46">
      <g>
       <use xlink:href="#mf435552621" x="226.8" y="183.507649" style="stroke: #000000; stroke-width: 0.6"/>
      </g>
     </g>
    </g>
    <g id="ytick_14">
     <g id="line2d_47">
      <g>
       <use xlink:href="#mf435552621" x="226.8" y="152.142479" style="stroke: #000000; stroke-width: 0.6"/>
      </g>
     </g>
    </g>
    <g id="ytick_15">
     <g id="line2d_48">
      <g>
       <use xlink:href="#mf435552621" x="226.8" y="136.459895" style="stroke: #000000; stroke-width: 0.6"/>
      </g>
     </g>
    </g>
    <g id="ytick_16">
     <g id="line2d_49">
      <g>
       <use xlink:href="#mf435552621" x="226.8" y="120.77731" style="stroke: #000000; stroke-width: 0.6"/>
      </g>
     </g>
    </g>
    <g id="ytick_17">
     <g id="line2d_50">
      <g>
       <use xlink:href="#mf435552621" x="226.8" y="105.094726" style="stroke: #000000; stroke-width: 0.6"/>
      </g>
     </g>
    </g>
    <g id="ytick_18">
     <g id="line2d_51">
      <g>
       <use xlink:href="#mf435552621" x="226.8" y="73.729557" style="stroke: #000000; stroke-width: 0.6"/>
      </g>
     </g>
    </g>
    <g id="ytick_19">
     <g id="line2d_52">
      <g>
       <use xlink:href="#mf435552621" x="226.8" y="58.046972" style="stroke: #000000; stroke-width: 0.6"/>
      </g>
     </g>
    </g>
    <g id="ytick_20">
     <g id="line2d_53">
      <g>
       <use xlink:href="#mf435552621" x="226.8" y="42.364388" style="stroke: #000000; stroke-width: 0.6"/>
      </g>
     </g>
    </g>
    <g id="ytick_21">
     <g id="line2d_54">
      <g>
       <use xlink:href="#mf435552621" x="226.8" y="26.681803" style="stroke: #000000; stroke-width: 0.6"/>
      </g>
     </g>
    </g>
   </g>
   <g id="line2d_55">
    <path d="M 15.646154 167.825064 
L 17.17952 167.9474 
L 18.712887 168.31323 
L 20.792591 169.191822 
L 22.685588 170.362051 
L 25.107866 172.345748 
L 26.967676 174.211568 
L 28.928666 176.469129 
L 31.168119 179.365489 
L 33.765692 183.071449 
L 36.045699 186.5501 
L 45.51429 201.413277 
L 47.413249 204.113714 
L 50.769046 208.336156 
L 52.155607 209.824203 
L 54.111974 211.619403 
L 55.553165 212.689422 
L 56.698193 213.373623 
L 57.843222 213.901916 
L 58.843943 214.229913 
L 59.844665 214.428171 
L 61.294607 214.476345 
L 62.843528 214.203231 
L 64.392449 213.582698 
L 65.551372 212.885092 
L 66.710295 211.984053 
L 67.810308 210.938381 
L 68.91032 209.705794 
L 70.97419 206.88686 
L 72.798263 203.847327 
L 74.579939 200.388753 
L 76.326689 196.53935 
L 77.203801 194.439878 
L 78.858079 190.187649 
L 81.75899 181.860272 
L 84.208742 174.044886 
L 87.096519 164.045332 
L 90.631957 150.895695 
L 96.565902 127.587932 
L 102.536889 104.360905 
L 106.489903 90.185249 
L 108.353918 84.054508 
L 110.778263 76.754604 
L 113.136361 70.503198 
L 115.343884 65.51361 
L 117.159807 62.097523 
L 118.936947 59.401244 
L 119.634004 58.52656 
L 120.829108 57.275018 
L 122.024211 56.34484 
L 123.316242 55.710314 
L 124.608274 55.470174 
L 125.431181 55.526341 
L 126.254087 55.747213 
L 127.496813 56.395883 
L 128.354834 57.06662 
L 129.212855 57.920336 
L 130.070876 58.957467 
L 131.789642 61.586831 
L 133.364384 64.639439 
L 134.906419 68.218799 
L 136.589586 72.780973 
L 138.299844 78.099796 
L 140.457481 85.756168 
L 143.051531 96.280392 
L 145.327213 106.606384 
L 147.695419 118.325818 
L 150.067011 130.931036 
L 153.895148 152.747124 
L 158.967745 183.43064 
L 165.315367 222.261401 
L 169.832881 248.410776 
L 172.984231 265.160736 
L 175.878778 279.075459 
L 178.271085 289.305788 
L 179.753224 294.998138 
L 181.756922 301.842046 
L 183.413089 306.714793 
L 184.641414 309.847887 
L 185.869739 312.557169 
L 187.113346 314.856884 
L 188.356953 316.70046 
L 189.586996 318.066787 
L 190.909966 319.02113 
L 191.571451 319.296052 
L 192.374837 319.44744 
L 193.178222 319.39789 
L 194.050769 319.115849 
L 194.923316 318.595912 
L 195.795863 317.838225 
L 196.66841 316.843346 
L 198.208173 314.512325 
L 199.515924 311.961233 
L 200.957849 308.549497 
L 202.533946 304.116619 
L 204.382925 298.007051 
L 206.424675 290.167292 
L 208.403368 281.534939 
L 210.620906 270.736745 
L 212.58086 260.288787 
L 215.790432 241.578094 
L 217.937151 228.127043 
L 221.17958 206.721869 
L 227.254045 164.647048 
L 233.29427 123.052281 
L 237.100482 98.440676 
L 239.358159 84.814621 
L 242.119196 69.398034 
L 244.717784 56.349639 
L 247.132596 45.658728 
L 248.976106 38.509694 
L 250.420608 33.556452 
L 252.178618 28.328858 
L 254.113911 23.624898 
L 255.846791 20.372923 
L 256.680135 19.13739 
L 257.51348 18.117004 
L 258.346825 17.312724 
L 259.106922 16.768112 
L 259.86702 16.404018 
L 260.752043 16.207505 
L 261.637065 16.255249 
L 262.310098 16.454539 
L 262.983131 16.794039 
L 263.901697 17.48238 
L 264.820263 18.428386 
L 265.738829 19.629375 
L 266.657395 21.082182 
L 267.780219 23.194733 
L 269.436005 26.970311 
L 271.434074 32.537056 
L 273.432143 39.153523 
L 275.297899 46.219974 
L 277.16829 54.101565 
L 279.124686 63.126166 
L 281.342078 74.21483 
L 283.921694 88.097337 
L 286.886134 105.084636 
L 291.010821 129.930435 
L 299.750401 183.171191 
L 302.807224 200.709249 
L 306.624347 220.984059 
L 309.27556 233.713252 
L 310.811947 240.501283 
L 313.581215 251.533823 
L 315.147894 257.044156 
L 317.536868 264.368695 
L 319.813445 270.088458 
L 320.865562 272.305346 
L 321.996724 274.38393 
L 323.79927 277.038995 
L 325.142036 278.490582 
L 325.81342 279.048148 
L 326.68357 279.604573 
L 327.55372 279.974315 
L 328.427635 280.159136 
L 329.301551 280.158747 
L 330.11331 279.994255 
L 330.92507 279.673625 
L 331.736298 279.199354 
L 332.547526 278.573645 
L 334.169982 276.878502 
L 335.115148 275.625769 
L 336.060314 274.18406 
L 337.187085 272.2261 
L 339.44595 267.556528 
L 340.954382 263.920878 
L 343.330703 257.43208 
L 345.479044 250.852391 
L 348.221721 241.623824 
L 350.611878 232.973498 
L 354.349975 218.661761 
L 363.482065 182.793129 
L 367.507344 168.041834 
L 370.744032 157.206689 
L 373.345123 149.338853 
L 376.07687 142.001621 
L 377.944984 137.577739 
L 380.491299 132.370871 
L 381.996568 129.75395 
L 383.313913 127.750017 
L 384.631259 126.01504 
L 386.15093 124.347797 
L 387.670601 123.036452 
L 388.920923 122.221193 
L 390.171245 121.639923 
L 391.366466 121.298508 
L 392.652088 121.15902 
L 393.937709 121.248217 
L 395.344886 121.597798 
L 396.860587 122.254734 
L 398.376288 123.1853 
L 400.590823 124.996601 
L 402.405256 126.839382 
L 405.58787 130.726427 
L 407.784867 133.796941 
L 412.140191 140.478851 
L 419.514581 152.101626 
L 422.645175 156.573591 
L 424.30393 158.727704 
L 425.962686 160.699479 
L 428.684894 163.48129 
L 430.38875 164.902757 
L 432.092605 166.057045 
L 433.652311 166.867623 
L 434.912884 167.345042 
L 436.433365 167.704774 
L 437.953846 167.825064 
L 437.953846 167.825064 
" clip-path="url(#p7f34649557)" style="fill: none; stroke: #000000; stroke-linecap: square"/>
   </g>
   <g id="patch_3">
    <path d="M 226.8 325.512239 
L 226.8 10.142707 
" style="fill: none; stroke: #000000; stroke-width: 0.8; stroke-linejoin: miter; stroke-linecap: square"/>
   </g>
   <g id="patch_4">
    <path d="M 7.2 167.825064 
L 446.4 167.825064 
" style="fill: none; stroke: #000000; stroke-width: 0.8; stroke-linejoin: miter; stroke-linecap: square"/>
   </g>
  </g>
 </g>
 <defs>
  <clipPath id="p7f34649557">
   <rect x="7.2" y="10.142707" width="439.2" height="315.369532"/>
  </clipPath>
 </defs>
</svg>
