<?xml version="1.0" encoding="utf-8" standalone="no"?>
<!DOCTYPE svg PUBLIC "-//W3C//DTD SVG 1.1//EN"
  "http://www.w3.org/Graphics/SVG/1.1/DTD/svg11.dtd">
<svg xmlns:xlink="http://www.w3.org/1999/xlink" width="338.4pt" height="338.4pt" viewBox="0 0 338.4 338.4" xmlns="http://www.w3.org/2000/svg" version="1.1">
 <metadata>
  <rdf:RDF xmlns:dc="http://purl.org/dc/elements/1.1/" xmlns:cc="http://creativecommons.org/ns#" xmlns:rdf="http://www.w3.org/1999/02/22-rdf-syntax-ns#">
   <cc:Work>
    <dc:type rdf:resource="http://purl.org/dc/dcmitype/StillImage"/>
    <dc:date>2025-08-21T01:25:05.035906</dc:date>
    <dc:format>image/svg+xml</dc:format>
    <dc:creator>
     <cc:Agent>
      <dc:title>Matplotlib v3.8.0, https://matplotlib.org/</dc:title>
     </cc:Agent>
    </dc:creator>
   </cc:Work>
  </rdf:RDF>
 </metadata>
 <defs>
  <style type="text/css">*{stroke-linejoin: round; stroke-linecap: butt}</style>
 </defs>
 <g id="figure_1">
  <g id="patch_1">
   <path d="M -0 338.4 
L 338.4 338.4 
L 338.4 0 
L -0 0 
z
" style="fill: #ffffff"/>
  </g>
  <g id="axes_1">
   <g id="patch_2">
    <path d="M 7.2 331.2 
L 331.2 331.2 
L 331.2 7.2 
L 7.2 7.2 
z
" style="fill: #ffffff"/>
   </g>
   <g id="patch_3">
    <path d="M 13.430769 324.969231 
L 13.430769 13.430769 
L 324.969231 13.430769 
L 324.969231 324.969231 
L 13.430769 324.969231 
z
" clip-path="url(#pe19c523721)" style="fill: none; stroke: #000000; stroke-linejoin: miter"/>
   </g>
   <g id="patch_4">
    <path d="M 200.353846 138.046154 
L 200.348888 138.832144 
L 200.343931 139.157689 
L 200.338973 139.407474 
L 200.334015 139.61804 
L 200.329058 139.803541 
L 200.3241 139.971236 
L 200.319142 140.125439 
L 200.314185 140.268959 
L 200.309227 140.403748 
L 200.304269 140.531227 
L 200.299312 140.652469 
L 200.294354 140.768307 
L 200.289396 140.879404 
L 200.284438 140.986298 
L 200.279481 141.089431 
L 200.274523 141.189175 
L 200.264608 141.379698 
L 200.254692 141.559878 
L 200.244777 141.731232 
L 200.234862 141.89494 
L 200.224946 142.051938 
L 200.215031 142.202987 
L 200.205115 142.348713 
L 200.1952 142.489641 
L 200.180631 142.688915 
L 200.166063 142.879938 
L 200.151494 143.06365 
L 200.136925 143.240829 
L 200.122356 143.412122 
L 200.107788 143.578074 
L 200.093219 143.739154 
L 200.07865 143.895764 
L 200.057614 144.114708 
L 200.036578 144.325953 
L 200.015541 144.530252 
L 199.994505 144.72824 
L 199.973469 144.920465 
L 199.952433 145.107396 
L 199.931397 145.289443 
L 199.91036 145.466967 
L 199.88598 145.667465 
L 199.8616 145.862747 
L 199.83722 146.053193 
L 199.81284 146.23914 
L 199.78846 146.42089 
L 199.764079 146.598708 
L 199.739699 146.772835 
L 199.715319 146.943489 
L 199.676469 147.208726 
L 199.63762 147.466337 
L 199.600759 147.704266 
L 199.563898 147.936335 
L 199.527037 148.162948 
L 199.490176 148.384464 
L 199.453315 148.601203 
L 199.416454 148.813454 
L 199.379593 149.021477 
L 199.342732 149.225509 
L 199.290544 149.507971 
L 199.238355 149.783405 
L 199.18955 150.035051 
L 199.140745 150.281327 
L 199.09194 150.522553 
L 199.043135 150.759015 
L 198.976865 151.07293 
L 198.910596 151.379127 
L 198.849437 151.655315 
L 198.788278 151.925739 
L 198.734822 152.15764 
L 198.681367 152.385591 
L 198.627911 152.609779 
L 198.574456 152.830375 
L 198.525013 153.03135 
L 198.462804 153.280226 
L 198.400594 153.52485 
L 198.338385 153.765421 
L 198.276176 154.002124 
L 198.162564 154.424975 
L 198.071427 154.755883 
L 198.005494 154.990948 
L 197.939561 155.222543 
L 197.873627 155.450808 
L 197.807694 155.67587 
L 197.716593 155.981794 
L 197.625493 156.282132 
L 197.549356 156.52905 
L 197.473219 156.772403 
L 197.333655 157.209681 
L 197.263792 157.424487 
L 197.150294 157.767949 
L 197.036795 158.104888 
L 196.951226 158.354797 
L 196.820677 158.729576 
L 196.728576 158.989454 
L 196.636476 159.245746 
L 196.509101 159.594524 
L 196.365869 159.979219 
L 196.222637 160.356362 
L 196.183611 160.45786 
L 196.078144 160.729555 
L 195.972676 160.997548 
L 195.883841 161.220502 
L 195.754176 161.54153 
L 195.62451 161.857525 
L 195.528658 162.087997 
L 195.349628 162.511646 
L 195.233397 162.782115 
L 195.117165 163.049117 
L 195.04768 163.207126 
L 194.820839 163.714883 
L 194.781393 163.801952 
L 194.611264 164.173473 
L 194.370688 164.688138 
L 194.275613 164.888218 
L 194.112628 165.22701 
L 194.011143 165.435358 
L 193.782643 165.897406 
L 193.552526 166.353242 
L 193.491271 166.473033 
L 193.297587 166.847676 
L 193.173323 167.084814 
L 192.946155 167.512039 
L 192.890563 167.615383 
L 192.717864 167.933486 
L 192.51104 168.30875 
L 192.427999 168.457722 
L 192.143213 168.961469 
L 192.03059 169.157715 
L 191.938557 169.316865 
L 191.807086 169.542355 
L 191.653874 169.802426 
L 191.499292 170.06194 
L 191.303391 170.386766 
L 191.099806 170.719668 
L 190.995509 170.888418 
L 190.825862 171.160365 
L 190.577164 171.553489 
L 190.476676 171.710509 
L 190.263213 172.040672 
L 190.126861 172.249201 
L 189.961606 172.499519 
L 189.827758 172.70036 
L 189.690243 172.904963 
L 189.484335 173.208094 
L 189.405282 173.323461 
L 189.314541 173.455207 
L 189.018028 173.880727 
L 188.978596 173.93675 
L 188.765832 174.236799 
L 188.680514 174.356071 
L 188.494459 174.614133 
L 188.272985 174.917742 
L 188.162034 175.068405 
L 187.997596 175.289971 
L 187.894862 175.427364 
L 187.649847 175.751885 
L 187.531725 175.906777 
L 187.405862 176.070722 
L 187.218235 176.313045 
L 187.002305 176.588906 
L 186.869011 176.757614 
L 186.762998 176.890943 
L 186.579037 177.120541 
L 186.365553 177.384229 
L 186.227502 177.553194 
L 186.131044 177.670538 
L 185.908654 177.93888 
L 185.726445 178.156481 
L 185.596887 178.309987 
L 185.545819 178.37022 
L 185.263164 178.700828 
L 185.142114 178.840995 
L 185.088106 178.903261 
L 184.848278 179.177768 
L 184.70682 179.338172 
L 184.592483 179.467015 
L 184.444292 179.632946 
L 184.302637 179.79045 
L 184.123998 179.987551 
L 183.936263 180.192878 
L 183.728125 180.418386 
L 183.620797 180.533804 
L 183.433713 180.7336 
L 183.350962 180.821414 
L 183.123566 181.060981 
L 182.978005 181.213008 
L 182.83916 181.357066 
L 182.699542 181.500997 
L 182.45307 181.752838 
L 182.41291 181.793605 
L 182.264891 181.943213 
L 182.074589 182.134082 
L 181.874116 182.333378 
L 181.800765 182.405849 
L 181.576794 182.625655 
L 181.397369 182.800156 
L 181.318219 182.876689 
L 181.140295 183.047749 
L 180.872974 183.302225 
L 180.799635 183.371515 
L 180.685565 183.478842 
L 180.538704 183.616229 
L 180.346209 183.794967 
L 180.221848 183.90964 
L 179.981 184.129961 
L 179.778837 184.313115 
L 179.695794 184.387885 
L 179.556678 184.512538 
L 179.324047 184.719316 
L 179.232395 184.800213 
L 178.987486 185.014823 
L 178.873041 185.114336 
L 178.693466 185.269502 
L 178.545325 185.39661 
L 178.451684 185.476542 
L 178.210478 185.680969 
L 178.175078 185.710794 
L 177.930727 185.915448 
L 177.785788 186.03584 
L 177.586973 186.199784 
L 177.436046 186.323322 
L 177.355612 186.388837 
L 177.197511 186.516967 
L 176.987749 186.685651 
L 176.885344 186.767462 
L 176.716183 186.901832 
L 176.614819 186.981893 
L 176.439911 187.119242 
L 176.306585 187.223261 
L 176.072614 187.404404 
L 175.998786 187.461194 
L 175.826217 187.593256 
L 175.579582 187.78035 
L 175.388045 187.924322 
L 175.262511 188.018059 
L 175.154992 188.097953 
L 175.0277 188.192079 
L 174.858217 188.316628 
L 174.680909 188.445987 
L 174.449398 188.613459 
L 174.301537 188.719576 
L 174.242821 188.761534 
L 174.066188 188.887138 
L 173.932464 188.981616 
L 173.784642 189.085443 
L 173.57764 189.229765 
L 173.462075 189.309797 
L 173.259995 189.448819 
L 173.074231 189.575585 
L 172.968636 189.647208 
L 172.85917 189.721123 
L 172.702403 189.826391 
L 172.55819 189.922621 
L 172.358708 190.05478 
L 172.228751 190.140286 
L 172.060199 190.250495 
L 171.802857 190.417267 
L 171.730144 190.464064 
L 171.511889 190.603675 
L 171.315757 190.728048 
L 171.259147 190.763756 
L 171.116527 190.85334 
L 170.919888 190.975976 
L 170.760131 191.074865 
L 170.659095 191.137063 
L 170.458793 191.259586 
L 170.238388 191.393212 
L 170.179698 191.428584 
L 170.057516 191.501941 
L 169.789103 191.661764 
L 169.737115 191.69251 
L 169.441811 191.865864 
L 169.355321 191.916225 
L 169.2 192.006198 
L 169.2 192.006198 
L 169.39206 192.116629 
L 169.564705 192.215124 
L 169.642672 192.259365 
L 169.786768 192.340741 
L 169.945468 192.429783 
L 170.100698 192.516288 
L 170.366058 192.662828 
L 170.473129 192.72148 
L 170.596744 192.788856 
L 170.791803 192.894436 
L 170.937322 192.972619 
L 171.038322 193.026592 
L 171.211843 193.118762 
L 171.391284 193.213341 
L 171.522993 193.282287 
L 171.642595 193.344549 
L 171.90237 193.478653 
L 172.059031 193.558782 
L 172.155828 193.608014 
L 172.304002 193.682965 
L 172.533926 193.798289 
L 172.686457 193.87414 
L 172.765185 193.913088 
L 172.975651 194.016529 
L 173.16871 194.110553 
L 173.250652 194.150212 
L 173.396254 194.220318 
L 173.544714 194.291322 
L 173.719532 194.374316 
L 173.923334 194.470232 
L 174.070758 194.539054 
L 174.259136 194.626315 
L 174.29339 194.6421 
L 174.587997 194.776829 
L 174.733606 194.842736 
L 174.857752 194.898574 
L 174.965395 194.946726 
L 175.204338 195.052739 
L 175.37713 195.128657 
L 175.435842 195.154311 
L 175.676156 195.258566 
L 175.850473 195.333441 
L 175.939249 195.371331 
L 176.080232 195.431171 
L 176.243607 195.500004 
L 176.390935 195.561608 
L 176.578714 195.639484 
L 176.671823 195.677832 
L 176.925377 195.781371 
L 177.059964 195.835803 
L 177.111776 195.856661 
L 177.352421 195.952829 
L 177.462221 195.996322 
L 177.585104 196.044713 
L 177.767126 196.115841 
L 178.035514 196.21952 
L 178.168385 196.270323 
L 178.294894 196.31837 
L 178.470266 196.384455 
L 178.546403 196.412959 
L 178.695902 196.468598 
L 178.839979 196.521807 
L 179.063836 196.603681 
L 179.165367 196.640495 
L 179.445242 196.740948 
L 179.540871 196.774925 
L 179.734022 196.843019 
L 179.891699 196.898079 
L 180.021662 196.943105 
L 180.230927 197.014931 
L 180.37114 197.062592 
L 180.45087 197.089528 
L 180.686006 197.16827 
L 180.729058 197.182574 
L 180.961342 197.259153 
L 181.065823 197.293269 
L 181.180064 197.330339 
L 181.44178 197.414346 
L 181.638352 197.476607 
L 181.667743 197.485855 
L 181.852979 197.543771 
L 182.07281 197.611683 
L 182.255764 197.667525 
L 182.294847 197.679375 
L 182.444829 197.724589 
L 182.667102 197.790841 
L 182.752427 197.816034 
L 183.053495 197.903872 
L 183.114551 197.921484 
L 183.324836 197.98163 
L 183.442935 198.015059 
L 183.535667 198.041132 
L 183.774411 198.107546 
L 183.914409 198.146016 
L 184.089743 198.193701 
L 184.27179 198.242632 
L 184.433083 198.285492 
L 184.603986 198.330401 
L 184.652889 198.343156 
L 184.88642 198.403484 
L 185.012354 198.435616 
L 185.246246 198.494553 
L 185.401929 198.533249 
L 185.500874 198.557622 
L 185.655833 198.595447 
L 185.850953 198.642479 
L 185.944684 198.664836 
L 186.168213 198.717534 
L 186.256375 198.738079 
L 186.427471 198.777567 
L 186.511502 198.796776 
L 186.714433 198.842658 
L 186.861303 198.875421 
L 187.065182 198.920286 
L 187.208396 198.951373 
L 187.386979 198.989643 
L 187.441245 199.001164 
L 187.662829 199.047683 
L 187.901909 199.096934 
L 188.037541 199.124441 
L 188.128962 199.142805 
L 188.224858 199.161914 
L 188.519006 199.219555 
L 188.641584 199.243143 
L 188.76538 199.266706 
L 188.868351 199.286107 
L 189.120772 199.332911 
L 189.267049 199.359541 
L 189.345443 199.373665 
L 189.608679 199.420333 
L 189.744212 199.443908 
L 189.87452 199.466283 
L 190.096456 199.503737 
L 190.213686 199.523188 
L 190.338223 199.543599 
L 190.51445 199.572041 
L 190.577341 199.582066 
L 190.755618 199.610125 
L 191.012765 199.649666 
L 191.135785 199.668194 
L 191.195613 199.677114 
L 191.361439 199.701528 
L 191.587907 199.734134 
L 191.722814 199.753153 
L 191.823474 199.767149 
L 192.048913 199.797887 
L 192.277684 199.828223 
L 192.311152 199.832589 
L 192.529241 199.860586 
L 192.675342 199.878905 
L 192.809703 199.895442 
L 192.970115 199.914797 
L 193.22605 199.944805 
L 193.262082 199.948944 
L 193.535208 199.979624 
L 193.553237 199.981606 
L 193.738683 200.001687 
L 193.889286 200.017583 
L 194.044057 200.033532 
L 194.293129 200.05838 
L 194.446972 200.073223 
L 194.500623 200.078309 
L 194.738947 200.100335 
L 194.838788 200.109288 
L 195.042711 200.127072 
L 195.232293 200.142999 
L 195.409113 200.157329 
L 195.544282 200.167942 
L 195.659393 200.176747 
L 195.820794 200.188731 
L 195.983052 200.200355 
L 196.171273 200.213304 
L 196.32616 200.223531 
L 196.364256 200.225987 
L 196.588309 200.239958 
L 196.739198 200.24891 
L 196.883668 200.257137 
L 197.030995 200.26518 
L 197.193352 200.273638 
L 197.437645 200.285565 
L 197.507395 200.288794 
L 197.689979 200.296875 
L 197.803827 200.301643 
L 197.999673 200.309356 
L 198.215522 200.317143 
L 198.280778 200.31935 
L 198.535887 200.327319 
L 198.686998 200.331546 
L 198.810299 200.334724 
L 198.973198 200.338548 
L 199.048835 200.340178 
L 199.186706 200.342914 
L 199.389901 200.346389 
L 199.616028 200.349478 
L 199.690217 200.350312 
L 199.84702 200.351785 
L 199.993868 200.352806 
L 200.215126 200.353692 
L 200.353846 200.353846 
z
" clip-path="url(#pe19c523721)" style="fill: #808080; opacity: 0.5"/>
   </g>
   <g id="patch_5">
    <path d="M 231.507692 200.353846 
L 231.504367 199.710082 
L 231.501041 199.443438 
L 231.497715 199.238843 
L 231.494389 199.066369 
L 231.491063 198.914422 
L 231.487738 198.777057 
L 231.484412 198.650742 
L 231.481086 198.533175 
L 231.47776 198.422759 
L 231.474434 198.318329 
L 231.471109 198.219006 
L 231.467783 198.124108 
L 231.464457 198.033092 
L 231.461131 197.945518 
L 231.45448 197.779304 
L 231.447828 197.623205 
L 231.441177 197.475574 
L 231.434525 197.335169 
L 231.427874 197.201025 
L 231.421222 197.072374 
L 231.41457 196.948592 
L 231.407919 196.829168 
L 231.401267 196.713671 
L 231.388896 196.508111 
L 231.376526 196.313032 
L 231.364155 196.126983 
L 231.351784 195.948819 
L 231.339413 195.77762 
L 231.327042 195.612631 
L 231.314672 195.453225 
L 231.302301 195.298873 
L 231.28993 195.149126 
L 231.277559 195.003597 
L 231.265188 194.861951 
L 231.252818 194.723895 
L 231.228076 194.45755 
L 231.203334 194.202826 
L 231.187475 194.045006 
L 231.171616 193.891078 
L 231.155756 193.74077 
L 231.139897 193.593841 
L 231.108178 193.309276 
L 231.07646 193.035906 
L 231.042457 192.753914 
L 231.008455 192.482164 
L 230.974453 192.219629 
L 230.940451 191.965445 
L 230.906448 191.718874 
L 230.872446 191.479281 
L 230.838444 191.246116 
L 230.804442 191.018896 
L 230.772339 190.809446 
L 230.740237 190.604601 
L 230.691506 190.301819 
L 230.642775 190.008124 
L 230.594044 189.722763 
L 230.545313 189.445082 
L 230.490068 189.138855 
L 230.434824 188.841035 
L 230.372777 188.515775 
L 230.310729 188.199532 
L 230.248681 187.891621 
L 230.186633 187.591438 
L 230.159477 187.46235 
L 230.112131 187.240464 
L 230.064785 187.022438 
L 230.017439 186.808086 
L 229.970093 186.597237 
L 229.909288 186.331334 
L 229.848483 186.07064 
L 229.787678 185.814873 
L 229.726873 185.563778 
L 229.628605 185.167265 
L 229.534107 184.796081 
L 229.439609 184.43411 
L 229.350045 184.098982 
L 229.260481 183.771109 
L 229.192529 183.526934 
L 229.124578 183.286523 
L 229.047153 183.016985 
L 228.969729 182.751914 
L 228.863876 182.396386 
L 228.725054 181.941448 
L 228.5923 181.517624 
L 228.459545 181.104044 
L 228.339455 180.738205 
L 228.238453 180.436275 
L 228.099507 180.029068 
L 227.983401 179.695668 
L 227.832018 179.269849 
L 227.680636 178.853526 
L 227.669275 178.822649 
L 227.527368 178.441142 
L 227.385462 178.067067 
L 227.312723 177.878083 
L 227.121638 177.390127 
L 227.012575 177.11692 
L 226.906426 176.854551 
L 226.800278 176.595553 
L 226.60903 176.137079 
L 226.424311 175.70376 
L 226.353978 175.541121 
L 226.232705 175.263627 
L 226.025025 174.796753 
L 225.905398 174.532414 
L 225.774904 174.247741 
L 225.644411 173.966785 
L 225.563434 173.794256 
L 225.346714 173.339128 
L 225.222479 173.082426 
L 225.044941 172.720694 
L 224.990085 172.61011 
L 224.789527 172.210409 
L 224.6102 171.858965 
L 224.448679 171.547041 
L 224.308485 171.279744 
L 224.221879 171.116176 
L 224.045834 170.78726 
L 223.809296 170.352624 
L 223.754988 170.253982 
L 223.601942 169.978244 
L 223.448897 169.705751 
L 223.41411 169.644259 
L 223.240653 169.340037 
L 223.123017 169.135955 
L 222.83772 168.648271 
L 222.752251 168.504122 
L 222.644573 168.323764 
L 222.389152 167.901378 
L 222.295555 167.74847 
L 222.042031 167.339178 
L 222.020947 167.305456 
L 221.77427 166.914428 
L 221.667942 166.747841 
L 221.559975 166.579868 
L 221.269964 166.134446 
L 221.184817 166.005232 
L 220.962203 165.670668 
L 220.849181 165.502582 
L 220.644278 165.200827 
L 220.626831 165.175307 
L 220.423211 164.879473 
L 220.179396 164.529976 
L 220.061064 164.36217 
L 219.860666 164.080641 
L 219.774833 163.961061 
L 219.627188 163.756752 
L 219.464551 163.533696 
L 219.328536 163.348733 
L 219.128045 163.078669 
L 219.011782 162.923446 
L 218.877281 162.74512 
L 218.60838 162.392543 
L 218.499935 162.251813 
L 218.347048 162.05481 
L 218.254759 161.936674 
L 217.972399 161.578834 
L 217.810229 161.375723 
L 217.668047 161.199064 
L 217.533478 161.033071 
L 217.361122 160.822152 
L 217.248432 160.685261 
L 217.161461 160.580152 
L 216.999913 160.386148 
L 216.746041 160.084472 
L 216.623329 159.940032 
L 216.514448 159.812613 
L 216.385714 159.662854 
L 216.184975 159.431228 
L 215.997358 159.216809 
L 215.851913 159.051939 
L 215.684512 158.863622 
L 215.50401 158.662274 
L 215.41676 158.565575 
L 215.164863 158.28866 
L 215.127168 158.247508 
L 214.962352 158.068439 
L 214.744719 157.83412 
L 214.54224 157.618267 
L 214.478632 157.550879 
L 214.318712 157.38234 
L 214.103492 157.157493 
L 213.94155 156.98978 
L 213.739134 156.781905 
L 213.730829 156.773417 
L 213.550881 156.590301 
L 213.326495 156.364063 
L 213.224631 156.262119 
L 213.059934 156.098284 
L 212.914657 155.954778 
L 212.776718 155.819386 
L 212.582134 155.629815 
L 212.348404 155.404277 
L 212.202596 155.264765 
L 212.037931 155.108292 
L 211.954783 155.029713 
L 211.795014 154.879532 
L 211.653793 154.747663 
L 211.422059 154.53304 
L 211.368224 154.483492 
L 211.232371 154.358974 
L 211.024244 154.169637 
L 210.909985 154.066422 
L 210.689513 153.8687 
L 210.600784 153.789658 
L 210.323118 153.544256 
L 210.249521 153.479703 
L 210.11136 153.359069 
L 209.844953 153.128468 
L 209.793585 153.084307 
L 209.625608 152.94057 
L 209.417128 152.763604 
L 209.282173 152.649885 
L 209.127914 152.520696 
L 208.956414 152.37806 
L 208.854058 152.293424 
L 208.632123 152.111166 
L 208.542112 152.037734 
L 208.399598 151.922038 
L 208.183392 151.747842 
L 208.021425 151.618382 
L 207.81908 151.457883 
L 207.751078 151.40425 
L 207.492041 151.201348 
L 207.405005 151.133666 
L 207.185052 150.963722 
L 207.148002 150.93525 
L 206.959491 150.791064 
L 206.819085 150.684409 
L 206.637447 150.54736 
L 206.452672 150.409007 
L 206.24666 150.256007 
L 206.135067 150.173677 
L 205.946494 150.035423 
L 205.803015 149.930956 
L 205.700383 149.856613 
L 205.573972 149.765481 
L 205.403936 149.643655 
L 205.22564 149.516834 
L 205.036587 149.383389 
L 204.971681 149.337816 
L 204.758616 149.189079 
L 204.578804 149.064581 
L 204.370297 148.921378 
L 204.261808 148.84736 
L 204.038561 148.696096 
L 204.024701 148.686751 
L 203.778739 148.521816 
L 203.621117 148.417007 
L 203.451122 148.304743 
L 203.317572 148.217105 
L 203.124844 148.091494 
L 203.032593 148.031727 
L 202.795117 147.878932 
L 202.64804 147.785061 
L 202.57617 147.739401 
L 202.452789 147.661337 
L 202.168969 147.483291 
L 202.020031 147.390707 
L 201.848259 147.284649 
L 201.729372 147.211693 
L 201.581878 147.121689 
L 201.385301 147.002605 
L 201.25741 146.925661 
L 201.198598 146.890417 
L 200.951604 146.74336 
L 200.77771 146.640749 
L 200.651286 146.566625 
L 200.487593 146.471242 
L 200.353846 146.393802 
L 200.353846 200.353846 
L 200.51096 200.353648 
L 200.716789 200.352789 
L 200.824384 200.352069 
L 201.009434 200.350397 
L 201.191195 200.348219 
L 201.348256 200.34591 
L 201.478241 200.3437 
L 201.644686 200.340473 
L 201.815459 200.336701 
L 201.904868 200.334538 
L 202.141614 200.328193 
L 202.183494 200.326977 
L 202.390565 200.320549 
L 202.470003 200.3179 
L 202.629552 200.312274 
L 202.923653 200.300829 
L 202.965934 200.29907 
L 203.159106 200.290664 
L 203.271887 200.285479 
L 203.417717 200.27847 
L 203.628507 200.267735 
L 203.808453 200.258003 
L 203.992239 200.247525 
L 204.175458 200.236537 
L 204.209932 200.234409 
L 204.447692 200.21921 
L 204.653232 200.205335 
L 204.780565 200.196397 
L 204.854681 200.191073 
L 205.023805 200.178593 
L 205.263129 200.160142 
L 205.372228 200.151422 
L 205.561389 200.135847 
L 205.620949 200.130823 
L 205.841209 200.111743 
L 205.929599 200.103865 
L 206.195985 200.079354 
L 206.306501 200.068847 
L 206.479515 200.051998 
L 206.612754 200.03869 
L 206.83792 200.015544 
L 206.858874 200.013348 
L 207.033283 199.994791 
L 207.177594 199.979061 
L 207.323624 199.962797 
L 207.513447 199.941135 
L 207.706382 199.918512 
L 207.847123 199.901625 
L 208.064466 199.874908 
L 208.146342 199.864642 
L 208.330178 199.841191 
L 208.46805 199.823239 
L 208.58086 199.808317 
L 208.756155 199.784713 
L 209.016362 199.748742 
L 209.198566 199.722887 
L 209.270001 199.712601 
L 209.403668 199.693127 
L 209.644754 199.657253 
L 209.695233 199.64962 
L 209.95977 199.608925 
L 210.023782 199.598902 
L 210.242771 199.5641 
L 210.41643 199.535933 
L 210.577498 199.509358 
L 210.648485 199.497508 
L 210.785791 199.474348 
L 210.936996 199.448478 
L 211.158333 199.409918 
L 211.260939 199.391764 
L 211.545713 199.340449 
L 211.584731 199.333312 
L 211.755 199.301865 
L 211.86768 199.280786 
L 212.12075 199.23266 
L 212.200041 199.217358 
L 212.335557 199.190959 
L 212.518571 199.154811 
L 212.797993 199.098523 
L 212.955661 199.066173 
L 212.970758 199.063054 
L 213.131131 199.029672 
L 213.420842 198.968253 
L 213.514023 198.948192 
L 213.623224 198.924493 
L 213.789267 198.888064 
L 213.905563 198.862266 
L 214.107781 198.816852 
L 214.337881 198.764317 
L 214.476519 198.73222 
L 214.595914 198.704311 
L 214.728912 198.67293 
L 214.869313 198.639468 
L 215.108306 198.581717 
L 215.282739 198.538936 
L 215.399163 198.510085 
L 215.494913 198.486179 
L 215.656218 198.445541 
L 215.794867 198.410244 
L 216.004287 198.356288 
L 216.183402 198.309523 
L 216.372634 198.259499 
L 216.459758 198.236254 
L 216.606346 198.196838 
L 216.771902 198.15186 
L 216.985215 198.093186 
L 217.050849 198.074969 
L 217.196027 198.034398 
L 217.43378 197.967138 
L 217.536398 197.937793 
L 217.800674 197.861342 
L 217.870142 197.841036 
L 218.079915 197.779185 
L 218.224704 197.736027 
L 218.349595 197.698493 
L 218.571921 197.63097 
L 218.731361 197.581987 
L 218.763019 197.572206 
L 218.926005 197.521556 
L 219.067127 197.477304 
L 219.351396 197.387047 
L 219.428422 197.362333 
L 219.655187 197.288932 
L 219.695405 197.275814 
L 219.953789 197.190813 
L 220.146505 197.126601 
L 220.193032 197.110993 
L 220.458912 197.02102 
L 220.476721 197.014946 
L 220.748935 196.921351 
L 220.799771 196.903716 
L 221.055508 196.814255 
L 221.228935 196.752876 
L 221.314587 196.722349 
L 221.422623 196.683643 
L 221.58936 196.623466 
L 221.827258 196.536675 
L 222.015024 196.467399 
L 222.085561 196.441197 
L 222.326545 196.350948 
L 222.369039 196.334916 
L 222.661519 196.223609 
L 222.774397 196.180201 
L 222.960762 196.107982 
L 223.065121 196.067241 
L 223.249058 195.994905 
L 223.301171 195.974289 
L 223.597529 195.856012 
L 223.609097 195.85136 
L 223.831994 195.761187 
L 223.935486 195.718979 
L 224.173003 195.62129 
L 224.358404 195.544239 
L 224.528443 195.472954 
L 224.564335 195.457832 
L 224.701816 195.399662 
L 224.940648 195.297684 
L 225.122833 195.219101 
L 225.218649 195.177495 
L 225.444964 195.078464 
L 225.603238 195.008569 
L 225.781559 194.929191 
L 225.827197 194.908768 
L 225.950995 194.853147 
L 226.170631 194.753668 
L 226.353402 194.670103 
L 226.485501 194.609261 
L 226.645478 194.535079 
L 226.82589 194.450758 
L 226.931979 194.400846 
L 227.169468 194.288228 
L 227.20538 194.271092 
L 227.38313 194.185857 
L 227.623108 194.069683 
L 227.688888 194.037618 
L 227.908837 193.929702 
L 228.13514 193.817547 
L 228.164838 193.802743 
L 228.344794 193.712619 
L 228.585811 193.590773 
L 228.663216 193.551362 
L 228.798266 193.482275 
L 229.04426 193.355364 
L 229.189826 193.279611 
L 229.240002 193.253387 
L 229.539112 193.095847 
L 229.691116 193.014991 
L 229.810822 192.950936 
L 230.007834 192.844781 
L 230.045088 192.824605 
L 230.253936 192.710888 
L 230.485878 192.583381 
L 230.599158 192.52064 
L 230.720876 192.452882 
L 230.811376 192.402271 
L 231.104362 192.23706 
L 231.163472 192.203475 
L 231.29514 192.128358 
L 231.507692 192.006198 
z
" clip-path="url(#pe19c523721)" style="fill: #808080; opacity: 0.5"/>
   </g>
   <g id="matplotlib.axis_1"/>
   <g id="matplotlib.axis_2"/>
   <g id="line2d_1">
    <path d="M 169.2 192.006198 
L 172.533926 193.798289 
L 175.939249 195.371331 
L 179.445242 196.740948 
L 182.752427 197.816034 
L 186.427471 198.777567 
L 190.096456 199.503737 
L 193.738683 200.001687 
L 197.507395 200.288794 
L 200.353846 200.353846 
L 200.353846 200.353846 
" clip-path="url(#pe19c523721)" style="fill: none; stroke: #ff0000; stroke-linecap: square"/>
   </g>
   <g id="line2d_2">
    <path d="M 200.353846 200.353846 
L 203.992239 200.247525 
L 207.706382 199.918512 
L 211.260939 199.391764 
L 214.869313 198.639468 
L 218.571921 197.63097 
L 222.085561 196.441197 
L 225.603238 195.008569 
L 229.04426 193.355364 
L 231.507692 192.006198 
L 231.507692 192.006198 
" clip-path="url(#pe19c523721)" style="fill: none; stroke: #ff0000; stroke-linecap: square"/>
   </g>
   <g id="text_1">
    <!-- $\Omega$ -->
    <g transform="translate(16.011538 22.420913) scale(0.1 -0.1)">
     <defs>
      <path id="Cmr10-ad" d="M 494 0 
L 281 1063 
L 469 1063 
Q 503 878 531 736 
Q 559 594 604 536 
Q 650 478 750 459 
Q 850 441 1081 441 
L 1472 441 
Q 1378 803 1004 1386 
Q 631 1969 495 2233 
Q 359 2497 359 2913 
Q 359 3397 646 3761 
Q 934 4125 1389 4319 
Q 1844 4513 2309 4513 
Q 2772 4513 3226 4319 
Q 3681 4125 3968 3758 
Q 4256 3391 4256 2913 
Q 4256 2588 4137 2300 
Q 4019 2013 3834 1725 
Q 3650 1438 3436 1084 
Q 3222 731 3144 441 
L 3531 441 
Q 3766 441 3869 459 
Q 3972 478 4015 536 
Q 4059 594 4086 736 
Q 4113 878 4147 1063 
L 4331 1063 
L 4122 0 
L 2988 0 
Q 2925 0 2925 84 
Q 2925 409 3004 721 
Q 3084 1034 3240 1478 
Q 3397 1922 3484 2261 
Q 3572 2600 3572 2913 
Q 3572 3297 3422 3625 
Q 3272 3953 2984 4150 
Q 2697 4347 2309 4347 
Q 1725 4347 1384 3930 
Q 1044 3513 1044 2913 
Q 1047 2584 1122 2293 
Q 1197 2003 1364 1518 
Q 1531 1034 1611 721 
Q 1691 409 1691 84 
Q 1691 0 1625 0 
L 494 0 
z
" transform="scale(0.015625)"/>
     </defs>
     <use xlink:href="#Cmr10-ad" transform="translate(0 0.484375)"/>
    </g>
   </g>
   <g id="text_2">
    <!-- $A$ -->
    <g style="fill: #0000ff" transform="translate(149.873077 271.651683) scale(0.1 -0.1)">
     <defs>
      <path id="Cmmi10-41" d="M 288 0 
Q 225 0 225 84 
Q 250 225 306 225 
Q 566 225 755 328 
Q 944 431 1081 647 
Q 1094 659 1094 659 
L 3378 4513 
Q 3428 4581 3500 4581 
L 3584 4581 
Q 3603 4581 3622 4573 
Q 3641 4566 3655 4548 
Q 3669 4531 3669 4513 
L 4056 378 
Q 4056 350 4084 294 
Q 4147 225 4563 225 
Q 4628 225 4628 141 
Q 4606 56 4592 28 
Q 4578 0 4519 0 
L 2919 0 
Q 2859 0 2859 84 
Q 2894 225 2944 225 
Q 3450 225 3481 397 
L 3384 1453 
L 1806 1453 
L 1294 594 
Q 1247 525 1247 434 
Q 1247 322 1355 273 
Q 1463 225 1594 225 
Q 1656 225 1656 141 
Q 1634 50 1621 25 
Q 1609 0 1550 0 
L 288 0 
z
M 1931 1678 
L 3359 1678 
L 3169 3750 
L 1931 1678 
z
" transform="scale(0.015625)"/>
     </defs>
     <use xlink:href="#Cmmi10-41" transform="translate(0 0.421875)"/>
    </g>
   </g>
   <g id="text_3">
    <!-- $B$ -->
    <g style="fill: #ff0000" transform="translate(227.707692 78.497837) scale(0.1 -0.1)">
     <defs>
      <path id="Cmmi10-42" d="M 319 0 
Q 256 0 256 84 
Q 259 100 268 137 
Q 278 175 293 200 
Q 309 225 341 225 
Q 522 225 656 234 
Q 791 244 884 269 
Q 959 297 1006 441 
L 1881 3956 
Q 1894 4019 1894 4044 
Q 1894 4113 1819 4122 
Q 1697 4147 1356 4147 
Q 1294 4147 1294 4231 
Q 1297 4247 1306 4286 
Q 1316 4325 1333 4348 
Q 1350 4372 1375 4372 
L 3669 4372 
Q 3878 4372 4083 4320 
Q 4288 4269 4461 4156 
Q 4634 4044 4736 3876 
Q 4838 3709 4838 3488 
Q 4838 3247 4714 3040 
Q 4591 2834 4395 2681 
Q 4200 2528 3973 2429 
Q 3747 2331 3500 2284 
Q 3675 2284 3854 2215 
Q 4034 2147 4175 2028 
Q 4316 1909 4402 1743 
Q 4488 1578 4488 1388 
Q 4488 1003 4219 684 
Q 3950 366 3542 183 
Q 3134 0 2753 0 
L 319 0 
z
M 1497 275 
Q 1497 225 1716 225 
L 2631 225 
Q 2944 225 3231 398 
Q 3519 572 3692 859 
Q 3866 1147 3866 1459 
Q 3866 1650 3786 1820 
Q 3706 1991 3556 2089 
Q 3406 2188 3213 2188 
L 1966 2188 
L 1522 416 
Q 1497 328 1497 275 
z
M 2009 2356 
L 2981 2356 
Q 3288 2356 3577 2512 
Q 3866 2669 4048 2937 
Q 4231 3206 4231 3506 
Q 4231 3784 4057 3965 
Q 3884 4147 3609 4147 
L 2731 4147 
Q 2559 4147 2500 4115 
Q 2441 4084 2400 3928 
L 2009 2356 
z
" transform="scale(0.015625)"/>
     </defs>
     <use xlink:href="#Cmmi10-42" transform="translate(0 0.6875)"/>
    </g>
   </g>
   <g id="text_4">
    <!-- $C$ -->
    <g style="fill: #228b22" transform="translate(103.292308 78.497837) scale(0.1 -0.1)">
     <defs>
      <path id="Cmmi10-43" d="M 934 1381 
Q 934 997 1082 705 
Q 1231 413 1514 248 
Q 1797 84 2181 84 
Q 2584 84 2957 290 
Q 3331 497 3595 842 
Q 3859 1188 3956 1575 
Q 3969 1613 4006 1613 
L 4084 1613 
Q 4109 1613 4125 1595 
Q 4141 1578 4141 1556 
Q 4141 1550 4134 1538 
Q 4025 1094 3711 705 
Q 3397 316 2959 87 
Q 2522 -141 2059 -141 
Q 1559 -141 1162 84 
Q 766 309 545 709 
Q 325 1109 325 1613 
Q 325 2150 565 2676 
Q 806 3203 1212 3614 
Q 1619 4025 2139 4269 
Q 2659 4513 3194 4513 
Q 3406 4513 3600 4448 
Q 3794 4384 3959 4253 
Q 4125 4122 4231 3950 
L 4738 4500 
Q 4738 4513 4769 4513 
L 4806 4513 
Q 4831 4513 4847 4491 
Q 4863 4469 4863 4447 
L 4428 2719 
Q 4428 2675 4378 2675 
L 4263 2675 
Q 4213 2675 4213 2747 
Q 4238 2888 4238 3084 
Q 4238 3397 4131 3673 
Q 4025 3950 3801 4119 
Q 3578 4288 3256 4288 
Q 2734 4288 2300 4025 
Q 1866 3763 1564 3336 
Q 1263 2909 1098 2389 
Q 934 1869 934 1381 
z
" transform="scale(0.015625)"/>
     </defs>
     <use xlink:href="#Cmmi10-43" transform="translate(0 0.484375)"/>
    </g>
   </g>
   <g id="patch_6">
    <path d="M 169.2 262.661538 
C 185.724193 262.661538 201.573823 256.096407 213.258192 244.412038 
C 224.942561 232.727669 231.507692 216.878039 231.507692 200.353846 
C 231.507692 183.829653 224.942561 167.980023 213.258192 156.295654 
C 201.573823 144.611285 185.724193 138.046154 169.2 138.046154 
C 152.675807 138.046154 136.826177 144.611285 125.141808 156.295654 
C 113.457439 167.980023 106.892308 183.829653 106.892308 200.353846 
C 106.892308 216.878039 113.457439 232.727669 125.141808 244.412038 
C 136.826177 256.096407 152.675807 262.661538 169.2 262.661538 
L 169.2 262.661538 
z
" clip-path="url(#pe19c523721)" style="fill: none; stroke: #0000ff; stroke-linejoin: miter"/>
   </g>
   <g id="patch_7">
    <path d="M 200.353846 200.353846 
C 216.878039 200.353846 232.727669 193.788715 244.412038 182.104346 
C 256.096407 170.419977 262.661538 154.570347 262.661538 138.046154 
C 262.661538 121.521961 256.096407 105.672331 244.412038 93.987962 
C 232.727669 82.303593 216.878039 75.738462 200.353846 75.738462 
C 183.829653 75.738462 167.980023 82.303593 156.295654 93.987962 
C 144.611285 105.672331 138.046154 121.521961 138.046154 138.046154 
C 138.046154 154.570347 144.611285 170.419977 156.295654 182.104346 
C 167.980023 193.788715 183.829653 200.353846 200.353846 200.353846 
L 200.353846 200.353846 
z
" clip-path="url(#pe19c523721)" style="fill: none; stroke: #ff0000; stroke-linejoin: miter"/>
   </g>
   <g id="patch_8">
    <path d="M 138.046154 200.353846 
C 154.570347 200.353846 170.419977 193.788715 182.104346 182.104346 
C 193.788715 170.419977 200.353846 154.570347 200.353846 138.046154 
C 200.353846 121.521961 193.788715 105.672331 182.104346 93.987962 
C 170.419977 82.303593 154.570347 75.738462 138.046154 75.738462 
C 121.521961 75.738462 105.672331 82.303593 93.987962 93.987962 
C 82.303593 105.672331 75.738462 121.521961 75.738462 138.046154 
C 75.738462 154.570347 82.303593 170.419977 93.987962 182.104346 
C 105.672331 193.788715 121.521961 200.353846 138.046154 200.353846 
L 138.046154 200.353846 
z
" clip-path="url(#pe19c523721)" style="fill: none; stroke: #228b22; stroke-linejoin: miter"/>
   </g>
  </g>
 </g>
 <defs>
  <clipPath id="pe19c523721">
   <rect x="7.2" y="7.2" width="324" height="324"/>
  </clipPath>
 </defs>
</svg>
