<?xml version="1.0" encoding="utf-8" standalone="no"?>
<!DOCTYPE svg PUBLIC "-//W3C//DTD SVG 1.1//EN"
  "http://www.w3.org/Graphics/SVG/1.1/DTD/svg11.dtd">
<svg xmlns:xlink="http://www.w3.org/1999/xlink" width="338.4pt" height="338.4pt" viewBox="0 0 338.4 338.4" xmlns="http://www.w3.org/2000/svg" version="1.1">
 <metadata>
  <rdf:RDF xmlns:dc="http://purl.org/dc/elements/1.1/" xmlns:cc="http://creativecommons.org/ns#" xmlns:rdf="http://www.w3.org/1999/02/22-rdf-syntax-ns#">
   <cc:Work>
    <dc:type rdf:resource="http://purl.org/dc/dcmitype/StillImage"/>
    <dc:date>2025-08-24T20:28:39.609210</dc:date>
    <dc:format>image/svg+xml</dc:format>
    <dc:creator>
     <cc:Agent>
      <dc:title>Matplotlib v3.8.0, https://matplotlib.org/</dc:title>
     </cc:Agent>
    </dc:creator>
   </cc:Work>
  </rdf:RDF>
 </metadata>
 <defs>
  <style type="text/css">*{stroke-linejoin: round; stroke-linecap: butt}</style>
 </defs>
 <g id="figure_1">
  <g id="patch_1">
   <path d="M -0 338.4 
L 338.4 338.4 
L 338.4 0 
L -0 0 
z
" style="fill: #ffffff"/>
  </g>
  <g id="axes_1">
   <g id="patch_2">
    <path d="M 7.2 331.2 
L 331.2 331.2 
L 331.2 7.2 
L 7.2 7.2 
z
" style="fill: #ffffff"/>
   </g>
   <g id="patch_3">
    <path d="M 13.430769 324.969231 
L 13.430769 13.430769 
L 324.969231 13.430769 
L 324.969231 324.969231 
L 13.430769 324.969231 
z
" clip-path="url(#p6e913e7ab5)" style="fill: none; stroke: #000000; stroke-linejoin: miter"/>
   </g>
   <g id="patch_4">
    <path d="M 169.2 192.006198 
L 168.920571 192.166565 
L 168.586411 192.355832 
L 168.126094 192.612129 
L 167.911057 192.730119 
L 167.630628 192.882341 
L 167.446794 192.981124 
L 167.012577 193.211314 
L 166.664724 193.392571 
L 166.46973 193.492965 
L 166.018601 193.721918 
L 165.896677 193.783008 
L 165.345875 194.054847 
L 165.127753 194.16064 
L 164.781865 194.326259 
L 164.531625 194.444454 
L 164.097096 194.64648 
L 163.950285 194.713821 
L 163.63068 194.858833 
L 163.364115 194.978125 
L 162.793185 195.228607 
L 162.569853 195.324742 
L 162.354684 195.416389 
L 162.149924 195.502718 
L 161.789002 195.6528 
L 161.314722 195.846001 
L 161.210637 195.887793 
L 160.699301 196.08996 
L 160.380033 196.213553 
L 159.990836 196.361499 
L 159.845222 196.416088 
L 159.557549 196.522717 
L 159.081536 196.695631 
L 158.915682 196.754853 
L 158.507136 196.898484 
L 158.129059 197.02857 
L 157.954481 197.087724 
L 157.640667 197.192613 
L 157.241609 197.323325 
L 156.844873 197.450334 
L 156.71923 197.489949 
L 156.383313 197.594429 
L 155.915477 197.736486 
L 155.712031 197.797014 
L 155.404737 197.88701 
L 155.098354 197.975037 
L 154.926424 198.023691 
L 154.396559 198.170299 
L 154.096344 198.251136 
L 153.852365 198.31565 
L 153.595092 198.382536 
L 153.3364 198.448611 
L 152.855536 198.568304 
L 152.7236 198.600436 
L 152.216376 198.721135 
L 151.866178 198.801857 
L 151.52298 198.878906 
L 151.24138 198.940608 
L 150.925802 199.008135 
L 150.726335 199.049937 
L 150.258765 199.145259 
L 150.093273 199.178105 
L 149.73937 199.246785 
L 149.451781 199.301033 
L 149.16051 199.354551 
L 148.913674 199.398787 
L 148.471183 199.475522 
L 148.233972 199.515308 
L 148.018039 199.550707 
L 147.545435 199.62547 
L 147.397641 199.648087 
L 146.939795 199.715852 
L 146.610475 199.762448 
L 146.482165 199.780117 
L 145.933669 199.852591 
L 145.569478 199.897978 
L 145.438884 199.913723 
L 145.157524 199.946695 
L 144.671846 200.000562 
L 144.502277 200.018462 
L 144.108823 200.05819 
L 143.752097 200.09203 
L 143.639203 200.102308 
L 143.10201 200.148383 
L 142.989842 200.157413 
L 142.516934 200.193243 
L 142.377757 200.203098 
L 141.90957 200.233954 
L 141.495104 200.258317 
L 141.23916 200.271978 
L 140.996075 200.283976 
L 140.815307 200.292281 
L 140.237948 200.315284 
L 140.118056 200.319388 
L 139.91777 200.32573 
L 139.339606 200.340419 
L 139.239785 200.342412 
L 138.781574 200.349506 
L 138.6121 200.351276 
L 138.221778 200.353599 
L 137.839534 200.353504 
L 137.649192 200.352582 
L 137.134713 200.347179 
L 136.796068 200.341305 
L 136.507162 200.334837 
L 136.425642 200.332769 
L 136.061166 200.322219 
L 135.723801 200.310551 
L 135.369004 200.296306 
L 134.947305 200.276738 
L 134.911693 200.274955 
L 134.481357 200.251787 
L 134.253471 200.238308 
L 133.913409 200.216637 
L 133.385142 200.179265 
L 133.207306 200.165668 
L 132.779649 200.130874 
L 132.570371 200.112766 
L 132.343071 200.092293 
L 131.815904 200.041577 
L 131.514216 200.010517 
L 131.414258 199.999899 
L 130.992983 199.953353 
L 130.689833 199.918062 
L 130.247828 199.863907 
L 130.141396 199.850388 
L 129.723928 199.795559 
L 129.334399 199.741809 
L 129.19581 199.722081 
L 128.720815 199.652051 
L 128.392901 199.601521 
L 128.147333 199.562508 
L 127.761532 199.499185 
L 127.521002 199.458447 
L 127.398244 199.437281 
L 126.85196 199.340024 
L 126.505124 199.275666 
L 126.278918 199.232596 
L 125.979384 199.174229 
L 125.563115 199.090582 
L 125.482245 199.073989 
L 125.055563 198.984591 
L 124.609867 198.887872 
L 124.435675 198.849142 
L 124.24584 198.806337 
L 123.809037 198.705473 
L 123.546223 198.643188 
L 123.046642 198.521464 
L 123.001294 198.510199 
L 122.49257 198.381339 
L 122.092424 198.276769 
L 121.926052 198.232455 
L 121.700011 198.171458 
L 121.418186 198.094128 
L 121.115 198.009347 
L 120.524295 197.839406 
L 120.450023 197.817591 
L 119.999674 197.683165 
L 119.671385 197.582835 
L 119.491893 197.527142 
L 119.208991 197.438155 
L 118.832544 197.317443 
L 118.559574 197.22826 
L 118.083685 197.069441 
L 117.888992 197.003234 
L 117.621891 196.911237 
L 117.339071 196.812345 
L 116.913026 196.660482 
L 116.666814 196.571126 
L 116.39675 196.471763 
L 116.027995 196.333796 
L 115.522388 196.140289 
L 115.288681 196.049136 
L 114.917023 195.901939 
L 114.568774 195.7615 
L 114.354273 195.67378 
L 114.10956 195.572565 
L 113.714572 195.406616 
L 113.494561 195.312791 
L 113.143694 195.161091 
L 112.839992 195.027711 
L 112.479521 194.866888 
L 112.103125 194.696024 
L 111.953305 194.627173 
L 111.567073 194.447455 
L 111.15114 194.250306 
L 111.086138 194.219155 
L 110.697661 194.031049 
L 110.188775 193.779581 
L 109.941558 193.655328 
L 109.771715 193.569164 
L 109.491748 193.425703 
L 109.06552 193.203849 
L 108.925085 193.129834 
L 108.326268 192.809069 
L 108.284566 192.786417 
L 107.764489 192.50044 
L 107.545184 192.377906 
L 107.338372 192.261287 
L 106.892308 192.006198 
L 106.892308 200.353846 
L 106.904158 201.569009 
L 106.916009 202.072264 
L 106.927859 202.45837 
L 106.93971 202.783825 
L 106.95156 203.070516 
L 106.963411 203.329667 
L 106.975262 203.567947 
L 106.987112 203.789701 
L 106.998963 203.997947 
L 107.010813 204.194883 
L 107.022664 204.382168 
L 107.034514 204.561091 
L 107.046365 204.732677 
L 107.058215 204.897757 
L 107.081917 205.211029 
L 107.105618 205.505176 
L 107.129319 205.783307 
L 107.15302 206.04777 
L 107.176721 206.300389 
L 107.200422 206.542614 
L 107.224123 206.775622 
L 107.247824 207.000382 
L 107.271525 207.217704 
L 107.299888 207.46895 
L 107.328252 207.711513 
L 107.356615 207.946225 
L 107.384978 208.173792 
L 107.441704 208.609838 
L 107.49843 209.02361 
L 107.539969 209.314262 
L 107.581507 209.595591 
L 107.623046 209.868424 
L 107.664584 210.133473 
L 107.706122 210.391353 
L 107.747661 210.642604 
L 107.830738 211.127061 
L 107.884056 211.426492 
L 107.937374 211.717787 
L 107.990692 212.001554 
L 108.04401 212.278333 
L 108.150646 212.812774 
L 108.257282 213.324337 
L 108.331244 213.667114 
L 108.405207 214.000884 
L 108.479169 214.326292 
L 108.553132 214.643909 
L 108.682353 215.181623 
L 108.76491 215.5146 
L 108.847468 215.83998 
L 108.930025 216.158232 
L 109.012582 216.469777 
L 109.146089 216.960361 
L 109.279596 217.435818 
L 109.42584 217.940726 
L 109.572084 218.430355 
L 109.701699 218.852513 
L 109.831314 219.264362 
L 109.960928 219.66656 
L 110.090543 220.059699 
L 110.260059 220.561069 
L 110.429574 221.048909 
L 110.566196 221.432876 
L 110.702817 221.809104 
L 110.865513 222.247592 
L 111.028209 222.676284 
L 111.203344 223.127437 
L 111.387599 223.591205 
L 111.571855 224.044465 
L 111.811318 224.618794 
L 112.050781 225.17753 
L 112.166492 225.44224 
L 112.392599 225.950091 
L 112.618707 226.446101 
L 112.870988 226.986363 
L 113.101051 227.467615 
L 113.312319 227.900454 
L 113.523586 228.325001 
L 113.877936 229.019467 
L 114.05195 229.352831 
L 114.427513 230.056088 
L 114.70573 230.563498 
L 115.112096 231.285176 
L 115.236292 231.501346 
L 115.605905 232.133108 
L 116.045777 232.863493 
L 116.170322 233.066257 
L 116.448964 233.513712 
L 116.897291 234.216439 
L 117.356567 234.915486 
L 117.589375 235.262181 
L 117.900072 235.717188 
L 118.24779 236.216372 
L 118.603467 236.716455 
L 118.843695 237.048411 
L 119.080761 237.37155 
L 119.310711 237.680879 
L 119.61668 238.086364 
L 119.96793 238.543527 
L 120.262373 238.920116 
L 120.55584 239.289617 
L 120.874648 239.684608 
L 121.254661 240.146973 
L 121.717672 240.698326 
L 121.784847 240.777253 
L 122.214327 241.275663 
L 122.697623 241.824046 
L 122.97005 242.127525 
L 123.294477 242.483782 
L 123.53729 242.746834 
L 123.748428 242.973127 
L 124.209286 243.459346 
L 124.471468 243.73134 
L 124.870988 244.139543 
L 125.070043 244.340155 
L 125.237577 244.507599 
L 125.828219 245.087918 
L 126.047037 245.299039 
L 126.245288 245.488547 
L 126.664303 245.883649 
L 127.060852 246.250913 
L 127.093954 246.281283 
L 127.514562 246.663378 
L 127.841288 246.955407 
L 128.210597 247.28057 
L 128.385927 247.43314 
L 128.812718 247.799773 
L 129.106475 248.048267 
L 129.549864 248.417504 
L 129.823346 248.641812 
L 130.165779 248.91904 
L 130.381948 249.091997 
L 130.596315 249.261964 
L 130.942579 249.533296 
L 131.463835 249.934391 
L 131.483724 249.949522 
L 131.98954 250.330142 
L 132.331798 250.583162 
L 132.538911 250.734528 
L 132.924669 251.01299 
L 133.148004 251.172171 
L 133.479713 251.405874 
L 133.874482 251.679827 
L 133.982432 251.753957 
L 134.449221 252.070689 
L 134.610372 252.17861 
L 135.113056 252.510617 
L 135.379623 252.683862 
L 135.782582 252.942102 
L 135.988488 253.072382 
L 136.418668 253.340946 
L 136.654532 253.486143 
L 137.036554 253.718266 
L 137.312723 253.883745 
L 137.70192 254.113678 
L 137.821702 254.183679 
L 138.329709 254.476611 
L 138.548812 254.600995 
L 138.800912 254.742668 
L 139.211776 254.970281 
L 139.373258 255.058636 
L 139.740624 255.25734 
L 140.10004 255.448681 
L 140.399475 255.605799 
L 140.757942 255.791179 
L 141.16136 255.996304 
L 141.453491 256.142553 
L 141.530583 256.180828 
L 141.823397 256.325001 
L 142.378819 256.59327 
L 142.605425 256.700781 
L 142.891632 256.834978 
L 143.132223 256.946421 
L 143.594156 257.156921 
L 143.743552 257.22403 
L 144.293469 257.467008 
L 144.338759 257.486737 
L 144.643109 257.618212 
L 145.160324 257.837257 
L 145.390245 257.932871 
L 145.632376 258.032401 
L 146.018393 258.188625 
L 146.273537 258.290241 
L 146.748154 258.475814 
L 146.958897 258.556783 
L 147.32338 258.694758 
L 147.603171 258.79891 
L 148.03895 258.958099 
L 148.234974 259.02851 
L 148.616893 259.163575 
L 148.922232 259.269554 
L 149.287237 259.393921 
L 149.3566 259.41727 
L 149.858197 259.583426 
L 149.945001 259.611702 
L 150.361654 259.745472 
L 150.732748 259.861905 
L 150.962022 259.932573 
L 151.308445 260.037519 
L 151.651155 260.139184 
L 151.913729 260.215632 
L 152.379494 260.348172 
L 152.566939 260.40041 
L 152.807072 260.466411 
L 153.276048 260.592341 
L 153.512111 260.65425 
L 153.764053 260.719234 
L 154.291245 260.851594 
L 154.640252 260.936536 
L 154.795604 260.973661 
L 155.021033 261.026784 
L 155.548876 261.147722 
L 155.664642 261.173601 
L 156.052585 261.258641 
L 156.311229 261.313899 
L 156.527906 261.359309 
L 156.915653 261.438569 
L 157.387473 261.53156 
L 157.723667 261.595517 
L 158.026174 261.651433 
L 158.286132 261.698251 
L 158.411369 261.7204 
L 158.718537 261.773611 
L 159.152133 261.846032 
L 159.615254 261.919918 
L 159.828099 261.952677 
L 160.060189 261.987541 
L 160.578378 262.062161 
L 160.897883 262.105958 
L 161.10286 262.13317 
L 161.52519 262.187056 
L 161.786095 262.218881 
L 161.916174 262.234331 
L 162.263314 262.274206 
L 162.586404 262.309547 
L 162.859762 262.338118 
L 163.109661 262.36317 
L 163.44763 262.395435 
L 163.911039 262.436657 
L 164.149747 262.456531 
L 164.414764 262.477513 
L 164.900547 262.513023 
L 165.083571 262.525411 
L 165.431187 262.547452 
L 165.874364 262.572723 
L 165.921678 262.575234 
L 166.252035 262.591761 
L 166.602536 262.607374 
L 167.049231 262.624407 
L 167.467467 262.637446 
L 167.702551 262.643542 
L 167.881271 262.647582 
L 168.275698 262.654682 
L 168.604702 262.658695 
L 168.741771 262.659853 
L 169.2 262.661538 
z
" clip-path="url(#p6e913e7ab5)" style="fill: #808080; opacity: 0.5"/>
   </g>
   <g id="patch_5">
    <path d="M 231.507692 192.006198 
L 231.320992 192.11356 
L 230.835693 192.388637 
L 230.535115 192.556149 
L 230.326674 192.671039 
L 230.044079 192.825152 
L 229.599124 193.06399 
L 229.253926 193.246099 
L 228.875719 193.442465 
L 228.640971 193.562702 
L 228.452121 193.658522 
L 227.918932 193.924724 
L 227.703837 194.030317 
L 227.413793 194.171084 
L 227.261601 194.244208 
L 226.946105 194.394182 
L 226.606343 194.553277 
L 226.114178 194.779335 
L 225.800207 194.920851 
L 225.628804 194.99723 
L 225.099796 195.229075 
L 224.96608 195.286755 
L 224.760516 195.374707 
L 224.206596 195.607381 
L 224.121023 195.642767 
L 223.568264 195.86777 
L 223.251584 195.993907 
L 222.93674 196.117329 
L 222.846541 196.152326 
L 222.475293 196.294674 
L 222.034329 196.460238 
L 221.805056 196.544821 
L 221.449066 196.674135 
L 221.047014 196.817246 
L 220.737039 196.925471 
L 220.403645 197.039832 
L 220.093926 197.144189 
L 219.894777 197.210337 
L 219.54389 197.325077 
L 219.332128 197.393212 
L 219.029017 197.489291 
L 218.613288 197.618306 
L 218.249494 197.728599 
L 217.988774 197.806156 
L 217.618998 197.914034 
L 217.566474 197.929156 
L 217.21653 198.028638 
L 216.829961 198.135971 
L 216.528412 198.217841 
L 216.281141 198.283765 
L 215.69716 198.435153 
L 215.401602 198.509478 
L 215.102862 198.583044 
L 214.7662 198.664077 
L 214.687691 198.682689 
L 214.211233 198.793346 
L 213.997987 198.841597 
L 213.690515 198.909787 
L 213.27674 198.998983 
L 212.890668 199.07956 
L 212.746283 199.10904 
L 212.367248 199.18474 
L 211.943387 199.266502 
L 211.658029 199.319835 
L 211.613072 199.328112 
L 211.11808 199.416992 
L 210.812989 199.469723 
L 210.459576 199.528857 
L 210.337367 199.548819 
L 209.915211 199.615861 
L 209.538337 199.673207 
L 209.326311 199.704433 
L 209.024762 199.747562 
L 208.543338 199.813303 
L 208.192566 199.858798 
L 208.110374 199.869166 
L 207.604763 199.930503 
L 207.259875 199.96994 
L 207.208817 199.975613 
L 206.642715 200.035658 
L 206.593746 200.040607 
L 206.195738 200.079377 
L 205.795642 200.115755 
L 205.459815 200.144283 
L 205.267424 200.159802 
L 204.940845 200.184773 
L 204.458851 200.218474 
L 204.176903 200.236449 
L 203.918236 200.25181 
L 203.752621 200.261079 
L 203.327266 200.282858 
L 203.05654 200.295202 
L 202.72096 200.308866 
L 202.400036 200.320239 
L 202.035929 200.331137 
L 201.747222 200.338264 
L 201.491339 200.343462 
L 201.085331 200.349552 
L 200.740627 200.352646 
L 200.663299 200.353078 
L 200.157189 200.353536 
L 199.81987 200.351558 
L 199.477468 200.347683 
L 199.321445 200.345292 
L 198.829032 200.335185 
L 198.672419 200.331155 
L 198.416093 200.323707 
L 197.903081 200.305629 
L 197.558601 200.291114 
L 197.497021 200.288319 
L 196.955947 200.261126 
L 196.69984 200.24661 
L 196.543183 200.237209 
L 196.040467 200.204366 
L 195.884394 200.193338 
L 195.481572 200.163055 
L 195.222184 200.142165 
L 195.013472 200.124563 
L 194.492623 200.077554 
L 194.224018 200.051587 
L 193.89521 200.0182 
L 193.722197 199.999925 
L 193.168787 199.938184 
L 192.844913 199.899726 
L 192.813971 199.895962 
L 192.336537 199.835888 
L 191.91577 199.779835 
L 191.757379 199.757978 
L 191.449015 199.714237 
L 191.220435 199.680798 
L 190.655705 199.594465 
L 190.531483 199.574763 
L 190.055906 199.496955 
L 189.977013 199.483682 
L 189.68468 199.433591 
L 189.351635 199.374776 
L 189.00337 199.311276 
L 188.539678 199.223551 
L 188.28157 199.173142 
L 187.992421 199.115325 
L 187.719139 199.059371 
L 187.353245 198.982456 
L 187.164998 198.94199 
L 186.826033 198.867588 
L 186.515666 198.797724 
L 186.249289 198.736433 
L 185.674717 198.600028 
L 185.386745 198.529494 
L 185.128943 198.465115 
L 184.914378 198.410641 
L 184.554201 198.317372 
L 184.204926 198.224729 
L 183.788144 198.111335 
L 183.69275 198.084945 
L 183.333189 197.984003 
L 183.067655 197.907962 
L 182.63915 197.782559 
L 182.256436 197.667729 
L 181.953206 197.574844 
L 181.603616 197.465657 
L 181.327284 197.377751 
L 181.21374 197.34122 
L 180.706713 197.175154 
L 180.439337 197.085639 
L 180.199456 197.004182 
L 179.74295 196.84615 
L 179.574732 196.786914 
L 179.072714 196.606908 
L 178.837014 196.520716 
L 178.503345 196.396853 
L 178.337195 196.334365 
L 178.075094 196.23469 
L 177.567263 196.037706 
L 177.425397 195.981762 
L 177.183359 195.885388 
L 176.694851 195.687289 
L 176.373057 195.554155 
L 175.993716 195.394498 
L 175.860372 195.337674 
L 175.489252 195.177585 
L 175.000241 194.962261 
L 174.863205 194.901019 
L 174.521513 194.746587 
L 174.119237 194.561583 
L 173.956751 194.485873 
L 173.613399 194.324009 
L 173.192577 194.12212 
L 172.990817 194.023945 
L 172.500369 193.781532 
L 172.328566 193.695342 
L 172.056379 193.557431 
L 171.773145 193.412137 
L 171.428488 193.232857 
L 171.176 193.09978 
L 170.894146 192.949474 
L 170.320682 192.637889 
L 170.017645 192.470077 
L 169.850599 192.376628 
L 169.433411 192.140286 
L 169.2 192.006198 
L 169.2 262.661538 
L 169.538358 262.66062 
L 169.881897 262.657807 
L 170.038516 262.655896 
L 170.458022 262.648837 
L 170.854585 262.639566 
L 170.942755 262.637161 
L 171.26743 262.627229 
L 171.734228 262.60998 
L 172.156225 262.591369 
L 172.383018 262.580182 
L 172.568222 262.570432 
L 172.881792 262.552664 
L 173.255702 262.529402 
L 173.704893 262.498471 
L 173.840438 262.488497 
L 174.081555 262.470019 
L 174.573373 262.429408 
L 174.766197 262.412415 
L 175.156474 262.376172 
L 175.508833 262.341322 
L 175.749669 262.316338 
L 176.083013 262.280195 
L 176.252892 262.261077 
L 176.644105 262.215254 
L 177.101073 262.158551 
L 177.492561 262.107242 
L 177.524013 262.103011 
L 177.828783 262.06116 
L 178.36559 261.983713 
L 178.575917 261.952066 
L 178.981708 261.888931 
L 179.231092 261.84877 
L 179.651761 261.778672 
L 179.886733 261.738227 
L 180.139048 261.693766 
L 180.614365 261.607097 
L 180.934396 261.546595 
L 181.218066 261.491515 
L 181.44949 261.445568 
L 181.645557 261.405927 
L 182.183634 261.293766 
L 182.494249 261.226759 
L 182.816868 261.155404 
L 183.100837 261.09111 
L 183.273467 261.051342 
L 183.552828 260.985891 
L 183.88216 260.906986 
L 184.353309 260.790803 
L 184.614488 260.724717 
L 184.85515 260.662757 
L 185.318198 260.540657 
L 185.586327 260.46821 
L 185.85373 260.394681 
L 186.191046 260.300096 
L 186.289367 260.272141 
L 186.687873 260.157047 
L 186.898532 260.095042 
L 187.38449 259.94892 
L 187.654665 259.86581 
L 187.943037 259.775619 
L 188.414286 259.624916 
L 188.668666 259.541848 
L 188.848142 259.482511 
L 189.113853 259.393553 
L 189.654633 259.208383 
L 189.836216 259.144961 
L 190.307813 258.977295 
L 190.419823 258.936844 
L 190.685319 258.839995 
L 190.992944 258.726066 
L 191.512053 258.529621 
L 191.749039 258.438176 
L 192.196399 258.262517 
L 192.252263 258.240301 
L 192.745818 258.041306 
L 192.949411 257.957787 
L 193.288573 257.816784 
L 193.496396 257.729221 
L 194.00471 257.511303 
L 194.371401 257.350768 
L 194.670201 257.217871 
L 194.744788 257.184404 
L 195.283339 256.93925 
L 195.456521 256.859099 
L 195.959155 256.622808 
L 196.020503 256.593593 
L 196.505348 256.359797 
L 196.834475 256.198132 
L 196.933593 256.148974 
L 197.305032 255.9628 
L 197.816087 255.701548 
L 197.900463 255.657842 
L 198.385812 255.40325 
L 198.778802 255.193093 
L 199.046916 255.047631 
L 199.303581 254.906783 
L 199.503084 254.796216 
L 199.819713 254.618767 
L 200.169765 254.419752 
L 200.449439 254.258587 
L 200.976703 253.949459 
L 201.07539 253.890824 
L 201.398768 253.69696 
L 201.654175 253.541956 
L 202.010334 253.322993 
L 202.411957 253.072102 
L 202.741133 252.863283 
L 203.037003 252.673114 
L 203.307656 252.497075 
L 203.68001 252.251605 
L 203.964368 252.061556 
L 204.29472 251.837913 
L 204.715672 251.548431 
L 204.746157 251.527269 
L 205.34127 251.108719 
L 205.666005 250.875911 
L 205.969802 250.65524 
L 206.185678 250.496724 
L 206.543572 250.230756 
L 206.618066 250.174895 
L 207.219328 249.71759 
L 207.391932 249.58417 
L 207.65701 249.37738 
L 207.893296 249.1911 
L 208.290602 248.87367 
L 208.619387 248.606934 
L 208.88732 248.386805 
L 209.264387 248.072746 
L 209.565042 247.818695 
L 209.863949 247.562868 
L 210.327002 247.160024 
L 210.521184 246.988686 
L 210.846331 246.698551 
L 211.089507 246.478869 
L 211.485445 246.116163 
L 211.891071 245.737995 
L 211.967274 245.666193 
L 212.469728 245.186637 
L 212.70681 244.956604 
L 213.040311 244.628846 
L 213.400218 244.269552 
L 213.618009 244.049258 
L 214.022889 243.633832 
L 214.207892 243.441411 
L 214.646664 242.978361 
L 215.042327 242.552538 
L 215.166995 242.416702 
L 215.41166 242.147757 
L 215.702965 241.823386 
L 216.062388 241.416788 
L 216.388405 241.041718 
L 216.893978 240.447898 
L 217.187903 240.095633 
L 217.35256 239.895969 
L 217.85047 239.281732 
L 218.093846 238.975606 
L 218.349344 238.649936 
L 218.797015 238.068361 
L 219.019643 237.773784 
L 219.380319 237.28871 
L 219.6887 236.866032 
L 219.874581 236.60761 
L 220.162696 236.201469 
L 220.596749 235.576321 
L 220.875984 235.165356 
L 221.043575 234.915273 
L 221.334808 234.474372 
L 221.626041 234.025181 
L 221.919044 233.564551 
L 222.193869 233.124235 
L 222.42351 232.749934 
L 222.802097 232.119609 
L 222.920527 231.918914 
L 223.277584 231.303215 
L 223.615512 230.705132 
L 223.981309 230.039814 
L 224.208466 229.616743 
L 224.435624 229.185676 
L 224.558995 228.948079 
L 224.896395 228.285192 
L 225.105242 227.864798 
L 225.314088 227.436269 
L 225.498394 227.051025 
L 225.742134 226.530851 
L 225.911204 226.162523 
L 226.080275 225.787738 
L 226.283923 225.327318 
L 226.487571 224.856556 
L 226.679337 224.40326 
L 226.871104 223.939695 
L 227.018312 223.576492 
L 227.268196 222.9444 
L 227.51808 222.291258 
L 227.657984 221.915679 
L 227.797888 221.532516 
L 227.98491 221.00773 
L 228.171931 220.467519 
L 228.330818 219.995509 
L 228.489704 219.510556 
L 228.677123 218.920492 
L 228.804716 218.506706 
L 228.932309 218.082348 
L 229.034672 217.733735 
L 229.137035 217.37737 
L 229.239398 217.012755 
L 229.341761 216.639335 
L 229.487243 216.092233 
L 229.632726 215.52402 
L 229.719412 215.174414 
L 229.806099 214.81584 
L 229.892786 214.447614 
L 229.979472 214.068957 
L 230.077981 213.624865 
L 230.17649 213.164632 
L 230.274998 212.686449 
L 230.373507 212.188142 
L 230.45402 211.764087 
L 230.534532 211.323061 
L 230.615045 210.862928 
L 230.695557 210.381057 
L 230.756196 210.001811 
L 230.816835 209.606639 
L 230.877474 209.193402 
L 230.938113 208.759438 
L 230.983379 208.419988 
L 231.028645 208.065345 
L 231.073911 207.693307 
L 231.119177 207.30108 
L 231.143459 207.081133 
L 231.167741 206.853658 
L 231.192024 206.617834 
L 231.216306 206.372678 
L 231.240588 206.117002 
L 231.26487 205.849336 
L 231.289152 205.567835 
L 231.313435 205.270121 
L 231.337717 204.953049 
L 231.349858 204.785965 
L 231.361999 204.612296 
L 231.37414 204.431201 
L 231.386281 204.241641 
L 231.398422 204.042312 
L 231.410563 203.831534 
L 231.422705 203.607084 
L 231.434846 203.365906 
L 231.446987 203.103602 
L 231.459128 202.813423 
L 231.471269 202.484006 
L 231.48341 202.093199 
L 231.495551 201.583814 
L 231.507692 200.353846 
z
" clip-path="url(#p6e913e7ab5)" style="fill: #808080; opacity: 0.5"/>
   </g>
   <g id="matplotlib.axis_1"/>
   <g id="matplotlib.axis_2"/>
   <g id="line2d_1">
    <path d="M 106.892308 200.353846 
L 107.034514 204.561091 
L 107.384978 208.173792 
L 107.990692 212.001554 
L 108.76491 215.5146 
L 109.701699 218.852513 
L 110.865513 222.247592 
L 112.166492 225.44224 
L 113.877936 229.019467 
L 115.605905 232.133108 
L 117.589375 235.262181 
L 119.61668 238.086364 
L 121.784847 240.777253 
L 124.471468 243.73134 
L 127.093954 246.281283 
L 129.823346 248.641812 
L 132.924669 251.01299 
L 135.988488 253.072382 
L 139.373258 255.058636 
L 142.605425 256.700781 
L 146.018393 258.188625 
L 149.3566 259.41727 
L 152.807072 260.466411 
L 156.527906 261.359309 
L 160.060189 261.987541 
L 163.911039 262.436657 
L 167.702551 262.643542 
L 169.2 262.661538 
L 169.2 262.661538 
" clip-path="url(#p6e913e7ab5)" style="fill: none; stroke: #0000ff; stroke-linecap: square"/>
   </g>
   <g id="line2d_2">
    <path d="M 169.2 262.661538 
L 172.881792 262.552664 
L 176.644105 262.215254 
L 180.139048 261.693766 
L 183.88216 260.906986 
L 187.654665 259.86581 
L 190.992944 258.726066 
L 194.670201 257.217871 
L 197.900463 255.657842 
L 201.07539 253.890824 
L 204.29472 251.837913 
L 207.391932 249.58417 
L 210.327002 247.160024 
L 213.040311 244.628846 
L 215.702965 241.823386 
L 218.093846 238.975606 
L 220.162696 236.201469 
L 222.193869 233.124235 
L 223.981309 230.039814 
L 225.742134 226.530851 
L 227.268196 222.9444 
L 228.489704 219.510556 
L 229.487243 216.092233 
L 230.373507 212.188142 
L 230.983379 208.419988 
L 231.361999 204.612296 
L 231.495551 201.583814 
L 231.507692 200.353846 
L 231.507692 200.353846 
" clip-path="url(#p6e913e7ab5)" style="fill: none; stroke: #0000ff; stroke-linecap: square"/>
   </g>
   <g id="text_1">
    <!-- $\Omega$ -->
    <g transform="translate(16.011538 22.420913) scale(0.1 -0.1)">
     <defs>
      <path id="Cmr10-ad" d="M 494 0 
L 281 1063 
L 469 1063 
Q 503 878 531 736 
Q 559 594 604 536 
Q 650 478 750 459 
Q 850 441 1081 441 
L 1472 441 
Q 1378 803 1004 1386 
Q 631 1969 495 2233 
Q 359 2497 359 2913 
Q 359 3397 646 3761 
Q 934 4125 1389 4319 
Q 1844 4513 2309 4513 
Q 2772 4513 3226 4319 
Q 3681 4125 3968 3758 
Q 4256 3391 4256 2913 
Q 4256 2588 4137 2300 
Q 4019 2013 3834 1725 
Q 3650 1438 3436 1084 
Q 3222 731 3144 441 
L 3531 441 
Q 3766 441 3869 459 
Q 3972 478 4015 536 
Q 4059 594 4086 736 
Q 4113 878 4147 1063 
L 4331 1063 
L 4122 0 
L 2988 0 
Q 2925 0 2925 84 
Q 2925 409 3004 721 
Q 3084 1034 3240 1478 
Q 3397 1922 3484 2261 
Q 3572 2600 3572 2913 
Q 3572 3297 3422 3625 
Q 3272 3953 2984 4150 
Q 2697 4347 2309 4347 
Q 1725 4347 1384 3930 
Q 1044 3513 1044 2913 
Q 1047 2584 1122 2293 
Q 1197 2003 1364 1518 
Q 1531 1034 1611 721 
Q 1691 409 1691 84 
Q 1691 0 1625 0 
L 494 0 
z
" transform="scale(0.015625)"/>
     </defs>
     <use xlink:href="#Cmr10-ad" transform="translate(0 0.484375)"/>
    </g>
   </g>
   <g id="text_2">
    <!-- $A$ -->
    <g style="fill: #0000ff" transform="translate(149.873077 271.651683) scale(0.1 -0.1)">
     <defs>
      <path id="Cmmi10-41" d="M 288 0 
Q 225 0 225 84 
Q 250 225 306 225 
Q 566 225 755 328 
Q 944 431 1081 647 
Q 1094 659 1094 659 
L 3378 4513 
Q 3428 4581 3500 4581 
L 3584 4581 
Q 3603 4581 3622 4573 
Q 3641 4566 3655 4548 
Q 3669 4531 3669 4513 
L 4056 378 
Q 4056 350 4084 294 
Q 4147 225 4563 225 
Q 4628 225 4628 141 
Q 4606 56 4592 28 
Q 4578 0 4519 0 
L 2919 0 
Q 2859 0 2859 84 
Q 2894 225 2944 225 
Q 3450 225 3481 397 
L 3384 1453 
L 1806 1453 
L 1294 594 
Q 1247 525 1247 434 
Q 1247 322 1355 273 
Q 1463 225 1594 225 
Q 1656 225 1656 141 
Q 1634 50 1621 25 
Q 1609 0 1550 0 
L 288 0 
z
M 1931 1678 
L 3359 1678 
L 3169 3750 
L 1931 1678 
z
" transform="scale(0.015625)"/>
     </defs>
     <use xlink:href="#Cmmi10-41" transform="translate(0 0.421875)"/>
    </g>
   </g>
   <g id="text_3">
    <!-- $B$ -->
    <g style="fill: #ff0000" transform="translate(227.707692 78.497837) scale(0.1 -0.1)">
     <defs>
      <path id="Cmmi10-42" d="M 319 0 
Q 256 0 256 84 
Q 259 100 268 137 
Q 278 175 293 200 
Q 309 225 341 225 
Q 522 225 656 234 
Q 791 244 884 269 
Q 959 297 1006 441 
L 1881 3956 
Q 1894 4019 1894 4044 
Q 1894 4113 1819 4122 
Q 1697 4147 1356 4147 
Q 1294 4147 1294 4231 
Q 1297 4247 1306 4286 
Q 1316 4325 1333 4348 
Q 1350 4372 1375 4372 
L 3669 4372 
Q 3878 4372 4083 4320 
Q 4288 4269 4461 4156 
Q 4634 4044 4736 3876 
Q 4838 3709 4838 3488 
Q 4838 3247 4714 3040 
Q 4591 2834 4395 2681 
Q 4200 2528 3973 2429 
Q 3747 2331 3500 2284 
Q 3675 2284 3854 2215 
Q 4034 2147 4175 2028 
Q 4316 1909 4402 1743 
Q 4488 1578 4488 1388 
Q 4488 1003 4219 684 
Q 3950 366 3542 183 
Q 3134 0 2753 0 
L 319 0 
z
M 1497 275 
Q 1497 225 1716 225 
L 2631 225 
Q 2944 225 3231 398 
Q 3519 572 3692 859 
Q 3866 1147 3866 1459 
Q 3866 1650 3786 1820 
Q 3706 1991 3556 2089 
Q 3406 2188 3213 2188 
L 1966 2188 
L 1522 416 
Q 1497 328 1497 275 
z
M 2009 2356 
L 2981 2356 
Q 3288 2356 3577 2512 
Q 3866 2669 4048 2937 
Q 4231 3206 4231 3506 
Q 4231 3784 4057 3965 
Q 3884 4147 3609 4147 
L 2731 4147 
Q 2559 4147 2500 4115 
Q 2441 4084 2400 3928 
L 2009 2356 
z
" transform="scale(0.015625)"/>
     </defs>
     <use xlink:href="#Cmmi10-42" transform="translate(0 0.6875)"/>
    </g>
   </g>
   <g id="text_4">
    <!-- $C$ -->
    <g style="fill: #228b22" transform="translate(103.292308 78.497837) scale(0.1 -0.1)">
     <defs>
      <path id="Cmmi10-43" d="M 934 1381 
Q 934 997 1082 705 
Q 1231 413 1514 248 
Q 1797 84 2181 84 
Q 2584 84 2957 290 
Q 3331 497 3595 842 
Q 3859 1188 3956 1575 
Q 3969 1613 4006 1613 
L 4084 1613 
Q 4109 1613 4125 1595 
Q 4141 1578 4141 1556 
Q 4141 1550 4134 1538 
Q 4025 1094 3711 705 
Q 3397 316 2959 87 
Q 2522 -141 2059 -141 
Q 1559 -141 1162 84 
Q 766 309 545 709 
Q 325 1109 325 1613 
Q 325 2150 565 2676 
Q 806 3203 1212 3614 
Q 1619 4025 2139 4269 
Q 2659 4513 3194 4513 
Q 3406 4513 3600 4448 
Q 3794 4384 3959 4253 
Q 4125 4122 4231 3950 
L 4738 4500 
Q 4738 4513 4769 4513 
L 4806 4513 
Q 4831 4513 4847 4491 
Q 4863 4469 4863 4447 
L 4428 2719 
Q 4428 2675 4378 2675 
L 4263 2675 
Q 4213 2675 4213 2747 
Q 4238 2888 4238 3084 
Q 4238 3397 4131 3673 
Q 4025 3950 3801 4119 
Q 3578 4288 3256 4288 
Q 2734 4288 2300 4025 
Q 1866 3763 1564 3336 
Q 1263 2909 1098 2389 
Q 934 1869 934 1381 
z
" transform="scale(0.015625)"/>
     </defs>
     <use xlink:href="#Cmmi10-43" transform="translate(0 0.484375)"/>
    </g>
   </g>
   <g id="patch_6">
    <path d="M 169.2 262.661538 
C 185.724193 262.661538 201.573823 256.096407 213.258192 244.412038 
C 224.942561 232.727669 231.507692 216.878039 231.507692 200.353846 
C 231.507692 183.829653 224.942561 167.980023 213.258192 156.295654 
C 201.573823 144.611285 185.724193 138.046154 169.2 138.046154 
C 152.675807 138.046154 136.826177 144.611285 125.141808 156.295654 
C 113.457439 167.980023 106.892308 183.829653 106.892308 200.353846 
C 106.892308 216.878039 113.457439 232.727669 125.141808 244.412038 
C 136.826177 256.096407 152.675807 262.661538 169.2 262.661538 
L 169.2 262.661538 
z
" clip-path="url(#p6e913e7ab5)" style="fill: none; stroke: #0000ff; stroke-linejoin: miter"/>
   </g>
   <g id="patch_7">
    <path d="M 200.353846 200.353846 
C 216.878039 200.353846 232.727669 193.788715 244.412038 182.104346 
C 256.096407 170.419977 262.661538 154.570347 262.661538 138.046154 
C 262.661538 121.521961 256.096407 105.672331 244.412038 93.987962 
C 232.727669 82.303593 216.878039 75.738462 200.353846 75.738462 
C 183.829653 75.738462 167.980023 82.303593 156.295654 93.987962 
C 144.611285 105.672331 138.046154 121.521961 138.046154 138.046154 
C 138.046154 154.570347 144.611285 170.419977 156.295654 182.104346 
C 167.980023 193.788715 183.829653 200.353846 200.353846 200.353846 
L 200.353846 200.353846 
z
" clip-path="url(#p6e913e7ab5)" style="fill: none; stroke: #ff0000; stroke-linejoin: miter"/>
   </g>
   <g id="patch_8">
    <path d="M 138.046154 200.353846 
C 154.570347 200.353846 170.419977 193.788715 182.104346 182.104346 
C 193.788715 170.419977 200.353846 154.570347 200.353846 138.046154 
C 200.353846 121.521961 193.788715 105.672331 182.104346 93.987962 
C 170.419977 82.303593 154.570347 75.738462 138.046154 75.738462 
C 121.521961 75.738462 105.672331 82.303593 93.987962 93.987962 
C 82.303593 105.672331 75.738462 121.521961 75.738462 138.046154 
C 75.738462 154.570347 82.303593 170.419977 93.987962 182.104346 
C 105.672331 193.788715 121.521961 200.353846 138.046154 200.353846 
L 138.046154 200.353846 
z
" clip-path="url(#p6e913e7ab5)" style="fill: none; stroke: #228b22; stroke-linejoin: miter"/>
   </g>
  </g>
 </g>
 <defs>
  <clipPath id="p6e913e7ab5">
   <rect x="7.2" y="7.2" width="324" height="324"/>
  </clipPath>
 </defs>
</svg>
