<?xml version="1.0" encoding="utf-8" standalone="no"?>
<!DOCTYPE svg PUBLIC "-//W3C//DTD SVG 1.1//EN"
  "http://www.w3.org/Graphics/SVG/1.1/DTD/svg11.dtd">
<svg xmlns:xlink="http://www.w3.org/1999/xlink" width="338.4pt" height="338.4pt" viewBox="0 0 338.4 338.4" xmlns="http://www.w3.org/2000/svg" version="1.1">
 <metadata>
  <rdf:RDF xmlns:dc="http://purl.org/dc/elements/1.1/" xmlns:cc="http://creativecommons.org/ns#" xmlns:rdf="http://www.w3.org/1999/02/22-rdf-syntax-ns#">
   <cc:Work>
    <dc:type rdf:resource="http://purl.org/dc/dcmitype/StillImage"/>
    <dc:date>2025-08-24T20:28:31.093326</dc:date>
    <dc:format>image/svg+xml</dc:format>
    <dc:creator>
     <cc:Agent>
      <dc:title>Matplotlib v3.8.0, https://matplotlib.org/</dc:title>
     </cc:Agent>
    </dc:creator>
   </cc:Work>
  </rdf:RDF>
 </metadata>
 <defs>
  <style type="text/css">*{stroke-linejoin: round; stroke-linecap: butt}</style>
 </defs>
 <g id="figure_1">
  <g id="patch_1">
   <path d="M -0 338.4 
L 338.4 338.4 
L 338.4 0 
L -0 0 
z
" style="fill: #ffffff"/>
  </g>
  <g id="axes_1">
   <g id="patch_2">
    <path d="M 7.2 331.2 
L 331.2 331.2 
L 331.2 7.2 
L 7.2 7.2 
z
" style="fill: #ffffff"/>
   </g>
   <g id="patch_3">
    <path d="M 13.430769 324.969231 
L 13.430769 13.430769 
L 324.969231 13.430769 
L 324.969231 324.969231 
L 13.430769 324.969231 
z
" clip-path="url(#pe143cf71d2)" style="fill: none; stroke: #000000; stroke-linejoin: miter"/>
   </g>
   <g id="patch_4">
    <path d="M 169.2 138.046154 
L 169.015989 138.046426 
L 168.906989 138.046843 
L 168.774288 138.047608 
L 168.573405 138.049305 
L 168.410722 138.051153 
L 168.273713 138.053039 
L 168.14989 138.055004 
L 167.892199 138.05988 
L 167.718656 138.063766 
L 167.62126 138.066158 
L 167.447105 138.070816 
L 167.321528 138.074477 
L 167.102469 138.08147 
L 166.95117 138.08675 
L 166.796732 138.092519 
L 166.768824 138.093603 
L 166.486405 138.105273 
L 166.4101 138.108646 
L 166.150763 138.120811 
L 166.078486 138.124394 
L 165.846454 138.136467 
L 165.711917 138.143865 
L 165.556279 138.152787 
L 165.489768 138.156718 
L 165.245313 138.171783 
L 165.150117 138.177911 
L 164.940062 138.191949 
L 164.874118 138.196503 
L 164.664129 138.211474 
L 164.579558 138.217705 
L 164.331671 138.236635 
L 164.143847 138.251641 
L 164.08541 138.256427 
L 163.851417 138.276143 
L 163.735499 138.28624 
L 163.565746 138.301419 
L 163.351373 138.321257 
L 163.315201 138.324678 
L 163.130747 138.342455 
L 163.008283 138.354563 
L 162.832537 138.372366 
L 162.557228 138.401267 
L 162.452019 138.412638 
L 162.28973 138.430533 
L 162.112086 138.450615 
L 161.947136 138.469725 
L 161.871887 138.47859 
L 161.670825 138.502734 
L 161.473679 138.527052 
L 161.339177 138.544009 
L 161.13853 138.569858 
L 161.110334 138.573543 
L 160.842757 138.60917 
L 160.766861 138.61949 
L 160.594985 138.643213 
L 160.41687 138.668312 
L 160.235399 138.694423 
L 160.144696 138.707679 
L 159.985476 138.731277 
L 159.752357 138.766586 
L 159.628336 138.785739 
L 159.48833 138.807668 
L 159.373682 138.825869 
L 159.159454 138.860465 
L 158.989897 138.88839 
L 158.802184 138.919866 
L 158.685732 138.939689 
L 158.632274 138.948865 
L 158.430278 138.983971 
L 158.254804 139.015023 
L 158.061535 139.049824 
L 157.907786 139.077958 
L 157.825383 139.093201 
L 157.623816 139.130971 
L 157.487951 139.156817 
L 157.280936 139.196799 
L 157.108462 139.230665 
L 156.962338 139.259754 
L 156.872044 139.27791 
L 156.753144 139.30203 
L 156.594899 139.334505 
L 156.31776 139.392412 
L 156.177779 139.422161 
L 156.030369 139.453852 
L 155.878204 139.486956 
L 155.743584 139.516576 
L 155.654845 139.536272 
L 155.455178 139.581086 
L 155.309128 139.614302 
L 155.166344 139.647133 
L 154.943344 139.699116 
L 154.725882 139.750641 
L 154.596377 139.781718 
L 154.466133 139.813267 
L 154.401984 139.828915 
L 154.244101 139.867735 
L 154.088021 139.906542 
L 153.921128 139.94851 
L 153.712036 140.001783 
L 153.540303 140.046115 
L 153.454732 140.0684 
L 153.245463 140.123445 
L 153.004147 140.187885 
L 152.92371 140.209595 
L 152.820667 140.237576 
L 152.58445 140.302435 
L 152.431234 140.345038 
L 152.291183 140.38435 
L 152.058197 140.450531 
L 152.016263 140.462547 
L 151.783574 140.529799 
L 151.617898 140.578281 
L 151.532119 140.603578 
L 151.295381 140.674091 
L 151.243999 140.689531 
L 151.050705 140.748044 
L 150.8611 140.806107 
L 150.76842 140.834728 
L 150.532306 140.908361 
L 150.402402 140.949311 
L 150.203688 141.012557 
L 150.155824 141.0279 
L 149.909308 141.1076 
L 149.852372 141.126168 
L 149.579265 141.216081 
L 149.440736 141.262222 
L 149.248023 141.327012 
L 149.101444 141.376761 
L 149.061713 141.390316 
L 148.84962 141.46318 
L 148.743817 141.499848 
L 148.495665 141.586687 
L 148.370643 141.630883 
L 148.255963 141.671687 
L 148.056095 141.743405 
L 147.975958 141.772377 
L 147.800148 141.836371 
L 147.570954 141.920697 
L 147.514606 141.941585 
L 147.340325 142.006583 
L 147.081696 142.104132 
L 146.966635 142.147953 
L 146.845477 142.194377 
L 146.692015 142.253595 
L 146.573782 142.299537 
L 146.384849 142.373527 
L 146.157079 142.463671 
L 146.021028 142.518011 
L 145.945751 142.548237 
L 145.727735 142.63642 
L 145.519925 142.721368 
L 145.401923 142.769994 
L 145.272551 142.82363 
L 145.084835 142.902063 
L 144.88175 142.98773 
L 144.832673 143.008559 
L 144.553478 143.128 
L 144.422026 143.184794 
L 144.384895 143.200901 
L 144.078346 143.334981 
L 143.952655 143.390524 
L 143.828805 143.445578 
L 143.688242 143.508453 
L 143.47415 143.605021 
L 143.336108 143.667802 
L 143.156455 143.750116 
L 143.127737 143.763338 
L 142.883272 143.876609 
L 142.686759 143.968595 
L 142.595675 144.011514 
L 142.497522 144.057965 
L 142.231244 144.185041 
L 142.066047 144.264657 
L 142.033632 144.28035 
L 141.850803 144.369295 
L 141.577606 144.503583 
L 141.423047 144.580292 
L 141.283218 144.65015 
L 141.235541 144.674069 
L 140.965616 144.810457 
L 140.889405 144.849263 
L 140.6347 144.979916 
L 140.49606 145.051655 
L 140.451125 145.075001 
L 140.215445 145.198211 
L 140.003208 145.310265 
L 139.981949 145.321546 
L 139.750072 145.445283 
L 139.675104 145.485558 
L 139.423103 145.621909 
L 139.339685 145.667375 
L 139.115232 145.790532 
L 138.934935 145.890332 
L 138.832865 145.947177 
L 138.597096 146.079444 
L 138.447618 146.163999 
L 138.396888 146.192819 
L 138.195002 146.308137 
L 138.046154 146.393802 
L 138.046154 138.046154 
L 138.05126 138.843859 
L 138.056367 139.174256 
L 138.061474 139.427763 
L 138.06658 139.641466 
L 138.071687 139.829731 
L 138.076793 139.999924 
L 138.0819 140.156424 
L 138.087007 140.302081 
L 138.092113 140.438877 
L 138.09722 140.568254 
L 138.102326 140.6913 
L 138.107433 140.808863 
L 138.11254 140.921613 
L 138.117646 141.030098 
L 138.122753 141.134766 
L 138.127859 141.235994 
L 138.138072 141.429351 
L 138.148286 141.612211 
L 138.158499 141.786112 
L 138.168712 141.952253 
L 138.178925 142.111584 
L 138.189138 142.264877 
L 138.199352 142.412768 
L 138.209565 142.555788 
L 138.21887 142.682236 
L 138.228175 142.805308 
L 138.246786 143.042312 
L 138.265397 143.268505 
L 138.284007 143.485236 
L 138.302618 143.693594 
L 138.321228 143.894475 
L 138.339839 144.088624 
L 138.35845 144.27667 
L 138.37988 144.486345 
L 138.401311 144.689336 
L 138.422741 144.886239 
L 138.444172 145.077564 
L 138.465602 145.263756 
L 138.487033 145.445202 
L 138.508463 145.622243 
L 138.529894 145.795181 
L 138.556869 146.007441 
L 138.583844 146.214097 
L 138.610818 146.415565 
L 138.637793 146.612212 
L 138.664768 146.804361 
L 138.691743 146.992302 
L 138.718718 147.176297 
L 138.745693 147.356577 
L 138.777933 147.567472 
L 138.810174 147.773688 
L 138.842414 147.975518 
L 138.874655 148.173224 
L 138.909948 148.385201 
L 138.945241 148.5928 
L 138.980534 148.796275 
L 139.015827 148.995856 
L 139.050506 149.18837 
L 139.085184 149.377508 
L 139.129954 149.616961 
L 139.174724 149.851389 
L 139.219494 150.081085 
L 139.264265 150.306315 
L 139.307682 150.520701 
L 139.351099 150.731316 
L 139.394516 150.938345 
L 139.437933 151.141958 
L 139.497955 151.418106 
L 139.557978 151.688401 
L 139.618 151.953185 
L 139.678022 152.212766 
L 139.7144 152.367681 
L 139.805516 152.748136 
L 139.896632 153.11844 
L 139.967383 153.399446 
L 140.038133 153.67508 
L 140.128379 154.019308 
L 140.218625 154.355774 
L 140.292662 154.626343 
L 140.366699 154.892242 
L 140.430387 155.117404 
L 140.494075 155.339399 
L 140.595481 155.686627 
L 140.696886 156.026579 
L 140.789 156.329414 
L 140.881113 156.626857 
L 140.963452 156.888384 
L 141.045792 157.145976 
L 141.177079 157.548943 
L 141.285313 157.874338 
L 141.402594 158.220355 
L 141.519875 158.559866 
L 141.590663 158.761773 
L 141.703174 159.078205 
L 141.815685 159.389354 
L 141.987673 159.855288 
L 142.097543 160.147096 
L 142.209356 160.439608 
L 142.321169 160.727796 
L 142.43109 161.007051 
L 142.543384 161.288334 
L 142.711499 161.702196 
L 142.917939 162.199106 
L 143.084051 162.590381 
L 143.208385 162.878488 
L 143.325663 163.146649 
L 143.539156 163.626216 
L 143.637764 163.844111 
L 143.759312 164.109676 
L 143.880859 164.372001 
L 143.968304 164.558776 
L 144.096506 164.829734 
L 144.224707 165.09737 
L 144.367624 165.39193 
L 144.524862 165.71153 
L 144.695457 166.053157 
L 144.848761 166.355765 
L 145.004682 166.659412 
L 145.121745 166.884732 
L 145.265506 167.158407 
L 145.450501 167.505808 
L 145.49397 167.586676 
L 145.719903 168.002468 
L 145.867146 168.269456 
L 145.957571 168.431903 
L 146.145778 168.766405 
L 146.310223 169.054787 
L 146.475161 169.340495 
L 146.629063 169.603976 
L 146.888857 170.042144 
L 146.981229 170.195994 
L 147.092401 170.379836 
L 147.288949 170.701402 
L 147.38195 170.852048 
L 147.560092 171.137967 
L 147.760957 171.456281 
L 147.902381 171.67787 
L 148.06886 171.936104 
L 148.187739 172.118808 
L 148.307183 172.300984 
L 148.45873 172.530142 
L 148.706525 172.900175 
L 148.786246 173.018015 
L 148.986334 173.311254 
L 149.150193 173.548752 
L 149.291407 173.751557 
L 149.438116 173.960453 
L 149.629265 174.229926 
L 149.735653 174.378605 
L 150.021745 174.77391 
L 150.061517 174.828352 
L 150.239551 175.070551 
L 150.376785 175.255587 
L 150.603145 175.557702 
L 150.725569 175.719522 
L 150.93426 175.992866 
L 151.064434 176.161799 
L 151.149496 176.271544 
L 151.307074 176.473523 
L 151.501233 176.720056 
L 151.656849 176.915821 
L 151.838019 177.141717 
L 151.961144 177.294018 
L 152.212451 177.601869 
L 152.267262 177.668483 
L 152.519256 177.972342 
L 152.546537 178.005004 
L 152.71446 178.205056 
L 152.908748 178.434409 
L 153.144148 178.709318 
L 153.22253 178.800142 
L 153.430443 179.039358 
L 153.536812 179.160796 
L 153.74956 179.401795 
L 153.869746 179.536839 
L 153.982587 179.662916 
L 154.1946 179.897947 
L 154.325378 180.041733 
L 154.478575 180.209028 
L 154.618722 180.361009 
L 154.755271 180.508119 
L 154.962352 180.729415 
L 155.179484 180.959153 
L 155.276038 181.060566 
L 155.468753 181.261625 
L 155.570975 181.367545 
L 155.774074 181.576517 
L 155.898191 181.703264 
L 156.112964 181.920894 
L 156.251859 182.060507 
L 156.318139 182.126818 
L 156.450819 182.258966 
L 156.626042 182.432274 
L 156.776259 182.579763 
L 157.028814 182.825503 
L 157.087151 182.881872 
L 157.311439 183.097233 
L 157.412753 183.193812 
L 157.637175 183.406208 
L 157.742012 183.504707 
L 157.961842 183.709777 
L 158.108704 183.845679 
L 158.236484 183.963213 
L 158.322721 184.042165 
L 158.572362 184.26905 
L 158.727835 184.40911 
L 158.894048 184.557805 
L 159.063149 184.707989 
L 159.200231 184.828933 
L 159.292904 184.910293 
L 159.550748 185.134961 
L 159.725154 185.285522 
L 159.805725 185.354698 
L 159.905904 185.440378 
L 160.154772 185.651647 
L 160.262385 185.742309 
L 160.503715 185.944124 
L 160.638339 186.05581 
L 160.691297 186.099569 
L 160.954469 186.315581 
L 161.052112 186.395117 
L 161.1585 186.481403 
L 161.364955 186.647748 
L 161.584137 186.822769 
L 161.712302 186.924366 
L 161.916649 187.085224 
L 161.9426 187.105554 
L 162.180581 187.290954 
L 162.376756 187.4424 
L 162.412042 187.469509 
L 162.575605 187.594645 
L 162.757531 187.732828 
L 162.924578 187.858787 
L 163.077923 187.973642 
L 163.269199 188.11588 
L 163.453837 188.252108 
L 163.603423 188.361707 
L 163.708483 188.438275 
L 163.918337 188.590216 
L 164.061153 188.692861 
L 164.116189 188.732254 
L 164.395209 188.930581 
L 164.502525 189.006249 
L 164.648541 189.108662 
L 164.813016 189.223277 
L 165.018867 189.365622 
L 165.165448 189.466239 
L 165.288158 189.549999 
L 165.433473 189.648635 
L 165.670921 189.808527 
L 165.716145 189.8388 
L 165.971378 190.008586 
L 166.115068 190.103378 
L 166.182261 190.14751 
L 166.409788 190.296029 
L 166.590015 190.412672 
L 166.65971 190.457543 
L 166.815009 190.557057 
L 167.072199 190.720441 
L 167.237748 190.824678 
L 167.388011 190.918663 
L 167.505178 190.991536 
L 167.634815 191.071747 
L 167.763086 191.150681 
L 168.018908 191.306836 
L 168.076092 191.341511 
L 168.295404 191.47372 
L 168.454044 191.568589 
L 168.578934 191.642828 
L 168.765694 191.75311 
L 168.94064 191.855623 
L 168.992086 191.885624 
L 169.2 192.006198 
z
" clip-path="url(#pe143cf71d2)" style="fill: #808080; opacity: 0.5"/>
   </g>
   <g id="patch_5">
    <path d="M 169.2 192.006198 
L 168.822855 192.222193 
L 168.583143 192.35767 
L 168.346081 192.490281 
L 167.91749 192.726606 
L 167.581605 192.908761 
L 167.39846 193.006964 
L 167.050767 193.191243 
L 166.57007 193.441413 
L 166.246135 193.607018 
L 165.988418 193.737072 
L 165.746288 193.857901 
L 165.497061 193.980904 
L 165.104683 194.171767 
L 164.834403 194.301271 
L 164.395608 194.50813 
L 164.118195 194.636764 
L 164.025364 194.679441 
L 163.599819 194.872721 
L 163.201326 195.05024 
L 162.93144 195.168575 
L 162.780477 195.234105 
L 162.341616 195.421924 
L 161.966246 195.579429 
L 161.593692 195.732911 
L 161.353589 195.830339 
L 161.206951 195.889269 
L 160.692212 196.092726 
L 160.493832 196.169731 
L 160.240143 196.267073 
L 159.946049 196.378333 
L 159.371094 196.59097 
L 159.182789 196.659217 
L 158.921213 196.752886 
L 158.684049 196.836679 
L 158.286926 196.974582 
L 157.861556 197.118976 
L 157.520832 197.232178 
L 157.171297 197.346048 
L 156.833922 197.453799 
L 156.821494 197.457728 
L 156.305369 197.618375 
L 156.040844 197.698812 
L 155.734074 197.790492 
L 155.420104 197.882551 
L 155.129779 197.966086 
L 154.791536 198.061491 
L 154.490059 198.144794 
L 154.130669 198.241975 
L 153.722697 198.349508 
L 153.436409 198.423207 
L 153.282805 198.462153 
L 152.770108 198.589144 
L 152.682757 198.610321 
L 152.339294 198.692297 
L 152.029562 198.764461 
L 151.622128 198.856856 
L 151.41341 198.903076 
L 151.050767 198.9816 
L 150.635959 199.068652 
L 150.467801 199.103104 
L 150.037493 199.189071 
L 149.674267 199.259188 
L 149.417897 199.307332 
L 149.124958 199.360986 
L 148.838645 199.412029 
L 148.549047 199.462257 
L 148.124265 199.53339 
L 147.927857 199.56526 
L 147.747361 199.593982 
L 147.284097 199.665217 
L 147.106859 199.691528 
L 146.646517 199.757435 
L 146.331165 199.800564 
L 146.000225 199.844061 
L 145.646403 199.888572 
L 145.332475 199.926345 
L 145.207112 199.940978 
L 144.778271 199.989088 
L 144.392215 200.029829 
L 144.000363 200.068697 
L 143.969446 200.071658 
L 143.594282 200.106341 
L 143.190704 200.141098 
L 142.937719 200.161539 
L 142.430619 200.199392 
L 142.351607 200.204915 
L 141.865815 200.236657 
L 141.503766 200.257836 
L 141.269808 200.270398 
L 140.963835 200.285496 
L 140.662156 200.298905 
L 140.371091 200.310455 
L 140.115802 200.319463 
L 139.920803 200.325639 
L 139.370073 200.339779 
L 139.223385 200.342724 
L 138.771016 200.34963 
L 138.550268 200.351807 
L 138.245075 200.353529 
L 137.811257 200.353403 
L 137.54297 200.351814 
L 137.141694 200.347281 
L 136.927502 200.343803 
L 136.715775 200.339642 
L 136.298926 200.329344 
L 135.935309 200.318081 
L 135.646586 200.307623 
L 135.311925 200.293825 
L 135.019206 200.280277 
L 134.848321 200.27173 
L 134.392481 200.24663 
L 134.090334 200.228145 
L 133.893945 200.21534 
L 133.413559 200.18139 
L 133.077283 200.155403 
L 132.944832 200.144665 
L 132.492438 200.105841 
L 132.396227 200.097156 
L 132.006893 200.060474 
L 131.740539 200.033957 
L 131.38465 199.996722 
L 131.02854 199.957394 
L 130.737371 199.923696 
L 130.289667 199.869171 
L 129.963403 199.827362 
L 129.857191 199.813373 
L 129.523022 199.76815 
L 129.1303 199.712645 
L 128.950729 199.686415 
L 128.517804 199.620979 
L 128.112987 199.556972 
L 127.830412 199.510673 
L 127.419239 199.440919 
L 127.221086 199.406291 
L 126.887505 199.346505 
L 126.69057 199.31033 
L 126.164314 199.210444 
L 126.144901 199.20667 
L 125.828624 199.144276 
L 125.307682 199.037791 
L 125.072523 198.988204 
L 124.88023 198.94695 
L 124.316824 198.822416 
L 124.056583 198.763041 
L 123.84175 198.713142 
L 123.33632 198.592577 
L 123.092813 198.532897 
L 122.998546 198.509515 
L 122.680885 198.429571 
L 122.140133 198.289386 
L 122.029861 198.260163 
L 121.754435 198.186227 
L 121.412186 198.092466 
L 120.919092 197.953685 
L 120.778273 197.913247 
L 120.41353 197.806836 
L 120.17671 197.73645 
L 119.869242 197.64354 
L 119.548456 197.544756 
L 119.22268 197.442495 
L 118.761351 197.294318 
L 118.491852 197.205919 
L 118.113254 197.079433 
L 117.846445 196.988671 
L 117.658269 196.923846 
L 117.300923 196.798889 
L 117.063747 196.714605 
L 116.508445 196.51303 
L 116.236619 196.412177 
L 115.859834 196.269996 
L 115.58615 196.16497 
L 115.198509 196.013676 
L 115.067375 195.961819 
L 114.739043 195.830469 
L 114.29439 195.649125 
L 114.250098 195.630842 
L 113.644716 195.376934 
L 113.408403 195.275777 
L 113.211152 195.190456 
L 112.759145 194.99188 
L 112.458212 194.857295 
L 112.141242 194.713464 
L 111.970575 194.635134 
L 111.579995 194.45352 
L 111.136186 194.243148 
L 111.085371 194.218787 
L 110.556263 193.961755 
L 110.38794 193.878687 
L 110.10482 193.737539 
L 109.705098 193.53519 
L 109.25811 193.304611 
L 109.034255 193.187411 
L 108.833732 193.081442 
L 108.521908 192.914792 
L 108.259159 192.772596 
L 107.898225 192.574595 
L 107.499422 192.352191 
L 107.317001 192.249177 
L 106.892308 192.006198 
L 106.892308 200.353846 
L 106.904347 201.578628 
L 106.916386 202.085866 
L 106.928424 202.475026 
L 106.940463 202.803055 
L 106.952502 203.092013 
L 106.964541 203.353213 
L 106.97658 203.593376 
L 106.988619 203.816882 
L 107.000658 204.026772 
L 107.012697 204.225263 
L 107.024736 204.414026 
L 107.036775 204.594361 
L 107.048814 204.7673 
L 107.060853 204.933682 
L 107.084931 205.249423 
L 107.109008 205.545887 
L 107.133086 205.826209 
L 107.157164 206.092753 
L 107.181242 206.347358 
L 107.20532 206.591487 
L 107.229398 206.826325 
L 107.253476 207.052849 
L 107.277554 207.271877 
L 107.312802 207.580413 
L 107.348051 207.876141 
L 107.3833 208.160515 
L 107.418548 208.434735 
L 107.453797 208.6998 
L 107.489046 208.956558 
L 107.524295 209.205732 
L 107.559543 209.447944 
L 107.63081 209.918541 
L 107.702077 210.366539 
L 107.773344 210.794847 
L 107.844611 211.205795 
L 107.925835 211.655404 
L 108.007059 212.087236 
L 108.088282 212.503186 
L 108.169506 212.904834 
L 108.267225 213.370966 
L 108.364944 213.820265 
L 108.462663 214.254363 
L 108.560382 214.674643 
L 108.67557 215.15391 
L 108.790758 215.617268 
L 108.902165 216.051603 
L 109.013571 216.47347 
L 109.141355 216.943229 
L 109.269138 217.39909 
L 109.367847 217.742404 
L 109.466555 218.078521 
L 109.565264 218.407842 
L 109.663972 218.730732 
L 109.768381 219.06564 
L 109.872791 219.394087 
L 110.081609 220.032881 
L 110.304985 220.691638 
L 110.489778 221.219089 
L 110.674571 221.731934 
L 110.818907 222.123009 
L 110.963242 222.50624 
L 111.152955 222.998693 
L 111.342668 223.479106 
L 111.492292 223.849994 
L 111.641916 224.214179 
L 111.772103 224.525838 
L 111.957194 224.960952 
L 112.142284 225.387136 
L 112.44706 226.070617 
L 112.688559 226.597047 
L 112.912815 227.074649 
L 113.13707 227.542012 
L 113.475036 228.228151 
L 113.66452 228.603784 
L 113.893941 229.050332 
L 114.123361 229.488231 
L 114.331453 229.878261 
L 114.539545 230.261757 
L 114.768915 230.677196 
L 114.90837 230.926177 
L 115.161692 231.371741 
L 115.415014 231.808954 
L 115.792946 232.446448 
L 116.051474 232.872805 
L 116.315335 233.300177 
L 116.559901 233.68954 
L 116.92412 234.257841 
L 117.34589 234.899465 
L 117.461547 235.072443 
L 117.803852 235.577197 
L 118.318466 236.316577 
L 118.457784 236.512884 
L 118.904524 237.131742 
L 119.061775 237.34583 
L 119.274312 237.63218 
L 119.571854 238.027387 
L 119.869397 238.416165 
L 120.028329 238.621264 
L 120.454858 239.163119 
L 120.57839 239.317773 
L 120.948202 239.774812 
L 121.350015 240.261583 
L 121.751478 240.738079 
L 122.012848 241.043172 
L 122.224798 241.287682 
L 122.461977 241.558284 
L 122.896923 242.046454 
L 123.243631 242.428312 
L 123.51829 242.72636 
L 123.93801 243.174411 
L 124.105847 243.351124 
L 124.524846 243.786312 
L 124.737978 244.004472 
L 124.937671 244.20695 
L 125.507802 244.775016 
L 125.609177 244.8745 
L 126.00868 245.262179 
L 126.232234 245.47612 
L 126.706513 245.923047 
L 126.820898 246.029444 
L 127.294713 246.464533 
L 127.573503 246.716366 
L 127.948077 247.049964 
L 128.228238 247.295973 
L 128.530616 247.558186 
L 128.800483 247.789356 
L 129.034281 247.987485 
L 129.548054 248.416011 
L 129.874123 248.683174 
L 130.129235 248.889646 
L 130.264707 248.998388 
L 130.663263 249.314733 
L 130.976016 249.559288 
L 131.43723 249.91413 
L 131.516943 249.974767 
L 131.870074 250.24097 
L 132.220025 250.50093 
L 132.560147 250.749974 
L 132.788792 250.915417 
L 133.218889 251.222385 
L 133.409571 251.356726 
L 133.819482 251.641929 
L 134.123934 251.850624 
L 134.424526 252.054088 
L 134.857024 252.342389 
L 135.032626 252.457964 
L 135.24466 252.59639 
L 135.721399 252.903174 
L 136.003586 253.08189 
L 136.180165 253.192649 
L 136.759567 253.550339 
L 137.016901 253.706415 
L 137.278334 253.863245 
L 137.440675 253.959758 
L 137.881921 254.218737 
L 138.146718 254.371827 
L 138.500188 254.573493 
L 138.711161 254.692407 
L 139.071133 254.892822 
L 139.440135 255.095046 
L 139.919073 255.352717 
L 140.074939 255.435416 
L 140.300254 255.553966 
L 140.562894 255.690676 
L 141.065422 255.947857 
L 141.286365 256.05912 
L 141.638287 256.234079 
L 141.873743 256.349598 
L 142.355015 256.581911 
L 142.548732 256.673988 
L 143.016421 256.892936 
L 143.278978 257.013789 
L 143.479717 257.105195 
L 143.714629 257.211074 
L 144.306389 257.47264 
L 144.387538 257.507938 
L 144.695697 257.640735 
L 145.019815 257.778294 
L 145.338251 257.911343 
L 145.575089 258.008959 
L 146.010058 258.185283 
L 146.311734 258.305341 
L 146.563813 258.404269 
L 146.949614 258.553235 
L 147.211362 258.652631 
L 147.738906 258.848888 
L 147.90799 258.910646 
L 148.09946 258.979913 
L 148.461723 259.109036 
L 148.785429 259.222291 
L 149.240123 259.378009 
L 149.36777 259.421021 
L 149.806435 259.566498 
L 150.206181 259.695934 
L 150.456646 259.775519 
L 150.697878 259.851073 
L 150.939477 259.925667 
L 151.222141 260.011579 
L 151.575857 260.11703 
L 151.871075 260.203298 
L 152.15472 260.284697 
L 152.687754 260.433745 
L 152.933147 260.50065 
L 153.117445 260.550191 
L 153.507041 260.65293 
L 153.796751 260.727586 
L 154.036817 260.788326 
L 154.618634 260.931336 
L 154.710085 260.953276 
L 154.975918 261.016223 
L 155.319253 261.095705 
L 155.680094 261.177038 
L 156.174628 261.284858 
L 156.325859 261.316991 
L 156.58676 261.371505 
L 157.059421 261.467305 
L 157.284864 261.511659 
L 157.606682 261.573479 
L 157.786554 261.607269 
L 158.380818 261.715021 
L 158.58899 261.751362 
L 158.995869 261.820294 
L 159.329614 261.874769 
L 159.58795 261.915661 
L 159.940293 261.969642 
L 160.253163 262.015849 
L 160.489242 262.049642 
L 160.799529 262.092656 
L 160.943436 262.112066 
L 161.386867 262.16973 
L 161.616995 262.198382 
L 162.028178 262.247412 
L 162.313808 262.279841 
L 162.746995 262.326479 
L 162.797932 262.331762 
L 163.222194 262.37412 
L 163.454082 262.396033 
L 164.016104 262.445518 
L 164.284269 262.467324 
L 164.582611 262.490214 
L 164.898767 262.512899 
L 165.02798 262.521706 
L 165.573099 262.555889 
L 165.610224 262.558042 
L 166.144313 262.586565 
L 166.450781 262.600857 
L 166.679815 262.61055 
L 166.890834 262.618734 
L 167.407156 262.635739 
L 167.558632 262.639915 
L 167.943288 262.648864 
L 168.137692 262.652482 
L 168.603846 262.658686 
L 168.790966 262.660196 
L 169.2 262.661538 
z
" clip-path="url(#pe143cf71d2)" style="fill: #808080; opacity: 0.5"/>
   </g>
   <g id="patch_6">
    <path d="M 200.353846 146.393802 
L 200.264998 146.342603 
L 199.986879 146.18359 
L 199.956196 146.166164 
L 199.75232 146.050953 
L 199.508732 145.91462 
L 199.425162 145.868177 
L 199.303417 145.800819 
L 199.165489 145.724934 
L 198.873605 145.565839 
L 198.783496 145.517131 
L 198.592915 145.414743 
L 198.454789 145.341067 
L 198.303479 145.26087 
L 198.144606 145.177236 
L 197.978604 145.090473 
L 197.828819 145.012729 
L 197.733479 144.963512 
L 197.582207 144.885848 
L 197.446084 144.816406 
L 197.248991 144.716605 
L 197.014906 144.599209 
L 196.950316 144.567033 
L 196.783886 144.484555 
L 196.671809 144.429359 
L 196.442308 144.317205 
L 196.290753 144.243779 
L 196.16979 144.185537 
L 195.989143 144.099154 
L 195.786886 144.003283 
L 195.634062 143.931431 
L 195.482539 143.86069 
L 195.419674 143.831486 
L 195.215902 143.737405 
L 194.968537 143.624391 
L 194.885632 143.586806 
L 194.693632 143.500322 
L 194.57086 143.445429 
L 194.418082 143.377563 
L 194.297934 143.324536 
L 194.161984 143.264899 
L 193.905551 143.153459 
L 193.786453 143.102166 
L 193.674155 143.054071 
L 193.39895 142.937304 
L 193.252796 142.875924 
L 193.135569 142.827008 
L 193.034376 142.785009 
L 192.819606 142.696559 
L 192.656466 142.629998 
L 192.601595 142.607731 
L 192.357979 142.509602 
L 192.159999 142.430733 
L 192.099372 142.406739 
L 191.853679 142.310247 
L 191.748951 142.269482 
L 191.617456 142.218606 
L 191.399823 142.135152 
L 191.328671 142.10807 
L 191.118315 142.028586 
L 190.929374 141.957932 
L 190.848038 141.927731 
L 190.621109 141.84415 
L 190.465455 141.787397 
L 190.409516 141.767116 
L 190.101136 141.656393 
L 190.09179 141.653066 
L 189.839596 141.563919 
L 189.740645 141.529273 
L 189.621969 141.487967 
L 189.428351 141.421153 
L 189.279146 141.37015 
L 189.010077 141.279237 
L 188.942323 141.25656 
L 188.784075 141.20393 
L 188.581606 141.137279 
L 188.476133 141.102861 
L 188.307501 141.048265 
L 188.097362 140.980972 
L 187.937524 140.930335 
L 187.85552 140.904539 
L 187.750137 140.871572 
L 187.588553 140.821421 
L 187.307117 140.735218 
L 187.178317 140.696251 
L 187.097022 140.671813 
L 186.865793 140.602961 
L 186.79026 140.580681 
L 186.595843 140.52381 
L 186.460437 140.484607 
L 186.30436 140.43983 
L 186.151478 140.396395 
L 185.879532 140.320175 
L 185.833936 140.307525 
L 185.677037 140.264282 
L 185.529006 140.223886 
L 185.249437 140.148663 
L 185.102569 140.109703 
L 184.998832 140.082415 
L 184.890293 140.054068 
L 184.7315 140.012973 
L 184.596582 139.978406 
L 184.391983 139.926599 
L 184.271894 139.896535 
L 183.996716 139.828598 
L 183.903638 139.805918 
L 183.801076 139.781104 
L 183.648048 139.744421 
L 183.377583 139.680585 
L 183.212066 139.642146 
L 183.15228 139.628379 
L 182.919563 139.575379 
L 182.751032 139.537581 
L 182.58997 139.501918 
L 182.466862 139.474959 
L 182.294213 139.437591 
L 182.146848 139.406101 
L 182.057048 139.387094 
L 181.946813 139.363951 
L 181.792624 139.331929 
L 181.637727 139.300169 
L 181.461206 139.264474 
L 181.293692 139.231092 
L 181.043307 139.182083 
L 180.891422 139.152873 
L 180.713499 139.119151 
L 180.603594 139.098589 
L 180.542505 139.087248 
L 180.255334 139.034778 
L 180.177945 139.020876 
L 180.041176 138.996553 
L 179.825888 138.958903 
L 179.629911 138.925307 
L 179.459677 138.896645 
L 179.419263 138.889912 
L 179.267547 138.864879 
L 179.016531 138.824307 
L 178.83614 138.795798 
L 178.703021 138.775107 
L 178.561223 138.753391 
L 178.460784 138.738212 
L 178.278171 138.711042 
L 178.112328 138.686846 
L 177.931729 138.661015 
L 177.818583 138.645106 
L 177.729438 138.632722 
L 177.565363 138.61027 
L 177.269907 138.570959 
L 177.16624 138.557507 
L 176.999682 138.536264 
L 176.836704 138.515919 
L 176.713469 138.500824 
L 176.626912 138.490371 
L 176.375842 138.460746 
L 176.321349 138.454453 
L 176.039538 138.422681 
L 175.953706 138.413262 
L 175.810638 138.39783 
L 175.620615 138.377849 
L 175.442005 138.359605 
L 175.248979 138.340474 
L 175.177951 138.333586 
L 174.999583 138.316653 
L 174.913362 138.308653 
L 174.652267 138.285164 
L 174.599248 138.280529 
L 174.399302 138.263462 
L 174.157954 138.243725 
L 174.079953 138.237547 
L 173.860701 138.220712 
L 173.71893 138.21024 
L 173.62348 138.203373 
L 173.48457 138.193642 
L 173.328841 138.183104 
L 173.071774 138.166565 
L 173.019668 138.163343 
L 172.75096 138.147422 
L 172.687311 138.143821 
L 172.544946 138.136004 
L 172.355883 138.126128 
L 172.105872 138.113952 
L 172.032517 138.11057 
L 171.804512 138.100613 
L 171.718804 138.097086 
L 171.51113 138.089031 
L 171.35184 138.083323 
L 171.21548 138.07876 
L 171.10582 138.075308 
L 170.874274 138.068653 
L 170.756124 138.065589 
L 170.679428 138.06372 
L 170.441278 138.058519 
L 170.275406 138.055435 
L 170.138996 138.05323 
L 170.018585 138.051531 
L 169.860131 138.049651 
L 169.681939 138.048018 
L 169.563283 138.047213 
L 169.374836 138.046399 
L 169.2 138.046154 
L 169.2 262.661538 
L 169.337007 262.661388 
L 169.541359 262.660603 
L 169.656797 262.659864 
L 169.874224 262.657891 
L 169.923974 262.657332 
L 170.086686 262.655229 
L 170.224533 262.653115 
L 170.45975 262.648802 
L 170.572639 262.646417 
L 170.780282 262.641495 
L 170.99202 262.635763 
L 171.041742 262.634313 
L 171.266831 262.627249 
L 171.461503 262.620483 
L 171.538923 262.617623 
L 171.721855 262.610483 
L 171.876709 262.604017 
L 171.966264 262.600102 
L 172.115398 262.593295 
L 172.261379 262.586285 
L 172.463441 262.576016 
L 172.58944 262.56928 
L 172.783276 262.558417 
L 172.881859 262.55266 
L 173.146629 262.536421 
L 173.341687 262.523734 
L 173.386968 262.520701 
L 173.554747 262.509173 
L 173.816266 262.490298 
L 173.880041 262.485527 
L 174.003305 262.476119 
L 174.195219 262.460982 
L 174.328313 262.450134 
L 174.547606 262.431633 
L 174.743202 262.414473 
L 174.862312 262.403719 
L 174.978174 262.393037 
L 175.215411 262.370484 
L 175.344435 262.357833 
L 175.502952 262.34192 
L 175.645096 262.327302 
L 175.773065 262.31386 
L 175.85366 262.305257 
L 176.077475 262.28081 
L 176.229213 262.26377 
L 176.431995 262.24041 
L 176.512593 262.230938 
L 176.659977 262.213342 
L 176.855277 262.189477 
L 177.003842 262.170903 
L 177.126753 262.155263 
L 177.323723 262.12968 
L 177.539589 262.100909 
L 177.635398 262.087893 
L 177.883275 262.053516 
L 177.90459 262.050512 
L 178.107331 262.021569 
L 178.260787 261.999208 
L 178.445741 261.97174 
L 178.600655 261.948296 
L 178.734881 261.92766 
L 178.909147 261.900422 
L 179.138224 261.863847 
L 179.182905 261.856611 
L 179.317444 261.834622 
L 179.528299 261.799552 
L 179.636088 261.781337 
L 179.857091 261.743381 
L 180.00881 261.716849 
L 180.133652 261.694728 
L 180.333051 261.658852 
L 180.488459 261.630426 
L 180.684276 261.594028 
L 180.76625 261.578599 
L 181.012452 261.531575 
L 181.124776 261.50978 
L 181.22722 261.489715 
L 181.418916 261.451691 
L 181.510135 261.433377 
L 181.800078 261.374224 
L 181.854036 261.363058 
L 182.075889 261.316622 
L 182.138183 261.303431 
L 182.280254 261.2731 
L 182.582318 261.207458 
L 182.666743 261.188831 
L 182.83838 261.150582 
L 183.042288 261.104481 
L 183.179238 261.073113 
L 183.350413 261.03345 
L 183.36992 261.028898 
L 183.548569 260.986899 
L 183.829498 260.91973 
L 183.884929 260.906314 
L 184.136426 260.844769 
L 184.289309 260.806814 
L 184.436974 260.769764 
L 184.612677 260.72518 
L 184.737815 260.693094 
L 184.825177 260.67053 
L 185.045383 260.613056 
L 185.228768 260.564536 
L 185.283183 260.550023 
L 185.516465 260.48721 
L 185.671009 260.445063 
L 185.854093 260.39458 
L 186.012473 260.350423 
L 186.171558 260.305616 
L 186.237897 260.286797 
L 186.390673 260.243155 
L 186.520786 260.205654 
L 186.718847 260.147981 
L 186.877871 260.101159 
L 187.025243 260.057357 
L 187.141874 260.022411 
L 187.432985 259.934101 
L 187.5684 259.892493 
L 187.721591 259.845015 
L 187.824979 259.812729 
L 187.973532 259.765992 
L 188.130315 259.716222 
L 188.222776 259.686657 
L 188.447404 259.61417 
L 188.589106 259.567958 
L 188.7146 259.526719 
L 188.96246 259.444401 
L 189.109611 259.394983 
L 189.303405 259.329279 
L 189.458513 259.276178 
L 189.589886 259.230846 
L 189.724533 259.184043 
L 189.794874 259.159455 
L 190.054256 259.067972 
L 190.16413 259.02883 
L 190.302689 258.97914 
L 190.506451 258.905393 
L 190.67603 258.843406 
L 190.844409 258.781306 
L 190.977531 258.731819 
L 191.082534 258.69254 
L 191.291906 258.613577 
L 191.38859 258.576822 
L 191.567203 258.50844 
L 191.813549 258.413091 
L 191.867859 258.391909 
L 192.073914 258.311008 
L 192.265524 258.235019 
L 192.308654 258.217813 
L 192.511291 258.136475 
L 192.644742 258.082458 
L 192.911894 257.97324 
L 192.998184 257.937654 
L 193.216665 257.846875 
L 193.351154 257.790509 
L 193.465516 257.742288 
L 193.698098 257.643389 
L 193.824988 257.588962 
L 193.993868 257.516007 
L 194.06117 257.486768 
L 194.316539 257.374965 
L 194.327186 257.370274 
L 194.575582 257.260158 
L 194.735787 257.188449 
L 194.872653 257.126757 
L 194.962783 257.085914 
L 195.240063 256.959179 
L 195.291402 256.935533 
L 195.488881 256.844051 
L 195.655839 256.766053 
L 195.753764 256.720025 
L 195.932101 256.635667 
L 196.117276 256.54734 
L 196.354221 256.433225 
L 196.379625 256.420918 
L 196.587348 256.319744 
L 196.792809 256.218731 
L 196.899263 256.166025 
L 197.083299 256.07431 
L 197.181222 256.025201 
L 197.33691 255.946677 
L 197.586147 255.819828 
L 197.649149 255.78754 
L 197.786147 255.717017 
L 197.946407 255.633975 
L 198.136798 255.534551 
L 198.328784 255.433447 
L 198.504432 255.340197 
L 198.645317 255.264882 
L 198.710265 255.230005 
L 198.95653 255.096859 
L 199.09445 255.021664 
L 199.216855 254.954551 
L 199.35489 254.878438 
L 199.64091 254.719272 
L 199.649846 254.714267 
L 199.862457 254.594627 
L 200.059582 254.482718 
L 200.158007 254.426485 
L 200.353846 254.313891 
z
" clip-path="url(#pe143cf71d2)" style="fill: #808080; opacity: 0.5"/>
   </g>
   <g id="patch_7">
    <path d="M 231.507692 200.353846 
L 231.501667 199.487331 
L 231.495641 199.128438 
L 231.489615 198.85307 
L 231.48359 198.620941 
L 231.477564 198.416446 
L 231.471539 198.231582 
L 231.465513 198.061594 
L 231.459487 197.903385 
L 231.453462 197.754802 
L 231.447436 197.614279 
L 231.44141 197.480634 
L 231.435385 197.352946 
L 231.429359 197.230486 
L 231.423334 197.112661 
L 231.417308 196.998982 
L 231.411282 196.889041 
L 231.399231 196.679043 
L 231.38718 196.480451 
L 231.375129 196.291592 
L 231.363077 196.111165 
L 231.351026 195.938138 
L 231.338975 195.771671 
L 231.326924 195.611074 
L 231.314872 195.455769 
L 231.302166 195.297211 
L 231.289459 195.143507 
L 231.276752 194.994239 
L 231.264045 194.849047 
L 231.251338 194.707615 
L 231.238632 194.569669 
L 231.213218 194.303284 
L 231.197934 194.148634 
L 231.182651 193.997782 
L 231.167367 193.850464 
L 231.152083 193.706446 
L 231.121515 193.427488 
L 231.090948 193.159467 
L 231.06038 192.901205 
L 231.029813 192.651719 
L 230.999245 192.410182 
L 230.968678 192.17589 
L 230.950487 192.039649 
L 230.920034 191.81652 
L 230.889581 191.599181 
L 230.859128 191.387213 
L 230.828674 191.180242 
L 230.798221 190.977937 
L 230.767768 190.780004 
L 230.737315 190.586175 
L 230.706862 190.396212 
L 230.664109 190.135638 
L 230.621357 189.881721 
L 230.578605 189.633987 
L 230.535853 189.392017 
L 230.501958 189.204029 
L 230.468064 189.01926 
L 230.400276 188.658771 
L 230.359818 188.449009 
L 230.319361 188.243014 
L 230.278903 188.040598 
L 230.238446 187.841587 
L 230.181439 187.56664 
L 230.124432 187.29773 
L 230.064112 187.019363 
L 230.003792 186.746958 
L 229.924324 186.396589 
L 229.844855 186.055244 
L 229.777263 185.771538 
L 229.709671 185.493555 
L 229.642078 185.220979 
L 229.574486 184.953523 
L 229.485336 184.608156 
L 229.396186 184.270697 
L 229.331975 184.032263 
L 229.267764 183.79751 
L 229.200959 183.557016 
L 229.133676 183.318499 
L 229.066393 183.083537 
L 228.984725 182.802915 
L 228.903057 182.527083 
L 228.779278 182.117669 
L 228.655499 181.718069 
L 228.557896 181.409488 
L 228.449038 181.071729 
L 228.34018 180.74039 
L 228.224091 180.393757 
L 228.113355 180.069244 
L 228.002619 179.750437 
L 227.909142 179.485566 
L 227.736149 179.005127 
L 227.608337 178.657885 
L 227.493055 178.350022 
L 227.307912 177.865648 
L 227.191044 177.565969 
L 227.074175 177.270771 
L 226.945866 176.951635 
L 226.801022 176.597356 
L 226.720577 176.403236 
L 226.576456 176.060002 
L 226.432334 175.722394 
L 226.264594 175.336239 
L 226.168034 175.117133 
L 226.068791 174.894287 
L 225.902462 174.525968 
L 225.760744 174.217077 
L 225.553868 173.773965 
L 225.41457 173.480613 
L 225.281043 173.20306 
L 225.116748 172.866288 
L 224.89542 172.420557 
L 224.812773 172.256372 
L 224.606997 171.852737 
L 224.455245 171.559639 
L 224.316399 171.29475 
L 224.195222 171.066065 
L 224.023779 170.746385 
L 223.788211 170.314277 
L 223.663791 170.08928 
L 223.588359 169.95393 
L 223.390231 169.60214 
L 223.14163 169.168127 
L 223.051647 169.013001 
L 222.974108 168.880145 
L 222.699198 168.415087 
L 222.646848 168.327562 
L 222.397874 167.915679 
L 222.302787 167.760249 
L 222.047967 167.348681 
L 221.965462 167.216941 
L 221.764607 166.89924 
L 221.637216 166.699917 
L 221.527252 166.529193 
L 221.376662 166.297357 
L 221.195203 166.020956 
L 221.043829 165.7928 
L 220.938898 165.635911 
L 220.695508 165.275917 
L 220.553126 165.067801 
L 220.44664 164.913326 
L 220.271551 164.661478 
L 220.034157 164.324178 
L 219.9103 164.150061 
L 219.826312 164.032708 
L 219.567687 163.674906 
L 219.400096 163.445868 
L 219.314882 163.330244 
L 219.070677 163.00195 
L 219.002266 162.910785 
L 218.808771 162.654796 
L 218.738833 162.56294 
L 218.513695 162.269624 
L 218.422274 162.151539 
L 218.131468 161.779762 
L 218.097509 161.736724 
L 217.952215 161.553459 
L 217.715363 161.257707 
L 217.49985 160.99177 
L 217.383069 160.848905 
L 217.246947 160.683461 
L 217.045055 160.440199 
L 216.999962 160.386207 
L 216.763908 160.105577 
L 216.642033 159.961991 
L 216.523202 159.822832 
L 216.295019 159.557919 
L 216.154516 159.396283 
L 216.000757 159.220677 
L 215.778912 158.969628 
L 215.66595 158.842835 
L 215.605299 158.775044 
L 215.394353 158.540807 
L 215.236725 158.367319 
L 215.122296 158.242194 
L 214.97735 158.084676 
L 214.783588 157.875793 
L 214.6394 157.721588 
L 214.459116 157.530243 
L 214.324042 157.387937 
L 214.137099 157.192455 
L 213.937174 156.985265 
L 213.850808 156.896352 
L 213.596225 156.636301 
L 213.474704 156.513235 
L 213.342628 156.380253 
L 213.208588 156.246106 
L 213.091299 156.129391 
L 212.867517 155.908414 
L 212.759249 155.802299 
L 212.564434 155.612653 
L 212.426477 155.479352 
L 212.264272 155.323667 
L 212.065745 155.134642 
L 211.864392 154.944616 
L 211.845891 154.927241 
L 211.667937 154.760833 
L 211.441024 154.550523 
L 211.282722 154.405037 
L 211.189204 154.319562 
L 210.937255 154.091009 
L 210.810727 153.977172 
L 210.76437 153.93562 
L 210.578558 153.769907 
L 210.317155 153.539018 
L 210.235639 153.46755 
L 210.06966 153.322799 
L 209.884524 153.162555 
L 209.710524 153.013103 
L 209.532353 152.861217 
L 209.417483 152.763904 
L 209.326428 152.687104 
L 209.053009 152.45827 
L 209.008311 152.421113 
L 208.741271 152.200586 
L 208.623375 152.104016 
L 208.560163 152.052437 
L 208.338608 151.872738 
L 208.209198 151.76855 
L 208.028063 151.62367 
L 207.911322 151.53088 
L 207.649739 151.324609 
L 207.613268 151.29603 
L 207.408251 151.136186 
L 207.199773 150.975048 
L 207.016415 150.834484 
L 206.870604 150.723472 
L 206.744716 150.62817 
L 206.653658 150.559549 
L 206.468838 150.421069 
L 206.265561 150.26999 
L 206.179643 150.206518 
L 205.94746 150.036128 
L 205.798316 149.927546 
L 205.648803 149.81937 
L 205.495122 149.708879 
L 205.410173 149.648108 
L 205.194038 149.494454 
L 204.977053 149.341583 
L 204.869822 149.266545 
L 204.716204 149.15963 
L 204.543868 149.0405 
L 204.459322 148.982368 
L 204.215603 148.815937 
L 204.166546 148.782641 
L 204.01048 148.677168 
L 203.719836 148.482569 
L 203.614539 148.412648 
L 203.506493 148.341222 
L 203.310677 148.212594 
L 203.129007 148.094197 
L 202.939302 147.971521 
L 202.917529 147.957503 
L 202.765033 147.859684 
L 202.532625 147.711804 
L 202.330352 147.584269 
L 202.282778 147.55443 
L 202.004944 147.381361 
L 201.918602 147.327988 
L 201.721292 147.206748 
L 201.577221 147.118857 
L 201.507656 147.07661 
L 201.274806 146.936102 
L 201.165418 146.870573 
L 200.910749 146.719185 
L 200.848581 146.682477 
L 200.704865 146.597991 
L 200.527604 146.494495 
L 200.353846 146.393802 
L 200.353846 254.313891 
L 200.52379 254.215416 
L 200.620468 254.159076 
L 200.888155 254.00186 
L 200.95997 253.959376 
L 201.147244 253.847978 
L 201.269783 253.774605 
L 201.46 253.659952 
L 201.592833 253.579337 
L 201.781543 253.464029 
L 201.971612 253.346959 
L 202.035648 253.307305 
L 202.304169 253.139853 
L 202.33007 253.123601 
L 202.582184 252.964475 
L 202.645759 252.924083 
L 202.781992 252.837161 
L 203.001347 252.696157 
L 203.112126 252.624452 
L 203.277334 252.516897 
L 203.473175 252.388431 
L 203.620819 252.290882 
L 203.769708 252.1919 
L 203.929323 252.0851 
L 204.178504 251.916941 
L 204.309475 251.827852 
L 204.418662 251.753208 
L 204.613563 251.619118 
L 204.789095 251.497417 
L 204.950622 251.384637 
L 204.986112 251.359755 
L 205.218724 251.195759 
L 205.400176 251.066722 
L 205.563532 250.949716 
L 205.698526 250.852421 
L 205.88708 250.715604 
L 205.975285 250.651231 
L 206.131849 250.536384 
L 206.313703 250.402039 
L 206.456739 250.295652 
L 206.583188 250.201071 
L 206.812151 250.028534 
L 206.999892 249.885823 
L 207.052796 249.845404 
L 207.308654 249.648663 
L 207.383873 249.590422 
L 207.548157 249.462576 
L 207.755479 249.299975 
L 207.809746 249.257179 
L 208.037878 249.0762 
L 208.121243 249.00963 
L 208.275343 248.88596 
L 208.514831 248.69216 
L 208.647578 248.58389 
L 208.759841 248.491851 
L 208.894962 248.38049 
L 209.067116 248.23768 
L 209.324431 248.022269 
L 209.392321 247.965041 
L 209.619967 247.771931 
L 209.672219 247.727341 
L 209.920127 247.514421 
L 210.009068 247.437479 
L 210.257789 247.220748 
L 210.439477 247.060956 
L 210.507404 247.000892 
L 210.6088 246.910906 
L 210.852707 246.69282 
L 211.036152 246.527268 
L 211.12579 246.445892 
L 211.347155 246.24356 
L 211.473615 246.127092 
L 211.672758 245.942368 
L 211.740224 245.87942 
L 211.971739 245.661979 
L 212.065693 245.5731 
L 212.203525 245.442041 
L 212.41219 245.242098 
L 212.628778 245.032586 
L 212.690096 244.972901 
L 212.895417 244.77185 
L 213.026826 244.642195 
L 213.130314 244.539545 
L 213.348961 244.321081 
L 213.577323 244.090578 
L 213.709514 243.956044 
L 213.845269 243.817031 
L 214.049231 243.606534 
L 214.08215 243.572374 
L 214.26829 243.378232 
L 214.436805 243.201017 
L 214.561013 243.0695 
L 214.775061 242.841048 
L 214.972992 242.627735 
L 215.008849 242.588878 
L 215.170251 242.413144 
L 215.33005 242.237817 
L 215.465117 242.088573 
L 215.676305 241.853263 
L 215.87194 241.633121 
L 216.043943 241.437828 
L 216.139055 241.329127 
L 216.335112 241.103444 
L 216.475491 240.9405 
L 216.572934 240.826721 
L 216.822369 240.532926 
L 216.999945 240.321506 
L 217.044231 240.268481 
L 217.210976 240.067757 
L 217.469532 239.753095 
L 217.502027 239.71325 
L 217.677207 239.497287 
L 217.939442 239.170277 
L 217.984292 239.113895 
L 218.172467 238.875866 
L 218.334268 238.669277 
L 218.458497 238.509436 
L 218.673216 238.230612 
L 218.805326 238.057429 
L 219.007048 237.790545 
L 219.10749 237.656539 
L 219.345854 237.335488 
L 219.427461 237.224575 
L 219.57598 237.021395 
L 219.788336 236.727859 
L 219.851227 236.640231 
L 220.116178 236.267511 
L 220.226824 236.110129 
L 220.33564 235.954335 
L 220.622147 235.53923 
L 220.732871 235.376863 
L 220.931131 235.083353 
L 220.964764 235.033202 
L 221.206489 234.669638 
L 221.377645 234.40883 
L 221.516196 234.195598 
L 221.616958 234.039318 
L 221.737481 233.851034 
L 221.890873 233.609228 
L 222.123465 233.237815 
L 222.239214 233.050792 
L 222.475733 232.663981 
L 222.5092 232.608733 
L 222.670884 232.339986 
L 222.97424 231.827322 
L 223.022948 231.743954 
L 223.274839 231.308011 
L 223.360568 231.157764 
L 223.539351 230.841278 
L 223.690845 230.569676 
L 223.82813 230.320761 
L 223.922093 230.14883 
L 224.20262 229.627732 
L 224.304127 229.436207 
L 224.459481 229.139923 
L 224.652198 228.766911 
L 224.77491 228.526135 
L 224.933429 228.211222 
L 225.069718 227.93687 
L 225.21282 227.645099 
L 225.415821 227.224462 
L 225.498811 227.050145 
L 225.712073 226.595686 
L 225.905778 226.174444 
L 226.100724 225.741957 
L 226.161495 225.605313 
L 226.385813 225.093112 
L 226.50856 224.807425 
L 226.617983 224.549378 
L 226.727406 224.288049 
L 226.847183 223.998102 
L 227.033204 223.53938 
L 227.147628 223.2519 
L 227.311835 222.831905 
L 227.408379 222.580703 
L 227.534188 222.24839 
L 227.661197 221.906965 
L 227.788206 221.559284 
L 227.887763 221.282177 
L 227.982185 221.015483 
L 228.076607 220.744865 
L 228.165948 220.485053 
L 228.282181 220.141328 
L 228.398414 219.79083 
L 228.495901 219.491365 
L 228.593389 219.186634 
L 228.731262 218.746163 
L 228.796862 218.532476 
L 228.931339 218.085618 
L 228.998577 217.857523 
L 229.065815 217.626155 
L 229.129166 217.405049 
L 229.192517 217.1808 
L 229.281356 216.86079 
L 229.382324 216.488788 
L 229.483293 216.107357 
L 229.575395 215.750605 
L 229.667497 215.384824 
L 229.723135 215.159203 
L 229.778774 214.929878 
L 229.838631 214.678822 
L 229.898488 214.423033 
L 229.958346 214.162247 
L 230.018203 213.896175 
L 230.06514 213.683633 
L 230.112078 213.467477 
L 230.165637 213.216182 
L 230.219196 212.95965 
L 230.272755 212.697555 
L 230.326314 212.429536 
L 230.366134 212.22619 
L 230.405955 212.019164 
L 230.46685 211.694992 
L 230.527746 211.36094 
L 230.589286 211.01237 
L 230.620056 210.833602 
L 230.650826 210.65164 
L 230.681595 210.466311 
L 230.712365 210.277425 
L 230.743135 210.084777 
L 230.773905 209.888137 
L 230.815063 209.618429 
L 230.856221 209.340442 
L 230.897379 209.053382 
L 230.938537 208.756319 
L 230.975145 208.482804 
L 231.011753 208.199589 
L 231.048361 207.905582 
L 231.066665 207.754132 
L 231.084969 207.599471 
L 231.108266 207.39765 
L 231.131562 207.189794 
L 231.154858 206.975335 
L 231.178154 206.753608 
L 231.20145 206.52383 
L 231.224746 206.285066 
L 231.248042 206.036183 
L 231.271339 205.775788 
L 231.284365 205.624533 
L 231.297391 205.468774 
L 231.310418 205.308087 
L 231.323444 205.141975 
L 231.336471 204.969852 
L 231.349497 204.791019 
L 231.362524 204.604629 
L 231.37555 204.40964 
L 231.383809 204.280982 
L 231.392068 204.147946 
L 231.400327 204.010053 
L 231.408586 203.866733 
L 231.416845 203.717291 
L 231.425104 203.560871 
L 231.433362 203.396398 
L 231.441621 203.222487 
L 231.44988 203.037303 
L 231.45401 202.939732 
L 231.458139 202.838326 
L 231.462268 202.732594 
L 231.466398 202.621931 
L 231.470527 202.505576 
L 231.474657 202.38255 
L 231.478786 202.251557 
L 231.482916 202.110814 
L 231.487045 201.957757 
L 231.491175 201.788452 
L 231.495304 201.596272 
L 231.499433 201.368299 
L 231.503563 201.071185 
z
" clip-path="url(#pe143cf71d2)" style="fill: #808080; opacity: 0.5"/>
   </g>
   <g id="matplotlib.axis_1"/>
   <g id="matplotlib.axis_2"/>
   <g id="line2d_1">
    <path d="M 138.046154 138.046154 
L 138.178925 142.111584 
L 138.529894 145.795181 
L 139.085184 149.377508 
L 139.896632 153.11844 
L 140.881113 156.626857 
L 142.097543 160.147096 
L 143.539156 163.626216 
L 145.121745 166.884732 
L 146.981229 170.195994 
L 148.986334 173.311254 
L 151.149496 176.271544 
L 153.536812 179.160796 
L 156.112964 181.920894 
L 158.727835 184.40911 
L 161.584137 186.822769 
L 164.502525 189.006249 
L 167.634815 191.071747 
L 169.2 192.006198 
L 169.2 192.006198 
" clip-path="url(#pe143cf71d2)" style="fill: none; stroke: #ff0000; stroke-linecap: square"/>
   </g>
   <g id="line2d_2">
    <path d="M 106.892308 200.353846 
L 107.036775 204.594361 
L 107.3833 208.160515 
L 107.925835 211.655404 
L 108.67557 215.15391 
L 109.663972 218.730732 
L 110.818907 222.123009 
L 112.142284 225.387136 
L 113.893941 229.050332 
L 115.792946 232.446448 
L 117.803852 235.577197 
L 120.028329 238.621264 
L 122.461977 241.558284 
L 124.937671 244.20695 
L 127.948077 247.049964 
L 130.663263 249.314733 
L 133.819482 251.641929 
L 137.016901 253.706415 
L 140.300254 255.553966 
L 143.714629 257.211074 
L 147.211362 258.652631 
L 150.939477 259.925667 
L 154.618634 260.931336 
L 157.786554 261.607269 
L 161.616995 262.198382 
L 165.02798 262.521706 
L 168.790966 262.660196 
L 169.2 262.661538 
L 169.2 262.661538 
" clip-path="url(#pe143cf71d2)" style="fill: none; stroke: #228b22; stroke-linecap: square"/>
   </g>
   <g id="line2d_3">
    <path d="M 169.2 262.661538 
L 172.881859 262.55266 
L 176.659977 262.213342 
L 180.333051 261.658852 
L 183.884929 260.906314 
L 187.5684 259.892493 
L 191.082534 258.69254 
L 194.575582 257.260158 
L 197.946407 255.633975 
L 200.353846 254.313891 
L 200.353846 254.313891 
" clip-path="url(#pe143cf71d2)" style="fill: none; stroke: #228b22; stroke-linecap: square"/>
   </g>
   <g id="line2d_4">
    <path d="M 200.353846 254.313891 
L 203.473175 252.388431 
L 206.583188 250.201071 
L 209.392321 247.965041 
L 212.203525 245.442041 
L 214.775061 242.841048 
L 217.210976 240.067757 
L 219.57598 237.021395 
L 221.737481 233.851034 
L 223.690845 230.569676 
L 225.415821 227.224462 
L 226.847183 223.998102 
L 228.165948 220.485053 
L 229.281356 216.86079 
L 230.165637 213.216182 
L 230.815063 209.618429 
L 231.248042 206.036183 
L 231.478786 202.251557 
L 231.507692 200.353846 
L 231.507692 200.353846 
" clip-path="url(#pe143cf71d2)" style="fill: none; stroke: #228b22; stroke-linecap: square"/>
   </g>
   <g id="text_1">
    <!-- $\Omega$ -->
    <g transform="translate(16.011538 22.420913) scale(0.1 -0.1)">
     <defs>
      <path id="Cmr10-ad" d="M 494 0 
L 281 1063 
L 469 1063 
Q 503 878 531 736 
Q 559 594 604 536 
Q 650 478 750 459 
Q 850 441 1081 441 
L 1472 441 
Q 1378 803 1004 1386 
Q 631 1969 495 2233 
Q 359 2497 359 2913 
Q 359 3397 646 3761 
Q 934 4125 1389 4319 
Q 1844 4513 2309 4513 
Q 2772 4513 3226 4319 
Q 3681 4125 3968 3758 
Q 4256 3391 4256 2913 
Q 4256 2588 4137 2300 
Q 4019 2013 3834 1725 
Q 3650 1438 3436 1084 
Q 3222 731 3144 441 
L 3531 441 
Q 3766 441 3869 459 
Q 3972 478 4015 536 
Q 4059 594 4086 736 
Q 4113 878 4147 1063 
L 4331 1063 
L 4122 0 
L 2988 0 
Q 2925 0 2925 84 
Q 2925 409 3004 721 
Q 3084 1034 3240 1478 
Q 3397 1922 3484 2261 
Q 3572 2600 3572 2913 
Q 3572 3297 3422 3625 
Q 3272 3953 2984 4150 
Q 2697 4347 2309 4347 
Q 1725 4347 1384 3930 
Q 1044 3513 1044 2913 
Q 1047 2584 1122 2293 
Q 1197 2003 1364 1518 
Q 1531 1034 1611 721 
Q 1691 409 1691 84 
Q 1691 0 1625 0 
L 494 0 
z
" transform="scale(0.015625)"/>
     </defs>
     <use xlink:href="#Cmr10-ad" transform="translate(0 0.484375)"/>
    </g>
   </g>
   <g id="text_2">
    <!-- $A$ -->
    <g style="fill: #0000ff" transform="translate(103.142308 78.497837) scale(0.1 -0.1)">
     <defs>
      <path id="Cmmi10-41" d="M 288 0 
Q 225 0 225 84 
Q 250 225 306 225 
Q 566 225 755 328 
Q 944 431 1081 647 
Q 1094 659 1094 659 
L 3378 4513 
Q 3428 4581 3500 4581 
L 3584 4581 
Q 3603 4581 3622 4573 
Q 3641 4566 3655 4548 
Q 3669 4531 3669 4513 
L 4056 378 
Q 4056 350 4084 294 
Q 4147 225 4563 225 
Q 4628 225 4628 141 
Q 4606 56 4592 28 
Q 4578 0 4519 0 
L 2919 0 
Q 2859 0 2859 84 
Q 2894 225 2944 225 
Q 3450 225 3481 397 
L 3384 1453 
L 1806 1453 
L 1294 594 
Q 1247 525 1247 434 
Q 1247 322 1355 273 
Q 1463 225 1594 225 
Q 1656 225 1656 141 
Q 1634 50 1621 25 
Q 1609 0 1550 0 
L 288 0 
z
M 1931 1678 
L 3359 1678 
L 3169 3750 
L 1931 1678 
z
" transform="scale(0.015625)"/>
     </defs>
     <use xlink:href="#Cmmi10-41" transform="translate(0 0.421875)"/>
    </g>
   </g>
   <g id="text_3">
    <!-- $B$ -->
    <g style="fill: #ff0000" transform="translate(227.707692 78.497837) scale(0.1 -0.1)">
     <defs>
      <path id="Cmmi10-42" d="M 319 0 
Q 256 0 256 84 
Q 259 100 268 137 
Q 278 175 293 200 
Q 309 225 341 225 
Q 522 225 656 234 
Q 791 244 884 269 
Q 959 297 1006 441 
L 1881 3956 
Q 1894 4019 1894 4044 
Q 1894 4113 1819 4122 
Q 1697 4147 1356 4147 
Q 1294 4147 1294 4231 
Q 1297 4247 1306 4286 
Q 1316 4325 1333 4348 
Q 1350 4372 1375 4372 
L 3669 4372 
Q 3878 4372 4083 4320 
Q 4288 4269 4461 4156 
Q 4634 4044 4736 3876 
Q 4838 3709 4838 3488 
Q 4838 3247 4714 3040 
Q 4591 2834 4395 2681 
Q 4200 2528 3973 2429 
Q 3747 2331 3500 2284 
Q 3675 2284 3854 2215 
Q 4034 2147 4175 2028 
Q 4316 1909 4402 1743 
Q 4488 1578 4488 1388 
Q 4488 1003 4219 684 
Q 3950 366 3542 183 
Q 3134 0 2753 0 
L 319 0 
z
M 1497 275 
Q 1497 225 1716 225 
L 2631 225 
Q 2944 225 3231 398 
Q 3519 572 3692 859 
Q 3866 1147 3866 1459 
Q 3866 1650 3786 1820 
Q 3706 1991 3556 2089 
Q 3406 2188 3213 2188 
L 1966 2188 
L 1522 416 
Q 1497 328 1497 275 
z
M 2009 2356 
L 2981 2356 
Q 3288 2356 3577 2512 
Q 3866 2669 4048 2937 
Q 4231 3206 4231 3506 
Q 4231 3784 4057 3965 
Q 3884 4147 3609 4147 
L 2731 4147 
Q 2559 4147 2500 4115 
Q 2441 4084 2400 3928 
L 2009 2356 
z
" transform="scale(0.015625)"/>
     </defs>
     <use xlink:href="#Cmmi10-42" transform="translate(0 0.6875)"/>
    </g>
   </g>
   <g id="text_4">
    <!-- $C$ -->
    <g style="fill: #228b22" transform="translate(150.023077 271.651683) scale(0.1 -0.1)">
     <defs>
      <path id="Cmmi10-43" d="M 934 1381 
Q 934 997 1082 705 
Q 1231 413 1514 248 
Q 1797 84 2181 84 
Q 2584 84 2957 290 
Q 3331 497 3595 842 
Q 3859 1188 3956 1575 
Q 3969 1613 4006 1613 
L 4084 1613 
Q 4109 1613 4125 1595 
Q 4141 1578 4141 1556 
Q 4141 1550 4134 1538 
Q 4025 1094 3711 705 
Q 3397 316 2959 87 
Q 2522 -141 2059 -141 
Q 1559 -141 1162 84 
Q 766 309 545 709 
Q 325 1109 325 1613 
Q 325 2150 565 2676 
Q 806 3203 1212 3614 
Q 1619 4025 2139 4269 
Q 2659 4513 3194 4513 
Q 3406 4513 3600 4448 
Q 3794 4384 3959 4253 
Q 4125 4122 4231 3950 
L 4738 4500 
Q 4738 4513 4769 4513 
L 4806 4513 
Q 4831 4513 4847 4491 
Q 4863 4469 4863 4447 
L 4428 2719 
Q 4428 2675 4378 2675 
L 4263 2675 
Q 4213 2675 4213 2747 
Q 4238 2888 4238 3084 
Q 4238 3397 4131 3673 
Q 4025 3950 3801 4119 
Q 3578 4288 3256 4288 
Q 2734 4288 2300 4025 
Q 1866 3763 1564 3336 
Q 1263 2909 1098 2389 
Q 934 1869 934 1381 
z
" transform="scale(0.015625)"/>
     </defs>
     <use xlink:href="#Cmmi10-43" transform="translate(0 0.484375)"/>
    </g>
   </g>
   <g id="patch_8">
    <path d="M 138.046154 200.353846 
C 154.570347 200.353846 170.419977 193.788715 182.104346 182.104346 
C 193.788715 170.419977 200.353846 154.570347 200.353846 138.046154 
C 200.353846 121.521961 193.788715 105.672331 182.104346 93.987962 
C 170.419977 82.303593 154.570347 75.738462 138.046154 75.738462 
C 121.521961 75.738462 105.672331 82.303593 93.987962 93.987962 
C 82.303593 105.672331 75.738462 121.521961 75.738462 138.046154 
C 75.738462 154.570347 82.303593 170.419977 93.987962 182.104346 
C 105.672331 193.788715 121.521961 200.353846 138.046154 200.353846 
L 138.046154 200.353846 
z
" clip-path="url(#pe143cf71d2)" style="fill: none; stroke: #0000ff; stroke-linejoin: miter"/>
   </g>
   <g id="patch_9">
    <path d="M 200.353846 200.353846 
C 216.878039 200.353846 232.727669 193.788715 244.412038 182.104346 
C 256.096407 170.419977 262.661538 154.570347 262.661538 138.046154 
C 262.661538 121.521961 256.096407 105.672331 244.412038 93.987962 
C 232.727669 82.303593 216.878039 75.738462 200.353846 75.738462 
C 183.829653 75.738462 167.980023 82.303593 156.295654 93.987962 
C 144.611285 105.672331 138.046154 121.521961 138.046154 138.046154 
C 138.046154 154.570347 144.611285 170.419977 156.295654 182.104346 
C 167.980023 193.788715 183.829653 200.353846 200.353846 200.353846 
L 200.353846 200.353846 
z
" clip-path="url(#pe143cf71d2)" style="fill: none; stroke: #ff0000; stroke-linejoin: miter"/>
   </g>
   <g id="patch_10">
    <path d="M 169.2 262.661538 
C 185.724193 262.661538 201.573823 256.096407 213.258192 244.412038 
C 224.942561 232.727669 231.507692 216.878039 231.507692 200.353846 
C 231.507692 183.829653 224.942561 167.980023 213.258192 156.295654 
C 201.573823 144.611285 185.724193 138.046154 169.2 138.046154 
C 152.675807 138.046154 136.826177 144.611285 125.141808 156.295654 
C 113.457439 167.980023 106.892308 183.829653 106.892308 200.353846 
C 106.892308 216.878039 113.457439 232.727669 125.141808 244.412038 
C 136.826177 256.096407 152.675807 262.661538 169.2 262.661538 
L 169.2 262.661538 
z
" clip-path="url(#pe143cf71d2)" style="fill: none; stroke: #228b22; stroke-linejoin: miter"/>
   </g>
  </g>
 </g>
 <defs>
  <clipPath id="pe143cf71d2">
   <rect x="7.2" y="7.2" width="324" height="324"/>
  </clipPath>
 </defs>
</svg>
