<?xml version="1.0" encoding="utf-8" standalone="no"?>
<!DOCTYPE svg PUBLIC "-//W3C//DTD SVG 1.1//EN"
  "http://www.w3.org/Graphics/SVG/1.1/DTD/svg11.dtd">
<svg xmlns:xlink="http://www.w3.org/1999/xlink" width="338.4pt" height="338.4pt" viewBox="0 0 338.4 338.4" xmlns="http://www.w3.org/2000/svg" version="1.1">
 <metadata>
  <rdf:RDF xmlns:dc="http://purl.org/dc/elements/1.1/" xmlns:cc="http://creativecommons.org/ns#" xmlns:rdf="http://www.w3.org/1999/02/22-rdf-syntax-ns#">
   <cc:Work>
    <dc:type rdf:resource="http://purl.org/dc/dcmitype/StillImage"/>
    <dc:date>2025-08-21T01:25:12.561296</dc:date>
    <dc:format>image/svg+xml</dc:format>
    <dc:creator>
     <cc:Agent>
      <dc:title>Matplotlib v3.8.0, https://matplotlib.org/</dc:title>
     </cc:Agent>
    </dc:creator>
   </cc:Work>
  </rdf:RDF>
 </metadata>
 <defs>
  <style type="text/css">*{stroke-linejoin: round; stroke-linecap: butt}</style>
 </defs>
 <g id="figure_1">
  <g id="patch_1">
   <path d="M -0 338.4 
L 338.4 338.4 
L 338.4 0 
L -0 0 
z
" style="fill: #ffffff"/>
  </g>
  <g id="axes_1">
   <g id="patch_2">
    <path d="M 7.2 331.2 
L 331.2 331.2 
L 331.2 7.2 
L 7.2 7.2 
z
" style="fill: #ffffff"/>
   </g>
   <g id="patch_3">
    <path d="M 13.430769 324.969231 
L 13.430769 13.430769 
L 324.969231 13.430769 
L 324.969231 324.969231 
L 13.430769 324.969231 
z
" clip-path="url(#p8fb83f61d2)" style="fill: none; stroke: #000000; stroke-linejoin: miter"/>
   </g>
   <g id="patch_4">
    <path d="M 106.892308 192.006198 
L 106.802559 191.954282 
L 106.553632 191.809242 
L 106.414002 191.727207 
L 106.293042 191.655746 
L 106.165535 191.580018 
L 106.01369 191.489299 
L 105.788027 191.353393 
L 105.60405 191.241627 
L 105.452157 191.148695 
L 105.280593 191.043008 
L 105.166591 190.972356 
L 104.940381 190.831155 
L 104.886821 190.797525 
L 104.655404 190.651347 
L 104.585874 190.607149 
L 104.372847 190.470928 
L 104.297617 190.42253 
L 104.03918 190.255102 
L 103.978809 190.215729 
L 103.732131 190.053811 
L 103.634826 189.989479 
L 103.505804 189.903774 
L 103.261601 189.740287 
L 103.174829 189.681793 
L 102.964209 189.538927 
L 102.881131 189.482227 
L 102.728474 189.377529 
L 102.568257 189.266924 
L 102.337084 189.106029 
L 102.24954 189.044692 
L 102.084408 188.928384 
L 101.854432 188.765064 
L 101.778669 188.710916 
L 101.610183 188.589883 
L 101.382665 188.425089 
L 101.309931 188.372076 
L 101.169336 188.269145 
L 100.914527 188.08105 
L 100.826541 188.015634 
L 100.633131 187.87099 
L 100.410904 187.703344 
L 100.325831 187.638752 
L 100.168001 187.518308 
L 99.956853 187.355927 
L 99.797261 187.232236 
L 99.657516 187.123246 
L 99.581206 187.06346 
L 99.338074 186.871691 
L 99.235828 186.790457 
L 99.03656 186.631132 
L 98.836685 186.469971 
L 98.717317 186.373073 
L 98.609885 186.285446 
L 98.417734 186.127719 
L 98.296434 186.027487 
L 98.071388 185.840156 
L 97.946864 185.735728 
L 97.794742 185.607403 
L 97.667861 185.499731 
L 97.446195 185.310219 
L 97.361667 185.237478 
L 97.199781 185.097427 
L 97.076882 184.990454 
L 96.859716 184.80004 
L 96.754837 184.70744 
L 96.579756 184.551921 
L 96.412546 184.402289 
L 96.194653 184.205664 
L 96.080203 184.101637 
L 95.964815 183.99623 
L 95.743425 183.792494 
L 95.629201 183.686603 
L 95.442727 183.512587 
L 95.314742 183.392322 
L 95.182674 183.267506 
L 94.932335 183.028896 
L 94.786322 182.888494 
L 94.651579 182.758114 
L 94.533933 182.643634 
L 94.433806 182.545723 
L 94.210186 182.325454 
L 94.068284 182.184521 
L 93.84825 181.964189 
L 93.816526 181.93224 
L 93.631303 181.744775 
L 93.43442 181.54376 
L 93.262892 181.367141 
L 93.145742 181.245708 
L 92.949658 181.040974 
L 92.849871 180.936065 
L 92.568931 180.638063 
L 92.429816 180.489036 
L 92.268443 180.314933 
L 92.104297 180.136465 
L 92.010709 180.034085 
L 91.869214 179.878423 
L 91.735778 179.730655 
L 91.510103 179.478563 
L 91.326237 179.27112 
L 91.294713 179.235368 
L 91.116896 179.032655 
L 90.964463 178.857463 
L 90.706434 178.557873 
L 90.59784 178.430631 
L 90.440734 178.245315 
L 90.341669 178.127704 
L 90.153775 177.903005 
L 90.062301 177.792832 
L 89.80227 177.476804 
L 89.704229 177.356545 
L 89.518325 177.126819 
L 89.327118 176.888194 
L 89.201661 176.730311 
L 89.01742 176.496534 
L 88.82774 176.253434 
L 88.747595 176.149968 
L 88.590142 175.945381 
L 88.466024 175.782863 
L 88.214183 175.449673 
L 88.164906 175.383932 
L 87.874742 174.993115 
L 87.791051 174.879199 
L 87.559539 174.561222 
L 87.529417 174.519539 
L 87.270988 174.158908 
L 87.191861 174.047395 
L 87.041794 173.834473 
L 86.884187 173.608798 
L 86.670666 173.299632 
L 86.469853 173.005183 
L 86.331567 172.800291 
L 86.250024 172.678645 
L 86.138539 172.511325 
L 85.868267 172.100766 
L 85.781759 171.967851 
L 85.575091 171.647286 
L 85.488338 171.511427 
L 85.217783 171.082676 
L 85.195367 171.046803 
L 85.01079 170.749345 
L 84.853967 170.493647 
L 84.713303 170.26192 
L 84.537298 169.96873 
L 84.371739 169.689569 
L 84.250382 169.482811 
L 84.065811 169.164816 
L 83.905506 168.88507 
L 83.78303 168.669052 
L 83.600291 168.342961 
L 83.398048 167.976625 
L 83.243473 167.692649 
L 83.149506 167.518287 
L 82.892156 167.033824 
L 82.85992 166.972407 
L 82.666334 166.600035 
L 82.461767 166.199741 
L 82.242159 165.761901 
L 82.154028 165.583742 
L 81.971178 165.209468 
L 81.914789 165.092751 
L 81.772278 164.794975 
L 81.629767 164.493078 
L 81.485202 164.182475 
L 81.417532 164.035531 
L 81.287505 163.750323 
L 81.157478 163.461249 
L 81.139163 163.420213 
L 81.009308 163.126959 
L 80.879454 162.829554 
L 80.734631 162.492786 
L 80.566238 162.094185 
L 80.47279 161.869593 
L 80.271484 161.377164 
L 80.171713 161.128564 
L 80.018033 160.739451 
L 79.897726 160.42938 
L 79.777418 160.114298 
L 79.679045 159.852784 
L 79.580672 159.587647 
L 79.503831 159.377936 
L 79.335432 158.90999 
L 79.260595 158.698191 
L 79.133812 158.333698 
L 79.007028 157.961728 
L 78.930161 157.732391 
L 78.794052 157.318854 
L 78.657943 156.895263 
L 78.557506 156.575841 
L 78.429666 156.160316 
L 78.354283 155.910339 
L 78.278901 155.656491 
L 78.175128 155.300394 
L 78.071356 154.936153 
L 77.985204 154.62719 
L 77.899052 154.311904 
L 77.845859 154.113919 
L 77.749063 153.746769 
L 77.652266 153.370213 
L 77.590961 153.126544 
L 77.529656 152.878618 
L 77.469725 152.631928 
L 77.409794 152.380743 
L 77.349864 152.124821 
L 77.289933 151.863901 
L 77.225734 151.578523 
L 77.161535 151.286685 
L 77.100258 151.001705 
L 77.038981 150.710017 
L 76.985646 150.450302 
L 76.932311 150.184798 
L 76.878975 149.913116 
L 76.82564 149.63482 
L 76.757185 149.26715 
L 76.722957 149.078562 
L 76.688729 148.886585 
L 76.642465 148.621383 
L 76.5962 148.349148 
L 76.549935 148.069308 
L 76.503671 147.781208 
L 76.472448 147.581733 
L 76.441225 147.37789 
L 76.410003 147.169386 
L 76.37878 146.955896 
L 76.349322 146.749568 
L 76.319864 146.538127 
L 76.290405 146.321179 
L 76.260947 146.098282 
L 76.231489 145.868924 
L 76.202031 145.632522 
L 76.172573 145.388393 
L 76.143115 145.135741 
L 76.123995 144.966757 
L 76.104875 144.793488 
L 76.085755 144.615595 
L 76.066636 144.432691 
L 76.047516 144.244334 
L 76.028396 144.050009 
L 76.009277 143.849118 
L 75.990157 143.640952 
L 75.969462 143.406453 
L 75.955024 143.236543 
L 75.940587 143.060837 
L 75.926149 142.878704 
L 75.911712 142.689387 
L 75.897274 142.491969 
L 75.882837 142.285318 
L 75.868399 142.068011 
L 75.86118 141.95481 
L 75.853962 141.838217 
L 75.846743 141.71791 
L 75.839524 141.59351 
L 75.832305 141.464571 
L 75.825087 141.330558 
L 75.817868 141.190823 
L 75.810649 141.044565 
L 75.80343 140.890779 
L 75.796212 140.72817 
L 75.788993 140.555022 
L 75.781774 140.368982 
L 75.774555 140.166658 
L 75.767337 139.942845 
L 75.760118 139.688784 
L 75.752899 139.387395 
L 75.74568 138.994582 
L 75.738462 138.046154 
L 75.738462 324.969231 
L 75.970664 324.969231 
L 76.10178 324.969231 
L 76.150217 324.969231 
L 76.421735 324.969231 
L 76.500476 324.969231 
L 76.665767 324.969231 
L 76.784168 324.969231 
L 77.062032 324.969231 
L 77.212485 324.969231 
L 77.290403 324.969231 
L 77.423014 324.969231 
L 77.658127 324.969231 
L 77.761498 324.969231 
L 77.897731 324.969231 
L 78.116328 324.969231 
L 78.287111 324.969231 
L 78.372872 324.969231 
L 78.533757 324.969231 
L 78.715098 324.969231 
L 78.820142 324.969231 
L 79.093618 324.969231 
L 79.227824 324.969231 
L 79.265336 324.969231 
L 79.44598 324.969231 
L 79.60733 324.969231 
L 79.814673 324.969231 
L 79.98002 324.969231 
L 80.118254 324.969231 
L 80.237294 324.969231 
L 80.444832 324.969231 
L 80.641059 324.969231 
L 80.787186 324.969231 
L 80.861754 324.969231 
L 81.137593 324.969231 
L 81.266646 324.969231 
L 81.363371 324.969231 
L 81.576782 324.969231 
L 81.624852 324.969231 
L 81.829932 324.969231 
L 82.043647 324.969231 
L 82.135716 324.969231 
L 82.237581 324.969231 
L 82.491578 324.969231 
L 82.67347 324.969231 
L 82.779112 324.969231 
L 82.862141 324.969231 
L 83.058062 324.969231 
L 83.261127 324.969231 
L 83.383597 324.969231 
L 83.579303 324.969231 
L 83.756073 324.969231 
L 83.939109 324.969231 
L 84.018272 324.969231 
L 84.186245 324.969231 
L 84.3222 324.969231 
L 84.572258 324.969231 
L 84.612941 324.969231 
L 84.780415 324.969231 
L 84.949355 324.969231 
L 85.126409 324.969231 
L 85.26885 324.969231 
L 85.458346 324.969231 
L 85.624923 324.969231 
L 85.832994 324.969231 
L 85.965687 324.969231 
L 86.102326 324.969231 
L 86.282291 324.969231 
L 86.340111 324.969231 
L 86.480646 324.969231 
L 86.684147 324.969231 
L 86.836352 324.969231 
L 87.005998 324.969231 
L 87.238543 324.969231 
L 87.276474 324.969231 
L 87.458348 324.969231 
L 87.621927 324.969231 
L 87.757969 324.969231 
L 87.963077 324.969231 
L 88.084905 324.969231 
L 88.312173 324.969231 
L 88.392842 324.969231 
L 88.638152 324.969231 
L 88.779014 324.969231 
L 88.862039 324.969231 
L 89.092541 324.969231 
L 89.144554 324.969231 
L 89.337819 324.969231 
L 89.502404 324.969231 
L 89.736913 324.969231 
L 89.843448 324.969231 
L 89.913527 324.969231 
L 90.177958 324.969231 
L 90.293612 324.969231 
L 90.508172 324.969231 
L 90.552865 324.969231 
L 90.694591 324.969231 
L 90.900166 324.969231 
L 91.099543 324.969231 
L 91.288865 324.969231 
L 91.346241 324.969231 
L 91.591519 324.969231 
L 91.632123 324.969231 
L 91.834917 324.969231 
L 91.993289 324.969231 
L 92.209811 324.969231 
L 92.274714 324.969231 
L 92.545974 324.969231 
L 92.662356 324.969231 
L 92.780063 324.969231 
L 92.982931 324.969231 
L 93.148924 324.969231 
L 93.274689 324.969231 
L 93.48781 324.969231 
L 93.561313 324.969231 
L 93.694697 324.969231 
L 93.836913 324.969231 
L 94.034975 324.969231 
L 94.195701 324.969231 
L 94.368073 324.969231 
L 94.520598 324.969231 
L 94.678234 324.969231 
L 94.87161 324.969231 
L 95.06028 324.969231 
L 95.121487 324.969231 
L 95.278066 324.969231 
L 95.425992 324.969231 
L 95.664036 324.969231 
L 95.754745 324.969231 
L 95.964755 324.969231 
L 96.021703 324.969231 
L 96.20779 324.969231 
L 96.326666 324.969231 
L 96.574355 324.969231 
L 96.771812 324.969231 
L 96.91228 324.969231 
L 97.090314 324.969231 
L 97.251004 324.969231 
L 97.29509 324.969231 
L 97.452574 324.969231 
L 97.599276 324.969231 
L 97.804126 324.969231 
L 97.893752 324.969231 
L 98.052028 324.969231 
L 98.279774 324.969231 
L 98.407956 324.969231 
L 98.553479 324.969231 
L 98.726688 324.969231 
L 98.914943 324.969231 
L 99.138112 324.969231 
L 99.150256 324.969231 
L 99.389282 324.969231 
L 99.521778 324.969231 
L 99.665856 324.969231 
L 99.903258 324.969231 
L 99.996027 324.969231 
L 100.156241 324.969231 
L 100.383288 324.969231 
L 100.454625 324.969231 
L 100.602417 324.969231 
L 100.752816 324.969231 
L 101.01932 324.969231 
L 101.142491 324.969231 
L 101.333097 324.969231 
L 101.454988 324.969231 
L 101.532245 324.969231 
L 101.659741 324.969231 
L 101.882269 324.969231 
L 102.099042 324.969231 
L 102.170249 324.969231 
L 102.356167 324.969231 
L 102.4516 324.969231 
L 102.663693 324.969231 
L 102.768562 324.969231 
L 102.925624 324.969231 
L 103.175828 324.969231 
L 103.274884 324.969231 
L 103.4456 324.969231 
L 103.529669 324.969231 
L 103.68509 324.969231 
L 103.957431 324.969231 
L 103.998257 324.969231 
L 104.304965 324.969231 
L 104.328678 324.969231 
L 104.523853 324.969231 
L 104.653497 324.969231 
L 104.92374 324.969231 
L 104.974745 324.969231 
L 105.162111 324.969231 
L 105.389497 324.969231 
L 105.462984 324.969231 
L 105.649988 324.969231 
L 105.74873 324.969231 
L 106.009464 324.969231 
L 106.132707 324.969231 
L 106.334508 324.969231 
L 106.430432 324.969231 
L 106.649342 324.969231 
L 106.792959 324.969231 
L 106.892308 324.969231 
z
" clip-path="url(#p8fb83f61d2)" style="fill: #808080; opacity: 0.5"/>
   </g>
   <g id="patch_5">
    <path d="M 13.430769 138.046154 
L 13.430769 13.430769 
L 13.860828 13.430769 
L 13.912608 13.430769 
L 14.318285 13.430769 
L 14.765133 13.430769 
L 15.071749 13.430769 
L 15.442457 13.430769 
L 15.575626 13.430769 
L 15.901583 13.430769 
L 16.243579 13.430769 
L 16.417392 13.430769 
L 16.72289 13.430769 
L 17.263606 13.430769 
L 17.530279 13.430769 
L 17.837457 13.430769 
L 18.264293 13.430769 
L 18.433931 13.430769 
L 18.705144 13.430769 
L 19.149265 13.430769 
L 19.317596 13.430769 
L 19.541575 13.430769 
L 20.074587 13.430769 
L 20.235814 13.430769 
L 20.497831 13.430769 
L 20.822224 13.430769 
L 21.201921 13.430769 
L 21.640042 13.430769 
L 21.929941 13.430769 
L 22.279496 13.430769 
L 22.401255 13.430769 
L 22.853246 13.430769 
L 23.055819 13.430769 
L 23.413378 13.430769 
L 23.722427 13.430769 
L 23.988246 13.430769 
L 24.456862 13.430769 
L 24.809912 13.430769 
L 24.985059 13.430769 
L 25.345476 13.430769 
L 25.743299 13.430769 
L 26.02723 13.430769 
L 26.341233 13.430769 
L 26.613745 13.430769 
L 26.858672 13.430769 
L 27.358076 13.430769 
L 27.396996 13.430769 
L 27.928529 13.430769 
L 28.182935 13.430769 
L 28.35203 13.430769 
L 28.721753 13.430769 
L 28.952067 13.430769 
L 29.253837 13.430769 
L 29.826972 13.430769 
L 30.064851 13.430769 
L 30.310349 13.430769 
L 30.523394 13.430769 
L 30.986585 13.430769 
L 31.131899 13.430769 
L 31.632447 13.430769 
L 31.944617 13.430769 
L 32.145471 13.430769 
L 32.473042 13.430769 
L 32.951178 13.430769 
L 33.028976 13.430769 
L 33.498722 13.430769 
L 33.639365 13.430769 
L 34.159061 13.430769 
L 34.552189 13.430769 
L 34.843781 13.430769 
L 35.170428 13.430769 
L 35.255577 13.430769 
L 35.731149 13.430769 
L 36.101965 13.430769 
L 36.151644 13.430769 
L 36.662579 13.430769 
L 36.795735 13.430769 
L 37.311735 13.430769 
L 37.395837 13.430769 
L 37.807527 13.430769 
L 38.122337 13.430769 
L 38.526669 13.430769 
L 38.901947 13.430769 
L 39.057926 13.430769 
L 39.321398 13.430769 
L 39.659543 13.430769 
L 40.169398 13.430769 
L 40.47691 13.430769 
L 40.570669 13.430769 
L 40.982058 13.430769 
L 41.414876 13.430769 
L 41.592459 13.430769 
L 41.793371 13.430769 
L 42.364357 13.430769 
L 42.480486 13.430769 
L 42.9267 13.430769 
L 43.096454 13.430769 
L 43.546927 13.430769 
L 43.801405 13.430769 
L 44.162628 13.430769 
L 44.542226 13.430769 
L 44.652991 13.430769 
L 44.904486 13.430769 
L 45.417955 13.430769 
L 45.693373 13.430769 
L 46.083859 13.430769 
L 46.355488 13.430769 
L 46.746161 13.430769 
L 47.065418 13.430769 
L 47.1692 13.430769 
L 47.578883 13.430769 
L 47.790698 13.430769 
L 48.120641 13.430769 
L 48.402952 13.430769 
L 48.860065 13.430769 
L 49.005613 13.430769 
L 49.536543 13.430769 
L 49.782378 13.430769 
L 50.0439 13.430769 
L 50.360025 13.430769 
L 50.813817 13.430769 
L 51.035213 13.430769 
L 51.46433 13.430769 
L 51.540164 13.430769 
L 51.895884 13.430769 
L 52.152107 13.430769 
L 52.4643 13.430769 
L 52.989259 13.430769 
L 53.176204 13.430769 
L 53.580671 13.430769 
L 53.703027 13.430769 
L 54.169852 13.430769 
L 54.578291 13.430769 
L 54.755237 13.430769 
L 55.026052 13.430769 
L 55.401373 13.430769 
L 55.573726 13.430769 
L 55.913327 13.430769 
L 56.186081 13.430769 
L 56.76473 13.430769 
L 57.01525 13.430769 
L 57.297094 13.430769 
L 57.520012 13.430769 
L 57.905887 13.430769 
L 58.239911 13.430769 
L 58.362058 13.430769 
L 58.83617 13.430769 
L 59.055769 13.430769 
L 59.364956 13.430769 
L 59.777104 13.430769 
L 60.05426 13.430769 
L 60.424061 13.430769 
L 60.704136 13.430769 
L 61.133671 13.430769 
L 61.468697 13.430769 
L 61.538895 13.430769 
L 61.966857 13.430769 
L 62.14266 13.430769 
L 62.557148 13.430769 
L 62.950564 13.430769 
L 63.187245 13.430769 
L 63.50606 13.430769 
L 63.857902 13.430769 
L 64.198689 13.430769 
L 64.342209 13.430769 
L 64.686468 13.430769 
L 64.994137 13.430769 
L 65.309084 13.430769 
L 65.835959 13.430769 
L 66.077101 13.430769 
L 66.225165 13.430769 
L 66.544763 13.430769 
L 66.909122 13.430769 
L 67.159688 13.430769 
L 67.575759 13.430769 
L 67.998525 13.430769 
L 68.091539 13.430769 
L 68.386833 13.430769 
L 68.942906 13.430769 
L 69.026074 13.430769 
L 69.454862 13.430769 
L 69.653337 13.430769 
L 70.165357 13.430769 
L 70.492849 13.430769 
L 70.833947 13.430769 
L 71.196858 13.430769 
L 71.461025 13.430769 
L 71.556087 13.430769 
L 71.884261 13.430769 
L 72.214502 13.430769 
L 72.67683 13.430769 
L 72.973071 13.430769 
L 73.254609 13.430769 
L 73.513878 13.430769 
L 73.74772 13.430769 
L 74.259955 13.430769 
L 74.378248 13.430769 
L 74.730338 13.430769 
L 74.978001 13.430769 
L 75.483679 13.430769 
L 75.738462 13.430769 
L 75.738462 138.046154 
z
" clip-path="url(#p8fb83f61d2)" style="fill: #808080; opacity: 0.5"/>
   </g>
   <g id="patch_6">
    <path d="M 169.2 84.086109 
L 168.834301 83.876619 
L 168.147847 83.492175 
L 167.916514 83.365169 
L 167.176891 82.967586 
L 166.694474 82.715129 
L 166.271188 82.498013 
L 166.009278 82.365707 
L 165.521967 82.123634 
L 165.205163 81.969093 
L 164.613835 81.686533 
L 163.949934 81.378326 
L 163.483017 81.167208 
L 162.912125 80.915322 
L 162.69597 80.821726 
L 162.116046 80.575389 
L 161.79981 80.443963 
L 161.235314 80.214403 
L 160.523195 79.933925 
L 160.222539 79.818528 
L 160.026511 79.744246 
L 159.126202 79.412715 
L 158.733034 79.272848 
L 158.477233 79.183436 
L 158.110364 79.057375 
L 157.663633 78.907309 
L 157.012106 78.695154 
L 156.737103 78.607976 
L 155.934811 78.361613 
L 155.645448 78.275648 
L 155.333232 78.184601 
L 154.492518 77.948187 
L 153.970897 77.807868 
L 153.600032 77.711045 
L 153.236145 77.618406 
L 152.899656 77.534816 
L 152.456078 77.427653 
L 152.029129 77.327747 
L 151.255456 77.154752 
L 150.73887 77.044978 
L 150.509127 76.997626 
L 149.961938 76.888467 
L 149.304578 76.764049 
L 149.002743 76.709365 
L 148.614747 76.641322 
L 148.179216 76.56795 
L 147.732923 76.496052 
L 147.338938 76.435338 
L 146.795988 76.355888 
L 145.980599 76.245724 
L 145.951804 76.242034 
L 145.14451 76.144119 
L 144.911834 76.117881 
L 144.431336 76.066496 
L 143.87016 76.011249 
L 143.268958 75.957742 
L 142.742586 75.91571 
L 142.291415 75.883253 
L 142.130291 75.872459 
L 141.382689 75.82786 
L 140.90142 75.803918 
L 140.385027 75.782375 
L 140.037469 75.77029 
L 139.476269 75.754876 
L 139.006353 75.745861 
L 138.448521 75.739761 
L 138.197889 75.738646 
L 137.721823 75.739306 
L 137.1548 75.744838 
L 136.928149 75.748493 
L 136.219405 75.765246 
L 135.631936 75.785251 
L 135.281581 75.799823 
L 134.815757 75.822259 
L 134.527325 75.837904 
L 133.93775 75.874058 
L 133.713212 75.889303 
L 132.975408 75.945139 
L 132.59909 75.977015 
L 132.265654 76.007179 
L 131.76986 76.055375 
L 131.309273 76.103737 
L 130.621004 76.182468 
L 130.006427 76.259332 
L 129.804202 76.285983 
L 129.349488 76.34837 
L 128.592147 76.459871 
L 128.28234 76.508227 
L 127.811834 76.584725 
L 127.609991 76.618676 
L 127.155484 76.697626 
L 126.537541 76.81054 
L 125.948564 76.924171 
L 125.333979 77.04903 
L 125.009287 77.117601 
L 124.445674 77.240928 
L 124.233072 77.288872 
L 123.652994 77.423671 
L 123.352919 77.495701 
L 122.863305 77.616611 
L 122.432237 77.726554 
L 121.80288 77.892978 
L 121.426009 77.996014 
L 120.893988 78.145806 
L 120.212658 78.345107 
L 119.960997 78.42086 
L 119.486551 78.566833 
L 118.986323 78.725235 
L 118.499974 78.883705 
L 118.039153 79.037947 
L 117.383042 79.264487 
L 117.248468 79.311966 
L 116.370763 79.63018 
L 115.970968 79.780086 
L 115.673728 79.89357 
L 115.14973 80.097881 
L 114.852669 80.216138 
L 114.351147 80.419813 
L 113.660752 80.708551 
L 113.442496 80.801866 
L 112.897228 81.039312 
L 112.562945 81.187956 
L 111.885974 81.496233 
L 111.589926 81.634129 
L 111.146375 81.844282 
L 110.470809 82.172646 
L 110.123975 82.345162 
L 109.5875 82.617339 
L 109.155236 82.841413 
L 108.63977 83.114259 
L 108.223388 83.339197 
L 107.640091 83.661231 
L 107.342413 83.828732 
L 106.505291 84.311412 
L 106.109907 84.545456 
L 105.989271 84.617652 
L 105.190775 85.104935 
L 104.743894 85.384897 
L 104.588818 85.483285 
L 103.719292 86.04697 
L 103.360885 86.285351 
L 102.948067 86.564382 
L 102.715744 86.723541 
L 101.988717 87.231689 
L 101.549948 87.545901 
L 100.879334 88.037395 
L 100.467255 88.346306 
L 100.389469 88.405217 
L 99.848428 88.820324 
L 99.293513 89.255977 
L 98.611066 89.805897 
L 98.135789 90.198361 
L 97.941222 90.361324 
L 97.203092 90.992006 
L 96.935554 91.225569 
L 96.302067 91.789482 
L 95.803603 92.244239 
L 95.353839 92.663175 
L 95.046422 92.954341 
L 94.514936 93.467217 
L 94.049612 93.926399 
L 93.363399 94.621507 
L 93.150358 94.841802 
L 92.703446 95.31107 
L 91.993594 96.076996 
L 91.670223 96.434598 
L 91.322282 96.825669 
L 90.903719 97.305028 
L 90.242822 98.082546 
L 89.802225 98.615558 
L 89.445189 99.056479 
L 88.752391 99.936135 
L 88.541815 100.210074 
L 87.862193 101.116239 
L 87.63643 101.425009 
L 87.289871 101.906863 
L 86.943313 102.398599 
L 86.560273 102.954095 
L 86.242831 103.424423 
L 85.622324 104.371377 
L 85.124275 105.159633 
L 84.716086 105.825781 
L 84.361375 106.420326 
L 83.859836 107.287554 
L 83.511376 107.909688 
L 83.162917 108.549056 
L 82.719935 109.388554 
L 82.475573 109.865326 
L 82.231211 110.35246 
L 81.811007 111.216007 
L 81.518302 111.838322 
L 81.225596 112.479129 
L 81.025841 112.927786 
L 80.780624 113.491977 
L 80.535407 114.071948 
L 80.27709 114.701266 
L 80.018773 115.350966 
L 79.80343 115.909449 
L 79.588088 116.484542 
L 79.407876 116.979571 
L 79.227664 117.488095 
L 79.047452 118.011143 
L 78.86724 118.549882 
L 78.688649 119.100569 
L 78.510059 119.669485 
L 78.361032 120.159434 
L 78.212005 120.664465 
L 78.062977 121.185933 
L 77.91395 121.725413 
L 77.731526 122.41304 
L 77.549103 123.13457 
L 77.429469 123.628594 
L 77.309835 124.141188 
L 77.207552 124.595763 
L 77.105269 125.067054 
L 77.002985 125.556954 
L 76.900702 126.067745 
L 76.808789 126.546862 
L 76.716876 127.047597 
L 76.624964 127.57305 
L 76.533051 128.12715 
L 76.441138 128.714997 
L 76.395181 129.023622 
L 76.349225 129.343427 
L 76.303268 129.675695 
L 76.257312 130.021971 
L 76.211355 130.384157 
L 76.165399 130.764625 
L 76.112032 131.233444 
L 76.085348 131.480557 
L 76.058664 131.737455 
L 76.031981 132.005387 
L 76.005297 132.28589 
L 75.978614 132.580902 
L 75.95193 132.892912 
L 75.925247 133.225221 
L 75.898563 133.582358 
L 75.871879 133.970848 
L 75.858538 134.179772 
L 75.845196 134.400699 
L 75.831854 134.63596 
L 75.818512 134.888759 
L 75.80517 135.163705 
L 75.791829 135.467875 
L 75.778487 135.81318 
L 75.765145 136.22284 
L 75.751803 136.756808 
L 75.738462 138.046154 
L 75.738462 13.430769 
L 75.990648 13.430769 
L 76.889019 13.430769 
L 77.146368 13.430769 
L 77.543214 13.430769 
L 77.933575 13.430769 
L 78.497648 13.430769 
L 78.84993 13.430769 
L 79.553112 13.430769 
L 79.87796 13.430769 
L 80.267937 13.430769 
L 81.053343 13.430769 
L 81.402523 13.430769 
L 81.880226 13.430769 
L 82.547499 13.430769 
L 82.722725 13.430769 
L 83.081273 13.430769 
L 83.85025 13.430769 
L 84.299347 13.430769 
L 84.516183 13.430769 
L 85.032625 13.430769 
L 85.609021 13.430769 
L 85.866419 13.430769 
L 86.639661 13.430769 
L 86.823918 13.430769 
L 87.38923 13.430769 
L 87.743189 13.430769 
L 88.308146 13.430769 
L 88.757804 13.430769 
L 89.327229 13.430769 
L 90.029546 13.430769 
L 90.420751 13.430769 
L 90.60858 13.430769 
L 91.10303 13.430769 
L 91.575746 13.430769 
L 92.262611 13.430769 
L 92.648147 13.430769 
L 93.152168 13.430769 
L 93.808719 13.430769 
L 94.150979 13.430769 
L 94.434435 13.430769 
L 95.224712 13.430769 
L 95.303612 13.430769 
L 96.06836 13.430769 
L 96.176946 13.430769 
L 97.064303 13.430769 
L 97.179328 13.430769 
L 97.584837 13.430769 
L 98.247842 13.430769 
L 98.55446 13.430769 
L 99.131409 13.430769 
L 99.563859 13.430769 
L 100.20098 13.430769 
L 100.503561 13.430769 
L 101.192814 13.430769 
L 101.470444 13.430769 
L 102.213826 13.430769 
L 102.389937 13.430769 
L 103.066811 13.430769 
L 103.668642 13.430769 
L 103.811609 13.430769 
L 104.32887 13.430769 
L 105.065375 13.430769 
L 105.139652 13.430769 
L 105.904862 13.430769 
L 106.244926 13.430769 
L 106.532133 13.430769 
L 107.134911 13.430769 
L 107.478337 13.430769 
L 108.086005 13.430769 
L 108.652463 13.430769 
L 108.97393 13.430769 
L 109.667052 13.430769 
L 109.922825 13.430769 
L 110.321179 13.430769 
L 110.903044 13.430769 
L 111.486042 13.430769 
L 111.827682 13.430769 
L 112.178296 13.430769 
L 112.924699 13.430769 
L 113.298774 13.430769 
L 113.746021 13.430769 
L 114.086098 13.430769 
L 114.843505 13.430769 
L 115.394992 13.430769 
L 115.508494 13.430769 
L 116.288779 13.430769 
L 116.593944 13.430769 
L 117.090091 13.430769 
L 117.533345 13.430769 
L 117.920866 13.430769 
L 118.246676 13.430769 
L 118.771059 13.430769 
L 119.551664 13.430769 
L 119.964777 13.430769 
L 120.17797 13.430769 
L 121.058174 13.430769 
L 121.476303 13.430769 
L 121.674464 13.430769 
L 122.349335 13.430769 
L 122.631901 13.430769 
L 123.125801 13.430769 
L 123.857243 13.430769 
L 123.929451 13.430769 
L 124.528028 13.430769 
L 125.232328 13.430769 
L 125.678267 13.430769 
L 126.059214 13.430769 
L 126.656183 13.430769 
L 127.12188 13.430769 
L 127.174817 13.430769 
L 127.771835 13.430769 
L 128.295333 13.430769 
L 128.938952 13.430769 
L 129.082101 13.430769 
L 129.540441 13.430769 
L 130.051912 13.430769 
L 130.581014 13.430769 
L 131.373439 13.430769 
L 131.829451 13.430769 
L 131.986174 13.430769 
L 132.501464 13.430769 
L 132.820412 13.430769 
L 133.528412 13.430769 
L 133.911188 13.430769 
L 134.54803 13.430769 
L 135.027568 13.430769 
L 135.38456 13.430769 
L 135.709293 13.430769 
L 136.345286 13.430769 
L 136.59316 13.430769 
L 137.493381 13.430769 
L 137.61876 13.430769 
L 138.271698 13.430769 
L 138.780867 13.430769 
L 139.288799 13.430769 
L 139.620851 13.430769 
L 139.846947 13.430769 
L 140.399988 13.430769 
L 141.090246 13.430769 
L 141.438217 13.430769 
L 141.831563 13.430769 
L 142.576368 13.430769 
L 142.741867 13.430769 
L 143.40785 13.430769 
L 143.686575 13.430769 
L 144.170247 13.430769 
L 144.583883 13.430769 
L 145.082667 13.430769 
L 145.931887 13.430769 
L 146.299956 13.430769 
L 146.574009 13.430769 
L 146.933234 13.430769 
L 147.557472 13.430769 
L 148.08199 13.430769 
L 148.380921 13.430769 
L 149.186908 13.430769 
L 149.45043 13.430769 
L 150.169655 13.430769 
L 150.277117 13.430769 
L 150.791715 13.430769 
L 151.386852 13.430769 
L 151.690197 13.430769 
L 152.113502 13.430769 
L 152.649612 13.430769 
L 153.31548 13.430769 
L 153.916825 13.430769 
L 154.255154 13.430769 
L 154.684669 13.430769 
L 155.282591 13.430769 
L 155.496565 13.430769 
L 156.208841 13.430769 
L 156.383855 13.430769 
L 156.918264 13.430769 
L 157.481871 13.430769 
L 158.134389 13.430769 
L 158.398086 13.430769 
L 159.000787 13.430769 
L 159.44008 13.430769 
L 159.965182 13.430769 
L 160.348296 13.430769 
L 160.771231 13.430769 
L 161.142482 13.430769 
L 161.520916 13.430769 
L 162.265447 13.430769 
L 162.522116 13.430769 
L 163.127515 13.430769 
L 163.784172 13.430769 
L 164.091903 13.430769 
L 164.72613 13.430769 
L 164.951443 13.430769 
L 165.387601 13.430769 
L 165.801393 13.430769 
L 166.568832 13.430769 
L 166.619036 13.430769 
L 167.114139 13.430769 
L 167.887407 13.430769 
L 168.231135 13.430769 
L 168.883856 13.430769 
L 169.2 13.430769 
z
" clip-path="url(#p8fb83f61d2)" style="fill: #808080; opacity: 0.5"/>
   </g>
   <g id="patch_7">
    <path d="M 262.661538 138.046154 
L 262.654842 138.959652 
L 262.648145 139.338001 
L 262.641448 139.628294 
L 262.634751 139.873003 
L 262.628054 140.088579 
L 262.621358 140.283458 
L 262.614661 140.462654 
L 262.607964 140.629431 
L 262.601267 140.78606 
L 262.59457 140.934191 
L 262.587874 141.075071 
L 262.581177 141.20967 
L 262.57448 141.338757 
L 262.567783 141.462958 
L 262.561086 141.582787 
L 262.55439 141.698674 
L 262.547693 141.810985 
L 262.540996 141.920028 
L 262.527602 142.129357 
L 262.514209 142.328423 
L 262.500815 142.518597 
L 262.487422 142.70097 
L 262.474028 142.876425 
L 262.460634 143.04569 
L 262.447241 143.209375 
L 262.426988 143.447413 
L 262.406735 143.675321 
L 262.386464 143.894474 
L 262.366193 144.105639 
L 262.345922 144.309623 
L 262.325651 144.507106 
L 262.30538 144.698668 
L 262.285109 144.884806 
L 262.264838 145.065952 
L 262.244567 145.242482 
L 262.213333 145.506212 
L 262.182098 145.760805 
L 262.150863 146.007138 
L 262.119628 146.245955 
L 262.088393 146.477895 
L 262.057158 146.703511 
L 262.025923 146.923284 
L 261.994688 147.13764 
L 261.964798 147.338042 
L 261.934907 147.534119 
L 261.905016 147.726132 
L 261.875126 147.91432 
L 261.835945 148.155557 
L 261.796764 148.391023 
L 261.757584 148.621101 
L 261.718403 148.846137 
L 261.675756 149.085713 
L 261.633109 149.320038 
L 261.597258 149.513193 
L 261.561408 149.703038 
L 261.489706 150.07342 
L 261.418005 150.432317 
L 261.346304 150.780699 
L 261.303588 150.983597 
L 261.260873 151.183223 
L 261.175443 151.573235 
L 261.116832 151.834124 
L 261.058221 152.089922 
L 261.004432 152.320429 
L 260.950644 152.547072 
L 260.885037 152.818544 
L 260.819429 153.08483 
L 260.765852 153.298632 
L 260.712275 153.509292 
L 260.60512 153.921686 
L 260.511198 154.273956 
L 260.417275 154.618208 
L 260.327448 154.9404 
L 260.237621 155.256092 
L 260.215369 155.333333 
L 260.127115 155.63606 
L 260.038861 155.93323 
L 259.943239 156.249253 
L 259.847616 156.559388 
L 259.721627 156.959513 
L 259.577136 157.407209 
L 259.48928 157.673914 
L 259.401424 157.936656 
L 259.317049 158.185399 
L 259.232674 158.430759 
L 259.148544 158.672159 
L 259.064413 158.910427 
L 258.979962 159.146557 
L 258.861326 159.473316 
L 258.74269 159.79452 
L 258.573799 160.242676 
L 258.512335 160.403227 
L 258.367175 160.777239 
L 258.222015 161.144283 
L 258.186535 161.232973 
L 258.081132 161.494159 
L 257.97573 161.751998 
L 257.771861 162.241611 
L 257.615062 162.610389 
L 257.47657 162.930745 
L 257.283977 163.368253 
L 257.183982 163.591881 
L 257.001217 163.99464 
L 256.820838 164.384858 
L 256.650481 164.747043 
L 256.615012 164.821697 
L 256.471879 165.120401 
L 256.328747 165.415097 
L 256.251702 165.572109 
L 256.09796 165.882143 
L 255.871734 166.330649 
L 255.84023 166.3924 
L 255.576724 166.902388 
L 255.385805 167.264846 
L 255.349017 167.33403 
L 255.144241 167.715349 
L 255.014155 167.954333 
L 254.874015 168.20904 
L 254.64003 168.628154 
L 254.466811 168.933619 
L 254.408948 169.034772 
L 254.278117 169.261879 
L 254.044229 169.662468 
L 253.833572 170.017508 
L 253.739812 170.173823 
L 253.592937 170.416631 
L 253.471296 170.615849 
L 253.315688 170.868277 
L 253.128027 171.169173 
L 252.909976 171.514075 
L 252.768915 171.734566 
L 252.660849 171.902114 
L 252.456731 172.215408 
L 252.357191 172.366711 
L 252.144644 172.686619 
L 252.069451 172.798775 
L 251.9223 173.016757 
L 251.634556 173.437358 
L 251.50568 173.623371 
L 251.327628 173.878012 
L 251.23103 174.015039 
L 251.100987 174.198279 
L 250.924551 174.444675 
L 250.752832 174.682075 
L 250.557496 174.949298 
L 250.52052 174.999548 
L 250.278438 175.325956 
L 250.14152 175.508616 
L 250.041667 175.640954 
L 249.825941 175.924385 
L 249.600282 176.217309 
L 249.542061 176.292305 
L 249.344285 176.545315 
L 249.189538 176.741422 
L 249.096483 176.858573 
L 248.951535 177.039912 
L 248.766394 177.269536 
L 248.61832 177.451599 
L 248.42083 177.692259 
L 248.316685 177.818187 
L 248.1454 178.023847 
L 247.872193 178.348204 
L 247.724813 178.521331 
L 247.582983 178.686739 
L 247.549732 178.725349 
L 247.331864 178.976759 
L 247.161684 179.171266 
L 247.078685 179.265542 
L 246.791477 179.588842 
L 246.669246 179.725072 
L 246.516584 179.894094 
L 246.457458 179.959224 
L 246.242141 180.194854 
L 246.031509 180.42303 
L 245.938006 180.523594 
L 245.717389 180.75912 
L 245.540948 180.945738 
L 245.461729 181.029028 
L 245.291193 181.207287 
L 245.071205 181.435165 
L 244.897451 181.613524 
L 244.765059 181.748472 
L 244.706243 181.808162 
L 244.437079 182.07929 
L 244.296141 182.219938 
L 244.202893 182.312502 
L 244.006943 182.50575 
L 243.921503 182.589479 
L 243.702432 182.802702 
L 243.627066 182.875574 
L 243.42173 183.072879 
L 243.205581 183.278635 
L 243.053279 183.422435 
L 242.869864 183.594334 
L 242.788919 183.669756 
L 242.646364 183.801935 
L 242.493475 183.942779 
L 242.286992 184.131507 
L 242.231019 184.182375 
L 241.942815 184.442341 
L 241.892142 184.487714 
L 241.738248 184.624902 
L 241.475226 184.857271 
L 241.314574 184.997909 
L 241.142012 185.147896 
L 241.017992 185.255006 
L 240.96619 185.299578 
L 240.793553 185.447405 
L 240.643094 185.575356 
L 240.378297 185.798556 
L 240.325721 185.842574 
L 240.127138 186.007949 
L 239.902469 186.193376 
L 239.855767 186.231699 
L 239.571931 186.462993 
L 239.466984 186.547813 
L 239.378166 186.619305 
L 239.163088 186.791321 
L 239.057283 186.875372 
L 238.916243 186.986833 
L 238.730091 187.132938 
L 238.556421 187.26822 
L 238.457826 187.344584 
L 238.194661 187.546874 
L 238.132442 187.594375 
L 237.856785 187.803345 
L 237.842726 187.813939 
L 237.665477 187.946962 
L 237.531896 188.046565 
L 237.317233 188.205465 
L 237.152746 188.326264 
L 236.925282 188.491952 
L 236.818268 188.569361 
L 236.628577 188.705728 
L 236.449804 188.833262 
L 236.364274 188.893942 
L 236.134853 189.055644 
L 236.017853 189.137514 
L 235.893134 189.224348 
L 235.780298 189.302519 
L 235.603623 189.424182 
L 235.451529 189.528201 
L 235.256855 189.660382 
L 235.175829 189.715081 
L 234.935533 189.876217 
L 234.789364 189.973446 
L 234.584783 190.108534 
L 234.528283 190.14564 
L 234.259351 190.321055 
L 234.20034 190.359282 
L 233.986076 190.49729 
L 233.81068 190.609342 
L 233.750703 190.64747 
L 233.588766 190.749936 
L 233.360125 190.893425 
L 233.284971 190.940289 
L 233.107392 191.050434 
L 232.937172 191.155243 
L 232.816715 191.228958 
L 232.647148 191.332092 
L 232.447262 191.452719 
L 232.351061 191.510411 
L 232.118326 191.649011 
L 231.93871 191.755044 
L 231.758695 191.860501 
L 231.72308 191.88127 
L 231.507692 192.006198 
L 231.507692 324.969231 
L 231.670295 324.969231 
L 231.879853 324.969231 
L 231.997037 324.969231 
L 232.174713 324.969231 
L 232.265788 324.969231 
L 232.404535 324.969231 
L 232.564951 324.969231 
L 232.745229 324.969231 
L 232.845667 324.969231 
L 233.068181 324.969231 
L 233.224423 324.969231 
L 233.321311 324.969231 
L 233.51462 324.969231 
L 233.752514 324.969231 
L 233.83098 324.969231 
L 233.951417 324.969231 
L 234.2232 324.969231 
L 234.303414 324.969231 
L 234.405512 324.969231 
L 234.628152 324.969231 
L 234.731512 324.969231 
L 234.99555 324.969231 
L 235.181643 324.969231 
L 235.259661 324.969231 
L 235.481068 324.969231 
L 235.513479 324.969231 
L 235.686429 324.969231 
L 235.885085 324.969231 
L 236.106522 324.969231 
L 236.164099 324.969231 
L 236.423986 324.969231 
L 236.569156 324.969231 
L 236.607421 324.969231 
L 236.889142 324.969231 
L 236.996161 324.969231 
L 237.147594 324.969231 
L 237.314045 324.969231 
L 237.430105 324.969231 
L 237.659397 324.969231 
L 237.785364 324.969231 
L 237.888065 324.969231 
L 238.03487 324.969231 
L 238.232835 324.969231 
L 238.397778 324.969231 
L 238.487735 324.969231 
L 238.744788 324.969231 
L 238.882782 324.969231 
L 239.086879 324.969231 
L 239.224616 324.969231 
L 239.261047 324.969231 
L 239.45066 324.969231 
L 239.676851 324.969231 
L 239.73956 324.969231 
L 239.996013 324.969231 
L 240.142039 324.969231 
L 240.289322 324.969231 
L 240.458648 324.969231 
L 240.551863 324.969231 
L 240.716474 324.969231 
L 240.952755 324.969231 
L 241.071285 324.969231 
L 241.276428 324.969231 
L 241.38839 324.969231 
L 241.548867 324.969231 
L 241.710711 324.969231 
L 241.847439 324.969231 
L 241.988392 324.969231 
L 242.170211 324.969231 
L 242.263933 324.969231 
L 242.467257 324.969231 
L 242.608175 324.969231 
L 242.792954 324.969231 
L 242.879287 324.969231 
L 243.135718 324.969231 
L 243.240077 324.969231 
L 243.466676 324.969231 
L 243.622069 324.969231 
L 243.646731 324.969231 
L 243.899251 324.969231 
L 244.023973 324.969231 
L 244.132588 324.969231 
L 244.334899 324.969231 
L 244.52413 324.969231 
L 244.647687 324.969231 
L 244.844496 324.969231 
L 244.987887 324.969231 
L 245.090492 324.969231 
L 245.317359 324.969231 
L 245.478339 324.969231 
L 245.605844 324.969231 
L 245.724989 324.969231 
L 245.923542 324.969231 
L 246.114641 324.969231 
L 246.182726 324.969231 
L 246.393261 324.969231 
L 246.593215 324.969231 
L 246.704787 324.969231 
L 246.80772 324.969231 
L 247.060144 324.969231 
L 247.126553 324.969231 
L 247.348358 324.969231 
L 247.528484 324.969231 
L 247.642214 324.969231 
L 247.841953 324.969231 
L 247.955993 324.969231 
L 248.080032 324.969231 
L 248.215889 324.969231 
L 248.381963 324.969231 
L 248.573256 324.969231 
L 248.674861 324.969231 
L 248.916065 324.969231 
L 249.116538 324.969231 
L 249.262209 324.969231 
L 249.425605 324.969231 
L 249.511006 324.969231 
L 249.598666 324.969231 
L 249.771703 324.969231 
L 249.981937 324.969231 
L 250.179023 324.969231 
L 250.314265 324.969231 
L 250.414623 324.969231 
L 250.580557 324.969231 
L 250.837229 324.969231 
L 250.98655 324.969231 
L 250.998517 324.969231 
L 251.170392 324.969231 
L 251.438595 324.969231 
L 251.476546 324.969231 
L 251.684842 324.969231 
L 251.793881 324.969231 
L 251.948297 324.969231 
L 252.20599 324.969231 
L 252.308274 324.969231 
L 252.452473 324.969231 
L 252.612457 324.969231 
L 252.74197 324.969231 
L 252.889866 324.969231 
L 253.099583 324.969231 
L 253.332839 324.969231 
L 253.468655 324.969231 
L 253.595985 324.969231 
L 253.813756 324.969231 
L 253.824976 324.969231 
L 254.093814 324.969231 
L 254.159071 324.969231 
L 254.292215 324.969231 
L 254.501312 324.969231 
L 254.614032 324.969231 
L 254.760334 324.969231 
L 254.9918 324.969231 
L 255.08183 324.969231 
L 255.348162 324.969231 
L 255.391012 324.969231 
L 255.672589 324.969231 
L 255.765099 324.969231 
L 255.91505 324.969231 
L 256.022952 324.969231 
L 256.310485 324.969231 
L 256.454445 324.969231 
L 256.569305 324.969231 
L 256.699778 324.969231 
L 256.80595 324.969231 
L 256.949287 324.969231 
L 257.229502 324.969231 
L 257.296867 324.969231 
L 257.469816 324.969231 
L 257.630033 324.969231 
L 257.823398 324.969231 
L 257.919306 324.969231 
L 258.142412 324.969231 
L 258.227158 324.969231 
L 258.389488 324.969231 
L 258.648623 324.969231 
L 258.807268 324.969231 
L 258.885421 324.969231 
L 259.031327 324.969231 
L 259.150341 324.969231 
L 259.431404 324.969231 
L 259.506923 324.969231 
L 259.644452 324.969231 
L 259.828307 324.969231 
L 260.047712 324.969231 
L 260.216249 324.969231 
L 260.372088 324.969231 
L 260.4755 324.969231 
L 260.698208 324.969231 
L 260.825095 324.969231 
L 261.010951 324.969231 
L 261.174048 324.969231 
L 261.287671 324.969231 
L 261.430984 324.969231 
L 261.500098 324.969231 
L 261.749971 324.969231 
L 261.831983 324.969231 
L 262.013601 324.969231 
L 262.260218 324.969231 
L 262.297027 324.969231 
L 262.572129 324.969231 
L 262.661538 324.969231 
z
" clip-path="url(#p8fb83f61d2)" style="fill: #808080; opacity: 0.5"/>
   </g>
   <g id="patch_8">
    <path d="M 262.661538 138.046154 
L 262.661538 13.430769 
L 262.950874 13.430769 
L 263.421328 13.430769 
L 263.504637 13.430769 
L 264.006907 13.430769 
L 264.285314 13.430769 
L 264.631319 13.430769 
L 264.982084 13.430769 
L 265.254939 13.430769 
L 265.479214 13.430769 
L 265.878571 13.430769 
L 266.197757 13.430769 
L 266.541784 13.430769 
L 266.792581 13.430769 
L 266.96058 13.430769 
L 267.45212 13.430769 
L 267.576048 13.430769 
L 268.050443 13.430769 
L 268.33561 13.430769 
L 268.529477 13.430769 
L 268.889675 13.430769 
L 269.28802 13.430769 
L 269.51361 13.430769 
L 269.792763 13.430769 
L 270.055295 13.430769 
L 270.518486 13.430769 
L 270.920473 13.430769 
L 271.182602 13.430769 
L 271.355984 13.430769 
L 271.692997 13.430769 
L 272.017059 13.430769 
L 272.355788 13.430769 
L 272.62038 13.430769 
L 273.111848 13.430769 
L 273.440467 13.430769 
L 273.586213 13.430769 
L 273.857427 13.430769 
L 274.28637 13.430769 
L 274.605726 13.430769 
L 274.71784 13.430769 
L 275.149424 13.430769 
L 275.358151 13.430769 
L 275.951859 13.430769 
L 276.126334 13.430769 
L 276.513313 13.430769 
L 276.880186 13.430769 
L 277.091005 13.430769 
L 277.524681 13.430769 
L 277.657614 13.430769 
L 278.093693 13.430769 
L 278.422202 13.430769 
L 278.678951 13.430769 
L 278.817795 13.430769 
L 279.209414 13.430769 
L 279.671427 13.430769 
L 279.839754 13.430769 
L 280.091332 13.430769 
L 280.487059 13.430769 
L 280.711312 13.430769 
L 281.015522 13.430769 
L 281.326903 13.430769 
L 281.89833 13.430769 
L 281.988518 13.430769 
L 282.406321 13.430769 
L 282.627359 13.430769 
L 282.86515 13.430769 
L 283.35757 13.430769 
L 283.517075 13.430769 
L 283.966337 13.430769 
L 284.325116 13.430769 
L 284.46318 13.430769 
L 285.002386 13.430769 
L 285.34191 13.430769 
L 285.502846 13.430769 
L 285.705953 13.430769 
L 286.07005 13.430769 
L 286.514741 13.430769 
L 286.874553 13.430769 
L 287.063164 13.430769 
L 287.427 13.430769 
L 287.568945 13.430769 
L 287.925927 13.430769 
L 288.233728 13.430769 
L 288.736995 13.430769 
L 289.026148 13.430769 
L 289.327492 13.430769 
L 289.737299 13.430769 
L 289.857141 13.430769 
L 290.151594 13.430769 
L 290.489876 13.430769 
L 290.781929 13.430769 
L 291.282582 13.430769 
L 291.501469 13.430769 
L 291.846565 13.430769 
L 292.19471 13.430769 
L 292.470333 13.430769 
L 292.767411 13.430769 
L 293.128642 13.430769 
L 293.375311 13.430769 
L 293.533481 13.430769 
L 293.849335 13.430769 
L 294.291122 13.430769 
L 294.57968 13.430769 
L 294.967623 13.430769 
L 295.262766 13.430769 
L 295.546715 13.430769 
L 295.774702 13.430769 
L 296.143762 13.430769 
L 296.350697 13.430769 
L 296.936044 13.430769 
L 297.226697 13.430769 
L 297.479804 13.430769 
L 297.839096 13.430769 
L 298.046127 13.430769 
L 298.467248 13.430769 
L 298.514102 13.430769 
L 299.103702 13.430769 
L 299.331879 13.430769 
L 299.638482 13.430769 
L 299.841161 13.430769 
L 300.203481 13.430769 
L 300.592495 13.430769 
L 300.833629 13.430769 
L 301.084158 13.430769 
L 301.613009 13.430769 
L 301.9265 13.430769 
L 302.235847 13.430769 
L 302.471345 13.430769 
L 302.718519 13.430769 
L 303.061412 13.430769 
L 303.483207 13.430769 
L 303.609954 13.430769 
L 304.059183 13.430769 
L 304.435583 13.430769 
L 304.704707 13.430769 
L 305.036128 13.430769 
L 305.111855 13.430769 
L 305.413965 13.430769 
L 305.928181 13.430769 
L 306.11217 13.430769 
L 306.522819 13.430769 
L 306.709507 13.430769 
L 307.057767 13.430769 
L 307.365494 13.430769 
L 307.767927 13.430769 
L 307.930383 13.430769 
L 308.252324 13.430769 
L 308.809778 13.430769 
L 308.954267 13.430769 
L 309.173369 13.430769 
L 309.773791 13.430769 
L 310.024673 13.430769 
L 310.126694 13.430769 
L 310.683786 13.430769 
L 310.89141 13.430769 
L 311.219226 13.430769 
L 311.65323 13.430769 
L 311.787598 13.430769 
L 312.097072 13.430769 
L 312.482346 13.430769 
L 312.822438 13.430769 
L 313.181633 13.430769 
L 313.45361 13.430769 
L 313.817794 13.430769 
L 313.98437 13.430769 
L 314.3125 13.430769 
L 314.660096 13.430769 
L 315.01412 13.430769 
L 315.272706 13.430769 
L 315.717658 13.430769 
L 316.043108 13.430769 
L 316.323008 13.430769 
L 316.597071 13.430769 
L 316.853802 13.430769 
L 317.027401 13.430769 
L 317.501204 13.430769 
L 317.905146 13.430769 
L 318.011258 13.430769 
L 318.31385 13.430769 
L 318.80924 13.430769 
L 318.89373 13.430769 
L 319.184455 13.430769 
L 319.644102 13.430769 
L 319.956136 13.430769 
L 320.370019 13.430769 
L 320.687685 13.430769 
L 321.007728 13.430769 
L 321.211259 13.430769 
L 321.371855 13.430769 
L 321.780564 13.430769 
L 322.283514 13.430769 
L 322.479565 13.430769 
L 322.869706 13.430769 
L 323.153319 13.430769 
L 323.391685 13.430769 
L 323.568458 13.430769 
L 323.947033 13.430769 
L 324.209277 13.430769 
L 324.609177 13.430769 
L 324.969231 13.430769 
L 324.969231 138.046154 
z
" clip-path="url(#p8fb83f61d2)" style="fill: #808080; opacity: 0.5"/>
   </g>
   <g id="patch_9">
    <path d="M 262.661538 138.046154 
L 262.650159 136.8554 
L 262.63878 136.36225 
L 262.627401 135.983895 
L 262.616022 135.664971 
L 262.604642 135.384033 
L 262.593263 135.130079 
L 262.581884 134.896577 
L 262.570505 134.679269 
L 262.559126 134.475196 
L 262.547746 134.282206 
L 262.524988 133.923332 
L 262.502229 133.593405 
L 262.479471 133.2864 
L 262.456713 132.998134 
L 262.433954 132.725561 
L 262.411196 132.466379 
L 262.388437 132.218803 
L 262.34292 131.753047 
L 262.297404 131.319772 
L 262.258003 130.966333 
L 262.218603 130.629929 
L 262.179203 130.308336 
L 262.139802 129.999778 
L 262.100402 129.70281 
L 262.061001 129.416235 
L 261.982201 128.870402 
L 261.9034 128.355904 
L 261.824599 127.86799 
L 261.745799 127.403002 
L 261.666998 126.958055 
L 261.598095 126.583586 
L 261.529193 126.221372 
L 261.46029 125.870317 
L 261.391388 125.529484 
L 261.253583 124.87533 
L 261.115778 124.25354 
L 261.028699 123.875382 
L 260.94162 123.507578 
L 260.767462 122.800056 
L 260.628754 122.260591 
L 260.490046 121.740142 
L 260.351337 121.236942 
L 260.212629 120.749487 
L 260.056775 120.218962 
L 259.900922 119.7051 
L 259.76902 119.282208 
L 259.637117 118.869547 
L 259.373313 118.072394 
L 259.123863 117.349931 
L 258.874413 116.654759 
L 258.713142 116.218623 
L 258.551871 115.792201 
L 258.229329 114.966358 
L 258.039233 114.495259 
L 257.849137 114.034906 
L 257.650455 113.564586 
L 257.451772 113.104715 
L 257.131156 112.383231 
L 256.81054 111.685383 
L 256.558705 111.152617 
L 256.246444 110.509523 
L 255.934183 109.884572 
L 255.627322 109.286958 
L 255.343804 108.748491 
L 254.970126 108.057648 
L 254.596448 107.386919 
L 254.369028 106.988004 
L 254.045675 106.432296 
L 253.722322 105.88944 
L 253.360386 105.296265 
L 252.832172 104.456367 
L 252.426965 103.831554 
L 252.019228 103.218911 
L 251.496339 102.45551 
L 250.892192 101.602716 
L 250.621904 101.230791 
L 249.984449 100.37585 
L 249.416471 99.639028 
L 248.917691 99.010254 
L 248.69946 98.7403 
L 247.981887 97.873797 
L 247.813133 97.674573 
L 247.148795 96.906377 
L 246.492569 96.171737 
L 246.354477 96.020085 
L 245.861572 95.486838 
L 245.326093 94.921386 
L 244.84207 94.422233 
L 244.571685 94.148189 
L 243.670698 93.258892 
L 243.220371 92.827689 
L 242.745803 92.382486 
L 242.40841 92.071572 
L 242.113848 91.803849 
L 241.403921 91.172495 
L 241.111677 90.918161 
L 240.465412 90.366904 
L 240.249194 90.185839 
L 239.709138 89.740776 
L 239.081002 89.235746 
L 238.898248 89.091301 
L 238.007941 88.403252 
L 237.769012 88.222928 
L 237.068678 87.704624 
L 236.624733 87.383828 
L 236.483745 87.283185 
L 235.86543 86.848733 
L 235.525206 86.614413 
L 235.041152 86.286717 
L 234.475484 85.912074 
L 234.228578 85.751307 
L 233.333106 85.182017 
L 233.206054 85.102968 
L 232.68362 84.782337 
L 231.989845 84.367368 
L 231.699068 84.197054 
L 231.077621 83.840082 
L 230.670369 83.611266 
L 230.337209 83.42705 
L 229.994869 83.240513 
L 229.466669 82.958115 
L 228.735058 82.577646 
L 228.347338 82.380968 
L 228.071139 82.242926 
L 227.245063 81.840184 
L 226.734472 81.598735 
L 226.586382 81.529762 
L 225.885902 81.209874 
L 225.568758 81.068468 
L 225.274726 80.939252 
L 224.794833 80.732223 
L 224.253854 80.504533 
L 223.769611 80.305782 
L 223.029759 80.011237 
L 222.645942 79.862728 
L 222.305662 79.733494 
L 221.928361 79.592849 
L 221.498598 79.436018 
L 220.764463 79.176338 
L 220.533483 79.096762 
L 220.001309 78.917263 
L 219.278465 78.681962 
L 218.900655 78.562842 
L 218.423592 78.416188 
L 217.921622 78.266377 
L 217.733253 78.211342 
L 217.184011 78.054537 
L 216.427939 77.847549 
L 216.173222 77.780111 
L 215.562997 77.623226 
L 215.1441 77.519326 
L 214.791974 77.434365 
L 214.510128 77.367919 
L 213.863922 77.220778 
L 213.268489 77.091576 
L 213.034728 77.042517 
L 212.434366 76.920794 
L 211.980011 76.83275 
L 211.677986 76.776158 
L 211.083876 76.669326 
L 210.588642 76.584804 
L 210.181031 76.518315 
L 209.770961 76.454219 
L 209.008714 76.342493 
L 208.587524 76.284879 
L 208.276483 76.244209 
L 207.660667 76.16838 
L 207.333145 76.130583 
L 206.889817 76.082216 
L 206.167295 76.010258 
L 206.063914 76.000657 
L 205.441997 75.946563 
L 204.933628 75.907003 
L 204.440603 75.872631 
L 203.853704 75.836834 
L 203.544039 75.820185 
L 203.156045 75.801506 
L 202.631821 75.780117 
L 201.986762 75.759862 
L 201.684039 75.752662 
L 201.230061 75.744623 
L 200.804208 75.740089 
L 200.081749 75.739056 
L 199.62036 75.742779 
L 199.202544 75.749099 
L 198.854639 75.756501 
L 198.455563 75.767385 
L 197.808544 75.790472 
L 197.572303 75.800579 
L 196.875502 75.835627 
L 196.299762 75.870492 
L 195.856244 75.901 
L 195.596137 75.920372 
L 195.177621 75.953842 
L 194.504544 76.013629 
L 193.900889 76.073516 
L 193.724782 76.092106 
L 193.342287 76.134228 
L 192.740934 76.205293 
L 192.417775 76.245933 
L 191.650282 76.349343 
L 191.159469 76.420575 
L 190.735102 76.485385 
L 190.272204 76.559497 
L 189.693317 76.657216 
L 189.309033 76.72519 
L 188.813175 76.816574 
L 188.224011 76.930562 
L 187.784452 77.019448 
L 187.353958 77.1097 
L 186.919868 77.203925 
L 186.449088 77.309787 
L 186.290177 77.346387 
L 185.71668 77.482123 
L 185.062709 77.643922 
L 184.71515 77.732974 
L 184.383796 77.819864 
L 183.696126 78.006426 
L 183.14701 78.161487 
L 182.973868 78.211508 
L 182.420699 78.374965 
L 181.961531 78.514891 
L 181.516173 78.654314 
L 181.078866 78.794794 
L 180.365775 79.031533 
L 179.913571 79.186629 
L 179.518853 79.32519 
L 179.005379 79.509913 
L 178.661858 79.636342 
L 178.109368 79.844507 
L 177.592624 80.044643 
L 177.254081 80.178638 
L 176.894487 80.323481 
L 176.339937 80.551974 
L 175.552006 80.887452 
L 175.2743 81.008755 
L 174.626041 81.298215 
L 174.40776 81.397684 
L 173.810768 81.674942 
L 173.551578 81.797714 
L 172.942371 82.09207 
L 172.662223 82.230183 
L 171.962465 82.582851 
L 171.754266 82.689921 
L 170.941586 83.117405 
L 170.736173 83.227891 
L 170.180529 83.531757 
L 169.651062 83.828191 
L 169.2 84.086109 
L 169.2 13.430769 
L 169.700711 13.430769 
L 170.184728 13.430769 
L 170.387213 13.430769 
L 171.258327 13.430769 
L 171.374999 13.430769 
L 171.981956 13.430769 
L 172.660039 13.430769 
L 172.78637 13.430769 
L 173.4369 13.430769 
L 173.705632 13.430769 
L 174.312147 13.430769 
L 174.719756 13.430769 
L 175.27281 13.430769 
L 175.757563 13.430769 
L 176.278627 13.430769 
L 176.640777 13.430769 
L 177.384818 13.430769 
L 177.78203 13.430769 
L 177.95239 13.430769 
L 178.688555 13.430769 
L 179.258726 13.430769 
L 179.512575 13.430769 
L 180.052001 13.430769 
L 180.382911 13.430769 
L 180.89353 13.430769 
L 181.637997 13.430769 
L 181.782742 13.430769 
L 182.426928 13.430769 
L 182.653324 13.430769 
L 183.09992 13.430769 
L 183.591447 13.430769 
L 184.460758 13.430769 
L 184.827479 13.430769 
L 185.052473 13.430769 
L 185.464399 13.430769 
L 185.878823 13.430769 
L 186.427723 13.430769 
L 187.040744 13.430769 
L 187.668774 13.430769 
L 187.756786 13.430769 
L 188.341425 13.430769 
L 188.987157 13.430769 
L 189.286517 13.430769 
L 189.666603 13.430769 
L 190.189805 13.430769 
L 191.03627 13.430769 
L 191.080309 13.430769 
L 191.901815 13.430769 
L 192.384623 13.430769 
L 192.707309 13.430769 
L 193.204862 13.430769 
L 193.741092 13.430769 
L 194.263069 13.430769 
L 194.432705 13.430769 
L 195.150193 13.430769 
L 195.471325 13.430769 
L 195.963601 13.430769 
L 196.473843 13.430769 
L 196.811583 13.430769 
L 197.418137 13.430769 
L 197.724745 13.430769 
L 198.09467 13.430769 
L 198.935018 13.430769 
L 199.087502 13.430769 
L 199.866708 13.430769 
L 200.188383 13.430769 
L 200.888376 13.430769 
L 201.168469 13.430769 
L 201.383751 13.430769 
L 202.087137 13.430769 
L 202.326141 13.430769 
L 202.857396 13.430769 
L 203.678099 13.430769 
L 204.151883 13.430769 
L 204.450793 13.430769 
L 204.932091 13.430769 
L 205.448582 13.430769 
L 205.874802 13.430769 
L 206.157618 13.430769 
L 206.627801 13.430769 
L 207.442732 13.430769 
L 207.676173 13.430769 
L 208.088003 13.430769 
L 208.665005 13.430769 
L 209.049118 13.430769 
L 209.718819 13.430769 
L 209.91034 13.430769 
L 210.479051 13.430769 
L 211.211707 13.430769 
L 211.63276 13.430769 
L 211.97148 13.430769 
L 212.44351 13.430769 
L 212.977128 13.430769 
L 213.465024 13.430769 
L 213.805988 13.430769 
L 214.238682 13.430769 
L 214.967225 13.430769 
L 215.410687 13.430769 
L 215.645411 13.430769 
L 216.281286 13.430769 
L 216.55289 13.430769 
L 216.930816 13.430769 
L 217.588878 13.430769 
L 217.906353 13.430769 
L 218.433606 13.430769 
L 219.217718 13.430769 
L 219.666219 13.430769 
L 220.033404 13.430769 
L 220.411289 13.430769 
L 221.019666 13.430769 
L 221.262608 13.430769 
L 221.803464 13.430769 
L 222.126682 13.430769 
L 222.620453 13.430769 
L 223.412117 13.430769 
L 223.516939 13.430769 
L 223.944193 13.430769 
L 224.835444 13.430769 
L 225.127496 13.430769 
L 225.440678 13.430769 
L 225.995523 13.430769 
L 226.693865 13.430769 
L 227.003604 13.430769 
L 227.481518 13.430769 
L 227.849288 13.430769 
L 228.246709 13.430769 
L 228.74769 13.430769 
L 229.533572 13.430769 
L 229.623924 13.430769 
L 230.292511 13.430769 
L 230.727961 13.430769 
L 231.334703 13.430769 
L 231.725828 13.430769 
L 231.964087 13.430769 
L 232.594678 13.430769 
L 233.232554 13.430769 
L 233.485307 13.430769 
L 233.81355 13.430769 
L 234.562969 13.430769 
L 235.031562 13.430769 
L 235.544606 13.430769 
L 235.939123 13.430769 
L 236.222659 13.430769 
L 236.610776 13.430769 
L 237.484692 13.430769 
L 237.561927 13.430769 
L 238.187148 13.430769 
L 238.943781 13.430769 
L 239.287723 13.430769 
L 239.677968 13.430769 
L 240.134854 13.430769 
L 240.692455 13.430769 
L 241.113906 13.430769 
L 241.66363 13.430769 
L 241.856525 13.430769 
L 242.657539 13.430769 
L 243.0402 13.430769 
L 243.446695 13.430769 
L 243.680782 13.430769 
L 244.285906 13.430769 
L 244.899005 13.430769 
L 245.234449 13.430769 
L 245.714979 13.430769 
L 246.419166 13.430769 
L 246.570975 13.430769 
L 247.139559 13.430769 
L 247.760307 13.430769 
L 248.186066 13.430769 
L 248.752917 13.430769 
L 249.177464 13.430769 
L 249.355516 13.430769 
L 249.982352 13.430769 
L 250.297054 13.430769 
L 250.782643 13.430769 
L 251.517669 13.430769 
L 251.890016 13.430769 
L 252.471427 13.430769 
L 252.789573 13.430769 
L 253.36827 13.430769 
L 253.878128 13.430769 
L 254.140465 13.430769 
L 254.525497 13.430769 
L 255.251122 13.430769 
L 255.38307 13.430769 
L 256.252491 13.430769 
L 256.727468 13.430769 
L 256.854615 13.430769 
L 257.710957 13.430769 
L 258.02743 13.430769 
L 258.437356 13.430769 
L 258.693292 13.430769 
L 259.347258 13.430769 
L 259.635713 13.430769 
L 260.083756 13.430769 
L 260.585751 13.430769 
L 261.243331 13.430769 
L 261.790671 13.430769 
L 262.125143 13.430769 
L 262.661538 13.430769 
z
" clip-path="url(#p8fb83f61d2)" style="fill: #808080; opacity: 0.5"/>
   </g>
   <g id="patch_10">
    <path d="M 13.430769 138.046154 
L 13.430769 324.969231 
L 13.816691 324.969231 
L 14.155316 324.969231 
L 14.329032 324.969231 
L 14.6286 324.969231 
L 14.912211 324.969231 
L 15.43869 324.969231 
L 15.568545 324.969231 
L 15.818568 324.969231 
L 16.329679 324.969231 
L 16.637004 324.969231 
L 16.876555 324.969231 
L 17.288824 324.969231 
L 17.515955 324.969231 
L 17.659425 324.969231 
L 17.993165 324.969231 
L 18.596664 324.969231 
L 18.679311 324.969231 
L 19.102621 324.969231 
L 19.454788 324.969231 
L 19.727677 324.969231 
L 19.866856 324.969231 
L 20.382388 324.969231 
L 20.549543 324.969231 
L 20.843861 324.969231 
L 21.255318 324.969231 
L 21.495725 324.969231 
L 21.98876 324.969231 
L 22.270284 324.969231 
L 22.598849 324.969231 
L 22.699997 324.969231 
L 23.094731 324.969231 
L 23.39463 324.969231 
L 23.748873 324.969231 
L 24.138926 324.969231 
L 24.323193 324.969231 
L 24.552485 324.969231 
L 25.162102 324.969231 
L 25.349364 324.969231 
L 25.67383 324.969231 
L 26.023714 324.969231 
L 26.423135 324.969231 
L 26.678881 324.969231 
L 26.934151 324.969231 
L 27.136656 324.969231 
L 27.423265 324.969231 
L 27.719993 324.969231 
L 28.206211 324.969231 
L 28.567704 324.969231 
L 28.654055 324.969231 
L 28.966374 324.969231 
L 29.249948 324.969231 
L 29.704087 324.969231 
L 29.896488 324.969231 
L 30.328958 324.969231 
L 30.54205 324.969231 
L 31.059351 324.969231 
L 31.432163 324.969231 
L 31.627077 324.969231 
L 32.029142 324.969231 
L 32.181297 324.969231 
L 32.542801 324.969231 
L 32.797574 324.969231 
L 33.200372 324.969231 
L 33.470098 324.969231 
L 33.632761 324.969231 
L 34.235724 324.969231 
L 34.420576 324.969231 
L 34.803625 324.969231 
L 35.054221 324.969231 
L 35.365676 324.969231 
L 35.618137 324.969231 
L 35.853593 324.969231 
L 36.177162 324.969231 
L 36.551977 324.969231 
L 36.854061 324.969231 
L 37.371245 324.969231 
L 37.591319 324.969231 
L 37.698246 324.969231 
L 38.133594 324.969231 
L 38.542552 324.969231 
L 38.666263 324.969231 
L 39.232875 324.969231 
L 39.416772 324.969231 
L 39.619886 324.969231 
L 39.89384 324.969231 
L 40.342547 324.969231 
L 40.563188 324.969231 
L 40.837268 324.969231 
L 41.190839 324.969231 
L 41.593739 324.969231 
L 42.033352 324.969231 
L 42.259627 324.969231 
L 42.531248 324.969231 
L 42.8382 324.969231 
L 43.036456 324.969231 
L 43.380581 324.969231 
L 43.73118 324.969231 
L 43.962591 324.969231 
L 44.458871 324.969231 
L 44.727551 324.969231 
L 45.072464 324.969231 
L 45.413136 324.969231 
L 45.670885 324.969231 
L 45.874733 324.969231 
L 46.257113 324.969231 
L 46.702179 324.969231 
L 47.071588 324.969231 
L 47.346303 324.969231 
L 47.423046 324.969231 
L 47.738762 324.969231 
L 48.271656 324.969231 
L 48.419472 324.969231 
L 48.939502 324.969231 
L 49.065061 324.969231 
L 49.313332 324.969231 
L 49.692454 324.969231 
L 49.994982 324.969231 
L 50.452506 324.969231 
L 50.539274 324.969231 
L 50.913909 324.969231 
L 51.277943 324.969231 
L 51.504882 324.969231 
L 52.024341 324.969231 
L 52.162605 324.969231 
L 52.536251 324.969231 
L 52.91286 324.969231 
L 53.128186 324.969231 
L 53.59232 324.969231 
L 53.91592 324.969231 
L 54.046768 324.969231 
L 54.580119 324.969231 
L 54.658348 324.969231 
L 55.192025 324.969231 
L 55.240907 324.969231 
L 55.742918 324.969231 
L 56.032398 324.969231 
L 56.471821 324.969231 
L 56.529433 324.969231 
L 56.885333 324.969231 
L 57.338862 324.969231 
L 57.434376 324.969231 
L 58.028263 324.969231 
L 58.178571 324.969231 
L 58.492525 324.969231 
L 58.795191 324.969231 
L 59.285092 324.969231 
L 59.459547 324.969231 
L 59.912231 324.969231 
L 59.982311 324.969231 
L 60.357716 324.969231 
L 60.743736 324.969231 
L 60.893194 324.969231 
L 61.273097 324.969231 
L 61.720993 324.969231 
L 61.868287 324.969231 
L 62.188111 324.969231 
L 62.466268 324.969231 
L 63.029296 324.969231 
L 63.289514 324.969231 
L 63.499063 324.969231 
L 63.901279 324.969231 
L 64.285231 324.969231 
L 64.495241 324.969231 
L 64.80804 324.969231 
L 65.010587 324.969231 
L 65.494866 324.969231 
L 65.744506 324.969231 
L 66.188622 324.969231 
L 66.462267 324.969231 
L 66.616035 324.969231 
L 66.995372 324.969231 
L 67.335798 324.969231 
L 67.457203 324.969231 
L 67.819369 324.969231 
L 68.26882 324.969231 
L 68.425173 324.969231 
L 68.971963 324.969231 
L 69.216406 324.969231 
L 69.489945 324.969231 
L 69.665691 324.969231 
L 70.024358 324.969231 
L 70.492984 324.969231 
L 70.782002 324.969231 
L 70.987831 324.969231 
L 71.409766 324.969231 
L 71.804249 324.969231 
L 72.113134 324.969231 
L 72.42842 324.969231 
L 72.699049 324.969231 
L 72.861597 324.969231 
L 73.15235 324.969231 
L 73.392818 324.969231 
L 73.869375 324.969231 
L 74.062594 324.969231 
L 74.436119 324.969231 
L 74.886432 324.969231 
L 75.039742 324.969231 
L 75.381343 324.969231 
L 75.738462 324.969231 
L 75.738462 138.046154 
z
" clip-path="url(#p8fb83f61d2)" style="fill: #808080; opacity: 0.5"/>
   </g>
   <g id="patch_11">
    <path d="M 231.507692 200.353846 
L 231.490153 201.832159 
L 231.472613 202.444349 
L 231.455073 202.913999 
L 231.437533 203.309848 
L 231.419994 203.658524 
L 231.402454 203.973684 
L 231.384914 204.263443 
L 231.367375 204.533086 
L 231.349835 204.786287 
L 231.332295 205.02572 
L 231.297216 205.470906 
L 231.262136 205.880124 
L 231.227057 206.260852 
L 231.191978 206.618288 
L 231.156898 206.956216 
L 231.121819 207.277493 
L 231.086739 207.584338 
L 231.016581 208.161464 
L 230.946422 208.698181 
L 230.877611 209.192447 
L 230.8088 209.659991 
L 230.739989 210.104657 
L 230.671178 210.529447 
L 230.602367 210.936752 
L 230.533556 211.328521 
L 230.464745 211.706361 
L 230.395934 212.071621 
L 230.271606 212.703237 
L 230.147279 213.302891 
L 230.022951 213.874835 
L 229.898624 214.42245 
L 229.774296 214.948474 
L 229.649969 215.455164 
L 229.525641 215.944406 
L 229.401314 216.417792 
L 229.235568 217.026552 
L 229.069822 217.612262 
L 228.904076 218.177196 
L 228.73833 218.72327 
L 228.615683 219.11618 
L 228.401082 219.782702 
L 228.186481 220.42481 
L 227.97188 221.044777 
L 227.757279 221.644538 
L 227.557428 222.18637 
L 227.357577 222.713291 
L 227.07882 223.425273 
L 226.800063 224.112661 
L 226.521306 224.777532 
L 226.242548 225.421678 
L 225.887796 226.213898 
L 225.462412 227.126771 
L 225.037028 228.002983 
L 224.783911 228.508372 
L 224.264633 229.510916 
L 223.745355 230.471164 
L 223.605412 230.723233 
L 223.164228 231.500444 
L 222.723044 232.252627 
L 222.374299 232.830645 
L 222.025553 233.394873 
L 221.649904 233.987996 
L 220.955507 235.047016 
L 220.54413 235.65298 
L 220.132752 236.244001 
L 219.516473 237.10301 
L 218.792727 238.073999 
L 218.426671 238.550487 
L 217.96377 239.139711 
L 217.500868 239.714673 
L 217.042139 240.270989 
L 216.784327 240.577973 
L 216.289126 241.156575 
L 215.793925 241.72116 
L 215.29591 242.275388 
L 214.410575 243.228692 
L 213.878508 243.782863 
L 213.377669 244.292236 
L 212.824717 244.841289 
L 212.217174 245.429019 
L 211.236265 246.34516 
L 210.70389 246.826157 
L 210.443213 247.057656 
L 209.72745 247.6801 
L 208.88849 248.385838 
L 208.232506 248.920419 
L 207.737563 249.314083 
L 207.371883 249.599717 
L 206.190806 250.492941 
L 206.130195 250.537601 
L 205.477903 251.011148 
L 204.608022 251.622945 
L 203.788256 252.179526 
L 203.128377 252.613905 
L 202.711214 252.882382 
L 202.063097 253.290274 
L 201.229679 253.798661 
L 200.860918 254.017938 
L 200.035008 254.49672 
L 199.82905 254.613498 
L 199.158148 254.986784 
L 198.033343 255.58868 
L 198.003456 255.604271 
L 197.287461 255.971677 
L 196.516941 256.354143 
L 195.602293 256.791134 
L 195.469408 256.853109 
L 194.700425 257.204324 
L 194.019939 257.504692 
L 193.513234 257.722088 
L 192.492064 258.144228 
L 192.292412 258.224296 
L 191.587048 258.500803 
L 190.909471 258.757163 
L 189.921944 259.114799 
L 189.534756 259.249909 
L 189.128288 259.388682 
L 188.436676 259.617653 
L 187.66818 259.861617 
L 187.205054 260.003377 
L 186.579873 260.188523 
L 185.873623 260.389159 
L 185.478164 260.49759 
L 184.5992 260.728619 
L 183.783684 260.930778 
L 183.404471 261.020818 
L 182.720146 261.176985 
L 182.049767 261.322133 
L 181.232249 261.488726 
L 180.959329 261.541808 
L 180.257134 261.67259 
L 179.425372 261.816764 
L 178.85181 261.90944 
L 177.967774 262.041565 
L 177.894506 262.051934 
L 177.269645 262.136767 
L 176.647923 262.214795 
L 176.046992 262.284188 
L 175.18033 262.373877 
L 174.50157 262.435582 
L 173.7376 262.496092 
L 173.200716 262.532965 
L 172.910504 262.550958 
L 171.731585 262.610088 
L 171.509925 262.618706 
L 170.901926 262.63829 
L 170.432257 262.649352 
L 169.38175 262.661273 
L 168.702915 262.659556 
L 168.549799 262.658146 
L 167.678907 262.642969 
L 167.057767 262.624701 
L 166.662727 262.609856 
L 165.962493 262.577371 
L 164.94076 262.515791 
L 164.510244 262.484794 
L 163.827695 262.4295 
L 163.36384 262.387609 
L 162.799447 262.331918 
L 161.901725 262.232629 
L 161.681659 262.206276 
L 160.843082 262.098566 
L 160.332104 262.027252 
L 159.378339 261.882567 
L 159.072054 261.832893 
L 158.369557 261.713035 
L 157.590008 261.57032 
L 156.836756 261.422649 
L 156.117758 261.272673 
L 155.432617 261.1215 
L 155.081749 261.040941 
L 154.528954 260.909679 
L 153.961364 260.769345 
L 153.254901 260.586747 
L 152.901921 260.492196 
L 152.031825 260.249608 
L 151.325051 260.042494 
L 150.588707 259.817014 
L 150.406059 259.759539 
L 149.785798 259.559735 
L 148.830677 259.237963 
L 148.13485 258.992639 
L 147.795436 258.869598 
L 146.899657 258.534111 
L 146.40394 258.341674 
L 145.740089 258.076295 
L 145.069711 257.799278 
L 144.772687 257.673606 
L 143.743376 257.223951 
L 143.202038 256.978527 
L 142.8609 256.820654 
L 141.65551 256.242571 
L 141.251096 256.041433 
L 140.830237 255.82821 
L 140.174802 255.488104 
L 139.714248 255.24318 
L 138.803098 254.74389 
L 137.977885 254.274418 
L 137.824552 254.18534 
L 136.964461 253.674748 
L 136.433924 253.350382 
L 135.851884 252.986077 
L 135.318802 252.644504 
L 134.440065 252.064536 
L 134.112576 251.842885 
L 133.273565 251.261014 
L 132.572752 250.759136 
L 131.630692 250.060945 
L 131.08767 249.645822 
L 130.925604 249.520086 
L 130.3534 249.069246 
L 129.442346 248.328605 
L 128.791751 247.781917 
L 128.184052 247.25737 
L 127.249244 246.42317 
L 126.751757 245.965195 
L 126.040047 245.292326 
L 125.47469 244.742423 
L 125.262258 244.532159 
L 124.326212 243.581056 
L 124.093959 243.338653 
L 123.501948 242.708734 
L 122.909936 242.060902 
L 122.773622 241.90911 
L 122.275457 241.345745 
L 121.777291 240.768388 
L 121.440035 240.369272 
L 120.904614 239.721399 
L 120.369192 239.055277 
L 120.017947 238.60792 
L 119.453927 237.871532 
L 119.092326 237.387203 
L 118.405837 236.439876 
L 118.000708 235.862732 
L 117.595578 235.271351 
L 117.124699 234.565124 
L 116.653819 233.837385 
L 116.487885 233.575548 
L 116.134467 233.008061 
L 115.781048 232.42664 
L 115.269603 231.558986 
L 114.758157 230.657876 
L 114.445558 230.089341 
L 114.13296 229.506369 
L 113.840267 228.946651 
L 113.547575 228.372698 
L 113.224409 227.721377 
L 112.779329 226.791629 
L 112.334248 225.820193 
L 112.206027 225.531923 
L 111.784235 224.554641 
L 111.573339 224.048075 
L 111.362443 223.528521 
L 111.142942 222.973009 
L 110.923441 222.401321 
L 110.703939 221.812164 
L 110.484438 221.204057 
L 110.26734 220.582295 
L 110.050242 219.938399 
L 109.878924 219.413186 
L 109.707605 218.871498 
L 109.536286 218.311846 
L 109.364967 217.732494 
L 109.205297 217.173006 
L 109.045627 216.592686 
L 108.885957 215.989213 
L 108.726286 215.359794 
L 108.553738 214.646483 
L 108.38119 213.893451 
L 108.253018 213.304288 
L 108.124847 212.685681 
L 107.996675 212.032951 
L 107.868503 211.340018 
L 107.804417 210.976035 
L 107.740331 210.598728 
L 107.676245 210.206567 
L 107.612159 209.797701 
L 107.548073 209.369857 
L 107.483987 208.920193 
L 107.419901 208.445073 
L 107.355816 207.939712 
L 107.297877 207.45143 
L 107.239939 206.926464 
L 107.210969 206.647382 
L 107.182 206.355197 
L 107.153031 206.04789 
L 107.124062 205.722868 
L 107.095092 205.376691 
L 107.066123 205.004638 
L 107.037154 204.599913 
L 107.008185 204.152086 
L 106.9937 203.906981 
L 106.979215 203.643601 
L 106.964731 203.357142 
L 106.950246 203.040232 
L 106.935762 202.68046 
L 106.921277 202.253629 
L 106.906792 201.697273 
L 106.892308 200.353846 
L 106.892308 324.969231 
L 107.451042 324.969231 
L 108.033142 324.969231 
L 108.98461 324.969231 
L 109.581195 324.969231 
L 109.885425 324.969231 
L 110.535394 324.969231 
L 111.31207 324.969231 
L 111.932371 324.969231 
L 112.581431 324.969231 
L 113.311044 324.969231 
L 113.854179 324.969231 
L 114.244635 324.969231 
L 115.190741 324.969231 
L 115.390187 324.969231 
L 116.356912 324.969231 
L 116.813685 324.969231 
L 117.672848 324.969231 
L 117.924065 324.969231 
L 118.851418 324.969231 
L 119.441863 324.969231 
L 119.909258 324.969231 
L 120.6417 324.969231 
L 121.54691 324.969231 
L 121.899862 324.969231 
L 122.824557 324.969231 
L 122.891009 324.969231 
L 123.505137 324.969231 
L 124.374626 324.969231 
L 124.931873 324.969231 
L 125.653738 324.969231 
L 126.376492 324.969231 
L 126.925701 324.969231 
L 127.24416 324.969231 
L 128.154392 324.969231 
L 128.505542 324.969231 
L 129.739958 324.969231 
L 130.296048 324.969231 
L 130.422116 324.969231 
L 131.46363 324.969231 
L 132.227196 324.969231 
L 132.326356 324.969231 
L 132.918429 324.969231 
L 133.837804 324.969231 
L 134.292031 324.969231 
L 135.08862 324.969231 
L 135.558725 324.969231 
L 136.573193 324.969231 
L 137.077677 324.969231 
L 137.569562 324.969231 
L 138.244918 324.969231 
L 138.57677 324.969231 
L 139.462773 324.969231 
L 140.271397 324.969231 
L 140.511498 324.969231 
L 141.055988 324.969231 
L 142.168302 324.969231 
L 142.285556 324.969231 
L 143.211014 324.969231 
L 143.933999 324.969231 
L 144.54544 324.969231 
L 145.138944 324.969231 
L 145.705788 324.969231 
L 146.22117 324.969231 
L 146.794439 324.969231 
L 147.810372 324.969231 
L 148.376285 324.969231 
L 148.656475 324.969231 
L 149.745771 324.969231 
L 150.400512 324.969231 
L 150.508949 324.969231 
L 151.549149 324.969231 
L 151.85815 324.969231 
L 152.569617 324.969231 
L 153.535383 324.969231 
L 154.148926 324.969231 
L 154.725047 324.969231 
L 154.955528 324.969231 
L 155.747952 324.969231 
L 156.673866 324.969231 
L 156.767185 324.969231 
L 157.541068 324.969231 
L 158.441016 324.969231 
L 158.844176 324.969231 
L 159.257646 324.969231 
L 159.940714 324.969231 
L 160.493257 324.969231 
L 161.081686 324.969231 
L 161.808742 324.969231 
L 162.778 324.969231 
L 163.211383 324.969231 
L 164.165136 324.969231 
L 164.438756 324.969231 
L 165.308562 324.969231 
L 165.939906 324.969231 
L 166.277959 324.969231 
L 167.183185 324.969231 
L 167.67909 324.969231 
L 167.988425 324.969231 
L 168.857173 324.969231 
L 169.399775 324.969231 
L 169.889521 324.969231 
L 170.65717 324.969231 
L 171.335604 324.969231 
L 171.851282 324.969231 
L 172.902957 324.969231 
L 173.432183 324.969231 
L 173.989788 324.969231 
L 174.537417 324.969231 
L 175.024352 324.969231 
L 175.544369 324.969231 
L 176.608424 324.969231 
L 177.137511 324.969231 
L 177.356774 324.969231 
L 178.119553 324.969231 
L 179.012773 324.969231 
L 179.743118 324.969231 
L 180.006528 324.969231 
L 180.800456 324.969231 
L 181.406282 324.969231 
L 182.097276 324.969231 
L 182.618084 324.969231 
L 183.109855 324.969231 
L 184.052909 324.969231 
L 184.62157 324.969231 
L 185.221092 324.969231 
L 185.986219 324.969231 
L 186.685936 324.969231 
L 186.77117 324.969231 
L 187.69505 324.969231 
L 188.027009 324.969231 
L 188.785783 324.969231 
L 189.440424 324.969231 
L 189.956875 324.969231 
L 190.862189 324.969231 
L 191.515793 324.969231 
L 192.309678 324.969231 
L 192.450985 324.969231 
L 193.423832 324.969231 
L 193.884376 324.969231 
L 194.556265 324.969231 
L 195.117991 324.969231 
L 195.509915 324.969231 
L 196.154974 324.969231 
L 197.156266 324.969231 
L 197.500915 324.969231 
L 198.246073 324.969231 
L 198.704088 324.969231 
L 199.821323 324.969231 
L 199.951989 324.969231 
L 200.627722 324.969231 
L 201.637931 324.969231 
L 202.085607 324.969231 
L 202.448507 324.969231 
L 203.099609 324.969231 
L 203.652382 324.969231 
L 204.580489 324.969231 
L 205.393594 324.969231 
L 206.044704 324.969231 
L 206.674849 324.969231 
L 207.23614 324.969231 
L 207.877642 324.969231 
L 208.465521 324.969231 
L 209.230795 324.969231 
L 209.475781 324.969231 
L 210.524546 324.969231 
L 210.614158 324.969231 
L 211.370233 324.969231 
L 212.16667 324.969231 
L 212.827392 324.969231 
L 213.042587 324.969231 
L 213.667422 324.969231 
L 214.852982 324.969231 
L 215.504191 324.969231 
L 215.967632 324.969231 
L 216.549794 324.969231 
L 217.18202 324.969231 
L 217.975578 324.969231 
L 218.071741 324.969231 
L 219.229155 324.969231 
L 219.529948 324.969231 
L 220.068951 324.969231 
L 220.946953 324.969231 
L 221.688893 324.969231 
L 222.369197 324.969231 
L 222.475278 324.969231 
L 223.464224 324.969231 
L 224.148185 324.969231 
L 224.343154 324.969231 
L 225.023413 324.969231 
L 225.878191 324.969231 
L 226.435278 324.969231 
L 227.189953 324.969231 
L 227.832088 324.969231 
L 228.429247 324.969231 
L 229.143995 324.969231 
L 229.933978 324.969231 
L 230.006208 324.969231 
L 230.578401 324.969231 
L 231.507692 324.969231 
z
" clip-path="url(#p8fb83f61d2)" style="fill: #808080; opacity: 0.5"/>
   </g>
   <g id="patch_12">
    <path d="M 262.661538 138.046154 
L 262.661538 324.969231 
L 262.876052 324.969231 
L 263.37546 324.969231 
L 263.572063 324.969231 
L 263.96024 324.969231 
L 264.175506 324.969231 
L 264.688033 324.969231 
L 264.710342 324.969231 
L 265.06177 324.969231 
L 265.374355 324.969231 
L 265.888756 324.969231 
L 265.953585 324.969231 
L 266.515506 324.969231 
L 266.740932 324.969231 
L 266.972846 324.969231 
L 267.246546 324.969231 
L 267.555631 324.969231 
L 267.883799 324.969231 
L 268.314681 324.969231 
L 268.562514 324.969231 
L 269.006539 324.969231 
L 269.275401 324.969231 
L 269.505176 324.969231 
L 269.954824 324.969231 
L 270.137522 324.969231 
L 270.602383 324.969231 
L 270.914524 324.969231 
L 271.135574 324.969231 
L 271.487194 324.969231 
L 271.607528 324.969231 
L 271.925284 324.969231 
L 272.389367 324.969231 
L 272.793977 324.969231 
L 273.097886 324.969231 
L 273.230609 324.969231 
L 273.510651 324.969231 
L 273.909254 324.969231 
L 274.359021 324.969231 
L 274.698555 324.969231 
L 274.748863 324.969231 
L 275.299631 324.969231 
L 275.587877 324.969231 
L 275.706744 324.969231 
L 276.0065 324.969231 
L 276.474586 324.969231 
L 276.79624 324.969231 
L 277.117558 324.969231 
L 277.320636 324.969231 
L 277.62663 324.969231 
L 277.86567 324.969231 
L 278.286654 324.969231 
L 278.718337 324.969231 
L 279.011822 324.969231 
L 279.260449 324.969231 
L 279.526229 324.969231 
L 280.034945 324.969231 
L 280.048517 324.969231 
L 280.587182 324.969231 
L 280.680625 324.969231 
L 281.113021 324.969231 
L 281.39647 324.969231 
L 281.714902 324.969231 
L 282.22578 324.969231 
L 282.483895 324.969231 
L 282.727316 324.969231 
L 282.964653 324.969231 
L 283.45017 324.969231 
L 283.7512 324.969231 
L 283.846501 324.969231 
L 284.185148 324.969231 
L 284.426166 324.969231 
L 284.738186 324.969231 
L 285.23186 324.969231 
L 285.428213 324.969231 
L 285.8612 324.969231 
L 286.202746 324.969231 
L 286.476499 324.969231 
L 286.69719 324.969231 
L 287.188122 324.969231 
L 287.381154 324.969231 
L 287.690519 324.969231 
L 288.028354 324.969231 
L 288.329052 324.969231 
L 288.655856 324.969231 
L 288.857 324.969231 
L 289.32065 324.969231 
L 289.534099 324.969231 
L 290.013872 324.969231 
L 290.07965 324.969231 
L 290.400924 324.969231 
L 290.697745 324.969231 
L 291.308682 324.969231 
L 291.458579 324.969231 
L 291.885157 324.969231 
L 292.187063 324.969231 
L 292.404624 324.969231 
L 292.577628 324.969231 
L 293.16293 324.969231 
L 293.396885 324.969231 
L 293.695495 324.969231 
L 293.9582 324.969231 
L 294.410329 324.969231 
L 294.744672 324.969231 
L 294.790255 324.969231 
L 295.343399 324.969231 
L 295.486458 324.969231 
L 295.980663 324.969231 
L 296.304204 324.969231 
L 296.454623 324.969231 
L 296.735833 324.969231 
L 297.188543 324.969231 
L 297.502107 324.969231 
L 297.812068 324.969231 
L 297.963161 324.969231 
L 298.411989 324.969231 
L 298.724597 324.969231 
L 298.863418 324.969231 
L 299.365217 324.969231 
L 299.744216 324.969231 
L 299.874199 324.969231 
L 300.184513 324.969231 
L 300.700141 324.969231 
L 300.983714 324.969231 
L 301.26412 324.969231 
L 301.438959 324.969231 
L 301.907713 324.969231 
L 302.210971 324.969231 
L 302.303457 324.969231 
L 302.76445 324.969231 
L 303.112541 324.969231 
L 303.346882 324.969231 
L 303.553331 324.969231 
L 303.877265 324.969231 
L 304.280892 324.969231 
L 304.535399 324.969231 
L 304.992356 324.969231 
L 305.139088 324.969231 
L 305.566567 324.969231 
L 305.829051 324.969231 
L 306.322445 324.969231 
L 306.447732 324.969231 
L 306.885472 324.969231 
L 307.238956 324.969231 
L 307.340756 324.969231 
L 307.606835 324.969231 
L 307.982162 324.969231 
L 308.323334 324.969231 
L 308.838202 324.969231 
L 309.038929 324.969231 
L 309.464875 324.969231 
L 309.522302 324.969231 
L 310.085916 324.969231 
L 310.30955 324.969231 
L 310.630725 324.969231 
L 310.734126 324.969231 
L 311.16096 324.969231 
L 311.583129 324.969231 
L 311.794957 324.969231 
L 312.194504 324.969231 
L 312.351271 324.969231 
L 312.754111 324.969231 
L 313.211379 324.969231 
L 313.312116 324.969231 
L 313.558083 324.969231 
L 313.956728 324.969231 
L 314.474521 324.969231 
L 314.78438 324.969231 
L 314.902644 324.969231 
L 315.347424 324.969231 
L 315.440901 324.969231 
L 315.854147 324.969231 
L 316.232541 324.969231 
L 316.374895 324.969231 
L 316.914952 324.969231 
L 317.083719 324.969231 
L 317.405137 324.969231 
L 317.639332 324.969231 
L 318.068338 324.969231 
L 318.504227 324.969231 
L 318.61471 324.969231 
L 318.923239 324.969231 
L 319.256278 324.969231 
L 319.697857 324.969231 
L 319.868191 324.969231 
L 320.293526 324.969231 
L 320.693947 324.969231 
L 320.774638 324.969231 
L 321.088733 324.969231 
L 321.439578 324.969231 
L 321.777212 324.969231 
L 322.155642 324.969231 
L 322.558233 324.969231 
L 322.742054 324.969231 
L 322.992011 324.969231 
L 323.538648 324.969231 
L 323.604251 324.969231 
L 324.134322 324.969231 
L 324.25708 324.969231 
L 324.584172 324.969231 
L 324.969231 324.969231 
L 324.969231 138.046154 
z
" clip-path="url(#p8fb83f61d2)" style="fill: #808080; opacity: 0.5"/>
   </g>
   <g id="matplotlib.axis_1"/>
   <g id="matplotlib.axis_2"/>
   <g id="line2d_1">
    <path d="M 75.738462 324.969231 
L 106.892308 324.969231 
L 106.892308 324.969231 
" clip-path="url(#p8fb83f61d2)" style="fill: none; stroke: #000000; stroke-linecap: square"/>
   </g>
   <g id="line2d_2">
    <path d="M 13.430769 13.430769 
L 75.738462 13.430769 
L 75.738462 13.430769 
" clip-path="url(#p8fb83f61d2)" style="fill: none; stroke: #000000; stroke-linecap: square"/>
   </g>
   <g id="line2d_3">
    <path d="M 75.738462 13.430769 
L 169.2 13.430769 
L 169.2 13.430769 
" clip-path="url(#p8fb83f61d2)" style="fill: none; stroke: #000000; stroke-linecap: square"/>
   </g>
   <g id="line2d_4">
    <path d="M 231.507692 324.969231 
L 262.661538 324.969231 
L 262.661538 324.969231 
" clip-path="url(#p8fb83f61d2)" style="fill: none; stroke: #000000; stroke-linecap: square"/>
   </g>
   <g id="line2d_5">
    <path d="M 262.661538 13.430769 
L 324.969231 13.430769 
L 324.969231 13.430769 
" clip-path="url(#p8fb83f61d2)" style="fill: none; stroke: #000000; stroke-linecap: square"/>
   </g>
   <g id="line2d_6">
    <path d="M 169.2 13.430769 
L 262.661538 13.430769 
L 262.661538 13.430769 
" clip-path="url(#p8fb83f61d2)" style="fill: none; stroke: #000000; stroke-linecap: square"/>
   </g>
   <g id="line2d_7">
    <path d="M 13.430769 324.969231 
L 75.738462 324.969231 
L 75.738462 324.969231 
" clip-path="url(#p8fb83f61d2)" style="fill: none; stroke: #000000; stroke-linecap: square"/>
   </g>
   <g id="line2d_8">
    <path d="M 106.892308 324.969231 
L 231.507692 324.969231 
L 231.507692 324.969231 
" clip-path="url(#p8fb83f61d2)" style="fill: none; stroke: #000000; stroke-linecap: square"/>
   </g>
   <g id="line2d_9">
    <path d="M 262.661538 324.969231 
L 324.969231 324.969231 
L 324.969231 324.969231 
" clip-path="url(#p8fb83f61d2)" style="fill: none; stroke: #000000; stroke-linecap: square"/>
   </g>
   <g id="text_1">
    <!-- $\Omega$ -->
    <g transform="translate(16.011538 22.420913) scale(0.1 -0.1)">
     <defs>
      <path id="Cmr10-ad" d="M 494 0 
L 281 1063 
L 469 1063 
Q 503 878 531 736 
Q 559 594 604 536 
Q 650 478 750 459 
Q 850 441 1081 441 
L 1472 441 
Q 1378 803 1004 1386 
Q 631 1969 495 2233 
Q 359 2497 359 2913 
Q 359 3397 646 3761 
Q 934 4125 1389 4319 
Q 1844 4513 2309 4513 
Q 2772 4513 3226 4319 
Q 3681 4125 3968 3758 
Q 4256 3391 4256 2913 
Q 4256 2588 4137 2300 
Q 4019 2013 3834 1725 
Q 3650 1438 3436 1084 
Q 3222 731 3144 441 
L 3531 441 
Q 3766 441 3869 459 
Q 3972 478 4015 536 
Q 4059 594 4086 736 
Q 4113 878 4147 1063 
L 4331 1063 
L 4122 0 
L 2988 0 
Q 2925 0 2925 84 
Q 2925 409 3004 721 
Q 3084 1034 3240 1478 
Q 3397 1922 3484 2261 
Q 3572 2600 3572 2913 
Q 3572 3297 3422 3625 
Q 3272 3953 2984 4150 
Q 2697 4347 2309 4347 
Q 1725 4347 1384 3930 
Q 1044 3513 1044 2913 
Q 1047 2584 1122 2293 
Q 1197 2003 1364 1518 
Q 1531 1034 1611 721 
Q 1691 409 1691 84 
Q 1691 0 1625 0 
L 494 0 
z
" transform="scale(0.015625)"/>
     </defs>
     <use xlink:href="#Cmr10-ad" transform="translate(0 0.484375)"/>
    </g>
   </g>
   <g id="text_2">
    <!-- $A$ -->
    <g style="fill: #0000ff" transform="translate(103.142308 78.497837) scale(0.1 -0.1)">
     <defs>
      <path id="Cmmi10-41" d="M 288 0 
Q 225 0 225 84 
Q 250 225 306 225 
Q 566 225 755 328 
Q 944 431 1081 647 
Q 1094 659 1094 659 
L 3378 4513 
Q 3428 4581 3500 4581 
L 3584 4581 
Q 3603 4581 3622 4573 
Q 3641 4566 3655 4548 
Q 3669 4531 3669 4513 
L 4056 378 
Q 4056 350 4084 294 
Q 4147 225 4563 225 
Q 4628 225 4628 141 
Q 4606 56 4592 28 
Q 4578 0 4519 0 
L 2919 0 
Q 2859 0 2859 84 
Q 2894 225 2944 225 
Q 3450 225 3481 397 
L 3384 1453 
L 1806 1453 
L 1294 594 
Q 1247 525 1247 434 
Q 1247 322 1355 273 
Q 1463 225 1594 225 
Q 1656 225 1656 141 
Q 1634 50 1621 25 
Q 1609 0 1550 0 
L 288 0 
z
M 1931 1678 
L 3359 1678 
L 3169 3750 
L 1931 1678 
z
" transform="scale(0.015625)"/>
     </defs>
     <use xlink:href="#Cmmi10-41" transform="translate(0 0.421875)"/>
    </g>
   </g>
   <g id="text_3">
    <!-- $B$ -->
    <g style="fill: #ff0000" transform="translate(227.707692 78.497837) scale(0.1 -0.1)">
     <defs>
      <path id="Cmmi10-42" d="M 319 0 
Q 256 0 256 84 
Q 259 100 268 137 
Q 278 175 293 200 
Q 309 225 341 225 
Q 522 225 656 234 
Q 791 244 884 269 
Q 959 297 1006 441 
L 1881 3956 
Q 1894 4019 1894 4044 
Q 1894 4113 1819 4122 
Q 1697 4147 1356 4147 
Q 1294 4147 1294 4231 
Q 1297 4247 1306 4286 
Q 1316 4325 1333 4348 
Q 1350 4372 1375 4372 
L 3669 4372 
Q 3878 4372 4083 4320 
Q 4288 4269 4461 4156 
Q 4634 4044 4736 3876 
Q 4838 3709 4838 3488 
Q 4838 3247 4714 3040 
Q 4591 2834 4395 2681 
Q 4200 2528 3973 2429 
Q 3747 2331 3500 2284 
Q 3675 2284 3854 2215 
Q 4034 2147 4175 2028 
Q 4316 1909 4402 1743 
Q 4488 1578 4488 1388 
Q 4488 1003 4219 684 
Q 3950 366 3542 183 
Q 3134 0 2753 0 
L 319 0 
z
M 1497 275 
Q 1497 225 1716 225 
L 2631 225 
Q 2944 225 3231 398 
Q 3519 572 3692 859 
Q 3866 1147 3866 1459 
Q 3866 1650 3786 1820 
Q 3706 1991 3556 2089 
Q 3406 2188 3213 2188 
L 1966 2188 
L 1522 416 
Q 1497 328 1497 275 
z
M 2009 2356 
L 2981 2356 
Q 3288 2356 3577 2512 
Q 3866 2669 4048 2937 
Q 4231 3206 4231 3506 
Q 4231 3784 4057 3965 
Q 3884 4147 3609 4147 
L 2731 4147 
Q 2559 4147 2500 4115 
Q 2441 4084 2400 3928 
L 2009 2356 
z
" transform="scale(0.015625)"/>
     </defs>
     <use xlink:href="#Cmmi10-42" transform="translate(0 0.6875)"/>
    </g>
   </g>
   <g id="text_4">
    <!-- $C$ -->
    <g style="fill: #228b22" transform="translate(150.023077 271.651683) scale(0.1 -0.1)">
     <defs>
      <path id="Cmmi10-43" d="M 934 1381 
Q 934 997 1082 705 
Q 1231 413 1514 248 
Q 1797 84 2181 84 
Q 2584 84 2957 290 
Q 3331 497 3595 842 
Q 3859 1188 3956 1575 
Q 3969 1613 4006 1613 
L 4084 1613 
Q 4109 1613 4125 1595 
Q 4141 1578 4141 1556 
Q 4141 1550 4134 1538 
Q 4025 1094 3711 705 
Q 3397 316 2959 87 
Q 2522 -141 2059 -141 
Q 1559 -141 1162 84 
Q 766 309 545 709 
Q 325 1109 325 1613 
Q 325 2150 565 2676 
Q 806 3203 1212 3614 
Q 1619 4025 2139 4269 
Q 2659 4513 3194 4513 
Q 3406 4513 3600 4448 
Q 3794 4384 3959 4253 
Q 4125 4122 4231 3950 
L 4738 4500 
Q 4738 4513 4769 4513 
L 4806 4513 
Q 4831 4513 4847 4491 
Q 4863 4469 4863 4447 
L 4428 2719 
Q 4428 2675 4378 2675 
L 4263 2675 
Q 4213 2675 4213 2747 
Q 4238 2888 4238 3084 
Q 4238 3397 4131 3673 
Q 4025 3950 3801 4119 
Q 3578 4288 3256 4288 
Q 2734 4288 2300 4025 
Q 1866 3763 1564 3336 
Q 1263 2909 1098 2389 
Q 934 1869 934 1381 
z
" transform="scale(0.015625)"/>
     </defs>
     <use xlink:href="#Cmmi10-43" transform="translate(0 0.484375)"/>
    </g>
   </g>
   <g id="patch_13">
    <path d="M 138.046154 200.353846 
C 154.570347 200.353846 170.419977 193.788715 182.104346 182.104346 
C 193.788715 170.419977 200.353846 154.570347 200.353846 138.046154 
C 200.353846 121.521961 193.788715 105.672331 182.104346 93.987962 
C 170.419977 82.303593 154.570347 75.738462 138.046154 75.738462 
C 121.521961 75.738462 105.672331 82.303593 93.987962 93.987962 
C 82.303593 105.672331 75.738462 121.521961 75.738462 138.046154 
C 75.738462 154.570347 82.303593 170.419977 93.987962 182.104346 
C 105.672331 193.788715 121.521961 200.353846 138.046154 200.353846 
L 138.046154 200.353846 
z
" clip-path="url(#p8fb83f61d2)" style="fill: none; stroke: #0000ff; stroke-linejoin: miter"/>
   </g>
   <g id="patch_14">
    <path d="M 200.353846 200.353846 
C 216.878039 200.353846 232.727669 193.788715 244.412038 182.104346 
C 256.096407 170.419977 262.661538 154.570347 262.661538 138.046154 
C 262.661538 121.521961 256.096407 105.672331 244.412038 93.987962 
C 232.727669 82.303593 216.878039 75.738462 200.353846 75.738462 
C 183.829653 75.738462 167.980023 82.303593 156.295654 93.987962 
C 144.611285 105.672331 138.046154 121.521961 138.046154 138.046154 
C 138.046154 154.570347 144.611285 170.419977 156.295654 182.104346 
C 167.980023 193.788715 183.829653 200.353846 200.353846 200.353846 
L 200.353846 200.353846 
z
" clip-path="url(#p8fb83f61d2)" style="fill: none; stroke: #ff0000; stroke-linejoin: miter"/>
   </g>
   <g id="patch_15">
    <path d="M 169.2 262.661538 
C 185.724193 262.661538 201.573823 256.096407 213.258192 244.412038 
C 224.942561 232.727669 231.507692 216.878039 231.507692 200.353846 
C 231.507692 183.829653 224.942561 167.980023 213.258192 156.295654 
C 201.573823 144.611285 185.724193 138.046154 169.2 138.046154 
C 152.675807 138.046154 136.826177 144.611285 125.141808 156.295654 
C 113.457439 167.980023 106.892308 183.829653 106.892308 200.353846 
C 106.892308 216.878039 113.457439 232.727669 125.141808 244.412038 
C 136.826177 256.096407 152.675807 262.661538 169.2 262.661538 
L 169.2 262.661538 
z
" clip-path="url(#p8fb83f61d2)" style="fill: none; stroke: #228b22; stroke-linejoin: miter"/>
   </g>
  </g>
 </g>
 <defs>
  <clipPath id="p8fb83f61d2">
   <rect x="7.2" y="7.2" width="324" height="324"/>
  </clipPath>
 </defs>
</svg>
