<?xml version="1.0" encoding="utf-8" standalone="no"?>
<!DOCTYPE svg PUBLIC "-//W3C//DTD SVG 1.1//EN"
  "http://www.w3.org/Graphics/SVG/1.1/DTD/svg11.dtd">
<svg xmlns:xlink="http://www.w3.org/1999/xlink" width="338.4pt" height="338.4pt" viewBox="0 0 338.4 338.4" xmlns="http://www.w3.org/2000/svg" version="1.1">
 <metadata>
  <rdf:RDF xmlns:dc="http://purl.org/dc/elements/1.1/" xmlns:cc="http://creativecommons.org/ns#" xmlns:rdf="http://www.w3.org/1999/02/22-rdf-syntax-ns#">
   <cc:Work>
    <dc:type rdf:resource="http://purl.org/dc/dcmitype/StillImage"/>
    <dc:date>2025-08-24T20:28:43.477528</dc:date>
    <dc:format>image/svg+xml</dc:format>
    <dc:creator>
     <cc:Agent>
      <dc:title>Matplotlib v3.8.0, https://matplotlib.org/</dc:title>
     </cc:Agent>
    </dc:creator>
   </cc:Work>
  </rdf:RDF>
 </metadata>
 <defs>
  <style type="text/css">*{stroke-linejoin: round; stroke-linecap: butt}</style>
 </defs>
 <g id="figure_1">
  <g id="patch_1">
   <path d="M -0 338.4 
L 338.4 338.4 
L 338.4 0 
L -0 0 
z
" style="fill: #ffffff"/>
  </g>
  <g id="axes_1">
   <g id="patch_2">
    <path d="M 7.2 331.2 
L 331.2 331.2 
L 331.2 7.2 
L 7.2 7.2 
z
" style="fill: #ffffff"/>
   </g>
   <g id="patch_3">
    <path d="M 13.430769 324.969231 
L 13.430769 13.430769 
L 324.969231 13.430769 
L 324.969231 324.969231 
L 13.430769 324.969231 
z
" clip-path="url(#p70b1e19df2)" style="fill: none; stroke: #000000; stroke-linejoin: miter"/>
   </g>
   <g id="patch_4">
    <path d="M 169.2 192.006198 
L 168.894921 192.18119 
L 168.48995 192.409963 
L 168.257559 192.539452 
L 167.979879 192.692477 
L 167.738799 192.823844 
L 167.445444 192.981846 
L 167.109767 193.160171 
L 166.774861 193.335483 
L 166.401651 193.527811 
L 166.189832 193.635558 
L 165.812309 193.825085 
L 165.30374 194.075365 
L 165.135924 194.156695 
L 164.854421 194.291734 
L 164.641807 194.39258 
L 164.114104 194.638649 
L 163.974518 194.702738 
L 163.662044 194.844699 
L 163.259106 195.024707 
L 162.931978 195.168341 
L 162.484759 195.3611 
L 162.303121 195.43821 
L 162.03837 195.549389 
L 161.810337 195.644002 
L 161.500637 195.770809 
L 161.064751 195.946004 
L 160.849922 196.030951 
L 160.366791 196.218636 
L 160.25913 196.259831 
L 159.755895 196.44937 
L 159.597679 196.507939 
L 159.266647 196.628909 
L 158.941035 196.745834 
L 158.657498 196.845992 
L 158.320922 196.962894 
L 157.991327 197.075287 
L 157.715259 197.167849 
L 157.298805 197.304773 
L 156.840421 197.451743 
L 156.615772 197.522349 
L 156.475041 197.566105 
L 155.988241 197.714655 
L 155.633794 197.82009 
L 155.379756 197.894251 
L 155.095318 197.975901 
L 154.916632 198.026446 
L 154.470303 198.150196 
L 154.163211 198.23327 
L 153.817324 198.324829 
L 153.511691 198.403968 
L 153.321764 198.452315 
L 153.023441 198.526972 
L 152.668727 198.61371 
L 152.198322 198.725348 
L 151.999472 198.771383 
L 151.684188 198.842967 
L 151.315738 198.924448 
L 151.068259 198.977864 
L 150.694722 199.056499 
L 150.417153 199.113387 
L 150.119357 199.172959 
L 149.670829 199.259841 
L 149.51049 199.290072 
L 149.293464 199.3303 
L 148.956935 199.391108 
L 148.512404 199.468512 
L 148.365438 199.493374 
L 147.831911 199.580595 
L 147.505639 199.631596 
L 147.311037 199.661172 
L 147.063613 199.697869 
L 146.675316 199.753415 
L 146.432812 199.786841 
L 145.904468 199.85631 
L 145.652378 199.887838 
L 145.419746 199.916006 
L 145.124125 199.950522 
L 144.923366 199.973147 
L 144.415458 200.027445 
L 144.094018 200.059635 
L 143.882817 200.07987 
L 143.564096 200.109032 
L 143.20242 200.140126 
L 142.983362 200.157928 
L 142.456693 200.197547 
L 142.164113 200.217618 
L 142.056378 200.22466 
L 141.528947 200.256432 
L 141.277878 200.26998 
L 141.106307 200.278653 
L 140.595054 200.301689 
L 140.286393 200.31356 
L 140.057067 200.321388 
L 139.834573 200.328174 
L 139.485904 200.33721 
L 139.208591 200.343002 
L 138.701964 200.350395 
L 138.437278 200.352619 
L 138.357541 200.353068 
L 137.81968 200.353435 
L 137.544815 200.351829 
L 137.395452 200.350448 
L 137.030417 200.345566 
L 136.533264 200.335476 
L 136.203755 200.326601 
L 136.159499 200.325276 
L 135.845897 200.314985 
L 135.47711 200.300861 
L 135.004567 200.279563 
L 134.623932 200.259793 
L 134.54523 200.255414 
L 134.136041 200.231036 
L 133.789582 200.208281 
L 133.55776 200.191973 
L 133.123349 200.159071 
L 132.743051 200.127758 
L 132.56425 200.112226 
L 132.335399 200.091587 
L 131.875799 200.047567 
L 131.76165 200.036101 
L 131.340402 199.991948 
L 130.984293 199.952362 
L 130.841276 199.93588 
L 130.421954 199.885624 
L 130.000003 199.832139 
L 129.678758 199.789455 
L 129.585789 199.776784 
L 129.220646 199.725639 
L 128.654621 199.641995 
L 128.462645 199.612418 
L 128.130536 199.559803 
L 127.772713 199.501055 
L 127.46485 199.448797 
L 127.317706 199.423258 
L 126.811214 199.332569 
L 126.657997 199.304283 
L 126.166687 199.210905 
L 126.069233 199.191897 
L 125.689142 199.116218 
L 125.215866 199.018543 
L 125.145243 199.003639 
L 124.609834 198.887865 
L 124.33702 198.826975 
L 124.18342 198.792126 
L 123.871297 198.720052 
L 123.547116 198.643401 
L 123.137218 198.543858 
L 122.947913 198.496891 
L 122.391638 198.35523 
L 122.246677 198.317416 
L 122.061393 198.268541 
L 121.580721 198.138899 
L 121.334896 198.071002 
L 120.863616 197.937797 
L 120.52135 197.838543 
L 120.261835 197.761868 
L 119.97118 197.674535 
L 119.624487 197.568341 
L 119.553856 197.546435 
L 119.160678 197.42281 
L 118.668971 197.264169 
L 118.422628 197.182993 
L 118.205888 197.11063 
L 117.749117 196.955226 
L 117.42484 196.842497 
L 117.193674 196.76091 
L 116.869073 196.644616 
L 116.751713 196.60207 
L 116.207389 196.401247 
L 115.906264 196.287667 
L 115.64832 196.188957 
L 115.387648 196.087868 
L 114.993718 195.93254 
L 114.796908 195.853775 
L 114.524747 195.743571 
L 113.961364 195.510677 
L 113.93183 195.498289 
L 113.489025 195.310418 
L 113.038227 195.11499 
L 112.740412 194.983558 
L 112.399762 194.830933 
L 112.234028 194.755789 
L 111.908873 194.606662 
L 111.494379 194.41327 
L 111.226498 194.286305 
L 110.863779 194.111892 
L 110.787164 194.074682 
L 110.269686 193.81995 
L 109.935067 193.652047 
L 109.76072 193.563563 
L 109.462068 193.410389 
L 109.18346 193.265656 
L 108.625868 192.970605 
L 108.555188 192.932686 
L 108.083375 192.676552 
L 107.764449 192.500418 
L 107.362176 192.274762 
L 107.175142 192.168507 
L 106.892308 192.006198 
L 106.892308 200.353846 
L 106.90203 201.454513 
L 106.911753 201.910363 
L 106.921475 202.260108 
L 106.931197 202.554922 
L 106.94092 202.814628 
L 106.950642 203.049392 
L 106.960365 203.265255 
L 106.970087 203.466151 
L 106.979809 203.654815 
L 106.989532 203.833237 
L 106.999254 204.00292 
L 107.008977 204.165031 
L 107.028421 204.470074 
L 107.047866 204.753936 
L 107.067311 205.020481 
L 107.086756 205.272527 
L 107.106201 205.512199 
L 107.125645 205.741149 
L 107.14509 205.96069 
L 107.164535 206.171889 
L 107.18398 206.375621 
L 107.203425 206.572622 
L 107.230901 206.840705 
L 107.258378 207.098028 
L 107.285855 207.345779 
L 107.313331 207.584943 
L 107.340808 207.816345 
L 107.368285 208.040685 
L 107.423238 208.470507 
L 107.478191 208.878331 
L 107.533145 209.267176 
L 107.588098 209.639428 
L 107.643051 209.997008 
L 107.683036 210.24888 
L 107.723021 210.494341 
L 107.802992 210.967794 
L 107.882962 211.420434 
L 107.962932 211.854719 
L 108.028181 212.196863 
L 108.093429 212.529047 
L 108.156346 212.840675 
L 108.219264 213.144402 
L 108.282181 213.440781 
L 108.345098 213.730298 
L 108.454953 214.220633 
L 108.564807 214.69337 
L 108.674662 215.150196 
L 108.784517 215.592543 
L 108.879072 215.962631 
L 108.973628 216.323586 
L 109.07552 216.703017 
L 109.177412 217.07322 
L 109.279304 217.434793 
L 109.381197 217.788274 
L 109.506168 218.211477 
L 109.63114 218.624025 
L 109.794856 219.149521 
L 109.958572 219.659331 
L 110.085554 220.044727 
L 110.212536 220.421919 
L 110.366469 220.868819 
L 110.520402 221.305058 
L 110.64855 221.660564 
L 110.776698 222.009476 
L 111.032994 222.68875 
L 111.204304 223.129881 
L 111.375614 223.561363 
L 111.523565 223.926655 
L 111.744727 224.460695 
L 111.96589 224.981171 
L 112.199441 225.517011 
L 112.383525 225.929943 
L 112.699058 226.619642 
L 113.005625 227.269283 
L 113.297394 227.870154 
L 113.589163 228.455151 
L 113.792888 228.854731 
L 114.024577 229.300715 
L 114.369334 229.948552 
L 114.731122 230.609256 
L 115.122746 231.303792 
L 115.300294 231.611968 
L 115.576152 232.082879 
L 115.999836 232.788259 
L 116.193449 233.103718 
L 116.456382 233.525511 
L 116.918272 234.248823 
L 117.284614 234.80731 
L 117.511263 235.146417 
L 117.816285 235.595332 
L 118.119119 236.032861 
L 118.572821 236.673776 
L 118.913381 237.143851 
L 119.179598 237.504995 
L 119.423764 237.831504 
L 119.724054 238.227047 
L 120.14181 238.766638 
L 120.407974 239.104159 
L 120.68795 239.454095 
L 120.840327 239.642401 
L 121.29376 240.194036 
L 121.481448 240.418648 
L 121.823803 240.822902 
L 122.295016 241.368124 
L 122.610959 241.726661 
L 122.717669 241.846513 
L 123.034045 242.198238 
L 123.429735 242.630688 
L 123.742387 242.966684 
L 124.154563 243.402158 
L 124.445196 243.704233 
L 124.673874 243.93908 
L 125.019171 244.289059 
L 125.352719 244.621944 
L 125.714213 244.9771 
L 126.077184 245.327964 
L 126.425652 245.659515 
L 126.487003 245.71736 
L 126.980138 246.176676 
L 127.121 246.306064 
L 127.657589 246.791725 
L 127.87156 246.982256 
L 128.258775 247.322608 
L 128.49555 247.527952 
L 128.852536 247.833638 
L 129.183508 248.112917 
L 129.337586 248.241594 
L 129.664369 248.511737 
L 130.006298 248.790426 
L 130.378743 249.089444 
L 130.657978 249.310572 
L 131.053052 249.619035 
L 131.340397 249.840198 
L 131.567525 250.013139 
L 131.84743 250.224018 
L 132.352229 250.598152 
L 132.671162 250.830499 
L 132.855826 250.963624 
L 133.050357 251.102756 
L 133.440223 251.378222 
L 133.861348 251.670785 
L 134.050467 251.800507 
L 134.365618 252.014415 
L 134.640793 252.198901 
L 135.177468 252.552657 
L 135.453669 252.731644 
L 135.791054 252.947485 
L 136.031313 253.099337 
L 136.364843 253.307609 
L 136.726352 253.53007 
L 136.837814 253.597976 
L 137.413992 253.94394 
L 137.525729 254.010058 
L 137.892731 254.22502 
L 138.208594 254.40735 
L 138.644634 254.655026 
L 138.864238 254.778014 
L 139.255035 254.994011 
L 139.392073 255.06889 
L 139.872528 255.327912 
L 140.23439 255.519433 
L 140.370378 255.590622 
L 140.757766 255.791088 
L 141.055269 255.942718 
L 141.285875 256.058874 
L 141.574579 256.202612 
L 142.036327 256.428648 
L 142.172622 256.494467 
L 142.430617 256.617944 
L 142.926585 256.851246 
L 143.189844 256.972927 
L 143.593304 257.156536 
L 143.735231 257.220304 
L 144.206466 257.428988 
L 144.428421 257.525669 
L 144.851599 257.707171 
L 145.035218 257.784777 
L 145.284617 257.889078 
L 145.634171 258.033134 
L 145.915324 258.147205 
L 146.467604 258.366661 
L 146.603917 258.419891 
L 147.060016 258.595323 
L 147.418293 258.730261 
L 147.602558 258.798683 
L 148.023559 258.95254 
L 148.377098 259.079099 
L 148.654639 259.176772 
L 148.796022 259.225963 
L 149.116754 259.336146 
L 149.610006 259.501802 
L 149.901667 259.597604 
L 150.031166 259.639631 
L 150.267871 259.715644 
L 150.704965 259.853276 
L 151.039781 259.956321 
L 151.207612 260.007199 
L 151.803475 260.183684 
L 151.83041 260.191509 
L 152.229185 260.305827 
L 152.555573 260.39726 
L 152.778534 260.458621 
L 153.120317 260.550958 
L 153.599337 260.676875 
L 153.9616 260.769405 
L 154.081833 260.799603 
L 154.61645 260.93081 
L 154.789054 260.972104 
L 155.260685 261.082291 
L 155.405845 261.115428 
L 155.735104 261.18924 
L 156.071844 261.262795 
L 156.384676 261.329382 
L 156.628255 261.380068 
L 156.983881 261.45225 
L 157.340505 261.522473 
L 157.58175 261.568753 
L 158.025639 261.651335 
L 158.251203 261.692027 
L 158.566055 261.747394 
L 158.857837 261.79722 
L 159.33555 261.875722 
L 159.350032 261.878042 
L 159.702997 261.933514 
L 160.029831 261.983032 
L 160.52797 262.055098 
L 160.667197 262.074506 
L 161.103254 262.133222 
L 161.34717 262.164699 
L 161.659203 262.203542 
L 162.103488 262.256092 
L 162.247826 262.272469 
L 162.630617 262.314251 
L 162.81886 262.33392 
L 163.196046 262.371594 
L 163.529733 262.402993 
L 163.817783 262.428642 
L 164.345956 262.472175 
L 164.42295 262.478143 
L 164.788913 262.5052 
L 164.991943 262.519277 
L 165.58948 262.556842 
L 165.806368 262.569052 
L 166.11014 262.584878 
L 166.345793 262.596131 
L 166.610725 262.607715 
L 167.063483 262.624897 
L 167.205169 262.629597 
L 167.754693 262.644773 
L 167.980328 262.6496 
L 168.153037 262.652742 
L 168.446079 262.656977 
L 168.74522 262.659879 
L 169.2 262.661538 
z
" clip-path="url(#p70b1e19df2)" style="fill: #808080; opacity: 0.5"/>
   </g>
   <g id="patch_5">
    <path d="M 231.507692 192.006198 
L 231.09237 192.243863 
L 231.017545 192.286232 
L 230.676362 192.477703 
L 230.104431 192.792398 
L 229.905381 192.900099 
L 229.522645 193.104575 
L 229.396413 193.171264 
L 229.016287 193.369865 
L 228.620911 193.572918 
L 228.242373 193.764002 
L 228.015903 193.876783 
L 227.622195 194.070128 
L 227.522856 194.11837 
L 227.148609 194.298169 
L 226.760332 194.48148 
L 226.395715 194.650655 
L 226.144223 194.765683 
L 225.907423 194.872761 
L 225.628555 194.99734 
L 225.338244 195.125295 
L 224.941023 195.297523 
L 224.762159 195.374007 
L 224.381931 195.534411 
L 223.918095 195.726087 
L 223.570449 195.866893 
L 223.224832 196.004471 
L 223.190396 196.018048 
L 222.614093 196.241772 
L 222.360394 196.338181 
L 222.022326 196.464691 
L 221.85001 196.528317 
L 221.557001 196.635187 
L 221.027585 196.824084 
L 221.008529 196.830783 
L 220.489487 197.010588 
L 220.342082 197.060719 
L 219.821641 197.234442 
L 219.759513 197.254841 
L 219.244662 197.421112 
L 219.06005 197.479532 
L 218.693682 197.593605 
L 218.215534 197.738772 
L 218.194726 197.744994 
L 217.599238 197.919729 
L 217.332853 197.995815 
L 216.951597 198.102487 
L 216.744317 198.159389 
L 216.467826 198.234094 
L 216.085292 198.335209 
L 215.782481 198.413411 
L 215.603611 198.458844 
L 215.114052 198.580317 
L 214.89441 198.633451 
L 214.498937 198.726999 
L 214.347411 198.762121 
L 213.917681 198.859564 
L 213.525201 198.945776 
L 213.461576 198.959502 
L 212.925888 199.072314 
L 212.829609 199.09207 
L 212.411323 199.176063 
L 212.229369 199.211671 
L 211.745061 199.303715 
L 211.469516 199.354313 
L 211.232167 199.396872 
L 210.750596 199.480315 
L 210.443608 199.531479 
L 210.157314 199.577776 
L 210.023959 199.598875 
L 209.709274 199.647489 
L 209.236693 199.717408 
L 208.960721 199.756528 
L 208.585436 199.807707 
L 208.193149 199.858724 
L 208.006624 199.882094 
L 207.722823 199.916556 
L 207.289485 199.966631 
L 207.22313 199.974027 
L 206.780506 200.021524 
L 206.365376 200.063168 
L 206.089176 200.08932 
L 205.690603 200.124874 
L 205.513914 200.139811 
L 205.094934 200.173206 
L 204.88332 200.188992 
L 204.677658 200.203641 
L 204.12792 200.23944 
L 203.91632 200.25192 
L 203.555461 200.271536 
L 203.376895 200.280467 
L 202.968138 200.298977 
L 202.829339 200.304651 
L 202.479603 200.317573 
L 201.973757 200.332785 
L 201.838346 200.336159 
L 201.583977 200.341702 
L 201.245043 200.347472 
L 200.784506 200.352358 
L 200.408074 200.353823 
L 200.176634 200.353594 
L 199.972298 200.352678 
L 199.704609 200.350464 
L 199.2122 200.343386 
L 198.997656 200.339085 
L 198.770204 200.333718 
L 198.43898 200.324415 
L 198.077962 200.312267 
L 197.766944 200.300121 
L 197.487624 200.287887 
L 196.938595 200.260176 
L 196.644732 200.243348 
L 196.525616 200.23613 
L 195.98986 200.200833 
L 195.773345 200.185252 
L 195.408005 200.157241 
L 195.1386 200.135201 
L 194.903362 200.114993 
L 194.646169 200.09187 
L 194.233478 200.052521 
L 193.840577 200.012482 
L 193.551411 199.981405 
L 193.362398 199.960354 
L 193.08997 199.928984 
L 192.779364 199.891734 
L 192.26077 199.82601 
L 192.094704 199.804029 
L 191.699473 199.749884 
L 191.515738 199.723835 
L 191.164619 199.672501 
L 190.806576 199.618048 
L 190.513223 199.571845 
L 190.315145 199.539836 
L 190.015034 199.490092 
L 189.6056 199.419794 
L 189.131711 199.334915 
L 188.981891 199.307293 
L 188.52429 199.220578 
L 188.238793 199.164678 
L 187.872757 199.090981 
L 187.699035 199.055205 
L 187.393186 198.990963 
L 187.040143 198.914814 
L 186.595383 198.815827 
L 186.513262 198.797177 
L 186.050645 198.689925 
L 185.71441 198.609636 
L 185.408562 198.534888 
L 185.062204 198.448258 
L 184.878375 198.401421 
L 184.659926 198.344988 
L 184.270276 198.242228 
L 183.814993 198.118734 
L 183.736566 198.097087 
L 183.350804 197.989002 
L 183.076101 197.910401 
L 182.528841 197.749736 
L 182.379089 197.704822 
L 182.162286 197.63907 
L 181.747896 197.510993 
L 181.389936 197.397806 
L 180.980448 197.265407 
L 180.932962 197.249851 
L 180.409775 197.075659 
L 180.222912 197.012195 
L 179.953243 196.919441 
L 179.465546 196.748176 
L 179.318113 196.695505 
L 178.844192 196.523357 
L 178.481813 196.388786 
L 178.359225 196.342682 
L 177.941986 196.183552 
L 177.78734 196.1237 
L 177.191786 195.888764 
L 176.910156 195.775192 
L 176.569576 195.63571 
L 176.287691 195.518484 
L 175.955241 195.37814 
L 175.856207 195.335893 
L 175.461881 195.165665 
L 175.205478 195.053242 
L 174.887238 194.911789 
L 174.582322 194.774252 
L 174.061389 194.534694 
L 173.797827 194.41127 
L 173.4693 194.255314 
L 173.227841 194.139187 
L 173.003296 194.030044 
L 172.565762 193.814163 
L 172.420304 193.741448 
L 171.9066 193.480824 
L 171.591644 193.318066 
L 171.345271 193.18916 
L 171.10229 193.060652 
L 170.680683 192.8344 
L 170.558653 192.768133 
L 170.081013 192.50535 
L 169.718014 192.301977 
L 169.530995 192.195949 
L 169.2 192.006198 
L 169.2 262.661538 
L 169.653161 262.659891 
L 169.876148 262.65787 
L 170.217001 262.653238 
L 170.459976 262.648798 
L 170.689661 262.643728 
L 171.107709 262.632327 
L 171.502637 262.618976 
L 171.597564 262.615393 
L 172.050004 262.596324 
L 172.447011 262.576876 
L 172.52679 262.572662 
L 173.080729 262.540569 
L 173.212431 262.53221 
L 173.682582 262.500085 
L 173.976159 262.478212 
L 174.279341 262.454159 
L 174.447859 262.440145 
L 174.853454 262.404527 
L 175.130785 262.378634 
L 175.493897 262.34284 
L 175.868834 262.303626 
L 176.158971 262.271705 
L 176.316284 262.253822 
L 176.869486 262.187716 
L 177.155983 262.151507 
L 177.29822 262.133028 
L 177.547575 262.09983 
L 178.093453 262.023571 
L 178.281276 261.996193 
L 178.713392 261.930984 
L 178.931418 261.896905 
L 179.157955 261.860656 
L 179.387231 261.823097 
L 179.949894 261.727198 
L 180.023809 261.714205 
L 180.558811 261.617424 
L 180.90123 261.552945 
L 181.243618 261.486487 
L 181.402283 261.455015 
L 181.718413 261.39103 
L 182.1144 261.308475 
L 182.442786 261.237975 
L 182.783997 261.162756 
L 182.959739 261.123231 
L 183.29742 261.045784 
L 183.457902 261.008283 
L 183.802254 260.926305 
L 184.373651 260.785699 
L 184.549612 260.741245 
L 184.835285 260.667911 
L 185.106552 260.596938 
L 185.379669 260.524161 
L 185.683509 260.441636 
L 186.131961 260.316812 
L 186.359586 260.252069 
L 186.624768 260.175464 
L 187.117917 260.02961 
L 187.347214 259.960282 
L 187.526271 259.905474 
L 188.13519 259.714668 
L 188.34455 259.647477 
L 188.729851 259.521688 
L 188.882524 259.471075 
L 189.288328 259.334416 
L 189.451268 259.278668 
L 190.007625 259.084513 
L 190.037719 259.073843 
L 190.397404 258.94496 
L 190.730207 258.823485 
L 191.270788 258.62158 
L 191.464499 258.547837 
L 191.742372 258.440764 
L 192.120566 258.292574 
L 192.31643 258.214707 
L 192.758063 258.036306 
L 193.097704 257.896424 
L 193.185423 257.859915 
L 193.543446 257.709274 
L 193.983376 257.520557 
L 194.173874 257.437593 
L 194.415526 257.331261 
L 195.02207 257.058954 
L 195.142006 257.004185 
L 195.617531 256.784003 
L 195.952392 256.626025 
L 196.217335 256.499301 
L 196.410666 256.40586 
L 196.759549 256.235147 
L 196.937641 256.146962 
L 197.413252 255.907973 
L 197.631723 255.79648 
L 197.943666 255.6354 
L 198.424117 255.382925 
L 198.538092 255.322245 
L 198.907785 255.123327 
L 199.173037 254.978617 
L 199.517149 254.788385 
L 199.741007 254.663103 
L 200.26407 254.365623 
L 200.398068 254.288335 
L 200.682198 254.12298 
L 201.080791 253.887608 
L 201.499948 253.635756 
L 201.624516 253.560042 
L 202.175017 253.220629 
L 202.289414 253.149103 
L 202.809807 252.819353 
L 202.983622 252.707599 
L 203.447444 252.405369 
L 203.617166 252.293304 
L 203.922897 252.089414 
L 204.382149 251.778207 
L 204.709041 251.553031 
L 204.73967 251.531775 
L 205.163011 251.235182 
L 205.587979 250.932137 
L 205.831977 250.755699 
L 206.209002 250.479511 
L 206.529418 250.24135 
L 206.842878 250.005253 
L 206.977432 249.902954 
L 207.539765 249.469128 
L 207.650528 249.382465 
L 208.170852 248.969905 
L 208.203761 248.943507 
L 208.59879 248.623753 
L 209.110162 248.201808 
L 209.204299 248.123131 
L 209.727501 247.680057 
L 209.906683 247.526026 
L 210.144974 247.31934 
L 210.544913 246.96765 
L 210.896899 246.65306 
L 211.066359 246.499881 
L 211.454495 246.144742 
L 211.778505 245.843619 
L 212.217291 245.428908 
L 212.304989 245.34505 
L 212.733756 244.930304 
L 213.171534 244.498525 
L 213.416084 244.253577 
L 213.648186 244.018561 
L 213.8416 243.8208 
L 214.183348 243.467033 
L 214.490437 243.144322 
L 214.933784 242.67015 
L 215.211215 242.368327 
L 215.604238 241.933831 
L 215.79488 241.720085 
L 216.165537 241.298771 
L 216.500641 240.911186 
L 216.854922 240.494311 
L 217.034559 240.280072 
L 217.530907 239.677782 
L 217.815417 239.325499 
L 218.044499 239.037995 
L 218.368427 238.625432 
L 218.697094 238.199404 
L 219.041176 237.745098 
L 219.153225 237.595272 
L 219.510376 237.111357 
L 219.794681 236.719032 
L 220.078987 236.32018 
L 220.117301 236.265919 
L 220.4039 235.856088 
L 220.706144 235.416158 
L 221.008387 234.967998 
L 221.273247 234.56825 
L 221.562772 234.123487 
L 221.829641 233.706048 
L 222.189007 233.132096 
L 222.571648 232.505295 
L 222.660439 232.357439 
L 223.000542 231.782339 
L 223.229347 231.387347 
L 223.458152 230.985552 
L 223.784745 230.399713 
L 223.871666 230.241259 
L 224.089417 229.839443 
L 224.307168 229.430445 
L 224.62749 228.815081 
L 224.884269 228.30936 
L 225.121798 227.831128 
L 225.359327 227.342334 
L 225.487985 227.072965 
L 225.746955 226.520435 
L 226.005925 225.953365 
L 226.144656 225.643263 
L 226.30719 225.274067 
L 226.469723 224.898241 
L 226.645083 224.484966 
L 226.820443 224.063192 
L 226.981271 223.668503 
L 227.1421 223.265887 
L 227.401881 222.597711 
L 227.559036 222.182072 
L 227.71619 221.75721 
L 227.862162 221.353829 
L 228.008134 220.941511 
L 228.20911 220.358182 
L 228.410086 219.755243 
L 228.575134 219.244109 
L 228.740181 218.71727 
L 228.869286 218.293323 
L 229.00363 217.840252 
L 229.137973 217.374066 
L 229.272317 216.893655 
L 229.406661 216.397741 
L 229.50217 216.034944 
L 229.597679 215.662957 
L 229.693545 215.279645 
L 229.789412 214.885595 
L 229.886309 214.475475 
L 229.983207 214.052397 
L 230.080104 213.615121 
L 230.177002 213.162193 
L 230.239508 212.860925 
L 230.302013 212.551899 
L 230.364519 212.234508 
L 230.427025 211.908064 
L 230.489531 211.571776 
L 230.552036 211.224732 
L 230.614542 210.865865 
L 230.677048 210.493921 
L 230.731214 210.159875 
L 230.785381 209.813731 
L 230.839547 209.454109 
L 230.893713 209.079341 
L 230.925938 208.848382 
L 230.958162 208.610839 
L 230.990387 208.366128 
L 231.022611 208.113569 
L 231.054835 207.85237 
L 231.08706 207.581595 
L 231.119284 207.300124 
L 231.151509 207.006598 
L 231.17377 206.795922 
L 231.196032 206.57804 
L 231.218293 206.352167 
L 231.240555 206.117362 
L 231.262816 205.872487 
L 231.285077 205.616134 
L 231.307339 205.346538 
L 231.3296 205.061422 
L 231.351862 204.757774 
L 231.362993 204.597767 
L 231.374123 204.431456 
L 231.385254 204.258035 
L 231.396385 204.07651 
L 231.407516 203.885633 
L 231.418646 203.683796 
L 231.429777 203.468868 
L 231.440908 203.237925 
L 231.452039 202.986755 
L 231.463169 202.708897 
L 231.4743 202.393471 
L 231.485431 202.019267 
L 231.496562 201.531529 
L 231.507692 200.353846 
z
" clip-path="url(#p70b1e19df2)" style="fill: #808080; opacity: 0.5"/>
   </g>
   <g id="matplotlib.axis_1"/>
   <g id="matplotlib.axis_2"/>
   <g id="line2d_1">
    <path d="M 106.892308 200.353846 
L 107.028421 204.470074 
L 107.368285 208.040685 
L 107.962932 211.854719 
L 108.784517 215.592543 
L 109.794856 219.149521 
L 111.032994 222.68875 
L 112.383525 225.929943 
L 114.024577 229.300715 
L 115.999836 232.788259 
L 118.119119 236.032861 
L 120.407974 239.104159 
L 122.717669 241.846513 
L 125.352719 244.621944 
L 128.258775 247.322608 
L 131.053052 249.619035 
L 134.050467 251.800507 
L 136.837814 253.597976 
L 140.370378 255.590622 
L 143.735231 257.220304 
L 147.418293 258.730261 
L 150.704965 259.853276 
L 154.081833 260.799603 
L 157.58175 261.568753 
L 161.34717 262.164699 
L 164.991943 262.519277 
L 168.74522 262.659879 
L 169.2 262.661538 
L 169.2 262.661538 
" clip-path="url(#p70b1e19df2)" style="fill: none; stroke: #ff0000; stroke-linecap: square"/>
   </g>
   <g id="line2d_2">
    <path d="M 169.2 262.661538 
L 173.080729 262.540569 
L 176.316284 262.253822 
L 180.023809 261.714205 
L 183.802254 260.926305 
L 187.526271 259.905474 
L 191.270788 258.62158 
L 194.415526 257.331261 
L 197.943666 255.6354 
L 201.080791 253.887608 
L 204.382149 251.778207 
L 207.539765 249.469128 
L 210.144974 247.31934 
L 212.733756 244.930304 
L 215.211215 242.368327 
L 217.815417 239.325499 
L 220.117301 236.265919 
L 222.189007 233.132096 
L 224.089417 229.839443 
L 225.746955 226.520435 
L 227.1421 223.265887 
L 228.410086 219.755243 
L 229.50217 216.034944 
L 230.364519 212.234508 
L 230.958162 208.610839 
L 231.3296 205.061422 
L 231.496562 201.531529 
L 231.507692 200.353846 
L 231.507692 200.353846 
" clip-path="url(#p70b1e19df2)" style="fill: none; stroke: #ff0000; stroke-linecap: square"/>
   </g>
   <g id="text_1">
    <!-- $\Omega$ -->
    <g transform="translate(16.011538 22.420913) scale(0.1 -0.1)">
     <defs>
      <path id="Cmr10-ad" d="M 494 0 
L 281 1063 
L 469 1063 
Q 503 878 531 736 
Q 559 594 604 536 
Q 650 478 750 459 
Q 850 441 1081 441 
L 1472 441 
Q 1378 803 1004 1386 
Q 631 1969 495 2233 
Q 359 2497 359 2913 
Q 359 3397 646 3761 
Q 934 4125 1389 4319 
Q 1844 4513 2309 4513 
Q 2772 4513 3226 4319 
Q 3681 4125 3968 3758 
Q 4256 3391 4256 2913 
Q 4256 2588 4137 2300 
Q 4019 2013 3834 1725 
Q 3650 1438 3436 1084 
Q 3222 731 3144 441 
L 3531 441 
Q 3766 441 3869 459 
Q 3972 478 4015 536 
Q 4059 594 4086 736 
Q 4113 878 4147 1063 
L 4331 1063 
L 4122 0 
L 2988 0 
Q 2925 0 2925 84 
Q 2925 409 3004 721 
Q 3084 1034 3240 1478 
Q 3397 1922 3484 2261 
Q 3572 2600 3572 2913 
Q 3572 3297 3422 3625 
Q 3272 3953 2984 4150 
Q 2697 4347 2309 4347 
Q 1725 4347 1384 3930 
Q 1044 3513 1044 2913 
Q 1047 2584 1122 2293 
Q 1197 2003 1364 1518 
Q 1531 1034 1611 721 
Q 1691 409 1691 84 
Q 1691 0 1625 0 
L 494 0 
z
" transform="scale(0.015625)"/>
     </defs>
     <use xlink:href="#Cmr10-ad" transform="translate(0 0.484375)"/>
    </g>
   </g>
   <g id="text_2">
    <!-- $A$ -->
    <g style="fill: #0000ff" transform="translate(103.142308 78.497837) scale(0.1 -0.1)">
     <defs>
      <path id="Cmmi10-41" d="M 288 0 
Q 225 0 225 84 
Q 250 225 306 225 
Q 566 225 755 328 
Q 944 431 1081 647 
Q 1094 659 1094 659 
L 3378 4513 
Q 3428 4581 3500 4581 
L 3584 4581 
Q 3603 4581 3622 4573 
Q 3641 4566 3655 4548 
Q 3669 4531 3669 4513 
L 4056 378 
Q 4056 350 4084 294 
Q 4147 225 4563 225 
Q 4628 225 4628 141 
Q 4606 56 4592 28 
Q 4578 0 4519 0 
L 2919 0 
Q 2859 0 2859 84 
Q 2894 225 2944 225 
Q 3450 225 3481 397 
L 3384 1453 
L 1806 1453 
L 1294 594 
Q 1247 525 1247 434 
Q 1247 322 1355 273 
Q 1463 225 1594 225 
Q 1656 225 1656 141 
Q 1634 50 1621 25 
Q 1609 0 1550 0 
L 288 0 
z
M 1931 1678 
L 3359 1678 
L 3169 3750 
L 1931 1678 
z
" transform="scale(0.015625)"/>
     </defs>
     <use xlink:href="#Cmmi10-41" transform="translate(0 0.421875)"/>
    </g>
   </g>
   <g id="text_3">
    <!-- $B$ -->
    <g style="fill: #ff0000" transform="translate(149.823077 271.651683) scale(0.1 -0.1)">
     <defs>
      <path id="Cmmi10-42" d="M 319 0 
Q 256 0 256 84 
Q 259 100 268 137 
Q 278 175 293 200 
Q 309 225 341 225 
Q 522 225 656 234 
Q 791 244 884 269 
Q 959 297 1006 441 
L 1881 3956 
Q 1894 4019 1894 4044 
Q 1894 4113 1819 4122 
Q 1697 4147 1356 4147 
Q 1294 4147 1294 4231 
Q 1297 4247 1306 4286 
Q 1316 4325 1333 4348 
Q 1350 4372 1375 4372 
L 3669 4372 
Q 3878 4372 4083 4320 
Q 4288 4269 4461 4156 
Q 4634 4044 4736 3876 
Q 4838 3709 4838 3488 
Q 4838 3247 4714 3040 
Q 4591 2834 4395 2681 
Q 4200 2528 3973 2429 
Q 3747 2331 3500 2284 
Q 3675 2284 3854 2215 
Q 4034 2147 4175 2028 
Q 4316 1909 4402 1743 
Q 4488 1578 4488 1388 
Q 4488 1003 4219 684 
Q 3950 366 3542 183 
Q 3134 0 2753 0 
L 319 0 
z
M 1497 275 
Q 1497 225 1716 225 
L 2631 225 
Q 2944 225 3231 398 
Q 3519 572 3692 859 
Q 3866 1147 3866 1459 
Q 3866 1650 3786 1820 
Q 3706 1991 3556 2089 
Q 3406 2188 3213 2188 
L 1966 2188 
L 1522 416 
Q 1497 328 1497 275 
z
M 2009 2356 
L 2981 2356 
Q 3288 2356 3577 2512 
Q 3866 2669 4048 2937 
Q 4231 3206 4231 3506 
Q 4231 3784 4057 3965 
Q 3884 4147 3609 4147 
L 2731 4147 
Q 2559 4147 2500 4115 
Q 2441 4084 2400 3928 
L 2009 2356 
z
" transform="scale(0.015625)"/>
     </defs>
     <use xlink:href="#Cmmi10-42" transform="translate(0 0.6875)"/>
    </g>
   </g>
   <g id="text_4">
    <!-- $C$ -->
    <g style="fill: #228b22" transform="translate(227.907692 78.497837) scale(0.1 -0.1)">
     <defs>
      <path id="Cmmi10-43" d="M 934 1381 
Q 934 997 1082 705 
Q 1231 413 1514 248 
Q 1797 84 2181 84 
Q 2584 84 2957 290 
Q 3331 497 3595 842 
Q 3859 1188 3956 1575 
Q 3969 1613 4006 1613 
L 4084 1613 
Q 4109 1613 4125 1595 
Q 4141 1578 4141 1556 
Q 4141 1550 4134 1538 
Q 4025 1094 3711 705 
Q 3397 316 2959 87 
Q 2522 -141 2059 -141 
Q 1559 -141 1162 84 
Q 766 309 545 709 
Q 325 1109 325 1613 
Q 325 2150 565 2676 
Q 806 3203 1212 3614 
Q 1619 4025 2139 4269 
Q 2659 4513 3194 4513 
Q 3406 4513 3600 4448 
Q 3794 4384 3959 4253 
Q 4125 4122 4231 3950 
L 4738 4500 
Q 4738 4513 4769 4513 
L 4806 4513 
Q 4831 4513 4847 4491 
Q 4863 4469 4863 4447 
L 4428 2719 
Q 4428 2675 4378 2675 
L 4263 2675 
Q 4213 2675 4213 2747 
Q 4238 2888 4238 3084 
Q 4238 3397 4131 3673 
Q 4025 3950 3801 4119 
Q 3578 4288 3256 4288 
Q 2734 4288 2300 4025 
Q 1866 3763 1564 3336 
Q 1263 2909 1098 2389 
Q 934 1869 934 1381 
z
" transform="scale(0.015625)"/>
     </defs>
     <use xlink:href="#Cmmi10-43" transform="translate(0 0.484375)"/>
    </g>
   </g>
   <g id="patch_6">
    <path d="M 138.046154 200.353846 
C 154.570347 200.353846 170.419977 193.788715 182.104346 182.104346 
C 193.788715 170.419977 200.353846 154.570347 200.353846 138.046154 
C 200.353846 121.521961 193.788715 105.672331 182.104346 93.987962 
C 170.419977 82.303593 154.570347 75.738462 138.046154 75.738462 
C 121.521961 75.738462 105.672331 82.303593 93.987962 93.987962 
C 82.303593 105.672331 75.738462 121.521961 75.738462 138.046154 
C 75.738462 154.570347 82.303593 170.419977 93.987962 182.104346 
C 105.672331 193.788715 121.521961 200.353846 138.046154 200.353846 
L 138.046154 200.353846 
z
" clip-path="url(#p70b1e19df2)" style="fill: none; stroke: #0000ff; stroke-linejoin: miter"/>
   </g>
   <g id="patch_7">
    <path d="M 169.2 262.661538 
C 185.724193 262.661538 201.573823 256.096407 213.258192 244.412038 
C 224.942561 232.727669 231.507692 216.878039 231.507692 200.353846 
C 231.507692 183.829653 224.942561 167.980023 213.258192 156.295654 
C 201.573823 144.611285 185.724193 138.046154 169.2 138.046154 
C 152.675807 138.046154 136.826177 144.611285 125.141808 156.295654 
C 113.457439 167.980023 106.892308 183.829653 106.892308 200.353846 
C 106.892308 216.878039 113.457439 232.727669 125.141808 244.412038 
C 136.826177 256.096407 152.675807 262.661538 169.2 262.661538 
L 169.2 262.661538 
z
" clip-path="url(#p70b1e19df2)" style="fill: none; stroke: #ff0000; stroke-linejoin: miter"/>
   </g>
   <g id="patch_8">
    <path d="M 200.353846 200.353846 
C 216.878039 200.353846 232.727669 193.788715 244.412038 182.104346 
C 256.096407 170.419977 262.661538 154.570347 262.661538 138.046154 
C 262.661538 121.521961 256.096407 105.672331 244.412038 93.987962 
C 232.727669 82.303593 216.878039 75.738462 200.353846 75.738462 
C 183.829653 75.738462 167.980023 82.303593 156.295654 93.987962 
C 144.611285 105.672331 138.046154 121.521961 138.046154 138.046154 
C 138.046154 154.570347 144.611285 170.419977 156.295654 182.104346 
C 167.980023 193.788715 183.829653 200.353846 200.353846 200.353846 
L 200.353846 200.353846 
z
" clip-path="url(#p70b1e19df2)" style="fill: none; stroke: #228b22; stroke-linejoin: miter"/>
   </g>
  </g>
 </g>
 <defs>
  <clipPath id="p70b1e19df2">
   <rect x="7.2" y="7.2" width="324" height="324"/>
  </clipPath>
 </defs>
</svg>
