<?xml version="1.0" encoding="utf-8" standalone="no"?>
<!DOCTYPE svg PUBLIC "-//W3C//DTD SVG 1.1//EN"
  "http://www.w3.org/Graphics/SVG/1.1/DTD/svg11.dtd">
<svg xmlns:xlink="http://www.w3.org/1999/xlink" width="338.4pt" height="338.4pt" viewBox="0 0 338.4 338.4" xmlns="http://www.w3.org/2000/svg" version="1.1">
 <metadata>
  <rdf:RDF xmlns:dc="http://purl.org/dc/elements/1.1/" xmlns:cc="http://creativecommons.org/ns#" xmlns:rdf="http://www.w3.org/1999/02/22-rdf-syntax-ns#">
   <cc:Work>
    <dc:type rdf:resource="http://purl.org/dc/dcmitype/StillImage"/>
    <dc:date>2025-08-21T01:25:21.640491</dc:date>
    <dc:format>image/svg+xml</dc:format>
    <dc:creator>
     <cc:Agent>
      <dc:title>Matplotlib v3.8.0, https://matplotlib.org/</dc:title>
     </cc:Agent>
    </dc:creator>
   </cc:Work>
  </rdf:RDF>
 </metadata>
 <defs>
  <style type="text/css">*{stroke-linejoin: round; stroke-linecap: butt}</style>
 </defs>
 <g id="figure_1">
  <g id="patch_1">
   <path d="M -0 338.4 
L 338.4 338.4 
L 338.4 0 
L -0 0 
z
" style="fill: #ffffff"/>
  </g>
  <g id="axes_1">
   <g id="patch_2">
    <path d="M 7.2 331.2 
L 331.2 331.2 
L 331.2 7.2 
L 7.2 7.2 
z
" style="fill: #ffffff"/>
   </g>
   <g id="patch_3">
    <path d="M 13.430769 324.969231 
L 13.430769 13.430769 
L 324.969231 13.430769 
L 324.969231 324.969231 
L 13.430769 324.969231 
z
" clip-path="url(#p0552d019e3)" style="fill: none; stroke: #000000; stroke-linejoin: miter"/>
   </g>
   <g id="patch_4">
    <path d="M 200.353846 138.046154 
L 200.347143 138.960111 
L 200.340439 139.33865 
L 200.333736 139.629089 
L 200.327032 139.873921 
L 200.320329 140.089605 
L 200.313625 140.284582 
L 200.306921 140.463867 
L 200.300218 140.630729 
L 200.293514 140.787436 
L 200.286811 140.935641 
L 200.280107 141.076592 
L 200.273404 141.211258 
L 200.2667 141.34041 
L 200.259997 141.464673 
L 200.253293 141.584562 
L 200.24659 141.700508 
L 200.239886 141.812874 
L 200.233183 141.921973 
L 200.219776 142.131406 
L 200.206369 142.330572 
L 200.192961 142.520841 
L 200.179554 142.703305 
L 200.166147 142.878848 
L 200.15274 143.048198 
L 200.139333 143.211964 
L 200.118281 143.459064 
L 200.097228 143.695288 
L 200.076175 143.921947 
L 200.055123 144.140109 
L 200.03407 144.350656 
L 200.013018 144.554327 
L 199.991965 144.751749 
L 199.970912 144.943458 
L 199.941031 145.206649 
L 199.91115 145.460384 
L 199.886424 145.663864 
L 199.861698 145.861971 
L 199.836972 146.055103 
L 199.812247 146.243611 
L 199.787521 146.427808 
L 199.762795 146.607971 
L 199.738069 146.784351 
L 199.713344 146.957172 
L 199.664378 147.28969 
L 199.615413 147.610404 
L 199.566447 147.920465 
L 199.517482 148.220846 
L 199.478827 148.451691 
L 199.440172 148.677385 
L 199.398964 148.912669 
L 199.357757 149.142813 
L 199.31655 149.36813 
L 199.275342 149.588902 
L 199.213789 149.910762 
L 199.152236 150.223807 
L 199.090683 150.528701 
L 199.02913 150.826027 
L 198.951288 151.191995 
L 198.873446 151.547599 
L 198.805816 151.84876 
L 198.738187 152.143163 
L 198.656759 152.489251 
L 198.588142 152.774228 
L 198.519525 153.053481 
L 198.451085 153.326624 
L 198.382646 153.594668 
L 198.314206 153.857872 
L 198.245766 154.116475 
L 198.137681 154.516031 
L 198.054972 154.814884 
L 197.972262 155.108102 
L 197.915651 155.305696 
L 197.840853 155.563074 
L 197.766055 155.816409 
L 197.688395 156.075341 
L 197.610736 156.330276 
L 197.494669 156.704196 
L 197.378603 157.070059 
L 197.278546 157.379343 
L 197.178489 157.683247 
L 197.072001 158.001049 
L 196.961666 158.324491 
L 196.85684 158.626527 
L 196.752013 158.923668 
L 196.618566 159.295179 
L 196.465123 159.713471 
L 196.353632 160.011729 
L 196.240003 160.311025 
L 196.126373 160.605778 
L 196.025134 160.864708 
L 195.862336 161.274102 
L 195.752306 161.546124 
L 195.642275 161.814523 
L 195.457224 162.258084 
L 195.296413 162.635916 
L 195.124738 163.031824 
L 194.974794 163.371605 
L 194.807939 163.743395 
L 194.737462 163.898507 
L 194.572696 164.256812 
L 194.4146 164.595106 
L 194.282427 164.87394 
L 194.09088 165.271825 
L 194.006971 165.443881 
L 193.870312 165.721266 
L 193.733654 165.995231 
L 193.563432 166.331846 
L 193.422281 166.607195 
L 193.2316 166.97391 
L 193.134036 167.159273 
L 193.070859 167.278504 
L 192.920567 167.559665 
L 192.770274 167.837414 
L 192.647695 168.061487 
L 192.57805 168.187833 
L 192.421324 168.469654 
L 192.24639 168.780222 
L 192.094583 169.046409 
L 191.967638 169.266693 
L 191.680508 169.757423 
L 191.622751 169.854907 
L 191.390062 170.243606 
L 191.238692 170.49307 
L 191.19012 170.572565 
L 190.942258 170.974116 
L 190.79314 171.212461 
L 190.585334 171.540677 
L 190.427193 171.787452 
L 190.286141 172.005428 
L 190.1913 172.150879 
L 190.071776 172.332931 
L 189.914406 172.570535 
L 189.74193 172.828264 
L 189.477066 173.218726 
L 189.393162 173.3411 
L 189.20147 173.618364 
L 189.024508 173.871507 
L 188.878486 174.078396 
L 188.792418 174.199511 
L 188.535238 174.557808 
L 188.493632 174.615273 
L 188.222083 174.986981 
L 188.197455 175.020409 
L 188.059965 175.206176 
L 187.874747 175.454172 
L 187.723599 175.654663 
L 187.575821 175.849072 
L 187.406882 176.069397 
L 187.195961 176.341649 
L 187.120116 176.438793 
L 186.89539 176.724322 
L 186.756873 176.898623 
L 186.541277 177.167395 
L 186.478918 177.24457 
L 186.251482 177.523931 
L 186.033452 177.788672 
L 186.014946 177.811006 
L 185.773153 178.100892 
L 185.564067 178.348715 
L 185.412845 178.526336 
L 185.258358 178.706408 
L 185.126229 178.859326 
L 184.949404 179.062414 
L 184.791803 179.24194 
L 184.65094 179.401232 
L 184.517636 179.550971 
L 184.360931 179.725764 
L 184.301054 179.792204 
L 184.052268 180.066221 
L 183.952493 180.1752 
L 183.823321 180.315522 
L 183.539848 180.620469 
L 183.49977 180.663255 
L 183.316482 180.857903 
L 183.189323 180.991967 
L 183.023175 181.165941 
L 182.859869 181.335638 
L 182.713552 181.486597 
L 182.458349 181.747474 
L 182.374671 181.832352 
L 182.263046 181.945071 
L 182.08104 182.127639 
L 181.889304 182.318342 
L 181.76828 182.437867 
L 181.537871 182.663629 
L 181.455279 182.743987 
L 181.221992 182.969372 
L 181.127902 183.059613 
L 180.869466 183.305545 
L 180.756744 183.411934 
L 180.701797 183.463602 
L 180.544182 183.61112 
L 180.378939 183.764682 
L 180.203535 183.926473 
L 179.973619 184.136676 
L 179.775363 184.316248 
L 179.709139 184.375887 
L 179.458393 184.600154 
L 179.443969 184.612981 
L 179.282662 184.755885 
L 179.047818 184.962165 
L 178.924616 185.069551 
L 178.718195 185.248205 
L 178.624327 185.328924 
L 178.444482 185.482676 
L 178.220033 185.672911 
L 178.088006 185.783965 
L 177.959344 185.89159 
L 177.735014 186.07784 
L 177.67784 186.125026 
L 177.420546 186.335964 
L 177.411766 186.343121 
L 177.128419 186.572694 
L 177.027494 186.653804 
L 176.847033 186.797977 
L 176.726649 186.893547 
L 176.553226 187.030375 
L 176.404174 187.14718 
L 176.206192 187.301205 
L 176.031276 187.436224 
L 175.899516 187.53728 
L 175.802959 187.610982 
L 175.607781 187.759056 
L 175.46256 187.868449 
L 175.295064 187.993799 
L 175.089005 188.14681 
L 175.018525 188.198843 
L 174.799207 188.359786 
L 174.625402 188.486288 
L 174.466357 188.601246 
L 174.292742 188.725867 
L 174.206422 188.787493 
L 174.053003 188.896477 
L 173.83544 189.049836 
L 173.695122 189.148009 
L 173.514494 189.273543 
L 173.455284 189.314488 
L 173.3158 189.410544 
L 173.094132 189.562052 
L 172.930569 189.67295 
L 172.737544 189.802854 
L 172.623695 189.878983 
L 172.423322 190.012093 
L 172.261173 190.118997 
L 172.204467 190.156212 
L 172.043473 190.261389 
L 171.925598 190.337949 
L 171.761462 190.443926 
L 171.61782 190.536074 
L 171.399273 190.675214 
L 171.176657 190.815636 
L 171.043647 190.898911 
L 170.916676 190.977971 
L 170.833505 191.02953 
L 170.593942 191.17703 
L 170.514069 191.225877 
L 170.287775 191.363378 
L 170.071738 191.493422 
L 170.049103 191.506978 
L 169.869062 191.614345 
L 169.737387 191.692349 
L 169.58684 191.780999 
L 169.382511 191.900413 
L 169.2 192.006198 
L 169.2 192.006198 
L 169.286033 192.055778 
L 169.518703 192.188951 
L 169.730764 192.309174 
L 169.838836 192.370022 
L 169.957908 192.436737 
L 170.18032 192.560435 
L 170.261725 192.605413 
L 170.507536 192.740269 
L 170.629688 192.80675 
L 170.726692 192.859293 
L 170.85676 192.929398 
L 171.09822 193.058487 
L 171.211184 193.118413 
L 171.321792 193.176802 
L 171.582709 193.313415 
L 171.700613 193.374634 
L 171.936264 193.496037 
L 172.059159 193.558848 
L 172.157388 193.608805 
L 172.390721 193.7266 
L 172.492086 193.777391 
L 172.69005 193.875921 
L 172.743448 193.902348 
L 172.966688 194.012144 
L 173.140555 194.096893 
L 173.2325 194.14144 
L 173.360539 194.203165 
L 173.605553 194.32028 
L 173.800849 194.412694 
L 173.909588 194.46379 
L 174.02123 194.515985 
L 174.282918 194.637277 
L 174.385688 194.684509 
L 174.506723 194.739846 
L 174.680949 194.818954 
L 174.777794 194.862649 
L 175.05572 194.986942 
L 175.102614 195.007753 
L 175.313172 195.100629 
L 175.481 195.173994 
L 175.674364 195.257793 
L 175.831649 195.325385 
L 175.882616 195.347178 
L 176.030427 195.410078 
L 176.294592 195.521373 
L 176.388495 195.560591 
L 176.505642 195.609264 
L 176.754155 195.711595 
L 176.804822 195.732304 
L 176.966116 195.797886 
L 177.238813 195.907573 
L 177.334827 195.945837 
L 177.489978 196.007279 
L 177.695732 196.088022 
L 177.757045 196.111919 
L 177.992172 196.202874 
L 178.045223 196.223244 
L 178.350867 196.339528 
L 178.415686 196.363953 
L 178.605082 196.434849 
L 178.789483 196.503205 
L 178.923652 196.552523 
L 179.063179 196.603442 
L 179.158198 196.637903 
L 179.380588 196.717876 
L 179.609426 196.799175 
L 179.675053 196.822306 
L 179.875504 196.892445 
L 179.945697 196.916825 
L 180.130885 196.980697 
L 180.3517 197.056006 
L 180.544503 197.121009 
L 180.688996 197.169264 
L 180.747726 197.188766 
L 180.926009 197.24757 
L 181.053687 197.289317 
L 181.242314 197.350436 
L 181.388397 197.397314 
L 181.596493 197.463409 
L 181.773068 197.518864 
L 181.891025 197.555588 
L 182.111536 197.623554 
L 182.259944 197.668794 
L 182.420661 197.717331 
L 182.43099 197.720434 
L 182.698151 197.800024 
L 182.772247 197.821867 
L 182.994579 197.886812 
L 183.152318 197.932345 
L 183.344988 197.987352 
L 183.446933 198.016186 
L 183.598102 198.058599 
L 183.836678 198.1247 
L 183.852264 198.128983 
L 184.107675 198.198547 
L 184.233082 198.232277 
L 184.367982 198.268248 
L 184.579382 198.323967 
L 184.728504 198.362795 
L 184.795511 198.380114 
L 184.984409 198.42851 
L 185.148429 198.470022 
L 185.337502 198.517287 
L 185.554892 198.570855 
L 185.632127 198.589688 
L 185.796201 198.629349 
L 185.906129 198.655658 
L 186.171133 198.718216 
L 186.187412 198.722019 
L 186.498703 198.793858 
L 186.603201 198.817597 
L 186.701442 198.839742 
L 186.827814 198.867984 
L 186.993666 198.90463 
L 187.191512 198.947726 
L 187.351194 198.982018 
L 187.477657 199.008866 
L 187.668712 199.048907 
L 187.789672 199.073935 
L 188.063183 199.129606 
L 188.177883 199.152573 
L 188.376702 199.191853 
L 188.466786 199.20943 
L 188.646303 199.244046 
L 188.744908 199.262827 
L 188.934499 199.298476 
L 189.058889 199.321536 
L 189.199012 199.347199 
L 189.319521 199.369006 
L 189.583988 199.416005 
L 189.631158 199.424265 
L 189.835674 199.459642 
L 190.052872 199.496446 
L 190.118207 199.507363 
L 190.278357 199.53382 
L 190.568401 199.580645 
L 190.626478 199.589852 
L 190.872042 199.628163 
L 190.888558 199.630704 
L 191.140738 199.668935 
L 191.292198 199.691389 
L 191.480742 199.71881 
L 191.596692 199.735381 
L 191.731788 199.754408 
L 191.874669 199.774203 
L 192.088749 199.803232 
L 192.220004 199.820656 
L 192.443284 199.849645 
L 192.545743 199.862673 
L 192.725526 199.885116 
L 192.875827 199.903472 
L 193.061663 199.925654 
L 193.11257 199.931632 
L 193.283481 199.951392 
L 193.526727 199.978689 
L 193.557815 199.982109 
L 193.700925 199.997644 
L 193.859828 200.014503 
L 194.148578 200.044083 
L 194.282869 200.057377 
L 194.46432 200.074873 
L 194.50171 200.078412 
L 194.745561 200.100933 
L 194.928722 200.117214 
L 194.982423 200.121885 
L 195.191925 200.139657 
L 195.415828 200.157864 
L 195.472809 200.162368 
L 195.609791 200.172979 
L 195.814836 200.188297 
L 195.904351 200.19477 
L 196.200483 200.215263 
L 196.237246 200.217708 
L 196.376847 200.226794 
L 196.521138 200.235855 
L 196.813509 200.253183 
L 196.850372 200.25527 
L 197.00651 200.263867 
L 197.155008 200.271679 
L 197.372848 200.282495 
L 197.565349 200.291417 
L 197.766794 200.300115 
L 197.800866 200.301522 
L 197.946931 200.30734 
L 198.088949 200.312668 
L 198.31381 200.32044 
L 198.488436 200.325916 
L 198.586715 200.328782 
L 198.82047 200.334975 
L 198.96542 200.338375 
L 199.039024 200.339972 
L 199.33122 200.345454 
L 199.397089 200.3465 
L 199.592854 200.349199 
L 199.794889 200.351339 
L 199.920989 200.352343 
L 200.118661 200.353402 
L 200.183445 200.353613 
L 200.353846 200.353846 
z
" clip-path="url(#p0552d019e3)" style="fill: #808080; opacity: 0.5"/>
   </g>
   <g id="patch_5">
    <path d="M 231.507692 200.353846 
L 231.504966 199.771012 
L 231.50224 199.529603 
L 231.499514 199.34437 
L 231.496788 199.188216 
L 231.494062 199.050646 
L 231.491336 198.926278 
L 231.48861 198.811913 
L 231.485884 198.705469 
L 231.483158 198.605497 
L 231.480432 198.510944 
L 231.477706 198.421016 
L 231.47498 198.335093 
L 231.469528 198.173391 
L 231.464076 198.022892 
L 231.458624 197.88155 
L 231.453172 197.747875 
L 231.44772 197.62074 
L 231.442268 197.499272 
L 231.436816 197.382776 
L 231.431364 197.270689 
L 231.425912 197.162545 
L 231.42046 197.057957 
L 231.411966 196.901333 
L 231.403471 196.751532 
L 231.394977 196.607736 
L 231.386483 196.469278 
L 231.377989 196.335606 
L 231.369494 196.206257 
L 231.361 196.080838 
L 231.352506 195.959014 
L 231.335517 195.725021 
L 231.318529 195.50236 
L 231.30154 195.289536 
L 231.284552 195.085357 
L 231.267563 194.888854 
L 231.250575 194.699226 
L 231.233586 194.515804 
L 231.216597 194.33802 
L 231.199609 194.165388 
L 231.18262 193.997487 
L 231.165632 193.833954 
L 231.148643 193.674466 
L 231.128542 193.490598 
L 231.108441 193.311587 
L 231.08834 193.137071 
L 231.068239 192.966731 
L 231.048138 192.800285 
L 231.028037 192.63748 
L 231.007937 192.478092 
L 230.987836 192.321916 
L 230.960702 192.115876 
L 230.933569 191.914952 
L 230.906436 191.718786 
L 230.879303 191.527063 
L 230.837476 191.239565 
L 230.795648 190.961048 
L 230.753821 190.690736 
L 230.711993 190.427959 
L 230.679913 190.231157 
L 230.647833 190.038208 
L 230.615752 189.8489 
L 230.583672 189.663041 
L 230.529482 189.356429 
L 230.475292 189.058398 
L 230.421101 188.768283 
L 230.366911 188.485506 
L 230.320712 188.249833 
L 230.274512 188.018834 
L 230.228312 187.792253 
L 230.182113 187.569854 
L 230.13292 187.337403 
L 230.069551 187.044215 
L 230.006182 186.757643 
L 229.942813 186.477277 
L 229.879444 186.202748 
L 229.819934 185.949954 
L 229.760424 185.701762 
L 229.690807 185.416951 
L 229.621189 185.137789 
L 229.546554 184.84443 
L 229.48633 184.611963 
L 229.426107 184.383107 
L 229.365884 184.157708 
L 229.305661 183.935623 
L 229.231465 183.666375 
L 229.122647 183.279745 
L 229.013828 182.902357 
L 228.916048 182.570649 
L 228.818268 182.245543 
L 228.699852 181.860168 
L 228.609071 181.570586 
L 228.469556 181.134891 
L 228.330042 180.709848 
L 228.247871 180.464214 
L 228.1657 180.221912 
L 228.007988 179.765766 
L 227.919624 179.515077 
L 227.831259 179.267738 
L 227.746282 179.032931 
L 227.598754 178.632104 
L 227.426901 178.175557 
L 227.272093 177.773313 
L 227.173439 177.521218 
L 227.000364 177.086563 
L 226.877495 176.783629 
L 226.684485 176.316739 
L 226.542681 175.980389 
L 226.375614 175.591018 
L 226.236695 175.272698 
L 226.073749 174.905365 
L 225.863995 174.441682 
L 225.749532 174.192827 
L 225.506927 173.67467 
L 225.370746 173.389133 
L 225.191799 173.019492 
L 225.159225 172.952866 
L 224.933962 172.497537 
L 224.76825 172.168422 
L 224.630666 171.898797 
L 224.537218 171.717491 
L 224.39026 171.435276 
L 224.243302 171.156528 
L 224.117085 170.919814 
L 224.019058 170.737644 
L 223.824016 170.379434 
L 223.634199 170.036087 
L 223.516919 169.826467 
L 223.431329 169.674676 
L 223.175697 169.227127 
L 223.098621 169.093852 
L 222.903957 168.760594 
L 222.700373 168.417055 
L 222.587663 168.228997 
L 222.435765 167.9779 
L 222.323216 167.793557 
L 222.089619 167.415469 
L 222.016406 167.298199 
L 221.731913 166.847926 
L 221.62133 166.675178 
L 221.41887 166.362111 
L 221.388542 166.315565 
L 221.143558 165.94287 
L 221.038126 165.784246 
L 220.862514 165.522349 
L 220.761975 165.373691 
L 220.613917 165.156437 
L 220.342035 164.762544 
L 220.260478 164.645638 
L 220.088265 164.40064 
L 219.989206 164.260841 
L 219.756797 163.93601 
L 219.685671 163.837473 
L 219.500752 163.583167 
L 219.253093 163.246753 
L 219.10202 163.043835 
L 218.920468 162.802234 
L 218.899193 162.774082 
L 218.723617 162.543003 
L 218.538378 162.301605 
L 218.365327 162.078278 
L 218.19806 161.864385 
L 217.980456 161.58897 
L 217.852771 161.428837 
L 217.765582 161.320107 
L 217.559609 161.065212 
L 217.467131 160.951657 
L 217.22912 160.66188 
L 217.152214 160.569004 
L 216.881779 160.245287 
L 216.802688 160.15145 
L 216.577847 159.886722 
L 216.448442 159.735707 
L 216.327079 159.594958 
L 216.191947 159.439235 
L 216.013037 159.234652 
L 215.899753 159.106039 
L 215.71866 158.901913 
L 215.587751 158.755468 
L 215.437401 158.588415 
L 215.303222 158.440347 
L 215.071367 158.186724 
L 214.967618 158.074139 
L 214.701472 157.787844 
L 214.563794 157.641147 
L 214.494302 157.567461 
L 214.331972 157.396266 
L 214.106895 157.161031 
L 214.001509 157.05173 
L 213.866825 156.912814 
L 213.662021 156.703219 
L 213.495329 156.534075 
L 213.300665 156.338168 
L 213.182835 156.220426 
L 212.975993 156.015252 
L 212.877663 155.918385 
L 212.788944 155.831352 
L 212.63896 155.685006 
L 212.377726 155.432443 
L 212.255871 155.315635 
L 212.113559 155.180015 
L 212.001151 155.073497 
L 211.755226 154.842295 
L 211.555617 154.65647 
L 211.404584 154.516944 
L 211.313804 154.433523 
L 211.220445 154.348078 
L 210.942129 154.095407 
L 210.84508 154.008017 
L 210.678658 153.859013 
L 210.547201 153.742072 
L 210.316748 153.538661 
L 210.174139 153.413794 
L 210.028952 153.287455 
L 209.84677 153.130032 
L 209.760428 153.055853 
L 209.599806 152.918583 
L 209.404462 152.752903 
L 209.274324 152.643291 
L 209.070581 152.472897 
L 208.925602 152.352544 
L 208.852985 152.292538 
L 208.712687 152.177129 
L 208.550689 152.044719 
L 208.291793 151.834981 
L 208.217342 151.77509 
L 208.084351 151.668574 
L 207.916748 151.535182 
L 207.703973 151.367189 
L 207.514418 151.218788 
L 207.380495 151.114651 
L 207.196856 150.972803 
L 207.070826 150.876083 
L 206.912387 150.755213 
L 206.7168 150.607105 
L 206.58135 150.505243 
L 206.428863 150.391257 
L 206.234914 150.247323 
L 206.137174 150.175228 
L 205.92072 150.016611 
L 205.847247 149.963095 
L 205.733625 149.880657 
L 205.550799 149.748827 
L 205.306931 149.574539 
L 205.265835 149.545343 
L 204.997922 149.356226 
L 204.853022 149.254819 
L 204.683048 149.136644 
L 204.5849 149.068786 
L 204.361431 148.915317 
L 204.342004 148.902043 
L 204.100919 148.738205 
L 203.985145 148.660111 
L 203.854179 148.572224 
L 203.685455 148.459705 
L 203.481467 148.324724 
L 203.38423 148.260786 
L 203.199528 148.140049 
L 203.028479 148.029067 
L 202.824777 147.897933 
L 202.660063 147.792713 
L 202.527149 147.708337 
L 202.396269 147.625711 
L 202.290037 147.558979 
L 202.011969 147.385712 
L 201.896332 147.314253 
L 201.770585 147.236942 
L 201.613473 147.140922 
L 201.431785 147.030675 
L 201.34706 146.979554 
L 201.059125 146.807187 
L 200.998829 146.771359 
L 200.866566 146.693087 
L 200.615336 146.54562 
L 200.448277 146.448431 
L 200.353846 146.393802 
L 200.353846 200.353846 
L 200.53169 200.353592 
L 200.591144 200.353394 
L 200.869816 200.35171 
L 200.963502 200.350863 
L 201.156575 200.348675 
L 201.324077 200.346292 
L 201.421107 200.344705 
L 201.612342 200.341135 
L 201.772517 200.337693 
L 201.975466 200.33274 
L 202.021024 200.331538 
L 202.294485 200.323617 
L 202.356115 200.321666 
L 202.537292 200.315577 
L 202.644676 200.311719 
L 202.85339 200.30369 
L 202.955319 200.299514 
L 203.192843 200.289134 
L 203.264675 200.285816 
L 203.440099 200.277364 
L 203.650358 200.266581 
L 203.807397 200.258062 
L 204.022387 200.245755 
L 204.139553 200.238733 
L 204.247819 200.232049 
L 204.391431 200.222889 
L 204.572817 200.210845 
L 204.813901 200.194013 
L 204.92294 200.186092 
L 205.006179 200.179915 
L 205.269893 200.159607 
L 205.329713 200.154843 
L 205.455564 200.144632 
L 205.651244 200.128245 
L 205.827121 200.112987 
L 205.970585 200.100169 
L 206.169125 200.081878 
L 206.232912 200.075865 
L 206.461776 200.053748 
L 206.569458 200.043046 
L 206.814167 200.018025 
L 206.895326 200.00951 
L 207.008966 199.997408 
L 207.300871 199.965354 
L 207.47687 199.945355 
L 207.488197 199.94405 
L 207.737327 199.914827 
L 207.822527 199.9046 
L 208.031922 199.878958 
L 208.257022 199.85059 
L 208.412579 199.830499 
L 208.490551 199.820279 
L 208.607882 199.804711 
L 208.786684 199.780551 
L 209.031538 199.746609 
L 209.145706 199.730445 
L 209.270337 199.712552 
L 209.391998 199.694839 
L 209.571602 199.66824 
L 209.798207 199.633917 
L 209.909291 199.61678 
L 210.113372 199.584761 
L 210.139423 199.580624 
L 210.328808 199.550208 
L 210.572492 199.51019 
L 210.72774 199.484178 
L 210.853837 199.462754 
L 211.040859 199.430486 
L 211.106714 199.418985 
L 211.263935 199.391231 
L 211.528411 199.343606 
L 211.591962 199.331986 
L 211.73712 199.305191 
L 211.98655 199.258315 
L 212.03166 199.249726 
L 212.260473 199.205624 
L 212.47441 199.163585 
L 212.526317 199.153269 
L 212.73319 199.111696 
L 212.913715 199.074821 
L 212.980955 199.060944 
L 213.251269 199.004377 
L 213.393608 198.974088 
L 213.471787 198.957303 
L 213.711094 198.905274 
L 213.865429 198.871195 
L 213.906878 198.861973 
L 214.165992 198.803648 
L 214.328095 198.76657 
L 214.382646 198.753989 
L 214.618575 198.698986 
L 214.767586 198.663747 
L 214.907792 198.630237 
L 215.006913 198.60634 
L 215.236384 198.550357 
L 215.329672 198.527334 
L 215.514404 198.481293 
L 215.721193 198.429042 
L 215.896109 198.384256 
L 215.998875 198.357692 
L 216.101505 198.330976 
L 216.349138 198.265745 
L 216.488198 198.228636 
L 216.70236 198.170813 
L 216.815675 198.139886 
L 216.956071 198.101251 
L 217.145296 198.048618 
L 217.245822 198.020396 
L 217.448618 197.962907 
L 217.606293 197.917696 
L 217.762889 197.87235 
L 217.865946 197.842265 
L 218.027924 197.794589 
L 218.24973 197.728529 
L 218.296957 197.714347 
L 218.519668 197.646921 
L 218.70806 197.589175 
L 218.82741 197.552254 
L 218.917845 197.524103 
L 219.087693 197.470825 
L 219.300205 197.403411 
L 219.429477 197.361993 
L 219.685916 197.278912 
L 219.83992 197.228427 
L 219.891733 197.211342 
L 220.013125 197.171117 
L 220.2196 197.102063 
L 220.408717 197.038108 
L 220.52654 196.997922 
L 220.724091 196.929952 
L 220.899512 196.868974 
L 221.014909 196.828541 
L 221.108481 196.795568 
L 221.339863 196.713313 
L 221.422904 196.683542 
L 221.589931 196.623259 
L 221.806781 196.544189 
L 221.904006 196.508442 
L 222.043387 196.456875 
L 222.337932 196.346655 
L 222.441042 196.30767 
L 222.615151 196.241367 
L 222.678998 196.216904 
L 222.973847 196.102885 
L 223.022115 196.084056 
L 223.234345 196.000716 
L 223.34921 195.955236 
L 223.487827 195.9 
L 223.665847 195.828497 
L 223.807834 195.77101 
L 224.01705 195.685561 
L 224.093919 195.653944 
L 224.365064 195.541457 
L 224.395285 195.528827 
L 224.635812 195.427638 
L 224.702672 195.399298 
L 224.893341 195.317977 
L 225.013902 195.266169 
L 225.243758 195.16656 
L 225.387709 195.103618 
L 225.507535 195.050895 
L 225.750719 194.942967 
L 225.882119 194.884132 
L 226.00184 194.830209 
L 226.148232 194.76386 
L 226.348312 194.67244 
L 226.472071 194.615464 
L 226.630611 194.541996 
L 226.862748 194.433445 
L 226.931081 194.40127 
L 227.197388 194.274908 
L 227.249976 194.249772 
L 227.371352 194.191527 
L 227.519334 194.120076 
L 227.774014 193.995979 
L 227.906357 193.930925 
L 228.004447 193.882458 
L 228.272041 193.749142 
L 228.30489 193.732666 
L 228.523737 193.62228 
L 228.710661 193.527138 
L 228.848107 193.456673 
L 229.043881 193.35556 
L 229.109145 193.321657 
L 229.301714 193.221053 
L 229.397384 193.170753 
L 229.688825 193.016214 
L 229.720018 192.999556 
L 229.941676 192.88053 
L 230.154008 192.765427 
L 230.204632 192.737827 
L 230.470564 192.59184 
L 230.495219 192.578219 
L 230.646966 192.494068 
L 230.850524 192.380316 
L 231.104259 192.237118 
L 231.118478 192.229047 
L 231.295157 192.128349 
L 231.507692 192.006198 
z
" clip-path="url(#p0552d019e3)" style="fill: #808080; opacity: 0.5"/>
   </g>
   <g id="matplotlib.axis_1"/>
   <g id="matplotlib.axis_2"/>
   <g id="line2d_1">
    <path d="M 169.2 192.006198 
L 172.492086 193.777391 
L 175.882616 195.347178 
L 179.380588 196.717876 
L 182.994579 197.886812 
L 186.603201 198.817597 
L 190.278357 199.53382 
L 193.859828 200.014503 
L 197.565349 200.291417 
L 200.353846 200.353846 
L 200.353846 200.353846 
" clip-path="url(#p0552d019e3)" style="fill: none; stroke: #ff0000; stroke-linecap: square"/>
   </g>
   <g id="line2d_2">
    <path d="M 200.353846 200.353846 
L 204.139553 200.238733 
L 207.822527 199.9046 
L 211.591962 199.331986 
L 215.236384 198.550357 
L 218.82741 197.552254 
L 222.337932 196.346655 
L 225.750719 194.942967 
L 229.109145 193.321657 
L 231.507692 192.006198 
L 231.507692 192.006198 
" clip-path="url(#p0552d019e3)" style="fill: none; stroke: #ff0000; stroke-linecap: square"/>
   </g>
   <g id="text_1">
    <!-- $\Omega$ -->
    <g transform="translate(16.011538 22.420913) scale(0.1 -0.1)">
     <defs>
      <path id="Cmr10-ad" d="M 494 0 
L 281 1063 
L 469 1063 
Q 503 878 531 736 
Q 559 594 604 536 
Q 650 478 750 459 
Q 850 441 1081 441 
L 1472 441 
Q 1378 803 1004 1386 
Q 631 1969 495 2233 
Q 359 2497 359 2913 
Q 359 3397 646 3761 
Q 934 4125 1389 4319 
Q 1844 4513 2309 4513 
Q 2772 4513 3226 4319 
Q 3681 4125 3968 3758 
Q 4256 3391 4256 2913 
Q 4256 2588 4137 2300 
Q 4019 2013 3834 1725 
Q 3650 1438 3436 1084 
Q 3222 731 3144 441 
L 3531 441 
Q 3766 441 3869 459 
Q 3972 478 4015 536 
Q 4059 594 4086 736 
Q 4113 878 4147 1063 
L 4331 1063 
L 4122 0 
L 2988 0 
Q 2925 0 2925 84 
Q 2925 409 3004 721 
Q 3084 1034 3240 1478 
Q 3397 1922 3484 2261 
Q 3572 2600 3572 2913 
Q 3572 3297 3422 3625 
Q 3272 3953 2984 4150 
Q 2697 4347 2309 4347 
Q 1725 4347 1384 3930 
Q 1044 3513 1044 2913 
Q 1047 2584 1122 2293 
Q 1197 2003 1364 1518 
Q 1531 1034 1611 721 
Q 1691 409 1691 84 
Q 1691 0 1625 0 
L 494 0 
z
" transform="scale(0.015625)"/>
     </defs>
     <use xlink:href="#Cmr10-ad" transform="translate(0 0.484375)"/>
    </g>
   </g>
   <g id="text_2">
    <!-- $A$ -->
    <g style="fill: #0000ff" transform="translate(103.142308 78.497837) scale(0.1 -0.1)">
     <defs>
      <path id="Cmmi10-41" d="M 288 0 
Q 225 0 225 84 
Q 250 225 306 225 
Q 566 225 755 328 
Q 944 431 1081 647 
Q 1094 659 1094 659 
L 3378 4513 
Q 3428 4581 3500 4581 
L 3584 4581 
Q 3603 4581 3622 4573 
Q 3641 4566 3655 4548 
Q 3669 4531 3669 4513 
L 4056 378 
Q 4056 350 4084 294 
Q 4147 225 4563 225 
Q 4628 225 4628 141 
Q 4606 56 4592 28 
Q 4578 0 4519 0 
L 2919 0 
Q 2859 0 2859 84 
Q 2894 225 2944 225 
Q 3450 225 3481 397 
L 3384 1453 
L 1806 1453 
L 1294 594 
Q 1247 525 1247 434 
Q 1247 322 1355 273 
Q 1463 225 1594 225 
Q 1656 225 1656 141 
Q 1634 50 1621 25 
Q 1609 0 1550 0 
L 288 0 
z
M 1931 1678 
L 3359 1678 
L 3169 3750 
L 1931 1678 
z
" transform="scale(0.015625)"/>
     </defs>
     <use xlink:href="#Cmmi10-41" transform="translate(0 0.421875)"/>
    </g>
   </g>
   <g id="text_3">
    <!-- $B$ -->
    <g style="fill: #ff0000" transform="translate(227.707692 78.497837) scale(0.1 -0.1)">
     <defs>
      <path id="Cmmi10-42" d="M 319 0 
Q 256 0 256 84 
Q 259 100 268 137 
Q 278 175 293 200 
Q 309 225 341 225 
Q 522 225 656 234 
Q 791 244 884 269 
Q 959 297 1006 441 
L 1881 3956 
Q 1894 4019 1894 4044 
Q 1894 4113 1819 4122 
Q 1697 4147 1356 4147 
Q 1294 4147 1294 4231 
Q 1297 4247 1306 4286 
Q 1316 4325 1333 4348 
Q 1350 4372 1375 4372 
L 3669 4372 
Q 3878 4372 4083 4320 
Q 4288 4269 4461 4156 
Q 4634 4044 4736 3876 
Q 4838 3709 4838 3488 
Q 4838 3247 4714 3040 
Q 4591 2834 4395 2681 
Q 4200 2528 3973 2429 
Q 3747 2331 3500 2284 
Q 3675 2284 3854 2215 
Q 4034 2147 4175 2028 
Q 4316 1909 4402 1743 
Q 4488 1578 4488 1388 
Q 4488 1003 4219 684 
Q 3950 366 3542 183 
Q 3134 0 2753 0 
L 319 0 
z
M 1497 275 
Q 1497 225 1716 225 
L 2631 225 
Q 2944 225 3231 398 
Q 3519 572 3692 859 
Q 3866 1147 3866 1459 
Q 3866 1650 3786 1820 
Q 3706 1991 3556 2089 
Q 3406 2188 3213 2188 
L 1966 2188 
L 1522 416 
Q 1497 328 1497 275 
z
M 2009 2356 
L 2981 2356 
Q 3288 2356 3577 2512 
Q 3866 2669 4048 2937 
Q 4231 3206 4231 3506 
Q 4231 3784 4057 3965 
Q 3884 4147 3609 4147 
L 2731 4147 
Q 2559 4147 2500 4115 
Q 2441 4084 2400 3928 
L 2009 2356 
z
" transform="scale(0.015625)"/>
     </defs>
     <use xlink:href="#Cmmi10-42" transform="translate(0 0.6875)"/>
    </g>
   </g>
   <g id="text_4">
    <!-- $C$ -->
    <g style="fill: #228b22" transform="translate(150.023077 271.651683) scale(0.1 -0.1)">
     <defs>
      <path id="Cmmi10-43" d="M 934 1381 
Q 934 997 1082 705 
Q 1231 413 1514 248 
Q 1797 84 2181 84 
Q 2584 84 2957 290 
Q 3331 497 3595 842 
Q 3859 1188 3956 1575 
Q 3969 1613 4006 1613 
L 4084 1613 
Q 4109 1613 4125 1595 
Q 4141 1578 4141 1556 
Q 4141 1550 4134 1538 
Q 4025 1094 3711 705 
Q 3397 316 2959 87 
Q 2522 -141 2059 -141 
Q 1559 -141 1162 84 
Q 766 309 545 709 
Q 325 1109 325 1613 
Q 325 2150 565 2676 
Q 806 3203 1212 3614 
Q 1619 4025 2139 4269 
Q 2659 4513 3194 4513 
Q 3406 4513 3600 4448 
Q 3794 4384 3959 4253 
Q 4125 4122 4231 3950 
L 4738 4500 
Q 4738 4513 4769 4513 
L 4806 4513 
Q 4831 4513 4847 4491 
Q 4863 4469 4863 4447 
L 4428 2719 
Q 4428 2675 4378 2675 
L 4263 2675 
Q 4213 2675 4213 2747 
Q 4238 2888 4238 3084 
Q 4238 3397 4131 3673 
Q 4025 3950 3801 4119 
Q 3578 4288 3256 4288 
Q 2734 4288 2300 4025 
Q 1866 3763 1564 3336 
Q 1263 2909 1098 2389 
Q 934 1869 934 1381 
z
" transform="scale(0.015625)"/>
     </defs>
     <use xlink:href="#Cmmi10-43" transform="translate(0 0.484375)"/>
    </g>
   </g>
   <g id="patch_6">
    <path d="M 138.046154 200.353846 
C 154.570347 200.353846 170.419977 193.788715 182.104346 182.104346 
C 193.788715 170.419977 200.353846 154.570347 200.353846 138.046154 
C 200.353846 121.521961 193.788715 105.672331 182.104346 93.987962 
C 170.419977 82.303593 154.570347 75.738462 138.046154 75.738462 
C 121.521961 75.738462 105.672331 82.303593 93.987962 93.987962 
C 82.303593 105.672331 75.738462 121.521961 75.738462 138.046154 
C 75.738462 154.570347 82.303593 170.419977 93.987962 182.104346 
C 105.672331 193.788715 121.521961 200.353846 138.046154 200.353846 
L 138.046154 200.353846 
z
" clip-path="url(#p0552d019e3)" style="fill: none; stroke: #0000ff; stroke-linejoin: miter"/>
   </g>
   <g id="patch_7">
    <path d="M 200.353846 200.353846 
C 216.878039 200.353846 232.727669 193.788715 244.412038 182.104346 
C 256.096407 170.419977 262.661538 154.570347 262.661538 138.046154 
C 262.661538 121.521961 256.096407 105.672331 244.412038 93.987962 
C 232.727669 82.303593 216.878039 75.738462 200.353846 75.738462 
C 183.829653 75.738462 167.980023 82.303593 156.295654 93.987962 
C 144.611285 105.672331 138.046154 121.521961 138.046154 138.046154 
C 138.046154 154.570347 144.611285 170.419977 156.295654 182.104346 
C 167.980023 193.788715 183.829653 200.353846 200.353846 200.353846 
L 200.353846 200.353846 
z
" clip-path="url(#p0552d019e3)" style="fill: none; stroke: #ff0000; stroke-linejoin: miter"/>
   </g>
   <g id="patch_8">
    <path d="M 169.2 262.661538 
C 185.724193 262.661538 201.573823 256.096407 213.258192 244.412038 
C 224.942561 232.727669 231.507692 216.878039 231.507692 200.353846 
C 231.507692 183.829653 224.942561 167.980023 213.258192 156.295654 
C 201.573823 144.611285 185.724193 138.046154 169.2 138.046154 
C 152.675807 138.046154 136.826177 144.611285 125.141808 156.295654 
C 113.457439 167.980023 106.892308 183.829653 106.892308 200.353846 
C 106.892308 216.878039 113.457439 232.727669 125.141808 244.412038 
C 136.826177 256.096407 152.675807 262.661538 169.2 262.661538 
L 169.2 262.661538 
z
" clip-path="url(#p0552d019e3)" style="fill: none; stroke: #228b22; stroke-linejoin: miter"/>
   </g>
  </g>
 </g>
 <defs>
  <clipPath id="p0552d019e3">
   <rect x="7.2" y="7.2" width="324" height="324"/>
  </clipPath>
 </defs>
</svg>
