<?xml version="1.0" encoding="utf-8" standalone="no"?>
<!DOCTYPE svg PUBLIC "-//W3C//DTD SVG 1.1//EN"
  "http://www.w3.org/Graphics/SVG/1.1/DTD/svg11.dtd">
<svg xmlns:xlink="http://www.w3.org/1999/xlink" width="338.4pt" height="338.4pt" viewBox="0 0 338.4 338.4" xmlns="http://www.w3.org/2000/svg" version="1.1">
 <metadata>
  <rdf:RDF xmlns:dc="http://purl.org/dc/elements/1.1/" xmlns:cc="http://creativecommons.org/ns#" xmlns:rdf="http://www.w3.org/1999/02/22-rdf-syntax-ns#">
   <cc:Work>
    <dc:type rdf:resource="http://purl.org/dc/dcmitype/StillImage"/>
    <dc:date>2025-08-21T01:24:53.793713</dc:date>
    <dc:format>image/svg+xml</dc:format>
    <dc:creator>
     <cc:Agent>
      <dc:title>Matplotlib v3.8.0, https://matplotlib.org/</dc:title>
     </cc:Agent>
    </dc:creator>
   </cc:Work>
  </rdf:RDF>
 </metadata>
 <defs>
  <style type="text/css">*{stroke-linejoin: round; stroke-linecap: butt}</style>
 </defs>
 <g id="figure_1">
  <g id="patch_1">
   <path d="M -0 338.4 
L 338.4 338.4 
L 338.4 0 
L -0 0 
z
" style="fill: #ffffff"/>
  </g>
  <g id="axes_1">
   <g id="patch_2">
    <path d="M 7.2 331.2 
L 331.2 331.2 
L 331.2 7.2 
L 7.2 7.2 
z
" style="fill: #ffffff"/>
   </g>
   <g id="patch_3">
    <path d="M 13.430769 324.969231 
L 13.430769 13.430769 
L 324.969231 13.430769 
L 324.969231 324.969231 
L 13.430769 324.969231 
z
" clip-path="url(#p13e222f8f4)" style="fill: none; stroke: #000000; stroke-linejoin: miter"/>
   </g>
   <g id="patch_4">
    <path d="M 200.353846 146.393802 
L 200.07309 146.232678 
L 199.37019 145.837718 
L 198.752516 145.500429 
L 198.46374 145.345828 
L 197.786687 144.990954 
L 197.392989 144.789434 
L 197.227194 144.705621 
L 196.814062 144.499463 
L 196.198198 144.199186 
L 195.607622 143.919052 
L 195.292692 143.772754 
L 194.517915 143.421854 
L 194.26933 143.311956 
L 193.603783 143.024064 
L 193.312957 142.901137 
L 192.747096 142.666908 
L 192.22657 142.457166 
L 192.076298 142.397625 
L 191.439428 142.150269 
L 190.952762 141.96664 
L 190.272193 141.717584 
L 190.244135 141.707509 
L 189.718007 141.521373 
L 189.161207 141.330133 
L 188.538568 141.12321 
L 188.103272 140.982853 
L 187.492929 140.791969 
L 187.222996 140.709734 
L 186.521687 140.502299 
L 186.493433 140.494129 
L 185.909866 140.328611 
L 185.277713 140.156208 
L 184.809693 140.033153 
L 184.592299 139.977314 
L 183.724955 139.762806 
L 183.274097 139.656496 
L 183.193266 139.63781 
L 182.488599 139.4797 
L 182.168512 139.410707 
L 181.796364 139.332701 
L 180.891975 139.152978 
L 180.420618 139.064807 
L 179.974539 138.984816 
L 179.557801 138.913107 
L 179.220438 138.857185 
L 178.697727 138.77429 
L 178.209783 138.701009 
L 177.874432 138.652933 
L 177.21093 138.563284 
L 176.768846 138.507576 
L 176.241466 138.445315 
L 175.773618 138.393891 
L 175.271484 138.342673 
L 174.855789 138.303378 
L 174.650483 138.285007 
L 174.066315 138.236477 
L 173.658509 138.205876 
L 172.884287 138.155176 
L 172.657215 138.142142 
L 172.164238 138.116704 
L 171.544658 138.090285 
L 171.421798 138.085779 
L 170.887991 138.069023 
L 170.190323 138.054024 
L 170.036895 138.051775 
L 169.41844 138.046537 
L 168.961245 138.046611 
L 168.492116 138.050175 
L 167.919949 138.059304 
L 167.678894 138.064724 
L 167.140763 138.080192 
L 166.355336 138.111124 
L 166.113968 138.122625 
L 165.436886 138.159896 
L 165.2041 138.174418 
L 164.851785 138.198062 
L 164.251024 138.243008 
L 163.608749 138.29753 
L 163.102574 138.345218 
L 162.882512 138.367252 
L 162.338981 138.425057 
L 161.673976 138.502351 
L 161.220236 138.559252 
L 160.934438 138.59683 
L 160.657114 138.634582 
L 159.889858 138.745651 
L 159.662621 138.780419 
L 158.977249 138.890492 
L 158.415185 138.986621 
L 158.285591 139.009538 
L 157.674141 139.121476 
L 156.96404 139.259413 
L 156.69935 139.313021 
L 156.152187 139.427636 
L 155.648855 139.537607 
L 155.054287 139.673146 
L 154.659357 139.766568 
L 154.409728 139.827023 
L 153.855791 139.965074 
L 153.23889 140.125186 
L 152.997396 140.189703 
L 152.556802 140.310092 
L 151.788322 140.528417 
L 151.451032 140.627615 
L 151.231419 140.693318 
L 150.525815 140.9104 
L 150.274597 140.989904 
L 149.60618 141.207158 
L 149.388865 141.279593 
L 148.534218 141.573118 
L 148.156636 141.707232 
L 147.866772 141.81205 
L 147.195278 142.06113 
L 147.031238 142.123317 
L 146.458328 142.344667 
L 145.915477 142.560425 
L 145.529771 142.717323 
L 144.832086 143.008809 
L 144.608371 143.104389 
L 143.985035 143.376184 
L 143.753499 143.479211 
L 143.03904 143.804286 
L 142.399116 144.104747 
L 142.199099 144.200486 
L 141.608746 144.488193 
L 141.251501 144.666057 
L 140.894212 144.846811 
L 140.331827 145.137208 
L 139.806169 145.415233 
L 139.212607 145.736955 
L 138.71915 146.010803 
L 138.513622 146.126595 
L 137.900264 146.478295 
L 137.38681 146.779884 
L 137.038181 146.988446 
L 136.301918 147.439153 
L 136.159706 147.527835 
L 135.510749 147.939317 
L 135.244984 148.111091 
L 134.662554 148.494292 
L 134.110011 148.866555 
L 133.635334 149.193285 
L 133.229537 149.477778 
L 132.613421 149.919029 
L 132.065596 150.321011 
L 131.600559 150.669537 
L 131.179474 150.991025 
L 130.912652 151.197692 
L 130.311685 151.67174 
L 130.014267 151.910819 
L 129.329624 152.472726 
L 128.850576 152.87572 
L 128.494653 153.180515 
L 128.084193 153.537835 
L 127.63398 153.937098 
L 127.004503 154.508578 
L 126.450674 155.024565 
L 126.202444 155.259958 
L 125.534186 155.906741 
L 125.182452 156.255048 
L 124.90071 156.538079 
L 124.151472 157.30877 
L 123.7285 157.755827 
L 123.547613 157.949742 
L 122.893959 158.66453 
L 122.317352 159.314038 
L 122.086845 159.578864 
L 121.363503 160.429943 
L 121.07285 160.7808 
L 120.456258 161.542815 
L 120.017552 162.10028 
L 119.564467 162.690039 
L 118.936057 163.532867 
L 118.57103 164.036414 
L 118.030146 164.802552 
L 117.716867 165.257757 
L 117.458237 165.640182 
L 117.064034 166.235089 
L 116.669832 166.845191 
L 116.317225 167.404482 
L 115.955645 167.992029 
L 115.636102 168.523714 
L 115.316558 169.067695 
L 114.833676 169.91454 
L 114.521169 170.479544 
L 114.208661 171.058776 
L 114.076893 171.307477 
L 113.712767 172.009262 
L 113.348641 172.733669 
L 113.076934 173.290032 
L 112.805228 173.860862 
L 112.570742 174.365856 
L 112.336255 174.883018 
L 112.115454 175.3818 
L 111.894652 175.892743 
L 111.668131 176.430373 
L 111.441611 176.982561 
L 111.238908 177.489892 
L 111.036206 178.010578 
L 110.767682 178.722555 
L 110.467425 179.551608 
L 110.317296 179.98044 
L 110.167167 180.419625 
L 110.019531 180.862294 
L 109.871895 181.316397 
L 109.654407 182.007977 
L 109.436919 182.729354 
L 109.276965 183.281109 
L 109.11701 183.852853 
L 108.957055 184.446739 
L 108.7971 185.065348 
L 108.641392 185.69426 
L 108.485683 186.353122 
L 108.329975 187.046383 
L 108.252121 187.407628 
L 108.174267 187.779729 
L 108.050464 188.396305 
L 107.988563 188.717332 
L 107.926661 189.047808 
L 107.827506 189.599055 
L 107.728351 190.181093 
L 107.678774 190.48535 
L 107.629196 190.799548 
L 107.579618 191.124702 
L 107.530041 191.462014 
L 107.480463 191.812926 
L 107.430886 192.179187 
L 107.381308 192.562962 
L 107.331731 192.966981 
L 107.282153 193.394768 
L 107.232576 193.851013 
L 107.207787 194.091736 
L 107.182998 194.342192 
L 107.158209 194.603653 
L 107.13342 194.877695 
L 107.103281 195.230755 
L 107.073142 195.610211 
L 107.058073 195.811886 
L 107.043003 196.022995 
L 107.027934 196.244992 
L 107.012864 196.479746 
L 106.997795 196.729738 
L 106.982725 196.998371 
L 106.967655 197.290545 
L 106.952586 197.613781 
L 106.945051 197.790672 
L 106.937516 197.980736 
L 106.929982 198.187438 
L 106.922447 198.416093 
L 106.914912 198.675652 
L 106.907377 198.983565 
L 106.899842 199.384882 
L 106.892308 200.353846 
L 106.892308 84.086109 
L 107.484807 83.74834 
L 107.833012 83.553819 
L 108.410959 83.237361 
L 108.982212 82.93231 
L 109.033469 82.90531 
L 109.749849 82.534284 
L 110.124913 82.344692 
L 110.846732 81.988684 
L 111.066803 81.882436 
L 111.710989 81.577511 
L 111.910984 81.48467 
L 112.60539 81.168952 
L 113.175231 80.917477 
L 113.512017 80.772035 
L 113.954005 80.584716 
L 114.219718 80.47403 
L 114.91247 80.19219 
L 115.562876 79.936338 
L 115.61312 79.916923 
L 116.262098 79.670616 
L 116.764444 79.48561 
L 117.109041 79.361524 
L 117.571984 79.19841 
L 117.956636 79.065989 
L 118.497596 78.884491 
L 119.125241 78.68078 
L 119.475653 78.570234 
L 119.967431 78.418909 
L 120.390425 78.292294 
L 121.105981 78.085508 
L 121.291978 78.033271 
L 122.067696 77.822094 
L 122.463969 77.718349 
L 122.971845 77.589444 
L 123.135944 77.548764 
L 123.58991 77.438683 
L 124.228876 77.289826 
L 124.695394 77.18561 
L 125.174809 77.082419 
L 125.633197 76.987436 
L 126.016821 76.9107 
L 126.476923 76.821964 
L 127.148373 76.698889 
L 127.470289 76.642574 
L 128.030954 76.548639 
L 128.636698 76.453048 
L 128.929889 76.408972 
L 129.504071 76.326778 
L 129.947831 76.266985 
L 130.232531 76.230332 
L 130.970253 76.141549 
L 131.543719 76.078688 
L 131.663436 76.066242 
L 132.295749 76.004383 
L 132.607664 75.976263 
L 133.016598 75.941789 
L 133.718245 75.888952 
L 134.30693 75.850762 
L 134.570446 75.83548 
L 135.082457 75.808986 
L 135.428399 75.793476 
L 135.87752 75.776213 
L 136.34265 75.761753 
L 136.840544 75.750126 
L 137.258542 75.74344 
L 137.673327 75.739577 
L 138.321731 75.739071 
L 138.706332 75.741959 
L 139.507915 75.755611 
L 139.938509 75.767205 
L 140.41449 75.783488 
L 140.750994 75.797199 
L 141.035976 75.810236 
L 141.843134 75.854262 
L 142.045804 75.866967 
L 142.427592 75.892702 
L 142.868884 75.925386 
L 143.312615 75.96143 
L 144.111671 76.034397 
L 144.572652 76.081218 
L 144.823063 76.108104 
L 145.319532 76.16444 
L 145.841194 76.227986 
L 146.48339 76.312358 
L 146.58456 76.326269 
L 147.18847 76.41283 
L 147.861387 76.516407 
L 148.324683 76.592103 
L 148.732748 76.661749 
L 148.990503 76.70718 
L 149.837642 76.864381 
L 149.897259 76.875901 
L 150.63427 77.023307 
L 151.166165 77.13545 
L 151.358719 77.177245 
L 151.747109 77.263489 
L 152.233581 77.375193 
L 152.94649 77.546331 
L 153.556612 77.699868 
L 153.943719 77.80069 
L 154.296827 77.894976 
L 154.986939 78.085681 
L 155.184093 78.141734 
L 155.886426 78.347132 
L 156.274425 78.464457 
L 156.601483 78.565499 
L 157.023675 78.698852 
L 157.834746 78.964345 
L 158.20544 79.0898 
L 158.541159 79.205664 
L 158.884359 79.32633 
L 159.672685 79.612074 
L 160.032304 79.746431 
L 160.275363 79.838673 
L 160.969039 80.108344 
L 161.230722 80.212562 
L 161.763877 80.429159 
L 162.10481 80.570684 
L 162.721357 80.832669 
L 163.398785 81.129613 
L 163.838917 81.32771 
L 164.384849 81.579158 
L 164.841002 81.794179 
L 165.236606 81.984332 
L 165.776799 82.24956 
L 165.986544 82.354295 
L 166.447265 82.587833 
L 167.133438 82.944626 
L 167.642047 83.216129 
L 167.871674 83.340698 
L 168.64198 83.767761 
L 168.925063 83.928306 
L 169.151847 84.058337 
L 169.732117 84.396846 
L 170.162489 84.653368 
L 170.868928 85.084715 
L 171.378793 85.40412 
L 171.829293 85.69209 
L 172.389951 86.058154 
L 172.737293 86.289286 
L 173.232483 86.624653 
L 173.536371 86.833919 
L 174.075812 87.21199 
L 174.528346 87.535777 
L 174.781212 87.719381 
L 175.635461 88.354178 
L 175.832088 88.503529 
L 176.356412 88.907853 
L 176.853819 89.299732 
L 177.474104 89.800063 
L 177.609574 89.911091 
L 178.250771 90.445342 
L 178.573135 90.719498 
L 179.045634 91.128234 
L 179.676219 91.686837 
L 180.055552 92.030298 
L 180.777267 92.699704 
L 181.003185 92.91366 
L 181.696283 93.583644 
L 182.179175 94.062918 
L 182.301139 94.185638 
L 183.062891 94.967831 
L 183.318062 95.236075 
L 183.699097 95.642648 
L 184.125833 96.106772 
L 184.552569 96.580483 
L 184.889463 96.96145 
L 185.336539 97.476855 
L 185.880252 98.119376 
L 186.270905 98.592106 
L 186.596074 98.992936 
L 187.322507 99.913628 
L 187.727337 100.442583 
L 188.089271 100.925607 
L 188.391413 101.336435 
L 188.787221 101.885503 
L 189.183028 102.447438 
L 189.776502 103.315481 
L 189.8442 103.416529 
L 190.427145 104.30478 
L 190.978762 105.176905 
L 191.445646 105.940971 
L 191.776537 106.497867 
L 192.107429 107.068305 
L 192.325934 107.452788 
L 192.618127 107.977096 
L 192.994432 108.670394 
L 193.370736 109.385395 
L 193.681483 109.99337 
L 193.99223 110.618337 
L 194.280121 111.213534 
L 194.600762 111.896109 
L 194.921403 112.601025 
L 195.156943 113.134184 
L 195.490172 113.912498 
L 195.765229 114.577943 
L 196.040285 115.266136 
L 196.236615 115.772432 
L 196.432946 116.292279 
L 196.609904 116.773267 
L 196.786862 117.266893 
L 196.963821 117.774078 
L 197.140779 118.295868 
L 197.376137 119.014559 
L 197.611495 119.764507 
L 197.735525 120.17362 
L 197.859555 120.593201 
L 197.996665 121.07015 
L 198.133776 121.562033 
L 198.270886 122.070229 
L 198.407996 122.596347 
L 198.552194 123.171086 
L 198.696392 123.7704 
L 198.84059 124.397524 
L 198.984788 125.056488 
L 199.0555 125.392766 
L 199.126212 125.738635 
L 199.196924 126.094927 
L 199.267636 126.462605 
L 199.338348 126.842788 
L 199.409061 127.236797 
L 199.479773 127.646203 
L 199.550485 128.072901 
L 199.614643 128.476949 
L 199.678801 128.899277 
L 199.742959 129.342545 
L 199.807117 129.810135 
L 199.875458 130.339942 
L 199.909628 130.61924 
L 199.943799 130.909624 
L 199.97797 131.212507 
L 200.01214 131.529631 
L 200.046311 131.863188 
L 200.080481 132.215997 
L 200.114652 132.591792 
L 200.148823 132.995702 
L 200.165908 133.210382 
L 200.182993 133.43511 
L 200.200078 133.671433 
L 200.217164 133.921345 
L 200.234249 134.187484 
L 200.251334 134.473474 
L 200.26842 134.784535 
L 200.285505 135.128673 
L 200.30259 135.519368 
L 200.319676 135.9829 
L 200.336761 136.587113 
L 200.353846 138.046154 
z
" clip-path="url(#p13e222f8f4)" style="fill: #808080; opacity: 0.5"/>
   </g>
   <g id="patch_5">
    <path d="M 75.738462 138.046154 
L 75.738462 138.046154 
L 75.74526 137.125776 
L 75.752058 136.744578 
L 75.758856 136.452099 
L 75.765654 136.205548 
L 75.772452 135.98835 
L 75.77925 135.792004 
L 75.786048 135.611461 
L 75.792846 135.443428 
L 75.799644 135.285622 
L 75.806442 135.136377 
L 75.81324 134.994437 
L 75.820038 134.858827 
L 75.826836 134.728769 
L 75.833634 134.603635 
L 75.840432 134.482906 
L 75.84723 134.366148 
L 75.854028 134.252994 
L 75.860827 134.143131 
L 75.874423 133.932231 
L 75.888019 133.731671 
L 75.901615 133.54007 
L 75.915211 133.356329 
L 75.928807 133.179558 
L 75.942403 133.009024 
L 75.955999 132.844113 
L 75.972982 132.645239 
L 75.989965 132.453484 
L 76.006948 132.268138 
L 76.023931 132.088605 
L 76.040914 131.914373 
L 76.057897 131.745003 
L 76.07488 131.580112 
L 76.091863 131.419366 
L 76.10952 131.256318 
L 76.127177 131.097138 
L 76.144834 130.941569 
L 76.162491 130.789376 
L 76.197806 130.49431 
L 76.23312 130.210507 
L 76.256927 130.024938 
L 76.280733 129.843634 
L 76.30454 129.66632 
L 76.328346 129.492747 
L 76.373564 129.172584 
L 76.418783 128.8638 
L 76.464001 128.565282 
L 76.509219 128.276091 
L 76.538404 128.09401 
L 76.567588 127.915285 
L 76.625958 127.567219 
L 76.661051 127.363566 
L 76.696144 127.163837 
L 76.731237 126.96782 
L 76.76633 126.77532 
L 76.827745 126.446373 
L 76.88916 126.126817 
L 76.950575 125.815916 
L 77.011989 125.513026 
L 77.073917 125.215141 
L 77.135845 124.92431 
L 77.18382 124.703559 
L 77.231795 124.486572 
L 77.27977 124.273169 
L 77.327745 124.063188 
L 77.421003 123.664233 
L 77.514262 123.27664 
L 77.572936 123.038207 
L 77.640915 122.766898 
L 77.708894 122.500621 
L 77.807276 122.123651 
L 77.905658 121.755996 
L 78.02475 121.322529 
L 78.129056 120.952592 
L 78.233361 120.591116 
L 78.353123 120.185847 
L 78.472884 119.790358 
L 78.549245 119.543009 
L 78.625606 119.299234 
L 78.771737 118.842196 
L 78.799781 118.75585 
L 78.878007 118.517229 
L 78.956233 118.281798 
L 79.079575 117.916795 
L 79.202917 117.559037 
L 79.295978 117.293676 
L 79.443734 116.880027 
L 79.537151 116.62315 
L 79.630568 116.369719 
L 79.76387 116.013816 
L 79.929172 115.581405 
L 80.055174 115.258114 
L 80.199001 114.895443 
L 80.342828 114.539247 
L 80.454799 114.266238 
L 80.653846 113.789783 
L 80.710277 113.656694 
L 80.904705 113.204589 
L 81.04872 112.875912 
L 81.165946 112.612112 
L 81.347815 112.209225 
L 81.480539 111.919926 
L 81.666171 111.521711 
L 81.843153 111.148733 
L 81.982236 110.860025 
L 82.104807 110.608694 
L 82.319743 110.174741 
L 82.482526 109.851619 
L 82.58412 109.652294 
L 82.767126 109.29763 
L 82.98948 108.874058 
L 83.091119 108.683035 
L 83.182266 108.513081 
L 83.422796 108.070541 
L 83.581545 107.783059 
L 83.742149 107.495808 
L 83.904263 107.20942 
L 83.993486 107.05329 
L 84.237533 106.631495 
L 84.370872 106.40421 
L 84.535751 106.126171 
L 84.650442 105.934684 
L 84.79426 105.696744 
L 85.023546 105.322286 
L 85.135176 105.142098 
L 85.222325 105.00237 
L 85.451712 104.638472 
L 85.56278 104.464254 
L 85.689367 104.267235 
L 85.976877 103.825707 
L 86.024868 103.752797 
L 86.230346 103.44311 
L 86.366964 103.239404 
L 86.525655 103.004939 
L 86.715763 102.727045 
L 86.886304 102.480464 
L 86.962568 102.371012 
L 87.154402 102.097884 
L 87.343291 101.831955 
L 87.407514 101.742205 
L 87.708943 101.3254 
L 87.754974 101.262384 
L 87.981913 100.954102 
L 88.130302 100.75465 
L 88.21945 100.635619 
L 88.459316 100.318259 
L 88.526154 100.230573 
L 88.781714 99.898238 
L 88.869972 99.784532 
L 89.063761 99.536756 
L 89.155226 99.4207 
L 89.351469 99.17359 
L 89.532005 98.948509 
L 89.693481 98.748984 
L 89.788825 98.631959 
L 90.050731 98.313449 
L 90.124578 98.224413 
L 90.22784 98.100474 
L 90.469064 97.813468 
L 90.594193 97.665962 
L 90.835207 97.384439 
L 90.906784 97.301481 
L 91.104517 97.073831 
L 91.269001 96.886143 
L 91.327548 96.819701 
L 91.536791 96.58379 
L 91.638014 96.470523 
L 91.880791 96.201108 
L 92.021005 96.046938 
L 92.12885 95.929059 
L 92.29111 95.752838 
L 92.441856 95.590335 
L 92.570601 95.452462 
L 92.734321 95.278335 
L 92.95157 95.049328 
L 93.191699 94.798883 
L 93.323781 94.66231 
L 93.42702 94.556139 
L 93.538959 94.441589 
L 93.728537 94.248923 
L 93.973429 94.0025 
L 94.080347 93.895771 
L 94.146038 93.830451 
L 94.369572 93.609629 
L 94.510217 93.471826 
L 94.636434 93.348897 
L 94.841806 93.150354 
L 95.049183 92.951708 
L 95.093347 92.90964 
L 95.342433 92.673907 
L 95.409385 92.610986 
L 95.647303 92.388887 
L 95.772719 92.272742 
L 95.930874 92.127185 
L 96.130773 91.944642 
L 96.309722 91.782574 
L 96.346386 91.749524 
L 96.583177 91.537337 
L 96.782889 91.360059 
L 96.829323 91.319059 
L 97.015542 91.155457 
L 97.253319 90.948456 
L 97.323967 90.887358 
L 97.498894 90.736871 
L 97.697759 90.567152 
L 97.874486 90.417532 
L 98.037342 90.280649 
L 98.069142 90.25403 
L 98.21305 90.134022 
L 98.430876 89.95376 
L 98.538721 89.865128 
L 98.749386 89.693154 
L 98.922289 89.553147 
L 99.128202 89.387737 
L 99.1623 89.360484 
L 99.407112 89.165964 
L 99.599097 89.014814 
L 99.659038 88.967871 
L 99.803401 88.855297 
L 100.022819 88.685496 
L 100.101024 88.625352 
L 100.271775 88.494718 
L 100.514234 88.310819 
L 100.676137 88.189054 
L 100.74122 88.140338 
L 100.910982 88.013889 
L 101.17641 87.817969 
L 101.226117 87.78152 
L 101.466148 87.606569 
L 101.508265 87.576052 
L 101.76537 87.390914 
L 101.805887 87.36192 
L 102.021091 87.208733 
L 102.130588 87.131317 
L 102.307415 87.007041 
L 102.537393 86.846775 
L 102.712386 86.725852 
L 102.772322 86.684638 
L 102.959811 86.556378 
L 103.159018 86.421196 
L 103.274939 86.343048 
L 103.437949 86.233794 
L 103.599726 86.126099 
L 103.756618 86.022349 
L 103.853867 85.958381 
L 104.077629 85.812182 
L 104.208789 85.72712 
L 104.368982 85.623863 
L 104.597326 85.47787 
L 104.758559 85.375625 
L 104.888135 85.293957 
L 105.027049 85.206895 
L 105.141508 85.135542 
L 105.304562 85.034488 
L 105.407697 84.970928 
L 105.69225 84.79699 
L 105.785363 84.740526 
L 106.00713 84.606941 
L 106.160661 84.515192 
L 106.246813 84.46397 
L 106.447689 84.345264 
L 106.518812 84.303478 
L 106.691586 84.202495 
L 106.892308 84.086109 
L 106.892308 138.046154 
z
" clip-path="url(#p13e222f8f4)" style="fill: #808080; opacity: 0.5"/>
   </g>
   <g id="patch_6">
    <path d="M 75.738462 138.046154 
L 75.738462 138.046154 
L 75.741471 138.658508 
L 75.74448 138.912143 
L 75.747489 139.106757 
L 75.750498 139.270818 
L 75.753507 139.415353 
L 75.756516 139.546019 
L 75.759526 139.666173 
L 75.762535 139.778007 
L 75.765544 139.883039 
L 75.768553 139.982377 
L 75.771562 140.076858 
L 75.774571 140.167129 
L 75.777581 140.253708 
L 75.78059 140.337014 
L 75.786608 140.495127 
L 75.792626 140.643619 
L 75.798645 140.784057 
L 75.804663 140.917621 
L 75.810681 141.045231 
L 75.8167 141.167617 
L 75.822718 141.285371 
L 75.828736 141.398981 
L 75.834754 141.508855 
L 75.840862 141.616886 
L 75.846969 141.721733 
L 75.859183 141.922901 
L 75.871397 142.114096 
L 75.883611 142.296664 
L 75.895826 142.471674 
L 75.90804 142.639988 
L 75.920254 142.802319 
L 75.932468 142.959259 
L 75.944683 143.111309 
L 75.956897 143.258897 
L 75.969111 143.402392 
L 75.981325 143.542115 
L 75.99354 143.678346 
L 76.005754 143.811333 
L 76.030182 144.068429 
L 76.053559 144.304482 
L 76.076935 144.531864 
L 76.100311 144.751459 
L 76.123688 144.964008 
L 76.147064 145.170141 
L 76.17044 145.370401 
L 76.193817 145.565257 
L 76.217193 145.755118 
L 76.254596 146.049398 
L 76.291999 146.333067 
L 76.329403 146.607178 
L 76.366806 146.872622 
L 76.413987 147.196267 
L 76.461169 147.508614 
L 76.50835 147.810746 
L 76.555532 148.103586 
L 76.590834 148.317093 
L 76.626136 148.526132 
L 76.661438 148.730966 
L 76.69674 148.931831 
L 76.733103 149.13481 
L 76.769465 149.334022 
L 76.805828 149.529663 
L 76.84219 149.721914 
L 76.884637 149.942259 
L 76.927083 150.158449 
L 76.969529 150.3707 
L 77.011975 150.579214 
L 77.089435 150.950688 
L 77.166895 151.311311 
L 77.24462 151.66313 
L 77.322345 152.005652 
L 77.409591 152.379884 
L 77.496838 152.744073 
L 77.594147 153.13931 
L 77.691456 153.523846 
L 77.752782 153.761044 
L 77.814107 153.99448 
L 77.878695 154.236442 
L 77.939578 154.461026 
L 78.00046 154.682355 
L 78.122225 155.115755 
L 78.235499 155.508516 
L 78.362035 155.93622 
L 78.487308 156.348952 
L 78.612582 156.751742 
L 78.700985 157.030342 
L 78.811645 157.372857 
L 78.922305 157.708785 
L 78.995205 157.926646 
L 79.103689 158.246014 
L 79.212173 158.559837 
L 79.284702 158.766681 
L 79.406628 159.109261 
L 79.528554 159.445664 
L 79.67979 159.854777 
L 79.76344 160.077353 
L 79.8736 160.366605 
L 79.983761 160.651619 
L 80.097857 160.942517 
L 80.296146 161.438143 
L 80.489627 161.910244 
L 80.542178 162.036595 
L 80.673653 162.349335 
L 80.805127 162.657399 
L 80.959073 163.012406 
L 81.045336 163.20873 
L 81.164213 163.47632 
L 81.283091 163.740573 
L 81.327895 163.839325 
L 81.555991 164.335126 
L 81.648191 164.532344 
L 81.805357 164.864455 
L 81.972567 165.212335 
L 82.13588 165.546878 
L 82.33329 165.944636 
L 82.422525 166.12213 
L 82.559937 166.392727 
L 82.697348 166.660105 
L 82.790447 166.839475 
L 82.970899 167.183155 
L 83.065523 167.361317 
L 83.182852 167.580314 
L 83.390296 167.962466 
L 83.512451 168.184564 
L 83.724965 168.565934 
L 83.812147 168.72059 
L 83.986111 169.026152 
L 84.23774 169.461168 
L 84.357834 169.66597 
L 84.510017 169.922957 
L 84.632687 170.128082 
L 84.814357 170.428624 
L 85.04177 170.799533 
L 85.0705 170.845981 
L 85.217829 171.082749 
L 85.377615 171.336897 
L 85.643142 171.753317 
L 85.782122 171.968411 
L 85.854375 172.079472 
L 86.137612 172.509929 
L 86.231478 172.650892 
L 86.380523 172.873028 
L 86.531774 173.096364 
L 86.716554 173.366412 
L 86.787193 173.468851 
L 87.061246 173.86218 
L 87.124182 173.951604 
L 87.254175 174.135258 
L 87.546561 174.543272 
L 87.597838 174.614118 
L 87.746498 174.818332 
L 87.935093 175.074928 
L 88.182395 175.407285 
L 88.332442 175.606711 
L 88.431895 175.737981 
L 88.596353 175.953484 
L 88.693492 176.079867 
L 88.878786 176.319101 
L 89.062936 176.554503 
L 89.180046 176.703004 
L 89.404692 176.985295 
L 89.446276 177.037184 
L 89.661565 177.304021 
L 89.801412 177.475755 
L 89.980874 177.694324 
L 90.106704 177.846376 
L 90.346421 178.133359 
L 90.487055 178.300105 
L 90.662395 178.506356 
L 90.80659 178.674618 
L 90.97595 178.87071 
L 91.029604 178.932491 
L 91.212478 179.141839 
L 91.364231 179.314139 
L 91.485084 179.450445 
L 91.686257 179.675573 
L 91.814992 179.818492 
L 92.092648 180.123747 
L 92.223047 180.265715 
L 92.40515 180.462511 
L 92.565774 180.634692 
L 92.695435 180.772736 
L 92.731585 180.811074 
L 93.033915 181.129177 
L 93.14493 181.244865 
L 93.2803 181.38513 
L 93.386932 181.495002 
L 93.639174 181.752774 
L 93.766305 181.881568 
L 93.95213 182.068485 
L 94.102611 182.218697 
L 94.166226 182.281891 
L 94.376592 182.489577 
L 94.557764 182.666872 
L 94.654343 182.760797 
L 94.885359 182.983826 
L 94.996247 183.090066 
L 95.203713 183.287438 
L 95.344385 183.420237 
L 95.412045 183.483818 
L 95.632587 183.68975 
L 95.705151 183.757071 
L 95.94292 183.976168 
L 96.149241 184.16445 
L 96.187028 184.19875 
L 96.471354 184.455038 
L 96.551759 184.526942 
L 96.647938 184.612625 
L 96.875164 184.813643 
L 96.99045 184.914883 
L 97.1353 185.041372 
L 97.279485 185.166502 
L 97.440413 185.305252 
L 97.70793 185.533797 
L 97.76393 185.581309 
L 98.036858 185.811254 
L 98.093648 185.858765 
L 98.320969 186.047802 
L 98.459919 186.162456 
L 98.580762 186.261622 
L 98.750809 186.40031 
L 98.8458 186.47735 
L 99.039106 186.633176 
L 99.162437 186.731933 
L 99.452366 186.962083 
L 99.563966 187.049927 
L 99.618517 187.092716 
L 99.811148 187.243032 
L 99.987436 187.379536 
L 100.113882 187.476825 
L 100.24428 187.576618 
L 100.419695 187.710005 
L 100.6285 187.867512 
L 100.743574 187.953729 
L 100.946643 188.104868 
L 101.099819 188.218027 
L 101.291922 188.358925 
L 101.464729 188.484709 
L 101.505089 188.513956 
L 101.781203 188.712729 
L 101.899466 188.797168 
L 102.097791 188.93784 
L 102.219251 189.023419 
L 102.424911 189.167339 
L 102.433762 189.173506 
L 102.651482 189.32447 
L 102.762152 189.400684 
L 103.056548 189.601716 
L 103.166557 189.676206 
L 103.279364 189.752235 
L 103.504082 189.902627 
L 103.541345 189.927429 
L 103.756876 190.070129 
L 103.990173 190.223148 
L 104.080212 190.281806 
L 104.25524 190.3952 
L 104.453888 190.522893 
L 104.5439 190.580404 
L 104.715748 190.689601 
L 104.793786 190.738929 
L 105.045301 190.896814 
L 105.170201 190.974598 
L 105.27806 191.041442 
L 105.492709 191.173564 
L 105.675251 191.284985 
L 105.85876 191.396132 
L 106.019571 191.492824 
L 106.091784 191.536029 
L 106.264914 191.639076 
L 106.461644 191.755252 
L 106.611671 191.843196 
L 106.747894 191.922563 
L 106.892308 192.006198 
L 106.892308 138.046154 
z
" clip-path="url(#p13e222f8f4)" style="fill: #808080; opacity: 0.5"/>
   </g>
   <g id="patch_7">
    <path d="M 200.353846 138.046154 
L 200.335121 139.573609 
L 200.316395 140.206139 
L 200.29767 140.691386 
L 200.278945 141.100375 
L 200.260219 141.46062 
L 200.241494 141.786233 
L 200.222769 142.085597 
L 200.204043 142.364175 
L 200.185318 142.625763 
L 200.166592 142.873122 
L 200.147867 143.10834 
L 200.129142 143.333037 
L 200.091691 143.755781 
L 200.05424 144.149083 
L 200.01679 144.518312 
L 199.979339 144.86738 
L 199.941888 145.199238 
L 199.904437 145.51618 
L 199.866987 145.820031 
L 199.829536 146.11227 
L 199.754634 146.666592 
L 199.698123 147.061876 
L 199.641611 147.440203 
L 199.5851 147.803544 
L 199.528588 148.153518 
L 199.472076 148.491466 
L 199.415565 148.818522 
L 199.302542 149.443674 
L 199.180568 150.080765 
L 199.058595 150.684608 
L 198.936622 151.259762 
L 198.814648 151.809823 
L 198.675172 152.411761 
L 198.535696 152.988171 
L 198.396219 153.5419 
L 198.256743 154.0753 
L 198.221804 154.205971 
L 198.049199 154.835528 
L 197.876595 155.440603 
L 197.70399 156.02367 
L 197.531386 156.586804 
L 197.295725 157.326631 
L 197.060065 158.036321 
L 196.904824 158.48889 
L 196.749582 158.930502 
L 196.594341 159.361836 
L 196.4391 159.783504 
L 196.184719 160.454987 
L 195.930338 161.104119 
L 195.847825 161.310189 
L 195.565053 162.000794 
L 195.28228 162.668793 
L 194.951884 163.42304 
L 194.705901 163.967605 
L 194.459917 164.498675 
L 194.140745 165.168937 
L 193.821573 165.819363 
L 193.500524 166.454978 
L 193.179476 167.07313 
L 193.036673 167.342764 
L 192.682517 167.998054 
L 192.328362 168.635211 
L 191.987232 169.232827 
L 191.668198 169.778234 
L 191.349164 170.311268 
L 190.99389 170.891028 
L 190.415084 171.806243 
L 190.125197 172.251735 
L 189.703513 172.885295 
L 189.121503 173.733087 
L 188.80765 174.178121 
L 188.36922 174.78629 
L 187.77079 175.592247 
L 187.344057 176.150815 
L 186.825947 176.811864 
L 186.211646 177.572523 
L 185.984474 177.847736 
L 185.397571 178.544201 
L 184.901815 179.11677 
L 184.235913 179.864268 
L 183.985083 180.139661 
L 183.23812 180.940614 
L 183.108328 181.076945 
L 182.536336 181.668077 
L 181.966147 182.242112 
L 181.395217 182.80224 
L 180.981137 183.199623 
L 180.704952 183.460639 
L 180.326116 183.813537 
L 179.758445 184.331501 
L 179.123349 184.896048 
L 178.819315 185.160885 
L 178.464639 185.465502 
L 177.809881 186.015879 
L 177.302 186.432382 
L 176.808445 186.828664 
L 176.582008 187.007736 
L 175.954776 187.494964 
L 175.302165 187.988502 
L 175.212879 188.054983 
L 174.346764 188.687187 
L 174.254818 188.75297 
L 173.727827 189.125178 
L 173.344274 189.39098 
L 172.536612 189.93697 
L 172.400902 190.026918 
L 171.874191 190.371219 
L 171.392586 190.679451 
L 170.879566 191.000999 
L 170.081174 191.487767 
L 170.058553 191.50132 
L 169.426646 191.874708 
L 169.037013 192.099971 
L 168.585077 192.356583 
L 168.080849 192.637047 
L 167.611325 192.892751 
L 166.802548 193.321088 
L 166.306074 193.576555 
L 166.023049 193.719683 
L 165.693873 193.883884 
L 165.282831 194.085533 
L 164.477701 194.469747 
L 164.097942 194.646091 
L 163.715922 194.820369 
L 163.047931 195.117685 
L 162.620724 195.302935 
L 162.534872 195.339707 
L 162.066048 195.537833 
L 161.16103 195.907635 
L 161.00853 195.968324 
L 160.393449 196.2084 
L 159.735626 196.456901 
L 159.489551 196.547686 
L 158.854961 196.776402 
L 158.330331 196.959656 
L 158.260509 196.983649 
L 157.400075 197.271776 
L 157.344657 197.289856 
L 156.723663 197.488556 
L 156.201721 197.650046 
L 155.69915 197.800821 
L 155.319754 197.911597 
L 154.67527 198.09381 
L 154.487348 198.145535 
L 154.066344 198.259126 
L 153.4335 198.423949 
L 152.990848 198.535034 
L 152.356132 198.688326 
L 152.053113 198.759032 
L 151.50217 198.883512 
L 150.867103 199.020507 
L 150.439359 199.108884 
L 150.127205 199.171408 
L 149.645453 199.264654 
L 148.958932 199.390753 
L 148.908707 199.399666 
L 148.410389 199.485808 
L 147.941164 199.563121 
L 147.46887 199.637232 
L 146.809303 199.73453 
L 146.520015 199.774933 
L 146.012547 199.842473 
L 145.448167 199.912613 
L 144.876923 199.978287 
L 144.437596 200.025166 
L 143.983692 200.070296 
L 143.66928 200.09959 
L 143.174054 200.142475 
L 142.614756 200.186128 
L 142.151307 200.218465 
L 141.716102 200.245672 
L 141.075277 200.280171 
L 140.614192 200.300902 
L 140.320407 200.312327 
L 139.777315 200.329792 
L 139.244961 200.342312 
L 138.70542 200.350358 
L 138.526553 200.351994 
L 137.864356 200.353581 
L 137.285739 200.349206 
L 136.73419 200.340032 
L 136.359928 200.331025 
L 135.937365 200.31815 
L 135.701088 200.3097 
L 134.998171 200.279251 
L 134.596292 200.258267 
L 134.177598 200.233635 
L 133.848505 200.212288 
L 133.304632 200.173173 
L 132.536637 200.10978 
L 132.439347 200.101067 
L 131.595623 200.019045 
L 131.448361 200.00354 
L 130.855439 199.937528 
L 130.5612 199.902633 
L 129.804763 199.8064 
L 129.361734 199.745663 
L 129.056173 199.701882 
L 128.505727 199.619109 
L 128.180819 199.567887 
L 127.520589 199.458376 
L 127.075496 199.380428 
L 126.539896 199.28221 
L 126.141819 199.20607 
L 125.510456 199.07979 
L 125.125474 198.999452 
L 124.841375 198.938537 
L 124.408025 198.842946 
L 124.000784 198.750158 
L 123.302977 198.584466 
L 123.007975 198.511861 
L 122.438715 198.36743 
L 121.768634 198.190072 
L 121.588407 198.141005 
L 120.748195 197.904563 
L 120.677869 197.884195 
L 120.075553 197.706074 
L 119.550433 197.545371 
L 119.321056 197.473582 
L 118.507202 197.21099 
L 118.27394 197.133446 
L 117.686062 196.933463 
L 117.074851 196.718575 
L 116.634933 196.55947 
L 116.394513 196.470934 
L 115.768284 196.235028 
L 115.265793 196.040151 
L 114.684684 195.808514 
L 114.500914 195.733849 
L 113.724657 195.410893 
L 113.326942 195.240639 
L 112.902238 195.055206 
L 112.41242 194.836648 
L 111.959466 194.630014 
L 111.700892 194.510087 
L 110.966838 194.161742 
L 110.850743 194.10557 
L 110.373155 193.87136 
L 109.917993 193.643412 
L 109.217698 193.283539 
L 108.55545 192.932827 
L 108.293669 192.791365 
L 107.919106 192.586134 
L 107.339655 192.262014 
L 106.892308 192.006198 
L 106.892308 200.353846 
L 106.904241 201.573222 
L 106.916173 202.078222 
L 106.928106 202.465665 
L 106.940039 202.792248 
L 106.951972 203.079932 
L 106.963905 203.33998 
L 106.975838 203.579085 
L 106.987771 203.801606 
L 106.999704 204.010573 
L 107.011636 204.20819 
L 107.035502 204.575663 
L 107.059368 204.913493 
L 107.083234 205.227846 
L 107.1071 205.523008 
L 107.130965 205.802098 
L 107.154831 206.067473 
L 107.178697 206.320962 
L 107.226428 206.79783 
L 107.27416 207.241432 
L 107.307605 207.535765 
L 107.34105 207.818352 
L 107.40794 208.353215 
L 107.474831 208.853964 
L 107.541721 209.326313 
L 107.608611 209.774534 
L 107.675502 210.201923 
L 107.742392 210.611084 
L 107.809282 211.004118 
L 107.919854 211.622928 
L 108.030425 212.208451 
L 108.140997 212.765399 
L 108.251568 213.297462 
L 108.400451 213.979681 
L 108.549334 214.627782 
L 108.683593 215.186683 
L 108.817853 215.724104 
L 108.952112 216.242224 
L 109.086372 216.742874 
L 109.26126 217.371366 
L 109.436148 217.975723 
L 109.611037 218.55835 
L 109.785925 219.12127 
L 109.972552 219.702176 
L 110.16008 220.267067 
L 110.347608 220.81465 
L 110.535136 221.34628 
L 110.722664 221.863141 
L 110.934865 222.431494 
L 111.147065 222.983589 
L 111.408269 223.642563 
L 111.669473 224.280546 
L 111.87387 224.766206 
L 112.086618 225.259872 
L 112.299366 225.742159 
L 112.512115 226.213702 
L 112.724863 226.675081 
L 112.807428 226.851512 
L 113.124633 227.516351 
L 113.441837 228.161684 
L 113.815916 228.899455 
L 114.299747 229.819261 
L 114.606178 230.383218 
L 114.91261 230.933706 
L 115.322106 231.64955 
L 115.7127 232.312527 
L 116.060454 232.887477 
L 116.408207 233.448787 
L 116.673712 233.868583 
L 117.167641 234.6304 
L 117.517568 235.155783 
L 117.921238 235.747872 
L 118.324907 236.325689 
L 118.865278 237.07801 
L 119.055617 237.337483 
L 119.6534 238.134568 
L 119.91812 238.479229 
L 120.458924 239.168225 
L 121.214255 240.098239 
L 121.487673 240.426061 
L 121.737182 240.721277 
L 122.525577 241.630313 
L 122.846853 241.99078 
L 123.184821 242.363986 
L 123.721492 242.944383 
L 124.21922 243.469713 
L 124.697652 243.963358 
L 125.046787 244.316811 
L 125.509689 244.776873 
L 126.144455 245.392369 
L 126.641437 245.862276 
L 127.151609 246.334073 
L 127.427238 246.584624 
L 128.139388 247.218275 
L 128.526662 247.554779 
L 128.779796 247.771729 
L 129.597722 248.456945 
L 129.93587 248.733353 
L 130.282716 249.012797 
L 130.759279 249.390154 
L 131.536235 249.989411 
L 131.802093 250.190028 
L 132.251967 250.524468 
L 132.707948 250.8571 
L 133.418552 251.363026 
L 133.801156 251.629282 
L 134.202336 251.903939 
L 134.407878 252.042885 
L 135.083917 252.491562 
L 135.537559 252.785598 
L 136.088022 253.134955 
L 136.354909 253.301448 
L 137.119496 253.768168 
L 137.213194 253.824331 
L 137.752572 254.143323 
L 138.330135 254.476854 
L 138.656973 254.661968 
L 139.142926 254.932421 
L 139.671029 255.219941 
L 140.314377 255.561358 
L 140.553099 255.685606 
L 141.274041 256.052942 
L 141.843916 256.335032 
L 141.882066 256.353659 
L 142.450848 256.627564 
L 142.938663 256.856861 
L 143.668506 257.190378 
L 143.957466 257.319301 
L 144.65644 257.623927 
L 145.048977 257.790565 
L 145.224598 257.864094 
L 146.106724 258.223952 
L 146.305551 258.302899 
L 146.907087 258.536958 
L 147.391355 258.720202 
L 147.674896 258.825364 
L 148.155224 258.999954 
L 148.815367 259.232664 
L 148.95372 259.280382 
L 149.715025 259.536481 
L 150.22919 259.703293 
L 150.655708 259.837943 
L 151.261589 260.023453 
L 151.719471 260.159194 
L 152.067969 260.259956 
L 152.302225 260.326454 
L 152.985151 260.514691 
L 153.165275 260.562949 
L 154.076738 260.798329 
L 154.446898 260.88974 
L 154.723024 260.956368 
L 155.355105 261.103887 
L 155.790064 261.201378 
L 156.14168 261.277805 
L 156.696797 261.394148 
L 157.17025 261.489217 
L 157.744753 261.599465 
L 158.280325 261.697218 
L 158.385291 261.71581 
L 158.795665 261.786723 
L 159.632364 261.922579 
L 159.752318 261.9411 
L 160.285928 262.020594 
L 161.120941 262.135537 
L 161.358593 262.16615 
L 161.869683 262.228841 
L 162.309303 262.27934 
L 162.60483 262.311511 
L 163.068198 262.359084 
L 163.681439 262.416669 
L 164.263359 262.465665 
L 164.646676 262.494942 
L 165.131776 262.528584 
L 165.543225 262.55414 
L 166.213196 262.589909 
L 166.432972 262.600068 
L 167.240032 262.630704 
L 167.416913 262.63602 
L 168.044235 262.650818 
L 168.649556 262.659107 
L 169.06362 262.661389 
L 169.470059 262.660953 
L 169.967304 262.656814 
L 170.32101 262.651453 
L 170.824855 262.640348 
L 171.221073 262.628751 
L 171.938104 262.601347 
L 172.332253 262.582758 
L 172.486241 262.574816 
L 173.216938 262.531919 
L 173.62323 262.504337 
L 173.983156 262.477674 
L 174.337073 262.44941 
L 175.127711 262.378928 
L 175.570754 262.334989 
L 175.870249 262.303473 
L 176.186962 262.268553 
L 176.706011 262.207773 
L 177.553251 262.099062 
L 178.028725 262.032871 
L 178.454023 261.970496 
L 178.603669 261.947835 
L 179.275223 261.841556 
L 179.849494 261.744699 
L 180.074526 261.705237 
L 180.685846 261.593734 
L 181.083398 261.517834 
L 181.371992 261.461056 
L 182.245111 261.280635 
L 182.638446 261.195088 
L 183.022202 261.109054 
L 183.281755 261.04942 
L 184.088803 260.856508 
L 184.263138 260.81334 
L 184.732819 260.69438 
L 185.398774 260.519021 
L 185.671581 260.444907 
L 186.031564 260.34507 
L 186.748726 260.139218 
L 187.209821 260.001938 
L 187.705811 259.849926 
L 188.036149 259.746169 
L 188.722346 259.524164 
L 189.283541 259.336046 
L 189.570152 259.237676 
L 190.07291 259.061343 
L 190.707892 258.831697 
L 191.163856 258.661972 
L 191.326769 258.600345 
L 191.938206 258.364384 
L 192.24709 258.242361 
L 193.030388 257.924335 
L 193.402565 257.768865 
L 193.730351 257.629586 
L 194.460558 257.31131 
L 194.592793 257.25248 
L 195.314466 256.924892 
L 195.62784 256.779176 
L 196.122844 256.544673 
L 196.754642 256.237567 
L 197.05589 256.088018 
L 197.676763 255.77336 
L 198.17134 255.516424 
L 198.629744 255.27323 
L 198.890315 255.1328 
L 199.493444 254.801581 
L 199.945113 254.547817 
L 200.353846 254.313891 
z
" clip-path="url(#p13e222f8f4)" style="fill: #808080; opacity: 0.5"/>
   </g>
   <g id="patch_8">
    <path d="M 231.507692 200.353846 
L 231.504005 199.67604 
L 231.500319 199.395297 
L 231.496632 199.179886 
L 231.492945 198.998294 
L 231.489258 198.838315 
L 231.485571 198.693689 
L 231.481885 198.560698 
L 231.478198 198.436919 
L 231.474511 198.320668 
L 231.470824 198.21072 
L 231.467137 198.106149 
L 231.46345 198.006238 
L 231.459764 197.910415 
L 231.456077 197.818215 
L 231.448703 197.643223 
L 231.441329 197.478881 
L 231.433956 197.323456 
L 231.426582 197.17564 
L 231.419209 197.034417 
L 231.411835 196.898977 
L 231.404461 196.768665 
L 231.397088 196.642941 
L 231.389714 196.521353 
L 231.377225 196.323806 
L 231.364736 196.135537 
L 231.352247 195.955355 
L 231.339758 195.782302 
L 231.327269 195.615599 
L 231.31478 195.454596 
L 231.302291 195.29875 
L 231.289802 195.147596 
L 231.277313 195.000739 
L 231.264824 194.857832 
L 231.252335 194.718575 
L 231.239846 194.582705 
L 231.214868 194.320215 
L 231.18989 194.068776 
L 231.16582 193.835738 
L 231.141749 193.610835 
L 231.117679 193.393278 
L 231.093609 193.182398 
L 231.069539 192.977624 
L 231.045469 192.778459 
L 231.021399 192.584473 
L 230.997329 192.395286 
L 230.97289 192.207768 
L 230.948451 192.024543 
L 230.924013 191.845333 
L 230.899574 191.669889 
L 230.871746 191.474415 
L 230.843918 191.283238 
L 230.81609 191.096091 
L 230.788262 190.912736 
L 230.736052 190.578219 
L 230.683842 190.255047 
L 230.631632 189.942163 
L 230.579422 189.638665 
L 230.528395 189.350372 
L 230.477369 189.069672 
L 230.426342 188.796012 
L 230.375316 188.528904 
L 230.315463 188.223361 
L 230.255611 187.925615 
L 230.213518 187.720591 
L 230.171426 187.518981 
L 230.118302 187.26916 
L 230.065178 187.024232 
L 230.012054 186.783933 
L 229.958931 186.548019 
L 229.877788 186.195649 
L 229.796646 185.852293 
L 229.745512 185.640266 
L 229.694379 185.431427 
L 229.602434 185.063508 
L 229.510489 184.704777 
L 229.4428 184.446187 
L 229.37511 184.192017 
L 229.30742 183.942063 
L 229.23973 183.696133 
L 229.168153 183.440269 
L 229.096577 183.188516 
L 229.025894 182.943764 
L 228.955211 182.702689 
L 228.877956 182.443234 
L 228.776084 182.107236 
L 228.674211 181.777873 
L 228.547075 181.375616 
L 228.416809 180.972979 
L 228.311532 180.654219 
L 228.206255 180.341089 
L 228.106871 180.050421 
L 228.007487 179.764334 
L 227.920483 179.517499 
L 227.83348 179.273913 
L 227.728206 178.983361 
L 227.569185 178.552773 
L 227.398309 178.100636 
L 227.238235 177.68643 
L 227.13385 177.420954 
L 227.022135 177.14072 
L 226.91042 176.86436 
L 226.766655 176.5142 
L 226.707202 176.371139 
L 226.518319 175.923151 
L 226.36805 175.57356 
L 226.231205 175.260219 
L 226.09775 174.959072 
L 225.964295 174.662149 
L 225.860859 174.434826 
L 225.725712 174.1414 
L 225.522132 173.706782 
L 225.447571 173.549755 
L 225.210785 173.058417 
L 225.024382 172.679185 
L 224.989885 172.609706 
L 224.731226 172.095547 
L 224.609114 171.856853 
L 224.488958 171.624425 
L 224.234302 171.139566 
L 224.112385 170.911046 
L 224.002471 170.706964 
L 223.835148 170.39973 
L 223.756475 170.256677 
L 223.582143 169.942811 
L 223.341466 169.516366 
L 223.23847 169.336234 
L 223.120272 169.131214 
L 222.915186 168.77969 
L 222.713925 168.439768 
L 222.615842 168.275873 
L 222.352439 167.841283 
L 222.284684 167.730774 
L 222.096963 167.427263 
L 221.956791 167.203137 
L 221.770472 166.908458 
L 221.717538 166.8254 
L 221.477268 166.451991 
L 221.345044 166.248965 
L 221.18727 166.008944 
L 221.049223 165.800893 
L 220.896015 165.57209 
L 220.774863 165.392696 
L 220.508322 165.002685 
L 220.343365 164.764455 
L 220.295992 164.696475 
L 220.121415 164.447607 
L 219.86049 164.080394 
L 219.814023 164.015586 
L 219.586034 163.700113 
L 219.519832 163.609281 
L 219.352572 163.381315 
L 219.113565 163.059282 
L 218.917253 162.797978 
L 218.81507 162.663087 
L 218.658337 162.457654 
L 218.547054 162.312859 
L 218.280856 161.97002 
L 218.173927 161.833683 
L 218.093077 161.731112 
L 217.81136 161.377133 
L 217.773094 161.329455 
L 217.560162 161.065893 
L 217.363089 160.824549 
L 217.314077 160.764907 
L 217.063031 160.461757 
L 216.893484 160.259207 
L 216.841586 160.197553 
L 216.671215 159.996291 
L 216.496878 159.792117 
L 216.371815 159.646741 
L 216.143415 159.38356 
L 215.953782 159.16729 
L 215.881995 159.085943 
L 215.622822 158.79461 
L 215.581107 158.74806 
L 215.343058 158.484207 
L 215.256818 158.389361 
L 215.146281 158.268364 
L 214.916894 158.019296 
L 214.744349 157.833724 
L 214.607994 157.688139 
L 214.391992 157.459413 
L 214.215397 157.274123 
L 214.060791 157.113148 
L 214.000321 157.0505 
L 213.818502 156.863183 
L 213.728999 156.771547 
L 213.442514 156.480751 
L 213.3224 156.359957 
L 213.135475 156.173278 
L 213.073001 156.111239 
L 212.816985 155.858822 
L 212.735278 155.778874 
L 212.561658 155.609963 
L 212.453049 155.504963 
L 212.209934 155.271765 
L 212.085397 155.153279 
L 211.925052 155.001686 
L 211.851167 154.932194 
L 211.61643 154.712911 
L 211.541036 154.642959 
L 211.390041 154.503557 
L 211.155408 154.288759 
L 211.039676 154.183617 
L 210.775527 153.945614 
L 210.654592 153.837555 
L 210.601363 153.790173 
L 210.30524 153.528556 
L 210.278644 153.505223 
L 210.085333 153.336423 
L 209.91037 153.184849 
L 209.67528 152.982967 
L 209.557978 152.882991 
L 209.444382 152.786649 
L 209.300728 152.665481 
L 209.136499 152.527864 
L 208.970175 152.389466 
L 208.810991 152.257922 
L 208.695385 152.162944 
L 208.432128 151.948385 
L 208.409238 151.929842 
L 208.161044 151.729927 
L 207.965569 151.573941 
L 207.868724 151.497134 
L 207.745066 151.399516 
L 207.558992 151.253579 
L 207.393208 151.124512 
L 207.218552 150.989505 
L 207.106583 150.903472 
L 207.005104 150.825848 
L 206.69587 150.591328 
L 206.658898 150.563491 
L 206.537343 150.472273 
L 206.34894 150.331803 
L 206.130301 150.17017 
L 206.005813 150.078796 
L 205.785693 149.918387 
L 205.751072 149.893291 
L 205.449164 149.675975 
L 205.422645 149.657016 
L 205.238798 149.526161 
L 204.990964 149.351342 
L 204.923155 149.303825 
L 204.75363 149.185615 
L 204.621424 149.094006 
L 204.364616 148.917494 
L 204.212417 148.813772 
L 204.16224 148.779722 
L 203.9772 148.654766 
L 203.82126 148.550208 
L 203.609204 148.409114 
L 203.498731 148.336103 
L 203.349927 148.238292 
L 203.142791 148.103148 
L 203.087467 148.06725 
L 202.804034 147.884642 
L 202.735231 147.84064 
L 202.469388 147.671815 
L 202.442744 147.654999 
L 202.183821 147.492555 
L 202.055473 147.412686 
L 201.901802 147.317626 
L 201.714938 147.20286 
L 201.543259 147.098216 
L 201.452547 147.043231 
L 201.262725 146.92885 
L 201.199245 146.890805 
L 201.045283 146.798954 
L 200.809345 146.65936 
L 200.634711 146.556937 
L 200.520597 146.490419 
L 200.353846 146.393802 
L 200.353846 254.313891 
L 200.530272 254.211646 
L 200.687912 254.119634 
L 200.748289 254.084229 
L 200.951402 253.964451 
L 201.203093 253.814585 
L 201.331193 253.737692 
L 201.489542 253.642062 
L 201.59361 253.578864 
L 201.828361 253.43528 
L 201.958145 253.355284 
L 202.08499 253.276676 
L 202.210138 253.198707 
L 202.412016 253.072064 
L 202.602944 252.951297 
L 202.681582 252.901274 
L 202.788501 252.832996 
L 203.074106 252.649099 
L 203.16188 252.592139 
L 203.399903 252.436619 
L 203.508148 252.365379 
L 203.677444 252.25331 
L 203.751443 252.204076 
L 203.933096 252.082567 
L 204.034697 252.014203 
L 204.211245 251.894716 
L 204.477799 251.712637 
L 204.599119 251.629092 
L 204.798753 251.490695 
L 204.938785 251.392927 
L 204.993049 251.354887 
L 205.201976 251.20762 
L 205.288163 251.146493 
L 205.543898 250.963821 
L 205.68722 250.860591 
L 205.861317 250.734362 
L 205.984604 250.644416 
L 206.157509 250.517489 
L 206.379471 250.353201 
L 206.421751 250.321734 
L 206.637198 250.16052 
L 206.733686 250.087848 
L 206.97722 249.903117 
L 207.09216 249.815273 
L 207.169042 249.756279 
L 207.464978 249.527416 
L 207.600203 249.42189 
L 207.736641 249.314808 
L 207.916713 249.172538 
L 208.018664 249.09151 
L 208.218908 248.931345 
L 208.374142 248.806247 
L 208.430767 248.76041 
L 208.713438 248.529947 
L 208.838774 248.426875 
L 208.908372 248.369403 
L 209.16471 248.156257 
L 209.275923 248.063058 
L 209.444886 247.920617 
L 209.54467 247.836013 
L 209.824078 247.597182 
L 209.945311 247.492664 
L 209.990833 247.453278 
L 210.236811 247.239118 
L 210.395314 247.099911 
L 210.588212 246.929209 
L 210.648435 246.875623 
L 210.848802 246.69633 
L 211.034892 246.52841 
L 211.116986 246.453899 
L 211.320763 246.267786 
L 211.454111 246.145097 
L 211.661384 245.952962 
L 211.739624 245.87998 
L 211.948837 245.683587 
L 212.162291 245.481333 
L 212.262003 245.386195 
L 212.35242 245.29956 
L 212.631263 245.03017 
L 212.715488 244.948138 
L 212.950913 244.717188 
L 213.061848 244.607511 
L 213.118543 244.551245 
L 213.401046 244.268719 
L 213.577665 244.090232 
L 213.604074 244.063418 
L 213.843505 243.818844 
L 214.047292 243.608544 
L 214.091301 243.562868 
L 214.278395 243.367644 
L 214.500335 243.133844 
L 214.532481 243.099778 
L 214.819469 242.793363 
L 214.840725 242.770503 
L 215.115843 242.472535 
L 215.230425 242.34728 
L 215.409949 242.149649 
L 215.616427 241.920225 
L 215.770791 241.747202 
L 215.783102 241.733347 
L 215.956525 241.537288 
L 216.111849 241.360272 
L 216.278201 241.16918 
L 216.493038 240.920053 
L 216.583251 240.814642 
L 216.765224 240.60056 
L 216.874705 240.470813 
L 217.112164 240.186911 
L 217.227016 240.048358 
L 217.422653 239.810458 
L 217.622253 239.565247 
L 217.706598 239.460859 
L 217.909194 239.208228 
L 218.042337 239.040725 
L 218.174189 238.873677 
L 218.343449 238.657501 
L 218.52765 238.419991 
L 218.680547 238.221035 
L 218.777703 238.093744 
L 219.004712 237.793654 
L 219.068267 237.708959 
L 219.252236 237.462095 
L 219.383777 237.28401 
L 219.605257 236.981139 
L 219.713936 236.83111 
L 219.891973 236.583287 
L 220.084761 236.312012 
L 220.189142 236.163844 
L 220.407566 235.8508 
L 220.500628 235.716171 
L 220.654631 235.491709 
L 220.891658 235.142078 
L 220.943461 235.064979 
L 221.14592 234.761257 
L 221.289067 234.544161 
L 221.475237 234.258832 
L 221.617953 234.037769 
L 221.867855 233.645671 
L 221.88819 233.613478 
L 222.15512 233.186814 
L 222.244738 233.04183 
L 222.427486 232.743401 
L 222.557348 232.529022 
L 222.754045 232.200554 
L 222.883612 231.981655 
L 223.03381 231.725321 
L 223.281147 231.296988 
L 223.293096 231.276096 
L 223.470727 230.963267 
L 223.632374 230.674882 
L 223.808634 230.356273 
L 223.990372 230.023084 
L 224.126376 229.770539 
L 224.341501 229.365281 
L 224.519656 229.024113 
L 224.655856 228.75977 
L 224.799161 228.478244 
L 224.907589 228.26286 
L 225.150312 227.77302 
L 225.29815 227.469267 
L 225.464784 227.121785 
L 225.569954 226.899596 
L 225.790157 226.426872 
L 225.80483 226.395002 
L 225.950422 226.076173 
L 226.096015 225.752507 
L 226.152058 225.626591 
L 226.343376 225.190978 
L 226.506809 224.811527 
L 226.677939 224.406601 
L 226.743135 224.250208 
L 226.852851 223.984278 
L 226.962566 223.714806 
L 227.137209 223.27825 
L 227.204759 223.106791 
L 227.333963 222.774615 
L 227.463167 222.436688 
L 227.574156 222.141604 
L 227.675688 221.86762 
L 227.777219 221.589616 
L 227.894273 221.263911 
L 228.060679 220.790797 
L 228.162652 220.494706 
L 228.264624 220.193673 
L 228.391076 219.813164 
L 228.469266 219.573696 
L 228.543824 219.342239 
L 228.618382 219.107629 
L 228.69294 218.869747 
L 228.767498 218.628464 
L 228.897106 218.200529 
L 228.984038 217.907118 
L 229.065034 217.628865 
L 229.14603 217.345669 
L 229.267508 216.911112 
L 229.328247 216.68916 
L 229.388986 216.463921 
L 229.450287 216.233122 
L 229.542999 215.877088 
L 229.63571 215.512127 
L 229.727491 215.141388 
L 229.798235 214.848756 
L 229.86898 214.549741 
L 229.939724 214.243931 
L 230.010469 213.930865 
L 230.09257 213.557764 
L 230.174672 213.173283 
L 230.206976 213.018654 
L 230.273038 212.696156 
L 230.339099 212.364638 
L 230.40516 212.023333 
L 230.471221 211.671354 
L 230.515803 211.427277 
L 230.571869 211.112204 
L 230.627935 210.78732 
L 230.684 210.451678 
L 230.740066 210.104167 
L 230.779083 209.854638 
L 230.8181 209.598212 
L 230.857116 209.334298 
L 230.896133 209.062214 
L 230.933113 208.796075 
L 230.970094 208.5211 
L 231.00016 208.29039 
L 231.030226 208.052652 
L 231.060293 207.807214 
L 231.090359 207.553288 
L 231.120425 207.289942 
L 231.150492 207.01606 
L 231.165525 206.874754 
L 231.180558 206.730282 
L 231.195591 206.582424 
L 231.210624 206.430932 
L 231.227457 206.256653 
L 231.244289 206.07702 
L 231.261121 205.891511 
L 231.277954 205.699516 
L 231.292312 205.530068 
L 231.306671 205.35484 
L 231.32103 205.173202 
L 231.335388 204.984401 
L 231.349747 204.787521 
L 231.364106 204.581433 
L 231.378464 204.364718 
L 231.385644 204.251826 
L 231.392823 204.135551 
L 231.400002 204.015571 
L 231.407182 203.891511 
L 231.414361 203.762923 
L 231.42154 203.629276 
L 231.42872 203.489922 
L 231.435899 203.344063 
L 231.443078 203.190697 
L 231.450258 203.028532 
L 231.457437 202.855858 
L 231.464616 202.670325 
L 231.471796 202.468554 
L 231.478975 202.245353 
L 231.486154 201.991986 
L 231.493334 201.69142 
L 231.500513 201.299681 
z
" clip-path="url(#p13e222f8f4)" style="fill: #808080; opacity: 0.5"/>
   </g>
   <g id="matplotlib.axis_1"/>
   <g id="matplotlib.axis_2"/>
   <g id="line2d_1">
    <path d="M 106.892308 84.086109 
L 110.124913 82.344692 
L 113.512017 80.772035 
L 117.109041 79.361524 
L 120.390425 78.292294 
L 124.228876 77.289826 
L 128.030954 76.548639 
L 131.663436 76.066242 
L 135.428399 75.793476 
L 138.706332 75.741959 
L 142.427592 75.892702 
L 145.841194 76.227986 
L 149.837642 76.864381 
L 152.94649 77.546331 
L 156.601483 78.565499 
L 160.275363 79.838673 
L 163.838917 81.32771 
L 167.133438 82.944626 
L 170.162489 84.653368 
L 173.536371 86.833919 
L 176.356412 88.907853 
L 179.045634 91.128234 
L 181.696283 93.583644 
L 184.125833 96.106772 
L 186.596074 98.992936 
L 189.183028 102.447438 
L 191.445646 105.940971 
L 193.370736 109.385395 
L 194.921403 112.601025 
L 196.432946 116.292279 
L 197.611495 119.764507 
L 198.552194 123.171086 
L 199.338348 126.842788 
L 199.909628 130.61924 
L 200.251334 134.473474 
L 200.353846 138.046154 
L 200.353846 138.046154 
" clip-path="url(#p13e222f8f4)" style="fill: none; stroke: #0000ff; stroke-linecap: square"/>
   </g>
   <g id="line2d_2">
    <path d="M 75.738462 138.046154 
L 75.874423 133.932231 
L 76.23312 130.210507 
L 76.827745 126.446373 
L 77.640915 122.766898 
L 78.625606 119.299234 
L 79.929172 115.581405 
L 81.347815 112.209225 
L 82.98948 108.874058 
L 84.79426 105.696744 
L 86.886304 102.480464 
L 89.063761 99.536756 
L 91.327548 96.819701 
L 93.973429 94.0025 
L 96.583177 91.537337 
L 99.407112 89.165964 
L 102.307415 87.007041 
L 105.407697 84.970928 
L 106.892308 84.086109 
L 106.892308 84.086109 
" clip-path="url(#p13e222f8f4)" style="fill: none; stroke: #0000ff; stroke-linecap: square"/>
   </g>
   <g id="line2d_3">
    <path d="M 75.738462 138.046154 
L 75.859183 141.922901 
L 76.193817 145.565257 
L 76.769465 149.334022 
L 77.496838 152.744073 
L 78.487308 156.348952 
L 79.67979 159.854777 
L 81.045336 163.20873 
L 82.697348 166.660105 
L 84.510017 169.922957 
L 86.531774 173.096364 
L 88.693492 176.079867 
L 91.029604 178.932491 
L 93.639174 181.752774 
L 96.187028 184.19875 
L 99.162437 186.731933 
L 102.219251 189.023419 
L 105.27806 191.041442 
L 106.892308 192.006198 
L 106.892308 192.006198 
" clip-path="url(#p13e222f8f4)" style="fill: none; stroke: #0000ff; stroke-linecap: square"/>
   </g>
   <g id="line2d_4">
    <path d="M 106.892308 200.353846 
L 107.035502 204.575663 
L 107.40794 208.353215 
L 108.030425 212.208451 
L 108.817853 215.724104 
L 109.785925 219.12127 
L 110.934865 222.431494 
L 112.299366 225.742159 
L 113.815916 228.899455 
L 115.7127 232.312527 
L 117.517568 235.155783 
L 119.6534 238.134568 
L 121.737182 240.721277 
L 124.21922 243.469713 
L 126.641437 245.862276 
L 129.597722 248.456945 
L 132.707948 250.8571 
L 136.088022 253.134955 
L 139.142926 254.932421 
L 142.450848 256.627564 
L 146.106724 258.223952 
L 148.95372 259.280382 
L 152.302225 260.326454 
L 156.14168 261.277805 
L 159.752318 261.9411 
L 163.681439 262.416669 
L 167.416913 262.63602 
L 171.221073 262.628751 
L 175.127711 262.378928 
L 178.603669 261.947835 
L 182.245111 261.280635 
L 186.031564 260.34507 
L 189.570152 259.237676 
L 193.030388 257.924335 
L 196.122844 256.544673 
L 199.493444 254.801581 
L 200.353846 254.313891 
L 200.353846 254.313891 
" clip-path="url(#p13e222f8f4)" style="fill: none; stroke: #228b22; stroke-linecap: square"/>
   </g>
   <g id="line2d_5">
    <path d="M 200.353846 254.313891 
L 203.508148 252.365379 
L 206.421751 250.321734 
L 209.275923 248.063058 
L 211.948837 245.683587 
L 214.532481 243.099778 
L 217.112164 240.186911 
L 219.383777 237.28401 
L 221.475237 234.258832 
L 223.470727 230.963267 
L 225.150312 227.77302 
L 226.743135 224.250208 
L 228.060679 220.790797 
L 229.14603 217.345669 
L 230.09257 213.557764 
L 230.779083 209.854638 
L 231.244289 206.07702 
L 231.471796 202.468554 
L 231.507692 200.353846 
L 231.507692 200.353846 
" clip-path="url(#p13e222f8f4)" style="fill: none; stroke: #228b22; stroke-linecap: square"/>
   </g>
   <g id="text_1">
    <!-- $\Omega$ -->
    <g transform="translate(16.011538 22.420913) scale(0.1 -0.1)">
     <defs>
      <path id="Cmr10-ad" d="M 494 0 
L 281 1063 
L 469 1063 
Q 503 878 531 736 
Q 559 594 604 536 
Q 650 478 750 459 
Q 850 441 1081 441 
L 1472 441 
Q 1378 803 1004 1386 
Q 631 1969 495 2233 
Q 359 2497 359 2913 
Q 359 3397 646 3761 
Q 934 4125 1389 4319 
Q 1844 4513 2309 4513 
Q 2772 4513 3226 4319 
Q 3681 4125 3968 3758 
Q 4256 3391 4256 2913 
Q 4256 2588 4137 2300 
Q 4019 2013 3834 1725 
Q 3650 1438 3436 1084 
Q 3222 731 3144 441 
L 3531 441 
Q 3766 441 3869 459 
Q 3972 478 4015 536 
Q 4059 594 4086 736 
Q 4113 878 4147 1063 
L 4331 1063 
L 4122 0 
L 2988 0 
Q 2925 0 2925 84 
Q 2925 409 3004 721 
Q 3084 1034 3240 1478 
Q 3397 1922 3484 2261 
Q 3572 2600 3572 2913 
Q 3572 3297 3422 3625 
Q 3272 3953 2984 4150 
Q 2697 4347 2309 4347 
Q 1725 4347 1384 3930 
Q 1044 3513 1044 2913 
Q 1047 2584 1122 2293 
Q 1197 2003 1364 1518 
Q 1531 1034 1611 721 
Q 1691 409 1691 84 
Q 1691 0 1625 0 
L 494 0 
z
" transform="scale(0.015625)"/>
     </defs>
     <use xlink:href="#Cmr10-ad" transform="translate(0 0.484375)"/>
    </g>
   </g>
   <g id="text_2">
    <!-- $A$ -->
    <g style="fill: #0000ff" transform="translate(103.142308 78.497837) scale(0.1 -0.1)">
     <defs>
      <path id="Cmmi10-41" d="M 288 0 
Q 225 0 225 84 
Q 250 225 306 225 
Q 566 225 755 328 
Q 944 431 1081 647 
Q 1094 659 1094 659 
L 3378 4513 
Q 3428 4581 3500 4581 
L 3584 4581 
Q 3603 4581 3622 4573 
Q 3641 4566 3655 4548 
Q 3669 4531 3669 4513 
L 4056 378 
Q 4056 350 4084 294 
Q 4147 225 4563 225 
Q 4628 225 4628 141 
Q 4606 56 4592 28 
Q 4578 0 4519 0 
L 2919 0 
Q 2859 0 2859 84 
Q 2894 225 2944 225 
Q 3450 225 3481 397 
L 3384 1453 
L 1806 1453 
L 1294 594 
Q 1247 525 1247 434 
Q 1247 322 1355 273 
Q 1463 225 1594 225 
Q 1656 225 1656 141 
Q 1634 50 1621 25 
Q 1609 0 1550 0 
L 288 0 
z
M 1931 1678 
L 3359 1678 
L 3169 3750 
L 1931 1678 
z
" transform="scale(0.015625)"/>
     </defs>
     <use xlink:href="#Cmmi10-41" transform="translate(0 0.421875)"/>
    </g>
   </g>
   <g id="text_3">
    <!-- $B$ -->
    <g style="fill: #ff0000" transform="translate(227.707692 78.497837) scale(0.1 -0.1)">
     <defs>
      <path id="Cmmi10-42" d="M 319 0 
Q 256 0 256 84 
Q 259 100 268 137 
Q 278 175 293 200 
Q 309 225 341 225 
Q 522 225 656 234 
Q 791 244 884 269 
Q 959 297 1006 441 
L 1881 3956 
Q 1894 4019 1894 4044 
Q 1894 4113 1819 4122 
Q 1697 4147 1356 4147 
Q 1294 4147 1294 4231 
Q 1297 4247 1306 4286 
Q 1316 4325 1333 4348 
Q 1350 4372 1375 4372 
L 3669 4372 
Q 3878 4372 4083 4320 
Q 4288 4269 4461 4156 
Q 4634 4044 4736 3876 
Q 4838 3709 4838 3488 
Q 4838 3247 4714 3040 
Q 4591 2834 4395 2681 
Q 4200 2528 3973 2429 
Q 3747 2331 3500 2284 
Q 3675 2284 3854 2215 
Q 4034 2147 4175 2028 
Q 4316 1909 4402 1743 
Q 4488 1578 4488 1388 
Q 4488 1003 4219 684 
Q 3950 366 3542 183 
Q 3134 0 2753 0 
L 319 0 
z
M 1497 275 
Q 1497 225 1716 225 
L 2631 225 
Q 2944 225 3231 398 
Q 3519 572 3692 859 
Q 3866 1147 3866 1459 
Q 3866 1650 3786 1820 
Q 3706 1991 3556 2089 
Q 3406 2188 3213 2188 
L 1966 2188 
L 1522 416 
Q 1497 328 1497 275 
z
M 2009 2356 
L 2981 2356 
Q 3288 2356 3577 2512 
Q 3866 2669 4048 2937 
Q 4231 3206 4231 3506 
Q 4231 3784 4057 3965 
Q 3884 4147 3609 4147 
L 2731 4147 
Q 2559 4147 2500 4115 
Q 2441 4084 2400 3928 
L 2009 2356 
z
" transform="scale(0.015625)"/>
     </defs>
     <use xlink:href="#Cmmi10-42" transform="translate(0 0.6875)"/>
    </g>
   </g>
   <g id="text_4">
    <!-- $C$ -->
    <g style="fill: #228b22" transform="translate(150.023077 271.651683) scale(0.1 -0.1)">
     <defs>
      <path id="Cmmi10-43" d="M 934 1381 
Q 934 997 1082 705 
Q 1231 413 1514 248 
Q 1797 84 2181 84 
Q 2584 84 2957 290 
Q 3331 497 3595 842 
Q 3859 1188 3956 1575 
Q 3969 1613 4006 1613 
L 4084 1613 
Q 4109 1613 4125 1595 
Q 4141 1578 4141 1556 
Q 4141 1550 4134 1538 
Q 4025 1094 3711 705 
Q 3397 316 2959 87 
Q 2522 -141 2059 -141 
Q 1559 -141 1162 84 
Q 766 309 545 709 
Q 325 1109 325 1613 
Q 325 2150 565 2676 
Q 806 3203 1212 3614 
Q 1619 4025 2139 4269 
Q 2659 4513 3194 4513 
Q 3406 4513 3600 4448 
Q 3794 4384 3959 4253 
Q 4125 4122 4231 3950 
L 4738 4500 
Q 4738 4513 4769 4513 
L 4806 4513 
Q 4831 4513 4847 4491 
Q 4863 4469 4863 4447 
L 4428 2719 
Q 4428 2675 4378 2675 
L 4263 2675 
Q 4213 2675 4213 2747 
Q 4238 2888 4238 3084 
Q 4238 3397 4131 3673 
Q 4025 3950 3801 4119 
Q 3578 4288 3256 4288 
Q 2734 4288 2300 4025 
Q 1866 3763 1564 3336 
Q 1263 2909 1098 2389 
Q 934 1869 934 1381 
z
" transform="scale(0.015625)"/>
     </defs>
     <use xlink:href="#Cmmi10-43" transform="translate(0 0.484375)"/>
    </g>
   </g>
   <g id="patch_9">
    <path d="M 138.046154 200.353846 
C 154.570347 200.353846 170.419977 193.788715 182.104346 182.104346 
C 193.788715 170.419977 200.353846 154.570347 200.353846 138.046154 
C 200.353846 121.521961 193.788715 105.672331 182.104346 93.987962 
C 170.419977 82.303593 154.570347 75.738462 138.046154 75.738462 
C 121.521961 75.738462 105.672331 82.303593 93.987962 93.987962 
C 82.303593 105.672331 75.738462 121.521961 75.738462 138.046154 
C 75.738462 154.570347 82.303593 170.419977 93.987962 182.104346 
C 105.672331 193.788715 121.521961 200.353846 138.046154 200.353846 
L 138.046154 200.353846 
z
" clip-path="url(#p13e222f8f4)" style="fill: none; stroke: #0000ff; stroke-linejoin: miter"/>
   </g>
   <g id="patch_10">
    <path d="M 200.353846 200.353846 
C 216.878039 200.353846 232.727669 193.788715 244.412038 182.104346 
C 256.096407 170.419977 262.661538 154.570347 262.661538 138.046154 
C 262.661538 121.521961 256.096407 105.672331 244.412038 93.987962 
C 232.727669 82.303593 216.878039 75.738462 200.353846 75.738462 
C 183.829653 75.738462 167.980023 82.303593 156.295654 93.987962 
C 144.611285 105.672331 138.046154 121.521961 138.046154 138.046154 
C 138.046154 154.570347 144.611285 170.419977 156.295654 182.104346 
C 167.980023 193.788715 183.829653 200.353846 200.353846 200.353846 
L 200.353846 200.353846 
z
" clip-path="url(#p13e222f8f4)" style="fill: none; stroke: #ff0000; stroke-linejoin: miter"/>
   </g>
   <g id="patch_11">
    <path d="M 169.2 262.661538 
C 185.724193 262.661538 201.573823 256.096407 213.258192 244.412038 
C 224.942561 232.727669 231.507692 216.878039 231.507692 200.353846 
C 231.507692 183.829653 224.942561 167.980023 213.258192 156.295654 
C 201.573823 144.611285 185.724193 138.046154 169.2 138.046154 
C 152.675807 138.046154 136.826177 144.611285 125.141808 156.295654 
C 113.457439 167.980023 106.892308 183.829653 106.892308 200.353846 
C 106.892308 216.878039 113.457439 232.727669 125.141808 244.412038 
C 136.826177 256.096407 152.675807 262.661538 169.2 262.661538 
L 169.2 262.661538 
z
" clip-path="url(#p13e222f8f4)" style="fill: none; stroke: #228b22; stroke-linejoin: miter"/>
   </g>
  </g>
 </g>
 <defs>
  <clipPath id="p13e222f8f4">
   <rect x="7.2" y="7.2" width="324" height="324"/>
  </clipPath>
 </defs>
</svg>
