<?xml version="1.0" encoding="utf-8" standalone="no"?>
<!DOCTYPE svg PUBLIC "-//W3C//DTD SVG 1.1//EN"
  "http://www.w3.org/Graphics/SVG/1.1/DTD/svg11.dtd">
<svg xmlns:xlink="http://www.w3.org/1999/xlink" width="338.4pt" height="338.4pt" viewBox="0 0 338.4 338.4" xmlns="http://www.w3.org/2000/svg" version="1.1">
 <metadata>
  <rdf:RDF xmlns:dc="http://purl.org/dc/elements/1.1/" xmlns:cc="http://creativecommons.org/ns#" xmlns:rdf="http://www.w3.org/1999/02/22-rdf-syntax-ns#">
   <cc:Work>
    <dc:type rdf:resource="http://purl.org/dc/dcmitype/StillImage"/>
    <dc:date>2025-08-21T01:24:57.572486</dc:date>
    <dc:format>image/svg+xml</dc:format>
    <dc:creator>
     <cc:Agent>
      <dc:title>Matplotlib v3.8.0, https://matplotlib.org/</dc:title>
     </cc:Agent>
    </dc:creator>
   </cc:Work>
  </rdf:RDF>
 </metadata>
 <defs>
  <style type="text/css">*{stroke-linejoin: round; stroke-linecap: butt}</style>
 </defs>
 <g id="figure_1">
  <g id="patch_1">
   <path d="M -0 338.4 
L 338.4 338.4 
L 338.4 0 
L -0 0 
z
" style="fill: #ffffff"/>
  </g>
  <g id="axes_1">
   <g id="patch_2">
    <path d="M 7.2 331.2 
L 331.2 331.2 
L 331.2 7.2 
L 7.2 7.2 
z
" style="fill: #ffffff"/>
   </g>
   <g id="patch_3">
    <path d="M 13.430769 324.969231 
L 13.430769 13.430769 
L 324.969231 13.430769 
L 324.969231 324.969231 
L 13.430769 324.969231 
z
" clip-path="url(#p8caeb61363)" style="fill: none; stroke: #000000; stroke-linejoin: miter"/>
   </g>
   <g id="patch_4">
    <path d="M 169.2 192.006198 
L 168.746171 192.265684 
L 168.699829 192.291898 
L 168.228392 192.555612 
L 167.98885 192.687562 
L 167.481457 192.962558 
L 167.358302 193.028392 
L 167.086352 193.172513 
L 166.572439 193.440193 
L 166.391019 193.533244 
L 166.070497 193.695814 
L 165.727483 193.86723 
L 165.48895 193.984883 
L 165.011892 194.216408 
L 164.839358 194.298911 
L 164.382556 194.51422 
L 164.048866 194.668654 
L 163.977033 194.701586 
L 163.54287 194.898295 
L 163.376157 194.972768 
L 162.86486 195.197535 
L 162.69041 195.272976 
L 162.23346 195.467602 
L 162.114176 195.517702 
L 161.572702 195.741475 
L 161.45471 195.789448 
L 160.93229 195.99849 
L 160.848997 196.031315 
L 160.288599 196.248578 
L 160.000269 196.357948 
L 159.855277 196.412331 
L 159.354037 196.59718 
L 159.320727 196.609291 
L 158.995123 196.726553 
L 158.415225 196.930358 
L 158.35205 196.952173 
L 157.807349 197.137132 
L 157.623912 197.19816 
L 157.196418 197.33794 
L 157.119898 197.3626 
L 156.642562 197.513978 
L 156.498766 197.558755 
L 156.053343 197.69504 
L 155.785905 197.775123 
L 155.512027 197.855783 
L 154.986856 198.00665 
L 154.826455 198.051737 
L 154.351919 198.18242 
L 154.296132 198.197519 
L 153.796903 198.330169 
L 153.64523 198.369593 
L 153.288571 198.460699 
L 152.972352 198.539601 
L 152.463574 198.662872 
L 152.420131 198.673188 
L 152.079904 198.752845 
L 151.582346 198.865723 
L 151.435752 198.898164 
L 150.902973 199.012954 
L 150.681294 199.059282 
L 150.312733 199.134447 
L 150.055478 199.185541 
L 149.843931 199.226714 
L 149.321315 199.325182 
L 149.251059 199.338067 
L 148.816287 199.415957 
L 148.472809 199.475246 
L 148.25537 199.511757 
L 147.925096 199.565704 
L 147.551573 199.624523 
L 147.240822 199.671689 
L 147.101614 199.692299 
L 146.640782 199.758234 
L 146.249188 199.811506 
L 146.069983 199.835042 
L 145.799248 199.869596 
L 145.384727 199.92017 
L 144.955068 199.969618 
L 144.766424 199.990375 
L 144.471757 200.021634 
L 144.278709 200.041345 
L 143.843189 200.083585 
L 143.468607 200.117448 
L 143.271186 200.134378 
L 143.010979 200.155727 
L 142.577499 200.188856 
L 142.141249 200.219128 
L 141.82666 200.23905 
L 141.578551 200.253635 
L 141.219823 200.272968 
L 140.995992 200.28398 
L 140.67838 200.298221 
L 140.452381 200.307366 
L 140.091289 200.320273 
L 139.793103 200.329351 
L 139.371089 200.339758 
L 139.080016 200.345268 
L 138.763682 200.349715 
L 138.567968 200.351661 
L 138.180361 200.353702 
L 137.853313 200.353548 
L 137.426447 200.350764 
L 137.22218 200.348398 
L 137.105772 200.346749 
L 136.592997 200.336898 
L 136.415319 200.3325 
L 135.901891 200.316939 
L 135.691821 200.30935 
L 135.375266 200.296575 
L 135.205788 200.289072 
L 134.897973 200.274262 
L 134.500287 200.252868 
L 134.256997 200.238523 
L 133.72102 200.203549 
L 133.511916 200.188645 
L 133.082934 200.155855 
L 132.797062 200.132348 
L 132.66193 200.120775 
L 132.261121 200.084706 
L 131.893807 200.049357 
L 131.737695 200.033668 
L 131.307206 199.988345 
L 131.074234 199.962556 
L 130.80068 199.931141 
L 130.444945 199.888454 
L 130.03582 199.836793 
L 129.686693 199.79053 
L 129.304947 199.737643 
L 129.017469 199.696226 
L 128.928611 199.683147 
L 128.377756 199.599144 
L 128.114939 199.557287 
L 127.793341 199.5045 
L 127.480964 199.451571 
L 127.225417 199.407055 
L 127.060047 199.377663 
L 126.738826 199.319254 
L 126.152175 199.208085 
L 126.034045 199.184994 
L 125.818216 199.142193 
L 125.307141 199.037678 
L 125.169644 199.008798 
L 124.721505 198.912419 
L 124.573718 198.879878 
L 124.267797 198.81132 
L 123.904217 198.727734 
L 123.558385 198.646097 
L 123.083513 198.530597 
L 122.77655 198.453833 
L 122.534236 198.392064 
L 122.237103 198.314906 
L 121.867306 198.21669 
L 121.633546 198.153348 
L 121.325262 198.068319 
L 120.927461 197.956077 
L 120.758964 197.907674 
L 120.503515 197.833313 
L 120.012348 197.686999 
L 119.606738 197.562845 
L 119.40283 197.499287 
L 119.033668 197.382264 
L 118.640583 197.254872 
L 118.34938 197.158637 
L 118.302396 197.14296 
L 117.887259 197.002642 
L 117.494872 196.867012 
L 117.218721 196.7698 
L 116.920152 196.66305 
L 116.703189 196.584401 
L 116.339123 196.450378 
L 116.022228 196.331617 
L 115.661136 196.193892 
L 115.290138 196.049708 
L 114.892081 195.891961 
L 114.829971 195.867062 
L 114.258877 195.634468 
L 114.072642 195.55719 
L 113.713107 195.405995 
L 113.586627 195.352175 
L 113.250922 195.207723 
L 112.977779 195.088463 
L 112.481326 194.8677 
L 112.100477 194.694811 
L 111.842093 194.575754 
L 111.695092 194.50738 
L 111.12985 194.240114 
L 110.820574 194.090924 
L 110.668033 194.016566 
L 110.190932 193.78066 
L 109.913196 193.640985 
L 109.652509 193.508298 
L 109.33034 193.34218 
L 108.992743 193.16555 
L 108.708072 193.014558 
L 108.451867 192.877046 
L 108.055648 192.661336 
L 107.945091 192.60048 
L 107.673689 192.449847 
L 107.264071 192.219135 
L 106.892308 192.006198 
L 106.892308 200.353846 
L 106.897317 201.143877 
L 106.902325 201.471097 
L 106.907334 201.722166 
L 106.912343 201.933814 
L 106.917352 202.120268 
L 106.922361 202.288825 
L 106.927369 202.44382 
L 106.932378 202.588078 
L 106.937387 202.723559 
L 106.942396 202.851693 
L 106.952413 203.08999 
L 106.962431 203.3091 
L 106.972449 203.513019 
L 106.982466 203.70452 
L 106.992484 203.885624 
L 107.002501 204.057857 
L 107.012519 204.222404 
L 107.032554 204.53203 
L 107.05259 204.820153 
L 107.070791 205.066591 
L 107.088993 205.3007 
L 107.107195 205.524156 
L 107.125397 205.738285 
L 107.143599 205.944159 
L 107.161801 206.142658 
L 107.198204 206.520358 
L 107.234608 206.876018 
L 107.271012 207.21307 
L 107.307416 207.534132 
L 107.343819 207.841264 
L 107.380223 208.136114 
L 107.416627 208.420029 
L 107.45303 208.694126 
L 107.489434 208.959343 
L 107.525838 209.216478 
L 107.562242 209.466214 
L 107.598645 209.709145 
L 107.635049 209.945787 
L 107.683191 210.249844 
L 107.731334 210.544607 
L 107.779476 210.830858 
L 107.827619 211.109279 
L 107.90186 211.524639 
L 107.976102 211.924623 
L 108.050344 212.310773 
L 108.124586 212.68439 
L 108.22232 213.158965 
L 108.320054 213.61585 
L 108.383922 213.905715 
L 108.447789 214.189214 
L 108.575524 214.738611 
L 108.703259 215.266689 
L 108.830994 215.775638 
L 108.963993 216.287206 
L 109.096991 216.781775 
L 109.190805 217.121226 
L 109.284619 217.453425 
L 109.393592 217.830749 
L 109.502566 218.199431 
L 109.611539 218.559996 
L 109.720513 218.912918 
L 109.888732 219.443686 
L 110.056951 219.958647 
L 110.227727 220.466517 
L 110.398503 220.960459 
L 110.633062 221.617954 
L 110.831135 222.155775 
L 111.029208 222.678886 
L 111.213328 223.152845 
L 111.453692 223.754966 
L 111.694056 224.339569 
L 111.780628 224.546081 
L 111.995214 225.04921 
L 112.209801 225.540464 
L 112.408585 225.98554 
L 112.592379 226.388934 
L 112.776173 226.784894 
L 112.992497 227.241858 
L 113.208821 227.689472 
L 113.45265 228.183354 
L 113.790174 228.849455 
L 114.149192 229.537011 
L 114.305094 229.829222 
L 114.586937 230.34821 
L 114.86878 230.855765 
L 115.122607 231.303548 
L 115.460143 231.885993 
L 115.749618 232.374233 
L 116.036412 232.848176 
L 116.182186 233.085481 
L 116.434688 233.490991 
L 116.68719 233.889697 
L 117.030719 234.42164 
L 117.130781 234.57438 
L 117.638168 235.334212 
L 117.822558 235.604477 
L 118.090228 235.991463 
L 118.324768 236.325492 
L 118.738754 236.903964 
L 119.046041 237.324495 
L 119.307751 237.676922 
L 119.720512 238.222419 
L 120.050756 238.650064 
L 120.276914 238.93856 
L 120.515677 239.239386 
L 121.095237 239.954102 
L 121.358408 240.271644 
L 121.696504 240.673399 
L 121.971102 240.994708 
L 122.179272 241.235378 
L 122.409449 241.498625 
L 122.796284 241.934414 
L 123.100867 242.271843 
L 123.411653 242.611103 
L 123.775178 243.001637 
L 124.10599 243.351274 
L 124.450145 243.709342 
L 124.629638 243.893843 
L 125.188511 244.458691 
L 125.262546 244.532446 
L 125.683973 244.947612 
L 125.98846 245.242724 
L 126.331898 245.570816 
L 126.672838 245.891622 
L 126.793334 246.003854 
L 127.39918 246.559257 
L 127.673545 246.805994 
L 127.972723 247.071725 
L 128.110565 247.193006 
L 128.422216 247.464576 
L 128.714221 247.715753 
L 129.25989 248.176813 
L 129.334837 248.239307 
L 129.603706 248.461871 
L 130.137085 248.895964 
L 130.231804 248.972034 
L 130.730539 249.367611 
L 131.146187 249.691011 
L 131.457686 249.92971 
L 131.537095 249.990064 
L 131.986289 250.327722 
L 132.23455 250.511637 
L 132.621906 250.794817 
L 132.751134 250.888277 
L 133.151402 251.174581 
L 133.605509 251.493662 
L 133.812787 251.63731 
L 134.127627 251.853139 
L 134.540039 252.131598 
L 134.709108 252.244374 
L 135.080169 252.489109 
L 135.310098 252.638864 
L 135.756046 252.92523 
L 136.059439 253.117013 
L 136.292761 253.262845 
L 136.667642 253.494172 
L 136.944207 253.662498 
L 137.17709 253.802716 
L 137.452099 253.966525 
L 138.032437 254.305969 
L 138.127228 254.360617 
L 138.368816 254.498898 
L 138.857598 254.774313 
L 139.196872 254.962095 
L 139.547477 255.153266 
L 139.698952 255.23496 
L 140.207426 255.505267 
L 140.269615 255.537914 
L 140.737419 255.780645 
L 140.908735 255.868285 
L 141.252248 256.042011 
L 141.787312 256.307336 
L 141.961743 256.392457 
L 142.376306 256.592071 
L 142.488814 256.645596 
L 142.814036 256.79877 
L 143.195968 256.97574 
L 143.626453 257.171469 
L 143.862478 257.277115 
L 144.121425 257.391672 
L 144.526238 257.567953 
L 144.847272 257.705334 
L 145.074796 257.801414 
L 145.384977 257.930692 
L 145.741367 258.076814 
L 146.184729 258.255019 
L 146.210382 258.265209 
L 146.743823 258.474141 
L 146.854425 258.516754 
L 147.34267 258.701988 
L 147.629475 258.808623 
L 147.899284 258.90748 
L 148.152308 258.998907 
L 148.651138 259.17555 
L 148.891402 259.258934 
L 149.028101 259.305886 
L 149.44682 259.447504 
L 149.92787 259.606133 
L 149.951985 259.613971 
L 150.350223 259.741845 
L 150.799361 259.882537 
L 151.087742 259.970913 
L 151.295336 260.033587 
L 151.740789 260.165421 
L 152.0374 260.251206 
L 152.430557 260.362465 
L 152.760377 260.453657 
L 152.904704 260.49295 
L 153.087203 260.542103 
L 153.623344 260.683079 
L 153.990684 260.776733 
L 154.083919 260.800125 
L 154.406177 260.879802 
L 154.689107 260.948256 
L 155.177149 261.063056 
L 155.466492 261.129164 
L 155.87747 261.220575 
L 155.909418 261.227559 
L 156.499554 261.353413 
L 156.82424 261.420114 
L 157.054952 261.466417 
L 157.270126 261.508786 
L 157.764554 261.603165 
L 157.884353 261.625411 
L 158.382524 261.715322 
L 158.406262 261.719502 
L 158.928106 261.809006 
L 159.327032 261.874355 
L 159.43828 261.892105 
L 159.812003 261.950226 
L 159.992855 261.977519 
L 160.574147 262.06157 
L 160.785042 262.090683 
L 161.181986 262.143489 
L 161.309794 262.159939 
L 161.767078 262.216599 
L 162.136912 262.259915 
L 162.168911 262.263557 
L 162.51777 262.302182 
L 162.931708 262.345435 
L 163.121519 262.364334 
L 163.612944 262.410541 
L 163.965927 262.441309 
L 164.208656 262.461293 
L 164.54438 262.487361 
L 164.781561 262.504678 
L 165.011567 262.520602 
L 165.580187 262.556302 
L 165.637785 262.559627 
L 166.103872 262.584566 
L 166.230153 262.590721 
L 166.572425 262.60611 
L 166.951221 262.620944 
L 167.455464 262.637111 
L 167.686871 262.643163 
L 168.094342 262.651728 
L 168.373849 262.656061 
L 168.719951 262.659689 
L 168.837114 262.660482 
L 169.2 262.661538 
z
" clip-path="url(#p8caeb61363)" style="fill: #808080; opacity: 0.5"/>
   </g>
   <g id="patch_5">
    <path d="M 231.507692 192.006198 
L 231.173845 192.197573 
L 230.917605 192.34261 
L 230.622157 192.507864 
L 230.239088 192.719007 
L 229.929335 192.887188 
L 229.575825 193.076368 
L 229.44182 193.147318 
L 228.97384 193.391835 
L 228.576254 193.595629 
L 228.471131 193.648913 
L 228.17276 193.798791 
L 227.693522 194.035355 
L 227.286734 194.232167 
L 227.212793 194.267551 
L 226.6921 194.513356 
L 226.480449 194.611595 
L 226.035078 194.815185 
L 225.874851 194.887396 
L 225.420834 195.089073 
L 225.357944 195.116668 
L 225.032998 195.257936 
L 224.632778 195.428921 
L 224.262405 195.584223 
L 224.113132 195.646022 
L 223.79219 195.777364 
L 223.406378 195.932502 
L 223.193016 196.017016 
L 222.845665 196.152665 
L 222.338475 196.346451 
L 222.057332 196.451695 
L 221.715323 196.577648 
L 221.538407 196.641912 
L 221.070041 196.809134 
L 220.856533 196.883968 
L 220.560898 196.986154 
L 220.119707 197.135571 
L 219.784364 197.24669 
L 219.595278 197.308417 
L 219.208512 197.432601 
L 218.964004 197.509677 
L 218.611035 197.618997 
L 218.296988 197.714338 
L 218.1645 197.754019 
L 217.867415 197.841835 
L 217.370346 197.985183 
L 216.979321 198.094818 
L 216.789565 198.147033 
L 216.523801 198.21908 
L 216.183725 198.309438 
L 215.976393 198.363519 
L 215.672893 198.441314 
L 215.079901 198.588633 
L 214.998189 198.60845 
L 214.734777 198.671539 
L 214.438341 198.741092 
L 213.880612 198.867821 
L 213.672572 198.913715 
L 213.374851 198.978099 
L 213.048623 199.046901 
L 212.82731 199.09254 
L 212.539086 199.150724 
L 212.228908 199.21176 
L 211.893911 199.275848 
L 211.592268 199.33193 
L 211.027432 199.432823 
L 210.698857 199.489048 
L 210.515319 199.519668 
L 210.347615 199.547155 
L 209.922167 199.61478 
L 209.457683 199.685173 
L 209.121816 199.733845 
L 209.026631 199.747299 
L 208.626659 199.802199 
L 208.478105 199.821917 
L 208.061925 199.875225 
L 207.702812 199.918936 
L 207.358277 199.958887 
L 207.020851 199.99613 
L 206.784654 200.021094 
L 206.501304 200.049842 
L 206.002336 200.097287 
L 205.716219 200.122667 
L 205.475675 200.142977 
L 205.123847 200.170993 
L 204.837437 200.19232 
L 204.606258 200.208566 
L 204.412486 200.221518 
L 204.052208 200.243989 
L 203.62859 200.26773 
L 203.263277 200.285882 
L 203.048816 200.295537 
L 202.806173 200.305568 
L 202.333188 200.322399 
L 201.985103 200.332489 
L 201.915633 200.334269 
L 201.514415 200.343037 
L 201.165256 200.348563 
L 200.838461 200.351962 
L 200.625487 200.353254 
L 200.210815 200.353682 
L 199.940086 200.352472 
L 199.45262 200.347328 
L 199.188086 200.34294 
L 199.057401 200.340357 
L 198.701101 200.331922 
L 198.31985 200.320638 
L 198.019546 200.310105 
L 197.712242 200.297824 
L 197.407013 200.284122 
L 197.127199 200.270243 
L 196.790283 200.251857 
L 196.494279 200.234193 
L 196.11948 200.209798 
L 195.952349 200.198188 
L 195.510591 200.165325 
L 195.158738 200.136889 
L 194.720162 200.098633 
L 194.553953 200.083318 
L 194.234035 200.052576 
L 193.892313 200.017898 
L 193.495478 199.975237 
L 193.244609 199.94694 
L 193.143255 199.935215 
L 192.79393 199.893516 
L 192.498405 199.856675 
L 192.201685 199.818241 
L 191.729766 199.754125 
L 191.294532 199.691732 
L 191.039366 199.653694 
L 190.894951 199.631686 
L 190.509868 199.571308 
L 190.053586 199.496566 
L 189.917179 199.473546 
L 189.618564 199.422063 
L 189.287755 199.363282 
L 189.01439 199.313317 
L 188.538739 199.22337 
L 188.154765 199.147962 
L 187.97312 199.111415 
L 187.555068 199.025165 
L 187.257662 198.961985 
L 186.980421 198.901721 
L 186.739343 198.848241 
L 186.37887 198.766402 
L 186.07933 198.696683 
L 185.764863 198.62181 
L 185.343201 198.518702 
L 185.017125 198.436828 
L 184.892947 198.405156 
L 184.612378 198.332593 
L 184.351914 198.263981 
L 183.819317 198.119924 
L 183.502201 198.03174 
L 183.282746 197.969656 
L 182.849956 197.844669 
L 182.624808 197.778304 
L 182.207295 197.652791 
L 181.933428 197.568727 
L 181.781454 197.521483 
L 181.399637 197.400905 
L 181.167036 197.326124 
L 180.713984 197.17757 
L 180.320575 197.045447 
L 180.177586 196.996701 
L 179.920313 196.90802 
L 179.688409 196.827003 
L 179.160024 196.638563 
L 179.030259 196.591462 
L 178.469918 196.384325 
L 178.146529 196.26199 
L 178.103845 196.24569 
L 177.675886 196.08027 
L 177.210335 195.896187 
L 176.99338 195.80892 
L 176.660914 195.673348 
L 176.346402 195.543033 
L 176.165382 195.467114 
L 175.768812 195.298443 
L 175.449704 195.160357 
L 175.239111 195.068067 
L 174.886709 194.911551 
L 174.551892 194.760417 
L 174.263598 194.628373 
L 173.826074 194.42457 
L 173.635248 194.334386 
L 173.3492 194.197713 
L 172.875495 193.967426 
L 172.712722 193.887149 
L 172.282129 193.671932 
L 171.967912 193.512245 
L 171.606942 193.326024 
L 171.475061 193.257242 
L 171.166427 193.094706 
L 170.675822 192.831767 
L 170.421843 192.69342 
L 170.259959 192.604439 
L 169.780875 192.337424 
L 169.472952 192.162869 
L 169.2 192.006198 
L 169.2 262.661538 
L 169.39672 262.661228 
L 169.890625 262.657711 
L 170.014993 262.656208 
L 170.501588 262.647942 
L 170.893835 262.638511 
L 170.952858 262.636878 
L 171.35784 262.624162 
L 171.820886 262.606392 
L 171.94716 262.600948 
L 172.357205 262.581497 
L 172.513057 262.573394 
L 172.918517 262.550479 
L 173.416395 262.518712 
L 173.696057 262.499111 
L 173.942433 262.480796 
L 174.221873 262.458832 
L 174.54989 262.431436 
L 174.829745 262.406682 
L 175.166662 262.375193 
L 175.486221 262.343619 
L 175.89037 262.301304 
L 176.034982 262.285514 
L 176.455925 262.237609 
L 176.665603 262.212664 
L 177.04648 262.165506 
L 177.405194 262.118912 
L 177.634056 262.088077 
L 178.095757 262.023239 
L 178.282626 261.995994 
L 178.682782 261.935705 
L 178.757515 261.924151 
L 179.289739 261.839175 
L 179.506682 261.803182 
L 179.723122 261.766487 
L 180.20458 261.682043 
L 180.443474 261.638696 
L 180.641176 261.602095 
L 180.94897 261.543798 
L 181.393983 261.456672 
L 181.660276 261.402925 
L 182.043796 261.323391 
L 182.49047 261.227584 
L 182.713071 261.178557 
L 183.10232 261.090771 
L 183.240164 261.059054 
L 183.749332 260.939038 
L 183.771538 260.933701 
L 184.260811 260.81392 
L 184.403562 260.778181 
L 185.005027 260.623653 
L 185.322741 260.53944 
L 185.44242 260.507253 
L 185.897149 260.38262 
L 186.063885 260.335993 
L 186.293774 260.270884 
L 186.7989 260.124468 
L 187.113763 260.030857 
L 187.428046 259.935612 
L 187.520393 259.907282 
L 187.921153 259.782517 
L 188.397143 259.630471 
L 188.650439 259.54784 
L 188.962626 259.444346 
L 189.265798 259.342085 
L 189.638322 259.214049 
L 189.714517 259.187536 
L 190.099083 259.052031 
L 190.644119 258.855114 
L 190.797136 258.798797 
L 191.253471 258.628137 
L 191.315549 258.604606 
L 191.780945 258.425779 
L 192.185435 258.26687 
L 192.285633 258.227001 
L 192.748605 258.040168 
L 192.84675 258.000006 
L 193.324111 257.801873 
L 193.669571 257.655579 
L 193.854087 257.576434 
L 194.197454 257.427271 
L 194.433344 257.323372 
L 194.852519 257.135858 
L 195.271437 256.944735 
L 195.41665 256.877609 
L 195.872986 256.663706 
L 196.089714 256.560534 
L 196.578642 256.324003 
L 196.774473 256.227784 
L 197.012513 256.109677 
L 197.365824 255.932033 
L 197.818483 255.700309 
L 197.881465 255.667697 
L 198.198521 255.50214 
L 198.69707 255.237098 
L 199.061244 255.03981 
L 199.138915 254.997326 
L 199.433281 254.83501 
L 199.91224 254.566454 
L 200.333151 254.325834 
L 200.589132 254.177362 
L 200.807611 254.049353 
L 201.08157 253.887145 
L 201.334026 253.735987 
L 201.905393 253.387852 
L 202.189647 253.211502 
L 202.361717 253.103719 
L 202.57017 252.972097 
L 203.127465 252.614497 
L 203.255741 252.530996 
L 203.758593 252.19931 
L 203.805987 252.167688 
L 204.212886 251.893601 
L 204.446798 251.733918 
L 204.881118 251.433258 
L 205.307169 251.132984 
L 205.494301 250.999401 
L 205.899122 250.70683 
L 206.283913 250.424116 
L 206.3845 250.349461 
L 206.761144 250.067114 
L 207.0619 249.83844 
L 207.384692 249.589786 
L 207.689727 249.351698 
L 208.020911 249.08972 
L 208.493594 248.709425 
L 208.637695 248.591971 
L 209.033505 248.265644 
L 209.354456 247.99698 
L 209.501265 247.872859 
L 210.047296 247.404319 
L 210.19137 247.278851 
L 210.579871 246.93662 
L 210.778788 246.759158 
L 211.235014 246.346303 
L 211.36882 246.223653 
L 211.701248 245.915809 
L 212.082071 245.557569 
L 212.480837 245.175913 
L 212.862576 244.804133 
L 213.002506 244.666248 
L 213.242777 244.427447 
L 213.763834 243.900525 
L 213.910036 243.750403 
L 214.339348 243.303674 
L 214.525645 243.107026 
L 215.041518 242.553417 
L 215.125707 242.461778 
L 215.530088 242.016437 
L 215.794928 241.72003 
L 216.216888 241.239795 
L 216.416299 241.009345 
L 216.890691 240.451808 
L 217.089361 240.214323 
L 217.405123 239.831874 
L 217.622878 239.564475 
L 217.928364 239.184183 
L 218.216253 238.820136 
L 218.788636 238.079377 
L 219.023288 237.76893 
L 219.384492 237.283039 
L 219.638508 236.935336 
L 219.79525 236.71824 
L 220.189618 236.163166 
L 220.430955 235.817036 
L 220.795793 235.2841 
L 221.265782 234.579609 
L 221.374565 234.413548 
L 221.770118 233.79979 
L 222.045886 233.362342 
L 222.404067 232.781855 
L 222.744899 232.215929 
L 222.962464 231.847432 
L 223.292781 231.276645 
L 223.634881 230.67038 
L 223.920553 230.151658 
L 224.227466 229.580999 
L 224.483133 229.094475 
L 224.70567 228.66231 
L 224.928207 228.221668 
L 225.141736 227.790513 
L 225.355265 227.350786 
L 225.634197 226.762746 
L 225.822318 226.356954 
L 226.01044 225.943345 
L 226.093561 225.758005 
L 226.393634 225.075027 
L 226.57107 224.660407 
L 226.748506 224.237272 
L 226.905749 223.854804 
L 227.062993 223.464938 
L 227.231074 223.03959 
L 227.399155 222.604844 
L 227.604788 222.059359 
L 227.810421 221.497807 
L 227.971329 221.046343 
L 228.132237 220.583526 
L 228.35632 219.918567 
L 228.473888 219.559438 
L 228.591455 219.192731 
L 228.709022 218.817995 
L 228.82659 218.434729 
L 228.979971 217.920964 
L 229.133352 217.390332 
L 229.30395 216.778331 
L 229.404949 216.40416 
L 229.505949 216.020404 
L 229.606948 215.626342 
L 229.707948 215.221152 
L 229.78509 214.903603 
L 229.862232 214.578548 
L 229.939374 214.245462 
L 230.016516 213.903751 
L 230.091641 213.562047 
L 230.166766 213.210825 
L 230.241892 212.849285 
L 230.317017 212.476501 
L 230.417897 211.956328 
L 230.468337 211.686954 
L 230.518778 211.410791 
L 230.583537 211.045425 
L 230.648297 210.666716 
L 230.713057 210.273137 
L 230.777817 209.862842 
L 230.842577 209.433563 
L 230.907336 208.98247 
L 230.939716 208.74765 
L 230.972096 208.505941 
L 231.004476 208.25671 
L 231.036856 207.999221 
L 231.067428 207.747751 
L 231.098001 207.487291 
L 231.128573 207.216817 
L 231.159145 206.935094 
L 231.189718 206.640612 
L 231.22029 206.331483 
L 231.250862 206.005306 
L 231.281435 205.658937 
L 231.309717 205.316868 
L 231.323858 205.136606 
L 231.337999 204.949234 
L 231.35214 204.753845 
L 231.366281 204.549319 
L 231.380422 204.334247 
L 231.394563 204.106817 
L 231.408705 203.864629 
L 231.422846 203.604384 
L 231.429916 203.466087 
L 231.436987 203.321336 
L 231.444057 203.169134 
L 231.451128 203.0082 
L 231.458198 202.836838 
L 231.465269 202.652715 
L 231.47234 202.452476 
L 231.47941 202.230971 
L 231.486481 201.97953 
L 231.493551 201.681249 
L 231.500622 201.292488 
L 231.507692 200.353846 
z
" clip-path="url(#p8caeb61363)" style="fill: #808080; opacity: 0.5"/>
   </g>
   <g id="matplotlib.axis_1"/>
   <g id="matplotlib.axis_2"/>
   <g id="line2d_1">
    <path d="M 106.892308 200.353846 
L 107.012519 204.222404 
L 107.343819 207.841264 
L 107.90186 211.524639 
L 108.703259 215.266689 
L 109.720513 218.912918 
L 111.029208 222.678886 
L 112.408585 225.98554 
L 113.790174 228.849455 
L 115.749618 232.374233 
L 117.822558 235.604477 
L 120.050756 238.650064 
L 122.409449 241.498625 
L 124.629638 243.893843 
L 127.39918 246.559257 
L 130.231804 248.972034 
L 133.151402 251.174581 
L 136.292761 253.262845 
L 139.698952 255.23496 
L 143.195968 256.97574 
L 146.743823 258.474141 
L 149.951985 259.613971 
L 153.623344 260.683079 
L 157.270126 261.508786 
L 161.181986 262.143489 
L 164.781561 262.504678 
L 168.373849 262.656061 
L 169.2 262.661538 
L 169.2 262.661538 
" clip-path="url(#p8caeb61363)" style="fill: none; stroke: #0000ff; stroke-linecap: square"/>
   </g>
   <g id="line2d_2">
    <path d="M 169.2 262.661538 
L 172.918517 262.550479 
L 176.665603 262.212664 
L 180.443474 261.638696 
L 183.771538 260.933701 
L 187.520393 259.907282 
L 190.797136 258.798797 
L 194.433344 257.323372 
L 197.881465 255.667697 
L 201.08157 253.887145 
L 204.212886 251.893601 
L 207.0619 249.83844 
L 210.047296 247.404319 
L 212.480837 245.175913 
L 215.125707 242.461778 
L 217.622878 239.564475 
L 219.79525 236.71824 
L 222.045886 233.362342 
L 223.920553 230.151658 
L 225.634197 226.762746 
L 227.062993 223.464938 
L 228.35632 219.918567 
L 229.404949 216.40416 
L 230.241892 212.849285 
L 230.842577 209.433563 
L 231.281435 205.658937 
L 231.486481 201.97953 
L 231.507692 200.353846 
L 231.507692 200.353846 
" clip-path="url(#p8caeb61363)" style="fill: none; stroke: #0000ff; stroke-linecap: square"/>
   </g>
   <g id="text_1">
    <!-- $\Omega$ -->
    <g transform="translate(16.011538 22.420913) scale(0.1 -0.1)">
     <defs>
      <path id="Cmr10-ad" d="M 494 0 
L 281 1063 
L 469 1063 
Q 503 878 531 736 
Q 559 594 604 536 
Q 650 478 750 459 
Q 850 441 1081 441 
L 1472 441 
Q 1378 803 1004 1386 
Q 631 1969 495 2233 
Q 359 2497 359 2913 
Q 359 3397 646 3761 
Q 934 4125 1389 4319 
Q 1844 4513 2309 4513 
Q 2772 4513 3226 4319 
Q 3681 4125 3968 3758 
Q 4256 3391 4256 2913 
Q 4256 2588 4137 2300 
Q 4019 2013 3834 1725 
Q 3650 1438 3436 1084 
Q 3222 731 3144 441 
L 3531 441 
Q 3766 441 3869 459 
Q 3972 478 4015 536 
Q 4059 594 4086 736 
Q 4113 878 4147 1063 
L 4331 1063 
L 4122 0 
L 2988 0 
Q 2925 0 2925 84 
Q 2925 409 3004 721 
Q 3084 1034 3240 1478 
Q 3397 1922 3484 2261 
Q 3572 2600 3572 2913 
Q 3572 3297 3422 3625 
Q 3272 3953 2984 4150 
Q 2697 4347 2309 4347 
Q 1725 4347 1384 3930 
Q 1044 3513 1044 2913 
Q 1047 2584 1122 2293 
Q 1197 2003 1364 1518 
Q 1531 1034 1611 721 
Q 1691 409 1691 84 
Q 1691 0 1625 0 
L 494 0 
z
" transform="scale(0.015625)"/>
     </defs>
     <use xlink:href="#Cmr10-ad" transform="translate(0 0.484375)"/>
    </g>
   </g>
   <g id="text_2">
    <!-- $A$ -->
    <g style="fill: #0000ff" transform="translate(149.873077 271.651683) scale(0.1 -0.1)">
     <defs>
      <path id="Cmmi10-41" d="M 288 0 
Q 225 0 225 84 
Q 250 225 306 225 
Q 566 225 755 328 
Q 944 431 1081 647 
Q 1094 659 1094 659 
L 3378 4513 
Q 3428 4581 3500 4581 
L 3584 4581 
Q 3603 4581 3622 4573 
Q 3641 4566 3655 4548 
Q 3669 4531 3669 4513 
L 4056 378 
Q 4056 350 4084 294 
Q 4147 225 4563 225 
Q 4628 225 4628 141 
Q 4606 56 4592 28 
Q 4578 0 4519 0 
L 2919 0 
Q 2859 0 2859 84 
Q 2894 225 2944 225 
Q 3450 225 3481 397 
L 3384 1453 
L 1806 1453 
L 1294 594 
Q 1247 525 1247 434 
Q 1247 322 1355 273 
Q 1463 225 1594 225 
Q 1656 225 1656 141 
Q 1634 50 1621 25 
Q 1609 0 1550 0 
L 288 0 
z
M 1931 1678 
L 3359 1678 
L 3169 3750 
L 1931 1678 
z
" transform="scale(0.015625)"/>
     </defs>
     <use xlink:href="#Cmmi10-41" transform="translate(0 0.421875)"/>
    </g>
   </g>
   <g id="text_3">
    <!-- $B$ -->
    <g style="fill: #ff0000" transform="translate(227.707692 78.497837) scale(0.1 -0.1)">
     <defs>
      <path id="Cmmi10-42" d="M 319 0 
Q 256 0 256 84 
Q 259 100 268 137 
Q 278 175 293 200 
Q 309 225 341 225 
Q 522 225 656 234 
Q 791 244 884 269 
Q 959 297 1006 441 
L 1881 3956 
Q 1894 4019 1894 4044 
Q 1894 4113 1819 4122 
Q 1697 4147 1356 4147 
Q 1294 4147 1294 4231 
Q 1297 4247 1306 4286 
Q 1316 4325 1333 4348 
Q 1350 4372 1375 4372 
L 3669 4372 
Q 3878 4372 4083 4320 
Q 4288 4269 4461 4156 
Q 4634 4044 4736 3876 
Q 4838 3709 4838 3488 
Q 4838 3247 4714 3040 
Q 4591 2834 4395 2681 
Q 4200 2528 3973 2429 
Q 3747 2331 3500 2284 
Q 3675 2284 3854 2215 
Q 4034 2147 4175 2028 
Q 4316 1909 4402 1743 
Q 4488 1578 4488 1388 
Q 4488 1003 4219 684 
Q 3950 366 3542 183 
Q 3134 0 2753 0 
L 319 0 
z
M 1497 275 
Q 1497 225 1716 225 
L 2631 225 
Q 2944 225 3231 398 
Q 3519 572 3692 859 
Q 3866 1147 3866 1459 
Q 3866 1650 3786 1820 
Q 3706 1991 3556 2089 
Q 3406 2188 3213 2188 
L 1966 2188 
L 1522 416 
Q 1497 328 1497 275 
z
M 2009 2356 
L 2981 2356 
Q 3288 2356 3577 2512 
Q 3866 2669 4048 2937 
Q 4231 3206 4231 3506 
Q 4231 3784 4057 3965 
Q 3884 4147 3609 4147 
L 2731 4147 
Q 2559 4147 2500 4115 
Q 2441 4084 2400 3928 
L 2009 2356 
z
" transform="scale(0.015625)"/>
     </defs>
     <use xlink:href="#Cmmi10-42" transform="translate(0 0.6875)"/>
    </g>
   </g>
   <g id="text_4">
    <!-- $C$ -->
    <g style="fill: #228b22" transform="translate(103.292308 78.497837) scale(0.1 -0.1)">
     <defs>
      <path id="Cmmi10-43" d="M 934 1381 
Q 934 997 1082 705 
Q 1231 413 1514 248 
Q 1797 84 2181 84 
Q 2584 84 2957 290 
Q 3331 497 3595 842 
Q 3859 1188 3956 1575 
Q 3969 1613 4006 1613 
L 4084 1613 
Q 4109 1613 4125 1595 
Q 4141 1578 4141 1556 
Q 4141 1550 4134 1538 
Q 4025 1094 3711 705 
Q 3397 316 2959 87 
Q 2522 -141 2059 -141 
Q 1559 -141 1162 84 
Q 766 309 545 709 
Q 325 1109 325 1613 
Q 325 2150 565 2676 
Q 806 3203 1212 3614 
Q 1619 4025 2139 4269 
Q 2659 4513 3194 4513 
Q 3406 4513 3600 4448 
Q 3794 4384 3959 4253 
Q 4125 4122 4231 3950 
L 4738 4500 
Q 4738 4513 4769 4513 
L 4806 4513 
Q 4831 4513 4847 4491 
Q 4863 4469 4863 4447 
L 4428 2719 
Q 4428 2675 4378 2675 
L 4263 2675 
Q 4213 2675 4213 2747 
Q 4238 2888 4238 3084 
Q 4238 3397 4131 3673 
Q 4025 3950 3801 4119 
Q 3578 4288 3256 4288 
Q 2734 4288 2300 4025 
Q 1866 3763 1564 3336 
Q 1263 2909 1098 2389 
Q 934 1869 934 1381 
z
" transform="scale(0.015625)"/>
     </defs>
     <use xlink:href="#Cmmi10-43" transform="translate(0 0.484375)"/>
    </g>
   </g>
   <g id="patch_6">
    <path d="M 169.2 262.661538 
C 185.724193 262.661538 201.573823 256.096407 213.258192 244.412038 
C 224.942561 232.727669 231.507692 216.878039 231.507692 200.353846 
C 231.507692 183.829653 224.942561 167.980023 213.258192 156.295654 
C 201.573823 144.611285 185.724193 138.046154 169.2 138.046154 
C 152.675807 138.046154 136.826177 144.611285 125.141808 156.295654 
C 113.457439 167.980023 106.892308 183.829653 106.892308 200.353846 
C 106.892308 216.878039 113.457439 232.727669 125.141808 244.412038 
C 136.826177 256.096407 152.675807 262.661538 169.2 262.661538 
L 169.2 262.661538 
z
" clip-path="url(#p8caeb61363)" style="fill: none; stroke: #0000ff; stroke-linejoin: miter"/>
   </g>
   <g id="patch_7">
    <path d="M 200.353846 200.353846 
C 216.878039 200.353846 232.727669 193.788715 244.412038 182.104346 
C 256.096407 170.419977 262.661538 154.570347 262.661538 138.046154 
C 262.661538 121.521961 256.096407 105.672331 244.412038 93.987962 
C 232.727669 82.303593 216.878039 75.738462 200.353846 75.738462 
C 183.829653 75.738462 167.980023 82.303593 156.295654 93.987962 
C 144.611285 105.672331 138.046154 121.521961 138.046154 138.046154 
C 138.046154 154.570347 144.611285 170.419977 156.295654 182.104346 
C 167.980023 193.788715 183.829653 200.353846 200.353846 200.353846 
L 200.353846 200.353846 
z
" clip-path="url(#p8caeb61363)" style="fill: none; stroke: #ff0000; stroke-linejoin: miter"/>
   </g>
   <g id="patch_8">
    <path d="M 138.046154 200.353846 
C 154.570347 200.353846 170.419977 193.788715 182.104346 182.104346 
C 193.788715 170.419977 200.353846 154.570347 200.353846 138.046154 
C 200.353846 121.521961 193.788715 105.672331 182.104346 93.987962 
C 170.419977 82.303593 154.570347 75.738462 138.046154 75.738462 
C 121.521961 75.738462 105.672331 82.303593 93.987962 93.987962 
C 82.303593 105.672331 75.738462 121.521961 75.738462 138.046154 
C 75.738462 154.570347 82.303593 170.419977 93.987962 182.104346 
C 105.672331 193.788715 121.521961 200.353846 138.046154 200.353846 
L 138.046154 200.353846 
z
" clip-path="url(#p8caeb61363)" style="fill: none; stroke: #228b22; stroke-linejoin: miter"/>
   </g>
  </g>
 </g>
 <defs>
  <clipPath id="p8caeb61363">
   <rect x="7.2" y="7.2" width="324" height="324"/>
  </clipPath>
 </defs>
</svg>
