<?xml version="1.0" encoding="utf-8" standalone="no"?>
<!DOCTYPE svg PUBLIC "-//W3C//DTD SVG 1.1//EN"
  "http://www.w3.org/Graphics/SVG/1.1/DTD/svg11.dtd">
<svg xmlns:xlink="http://www.w3.org/1999/xlink" width="338.4pt" height="338.4pt" viewBox="0 0 338.4 338.4" xmlns="http://www.w3.org/2000/svg" version="1.1">
 <metadata>
  <rdf:RDF xmlns:dc="http://purl.org/dc/elements/1.1/" xmlns:cc="http://creativecommons.org/ns#" xmlns:rdf="http://www.w3.org/1999/02/22-rdf-syntax-ns#">
   <cc:Work>
    <dc:type rdf:resource="http://purl.org/dc/dcmitype/StillImage"/>
    <dc:date>2025-08-24T20:28:57.373053</dc:date>
    <dc:format>image/svg+xml</dc:format>
    <dc:creator>
     <cc:Agent>
      <dc:title>Matplotlib v3.8.0, https://matplotlib.org/</dc:title>
     </cc:Agent>
    </dc:creator>
   </cc:Work>
  </rdf:RDF>
 </metadata>
 <defs>
  <style type="text/css">*{stroke-linejoin: round; stroke-linecap: butt}</style>
 </defs>
 <g id="figure_1">
  <g id="patch_1">
   <path d="M -0 338.4 
L 338.4 338.4 
L 338.4 0 
L -0 0 
z
" style="fill: #ffffff"/>
  </g>
  <g id="axes_1">
   <g id="patch_2">
    <path d="M 7.2 331.2 
L 331.2 331.2 
L 331.2 7.2 
L 7.2 7.2 
z
" style="fill: #ffffff"/>
   </g>
   <g id="patch_3">
    <path d="M 13.430769 324.969231 
L 13.430769 13.430769 
L 324.969231 13.430769 
L 324.969231 324.969231 
L 13.430769 324.969231 
z
" clip-path="url(#p9d84b12a31)" style="fill: none; stroke: #000000; stroke-linejoin: miter"/>
   </g>
   <g id="patch_4">
    <path d="M 106.892308 192.006198 
L 106.688955 191.88828 
L 106.65361 191.867681 
L 106.394447 191.715679 
L 106.197005 191.598747 
L 106.171009 191.583278 
L 105.902013 191.422204 
L 105.74088 191.324835 
L 105.643461 191.265643 
L 105.532978 191.198218 
L 105.330399 191.073768 
L 105.221653 191.006523 
L 105.084964 190.921559 
L 104.895261 190.80283 
L 104.678022 190.665696 
L 104.515305 190.562158 
L 104.313167 190.432546 
L 104.274573 190.407674 
L 104.053353 190.264331 
L 103.928259 190.182684 
L 103.792916 190.093865 
L 103.539234 189.926025 
L 103.510009 189.906574 
L 103.244678 189.728896 
L 103.209486 189.705181 
L 103.036897 189.588374 
L 102.880722 189.481948 
L 102.592024 189.283379 
L 102.519778 189.233312 
L 102.296235 189.077436 
L 102.150733 188.975195 
L 102.073604 188.920747 
L 101.860778 188.769591 
L 101.65441 188.621736 
L 101.590849 188.57594 
L 101.448411 188.472871 
L 101.27839 188.349037 
L 101.123069 188.23514 
L 100.934837 188.096116 
L 100.709106 187.927948 
L 100.582381 187.832841 
L 100.46054 187.740923 
L 100.39054 187.687903 
L 100.158477 187.511015 
L 100.079148 187.450151 
L 99.886726 187.301677 
L 99.664536 187.128736 
L 99.61184 187.087484 
L 99.306901 186.846961 
L 99.280693 186.826145 
L 99.110082 186.690073 
L 98.843748 186.475689 
L 98.689689 186.350576 
L 98.593616 186.27214 
L 98.46232 186.164431 
L 98.350688 186.072381 
L 98.162199 185.915964 
L 98.000442 185.780727 
L 97.79849 185.610574 
L 97.726571 185.549625 
L 97.549828 185.399043 
L 97.364169 185.239635 
L 97.207378 185.104022 
L 97.003921 184.926679 
L 96.839859 184.78254 
L 96.639817 184.605404 
L 96.58307 184.554875 
L 96.440892 184.427731 
L 96.252376 184.257935 
L 96.063575 184.08648 
L 95.963631 183.995145 
L 95.82281 183.865776 
L 95.61726 183.675503 
L 95.506187 183.571968 
L 95.240565 183.322308 
L 95.1822 183.267056 
L 94.918823 183.015942 
L 94.802752 182.904339 
L 94.6432 182.74998 
L 94.472323 182.583439 
L 94.321227 182.435109 
L 94.141056 182.256909 
L 94.114495 182.230517 
L 93.973573 182.089952 
L 93.805218 181.92084 
L 93.562089 181.674315 
L 93.364112 181.471534 
L 93.349786 181.456789 
L 93.068091 181.164855 
L 93.027673 181.122655 
L 92.798749 180.88213 
L 92.618022 180.69042 
L 92.522683 180.588628 
L 92.352106 180.405362 
L 92.207167 180.248474 
L 92.024283 180.048962 
L 91.818148 179.821985 
L 91.685025 179.674201 
L 91.584904 179.562425 
L 91.45647 179.418244 
L 91.190668 179.11697 
L 91.07068 178.979678 
L 90.877774 178.757239 
L 90.785357 178.649917 
L 90.674156 178.520125 
L 90.412676 178.212063 
L 90.358307 178.147498 
L 90.197146 177.955062 
L 90.046553 177.773812 
L 89.888392 177.581941 
L 89.731641 177.390231 
L 89.50389 177.108887 
L 89.408176 176.989647 
L 89.22244 176.756533 
L 89.113553 176.618801 
L 88.830513 176.257006 
L 88.730361 176.12766 
L 88.624158 175.989729 
L 88.377732 175.666578 
L 88.221533 175.459463 
L 88.050772 175.230967 
L 87.892088 175.016659 
L 87.846009 174.954066 
L 87.567862 174.572728 
L 87.522232 174.509585 
L 87.270671 174.158463 
L 87.125506 173.953482 
L 86.972684 173.735777 
L 86.86522 173.581495 
L 86.733653 173.39125 
L 86.517902 173.075966 
L 86.417855 172.928345 
L 86.167187 172.554433 
L 86.068419 172.405485 
L 85.94221 172.213793 
L 85.826592 172.036827 
L 85.673786 171.80091 
L 85.505567 171.53847 
L 85.330022 171.261481 
L 85.106939 170.904761 
L 85.037452 170.792544 
L 84.800664 170.406103 
L 84.604123 170.080478 
L 84.534059 169.963301 
L 84.363883 169.67624 
L 84.247078 169.477157 
L 84.030613 169.103678 
L 83.866467 168.816432 
L 83.746875 168.604897 
L 83.554111 168.259823 
L 83.422033 168.020375 
L 83.17969 167.57444 
L 83.15784 167.533804 
L 82.920264 167.087242 
L 82.82845 166.912288 
L 82.606206 166.483114 
L 82.464914 166.205954 
L 82.305022 165.888114 
L 82.128186 165.531229 
L 82.038836 165.348697 
L 81.793897 164.84041 
L 81.67155 164.582026 
L 81.502757 164.22043 
L 81.444003 164.093131 
L 81.31742 163.816277 
L 81.190836 163.535787 
L 81.0019 163.110106 
L 80.849397 162.760108 
L 80.798821 162.642726 
L 80.684073 162.373921 
L 80.569326 162.101565 
L 80.391313 161.671731 
L 80.261662 161.352828 
L 80.148583 161.070486 
L 79.993098 160.675587 
L 79.843408 160.287758 
L 79.729163 159.986462 
L 79.614918 159.680367 
L 79.539315 159.475067 
L 79.369366 159.005234 
L 79.243234 158.648706 
L 79.117103 158.285113 
L 79.012226 157.977132 
L 78.899538 157.640193 
L 78.776021 157.26333 
L 78.652504 156.878117 
L 78.521416 156.459577 
L 78.423781 156.140935 
L 78.342782 155.871863 
L 78.261783 155.598292 
L 78.162311 155.255858 
L 78.093637 155.015075 
L 78.024963 154.770543 
L 77.956289 154.522096 
L 77.887615 154.269554 
L 77.824304 154.032939 
L 77.754922 153.769255 
L 77.685541 153.500762 
L 77.62604 153.266482 
L 77.56654 153.028303 
L 77.507039 152.786036 
L 77.447539 152.539475 
L 77.396978 152.326421 
L 77.346418 152.109959 
L 77.295858 151.889927 
L 77.245298 151.666154 
L 77.1832 151.385919 
L 77.136998 151.173349 
L 77.090796 150.957114 
L 77.044594 150.737027 
L 76.998393 150.512884 
L 76.938241 150.214619 
L 76.87809 149.908552 
L 76.817939 149.594063 
L 76.757788 149.270444 
L 76.706009 148.98394 
L 76.654231 148.689476 
L 76.623277 148.50936 
L 76.592323 148.325996 
L 76.561369 148.139206 
L 76.530414 147.948796 
L 76.480633 147.634437 
L 76.430852 147.309148 
L 76.405961 147.142041 
L 76.38107 146.971735 
L 76.35618 146.798046 
L 76.331289 146.620767 
L 76.29536 146.358073 
L 76.259431 146.086642 
L 76.223503 145.805555 
L 76.187574 145.513722 
L 76.168627 145.355066 
L 76.14968 145.192837 
L 76.130734 145.026789 
L 76.111787 144.85664 
L 76.09284 144.682076 
L 76.073894 144.502739 
L 76.054947 144.318219 
L 76.036 144.128044 
L 76.017693 143.938397 
L 75.999385 143.74238 
L 75.981077 143.539312 
L 75.96277 143.32838 
L 75.944462 143.108601 
L 75.926154 142.878768 
L 75.907846 142.637371 
L 75.898693 142.511754 
L 75.889539 142.38248 
L 75.880096 142.244943 
L 75.870654 142.102723 
L 75.861212 141.95531 
L 75.851769 141.802092 
L 75.842327 141.642327 
L 75.832885 141.475101 
L 75.823442 141.299262 
L 75.814 141.11333 
L 75.809279 141.01599 
L 75.804558 140.915343 
L 75.799837 140.811026 
L 75.795115 140.702607 
L 75.790394 140.589563 
L 75.785673 140.471245 
L 75.780952 140.346841 
L 75.776231 140.215303 
L 75.77151 140.075246 
L 75.766789 139.924764 
L 75.762067 139.761115 
L 75.757346 139.580091 
L 75.752625 139.374607 
L 75.747904 139.130852 
L 75.743183 138.813166 
L 75.738462 138.046154 
L 75.738462 324.969231 
L 75.896524 324.969231 
L 75.984501 324.969231 
L 76.248233 324.969231 
L 76.406617 324.969231 
L 76.461241 324.969231 
L 76.662477 324.969231 
L 76.855575 324.969231 
L 76.966489 324.969231 
L 77.195578 324.969231 
L 77.268999 324.969231 
L 77.478764 324.969231 
L 77.66542 324.969231 
L 77.703223 324.969231 
L 77.95258 324.969231 
L 78.030884 324.969231 
L 78.245209 324.969231 
L 78.381864 324.969231 
L 78.626594 324.969231 
L 78.690855 324.969231 
L 78.861088 324.969231 
L 78.975139 324.969231 
L 79.20582 324.969231 
L 79.402635 324.969231 
L 79.566156 324.969231 
L 79.699273 324.969231 
L 79.866939 324.969231 
L 79.962416 324.969231 
L 80.115532 324.969231 
L 80.224164 324.969231 
L 80.462314 324.969231 
L 80.640366 324.969231 
L 80.814842 324.969231 
L 80.913382 324.969231 
L 81.044133 324.969231 
L 81.200695 324.969231 
L 81.310855 324.969231 
L 81.550707 324.969231 
L 81.659225 324.969231 
L 81.90714 324.969231 
L 81.997828 324.969231 
L 82.128278 324.969231 
L 82.238835 324.969231 
L 82.420344 324.969231 
L 82.628454 324.969231 
L 82.838048 324.969231 
L 82.887932 324.969231 
L 83.102685 324.969231 
L 83.277516 324.969231 
L 83.398414 324.969231 
L 83.638535 324.969231 
L 83.73667 324.969231 
L 83.939991 324.969231 
L 84.023293 324.969231 
L 84.188816 324.969231 
L 84.278507 324.969231 
L 84.559876 324.969231 
L 84.662496 324.969231 
L 84.891368 324.969231 
L 84.921472 324.969231 
L 85.120275 324.969231 
L 85.227851 324.969231 
L 85.490825 324.969231 
L 85.573022 324.969231 
L 85.825216 324.969231 
L 85.880554 324.969231 
L 86.066832 324.969231 
L 86.160092 324.969231 
L 86.31745 324.969231 
L 86.583632 324.969231 
L 86.658149 324.969231 
L 86.793416 324.969231 
L 86.990226 324.969231 
L 87.198558 324.969231 
L 87.384073 324.969231 
L 87.556222 324.969231 
L 87.621386 324.969231 
L 87.775306 324.969231 
L 87.969967 324.969231 
L 88.091918 324.969231 
L 88.300071 324.969231 
L 88.455962 324.969231 
L 88.652192 324.969231 
L 88.798238 324.969231 
L 88.955807 324.969231 
L 88.987224 324.969231 
L 89.187025 324.969231 
L 89.288177 324.969231 
L 89.504749 324.969231 
L 89.698503 324.969231 
L 89.757587 324.969231 
L 89.924788 324.969231 
L 90.210928 324.969231 
L 90.235643 324.969231 
L 90.421301 324.969231 
L 90.676995 324.969231 
L 90.707451 324.969231 
L 90.925205 324.969231 
L 91.147702 324.969231 
L 91.264604 324.969231 
L 91.397334 324.969231 
L 91.559987 324.969231 
L 91.77216 324.969231 
L 91.850769 324.969231 
L 91.994219 324.969231 
L 92.149426 324.969231 
L 92.319135 324.969231 
L 92.536404 324.969231 
L 92.581198 324.969231 
L 92.762056 324.969231 
L 92.903699 324.969231 
L 93.05189 324.969231 
L 93.209017 324.969231 
L 93.386049 324.969231 
L 93.536194 324.969231 
L 93.793585 324.969231 
L 93.888462 324.969231 
L 94.022138 324.969231 
L 94.17323 324.969231 
L 94.365371 324.969231 
L 94.463336 324.969231 
L 94.651713 324.969231 
L 94.823572 324.969231 
L 94.960952 324.969231 
L 95.218487 324.969231 
L 95.30051 324.969231 
L 95.53822 324.969231 
L 95.685552 324.969231 
L 95.818234 324.969231 
L 95.989597 324.969231 
L 96.15549 324.969231 
L 96.196881 324.969231 
L 96.466986 324.969231 
L 96.612172 324.969231 
L 96.683948 324.969231 
L 96.891311 324.969231 
L 96.960003 324.969231 
L 97.176396 324.969231 
L 97.360416 324.969231 
L 97.426021 324.969231 
L 97.622956 324.969231 
L 97.889699 324.969231 
L 98.03007 324.969231 
L 98.186251 324.969231 
L 98.234455 324.969231 
L 98.49907 324.969231 
L 98.600656 324.969231 
L 98.729341 324.969231 
L 98.945852 324.969231 
L 99.090375 324.969231 
L 99.216921 324.969231 
L 99.425178 324.969231 
L 99.536949 324.969231 
L 99.757981 324.969231 
L 99.810527 324.969231 
L 100.067624 324.969231 
L 100.135822 324.969231 
L 100.283045 324.969231 
L 100.474664 324.969231 
L 100.625085 324.969231 
L 100.713007 324.969231 
L 100.872999 324.969231 
L 101.066265 324.969231 
L 101.26111 324.969231 
L 101.334749 324.969231 
L 101.5124 324.969231 
L 101.753592 324.969231 
L 101.825614 324.969231 
L 102.057116 324.969231 
L 102.122922 324.969231 
L 102.407544 324.969231 
L 102.456137 324.969231 
L 102.632535 324.969231 
L 102.793447 324.969231 
L 102.935704 324.969231 
L 103.074818 324.969231 
L 103.311555 324.969231 
L 103.381037 324.969231 
L 103.647002 324.969231 
L 103.686679 324.969231 
L 103.903008 324.969231 
L 104.061847 324.969231 
L 104.156513 324.969231 
L 104.451168 324.969231 
L 104.613106 324.969231 
L 104.647195 324.969231 
L 104.812784 324.969231 
L 105.00134 324.969231 
L 105.121386 324.969231 
L 105.320719 324.969231 
L 105.409713 324.969231 
L 105.583957 324.969231 
L 105.833289 324.969231 
L 105.91508 324.969231 
L 106.079105 324.969231 
L 106.334785 324.969231 
L 106.345014 324.969231 
L 106.618473 324.969231 
L 106.719852 324.969231 
L 106.892308 324.969231 
z
" clip-path="url(#p9d84b12a31)" style="fill: #808080; opacity: 0.5"/>
   </g>
   <g id="patch_5">
    <path d="M 13.430769 138.046154 
L 13.430769 13.430769 
L 13.659479 13.430769 
L 14.105821 13.430769 
L 14.49352 13.430769 
L 14.669954 13.430769 
L 14.937245 13.430769 
L 15.357183 13.430769 
L 15.632173 13.430769 
L 15.785785 13.430769 
L 16.349722 13.430769 
L 16.710258 13.430769 
L 16.919848 13.430769 
L 17.183901 13.430769 
L 17.559615 13.430769 
L 17.853187 13.430769 
L 18.06543 13.430769 
L 18.588024 13.430769 
L 18.795713 13.430769 
L 19.181806 13.430769 
L 19.241594 13.430769 
L 19.844507 13.430769 
L 20.152796 13.430769 
L 20.29448 13.430769 
L 20.572623 13.430769 
L 20.870199 13.430769 
L 21.229003 13.430769 
L 21.641729 13.430769 
L 21.943471 13.430769 
L 22.04174 13.430769 
L 22.634379 13.430769 
L 22.857477 13.430769 
L 23.019018 13.430769 
L 23.346222 13.430769 
L 23.751781 13.430769 
L 24.008458 13.430769 
L 24.472223 13.430769 
L 24.840768 13.430769 
L 24.866145 13.430769 
L 25.287465 13.430769 
L 25.793974 13.430769 
L 25.958973 13.430769 
L 26.241397 13.430769 
L 26.570777 13.430769 
L 26.855582 13.430769 
L 27.165044 13.430769 
L 27.544094 13.430769 
L 27.683877 13.430769 
L 28.220992 13.430769 
L 28.320883 13.430769 
L 28.686187 13.430769 
L 29.188436 13.430769 
L 29.377153 13.430769 
L 29.671209 13.430769 
L 29.91576 13.430769 
L 30.275922 13.430769 
L 30.555718 13.430769 
L 30.977424 13.430769 
L 31.283903 13.430769 
L 31.622226 13.430769 
L 31.748406 13.430769 
L 32.227229 13.430769 
L 32.638268 13.430769 
L 32.809098 13.430769 
L 33.147697 13.430769 
L 33.370294 13.430769 
L 33.678462 13.430769 
L 34.163165 13.430769 
L 34.403712 13.430769 
L 34.67014 13.430769 
L 35.104545 13.430769 
L 35.499337 13.430769 
L 35.62142 13.430769 
L 36.013064 13.430769 
L 36.173029 13.430769 
L 36.578995 13.430769 
L 36.98126 13.430769 
L 37.278385 13.430769 
L 37.648873 13.430769 
L 37.732168 13.430769 
L 38.17367 13.430769 
L 38.531428 13.430769 
L 38.772641 13.430769 
L 38.974138 13.430769 
L 39.489896 13.430769 
L 39.718844 13.430769 
L 40.163837 13.430769 
L 40.229319 13.430769 
L 40.658227 13.430769 
L 41.005904 13.430769 
L 41.19664 13.430769 
L 41.588723 13.430769 
L 41.808084 13.430769 
L 42.102807 13.430769 
L 42.493522 13.430769 
L 42.936521 13.430769 
L 43.070545 13.430769 
L 43.553673 13.430769 
L 43.732028 13.430769 
L 44.134781 13.430769 
L 44.433356 13.430769 
L 44.813167 13.430769 
L 45.209142 13.430769 
L 45.352787 13.430769 
L 45.569599 13.430769 
L 45.903079 13.430769 
L 46.409268 13.430769 
L 46.739176 13.430769 
L 46.965893 13.430769 
L 47.315073 13.430769 
L 47.619918 13.430769 
L 47.860705 13.430769 
L 48.182718 13.430769 
L 48.568432 13.430769 
L 48.789414 13.430769 
L 49.2498 13.430769 
L 49.428505 13.430769 
L 49.709219 13.430769 
L 50.13314 13.430769 
L 50.429684 13.430769 
L 50.679693 13.430769 
L 51.096192 13.430769 
L 51.332807 13.430769 
L 51.649203 13.430769 
L 52.05194 13.430769 
L 52.277204 13.430769 
L 52.581001 13.430769 
L 52.800022 13.430769 
L 53.052812 13.430769 
L 53.528074 13.430769 
L 53.717792 13.430769 
L 54.089848 13.430769 
L 54.559617 13.430769 
L 54.668059 13.430769 
L 55.092619 13.430769 
L 55.4902 13.430769 
L 55.689078 13.430769 
L 55.996058 13.430769 
L 56.177106 13.430769 
L 56.514184 13.430769 
L 56.821313 13.430769 
L 57.355865 13.430769 
L 57.605992 13.430769 
L 57.748333 13.430769 
L 58.169317 13.430769 
L 58.550432 13.430769 
L 58.894363 13.430769 
L 59.076025 13.430769 
L 59.52918 13.430769 
L 59.902785 13.430769 
L 60.193699 13.430769 
L 60.252349 13.430769 
L 60.82562 13.430769 
L 60.87639 13.430769 
L 61.418018 13.430769 
L 61.635897 13.430769 
L 62.062669 13.430769 
L 62.396145 13.430769 
L 62.634664 13.430769 
L 63.04098 13.430769 
L 63.294746 13.430769 
L 63.433648 13.430769 
L 63.809547 13.430769 
L 64.037185 13.430769 
L 64.522693 13.430769 
L 64.764749 13.430769 
L 65.170099 13.430769 
L 65.310331 13.430769 
L 65.577764 13.430769 
L 65.955406 13.430769 
L 66.248429 13.430769 
L 66.617998 13.430769 
L 67.104247 13.430769 
L 67.280801 13.430769 
L 67.546968 13.430769 
L 67.82602 13.430769 
L 68.195473 13.430769 
L 68.52764 13.430769 
L 68.960273 13.430769 
L 69.308168 13.430769 
L 69.550587 13.430769 
L 69.750444 13.430769 
L 70.172107 13.430769 
L 70.313828 13.430769 
L 70.658943 13.430769 
L 70.965099 13.430769 
L 71.450668 13.430769 
L 71.823782 13.430769 
L 71.92658 13.430769 
L 72.153347 13.430769 
L 72.758492 13.430769 
L 72.93905 13.430769 
L 73.221566 13.430769 
L 73.485043 13.430769 
L 73.725771 13.430769 
L 74.203989 13.430769 
L 74.40242 13.430769 
L 74.833825 13.430769 
L 75.168219 13.430769 
L 75.581437 13.430769 
L 75.738462 13.430769 
L 75.738462 138.046154 
z
" clip-path="url(#p9d84b12a31)" style="fill: #808080; opacity: 0.5"/>
   </g>
   <g id="patch_6">
    <path d="M 169.2 84.086109 
L 168.506102 83.691392 
L 168.075808 83.452487 
L 167.903819 83.358236 
L 167.483247 83.130709 
L 166.855422 82.798759 
L 166.43244 82.580243 
L 165.961232 82.341604 
L 165.525738 82.125487 
L 165.16008 81.947281 
L 164.685373 81.720311 
L 163.877208 81.345138 
L 163.646058 81.240402 
L 162.97775 80.943929 
L 162.540187 80.754873 
L 162.363224 80.679538 
L 161.642098 80.379179 
L 161.020798 80.128849 
L 160.660003 79.987026 
L 160.26255 79.833782 
L 159.818944 79.666413 
L 159.286188 79.470481 
L 158.921855 79.33965 
L 158.280905 79.115658 
L 158.128337 79.063492 
L 157.27094 78.778489 
L 156.812672 78.631793 
L 156.734758 78.607239 
L 156.094635 78.409748 
L 155.646249 78.275884 
L 154.962556 78.078797 
L 154.653286 77.992414 
L 153.953407 77.803247 
L 153.739593 77.747194 
L 153.417061 77.664172 
L 152.974704 77.553287 
L 152.301694 77.391161 
L 152.021429 77.325974 
L 151.19258 77.141146 
L 150.967736 77.093047 
L 150.329111 76.961152 
L 150.076229 76.910846 
L 149.659347 76.830288 
L 149.126228 76.731551 
L 148.536772 76.627953 
L 148.215198 76.573891 
L 147.693144 76.489805 
L 147.251265 76.422178 
L 146.503467 76.315105 
L 146.312839 76.289288 
L 145.713732 76.212047 
L 145.418219 76.176119 
L 144.886257 76.115051 
L 144.151439 76.038299 
L 143.641879 75.99024 
L 143.399065 75.968824 
L 142.752484 75.916459 
L 142.510901 75.898631 
L 141.989238 75.863354 
L 141.264277 75.821623 
L 141.187528 75.817701 
L 140.43717 75.784355 
L 139.939361 75.767231 
L 139.555193 75.756738 
L 138.992512 75.745649 
L 138.48641 75.740017 
L 138.317805 75.739054 
L 137.573201 75.740257 
L 137.461835 75.741201 
L 136.693836 75.753139 
L 136.500536 75.757635 
L 135.729731 75.781535 
L 135.186504 75.804119 
L 134.809715 75.822573 
L 134.470022 75.841172 
L 134.114628 75.862622 
L 133.327905 75.917363 
L 132.841414 75.956225 
L 132.386959 75.995996 
L 131.939396 76.038444 
L 131.397773 76.094176 
L 131.156172 76.12058 
L 130.831104 76.157612 
L 130.079013 76.249931 
L 129.759785 76.291926 
L 129.408562 76.340072 
L 128.880098 76.416356 
L 128.56927 76.463387 
L 127.750988 76.594888 
L 127.401905 76.654391 
L 126.848856 76.75285 
L 126.518813 76.814063 
L 125.936134 76.926632 
L 125.351962 77.045285 
L 125.113709 77.095351 
L 124.807621 77.1611 
L 124.03284 77.334742 
L 123.562972 77.445115 
L 123.257432 77.518951 
L 122.560997 77.693371 
L 122.197353 77.787843 
L 121.692159 77.922986 
L 121.363569 78.013331 
L 120.863216 78.154625 
L 120.35271 78.303451 
L 119.665265 78.511362 
L 119.231233 78.647103 
L 119.176241 78.66455 
L 118.525627 78.875236 
L 117.813659 79.114883 
L 117.466157 79.235336 
L 117.198542 79.329669 
L 116.749223 79.491143 
L 116.05495 79.748337 
L 115.798354 79.845776 
L 115.142374 80.100788 
L 114.577681 80.327185 
L 114.14604 80.504577 
L 113.724214 80.681602 
L 113.379192 80.829115 
L 112.723291 81.116363 
L 112.388019 81.26668 
L 111.980953 81.452392 
L 111.315032 81.763868 
L 111.010986 81.909283 
L 110.526383 82.145253 
L 110.097322 82.358531 
L 109.651187 82.584686 
L 109.065575 82.888429 
L 108.773674 83.042786 
L 108.068151 83.424108 
L 107.631459 83.666058 
L 107.216653 83.900144 
L 106.584368 84.265074 
L 106.341727 84.407755 
L 105.736777 84.769961 
L 105.386214 84.984145 
L 104.909516 85.280523 
L 104.434605 85.581763 
L 104.072728 85.815369 
L 103.583333 86.136979 
L 103.141561 86.432997 
L 102.707083 86.729503 
L 102.055791 87.184161 
L 101.409387 87.647782 
L 101.252252 87.762386 
L 100.527484 88.300823 
L 100.17771 88.566567 
L 99.642026 88.981182 
L 99.154281 89.36689 
L 98.612661 89.804594 
L 98.201201 90.143875 
L 97.761135 90.513367 
L 97.536927 90.704301 
L 96.841606 91.308228 
L 96.225922 91.858312 
L 96.079643 91.991181 
L 95.253543 92.757734 
L 95.033411 92.966752 
L 94.589012 93.395002 
L 94.211221 93.765829 
L 93.614385 94.364734 
L 93.15189 94.84021 
L 92.570683 95.452374 
L 92.148504 95.907641 
L 91.733986 96.363644 
L 91.023672 97.166639 
L 90.566991 97.697949 
L 90.138705 98.207418 
L 89.65007 98.802459 
L 89.529799 98.951246 
L 88.835122 99.829366 
L 88.250687 100.594051 
L 87.930349 101.0238 
L 87.551341 101.542423 
L 87.002548 102.313833 
L 86.467521 103.090566 
L 86.018969 103.761747 
L 85.828318 104.05283 
L 85.472306 104.606072 
L 85.116295 105.172478 
L 84.742889 105.781459 
L 84.224221 106.654307 
L 83.803736 107.386594 
L 83.443836 108.032234 
L 83.083936 108.696483 
L 82.828883 109.179191 
L 82.57383 109.672401 
L 82.306879 110.200477 
L 81.997641 110.82828 
L 81.688403 111.474508 
L 81.321308 112.267473 
L 80.983761 113.023527 
L 80.631348 113.843085 
L 80.278934 114.696702 
L 80.008015 115.378491 
L 79.737095 116.084775 
L 79.664827 116.277618 
L 79.451456 116.858661 
L 79.238085 117.458305 
L 79.024714 118.078227 
L 78.811343 118.720377 
L 78.639956 119.253809 
L 78.46857 119.804442 
L 78.310948 120.327414 
L 78.153326 120.867745 
L 78.029968 121.303812 
L 77.906611 121.752478 
L 77.783253 122.214815 
L 77.659895 122.692058 
L 77.493973 123.360042 
L 77.328051 124.061861 
L 77.245089 124.427083 
L 77.162128 124.802893 
L 77.079167 125.190219 
L 76.996206 125.590136 
L 76.900716 126.067673 
L 76.805227 126.56585 
L 76.724756 127.003751 
L 76.644285 127.460362 
L 76.563814 127.938218 
L 76.483343 128.440489 
L 76.402872 128.971228 
L 76.322401 129.53576 
L 76.282165 129.832859 
L 76.24193 130.141321 
L 76.201694 130.462533 
L 76.161458 130.798189 
L 76.108584 131.26486 
L 76.082147 131.51084 
L 76.055709 131.76656 
L 76.029272 132.033261 
L 76.002835 132.312476 
L 75.976397 132.606131 
L 75.94996 132.916706 
L 75.923523 133.247485 
L 75.897085 133.602978 
L 75.870648 133.989677 
L 75.857429 134.197638 
L 75.844211 134.417545 
L 75.830992 134.651721 
L 75.817773 134.903353 
L 75.804555 135.17703 
L 75.791336 135.479796 
L 75.778118 135.823504 
L 75.764899 136.231272 
L 75.75168 136.76277 
L 75.738462 138.046154 
L 75.738462 13.430769 
L 76.193864 13.430769 
L 76.504012 13.430769 
L 77.365199 13.430769 
L 77.5149 13.430769 
L 78.239812 13.430769 
L 78.493259 13.430769 
L 79.073742 13.430769 
L 79.305837 13.430769 
L 80.00072 13.430769 
L 80.511897 13.430769 
L 80.82504 13.430769 
L 81.45856 13.430769 
L 81.836971 13.430769 
L 82.399437 13.430769 
L 82.669371 13.430769 
L 83.217268 13.430769 
L 83.912547 13.430769 
L 84.337995 13.430769 
L 84.444616 13.430769 
L 85.045701 13.430769 
L 85.453782 13.430769 
L 86.06064 13.430769 
L 86.584655 13.430769 
L 87.075489 13.430769 
L 87.353725 13.430769 
L 88.111653 13.430769 
L 88.391237 13.430769 
L 89.089147 13.430769 
L 89.177524 13.430769 
L 89.780941 13.430769 
L 90.287177 13.430769 
L 90.853118 13.430769 
L 91.391759 13.430769 
L 91.543809 13.430769 
L 92.060155 13.430769 
L 92.501349 13.430769 
L 93.168187 13.430769 
L 93.364482 13.430769 
L 94.233825 13.430769 
L 94.559729 13.430769 
L 95.107894 13.430769 
L 95.661887 13.430769 
L 96.073587 13.430769 
L 96.61875 13.430769 
L 97.089829 13.430769 
L 97.244199 13.430769 
L 98.012656 13.430769 
L 98.078486 13.430769 
L 98.746606 13.430769 
L 99.164904 13.430769 
L 99.503018 13.430769 
L 99.94009 13.430769 
L 100.751598 13.430769 
L 101.334345 13.430769 
L 101.682298 13.430769 
L 102.213803 13.430769 
L 102.428656 13.430769 
L 103.013135 13.430769 
L 103.489118 13.430769 
L 104.061674 13.430769 
L 104.375117 13.430769 
L 104.815366 13.430769 
L 105.450044 13.430769 
L 105.771294 13.430769 
L 106.245269 13.430769 
L 106.964393 13.430769 
L 107.31207 13.430769 
L 107.682711 13.430769 
L 108.177492 13.430769 
L 108.791896 13.430769 
L 109.317028 13.430769 
L 109.784682 13.430769 
L 110.07022 13.430769 
L 110.295236 13.430769 
L 111.044036 13.430769 
L 111.234823 13.430769 
L 111.708648 13.430769 
L 112.468648 13.430769 
L 112.793328 13.430769 
L 113.512661 13.430769 
L 113.966458 13.430769 
L 114.424988 13.430769 
L 114.575056 13.430769 
L 115.160832 13.430769 
L 115.456333 13.430769 
L 115.957727 13.430769 
L 116.502907 13.430769 
L 116.947299 13.430769 
L 117.700317 13.430769 
L 117.988413 13.430769 
L 118.589824 13.430769 
L 119.157638 13.430769 
L 119.394852 13.430769 
L 119.794431 13.430769 
L 120.423903 13.430769 
L 120.725081 13.430769 
L 121.511971 13.430769 
L 121.594544 13.430769 
L 122.36148 13.430769 
L 122.920458 13.430769 
L 122.994277 13.430769 
L 123.569991 13.430769 
L 124.203367 13.430769 
L 124.354319 13.430769 
L 125.098408 13.430769 
L 125.40116 13.430769 
L 125.87304 13.430769 
L 126.335905 13.430769 
L 126.697149 13.430769 
L 127.57592 13.430769 
L 127.693268 13.430769 
L 128.42 13.430769 
L 128.854836 13.430769 
L 129.204962 13.430769 
L 129.928864 13.430769 
L 130.076365 13.430769 
L 130.528512 13.430769 
L 131.056395 13.430769 
L 131.793027 13.430769 
L 131.931075 13.430769 
L 132.760368 13.430769 
L 133.006821 13.430769 
L 133.339054 13.430769 
L 134.161963 13.430769 
L 134.598168 13.430769 
L 135.041738 13.430769 
L 135.16476 13.430769 
L 136.021522 13.430769 
L 136.303252 13.430769 
L 136.708637 13.430769 
L 137.094407 13.430769 
L 137.739083 13.430769 
L 138.215409 13.430769 
L 138.442342 13.430769 
L 139.302107 13.430769 
L 139.553732 13.430769 
L 140.283785 13.430769 
L 140.715094 13.430769 
L 140.824607 13.430769 
L 141.393332 13.430769 
L 141.951446 13.430769 
L 142.3117 13.430769 
L 143.107555 13.430769 
L 143.366147 13.430769 
L 143.617032 13.430769 
L 144.4783 13.430769 
L 144.701028 13.430769 
L 145.432672 13.430769 
L 145.643382 13.430769 
L 146.389764 13.430769 
L 146.569724 13.430769 
L 147.072708 13.430769 
L 147.38367 13.430769 
L 147.849421 13.430769 
L 148.455063 13.430769 
L 148.806996 13.430769 
L 149.346591 13.430769 
L 150.002349 13.430769 
L 150.489629 13.430769 
L 151.007738 13.430769 
L 151.136448 13.430769 
L 151.985345 13.430769 
L 152.159316 13.430769 
L 152.549339 13.430769 
L 153.34799 13.430769 
L 153.768613 13.430769 
L 154.152523 13.430769 
L 154.783094 13.430769 
L 155.115348 13.430769 
L 155.524239 13.430769 
L 155.88025 13.430769 
L 156.560115 13.430769 
L 156.884082 13.430769 
L 157.457002 13.430769 
L 157.917842 13.430769 
L 158.259971 13.430769 
L 158.860798 13.430769 
L 159.324961 13.430769 
L 159.831249 13.430769 
L 160.147396 13.430769 
L 160.964115 13.430769 
L 161.067868 13.430769 
L 161.661648 13.430769 
L 162.356561 13.430769 
L 162.648787 13.430769 
L 163.047855 13.430769 
L 163.65208 13.430769 
L 164.22382 13.430769 
L 164.725202 13.430769 
L 165.089765 13.430769 
L 165.610587 13.430769 
L 166.097663 13.430769 
L 166.283847 13.430769 
L 166.852856 13.430769 
L 167.117182 13.430769 
L 167.935711 13.430769 
L 168.206219 13.430769 
L 168.788816 13.430769 
L 169.2 13.430769 
z
" clip-path="url(#p9d84b12a31)" style="fill: #808080; opacity: 0.5"/>
   </g>
   <g id="patch_7">
    <path d="M 262.661538 138.046154 
L 262.655515 138.912544 
L 262.649491 139.271385 
L 262.643467 139.546714 
L 262.637443 139.778809 
L 262.631419 139.983274 
L 262.625395 140.168112 
L 262.619371 140.338075 
L 262.613347 140.496261 
L 262.607324 140.644823 
L 262.6013 140.785325 
L 262.595276 140.918951 
L 262.589252 141.04662 
L 262.583228 141.169063 
L 262.577204 141.286871 
L 262.57118 141.400534 
L 262.565156 141.510459 
L 262.553109 141.720426 
L 262.541061 141.91899 
L 262.529013 142.107822 
L 262.516965 142.288223 
L 262.504917 142.461225 
L 262.49287 142.627668 
L 262.480822 142.788242 
L 262.468774 142.943525 
L 262.458007 143.078219 
L 262.447241 143.209379 
L 262.425707 143.462113 
L 262.40406 143.704725 
L 262.382414 143.937274 
L 262.360768 144.160909 
L 262.339121 144.376574 
L 262.317475 144.585059 
L 262.295828 144.787029 
L 262.274182 144.983054 
L 262.252535 145.173624 
L 262.234452 145.328948 
L 262.21637 145.480985 
L 262.180204 145.775965 
L 262.144039 146.059932 
L 262.107873 146.334018 
L 262.071708 146.599171 
L 262.035542 146.8562 
L 261.999376 147.105796 
L 261.963211 147.348556 
L 261.933911 147.540578 
L 261.904612 147.728704 
L 261.875312 147.913157 
L 261.846013 148.094139 
L 261.809555 148.314765 
L 261.773097 148.530623 
L 261.73664 148.742002 
L 261.700182 148.949161 
L 261.634767 149.31102 
L 261.569353 149.661243 
L 261.526306 149.885862 
L 261.483259 150.106145 
L 261.440213 150.322324 
L 261.397166 150.534614 
L 261.353536 150.746012 
L 261.309905 150.953801 
L 261.224861 151.349088 
L 261.139817 151.732435 
L 261.078655 152.0013 
L 261.017493 152.264818 
L 260.95697 152.520609 
L 260.896447 152.771709 
L 260.835924 153.018353 
L 260.775401 153.260759 
L 260.683385 153.621622 
L 260.614144 153.887396 
L 260.544904 154.148487 
L 260.475663 154.405118 
L 260.406422 154.657496 
L 260.318068 154.973664 
L 260.220998 155.313829 
L 260.123929 155.646885 
L 260.057118 155.872197 
L 259.955072 156.210469 
L 259.853026 156.541993 
L 259.749079 156.873125 
L 259.645132 157.197968 
L 259.563389 157.44921 
L 259.481646 157.6969 
L 259.44189 157.816122 
L 259.358951 158.062301 
L 259.276012 158.305149 
L 259.156145 158.650478 
L 259.036278 158.989428 
L 258.933073 159.276385 
L 258.829867 159.559021 
L 258.799627 159.641044 
L 258.671876 159.983699 
L 258.544126 160.320352 
L 258.377215 160.751597 
L 258.313163 160.914607 
L 258.174102 161.263959 
L 258.014567 161.657375 
L 257.891381 161.955997 
L 257.768195 162.250307 
L 257.586322 162.677276 
L 257.572143 162.710196 
L 257.457763 162.973873 
L 257.343382 163.234272 
L 257.144534 163.679458 
L 257.000107 163.997062 
L 256.805995 164.416656 
L 256.667674 164.710763 
L 256.525808 165.008335 
L 256.438693 165.189081 
L 256.251606 165.572305 
L 256.110785 165.856444 
L 255.981533 166.11409 
L 255.787297 166.495776 
L 255.619947 166.81952 
L 255.515236 167.019756 
L 255.291594 167.441603 
L 255.16629 167.674596 
L 255.048786 167.890953 
L 254.775172 168.387015 
L 254.615758 168.6712 
L 254.494416 168.885207 
L 254.364015 169.113021 
L 254.245998 169.317299 
L 254.013127 169.715226 
L 253.970177 169.787887 
L 253.796632 170.079218 
L 253.634561 170.348072 
L 253.365992 170.786968 
L 253.211377 171.036001 
L 253.180671 171.085148 
L 253.023402 171.335288 
L 252.85479 171.600579 
L 252.688832 171.85884 
L 252.491365 172.162538 
L 252.268201 172.501172 
L 252.141541 172.691257 
L 252.079213 172.784244 
L 251.794478 173.204509 
L 251.778324 173.228132 
L 251.526805 173.592979 
L 251.409378 173.761433 
L 251.176793 174.091633 
L 251.005073 174.332539 
L 250.960612 174.394521 
L 250.721254 174.725477 
L 250.673125 174.791476 
L 250.450511 175.094402 
L 250.36085 175.215336 
L 250.147089 175.501214 
L 249.918433 175.803276 
L 249.771281 175.995668 
L 249.653532 176.14851 
L 249.493001 176.355317 
L 249.378133 176.502204 
L 249.201891 176.725825 
L 249.040294 176.929033 
L 248.934523 177.061104 
L 248.764271 177.272156 
L 248.494036 177.603335 
L 248.49175 177.606118 
L 248.324026 177.809332 
L 248.089678 178.090366 
L 247.993871 178.204299 
L 247.79982 178.433381 
L 247.569358 178.702568 
L 247.445361 178.846126 
L 247.377362 178.924479 
L 247.136111 179.200355 
L 246.964568 179.394541 
L 246.917647 179.447374 
L 246.756819 179.627552 
L 246.597612 179.804538 
L 246.358997 180.067275 
L 246.262154 180.173055 
L 246.048581 180.40462 
L 245.987797 180.470099 
L 245.826899 180.642515 
L 245.587077 180.897097 
L 245.436696 181.055282 
L 245.206816 181.294964 
L 245.118787 181.386073 
L 244.933525 181.576611 
L 244.841 181.671165 
L 244.609617 181.905877 
L 244.570131 181.945683 
L 244.325352 182.190861 
L 244.149513 182.365315 
L 243.975318 182.536778 
L 243.951927 182.5597 
L 243.772363 182.734865 
L 243.621354 182.881088 
L 243.398218 183.095356 
L 243.274123 183.213602 
L 243.155676 183.325861 
L 242.934384 183.534024 
L 242.712686 183.740543 
L 242.680739 183.770137 
L 242.406871 184.022143 
L 242.385002 184.042136 
L 242.228163 184.184968 
L 241.960364 184.426604 
L 241.816524 184.555237 
L 241.695564 184.662791 
L 241.492451 184.842133 
L 241.365603 184.953342 
L 241.246643 185.057085 
L 241.034792 185.24053 
L 240.857779 185.392536 
L 240.767933 185.46925 
L 240.566561 185.640125 
L 240.362897 185.811459 
L 240.272941 185.886664 
L 240.10213 186.028676 
L 239.931254 186.169717 
L 239.75516 186.314 
L 239.700178 186.35883 
L 239.439196 186.570209 
L 239.384062 186.614567 
L 239.138313 186.811035 
L 238.985707 186.93202 
L 238.801032 187.077393 
L 238.687468 187.166231 
L 238.477743 187.329183 
L 238.400789 187.388617 
L 238.280558 187.481091 
L 238.100018 187.619081 
L 237.989005 187.703412 
L 237.697894 187.922708 
L 237.582724 188.008731 
L 237.428478 188.123296 
L 237.308355 188.212007 
L 237.141605 188.334416 
L 237.032586 188.413987 
L 236.813914 188.572503 
L 236.640868 188.696925 
L 236.527202 188.778164 
L 236.386414 188.878256 
L 236.208899 189.003624 
L 236.028081 189.130373 
L 235.952052 189.183384 
L 235.676199 189.374313 
L 235.541563 189.466705 
L 235.416168 189.55229 
L 235.29274 189.636097 
L 235.052616 189.797906 
L 234.913977 189.890593 
L 234.754612 189.996475 
L 234.600015 190.098516 
L 234.455863 190.193071 
L 234.401952 190.228287 
L 234.204242 190.356757 
L 234.02529 190.472125 
L 233.859205 190.578424 
L 233.62513 190.726987 
L 233.614014 190.734006 
L 233.344305 190.903302 
L 233.188238 191.000391 
L 233.068114 191.074686 
L 232.934037 191.157166 
L 232.823512 191.224809 
L 232.616868 191.350431 
L 232.435382 191.459856 
L 232.261681 191.563801 
L 232.066229 191.679849 
L 231.947381 191.749944 
L 231.796932 191.838169 
L 231.658119 191.919069 
L 231.507692 192.006198 
L 231.507692 324.969231 
L 231.641687 324.969231 
L 231.820877 324.969231 
L 231.924121 324.969231 
L 232.20231 324.969231 
L 232.25889 324.969231 
L 232.483567 324.969231 
L 232.607454 324.969231 
L 232.835298 324.969231 
L 232.880364 324.969231 
L 233.025241 324.969231 
L 233.208665 324.969231 
L 233.413209 324.969231 
L 233.614574 324.969231 
L 233.764812 324.969231 
L 233.811626 324.969231 
L 234.083544 324.969231 
L 234.148125 324.969231 
L 234.383303 324.969231 
L 234.412957 324.969231 
L 234.641776 324.969231 
L 234.798516 324.969231 
L 234.909167 324.969231 
L 235.110865 324.969231 
L 235.224901 324.969231 
L 235.457564 324.969231 
L 235.549443 324.969231 
L 235.771339 324.969231 
L 235.904137 324.969231 
L 236.008109 324.969231 
L 236.232606 324.969231 
L 236.361826 324.969231 
L 236.460703 324.969231 
L 236.643936 324.969231 
L 236.758678 324.969231 
L 236.947662 324.969231 
L 237.213355 324.969231 
L 237.290051 324.969231 
L 237.441058 324.969231 
L 237.672771 324.969231 
L 237.739281 324.969231 
L 237.872162 324.969231 
L 238.053401 324.969231 
L 238.263417 324.969231 
L 238.412395 324.969231 
L 238.591652 324.969231 
L 238.781215 324.969231 
L 238.909134 324.969231 
L 239.025537 324.969231 
L 239.208841 324.969231 
L 239.316186 324.969231 
L 239.504713 324.969231 
L 239.633068 324.969231 
L 239.798154 324.969231 
L 239.888871 324.969231 
L 240.12678 324.969231 
L 240.256024 324.969231 
L 240.400613 324.969231 
L 240.659822 324.969231 
L 240.794905 324.969231 
L 240.864039 324.969231 
L 241.041247 324.969231 
L 241.273485 324.969231 
L 241.346742 324.969231 
L 241.568716 324.969231 
L 241.708738 324.969231 
L 241.797088 324.969231 
L 242.016291 324.969231 
L 242.194473 324.969231 
L 242.238977 324.969231 
L 242.440248 324.969231 
L 242.629887 324.969231 
L 242.827162 324.969231 
L 242.865912 324.969231 
L 243.130761 324.969231 
L 243.27387 324.969231 
L 243.443453 324.969231 
L 243.562875 324.969231 
L 243.782252 324.969231 
L 243.952867 324.969231 
L 243.974161 324.969231 
L 244.148803 324.969231 
L 244.320768 324.969231 
L 244.542339 324.969231 
L 244.608472 324.969231 
L 244.798292 324.969231 
L 244.943379 324.969231 
L 245.121826 324.969231 
L 245.279461 324.969231 
L 245.465962 324.969231 
L 245.643598 324.969231 
L 245.748739 324.969231 
L 245.905267 324.969231 
L 246.009507 324.969231 
L 246.253139 324.969231 
L 246.349502 324.969231 
L 246.507604 324.969231 
L 246.642145 324.969231 
L 246.848895 324.969231 
L 246.947976 324.969231 
L 247.144508 324.969231 
L 247.381622 324.969231 
L 247.541061 324.969231 
L 247.706065 324.969231 
L 247.777328 324.969231 
L 247.88661 324.969231 
L 248.102243 324.969231 
L 248.202917 324.969231 
L 248.448616 324.969231 
L 248.599523 324.969231 
L 248.701944 324.969231 
L 248.926616 324.969231 
L 248.983374 324.969231 
L 249.254191 324.969231 
L 249.39294 324.969231 
L 249.58856 324.969231 
L 249.728855 324.969231 
L 249.800564 324.969231 
L 249.93269 324.969231 
L 250.162897 324.969231 
L 250.281469 324.969231 
L 250.38085 324.969231 
L 250.544431 324.969231 
L 250.739479 324.969231 
L 250.943266 324.969231 
L 251.055634 324.969231 
L 251.304757 324.969231 
L 251.339823 324.969231 
L 251.520091 324.969231 
L 251.710657 324.969231 
L 251.873924 324.969231 
L 252.092754 324.969231 
L 252.20349 324.969231 
L 252.329388 324.969231 
L 252.525844 324.969231 
L 252.656935 324.969231 
L 252.795427 324.969231 
L 252.924741 324.969231 
L 253.083819 324.969231 
L 253.31594 324.969231 
L 253.431637 324.969231 
L 253.627537 324.969231 
L 253.682332 324.969231 
L 253.896477 324.969231 
L 254.089029 324.969231 
L 254.20228 324.969231 
L 254.338153 324.969231 
L 254.579679 324.969231 
L 254.71927 324.969231 
L 254.906025 324.969231 
L 255.059861 324.969231 
L 255.129868 324.969231 
L 255.280575 324.969231 
L 255.465505 324.969231 
L 255.604045 324.969231 
L 255.816352 324.969231 
L 255.951208 324.969231 
L 256.144554 324.969231 
L 256.201892 324.969231 
L 256.46175 324.969231 
L 256.623908 324.969231 
L 256.710818 324.969231 
L 256.860176 324.969231 
L 257.054738 324.969231 
L 257.149551 324.969231 
L 257.337542 324.969231 
L 257.439897 324.969231 
L 257.630794 324.969231 
L 257.816139 324.969231 
L 257.887484 324.969231 
L 258.084306 324.969231 
L 258.299995 324.969231 
L 258.360988 324.969231 
L 258.512946 324.969231 
L 258.692906 324.969231 
L 258.966054 324.969231 
L 259.077524 324.969231 
L 259.193441 324.969231 
L 259.41456 324.969231 
L 259.557083 324.969231 
L 259.628082 324.969231 
L 259.892911 324.969231 
L 259.98613 324.969231 
L 260.144911 324.969231 
L 260.242157 324.969231 
L 260.433432 324.969231 
L 260.695222 324.969231 
L 260.738362 324.969231 
L 260.890757 324.969231 
L 261.159882 324.969231 
L 261.17986 324.969231 
L 261.391108 324.969231 
L 261.631865 324.969231 
L 261.725204 324.969231 
L 261.869223 324.969231 
L 261.985255 324.969231 
L 262.16358 324.969231 
L 262.336203 324.969231 
L 262.541616 324.969231 
L 262.661538 324.969231 
z
" clip-path="url(#p9d84b12a31)" style="fill: #808080; opacity: 0.5"/>
   </g>
   <g id="patch_8">
    <path d="M 262.661538 138.046154 
L 262.661538 13.430769 
L 262.84147 13.430769 
L 263.195569 13.430769 
L 263.662704 13.430769 
L 263.946314 13.430769 
L 264.10226 13.430769 
L 264.4339 13.430769 
L 264.756821 13.430769 
L 265.17647 13.430769 
L 265.569727 13.430769 
L 265.8109 13.430769 
L 266.120739 13.430769 
L 266.543031 13.430769 
L 266.770911 13.430769 
L 266.944724 13.430769 
L 267.317758 13.430769 
L 267.587841 13.430769 
L 267.92598 13.430769 
L 268.416755 13.430769 
L 268.464457 13.430769 
L 268.929442 13.430769 
L 269.278708 13.430769 
L 269.654752 13.430769 
L 269.781771 13.430769 
L 270.282733 13.430769 
L 270.629622 13.430769 
L 270.885728 13.430769 
L 271.187049 13.430769 
L 271.440254 13.430769 
L 271.587227 13.430769 
L 272.099056 13.430769 
L 272.50919 13.430769 
L 272.673591 13.430769 
L 273.097775 13.430769 
L 273.248358 13.430769 
L 273.47616 13.430769 
L 273.813075 13.430769 
L 274.318509 13.430769 
L 274.665742 13.430769 
L 274.8232 13.430769 
L 275.104097 13.430769 
L 275.359809 13.430769 
L 275.900997 13.430769 
L 276.062224 13.430769 
L 276.329442 13.430769 
L 276.840621 13.430769 
L 277.18865 13.430769 
L 277.414651 13.430769 
L 277.612731 13.430769 
L 278.05355 13.430769 
L 278.431885 13.430769 
L 278.68405 13.430769 
L 279.051619 13.430769 
L 279.331448 13.430769 
L 279.633944 13.430769 
L 279.741841 13.430769 
L 280.339049 13.430769 
L 280.504137 13.430769 
L 280.925505 13.430769 
L 281.236286 13.430769 
L 281.308299 13.430769 
L 281.852478 13.430769 
L 281.975458 13.430769 
L 282.480992 13.430769 
L 282.687214 13.430769 
L 282.918026 13.430769 
L 283.481998 13.430769 
L 283.728931 13.430769 
L 284.098876 13.430769 
L 284.329612 13.430769 
L 284.465508 13.430769 
L 284.737802 13.430769 
L 285.246501 13.430769 
L 285.520523 13.430769 
L 285.743054 13.430769 
L 286.289631 13.430769 
L 286.575932 13.430769 
L 286.865792 13.430769 
L 287.099233 13.430769 
L 287.44239 13.430769 
L 287.771237 13.430769 
L 288.050999 13.430769 
L 288.422038 13.430769 
L 288.546281 13.430769 
L 289.095206 13.430769 
L 289.152051 13.430769 
L 289.678098 13.430769 
L 289.991482 13.430769 
L 290.310267 13.430769 
L 290.387962 13.430769 
L 290.823775 13.430769 
L 291.307922 13.430769 
L 291.55817 13.430769 
L 291.802036 13.430769 
L 291.994016 13.430769 
L 292.497808 13.430769 
L 292.649476 13.430769 
L 293.146155 13.430769 
L 293.204359 13.430769 
L 293.688402 13.430769 
L 294.118358 13.430769 
L 294.437574 13.430769 
L 294.493517 13.430769 
L 294.998218 13.430769 
L 295.268189 13.430769 
L 295.58636 13.430769 
L 295.758583 13.430769 
L 296.129917 13.430769 
L 296.464257 13.430769 
L 296.798255 13.430769 
L 297.245287 13.430769 
L 297.30007 13.430769 
L 297.689209 13.430769 
L 298.118592 13.430769 
L 298.284228 13.430769 
L 298.642842 13.430769 
L 299.04781 13.430769 
L 299.373684 13.430769 
L 299.667114 13.430769 
L 299.9321 13.430769 
L 300.194593 13.430769 
L 300.480362 13.430769 
L 300.794825 13.430769 
L 301.11989 13.430769 
L 301.593552 13.430769 
L 301.81296 13.430769 
L 302.12268 13.430769 
L 302.346212 13.430769 
L 302.740003 13.430769 
L 303.162143 13.430769 
L 303.216093 13.430769 
L 303.551024 13.430769 
L 303.946475 13.430769 
L 304.428915 13.430769 
L 304.699831 13.430769 
L 304.882657 13.430769 
L 305.394757 13.430769 
L 305.550837 13.430769 
L 305.851475 13.430769 
L 306.292464 13.430769 
L 306.595869 13.430769 
L 306.861461 13.430769 
L 307.093296 13.430769 
L 307.418392 13.430769 
L 307.670451 13.430769 
L 308.150075 13.430769 
L 308.493086 13.430769 
L 308.75595 13.430769 
L 309.098919 13.430769 
L 309.253153 13.430769 
L 309.695748 13.430769 
L 310.036382 13.430769 
L 310.169282 13.430769 
L 310.531618 13.430769 
L 310.846768 13.430769 
L 311.233767 13.430769 
L 311.539342 13.430769 
L 311.966429 13.430769 
L 312.051141 13.430769 
L 312.512496 13.430769 
L 312.882948 13.430769 
L 313.151127 13.430769 
L 313.50673 13.430769 
L 313.645886 13.430769 
L 313.85492 13.430769 
L 314.319892 13.430769 
L 314.749384 13.430769 
L 314.910731 13.430769 
L 315.260788 13.430769 
L 315.717966 13.430769 
L 315.887447 13.430769 
L 316.245329 13.430769 
L 316.565261 13.430769 
L 316.844545 13.430769 
L 316.992927 13.430769 
L 317.408499 13.430769 
L 317.7886 13.430769 
L 318.036116 13.430769 
L 318.285518 13.430769 
L 318.841785 13.430769 
L 319.115044 13.430769 
L 319.481382 13.430769 
L 319.745017 13.430769 
L 319.977073 13.430769 
L 320.123855 13.430769 
L 320.699898 13.430769 
L 321.010604 13.430769 
L 321.0972 13.430769 
L 321.65407 13.430769 
L 321.696539 13.430769 
L 322.163624 13.430769 
L 322.512257 13.430769 
L 322.736878 13.430769 
L 323.08684 13.430769 
L 323.441168 13.430769 
L 323.598263 13.430769 
L 324.035118 13.430769 
L 324.340535 13.430769 
L 324.579868 13.430769 
L 324.969231 13.430769 
L 324.969231 138.046154 
z
" clip-path="url(#p9d84b12a31)" style="fill: #808080; opacity: 0.5"/>
   </g>
   <g id="patch_9">
    <path d="M 262.661538 138.046154 
L 262.639908 136.40452 
L 262.618278 135.724734 
L 262.596648 135.203253 
L 262.575018 134.76374 
L 262.553388 134.376623 
L 262.531758 134.026733 
L 262.510128 133.70506 
L 262.488498 133.405733 
L 262.466868 133.124672 
L 262.445238 132.858907 
L 262.423608 132.606197 
L 262.401978 132.364798 
L 262.358718 131.910656 
L 262.315458 131.488172 
L 262.272198 131.091574 
L 262.228938 130.71666 
L 262.185678 130.360255 
L 262.142418 130.019893 
L 262.099158 129.693613 
L 262.055898 129.379824 
L 262.012638 129.077215 
L 261.969378 128.78469 
L 261.92251 128.478074 
L 261.875642 128.181205 
L 261.781905 127.61341 
L 261.688168 127.075762 
L 261.594431 126.564025 
L 261.508724 126.115966 
L 261.423018 125.68473 
L 261.301022 125.096626 
L 261.179026 124.535196 
L 261.057031 123.997242 
L 260.935035 123.480163 
L 260.803056 122.9418 
L 260.671078 122.423092 
L 260.5391 121.922141 
L 260.407121 121.437341 
L 260.220013 120.775062 
L 260.032904 120.139212 
L 259.845796 119.52707 
L 259.658687 118.936356 
L 259.406014 118.169282 
L 259.240344 117.683717 
L 259.074675 117.210781 
L 258.909006 116.749634 
L 258.743337 116.299524 
L 258.475804 115.594282 
L 258.208271 114.913622 
L 257.972439 114.332312 
L 257.736606 113.767205 
L 257.675234 113.622662 
L 257.428205 113.050832 
L 257.181175 112.494184 
L 256.953288 111.993291 
L 256.725401 111.503805 
L 256.394246 110.811578 
L 256.06309 110.140444 
L 255.758057 109.53963 
L 255.375829 108.808679 
L 254.992404 108.098257 
L 254.608979 107.409099 
L 254.096961 106.51956 
L 253.700281 105.852887 
L 253.2135 105.05971 
L 252.644426 104.164835 
L 252.184188 103.464885 
L 252.027531 103.231231 
L 251.67618 102.715338 
L 251.32483 102.210315 
L 251.097682 101.889388 
L 250.721605 101.367313 
L 250.345528 100.856367 
L 250.147825 100.592072 
L 249.523942 99.776711 
L 249.136852 99.284486 
L 248.613707 98.635059 
L 248.2217 98.159852 
L 247.630534 97.460894 
L 247.233552 97.002985 
L 246.881953 96.604824 
L 246.21366 95.866467 
L 245.537506 95.142945 
L 245.27116 94.864173 
L 244.710968 94.288934 
L 244.574868 94.151396 
L 243.827493 93.411072 
L 243.625876 93.215585 
L 242.770565 92.405486 
L 242.311339 91.982966 
L 242.14067 91.828085 
L 241.317421 91.096883 
L 240.861796 90.703208 
L 240.774243 90.628435 
L 240.303331 90.231019 
L 239.843804 89.850804 
L 239.322454 89.428296 
L 238.711873 88.945132 
L 238.238465 88.578951 
L 237.857473 88.289481 
L 237.162955 87.773517 
L 236.671259 87.417169 
L 236.568528 87.343636 
L 235.967069 86.919381 
L 235.574485 86.648147 
L 235.043425 86.28824 
L 234.352527 85.831805 
L 234.106011 85.672116 
L 233.60616 85.353345 
L 233.137713 85.060622 
L 232.484233 84.661823 
L 232.237326 84.513993 
L 231.742005 84.22207 
L 231.236527 83.930458 
L 230.534201 83.535653 
L 230.340492 83.428853 
L 229.751986 83.109846 
L 229.405021 82.925579 
L 228.901694 82.663224 
L 228.411972 82.413519 
L 227.783077 82.100771 
L 227.617043 82.019672 
L 227.03089 81.738216 
L 226.675458 81.571192 
L 226.23529 81.368121 
L 225.606161 81.085035 
L 225.151616 80.885686 
L 224.722858 80.701583 
L 224.056241 80.422851 
L 223.91338 80.364295 
L 223.018768 80.006944 
L 222.972882 79.989046 
L 222.344235 79.748029 
L 221.624634 79.481641 
L 221.407881 79.40337 
L 220.875364 79.214905 
L 220.240054 78.99713 
L 219.95815 78.90294 
L 219.322248 78.695937 
L 218.864842 78.551687 
L 218.682355 78.495215 
L 217.833911 78.24067 
L 217.352212 78.101979 
L 216.894199 77.973987 
L 216.707287 77.922835 
L 216.005422 77.736315 
L 215.520215 77.612473 
L 215.322624 77.563229 
L 214.956941 77.473898 
L 214.209014 77.298456 
L 214.018921 77.255412 
L 213.47668 77.136058 
L 213.100292 77.056182 
L 212.198771 76.874704 
L 211.954899 76.827986 
L 211.652977 76.771541 
L 211.123145 76.676204 
L 210.643649 76.59399 
L 210.102037 76.50575 
L 209.437758 76.404195 
L 208.908411 76.328507 
L 208.63267 76.290914 
L 208.135858 76.226345 
L 207.796036 76.184515 
L 207.031493 76.097324 
L 206.841612 76.07715 
L 206.53656 76.045972 
L 206.004071 75.995179 
L 205.301041 75.935174 
L 204.955528 75.908621 
L 204.310058 75.864188 
L 204.183293 75.856252 
L 203.396488 75.812796 
L 202.853949 75.78864 
L 202.625801 75.779897 
L 202.213803 75.766229 
L 201.671785 75.752402 
L 201.235418 75.744698 
L 200.677021 75.7393 
L 199.969617 75.739646 
L 199.508634 75.744195 
L 199.169553 75.749718 
L 198.936172 75.754592 
L 198.43297 75.768078 
L 197.679567 75.795879 
L 197.459478 75.805724 
L 196.794286 75.840221 
L 196.343657 75.867645 
L 196.191241 75.877663 
L 195.566379 75.922658 
L 195.16629 75.954787 
L 194.596802 76.004998 
L 194.315924 76.031704 
L 193.545279 76.111576 
L 193.353183 76.132995 
L 192.804743 76.197471 
L 192.351342 76.2545 
L 191.804004 76.327852 
L 191.120701 76.426372 
L 190.812874 76.473283 
L 190.322555 76.551262 
L 190.003494 76.604159 
L 189.40559 76.707877 
L 188.840329 76.811462 
L 188.660398 76.845567 
L 187.90876 76.993977 
L 187.551248 77.067945 
L 187.169326 77.149381 
L 186.622944 77.270247 
L 185.988697 77.417027 
L 185.577165 77.516011 
L 185.347569 77.572522 
L 184.564606 77.772209 
L 184.016835 77.918368 
L 183.605901 78.031532 
L 183.35318 78.102631 
L 182.890569 78.235766 
L 182.385439 78.385573 
L 181.868444 78.54373 
L 181.242476 78.74182 
L 180.741251 78.905689 
L 180.338629 79.040734 
L 180.092694 79.12473 
L 179.701974 79.260537 
L 178.902619 79.547492 
L 178.748937 79.604076 
L 178.343883 79.755416 
L 177.778222 79.972152 
L 177.358228 80.137173 
L 176.696136 80.404491 
L 176.259228 80.585751 
L 175.606588 80.863799 
L 175.114121 81.079455 
L 174.760414 81.237486 
L 174.568954 81.324131 
L 173.968546 81.60092 
L 173.391501 81.874271 
L 172.828558 82.147969 
L 172.472373 82.324776 
L 172.123476 82.500725 
L 171.445624 82.850473 
L 171.103597 83.030961 
L 170.776725 83.206001 
L 170.047612 83.605537 
L 169.59318 83.861009 
L 169.2 84.086109 
L 169.2 13.430769 
L 169.79795 13.430769 
L 170.005656 13.430769 
L 170.755968 13.430769 
L 171.273043 13.430769 
L 171.743257 13.430769 
L 171.9023 13.430769 
L 172.617351 13.430769 
L 172.730075 13.430769 
L 173.223621 13.430769 
L 173.963879 13.430769 
L 174.312083 13.430769 
L 174.804917 13.430769 
L 175.081394 13.430769 
L 175.940277 13.430769 
L 176.264762 13.430769 
L 176.803094 13.430769 
L 177.385167 13.430769 
L 177.67691 13.430769 
L 178.129384 13.430769 
L 178.797382 13.430769 
L 178.962316 13.430769 
L 179.476932 13.430769 
L 179.93734 13.430769 
L 180.380213 13.430769 
L 180.81459 13.430769 
L 181.436693 13.430769 
L 181.960788 13.430769 
L 182.401002 13.430769 
L 182.794592 13.430769 
L 183.095372 13.430769 
L 183.983342 13.430769 
L 184.330887 13.430769 
L 184.628793 13.430769 
L 185.184704 13.430769 
L 185.437702 13.430769 
L 186.291843 13.430769 
L 186.345064 13.430769 
L 187.044966 13.430769 
L 187.340851 13.430769 
L 188.003673 13.430769 
L 188.653052 13.430769 
L 188.898556 13.430769 
L 189.603975 13.430769 
L 190.05906 13.430769 
L 190.454123 13.430769 
L 190.913448 13.430769 
L 191.432471 13.430769 
L 191.560633 13.430769 
L 191.991703 13.430769 
L 192.588602 13.430769 
L 193.017309 13.430769 
L 193.509418 13.430769 
L 194.320606 13.430769 
L 194.742857 13.430769 
L 194.920805 13.430769 
L 195.401892 13.430769 
L 195.840448 13.430769 
L 196.326607 13.430769 
L 196.78798 13.430769 
L 197.28023 13.430769 
L 197.850918 13.430769 
L 198.322964 13.430769 
L 198.75181 13.430769 
L 199.152018 13.430769 
L 199.862496 13.430769 
L 200.358411 13.430769 
L 200.76497 13.430769 
L 201.106274 13.430769 
L 201.571702 13.430769 
L 202.16106 13.430769 
L 202.382385 13.430769 
L 203.146225 13.430769 
L 203.337564 13.430769 
L 204.092144 13.430769 
L 204.22143 13.430769 
L 204.829694 13.430769 
L 205.305042 13.430769 
L 205.907523 13.430769 
L 206.205029 13.430769 
L 206.544812 13.430769 
L 207.344144 13.430769 
L 207.653829 13.430769 
L 208.192401 13.430769 
L 208.858673 13.430769 
L 209.344765 13.430769 
L 209.433001 13.430769 
L 210.120709 13.430769 
L 210.302428 13.430769 
L 210.941475 13.430769 
L 211.278842 13.430769 
L 211.721813 13.430769 
L 212.273176 13.430769 
L 212.905473 13.430769 
L 213.174787 13.430769 
L 213.661849 13.430769 
L 214.128355 13.430769 
L 214.846944 13.430769 
L 215.115012 13.430769 
L 215.624956 13.430769 
L 215.994485 13.430769 
L 216.568469 13.430769 
L 216.913643 13.430769 
L 217.710824 13.430769 
L 217.969614 13.430769 
L 218.446462 13.430769 
L 219.166213 13.430769 
L 219.29981 13.430769 
L 220.07262 13.430769 
L 220.402579 13.430769 
L 220.661924 13.430769 
L 221.11622 13.430769 
L 221.755592 13.430769 
L 222.221577 13.430769 
L 222.862383 13.430769 
L 223.194136 13.430769 
L 223.574872 13.430769 
L 224.170371 13.430769 
L 224.842197 13.430769 
L 225.037946 13.430769 
L 225.34458 13.430769 
L 225.822318 13.430769 
L 226.323846 13.430769 
L 227.005508 13.430769 
L 227.399685 13.430769 
L 228.068489 13.430769 
L 228.421024 13.430769 
L 229.011596 13.430769 
L 229.101038 13.430769 
L 229.648759 13.430769 
L 230.319475 13.430769 
L 230.661198 13.430769 
L 231.202489 13.430769 
L 231.816598 13.430769 
L 232.190423 13.430769 
L 232.5414 13.430769 
L 233.097371 13.430769 
L 233.62544 13.430769 
L 233.958212 13.430769 
L 234.538177 13.430769 
L 234.921777 13.430769 
L 235.499956 13.430769 
L 236.025131 13.430769 
L 236.220961 13.430769 
L 237.001061 13.430769 
L 237.326118 13.430769 
L 237.832826 13.430769 
L 238.008283 13.430769 
L 238.909635 13.430769 
L 239.259587 13.430769 
L 239.63065 13.430769 
L 240.012266 13.430769 
L 240.819456 13.430769 
L 241.159692 13.430769 
L 241.500749 13.430769 
L 242.046919 13.430769 
L 242.368422 13.430769 
L 242.806055 13.430769 
L 243.551424 13.430769 
L 244.00854 13.430769 
L 244.495873 13.430769 
L 244.781296 13.430769 
L 245.235341 13.430769 
L 245.860181 13.430769 
L 246.429048 13.430769 
L 246.898197 13.430769 
L 247.088292 13.430769 
L 247.409109 13.430769 
L 248.225543 13.430769 
L 248.753379 13.430769 
L 249.056875 13.430769 
L 249.494908 13.430769 
L 250.052142 13.430769 
L 250.595751 13.430769 
L 250.942902 13.430769 
L 251.578864 13.430769 
L 251.718973 13.430769 
L 252.356014 13.430769 
L 252.857651 13.430769 
L 253.039241 13.430769 
L 253.764942 13.430769 
L 254.059633 13.430769 
L 254.587183 13.430769 
L 255.380472 13.430769 
L 255.521082 13.430769 
L 256.039107 13.430769 
L 256.449728 13.430769 
L 257.210529 13.430769 
L 257.605492 13.430769 
L 257.941121 13.430769 
L 258.440987 13.430769 
L 258.674906 13.430769 
L 259.6006 13.430769 
L 259.647192 13.430769 
L 260.426236 13.430769 
L 260.671566 13.430769 
L 261.212563 13.430769 
L 261.754273 13.430769 
L 262.392409 13.430769 
L 262.661538 13.430769 
z
" clip-path="url(#p9d84b12a31)" style="fill: #808080; opacity: 0.5"/>
   </g>
   <g id="patch_10">
    <path d="M 13.430769 138.046154 
L 13.430769 324.969231 
L 13.80447 324.969231 
L 13.913186 324.969231 
L 14.293085 324.969231 
L 14.534281 324.969231 
L 14.970936 324.969231 
L 15.234037 324.969231 
L 15.533112 324.969231 
L 15.791458 324.969231 
L 16.153196 324.969231 
L 16.620288 324.969231 
L 16.765611 324.969231 
L 17.14899 324.969231 
L 17.504993 324.969231 
L 17.903931 324.969231 
L 18.035121 324.969231 
L 18.489677 324.969231 
L 18.792786 324.969231 
L 18.953323 324.969231 
L 19.237819 324.969231 
L 19.569628 324.969231 
L 20.156295 324.969231 
L 20.386065 324.969231 
L 20.702975 324.969231 
L 21.026995 324.969231 
L 21.28517 324.969231 
L 21.683018 324.969231 
L 21.990623 324.969231 
L 22.04695 324.969231 
L 22.411261 324.969231 
L 22.801607 324.969231 
L 23.049061 324.969231 
L 23.297018 324.969231 
L 23.688969 324.969231 
L 23.949451 324.969231 
L 24.504795 324.969231 
L 24.642839 324.969231 
L 25.0173 324.969231 
L 25.253372 324.969231 
L 25.650479 324.969231 
L 26.04376 324.969231 
L 26.219681 324.969231 
L 26.625084 324.969231 
L 26.880251 324.969231 
L 27.112228 324.969231 
L 27.47502 324.969231 
L 27.685822 324.969231 
L 28.044455 324.969231 
L 28.38618 324.969231 
L 28.707374 324.969231 
L 29.053371 324.969231 
L 29.391603 324.969231 
L 29.751566 324.969231 
L 29.921487 324.969231 
L 30.208271 324.969231 
L 30.681067 324.969231 
L 30.821111 324.969231 
L 31.374018 324.969231 
L 31.681666 324.969231 
L 32.014228 324.969231 
L 32.290256 324.969231 
L 32.549834 324.969231 
L 32.862567 324.969231 
L 33.266159 324.969231 
L 33.355415 324.969231 
L 33.756128 324.969231 
L 33.977548 324.969231 
L 34.422195 324.969231 
L 34.631654 324.969231 
L 34.958646 324.969231 
L 35.475396 324.969231 
L 35.542204 324.969231 
L 36.031224 324.969231 
L 36.384946 324.969231 
L 36.576144 324.969231 
L 36.82581 324.969231 
L 37.343533 324.969231 
L 37.692053 324.969231 
L 37.710892 324.969231 
L 38.279591 324.969231 
L 38.505707 324.969231 
L 38.812057 324.969231 
L 39.176805 324.969231 
L 39.3146 324.969231 
L 39.638449 324.969231 
L 40.073981 324.969231 
L 40.246026 324.969231 
L 40.646151 324.969231 
L 40.900038 324.969231 
L 41.163058 324.969231 
L 41.618595 324.969231 
L 41.978398 324.969231 
L 42.346602 324.969231 
L 42.427847 324.969231 
L 42.818293 324.969231 
L 43.223759 324.969231 
L 43.546126 324.969231 
L 43.845922 324.969231 
L 44.177223 324.969231 
L 44.458925 324.969231 
L 44.690751 324.969231 
L 44.986872 324.969231 
L 45.444971 324.969231 
L 45.525063 324.969231 
L 45.842492 324.969231 
L 46.350747 324.969231 
L 46.695408 324.969231 
L 46.897096 324.969231 
L 47.187091 324.969231 
L 47.572436 324.969231 
L 47.988411 324.969231 
L 48.201221 324.969231 
L 48.564388 324.969231 
L 48.928938 324.969231 
L 48.980371 324.969231 
L 49.47488 324.969231 
L 49.731106 324.969231 
L 50.179355 324.969231 
L 50.47854 324.969231 
L 50.601594 324.969231 
L 50.954805 324.969231 
L 51.390971 324.969231 
L 51.704841 324.969231 
L 52.08721 324.969231 
L 52.259912 324.969231 
L 52.440993 324.969231 
L 53.034194 324.969231 
L 53.250438 324.969231 
L 53.38083 324.969231 
L 53.921859 324.969231 
L 54.067985 324.969231 
L 54.550632 324.969231 
L 54.819168 324.969231 
L 54.98043 324.969231 
L 55.5079 324.969231 
L 55.590084 324.969231 
L 55.899183 324.969231 
L 56.377331 324.969231 
L 56.493608 324.969231 
L 57.070931 324.969231 
L 57.356653 324.969231 
L 57.593679 324.969231 
L 57.746404 324.969231 
L 58.320397 324.969231 
L 58.582717 324.969231 
L 58.735675 324.969231 
L 59.110099 324.969231 
L 59.525459 324.969231 
L 59.697367 324.969231 
L 60.117945 324.969231 
L 60.432551 324.969231 
L 60.858294 324.969231 
L 60.89408 324.969231 
L 61.368914 324.969231 
L 61.522039 324.969231 
L 61.893256 324.969231 
L 62.253327 324.969231 
L 62.631535 324.969231 
L 62.749209 324.969231 
L 63.316429 324.969231 
L 63.523595 324.969231 
L 63.746028 324.969231 
L 64.168547 324.969231 
L 64.431655 324.969231 
L 64.845763 324.969231 
L 64.982838 324.969231 
L 65.429464 324.969231 
L 65.725137 324.969231 
L 66.093745 324.969231 
L 66.275801 324.969231 
L 66.799557 324.969231 
L 66.883934 324.969231 
L 67.295464 324.969231 
L 67.728471 324.969231 
L 67.779325 324.969231 
L 68.241936 324.969231 
L 68.512219 324.969231 
L 68.920433 324.969231 
L 69.257574 324.969231 
L 69.391052 324.969231 
L 69.720655 324.969231 
L 70.255054 324.969231 
L 70.354122 324.969231 
L 70.862049 324.969231 
L 71.0697 324.969231 
L 71.31099 324.969231 
L 71.760142 324.969231 
L 71.926035 324.969231 
L 72.341869 324.969231 
L 72.469265 324.969231 
L 73.071078 324.969231 
L 73.378068 324.969231 
L 73.673278 324.969231 
L 73.900697 324.969231 
L 74.079714 324.969231 
L 74.479926 324.969231 
L 74.867981 324.969231 
L 75.226005 324.969231 
L 75.307542 324.969231 
L 75.738462 324.969231 
L 75.738462 138.046154 
z
" clip-path="url(#p9d84b12a31)" style="fill: #808080; opacity: 0.5"/>
   </g>
   <g id="patch_11">
    <path d="M 231.507692 200.353846 
L 231.482509 202.12517 
L 231.457326 202.858623 
L 231.432142 203.421249 
L 231.406959 203.89542 
L 231.381776 204.313046 
L 231.356593 204.690493 
L 231.331409 205.037486 
L 231.306226 205.360361 
L 231.281043 205.66352 
L 231.25586 205.950167 
L 231.205493 206.483067 
L 231.155127 206.97282 
L 231.10476 207.428393 
L 231.054393 207.856015 
L 231.004027 208.260222 
L 230.95366 208.644441 
L 230.903294 209.011332 
L 230.852927 209.363013 
L 230.802561 209.701201 
L 230.701828 210.342526 
L 230.607036 210.909623 
L 230.512245 211.446959 
L 230.417453 211.95867 
L 230.322662 212.448007 
L 230.22787 212.917585 
L 230.133079 213.369544 
L 230.038288 213.805659 
L 229.943496 214.227425 
L 229.872047 214.536626 
L 229.759169 215.011118 
L 229.64629 215.469881 
L 229.533412 215.914306 
L 229.420534 216.345589 
L 229.194777 217.172741 
L 228.969021 217.958183 
L 228.787543 218.562997 
L 228.606066 219.146606 
L 228.424589 219.710928 
L 228.243112 220.257602 
L 228.00559 220.948776 
L 227.768068 221.614842 
L 227.542966 222.224988 
L 227.317864 222.816312 
L 227.092762 223.390265 
L 226.86766 223.948114 
L 226.55105 224.707604 
L 226.129475 225.677419 
L 225.823201 226.35503 
L 225.516928 227.011907 
L 225.028573 228.020053 
L 224.540218 228.984403 
L 224.192154 229.647386 
L 223.853044 230.275299 
L 223.513933 230.886537 
L 223.031927 231.728553 
L 222.54992 232.541337 
L 222.228146 233.06874 
L 221.577675 234.100367 
L 221.08756 234.849203 
L 220.597445 235.575305 
L 220.00003 236.431616 
L 219.853741 236.636722 
L 219.343579 237.338573 
L 218.833418 238.020441 
L 218.083058 238.98926 
L 218.013992 239.076484 
L 217.316983 239.939254 
L 216.79298 240.567733 
L 216.268978 241.179816 
L 216.083168 241.39306 
L 215.479991 242.072079 
L 214.954684 242.64755 
L 214.429377 243.208857 
L 213.973859 243.684552 
L 213.096814 244.572826 
L 212.567179 245.092379 
L 212.197257 245.448019 
L 211.526026 246.078632 
L 210.542516 246.969776 
L 210.185106 247.284322 
L 209.439121 247.925494 
L 209.125007 248.189422 
L 208.406421 248.780131 
L 207.809399 249.257454 
L 207.01192 249.876641 
L 206.698533 250.114358 
L 205.678294 250.867038 
L 205.282613 251.150436 
L 204.646671 251.596231 
L 204.043129 252.008516 
L 203.068033 252.653032 
L 202.787911 252.833373 
L 201.893514 253.395176 
L 201.644795 253.547679 
L 200.836304 254.032453 
L 200.315412 254.336062 
L 199.7494 254.658383 
L 199.07635 255.031559 
L 198.32781 255.433962 
L 197.854024 255.681917 
L 197.163791 256.033958 
L 196.439473 256.391866 
L 196.045763 256.58154 
L 195.184904 256.984521 
L 194.563616 257.265493 
L 193.664069 257.657928 
L 193.170687 257.86606 
L 192.917461 257.970949 
L 192.182169 258.268166 
L 191.561752 258.510536 
L 190.677092 258.843016 
L 190.470376 258.918508 
L 189.47965 259.268906 
L 188.885474 259.470093 
L 188.27819 259.668863 
L 187.482464 259.918937 
L 186.930142 260.085668 
L 186.72774 260.145374 
L 185.874448 260.38893 
L 185.011328 260.622 
L 184.425525 260.772651 
L 183.630454 260.967463 
L 183.210256 261.065964 
L 182.900549 261.136602 
L 182.010375 261.330422 
L 181.579957 261.419263 
L 180.644488 261.601476 
L 180.23828 261.675986 
L 179.372362 261.82556 
L 178.742759 261.92644 
L 178.413552 261.976561 
L 177.528421 262.102416 
L 177.041024 262.166198 
L 176.31526 262.25394 
L 176.016289 262.287575 
L 175.198463 262.372125 
L 174.524988 262.433577 
L 173.894016 262.484473 
L 173.346493 262.523414 
L 172.929974 262.549793 
L 172.29194 262.584774 
L 171.105347 262.632399 
L 170.842435 262.639887 
L 170.272111 262.652314 
L 169.631237 262.660046 
L 168.900885 262.66082 
L 168.279432 262.654738 
L 167.611817 262.641294 
L 167.25435 262.631153 
L 166.218448 262.590161 
L 165.674587 262.561723 
L 165.063018 262.524047 
L 164.25858 262.465285 
L 164.147872 262.456378 
L 163.500499 262.400314 
L 162.377659 262.286908 
L 161.793166 262.219728 
L 161.120374 262.135463 
L 160.494271 262.050352 
L 159.961086 261.972764 
L 159.314116 261.872281 
L 159.168897 261.848769 
L 157.969976 261.641162 
L 157.757083 261.60177 
L 157.134655 261.482203 
L 156.409478 261.334589 
L 155.694873 261.180321 
L 155.001337 261.022178 
L 154.178428 260.823681 
L 154.116157 260.808178 
L 153.229912 260.580126 
L 152.595784 260.408392 
L 151.860526 260.200243 
L 151.221258 260.011313 
L 150.945 259.92736 
L 149.925231 259.605275 
L 149.548549 259.481412 
L 148.688217 259.18849 
L 148.350656 259.069716 
L 147.289908 258.682196 
L 146.809336 258.499411 
L 146.168949 258.248744 
L 145.927385 258.152063 
L 145.066935 257.798112 
L 144.694497 257.640222 
L 143.559542 257.141305 
L 143.241675 256.996709 
L 142.601964 256.699148 
L 141.932236 256.378105 
L 141.576796 256.203709 
L 140.857324 255.842054 
L 139.966788 255.378094 
L 139.201871 254.964841 
L 138.695289 254.683498 
L 137.941677 254.253436 
L 137.477756 253.98171 
L 136.675489 253.498975 
L 136.058876 253.116659 
L 135.939225 253.041315 
L 134.914692 252.380437 
L 134.54638 252.135843 
L 133.692485 251.554089 
L 133.363807 251.324581 
L 132.417649 250.646064 
L 131.792706 250.182983 
L 131.016514 249.590722 
L 130.5088 249.192761 
L 130.014759 248.797271 
L 129.660666 248.508696 
L 129.054741 248.00473 
L 128.168043 247.243366 
L 127.512154 246.661211 
L 126.699895 245.916875 
L 126.307278 245.547462 
L 125.72973 244.992217 
L 125.350966 244.620207 
L 124.645206 243.909774 
L 123.976587 243.215151 
L 123.024608 242.187824 
L 122.832456 241.974747 
L 122.082817 241.124174 
L 121.410237 240.333679 
L 120.766677 239.551572 
L 120.236436 238.887181 
L 119.472494 237.896137 
L 118.91641 237.14799 
L 118.258739 236.231924 
L 117.763982 235.518951 
L 117.269225 234.784111 
L 116.974582 234.335521 
L 116.588484 233.734633 
L 116.127794 232.997214 
L 115.667103 232.23609 
L 115.250708 231.526308 
L 114.834313 230.794289 
L 114.385543 229.978563 
L 113.853166 228.971611 
L 113.351564 227.979935 
L 112.849963 226.941849 
L 112.391914 225.948571 
L 112.143315 225.389486 
L 111.902094 224.832377 
L 111.660872 224.259855 
L 111.41965 223.670786 
L 111.178428 223.063883 
L 110.982149 222.555882 
L 110.78587 222.034205 
L 110.589591 221.49784 
L 110.393312 220.94564 
L 110.128991 220.174653 
L 109.864669 219.368763 
L 109.675598 218.768355 
L 109.486528 218.145691 
L 109.258572 217.361894 
L 109.030616 216.536978 
L 108.916638 216.107093 
L 108.80266 215.664296 
L 108.688682 215.20743 
L 108.574704 214.735155 
L 108.461824 214.250698 
L 108.348944 213.74778 
L 108.225076 213.172082 
L 108.101209 212.568027 
L 107.977341 211.931176 
L 107.853474 211.255783 
L 107.79154 210.901336 
L 107.729606 210.53418 
L 107.667672 210.152885 
L 107.605739 209.755733 
L 107.543805 209.340621 
L 107.481871 208.904933 
L 107.419937 208.445346 
L 107.358004 207.957529 
L 107.299792 207.468108 
L 107.24158 206.941916 
L 107.212474 206.662181 
L 107.183368 206.369312 
L 107.154262 206.061286 
L 107.125156 205.735502 
L 107.09605 205.388513 
L 107.066944 205.015587 
L 107.037838 204.609911 
L 107.023285 204.39174 
L 107.008732 204.161032 
L 106.994179 203.91535 
L 106.979626 203.651351 
L 106.965073 203.364218 
L 106.95052 203.046562 
L 106.935967 202.685943 
L 106.921414 202.258106 
L 106.906861 201.70044 
L 106.892308 200.353846 
L 106.892308 324.969231 
L 107.30936 324.969231 
L 107.850053 324.969231 
L 108.90582 324.969231 
L 109.187627 324.969231 
L 109.727415 324.969231 
L 110.396334 324.969231 
L 111.491229 324.969231 
L 111.894855 324.969231 
L 112.41227 324.969231 
L 113.435158 324.969231 
L 113.974509 324.969231 
L 114.711862 324.969231 
L 115.037642 324.969231 
L 115.783097 324.969231 
L 116.105625 324.969231 
L 117.109401 324.969231 
L 117.46061 324.969231 
L 118.456619 324.969231 
L 118.541573 324.969231 
L 119.673832 324.969231 
L 119.752215 324.969231 
L 120.523684 324.969231 
L 121.355133 324.969231 
L 121.686725 324.969231 
L 122.655345 324.969231 
L 123.486206 324.969231 
L 123.647506 324.969231 
L 124.644822 324.969231 
L 125.271984 324.969231 
L 125.701399 324.969231 
L 126.456586 324.969231 
L 126.639261 324.969231 
L 127.741625 324.969231 
L 128.36927 324.969231 
L 128.563044 324.969231 
L 129.353167 324.969231 
L 130.027115 324.969231 
L 130.966166 324.969231 
L 131.608074 324.969231 
L 132.160877 324.969231 
L 132.46173 324.969231 
L 132.953918 324.969231 
L 134.065452 324.969231 
L 134.280743 324.969231 
L 135.247232 324.969231 
L 135.543302 324.969231 
L 136.500072 324.969231 
L 137.106535 324.969231 
L 137.794407 324.969231 
L 138.004696 324.969231 
L 138.562206 324.969231 
L 139.449992 324.969231 
L 140.029691 324.969231 
L 140.920025 324.969231 
L 141.038429 324.969231 
L 141.65617 324.969231 
L 142.285603 324.969231 
L 143.349517 324.969231 
L 143.915373 324.969231 
L 144.589184 324.969231 
L 144.788335 324.969231 
L 145.862716 324.969231 
L 146.162914 324.969231 
L 147.147801 324.969231 
L 147.692913 324.969231 
L 148.468236 324.969231 
L 149.001882 324.969231 
L 149.539248 324.969231 
L 150.220097 324.969231 
L 150.894674 324.969231 
L 151.642209 324.969231 
L 152.169191 324.969231 
L 152.721674 324.969231 
L 153.220234 324.969231 
L 153.659627 324.969231 
L 154.316525 324.969231 
L 154.972035 324.969231 
L 155.913769 324.969231 
L 156.104853 324.969231 
L 156.994211 324.969231 
L 157.35327 324.969231 
L 157.987158 324.969231 
L 158.691209 324.969231 
L 159.370077 324.969231 
L 159.991617 324.969231 
L 160.679866 324.969231 
L 161.136425 324.969231 
L 161.920502 324.969231 
L 162.565103 324.969231 
L 163.289599 324.969231 
L 163.652023 324.969231 
L 164.201441 324.969231 
L 164.986031 324.969231 
L 166.06414 324.969231 
L 166.319474 324.969231 
L 166.925408 324.969231 
L 167.549274 324.969231 
L 168.379095 324.969231 
L 168.859328 324.969231 
L 169.519383 324.969231 
L 170.377592 324.969231 
L 170.4749 324.969231 
L 171.14646 324.969231 
L 172.209624 324.969231 
L 172.357957 324.969231 
L 173.466137 324.969231 
L 174.071794 324.969231 
L 174.644422 324.969231 
L 175.109208 324.969231 
L 175.891534 324.969231 
L 176.53491 324.969231 
L 176.820617 324.969231 
L 177.482301 324.969231 
L 178.258054 324.969231 
L 179.088822 324.969231 
L 179.687838 324.969231 
L 180.145242 324.969231 
L 180.908378 324.969231 
L 181.207371 324.969231 
L 182.007101 324.969231 
L 182.837811 324.969231 
L 183.228618 324.969231 
L 183.605758 324.969231 
L 184.808085 324.969231 
L 185.151355 324.969231 
L 186.049638 324.969231 
L 186.406809 324.969231 
L 187.20595 324.969231 
L 187.823288 324.969231 
L 188.156198 324.969231 
L 189.160451 324.969231 
L 189.665435 324.969231 
L 190.023858 324.969231 
L 191.015242 324.969231 
L 191.381188 324.969231 
L 191.826656 324.969231 
L 192.726903 324.969231 
L 193.506431 324.969231 
L 193.785363 324.969231 
L 194.728654 324.969231 
L 195.349739 324.969231 
L 195.880921 324.969231 
L 196.615432 324.969231 
L 197.266273 324.969231 
L 197.553157 324.969231 
L 198.028441 324.969231 
L 198.659819 324.969231 
L 199.446833 324.969231 
L 200.327161 324.969231 
L 200.675416 324.969231 
L 201.423797 324.969231 
L 201.873788 324.969231 
L 202.447576 324.969231 
L 203.172435 324.969231 
L 203.795 324.969231 
L 204.584472 324.969231 
L 205.307268 324.969231 
L 206.12315 324.969231 
L 206.739604 324.969231 
L 207.251938 324.969231 
L 207.420254 324.969231 
L 208.027194 324.969231 
L 209.195981 324.969231 
L 209.333415 324.969231 
L 210.07721 324.969231 
L 210.746966 324.969231 
L 211.620859 324.969231 
L 212.403111 324.969231 
L 212.996093 324.969231 
L 213.583979 324.969231 
L 213.858903 324.969231 
L 214.634809 324.969231 
L 215.165336 324.969231 
L 215.895132 324.969231 
L 216.398566 324.969231 
L 217.355358 324.969231 
L 217.53821 324.969231 
L 218.566013 324.969231 
L 219.08359 324.969231 
L 219.65426 324.969231 
L 220.401784 324.969231 
L 220.801418 324.969231 
L 221.319666 324.969231 
L 222.199604 324.969231 
L 222.935276 324.969231 
L 223.05988 324.969231 
L 223.811116 324.969231 
L 224.673636 324.969231 
L 225.25958 324.969231 
L 225.648635 324.969231 
L 226.674811 324.969231 
L 226.966345 324.969231 
L 227.718852 324.969231 
L 228.344341 324.969231 
L 229.269042 324.969231 
L 229.511627 324.969231 
L 230.317868 324.969231 
L 231.014379 324.969231 
L 231.507692 324.969231 
z
" clip-path="url(#p9d84b12a31)" style="fill: #808080; opacity: 0.5"/>
   </g>
   <g id="patch_12">
    <path d="M 262.661538 138.046154 
L 262.661538 324.969231 
L 262.898699 324.969231 
L 263.432733 324.969231 
L 263.678594 324.969231 
L 263.883485 324.969231 
L 264.350863 324.969231 
L 264.463112 324.969231 
L 264.868667 324.969231 
L 265.319007 324.969231 
L 265.380241 324.969231 
L 265.817823 324.969231 
L 266.243001 324.969231 
L 266.325424 324.969231 
L 266.883197 324.969231 
L 266.975755 324.969231 
L 267.28152 324.969231 
L 267.613778 324.969231 
L 267.905484 324.969231 
L 268.422868 324.969231 
L 268.508005 324.969231 
L 268.905084 324.969231 
L 269.191721 324.969231 
L 269.497146 324.969231 
L 269.788193 324.969231 
L 270.280549 324.969231 
L 270.403069 324.969231 
L 270.716725 324.969231 
L 271.009997 324.969231 
L 271.52841 324.969231 
L 271.610791 324.969231 
L 272.014084 324.969231 
L 272.327918 324.969231 
L 272.640372 324.969231 
L 273.148068 324.969231 
L 273.345687 324.969231 
L 273.484989 324.969231 
L 273.816321 324.969231 
L 274.377215 324.969231 
L 274.538371 324.969231 
L 274.897455 324.969231 
L 275.097089 324.969231 
L 275.444781 324.969231 
L 275.734518 324.969231 
L 276.097039 324.969231 
L 276.480636 324.969231 
L 276.685542 324.969231 
L 276.940965 324.969231 
L 277.293143 324.969231 
L 277.778597 324.969231 
L 278.128735 324.969231 
L 278.446085 324.969231 
L 278.55018 324.969231 
L 279.026263 324.969231 
L 279.134626 324.969231 
L 279.570314 324.969231 
L 279.842438 324.969231 
L 280.196151 324.969231 
L 280.48632 324.969231 
L 280.746586 324.969231 
L 281.04801 324.969231 
L 281.304841 324.969231 
L 281.822688 324.969231 
L 282.110756 324.969231 
L 282.411886 324.969231 
L 282.602615 324.969231 
L 282.869184 324.969231 
L 283.455778 324.969231 
L 283.698834 324.969231 
L 284.029089 324.969231 
L 284.318447 324.969231 
L 284.58223 324.969231 
L 284.953331 324.969231 
L 285.32903 324.969231 
L 285.630603 324.969231 
L 285.900597 324.969231 
L 286.278801 324.969231 
L 286.547625 324.969231 
L 286.630872 324.969231 
L 286.940804 324.969231 
L 287.338604 324.969231 
L 287.576474 324.969231 
L 288.031965 324.969231 
L 288.263872 324.969231 
L 288.797248 324.969231 
L 289.032174 324.969231 
L 289.192471 324.969231 
L 289.518095 324.969231 
L 289.79155 324.969231 
L 290.255326 324.969231 
L 290.6529 324.969231 
L 290.712517 324.969231 
L 291.232346 324.969231 
L 291.442229 324.969231 
L 291.795375 324.969231 
L 291.958978 324.969231 
L 292.538702 324.969231 
L 292.57515 324.969231 
L 292.949575 324.969231 
L 293.39382 324.969231 
L 293.556786 324.969231 
L 294.128465 324.969231 
L 294.206845 324.969231 
L 294.5235 324.969231 
L 295.045168 324.969231 
L 295.365242 324.969231 
L 295.596124 324.969231 
L 295.858213 324.969231 
L 296.299366 324.969231 
L 296.427834 324.969231 
L 296.776029 324.969231 
L 296.992676 324.969231 
L 297.440634 324.969231 
L 297.867719 324.969231 
L 297.942208 324.969231 
L 298.259175 324.969231 
L 298.661699 324.969231 
L 299.058828 324.969231 
L 299.238774 324.969231 
L 299.708613 324.969231 
L 299.837774 324.969231 
L 300.130658 324.969231 
L 300.588848 324.969231 
L 300.877331 324.969231 
L 301.264806 324.969231 
L 301.571528 324.969231 
L 301.810183 324.969231 
L 302.268999 324.969231 
L 302.307633 324.969231 
L 302.781626 324.969231 
L 302.95721 324.969231 
L 303.46325 324.969231 
L 303.813958 324.969231 
L 303.861892 324.969231 
L 304.236926 324.969231 
L 304.514697 324.969231 
L 305.043653 324.969231 
L 305.102618 324.969231 
L 305.529088 324.969231 
L 305.743973 324.969231 
L 306.120196 324.969231 
L 306.494914 324.969231 
L 306.672694 324.969231 
L 307.255495 324.969231 
L 307.353968 324.969231 
L 307.664629 324.969231 
L 307.969952 324.969231 
L 308.230979 324.969231 
L 308.619355 324.969231 
L 308.897803 324.969231 
L 309.165808 324.969231 
L 309.77467 324.969231 
L 310.018353 324.969231 
L 310.119775 324.969231 
L 310.470859 324.969231 
L 310.727166 324.969231 
L 311.288828 324.969231 
L 311.445907 324.969231 
L 311.93458 324.969231 
L 312.198781 324.969231 
L 312.585377 324.969231 
L 312.903727 324.969231 
L 312.955787 324.969231 
L 313.400777 324.969231 
L 313.656777 324.969231 
L 313.935397 324.969231 
L 314.265521 324.969231 
L 314.769305 324.969231 
L 314.98696 324.969231 
L 315.22935 324.969231 
L 315.434981 324.969231 
L 315.938907 324.969231 
L 316.162402 324.969231 
L 316.376965 324.969231 
L 316.964832 324.969231 
L 317.22856 324.969231 
L 317.320377 324.969231 
L 317.780494 324.969231 
L 318.224162 324.969231 
L 318.318561 324.969231 
L 318.760661 324.969231 
L 318.97835 324.969231 
L 319.372528 324.969231 
L 319.716701 324.969231 
L 319.863658 324.969231 
L 320.262962 324.969231 
L 320.465028 324.969231 
L 321.049145 324.969231 
L 321.161877 324.969231 
L 321.672697 324.969231 
L 321.833777 324.969231 
L 322.116268 324.969231 
L 322.455628 324.969231 
L 322.661482 324.969231 
L 323.130453 324.969231 
L 323.325122 324.969231 
L 323.735067 324.969231 
L 324.16062 324.969231 
L 324.230603 324.969231 
L 324.701445 324.969231 
L 324.969231 324.969231 
L 324.969231 138.046154 
z
" clip-path="url(#p9d84b12a31)" style="fill: #808080; opacity: 0.5"/>
   </g>
   <g id="matplotlib.axis_1"/>
   <g id="matplotlib.axis_2"/>
   <g id="line2d_1">
    <path d="M 75.738462 324.969231 
L 106.892308 324.969231 
L 106.892308 324.969231 
" clip-path="url(#p9d84b12a31)" style="fill: none; stroke: #000000; stroke-linecap: square"/>
   </g>
   <g id="line2d_2">
    <path d="M 13.430769 13.430769 
L 75.738462 13.430769 
L 75.738462 13.430769 
" clip-path="url(#p9d84b12a31)" style="fill: none; stroke: #000000; stroke-linecap: square"/>
   </g>
   <g id="line2d_3">
    <path d="M 75.738462 13.430769 
L 169.2 13.430769 
L 169.2 13.430769 
" clip-path="url(#p9d84b12a31)" style="fill: none; stroke: #000000; stroke-linecap: square"/>
   </g>
   <g id="line2d_4">
    <path d="M 231.507692 324.969231 
L 262.661538 324.969231 
L 262.661538 324.969231 
" clip-path="url(#p9d84b12a31)" style="fill: none; stroke: #000000; stroke-linecap: square"/>
   </g>
   <g id="line2d_5">
    <path d="M 262.661538 13.430769 
L 324.969231 13.430769 
L 324.969231 13.430769 
" clip-path="url(#p9d84b12a31)" style="fill: none; stroke: #000000; stroke-linecap: square"/>
   </g>
   <g id="line2d_6">
    <path d="M 169.2 13.430769 
L 262.661538 13.430769 
L 262.661538 13.430769 
" clip-path="url(#p9d84b12a31)" style="fill: none; stroke: #000000; stroke-linecap: square"/>
   </g>
   <g id="line2d_7">
    <path d="M 13.430769 324.969231 
L 75.738462 324.969231 
L 75.738462 324.969231 
" clip-path="url(#p9d84b12a31)" style="fill: none; stroke: #000000; stroke-linecap: square"/>
   </g>
   <g id="line2d_8">
    <path d="M 106.892308 324.969231 
L 231.507692 324.969231 
L 231.507692 324.969231 
" clip-path="url(#p9d84b12a31)" style="fill: none; stroke: #000000; stroke-linecap: square"/>
   </g>
   <g id="line2d_9">
    <path d="M 262.661538 324.969231 
L 324.969231 324.969231 
L 324.969231 324.969231 
" clip-path="url(#p9d84b12a31)" style="fill: none; stroke: #000000; stroke-linecap: square"/>
   </g>
   <g id="text_1">
    <!-- $\Omega$ -->
    <g transform="translate(16.011538 22.420913) scale(0.1 -0.1)">
     <defs>
      <path id="Cmr10-ad" d="M 494 0 
L 281 1063 
L 469 1063 
Q 503 878 531 736 
Q 559 594 604 536 
Q 650 478 750 459 
Q 850 441 1081 441 
L 1472 441 
Q 1378 803 1004 1386 
Q 631 1969 495 2233 
Q 359 2497 359 2913 
Q 359 3397 646 3761 
Q 934 4125 1389 4319 
Q 1844 4513 2309 4513 
Q 2772 4513 3226 4319 
Q 3681 4125 3968 3758 
Q 4256 3391 4256 2913 
Q 4256 2588 4137 2300 
Q 4019 2013 3834 1725 
Q 3650 1438 3436 1084 
Q 3222 731 3144 441 
L 3531 441 
Q 3766 441 3869 459 
Q 3972 478 4015 536 
Q 4059 594 4086 736 
Q 4113 878 4147 1063 
L 4331 1063 
L 4122 0 
L 2988 0 
Q 2925 0 2925 84 
Q 2925 409 3004 721 
Q 3084 1034 3240 1478 
Q 3397 1922 3484 2261 
Q 3572 2600 3572 2913 
Q 3572 3297 3422 3625 
Q 3272 3953 2984 4150 
Q 2697 4347 2309 4347 
Q 1725 4347 1384 3930 
Q 1044 3513 1044 2913 
Q 1047 2584 1122 2293 
Q 1197 2003 1364 1518 
Q 1531 1034 1611 721 
Q 1691 409 1691 84 
Q 1691 0 1625 0 
L 494 0 
z
" transform="scale(0.015625)"/>
     </defs>
     <use xlink:href="#Cmr10-ad" transform="translate(0 0.484375)"/>
    </g>
   </g>
   <g id="text_2">
    <!-- $A$ -->
    <g style="fill: #0000ff" transform="translate(103.142308 78.497837) scale(0.1 -0.1)">
     <defs>
      <path id="Cmmi10-41" d="M 288 0 
Q 225 0 225 84 
Q 250 225 306 225 
Q 566 225 755 328 
Q 944 431 1081 647 
Q 1094 659 1094 659 
L 3378 4513 
Q 3428 4581 3500 4581 
L 3584 4581 
Q 3603 4581 3622 4573 
Q 3641 4566 3655 4548 
Q 3669 4531 3669 4513 
L 4056 378 
Q 4056 350 4084 294 
Q 4147 225 4563 225 
Q 4628 225 4628 141 
Q 4606 56 4592 28 
Q 4578 0 4519 0 
L 2919 0 
Q 2859 0 2859 84 
Q 2894 225 2944 225 
Q 3450 225 3481 397 
L 3384 1453 
L 1806 1453 
L 1294 594 
Q 1247 525 1247 434 
Q 1247 322 1355 273 
Q 1463 225 1594 225 
Q 1656 225 1656 141 
Q 1634 50 1621 25 
Q 1609 0 1550 0 
L 288 0 
z
M 1931 1678 
L 3359 1678 
L 3169 3750 
L 1931 1678 
z
" transform="scale(0.015625)"/>
     </defs>
     <use xlink:href="#Cmmi10-41" transform="translate(0 0.421875)"/>
    </g>
   </g>
   <g id="text_3">
    <!-- $B$ -->
    <g style="fill: #ff0000" transform="translate(227.707692 78.497837) scale(0.1 -0.1)">
     <defs>
      <path id="Cmmi10-42" d="M 319 0 
Q 256 0 256 84 
Q 259 100 268 137 
Q 278 175 293 200 
Q 309 225 341 225 
Q 522 225 656 234 
Q 791 244 884 269 
Q 959 297 1006 441 
L 1881 3956 
Q 1894 4019 1894 4044 
Q 1894 4113 1819 4122 
Q 1697 4147 1356 4147 
Q 1294 4147 1294 4231 
Q 1297 4247 1306 4286 
Q 1316 4325 1333 4348 
Q 1350 4372 1375 4372 
L 3669 4372 
Q 3878 4372 4083 4320 
Q 4288 4269 4461 4156 
Q 4634 4044 4736 3876 
Q 4838 3709 4838 3488 
Q 4838 3247 4714 3040 
Q 4591 2834 4395 2681 
Q 4200 2528 3973 2429 
Q 3747 2331 3500 2284 
Q 3675 2284 3854 2215 
Q 4034 2147 4175 2028 
Q 4316 1909 4402 1743 
Q 4488 1578 4488 1388 
Q 4488 1003 4219 684 
Q 3950 366 3542 183 
Q 3134 0 2753 0 
L 319 0 
z
M 1497 275 
Q 1497 225 1716 225 
L 2631 225 
Q 2944 225 3231 398 
Q 3519 572 3692 859 
Q 3866 1147 3866 1459 
Q 3866 1650 3786 1820 
Q 3706 1991 3556 2089 
Q 3406 2188 3213 2188 
L 1966 2188 
L 1522 416 
Q 1497 328 1497 275 
z
M 2009 2356 
L 2981 2356 
Q 3288 2356 3577 2512 
Q 3866 2669 4048 2937 
Q 4231 3206 4231 3506 
Q 4231 3784 4057 3965 
Q 3884 4147 3609 4147 
L 2731 4147 
Q 2559 4147 2500 4115 
Q 2441 4084 2400 3928 
L 2009 2356 
z
" transform="scale(0.015625)"/>
     </defs>
     <use xlink:href="#Cmmi10-42" transform="translate(0 0.6875)"/>
    </g>
   </g>
   <g id="text_4">
    <!-- $C$ -->
    <g style="fill: #228b22" transform="translate(150.023077 271.651683) scale(0.1 -0.1)">
     <defs>
      <path id="Cmmi10-43" d="M 934 1381 
Q 934 997 1082 705 
Q 1231 413 1514 248 
Q 1797 84 2181 84 
Q 2584 84 2957 290 
Q 3331 497 3595 842 
Q 3859 1188 3956 1575 
Q 3969 1613 4006 1613 
L 4084 1613 
Q 4109 1613 4125 1595 
Q 4141 1578 4141 1556 
Q 4141 1550 4134 1538 
Q 4025 1094 3711 705 
Q 3397 316 2959 87 
Q 2522 -141 2059 -141 
Q 1559 -141 1162 84 
Q 766 309 545 709 
Q 325 1109 325 1613 
Q 325 2150 565 2676 
Q 806 3203 1212 3614 
Q 1619 4025 2139 4269 
Q 2659 4513 3194 4513 
Q 3406 4513 3600 4448 
Q 3794 4384 3959 4253 
Q 4125 4122 4231 3950 
L 4738 4500 
Q 4738 4513 4769 4513 
L 4806 4513 
Q 4831 4513 4847 4491 
Q 4863 4469 4863 4447 
L 4428 2719 
Q 4428 2675 4378 2675 
L 4263 2675 
Q 4213 2675 4213 2747 
Q 4238 2888 4238 3084 
Q 4238 3397 4131 3673 
Q 4025 3950 3801 4119 
Q 3578 4288 3256 4288 
Q 2734 4288 2300 4025 
Q 1866 3763 1564 3336 
Q 1263 2909 1098 2389 
Q 934 1869 934 1381 
z
" transform="scale(0.015625)"/>
     </defs>
     <use xlink:href="#Cmmi10-43" transform="translate(0 0.484375)"/>
    </g>
   </g>
   <g id="patch_13">
    <path d="M 138.046154 200.353846 
C 154.570347 200.353846 170.419977 193.788715 182.104346 182.104346 
C 193.788715 170.419977 200.353846 154.570347 200.353846 138.046154 
C 200.353846 121.521961 193.788715 105.672331 182.104346 93.987962 
C 170.419977 82.303593 154.570347 75.738462 138.046154 75.738462 
C 121.521961 75.738462 105.672331 82.303593 93.987962 93.987962 
C 82.303593 105.672331 75.738462 121.521961 75.738462 138.046154 
C 75.738462 154.570347 82.303593 170.419977 93.987962 182.104346 
C 105.672331 193.788715 121.521961 200.353846 138.046154 200.353846 
L 138.046154 200.353846 
z
" clip-path="url(#p9d84b12a31)" style="fill: none; stroke: #0000ff; stroke-linejoin: miter"/>
   </g>
   <g id="patch_14">
    <path d="M 200.353846 200.353846 
C 216.878039 200.353846 232.727669 193.788715 244.412038 182.104346 
C 256.096407 170.419977 262.661538 154.570347 262.661538 138.046154 
C 262.661538 121.521961 256.096407 105.672331 244.412038 93.987962 
C 232.727669 82.303593 216.878039 75.738462 200.353846 75.738462 
C 183.829653 75.738462 167.980023 82.303593 156.295654 93.987962 
C 144.611285 105.672331 138.046154 121.521961 138.046154 138.046154 
C 138.046154 154.570347 144.611285 170.419977 156.295654 182.104346 
C 167.980023 193.788715 183.829653 200.353846 200.353846 200.353846 
L 200.353846 200.353846 
z
" clip-path="url(#p9d84b12a31)" style="fill: none; stroke: #ff0000; stroke-linejoin: miter"/>
   </g>
   <g id="patch_15">
    <path d="M 169.2 262.661538 
C 185.724193 262.661538 201.573823 256.096407 213.258192 244.412038 
C 224.942561 232.727669 231.507692 216.878039 231.507692 200.353846 
C 231.507692 183.829653 224.942561 167.980023 213.258192 156.295654 
C 201.573823 144.611285 185.724193 138.046154 169.2 138.046154 
C 152.675807 138.046154 136.826177 144.611285 125.141808 156.295654 
C 113.457439 167.980023 106.892308 183.829653 106.892308 200.353846 
C 106.892308 216.878039 113.457439 232.727669 125.141808 244.412038 
C 136.826177 256.096407 152.675807 262.661538 169.2 262.661538 
L 169.2 262.661538 
z
" clip-path="url(#p9d84b12a31)" style="fill: none; stroke: #228b22; stroke-linejoin: miter"/>
   </g>
  </g>
 </g>
 <defs>
  <clipPath id="p9d84b12a31">
   <rect x="7.2" y="7.2" width="324" height="324"/>
  </clipPath>
 </defs>
</svg>
