<?xml version="1.0" encoding="utf-8" standalone="no"?>
<!DOCTYPE svg PUBLIC "-//W3C//DTD SVG 1.1//EN"
  "http://www.w3.org/Graphics/SVG/1.1/DTD/svg11.dtd">
<svg xmlns:xlink="http://www.w3.org/1999/xlink" width="338.4pt" height="338.4pt" viewBox="0 0 338.4 338.4" xmlns="http://www.w3.org/2000/svg" version="1.1">
 <metadata>
  <rdf:RDF xmlns:dc="http://purl.org/dc/elements/1.1/" xmlns:cc="http://creativecommons.org/ns#" xmlns:rdf="http://www.w3.org/1999/02/22-rdf-syntax-ns#">
   <cc:Work>
    <dc:type rdf:resource="http://purl.org/dc/dcmitype/StillImage"/>
    <dc:date>2025-08-21T01:25:29.204645</dc:date>
    <dc:format>image/svg+xml</dc:format>
    <dc:creator>
     <cc:Agent>
      <dc:title>Matplotlib v3.8.0, https://matplotlib.org/</dc:title>
     </cc:Agent>
    </dc:creator>
   </cc:Work>
  </rdf:RDF>
 </metadata>
 <defs>
  <style type="text/css">*{stroke-linejoin: round; stroke-linecap: butt}</style>
 </defs>
 <g id="figure_1">
  <g id="patch_1">
   <path d="M -0 338.4 
L 338.4 338.4 
L 338.4 0 
L -0 0 
z
" style="fill: #ffffff"/>
  </g>
  <g id="axes_1">
   <g id="patch_2">
    <path d="M 7.2 331.2 
L 331.2 331.2 
L 331.2 7.2 
L 7.2 7.2 
z
" style="fill: #ffffff"/>
   </g>
   <g id="patch_3">
    <path d="M 13.430769 324.969231 
L 13.430769 13.430769 
L 324.969231 13.430769 
L 324.969231 324.969231 
L 13.430769 324.969231 
z
" clip-path="url(#pa6183b94fc)" style="fill: none; stroke: #000000; stroke-linejoin: miter"/>
   </g>
   <g id="patch_4">
    <path d="M 200.353846 138.046154 
L 200.340583 139.331703 
L 200.32732 139.864098 
L 200.314056 140.272553 
L 200.300793 140.616841 
L 200.28753 140.920117 
L 200.274266 141.194255 
L 200.261003 141.446311 
L 200.24774 141.680881 
L 200.234476 141.901159 
L 200.221213 142.109469 
L 200.194686 142.496818 
L 200.16816 142.852909 
L 200.141633 143.184243 
L 200.115107 143.495339 
L 200.08858 143.789487 
L 200.062053 144.06917 
L 200.035527 144.336318 
L 200.009 144.592466 
L 199.982474 144.838858 
L 199.92942 145.306309 
L 199.893414 145.606903 
L 199.857408 145.89583 
L 199.785395 146.443451 
L 199.713383 146.956901 
L 199.64137 147.441783 
L 199.569358 147.902315 
L 199.497345 148.341765 
L 199.425333 148.762727 
L 199.35332 149.1673 
L 199.260705 149.666275 
L 199.16809 150.14398 
L 199.075476 150.602842 
L 198.982861 151.044857 
L 198.835036 151.719497 
L 198.687211 152.360855 
L 198.572658 152.837733 
L 198.458105 153.298849 
L 198.343552 153.745592 
L 198.228998 154.179156 
L 198.114445 154.600576 
L 197.999892 155.010759 
L 197.885339 155.410499 
L 197.770785 155.800503 
L 197.626133 156.280039 
L 197.481482 156.746163 
L 197.324502 157.237975 
L 197.167521 157.716243 
L 196.983725 158.260289 
L 196.799928 158.788443 
L 196.616131 159.301889 
L 196.432334 159.801669 
L 196.11386 160.637967 
L 195.908611 161.158587 
L 195.703362 161.665951 
L 195.411969 162.365112 
L 195.05251 163.196182 
L 194.69305 163.995675 
L 194.440667 164.539689 
L 194.025622 165.405753 
L 193.610577 166.239122 
L 193.371019 166.706366 
L 193.096479 167.230229 
L 192.821939 167.742314 
L 192.602069 168.144337 
L 192.320237 168.649624 
L 192.038405 169.144149 
L 191.62533 169.850563 
L 191.212254 170.536372 
L 191.00668 170.870401 
L 190.700126 171.359931 
L 190.314035 171.96248 
L 189.927943 172.550189 
L 189.599882 173.038463 
L 189.206999 173.610412 
L 188.819729 174.161145 
L 188.43246 174.699513 
L 187.987094 175.304053 
L 187.900058 175.420433 
L 187.452012 176.010738 
L 187.003966 176.586796 
L 186.716445 176.949255 
L 186.451678 177.278204 
L 185.911536 177.935422 
L 185.484289 178.442587 
L 184.749713 179.289652 
L 184.582265 179.478495 
L 183.76997 180.373228 
L 183.330155 180.84344 
L 182.820394 181.376465 
L 182.552356 181.651733 
L 182.012632 182.195869 
L 181.408397 182.789471 
L 180.898204 183.278336 
L 180.463829 183.685932 
L 180.115581 184.007135 
L 179.479723 184.581171 
L 179.404907 184.647678 
L 178.677153 185.283538 
L 178.389839 185.529157 
L 177.849493 185.983015 
L 177.170073 186.539117 
L 177.066034 186.622871 
L 176.504312 187.068787 
L 175.899751 187.5371 
L 175.529151 187.81837 
L 174.952814 188.247219 
L 174.61551 188.49346 
L 174.142592 188.83292 
L 173.779901 189.088762 
L 173.079767 189.571822 
L 172.572224 189.913282 
L 171.993961 190.293593 
L 171.48097 190.62335 
L 171.309726 190.731857 
L 170.610879 191.166651 
L 170.522184 191.220922 
L 169.888446 191.602824 
L 169.428367 191.873704 
L 169.044253 192.095819 
L 168.428916 192.444097 
L 167.854737 192.76084 
L 167.614869 192.89084 
L 167.054624 193.189215 
L 166.342875 193.557811 
L 166.259276 193.600346 
L 165.598992 193.930764 
L 165.197577 194.126888 
L 164.727789 194.351916 
L 164.058551 194.664205 
L 163.666807 194.84255 
L 163.327918 194.994209 
L 162.756892 195.2443 
L 162.317082 195.432307 
L 161.80146 195.647664 
L 161.592067 195.733574 
L 160.973659 195.982136 
L 160.604817 196.126746 
L 159.765414 196.445831 
L 159.401321 196.579951 
L 158.970984 196.735165 
L 158.441642 196.921213 
L 158.103745 197.037183 
L 157.490009 197.242311 
L 157.299117 197.304672 
L 156.513091 197.554311 
L 156.057765 197.693705 
L 155.844976 197.757547 
L 155.134041 197.964871 
L 154.912373 198.027644 
L 154.3051 198.195096 
L 153.669692 198.363262 
L 153.612602 198.378021 
L 152.996214 198.533708 
L 152.58169 198.634657 
L 152.186233 198.728167 
L 151.663694 198.847561 
L 151.18287 198.953257 
L 150.663259 199.063014 
L 149.9622 199.203789 
L 149.706603 199.253036 
L 149.357163 199.318575 
L 148.533634 199.464891 
L 148.298673 199.504549 
L 147.806098 199.584695 
L 147.157781 199.684022 
L 146.904129 199.720985 
L 146.130276 199.827182 
L 146.050307 199.837594 
L 145.619809 199.891835 
L 144.815316 199.985051 
L 144.577023 200.01063 
L 144.162278 200.05294 
L 143.527969 200.112233 
L 143.203334 200.140051 
L 142.435678 200.199035 
L 142.123299 200.220308 
L 141.573387 200.253928 
L 140.989522 200.284286 
L 140.604096 200.301318 
L 140.004579 200.32306 
L 139.800011 200.329157 
L 139.209251 200.342989 
L 138.827035 200.348953 
L 138.518672 200.352054 
L 137.689669 200.352826 
L 137.600057 200.352249 
L 137.169679 200.347681 
L 136.477222 200.33409 
L 136.038336 200.321488 
L 135.650115 200.307759 
L 134.934113 200.27608 
L 134.387699 200.246349 
L 134.208356 200.235541 
L 133.781273 200.207712 
L 133.351959 200.176767 
L 132.534426 200.109584 
L 132.480275 200.104751 
L 131.960116 200.0559 
L 131.448146 200.003517 
L 130.69949 199.91921 
L 130.261702 199.865656 
L 129.989114 199.83072 
L 129.276433 199.733596 
L 128.735656 199.654296 
L 128.330446 199.591694 
L 128.056121 199.547762 
L 127.551596 199.463682 
L 127.200478 199.402652 
L 126.823472 199.334814 
L 126.155367 199.208705 
L 125.626318 199.103473 
L 125.256625 199.027106 
L 124.972461 198.966816 
L 124.101705 198.77342 
L 123.862174 198.71792 
L 123.111515 198.537518 
L 123.025217 198.516146 
L 122.615809 198.412974 
L 122.02781 198.259617 
L 121.55076 198.130682 
L 120.98451 197.972349 
L 120.408017 197.805209 
L 119.856855 197.63976 
L 119.437407 197.510118 
L 119.248072 197.450536 
L 118.544387 197.223258 
L 118.064069 197.062802 
L 117.560507 196.889903 
L 117.431336 196.844775 
L 116.849543 196.637554 
L 116.111819 196.365391 
L 116.020067 196.3308 
L 115.532554 196.144229 
L 115.016259 195.941512 
L 114.387036 195.687239 
L 113.813555 195.448503 
L 113.287436 195.223548 
L 113.048895 195.119664 
L 112.540192 194.894148 
L 112.187833 194.73474 
L 111.374398 194.356597 
L 111.321696 194.331604 
L 110.693436 194.028985 
L 110.134832 193.752586 
L 109.830218 193.598917 
L 109.08719 193.21523 
L 108.542263 192.92574 
L 108.386254 192.841581 
L 108.00648 192.634308 
L 107.149426 192.153831 
L 106.892308 192.006198 
L 106.892308 84.086109 
L 107.449535 83.768208 
L 107.923732 83.503618 
L 108.189079 83.357914 
L 108.789346 83.034448 
L 109.174168 82.831509 
L 109.617703 82.601842 
L 109.980924 82.417102 
L 110.767515 82.027189 
L 110.960968 81.933399 
L 111.55679 81.649681 
L 111.88561 81.496402 
L 112.599152 81.171743 
L 113.214078 80.900581 
L 113.53825 80.760805 
L 114.094238 80.52612 
L 114.359334 80.416447 
L 115.02143 80.148739 
L 115.391575 80.002906 
L 115.749816 79.864354 
L 116.458028 79.597875 
L 116.674903 79.518228 
L 117.009981 79.39696 
L 117.623837 79.180396 
L 118.069311 79.027731 
L 118.760886 78.798142 
L 119.115818 78.683784 
L 119.447587 78.579005 
L 120.108166 78.37642 
L 120.449013 78.275014 
L 121.142778 78.075124 
L 121.247347 78.045749 
L 121.728789 77.913034 
L 122.504942 77.707781 
L 122.965176 77.591107 
L 123.404197 77.483281 
L 123.755076 77.399525 
L 124.107061 77.317658 
L 124.526869 77.222824 
L 125.0513 77.108626 
L 125.75692 76.962414 
L 125.965611 76.920799 
L 126.781584 76.765178 
L 127.248705 76.681151 
L 127.518398 76.634307 
L 127.963546 76.559655 
L 128.585607 76.460875 
L 128.927856 76.409272 
L 129.499133 76.327462 
L 129.731587 76.295717 
L 130.271424 76.225428 
L 130.767296 76.165084 
L 131.473204 76.086128 
L 131.850936 76.04722 
L 132.275421 76.00627 
L 132.816963 75.95828 
L 132.966912 75.945833 
L 133.638027 75.89459 
L 134.291706 75.851679 
L 134.651211 75.83102 
L 134.837522 75.821133 
L 135.557286 75.78819 
L 135.874417 75.776321 
L 136.692371 75.75317 
L 136.818287 75.750561 
L 137.381125 75.742011 
L 137.892073 75.738652 
L 138.576445 75.740718 
L 138.910668 75.744459 
L 139.430192 75.753835 
L 139.813927 75.763544 
L 140.353788 75.781209 
L 140.798566 75.799284 
L 141.061179 75.811452 
L 141.443099 75.831129 
L 141.894745 75.857434 
L 142.512048 75.898714 
L 142.938768 75.930851 
L 143.419118 75.970557 
L 143.885219 76.012664 
L 144.454109 76.068846 
L 145.000125 76.127733 
L 145.464792 76.181686 
L 146.001565 76.24842 
L 146.166707 76.269903 
L 146.894425 76.36993 
L 147.172564 76.410473 
L 147.567327 76.470219 
L 148.121601 76.558481 
L 148.580561 76.635448 
L 149.238764 76.751994 
L 149.442087 76.789471 
L 150.068082 76.909244 
L 150.616426 77.019629 
L 151.197684 77.142248 
L 151.293516 77.16302 
L 151.811762 77.278098 
L 152.508962 77.440249 
L 152.702881 77.486853 
L 153.550949 77.698413 
L 153.857568 77.778022 
L 154.241025 77.879928 
L 154.967548 78.080206 
L 155.145482 78.130701 
L 155.583928 78.257568 
L 155.989472 78.378023 
L 156.819624 78.633989 
L 157.191341 78.752728 
L 157.410141 78.823822 
L 158.292905 79.11978 
L 158.382156 79.150521 
L 158.933289 79.343717 
L 159.476399 79.539803 
L 159.87208 79.686258 
L 160.368604 79.874367 
L 160.703462 80.003972 
L 161.340713 80.256777 
L 161.739273 80.419037 
L 162.5038 80.73933 
L 162.892808 80.906918 
L 163.11196 81.002715 
L 163.798481 81.309339 
L 164.362923 81.568936 
L 164.442254 81.605969 
L 165.054869 81.896552 
L 165.691273 82.207136 
L 166.173102 82.448283 
L 166.696704 82.716284 
L 166.779296 82.759129 
L 167.692587 83.243439 
L 168.142951 83.489474 
L 168.505205 83.69089 
L 168.794898 83.854243 
L 169.15255 84.058742 
L 169.823292 84.450799 
L 170.174169 84.660396 
L 170.640117 84.943592 
L 171.3112 85.361381 
L 171.923496 85.752997 
L 172.092547 85.862903 
L 172.455556 86.101553 
L 173.199127 86.601844 
L 173.673869 86.929479 
L 173.826425 87.036148 
L 174.651558 87.624999 
L 174.934408 87.831562 
L 175.236102 88.054592 
L 176.064182 88.681409 
L 176.394128 88.937281 
L 176.652618 89.14023 
L 177.174938 89.557116 
L 178.033634 90.262789 
L 178.055458 90.281061 
L 178.677112 90.808735 
L 179.193492 91.257853 
L 179.578474 91.599249 
L 180.104389 92.07493 
L 180.785355 92.707327 
L 180.990578 92.901664 
L 181.567908 93.457978 
L 181.815558 93.701055 
L 182.625528 94.515384 
L 182.940313 94.840101 
L 183.259676 95.174415 
L 183.942105 95.905791 
L 184.264379 96.259503 
L 184.90847 96.983131 
L 185.554601 97.732434 
L 185.715093 97.922336 
L 186.071058 98.349088 
L 186.635936 99.042544 
L 187.257568 99.829858 
L 187.872327 100.634913 
L 188.204523 101.081488 
L 188.751086 101.834852 
L 188.985105 102.164796 
L 189.623003 103.087933 
L 190.190531 103.940253 
L 190.717989 104.760627 
L 191.171912 105.490012 
L 191.554162 106.122156 
L 191.977344 106.842384 
L 192.267903 107.350055 
L 192.621846 107.983846 
L 192.975789 108.635549 
L 193.2071 109.071708 
L 193.558138 109.750074 
L 193.909176 110.449573 
L 194.026539 110.688431 
L 194.391355 111.447904 
L 194.75617 112.234867 
L 195.046766 112.88311 
L 195.314679 113.498963 
L 195.582592 114.133671 
L 195.773745 114.598898 
L 195.964898 115.075136 
L 196.156051 115.563084 
L 196.347204 116.063522 
L 196.426298 116.274447 
L 196.63624 116.84591 
L 196.846181 117.435348 
L 197.056123 118.044351 
L 197.266064 118.674763 
L 197.466339 119.298085 
L 197.666615 119.945071 
L 197.891142 120.701821 
L 198.003406 121.093974 
L 198.11567 121.496177 
L 198.297584 122.171215 
L 198.479498 122.878443 
L 198.59661 123.352931 
L 198.713722 123.844228 
L 198.830834 124.354142 
L 198.947946 124.884838 
L 199.087384 125.547484 
L 199.157103 125.892948 
L 199.226822 126.248935 
L 199.296541 126.61643 
L 199.36626 126.996579 
L 199.435979 127.390738 
L 199.505698 127.800523 
L 199.561844 128.143203 
L 199.617989 128.498504 
L 199.674135 128.867891 
L 199.73028 129.25314 
L 199.769253 129.531017 
L 199.808226 129.818458 
L 199.847199 130.116503 
L 199.886172 130.426395 
L 199.925145 130.749645 
L 199.964117 131.088114 
L 200.00309 131.444143 
L 200.042063 131.820742 
L 200.081036 132.221901 
L 200.120009 132.653099 
L 200.139495 132.882292 
L 200.158982 133.12222 
L 200.178468 133.374534 
L 200.197955 133.641363 
L 200.217441 133.925527 
L 200.236928 134.230896 
L 200.256414 134.563044 
L 200.2759 134.930522 
L 200.295387 135.347726 
L 200.314873 135.842724 
L 200.33436 136.487972 
z
" clip-path="url(#pa6183b94fc)" style="fill: #808080; opacity: 0.5"/>
   </g>
   <g id="patch_5">
    <path d="M 75.738462 138.046154 
L 75.738462 138.046154 
L 75.74234 137.350968 
L 75.746218 137.063027 
L 75.750097 136.842093 
L 75.753975 136.655846 
L 75.757853 136.491767 
L 75.761731 136.343435 
L 75.76561 136.207035 
L 75.769488 136.080084 
L 75.773366 135.960854 
L 75.777245 135.84809 
L 75.781123 135.74084 
L 75.785001 135.63837 
L 75.78888 135.540092 
L 75.792758 135.445531 
L 75.800515 135.266058 
L 75.808271 135.097508 
L 75.816028 134.938105 
L 75.823785 134.786507 
L 75.831541 134.641669 
L 75.839298 134.502764 
L 75.847055 134.369119 
L 75.854811 134.24018 
L 75.862568 134.115484 
L 75.871515 133.97641 
L 75.880462 133.841953 
L 75.889409 133.711683 
L 75.898357 133.585234 
L 75.907304 133.462289 
L 75.916251 133.342574 
L 75.934145 133.111898 
L 75.952039 132.891597 
L 75.969934 132.680392 
L 75.987828 132.47725 
L 76.005722 132.281316 
L 76.02067 132.122651 
L 76.035618 131.968162 
L 76.050566 131.81754 
L 76.065514 131.670511 
L 76.080462 131.52683 
L 76.09541 131.386283 
L 76.125306 131.113827 
L 76.155202 130.851806 
L 76.185098 130.599119 
L 76.214994 130.354845 
L 76.24489 130.118206 
L 76.277248 129.869922 
L 76.309605 129.629083 
L 76.341963 129.395068 
L 76.37432 129.167335 
L 76.409606 128.925598 
L 76.444893 128.690239 
L 76.480179 128.460786 
L 76.515466 128.236826 
L 76.555329 127.989961 
L 76.595193 127.749168 
L 76.635056 127.51403 
L 76.67492 127.284175 
L 76.726383 126.994717 
L 76.777847 126.712883 
L 76.82931 126.438117 
L 76.880773 126.169929 
L 76.92367 125.951094 
L 76.99798 125.581443 
L 77.07229 125.222874 
L 77.137215 124.917952 
L 77.20214 124.620267 
L 77.267064 124.329348 
L 77.331989 124.044773 
L 77.388525 123.801836 
L 77.445061 123.563195 
L 77.542601 123.160973 
L 77.640141 122.76996 
L 77.735704 122.396932 
L 77.831267 122.033161 
L 77.892565 121.804408 
L 77.954589 121.576415 
L 78.016612 121.351765 
L 78.140659 120.911973 
L 78.233827 120.589519 
L 78.304188 120.350221 
L 78.374549 120.114392 
L 78.462223 119.825184 
L 78.549898 119.540911 
L 78.658616 119.194924 
L 78.767334 118.85579 
L 78.904727 118.436458 
L 78.995157 118.165803 
L 79.086211 117.897366 
L 79.177265 117.632864 
L 79.317602 117.232561 
L 79.423338 116.936584 
L 79.529074 116.645222 
L 79.668618 116.267454 
L 79.772531 115.990918 
L 79.935602 115.564777 
L 80.111147 115.116185 
L 80.226553 114.826716 
L 80.341959 114.541379 
L 80.428564 114.329875 
L 80.631018 113.843866 
L 80.721799 113.629626 
L 80.92713 113.153069 
L 81.100312 112.759407 
L 81.281055 112.356233 
L 81.4076 112.078429 
L 81.499093 111.879794 
L 81.700312 111.449262 
L 81.908728 111.012139 
L 82.043521 110.734001 
L 82.175164 110.465707 
L 82.335634 110.142991 
L 82.529494 109.759248 
L 82.576761 109.666673 
L 82.716362 109.395452 
L 82.974691 108.901986 
L 83.06791 108.726516 
L 83.31353 108.270519 
L 83.43133 108.054997 
L 83.571213 107.801661 
L 83.764093 107.456836 
L 83.829139 107.341694 
L 84.042925 106.967225 
L 84.174021 106.740534 
L 84.396876 106.36014 
L 84.497787 106.1899 
L 84.696411 105.85837 
L 84.844639 105.613958 
L 85.046108 105.285756 
L 85.19895 105.039766 
L 85.359959 104.783362 
L 85.484241 104.587315 
L 85.627802 104.362851 
L 85.763549 104.15253 
L 85.954768 103.859372 
L 86.097584 103.642745 
L 86.264252 103.392392 
L 86.34279 103.275323 
L 86.561259 102.952649 
L 86.699275 102.751018 
L 86.855442 102.524899 
L 87.049821 102.246398 
L 87.114441 102.154523 
L 87.289396 101.907531 
L 87.554674 101.537813 
L 87.65805 101.395267 
L 87.719936 101.310336 
L 87.978827 100.958268 
L 88.102122 100.792399 
L 88.324977 100.495481 
L 88.4902 100.277701 
L 88.527082 100.229359 
L 88.737936 99.95484 
L 88.964006 99.663979 
L 89.119053 99.466531 
L 89.14824 99.429544 
L 89.281589 99.261289 
L 89.49704 98.991934 
L 89.705515 98.734182 
L 89.814315 98.60077 
L 89.987289 98.390208 
L 90.078053 98.280468 
L 90.244855 98.080114 
L 90.525835 97.746429 
L 90.653261 97.596652 
L 90.71508 97.524333 
L 90.934778 97.269116 
L 91.044875 97.142263 
L 91.296635 96.85476 
L 91.383245 96.75667 
L 91.614354 96.496948 
L 91.762427 96.332066 
L 91.914184 96.164297 
L 92.059934 96.004316 
L 92.199027 95.852677 
L 92.307465 95.735153 
L 92.422151 95.611512 
L 92.687468 95.32803 
L 92.843915 95.16252 
L 92.928969 95.073044 
L 93.08751 94.907205 
L 93.307339 94.679266 
L 93.405345 94.578387 
L 93.605513 94.373761 
L 93.776634 94.200308 
L 93.849393 94.126968 
L 94.046861 93.929142 
L 94.138145 93.838289 
L 94.328172 93.650359 
L 94.535035 93.447599 
L 94.714184 93.273518 
L 94.80929 93.181668 
L 94.97192 93.025504 
L 95.106925 92.896722 
L 95.381308 92.63735 
L 95.395582 92.623943 
L 95.694421 92.345178 
L 95.828551 92.221243 
L 95.97057 92.090808 
L 96.101385 91.971379 
L 96.216459 91.866882 
L 96.47326 91.635562 
L 96.594802 91.526976 
L 96.71341 91.42156 
L 96.895621 91.260663 
L 96.961991 91.20237 
L 97.179525 91.012472 
L 97.30975 90.899638 
L 97.462334 90.76823 
L 97.656695 90.60208 
L 97.789919 90.488987 
L 97.968396 90.338483 
L 98.189483 90.153625 
L 98.211165 90.13559 
L 98.3911 89.986553 
L 98.531816 89.87079 
L 98.813447 89.641162 
L 98.845158 89.615477 
L 99.109876 89.4024 
L 99.166168 89.357396 
L 99.356186 89.206264 
L 99.571459 89.036498 
L 99.627345 88.992676 
L 99.884797 88.792125 
L 100.000669 88.702567 
L 100.127708 88.604876 
L 100.319973 88.458012 
L 100.500936 88.320857 
L 100.574912 88.265088 
L 100.727288 88.150756 
L 100.935581 87.99564 
L 101.117059 87.861589 
L 101.185513 87.811289 
L 101.457859 87.612582 
L 101.502244 87.580412 
L 101.735648 87.412216 
L 101.839266 87.33807 
L 102.049106 87.188892 
L 102.18725 87.091394 
L 102.306588 87.00762 
L 102.512195 86.86426 
L 102.73991 86.706913 
L 102.835633 86.641215 
L 102.942246 86.568351 
L 103.111317 86.453463 
L 103.363241 86.283773 
L 103.520651 86.178648 
L 103.673964 86.076922 
L 103.711694 86.051987 
L 103.843827 85.964973 
L 104.150929 85.764587 
L 104.177097 85.747631 
L 104.447212 85.573689 
L 104.560505 85.501317 
L 104.766055 85.370889 
L 104.907198 85.281979 
L 105.01114 85.21684 
L 105.163316 85.121987 
L 105.25565 85.064729 
L 105.448411 84.945912 
L 105.647694 84.824088 
L 105.872827 84.687691 
L 105.930762 84.652801 
L 106.138088 84.528644 
L 106.293929 84.436036 
L 106.428641 84.356477 
L 106.528622 84.297724 
L 106.806878 84.135523 
L 106.892308 84.086109 
L 106.892308 138.046154 
z
" clip-path="url(#pa6183b94fc)" style="fill: #808080; opacity: 0.5"/>
   </g>
   <g id="patch_6">
    <path d="M 75.738462 138.046154 
L 75.738462 138.046154 
L 75.742572 138.761853 
L 75.746683 139.058288 
L 75.750793 139.28574 
L 75.754904 139.477481 
L 75.759014 139.6464 
L 75.763125 139.799106 
L 75.767236 139.939528 
L 75.771346 140.070222 
L 75.775457 140.192967 
L 75.779567 140.309056 
L 75.783678 140.419467 
L 75.787789 140.524958 
L 75.791899 140.626132 
L 75.79601 140.723479 
L 75.804231 140.908241 
L 75.812452 141.081755 
L 75.820673 141.245853 
L 75.828894 141.401916 
L 75.837116 141.551017 
L 75.845337 141.694011 
L 75.853558 141.831589 
L 75.861779 141.964322 
L 75.87 142.092687 
L 75.882975 142.28735 
L 75.89595 142.473424 
L 75.908925 142.65195 
L 75.9219 142.823775 
L 75.934876 142.989597 
L 75.947851 143.150001 
L 75.960826 143.305483 
L 75.973801 143.456468 
L 75.986776 143.603322 
L 75.999751 143.746365 
L 76.012726 143.885875 
L 76.025701 144.022102 
L 76.051651 144.285558 
L 76.077601 144.538228 
L 76.101916 144.766266 
L 76.12623 144.986731 
L 76.150545 145.200323 
L 76.17486 145.407639 
L 76.199174 145.609197 
L 76.223489 145.805445 
L 76.247803 145.996776 
L 76.272118 146.183536 
L 76.312927 146.487557 
L 76.353737 146.780812 
L 76.394547 147.064351 
L 76.435356 147.339064 
L 76.472148 147.579797 
L 76.50894 147.81446 
L 76.554834 148.099318 
L 76.600728 148.376121 
L 76.632644 148.564201 
L 76.664559 148.748881 
L 76.72839 149.10872 
L 76.792221 149.45686 
L 76.856052 149.794342 
L 76.916915 150.107027 
L 76.977778 150.411509 
L 77.036706 150.699051 
L 77.095634 150.979933 
L 77.170644 151.328505 
L 77.245655 151.667747 
L 77.308301 151.944417 
L 77.370947 152.215409 
L 77.433593 152.481043 
L 77.49624 152.741609 
L 77.55458 152.979943 
L 77.611392 153.208215 
L 77.668204 153.432892 
L 77.725016 153.654128 
L 77.781828 153.872067 
L 77.878036 154.233994 
L 77.965029 154.553938 
L 78.052021 154.867348 
L 78.168304 155.276697 
L 78.284587 155.675777 
L 78.348334 155.890448 
L 78.480077 156.325403 
L 78.587222 156.670976 
L 78.694368 157.009647 
L 78.806105 157.35587 
L 78.920114 157.702195 
L 79.034123 158.041873 
L 79.106284 158.253585 
L 79.229958 158.610774 
L 79.353632 158.961133 
L 79.494774 159.353064 
L 79.601494 159.644077 
L 79.708214 159.9307 
L 79.812747 160.207355 
L 79.961829 160.595206 
L 80.064498 160.857909 
L 80.226117 161.264505 
L 80.338825 161.543234 
L 80.451534 161.81816 
L 80.619017 162.219951 
L 80.77597 162.589474 
L 80.953228 162.999037 
L 81.044247 163.206264 
L 81.197275 163.550144 
L 81.428658 164.05976 
L 81.515949 164.248911 
L 81.673178 164.585484 
L 81.864025 164.987144 
L 81.942373 165.149922 
L 82.181627 165.639688 
L 82.3828 166.043289 
L 82.399073 166.075618 
L 82.534426 166.342736 
L 82.669779 166.606715 
L 82.806046 166.86939 
L 82.996557 167.231603 
L 83.119256 167.46187 
L 83.232735 167.672791 
L 83.388323 167.95886 
L 83.596133 168.335487 
L 83.788406 168.678577 
L 83.858929 168.803156 
L 84.028486 169.099979 
L 84.235471 169.457281 
L 84.329159 169.617233 
L 84.524271 169.946883 
L 84.702226 170.243574 
L 84.761212 170.341099 
L 84.961064 170.668565 
L 85.148226 170.971187 
L 85.329793 171.261118 
L 85.396774 171.367189 
L 85.620161 171.717563 
L 85.698539 171.839285 
L 85.899554 172.148656 
L 86.095855 172.446953 
L 86.226648 172.643658 
L 86.433448 172.951413 
L 86.467712 173.002024 
L 86.631357 173.242279 
L 86.830043 173.530777 
L 87.085517 173.896705 
L 87.123029 173.949968 
L 87.380629 174.312573 
L 87.506265 174.487452 
L 87.608648 174.629026 
L 87.801793 174.893851 
L 87.97751 175.132263 
L 88.081131 175.27175 
L 88.21295 175.44803 
L 88.475567 175.795398 
L 88.60108 175.95965 
L 88.690808 176.076383 
L 88.949037 176.409179 
L 88.984475 176.454489 
L 89.19137 176.717314 
L 89.379252 176.953495 
L 89.573804 177.195608 
L 89.625842 177.259951 
L 89.828595 177.508992 
L 89.973534 177.685424 
L 90.081642 177.816169 
L 90.336935 178.122069 
L 90.467728 178.27726 
L 90.687361 178.535576 
L 90.830032 178.701859 
L 90.954273 178.845704 
L 91.02312 178.925034 
L 91.164076 179.086613 
L 91.356578 179.305481 
L 91.617577 179.598961 
L 91.64219 179.626445 
L 91.869137 179.878338 
L 92.027491 180.052477 
L 92.111755 180.144604 
L 92.266338 180.312653 
L 92.51659 180.582107 
L 92.627235 180.700231 
L 92.816193 180.900549 
L 93.035254 181.130576 
L 93.096177 181.194133 
L 93.312704 181.418576 
L 93.369825 181.477411 
L 93.597814 181.710712 
L 93.759746 181.874942 
L 93.856642 181.972633 
L 94.021041 182.137399 
L 94.219049 182.334226 
L 94.306599 182.420694 
L 94.454093 182.565596 
L 94.609599 182.717333 
L 94.793764 182.895672 
L 94.97535 183.070085 
L 95.121017 183.208983 
L 95.364208 183.438885 
L 95.429817 183.500486 
L 95.593449 183.65335 
L 95.7055 183.757394 
L 95.965823 183.997152 
L 96.132157 184.148924 
L 96.298203 184.299339 
L 96.351285 184.347195 
L 96.484489 184.466801 
L 96.665309 184.628062 
L 96.809428 184.755692 
L 97.028874 184.948512 
L 97.263577 185.152734 
L 97.415542 185.283871 
L 97.532658 185.384354 
L 97.671417 185.502756 
L 97.863498 185.665506 
L 98.022308 185.799062 
L 98.106854 185.869797 
L 98.237087 185.978259 
L 98.373505 186.091231 
L 98.62962 186.301572 
L 98.710185 186.367268 
L 98.87525 186.501173 
L 99.078692 186.664931 
L 99.257475 186.807685 
L 99.399817 186.920577 
L 99.587323 187.068259 
L 99.695454 187.152898 
L 99.887002 187.301891 
L 99.940274 187.343115 
L 100.132441 187.491062 
L 100.356686 187.662205 
L 100.473559 187.750768 
L 100.697827 187.919503 
L 100.818 188.009271 
L 100.929285 188.091999 
L 101.115625 188.229663 
L 101.306166 188.369327 
L 101.35593 188.405622 
L 101.610551 188.590148 
L 101.666273 188.63027 
L 101.900167 188.797668 
L 102.105328 188.943163 
L 102.134112 188.963477 
L 102.389448 189.14261 
L 102.444501 189.180984 
L 102.640935 189.317189 
L 102.802998 189.428724 
L 102.98183 189.550927 
L 103.187451 189.690315 
L 103.298536 189.765121 
L 103.378529 189.818775 
L 103.563357 189.942061 
L 103.745898 190.062892 
L 103.978476 190.215511 
L 104.073929 190.27772 
L 104.209077 190.365373 
L 104.33691 190.447828 
L 104.519572 190.564882 
L 104.765072 190.720798 
L 104.806828 190.747157 
L 105.00143 190.869394 
L 105.159835 190.968158 
L 105.373098 191.100088 
L 105.546683 191.206599 
L 105.614268 191.247858 
L 105.827539 191.377283 
L 105.909062 191.426448 
L 106.081893 191.530119 
L 106.344232 191.686033 
L 106.391617 191.71401 
L 106.528629 191.794588 
L 106.788422 191.946086 
L 106.892308 192.006198 
L 106.892308 138.046154 
z
" clip-path="url(#pa6183b94fc)" style="fill: #808080; opacity: 0.5"/>
   </g>
   <g id="patch_7">
    <path d="M 231.507692 192.006198 
L 230.955339 192.321352 
L 230.497762 192.576813 
L 230.104951 192.792115 
L 229.728101 192.995237 
L 229.123809 193.314027 
L 228.505884 193.631326 
L 228.304016 193.733105 
L 227.69453 194.034863 
L 227.076004 194.332696 
L 226.776612 194.473859 
L 226.439194 194.630632 
L 226.090367 194.790141 
L 225.253431 195.162344 
L 224.974035 195.283334 
L 224.353711 195.546198 
L 224.125992 195.640716 
L 223.377901 195.943834 
L 222.974638 196.102577 
L 222.371385 196.33403 
L 221.98308 196.479233 
L 221.878097 196.517986 
L 221.177913 196.770993 
L 220.522046 196.999459 
L 220.120377 197.135347 
L 219.601677 197.306339 
L 219.219998 197.428953 
L 218.775383 197.568381 
L 218.219962 197.737447 
L 217.751435 197.875682 
L 217.589801 197.922446 
L 217.048324 198.075671 
L 216.604208 198.197415 
L 215.914373 198.379549 
L 215.588053 198.46277 
L 214.979593 198.612944 
L 214.753801 198.667023 
L 214.010391 198.838812 
L 213.504425 198.950265 
L 213.338523 198.985851 
L 212.611872 199.136164 
L 212.39623 199.179038 
L 211.680611 199.315664 
L 211.410347 199.365012 
L 210.92677 199.45024 
L 210.18931 199.57267 
L 209.746847 199.641771 
L 209.523098 199.675476 
L 209.120355 199.734053 
L 208.662037 199.797449 
L 207.843691 199.902041 
L 207.774602 199.910367 
L 207.137173 199.983501 
L 206.597775 200.040201 
L 206.029638 200.094795 
L 205.44301 200.145662 
L 205.292959 200.157777 
L 204.574889 200.210704 
L 204.469444 200.217774 
L 203.629648 200.267675 
L 203.549691 200.271833 
L 202.94252 200.300048 
L 202.354663 200.321713 
L 201.924592 200.334044 
L 201.491819 200.343453 
L 200.759115 200.352528 
L 200.692144 200.352928 
L 200.105898 200.353353 
L 199.667424 200.350065 
L 199.065554 200.340526 
L 198.467151 200.325275 
L 198.355184 200.321782 
L 197.603129 200.293098 
L 197.388307 200.283234 
L 196.613926 200.241504 
L 196.500061 200.234552 
L 195.846978 200.190636 
L 195.431726 200.159126 
L 195.103914 200.132277 
L 194.292843 200.058352 
L 193.986229 200.027619 
L 193.517962 199.977723 
L 193.021059 199.920856 
L 192.717222 199.884091 
L 192.227018 199.821579 
L 191.507447 199.722646 
L 191.224893 199.681458 
L 190.544642 199.576862 
L 190.093498 199.503243 
L 189.557404 199.411334 
L 189.430972 199.388956 
L 188.966753 199.304481 
L 188.272064 199.171264 
L 187.844578 199.085213 
L 187.461884 199.005532 
L 186.842 198.871137 
L 186.402549 198.771847 
L 185.999082 198.67774 
L 185.673603 198.599758 
L 185.100801 198.458016 
L 184.638963 198.339528 
L 184.269127 198.24192 
L 183.655118 198.074489 
L 183.237566 197.956766 
L 182.56512 197.760555 
L 182.369355 197.701888 
L 181.888494 197.554803 
L 181.121826 197.311472 
L 180.998679 197.271368 
L 180.206901 197.006726 
L 179.922174 196.908666 
L 179.250573 196.671237 
L 178.766651 196.494777 
L 178.293519 196.317849 
L 178.160226 196.267213 
L 177.64481 196.068117 
L 177.147285 195.870924 
L 176.660226 195.673065 
L 175.981022 195.389104 
L 175.457568 195.163786 
L 175.008057 194.965742 
L 174.870999 194.904513 
L 174.007083 194.509386 
L 173.654728 194.343628 
L 173.074998 194.065016 
L 172.629109 193.845683 
L 172.290473 193.676142 
L 171.683504 193.365771 
L 171.459193 193.248939 
L 170.860254 192.931275 
L 170.386832 192.674229 
L 170.06068 192.494043 
L 169.442893 192.145706 
L 169.194577 192.003067 
L 168.525284 191.610985 
L 168.305947 191.480045 
L 167.715048 191.12117 
L 167.037512 190.698508 
L 166.92032 190.624171 
L 166.195598 190.156255 
L 165.828836 189.913988 
L 165.508145 189.699088 
L 164.790094 189.207351 
L 164.348951 188.897861 
L 164.034693 188.67389 
L 163.224792 188.082959 
L 162.933461 187.865461 
L 162.522596 187.554184 
L 162.19747 187.304041 
L 161.6687 186.889864 
L 160.82635 186.210722 
L 160.645248 186.061524 
L 159.943409 185.47236 
L 159.605125 185.182024 
L 159.356126 184.965611 
L 158.664732 184.352377 
L 158.053951 183.795114 
L 157.732372 183.49567 
L 157.088906 182.883565 
L 157.002381 182.799914 
L 156.285912 182.094601 
L 156.062276 181.869724 
L 155.64469 181.443617 
L 155.125081 180.901811 
L 154.51929 180.253286 
L 153.923172 179.596618 
L 153.4896 179.106974 
L 152.968511 178.504509 
L 152.757388 178.255925 
L 152.364695 177.786434 
L 151.666761 176.928236 
L 150.962958 176.030212 
L 150.654716 175.626001 
L 150.257469 175.094791 
L 149.629941 174.230875 
L 149.519596 174.075691 
L 149.106048 173.484999 
L 148.692501 172.879384 
L 148.425591 172.480218 
L 148.019897 171.860446 
L 147.642841 171.269617 
L 147.265785 170.66373 
L 146.754587 169.816705 
L 146.601279 169.556629 
L 146.240164 168.932364 
L 145.87905 168.290906 
L 145.495133 167.588837 
L 145.183224 167.002172 
L 144.809275 166.278212 
L 144.368801 165.394339 
L 144.148564 164.938807 
L 143.928328 164.47359 
L 143.866601 164.341394 
L 143.536948 163.621309 
L 143.207294 162.875978 
L 142.916722 162.196211 
L 142.626149 161.493147 
L 142.352212 160.807063 
L 142.078276 160.096243 
L 141.913539 159.655851 
L 141.748802 159.205014 
L 141.594719 158.773273 
L 141.440635 158.331174 
L 141.286551 157.878027 
L 141.132467 157.413054 
L 140.891869 156.661251 
L 140.651272 155.874534 
L 140.449341 155.183796 
L 140.24741 154.461539 
L 140.109503 153.947965 
L 139.971595 153.416003 
L 139.833687 152.863674 
L 139.69578 152.288609 
L 139.581702 151.793699 
L 139.467624 151.27931 
L 139.353545 150.743076 
L 139.239467 150.182101 
L 139.144541 149.693877 
L 139.049614 149.183464 
L 138.954688 148.647657 
L 138.859761 148.082391 
L 138.795972 147.683405 
L 138.732182 147.266729 
L 138.668392 146.829848 
L 138.604602 146.36958 
L 138.540813 145.881804 
L 138.477023 145.36102 
L 138.445128 145.085979 
L 138.413233 144.799596 
L 138.381338 144.500361 
L 138.349443 144.186395 
L 138.311532 143.7907 
L 138.273621 143.36538 
L 138.254665 143.139314 
L 138.23571 142.902661 
L 138.216754 142.653792 
L 138.197799 142.390608 
L 138.178843 142.110328 
L 138.159887 141.809134 
L 138.140932 141.481531 
L 138.131454 141.305363 
L 138.121976 141.119082 
L 138.112498 140.920724 
L 138.103021 140.70759 
L 138.093543 140.475794 
L 138.084065 140.219373 
L 138.074587 139.928288 
L 138.065109 139.582969 
L 138.055632 139.132887 
L 138.046154 138.046154 
L 138.046154 146.393802 
L 138.289753 146.253891 
L 139.089632 145.804655 
L 139.262169 145.709772 
L 139.738726 145.45137 
L 140.228357 145.191428 
L 140.973493 144.806454 
L 141.188934 144.697501 
L 141.889752 144.350285 
L 142.113801 144.241581 
L 142.877687 143.879211 
L 143.427086 143.62638 
L 143.697709 143.504205 
L 144.274061 143.249152 
L 144.390015 143.198679 
L 144.944301 142.961254 
L 145.730531 142.635283 
L 146.199847 142.446666 
L 146.691572 142.253767 
L 147.022014 142.12683 
L 147.289603 142.025611 
L 147.918503 141.793225 
L 148.224924 141.682774 
L 149.028815 141.401562 
L 149.136355 141.364875 
L 149.804493 141.14183 
L 150.109371 141.042832 
L 150.917957 140.788626 
L 151.14686 140.718851 
L 151.642545 140.571037 
L 152.231425 140.401232 
L 152.736494 140.260573 
L 153.159076 140.146394 
L 153.55278 140.042877 
L 154.050742 139.915874 
L 154.495654 139.80609 
L 155.052094 139.673658 
L 155.349004 139.605197 
L 155.898229 139.482577 
L 156.537579 139.346374 
L 156.977877 139.256643 
L 157.269784 139.198973 
L 157.780856 139.101486 
L 158.187782 139.02702 
L 158.74519 138.929539 
L 159.219803 138.850641 
L 159.544134 138.798889 
L 160.014834 138.726894 
L 160.784933 138.617024 
L 161.183042 138.564066 
L 161.683975 138.501135 
L 162.094786 138.452599 
L 162.58368 138.398436 
L 162.935799 138.361844 
L 163.209045 138.334841 
L 163.764739 138.283672 
L 164.192889 138.247668 
L 164.776292 138.203389 
L 165.270332 138.170197 
L 165.599967 138.150243 
L 166.317513 138.112865 
L 166.508869 138.104297 
L 166.990128 138.085355 
L 167.412194 138.071808 
L 167.892385 138.059876 
L 168.760187 138.047706 
L 169.154405 138.046171 
L 169.374696 138.046399 
L 170.194687 138.054094 
L 170.308378 138.056013 
L 171.062376 138.073993 
L 171.563878 138.091011 
L 171.716424 138.09699 
L 172.508644 138.134063 
L 172.744274 138.147041 
L 173.312539 138.182023 
L 173.824682 138.21802 
L 174.052776 138.235418 
L 174.754773 138.294254 
L 175.021185 138.318676 
L 175.501064 138.36558 
L 175.885015 138.405811 
L 176.57126 138.483716 
L 177.060844 138.544012 
L 177.347941 138.581202 
L 178.173052 138.695652 
L 178.355875 138.722535 
L 179.052739 138.830094 
L 179.428854 138.891508 
L 179.780248 138.951021 
L 180.354003 139.052649 
L 180.867541 139.148315 
L 181.349176 139.242096 
L 181.939935 139.362514 
L 182.384266 139.457018 
L 182.862462 139.562517 
L 183.230696 139.646449 
L 183.650428 139.744988 
L 184.206429 139.880252 
L 184.751364 140.018089 
L 184.932091 140.06496 
L 185.658867 140.259302 
L 185.818162 140.303157 
L 186.385584 140.463077 
L 187.086239 140.66858 
L 187.238205 140.714332 
L 187.894707 140.91685 
L 188.237678 141.025815 
L 188.781767 141.203166 
L 189.263094 141.364688 
L 189.487457 141.441474 
L 189.998185 141.619835 
L 190.834867 141.922852 
L 191.150493 142.040688 
L 191.702897 142.251624 
L 192.169949 142.434679 
L 192.586478 142.601607 
L 193.05609 142.794003 
L 193.55734 143.004317 
L 193.970162 143.181409 
L 194.310802 143.330201 
L 194.932934 143.608233 
L 195.12891 143.697513 
L 196.005445 144.106921 
L 196.354559 144.27463 
L 196.549807 144.369593 
L 197.169043 144.676372 
L 197.755171 144.974692 
L 197.997919 145.100535 
L 198.520956 145.376305 
L 199.177046 145.731275 
L 199.456585 145.885621 
L 200.234229 146.324917 
L 200.301091 146.363378 
L 201.140085 146.85544 
L 201.398993 147.010868 
L 201.748974 147.223696 
L 202.379151 147.614938 
L 202.736152 147.841228 
L 203.482664 148.325513 
L 203.983874 148.659256 
L 204.048974 148.70312 
L 204.719638 149.162012 
L 205.377141 149.624535 
L 205.671592 149.835815 
L 206.305101 150.299276 
L 206.590097 150.511804 
L 206.884627 150.734118 
L 207.528551 151.229812 
L 207.827558 151.46458 
L 208.664302 152.137486 
L 209.146159 152.535932 
L 209.21513 152.593634 
L 210.059635 153.314089 
L 210.231984 153.46435 
L 210.832991 153.997157 
L 211.298622 154.419605 
L 211.812408 154.89583 
L 212.310661 155.368077 
L 212.655011 155.700621 
L 212.971652 156.010966 
L 213.861291 156.907125 
L 214.326644 157.39067 
L 214.633205 157.714986 
L 215.222211 158.351411 
L 215.75506 158.942798 
L 216.094914 159.328054 
L 216.442812 159.729158 
L 217.029592 160.421671 
L 217.371846 160.83522 
L 217.745742 161.295435 
L 218.341406 162.047571 
L 218.823579 162.67429 
L 219.159493 163.120828 
L 219.520313 163.60994 
L 219.881133 164.109243 
L 220.320954 164.732271 
L 220.788787 165.413245 
L 221.267847 166.131224 
L 221.571716 166.598078 
L 221.938897 167.174677 
L 222.306078 167.765612 
L 222.468798 168.03228 
L 222.750589 168.501327 
L 223.032379 168.979917 
L 223.328324 169.493304 
L 223.624268 170.018264 
L 223.927425 170.568657 
L 224.205429 171.08524 
L 224.483434 171.613796 
L 224.844761 172.319777 
L 225.095517 172.823142 
L 225.346274 173.338212 
L 225.614965 173.903889 
L 225.883656 174.484721 
L 226.168359 175.117869 
L 226.453062 175.770613 
L 226.675306 176.294799 
L 226.874679 176.77674 
L 227.074052 177.270461 
L 227.273425 177.776736 
L 227.472797 178.29643 
L 227.575823 178.570554 
L 227.81173 179.213515 
L 228.047637 179.879372 
L 228.232728 180.419315 
L 228.417819 180.976065 
L 228.60291 181.551113 
L 228.788001 182.146192 
L 228.95901 182.715557 
L 229.130019 183.30564 
L 229.252854 183.74351 
L 229.375688 184.194172 
L 229.498523 184.658731 
L 229.621358 185.138457 
L 229.775504 185.764234 
L 229.929651 186.419788 
L 230.083798 187.10954 
L 230.160871 187.468945 
L 230.237945 187.839143 
L 230.361979 188.460115 
L 230.423996 188.783591 
L 230.486013 189.116716 
L 230.54803 189.460377 
L 230.610048 189.815603 
L 230.672065 190.183606 
L 230.734082 190.565828 
L 230.789314 190.919604 
L 230.844546 191.287509 
L 230.899778 191.671341 
L 230.95501 192.073313 
L 231.010242 192.49621 
L 231.065475 192.943611 
L 231.120707 193.420261 
L 231.148323 193.671494 
L 231.175939 193.932668 
L 231.217408 194.346382 
L 231.258877 194.791087 
L 231.279612 195.027466 
L 231.300346 195.274919 
L 231.321081 195.535151 
L 231.341816 195.810358 
L 231.36255 196.103449 
L 231.383285 196.418415 
L 231.404019 196.761006 
L 231.414387 196.945237 
L 231.424754 197.140045 
L 231.435121 197.347485 
L 231.445489 197.570381 
L 231.455856 197.812796 
L 231.466223 198.080967 
L 231.47659 198.385393 
L 231.486958 198.746544 
L 231.497325 199.217265 
L 231.507692 200.353846 
z
" clip-path="url(#pa6183b94fc)" style="fill: #808080; opacity: 0.5"/>
   </g>
   <g id="matplotlib.axis_1"/>
   <g id="matplotlib.axis_2"/>
   <g id="line2d_1">
    <path d="M 106.892308 84.086109 
L 109.980924 82.417102 
L 113.53825 80.760805 
L 117.009981 79.39696 
L 120.449013 78.275014 
L 124.107061 77.317658 
L 127.963546 76.559655 
L 131.850936 76.04722 
L 135.557286 75.78819 
L 139.430192 75.753835 
L 142.938768 75.930851 
L 146.166707 76.269903 
L 150.068082 76.909244 
L 153.857568 77.778022 
L 157.410141 78.823822 
L 161.340713 80.256777 
L 164.442254 81.605969 
L 167.692587 83.243439 
L 170.640117 84.943592 
L 173.826425 87.036148 
L 177.174938 89.557116 
L 180.104389 92.07493 
L 182.940313 94.840101 
L 185.554601 97.732434 
L 187.872327 100.634913 
L 189.623003 103.087933 
L 191.554162 106.122156 
L 193.558138 109.750074 
L 195.046766 112.88311 
L 196.426298 116.274447 
L 197.666615 119.945071 
L 198.713722 123.844228 
L 199.435979 127.390738 
L 199.964117 131.088114 
L 200.2759 134.930522 
L 200.353846 138.046154 
L 200.353846 138.046154 
" clip-path="url(#pa6183b94fc)" style="fill: none; stroke: #0000ff; stroke-linecap: square"/>
   </g>
   <g id="line2d_2">
    <path d="M 75.738462 138.046154 
L 75.871515 133.97641 
L 76.214994 130.354845 
L 76.777847 126.712883 
L 77.542601 123.160973 
L 78.549898 119.540911 
L 79.772531 115.990918 
L 81.281055 112.356233 
L 82.974691 108.901986 
L 84.844639 105.613958 
L 86.855442 102.524899 
L 89.14824 99.429544 
L 91.383245 96.75667 
L 94.046861 93.929142 
L 96.71341 91.42156 
L 99.627345 88.992676 
L 102.73991 86.706913 
L 105.872827 84.687691 
L 106.892308 84.086109 
L 106.892308 84.086109 
" clip-path="url(#pa6183b94fc)" style="fill: none; stroke: #0000ff; stroke-linecap: square"/>
   </g>
   <g id="line2d_3">
    <path d="M 75.738462 138.046154 
L 75.87 142.092687 
L 76.223489 145.805445 
L 76.792221 149.45686 
L 77.611392 153.208215 
L 78.587222 156.670976 
L 79.812747 160.207355 
L 81.197275 163.550144 
L 82.806046 166.86939 
L 84.702226 170.243574 
L 86.631357 173.242279 
L 88.690808 176.076383 
L 91.164076 179.086613 
L 93.759746 181.874942 
L 96.484489 184.466801 
L 99.399817 186.920577 
L 102.444501 189.180984 
L 105.614268 191.247858 
L 106.892308 192.006198 
L 106.892308 192.006198 
" clip-path="url(#pa6183b94fc)" style="fill: none; stroke: #0000ff; stroke-linecap: square"/>
   </g>
   <g id="line2d_4">
    <path d="M 138.046154 146.393802 
L 141.188934 144.697501 
L 144.390015 143.198679 
L 147.918503 141.793225 
L 151.14686 140.718851 
L 154.495654 139.80609 
L 158.187782 139.02702 
L 162.094786 138.452599 
L 165.599967 138.150243 
L 169.374696 138.046399 
L 173.312539 138.182023 
L 177.060844 138.544012 
L 180.867541 139.148315 
L 184.206429 139.880252 
L 187.894707 140.91685 
L 191.150493 142.040688 
L 194.310802 143.330201 
L 197.755171 144.974692 
L 200.301091 146.363378 
L 203.482664 148.325513 
L 206.590097 150.511804 
L 209.21513 152.593634 
L 212.310661 155.368077 
L 214.633205 157.714986 
L 217.371846 160.83522 
L 219.520313 163.60994 
L 221.571716 166.598078 
L 223.624268 170.018264 
L 225.346274 173.338212 
L 226.874679 176.77674 
L 228.232728 180.419315 
L 229.375688 184.194172 
L 230.237945 187.839143 
L 230.899778 191.671341 
L 231.321081 195.535151 
L 231.497325 199.217265 
L 231.507692 200.353846 
L 231.507692 200.353846 
" clip-path="url(#pa6183b94fc)" style="fill: none; stroke: #228b22; stroke-linecap: square"/>
   </g>
   <g id="line2d_5">
    <path d="M 200.353846 254.313891 
L 203.41589 252.426117 
L 206.489675 250.271064 
L 209.420474 247.941261 
L 212.2585 245.389544 
L 214.87093 242.737978 
L 217.389314 239.851169 
L 219.733783 236.803611 
L 221.886291 233.616487 
L 223.875272 230.234661 
L 225.532722 226.978515 
L 227.041646 223.518313 
L 228.259954 220.207571 
L 229.363749 216.557914 
L 230.217599 212.967375 
L 230.87854 209.185957 
L 231.299065 205.448414 
L 231.493199 201.697687 
L 231.507692 200.353846 
L 231.507692 200.353846 
" clip-path="url(#pa6183b94fc)" style="fill: none; stroke: #228b22; stroke-linecap: square"/>
   </g>
   <g id="text_1">
    <!-- $\Omega$ -->
    <g transform="translate(16.011538 22.420913) scale(0.1 -0.1)">
     <defs>
      <path id="Cmr10-ad" d="M 494 0 
L 281 1063 
L 469 1063 
Q 503 878 531 736 
Q 559 594 604 536 
Q 650 478 750 459 
Q 850 441 1081 441 
L 1472 441 
Q 1378 803 1004 1386 
Q 631 1969 495 2233 
Q 359 2497 359 2913 
Q 359 3397 646 3761 
Q 934 4125 1389 4319 
Q 1844 4513 2309 4513 
Q 2772 4513 3226 4319 
Q 3681 4125 3968 3758 
Q 4256 3391 4256 2913 
Q 4256 2588 4137 2300 
Q 4019 2013 3834 1725 
Q 3650 1438 3436 1084 
Q 3222 731 3144 441 
L 3531 441 
Q 3766 441 3869 459 
Q 3972 478 4015 536 
Q 4059 594 4086 736 
Q 4113 878 4147 1063 
L 4331 1063 
L 4122 0 
L 2988 0 
Q 2925 0 2925 84 
Q 2925 409 3004 721 
Q 3084 1034 3240 1478 
Q 3397 1922 3484 2261 
Q 3572 2600 3572 2913 
Q 3572 3297 3422 3625 
Q 3272 3953 2984 4150 
Q 2697 4347 2309 4347 
Q 1725 4347 1384 3930 
Q 1044 3513 1044 2913 
Q 1047 2584 1122 2293 
Q 1197 2003 1364 1518 
Q 1531 1034 1611 721 
Q 1691 409 1691 84 
Q 1691 0 1625 0 
L 494 0 
z
" transform="scale(0.015625)"/>
     </defs>
     <use xlink:href="#Cmr10-ad" transform="translate(0 0.484375)"/>
    </g>
   </g>
   <g id="text_2">
    <!-- $A$ -->
    <g style="fill: #0000ff" transform="translate(103.142308 78.497837) scale(0.1 -0.1)">
     <defs>
      <path id="Cmmi10-41" d="M 288 0 
Q 225 0 225 84 
Q 250 225 306 225 
Q 566 225 755 328 
Q 944 431 1081 647 
Q 1094 659 1094 659 
L 3378 4513 
Q 3428 4581 3500 4581 
L 3584 4581 
Q 3603 4581 3622 4573 
Q 3641 4566 3655 4548 
Q 3669 4531 3669 4513 
L 4056 378 
Q 4056 350 4084 294 
Q 4147 225 4563 225 
Q 4628 225 4628 141 
Q 4606 56 4592 28 
Q 4578 0 4519 0 
L 2919 0 
Q 2859 0 2859 84 
Q 2894 225 2944 225 
Q 3450 225 3481 397 
L 3384 1453 
L 1806 1453 
L 1294 594 
Q 1247 525 1247 434 
Q 1247 322 1355 273 
Q 1463 225 1594 225 
Q 1656 225 1656 141 
Q 1634 50 1621 25 
Q 1609 0 1550 0 
L 288 0 
z
M 1931 1678 
L 3359 1678 
L 3169 3750 
L 1931 1678 
z
" transform="scale(0.015625)"/>
     </defs>
     <use xlink:href="#Cmmi10-41" transform="translate(0 0.421875)"/>
    </g>
   </g>
   <g id="text_3">
    <!-- $B$ -->
    <g style="fill: #ff0000" transform="translate(227.707692 78.497837) scale(0.1 -0.1)">
     <defs>
      <path id="Cmmi10-42" d="M 319 0 
Q 256 0 256 84 
Q 259 100 268 137 
Q 278 175 293 200 
Q 309 225 341 225 
Q 522 225 656 234 
Q 791 244 884 269 
Q 959 297 1006 441 
L 1881 3956 
Q 1894 4019 1894 4044 
Q 1894 4113 1819 4122 
Q 1697 4147 1356 4147 
Q 1294 4147 1294 4231 
Q 1297 4247 1306 4286 
Q 1316 4325 1333 4348 
Q 1350 4372 1375 4372 
L 3669 4372 
Q 3878 4372 4083 4320 
Q 4288 4269 4461 4156 
Q 4634 4044 4736 3876 
Q 4838 3709 4838 3488 
Q 4838 3247 4714 3040 
Q 4591 2834 4395 2681 
Q 4200 2528 3973 2429 
Q 3747 2331 3500 2284 
Q 3675 2284 3854 2215 
Q 4034 2147 4175 2028 
Q 4316 1909 4402 1743 
Q 4488 1578 4488 1388 
Q 4488 1003 4219 684 
Q 3950 366 3542 183 
Q 3134 0 2753 0 
L 319 0 
z
M 1497 275 
Q 1497 225 1716 225 
L 2631 225 
Q 2944 225 3231 398 
Q 3519 572 3692 859 
Q 3866 1147 3866 1459 
Q 3866 1650 3786 1820 
Q 3706 1991 3556 2089 
Q 3406 2188 3213 2188 
L 1966 2188 
L 1522 416 
Q 1497 328 1497 275 
z
M 2009 2356 
L 2981 2356 
Q 3288 2356 3577 2512 
Q 3866 2669 4048 2937 
Q 4231 3206 4231 3506 
Q 4231 3784 4057 3965 
Q 3884 4147 3609 4147 
L 2731 4147 
Q 2559 4147 2500 4115 
Q 2441 4084 2400 3928 
L 2009 2356 
z
" transform="scale(0.015625)"/>
     </defs>
     <use xlink:href="#Cmmi10-42" transform="translate(0 0.6875)"/>
    </g>
   </g>
   <g id="text_4">
    <!-- $C$ -->
    <g style="fill: #228b22" transform="translate(150.023077 271.651683) scale(0.1 -0.1)">
     <defs>
      <path id="Cmmi10-43" d="M 934 1381 
Q 934 997 1082 705 
Q 1231 413 1514 248 
Q 1797 84 2181 84 
Q 2584 84 2957 290 
Q 3331 497 3595 842 
Q 3859 1188 3956 1575 
Q 3969 1613 4006 1613 
L 4084 1613 
Q 4109 1613 4125 1595 
Q 4141 1578 4141 1556 
Q 4141 1550 4134 1538 
Q 4025 1094 3711 705 
Q 3397 316 2959 87 
Q 2522 -141 2059 -141 
Q 1559 -141 1162 84 
Q 766 309 545 709 
Q 325 1109 325 1613 
Q 325 2150 565 2676 
Q 806 3203 1212 3614 
Q 1619 4025 2139 4269 
Q 2659 4513 3194 4513 
Q 3406 4513 3600 4448 
Q 3794 4384 3959 4253 
Q 4125 4122 4231 3950 
L 4738 4500 
Q 4738 4513 4769 4513 
L 4806 4513 
Q 4831 4513 4847 4491 
Q 4863 4469 4863 4447 
L 4428 2719 
Q 4428 2675 4378 2675 
L 4263 2675 
Q 4213 2675 4213 2747 
Q 4238 2888 4238 3084 
Q 4238 3397 4131 3673 
Q 4025 3950 3801 4119 
Q 3578 4288 3256 4288 
Q 2734 4288 2300 4025 
Q 1866 3763 1564 3336 
Q 1263 2909 1098 2389 
Q 934 1869 934 1381 
z
" transform="scale(0.015625)"/>
     </defs>
     <use xlink:href="#Cmmi10-43" transform="translate(0 0.484375)"/>
    </g>
   </g>
   <g id="patch_8">
    <path d="M 138.046154 200.353846 
C 154.570347 200.353846 170.419977 193.788715 182.104346 182.104346 
C 193.788715 170.419977 200.353846 154.570347 200.353846 138.046154 
C 200.353846 121.521961 193.788715 105.672331 182.104346 93.987962 
C 170.419977 82.303593 154.570347 75.738462 138.046154 75.738462 
C 121.521961 75.738462 105.672331 82.303593 93.987962 93.987962 
C 82.303593 105.672331 75.738462 121.521961 75.738462 138.046154 
C 75.738462 154.570347 82.303593 170.419977 93.987962 182.104346 
C 105.672331 193.788715 121.521961 200.353846 138.046154 200.353846 
L 138.046154 200.353846 
z
" clip-path="url(#pa6183b94fc)" style="fill: none; stroke: #0000ff; stroke-linejoin: miter"/>
   </g>
   <g id="patch_9">
    <path d="M 200.353846 200.353846 
C 216.878039 200.353846 232.727669 193.788715 244.412038 182.104346 
C 256.096407 170.419977 262.661538 154.570347 262.661538 138.046154 
C 262.661538 121.521961 256.096407 105.672331 244.412038 93.987962 
C 232.727669 82.303593 216.878039 75.738462 200.353846 75.738462 
C 183.829653 75.738462 167.980023 82.303593 156.295654 93.987962 
C 144.611285 105.672331 138.046154 121.521961 138.046154 138.046154 
C 138.046154 154.570347 144.611285 170.419977 156.295654 182.104346 
C 167.980023 193.788715 183.829653 200.353846 200.353846 200.353846 
L 200.353846 200.353846 
z
" clip-path="url(#pa6183b94fc)" style="fill: none; stroke: #ff0000; stroke-linejoin: miter"/>
   </g>
   <g id="patch_10">
    <path d="M 169.2 262.661538 
C 185.724193 262.661538 201.573823 256.096407 213.258192 244.412038 
C 224.942561 232.727669 231.507692 216.878039 231.507692 200.353846 
C 231.507692 183.829653 224.942561 167.980023 213.258192 156.295654 
C 201.573823 144.611285 185.724193 138.046154 169.2 138.046154 
C 152.675807 138.046154 136.826177 144.611285 125.141808 156.295654 
C 113.457439 167.980023 106.892308 183.829653 106.892308 200.353846 
C 106.892308 216.878039 113.457439 232.727669 125.141808 244.412038 
C 136.826177 256.096407 152.675807 262.661538 169.2 262.661538 
L 169.2 262.661538 
z
" clip-path="url(#pa6183b94fc)" style="fill: none; stroke: #228b22; stroke-linejoin: miter"/>
   </g>
  </g>
 </g>
 <defs>
  <clipPath id="pa6183b94fc">
   <rect x="7.2" y="7.2" width="324" height="324"/>
  </clipPath>
 </defs>
</svg>
