<?xml version="1.0" encoding="utf-8" standalone="no"?>
<!DOCTYPE svg PUBLIC "-//W3C//DTD SVG 1.1//EN"
  "http://www.w3.org/Graphics/SVG/1.1/DTD/svg11.dtd">
<svg xmlns:xlink="http://www.w3.org/1999/xlink" width="338.4pt" height="338.4pt" viewBox="0 0 338.4 338.4" xmlns="http://www.w3.org/2000/svg" version="1.1">
 <metadata>
  <rdf:RDF xmlns:dc="http://purl.org/dc/elements/1.1/" xmlns:cc="http://creativecommons.org/ns#" xmlns:rdf="http://www.w3.org/1999/02/22-rdf-syntax-ns#">
   <cc:Work>
    <dc:type rdf:resource="http://purl.org/dc/dcmitype/StillImage"/>
    <dc:date>2025-08-24T20:28:48.206458</dc:date>
    <dc:format>image/svg+xml</dc:format>
    <dc:creator>
     <cc:Agent>
      <dc:title>Matplotlib v3.8.0, https://matplotlib.org/</dc:title>
     </cc:Agent>
    </dc:creator>
   </cc:Work>
  </rdf:RDF>
 </metadata>
 <defs>
  <style type="text/css">*{stroke-linejoin: round; stroke-linecap: butt}</style>
 </defs>
 <g id="figure_1">
  <g id="patch_1">
   <path d="M -0 338.4 
L 338.4 338.4 
L 338.4 0 
L -0 0 
z
" style="fill: #ffffff"/>
  </g>
  <g id="axes_1">
   <g id="patch_2">
    <path d="M 7.2 331.2 
L 331.2 331.2 
L 331.2 7.2 
L 7.2 7.2 
z
" style="fill: #ffffff"/>
   </g>
   <g id="patch_3">
    <path d="M 13.430769 324.969231 
L 13.430769 13.430769 
L 324.969231 13.430769 
L 324.969231 324.969231 
L 13.430769 324.969231 
z
" clip-path="url(#pd1c536d542)" style="fill: none; stroke: #000000; stroke-linejoin: miter"/>
   </g>
   <g id="patch_4">
    <path d="M 200.353846 138.046154 
L 200.348417 138.868658 
L 200.342988 139.209324 
L 200.337559 139.47071 
L 200.33213 139.691054 
L 200.326701 139.885168 
L 200.321272 140.060649 
L 200.315843 140.22201 
L 200.310414 140.372191 
L 200.304985 140.513235 
L 200.299556 140.646629 
L 200.294127 140.773496 
L 200.288698 140.894707 
L 200.283269 141.010958 
L 200.27784 141.122809 
L 200.272411 141.230725 
L 200.266982 141.335093 
L 200.256123 141.534449 
L 200.245265 141.722979 
L 200.234407 141.902273 
L 200.223549 142.073563 
L 200.212691 142.237831 
L 200.201833 142.395874 
L 200.190975 142.548345 
L 200.180117 142.695794 
L 200.167427 142.862373 
L 200.154737 143.023347 
L 200.142047 143.179244 
L 200.129357 143.330513 
L 200.116667 143.477542 
L 200.103976 143.620665 
L 200.091286 143.760176 
L 200.078596 143.896333 
L 200.053216 144.159479 
L 200.027836 144.411654 
L 200.002456 144.654116 
L 199.977076 144.887896 
L 199.947481 145.150679 
L 199.917885 145.403963 
L 199.88829 145.648699 
L 199.858695 145.885687 
L 199.822007 146.169732 
L 199.785318 146.444016 
L 199.756895 146.650396 
L 199.728471 146.851849 
L 199.700047 147.048705 
L 199.671624 147.24126 
L 199.6432 147.429779 
L 199.614776 147.6145 
L 199.586353 147.795638 
L 199.557929 147.973391 
L 199.504039 148.301733 
L 199.450148 148.61961 
L 199.396258 148.927939 
L 199.342368 149.227509 
L 199.302757 149.442518 
L 199.263146 149.653411 
L 199.223535 149.860407 
L 199.183924 150.063707 
L 199.110345 150.432159 
L 199.064 150.658487 
L 199.017656 150.880658 
L 198.971311 151.098883 
L 198.924966 151.313358 
L 198.854007 151.634883 
L 198.783047 151.948612 
L 198.733345 152.16399 
L 198.683644 152.375959 
L 198.588224 152.773892 
L 198.492804 153.160751 
L 198.402265 153.518333 
L 198.311727 153.867317 
L 198.220083 154.212377 
L 198.128439 154.549715 
L 198.032353 154.895617 
L 197.965774 155.130874 
L 197.899194 155.362679 
L 197.821499 155.629003 
L 197.743804 155.891014 
L 197.639497 156.236315 
L 197.53519 156.574595 
L 197.453912 156.833564 
L 197.372634 157.088665 
L 197.270086 157.405245 
L 197.167537 157.716197 
L 197.080187 157.976819 
L 196.992838 158.233698 
L 196.862713 158.609735 
L 196.777466 158.851958 
L 196.692219 159.091048 
L 196.625609 159.275754 
L 196.516164 159.575352 
L 196.385839 159.926046 
L 196.255513 160.270443 
L 196.114069 160.637429 
L 196.047381 160.808101 
L 195.854341 161.293993 
L 195.716917 161.632836 
L 195.579494 161.96609 
L 195.553481 162.02856 
L 195.410964 162.367484 
L 195.268447 162.700924 
L 195.26149 162.717065 
L 195.133027 163.01288 
L 195.004564 163.304578 
L 194.935613 163.459497 
L 194.804038 163.752012 
L 194.672463 164.040569 
L 194.606203 164.184428 
L 194.450716 164.518287 
L 194.315001 164.805551 
L 194.179286 165.089083 
L 194.085001 165.283925 
L 193.912663 165.635675 
L 193.841363 165.779584 
L 193.706029 166.050203 
L 193.570696 166.317584 
L 193.474806 166.505124 
L 193.292192 166.858022 
L 193.20301 167.028386 
L 193.051307 167.315278 
L 192.763281 167.850257 
L 192.695595 167.974186 
L 192.541358 168.254121 
L 192.298269 168.688551 
L 192.174115 168.907333 
L 191.998464 169.213392 
L 191.951566 169.294435 
L 191.697254 169.729082 
L 191.515922 170.034159 
L 191.433174 170.172072 
L 191.292039 170.405452 
L 191.083684 170.745832 
L 190.96017 170.945324 
L 190.814737 171.17809 
L 190.626298 171.476334 
L 190.461882 171.73354 
L 190.311875 171.965807 
L 190.246147 172.066872 
L 190.082543 172.316589 
L 189.90147 172.589963 
L 189.65307 172.959973 
L 189.544961 173.11924 
L 189.421701 173.299546 
L 189.235579 173.569263 
L 189.073886 173.801141 
L 188.8615 174.102348 
L 188.747027 174.263138 
L 188.548451 174.539529 
L 188.423072 174.712414 
L 188.247149 174.952909 
L 188.132749 175.108015 
L 187.976956 175.317638 
L 187.860281 175.473433 
L 187.699361 175.686657 
L 187.446876 176.017421 
L 187.327401 176.172354 
L 187.154737 176.394499 
L 187.029736 176.554039 
L 186.902697 176.715091 
L 186.806805 176.835938 
L 186.540536 177.168314 
L 186.429066 177.306087 
L 186.261444 177.511763 
L 186.038949 177.782033 
L 185.958747 177.878702 
L 185.780249 178.092436 
L 185.668707 178.225015 
L 185.455256 178.476656 
L 185.261511 178.702747 
L 185.15125 178.830446 
L 185.02859 178.971686 
L 184.904975 179.113165 
L 184.760344 179.27761 
L 184.551848 179.512634 
L 184.317503 179.773972 
L 184.270284 179.826273 
L 184.100333 180.013535 
L 183.935762 180.193425 
L 183.830048 180.308236 
L 183.569956 180.588273 
L 183.517728 180.644093 
L 183.283319 180.892943 
L 183.168463 181.013882 
L 182.991845 181.198598 
L 182.776793 181.421475 
L 182.720939 181.479 
L 182.483269 181.722135 
L 182.279365 181.928629 
L 182.177761 182.030807 
L 181.996235 182.212192 
L 181.818366 182.388481 
L 181.705912 182.499208 
L 181.642619 182.561283 
L 181.462581 182.736896 
L 181.188298 183.001731 
L 181.169944 183.019338 
L 180.945477 183.233503 
L 180.728618 183.438398 
L 180.603928 183.555322 
L 180.512978 183.640204 
L 180.271124 183.864277 
L 180.135168 183.989199 
L 179.994982 184.117233 
L 179.785765 184.306865 
L 179.726928 184.359884 
L 179.543725 184.524107 
L 179.338782 184.70628 
L 179.150029 184.872642 
L 179.017995 184.988211 
L 178.837906 185.144789 
L 178.704195 185.260264 
L 178.548046 185.394282 
L 178.468167 185.462494 
L 178.236907 185.658672 
L 178.156531 185.726403 
L 178.032853 185.830173 
L 177.760094 186.057105 
L 177.680298 186.123 
L 177.56784 186.215489 
L 177.28553 186.445739 
L 177.254011 186.471276 
L 177.002849 186.673558 
L 176.830875 186.810833 
L 176.64668 186.956765 
L 176.527314 187.050733 
L 176.327051 187.207332 
L 176.22168 187.289201 
L 176.106305 187.378429 
L 175.90632 187.532075 
L 175.816954 187.600318 
L 175.660623 187.719086 
L 175.449586 187.87819 
L 175.280461 188.004686 
L 175.202584 188.062634 
L 175.036651 188.185476 
L 174.90846 188.279797 
L 174.65482 188.464941 
L 174.564931 188.530086 
L 174.389294 188.656673 
L 174.2639 188.746483 
L 174.049932 188.898651 
L 173.92083 188.989811 
L 173.778849 189.089499 
L 173.565695 189.238055 
L 173.437313 189.326895 
L 173.274497 189.43888 
L 173.119508 189.544779 
L 172.962245 189.651533 
L 172.788556 189.768625 
L 172.621748 189.880282 
L 172.42436 190.011406 
L 172.336751 190.069259 
L 172.203236 190.157019 
L 172.093975 190.228473 
L 171.822301 190.404729 
L 171.67048 190.502357 
L 171.510124 190.6048 
L 171.397411 190.676394 
L 171.308198 190.732821 
L 171.049592 190.895199 
L 170.851752 191.018234 
L 170.819489 191.038201 
L 170.648541 191.143544 
L 170.414428 191.286583 
L 170.219707 191.404481 
L 170.074941 191.491502 
L 169.9177 191.585421 
L 169.892891 191.600181 
L 169.623095 191.759703 
L 169.544715 191.805704 
L 169.302835 191.946696 
L 169.2 192.006198 
L 169.2 192.006198 
L 169.311212 192.070254 
L 169.483534 192.168906 
L 169.72059 192.303431 
L 169.904292 192.406738 
L 170.007353 192.464339 
L 170.172732 192.556234 
L 170.316508 192.635593 
L 170.430729 192.698286 
L 170.637255 192.810857 
L 170.814591 192.906713 
L 170.922622 192.964744 
L 171.055613 193.035808 
L 171.173503 193.098457 
L 171.433411 193.235437 
L 171.540825 193.291591 
L 171.694534 193.371486 
L 171.931132 193.493407 
L 171.945455 193.500746 
L 172.224898 193.643013 
L 172.387714 193.72509 
L 172.519952 193.791314 
L 172.672244 193.867095 
L 172.825823 193.942992 
L 172.905984 193.982398 
L 173.170032 194.111194 
L 173.202038 194.126702 
L 173.454514 194.24824 
L 173.555435 194.296431 
L 173.705316 194.367591 
L 173.852521 194.437007 
L 174.094223 194.549966 
L 174.267587 194.630212 
L 174.333303 194.660462 
L 174.579787 194.7731 
L 174.633843 194.797629 
L 174.904019 194.919301 
L 174.948286 194.939088 
L 175.084557 194.999745 
L 175.246509 195.071325 
L 175.475152 195.171447 
L 175.621106 195.23479 
L 175.757284 195.293491 
L 175.886271 195.348739 
L 176.105114 195.441689 
L 176.291325 195.520005 
L 176.342019 195.541203 
L 176.614217 195.654126 
L 176.733459 195.703121 
L 176.90335 195.772428 
L 176.98495 195.80551 
L 177.143496 195.869403 
L 177.343728 195.949375 
L 177.549537 196.030738 
L 177.724756 196.099343 
L 177.805668 196.130818 
L 178.030102 196.217444 
L 178.187527 196.277613 
L 178.24581 196.299765 
L 178.396227 196.356629 
L 178.626391 196.442782 
L 178.761213 196.492768 
L 178.905436 196.545848 
L 178.997276 196.579439 
L 179.228785 196.66339 
L 179.397183 196.723805 
L 179.554534 196.779766 
L 179.652028 196.8142 
L 179.838504 196.879556 
L 179.926402 196.910133 
L 180.197248 197.003427 
L 180.345723 197.05398 
L 180.489731 197.102614 
L 180.687735 197.168845 
L 180.795789 197.204678 
L 180.927311 197.247997 
L 181.069543 197.29448 
L 181.305043 197.370614 
L 181.455371 197.418674 
L 181.594543 197.462794 
L 181.719276 197.502031 
L 181.948877 197.573506 
L 182.071268 197.611209 
L 182.197706 197.649871 
L 182.385128 197.706641 
L 182.53658 197.752046 
L 182.608785 197.773546 
L 182.742497 197.813109 
L 182.919814 197.865073 
L 183.121204 197.9234 
L 183.337804 197.985313 
L 183.424373 198.009822 
L 183.679253 198.081197 
L 183.77229 198.106961 
L 183.91452 198.146046 
L 184.020898 198.175043 
L 184.274624 198.243389 
L 184.385187 198.272813 
L 184.561099 198.31918 
L 184.622988 198.335362 
L 184.818394 198.38601 
L 185.020185 198.437605 
L 185.145985 198.469407 
L 185.287842 198.504934 
L 185.47399 198.551016 
L 185.643266 198.592395 
L 185.776935 198.624716 
L 185.947326 198.665463 
L 186.053422 198.69058 
L 186.214094 198.728243 
L 186.394224 198.769934 
L 186.568644 198.809767 
L 186.713457 198.842439 
L 186.873027 198.878021 
L 187.049549 198.916871 
L 187.177347 198.944663 
L 187.384336 198.989081 
L 187.545606 199.023178 
L 187.648703 199.044743 
L 187.807525 199.077608 
L 187.918396 199.100295 
L 188.12353 199.141717 
L 188.359504 199.188482 
L 188.415903 199.199519 
L 188.661566 199.246963 
L 188.7826 199.269963 
L 188.969934 199.305072 
L 189.099536 199.329015 
L 189.233415 199.35345 
L 189.385044 199.38076 
L 189.54039 199.408338 
L 189.714331 199.438737 
L 189.931723 199.476015 
L 190.003794 199.488199 
L 190.136387 199.510388 
L 190.375765 199.549702 
L 190.515807 199.572258 
L 190.614137 199.587901 
L 190.843409 199.623748 
L 191.007524 199.648871 
L 191.086936 199.660867 
L 191.309632 199.69395 
L 191.488711 199.719956 
L 191.549959 199.728729 
L 191.784007 199.761682 
L 191.8749 199.774235 
L 192.073475 199.801186 
L 192.193174 199.817118 
L 192.313293 199.832868 
L 192.488556 199.855423 
L 192.719302 199.884348 
L 192.783203 199.892204 
L 193.035181 199.922528 
L 193.161285 199.937313 
L 193.250364 199.9476 
L 193.47766 199.973261 
L 193.643407 199.99144 
L 193.79138 200.007291 
L 193.869439 200.015509 
L 194.045597 200.033689 
L 194.252744 200.05442 
L 194.449662 200.073479 
L 194.483542 200.076695 
L 194.659262 200.093073 
L 194.809893 200.106714 
L 194.998501 200.123274 
L 195.144014 200.135655 
L 195.402795 200.156826 
L 195.558682 200.169056 
L 195.611269 200.173092 
L 195.833989 200.189693 
L 195.970065 200.19944 
L 196.149909 200.211863 
L 196.259356 200.219168 
L 196.452961 200.231615 
L 196.663279 200.244452 
L 196.822185 200.253677 
L 196.83383 200.254337 
L 197.086878 200.268139 
L 197.1855 200.273239 
L 197.402865 200.283926 
L 197.611384 200.293462 
L 197.746624 200.299274 
L 197.780278 200.300674 
L 197.962899 200.307955 
L 198.094214 200.312859 
L 198.289186 200.319629 
L 198.520267 200.326861 
L 198.600876 200.329182 
L 198.782199 200.334021 
L 199.007615 200.339301 
L 199.044024 200.340077 
L 199.29207 200.344799 
L 199.482707 200.347756 
L 199.515108 200.348201 
L 199.687708 200.350285 
L 199.889703 200.352117 
L 200.079116 200.35324 
L 200.205692 200.35367 
L 200.353846 200.353846 
z
" clip-path="url(#pd1c536d542)" style="fill: #808080; opacity: 0.5"/>
   </g>
   <g id="patch_5">
    <path d="M 231.507692 200.353846 
L 231.501401 199.46842 
L 231.495109 199.101696 
L 231.488818 198.820321 
L 231.482526 198.583128 
L 231.476235 198.374173 
L 231.469943 198.185278 
L 231.463652 198.011584 
L 231.45736 197.849926 
L 231.451069 197.698105 
L 231.444777 197.55452 
L 231.438486 197.417962 
L 231.432194 197.287492 
L 231.425903 197.162365 
L 231.419611 197.041973 
L 231.41332 196.925818 
L 231.407028 196.813484 
L 231.400737 196.704616 
L 231.394445 196.598914 
L 231.381862 196.396 
L 231.369279 196.203032 
L 231.356696 196.018682 
L 231.344113 195.841892 
L 231.33153 195.671807 
L 231.318947 195.50772 
L 231.306364 195.349042 
L 231.285489 195.096411 
L 231.264613 194.855454 
L 231.24803 194.671376 
L 231.231447 194.493124 
L 231.214864 194.320181 
L 231.198281 194.152103 
L 231.181699 193.988505 
L 231.165116 193.82905 
L 231.148533 193.673441 
L 231.13195 193.521415 
L 231.115367 193.372738 
L 231.098784 193.227201 
L 231.065618 192.94481 
L 231.032452 192.672937 
L 230.999286 192.410502 
L 230.97181 192.199585 
L 230.944334 191.994078 
L 230.916858 191.793592 
L 230.889382 191.597781 
L 230.864326 191.423035 
L 230.839271 191.251713 
L 230.78916 190.918596 
L 230.738355 190.59273 
L 230.68755 190.277653 
L 230.636746 189.972382 
L 230.585941 189.676077 
L 230.522443 189.317246 
L 230.458944 188.970073 
L 230.423387 188.780367 
L 230.38783 188.593828 
L 230.316715 188.229671 
L 230.261937 187.956734 
L 230.207159 187.689916 
L 230.15238 187.428836 
L 230.097602 187.173155 
L 230.012989 186.78812 
L 229.944356 186.484032 
L 229.875723 186.186801 
L 229.80709 185.896005 
L 229.738457 185.611264 
L 229.706401 185.480245 
L 229.60384 185.06906 
L 229.501278 184.669321 
L 229.443043 184.447111 
L 229.384809 184.228173 
L 229.268339 183.799595 
L 229.193678 183.531029 
L 229.119017 183.26701 
L 229.003893 182.86834 
L 228.905266 182.534481 
L 228.806639 182.207299 
L 228.718556 181.920452 
L 228.601744 181.547429 
L 228.486309 181.186632 
L 228.370874 180.833186 
L 228.262622 180.508059 
L 228.154369 180.188755 
L 228.054596 179.899383 
L 227.901347 179.463647 
L 227.787691 179.146985 
L 227.674035 178.835582 
L 227.617289 178.682002 
L 227.498561 178.364614 
L 227.379832 178.052374 
L 227.339084 177.94636 
L 227.161559 177.491078 
L 227.034618 177.171839 
L 226.907677 176.857623 
L 226.886049 176.804573 
L 226.715473 176.390981 
L 226.51015 175.903995 
L 226.323675 175.471436 
L 226.211718 175.215975 
L 226.002177 174.746012 
L 225.823972 174.35434 
L 225.703471 174.09349 
L 225.57558 173.820047 
L 225.344062 173.333616 
L 225.282924 173.206947 
L 225.149036 172.932069 
L 225.015148 172.660566 
L 224.902536 172.434749 
L 224.722754 172.078904 
L 224.664136 171.964091 
L 224.478747 171.604782 
L 224.259282 171.186673 
L 224.196375 171.06823 
L 223.935944 170.584315 
L 223.879508 170.480783 
L 223.732596 170.213433 
L 223.44622 169.701014 
L 223.437137 169.684945 
L 223.169745 169.216809 
L 223.053717 169.016558 
L 222.893325 168.742529 
L 222.799152 168.583113 
L 222.562794 168.187704 
L 222.483478 168.056485 
L 222.228579 167.639655 
L 222.105439 167.440885 
L 222.00836 167.285347 
L 221.872477 167.069335 
L 221.578919 166.609256 
L 221.487487 166.467754 
L 221.306802 166.190567 
L 221.244932 166.096386 
L 221.064024 165.823112 
L 220.909239 165.591753 
L 220.752874 165.360279 
L 220.591178 165.123244 
L 220.320239 164.731245 
L 220.308351 164.714191 
L 220.088641 164.401172 
L 219.933327 164.182337 
L 219.768939 163.952872 
L 219.532156 163.626164 
L 219.399258 163.444728 
L 219.240682 163.230017 
L 219.0767 163.009993 
L 218.969178 162.866815 
L 218.814039 162.66173 
L 218.699215 162.511063 
L 218.548448 162.314667 
L 218.296223 161.989677 
L 218.255524 161.937651 
L 218.089656 161.726783 
L 217.84964 161.424923 
L 217.762427 161.316182 
L 217.571388 161.079715 
L 217.374979 160.83904 
L 217.302892 160.751317 
L 217.083905 160.486815 
L 216.903537 160.271168 
L 216.865575 160.226032 
L 216.598742 159.911199 
L 216.432858 159.717586 
L 216.348855 159.62015 
L 216.118777 159.355348 
L 215.981297 159.198546 
L 215.868855 159.071084 
L 215.729981 158.914621 
L 215.548017 158.711202 
L 215.381083 158.526151 
L 215.285596 158.420967 
L 215.046911 158.160135 
L 214.932611 158.036275 
L 214.822346 157.917422 
L 214.591833 157.670946 
L 214.371829 157.43818 
L 214.224148 157.283269 
L 214.130142 157.185213 
L 213.92301 156.97066 
L 213.77392 156.817491 
L 213.735658 156.778352 
L 213.525521 156.564616 
L 213.407961 156.445934 
L 213.266605 156.304069 
L 213.002814 156.041748 
L 212.884767 155.925368 
L 212.738138 155.781668 
L 212.489816 155.540451 
L 212.433845 155.486451 
L 212.286983 155.345398 
L 212.062963 155.132005 
L 211.873147 154.952843 
L 211.794651 154.879192 
L 211.701644 154.792253 
L 211.520083 154.62356 
L 211.314613 154.434265 
L 211.126294 154.262259 
L 210.973625 154.123847 
L 210.875183 154.035085 
L 210.664823 153.846675 
L 210.4573 153.662479 
L 210.388376 153.601667 
L 210.2686 153.496417 
L 210.000514 153.2628 
L 209.915273 153.189081 
L 209.814738 153.10248 
L 209.603513 152.921741 
L 209.384303 152.735884 
L 209.317735 152.679787 
L 209.110686 152.506321 
L 209.014819 152.426518 
L 208.853355 152.292844 
L 208.667252 152.139901 
L 208.441975 151.956367 
L 208.312414 151.851603 
L 208.107805 151.687315 
L 208.082598 151.667173 
L 207.934637 151.549375 
L 207.720256 151.379992 
L 207.588947 151.276996 
L 207.369976 151.106496 
L 207.166985 150.949833 
L 207.016893 150.834848 
L 206.942311 150.777981 
L 206.705371 150.598488 
L 206.591755 150.513048 
L 206.408517 150.376103 
L 206.23841 150.249907 
L 206.115808 150.159508 
L 205.964069 150.048262 
L 205.803655 149.931421 
L 205.691542 149.850224 
L 205.443523 149.67194 
L 205.295317 149.566282 
L 205.146218 149.460645 
L 205.04656 149.390401 
L 204.827697 149.237159 
L 204.681691 149.135703 
L 204.658053 149.119337 
L 204.449319 148.975504 
L 204.28897 148.86586 
L 204.087492 148.729129 
L 203.939945 148.629725 
L 203.856711 148.573919 
L 203.610485 148.409962 
L 203.479733 148.323581 
L 203.26755 148.184405 
L 203.095456 148.072429 
L 203.081339 148.063279 
L 202.859717 147.920346 
L 202.629259 147.773116 
L 202.540533 147.716812 
L 202.435972 147.650728 
L 202.299363 147.564825 
L 202.143284 147.467283 
L 201.935123 147.338186 
L 201.704564 147.196515 
L 201.671149 147.176097 
L 201.472263 147.055164 
L 201.267532 146.931735 
L 201.108538 146.836618 
L 200.94871 146.741647 
L 200.814881 146.66262 
L 200.734497 146.615368 
L 200.573346 146.521127 
L 200.353846 146.393802 
L 200.353846 200.353846 
L 200.54181 200.353563 
L 200.671675 200.353036 
L 200.788852 200.352328 
L 200.905373 200.351405 
L 201.074881 200.349674 
L 201.282408 200.346927 
L 201.460317 200.344021 
L 201.62059 200.340968 
L 201.692213 200.33947 
L 201.964758 200.333018 
L 202.036892 200.331111 
L 202.228846 200.325628 
L 202.443615 200.318791 
L 202.592925 200.313602 
L 202.651274 200.311476 
L 202.905165 200.30159 
L 203.02878 200.296401 
L 203.215144 200.288113 
L 203.380588 200.280287 
L 203.448218 200.276961 
L 203.583825 200.27007 
L 203.782973 200.259413 
L 204.01895 200.245957 
L 204.18469 200.235969 
L 204.263584 200.231059 
L 204.383072 200.223432 
L 204.625368 200.207256 
L 204.681395 200.203381 
L 204.962232 200.18319 
L 205.031578 200.178008 
L 205.183183 200.166408 
L 205.344542 200.153653 
L 205.561218 200.135862 
L 205.657962 200.127672 
L 205.893823 200.107069 
L 205.936912 200.103207 
L 206.155487 200.083155 
L 206.303997 200.069087 
L 206.495297 200.050437 
L 206.564659 200.043527 
L 206.733129 200.026419 
L 206.943032 200.004456 
L 207.125938 199.984731 
L 207.243661 199.971746 
L 207.398733 199.954296 
L 207.602467 199.930772 
L 207.65837 199.924199 
L 207.916951 199.893126 
L 208.035449 199.87852 
L 208.114061 199.868703 
L 208.270202 199.848903 
L 208.462419 199.823978 
L 208.701943 199.792067 
L 208.767582 199.783157 
L 208.900024 199.764963 
L 209.164145 199.727814 
L 209.202573 199.722313 
L 209.50982 199.67745 
L 209.635645 199.658626 
L 209.672595 199.653048 
L 209.981652 199.605506 
L 210.04043 199.596285 
L 210.201824 199.570668 
L 210.353071 199.546268 
L 210.45695 199.529288 
L 210.698137 199.48917 
L 210.781624 199.475056 
L 210.966544 199.443378 
L 211.092065 199.421549 
L 211.246899 199.394258 
L 211.493167 199.35002 
L 211.683717 199.31509 
L 211.72968 199.306573 
L 211.970605 199.261343 
L 212.140589 199.228841 
L 212.256774 199.206344 
L 212.479796 199.162517 
L 212.630283 199.132467 
L 212.794623 199.099209 
L 212.888131 199.080081 
L 212.981104 199.060913 
L 213.225552 199.009813 
L 213.289935 198.996184 
L 213.540189 198.942532 
L 213.693562 198.909119 
L 213.860043 198.872391 
L 213.952268 198.85184 
L 214.159038 198.805229 
L 214.36099 198.75899 
L 214.421848 198.744917 
L 214.644705 198.692835 
L 214.777062 198.661493 
L 214.852711 198.643443 
L 215.055089 198.594663 
L 215.240743 198.549285 
L 215.370888 198.517114 
L 215.572243 198.466754 
L 215.767736 198.417178 
L 215.837134 198.399417 
L 215.989647 198.360085 
L 216.169161 198.313262 
L 216.249953 198.292003 
L 216.504299 198.224318 
L 216.60364 198.197569 
L 216.852926 198.12967 
L 216.876825 198.123102 
L 217.180279 198.038817 
L 217.283404 198.009798 
L 217.34926 197.991166 
L 217.582093 197.924664 
L 217.698984 197.890909 
L 217.880028 197.838139 
L 218.013575 197.798832 
L 218.232056 197.733825 
L 218.426002 197.675389 
L 218.558617 197.635036 
L 218.644039 197.608872 
L 218.784965 197.565414 
L 218.948779 197.51444 
L 219.210934 197.431832 
L 219.338775 197.391086 
L 219.520689 197.332583 
L 219.658375 197.287893 
L 219.730811 197.26424 
L 219.934925 197.197061 
L 220.039832 197.16223 
L 220.189541 197.112165 
L 220.441199 197.027056 
L 220.532296 196.995952 
L 220.756768 196.918637 
L 220.915873 196.863256 
L 220.966229 196.845628 
L 221.125982 196.789383 
L 221.280932 196.73436 
L 221.557791 196.634901 
L 221.628711 196.609185 
L 221.864918 196.522836 
L 221.946802 196.492649 
L 222.051303 196.453935 
L 222.20863 196.395249 
L 222.444684 196.306289 
L 222.653537 196.226669 
L 222.66551 196.222078 
L 222.936041 196.117601 
L 223.05719 196.070344 
L 223.237711 195.999387 
L 223.359428 195.951177 
L 223.541708 195.878425 
L 223.732383 195.801609 
L 223.881603 195.740982 
L 224.037094 195.677329 
L 224.135032 195.636984 
L 224.351562 195.547094 
L 224.508253 195.481449 
L 224.665569 195.415036 
L 224.720027 195.391928 
L 224.89472 195.317386 
L 225.126641 195.217451 
L 225.315298 195.135333 
L 225.395134 195.10036 
L 225.576699 195.020326 
L 225.65528 194.985472 
L 225.827082 194.90882 
L 226.083309 194.793341 
L 226.19758 194.741391 
L 226.331802 194.680016 
L 226.516523 194.594919 
L 226.672901 194.522307 
L 226.781126 194.471745 
L 227.040233 194.349664 
L 227.201598 194.272898 
L 227.347882 194.202815 
L 227.448524 194.154326 
L 227.603177 194.07938 
L 227.731329 194.016878 
L 227.916317 193.926014 
L 228.04287 193.863414 
L 228.172694 193.798824 
L 228.304546 193.732839 
L 228.455598 193.656765 
L 228.641525 193.562419 
L 228.906636 193.426536 
L 228.947756 193.405316 
L 229.184157 193.28257 
L 229.341501 193.20016 
L 229.421935 193.157811 
L 229.705381 193.007376 
L 229.72723 192.995702 
L 229.896473 192.904897 
L 230.021988 192.837119 
L 230.211177 192.734254 
L 230.436787 192.610475 
L 230.526186 192.561091 
L 230.755624 192.433472 
L 230.864713 192.37235 
L 231.041805 192.27251 
L 231.226673 192.167472 
L 231.354657 192.094265 
L 231.507692 192.006198 
z
" clip-path="url(#pd1c536d542)" style="fill: #808080; opacity: 0.5"/>
   </g>
   <g id="matplotlib.axis_1"/>
   <g id="matplotlib.axis_2"/>
   <g id="line2d_1">
    <path d="M 169.2 192.006198 
L 172.519952 193.791314 
L 175.886271 195.348739 
L 179.397183 196.723805 
L 182.919814 197.865073 
L 186.568644 198.809767 
L 190.136387 199.510388 
L 193.869439 200.015509 
L 197.611384 200.293462 
L 200.353846 200.353846 
L 200.353846 200.353846 
" clip-path="url(#pd1c536d542)" style="fill: none; stroke: #ff0000; stroke-linecap: square"/>
   </g>
   <g id="line2d_2">
    <path d="M 200.353846 200.353846 
L 204.01895 200.245957 
L 207.65837 199.924199 
L 211.246899 199.394258 
L 214.852711 198.643443 
L 218.426002 197.675389 
L 221.946802 196.492649 
L 225.395134 195.10036 
L 228.641525 193.562419 
L 231.507692 192.006198 
L 231.507692 192.006198 
" clip-path="url(#pd1c536d542)" style="fill: none; stroke: #ff0000; stroke-linecap: square"/>
   </g>
   <g id="text_1">
    <!-- $\Omega$ -->
    <g transform="translate(16.011538 22.420913) scale(0.1 -0.1)">
     <defs>
      <path id="Cmr10-ad" d="M 494 0 
L 281 1063 
L 469 1063 
Q 503 878 531 736 
Q 559 594 604 536 
Q 650 478 750 459 
Q 850 441 1081 441 
L 1472 441 
Q 1378 803 1004 1386 
Q 631 1969 495 2233 
Q 359 2497 359 2913 
Q 359 3397 646 3761 
Q 934 4125 1389 4319 
Q 1844 4513 2309 4513 
Q 2772 4513 3226 4319 
Q 3681 4125 3968 3758 
Q 4256 3391 4256 2913 
Q 4256 2588 4137 2300 
Q 4019 2013 3834 1725 
Q 3650 1438 3436 1084 
Q 3222 731 3144 441 
L 3531 441 
Q 3766 441 3869 459 
Q 3972 478 4015 536 
Q 4059 594 4086 736 
Q 4113 878 4147 1063 
L 4331 1063 
L 4122 0 
L 2988 0 
Q 2925 0 2925 84 
Q 2925 409 3004 721 
Q 3084 1034 3240 1478 
Q 3397 1922 3484 2261 
Q 3572 2600 3572 2913 
Q 3572 3297 3422 3625 
Q 3272 3953 2984 4150 
Q 2697 4347 2309 4347 
Q 1725 4347 1384 3930 
Q 1044 3513 1044 2913 
Q 1047 2584 1122 2293 
Q 1197 2003 1364 1518 
Q 1531 1034 1611 721 
Q 1691 409 1691 84 
Q 1691 0 1625 0 
L 494 0 
z
" transform="scale(0.015625)"/>
     </defs>
     <use xlink:href="#Cmr10-ad" transform="translate(0 0.484375)"/>
    </g>
   </g>
   <g id="text_2">
    <!-- $A$ -->
    <g style="fill: #0000ff" transform="translate(149.873077 271.651683) scale(0.1 -0.1)">
     <defs>
      <path id="Cmmi10-41" d="M 288 0 
Q 225 0 225 84 
Q 250 225 306 225 
Q 566 225 755 328 
Q 944 431 1081 647 
Q 1094 659 1094 659 
L 3378 4513 
Q 3428 4581 3500 4581 
L 3584 4581 
Q 3603 4581 3622 4573 
Q 3641 4566 3655 4548 
Q 3669 4531 3669 4513 
L 4056 378 
Q 4056 350 4084 294 
Q 4147 225 4563 225 
Q 4628 225 4628 141 
Q 4606 56 4592 28 
Q 4578 0 4519 0 
L 2919 0 
Q 2859 0 2859 84 
Q 2894 225 2944 225 
Q 3450 225 3481 397 
L 3384 1453 
L 1806 1453 
L 1294 594 
Q 1247 525 1247 434 
Q 1247 322 1355 273 
Q 1463 225 1594 225 
Q 1656 225 1656 141 
Q 1634 50 1621 25 
Q 1609 0 1550 0 
L 288 0 
z
M 1931 1678 
L 3359 1678 
L 3169 3750 
L 1931 1678 
z
" transform="scale(0.015625)"/>
     </defs>
     <use xlink:href="#Cmmi10-41" transform="translate(0 0.421875)"/>
    </g>
   </g>
   <g id="text_3">
    <!-- $B$ -->
    <g style="fill: #ff0000" transform="translate(227.707692 78.497837) scale(0.1 -0.1)">
     <defs>
      <path id="Cmmi10-42" d="M 319 0 
Q 256 0 256 84 
Q 259 100 268 137 
Q 278 175 293 200 
Q 309 225 341 225 
Q 522 225 656 234 
Q 791 244 884 269 
Q 959 297 1006 441 
L 1881 3956 
Q 1894 4019 1894 4044 
Q 1894 4113 1819 4122 
Q 1697 4147 1356 4147 
Q 1294 4147 1294 4231 
Q 1297 4247 1306 4286 
Q 1316 4325 1333 4348 
Q 1350 4372 1375 4372 
L 3669 4372 
Q 3878 4372 4083 4320 
Q 4288 4269 4461 4156 
Q 4634 4044 4736 3876 
Q 4838 3709 4838 3488 
Q 4838 3247 4714 3040 
Q 4591 2834 4395 2681 
Q 4200 2528 3973 2429 
Q 3747 2331 3500 2284 
Q 3675 2284 3854 2215 
Q 4034 2147 4175 2028 
Q 4316 1909 4402 1743 
Q 4488 1578 4488 1388 
Q 4488 1003 4219 684 
Q 3950 366 3542 183 
Q 3134 0 2753 0 
L 319 0 
z
M 1497 275 
Q 1497 225 1716 225 
L 2631 225 
Q 2944 225 3231 398 
Q 3519 572 3692 859 
Q 3866 1147 3866 1459 
Q 3866 1650 3786 1820 
Q 3706 1991 3556 2089 
Q 3406 2188 3213 2188 
L 1966 2188 
L 1522 416 
Q 1497 328 1497 275 
z
M 2009 2356 
L 2981 2356 
Q 3288 2356 3577 2512 
Q 3866 2669 4048 2937 
Q 4231 3206 4231 3506 
Q 4231 3784 4057 3965 
Q 3884 4147 3609 4147 
L 2731 4147 
Q 2559 4147 2500 4115 
Q 2441 4084 2400 3928 
L 2009 2356 
z
" transform="scale(0.015625)"/>
     </defs>
     <use xlink:href="#Cmmi10-42" transform="translate(0 0.6875)"/>
    </g>
   </g>
   <g id="text_4">
    <!-- $C$ -->
    <g style="fill: #228b22" transform="translate(103.292308 78.497837) scale(0.1 -0.1)">
     <defs>
      <path id="Cmmi10-43" d="M 934 1381 
Q 934 997 1082 705 
Q 1231 413 1514 248 
Q 1797 84 2181 84 
Q 2584 84 2957 290 
Q 3331 497 3595 842 
Q 3859 1188 3956 1575 
Q 3969 1613 4006 1613 
L 4084 1613 
Q 4109 1613 4125 1595 
Q 4141 1578 4141 1556 
Q 4141 1550 4134 1538 
Q 4025 1094 3711 705 
Q 3397 316 2959 87 
Q 2522 -141 2059 -141 
Q 1559 -141 1162 84 
Q 766 309 545 709 
Q 325 1109 325 1613 
Q 325 2150 565 2676 
Q 806 3203 1212 3614 
Q 1619 4025 2139 4269 
Q 2659 4513 3194 4513 
Q 3406 4513 3600 4448 
Q 3794 4384 3959 4253 
Q 4125 4122 4231 3950 
L 4738 4500 
Q 4738 4513 4769 4513 
L 4806 4513 
Q 4831 4513 4847 4491 
Q 4863 4469 4863 4447 
L 4428 2719 
Q 4428 2675 4378 2675 
L 4263 2675 
Q 4213 2675 4213 2747 
Q 4238 2888 4238 3084 
Q 4238 3397 4131 3673 
Q 4025 3950 3801 4119 
Q 3578 4288 3256 4288 
Q 2734 4288 2300 4025 
Q 1866 3763 1564 3336 
Q 1263 2909 1098 2389 
Q 934 1869 934 1381 
z
" transform="scale(0.015625)"/>
     </defs>
     <use xlink:href="#Cmmi10-43" transform="translate(0 0.484375)"/>
    </g>
   </g>
   <g id="patch_6">
    <path d="M 169.2 262.661538 
C 185.724193 262.661538 201.573823 256.096407 213.258192 244.412038 
C 224.942561 232.727669 231.507692 216.878039 231.507692 200.353846 
C 231.507692 183.829653 224.942561 167.980023 213.258192 156.295654 
C 201.573823 144.611285 185.724193 138.046154 169.2 138.046154 
C 152.675807 138.046154 136.826177 144.611285 125.141808 156.295654 
C 113.457439 167.980023 106.892308 183.829653 106.892308 200.353846 
C 106.892308 216.878039 113.457439 232.727669 125.141808 244.412038 
C 136.826177 256.096407 152.675807 262.661538 169.2 262.661538 
L 169.2 262.661538 
z
" clip-path="url(#pd1c536d542)" style="fill: none; stroke: #0000ff; stroke-linejoin: miter"/>
   </g>
   <g id="patch_7">
    <path d="M 200.353846 200.353846 
C 216.878039 200.353846 232.727669 193.788715 244.412038 182.104346 
C 256.096407 170.419977 262.661538 154.570347 262.661538 138.046154 
C 262.661538 121.521961 256.096407 105.672331 244.412038 93.987962 
C 232.727669 82.303593 216.878039 75.738462 200.353846 75.738462 
C 183.829653 75.738462 167.980023 82.303593 156.295654 93.987962 
C 144.611285 105.672331 138.046154 121.521961 138.046154 138.046154 
C 138.046154 154.570347 144.611285 170.419977 156.295654 182.104346 
C 167.980023 193.788715 183.829653 200.353846 200.353846 200.353846 
L 200.353846 200.353846 
z
" clip-path="url(#pd1c536d542)" style="fill: none; stroke: #ff0000; stroke-linejoin: miter"/>
   </g>
   <g id="patch_8">
    <path d="M 138.046154 200.353846 
C 154.570347 200.353846 170.419977 193.788715 182.104346 182.104346 
C 193.788715 170.419977 200.353846 154.570347 200.353846 138.046154 
C 200.353846 121.521961 193.788715 105.672331 182.104346 93.987962 
C 170.419977 82.303593 154.570347 75.738462 138.046154 75.738462 
C 121.521961 75.738462 105.672331 82.303593 93.987962 93.987962 
C 82.303593 105.672331 75.738462 121.521961 75.738462 138.046154 
C 75.738462 154.570347 82.303593 170.419977 93.987962 182.104346 
C 105.672331 193.788715 121.521961 200.353846 138.046154 200.353846 
L 138.046154 200.353846 
z
" clip-path="url(#pd1c536d542)" style="fill: none; stroke: #228b22; stroke-linejoin: miter"/>
   </g>
  </g>
 </g>
 <defs>
  <clipPath id="pd1c536d542">
   <rect x="7.2" y="7.2" width="324" height="324"/>
  </clipPath>
 </defs>
</svg>
