<?xml version="1.0" encoding="utf-8" standalone="no"?>
<!DOCTYPE svg PUBLIC "-//W3C//DTD SVG 1.1//EN"
  "http://www.w3.org/Graphics/SVG/1.1/DTD/svg11.dtd">
<svg xmlns:xlink="http://www.w3.org/1999/xlink" width="338.4pt" height="338.4pt" viewBox="0 0 338.4 338.4" xmlns="http://www.w3.org/2000/svg" version="1.1">
 <metadata>
  <rdf:RDF xmlns:dc="http://purl.org/dc/elements/1.1/" xmlns:cc="http://creativecommons.org/ns#" xmlns:rdf="http://www.w3.org/1999/02/22-rdf-syntax-ns#">
   <cc:Work>
    <dc:type rdf:resource="http://purl.org/dc/dcmitype/StillImage"/>
    <dc:date>2025-08-21T01:24:50.038949</dc:date>
    <dc:format>image/svg+xml</dc:format>
    <dc:creator>
     <cc:Agent>
      <dc:title>Matplotlib v3.8.0, https://matplotlib.org/</dc:title>
     </cc:Agent>
    </dc:creator>
   </cc:Work>
  </rdf:RDF>
 </metadata>
 <defs>
  <style type="text/css">*{stroke-linejoin: round; stroke-linecap: butt}</style>
 </defs>
 <g id="figure_1">
  <g id="patch_1">
   <path d="M -0 338.4 
L 338.4 338.4 
L 338.4 0 
L -0 0 
z
" style="fill: #ffffff"/>
  </g>
  <g id="axes_1">
   <g id="patch_2">
    <path d="M 7.2 331.2 
L 331.2 331.2 
L 331.2 7.2 
L 7.2 7.2 
z
" style="fill: #ffffff"/>
   </g>
   <g id="patch_3">
    <path d="M 13.430769 324.969231 
L 13.430769 13.430769 
L 324.969231 13.430769 
L 324.969231 324.969231 
L 13.430769 324.969231 
z
" clip-path="url(#pd364a676ef)" style="fill: none; stroke: #000000; stroke-linejoin: miter"/>
   </g>
   <g id="patch_4">
    <path d="M 169.2 138.046154 
L 169.033739 138.046376 
L 168.926263 138.046755 
L 168.740075 138.047851 
L 168.64037 138.048667 
L 168.422341 138.051007 
L 168.302287 138.052621 
L 168.115099 138.0556 
L 168.002008 138.057672 
L 167.860761 138.060548 
L 167.675037 138.064818 
L 167.517436 138.068876 
L 167.267613 138.076126 
L 167.160044 138.079557 
L 166.93378 138.08738 
L 166.905126 138.08843 
L 166.722762 138.095419 
L 166.592429 138.100741 
L 166.438571 138.107376 
L 166.188768 138.11896 
L 166.090923 138.123772 
L 165.922907 138.132393 
L 165.808164 138.138543 
L 165.576114 138.151628 
L 165.492173 138.156575 
L 165.25087 138.17143 
L 165.103091 138.180991 
L 165.044633 138.184871 
L 164.872341 138.196627 
L 164.689688 138.209614 
L 164.566994 138.218641 
L 164.313879 138.238032 
L 164.168086 138.249673 
L 164.078418 138.257003 
L 163.905525 138.271505 
L 163.727767 138.286921 
L 163.603779 138.297978 
L 163.388313 138.317786 
L 163.210231 138.334727 
L 163.086607 138.346791 
L 162.994797 138.355911 
L 162.853518 138.370214 
L 162.663748 138.389938 
L 162.42867 138.415186 
L 162.367229 138.421934 
L 162.202222 138.440361 
L 161.985051 138.465293 
L 161.791905 138.488115 
L 161.661487 138.503872 
L 161.576694 138.514266 
L 161.4261 138.533016 
L 161.213262 138.560153 
L 161.08266 138.577173 
L 160.897233 138.601821 
L 160.688481 138.630248 
L 160.577275 138.645685 
L 160.465895 138.661351 
L 160.282805 138.687549 
L 160.193656 138.700506 
L 159.926696 138.740095 
L 159.818943 138.756409 
L 159.650567 138.782287 
L 159.463256 138.81163 
L 159.280388 138.840841 
L 159.15737 138.860805 
L 158.994014 138.887706 
L 158.894577 138.9043 
L 158.660137 138.944076 
L 158.514227 138.969298 
L 158.398394 138.989575 
L 158.185707 139.027393 
L 158.033707 139.054887 
L 157.94053 139.071933 
L 157.763523 139.104719 
L 157.675342 139.12125 
L 157.440968 139.165827 
L 157.323236 139.18857 
L 157.1544 139.221596 
L 156.952567 139.261712 
L 156.870645 139.278192 
L 156.631393 139.326978 
L 156.537396 139.346412 
L 156.38905 139.377391 
L 156.163628 139.425187 
L 156.1194 139.434667 
L 155.866716 139.489472 
L 155.764696 139.51191 
L 155.503297 139.570223 
L 155.481124 139.575224 
L 155.334849 139.608426 
L 155.153201 139.650173 
L 154.930576 139.702119 
L 154.849862 139.721165 
L 154.653532 139.767967 
L 154.423069 139.823764 
L 154.301302 139.85362 
L 154.112265 139.900486 
L 153.964126 139.937651 
L 153.781147 139.98409 
L 153.68925 140.007635 
L 153.568353 140.038839 
L 153.443452 140.071347 
L 153.276427 140.115251 
L 153.015162 140.184921 
L 152.970904 140.196843 
L 152.701531 140.270163 
L 152.576822 140.304546 
L 152.483152 140.330555 
L 152.23199 140.401072 
L 152.124059 140.431724 
L 151.983744 140.471887 
L 151.852248 140.509849 
L 151.610491 140.58046 
L 151.508662 140.610519 
L 151.374016 140.650556 
L 151.248442 140.688194 
L 150.999774 140.763576 
L 150.920639 140.787803 
L 150.6547 140.870064 
L 150.522143 140.911553 
L 150.430146 140.940539 
L 150.307306 140.979486 
L 150.161575 141.026054 
L 149.917446 141.10495 
L 149.790785 141.146322 
L 149.619068 141.20289 
L 149.401626 141.275314 
L 149.276663 141.317339 
L 149.147174 141.361197 
L 149.053989 141.392954 
L 148.790584 141.483614 
L 148.744646 141.49956 
L 148.589428 141.553737 
L 148.450165 141.602737 
L 148.28643 141.660822 
L 148.001031 141.763299 
L 147.957369 141.779115 
L 147.82224 141.828297 
L 147.640785 141.894897 
L 147.458674 141.96238 
L 147.312829 142.016891 
L 147.171519 142.070105 
L 147.005646 142.133067 
L 146.759632 142.227446 
L 146.626546 142.279001 
L 146.516195 142.322014 
L 146.397163 142.368683 
L 146.259624 142.422959 
L 146.054538 142.504593 
L 145.877951 142.575558 
L 145.71042 142.643464 
L 145.51355 142.723987 
L 145.421653 142.761844 
L 145.190649 142.857763 
L 145.03047 142.924913 
L 144.908425 142.97643 
L 144.791716 143.02598 
L 144.576575 143.118058 
L 144.507891 143.147655 
L 144.231343 143.267817 
L 144.202263 143.280545 
L 143.918852 143.405518 
L 143.840404 143.440408 
L 143.66508 143.518853 
L 143.469012 143.60735 
L 143.315012 143.677432 
L 143.200786 143.72974 
L 143.002176 143.821355 
L 142.893317 143.871929 
L 142.81196 143.909893 
L 142.584439 144.016821 
L 142.375488 144.116011 
L 142.246542 144.177698 
L 142.189505 144.2051 
L 142.011487 144.291084 
L 141.863635 144.363029 
L 141.635304 144.475084 
L 141.51543 144.534377 
L 141.272934 144.655305 
L 141.119583 144.732459 
L 140.956901 144.814888 
L 140.817422 144.886038 
L 140.765026 144.91288 
L 140.560416 145.018299 
L 140.433959 145.083932 
L 140.300342 145.15368 
L 140.039283 145.291145 
L 139.881756 145.374858 
L 139.737026 145.452282 
L 139.570227 145.542122 
L 139.460906 145.601359 
L 139.277852 145.701183 
L 139.084117 145.807699 
L 138.920091 145.898584 
L 138.886608 145.917215 
L 138.672387 146.037059 
L 138.569943 146.094763 
L 138.34591 146.221844 
L 138.181689 146.315777 
L 138.046154 146.393802 
L 138.046154 138.046154 
L 138.049304 138.672714 
L 138.052455 138.932233 
L 138.055605 139.131361 
L 138.058755 139.299227 
L 138.061906 139.447115 
L 138.065056 139.58081 
L 138.068207 139.703751 
L 138.071357 139.818178 
L 138.074507 139.925645 
L 138.077658 140.027286 
L 138.080808 140.123957 
L 138.083959 140.216321 
L 138.087109 140.304907 
L 138.090259 140.390143 
L 138.09656 140.55192 
L 138.102861 140.703853 
L 138.109162 140.847544 
L 138.115463 140.984203 
L 138.121763 141.114768 
L 138.128064 141.239988 
L 138.134365 141.360468 
L 138.140666 141.476708 
L 138.146967 141.589126 
L 138.154528 141.719476 
L 138.162089 141.845341 
L 138.16965 141.967153 
L 138.177211 142.085279 
L 138.192333 142.311689 
L 138.207455 142.526621 
L 138.222577 142.731656 
L 138.237699 142.92804 
L 138.252821 143.116779 
L 138.267944 143.298697 
L 138.283066 143.47448 
L 138.298188 143.644705 
L 138.31331 143.809866 
L 138.328432 143.970385 
L 138.343554 144.126631 
L 138.358676 144.278924 
L 138.373798 144.427548 
L 138.38892 144.572754 
L 138.412278 144.790827 
L 138.435635 145.001989 
L 138.458992 145.20685 
L 138.482349 145.405937 
L 138.505707 145.599706 
L 138.529064 145.788557 
L 138.552421 145.972841 
L 138.575778 146.15287 
L 138.599497 146.331613 
L 138.636383 146.602045 
L 138.67327 146.864034 
L 138.710156 147.11831 
L 138.747043 147.365504 
L 138.783929 147.606167 
L 138.820816 147.84078 
L 138.857702 148.069767 
L 138.894589 148.293506 
L 138.948958 148.614417 
L 139.003326 148.925594 
L 139.068194 149.285251 
L 139.133061 149.633387 
L 139.183892 149.8988 
L 139.234723 150.158185 
L 139.285554 150.411922 
L 139.336385 150.660351 
L 139.400478 150.966504 
L 139.464571 151.265257 
L 139.508863 151.467648 
L 139.553154 151.666887 
L 139.641737 152.056449 
L 139.692639 152.275223 
L 139.74354 152.490504 
L 139.7957 152.70765 
L 139.847861 152.921444 
L 139.952182 153.339534 
L 140.04755 153.711374 
L 140.159489 154.136146 
L 140.271428 154.549229 
L 140.334924 154.778684 
L 140.398421 155.004796 
L 140.525933 155.449296 
L 140.604695 155.717809 
L 140.683456 155.981957 
L 140.777561 156.292108 
L 140.871667 156.596596 
L 141.0152 157.05072 
L 141.115082 157.359811 
L 141.214965 157.663524 
L 141.360365 158.096532 
L 141.462307 158.394009 
L 141.583896 158.742566 
L 141.720293 159.125882 
L 141.85669 159.501484 
L 142.035741 159.983498 
L 142.071746 160.078977 
L 142.168811 160.334047 
L 142.265875 160.585812 
L 142.426198 160.994707 
L 142.529188 161.252994 
L 142.637308 161.520602 
L 142.745428 161.784702 
L 142.917639 162.198391 
L 143.046009 162.501425 
L 143.191957 162.840648 
L 143.362354 163.229847 
L 143.463798 163.458178 
L 143.580783 163.718469 
L 143.697767 163.97562 
L 143.846725 164.298654 
L 144.060584 164.754152 
L 144.229438 165.107185 
L 144.347647 165.350993 
L 144.481335 165.623517 
L 144.615348 165.893385 
L 144.733244 166.128125 
L 144.950238 166.55385 
L 145.146651 166.932382 
L 145.281552 167.188751 
L 145.361656 167.339627 
L 145.495867 167.590199 
L 145.649424 167.873569 
L 145.798528 168.145419 
L 146.073901 168.639225 
L 146.222388 168.901199 
L 146.411318 169.23032 
L 146.562234 169.489929 
L 146.592815 169.542186 
L 146.760907 169.827364 
L 146.910169 170.07773 
L 147.132862 170.446391 
L 147.302134 170.722818 
L 147.503959 171.048243 
L 147.554457 171.128974 
L 147.759107 171.453368 
L 147.906185 171.683802 
L 148.070796 171.93909 
L 148.25918 172.227936 
L 148.324165 172.326772 
L 148.507712 172.603742 
L 148.664147 172.837296 
L 148.831055 173.083998 
L 148.928803 173.227305 
L 149.157039 173.558623 
L 149.322823 173.796443 
L 149.528462 174.088197 
L 149.578846 174.159142 
L 149.80781 174.478924 
L 149.890431 174.593277 
L 150.040863 174.800096 
L 150.299433 175.151467 
L 150.465066 175.373867 
L 150.54211 175.476615 
L 150.712118 175.701796 
L 150.877148 175.918371 
L 151.044159 176.135565 
L 151.173338 176.302214 
L 151.297712 176.461571 
L 151.569907 176.806647 
L 151.599133 176.843402 
L 151.767721 177.054319 
L 152.033892 177.383547 
L 152.198958 177.585441 
L 152.335109 177.75068 
L 152.432135 177.867733 
L 152.586306 178.052536 
L 152.801058 178.307561 
L 152.937007 178.467582 
L 153.015304 178.559249 
L 153.238575 178.81869 
L 153.43601 179.045729 
L 153.598245 179.230645 
L 153.74974 179.401998 
L 153.834367 179.497168 
L 154.043372 179.730545 
L 154.248762 179.957605 
L 154.253294 179.96259 
L 154.498589 180.230794 
L 154.603951 180.345039 
L 154.792481 180.548042 
L 154.922369 180.686855 
L 155.074797 180.84868 
L 155.302352 181.088126 
L 155.427111 181.218332 
L 155.552173 181.348101 
L 155.74459 181.546301 
L 155.835964 181.639808 
L 156.014001 181.82088 
L 156.134562 181.942662 
L 156.428244 182.236538 
L 156.515229 182.322831 
L 156.625497 182.431737 
L 156.899078 182.699616 
L 156.939845 182.739252 
L 157.221307 183.010947 
L 157.307466 183.093436 
L 157.422049 183.202651 
L 157.595095 183.366544 
L 157.735743 183.498831 
L 157.972378 183.719556 
L 158.132359 183.867486 
L 158.179965 183.911307 
L 158.443717 184.15244 
L 158.608092 184.301322 
L 158.664932 184.352557 
L 158.800018 184.473817 
L 159.004371 184.655911 
L 159.187355 184.817604 
L 159.274217 184.893914 
L 159.431923 185.031734 
L 159.672495 185.240181 
L 159.756813 185.312732 
L 160.031852 185.547578 
L 160.166138 185.661242 
L 160.352145 185.817614 
L 160.506332 185.946301 
L 160.633176 186.051538 
L 160.794682 186.184715 
L 160.927787 186.29379 
L 160.984454 186.340041 
L 161.250078 186.555368 
L 161.428455 186.69862 
L 161.476593 186.737095 
L 161.734932 186.942247 
L 161.827409 187.015146 
L 161.9662 187.124022 
L 162.179224 187.289902 
L 162.365208 187.433519 
L 162.433982 187.486344 
L 162.577712 187.596252 
L 162.825351 187.784072 
L 162.94459 187.873817 
L 163.059859 187.960151 
L 163.317939 188.151943 
L 163.401507 188.213605 
L 163.549983 188.322631 
L 163.747127 188.466355 
L 163.927533 188.596843 
L 164.08024 188.706533 
L 164.199345 188.791603 
L 164.302173 188.864707 
L 164.508445 189.010414 
L 164.616628 189.086332 
L 164.867293 189.260928 
L 165.020188 189.366531 
L 165.1519 189.456965 
L 165.278884 189.543684 
L 165.443808 189.655627 
L 165.577497 189.745807 
L 165.706416 189.832292 
L 165.844069 189.924124 
L 166.086859 190.084814 
L 166.255915 190.195742 
L 166.390448 190.28346 
L 166.473232 190.33719 
L 166.735219 190.506009 
L 166.925597 190.627526 
L 167.027477 190.692157 
L 167.135624 190.760461 
L 167.387677 190.918455 
L 167.417037 190.93675 
L 167.576201 191.035535 
L 167.749424 191.142295 
L 167.893796 191.230679 
L 168.033769 191.315855 
L 168.285168 191.467577 
L 168.487084 191.588268 
L 168.498818 191.59525 
L 168.714285 191.722841 
L 168.816526 191.782975 
L 169.045691 191.916813 
L 169.2 192.006198 
z
" clip-path="url(#pd364a676ef)" style="fill: #808080; opacity: 0.5"/>
   </g>
   <g id="patch_5">
    <path d="M 169.2 192.006198 
L 168.781303 192.245777 
L 168.525621 192.389972 
L 168.416229 192.451182 
L 168.00179 192.680469 
L 167.616338 192.890048 
L 167.257284 193.082127 
L 167.051969 193.190612 
L 166.806217 193.319179 
L 166.279617 193.590011 
L 166.036072 193.713137 
L 165.78958 193.836393 
L 165.523751 193.967797 
L 165.067742 194.189562 
L 164.906741 194.266767 
L 164.463359 194.476463 
L 164.095465 194.647231 
L 163.945036 194.71622 
L 163.709086 194.823459 
L 163.099557 195.095041 
L 162.912301 195.176909 
L 162.749496 195.247495 
L 162.440261 195.380054 
L 161.94481 195.588336 
L 161.604929 195.728323 
L 161.34124 195.835318 
L 161.018979 195.96418 
L 160.70871 196.086287 
L 160.305514 196.242111 
L 160.106309 196.317915 
L 159.949036 196.377211 
L 159.465611 196.556455 
L 159.150965 196.670683 
L 158.764056 196.808532 
L 158.41179 196.931546 
L 158.096163 197.039761 
L 158.081386 197.044781 
L 157.619542 197.199607 
L 157.192421 197.339231 
L 157.051399 197.384583 
L 156.822847 197.4573 
L 156.397805 197.589965 
L 156.010781 197.707873 
L 155.687762 197.804184 
L 155.407413 197.886234 
L 155.130372 197.965917 
L 154.871213 198.039203 
L 154.342721 198.184913 
L 154.016535 198.272356 
L 153.724399 198.349065 
L 153.531082 198.398996 
L 153.289053 198.460577 
L 153.057707 198.518476 
L 152.7582 198.592039 
L 152.328751 198.694781 
L 151.878286 198.799101 
L 151.707119 198.837819 
L 151.398749 198.906295 
L 150.933232 199.006565 
L 150.588774 199.078368 
L 150.549299 199.086467 
L 150.202237 199.156531 
L 149.899307 199.21601 
L 149.332614 199.323102 
L 149.024147 199.379116 
L 148.841811 199.411472 
L 148.439566 199.480879 
L 148.169264 199.525997 
L 147.86084 199.575988 
L 147.579518 199.620203 
L 147.192102 199.678939 
L 147.104623 199.691856 
L 146.812089 199.734134 
L 146.449711 199.784543 
L 146.025778 199.840766 
L 145.746739 199.876159 
L 145.52602 199.903248 
L 144.993006 199.965374 
L 144.738171 199.993433 
L 144.450824 200.023801 
L 144.067296 200.062235 
L 143.734274 200.093666 
L 143.540237 200.111149 
L 143.078071 200.150327 
L 142.780143 200.173747 
L 142.46233 200.197147 
L 142.259941 200.211196 
L 142.030592 200.226318 
L 141.663788 200.248736 
L 141.275814 200.270087 
L 141.118548 200.27805 
L 140.796505 200.293114 
L 140.423984 200.308457 
L 140.184746 200.317134 
L 139.922114 200.325599 
L 139.425421 200.338578 
L 139.175069 200.343618 
L 138.923873 200.347664 
L 138.584548 200.35152 
L 138.308493 200.353294 
L 137.895115 200.353663 
L 137.485572 200.351324 
L 137.414489 200.350644 
L 136.896033 200.34323 
L 136.695561 200.339207 
L 136.204869 200.326634 
L 135.994909 200.320072 
L 135.672702 200.308624 
L 135.438888 200.299272 
L 135.113925 200.284812 
L 134.746604 200.26642 
L 134.429637 200.248801 
L 133.979752 200.221011 
L 133.85047 200.212421 
L 133.578016 200.193433 
L 133.120222 200.158823 
L 132.776794 200.130631 
L 132.437886 200.100935 
L 132.143357 200.073612 
L 132.073173 200.066892 
L 131.510599 200.010136 
L 131.391739 199.997484 
L 130.974192 199.951209 
L 130.611438 199.908691 
L 130.493 199.894342 
L 130.139489 199.850144 
L 129.884252 199.816955 
L 129.481893 199.762456 
L 129.149429 199.715407 
L 128.830311 199.668526 
L 128.423306 199.606282 
L 128.326653 199.591095 
L 128.021097 199.542062 
L 127.499531 199.454763 
L 127.166485 199.396633 
L 127.064433 199.378448 
L 126.471395 199.269299 
L 126.339307 199.244179 
L 125.837821 199.146114 
L 125.58164 199.094368 
L 125.507642 199.079212 
L 124.917468 198.954988 
L 124.808255 198.931345 
L 124.377852 198.83617 
L 124.049612 198.761435 
L 123.761098 198.694202 
L 123.538208 198.641269 
L 123.210585 198.561891 
L 123.011948 198.512848 
L 122.520177 198.388449 
L 122.194111 198.303612 
L 121.825878 198.205535 
L 121.56276 198.133975 
L 121.366402 198.079764 
L 120.878927 197.942187 
L 120.543766 197.845108 
L 120.451501 197.818026 
L 120.07719 197.706567 
L 119.658201 197.578764 
L 119.475307 197.521965 
L 118.970063 197.361846 
L 118.881973 197.333443 
L 118.379238 197.168577 
L 118.268482 197.131619 
L 117.938112 197.020005 
L 117.693381 196.935993 
L 117.16347 196.750174 
L 116.798238 196.618968 
L 116.498252 196.509274 
L 116.245789 196.415603 
L 116.0223 196.331644 
L 115.628811 196.181438 
L 115.42708 196.103247 
L 114.975239 195.925178 
L 114.848064 195.874323 
L 114.357662 195.675173 
L 114.209644 195.614108 
L 113.884959 195.478594 
L 113.505488 195.317475 
L 113.001898 195.099057 
L 112.84921 195.031788 
L 112.665043 194.95 
L 112.33721 194.80264 
L 112.006666 194.651751 
L 111.453052 194.393784 
L 111.372162 194.355537 
L 111.096832 194.224286 
L 110.583742 193.975256 
L 110.334888 193.852375 
L 109.955294 193.662268 
L 109.8453 193.606575 
L 109.266843 193.30916 
L 109.172293 193.259818 
L 108.690191 193.005011 
L 108.495312 192.900472 
L 108.295121 192.792154 
L 107.823841 192.533403 
L 107.439165 192.318253 
L 107.133787 192.144898 
L 106.892308 192.006198 
L 106.892308 200.353846 
L 106.901877 201.445836 
L 106.911447 201.898094 
L 106.921017 202.245083 
L 106.930587 202.537574 
L 106.940156 202.795234 
L 106.949726 203.02815 
L 106.959296 203.242314 
L 106.968865 203.441629 
L 106.978435 203.628809 
L 106.988005 203.805827 
L 106.997575 203.974175 
L 107.007144 204.135011 
L 107.026284 204.437657 
L 107.045423 204.719288 
L 107.064562 204.983741 
L 107.083702 205.233808 
L 107.102841 205.4716 
L 107.121981 205.698754 
L 107.14112 205.916575 
L 107.16026 206.126119 
L 107.179399 206.328256 
L 107.198538 206.523715 
L 107.219888 206.734615 
L 107.241237 206.938695 
L 107.283936 207.328768 
L 107.326635 207.697905 
L 107.369334 208.049118 
L 107.412032 208.38476 
L 107.454731 208.706707 
L 107.49743 209.016488 
L 107.540129 209.315363 
L 107.577967 209.571955 
L 107.615805 209.821445 
L 107.691481 210.301239 
L 107.750068 210.65697 
L 107.808655 211.000501 
L 107.867242 211.332975 
L 107.925828 211.655369 
L 107.984415 211.968523 
L 108.043002 212.273164 
L 108.101589 212.569929 
L 108.160176 212.85938 
L 108.265336 213.362124 
L 108.370497 213.845329 
L 108.475658 214.311023 
L 108.580819 214.760906 
L 108.628258 214.959072 
L 108.763782 215.5101 
L 108.899305 216.040614 
L 109.034828 216.55263 
L 109.170351 217.04785 
L 109.306827 217.531049 
L 109.443302 217.999967 
L 109.571548 218.428586 
L 109.752929 219.01649 
L 109.93431 219.584719 
L 110.073095 220.007283 
L 110.21188 220.419991 
L 110.420336 221.022653 
L 110.628791 221.606188 
L 110.807515 222.092434 
L 110.963681 222.507395 
L 111.119848 222.913643 
L 111.393262 223.605288 
L 111.666676 224.27382 
L 111.75497 224.485092 
L 111.96525 224.979684 
L 112.17553 225.462775 
L 112.394105 225.953433 
L 112.616374 226.441042 
L 112.838642 226.917842 
L 113.153905 227.5767 
L 113.52206 228.321962 
L 113.869369 229.002926 
L 113.994174 229.242689 
L 114.270571 229.764836 
L 114.558729 230.296793 
L 114.846888 230.816738 
L 114.881244 230.877956 
L 115.214691 231.463893 
L 115.476564 231.913963 
L 115.738437 232.355562 
L 116.118481 232.982067 
L 116.414398 233.458661 
L 116.563096 233.694584 
L 116.896693 234.215515 
L 117.109553 234.542058 
L 117.51482 235.151702 
L 117.97764 235.829448 
L 118.202475 236.151904 
L 118.378749 236.401716 
L 118.722383 236.881352 
L 119.169377 237.49123 
L 119.337882 237.717167 
L 119.633241 238.108117 
L 120.134665 238.75751 
L 120.241753 238.893937 
L 120.62305 239.373437 
L 120.902111 239.718328 
L 121.18592 240.064004 
L 121.701531 240.679321 
L 122.072759 241.112547 
L 122.159716 241.212875 
L 122.519823 241.623806 
L 122.713273 241.841588 
L 123.035863 242.200244 
L 123.632689 242.84936 
L 123.870508 243.102947 
L 124.119401 243.365335 
L 124.477732 243.737798 
L 124.878021 244.146662 
L 125.144875 244.415104 
L 125.324044 244.593523 
L 125.759493 245.021181 
L 125.99059 245.244774 
L 126.365616 245.602758 
L 126.734774 245.949384 
L 126.898808 246.101607 
L 127.323018 246.490241 
L 127.407145 246.566461 
L 127.831469 246.946691 
L 128.263314 247.326564 
L 128.513605 247.543525 
L 128.717576 247.71862 
L 129.124111 248.063087 
L 129.291904 248.203531 
L 129.827896 248.645522 
L 129.910688 248.712904 
L 130.3532 249.069086 
L 130.554999 249.229325 
L 130.910389 249.508238 
L 131.160427 249.701991 
L 131.764145 250.161529 
L 131.844646 250.221933 
L 132.3418 250.590502 
L 132.484496 250.694886 
L 132.768124 250.900527 
L 133.197186 251.207026 
L 133.442793 251.380023 
L 133.83985 251.655974 
L 134.279775 251.956427 
L 134.530236 252.125035 
L 134.91415 252.38008 
L 134.940561 252.397476 
L 135.392215 252.691998 
L 135.611483 252.832986 
L 136.057952 253.116079 
L 136.215334 253.214609 
L 136.536199 253.413479 
L 137.084884 253.747365 
L 137.286969 253.868395 
L 137.631627 254.072431 
L 137.739115 254.135453 
L 138.194599 254.399323 
L 138.527092 254.588717 
L 138.955263 254.828652 
L 139.069111 254.891705 
L 139.512041 255.134076 
L 139.646927 255.206963 
L 140.109368 255.453607 
L 140.46097 255.63781 
L 140.787083 255.80612 
L 141.153795 255.992492 
L 141.381999 256.106939 
L 141.705232 256.267049 
L 141.87778 256.351567 
L 142.302055 256.556596 
L 142.611428 256.703614 
L 143.02554 256.897159 
L 143.096651 256.930022 
L 143.619348 257.16827 
L 143.815302 257.256092 
L 144.033477 257.352922 
L 144.323837 257.480241 
L 144.751086 257.664396 
L 144.98869 257.765178 
L 145.512342 257.983208 
L 145.565788 258.005148 
L 146.174818 258.251079 
L 146.328165 258.311828 
L 146.812645 258.500685 
L 147.124497 258.619794 
L 147.254287 258.668803 
L 147.580734 258.790614 
L 147.993606 258.941706 
L 148.102718 258.981086 
L 148.381922 259.080809 
L 148.752456 259.210846 
L 149.058782 259.316375 
L 149.613308 259.502895 
L 149.717703 259.537363 
L 150.211337 259.697584 
L 150.289015 259.722383 
L 150.603783 259.82173 
L 151.03697 259.955464 
L 151.274147 260.027226 
L 151.629865 260.13293 
L 152.128357 260.277193 
L 152.344757 260.338422 
L 152.678438 260.431184 
L 152.901387 260.492051 
L 153.082908 260.540953 
L 153.701063 260.703092 
L 153.869805 260.746177 
L 154.295191 260.852567 
L 154.404651 260.879429 
L 154.762957 260.965894 
L 155.166439 261.060581 
L 155.467636 261.129423 
L 155.866709 261.218219 
L 156.179857 261.285976 
L 156.213059 261.293061 
L 156.756306 261.406307 
L 156.948353 261.445136 
L 157.286759 261.512028 
L 157.735319 261.5977 
L 157.848705 261.618817 
L 158.203428 261.68348 
L 158.445815 261.726446 
L 158.839865 261.794192 
L 159.030345 261.826008 
L 159.531434 261.90681 
L 159.839042 261.954341 
L 160.044322 261.985186 
L 160.373791 262.033231 
L 160.888736 262.104728 
L 161.180649 262.143316 
L 161.417254 262.173563 
L 161.65212 262.202678 
L 161.896755 262.232042 
L 162.272556 262.27524 
L 162.703808 262.321967 
L 163.001239 262.352426 
L 163.30977 262.382498 
L 163.684623 262.416952 
L 163.908682 262.436456 
L 164.28231 262.467169 
L 164.44773 262.480044 
L 164.734468 262.501312 
L 165.110001 262.527156 
L 165.322076 262.540744 
L 165.836068 262.570665 
L 166.004877 262.579562 
L 166.367807 262.597137 
L 166.677503 262.610456 
L 166.912929 262.61955 
L 167.315689 262.633039 
L 167.540325 262.63943 
L 168.085752 262.651575 
L 168.162889 262.652907 
L 168.649113 262.659103 
L 168.813868 262.660342 
L 169.2 262.661538 
z
" clip-path="url(#pd364a676ef)" style="fill: #808080; opacity: 0.5"/>
   </g>
   <g id="patch_6">
    <path d="M 200.353846 146.393802 
L 200.134816 146.267936 
L 200.008174 146.195699 
L 199.867021 146.115646 
L 199.663649 146.001159 
L 199.50745 145.913907 
L 199.401856 145.855255 
L 199.227867 145.759197 
L 199.025064 145.648142 
L 198.949383 145.606949 
L 198.862294 145.559715 
L 198.595804 145.416288 
L 198.411809 145.318233 
L 198.268176 145.242235 
L 198.209994 145.211587 
L 197.986407 145.094537 
L 197.883592 145.041098 
L 197.700643 144.94661 
L 197.493179 144.840383 
L 197.445851 144.816287 
L 197.288115 144.736346 
L 197.068993 144.626225 
L 196.928186 144.556031 
L 196.763088 144.474291 
L 196.63463 144.411111 
L 196.410742 144.30187 
L 196.351187 144.272998 
L 196.149903 144.175992 
L 196.033843 144.120463 
L 195.839433 144.028105 
L 195.60997 143.920151 
L 195.44308 143.842349 
L 195.301883 143.776994 
L 195.206588 143.733126 
L 194.971035 143.625526 
L 194.884185 143.586152 
L 194.675583 143.492232 
L 194.507721 143.417322 
L 194.350342 143.347629 
L 194.237668 143.298051 
L 194.045121 143.213944 
L 193.920864 143.160076 
L 193.731735 143.078699 
L 193.637128 143.03827 
L 193.516791 142.987112 
L 193.243013 142.871831 
L 193.222892 142.863419 
L 192.975427 142.760638 
L 192.79421 142.686162 
L 192.694164 142.645331 
L 192.470248 142.554676 
L 192.297322 142.485355 
L 192.14975 142.426672 
L 192.046169 142.385742 
L 191.881665 142.321178 
L 191.676266 142.241317 
L 191.61097 142.216105 
L 191.453221 142.155542 
L 191.334262 142.110194 
L 191.189889 142.055533 
L 190.927557 141.957256 
L 190.845929 141.926949 
L 190.688749 141.868958 
L 190.530089 141.810906 
L 190.40675 141.766115 
L 190.255802 141.711697 
L 190.067776 141.644525 
L 189.853198 141.568696 
L 189.720856 141.522367 
L 189.594065 141.478294 
L 189.472599 141.436359 
L 189.204239 141.344703 
L 189.078795 141.302326 
L 188.959751 141.262385 
L 188.814972 141.214169 
L 188.650153 141.159758 
L 188.532899 141.121359 
L 188.352172 141.062676 
L 188.198216 141.013166 
L 187.929985 140.927958 
L 187.813144 140.891258 
L 187.710773 140.85931 
L 187.575413 140.817364 
L 187.349986 140.748255 
L 187.14845 140.687259 
L 187.011012 140.646088 
L 186.890421 140.610248 
L 186.809349 140.586302 
L 186.569427 140.516136 
L 186.457542 140.483772 
L 186.249948 140.424323 
L 186.099915 140.381841 
L 185.903368 140.326802 
L 185.74863 140.283959 
L 185.621219 140.249004 
L 185.465026 140.206548 
L 185.332623 140.1709 
L 185.174926 140.128849 
L 185.006243 140.084358 
L 184.792546 140.028718 
L 184.76526 140.021672 
L 184.534131 139.962514 
L 184.377696 139.923009 
L 184.266624 139.895221 
L 184.035978 139.838209 
L 183.858085 139.794874 
L 183.681631 139.752436 
L 183.567322 139.725234 
L 183.493575 139.707806 
L 183.3409 139.672025 
L 183.116651 139.620204 
L 183.00103 139.593826 
L 182.838155 139.55706 
L 182.691218 139.524285 
L 182.431178 139.467194 
L 182.283841 139.435363 
L 182.261454 139.430559 
L 182.067914 139.389387 
L 181.878489 139.349712 
L 181.73632 139.320337 
L 181.539975 139.280337 
L 181.486399 139.269536 
L 181.246658 139.221804 
L 181.142282 139.201328 
L 180.967308 139.167418 
L 180.8618 139.147221 
L 180.698688 139.116368 
L 180.493317 139.078162 
L 180.318619 139.046222 
L 180.138379 139.013807 
L 180.073781 139.002323 
L 179.826896 138.959078 
L 179.63354 138.925923 
L 179.474278 138.899085 
L 179.356155 138.879453 
L 179.280623 138.867022 
L 179.077811 138.834115 
L 178.920407 138.809048 
L 178.827304 138.794415 
L 178.604204 138.759938 
L 178.458683 138.737896 
L 178.350257 138.721701 
L 178.056839 138.678852 
L 177.930981 138.660909 
L 177.805074 138.643221 
L 177.666975 138.624122 
L 177.481572 138.598975 
L 177.360199 138.58282 
L 177.199851 138.561849 
L 177.052326 138.542929 
L 176.943392 138.529188 
L 176.743129 138.504434 
L 176.488471 138.473908 
L 176.365615 138.459561 
L 176.216861 138.442521 
L 176.158138 138.435894 
L 175.992003 138.41745 
L 175.787211 138.395334 
L 175.54371 138.36993 
L 175.526138 138.368134 
L 175.356783 138.351084 
L 175.164424 138.332284 
L 175.033715 138.319853 
L 174.783017 138.296788 
L 174.754037 138.294188 
L 174.48224 138.270463 
L 174.297306 138.255006 
L 174.134078 138.241823 
L 174.052204 138.235374 
L 173.877385 138.221966 
L 173.772606 138.214166 
L 173.520669 138.196141 
L 173.486877 138.193801 
L 173.313664 138.182098 
L 173.107549 138.168803 
L 173.016646 138.163158 
L 172.861055 138.153804 
L 172.631922 138.140741 
L 172.47361 138.13221 
L 172.350757 138.125868 
L 172.20878 138.118842 
L 171.949058 138.106829 
L 171.90991 138.105112 
L 171.646233 138.094193 
L 171.615056 138.092975 
L 171.438614 138.086382 
L 171.294619 138.081372 
L 171.065074 138.074074 
L 170.937568 138.070386 
L 170.699577 138.064202 
L 170.686722 138.063894 
L 170.480385 138.059311 
L 170.241824 138.054864 
L 170.173023 138.053752 
L 169.999175 138.051279 
L 169.894969 138.05003 
L 169.627752 138.047622 
L 169.550027 138.047137 
L 169.333144 138.046296 
L 169.2 138.046154 
L 169.2 262.661538 
L 169.292263 262.66147 
L 169.512985 262.660752 
L 169.69949 262.659536 
L 169.87474 262.657885 
L 169.940953 262.657133 
L 170.09727 262.655077 
L 170.273308 262.652293 
L 170.509775 262.64777 
L 170.599222 262.645826 
L 170.719739 262.643002 
L 170.983504 262.636008 
L 171.015769 262.635075 
L 171.204261 262.629294 
L 171.335245 262.624941 
L 171.479323 262.619834 
L 171.668287 262.612629 
L 171.884535 262.60368 
L 172.065792 262.595599 
L 172.226995 262.587967 
L 172.39461 262.579588 
L 172.419723 262.578294 
L 172.700886 262.563108 
L 172.782144 262.558482 
L 172.965666 262.547642 
L 173.087249 262.540161 
L 173.250258 262.529757 
L 173.39299 262.520295 
L 173.616584 262.50481 
L 173.701487 262.498718 
L 173.881853 262.48539 
L 174.072608 262.470722 
L 174.168161 262.463152 
L 174.397113 262.444413 
L 174.595687 262.427472 
L 174.747192 262.414117 
L 174.836743 262.406047 
L 175.022524 262.388891 
L 175.101421 262.381435 
L 175.298476 262.362371 
L 175.418262 262.350473 
L 175.695466 262.322043 
L 175.711613 262.320349 
L 175.919603 262.298139 
L 176.065842 262.282101 
L 176.22284 262.264493 
L 176.460521 262.23707 
L 176.56389 262.224854 
L 176.751749 262.202206 
L 176.891473 262.184985 
L 177.094408 262.159403 
L 177.205505 262.145111 
L 177.417359 262.117294 
L 177.437623 262.114595 
L 177.628271 262.088867 
L 177.800056 262.065171 
L 178.039355 262.031349 
L 178.164279 262.013316 
L 178.280299 261.996337 
L 178.492007 261.96478 
L 178.557435 261.954876 
L 178.825149 261.913614 
L 178.874624 261.905858 
L 179.020564 261.882742 
L 179.155232 261.861097 
L 179.380231 261.824257 
L 179.600442 261.787382 
L 179.658328 261.777554 
L 179.811416 261.751292 
L 180.001105 261.718206 
L 180.19 261.684657 
L 180.263522 261.671438 
L 180.520875 261.624445 
L 180.578815 261.613711 
L 180.729202 261.585587 
L 180.973612 261.539062 
L 181.176202 261.49973 
L 181.305978 261.474169 
L 181.474045 261.44064 
L 181.592994 261.416619 
L 181.696229 261.395576 
L 181.933764 261.346467 
L 182.083166 261.315084 
L 182.174251 261.295764 
L 182.357032 261.256564 
L 182.505068 261.224395 
L 182.604125 261.202658 
L 182.867668 261.144005 
L 182.987345 261.116973 
L 183.073799 261.097292 
L 183.28972 261.047572 
L 183.502916 260.997684 
L 183.654953 260.961625 
L 183.73156 260.943303 
L 183.91535 260.898929 
L 184.032447 260.870348 
L 184.220158 260.824032 
L 184.366619 260.787464 
L 184.55074 260.740958 
L 184.708131 260.70073 
L 184.902654 260.650407 
L 184.943437 260.639771 
L 185.149694 260.58553 
L 185.309988 260.542855 
L 185.491733 260.493916 
L 185.621495 260.458613 
L 185.730446 260.42874 
L 185.918254 260.376746 
L 186.157487 260.309598 
L 186.327376 260.261287 
L 186.363495 260.250949 
L 186.589976 260.185587 
L 186.703516 260.15247 
L 186.814745 260.1198 
L 187.002151 260.064247 
L 187.169599 260.014068 
L 187.369182 259.953589 
L 187.554232 259.896862 
L 187.681867 259.857368 
L 187.865649 259.799974 
L 188.051053 259.74144 
L 188.118266 259.720063 
L 188.22395 259.686281 
L 188.512849 259.592874 
L 188.604732 259.562839 
L 188.796494 259.499649 
L 189.002865 259.430873 
L 189.061919 259.411045 
L 189.29764 259.331244 
L 189.355668 259.311437 
L 189.484271 259.267316 
L 189.760238 259.171574 
L 189.940314 259.108318 
L 189.969007 259.098181 
L 190.18121 259.022725 
L 190.315343 258.974583 
L 190.478626 258.915511 
L 190.579823 258.878642 
L 190.776989 258.806238 
L 190.939784 258.745886 
L 191.053487 258.703427 
L 191.33611 258.596795 
L 191.483732 258.540475 
L 191.65515 258.474538 
L 191.708765 258.453795 
L 191.869597 258.39123 
L 192.09969 258.300828 
L 192.285341 258.227118 
L 192.370413 258.19311 
L 192.449361 258.161421 
L 192.68963 258.064208 
L 192.79195 258.022455 
L 192.980055 257.945143 
L 193.189755 257.858108 
L 193.276579 257.82181 
L 193.442485 257.752021 
L 193.645831 257.665711 
L 193.847945 257.579079 
L 193.947575 257.536064 
L 194.051307 257.491059 
L 194.3188 257.373969 
L 194.470832 257.306753 
L 194.525284 257.282561 
L 194.71823 257.196334 
L 194.846339 257.138649 
L 195.068363 257.03785 
L 195.17578 256.988706 
L 195.318981 256.922807 
L 195.572226 256.80519 
L 195.694575 256.747871 
L 195.86633 256.666859 
L 196.01044 256.598391 
L 196.129329 256.541565 
L 196.286198 256.466112 
L 196.492325 256.366144 
L 196.621784 256.302879 
L 196.759 256.235418 
L 196.922728 256.154374 
L 197.026869 256.102513 
L 197.296834 255.966942 
L 197.30621 255.962204 
L 197.601016 255.812216 
L 197.655856 255.784098 
L 197.852559 255.682676 
L 198.075437 255.566686 
L 198.109583 255.548814 
L 198.37091 255.411148 
L 198.4145 255.388031 
L 198.639382 255.268064 
L 198.710604 255.229822 
L 198.99742 255.074613 
L 199.036096 255.053534 
L 199.273181 254.923547 
L 199.475976 254.811296 
L 199.53515 254.778355 
L 199.674181 254.700629 
L 199.863562 254.594002 
L 199.993895 254.520114 
L 200.173731 254.41748 
L 200.353846 254.313891 
z
" clip-path="url(#pd364a676ef)" style="fill: #808080; opacity: 0.5"/>
   </g>
   <g id="patch_7">
    <path d="M 231.507692 200.353846 
L 231.502958 199.585739 
L 231.498223 199.2676 
L 231.493488 199.023497 
L 231.488754 198.81772 
L 231.484019 198.636438 
L 231.479284 198.472555 
L 231.47455 198.321858 
L 231.469815 198.181601 
L 231.46508 198.049876 
L 231.460346 197.925295 
L 231.455611 197.806808 
L 231.450876 197.693602 
L 231.446142 197.585029 
L 231.441407 197.480564 
L 231.436673 197.379773 
L 231.431938 197.282295 
L 231.422469 197.096098 
L 231.412999 196.920009 
L 231.40353 196.752544 
L 231.394061 196.592552 
L 231.384591 196.439115 
L 231.375122 196.291493 
L 231.365653 196.149071 
L 231.356183 196.011338 
L 231.345752 195.864525 
L 231.335321 195.722386 
L 231.32489 195.584505 
L 231.314458 195.450521 
L 231.304027 195.320125 
L 231.293596 195.193042 
L 231.272733 194.947893 
L 231.251871 194.713466 
L 231.231008 194.488475 
L 231.210145 194.271873 
L 231.189283 194.062793 
L 231.172313 193.897765 
L 231.155343 193.736894 
L 231.138372 193.579886 
L 231.121402 193.426477 
L 231.104432 193.276433 
L 231.087462 193.129544 
L 231.053522 192.844497 
L 231.015803 192.540072 
L 230.978083 192.247247 
L 230.940364 191.964806 
L 230.902644 191.691734 
L 230.875391 191.499768 
L 230.848137 191.311959 
L 230.820883 191.128053 
L 230.79363 190.947821 
L 230.766376 190.771056 
L 230.739122 190.597568 
L 230.684615 190.259756 
L 230.652776 190.067698 
L 230.620937 189.879259 
L 230.561498 189.536493 
L 230.502058 189.204577 
L 230.442618 188.882568 
L 230.383179 188.569654 
L 230.317048 188.231346 
L 230.250565 187.900855 
L 230.184083 187.579258 
L 230.117601 187.265897 
L 230.051119 186.960196 
L 229.977815 186.631392 
L 229.916041 186.360602 
L 229.854267 186.095221 
L 229.779 185.778757 
L 229.703734 185.4694 
L 229.628467 185.166715 
L 229.5532 184.870313 
L 229.544342 184.835828 
L 229.434466 184.414661 
L 229.32459 184.005077 
L 229.245774 183.717934 
L 229.166958 183.436031 
L 229.046478 183.014653 
L 228.925997 182.604092 
L 228.854686 182.365879 
L 228.783375 182.131058 
L 228.713979 181.905679 
L 228.635225 181.653511 
L 228.556472 181.405026 
L 228.416748 180.97279 
L 228.312616 180.657472 
L 228.208485 180.347665 
L 228.132194 180.12404 
L 228.041731 179.862405 
L 227.951269 179.604462 
L 227.848413 179.315495 
L 227.745556 179.030939 
L 227.645255 178.757533 
L 227.544953 178.488005 
L 227.441256 178.213282 
L 227.251287 177.719877 
L 227.079387 177.283843 
L 226.997077 177.078399 
L 226.86523 176.753639 
L 226.691465 176.333438 
L 226.496724 175.872548 
L 226.309035 175.437855 
L 226.250852 175.304918 
L 226.044105 174.839218 
L 225.920772 174.566203 
L 225.797439 174.296632 
L 225.704375 174.095436 
L 225.564844 173.797249 
L 225.388237 173.425598 
L 225.224514 173.086606 
L 225.04625 172.72334 
L 224.918045 172.465712 
L 224.736327 172.105573 
L 224.623472 171.884788 
L 224.517482 171.679385 
L 224.240949 171.152092 
L 224.13975 170.96214 
L 224.056319 170.806718 
L 223.878826 170.479534 
L 223.756021 170.255854 
L 223.557721 169.89918 
L 223.352202 169.535223 
L 223.197172 169.264395 
L 223.118125 169.127507 
L 222.85742 168.681621 
L 222.75634 168.510998 
L 222.547595 168.162502 
L 222.481386 168.053034 
L 222.201504 167.595808 
L 222.17073 167.546069 
L 221.955783 167.201532 
L 221.868873 167.063632 
L 221.581939 166.613944 
L 221.454997 166.417673 
L 221.338042 166.238262 
L 221.20113 166.029933 
L 221.055237 165.809919 
L 220.863276 165.523479 
L 220.747487 165.352345 
L 220.471691 164.949578 
L 220.361686 164.790798 
L 220.268553 164.657187 
L 220.09549 164.41087 
L 219.950223 164.206047 
L 219.728989 163.897436 
L 219.63789 163.771503 
L 219.416285 163.467896 
L 219.343314 163.36876 
L 219.185448 163.155681 
L 219.028021 162.945066 
L 218.757988 162.588064 
L 218.739043 162.563215 
L 218.554001 162.321871 
L 218.338043 162.043257 
L 218.149529 161.802683 
L 218.115524 161.759546 
L 217.849013 161.42414 
L 217.738662 161.286638 
L 217.614462 161.132826 
L 217.406365 160.877335 
L 217.199572 160.626153 
L 217.148694 160.564762 
L 216.934317 160.307829 
L 216.760587 160.101653 
L 216.685911 160.013584 
L 216.555559 159.860643 
L 216.313905 159.579731 
L 216.10526 159.339883 
L 215.941894 159.153799 
L 215.922084 159.131336 
L 215.648139 158.822907 
L 215.540459 158.702791 
L 215.423882 158.573453 
L 215.222286 158.351492 
L 215.093917 158.211268 
L 214.889333 157.989552 
L 214.785976 157.878355 
L 214.676944 157.76164 
L 214.377815 157.444482 
L 214.285578 157.347577 
L 214.186423 157.243867 
L 213.949008 156.997476 
L 213.75456 156.797679 
L 213.699137 156.741057 
L 213.523003 156.562067 
L 213.348641 156.386289 
L 213.136408 156.174206 
L 213.083509 156.121661 
L 212.83126 155.87282 
L 212.691096 155.735766 
L 212.596355 155.643614 
L 212.431271 155.48397 
L 212.319629 155.376673 
L 212.05032 155.120025 
L 211.888537 154.967314 
L 211.833003 154.915145 
L 211.61463 154.711238 
L 211.521175 154.624571 
L 211.262878 154.386871 
L 211.098095 154.236624 
L 210.979747 154.12938 
L 210.812182 153.978478 
L 210.681388 153.86145 
L 210.473492 153.676792 
L 210.428106 153.6367 
L 210.228917 153.461667 
L 209.995287 153.258272 
L 209.934802 153.205947 
L 209.722808 153.023618 
L 209.555477 152.880864 
L 209.492952 152.827785 
L 209.350338 152.707242 
L 209.069289 152.471822 
L 208.956327 152.377988 
L 208.874588 152.31037 
L 208.669194 152.141491 
L 208.502103 152.005183 
L 208.296962 151.839146 
L 208.185459 151.7495 
L 208.047278 151.638987 
L 207.942257 151.555424 
L 207.7056 151.368468 
L 207.611309 151.294496 
L 207.474015 151.18731 
L 207.21632 150.987785 
L 207.155191 150.940771 
L 206.869393 150.722552 
L 206.803276 150.67244 
L 206.551627 150.482968 
L 206.44785 150.40541 
L 206.22765 150.241955 
L 206.079109 150.132538 
L 205.975819 150.056852 
L 205.8692 149.979068 
L 205.626275 149.803129 
L 205.53912 149.74044 
L 205.368123 149.618106 
L 205.240371 149.527277 
L 205.028103 149.377425 
L 204.833564 149.241248 
L 204.806493 149.222386 
L 204.608127 149.08482 
L 204.412565 148.950307 
L 204.341618 148.901779 
L 204.110357 148.744588 
L 203.888295 148.595072 
L 203.749132 148.502077 
L 203.689435 148.46235 
L 203.459334 148.310148 
L 203.28618 148.196576 
L 203.227447 148.158239 
L 203.090248 148.069053 
L 202.791858 147.876845 
L 202.635796 147.777273 
L 202.502689 147.69286 
L 202.362656 147.604564 
L 202.284729 147.555653 
L 202.115923 147.45025 
L 201.898623 147.315666 
L 201.791303 147.249651 
L 201.58272 147.122202 
L 201.501674 147.072983 
L 201.276162 146.936917 
L 201.123518 146.845552 
L 201.030824 146.790359 
L 200.845899 146.680896 
L 200.698481 146.59425 
L 200.514488 146.486868 
L 200.353846 146.393802 
L 200.353846 254.313891 
L 200.538847 254.206657 
L 200.74017 254.088995 
L 200.780643 254.065218 
L 200.927186 253.978786 
L 201.1863 253.824634 
L 201.24246 253.790999 
L 201.4821 253.646571 
L 201.534006 253.615094 
L 201.707505 253.509378 
L 201.933909 253.370256 
L 202.137634 253.243929 
L 202.155546 253.232769 
L 202.330003 253.123643 
L 202.546452 252.987131 
L 202.712323 252.881674 
L 202.816256 252.815221 
L 202.946868 252.731297 
L 203.183052 252.578368 
L 203.347206 252.471183 
L 203.474487 252.387567 
L 203.585468 252.314294 
L 203.744671 252.208588 
L 203.882483 252.116515 
L 204.094609 251.973753 
L 204.250918 251.867744 
L 204.348716 251.801065 
L 204.600859 251.627891 
L 204.794265 251.493819 
L 204.935766 251.395041 
L 205.088285 251.287916 
L 205.217674 251.196502 
L 205.345816 251.105482 
L 205.540047 250.966587 
L 205.736395 250.82503 
L 205.861697 250.734085 
L 205.966292 250.657805 
L 206.160051 250.515616 
L 206.275085 250.430653 
L 206.465543 250.289083 
L 206.634438 250.162594 
L 206.802994 250.035466 
L 206.887193 249.971626 
L 207.115973 249.797021 
L 207.312704 249.645532 
L 207.391912 249.584186 
L 207.614313 249.410844 
L 207.689478 249.351893 
L 207.912523 249.175861 
L 207.95184 249.144659 
L 208.19086 248.95386 
L 208.373773 248.806545 
L 208.435322 248.756718 
L 208.720701 248.52399 
L 208.835863 248.429276 
L 208.950523 248.334513 
L 209.183797 248.140293 
L 209.213632 248.115313 
L 209.436911 247.927363 
L 209.540015 247.839967 
L 209.717689 247.688457 
L 209.84916 247.575603 
L 210.089448 247.367691 
L 210.140548 247.323199 
L 210.43567 247.064316 
L 210.45815 247.044462 
L 210.623463 246.89786 
L 210.816062 246.725733 
L 210.980873 246.577294 
L 211.097253 246.471833 
L 211.240495 246.341293 
L 211.442818 246.155515 
L 211.656934 245.957106 
L 211.736344 245.883046 
L 212.009357 245.626437 
L 212.06897 245.569993 
L 212.258389 245.38965 
L 212.40268 245.251251 
L 212.493493 245.163689 
L 212.712667 244.95089 
L 212.871995 244.794878 
L 213.000857 244.667878 
L 213.214963 244.455224 
L 213.321349 244.34879 
L 213.449369 244.220028 
L 213.679116 243.987053 
L 213.751401 243.913245 
L 213.915047 243.74524 
L 214.069288 243.585727 
L 214.358956 243.283058 
L 214.456228 243.180501 
L 214.592177 243.036381 
L 214.83288 242.778942 
L 214.981025 242.619036 
L 215.086006 242.505038 
L 215.163516 242.420504 
L 215.331064 242.236701 
L 215.526718 242.020184 
L 215.672865 241.857115 
L 215.779225 241.737712 
L 215.974325 241.51707 
L 216.174774 241.288173 
L 216.247806 241.204212 
L 216.475888 240.940037 
L 216.629101 240.760886 
L 216.771606 240.593017 
L 216.990397 240.332921 
L 217.114023 240.184674 
L 217.195605 240.086332 
L 217.428314 239.803538 
L 217.517279 239.694526 
L 217.715496 239.44982 
L 217.950173 239.156799 
L 218.079316 238.993994 
L 218.238552 238.791704 
L 218.421599 238.557022 
L 218.511828 238.440486 
L 218.617512 238.30326 
L 218.775788 238.096259 
L 218.956972 237.857076 
L 219.186304 237.550862 
L 219.256834 237.455893 
L 219.413994 237.242914 
L 219.533721 237.079383 
L 219.77402 236.747761 
L 219.908263 236.560484 
L 220.114581 236.269775 
L 220.164776 236.198513 
L 220.439242 235.805061 
L 220.544724 235.652116 
L 220.731516 235.378857 
L 220.795979 235.283826 
L 220.96968 235.025862 
L 221.186381 234.700093 
L 221.28362 234.552458 
L 221.498075 234.223595 
L 221.715864 233.884915 
L 221.818502 233.723619 
L 221.892667 233.606385 
L 222.135849 233.217875 
L 222.22366 233.07601 
L 222.490753 232.639202 
L 222.615731 232.432005 
L 222.765022 232.182088 
L 222.835075 232.063895 
L 223.031859 231.728669 
L 223.207711 231.424985 
L 223.374172 231.133833 
L 223.540334 230.839525 
L 223.629442 230.680145 
L 223.836522 230.305456 
L 223.978555 230.044897 
L 224.222548 229.590257 
L 224.32527 229.39611 
L 224.405392 229.243519 
L 224.624337 228.82122 
L 224.759037 228.557427 
L 224.932038 228.214004 
L 225.089704 227.896349 
L 225.288925 227.488345 
L 225.46473 227.1219 
L 225.560625 226.919397 
L 225.73768 226.54047 
L 225.871734 226.249078 
L 226.010853 225.942427 
L 226.218084 225.477275 
L 226.322759 225.238358 
L 226.443361 224.959661 
L 226.563963 224.677174 
L 226.666614 224.433648 
L 226.77622 224.170382 
L 226.885827 223.903663 
L 226.945488 223.75699 
L 227.100353 223.371181 
L 227.219122 223.07014 
L 227.337891 222.764427 
L 227.381573 222.650775 
L 227.488602 222.369463 
L 227.595631 222.083981 
L 227.700917 221.79892 
L 227.808469 221.503218 
L 227.91602 221.202766 
L 228.061373 220.7888 
L 228.187862 220.420751 
L 228.300112 220.087707 
L 228.412362 219.748296 
L 228.499909 219.478942 
L 228.587456 219.205333 
L 228.675416 218.925959 
L 228.763376 218.641895 
L 228.787238 218.563996 
L 228.861479 218.319271 
L 228.935719 218.070856 
L 229.029095 217.752925 
L 229.122471 217.428565 
L 229.230942 217.0432 
L 229.339413 216.648001 
L 229.408294 216.391608 
L 229.477176 216.130747 
L 229.579334 215.735153 
L 229.638498 215.501007 
L 229.697662 215.262949 
L 229.756827 215.02079 
L 229.815991 214.774322 
L 229.903477 214.401494 
L 229.990963 214.017937 
L 230.062648 213.695007 
L 230.1123 213.466445 
L 230.161951 213.233638 
L 230.211603 212.996349 
L 230.261254 212.754321 
L 230.337509 212.37273 
L 230.375636 212.177132 
L 230.413763 211.978119 
L 230.456322 211.75172 
L 230.498881 211.52057 
L 230.54144 211.284366 
L 230.583999 211.042776 
L 230.629896 210.775766 
L 230.675793 210.501525 
L 230.72169 210.219451 
L 230.767587 209.928851 
L 230.808086 209.664714 
L 230.848585 209.39268 
L 230.889084 209.112014 
L 230.929582 208.821856 
L 230.962029 208.581865 
L 230.994476 208.334529 
L 231.028869 208.063547 
L 231.063262 207.782529 
L 231.097655 207.490287 
L 231.114852 207.33952 
L 231.132049 207.185382 
L 231.149245 207.027642 
L 231.166442 206.866036 
L 231.183638 206.70027 
L 231.200835 206.530009 
L 231.218032 206.35487 
L 231.235228 206.174412 
L 231.252425 205.988125 
L 231.269621 205.79541 
L 231.284061 205.628116 
L 231.2985 205.455298 
L 231.312939 205.276374 
L 231.327379 205.090653 
L 231.341818 204.8973 
L 231.356257 204.695296 
L 231.370697 204.483373 
L 231.385136 204.259915 
L 231.392796 204.135998 
L 231.400456 204.007864 
L 231.408115 203.875054 
L 231.415775 203.737017 
L 231.423435 203.593086 
L 231.431095 203.442435 
L 231.438754 203.284029 
L 231.446414 203.116534 
L 231.454074 202.938183 
L 231.457904 202.844214 
L 231.461734 202.746551 
L 231.465564 202.644722 
L 231.469393 202.538144 
L 231.473223 202.426085 
L 231.477053 202.307602 
L 231.480883 202.181445 
L 231.484713 202.0459 
L 231.488543 201.898497 
L 231.492373 201.735445 
L 231.496203 201.550364 
L 231.500033 201.330814 
L 231.503862 201.044677 
z
" clip-path="url(#pd364a676ef)" style="fill: #808080; opacity: 0.5"/>
   </g>
   <g id="matplotlib.axis_1"/>
   <g id="matplotlib.axis_2"/>
   <g id="line2d_1">
    <path d="M 138.046154 138.046154 
L 138.177211 142.085279 
L 138.529064 145.788557 
L 139.068194 149.285251 
L 139.847861 152.921444 
L 140.871667 156.596596 
L 142.168811 160.334047 
L 143.580783 163.718469 
L 145.281552 167.188751 
L 147.132862 170.446391 
L 149.157039 173.558623 
L 151.297712 176.461571 
L 153.74974 179.401998 
L 156.134562 181.942662 
L 158.800018 184.473817 
L 161.734932 186.942247 
L 164.616628 189.086332 
L 167.749424 191.142295 
L 169.2 192.006198 
L 169.2 192.006198 
" clip-path="url(#pd364a676ef)" style="fill: none; stroke: #ff0000; stroke-linecap: square"/>
   </g>
   <g id="line2d_2">
    <path d="M 106.892308 200.353846 
L 107.026284 204.437657 
L 107.369334 208.049118 
L 107.925828 211.655369 
L 108.628258 214.959072 
L 109.571548 218.428586 
L 110.807515 222.092434 
L 112.17553 225.462775 
L 113.869369 229.002926 
L 115.738437 232.355562 
L 117.51482 235.151702 
L 119.633241 238.108117 
L 122.159716 241.212875 
L 124.878021 244.146662 
L 127.407145 246.566461 
L 130.3532 249.069086 
L 133.197186 251.207026 
L 136.215334 253.214609 
L 139.512041 255.134076 
L 142.611428 256.703614 
L 146.174818 258.251079 
L 149.717703 259.537363 
L 153.082908 260.540953 
L 156.948353 261.445136 
L 160.373791 262.033231 
L 164.28231 262.467169 
L 167.540325 262.63943 
L 169.2 262.661538 
L 169.2 262.661538 
" clip-path="url(#pd364a676ef)" style="fill: none; stroke: #228b22; stroke-linecap: square"/>
   </g>
   <g id="line2d_3">
    <path d="M 169.2 262.661538 
L 172.965666 262.547642 
L 176.56389 262.224854 
L 180.263522 261.671438 
L 184.032447 260.870348 
L 187.681867 259.857368 
L 191.053487 258.703427 
L 194.525284 257.282561 
L 197.852559 255.682676 
L 200.353846 254.313891 
L 200.353846 254.313891 
" clip-path="url(#pd364a676ef)" style="fill: none; stroke: #228b22; stroke-linecap: square"/>
   </g>
   <g id="line2d_4">
    <path d="M 200.353846 254.313891 
L 203.585468 252.314294 
L 206.634438 250.162594 
L 209.540015 247.839967 
L 212.258389 245.38965 
L 214.83288 242.778942 
L 217.195605 240.086332 
L 219.533721 237.079383 
L 221.715864 233.884915 
L 223.629442 230.680145 
L 225.288925 227.488345 
L 226.885827 223.903663 
L 228.187862 220.420751 
L 229.230942 217.0432 
L 230.161951 213.233638 
L 230.808086 209.664714 
L 231.252425 205.988125 
L 231.480883 202.181445 
L 231.507692 200.353846 
L 231.507692 200.353846 
" clip-path="url(#pd364a676ef)" style="fill: none; stroke: #228b22; stroke-linecap: square"/>
   </g>
   <g id="text_1">
    <!-- $\Omega$ -->
    <g transform="translate(16.011538 22.420913) scale(0.1 -0.1)">
     <defs>
      <path id="Cmr10-ad" d="M 494 0 
L 281 1063 
L 469 1063 
Q 503 878 531 736 
Q 559 594 604 536 
Q 650 478 750 459 
Q 850 441 1081 441 
L 1472 441 
Q 1378 803 1004 1386 
Q 631 1969 495 2233 
Q 359 2497 359 2913 
Q 359 3397 646 3761 
Q 934 4125 1389 4319 
Q 1844 4513 2309 4513 
Q 2772 4513 3226 4319 
Q 3681 4125 3968 3758 
Q 4256 3391 4256 2913 
Q 4256 2588 4137 2300 
Q 4019 2013 3834 1725 
Q 3650 1438 3436 1084 
Q 3222 731 3144 441 
L 3531 441 
Q 3766 441 3869 459 
Q 3972 478 4015 536 
Q 4059 594 4086 736 
Q 4113 878 4147 1063 
L 4331 1063 
L 4122 0 
L 2988 0 
Q 2925 0 2925 84 
Q 2925 409 3004 721 
Q 3084 1034 3240 1478 
Q 3397 1922 3484 2261 
Q 3572 2600 3572 2913 
Q 3572 3297 3422 3625 
Q 3272 3953 2984 4150 
Q 2697 4347 2309 4347 
Q 1725 4347 1384 3930 
Q 1044 3513 1044 2913 
Q 1047 2584 1122 2293 
Q 1197 2003 1364 1518 
Q 1531 1034 1611 721 
Q 1691 409 1691 84 
Q 1691 0 1625 0 
L 494 0 
z
" transform="scale(0.015625)"/>
     </defs>
     <use xlink:href="#Cmr10-ad" transform="translate(0 0.484375)"/>
    </g>
   </g>
   <g id="text_2">
    <!-- $A$ -->
    <g style="fill: #0000ff" transform="translate(103.142308 78.497837) scale(0.1 -0.1)">
     <defs>
      <path id="Cmmi10-41" d="M 288 0 
Q 225 0 225 84 
Q 250 225 306 225 
Q 566 225 755 328 
Q 944 431 1081 647 
Q 1094 659 1094 659 
L 3378 4513 
Q 3428 4581 3500 4581 
L 3584 4581 
Q 3603 4581 3622 4573 
Q 3641 4566 3655 4548 
Q 3669 4531 3669 4513 
L 4056 378 
Q 4056 350 4084 294 
Q 4147 225 4563 225 
Q 4628 225 4628 141 
Q 4606 56 4592 28 
Q 4578 0 4519 0 
L 2919 0 
Q 2859 0 2859 84 
Q 2894 225 2944 225 
Q 3450 225 3481 397 
L 3384 1453 
L 1806 1453 
L 1294 594 
Q 1247 525 1247 434 
Q 1247 322 1355 273 
Q 1463 225 1594 225 
Q 1656 225 1656 141 
Q 1634 50 1621 25 
Q 1609 0 1550 0 
L 288 0 
z
M 1931 1678 
L 3359 1678 
L 3169 3750 
L 1931 1678 
z
" transform="scale(0.015625)"/>
     </defs>
     <use xlink:href="#Cmmi10-41" transform="translate(0 0.421875)"/>
    </g>
   </g>
   <g id="text_3">
    <!-- $B$ -->
    <g style="fill: #ff0000" transform="translate(227.707692 78.497837) scale(0.1 -0.1)">
     <defs>
      <path id="Cmmi10-42" d="M 319 0 
Q 256 0 256 84 
Q 259 100 268 137 
Q 278 175 293 200 
Q 309 225 341 225 
Q 522 225 656 234 
Q 791 244 884 269 
Q 959 297 1006 441 
L 1881 3956 
Q 1894 4019 1894 4044 
Q 1894 4113 1819 4122 
Q 1697 4147 1356 4147 
Q 1294 4147 1294 4231 
Q 1297 4247 1306 4286 
Q 1316 4325 1333 4348 
Q 1350 4372 1375 4372 
L 3669 4372 
Q 3878 4372 4083 4320 
Q 4288 4269 4461 4156 
Q 4634 4044 4736 3876 
Q 4838 3709 4838 3488 
Q 4838 3247 4714 3040 
Q 4591 2834 4395 2681 
Q 4200 2528 3973 2429 
Q 3747 2331 3500 2284 
Q 3675 2284 3854 2215 
Q 4034 2147 4175 2028 
Q 4316 1909 4402 1743 
Q 4488 1578 4488 1388 
Q 4488 1003 4219 684 
Q 3950 366 3542 183 
Q 3134 0 2753 0 
L 319 0 
z
M 1497 275 
Q 1497 225 1716 225 
L 2631 225 
Q 2944 225 3231 398 
Q 3519 572 3692 859 
Q 3866 1147 3866 1459 
Q 3866 1650 3786 1820 
Q 3706 1991 3556 2089 
Q 3406 2188 3213 2188 
L 1966 2188 
L 1522 416 
Q 1497 328 1497 275 
z
M 2009 2356 
L 2981 2356 
Q 3288 2356 3577 2512 
Q 3866 2669 4048 2937 
Q 4231 3206 4231 3506 
Q 4231 3784 4057 3965 
Q 3884 4147 3609 4147 
L 2731 4147 
Q 2559 4147 2500 4115 
Q 2441 4084 2400 3928 
L 2009 2356 
z
" transform="scale(0.015625)"/>
     </defs>
     <use xlink:href="#Cmmi10-42" transform="translate(0 0.6875)"/>
    </g>
   </g>
   <g id="text_4">
    <!-- $C$ -->
    <g style="fill: #228b22" transform="translate(150.023077 271.651683) scale(0.1 -0.1)">
     <defs>
      <path id="Cmmi10-43" d="M 934 1381 
Q 934 997 1082 705 
Q 1231 413 1514 248 
Q 1797 84 2181 84 
Q 2584 84 2957 290 
Q 3331 497 3595 842 
Q 3859 1188 3956 1575 
Q 3969 1613 4006 1613 
L 4084 1613 
Q 4109 1613 4125 1595 
Q 4141 1578 4141 1556 
Q 4141 1550 4134 1538 
Q 4025 1094 3711 705 
Q 3397 316 2959 87 
Q 2522 -141 2059 -141 
Q 1559 -141 1162 84 
Q 766 309 545 709 
Q 325 1109 325 1613 
Q 325 2150 565 2676 
Q 806 3203 1212 3614 
Q 1619 4025 2139 4269 
Q 2659 4513 3194 4513 
Q 3406 4513 3600 4448 
Q 3794 4384 3959 4253 
Q 4125 4122 4231 3950 
L 4738 4500 
Q 4738 4513 4769 4513 
L 4806 4513 
Q 4831 4513 4847 4491 
Q 4863 4469 4863 4447 
L 4428 2719 
Q 4428 2675 4378 2675 
L 4263 2675 
Q 4213 2675 4213 2747 
Q 4238 2888 4238 3084 
Q 4238 3397 4131 3673 
Q 4025 3950 3801 4119 
Q 3578 4288 3256 4288 
Q 2734 4288 2300 4025 
Q 1866 3763 1564 3336 
Q 1263 2909 1098 2389 
Q 934 1869 934 1381 
z
" transform="scale(0.015625)"/>
     </defs>
     <use xlink:href="#Cmmi10-43" transform="translate(0 0.484375)"/>
    </g>
   </g>
   <g id="patch_8">
    <path d="M 138.046154 200.353846 
C 154.570347 200.353846 170.419977 193.788715 182.104346 182.104346 
C 193.788715 170.419977 200.353846 154.570347 200.353846 138.046154 
C 200.353846 121.521961 193.788715 105.672331 182.104346 93.987962 
C 170.419977 82.303593 154.570347 75.738462 138.046154 75.738462 
C 121.521961 75.738462 105.672331 82.303593 93.987962 93.987962 
C 82.303593 105.672331 75.738462 121.521961 75.738462 138.046154 
C 75.738462 154.570347 82.303593 170.419977 93.987962 182.104346 
C 105.672331 193.788715 121.521961 200.353846 138.046154 200.353846 
L 138.046154 200.353846 
z
" clip-path="url(#pd364a676ef)" style="fill: none; stroke: #0000ff; stroke-linejoin: miter"/>
   </g>
   <g id="patch_9">
    <path d="M 200.353846 200.353846 
C 216.878039 200.353846 232.727669 193.788715 244.412038 182.104346 
C 256.096407 170.419977 262.661538 154.570347 262.661538 138.046154 
C 262.661538 121.521961 256.096407 105.672331 244.412038 93.987962 
C 232.727669 82.303593 216.878039 75.738462 200.353846 75.738462 
C 183.829653 75.738462 167.980023 82.303593 156.295654 93.987962 
C 144.611285 105.672331 138.046154 121.521961 138.046154 138.046154 
C 138.046154 154.570347 144.611285 170.419977 156.295654 182.104346 
C 167.980023 193.788715 183.829653 200.353846 200.353846 200.353846 
L 200.353846 200.353846 
z
" clip-path="url(#pd364a676ef)" style="fill: none; stroke: #ff0000; stroke-linejoin: miter"/>
   </g>
   <g id="patch_10">
    <path d="M 169.2 262.661538 
C 185.724193 262.661538 201.573823 256.096407 213.258192 244.412038 
C 224.942561 232.727669 231.507692 216.878039 231.507692 200.353846 
C 231.507692 183.829653 224.942561 167.980023 213.258192 156.295654 
C 201.573823 144.611285 185.724193 138.046154 169.2 138.046154 
C 152.675807 138.046154 136.826177 144.611285 125.141808 156.295654 
C 113.457439 167.980023 106.892308 183.829653 106.892308 200.353846 
C 106.892308 216.878039 113.457439 232.727669 125.141808 244.412038 
C 136.826177 256.096407 152.675807 262.661538 169.2 262.661538 
L 169.2 262.661538 
z
" clip-path="url(#pd364a676ef)" style="fill: none; stroke: #228b22; stroke-linejoin: miter"/>
   </g>
  </g>
 </g>
 <defs>
  <clipPath id="pd364a676ef">
   <rect x="7.2" y="7.2" width="324" height="324"/>
  </clipPath>
 </defs>
</svg>
