<?xml version="1.0" encoding="utf-8" standalone="no"?>
<!DOCTYPE svg PUBLIC "-//W3C//DTD SVG 1.1//EN"
  "http://www.w3.org/Graphics/SVG/1.1/DTD/svg11.dtd">
<svg xmlns:xlink="http://www.w3.org/1999/xlink" width="338.4pt" height="338.4pt" viewBox="0 0 338.4 338.4" xmlns="http://www.w3.org/2000/svg" version="1.1">
 <metadata>
  <rdf:RDF xmlns:dc="http://purl.org/dc/elements/1.1/" xmlns:cc="http://creativecommons.org/ns#" xmlns:rdf="http://www.w3.org/1999/02/22-rdf-syntax-ns#">
   <cc:Work>
    <dc:type rdf:resource="http://purl.org/dc/dcmitype/StillImage"/>
    <dc:date>2025-08-21T01:25:08.764908</dc:date>
    <dc:format>image/svg+xml</dc:format>
    <dc:creator>
     <cc:Agent>
      <dc:title>Matplotlib v3.8.0, https://matplotlib.org/</dc:title>
     </cc:Agent>
    </dc:creator>
   </cc:Work>
  </rdf:RDF>
 </metadata>
 <defs>
  <style type="text/css">*{stroke-linejoin: round; stroke-linecap: butt}</style>
 </defs>
 <g id="figure_1">
  <g id="patch_1">
   <path d="M -0 338.4 
L 338.4 338.4 
L 338.4 0 
L -0 0 
z
" style="fill: #ffffff"/>
  </g>
  <g id="axes_1">
   <g id="patch_2">
    <path d="M 7.2 331.2 
L 331.2 331.2 
L 331.2 7.2 
L 7.2 7.2 
z
" style="fill: #ffffff"/>
   </g>
   <g id="patch_3">
    <path d="M 13.430769 324.969231 
L 13.430769 13.430769 
L 324.969231 13.430769 
L 324.969231 324.969231 
L 13.430769 324.969231 
z
" clip-path="url(#pbf4ce50179)" style="fill: none; stroke: #000000; stroke-linejoin: miter"/>
   </g>
   <g id="patch_4">
    <path d="M 200.353846 138.046154 
L 200.349585 138.774878 
L 200.345323 139.076708 
L 200.341061 139.308298 
L 200.3368 139.503528 
L 200.332538 139.67552 
L 200.328277 139.831004 
L 200.324015 139.97398 
L 200.319754 140.107051 
L 200.315492 140.232028 
L 200.31123 140.350228 
L 200.306969 140.462646 
L 200.302707 140.570054 
L 200.298446 140.673068 
L 200.294184 140.772185 
L 200.289923 140.867816 
L 200.285661 140.960304 
L 200.277138 141.136971 
L 200.268615 141.30405 
L 200.260092 141.462947 
L 200.251568 141.614756 
L 200.243045 141.760345 
L 200.234522 141.90042 
L 200.225999 142.035562 
L 200.217476 142.166256 
L 200.203499 142.372008 
L 200.189521 142.568366 
L 200.175544 142.756504 
L 200.161567 142.937371 
L 200.147589 143.111745 
L 200.133612 143.280277 
L 200.119635 143.443512 
L 200.105658 143.601918 
L 200.082337 143.856535 
L 200.059016 144.100363 
L 200.035695 144.334658 
L 200.012374 144.560449 
L 199.989054 144.77859 
L 199.965733 144.989804 
L 199.942412 145.194703 
L 199.919091 145.393817 
L 199.889646 145.637665 
L 199.8602 145.873809 
L 199.830755 146.102928 
L 199.801309 146.325603 
L 199.771864 146.542343 
L 199.742419 146.75359 
L 199.712973 146.959735 
L 199.683528 147.161123 
L 199.637827 147.46498 
L 199.592127 147.75912 
L 199.56372 147.937439 
L 199.535314 148.112519 
L 199.478501 148.453614 
L 199.44602 148.643558 
L 199.413539 148.830059 
L 199.348576 149.193421 
L 199.283613 149.544939 
L 199.218651 149.88567 
L 199.17986 150.084364 
L 199.141069 150.279708 
L 199.063487 150.660968 
L 199.021192 150.863847 
L 198.978897 151.063427 
L 198.894306 151.453276 
L 198.816001 151.803849 
L 198.768926 152.010161 
L 198.72185 152.213313 
L 198.627699 152.610661 
L 198.572625 152.83787 
L 198.51755 153.061439 
L 198.436541 153.384003 
L 198.355533 153.699502 
L 198.293913 153.935019 
L 198.232293 154.166861 
L 198.133814 154.530135 
L 198.035335 154.884999 
L 197.935825 155.235564 
L 197.836315 155.578557 
L 197.715048 155.986934 
L 197.593377 156.38673 
L 197.463496 156.803233 
L 197.333614 157.209806 
L 197.249406 157.468395 
L 197.165198 157.723225 
L 197.068399 158.0117 
L 196.912257 158.467477 
L 196.809693 158.760763 
L 196.707129 159.049452 
L 196.555983 159.466901 
L 196.488031 159.651604 
L 196.382787 159.934181 
L 196.277543 160.212656 
L 196.091945 160.694215 
L 196.044572 160.815256 
L 195.905076 161.167434 
L 195.765581 161.513498 
L 195.727502 161.60694 
L 195.576949 161.972208 
L 195.418161 162.350501 
L 195.308681 162.607333 
L 195.1992 162.861025 
L 195.083113 163.1267 
L 194.967026 163.389058 
L 194.897355 163.544967 
L 194.758056 163.853297 
L 194.62313 164.147769 
L 194.488203 164.438266 
L 194.367731 164.694389 
L 194.224656 164.994704 
L 194.055489 165.344558 
L 193.973037 165.513085 
L 193.847565 165.767103 
L 193.600586 166.258804 
L 193.473092 166.508464 
L 193.313144 166.817812 
L 193.159325 167.111372 
L 193.044393 167.328269 
L 192.865617 167.661606 
L 192.627767 168.097711 
L 192.5168 168.29838 
L 192.318646 168.652446 
L 192.213149 168.838769 
L 191.994703 169.219902 
L 191.870872 169.433225 
L 191.678152 169.761406 
L 191.609374 169.877427 
L 191.413006 170.205564 
L 191.318495 170.36188 
L 191.101927 170.716224 
L 190.94384 170.971574 
L 190.78061 171.23238 
L 190.579329 171.550094 
L 190.526488 171.632803 
L 190.313921 171.962655 
L 190.2475 172.064795 
L 189.963055 172.497336 
L 189.820256 172.711568 
L 189.639075 172.980649 
L 189.475623 173.220836 
L 189.470028 173.229015 
L 189.261959 173.531219 
L 189.145517 173.698693 
L 189.002429 173.902904 
L 188.809391 174.175675 
L 188.592669 174.478259 
L 188.506755 174.597163 
L 188.262822 174.931581 
L 188.069437 175.193424 
L 187.950804 175.352647 
L 187.829892 175.513845 
L 187.734686 175.640014 
L 187.593888 175.825389 
L 187.313266 176.190618 
L 187.135165 176.41955 
L 187.073548 176.498242 
L 186.935498 176.673612 
L 186.687343 176.985636 
L 186.519995 177.193762 
L 186.402293 177.339058 
L 186.334615 177.4222 
L 186.075573 177.737757 
L 185.95746 177.880251 
L 185.833617 178.028736 
L 185.587781 178.320739 
L 185.444731 178.488996 
L 185.385606 178.558186 
L 185.160353 178.819929 
L 184.961022 179.049125 
L 184.927188 179.087806 
L 184.680114 179.368331 
L 184.571313 179.490792 
L 184.405204 179.676515 
L 184.284582 179.810448 
L 184.107585 180.005576 
L 183.934198 180.195126 
L 183.783504 180.358602 
L 183.555585 180.603647 
L 183.473096 180.691687 
L 183.255169 180.922644 
L 183.08791 181.098316 
L 182.995617 181.194668 
L 182.872591 181.322465 
L 182.675196 181.526001 
L 182.579598 181.62391 
L 182.333965 181.873523 
L 182.239644 181.968631 
L 182.02542 182.18313 
L 181.820979 182.385901 
L 181.716878 182.488436 
L 181.637445 182.56635 
L 181.45611 182.743181 
L 181.226183 182.965344 
L 181.023814 183.159004 
L 181.000315 183.181379 
L 180.78733 183.383118 
L 180.638122 183.523322 
L 180.440092 183.707982 
L 180.29322 183.843904 
L 180.120034 184.003059 
L 179.925734 184.18019 
L 179.857554 184.241991 
L 179.64431 184.434104 
L 179.581063 184.490743 
L 179.447558 184.609791 
L 179.219553 184.811522 
L 179.057671 184.953552 
L 178.957235 185.041174 
L 178.820048 185.16025 
L 178.582688 185.364627 
L 178.43776 185.4884 
L 178.302985 185.602816 
L 178.13999 185.740313 
L 178.024293 185.837334 
L 177.806306 186.018842 
L 177.618455 186.173916 
L 177.56303 186.219435 
L 177.306757 186.428522 
L 177.233307 186.488032 
L 176.959594 186.708179 
L 176.872717 186.777525 
L 176.772198 186.857444 
L 176.548262 187.034277 
L 176.389342 187.158764 
L 176.267933 187.253309 
L 176.137297 187.354503 
L 175.970989 187.482531 
L 175.811468 187.604499 
L 175.563814 187.792246 
L 175.393445 187.920279 
L 175.294615 187.994133 
L 175.118381 188.125077 
L 174.988234 188.22116 
L 174.846047 188.325537 
L 174.633078 188.48072 
L 174.493176 188.581914 
L 174.348765 188.685752 
L 174.245392 188.759699 
L 174.098792 188.864023 
L 173.859275 189.033102 
L 173.693704 189.148998 
L 173.621882 189.199024 
L 173.425306 189.335179 
L 173.262967 189.446782 
L 173.09967 189.558284 
L 173.009702 189.619391 
L 172.798023 189.762265 
L 172.702586 189.826268 
L 172.468159 189.982404 
L 172.286468 190.102368 
L 172.237749 190.13438 
L 171.984869 190.299499 
L 171.915797 190.344297 
L 171.692452 190.488266 
L 171.539537 190.586061 
L 171.407057 190.67028 
L 171.194761 190.804266 
L 171.014049 190.917378 
L 170.967228 190.946545 
L 170.800036 191.050227 
L 170.625134 191.157909 
L 170.519001 191.222866 
L 170.284046 191.365633 
L 170.205576 191.412998 
L 169.946852 191.568055 
L 169.785751 191.663749 
L 169.652164 191.742603 
L 169.458618 191.856056 
L 169.390244 191.895913 
L 169.2 192.006198 
L 169.2 192.006198 
L 169.3887 192.114705 
L 169.555178 192.209708 
L 169.670188 192.274944 
L 169.766669 192.329421 
L 170.025756 192.474597 
L 170.169499 192.554444 
L 170.22483 192.585047 
L 170.460534 192.714594 
L 170.616338 192.799502 
L 170.702804 192.846375 
L 170.859028 192.930616 
L 171.111614 193.065609 
L 171.158469 193.090486 
L 171.419979 193.228396 
L 171.533052 193.287537 
L 171.706613 193.377741 
L 171.814333 193.433379 
L 171.951808 193.504 
L 172.217005 193.639019 
L 172.26872 193.665163 
L 172.530386 193.796522 
L 172.696611 193.879171 
L 172.753788 193.907458 
L 173.015445 194.035977 
L 173.126082 194.089863 
L 173.311479 194.179556 
L 173.363368 194.204525 
L 173.620186 194.327234 
L 173.775879 194.400924 
L 173.869869 194.445156 
L 174.071708 194.539496 
L 174.170046 194.585142 
L 174.335724 194.661575 
L 174.459377 194.718237 
L 174.635908 194.798565 
L 174.864127 194.901433 
L 174.968883 194.948282 
L 175.122778 195.016688 
L 175.328854 195.107509 
L 175.49856 195.181636 
L 175.605994 195.228252 
L 175.707775 195.272194 
L 175.995844 195.395402 
L 176.09206 195.436173 
L 176.287835 195.518544 
L 176.420824 195.574051 
L 176.516185 195.613631 
L 176.652073 195.669712 
L 176.825282 195.740652 
L 177.031184 195.824194 
L 177.125246 195.862074 
L 177.400876 195.972052 
L 177.439977 195.98753 
L 177.576693 196.041411 
L 177.766732 196.115688 
L 178.016443 196.2122 
L 178.168173 196.270242 
L 178.307024 196.32296 
L 178.44595 196.375328 
L 178.642289 196.448695 
L 178.745265 196.486874 
L 178.82973 196.518036 
L 179.002016 196.581168 
L 179.154875 196.6367 
L 179.329772 196.699686 
L 179.558672 196.781231 
L 179.711277 196.835038 
L 179.874316 196.892032 
L 179.993105 196.933238 
L 180.128599 196.979912 
L 180.26654 197.027072 
L 180.522406 197.113594 
L 180.602974 197.140583 
L 180.744335 197.187642 
L 180.865148 197.227563 
L 181.128344 197.313587 
L 181.324403 197.376827 
L 181.402239 197.401736 
L 181.498254 197.432307 
L 181.687084 197.491932 
L 181.900196 197.558433 
L 182.049834 197.604626 
L 182.124942 197.627657 
L 182.314673 197.685375 
L 182.557654 197.758331 
L 182.661326 197.78913 
L 182.815917 197.834694 
L 182.981514 197.88302 
L 183.11112 197.920497 
L 183.324153 197.981436 
L 183.457523 198.019171 
L 183.655543 198.074607 
L 183.771431 198.106724 
L 183.896093 198.141003 
L 184.029761 198.17745 
L 184.260486 198.239611 
L 184.448389 198.289535 
L 184.601963 198.329872 
L 184.750184 198.368407 
L 184.920305 198.412157 
L 185.059867 198.447666 
L 185.180548 198.478095 
L 185.326902 198.514654 
L 185.516758 198.561518 
L 185.5918 198.579868 
L 185.798937 198.630006 
L 185.915164 198.657811 
L 186.173261 198.718714 
L 186.198388 198.724581 
L 186.435551 198.77942 
L 186.631334 198.823955 
L 186.68802 198.836726 
L 186.881575 198.879914 
L 187.005677 198.907265 
L 187.143377 198.937303 
L 187.422375 198.997163 
L 187.586243 199.0317 
L 187.741731 199.064045 
L 187.884772 199.093436 
L 187.936965 199.104074 
L 188.204056 199.157782 
L 188.247661 199.166435 
L 188.386596 199.19379 
L 188.606869 199.236489 
L 188.771944 199.267948 
L 188.982015 199.307316 
L 189.07561 199.324616 
L 189.17118 199.342128 
L 189.343516 199.373319 
L 189.608548 199.42031 
L 189.771914 199.448688 
L 189.872463 199.465932 
L 190.0103 199.489295 
L 190.220503 199.524312 
L 190.398632 199.553407 
L 190.475262 199.565761 
L 190.640313 199.592037 
L 190.805645 199.617904 
L 190.948175 199.639838 
L 191.167381 199.672912 
L 191.32285 199.695887 
L 191.482533 199.719068 
L 191.625267 199.739431 
L 191.668465 199.745527 
L 191.936071 199.782607 
L 192.056758 199.798942 
L 192.204386 199.818598 
L 192.359684 199.838887 
L 192.463697 199.852254 
L 192.724161 199.884948 
L 192.799665 199.894217 
L 192.961014 199.91371 
L 193.094169 199.929476 
L 193.341812 199.958026 
L 193.466153 199.971982 
L 193.688875 199.996349 
L 193.747061 200.002581 
L 193.860737 200.014598 
L 194.081024 200.037284 
L 194.249972 200.054147 
L 194.451487 200.073653 
L 194.487369 200.077057 
L 194.73546 200.10002 
L 194.880571 200.112987 
L 194.978069 200.121508 
L 195.251529 200.144583 
L 195.329311 200.150925 
L 195.442713 200.159995 
L 195.657478 200.176602 
L 195.791951 200.186621 
L 196.042989 200.204541 
L 196.147692 200.211713 
L 196.289448 200.221142 
L 196.403121 200.228469 
L 196.518945 200.235719 
L 196.738998 200.248898 
L 196.938753 200.260185 
L 197.089326 200.268268 
L 197.271407 200.277553 
L 197.323064 200.280091 
L 197.506916 200.288772 
L 197.694011 200.297048 
L 197.882437 200.304813 
L 198.029437 200.310475 
L 198.124108 200.313937 
L 198.385047 200.322733 
L 198.532158 200.32721 
L 198.597131 200.329077 
L 198.727498 200.332617 
L 198.969888 200.338474 
L 199.145463 200.342127 
L 199.31996 200.345268 
L 199.460458 200.347441 
L 199.647979 200.349848 
L 199.75182 200.350938 
L 199.955661 200.352574 
L 200.055138 200.35313 
L 200.260475 200.353776 
L 200.353846 200.353846 
z
" clip-path="url(#pbf4ce50179)" style="fill: #808080; opacity: 0.5"/>
   </g>
   <g id="patch_5">
    <path d="M 231.507692 200.353846 
L 231.504889 199.762836 
L 231.502086 199.51804 
L 231.499283 199.330209 
L 231.49648 199.171865 
L 231.493677 199.032366 
L 231.490874 198.906253 
L 231.488071 198.790285 
L 231.485268 198.682347 
L 231.482465 198.580974 
L 231.479662 198.485096 
L 231.476859 198.393906 
L 231.474056 198.306779 
L 231.471253 198.223215 
L 231.46845 198.14281 
L 231.462844 197.990203 
L 231.457238 197.84688 
L 231.451632 197.711331 
L 231.446026 197.582416 
L 231.440419 197.459247 
L 231.434813 197.341119 
L 231.429207 197.227462 
L 231.423601 197.117804 
L 231.417995 197.011751 
L 231.407992 196.830466 
L 231.39799 196.65809 
L 231.387987 196.493429 
L 231.377984 196.335535 
L 231.367981 196.183638 
L 231.357978 196.037107 
L 231.347976 195.895411 
L 231.337973 195.758103 
L 231.32797 195.624802 
L 231.317967 195.495177 
L 231.307964 195.368942 
L 231.297962 195.245845 
L 231.277956 195.008204 
L 231.25795 194.780759 
L 231.243811 194.625495 
L 231.229672 194.474364 
L 231.215533 194.327055 
L 231.201394 194.183294 
L 231.173115 193.905472 
L 231.144837 193.639255 
L 231.116558 193.383312 
L 231.08828 193.13655 
L 231.060001 192.898058 
L 231.031723 192.667066 
L 231.011913 192.509359 
L 230.992102 192.354809 
L 230.952482 192.054481 
L 230.921941 191.830318 
L 230.8914 191.612007 
L 230.860858 191.399122 
L 230.830317 191.191283 
L 230.799776 190.988155 
L 230.769234 190.789437 
L 230.738693 190.59486 
L 230.708152 190.404182 
L 230.661439 190.119586 
L 230.614726 189.8429 
L 230.568013 189.573515 
L 230.5213 189.310898 
L 230.484245 189.107075 
L 230.44719 188.907 
L 230.410135 188.710481 
L 230.37308 188.517341 
L 230.310767 188.199723 
L 230.248454 187.890509 
L 230.172421 187.523709 
L 230.127174 187.310532 
L 230.081926 187.100938 
L 230.036679 186.89476 
L 229.991432 186.691842 
L 229.917735 186.367956 
L 229.844039 186.051782 
L 229.773239 185.75483 
L 229.702438 185.464136 
L 229.648812 185.2479 
L 229.595186 185.034904 
L 229.487934 184.618106 
L 229.38751 184.238259 
L 229.273663 183.818929 
L 229.159817 183.410738 
L 229.075562 183.115353 
L 228.955834 182.704801 
L 228.836107 182.304378 
L 228.736497 181.97848 
L 228.636887 181.658793 
L 228.552171 181.391559 
L 228.467455 181.128412 
L 228.446175 181.062936 
L 228.339337 180.737849 
L 228.232498 180.418634 
L 228.078215 179.96747 
L 227.981303 179.689699 
L 227.865388 179.362877 
L 227.749473 179.041696 
L 227.607498 178.655627 
L 227.487837 178.336203 
L 227.368176 178.021989 
L 227.356009 177.990325 
L 227.224816 177.652101 
L 227.093623 177.319591 
L 226.917322 176.881325 
L 226.786738 176.562752 
L 226.688117 176.325427 
L 226.570107 176.045014 
L 226.452097 175.768366 
L 226.26451 175.336048 
L 226.22826 175.253525 
L 226.066931 174.890133 
L 225.90412 174.529608 
L 225.719428 174.127852 
L 225.533889 173.731648 
L 225.394957 173.439625 
L 225.26872 173.177623 
L 225.030771 172.692077 
L 224.896553 172.422815 
L 224.698811 172.031938 
L 224.650216 171.936914 
L 224.478689 171.604672 
L 224.346783 171.352452 
L 224.083606 170.857435 
L 224.022295 170.743636 
L 223.861449 170.447752 
L 223.61307 169.998183 
L 223.561274 169.905523 
L 223.349504 169.530482 
L 223.161019 169.201689 
L 222.983047 168.895423 
L 222.920439 168.788628 
L 222.780371 168.551451 
L 222.548899 168.164663 
L 222.472588 168.038527 
L 222.199661 167.592826 
L 222.161938 167.531878 
L 221.902505 167.116901 
L 221.815691 166.979641 
L 221.621057 166.674753 
L 221.515667 166.511276 
L 221.328479 166.223651 
L 221.231124 166.075418 
L 221.0937 165.867727 
L 220.808053 165.441708 
L 220.745024 165.348717 
L 220.58474 165.113855 
L 220.3188 164.72918 
L 220.279172 164.672385 
L 220.11335 164.436171 
L 219.904994 164.142631 
L 219.70537 163.864722 
L 219.652667 163.791886 
L 219.3898 163.431868 
L 219.363039 163.395518 
L 219.133294 163.085701 
L 218.917054 162.797714 
L 218.817269 162.665981 
L 218.708583 162.52332 
L 218.489 162.237668 
L 218.373704 162.08904 
L 218.236445 161.9133 
L 218.111839 161.754875 
L 217.83631 161.408271 
L 217.724897 161.269541 
L 217.498398 160.989989 
L 217.454322 160.93597 
L 217.251112 160.688507 
L 217.047413 160.443026 
L 216.958805 160.337036 
L 216.834723 160.189414 
L 216.697149 160.026816 
L 216.449219 159.736611 
L 216.344753 159.615403 
L 216.180065 159.425592 
L 215.950452 159.16351 
L 215.832417 159.029928 
L 215.631765 158.804601 
L 215.537113 158.699069 
L 215.442398 158.593947 
L 215.237133 158.367766 
L 215.076576 158.192391 
L 214.909974 158.011825 
L 214.742601 157.831852 
L 214.572102 157.649972 
L 214.440863 157.51096 
L 214.259253 157.319996 
L 214.173737 157.230633 
L 213.983583 157.03319 
L 213.824368 156.869202 
L 213.629471 156.670089 
L 213.511915 156.550847 
L 213.371475 156.40923 
L 213.125878 156.163737 
L 213.098806 156.136843 
L 212.935591 155.975398 
L 212.716876 155.760909 
L 212.608244 155.655156 
L 212.477976 155.529017 
L 212.188512 155.251337 
L 212.105074 155.171957 
L 211.923948 155.000646 
L 211.731483 154.820106 
L 211.636504 154.731575 
L 211.45381 154.562318 
L 211.388876 154.502485 
L 211.105841 154.243662 
L 211.016126 154.162287 
L 210.884542 154.043507 
L 210.675221 153.855948 
L 210.487771 153.689422 
L 210.444124 153.650841 
L 210.142365 153.386078 
L 209.992616 153.255958 
L 209.899441 153.175419 
L 209.751091 153.047848 
L 209.589274 152.909615 
L 209.367926 152.722069 
L 209.24175 152.61595 
L 209.144022 152.534147 
L 209.004905 152.418284 
L 208.807032 152.254662 
L 208.712174 152.176708 
L 208.439448 151.954319 
L 208.287324 151.831381 
L 208.106099 151.685951 
L 208.061835 151.650599 
L 207.811099 151.451581 
L 207.653749 151.327754 
L 207.503131 151.209989 
L 207.450927 151.169346 
L 207.240981 151.006787 
L 207.099394 150.897962 
L 206.896834 150.743391 
L 206.764695 150.643261 
L 206.580361 150.504502 
L 206.389143 150.361685 
L 206.229152 150.243065 
L 206.169481 150.199026 
L 205.955254 150.041821 
L 205.888548 149.993158 
L 205.709454 149.863171 
L 205.478594 149.697039 
L 205.430412 149.662567 
L 205.276225 149.552719 
L 204.976079 149.3409 
L 204.818345 149.230642 
L 204.810412 149.225116 
L 204.554713 149.047971 
L 204.426737 148.960019 
L 204.326339 148.891347 
L 204.162156 148.779665 
L 204.010442 148.677143 
L 203.818383 148.548286 
L 203.666613 148.447189 
L 203.519576 148.349854 
L 203.273291 148.188155 
L 203.205983 148.144252 
L 202.994971 148.007418 
L 202.866483 147.92469 
L 202.739205 147.843178 
L 202.482167 147.679888 
L 202.372876 147.61099 
L 202.269724 147.546253 
L 202.111847 147.447714 
L 201.882947 147.306004 
L 201.701289 147.194513 
L 201.667922 147.174126 
L 201.483292 147.061843 
L 201.3117 146.958273 
L 201.155245 146.864493 
L 201.057473 146.806205 
L 200.790642 146.648354 
L 200.661891 146.572828 
L 200.491995 146.473798 
L 200.353846 146.393802 
L 200.353846 200.353846 
L 200.550855 200.353535 
L 200.723036 200.352752 
L 200.856956 200.351815 
L 201.022656 200.350257 
L 201.139106 200.348898 
L 201.287652 200.346848 
L 201.391247 200.345209 
L 201.565082 200.342072 
L 201.701048 200.33928 
L 201.855359 200.335752 
L 202.067652 200.330272 
L 202.234136 200.325468 
L 202.431166 200.319208 
L 202.586629 200.313828 
L 202.765909 200.307141 
L 202.898598 200.301858 
L 203.050842 200.295449 
L 203.151694 200.290998 
L 203.367735 200.280911 
L 203.523888 200.273152 
L 203.58345 200.27009 
L 203.851995 200.25557 
L 203.8891 200.253473 
L 204.098799 200.241201 
L 204.309404 200.228162 
L 204.40063 200.222291 
L 204.63845 200.206356 
L 204.783624 200.196179 
L 204.9044 200.187452 
L 205.0905 200.173544 
L 205.13427 200.170192 
L 205.424035 200.147214 
L 205.456301 200.144572 
L 205.612614 200.13153 
L 205.782569 200.1169 
L 206.017741 200.095882 
L 206.186002 200.080293 
L 206.378279 200.061916 
L 206.536492 200.046343 
L 206.604233 200.03955 
L 206.82372 200.017028 
L 206.891336 200.009932 
L 207.099684 199.987596 
L 207.302045 199.965222 
L 207.333498 199.961685 
L 207.630411 199.927493 
L 207.777038 199.910075 
L 207.796957 199.907682 
L 208.098772 199.87062 
L 208.218006 199.855567 
L 208.319248 199.842601 
L 208.452032 199.825341 
L 208.683996 199.794491 
L 208.742263 199.786602 
L 208.972191 199.754927 
L 209.172228 199.726659 
L 209.199323 199.722779 
L 209.453988 199.685719 
L 209.651837 199.656185 
L 209.707178 199.647807 
L 209.955375 199.60961 
L 210.034873 199.597159 
L 210.230762 199.566029 
L 210.425357 199.534471 
L 210.537619 199.515978 
L 210.630353 199.500543 
L 210.789188 199.473771 
L 211.048312 199.429188 
L 211.117537 199.417087 
L 211.365882 199.373012 
L 211.451495 199.357578 
L 211.608186 199.329009 
L 211.846377 199.284787 
L 211.927048 199.269593 
L 212.078488 199.240772 
L 212.204014 199.216588 
L 212.341542 199.189785 
L 212.569414 199.144668 
L 212.766594 199.104914 
L 212.849906 199.087918 
L 213.082672 199.039805 
L 213.121813 199.031624 
L 213.363289 198.980569 
L 213.436415 198.96491 
L 213.69936 198.907848 
L 213.747413 198.897291 
L 214.002356 198.840617 
L 214.101954 198.818171 
L 214.282653 198.77701 
L 214.497647 198.727299 
L 214.564409 198.711699 
L 214.743458 198.669479 
L 214.946982 198.620809 
L 215.126172 198.57736 
L 215.175524 198.565295 
L 215.322401 198.529134 
L 215.585187 198.463492 
L 215.632443 198.451559 
L 215.795663 198.41004 
L 215.990742 198.359801 
L 216.191614 198.307365 
L 216.366032 198.261255 
L 216.418027 198.247405 
L 216.629038 198.190702 
L 216.721861 198.165507 
L 216.925593 198.109668 
L 217.065881 198.070786 
L 217.197774 198.033908 
L 217.409599 197.974026 
L 217.503244 197.947295 
L 217.771085 197.869964 
L 217.830937 197.852506 
L 218.039374 197.791201 
L 218.167811 197.753031 
L 218.307685 197.71112 
L 218.506952 197.650795 
L 218.606345 197.620434 
L 218.881901 197.53531 
L 218.941785 197.516626 
L 219.078339 197.473773 
L 219.244412 197.421191 
L 219.461248 197.351767 
L 219.640684 197.293655 
L 219.705126 197.272639 
L 219.876137 197.21649 
L 220.118937 197.135829 
L 220.220315 197.101822 
L 220.445983 197.025426 
L 220.483516 197.012627 
L 220.713984 196.933447 
L 220.919928 196.861839 
L 220.983964 196.839408 
L 221.208736 196.760054 
L 221.349195 196.709974 
L 221.466729 196.667777 
L 221.662925 196.596745 
L 221.874309 196.51938 
L 221.912925 196.505154 
L 222.084116 196.441735 
L 222.213512 196.393421 
L 222.388977 196.327382 
L 222.635395 196.233619 
L 222.77616 196.179521 
L 222.835296 196.156677 
L 223.054749 196.071299 
L 223.257941 195.991395 
L 223.423992 195.925484 
L 223.480804 195.902807 
L 223.740564 195.798296 
L 223.873097 195.74445 
L 223.951427 195.712459 
L 224.189418 195.614496 
L 224.34363 195.550404 
L 224.436917 195.511397 
L 224.685879 195.406425 
L 224.781817 195.365633 
L 224.960712 195.289063 
L 225.153824 195.205664 
L 225.18897 195.190402 
L 225.433512 195.0835 
L 225.579573 195.019053 
L 225.735447 194.949782 
L 225.914963 194.86937 
L 226.042977 194.811611 
L 226.259563 194.713096 
L 226.416539 194.64107 
L 226.569848 194.570218 
L 226.679494 194.519234 
L 226.798254 194.46372 
L 226.947569 194.393491 
L 227.09799 194.322252 
L 227.263444 194.243325 
L 227.418902 194.16862 
L 227.531238 194.114308 
L 227.7212 194.021831 
L 227.838991 193.964088 
L 228.043601 193.863051 
L 228.146329 193.811971 
L 228.45275 193.658204 
L 228.480009 193.644422 
L 228.622618 193.572049 
L 228.884391 193.437999 
L 229.008245 193.374031 
L 229.209484 193.269343 
L 229.324966 193.208847 
L 229.458843 193.138328 
L 229.668198 193.027217 
L 229.833039 192.939011 
L 229.973637 192.863273 
L 230.061678 192.815609 
L 230.244389 192.716109 
L 230.412558 192.623827 
L 230.555292 192.544972 
L 230.679377 192.476024 
L 230.911279 192.346171 
L 230.97204 192.311932 
L 231.244141 192.157504 
L 231.406404 192.06455 
L 231.507692 192.006198 
z
" clip-path="url(#pbf4ce50179)" style="fill: #808080; opacity: 0.5"/>
   </g>
   <g id="matplotlib.axis_1"/>
   <g id="matplotlib.axis_2"/>
   <g id="line2d_1">
    <path d="M 169.2 192.006198 
L 172.530386 193.796522 
L 175.707775 195.272194 
L 179.154875 196.6367 
L 182.661326 197.78913 
L 186.198388 198.724581 
L 189.872463 199.465932 
L 193.466153 199.971982 
L 197.271407 200.277553 
L 200.353846 200.353846 
L 200.353846 200.353846 
" clip-path="url(#pbf4ce50179)" style="fill: none; stroke: #0000ff; stroke-linecap: square"/>
   </g>
   <g id="line2d_2">
    <path d="M 200.353846 200.353846 
L 204.098799 200.241201 
L 207.796957 199.907682 
L 211.608186 199.329009 
L 215.322401 198.529134 
L 218.941785 197.516626 
L 222.388977 196.327382 
L 225.914963 194.86937 
L 229.209484 193.269343 
L 231.507692 192.006198 
L 231.507692 192.006198 
" clip-path="url(#pbf4ce50179)" style="fill: none; stroke: #0000ff; stroke-linecap: square"/>
   </g>
   <g id="text_1">
    <!-- $\Omega$ -->
    <g transform="translate(16.011538 22.420913) scale(0.1 -0.1)">
     <defs>
      <path id="Cmr10-ad" d="M 494 0 
L 281 1063 
L 469 1063 
Q 503 878 531 736 
Q 559 594 604 536 
Q 650 478 750 459 
Q 850 441 1081 441 
L 1472 441 
Q 1378 803 1004 1386 
Q 631 1969 495 2233 
Q 359 2497 359 2913 
Q 359 3397 646 3761 
Q 934 4125 1389 4319 
Q 1844 4513 2309 4513 
Q 2772 4513 3226 4319 
Q 3681 4125 3968 3758 
Q 4256 3391 4256 2913 
Q 4256 2588 4137 2300 
Q 4019 2013 3834 1725 
Q 3650 1438 3436 1084 
Q 3222 731 3144 441 
L 3531 441 
Q 3766 441 3869 459 
Q 3972 478 4015 536 
Q 4059 594 4086 736 
Q 4113 878 4147 1063 
L 4331 1063 
L 4122 0 
L 2988 0 
Q 2925 0 2925 84 
Q 2925 409 3004 721 
Q 3084 1034 3240 1478 
Q 3397 1922 3484 2261 
Q 3572 2600 3572 2913 
Q 3572 3297 3422 3625 
Q 3272 3953 2984 4150 
Q 2697 4347 2309 4347 
Q 1725 4347 1384 3930 
Q 1044 3513 1044 2913 
Q 1047 2584 1122 2293 
Q 1197 2003 1364 1518 
Q 1531 1034 1611 721 
Q 1691 409 1691 84 
Q 1691 0 1625 0 
L 494 0 
z
" transform="scale(0.015625)"/>
     </defs>
     <use xlink:href="#Cmr10-ad" transform="translate(0 0.484375)"/>
    </g>
   </g>
   <g id="text_2">
    <!-- $A$ -->
    <g style="fill: #0000ff" transform="translate(227.757692 78.497837) scale(0.1 -0.1)">
     <defs>
      <path id="Cmmi10-41" d="M 288 0 
Q 225 0 225 84 
Q 250 225 306 225 
Q 566 225 755 328 
Q 944 431 1081 647 
Q 1094 659 1094 659 
L 3378 4513 
Q 3428 4581 3500 4581 
L 3584 4581 
Q 3603 4581 3622 4573 
Q 3641 4566 3655 4548 
Q 3669 4531 3669 4513 
L 4056 378 
Q 4056 350 4084 294 
Q 4147 225 4563 225 
Q 4628 225 4628 141 
Q 4606 56 4592 28 
Q 4578 0 4519 0 
L 2919 0 
Q 2859 0 2859 84 
Q 2894 225 2944 225 
Q 3450 225 3481 397 
L 3384 1453 
L 1806 1453 
L 1294 594 
Q 1247 525 1247 434 
Q 1247 322 1355 273 
Q 1463 225 1594 225 
Q 1656 225 1656 141 
Q 1634 50 1621 25 
Q 1609 0 1550 0 
L 288 0 
z
M 1931 1678 
L 3359 1678 
L 3169 3750 
L 1931 1678 
z
" transform="scale(0.015625)"/>
     </defs>
     <use xlink:href="#Cmmi10-41" transform="translate(0 0.421875)"/>
    </g>
   </g>
   <g id="text_3">
    <!-- $B$ -->
    <g style="fill: #ff0000" transform="translate(103.092308 78.497837) scale(0.1 -0.1)">
     <defs>
      <path id="Cmmi10-42" d="M 319 0 
Q 256 0 256 84 
Q 259 100 268 137 
Q 278 175 293 200 
Q 309 225 341 225 
Q 522 225 656 234 
Q 791 244 884 269 
Q 959 297 1006 441 
L 1881 3956 
Q 1894 4019 1894 4044 
Q 1894 4113 1819 4122 
Q 1697 4147 1356 4147 
Q 1294 4147 1294 4231 
Q 1297 4247 1306 4286 
Q 1316 4325 1333 4348 
Q 1350 4372 1375 4372 
L 3669 4372 
Q 3878 4372 4083 4320 
Q 4288 4269 4461 4156 
Q 4634 4044 4736 3876 
Q 4838 3709 4838 3488 
Q 4838 3247 4714 3040 
Q 4591 2834 4395 2681 
Q 4200 2528 3973 2429 
Q 3747 2331 3500 2284 
Q 3675 2284 3854 2215 
Q 4034 2147 4175 2028 
Q 4316 1909 4402 1743 
Q 4488 1578 4488 1388 
Q 4488 1003 4219 684 
Q 3950 366 3542 183 
Q 3134 0 2753 0 
L 319 0 
z
M 1497 275 
Q 1497 225 1716 225 
L 2631 225 
Q 2944 225 3231 398 
Q 3519 572 3692 859 
Q 3866 1147 3866 1459 
Q 3866 1650 3786 1820 
Q 3706 1991 3556 2089 
Q 3406 2188 3213 2188 
L 1966 2188 
L 1522 416 
Q 1497 328 1497 275 
z
M 2009 2356 
L 2981 2356 
Q 3288 2356 3577 2512 
Q 3866 2669 4048 2937 
Q 4231 3206 4231 3506 
Q 4231 3784 4057 3965 
Q 3884 4147 3609 4147 
L 2731 4147 
Q 2559 4147 2500 4115 
Q 2441 4084 2400 3928 
L 2009 2356 
z
" transform="scale(0.015625)"/>
     </defs>
     <use xlink:href="#Cmmi10-42" transform="translate(0 0.6875)"/>
    </g>
   </g>
   <g id="text_4">
    <!-- $C$ -->
    <g style="fill: #228b22" transform="translate(150.023077 271.651683) scale(0.1 -0.1)">
     <defs>
      <path id="Cmmi10-43" d="M 934 1381 
Q 934 997 1082 705 
Q 1231 413 1514 248 
Q 1797 84 2181 84 
Q 2584 84 2957 290 
Q 3331 497 3595 842 
Q 3859 1188 3956 1575 
Q 3969 1613 4006 1613 
L 4084 1613 
Q 4109 1613 4125 1595 
Q 4141 1578 4141 1556 
Q 4141 1550 4134 1538 
Q 4025 1094 3711 705 
Q 3397 316 2959 87 
Q 2522 -141 2059 -141 
Q 1559 -141 1162 84 
Q 766 309 545 709 
Q 325 1109 325 1613 
Q 325 2150 565 2676 
Q 806 3203 1212 3614 
Q 1619 4025 2139 4269 
Q 2659 4513 3194 4513 
Q 3406 4513 3600 4448 
Q 3794 4384 3959 4253 
Q 4125 4122 4231 3950 
L 4738 4500 
Q 4738 4513 4769 4513 
L 4806 4513 
Q 4831 4513 4847 4491 
Q 4863 4469 4863 4447 
L 4428 2719 
Q 4428 2675 4378 2675 
L 4263 2675 
Q 4213 2675 4213 2747 
Q 4238 2888 4238 3084 
Q 4238 3397 4131 3673 
Q 4025 3950 3801 4119 
Q 3578 4288 3256 4288 
Q 2734 4288 2300 4025 
Q 1866 3763 1564 3336 
Q 1263 2909 1098 2389 
Q 934 1869 934 1381 
z
" transform="scale(0.015625)"/>
     </defs>
     <use xlink:href="#Cmmi10-43" transform="translate(0 0.484375)"/>
    </g>
   </g>
   <g id="patch_6">
    <path d="M 200.353846 200.353846 
C 216.878039 200.353846 232.727669 193.788715 244.412038 182.104346 
C 256.096407 170.419977 262.661538 154.570347 262.661538 138.046154 
C 262.661538 121.521961 256.096407 105.672331 244.412038 93.987962 
C 232.727669 82.303593 216.878039 75.738462 200.353846 75.738462 
C 183.829653 75.738462 167.980023 82.303593 156.295654 93.987962 
C 144.611285 105.672331 138.046154 121.521961 138.046154 138.046154 
C 138.046154 154.570347 144.611285 170.419977 156.295654 182.104346 
C 167.980023 193.788715 183.829653 200.353846 200.353846 200.353846 
L 200.353846 200.353846 
z
" clip-path="url(#pbf4ce50179)" style="fill: none; stroke: #0000ff; stroke-linejoin: miter"/>
   </g>
   <g id="patch_7">
    <path d="M 138.046154 200.353846 
C 154.570347 200.353846 170.419977 193.788715 182.104346 182.104346 
C 193.788715 170.419977 200.353846 154.570347 200.353846 138.046154 
C 200.353846 121.521961 193.788715 105.672331 182.104346 93.987962 
C 170.419977 82.303593 154.570347 75.738462 138.046154 75.738462 
C 121.521961 75.738462 105.672331 82.303593 93.987962 93.987962 
C 82.303593 105.672331 75.738462 121.521961 75.738462 138.046154 
C 75.738462 154.570347 82.303593 170.419977 93.987962 182.104346 
C 105.672331 193.788715 121.521961 200.353846 138.046154 200.353846 
L 138.046154 200.353846 
z
" clip-path="url(#pbf4ce50179)" style="fill: none; stroke: #ff0000; stroke-linejoin: miter"/>
   </g>
   <g id="patch_8">
    <path d="M 169.2 262.661538 
C 185.724193 262.661538 201.573823 256.096407 213.258192 244.412038 
C 224.942561 232.727669 231.507692 216.878039 231.507692 200.353846 
C 231.507692 183.829653 224.942561 167.980023 213.258192 156.295654 
C 201.573823 144.611285 185.724193 138.046154 169.2 138.046154 
C 152.675807 138.046154 136.826177 144.611285 125.141808 156.295654 
C 113.457439 167.980023 106.892308 183.829653 106.892308 200.353846 
C 106.892308 216.878039 113.457439 232.727669 125.141808 244.412038 
C 136.826177 256.096407 152.675807 262.661538 169.2 262.661538 
L 169.2 262.661538 
z
" clip-path="url(#pbf4ce50179)" style="fill: none; stroke: #228b22; stroke-linejoin: miter"/>
   </g>
  </g>
 </g>
 <defs>
  <clipPath id="pbf4ce50179">
   <rect x="7.2" y="7.2" width="324" height="324"/>
  </clipPath>
 </defs>
</svg>
