<?xml version="1.0" encoding="utf-8" standalone="no"?>
<!DOCTYPE svg PUBLIC "-//W3C//DTD SVG 1.1//EN"
  "http://www.w3.org/Graphics/SVG/1.1/DTD/svg11.dtd">
<svg xmlns:xlink="http://www.w3.org/1999/xlink" width="338.4pt" height="338.4pt" viewBox="0 0 338.4 338.4" xmlns="http://www.w3.org/2000/svg" version="1.1">
 <metadata>
  <rdf:RDF xmlns:dc="http://purl.org/dc/elements/1.1/" xmlns:cc="http://creativecommons.org/ns#" xmlns:rdf="http://www.w3.org/1999/02/22-rdf-syntax-ns#">
   <cc:Work>
    <dc:type rdf:resource="http://purl.org/dc/dcmitype/StillImage"/>
    <dc:date>2025-08-24T20:29:01.983603</dc:date>
    <dc:format>image/svg+xml</dc:format>
    <dc:creator>
     <cc:Agent>
      <dc:title>Matplotlib v3.8.0, https://matplotlib.org/</dc:title>
     </cc:Agent>
    </dc:creator>
   </cc:Work>
  </rdf:RDF>
 </metadata>
 <defs>
  <style type="text/css">*{stroke-linejoin: round; stroke-linecap: butt}</style>
 </defs>
 <g id="figure_1">
  <g id="patch_1">
   <path d="M -0 338.4 
L 338.4 338.4 
L 338.4 0 
L -0 0 
z
" style="fill: #ffffff"/>
  </g>
  <g id="axes_1">
   <g id="patch_2">
    <path d="M 7.2 331.2 
L 331.2 331.2 
L 331.2 7.2 
L 7.2 7.2 
z
" style="fill: #ffffff"/>
   </g>
   <g id="patch_3">
    <path d="M 13.430769 324.969231 
L 13.430769 13.430769 
L 324.969231 13.430769 
L 324.969231 324.969231 
L 13.430769 324.969231 
z
" clip-path="url(#p9a267962c5)" style="fill: none; stroke: #000000; stroke-linejoin: miter"/>
   </g>
   <g id="patch_4">
    <path d="M 169.2 192.006198 
L 168.965541 192.140886 
L 168.677951 192.304255 
L 168.14707 192.600561 
L 167.968193 192.698877 
L 167.760646 192.811996 
L 167.473823 192.966649 
L 167.012417 193.211398 
L 166.769326 193.338359 
L 166.298679 193.580318 
L 166.047796 193.707241 
L 165.871033 193.795814 
L 165.399101 194.028873 
L 165.226933 194.112666 
L 164.920739 194.260078 
L 164.43542 194.489534 
L 164.270309 194.566435 
L 163.873699 194.748768 
L 163.588256 194.877919 
L 163.378085 194.971911 
L 162.973828 195.15009 
L 162.573111 195.323348 
L 162.304197 195.437755 
L 161.985347 195.571484 
L 161.69495 195.691474 
L 161.328095 195.840615 
L 161.000592 195.97147 
L 160.615033 196.122777 
L 160.394856 196.20786 
L 160.156776 196.298784 
L 159.904866 196.393778 
L 159.618589 196.500226 
L 159.030638 196.713862 
L 158.959696 196.739188 
L 158.576621 196.87428 
L 158.294814 196.971872 
L 157.951105 197.088862 
L 157.660249 197.186122 
L 157.193765 197.338797 
L 157.005967 197.399115 
L 156.571412 197.536181 
L 156.373793 197.59736 
L 156.128515 197.672295 
L 155.880743 197.746874 
L 155.558481 197.842198 
L 155.050253 197.988703 
L 154.892114 198.033337 
L 154.552275 198.127736 
L 154.224094 198.216934 
L 153.877652 198.309013 
L 153.596216 198.382247 
L 153.374954 198.438839 
L 152.934962 198.548814 
L 152.467688 198.661893 
L 152.387161 198.680996 
L 152.042829 198.761404 
L 151.76098 198.82569 
L 151.236837 198.941592 
L 151.121785 198.9664 
L 150.767477 199.041371 
L 150.461174 199.104452 
L 150.224123 199.152173 
L 149.633553 199.266908 
L 149.53359 199.285743 
L 149.239191 199.340235 
L 148.979168 199.387149 
L 148.409972 199.485879 
L 148.259962 199.510995 
L 148.018188 199.550683 
L 147.614926 199.61471 
L 147.420234 199.644653 
L 147.053609 199.699331 
L 146.781878 199.73842 
L 146.333919 199.800194 
L 145.929494 199.853123 
L 145.800432 199.869448 
L 145.476874 199.909171 
L 145.205913 199.941116 
L 144.899294 199.975815 
L 144.344358 200.03471 
L 144.166944 200.05248 
L 143.784866 200.089008 
L 143.390777 200.124198 
L 143.121391 200.146802 
L 142.97102 200.158908 
L 142.620561 200.185701 
L 142.207528 200.214727 
L 142.088057 200.222609 
L 141.531236 200.256304 
L 141.220191 200.272949 
L 140.889383 200.288941 
L 140.724774 200.296242 
L 140.422433 200.308517 
L 140.051121 200.321579 
L 139.889609 200.32657 
L 139.552544 200.335634 
L 139.169915 200.343711 
L 138.715927 200.350246 
L 138.533323 200.351942 
L 138.263688 200.353466 
L 137.947693 200.353768 
L 137.62517 200.352424 
L 137.310547 200.349504 
L 137.048865 200.345864 
L 136.599794 200.337057 
L 136.395758 200.331985 
L 136.0325 200.321299 
L 135.583046 200.305142 
L 135.419198 200.298444 
L 135.07616 200.283021 
L 134.836679 200.271131 
L 134.450866 200.250032 
L 134.209915 200.235637 
L 133.793077 200.208521 
L 133.632872 200.197352 
L 133.327185 200.17489 
L 132.948963 200.145004 
L 132.660012 200.120609 
L 132.189493 200.077985 
L 131.86863 200.046853 
L 131.525533 200.011709 
L 131.445791 200.003266 
L 131.054232 199.960301 
L 130.635421 199.911569 
L 130.497436 199.894884 
L 130.011907 199.833688 
L 129.86825 199.814839 
L 129.440533 199.756702 
L 129.159796 199.716902 
L 128.691792 199.647651 
L 128.35316 199.595276 
L 128.151797 199.563227 
L 127.82149 199.50919 
L 127.693925 199.487833 
L 127.341982 199.427497 
L 126.816589 199.333554 
L 126.673859 199.30723 
L 126.295844 199.235849 
L 126.064109 199.190893 
L 125.632388 199.104707 
L 125.250367 199.025793 
L 125.009145 198.974677 
L 124.844213 198.939153 
L 124.278763 198.813805 
L 123.998382 198.749602 
L 123.940031 198.736069 
L 123.544148 198.642691 
L 123.196513 198.558439 
L 122.90649 198.48653 
L 122.597581 198.408312 
L 122.322669 198.337285 
L 122.051951 198.266034 
L 121.51622 198.121189 
L 121.396006 198.087982 
L 121.095318 198.003786 
L 120.6319 197.870834 
L 120.396425 197.801786 
L 119.974172 197.675442 
L 119.843143 197.635573 
L 119.392289 197.49598 
L 119.259486 197.454147 
L 118.700132 197.274356 
L 118.51863 197.214763 
L 118.297123 197.141199 
L 117.784917 196.967549 
L 117.421421 196.841297 
L 117.204535 196.764766 
L 116.773275 196.609907 
L 116.674417 196.573903 
L 116.425064 196.482247 
L 115.858351 196.26943 
L 115.531249 196.143723 
L 115.497977 196.130818 
L 114.967902 195.922253 
L 114.64122 195.790916 
L 114.454331 195.714814 
L 114.211445 195.614853 
L 113.93128 195.498059 
L 113.390927 195.26825 
L 113.03921 195.115421 
L 112.7879 195.00464 
L 112.623655 194.931522 
L 112.311296 194.790895 
L 111.982664 194.640703 
L 111.55975 194.444017 
L 111.280513 194.312032 
L 110.888263 194.123756 
L 110.758101 194.060533 
L 110.47159 193.920047 
L 110.044801 193.707386 
L 109.665365 193.514878 
L 109.454185 193.406318 
L 109.144553 193.245302 
L 108.61928 192.967075 
L 108.501794 192.903964 
L 108.091676 192.681104 
L 107.960339 192.608891 
L 107.409808 192.301687 
L 107.065647 192.105905 
L 106.892308 192.006198 
L 106.892308 200.353846 
L 106.902059 201.456166 
L 106.911811 201.912701 
L 106.921563 202.262971 
L 106.931314 202.558228 
L 106.941066 202.818323 
L 106.950818 203.05344 
L 106.960569 203.269627 
L 106.970321 203.470824 
L 106.980072 203.659771 
L 106.989824 203.838461 
L 106.999576 204.008398 
L 107.009327 204.170751 
L 107.028831 204.476252 
L 107.048334 204.760538 
L 107.067837 205.027483 
L 107.087341 205.279906 
L 107.106844 205.519936 
L 107.126347 205.749228 
L 107.14585 205.969097 
L 107.165354 206.180611 
L 107.184857 206.384647 
L 107.20436 206.581942 
L 107.227126 206.804533 
L 107.249891 207.019618 
L 107.295422 207.429982 
L 107.340952 207.81754 
L 107.386483 208.18568 
L 107.432014 208.537022 
L 107.477544 208.873645 
L 107.523075 209.197229 
L 107.568605 209.509157 
L 107.617019 209.829341 
L 107.665433 210.138814 
L 107.713847 210.438562 
L 107.762261 210.729428 
L 107.810674 211.01214 
L 107.859088 211.28733 
L 107.907502 211.555552 
L 107.955916 211.817296 
L 108.038077 212.247863 
L 108.120237 212.662831 
L 108.202398 213.063727 
L 108.284559 213.451844 
L 108.383444 213.903569 
L 108.482328 214.340013 
L 108.591 214.803679 
L 108.699672 215.252129 
L 108.845654 215.832911 
L 108.991636 216.391348 
L 109.132125 216.909777 
L 109.272613 217.411301 
L 109.448863 218.018788 
L 109.625114 218.604365 
L 109.732173 218.950245 
L 109.839232 219.289204 
L 110.053351 219.947784 
L 110.230344 220.47419 
L 110.407338 220.985652 
L 110.542645 221.367251 
L 110.676987 221.738547 
L 110.811329 222.102675 
L 110.950241 222.47203 
L 111.089152 222.834458 
L 111.228064 223.190291 
L 111.366976 223.539831 
L 111.600386 224.11375 
L 111.770848 224.522857 
L 111.94131 224.92397 
L 112.133517 225.367144 
L 112.325655 225.800995 
L 112.517792 226.226145 
L 112.696972 226.615155 
L 112.876152 226.997281 
L 113.003074 227.263957 
L 113.222249 227.716959 
L 113.441425 228.160856 
L 113.79188 228.852772 
L 114.167424 229.571378 
L 114.294131 229.808796 
L 114.53388 230.251402 
L 114.773629 230.685655 
L 114.893708 230.900124 
L 115.123342 231.304833 
L 115.352977 231.702636 
L 115.748155 232.371791 
L 115.8659 232.567543 
L 116.128362 232.998137 
L 116.390823 233.421041 
L 116.73827 233.969548 
L 116.923991 234.257642 
L 117.194282 234.670807 
L 117.566998 235.229075 
L 117.920111 235.74624 
L 118.251398 236.221498 
L 118.468352 236.52771 
L 118.864083 237.076373 
L 119.208993 237.544541 
L 119.277576 237.636551 
L 119.659723 238.142858 
L 120.195674 238.83533 
L 120.208538 238.851705 
L 120.688505 239.454785 
L 121.051859 239.90135 
L 121.342286 240.252313 
L 121.535794 240.483287 
L 121.886282 240.89593 
L 122.091651 241.13438 
L 122.509376 241.611987 
L 122.775542 241.911255 
L 123.237059 242.421133 
L 123.459954 242.663381 
L 123.879075 243.11203 
L 123.966124 243.204109 
L 124.392028 243.649275 
L 124.888095 244.156855 
L 125.064404 244.334497 
L 125.464632 244.732514 
L 125.631291 244.896142 
L 126.016171 245.269383 
L 126.33981 245.578316 
L 126.509323 245.738366 
L 126.937063 246.136951 
L 127.317692 246.485406 
L 127.582492 246.724435 
L 127.76285 246.885675 
L 128.048445 247.138438 
L 128.561042 247.584383 
L 128.687457 247.692861 
L 128.992087 247.951874 
L 129.583679 248.44538 
L 129.634987 248.4876 
L 130.168134 248.920933 
L 130.226302 248.967624 
L 130.804479 249.425554 
L 131.113954 249.666133 
L 131.392773 249.880224 
L 131.570065 250.015063 
L 131.807424 250.194028 
L 132.297875 250.558246 
L 132.493442 250.70141 
L 132.838581 250.951235 
L 133.089273 251.130454 
L 133.538973 251.447287 
L 133.852822 251.664913 
L 134.047528 251.798499 
L 134.341916 251.998425 
L 134.657809 252.21024 
L 135.176819 252.552234 
L 135.418009 252.708651 
L 135.601139 252.826363 
L 135.999312 253.079199 
L 136.196773 253.203024 
L 136.698611 253.513118 
L 136.892269 253.631037 
L 137.392218 253.93102 
L 137.701778 254.113595 
L 137.761311 254.148431 
L 138.278942 254.447623 
L 138.399319 254.516255 
L 138.951413 254.826513 
L 139.219411 254.974472 
L 139.333868 255.03714 
L 139.819179 255.299418 
L 139.979419 255.384802 
L 140.259318 255.532515 
L 140.698971 255.760884 
L 141.117857 255.974362 
L 141.402328 256.117077 
L 141.716724 256.272698 
L 142.034311 256.427671 
L 142.4164 256.611177 
L 142.486149 256.644331 
L 142.993153 256.882155 
L 143.225645 256.98936 
L 143.399228 257.068647 
L 143.973484 257.326396 
L 144.271806 257.457556 
L 144.409858 257.517623 
L 144.709147 257.646486 
L 145.187106 257.84845 
L 145.316958 257.902511 
L 145.861831 258.125625 
L 146.182659 258.254196 
L 146.209898 258.265017 
L 146.80479 258.49766 
L 146.907883 258.537263 
L 147.363928 258.709947 
L 147.601181 258.798175 
L 147.808307 258.874304 
L 148.150875 258.998393 
L 148.552193 259.140891 
L 148.694197 259.190574 
L 149.249094 259.381042 
L 149.356844 259.417352 
L 149.778077 259.557203 
L 150.147895 259.677247 
L 150.520449 259.795607 
L 150.629237 259.829684 
L 151.011028 259.947552 
L 151.256027 260.02178 
L 151.640683 260.136109 
L 151.850275 260.197271 
L 152.429718 260.36223 
L 152.761747 260.454032 
L 152.876778 260.485377 
L 153.272621 260.591435 
L 153.393297 260.623214 
L 153.819567 260.733402 
L 154.069521 260.796523 
L 154.607159 260.928573 
L 154.679198 260.945882 
L 155.123536 261.050647 
L 155.398576 261.113777 
L 155.715716 261.184945 
L 156.101795 261.269243 
L 156.26494 261.304094 
L 156.656112 261.3858 
L 156.887343 261.432869 
L 157.371697 261.528512 
L 157.462869 261.54607 
L 157.844086 261.617961 
L 158.313884 261.703182 
L 158.566441 261.747461 
L 158.818372 261.790564 
L 159.320414 261.873293 
L 159.526495 261.906034 
L 159.696757 261.932551 
L 160.057195 261.987097 
L 160.422211 262.040141 
L 160.62985 262.069331 
L 161.024264 262.122818 
L 161.427917 262.174904 
L 161.704695 262.209072 
L 162.092159 262.254792 
L 162.453609 262.295228 
L 162.773027 262.329184 
L 162.86452 262.338604 
L 163.220404 262.373947 
L 163.627364 262.411837 
L 163.915126 262.437005 
L 164.05253 262.448549 
L 164.392501 262.475795 
L 164.7551 262.502791 
L 165.055235 262.523529 
L 165.315592 262.540339 
L 165.83701 262.570715 
L 166.168018 262.587724 
L 166.295183 262.59379 
L 166.560265 262.605596 
L 166.942811 262.62064 
L 167.449467 262.636943 
L 167.645717 262.642149 
L 167.930232 262.648599 
L 168.143199 262.652576 
L 168.457466 262.657114 
L 168.794893 262.660222 
L 169.2 262.661538 
z
" clip-path="url(#p9a267962c5)" style="fill: #808080; opacity: 0.5"/>
   </g>
   <g id="patch_5">
    <path d="M 231.507692 192.006198 
L 231.306309 192.121967 
L 230.879553 192.364013 
L 230.656386 192.488827 
L 230.268631 192.702848 
L 229.881672 192.912865 
L 229.491415 193.121108 
L 229.347941 193.196775 
L 228.928512 193.415252 
L 228.688269 193.538577 
L 228.368645 193.70062 
L 227.981916 193.893609 
L 227.804848 193.980857 
L 227.588612 194.086461 
L 227.174502 194.285828 
L 226.73321 194.494163 
L 226.527639 194.589775 
L 226.10183 194.78494 
L 225.952171 194.852617 
L 225.495257 195.056311 
L 225.2192 195.177255 
L 224.954059 195.291923 
L 224.608587 195.439151 
L 224.2122 195.605058 
L 223.981156 195.700284 
L 223.649755 195.834986 
L 223.290888 195.978361 
L 223.142234 196.036997 
L 222.627709 196.236562 
L 222.456394 196.301848 
L 222.003469 196.471682 
L 221.791172 196.549911 
L 221.529775 196.645032 
L 221.116168 196.792852 
L 220.967666 196.845125 
L 220.697015 196.939311 
L 220.253328 197.090706 
L 220.023054 197.167815 
L 219.658605 197.287818 
L 219.446791 197.356423 
L 218.940273 197.517099 
L 218.661174 197.603607 
L 218.503614 197.651812 
L 218.143399 197.760309 
L 217.642985 197.907111 
L 217.410806 197.973682 
L 216.993181 198.090979 
L 216.807807 198.142041 
L 216.432976 198.243414 
L 216.046723 198.34526 
L 215.872293 198.390386 
L 215.4561 198.495889 
L 215.112387 198.580722 
L 215.035468 198.599424 
L 214.460641 198.735913 
L 214.382596 198.754001 
L 213.861102 198.872156 
L 213.806983 198.884149 
L 213.201039 199.014983 
L 213.055311 199.045509 
L 212.85251 199.087385 
L 212.495117 199.159475 
L 212.082086 199.240082 
L 211.864745 199.281338 
L 211.412313 199.364657 
L 211.048509 199.429154 
L 210.900343 199.454785 
L 210.487674 199.524232 
L 210.062274 199.592843 
L 209.920948 199.61497 
L 209.713263 199.646883 
L 209.167012 199.727404 
L 209.032878 199.746421 
L 208.581953 199.808171 
L 208.460874 199.824181 
L 208.127806 199.866976 
L 207.715952 199.917374 
L 207.281463 199.967529 
L 206.965285 200.002085 
L 206.743737 200.025326 
L 206.521227 200.047863 
L 206.266792 200.072645 
L 205.789559 200.116288 
L 205.394391 200.149627 
L 205.317391 200.155829 
L 205.012754 200.179423 
L 204.534053 200.213463 
L 204.231701 200.233056 
L 203.959882 200.24941 
L 203.696634 200.264112 
L 203.433628 200.277685 
L 202.946734 200.299872 
L 202.822306 200.30493 
L 202.517756 200.316259 
L 202.173097 200.327281 
L 201.880601 200.335138 
L 201.348837 200.345901 
L 201.222236 200.347794 
L 200.701112 200.352878 
L 200.540066 200.353568 
L 200.145624 200.353498 
L 199.974577 200.352692 
L 199.508745 200.348115 
L 199.150085 200.342217 
L 199.015859 200.339479 
L 198.765815 200.333606 
L 198.28311 200.319427 
L 197.908507 200.305843 
L 197.678501 200.296383 
L 197.465256 200.286852 
L 197.009027 200.264003 
L 196.858924 200.255752 
L 196.372355 200.226506 
L 196.121806 200.209956 
L 195.873708 200.192569 
L 195.411518 200.157521 
L 195.274261 200.146446 
L 194.811524 200.10686 
L 194.443908 200.072932 
L 194.178081 200.047028 
L 194.036718 200.032785 
L 193.669168 199.994226 
L 193.36829 199.961019 
L 193.030032 199.921919 
L 192.528554 199.860499 
L 192.2866 199.829388 
L 192.182746 199.815739 
L 191.73932 199.75546 
L 191.384247 199.70485 
L 191.123744 199.666392 
L 190.928246 199.636791 
L 190.483238 199.567042 
L 190.144974 199.511815 
L 189.986677 199.485313 
L 189.491561 199.399714 
L 189.373272 199.378653 
L 189.056754 199.321142 
L 188.680973 199.250668 
L 188.436354 199.203507 
L 188.048755 199.126701 
L 187.733511 199.062346 
L 187.417259 198.996078 
L 186.984879 198.9027 
L 186.831257 198.868749 
L 186.31642 198.751995 
L 186.057099 198.691447 
L 185.681063 198.601566 
L 185.59645 198.581002 
L 185.238179 198.492536 
L 184.919853 198.412041 
L 184.419727 198.28196 
L 184.134848 198.20588 
L 183.865575 198.132637 
L 183.734492 198.096513 
L 183.361788 197.992117 
L 182.844709 197.843132 
L 182.752765 197.816134 
L 182.298088 197.680357 
L 182.090791 197.617198 
L 181.707936 197.498476 
L 181.37371 197.392619 
L 181.114734 197.30917 
L 180.871301 197.229589 
L 180.442714 197.086778 
L 180.22775 197.013846 
L 179.781959 196.859808 
L 179.425502 196.733912 
L 179.356338 196.709202 
L 179.011639 196.584677 
L 178.548449 196.413723 
L 178.216403 196.288597 
L 177.817569 196.135436 
L 177.612508 196.055464 
L 177.314421 195.93772 
L 176.914851 195.777099 
L 176.866045 195.75726 
L 176.414749 195.571523 
L 176.108983 195.443324 
L 175.894374 195.352198 
L 175.474605 195.171209 
L 175.080022 194.997732 
L 174.853741 194.896775 
L 174.396972 194.689682 
L 174.197991 194.598075 
L 174.041725 194.525538 
L 173.539921 194.289037 
L 173.328999 194.187993 
L 173.071024 194.063081 
L 172.62807 193.845167 
L 172.445995 193.754325 
L 171.986075 193.521537 
L 171.583862 193.314016 
L 171.548277 193.295477 
L 171.030871 193.022619 
L 170.74132 192.867197 
L 170.302202 192.627719 
L 170.252371 192.600253 
L 169.792763 192.344116 
L 169.410357 192.127102 
L 169.2 192.006198 
L 169.2 262.661538 
L 169.358769 262.661336 
L 169.923385 262.657339 
L 170.110575 262.654884 
L 170.451534 262.648968 
L 170.858486 262.639462 
L 171.032974 262.634571 
L 171.460329 262.620526 
L 171.616507 262.614661 
L 171.914966 262.60236 
L 172.388097 262.579922 
L 172.536248 262.572155 
L 172.984469 262.546501 
L 173.160477 262.535541 
L 173.664581 262.501381 
L 173.880686 262.485478 
L 174.196292 262.460896 
L 174.56145 262.430439 
L 174.91089 262.399267 
L 175.246287 262.367481 
L 175.348799 262.357401 
L 175.659491 262.325804 
L 176.098837 262.278434 
L 176.527892 262.229128 
L 176.693956 262.209235 
L 177.049078 262.165176 
L 177.204681 262.145218 
L 177.748776 262.072295 
L 178.067948 262.027244 
L 178.328535 261.989212 
L 178.4936 261.964539 
L 178.904644 261.901132 
L 179.234151 261.848271 
L 179.465578 261.810062 
L 179.906635 261.734759 
L 180.28983 261.666685 
L 180.533337 261.622141 
L 180.694833 261.592048 
L 181.235786 261.488029 
L 181.355458 261.464347 
L 181.709147 261.39293 
L 181.979807 261.336836 
L 182.358809 261.25618 
L 182.694782 261.182617 
L 182.927784 261.130457 
L 183.436596 261.013288 
L 183.664673 260.959306 
L 183.868412 260.910318 
L 184.178256 260.834425 
L 184.593327 260.730116 
L 184.982657 260.629515 
L 185.124507 260.592194 
L 185.352691 260.531409 
L 185.702006 260.436559 
L 186.173165 260.305161 
L 186.327617 260.261218 
L 186.744671 260.140408 
L 187.113037 260.031075 
L 187.279367 259.980895 
L 187.762612 259.832228 
L 188.055955 259.739884 
L 188.313775 259.657405 
L 188.557068 259.578439 
L 188.854595 259.480367 
L 189.353289 259.312251 
L 189.679604 259.199699 
L 189.721349 259.185154 
L 190.048444 259.070036 
L 190.438926 258.929921 
L 190.958383 258.738958 
L 191.204626 258.646598 
L 191.291641 258.613677 
L 191.874624 258.389266 
L 191.923245 258.370246 
L 192.494239 258.143352 
L 192.618844 258.092969 
L 192.934093 257.9641 
L 193.210426 257.849481 
L 193.752353 257.620158 
L 194.033938 257.49861 
L 194.37332 257.34992 
L 194.55586 257.268948 
L 194.828702 257.146611 
L 195.040242 257.050675 
L 195.436579 256.868361 
L 195.770773 256.712009 
L 196.026707 256.590634 
L 196.580378 256.323154 
L 196.699472 256.264735 
L 197.094793 256.068557 
L 197.445709 255.891477 
L 197.749391 255.73598 
L 197.910939 255.652404 
L 198.395632 255.398043 
L 198.578784 255.300507 
L 198.809068 255.176757 
L 199.275757 254.922128 
L 199.588201 254.748752 
L 199.799639 254.63009 
L 200.153911 254.428831 
L 200.579125 254.183197 
L 200.75166 254.082249 
L 201.009386 253.930067 
L 201.33839 253.733359 
L 201.665982 253.53475 
L 201.921881 253.37768 
L 202.449592 253.048373 
L 202.66021 252.914886 
L 202.874531 252.777834 
L 203.405128 252.433187 
L 203.63805 252.279458 
L 204.071938 251.989071 
L 204.338009 251.808378 
L 204.570332 251.648955 
L 204.994396 251.353942 
L 205.147803 251.245928 
L 205.452328 251.029454 
L 205.732582 250.827789 
L 206.225222 250.467532 
L 206.551203 250.225042 
L 206.920073 249.946634 
L 207.126196 249.78918 
L 207.243067 249.699297 
L 207.78873 249.273764 
L 208.084911 249.038671 
L 208.445661 248.748335 
L 208.799738 248.459036 
L 208.819668 248.442623 
L 209.37125 247.982821 
L 209.740589 247.668846 
L 209.755328 247.656213 
L 210.198017 247.273044 
L 210.379382 247.113946 
L 210.959298 246.596787 
L 211.094419 246.474408 
L 211.499694 246.102993 
L 211.741246 245.878464 
L 211.975675 245.658263 
L 212.407675 245.246444 
L 212.751268 244.913195 
L 213.004582 244.664196 
L 213.450106 244.219284 
L 213.552638 244.115611 
L 214.014009 243.643026 
L 214.322708 243.321157 
L 214.659747 242.964407 
L 214.89255 242.71467 
L 215.129837 242.457274 
L 215.605525 241.932395 
L 215.935025 241.561684 
L 216.302211 241.14147 
L 216.372823 241.059783 
L 216.70151 240.67574 
L 217.007365 240.312629 
L 217.467349 239.755769 
L 217.832735 239.303886 
L 218.135516 238.922795 
L 218.239905 238.789978 
L 218.516624 238.434275 
L 218.916827 237.910279 
L 219.447089 237.197822 
L 219.456594 237.184856 
L 219.744629 236.788569 
L 220.032663 236.385622 
L 220.193884 236.157091 
L 220.416036 235.838578 
L 220.76718 235.326328 
L 221.119106 234.801705 
L 221.471437 234.264691 
L 221.778996 233.785832 
L 222.099402 233.27651 
L 222.28114 232.982684 
L 222.648 232.378209 
L 222.903625 231.947661 
L 223.304877 231.255477 
L 223.622891 230.691899 
L 223.840818 230.297619 
L 224.058744 229.896471 
L 224.1626 229.7028 
L 224.428551 229.199221 
L 224.694502 228.684197 
L 225.043803 227.989298 
L 225.169916 227.732981 
L 225.408977 227.238775 
L 225.729764 226.557553 
L 225.93109 226.118782 
L 226.132416 225.670808 
L 226.407025 225.044023 
L 226.664121 224.439597 
L 226.921216 223.816789 
L 227.073708 223.438094 
L 227.226199 223.052057 
L 227.281772 222.909472 
L 227.424001 222.539749 
L 227.566229 222.162832 
L 227.708457 221.778341 
L 227.850685 221.385861 
L 228.000335 220.963775 
L 228.149984 220.531752 
L 228.286658 220.127954 
L 228.423333 219.714771 
L 228.555246 219.306505 
L 228.68716 218.88831 
L 228.789265 218.557364 
L 228.891369 218.219706 
L 228.993474 217.874947 
L 229.095579 217.522659 
L 229.185714 217.205036 
L 229.311848 216.749402 
L 229.437982 216.279739 
L 229.564116 215.794768 
L 229.690249 215.292998 
L 229.7791 214.928523 
L 229.86795 214.554141 
L 229.9568 214.169046 
L 230.045651 213.772316 
L 230.118861 213.435929 
L 230.192072 213.09024 
L 230.251187 212.803791 
L 230.310302 212.510306 
L 230.369417 212.209263 
L 230.428533 211.900072 
L 230.487648 211.582058 
L 230.546763 211.254451 
L 230.605878 210.916357 
L 230.664994 210.566734 
L 230.734391 210.13992 
L 230.807242 209.670297 
L 230.843668 209.426154 
L 230.880093 209.175107 
L 230.916519 208.916548 
L 230.952944 208.649774 
L 230.98937 208.373966 
L 231.025795 208.088158 
L 231.062221 207.791197 
L 231.098646 207.481688 
L 231.135072 207.15792 
L 231.171497 206.817751 
L 231.207923 206.458439 
L 231.244348 206.076379 
L 231.262561 205.875354 
L 231.280774 205.666666 
L 231.298986 205.449374 
L 231.317199 205.222325 
L 231.341011 204.908327 
L 231.352917 204.742863 
L 231.364822 204.570879 
L 231.376728 204.391541 
L 231.388634 204.203821 
L 231.40054 204.006428 
L 231.412446 203.797698 
L 231.424352 203.575428 
L 231.436257 203.336594 
L 231.448163 203.07684 
L 231.454116 202.937167 
L 231.460069 202.789483 
L 231.466022 202.63223 
L 231.471975 202.46327 
L 231.477928 202.279524 
L 231.483881 202.076266 
L 231.489834 201.845541 
L 231.495786 201.571839 
L 231.501739 201.215118 
L 231.507692 200.353846 
z
" clip-path="url(#p9a267962c5)" style="fill: #808080; opacity: 0.5"/>
   </g>
   <g id="matplotlib.axis_1"/>
   <g id="matplotlib.axis_2"/>
   <g id="line2d_1">
    <path d="M 106.892308 200.353846 
L 107.028831 204.476252 
L 107.386483 208.18568 
L 107.955916 211.817296 
L 108.699672 215.252129 
L 109.732173 218.950245 
L 110.950241 222.47203 
L 112.325655 225.800995 
L 113.79188 228.852772 
L 115.748155 232.371791 
L 117.566998 235.229075 
L 119.659723 238.142858 
L 122.091651 241.13438 
L 124.392028 243.649275 
L 127.317692 246.485406 
L 130.226302 248.967624 
L 133.089273 251.130454 
L 136.196773 253.203024 
L 139.333868 255.03714 
L 142.486149 256.644331 
L 145.861831 258.125625 
L 149.356844 259.417352 
L 152.876778 260.485377 
L 156.656112 261.3858 
L 160.422211 262.040141 
L 164.05253 262.448549 
L 167.930232 262.648599 
L 169.2 262.661538 
L 169.2 262.661538 
" clip-path="url(#p9a267962c5)" style="fill: none; stroke: #228b22; stroke-linecap: square"/>
   </g>
   <g id="line2d_2">
    <path d="M 169.2 262.661538 
L 172.984469 262.546501 
L 176.693956 262.209235 
L 180.533337 261.622141 
L 184.178256 260.834425 
L 187.762612 259.832228 
L 191.291641 258.613677 
L 194.828702 257.146611 
L 197.910939 255.652404 
L 201.33839 253.733359 
L 204.570332 251.648955 
L 207.243067 249.699297 
L 210.379382 247.113946 
L 213.004582 244.664196 
L 215.605525 241.932395 
L 218.135516 238.922795 
L 220.193884 236.157091 
L 222.28114 232.982684 
L 224.1626 229.7028 
L 225.93109 226.118782 
L 227.424001 222.539749 
L 228.68716 218.88831 
L 229.690249 215.292998 
L 230.487648 211.582058 
L 231.062221 207.791197 
L 231.40054 204.006428 
L 231.507692 200.353846 
L 231.507692 200.353846 
" clip-path="url(#p9a267962c5)" style="fill: none; stroke: #228b22; stroke-linecap: square"/>
   </g>
   <g id="text_1">
    <!-- $\Omega$ -->
    <g transform="translate(16.011538 22.420913) scale(0.1 -0.1)">
     <defs>
      <path id="Cmr10-ad" d="M 494 0 
L 281 1063 
L 469 1063 
Q 503 878 531 736 
Q 559 594 604 536 
Q 650 478 750 459 
Q 850 441 1081 441 
L 1472 441 
Q 1378 803 1004 1386 
Q 631 1969 495 2233 
Q 359 2497 359 2913 
Q 359 3397 646 3761 
Q 934 4125 1389 4319 
Q 1844 4513 2309 4513 
Q 2772 4513 3226 4319 
Q 3681 4125 3968 3758 
Q 4256 3391 4256 2913 
Q 4256 2588 4137 2300 
Q 4019 2013 3834 1725 
Q 3650 1438 3436 1084 
Q 3222 731 3144 441 
L 3531 441 
Q 3766 441 3869 459 
Q 3972 478 4015 536 
Q 4059 594 4086 736 
Q 4113 878 4147 1063 
L 4331 1063 
L 4122 0 
L 2988 0 
Q 2925 0 2925 84 
Q 2925 409 3004 721 
Q 3084 1034 3240 1478 
Q 3397 1922 3484 2261 
Q 3572 2600 3572 2913 
Q 3572 3297 3422 3625 
Q 3272 3953 2984 4150 
Q 2697 4347 2309 4347 
Q 1725 4347 1384 3930 
Q 1044 3513 1044 2913 
Q 1047 2584 1122 2293 
Q 1197 2003 1364 1518 
Q 1531 1034 1611 721 
Q 1691 409 1691 84 
Q 1691 0 1625 0 
L 494 0 
z
" transform="scale(0.015625)"/>
     </defs>
     <use xlink:href="#Cmr10-ad" transform="translate(0 0.484375)"/>
    </g>
   </g>
   <g id="text_2">
    <!-- $A$ -->
    <g style="fill: #0000ff" transform="translate(103.142308 78.497837) scale(0.1 -0.1)">
     <defs>
      <path id="Cmmi10-41" d="M 288 0 
Q 225 0 225 84 
Q 250 225 306 225 
Q 566 225 755 328 
Q 944 431 1081 647 
Q 1094 659 1094 659 
L 3378 4513 
Q 3428 4581 3500 4581 
L 3584 4581 
Q 3603 4581 3622 4573 
Q 3641 4566 3655 4548 
Q 3669 4531 3669 4513 
L 4056 378 
Q 4056 350 4084 294 
Q 4147 225 4563 225 
Q 4628 225 4628 141 
Q 4606 56 4592 28 
Q 4578 0 4519 0 
L 2919 0 
Q 2859 0 2859 84 
Q 2894 225 2944 225 
Q 3450 225 3481 397 
L 3384 1453 
L 1806 1453 
L 1294 594 
Q 1247 525 1247 434 
Q 1247 322 1355 273 
Q 1463 225 1594 225 
Q 1656 225 1656 141 
Q 1634 50 1621 25 
Q 1609 0 1550 0 
L 288 0 
z
M 1931 1678 
L 3359 1678 
L 3169 3750 
L 1931 1678 
z
" transform="scale(0.015625)"/>
     </defs>
     <use xlink:href="#Cmmi10-41" transform="translate(0 0.421875)"/>
    </g>
   </g>
   <g id="text_3">
    <!-- $B$ -->
    <g style="fill: #ff0000" transform="translate(227.707692 78.497837) scale(0.1 -0.1)">
     <defs>
      <path id="Cmmi10-42" d="M 319 0 
Q 256 0 256 84 
Q 259 100 268 137 
Q 278 175 293 200 
Q 309 225 341 225 
Q 522 225 656 234 
Q 791 244 884 269 
Q 959 297 1006 441 
L 1881 3956 
Q 1894 4019 1894 4044 
Q 1894 4113 1819 4122 
Q 1697 4147 1356 4147 
Q 1294 4147 1294 4231 
Q 1297 4247 1306 4286 
Q 1316 4325 1333 4348 
Q 1350 4372 1375 4372 
L 3669 4372 
Q 3878 4372 4083 4320 
Q 4288 4269 4461 4156 
Q 4634 4044 4736 3876 
Q 4838 3709 4838 3488 
Q 4838 3247 4714 3040 
Q 4591 2834 4395 2681 
Q 4200 2528 3973 2429 
Q 3747 2331 3500 2284 
Q 3675 2284 3854 2215 
Q 4034 2147 4175 2028 
Q 4316 1909 4402 1743 
Q 4488 1578 4488 1388 
Q 4488 1003 4219 684 
Q 3950 366 3542 183 
Q 3134 0 2753 0 
L 319 0 
z
M 1497 275 
Q 1497 225 1716 225 
L 2631 225 
Q 2944 225 3231 398 
Q 3519 572 3692 859 
Q 3866 1147 3866 1459 
Q 3866 1650 3786 1820 
Q 3706 1991 3556 2089 
Q 3406 2188 3213 2188 
L 1966 2188 
L 1522 416 
Q 1497 328 1497 275 
z
M 2009 2356 
L 2981 2356 
Q 3288 2356 3577 2512 
Q 3866 2669 4048 2937 
Q 4231 3206 4231 3506 
Q 4231 3784 4057 3965 
Q 3884 4147 3609 4147 
L 2731 4147 
Q 2559 4147 2500 4115 
Q 2441 4084 2400 3928 
L 2009 2356 
z
" transform="scale(0.015625)"/>
     </defs>
     <use xlink:href="#Cmmi10-42" transform="translate(0 0.6875)"/>
    </g>
   </g>
   <g id="text_4">
    <!-- $C$ -->
    <g style="fill: #228b22" transform="translate(150.023077 271.651683) scale(0.1 -0.1)">
     <defs>
      <path id="Cmmi10-43" d="M 934 1381 
Q 934 997 1082 705 
Q 1231 413 1514 248 
Q 1797 84 2181 84 
Q 2584 84 2957 290 
Q 3331 497 3595 842 
Q 3859 1188 3956 1575 
Q 3969 1613 4006 1613 
L 4084 1613 
Q 4109 1613 4125 1595 
Q 4141 1578 4141 1556 
Q 4141 1550 4134 1538 
Q 4025 1094 3711 705 
Q 3397 316 2959 87 
Q 2522 -141 2059 -141 
Q 1559 -141 1162 84 
Q 766 309 545 709 
Q 325 1109 325 1613 
Q 325 2150 565 2676 
Q 806 3203 1212 3614 
Q 1619 4025 2139 4269 
Q 2659 4513 3194 4513 
Q 3406 4513 3600 4448 
Q 3794 4384 3959 4253 
Q 4125 4122 4231 3950 
L 4738 4500 
Q 4738 4513 4769 4513 
L 4806 4513 
Q 4831 4513 4847 4491 
Q 4863 4469 4863 4447 
L 4428 2719 
Q 4428 2675 4378 2675 
L 4263 2675 
Q 4213 2675 4213 2747 
Q 4238 2888 4238 3084 
Q 4238 3397 4131 3673 
Q 4025 3950 3801 4119 
Q 3578 4288 3256 4288 
Q 2734 4288 2300 4025 
Q 1866 3763 1564 3336 
Q 1263 2909 1098 2389 
Q 934 1869 934 1381 
z
" transform="scale(0.015625)"/>
     </defs>
     <use xlink:href="#Cmmi10-43" transform="translate(0 0.484375)"/>
    </g>
   </g>
   <g id="patch_6">
    <path d="M 138.046154 200.353846 
C 154.570347 200.353846 170.419977 193.788715 182.104346 182.104346 
C 193.788715 170.419977 200.353846 154.570347 200.353846 138.046154 
C 200.353846 121.521961 193.788715 105.672331 182.104346 93.987962 
C 170.419977 82.303593 154.570347 75.738462 138.046154 75.738462 
C 121.521961 75.738462 105.672331 82.303593 93.987962 93.987962 
C 82.303593 105.672331 75.738462 121.521961 75.738462 138.046154 
C 75.738462 154.570347 82.303593 170.419977 93.987962 182.104346 
C 105.672331 193.788715 121.521961 200.353846 138.046154 200.353846 
L 138.046154 200.353846 
z
" clip-path="url(#p9a267962c5)" style="fill: none; stroke: #0000ff; stroke-linejoin: miter"/>
   </g>
   <g id="patch_7">
    <path d="M 200.353846 200.353846 
C 216.878039 200.353846 232.727669 193.788715 244.412038 182.104346 
C 256.096407 170.419977 262.661538 154.570347 262.661538 138.046154 
C 262.661538 121.521961 256.096407 105.672331 244.412038 93.987962 
C 232.727669 82.303593 216.878039 75.738462 200.353846 75.738462 
C 183.829653 75.738462 167.980023 82.303593 156.295654 93.987962 
C 144.611285 105.672331 138.046154 121.521961 138.046154 138.046154 
C 138.046154 154.570347 144.611285 170.419977 156.295654 182.104346 
C 167.980023 193.788715 183.829653 200.353846 200.353846 200.353846 
L 200.353846 200.353846 
z
" clip-path="url(#p9a267962c5)" style="fill: none; stroke: #ff0000; stroke-linejoin: miter"/>
   </g>
   <g id="patch_8">
    <path d="M 169.2 262.661538 
C 185.724193 262.661538 201.573823 256.096407 213.258192 244.412038 
C 224.942561 232.727669 231.507692 216.878039 231.507692 200.353846 
C 231.507692 183.829653 224.942561 167.980023 213.258192 156.295654 
C 201.573823 144.611285 185.724193 138.046154 169.2 138.046154 
C 152.675807 138.046154 136.826177 144.611285 125.141808 156.295654 
C 113.457439 167.980023 106.892308 183.829653 106.892308 200.353846 
C 106.892308 216.878039 113.457439 232.727669 125.141808 244.412038 
C 136.826177 256.096407 152.675807 262.661538 169.2 262.661538 
L 169.2 262.661538 
z
" clip-path="url(#p9a267962c5)" style="fill: none; stroke: #228b22; stroke-linejoin: miter"/>
   </g>
  </g>
 </g>
 <defs>
  <clipPath id="p9a267962c5">
   <rect x="7.2" y="7.2" width="324" height="324"/>
  </clipPath>
 </defs>
</svg>
