<?xml version="1.0" encoding="utf-8" standalone="no"?>
<!DOCTYPE svg PUBLIC "-//W3C//DTD SVG 1.1//EN"
  "http://www.w3.org/Graphics/SVG/1.1/DTD/svg11.dtd">
<!-- Created with matplotlib (https://matplotlib.org/) -->
<svg height="338.4pt" version="1.1" viewBox="0 0 338.4 338.4" width="338.4pt" xmlns="http://www.w3.org/2000/svg" xmlns:xlink="http://www.w3.org/1999/xlink">
 <metadata>
  <rdf:RDF xmlns:cc="http://creativecommons.org/ns#" xmlns:dc="http://purl.org/dc/elements/1.1/" xmlns:rdf="http://www.w3.org/1999/02/22-rdf-syntax-ns#">
   <cc:Work>
    <dc:type rdf:resource="http://purl.org/dc/dcmitype/StillImage"/>
    <dc:date>2021-09-05T16:54:28.493047</dc:date>
    <dc:format>image/svg+xml</dc:format>
    <dc:creator>
     <cc:Agent>
      <dc:title>Matplotlib v3.3.4, https://matplotlib.org/</dc:title>
     </cc:Agent>
    </dc:creator>
   </cc:Work>
  </rdf:RDF>
 </metadata>
 <defs>
  <style type="text/css">*{stroke-linecap:butt;stroke-linejoin:round;}</style>
 </defs>
 <g id="figure_1">
  <g id="patch_1">
   <path d="M -0 338.4 
L 338.4 338.4 
L 338.4 0 
L -0 0 
z
" style="fill:#ffffff;"/>
  </g>
  <g id="axes_1">
   <g id="patch_2">
    <path d="M 7.2 331.2 
L 331.2 331.2 
L 331.2 7.2 
L 7.2 7.2 
z
" style="fill:#ffffff;"/>
   </g>
   <g id="patch_3">
    <path clip-path="url(#p71c994d3ed)" d="M 13.430769 324.969231 
L 13.430769 13.430769 
L 324.969231 13.430769 
L 324.969231 324.969231 
z
" style="fill:none;stroke:#000000;stroke-linejoin:miter;"/>
   </g>
   <g id="patch_4">
    <path clip-path="url(#p71c994d3ed)" d="M 169.2 138.046154 
L 169.004945 138.046459 
L 168.93773 138.046706 
L 168.684822 138.048284 
L 168.635007 138.048716 
L 168.400092 138.051289 
L 168.221921 138.053831 
L 168.177843 138.054539 
L 167.948385 138.058726 
L 167.772975 138.062497 
L 167.619254 138.066209 
L 167.487946 138.06968 
L 167.354861 138.07348 
L 167.093898 138.081759 
L 166.988085 138.085428 
L 166.907421 138.088345 
L 166.6424 138.098668 
L 166.537423 138.103069 
L 166.309872 138.113219 
L 166.288574 138.114212 
L 166.083767 138.12413 
L 165.906884 138.133239 
L 165.702018 138.14442 
L 165.670361 138.146209 
L 165.494243 138.156452 
L 165.256993 138.171041 
L 165.178184 138.176089 
L 165.033422 138.185622 
L 164.836962 138.1991 
L 164.663734 138.211503 
L 164.542946 138.220438 
L 164.395399 138.231674 
L 164.128457 138.252896 
L 164.027809 138.261198 
L 163.835769 138.277494 
L 163.68016 138.291137 
L 163.522052 138.305402 
L 163.432965 138.313619 
L 163.292243 138.326861 
L 163.119262 138.34358 
L 162.946041 138.36081 
L 162.801565 138.375555 
L 162.555803 138.401419 
L 162.411424 138.417074 
L 162.368207 138.421826 
L 162.14094 138.447318 
L 162.029585 138.460117 
L 161.838158 138.482594 
L 161.679219 138.501713 
L 161.553875 138.517083 
L 161.418641 138.533955 
L 161.156819 138.567474 
L 161.116972 138.572674 
L 160.914008 138.599568 
L 160.720162 138.625888 
L 160.636871 138.637387 
L 160.44852 138.663814 
L 160.315749 138.682795 
L 160.078485 138.717441 
L 159.977018 138.732542 
L 159.751307 138.766747 
L 159.595995 138.790776 
L 159.540758 138.799418 
L 159.296633 138.838223 
L 159.234641 138.848235 
L 159.029124 138.881887 
L 158.816913 138.917375 
L 158.634451 138.948491 
L 158.568803 138.959822 
L 158.39798 138.989647 
L 158.223847 139.020555 
L 158.07934 139.046592 
L 157.866045 139.085665 
L 157.739642 139.109183 
L 157.656495 139.124801 
L 157.494366 139.155589 
L 157.295847 139.193895 
L 157.221919 139.20833 
L 156.953496 139.261525 
L 156.812906 139.289876 
L 156.604893 139.332442 
L 156.586996 139.336138 
L 156.318942 139.392163 
L 156.196345 139.418196 
L 156.07143 139.444987 
L 155.843801 139.494496 
L 155.811471 139.5016 
L 155.546833 139.560429 
L 155.405733 139.59229 
L 155.237588 139.630707 
L 155.135875 139.654185 
L 154.893097 139.710948 
L 154.785571 139.736417 
L 154.674861 139.76285 
L 154.554023 139.791945 
L 154.294922 139.855192 
L 154.184127 139.882596 
L 153.994278 139.930055 
L 153.890963 139.956148 
L 153.72861 139.997532 
L 153.613379 140.027187 
L 153.389012 140.085603 
L 153.299801 140.109077 
L 153.141754 140.151012 
L 152.970192 140.197036 
L 152.81554 140.238973 
L 152.545868 140.313123 
L 152.485813 140.329814 
L 152.305086 140.380432 
L 152.178325 140.416286 
L 151.975105 140.474371 
L 151.74667 140.540555 
L 151.738257 140.543011 
L 151.439245 140.631119 
L 151.299408 140.672883 
L 151.189553 140.705943 
L 151.108816 140.730381 
L 150.907985 140.791688 
L 150.788401 140.828544 
L 150.600152 140.887098 
L 150.40933 140.947119 
L 150.223211 141.00631 
L 150.098643 141.046286 
L 149.87038 141.120289 
L 149.813197 141.13898 
L 149.61694 141.203594 
L 149.501982 141.241778 
L 149.291031 141.312492 
L 149.131151 141.366646 
L 149.033081 141.400103 
L 148.919439 141.439099 
L 148.759994 141.494228 
L 148.484346 141.590676 
L 148.361824 141.634012 
L 148.147789 141.710407 
L 148.136137 141.714591 
L 147.901301 141.799479 
L 147.683627 141.879115 
L 147.655572 141.889446 
L 147.467562 141.959072 
L 147.260097 142.036703 
L 147.061525 142.111796 
L 146.971077 142.146256 
L 146.753024 142.229997 
L 146.596035 142.290869 
L 146.44265 142.350816 
L 146.352501 142.386266 
L 146.16679 142.459807 
L 145.974354 142.536739 
L 145.823469 142.59758 
L 145.674148 142.658242 
L 145.553279 142.707674 
L 145.401635 142.770113 
L 145.265488 142.826569 
L 145.073328 142.906895 
L 144.987856 142.942866 
L 144.790843 143.026352 
L 144.630828 143.094748 
L 144.433625 143.179768 
L 144.328492 143.225424 
L 144.145691 143.305357 
L 143.964286 143.38537 
L 143.824425 143.447531 
L 143.643454 143.528575 
L 143.471042 143.60643 
L 143.314531 143.677652 
L 143.283718 143.691735 
L 143.01087 143.817327 
L 142.884246 143.876155 
L 142.713199 143.95617 
L 142.557013 144.029786 
L 142.450167 144.080451 
L 142.290431 144.156661 
L 142.112951 144.241991 
L 141.967528 144.312424 
L 141.855115 144.367189 
L 141.575238 144.504754 
L 141.47633 144.553787 
L 141.406578 144.588497 
L 141.251566 144.666024 
L 140.982005 144.802129 
L 140.918 144.834687 
L 140.691208 144.950802 
L 140.581848 145.007212 
L 140.380854 145.111604 
L 140.174393 145.219803 
L 140.154527 145.230267 
L 139.993435 145.31545 
L 139.783231 145.427512 
L 139.659737 145.49383 
L 139.508957 145.575288 
L 139.3611 145.655687 
L 139.118085 145.788959 
L 138.916051 145.90083 
L 138.846669 145.939474 
L 138.702523 146.020133 
L 138.459595 146.157204 
L 138.292148 146.252523 
L 138.248351 146.277567 
L 138.046154 146.393802 
L 138.046154 138.046154 
L 138.049526 138.69436 
L 138.052898 138.962843 
L 138.056269 139.168849 
L 138.059641 139.342513 
L 138.063013 139.495507 
L 138.066385 139.63382 
L 138.069757 139.761006 
L 138.073128 139.879383 
L 138.0765 139.990561 
L 138.079872 140.095711 
L 138.083244 140.195718 
L 138.086616 140.29127 
L 138.089988 140.382913 
L 138.093359 140.471091 
L 138.100103 140.638451 
L 138.106847 140.795625 
L 138.11359 140.944273 
L 138.120334 141.085644 
L 138.127078 141.220712 
L 138.133821 141.350249 
L 138.140565 141.474883 
L 138.147309 141.59513 
L 138.154052 141.711421 
L 138.16178 141.840284 
L 138.169508 141.964897 
L 138.177235 142.085653 
L 138.184963 142.202888 
L 138.200418 142.427917 
L 138.215873 142.641889 
L 138.231328 142.846283 
L 138.246783 143.042274 
L 138.262238 143.230815 
L 138.277693 143.412693 
L 138.293148 143.588562 
L 138.308603 143.758977 
L 138.324058 143.924414 
L 138.339513 144.085281 
L 138.354968 144.241933 
L 138.370424 144.394684 
L 138.385879 144.543809 
L 138.401334 144.689551 
L 138.427726 144.931225 
L 138.454119 145.164601 
L 138.480512 145.390471 
L 138.506904 145.609506 
L 138.533027 145.820138 
L 138.55915 146.025126 
L 138.585272 146.224895 
L 138.611395 146.419818 
L 138.637518 146.610226 
L 138.66364 146.796413 
L 138.689763 146.978644 
L 138.715886 147.157156 
L 138.75777 147.436146 
L 138.799655 147.706901 
L 138.838074 147.948591 
L 138.876493 148.184375 
L 138.914912 148.414656 
L 138.953331 148.639793 
L 139.00254 148.921161 
L 139.05175 149.195213 
L 139.10096 149.462476 
L 139.150169 149.723417 
L 139.212273 150.044345 
L 139.274377 150.356597 
L 139.332819 150.64309 
L 139.391261 150.922945 
L 139.449703 151.196586 
L 139.508145 151.464394 
L 139.554319 151.672084 
L 139.600492 151.876502 
L 139.648089 152.083943 
L 139.695685 152.288204 
L 139.790877 152.687716 
L 139.88419 153.068442 
L 139.977502 153.43919 
L 140.054588 153.738443 
L 140.131674 154.031724 
L 140.216094 154.346438 
L 140.300514 154.654761 
L 140.345256 154.815699 
L 140.419868 155.080438 
L 140.494481 155.340802 
L 140.581011 155.637534 
L 140.667541 155.928924 
L 140.774563 156.282315 
L 140.881586 156.628371 
L 141.009717 157.033593 
L 141.09922 157.311091 
L 141.188723 157.584237 
L 141.270642 157.830578 
L 141.35256 158.073554 
L 141.457663 158.380562 
L 141.583828 158.742374 
L 141.729045 159.150211 
L 141.879276 159.562965 
L 142.029507 159.966919 
L 142.122536 160.212864 
L 142.252531 160.551392 
L 142.427761 160.998651 
L 142.584781 161.391039 
L 142.722113 161.728043 
L 142.834557 161.999858 
L 142.947001 162.2681 
L 142.997235 162.386812 
L 143.168264 162.785954 
L 143.326103 163.147648 
L 143.44989 163.427018 
L 143.573677 163.702749 
L 143.638992 163.84681 
L 143.775636 164.145094 
L 143.946093 164.511488 
L 144.075932 164.786476 
L 144.20577 165.058041 
L 144.295643 165.244064 
L 144.527858 165.717575 
L 144.611009 165.884699 
L 144.742798 166.147041 
L 144.987841 166.626811 
L 145.106892 166.856265 
L 145.178212 166.992621 
L 145.332406 167.28465 
L 145.595391 167.774256 
L 145.74014 168.039347 
L 145.825708 168.194631 
L 146.041664 168.581959 
L 146.214646 168.887612 
L 146.296293 169.030497 
L 146.480978 169.350509 
L 146.724337 169.765616 
L 146.879512 170.026525 
L 146.998415 170.224508 
L 147.167195 170.50272 
L 147.27213 170.674055 
L 147.403105 170.886183 
L 147.523865 171.0801 
L 147.736878 171.418345 
L 147.876239 171.637064 
L 148.083903 171.959302 
L 148.283077 172.264328 
L 148.381296 172.413327 
L 148.543991 172.658109 
L 148.720671 172.921127 
L 148.800433 173.038927 
L 148.977617 173.298552 
L 149.170928 173.578638 
L 149.371852 173.866327 
L 149.438206 173.960581 
L 149.651186 174.260637 
L 149.78907 174.45291 
L 149.870811 174.566171 
L 150.143215 174.939799 
L 150.234123 175.063202 
L 150.427763 175.323958 
L 150.637923 175.603783 
L 150.758322 175.762629 
L 150.841201 175.871364 
L 151.004569 176.084258 
L 151.212121 176.352019 
L 151.397505 176.588665 
L 151.437897 176.639915 
L 151.741056 177.021084 
L 151.789238 177.081104 
L 152.015901 177.361438 
L 152.112661 177.480106 
L 152.365819 177.787791 
L 152.43974 177.876882 
L 152.564453 178.026429 
L 152.765483 178.265505 
L 152.953495 178.486916 
L 153.135988 178.699843 
L 153.189989 178.762479 
L 153.453808 179.066088 
L 153.576761 179.206241 
L 153.774687 179.430094 
L 153.895393 179.565555 
L 153.95064 179.627291 
L 154.158277 179.85785 
L 154.284187 179.996541 
L 154.432197 180.158512 
L 154.630706 180.373957 
L 154.791016 180.546471 
L 154.978495 180.746576 
L 155.055673 180.828441 
L 155.333593 181.120802 
L 155.452253 181.244481 
L 155.531535 181.326738 
L 155.788699 181.591488 
L 155.850366 181.65451 
L 156.107595 181.91548 
L 156.15871 181.966974 
L 156.328031 182.136698 
L 156.542572 182.349887 
L 156.744385 182.548552 
L 156.900823 182.701313 
L 156.938228 182.737682 
L 157.219343 183.009062 
L 157.263481 183.051364 
L 157.411683 183.192795 
L 157.637034 183.406076 
L 157.695328 183.460902 
L 157.850184 183.605864 
L 158.126129 183.861745 
L 158.239873 183.966321 
L 158.39082 184.104301 
L 158.5526 184.251179 
L 158.741207 184.421112 
L 158.89462 184.558314 
L 159.006611 184.657898 
L 159.17 184.802322 
L 159.339022 184.95066 
L 159.569204 185.150946 
L 159.635346 185.208133 
L 159.847402 185.390388 
L 159.986753 185.509259 
L 160.075622 185.584698 
L 160.213302 185.701009 
L 160.462382 185.909706 
L 160.548048 185.980974 
L 160.792436 186.182869 
L 160.976437 186.333504 
L 160.998953 186.351856 
L 161.286659 186.584833 
L 161.322734 186.613847 
L 161.598279 186.834006 
L 161.611071 186.844165 
L 161.896459 187.069392 
L 162.045481 187.185931 
L 162.167861 187.281091 
L 162.389348 187.452079 
L 162.523177 187.554628 
L 162.612183 187.622513 
L 162.779063 187.749114 
L 163.014149 187.925965 
L 163.109443 187.997159 
L 163.276604 188.121364 
L 163.365076 188.186751 
L 163.531268 188.308926 
L 163.670614 188.410714 
L 163.952966 188.61516 
L 163.990498 188.642156 
L 164.258429 188.833646 
L 164.2955 188.859973 
L 164.536327 189.030013 
L 164.697845 189.143102 
L 164.853412 189.251307 
L 164.971908 189.333258 
L 165.076735 189.405417 
L 165.214566 189.499818 
L 165.473915 189.67598 
L 165.659628 189.800958 
L 165.75715 189.8662 
L 165.896786 189.959154 
L 166.00949 190.033784 
L 166.210518 190.166032 
L 166.351699 190.258246 
L 166.512352 190.362517 
L 166.672472 190.465745 
L 166.782637 190.536366 
L 166.989173 190.66789 
L 167.179227 190.787913 
L 167.306741 190.867904 
L 167.411129 190.93307 
L 167.587847 191.042737 
L 167.833114 191.193595 
L 167.911653 191.241573 
L 168.091658 191.350936 
L 168.329818 191.494354 
L 168.376084 191.522048 
L 168.590388 191.649617 
L 168.664018 191.693179 
L 168.841021 191.797343 
L 169.059958 191.925102 
L 169.2 192.006198 
z
" style="fill:#808080;opacity:0.5;"/>
   </g>
   <g id="patch_5">
    <path clip-path="url(#p71c994d3ed)" d="M 169.2 192.006198 
L 168.843463 192.21048 
L 168.627044 192.332963 
L 168.221036 192.559684 
L 168.001298 192.680739 
L 167.667094 192.862651 
L 167.291233 193.064095 
L 166.863924 193.289114 
L 166.666671 193.391565 
L 166.283625 193.587974 
L 166.138789 193.661371 
L 165.62924 193.915841 
L 165.502664 193.978154 
L 164.989025 194.22738 
L 164.721206 194.355035 
L 164.655271 194.386223 
L 164.034538 194.675231 
L 163.900116 194.736728 
L 163.583851 194.879899 
L 163.229227 195.037919 
L 163.092252 195.098248 
L 162.523943 195.344377 
L 162.366642 195.411321 
L 161.88339 195.613807 
L 161.719207 195.681517 
L 161.489766 195.775224 
L 160.919099 196.003698 
L 160.75994 196.066258 
L 160.426092 196.195848 
L 159.99037 196.361674 
L 159.95442 196.37519 
L 159.351369 196.59815 
L 159.147738 196.671845 
L 158.794553 196.797771 
L 158.444949 196.920067 
L 158.395088 196.93732 
L 157.866203 197.117417 
L 157.627281 197.197045 
L 157.396986 197.272785 
L 157.028297 197.391977 
L 156.593596 197.529268 
L 156.473829 197.566481 
L 156.134286 197.670545 
L 155.604117 197.828814 
L 155.442268 197.876111 
L 155.234629 197.936093 
L 154.737408 198.076568 
L 154.330538 198.188214 
L 154.122215 198.244233 
L 153.849121 198.316501 
L 153.434971 198.423574 
L 153.383896 198.436568 
L 153.027425 198.525985 
L 152.631175 198.622764 
L 152.234058 198.717003 
L 152.112453 198.745311 
L 151.789186 198.819319 
L 151.460332 198.892751 
L 151.111102 198.968692 
L 150.591109 199.077888 
L 150.340193 199.128927 
L 150.002323 199.195958 
L 149.837296 199.227993 
L 149.506433 199.290831 
L 149.252447 199.337813 
L 148.888756 199.403195 
L 148.62284 199.449592 
L 148.095359 199.538121 
L 147.917404 199.566938 
L 147.677871 199.604894 
L 147.376907 199.651231 
L 147.100953 199.692396 
L 146.588531 199.765489 
L 146.354944 199.797369 
L 146.171876 199.821725 
L 145.67045 199.885612 
L 145.371326 199.921758 
L 145.005914 199.963924 
L 144.676503 200.000064 
L 144.431188 200.025827 
L 144.030441 200.065803 
L 143.757523 200.091531 
L 143.677731 200.098824 
L 143.356057 200.127177 
L 142.921922 200.162781 
L 142.716813 200.17854 
L 142.178178 200.216685 
L 141.878717 200.235863 
L 141.510998 200.257434 
L 141.258823 200.270966 
L 140.998459 200.283863 
L 140.770534 200.294256 
L 140.339994 200.311608 
L 139.986153 200.323637 
L 139.822655 200.328515 
L 139.485863 200.337211 
L 139.160962 200.343872 
L 138.855331 200.348592 
L 138.410875 200.352779 
L 138.323735 200.353228 
L 138.036543 200.353845 
L 137.562039 200.351965 
L 137.417754 200.350677 
L 136.850874 200.34238 
L 136.504386 200.334768 
L 136.404294 200.33221 
L 135.869976 200.315832 
L 135.611795 200.306273 
L 135.432298 200.298995 
L 135.114027 200.284817 
L 134.779468 200.268154 
L 134.355539 200.244449 
L 134.198429 200.234927 
L 133.769909 200.206931 
L 133.408913 200.181044 
L 133.04086 200.152478 
L 132.866751 200.138201 
L 132.538344 200.109932 
L 132.12835 200.072182 
L 131.916365 200.051591 
L 131.67597 200.027355 
L 131.455414 200.00429 
L 130.95575 199.9491 
L 130.701465 199.919444 
L 130.41809 199.885148 
L 130.003036 199.832534 
L 129.817395 199.808084 
L 129.395199 199.750364 
L 129.083932 199.705923 
L 128.782916 199.661419 
L 128.598896 199.633473 
L 128.064808 199.549172 
L 127.961882 199.53238 
L 127.611775 199.473935 
L 127.096725 199.384221 
L 126.983158 199.36384 
L 126.767731 199.324582 
L 126.458379 199.266837 
L 125.970797 199.172533 
L 125.789075 199.136354 
L 125.3016 199.036521 
L 125.077482 198.989259 
L 124.806991 198.931071 
L 124.487674 198.860759 
L 123.977441 198.744752 
L 123.657776 198.669772 
L 123.619972 198.660787 
L 123.151385 198.547347 
L 122.961199 198.500208 
L 122.561636 198.399101 
L 122.181978 198.300419 
L 122.01192 198.255388 
L 121.602302 198.144808 
L 121.241617 198.044954 
L 121.003309 197.977698 
L 120.634338 197.871543 
L 120.458685 197.82014 
L 119.906248 197.654814 
L 119.673299 197.583426 
L 119.491573 197.527042 
L 119.24243 197.448751 
L 118.722464 197.281646 
L 118.347317 197.157949 
L 118.187153 197.104334 
L 117.782736 196.966799 
L 117.537457 196.881873 
L 117.286501 196.793795 
L 116.835039 196.632305 
L 116.679268 196.575674 
L 116.289003 196.431725 
L 116.094448 196.358855 
L 115.748079 196.227288 
L 115.294905 196.051578 
L 114.934314 195.908848 
L 114.739373 195.830602 
L 114.457616 195.716158 
L 114.169742 195.59757 
L 113.793265 195.439933 
L 113.597644 195.356876 
L 113.00716 195.101367 
L 112.753078 194.989185 
L 112.671886 194.953052 
L 112.1545 194.719523 
L 111.803353 194.55778 
L 111.511085 194.421136 
L 111.271938 194.307952 
L 110.89251 194.125813 
L 110.623674 193.994846 
L 110.406594 193.887924 
L 110.017169 193.693477 
L 109.728549 193.547161 
L 109.351663 193.353248 
L 109.039634 193.190241 
L 108.799506 193.063261 
L 108.372203 192.833974 
L 108.116352 192.694626 
L 107.731851 192.482277 
L 107.376939 192.283113 
L 107.093515 192.121866 
L 106.892308 192.006198 
L 106.892308 200.353846 
L 106.898533 201.23457 
L 106.904757 201.599346 
L 106.910982 201.879228 
L 106.917207 202.115161 
L 106.923432 202.323007 
L 106.929657 202.5109 
L 106.935882 202.683672 
L 106.942107 202.844473 
L 106.948331 202.995488 
L 106.954556 203.138312 
L 106.967006 203.403923 
L 106.979456 203.648141 
L 106.991905 203.87542 
L 107.004355 204.088852 
L 107.016805 204.290691 
L 107.029254 204.482638 
L 107.041704 204.666013 
L 107.054154 204.841867 
L 107.066604 205.011053 
L 107.091503 205.332111 
L 107.108224 205.536493 
L 107.124944 205.733063 
L 107.141665 205.922649 
L 107.158385 206.10594 
L 107.191827 206.455892 
L 107.225268 206.786661 
L 107.258709 207.101069 
L 107.29215 207.401305 
L 107.325592 207.689111 
L 107.359033 207.965896 
L 107.392474 208.232822 
L 107.425915 208.490859 
L 107.459357 208.740828 
L 107.492798 208.98343 
L 107.55968 209.448872 
L 107.626563 209.891159 
L 107.703636 210.376108 
L 107.780709 210.838084 
L 107.857783 211.280002 
L 107.934856 211.704204 
L 108.026233 212.1868 
L 108.117611 212.649791 
L 108.208989 213.095316 
L 108.300366 213.525145 
L 108.401551 213.984586 
L 108.502735 214.428311 
L 108.593739 214.815163 
L 108.684743 215.191375 
L 108.775748 215.557735 
L 108.866752 215.914941 
L 109.008973 216.456293 
L 109.151194 216.978812 
L 109.271419 217.407107 
L 109.391644 217.824079 
L 109.508663 218.219812 
L 109.625681 218.606218 
L 109.758887 219.035457 
L 109.892093 219.454125 
L 110.071692 220.003062 
L 110.251291 220.535476 
L 110.370007 220.878963 
L 110.488723 221.21612 
L 110.726155 221.872629 
L 110.897116 222.331612 
L 111.068076 222.779901 
L 111.214071 223.154736 
L 111.391466 223.600822 
L 111.56886 224.037178 
L 111.7414 224.452763 
L 111.91394 224.860087 
L 112.138306 225.378066 
L 112.362672 225.883567 
L 112.579894 226.36177 
L 112.883016 227.011787 
L 113.091047 227.446907 
L 113.299079 227.873576 
L 113.394719 228.067004 
L 113.693456 228.660596 
L 113.975038 229.206093 
L 114.192924 229.619358 
L 114.410811 230.025267 
L 114.63807 230.441124 
L 114.865329 230.849616 
L 114.906823 230.923431 
L 115.148708 231.34911 
L 115.390593 231.767159 
L 115.646953 232.202232 
L 115.916949 232.65191 
L 116.3904 233.420365 
L 116.577399 233.717155 
L 116.883685 234.195414 
L 117.084114 234.503267 
L 117.375795 234.944311 
L 117.667476 235.377373 
L 117.907676 235.728215 
L 118.254913 236.22649 
L 118.368114 236.386718 
L 118.858989 237.06939 
L 119.215315 237.553036 
L 119.308447 237.677853 
L 119.865943 238.411688 
L 120.013286 238.601926 
L 120.345064 239.024814 
L 120.561615 239.296831 
L 120.830903 239.630799 
L 121.25286 240.144803 
L 121.556865 240.508301 
L 121.952047 240.972554 
L 122.223994 241.286759 
L 122.414073 241.503883 
L 122.969987 242.127455 
L 123.101937 242.273019 
L 123.597372 242.811459 
L 123.834737 243.064986 
L 124.239075 243.490417 
L 124.459625 243.719124 
L 124.808232 244.075917 
L 124.995641 244.265384 
L 125.451709 244.719774 
L 125.665685 244.929759 
L 126.143249 245.391216 
L 126.353117 245.590923 
L 126.475666 245.706683 
L 127.017565 246.211133 
L 127.369287 246.532196 
L 127.53221 246.679258 
L 128.024055 247.116974 
L 128.038649 247.12982 
L 128.402095 247.447152 
L 128.805352 247.793502 
L 129.021353 247.976581 
L 129.379262 248.276256 
L 129.825351 248.643447 
L 130.182704 248.932639 
L 130.286126 249.015524 
L 130.552904 249.227668 
L 131.128422 249.677304 
L 131.421726 249.902312 
L 131.621829 250.054244 
L 131.937624 250.291446 
L 132.288836 250.5516 
L 132.549686 250.742367 
L 132.877897 250.979466 
L 133.244487 251.240481 
L 133.535773 251.445053 
L 133.950092 251.731784 
L 134.108632 251.840198 
L 134.564728 252.148116 
L 134.650726 252.205521 
L 134.950662 252.404124 
L 135.508278 252.766787 
L 135.79702 252.951274 
L 136.043583 253.10705 
L 136.387037 253.321364 
L 136.54179 253.41692 
L 137.090323 253.750636 
L 137.283584 253.866376 
L 137.694073 254.10908 
L 137.918263 254.23985 
L 138.072515 254.329101 
L 138.527661 254.589039 
L 138.923087 254.810775 
L 139.010404 254.85923 
L 139.533042 255.145453 
L 139.784931 255.281091 
L 140.1655 255.483206 
L 140.31652 255.562478 
L 140.702737 255.762821 
L 141.072034 255.951203 
L 141.329703 256.080815 
L 141.604061 256.217185 
L 141.808152 256.317541 
L 142.262322 256.537563 
L 142.57073 256.684393 
L 143.032325 256.900299 
L 143.077977 256.921403 
L 143.550752 257.137335 
L 143.841308 257.267687 
L 144.134208 257.397291 
L 144.313638 257.475799 
L 144.713739 257.648449 
L 145.231163 257.86683 
L 145.315155 257.901763 
L 145.854462 258.122647 
L 145.920986 258.149486 
L 146.253496 258.282306 
L 146.743893 258.474168 
L 147.047446 258.590543 
L 147.319734 258.693391 
L 147.653612 258.817524 
L 147.997451 258.943098 
L 148.115656 258.98574 
L 148.448569 259.104392 
L 148.992144 259.29357 
L 149.184277 259.359095 
L 149.551693 259.482457 
L 149.772352 259.555324 
L 150.1025 259.662648 
L 150.275537 259.718088 
L 150.580703 259.814508 
L 151.094307 259.972907 
L 151.468706 260.085326 
L 151.765476 260.172622 
L 151.92986 260.220287 
L 152.357101 260.341889 
L 152.749555 260.450696 
L 152.869911 260.483512 
L 153.185511 260.568335 
L 153.461622 260.641092 
L 153.940313 260.764031 
L 154.023617 260.785013 
L 154.61041 260.929356 
L 154.764024 260.966148 
L 155.078799 261.040255 
L 155.451879 261.12586 
L 155.826202 261.209331 
L 156.07014 261.262428 
L 156.479949 261.349328 
L 156.546947 261.363262 
L 156.981578 261.45179 
L 157.355943 261.525464 
L 157.617577 261.575542 
L 157.897755 261.627885 
L 158.316572 261.703659 
L 158.531065 261.741323 
L 158.993161 261.819845 
L 159.330573 261.874923 
L 159.46276 261.895984 
L 159.684954 261.930728 
L 160.021901 261.981851 
L 160.499854 262.051139 
L 160.73385 262.083683 
L 161.085461 262.130887 
L 161.249259 262.152181 
L 161.544646 262.189468 
L 162.048534 262.249767 
L 162.375787 262.286702 
L 162.667135 262.318112 
L 163.02144 262.354442 
L 163.351712 262.386467 
L 163.520511 262.402149 
L 163.741588 262.421988 
L 164.307948 262.469193 
L 164.349006 262.472413 
L 164.864092 262.51049 
L 165.173594 262.531306 
L 165.510031 262.552179 
L 165.822386 262.569923 
L 166.069022 262.582823 
L 166.463578 262.601421 
L 166.635919 262.608758 
L 167.035183 262.62392 
L 167.211603 262.629803 
L 167.772159 262.645176 
L 167.997567 262.649935 
L 168.267637 262.654562 
L 168.549525 262.658143 
L 168.766862 262.660033 
L 169.2 262.661538 
z
" style="fill:#808080;opacity:0.5;"/>
   </g>
   <g id="patch_6">
    <path clip-path="url(#p71c994d3ed)" d="M 200.353846 146.393802 
L 200.192255 146.300829 
L 200.04742 146.218043 
L 199.892275 146.129933 
L 199.714786 146.029852 
L 199.602731 145.96706 
L 199.384129 145.845435 
L 199.23528 145.763275 
L 199.098105 145.688027 
L 198.94575 145.604975 
L 198.73659 145.491853 
L 198.655601 145.448327 
L 198.440851 145.333658 
L 198.268893 145.242613 
L 198.099164 145.153422 
L 197.955972 145.078693 
L 197.923778 145.061956 
L 197.714134 144.953551 
L 197.500199 144.843962 
L 197.38409 144.78492 
L 197.20077 144.692321 
L 197.095447 144.639462 
L 196.901781 144.542916 
L 196.729862 144.457914 
L 196.629643 144.408666 
L 196.409259 144.30115 
L 196.256931 144.227462 
L 196.130959 144.166908 
L 195.971514 144.090763 
L 195.8413 144.028988 
L 195.597205 143.914178 
L 195.558099 143.895905 
L 195.326795 143.788494 
L 195.186139 143.723738 
L 194.997921 143.637748 
L 194.940608 143.611713 
L 194.729021 143.516204 
L 194.566676 143.443564 
L 194.406241 143.372323 
L 194.320088 143.334291 
L 194.07427 143.226626 
L 193.958781 143.176479 
L 193.776912 143.09807 
L 193.574948 143.011799 
L 193.408003 142.94112 
L 193.333994 142.909971 
L 193.10218 142.813127 
L 192.92913 142.741548 
L 192.766228 142.674722 
L 192.717052 142.654654 
L 192.550888 142.587208 
L 192.298157 142.485689 
L 192.216229 142.453054 
L 192.060835 142.391524 
L 191.946978 142.346747 
L 191.722503 142.259222 
L 191.640076 142.227333 
L 191.466861 142.160759 
L 191.230841 142.070997 
L 191.122154 142.030029 
L 190.957357 141.968352 
L 190.863483 141.933456 
L 190.629414 141.847191 
L 190.554604 141.819844 
L 190.406123 141.765888 
L 190.13947 141.670057 
L 189.955636 141.604786 
L 189.838747 141.56362 
L 189.742264 141.529838 
L 189.604174 141.481797 
L 189.419292 141.418044 
L 189.310204 141.380732 
L 189.10094 141.309785 
L 188.943034 141.256798 
L 188.711662 141.180004 
L 188.614954 141.148204 
L 188.500247 141.110712 
L 188.235318 141.025057 
L 188.215571 141.018725 
L 187.931258 140.928359 
L 187.868529 140.908623 
L 187.657868 140.842875 
L 187.474747 140.786387 
L 187.428868 140.772332 
L 187.236325 140.713763 
L 187.118364 140.678217 
L 186.875598 140.605861 
L 186.795482 140.582218 
L 186.531326 140.50509 
L 186.440125 140.478754 
L 186.263964 140.428312 
L 186.154405 140.397223 
L 186.004328 140.354987 
L 185.791289 140.295727 
L 185.704742 140.271885 
L 185.558476 140.231897 
L 185.311365 140.165206 
L 185.226648 140.142592 
L 185.027562 140.089953 
L 184.863137 140.047009 
L 184.720298 140.01009 
L 184.474872 139.947499 
L 184.313124 139.906828 
L 184.165487 139.870107 
L 184.142978 139.864542 
L 183.890508 139.802732 
L 183.775342 139.774907 
L 183.611547 139.735731 
L 183.514453 139.71273 
L 183.366965 139.678105 
L 183.125951 139.622335 
L 182.957926 139.584051 
L 182.778307 139.543665 
L 182.644946 139.514041 
L 182.438426 139.468769 
L 182.361799 139.452158 
L 182.186553 139.414549 
L 182.033318 139.382095 
L 181.810165 139.335552 
L 181.67205 139.307171 
L 181.612172 139.294969 
L 181.470889 139.266419 
L 181.255433 139.223534 
L 181.12224 139.197418 
L 180.957791 139.165589 
L 180.768771 139.12957 
L 180.693877 139.115465 
L 180.474791 139.07475 
L 180.375297 139.056528 
L 180.180002 139.021244 
L 180.001513 138.989558 
L 179.899565 138.9717 
L 179.717758 138.940287 
L 179.519892 138.906728 
L 179.390118 138.885073 
L 179.16287 138.847832 
L 179.122685 138.841337 
L 178.931888 138.810862 
L 178.728048 138.778974 
L 178.551844 138.751967 
L 178.382386 138.72648 
L 178.230777 138.704081 
L 178.121404 138.688158 
L 178.037817 138.676123 
L 177.845802 138.648914 
L 177.659862 138.623147 
L 177.502204 138.601746 
L 177.409251 138.58932 
L 177.112656 138.550623 
L 177.082324 138.546747 
L 176.91279 138.525363 
L 176.665856 138.495059 
L 176.577275 138.484433 
L 176.439409 138.468149 
L 176.195774 138.440135 
L 176.054235 138.424306 
L 176.000569 138.41839 
L 175.808961 138.397651 
L 175.625894 138.378396 
L 175.409954 138.356387 
L 175.294031 138.344885 
L 175.18486 138.334253 
L 175.012725 138.317883 
L 174.889734 138.306482 
L 174.633051 138.283479 
L 174.559466 138.277082 
L 174.333943 138.258024 
L 174.249716 138.251118 
L 174.059429 138.235938 
L 173.820106 138.21768 
L 173.786624 138.2152 
L 173.573382 138.199827 
L 173.498198 138.194583 
L 173.207353 138.175155 
L 173.096303 138.168097 
L 173.027771 138.163841 
L 172.73296 138.146397 
L 172.63946 138.141157 
L 172.559017 138.136762 
L 172.315489 138.124092 
L 172.196615 138.118255 
L 172.069778 138.112277 
L 171.869135 138.10335 
L 171.691058 138.09597 
L 171.5706 138.091267 
L 171.397292 138.08491 
L 171.278246 138.080823 
L 171.118835 138.075707 
L 170.955097 138.070878 
L 170.747768 138.065381 
L 170.557356 138.06094 
L 170.524738 138.060238 
L 170.316727 138.056162 
L 170.082034 138.052397 
L 170.015513 138.051491 
L 169.855081 138.049598 
L 169.599736 138.047436 
L 169.575122 138.047283 
L 169.329814 138.046289 
L 169.2 138.046154 
L 169.2 262.661538 
L 169.404984 262.661201 
L 169.524822 262.660692 
L 169.633164 262.660033 
L 169.787813 262.658766 
L 170.030747 262.656 
L 170.134189 262.654535 
L 170.34061 262.651098 
L 170.508415 262.647799 
L 170.593991 262.645943 
L 170.762138 262.641953 
L 170.845249 262.639813 
L 171.012072 262.635183 
L 171.219171 262.628813 
L 171.394114 262.622895 
L 171.626278 262.614281 
L 171.767109 262.608633 
L 171.939034 262.601306 
L 171.95894 262.600427 
L 172.118401 262.593154 
L 172.281357 262.585299 
L 172.446984 262.576877 
L 172.671447 262.564758 
L 172.856987 262.554127 
L 172.933618 262.549574 
L 173.083345 262.540405 
L 173.316796 262.525387 
L 173.464736 262.515414 
L 173.566747 262.508331 
L 173.741091 262.495837 
L 173.939455 262.481023 
L 174.026692 262.474306 
L 174.239888 262.457373 
L 174.42107 262.442403 
L 174.538943 262.432379 
L 174.613928 262.425884 
L 174.779471 262.411223 
L 175.064958 262.384893 
L 175.148437 262.376944 
L 175.290656 262.363139 
L 175.508399 262.341366 
L 175.674517 262.324235 
L 175.840483 262.306671 
L 175.98252 262.291282 
L 176.118381 262.276253 
L 176.277989 262.258213 
L 176.399733 262.244171 
L 176.504683 262.231872 
L 176.63677 262.216137 
L 176.931618 262.179978 
L 177.088155 262.160201 
L 177.183418 262.147969 
L 177.350342 262.126174 
L 177.447756 262.113243 
L 177.600774 262.092614 
L 177.839717 262.05963 
L 177.927432 262.047285 
L 178.088641 262.024265 
L 178.290991 261.994761 
L 178.426379 261.974642 
L 178.566863 261.953443 
L 178.822541 261.914022 
L 178.926666 261.897656 
L 179.123402 261.86624 
L 179.146572 261.862498 
L 179.297939 261.837829 
L 179.57588 261.791535 
L 179.666343 261.776189 
L 179.876041 261.740088 
L 179.959026 261.725598 
L 180.181167 261.68624 
L 180.34781 261.656169 
L 180.470977 261.633644 
L 180.639164 261.602471 
L 180.808971 261.570513 
L 180.926847 261.548042 
L 181.140548 261.506702 
L 181.239799 261.487239 
L 181.355156 261.464407 
L 181.593119 261.416593 
L 181.784797 261.377378 
L 181.915456 261.350286 
L 182.10745 261.309947 
L 182.139327 261.303189 
L 182.312325 261.266205 
L 182.538229 261.217137 
L 182.609932 261.201379 
L 182.807012 261.15761 
L 183.014525 261.1108 
L 183.180524 261.072817 
L 183.215064 261.064854 
L 183.506272 260.996893 
L 183.557559 260.984771 
L 183.813007 260.923711 
L 183.935292 260.894078 
L 184.06194 260.863112 
L 184.171754 260.836034 
L 184.312097 260.801121 
L 184.578062 260.734006 
L 184.671873 260.710036 
L 184.816762 260.672709 
L 184.982116 260.629657 
L 185.110595 260.59587 
L 185.297647 260.546157 
L 185.411091 260.515703 
L 185.660437 260.44796 
L 185.812816 260.406014 
L 185.999827 260.353966 
L 186.063791 260.336019 
L 186.272931 260.276826 
L 186.471306 260.219951 
L 186.621874 260.176307 
L 186.761777 260.135386 
L 186.936987 260.083636 
L 187.086977 260.038891 
L 187.196069 260.006088 
L 187.28441 259.979366 
L 187.458546 259.926273 
L 187.711486 259.84816 
L 187.891244 259.791931 
L 187.945369 259.774883 
L 188.200075 259.693931 
L 188.346164 259.646957 
L 188.440962 259.616262 
L 188.627413 259.555401 
L 188.841907 259.484583 
L 188.992972 259.434188 
L 189.097289 259.399137 
L 189.1882 259.368424 
L 189.376251 259.304397 
L 189.536316 259.24937 
L 189.70012 259.192555 
L 189.914123 259.117556 
L 190.04995 259.069501 
L 190.150681 259.033634 
L 190.373276 258.953683 
L 190.43845 258.930093 
L 190.609119 258.867931 
L 190.73095 258.823212 
L 190.951223 258.741626 
L 191.048423 258.705324 
L 191.342142 258.594502 
L 191.352848 258.590431 
L 191.635121 258.482272 
L 191.665416 258.47057 
L 191.887117 258.384383 
L 192.030045 258.328302 
L 192.144454 258.283118 
L 192.42379 258.171699 
L 192.49895 258.141453 
L 192.711533 258.055288 
L 192.86037 257.994417 
L 193.072262 257.906984 
L 193.098511 257.896089 
L 193.327122 257.800609 
L 193.537149 257.711947 
L 193.578395 257.694428 
L 193.723786 257.632397 
L 193.896772 257.558024 
L 194.021301 257.5041 
L 194.219732 257.417508 
L 194.466838 257.308525 
L 194.573052 257.261286 
L 194.664826 257.220279 
L 194.796354 257.161198 
L 195.04125 257.050216 
L 195.140769 257.004751 
L 195.388992 256.890429 
L 195.542485 256.819074 
L 195.614215 256.785555 
L 195.773758 256.710602 
L 196.033969 256.587169 
L 196.109655 256.55099 
L 196.316208 256.451616 
L 196.482949 256.370711 
L 196.536711 256.344495 
L 196.770548 256.229721 
L 196.866338 256.182354 
L 197.004116 256.113865 
L 197.25336 255.988885 
L 197.434045 255.897407 
L 197.550247 255.838186 
L 197.697664 255.762615 
L 197.787952 255.716085 
L 198.06832 255.570407 
L 198.165512 255.519484 
L 198.283248 255.457505 
L 198.527583 255.327853 
L 198.65437 255.260026 
L 198.761486 255.202429 
L 198.894805 255.130366 
L 199.108531 255.013962 
L 199.206577 254.9602 
L 199.369414 254.870403 
L 199.631353 254.724622 
L 199.691776 254.690759 
L 199.937585 254.552088 
L 200.046365 254.490251 
L 200.215218 254.393691 
L 200.353846 254.313891 
z
" style="fill:#808080;opacity:0.5;"/>
   </g>
   <g id="patch_7">
    <path clip-path="url(#p71c994d3ed)" d="M 231.507692 200.353846 
L 231.504581 199.731214 
L 231.50147 199.473323 
L 231.498359 199.275443 
L 231.495248 199.108629 
L 231.492137 198.961668 
L 231.489026 198.828811 
L 231.485915 198.70664 
L 231.482804 198.592931 
L 231.479693 198.486137 
L 231.476582 198.385132 
L 231.473471 198.289067 
L 231.47036 198.197282 
L 231.467249 198.109251 
L 231.464138 198.024549 
L 231.457916 197.863784 
L 231.451694 197.712803 
L 231.445472 197.570012 
L 231.43925 197.434209 
L 231.433028 197.304461 
L 231.426806 197.180024 
L 231.420584 197.060298 
L 231.414362 196.944785 
L 231.40814 196.833071 
L 231.398692 196.669934 
L 231.389245 196.513745 
L 231.379797 196.363687 
L 231.370349 196.219093 
L 231.360902 196.079409 
L 231.351454 195.944167 
L 231.342007 195.812971 
L 231.332559 195.68548 
L 231.323111 195.561397 
L 231.313664 195.440466 
L 231.294768 195.207172 
L 231.275873 194.984071 
L 231.256978 194.76994 
L 231.238676 194.570145 
L 231.220374 194.377081 
L 231.202072 194.190116 
L 231.18377 194.00871 
L 231.165468 193.8324 
L 231.147166 193.660782 
L 231.128864 193.493505 
L 231.110562 193.330258 
L 231.09226 193.170768 
L 231.073959 193.014788 
L 231.037355 192.712505 
L 231.000751 192.421902 
L 230.964147 192.14174 
L 230.925218 191.854079 
L 230.886288 191.576013 
L 230.851818 191.337092 
L 230.817348 191.104468 
L 230.782877 190.877678 
L 230.748407 190.656313 
L 230.717261 190.460659 
L 230.686115 190.268895 
L 230.654969 190.080806 
L 230.623822 189.896191 
L 230.56153 189.536678 
L 230.499238 189.189083 
L 230.431995 188.825998 
L 230.364752 188.474384 
L 230.307301 188.182312 
L 230.249851 187.897351 
L 230.18885 187.602036 
L 230.12785 187.313692 
L 230.082146 187.101947 
L 230.036442 186.893688 
L 229.990738 186.688755 
L 229.945034 186.487001 
L 229.860969 186.123758 
L 229.776903 185.770044 
L 229.683647 185.387986 
L 229.590391 185.016009 
L 229.532884 184.791337 
L 229.439913 184.435261 
L 229.346943 184.087508 
L 229.261791 183.775856 
L 229.176639 183.470386 
L 229.053475 183.038824 
L 228.930311 182.618615 
L 228.87181 182.422766 
L 228.769094 182.084431 
L 228.666378 181.752815 
L 228.542432 181.361102 
L 228.448632 181.070483 
L 228.354833 180.784629 
L 228.269252 180.527802 
L 228.18367 180.274624 
L 228.137786 180.140339 
L 227.991097 179.71758 
L 227.844407 179.304333 
L 227.752812 179.050873 
L 227.650948 178.772948 
L 227.549084 178.499032 
L 227.366276 178.017041 
L 227.284306 177.804746 
L 227.181351 177.541317 
L 227.078396 177.281356 
L 226.890161 176.814649 
L 226.819858 176.64308 
L 226.61134 176.142556 
L 226.419786 175.693258 
L 226.377236 175.594762 
L 226.171765 175.125557 
L 226.076211 174.910867 
L 225.850044 174.411198 
L 225.720538 174.130245 
L 225.50832 173.67761 
L 225.354101 173.354486 
L 225.308324 173.259483 
L 225.080281 172.792229 
L 224.950599 172.530847 
L 224.839842 172.310014 
L 224.685449 172.005768 
L 224.4775 171.602385 
L 224.34794 171.354652 
L 224.184661 171.046243 
L 223.957341 170.623691 
L 223.831272 170.39266 
L 223.632681 170.033362 
L 223.515114 169.823256 
L 223.303619 169.450013 
L 223.152192 169.186403 
L 223.124472 169.138468 
L 222.821666 168.621128 
L 222.705202 168.425146 
L 222.559672 168.182525 
L 222.488953 168.06552 
L 222.215716 167.618813 
L 222.058604 167.36572 
L 221.928641 167.158381 
L 221.770273 166.908144 
L 221.600534 166.642832 
L 221.556607 166.574649 
L 221.26079 166.12049 
L 221.218713 166.056586 
L 221.035632 165.780506 
L 220.920845 165.609023 
L 220.780093 165.400413 
L 220.574388 165.098764 
L 220.434974 164.896463 
L 220.165368 164.510021 
L 220.062889 164.36475 
L 219.940554 164.192476 
L 219.825857 164.032074 
L 219.55289 163.654596 
L 219.430726 163.487565 
L 219.319334 163.33627 
L 219.169851 163.134731 
L 218.995794 162.902178 
L 218.861716 162.724569 
L 218.729563 162.550792 
L 218.495957 162.246666 
L 218.383107 162.101128 
L 218.164609 161.821839 
L 218.087416 161.723947 
L 217.878652 161.461207 
L 217.725631 161.270453 
L 217.570597 161.078742 
L 217.483241 160.971399 
L 217.245848 160.68213 
L 217.073508 160.474331 
L 216.93664 160.310598 
L 216.821037 160.173187 
L 216.631954 159.950155 
L 216.45348 159.741568 
L 216.378581 159.654583 
L 216.110238 159.345577 
L 215.965851 159.180995 
L 215.861424 159.062684 
L 215.75875 158.946947 
L 215.605876 158.775688 
L 215.39089 158.536981 
L 215.227404 158.357101 
L 215.101025 158.21901 
L 214.934645 158.038473 
L 214.739806 157.828859 
L 214.566486 157.644006 
L 214.43022 157.499725 
L 214.251352 157.311725 
L 214.088752 157.142175 
L 213.950871 156.999399 
L 213.884695 156.931196 
L 213.622091 156.662584 
L 213.513845 156.5528 
L 213.421893 156.459966 
L 213.233978 156.271454 
L 213.084802 156.122944 
L 212.850146 155.891353 
L 212.747208 155.790529 
L 212.491298 155.541883 
L 212.35844 155.413913 
L 212.255561 155.315339 
L 212.037467 155.107852 
L 211.934778 155.010851 
L 211.776947 154.862615 
L 211.687546 154.779105 
L 211.542239 154.644074 
L 211.330848 154.449161 
L 211.125845 154.26185 
L 211.050643 154.193558 
L 210.804444 153.971536 
L 210.733537 153.90803 
L 210.566019 153.758771 
L 210.383078 153.597001 
L 210.283819 153.509761 
L 210.006432 153.267928 
L 209.904416 153.179711 
L 209.755434 153.05157 
L 209.585285 152.906219 
L 209.468664 152.807204 
L 209.285911 152.653026 
L 209.087784 152.487227 
L 208.898704 152.330296 
L 208.778905 152.231514 
L 208.626294 152.106402 
L 208.542934 152.038403 
L 208.400045 151.9224 
L 208.106581 151.686337 
L 207.993518 151.596165 
L 207.816989 151.456232 
L 207.649536 151.32445 
L 207.591643 151.279104 
L 207.349287 151.090468 
L 207.292297 151.046388 
L 207.15799 150.942921 
L 206.916618 150.758431 
L 206.839243 150.699683 
L 206.682534 150.581282 
L 206.414846 150.380816 
L 206.35903 150.339298 
L 206.147235 150.182636 
L 206.042741 150.105852 
L 205.86155 149.9735 
L 205.613149 149.793673 
L 205.520875 149.727345 
L 205.415222 149.651714 
L 205.223143 149.515065 
L 204.980393 149.343926 
L 204.88169 149.274834 
L 204.767818 149.195476 
L 204.574944 149.061918 
L 204.371018 148.921871 
L 204.204353 148.808295 
L 204.042523 148.698768 
L 203.890448 148.596515 
L 203.868284 148.581667 
L 203.614517 148.412634 
L 203.461023 148.31126 
L 203.292546 148.200736 
L 203.162134 148.115719 
L 203.021785 148.02474 
L 202.923317 147.961228 
L 202.64952 147.786003 
L 202.617571 147.765687 
L 202.447433 147.657957 
L 202.281332 147.553524 
L 202.095972 147.437842 
L 201.851757 147.286801 
L 201.773335 147.238628 
L 201.665498 147.172647 
L 201.386465 147.003308 
L 201.296782 146.949304 
L 201.088576 146.824721 
L 200.918982 146.724053 
L 200.822432 146.667066 
L 200.672507 146.57904 
L 200.55983 146.513252 
L 200.353846 146.393802 
L 200.353846 254.313891 
L 200.440784 254.263603 
L 200.675705 254.126781 
L 200.82743 254.037682 
L 200.997731 253.936985 
L 201.152581 253.84479 
L 201.28544 253.765203 
L 201.494431 253.639099 
L 201.636818 253.552543 
L 201.81199 253.445339 
L 201.878729 253.404286 
L 202.125339 253.251583 
L 202.306021 253.138691 
L 202.460161 253.041702 
L 202.515446 253.006763 
L 202.649001 252.922019 
L 202.902018 252.760167 
L 203.027544 252.67923 
L 203.229715 252.547974 
L 203.316022 252.491602 
L 203.466442 252.392865 
L 203.682957 252.249648 
L 203.785741 252.181204 
L 203.930891 252.084048 
L 204.06702 251.992392 
L 204.274483 251.851702 
L 204.372348 251.784911 
L 204.578628 251.643233 
L 204.762758 251.515734 
L 204.85927 251.448513 
L 205.014386 251.339906 
L 205.245678 251.176652 
L 205.394647 251.070668 
L 205.521563 250.979853 
L 205.700382 250.85108 
L 205.863476 250.732791 
L 205.947556 250.671493 
L 206.110071 250.552404 
L 206.239811 250.456749 
L 206.511237 250.25495 
L 206.645573 250.154223 
L 206.816428 250.025295 
L 206.92286 249.944514 
L 207.159835 249.763354 
L 207.202872 249.73026 
L 207.460602 249.530821 
L 207.563273 249.450768 
L 207.65598 249.378189 
L 207.869093 249.210266 
L 208.034312 249.079042 
L 208.240576 248.913932 
L 208.318342 248.851309 
L 208.468647 248.729686 
L 208.624752 248.60255 
L 208.825818 248.437555 
L 208.888429 248.385889 
L 209.19388 248.131854 
L 209.319401 248.026503 
L 209.363244 247.989572 
L 209.567575 247.816541 
L 209.793353 247.623585 
L 209.88637 247.543547 
L 210.01766 247.430031 
L 210.201358 247.270125 
L 210.309961 247.174991 
L 210.553365 246.960152 
L 210.669227 246.85709 
L 210.899426 246.650783 
L 210.987625 246.57119 
L 211.119556 246.451562 
L 211.339427 246.250656 
L 211.447961 246.150771 
L 211.598474 246.011462 
L 211.856918 245.770098 
L 211.92019 245.710587 
L 212.058068 245.580327 
L 212.299453 245.350353 
L 212.333791 245.317438 
L 212.558105 245.101173 
L 212.650726 245.011241 
L 212.809117 244.856581 
L 212.976928 244.691518 
L 213.206101 244.464067 
L 213.384596 244.28527 
L 213.55697 244.11122 
L 213.597769 244.069823 
L 213.754783 243.909785 
L 214.003393 243.654014 
L 214.193973 243.455945 
L 214.352276 243.290083 
L 214.394686 243.245441 
L 214.594392 243.034025 
L 214.739305 242.87937 
L 214.952515 242.649896 
L 215.136464 242.450043 
L 215.18161 242.400725 
L 215.386245 242.175841 
L 215.494138 242.056379 
L 215.754423 241.76561 
L 215.862491 241.643802 
L 215.974109 241.517316 
L 216.208092 241.249908 
L 216.336654 241.10166 
L 216.544834 240.85959 
L 216.71054 240.665099 
L 216.746839 240.622278 
L 217.015448 240.302957 
L 217.112445 240.186573 
L 217.325758 239.928584 
L 217.453448 239.772791 
L 217.510125 239.703311 
L 217.708991 239.45789 
L 217.93898 239.170857 
L 218.080617 238.992348 
L 218.248946 238.778441 
L 218.326092 238.67976 
L 218.578691 238.353759 
L 218.714951 238.176037 
L 218.790699 238.076665 
L 218.965266 237.84607 
L 219.067668 237.709759 
L 219.272354 237.434945 
L 219.506355 237.11686 
L 219.683463 236.873272 
L 219.762887 236.763226 
L 219.988871 236.447324 
L 220.046152 236.366585 
L 220.307044 235.995375 
L 220.32206 235.973834 
L 220.567629 235.618775 
L 220.768801 235.323937 
L 220.925868 235.09119 
L 221.024971 234.943164 
L 221.183442 234.704541 
L 221.362202 234.432479 
L 221.512408 234.201453 
L 221.578016 234.099838 
L 221.794151 233.761986 
L 221.958335 233.502099 
L 222.114002 233.253039 
L 222.199669 233.114853 
L 222.488378 232.643121 
L 222.631282 232.406094 
L 222.680986 232.323091 
L 222.967963 231.838044 
L 222.995571 231.790847 
L 223.246613 231.357267 
L 223.3402 231.193548 
L 223.565253 230.795065 
L 223.695824 230.560695 
L 223.802301 230.367797 
L 223.986143 230.030892 
L 224.214915 229.604618 
L 224.318977 229.408052 
L 224.39531 229.262777 
L 224.608467 228.852096 
L 224.714206 228.645567 
L 224.86086 228.355939 
L 225.106029 227.863197 
L 225.175518 227.721526 
L 225.351155 227.359333 
L 225.518704 227.008154 
L 225.655511 226.717151 
L 225.792318 226.422181 
L 225.859993 226.274759 
L 226.069771 225.811216 
L 226.254113 225.395345 
L 226.342243 225.193585 
L 226.436777 224.974972 
L 226.598888 224.594641 
L 226.726337 224.290618 
L 226.853787 223.981995 
L 227.020173 223.571858 
L 227.059693 223.473199 
L 227.206735 223.101753 
L 227.353776 222.723174 
L 227.364922 222.694177 
L 227.490398 222.364706 
L 227.615875 222.029503 
L 227.73573 221.703715 
L 227.894507 221.263254 
L 228.025427 220.892048 
L 228.165166 220.487344 
L 228.273529 220.167142 
L 228.381892 219.841078 
L 228.467815 219.57817 
L 228.583401 219.218103 
L 228.698987 218.850306 
L 228.782568 218.579272 
L 228.866148 218.303756 
L 228.933258 218.079151 
L 229.006375 217.830859 
L 229.079493 217.578678 
L 229.15261 217.322435 
L 229.225728 217.061943 
L 229.296086 216.80708 
L 229.366445 216.547902 
L 229.428662 216.314948 
L 229.488334 216.088056 
L 229.548005 215.857613 
L 229.607677 215.62346 
L 229.667348 215.385423 
L 229.727136 215.142839 
L 229.785283 214.902799 
L 229.843429 214.658495 
L 229.901576 214.409705 
L 229.959723 214.156187 
L 230.024106 213.869637 
L 230.08849 213.576566 
L 230.134668 213.362102 
L 230.180847 213.143875 
L 230.227025 212.92169 
L 230.273204 212.695333 
L 230.318948 212.466762 
L 230.364692 212.233617 
L 230.410436 211.995625 
L 230.45618 211.752481 
L 230.510166 211.458445 
L 230.572662 211.10768 
L 230.60391 210.927796 
L 230.635157 210.744705 
L 230.666405 210.558234 
L 230.697653 210.368193 
L 230.728901 210.174377 
L 230.760149 209.976556 
L 230.808911 209.659256 
L 230.857672 209.330482 
L 230.88895 209.112954 
L 230.920228 208.889771 
L 230.951506 208.660475 
L 230.982783 208.424546 
L 231.018265 208.148116 
L 231.053746 207.861347 
L 231.089228 207.563005 
L 231.106969 207.409038 
L 231.12471 207.251589 
L 231.14245 207.090415 
L 231.160191 206.925241 
L 231.177932 206.755758 
L 231.195673 206.581613 
L 231.213413 206.402405 
L 231.231154 206.217669 
L 231.248895 206.026865 
L 231.266636 205.829359 
L 231.288587 205.574567 
L 231.299562 205.442354 
L 231.310537 205.306588 
L 231.32286 205.149555 
L 231.335182 204.987171 
L 231.347504 204.818851 
L 231.359826 204.643896 
L 231.372148 204.46146 
L 231.384471 204.270496 
L 231.396793 204.06969 
L 231.402954 203.965087 
L 231.409115 203.857351 
L 231.415276 203.746184 
L 231.421437 203.631237 
L 231.427598 203.512097 
L 231.433759 203.38827 
L 231.43992 203.259158 
L 231.446081 203.124021 
L 231.452243 202.98193 
L 231.458404 202.831688 
L 231.464565 202.671713 
L 231.470726 202.499826 
L 231.476887 202.312898 
L 231.483048 202.106118 
L 231.489209 201.871396 
L 231.49537 201.592951 
L 231.501531 201.230047 
z
" style="fill:#808080;opacity:0.5;"/>
   </g>
   <g id="matplotlib.axis_1"/>
   <g id="matplotlib.axis_2"/>
   <g id="line2d_1">
    <path clip-path="url(#p71c994d3ed)" d="M 138.046154 138.046154 
L 138.177235 142.085653 
L 138.533027 145.820138 
L 139.10096 149.462476 
L 139.88419 153.068442 
L 140.881586 156.628371 
L 142.122536 160.212864 
L 143.573677 163.702749 
L 145.178212 166.992621 
L 146.998415 170.224508 
L 148.977617 173.298552 
L 151.212121 176.352019 
L 153.576761 179.206241 
L 156.15871 181.966974 
L 158.89462 184.558314 
L 161.611071 186.844165 
L 164.697845 189.143102 
L 167.833114 191.193595 
L 169.2 192.006198 
L 169.2 192.006198 
" style="fill:none;stroke:#ff0000;stroke-linecap:square;"/>
   </g>
   <g id="line2d_2">
    <path clip-path="url(#p71c994d3ed)" d="M 106.892308 200.353846 
L 107.029254 204.482638 
L 107.392474 208.232822 
L 107.934856 211.704204 
L 108.775748 215.557735 
L 109.758887 219.035457 
L 110.897116 222.331612 
L 112.362672 225.883567 
L 113.975038 229.206093 
L 115.916949 232.65191 
L 117.907676 235.728215 
L 120.013286 238.601926 
L 122.414073 241.503883 
L 124.995641 244.265384 
L 127.53221 246.679258 
L 130.552904 249.227668 
L 133.535773 251.445053 
L 136.54179 253.41692 
L 139.784931 255.281091 
L 143.077977 256.921403 
L 146.743893 258.474168 
L 150.275537 259.718088 
L 153.940313 260.764031 
L 157.355943 261.525464 
L 161.085461 262.130887 
L 164.864092 262.51049 
L 168.549525 262.658143 
L 169.2 262.661538 
L 169.2 262.661538 
" style="fill:none;stroke:#228b22;stroke-linecap:square;"/>
   </g>
   <g id="line2d_3">
    <path clip-path="url(#p71c994d3ed)" d="M 169.2 262.661538 
L 172.933618 262.549574 
L 176.63677 262.216137 
L 180.34781 261.656169 
L 183.935292 260.894078 
L 187.458546 259.926273 
L 191.048423 258.705324 
L 194.573052 257.261286 
L 197.787952 255.716085 
L 200.353846 254.313891 
L 200.353846 254.313891 
" style="fill:none;stroke:#228b22;stroke-linecap:square;"/>
   </g>
   <g id="line2d_4">
    <path clip-path="url(#p71c994d3ed)" d="M 200.353846 254.313891 
L 203.466442 252.392865 
L 206.511237 250.25495 
L 209.363244 247.989572 
L 212.058068 245.580327 
L 214.739305 242.87937 
L 217.112445 240.186573 
L 219.272354 237.434945 
L 221.362202 234.432479 
L 223.3402 231.193548 
L 225.175518 227.721526 
L 226.726337 224.290618 
L 228.025427 220.892048 
L 229.15261 217.322435 
L 230.024106 213.869637 
L 230.728901 210.174377 
L 231.213413 206.402405 
L 231.464565 202.671713 
L 231.507692 200.353846 
L 231.507692 200.353846 
" style="fill:none;stroke:#228b22;stroke-linecap:square;"/>
   </g>
   <g id="text_1">
    <!-- $\Omega$ -->
    <g transform="translate(16.011538 22.420913)scale(0.1 -0.1)">
     <defs>
      <path d="M 7.71875 0 
L 4.390625 16.609375 
L 7.328125 16.609375 
Q 7.859375 13.71875 8.296875 11.5 
Q 8.734375 9.28125 9.4375 8.375 
Q 10.15625 7.46875 11.71875 7.171875 
Q 13.28125 6.890625 16.890625 6.890625 
L 23 6.890625 
Q 21.53125 12.546875 15.6875 21.65625 
Q 9.859375 30.765625 7.734375 34.890625 
Q 5.609375 39.015625 5.609375 45.515625 
Q 5.609375 53.078125 10.09375 58.765625 
Q 14.59375 64.453125 21.703125 67.484375 
Q 28.8125 70.515625 36.078125 70.515625 
Q 43.3125 70.515625 50.40625 67.484375 
Q 57.515625 64.453125 62 58.71875 
Q 66.5 52.984375 66.5 45.515625 
Q 66.5 40.4375 64.640625 35.9375 
Q 62.796875 31.453125 59.90625 26.953125 
Q 57.03125 22.46875 53.6875 16.9375 
Q 50.34375 11.421875 49.125 6.890625 
L 55.171875 6.890625 
Q 58.84375 6.890625 60.453125 7.171875 
Q 62.0625 7.46875 62.734375 8.375 
Q 63.421875 9.28125 63.84375 11.5 
Q 64.265625 13.71875 64.796875 16.609375 
L 67.671875 16.609375 
L 64.40625 0 
L 46.6875 0 
Q 45.703125 0 45.703125 1.3125 
Q 45.703125 6.390625 46.9375 11.265625 
Q 48.1875 16.15625 50.625 23.09375 
Q 53.078125 30.03125 54.4375 35.328125 
Q 55.8125 40.625 55.8125 45.515625 
Q 55.8125 51.515625 53.46875 56.640625 
Q 51.125 61.765625 46.625 64.84375 
Q 42.140625 67.921875 36.078125 67.921875 
Q 26.953125 67.921875 21.625 61.40625 
Q 16.3125 54.890625 16.3125 45.515625 
Q 16.359375 40.375 17.53125 35.828125 
Q 18.703125 31.296875 21.3125 23.71875 
Q 23.921875 16.15625 25.171875 11.265625 
Q 26.421875 6.390625 26.421875 1.3125 
Q 26.421875 0 25.390625 0 
z
" id="Cmr10-173"/>
     </defs>
     <use transform="translate(0 0.484375)" xlink:href="#Cmr10-173"/>
    </g>
   </g>
   <g id="text_2">
    <!-- $A$ -->
    <g style="fill:#0000ff;" transform="translate(103.142308 78.497837)scale(0.1 -0.1)">
     <defs>
      <path d="M 4.5 0 
Q 3.515625 0 3.515625 1.3125 
Q 3.90625 3.515625 4.78125 3.515625 
Q 8.84375 3.515625 11.796875 5.125 
Q 14.75 6.734375 16.890625 10.109375 
Q 17.09375 10.296875 17.09375 10.296875 
L 52.78125 70.515625 
Q 53.5625 71.578125 54.6875 71.578125 
L 56 71.578125 
Q 56.296875 71.578125 56.59375 71.453125 
Q 56.890625 71.34375 57.109375 71.0625 
Q 57.328125 70.796875 57.328125 70.515625 
L 63.375 5.90625 
Q 63.375 5.46875 63.8125 4.59375 
Q 64.796875 3.515625 71.296875 3.515625 
Q 72.3125 3.515625 72.3125 2.203125 
Q 71.96875 0.875 71.75 0.4375 
Q 71.53125 0 70.609375 0 
L 45.609375 0 
Q 44.671875 0 44.671875 1.3125 
Q 45.21875 3.515625 46 3.515625 
Q 53.90625 3.515625 54.390625 6.203125 
L 52.875 22.703125 
L 28.21875 22.703125 
L 20.21875 9.28125 
Q 19.484375 8.203125 19.484375 6.78125 
Q 19.484375 5.03125 21.171875 4.265625 
Q 22.859375 3.515625 24.90625 3.515625 
Q 25.875 3.515625 25.875 2.203125 
Q 25.53125 0.78125 25.328125 0.390625 
Q 25.140625 0 24.21875 0 
z
M 30.171875 26.21875 
L 52.484375 26.21875 
L 49.515625 58.59375 
z
" id="Cmmi10-65"/>
     </defs>
     <use transform="translate(0 0.421875)" xlink:href="#Cmmi10-65"/>
    </g>
   </g>
   <g id="text_3">
    <!-- $B$ -->
    <g style="fill:#ff0000;" transform="translate(227.707692 78.497837)scale(0.1 -0.1)">
     <defs>
      <path d="M 4.984375 0 
Q 4 0 4 1.3125 
Q 4.046875 1.5625 4.1875 2.140625 
Q 4.34375 2.734375 4.578125 3.125 
Q 4.828125 3.515625 5.328125 3.515625 
Q 8.15625 3.515625 10.25 3.65625 
Q 12.359375 3.8125 13.8125 4.203125 
Q 14.984375 4.640625 15.71875 6.890625 
L 29.390625 61.8125 
Q 29.59375 62.796875 29.59375 63.1875 
Q 29.59375 64.265625 28.421875 64.40625 
Q 26.515625 64.796875 21.1875 64.796875 
Q 20.21875 64.796875 20.21875 66.109375 
Q 20.265625 66.359375 20.40625 66.96875 
Q 20.5625 67.578125 20.828125 67.9375 
Q 21.09375 68.3125 21.484375 68.3125 
L 57.328125 68.3125 
Q 60.59375 68.3125 63.796875 67.5 
Q 67 66.703125 69.703125 64.9375 
Q 72.40625 63.1875 74 60.5625 
Q 75.59375 57.953125 75.59375 54.5 
Q 75.59375 50.734375 73.65625 47.5 
Q 71.734375 44.28125 68.671875 41.890625 
Q 65.625 39.5 62.078125 37.953125 
Q 58.546875 36.421875 54.6875 35.6875 
Q 57.421875 35.6875 60.21875 34.609375 
Q 63.03125 33.546875 65.234375 31.6875 
Q 67.4375 29.828125 68.78125 27.234375 
Q 70.125 24.65625 70.125 21.6875 
Q 70.125 15.671875 65.921875 10.6875 
Q 61.71875 5.71875 55.34375 2.859375 
Q 48.96875 0 43.015625 0 
z
M 23.390625 4.296875 
Q 23.390625 3.515625 26.8125 3.515625 
L 41.109375 3.515625 
Q 46 3.515625 50.484375 6.21875 
Q 54.984375 8.9375 57.6875 13.421875 
Q 60.40625 17.921875 60.40625 22.796875 
Q 60.40625 25.78125 59.15625 28.4375 
Q 57.90625 31.109375 55.5625 32.640625 
Q 53.21875 34.1875 50.203125 34.1875 
L 30.71875 34.1875 
L 23.78125 6.5 
Q 23.390625 5.125 23.390625 4.296875 
z
M 31.390625 36.8125 
L 46.578125 36.8125 
Q 51.375 36.8125 55.890625 39.25 
Q 60.40625 41.703125 63.25 45.890625 
Q 66.109375 50.09375 66.109375 54.78125 
Q 66.109375 59.125 63.390625 61.953125 
Q 60.6875 64.796875 56.390625 64.796875 
L 42.671875 64.796875 
Q 39.984375 64.796875 39.0625 64.296875 
Q 38.140625 63.8125 37.5 61.375 
z
" id="Cmmi10-66"/>
     </defs>
     <use transform="translate(0 0.6875)" xlink:href="#Cmmi10-66"/>
    </g>
   </g>
   <g id="text_4">
    <!-- $C$ -->
    <g style="fill:#228b22;" transform="translate(150.023077 271.651683)scale(0.1 -0.1)">
     <defs>
      <path d="M 14.59375 21.578125 
Q 14.59375 15.578125 16.90625 11.015625 
Q 19.234375 6.453125 23.65625 3.875 
Q 28.078125 1.3125 34.078125 1.3125 
Q 40.375 1.3125 46.203125 4.53125 
Q 52.046875 7.765625 56.171875 13.15625 
Q 60.296875 18.5625 61.8125 24.609375 
Q 62.015625 25.203125 62.59375 25.203125 
L 63.8125 25.203125 
Q 64.203125 25.203125 64.453125 24.921875 
Q 64.703125 24.65625 64.703125 24.3125 
Q 64.703125 24.21875 64.59375 24.03125 
Q 62.890625 17.09375 57.984375 11.015625 
Q 53.078125 4.9375 46.234375 1.359375 
Q 39.40625 -2.203125 32.171875 -2.203125 
Q 24.359375 -2.203125 18.15625 1.3125 
Q 11.96875 4.828125 8.515625 11.078125 
Q 5.078125 17.328125 5.078125 25.203125 
Q 5.078125 33.59375 8.828125 41.8125 
Q 12.59375 50.046875 18.9375 56.46875 
Q 25.296875 62.890625 33.421875 66.703125 
Q 41.546875 70.515625 49.90625 70.515625 
Q 53.21875 70.515625 56.25 69.5 
Q 59.28125 68.5 61.859375 66.453125 
Q 64.453125 64.40625 66.109375 61.71875 
L 74.03125 70.3125 
Q 74.03125 70.515625 74.515625 70.515625 
L 75.09375 70.515625 
Q 75.484375 70.515625 75.734375 70.171875 
Q 75.984375 69.828125 75.984375 69.484375 
L 69.1875 42.484375 
Q 69.1875 41.796875 68.40625 41.796875 
L 66.609375 41.796875 
Q 65.828125 41.796875 65.828125 42.921875 
Q 66.21875 45.125 66.21875 48.1875 
Q 66.21875 53.078125 64.546875 57.390625 
Q 62.890625 61.71875 59.390625 64.359375 
Q 55.90625 67 50.875 67 
Q 42.71875 67 35.9375 62.890625 
Q 29.15625 58.796875 24.4375 52.125 
Q 19.734375 45.453125 17.15625 37.328125 
Q 14.59375 29.203125 14.59375 21.578125 
z
" id="Cmmi10-67"/>
     </defs>
     <use transform="translate(0 0.484375)" xlink:href="#Cmmi10-67"/>
    </g>
   </g>
   <g id="patch_8">
    <path clip-path="url(#p71c994d3ed)" d="M 138.046154 200.353846 
C 154.570347 200.353846 170.419977 193.788715 182.104346 182.104346 
C 193.788715 170.419977 200.353846 154.570347 200.353846 138.046154 
C 200.353846 121.521961 193.788715 105.672331 182.104346 93.987962 
C 170.419977 82.303593 154.570347 75.738462 138.046154 75.738462 
C 121.521961 75.738462 105.672331 82.303593 93.987962 93.987962 
C 82.303593 105.672331 75.738462 121.521961 75.738462 138.046154 
C 75.738462 154.570347 82.303593 170.419977 93.987962 182.104346 
C 105.672331 193.788715 121.521961 200.353846 138.046154 200.353846 
z
" style="fill:none;stroke:#0000ff;stroke-linejoin:miter;"/>
   </g>
   <g id="patch_9">
    <path clip-path="url(#p71c994d3ed)" d="M 200.353846 200.353846 
C 216.878039 200.353846 232.727669 193.788715 244.412038 182.104346 
C 256.096407 170.419977 262.661538 154.570347 262.661538 138.046154 
C 262.661538 121.521961 256.096407 105.672331 244.412038 93.987962 
C 232.727669 82.303593 216.878039 75.738462 200.353846 75.738462 
C 183.829653 75.738462 167.980023 82.303593 156.295654 93.987962 
C 144.611285 105.672331 138.046154 121.521961 138.046154 138.046154 
C 138.046154 154.570347 144.611285 170.419977 156.295654 182.104346 
C 167.980023 193.788715 183.829653 200.353846 200.353846 200.353846 
z
" style="fill:none;stroke:#ff0000;stroke-linejoin:miter;"/>
   </g>
   <g id="patch_10">
    <path clip-path="url(#p71c994d3ed)" d="M 169.2 262.661538 
C 185.724193 262.661538 201.573823 256.096407 213.258192 244.412038 
C 224.942561 232.727669 231.507692 216.878039 231.507692 200.353846 
C 231.507692 183.829653 224.942561 167.980023 213.258192 156.295654 
C 201.573823 144.611285 185.724193 138.046154 169.2 138.046154 
C 152.675807 138.046154 136.826177 144.611285 125.141808 156.295654 
C 113.457439 167.980023 106.892308 183.829653 106.892308 200.353846 
C 106.892308 216.878039 113.457439 232.727669 125.141808 244.412038 
C 136.826177 256.096407 152.675807 262.661538 169.2 262.661538 
z
" style="fill:none;stroke:#228b22;stroke-linejoin:miter;"/>
   </g>
  </g>
 </g>
 <defs>
  <clipPath id="p71c994d3ed">
   <rect height="324" width="324" x="7.2" y="7.2"/>
  </clipPath>
 </defs>
</svg>
