<?xml version="1.0" encoding="utf-8" standalone="no"?>
<!DOCTYPE svg PUBLIC "-//W3C//DTD SVG 1.1//EN"
  "http://www.w3.org/Graphics/SVG/1.1/DTD/svg11.dtd">
<!-- Created with matplotlib (https://matplotlib.org/) -->
<svg height="338.4pt" version="1.1" viewBox="0 0 338.4 338.4" width="338.4pt" xmlns="http://www.w3.org/2000/svg" xmlns:xlink="http://www.w3.org/1999/xlink">
 <metadata>
  <rdf:RDF xmlns:cc="http://creativecommons.org/ns#" xmlns:dc="http://purl.org/dc/elements/1.1/" xmlns:rdf="http://www.w3.org/1999/02/22-rdf-syntax-ns#">
   <cc:Work>
    <dc:type rdf:resource="http://purl.org/dc/dcmitype/StillImage"/>
    <dc:date>2021-09-05T16:54:32.513637</dc:date>
    <dc:format>image/svg+xml</dc:format>
    <dc:creator>
     <cc:Agent>
      <dc:title>Matplotlib v3.3.4, https://matplotlib.org/</dc:title>
     </cc:Agent>
    </dc:creator>
   </cc:Work>
  </rdf:RDF>
 </metadata>
 <defs>
  <style type="text/css">*{stroke-linecap:butt;stroke-linejoin:round;}</style>
 </defs>
 <g id="figure_1">
  <g id="patch_1">
   <path d="M -0 338.4 
L 338.4 338.4 
L 338.4 0 
L -0 0 
z
" style="fill:#ffffff;"/>
  </g>
  <g id="axes_1">
   <g id="patch_2">
    <path d="M 7.2 331.2 
L 331.2 331.2 
L 331.2 7.2 
L 7.2 7.2 
z
" style="fill:#ffffff;"/>
   </g>
   <g id="patch_3">
    <path clip-path="url(#p287f9ad99c)" d="M 13.430769 324.969231 
L 13.430769 13.430769 
L 324.969231 13.430769 
L 324.969231 324.969231 
z
" style="fill:none;stroke:#000000;stroke-linejoin:miter;"/>
   </g>
   <g id="patch_4">
    <path clip-path="url(#p287f9ad99c)" d="M 200.353846 146.393802 
L 199.796659 146.075923 
L 199.24957 145.771139 
L 198.976105 145.621478 
L 198.603546 145.420432 
L 198.151104 145.180645 
L 197.398223 144.79209 
L 197.264497 144.724425 
L 196.691772 144.43917 
L 196.186067 144.193355 
L 195.510519 143.873716 
L 195.188423 143.724786 
L 194.749586 143.525445 
L 194.382231 143.361709 
L 193.938251 143.167594 
L 193.350339 142.91684 
L 192.62826 142.618544 
L 192.492559 142.563663 
L 191.78322 142.282798 
L 191.251169 142.078685 
L 190.840656 141.924996 
L 190.39954 141.763506 
L 189.842951 141.565097 
L 189.782775 141.544001 
L 189.262911 141.364626 
L 188.641295 141.156848 
L 188.233113 141.02435 
L 187.68802 140.852236 
L 187.375322 140.755975 
L 186.851878 140.598849 
L 186.206666 140.412026 
L 185.873165 140.318406 
L 185.101907 140.109528 
L 184.94598 140.068586 
L 184.277131 139.89784 
L 183.77669 139.775231 
L 183.629314 139.739958 
L 182.945061 139.58114 
L 182.628377 139.510381 
L 181.896128 139.35338 
L 181.623111 139.297194 
L 181.075166 139.18826 
L 180.679163 139.112705 
L 180.264578 139.036445 
L 179.581846 138.917165 
L 179.221888 138.857421 
L 178.691638 138.773351 
L 178.116632 138.687468 
L 177.943621 138.662699 
L 177.367285 138.583756 
L 177.087174 138.547366 
L 176.248941 138.446165 
L 175.941655 138.411949 
L 175.654897 138.38141 
L 175.20125 138.335837 
L 174.30781 138.255869 
L 174.06008 138.235989 
L 173.771212 138.214064 
L 173.106996 138.168768 
L 172.434752 138.130178 
L 172.302049 138.123421 
L 171.889393 138.104222 
L 171.40319 138.085118 
L 170.941614 138.070499 
L 170.396036 138.057634 
L 170.004663 138.05135 
L 169.219252 138.046157 
L 168.720324 138.048 
L 168.598157 138.049061 
L 167.861432 138.060534 
L 167.703377 138.064131 
L 166.990781 138.085332 
L 166.325022 138.112517 
L 166.051978 138.12573 
L 165.458552 138.158588 
L 165.231016 138.172694 
L 164.744464 138.205663 
L 164.019862 138.26186 
L 163.621667 138.296367 
L 163.353536 138.321053 
L 162.691743 138.386991 
L 162.210825 138.439389 
L 161.70309 138.498815 
L 161.50275 138.523426 
L 160.862542 138.606496 
L 160.393926 138.671583 
L 159.878887 138.747309 
L 159.376474 138.825423 
L 159.09183 138.871544 
L 158.741635 138.930145 
L 158.269088 139.012476 
L 157.447328 139.164605 
L 157.169938 139.218536 
L 156.804582 139.291565 
L 156.237734 139.409378 
L 155.734692 139.518544 
L 155.25517 139.626667 
L 154.735521 139.74834 
L 154.400204 139.829351 
L 153.962538 139.938051 
L 153.319788 140.103806 
L 152.779174 140.248896 
L 152.298905 140.382174 
L 152.024327 140.460234 
L 151.481496 140.618571 
L 150.991386 140.766138 
L 150.732773 140.845779 
L 150.33282 140.971374 
L 149.86067 141.123458 
L 148.954737 141.42696 
L 148.737193 141.502151 
L 148.341532 141.641217 
L 147.725065 141.863884 
L 147.498812 141.947451 
L 146.919361 142.166033 
L 146.237387 142.43177 
L 145.960515 142.5423 
L 145.474168 142.74019 
L 145.093645 142.898366 
L 144.53982 143.133884 
L 143.877058 143.42409 
L 143.398712 143.639279 
L 143.258354 143.703343 
L 142.479199 144.06666 
L 142.337314 144.134235 
L 141.758709 144.414378 
L 141.124894 144.729778 
L 140.479272 145.060372 
L 140.073089 145.273255 
L 139.95009 145.338473 
L 139.315834 145.680405 
L 138.932099 145.891908 
L 138.43947 146.168624 
L 137.990202 146.426144 
L 137.206501 146.887366 
L 136.881317 147.083299 
L 136.418896 147.366605 
L 135.988934 147.635029 
L 135.522238 147.931934 
L 135.035097 148.248108 
L 134.61566 148.525554 
L 133.915217 148.999853 
L 133.864698 149.034601 
L 133.280731 149.441621 
L 132.719143 149.842505 
L 132.059017 150.325895 
L 131.832062 150.495189 
L 131.260276 150.928894 
L 130.789472 151.293885 
L 130.423408 151.582703 
L 130.068502 151.866999 
L 129.551685 152.288686 
L 129.091125 152.672333 
L 128.364058 153.29352 
L 128.087814 153.534655 
L 127.763002 153.821881 
L 126.857218 154.644577 
L 126.805334 154.692694 
L 126.125673 155.333286 
L 125.859043 155.58991 
L 125.226891 156.210736 
L 124.81715 156.622723 
L 124.329149 157.123587 
L 123.737563 157.746155 
L 123.327191 158.188293 
L 122.83458 158.730579 
L 122.532555 159.069489 
L 121.81437 159.895836 
L 121.681703 160.051738 
L 121.284231 160.525118 
L 120.886759 161.008208 
L 120.370636 161.650594 
L 120.234232 161.823312 
L 119.861018 162.302389 
L 119.487804 162.791284 
L 118.921613 163.552592 
L 118.861862 163.634364 
L 118.317199 164.392908 
L 117.720402 165.252572 
L 117.124242 166.143264 
L 116.862856 166.544501 
L 116.286119 167.454459 
L 115.963396 167.97928 
L 115.576572 168.624104 
L 115.189748 169.287124 
L 114.916906 169.766362 
L 114.551767 170.423608 
L 114.186628 171.100172 
L 113.938484 171.571675 
L 113.646974 172.138427 
L 113.355465 172.719875 
L 113.063685 173.317524 
L 112.771906 173.931909 
L 112.582998 174.339166 
L 112.286382 174.994654 
L 111.989767 175.671104 
L 111.776618 176.17113 
L 111.56347 176.683635 
L 111.280815 177.383942 
L 110.99816 178.109874 
L 110.765783 178.727685 
L 110.533407 179.366244 
L 110.357936 179.863361 
L 110.182464 180.374383 
L 110.015393 180.874863 
L 109.848322 181.390017 
L 109.681251 181.921075 
L 109.51418 182.469456 
L 109.324246 183.116022 
L 109.134312 183.789982 
L 108.988749 184.327189 
L 108.862531 184.809125 
L 108.736313 185.307548 
L 108.610095 185.824153 
L 108.483878 186.360954 
L 108.374073 186.84625 
L 108.264269 187.35057 
L 108.154464 187.876222 
L 108.04466 188.426026 
L 107.934855 189.00349 
L 107.825051 189.613076 
L 107.770149 189.931663 
L 107.715246 190.260601 
L 107.660344 190.600934 
L 107.605442 190.953902 
L 107.546577 191.348072 
L 107.487712 191.760706 
L 107.428847 192.194604 
L 107.369983 192.653362 
L 107.311118 193.14172 
L 107.281685 193.398933 
L 107.252253 193.666161 
L 107.22282 193.944656 
L 107.193388 194.235956 
L 107.163955 194.541988 
L 107.134523 194.865214 
L 107.104246 195.219076 
L 107.073969 195.599394 
L 107.058831 195.801528 
L 107.043692 196.013117 
L 107.028554 196.235618 
L 107.013415 196.470908 
L 106.998277 196.721469 
L 106.983138 196.990714 
L 106.968 197.283554 
L 106.952862 197.607526 
L 106.945292 197.784821 
L 106.937723 197.975319 
L 106.930154 198.182492 
L 106.922585 198.411669 
L 106.915015 198.67182 
L 106.907446 198.980436 
L 106.899877 199.382669 
L 106.892308 200.353846 
L 106.892308 84.086109 
L 107.330795 83.835313 
L 108.047366 83.435521 
L 108.150453 83.379019 
L 108.700187 83.081959 
L 109.03254 82.905799 
L 109.542722 82.640352 
L 110.315108 82.24976 
L 110.528477 82.144222 
L 111.045794 81.892533 
L 111.411965 81.717933 
L 112.222055 81.34197 
L 112.304103 81.304676 
L 113.136592 80.934314 
L 113.401922 80.819321 
L 113.848502 80.629064 
L 114.514311 80.352992 
L 114.708611 80.274123 
L 115.3189 80.031324 
L 115.640797 79.906249 
L 116.12292 79.722742 
L 116.866588 79.44859 
L 117.240473 79.314798 
L 117.52568 79.214541 
L 118.192949 78.986025 
L 118.6427 78.836742 
L 119.19957 78.657141 
L 119.432019 78.583876 
L 120.205707 78.347184 
L 120.460811 78.271542 
L 120.798494 78.173232 
L 121.458 77.987169 
L 121.690318 77.923486 
L 122.23018 77.779219 
L 122.682998 77.662199 
L 123.420569 77.479325 
L 123.7294 77.405581 
L 124.208009 77.294576 
L 124.60251 77.206061 
L 125.437432 77.027561 
L 125.524624 77.009609 
L 126.212571 76.872509 
L 126.571553 76.804158 
L 127.02844 76.720315 
L 127.444034 76.647102 
L 127.817257 76.583822 
L 128.415733 76.48721 
L 129.14805 76.377099 
L 129.565133 76.318358 
L 129.885138 76.275236 
L 130.526724 76.193856 
L 131.067557 76.130504 
L 131.242414 76.111045 
L 131.608059 76.07197 
L 132.374004 75.997179 
L 132.490356 75.986653 
L 133.266287 75.922073 
L 133.436739 75.909194 
L 134.076683 75.865033 
L 134.734279 75.826543 
L 135.076284 75.809281 
L 135.388644 75.795161 
L 135.897559 75.775518 
L 136.319415 75.762393 
L 137.086339 75.745855 
L 137.274264 75.743243 
L 138.085034 75.738474 
L 138.358067 75.739242 
L 138.930633 75.74474 
L 139.424097 75.7537 
L 139.684947 75.760017 
L 140.209791 75.776039 
L 140.557655 75.789099 
L 141.056698 75.811235 
L 141.507569 75.834683 
L 141.898994 75.857697 
L 142.593198 75.904598 
L 143.269038 75.957749 
L 143.511737 75.978643 
L 144.141297 76.037302 
L 144.307403 76.053854 
L 144.817994 76.10755 
L 145.205288 76.151119 
L 146.012622 76.249844 
L 146.21442 76.276194 
L 146.829283 76.360619 
L 147.173444 76.410603 
L 147.673669 76.486756 
L 148.430296 76.609861 
L 148.63346 76.644546 
L 149.259197 76.755729 
L 149.410169 76.783541 
L 150.07991 76.911571 
L 150.378562 76.971116 
L 150.834782 77.065013 
L 151.515322 77.211706 
L 152.015746 77.324667 
L 152.474747 77.432094 
L 153.074383 77.577973 
L 153.288478 77.631585 
L 153.806657 77.764689 
L 154.371636 77.915237 
L 155.000291 78.089455 
L 155.222232 78.152658 
L 155.811068 78.324664 
L 156.104672 78.412787 
L 156.704041 78.59759 
L 157.014482 78.695913 
L 157.545241 78.868167 
L 158.14145 79.067958 
L 158.337226 79.135027 
L 158.932804 79.343544 
L 159.614035 79.590401 
L 160.058368 79.756267 
L 160.235518 79.823472 
L 160.772974 80.031154 
L 161.356984 80.263339 
L 161.760119 80.427612 
L 162.17996 80.602199 
L 162.916324 80.917149 
L 163.404232 81.13204 
L 163.641031 81.238137 
L 164.256178 81.519318 
L 164.645285 81.701369 
L 165.172366 81.953221 
L 165.394632 82.061252 
L 166.195582 82.459661 
L 166.653402 82.693883 
L 167.061176 82.90654 
L 167.576226 83.180652 
L 167.986376 83.40339 
L 168.451428 83.66079 
L 168.833957 83.876424 
L 169.501171 84.261115 
L 169.960182 84.532199 
L 170.184128 84.66639 
L 170.599347 84.918589 
L 171.092327 85.22382 
L 171.827434 85.69089 
L 172.002277 85.804119 
L 172.422705 86.079807 
L 173.319305 86.68417 
L 173.423479 86.755868 
L 173.872062 87.06819 
L 174.653314 87.626274 
L 174.827539 87.75323 
L 175.271978 88.081301 
L 176.100524 88.709418 
L 176.263024 88.835186 
L 176.734272 89.204798 
L 177.368759 89.714164 
L 177.716283 89.998996 
L 178.058548 90.283649 
L 178.646393 90.782329 
L 179.428768 91.465817 
L 179.501294 91.530351 
L 180.185133 92.148932 
L 180.789761 92.711481 
L 181.206912 93.108447 
L 181.590287 93.479832 
L 181.936145 93.820401 
L 182.726137 94.618655 
L 183.124943 95.032769 
L 183.520473 95.451144 
L 183.8085 95.76074 
L 184.437854 96.452179 
L 185.040727 97.134558 
L 185.336701 97.477044 
L 185.971151 98.228531 
L 186.038672 98.309939 
L 186.72709 99.156374 
L 187.195165 99.749637 
L 187.893934 100.663708 
L 188.075527 100.907086 
L 188.460864 101.431873 
L 188.846201 101.968408 
L 189.290411 102.60219 
L 189.683208 103.176925 
L 189.930218 103.545539 
L 190.362483 104.204608 
L 190.708867 104.746197 
L 191.055252 105.300406 
L 191.345694 105.775307 
L 191.636136 106.259957 
L 191.710298 106.385325 
L 192.108385 107.069975 
L 192.506472 107.775339 
L 192.964209 108.61393 
L 193.284715 109.219953 
L 193.52311 109.681459 
L 193.761504 110.152637 
L 194.083338 110.804963 
L 194.405173 111.477197 
L 194.707057 112.12723 
L 194.960758 112.689175 
L 195.162297 113.146461 
L 195.363836 113.613966 
L 195.565376 114.092289 
L 195.766915 114.582091 
L 196.063405 115.325083 
L 196.232224 115.760962 
L 196.401042 116.206843 
L 196.569861 116.663352 
L 196.73868 117.131185 
L 196.951591 117.73857 
L 197.094136 118.156852 
L 197.236681 118.585166 
L 197.379225 119.024189 
L 197.52177 119.474681 
L 197.654809 119.906232 
L 197.787848 120.349304 
L 197.920887 120.804783 
L 198.053926 121.273682 
L 198.22728 121.906742 
L 198.400634 122.567611 
L 198.497314 122.949608 
L 198.593995 123.342161 
L 198.690676 123.74614 
L 198.787357 124.162541 
L 198.884038 124.592517 
L 198.980719 125.037416 
L 199.0774 125.498824 
L 199.174081 125.978635 
L 199.278728 126.521382 
L 199.383375 127.091985 
L 199.488022 127.69505 
L 199.540345 128.010571 
L 199.592669 128.336622 
L 199.678222 128.895378 
L 199.720448 129.184444 
L 199.762675 129.483471 
L 199.804902 129.793542 
L 199.847128 130.115951 
L 199.889355 130.452272 
L 199.931581 130.80444 
L 199.973808 131.174893 
L 200.016034 131.566766 
L 200.058261 131.984212 
L 200.100487 132.432933 
L 200.1216 132.671448 
L 200.142714 132.921138 
L 200.163827 133.183724 
L 200.18494 133.461422 
L 200.206053 133.757167 
L 200.227167 134.074986 
L 200.24828 134.420683 
L 200.269393 134.803159 
L 200.290506 135.2374 
L 200.31162 135.752622 
L 200.332733 136.424244 
L 200.353846 138.046154 
z
" style="fill:#808080;opacity:0.5;"/>
   </g>
   <g id="patch_5">
    <path clip-path="url(#p287f9ad99c)" d="M 75.738462 138.046154 
L 75.738462 138.046154 
L 75.745218 137.128603 
L 75.751974 136.748576 
L 75.758731 136.456995 
L 75.765487 136.211202 
L 75.772243 135.99467 
L 75.779 135.798927 
L 75.785756 135.618938 
L 75.792512 135.451421 
L 75.799269 135.294099 
L 75.806025 135.145311 
L 75.812781 135.003807 
L 75.819538 134.868613 
L 75.826294 134.738954 
L 75.83305 134.614203 
L 75.839807 134.493844 
L 75.846563 134.377443 
L 75.853319 134.264636 
L 75.860076 134.15511 
L 75.873589 133.944856 
L 75.887101 133.74491 
L 75.900614 133.553895 
L 75.914127 133.370716 
L 75.927639 133.194487 
L 75.941152 133.024474 
L 75.954665 132.860067 
L 75.974503 132.627789 
L 75.994341 132.405137 
L 76.014179 132.191013 
L 76.034018 131.984513 
L 76.055501 131.768613 
L 76.076985 131.559966 
L 76.098469 131.357894 
L 76.119952 131.161818 
L 76.141436 130.971239 
L 76.16292 130.785725 
L 76.184403 130.604896 
L 76.205887 130.428419 
L 76.228499 130.247046 
L 76.251112 130.06986 
L 76.273724 129.896588 
L 76.296336 129.726986 
L 76.325996 129.50972 
L 76.355657 129.29795 
L 76.385317 129.091284 
L 76.414977 128.889378 
L 76.444637 128.691922 
L 76.474297 128.498642 
L 76.503957 128.309288 
L 76.533617 128.123635 
L 76.566186 127.923797 
L 76.598755 127.727931 
L 76.631324 127.535816 
L 76.663893 127.347249 
L 76.713378 127.067125 
L 76.762862 126.794191 
L 76.812347 126.527935 
L 76.861831 126.267904 
L 76.90738 126.033706 
L 76.95293 125.804156 
L 76.999738 125.572837 
L 77.046546 125.345902 
L 77.093354 125.123122 
L 77.140162 124.904284 
L 77.22576 124.513665 
L 77.311358 124.134536 
L 77.368594 123.886979 
L 77.42583 123.643903 
L 77.482429 123.407721 
L 77.539028 123.175504 
L 77.62686 122.822571 
L 77.714692 122.478133 
L 77.783143 122.215232 
L 77.851594 121.956917 
L 77.920045 121.702972 
L 77.988496 121.453195 
L 78.075358 121.14195 
L 78.162219 120.836771 
L 78.177604 120.783324 
L 78.288748 120.40243 
L 78.399892 120.030273 
L 78.476809 119.777555 
L 78.553727 119.528605 
L 78.666399 119.170424 
L 78.779071 118.819574 
L 78.832334 118.656155 
L 78.975225 118.225107 
L 79.09064 117.88441 
L 79.206055 117.550026 
L 79.27736 117.346458 
L 79.381415 117.05337 
L 79.485471 116.764826 
L 79.647748 116.323476 
L 79.807753 115.898079 
L 79.912027 115.62581 
L 80.016301 115.357288 
L 80.125745 115.079334 
L 80.23058 114.81669 
L 80.387343 114.430267 
L 80.551483 114.033421 
L 80.682823 113.721336 
L 80.806267 113.432259 
L 80.929711 113.147149 
L 81.030103 112.918111 
L 81.196018 112.544966 
L 81.383282 112.131536 
L 81.49171 111.895755 
L 81.626279 111.606672 
L 81.835717 111.164277 
L 82.056324 110.707766 
L 82.139983 110.537091 
L 82.264784 110.284899 
L 82.524009 109.770016 
L 82.666073 109.49278 
L 82.750531 109.329563 
L 82.927746 108.990868 
L 83.023997 108.809006 
L 83.247838 108.391592 
L 83.360933 108.18355 
L 83.550706 107.838628 
L 83.722039 107.531583 
L 83.897102 107.221996 
L 83.963335 107.105934 
L 84.233879 106.637753 
L 84.342348 106.452646 
L 84.462452 106.249371 
L 84.584363 106.044819 
L 84.874881 105.564401 
L 85.026285 105.317847 
L 85.072946 105.242377 
L 85.219419 105.007016 
L 85.445797 104.647786 
L 85.557978 104.471761 
L 85.779476 104.127974 
L 85.936482 103.887252 
L 86.143183 103.573989 
L 86.207722 103.477014 
L 86.375614 103.226564 
L 86.612691 102.877313 
L 86.679387 102.77997 
L 86.878683 102.491429 
L 87.017052 102.293122 
L 87.172742 102.071934 
L 87.350602 101.821721 
L 87.448481 101.685131 
L 87.638276 101.422467 
L 87.769547 101.242467 
L 87.941762 101.008356 
L 88.034646 100.883032 
L 88.291397 100.539986 
L 88.351003 100.461043 
L 88.586 100.152332 
L 88.689877 100.017132 
L 88.936024 99.69979 
L 89.110746 99.477069 
L 89.225657 99.331717 
L 89.316378 99.217589 
L 89.583296 98.88495 
L 89.748518 98.681362 
L 89.843261 98.565403 
L 89.987244 98.390263 
L 90.076138 98.282777 
L 90.286802 98.029997 
L 90.405632 97.888599 
L 90.677111 97.568724 
L 90.745064 97.489337 
L 90.887064 97.324308 
L 91.05412 97.131642 
L 91.227668 96.933164 
L 91.423691 96.711006 
L 91.531272 96.589981 
L 91.709344 96.391039 
L 91.824363 96.263448 
L 92.043538 96.022257 
L 92.219259 95.830703 
L 92.257303 95.789443 
L 92.473247 95.556641 
L 92.656141 95.361317 
L 92.78404 95.22572 
L 92.945362 95.05584 
L 93.130453 94.862496 
L 93.28745 94.699794 
L 93.438477 94.544388 
L 93.550011 94.430311 
L 93.768223 94.208803 
L 93.85633 94.119989 
L 94.084616 93.89152 
L 94.223961 93.75322 
L 94.427437 93.552828 
L 94.459816 93.521108 
L 94.694013 93.293049 
L 94.791783 93.198546 
L 94.973859 93.023649 
L 95.100355 92.902972 
L 95.374881 92.64339 
L 95.438786 92.583414 
L 95.59442 92.438053 
L 95.804665 92.24326 
L 95.907033 92.149062 
L 96.045334 92.022468 
L 96.186949 91.893629 
L 96.447118 91.658993 
L 96.496091 91.615121 
L 96.756823 91.38311 
L 96.927701 91.232466 
L 97.026213 91.146122 
L 97.230687 90.968068 
L 97.300555 90.907585 
L 97.523606 90.715702 
L 97.684096 90.578767 
L 97.746818 90.525505 
L 98.018362 90.296552 
L 98.158302 90.179591 
L 98.343863 90.025568 
L 98.383717 89.992646 
L 98.604343 89.811394 
L 98.675942 89.752936 
L 98.957398 89.524842 
L 99.136046 89.381464 
L 99.180546 89.345918 
L 99.449242 89.13269 
L 99.479634 89.108723 
L 99.629452 88.991026 
L 99.877609 88.797695 
L 100.011305 88.694367 
L 100.237132 88.521146 
L 100.357896 88.429184 
L 100.427345 88.376508 
L 100.633254 88.221226 
L 100.714046 88.160663 
L 100.866448 88.046974 
L 101.176429 87.817955 
L 101.308217 87.721483 
L 101.467788 87.60538 
L 101.629899 87.488218 
L 101.742732 87.407136 
L 101.853092 87.3282 
L 101.995284 87.22703 
L 102.240914 87.053671 
L 102.391281 86.948418 
L 102.521945 86.857492 
L 102.669445 86.755444 
L 102.812273 86.657224 
L 102.91734 86.585344 
L 103.063854 86.485634 
L 103.369081 86.27986 
L 103.465231 86.215581 
L 103.58815 86.13378 
L 103.811366 85.986306 
L 103.86341 85.952118 
L 104.026952 85.845173 
L 104.245899 85.703138 
L 104.458777 85.566285 
L 104.527505 85.522362 
L 104.628541 85.458021 
L 104.802223 85.348055 
L 105.040033 85.198784 
L 105.129693 85.142892 
L 105.326051 85.021222 
L 105.554499 84.880931 
L 105.599612 84.853387 
L 105.844729 84.704643 
L 105.884468 84.680674 
L 106.077372 84.564891 
L 106.331518 84.41379 
L 106.4202 84.361448 
L 106.559165 84.279826 
L 106.775148 84.153921 
L 106.892308 84.086109 
L 106.892308 138.046154 
z
" style="fill:#808080;opacity:0.5;"/>
   </g>
   <g id="patch_6">
    <path clip-path="url(#p287f9ad99c)" d="M 75.738462 138.046154 
L 75.738462 138.046154 
L 75.743267 138.819974 
L 75.748072 139.140479 
L 75.752878 139.386397 
L 75.757683 139.593704 
L 75.762488 139.776334 
L 75.767294 139.941435 
L 75.772099 140.093251 
L 75.776904 140.234551 
L 75.78171 140.367255 
L 75.786515 140.492762 
L 75.79132 140.612129 
L 75.796126 140.726175 
L 75.800931 140.835555 
L 75.805736 140.940796 
L 75.810542 141.042336 
L 75.815347 141.140537 
L 75.824958 141.328116 
L 75.834568 141.505513 
L 75.844179 141.67422 
L 75.85379 141.835399 
L 75.863401 141.989973 
L 75.873011 142.138691 
L 75.882622 142.282168 
L 75.892233 142.420922 
L 75.906828 142.623566 
L 75.921423 142.817567 
L 75.936019 143.00394 
L 75.950614 143.183515 
L 75.96521 143.356981 
L 75.979805 143.524918 
L 75.9944 143.687821 
L 76.008996 143.846114 
L 76.028532 144.051407 
L 76.048068 144.249849 
L 76.067604 144.442077 
L 76.08714 144.628636 
L 76.106676 144.809995 
L 76.126211 144.986561 
L 76.145747 145.158693 
L 76.165283 145.326703 
L 76.191713 145.547934 
L 76.218143 145.762735 
L 76.244573 145.971628 
L 76.271003 146.175069 
L 76.297433 146.373458 
L 76.323863 146.567147 
L 76.350293 146.75645 
L 76.376723 146.941647 
L 76.420301 147.238696 
L 76.46388 147.526243 
L 76.507459 147.805126 
L 76.551038 148.076068 
L 76.597089 148.35445 
L 76.643141 148.625308 
L 76.6965 148.930479 
L 76.74986 149.22707 
L 76.80322 149.515746 
L 76.856579 149.79709 
L 76.899512 150.018485 
L 76.942445 150.235709 
L 76.987308 150.458482 
L 77.032172 150.677168 
L 77.077035 150.891974 
L 77.121899 151.103093 
L 77.177268 151.358824 
L 77.232636 151.609509 
L 77.307635 151.941505 
L 77.382633 152.265357 
L 77.457631 152.581608 
L 77.532629 152.890745 
L 77.605135 153.183251 
L 77.67764 153.469871 
L 77.749124 153.747005 
L 77.830982 154.058073 
L 77.912839 154.362802 
L 77.977263 154.598401 
L 78.041687 154.830446 
L 78.106253 155.059583 
L 78.170819 155.285433 
L 78.287805 155.686682 
L 78.404791 156.078245 
L 78.518445 156.449968 
L 78.635077 156.823066 
L 78.746633 157.172453 
L 78.858189 157.514931 
L 79.004334 157.953742 
L 79.126199 158.311579 
L 79.218036 158.576644 
L 79.309872 158.837924 
L 79.398364 159.08624 
L 79.486855 159.331291 
L 79.644419 159.75988 
L 79.795077 160.160867 
L 79.909228 160.459238 
L 80.023379 160.753115 
L 80.188306 161.170123 
L 80.305462 161.461129 
L 80.367659 161.613922 
L 80.499406 161.933815 
L 80.631154 162.248764 
L 80.746779 162.521246 
L 80.907897 162.89506 
L 81.027726 163.168801 
L 81.15545 163.456709 
L 81.333355 163.851327 
L 81.463322 164.135073 
L 81.59329 164.415125 
L 81.704728 164.652398 
L 81.861994 164.982907 
L 81.963718 165.194062 
L 82.206606 165.690203 
L 82.286927 165.851858 
L 82.461109 166.198442 
L 82.597684 166.466493 
L 82.804806 166.867015 
L 82.877543 167.006005 
L 83.070443 167.370542 
L 83.202614 167.616996 
L 83.344939 167.879451 
L 83.604035 168.349688 
L 83.686655 168.497647 
L 83.904332 168.883009 
L 84.057551 169.150483 
L 84.167233 169.340089 
L 84.401577 169.740126 
L 84.52336 169.945355 
L 84.636939 170.135159 
L 84.833503 170.460076 
L 85.038411 170.794096 
L 85.148387 170.971445 
L 85.281329 171.184074 
L 85.409704 171.38761 
L 85.609158 171.700425 
L 85.808797 172.009473 
L 85.973473 172.261419 
L 86.028049 172.344336 
L 86.240403 172.664252 
L 86.317375 172.779163 
L 86.526204 173.088176 
L 86.634976 173.247565 
L 86.929534 173.673948 
L 87.034855 173.824582 
L 87.150942 173.989524 
L 87.247067 174.125252 
L 87.491336 174.466738 
L 87.622843 174.648588 
L 87.751668 174.825403 
L 87.898823 175.025793 
L 88.0901 175.283786 
L 88.198369 175.428594 
L 88.462547 175.778295 
L 88.584865 175.938494 
L 88.668385 176.047266 
L 88.840455 176.269808 
L 89.048034 176.535539 
L 89.128167 176.637333 
L 89.424411 177.009914 
L 89.441574 177.031322 
L 89.686819 177.335125 
L 89.859489 177.546708 
L 89.910972 177.60943 
L 90.092237 177.828944 
L 90.298767 178.076587 
L 90.386703 178.181241 
L 90.65714 178.5002 
L 90.726977 178.581867 
L 90.977659 178.872681 
L 91.09885 179.011983 
L 91.177096 179.101482 
L 91.366146 179.316305 
L 91.59692 179.575868 
L 91.691045 179.680904 
L 91.842734 179.849175 
L 92.078782 180.108599 
L 92.165001 180.202628 
L 92.324332 180.375382 
L 92.517638 180.583229 
L 92.68128 180.757707 
L 92.72993 180.80932 
L 92.947024 181.038211 
L 93.112673 181.211312 
L 93.345773 181.452656 
L 93.461125 181.571132 
L 93.542973 181.654816 
L 93.694474 181.808889 
L 93.86078 181.976795 
L 94.036464 182.152794 
L 94.254048 182.368834 
L 94.298228 182.412442 
L 94.574942 182.683607 
L 94.662032 182.768256 
L 94.886776 182.985186 
L 94.920207 183.017269 
L 95.127522 183.215165 
L 95.304126 183.382316 
L 95.420076 183.491351 
L 95.55262 183.615311 
L 95.725604 183.776008 
L 95.862944 183.902727 
L 96.099288 184.11902 
L 96.281156 184.283946 
L 96.446404 184.432675 
L 96.597562 184.567791 
L 96.786556 184.73549 
L 96.836692 184.779748 
L 97.101361 185.011805 
L 97.111623 185.02075 
L 97.413953 185.282504 
L 97.512001 185.366667 
L 97.650098 185.484611 
L 97.750228 185.569694 
L 97.920465 185.713518 
L 98.060807 185.831304 
L 98.270506 186.005995 
L 98.371559 186.089624 
L 98.587101 186.26681 
L 98.713168 186.369696 
L 98.921303 186.538365 
L 99.063612 186.65284 
L 99.205044 186.765931 
L 99.352983 186.883507 
L 99.522386 187.017246 
L 99.648091 187.115873 
L 99.897477 187.310005 
L 100.017669 187.402844 
L 100.200867 187.543455 
L 100.333033 187.644229 
L 100.541374 187.801958 
L 100.580239 187.831229 
L 100.73897 187.950287 
L 100.881076 188.056208 
L 101.056017 188.185742 
L 101.328304 188.385483 
L 101.347898 188.399769 
L 101.53631 188.536547 
L 101.769698 188.704493 
L 101.855029 188.765489 
L 101.972816 188.849331 
L 102.162079 188.98319 
L 102.346232 189.112426 
L 102.487511 189.210902 
L 102.664852 189.333696 
L 102.841957 189.455424 
L 102.90623 189.499378 
L 103.210257 189.705701 
L 103.262 189.740555 
L 103.375031 189.816433 
L 103.549877 189.933102 
L 103.75791 190.07081 
L 103.943187 190.19245 
L 104.123527 190.309945 
L 104.21396 190.368531 
L 104.44852 190.519457 
L 104.576102 190.600926 
L 104.721155 190.693024 
L 104.845398 190.771464 
L 104.960388 190.843697 
L 105.147168 190.960285 
L 105.341883 191.080852 
L 105.407651 191.121352 
L 105.583366 191.229008 
L 105.817966 191.371499 
L 105.924824 191.435935 
L 106.038314 191.504051 
L 106.211361 191.607282 
L 106.463206 191.756171 
L 106.653441 191.867582 
L 106.703492 191.896744 
L 106.892308 192.006198 
L 106.892308 138.046154 
z
" style="fill:#808080;opacity:0.5;"/>
   </g>
   <g id="patch_7">
    <path clip-path="url(#p287f9ad99c)" d="M 200.353846 138.046154 
L 200.340974 139.312592 
L 200.328102 139.837076 
L 200.315231 140.239463 
L 200.302359 140.578638 
L 200.289487 140.877411 
L 200.276615 141.147481 
L 200.263743 141.395796 
L 200.250871 141.626887 
L 200.237999 141.843899 
L 200.225128 142.049122 
L 200.199384 142.430732 
L 200.17364 142.78155 
L 200.147896 143.107981 
L 200.122153 143.414477 
L 200.096409 143.704278 
L 200.070665 143.97983 
L 200.044921 144.243035 
L 200.019178 144.495404 
L 199.993434 144.738164 
L 199.941947 145.198731 
L 199.901212 145.54284 
L 199.860477 145.87162 
L 199.819743 146.186929 
L 199.779008 146.490277 
L 199.738274 146.782908 
L 199.697539 147.065867 
L 199.61607 147.606173 
L 199.533813 148.121686 
L 199.451555 148.611436 
L 199.369298 149.078856 
L 199.287041 149.526672 
L 199.204783 149.957097 
L 199.122526 150.371951 
L 199.040269 150.772759 
L 198.958011 151.160807 
L 198.808349 151.837604 
L 198.658688 152.481156 
L 198.509026 153.095727 
L 198.359364 153.684736 
L 198.238668 154.143042 
L 198.117972 154.587774 
L 197.997276 155.020001 
L 197.87658 155.440653 
L 197.67672 156.113919 
L 197.476859 156.760848 
L 197.329723 157.221841 
L 197.182586 157.670906 
L 197.03545 158.108843 
L 196.888313 158.536366 
L 196.685601 159.109482 
L 196.482888 159.665512 
L 196.234841 160.324511 
L 196.032016 160.847213 
L 195.829191 161.356434 
L 195.626366 161.853038 
L 195.423541 162.337798 
L 195.273314 162.689625 
L 195.076599 163.14151 
L 194.879883 163.583886 
L 194.486452 164.442011 
L 194.065292 165.324436 
L 193.917953 165.62496 
L 193.522438 166.412162 
L 193.126922 167.172731 
L 192.759007 167.858102 
L 192.45203 168.414709 
L 192.145054 168.958247 
L 191.87226 169.430844 
L 191.561445 169.95794 
L 191.25063 170.473492 
L 191.190427 170.572063 
L 190.737197 171.301266 
L 190.283968 172.008771 
L 189.998432 172.443964 
L 189.441939 173.270034 
L 189.220046 173.591636 
L 188.655595 174.390795 
L 188.146514 175.089404 
L 187.826714 175.518068 
L 187.236335 176.289776 
L 186.505785 177.211351 
L 186.478836 177.244671 
L 185.821015 178.043794 
L 185.101141 178.888249 
L 185.018056 178.983776 
L 184.588728 179.471234 
L 184.159401 179.948624 
L 184.145686 179.963712 
L 183.667273 180.483897 
L 182.86816 181.327053 
L 182.554272 181.649777 
L 182.199545 182.00894 
L 181.597566 182.605362 
L 181.181985 183.007788 
L 180.721376 183.445206 
L 180.375585 183.767787 
L 179.716924 184.368885 
L 179.130702 184.889599 
L 178.812975 185.16637 
L 178.115956 185.760507 
L 177.94492 185.903619 
L 177.356097 186.388443 
L 176.662723 186.9441 
L 176.442125 187.11751 
L 176.148336 187.345973 
L 175.488385 187.849044 
L 174.817198 188.346639 
L 174.658213 188.462477 
L 174.03995 188.905717 
L 173.733951 189.1209 
L 173.112736 189.54939 
L 172.461437 189.986859 
L 171.964512 190.312716 
L 171.645664 190.518256 
L 171.014053 190.917376 
L 170.808267 191.045139 
L 170.472793 191.251056 
L 169.887648 191.603299 
L 169.554445 191.800001 
L 168.928709 192.161922 
L 168.599476 192.348484 
L 167.926725 192.721559 
L 167.420215 192.99534 
L 166.990052 193.223135 
L 166.470508 193.492566 
L 166.232093 193.614143 
L 165.438078 194.009812 
L 165.293294 194.080446 
L 164.53677 194.442038 
L 164.172163 194.611869 
L 163.909289 194.732543 
L 163.197565 195.0519 
L 162.770511 195.238415 
L 162.542085 195.336623 
L 161.9536 195.584685 
L 161.491569 195.774492 
L 160.74261 196.073039 
L 160.550938 196.147645 
L 159.800129 196.432908 
L 159.549101 196.525824 
L 159.220229 196.645702 
L 158.733806 196.819188 
L 158.061152 197.051648 
L 157.689442 197.176432 
L 157.048953 197.385366 
L 156.630519 197.517743 
L 156.241142 197.638023 
L 155.908168 197.738674 
L 155.128154 197.966549 
L 154.691525 198.089306 
L 154.317167 198.191833 
L 153.699642 198.355497 
L 153.522261 198.401258 
L 152.805365 198.580559 
L 152.427797 198.67137 
L 152.009414 198.769097 
L 151.626768 198.855819 
L 150.897929 199.014017 
L 150.634607 199.068931 
L 150.125562 199.171733 
L 149.569299 199.279034 
L 148.947637 199.392761 
L 148.847324 199.410502 
L 148.354421 199.495223 
L 147.982356 199.556481 
L 147.511038 199.630766 
L 146.813748 199.733898 
L 146.429163 199.787337 
L 145.82579 199.866262 
L 145.221968 199.939257 
L 145.155512 199.946926 
L 144.570315 200.011336 
L 143.955189 200.073018 
L 143.630872 200.103059 
L 143.038292 200.153537 
L 142.664745 200.182433 
L 141.933561 200.232459 
L 141.471026 200.259647 
L 141.139226 200.277026 
L 140.790218 200.293392 
L 140.280665 200.313766 
L 139.705936 200.331735 
L 139.325848 200.340703 
L 138.884097 200.348211 
L 138.164019 200.353735 
L 137.779718 200.353276 
L 137.198911 200.348086 
L 136.869523 200.342735 
L 136.498683 200.334627 
L 136.055522 200.322039 
L 135.650322 200.307767 
L 135.046474 200.281597 
L 134.465227 200.25086 
L 134.075422 200.227194 
L 133.882349 200.214564 
L 133.254417 200.16932 
L 132.87857 200.139186 
L 132.084075 200.067941 
L 131.969201 200.056791 
L 131.178707 199.974231 
L 130.755544 199.92584 
L 130.433849 199.88709 
L 129.765853 199.801195 
L 129.664731 199.787552 
L 128.8695 199.674374 
L 128.659615 199.642756 
L 127.960172 199.532099 
L 127.788122 199.503629 
L 127.05176 199.376178 
L 126.657556 199.304201 
L 126.226709 199.222532 
L 125.590629 199.096202 
L 125.149538 199.004548 
L 124.604633 198.886716 
L 124.289765 198.816297 
L 123.934022 198.734672 
L 123.545814 198.64309 
L 122.956145 198.498947 
L 122.183785 198.300895 
L 121.856507 198.213785 
L 121.598944 198.143889 
L 121.017635 197.98177 
L 120.692419 197.888416 
L 119.814279 197.626748 
L 119.372755 197.489847 
L 119.324528 197.474676 
L 118.573955 197.232993 
L 118.120283 197.081806 
L 117.848601 196.989409 
L 117.381429 196.827253 
L 116.948088 196.673111 
L 116.265115 196.422818 
L 115.792958 196.244468 
L 115.188731 196.009821 
L 115.070664 195.963124 
L 114.39968 195.692427 
L 114.159661 195.593386 
L 113.696208 195.398823 
L 112.906489 195.057081 
L 112.652955 194.944607 
L 112.027973 194.661547 
L 111.362628 194.35102 
L 110.930515 194.144199 
L 110.664519 194.014847 
L 110.055617 193.712826 
L 109.812441 193.589884 
L 109.432121 193.394918 
L 108.577402 192.944616 
L 108.449236 192.875626 
L 108.041069 192.653328 
L 107.440213 192.318844 
L 106.892308 192.006198 
L 106.892308 200.353846 
L 106.907797 201.743088 
L 106.923287 202.318409 
L 106.938776 202.759785 
L 106.954266 203.131813 
L 106.969755 203.459514 
L 106.985245 203.755723 
L 107.000734 204.028065 
L 107.016224 204.281507 
L 107.031713 204.5195 
L 107.047203 204.744558 
L 107.062693 204.958577 
L 107.078182 205.163031 
L 107.109161 205.547713 
L 107.14014 205.905632 
L 107.171119 206.241671 
L 107.202098 206.559385 
L 107.233077 206.861459 
L 107.264057 207.149979 
L 107.295036 207.426604 
L 107.326015 207.692678 
L 107.387973 208.19743 
L 107.458133 208.731814 
L 107.528293 209.233543 
L 107.598452 209.707875 
L 107.668612 210.158786 
L 107.738772 210.589372 
L 107.808932 211.0021 
L 107.879092 211.39897 
L 107.949252 211.781636 
L 108.047086 212.294096 
L 108.144919 212.78468 
L 108.242753 213.255883 
L 108.340587 213.709756 
L 108.463629 214.258584 
L 108.586671 214.785508 
L 108.686191 215.197277 
L 108.785711 215.597278 
L 108.885231 215.986414 
L 108.984751 216.365477 
L 109.183791 217.096105 
L 109.382831 217.793882 
L 109.544418 218.338842 
L 109.706005 218.866357 
L 109.861842 219.359938 
L 110.017679 219.839775 
L 110.258567 220.556718 
L 110.499455 221.246299 
L 110.697455 221.794481 
L 110.895455 222.327207 
L 111.093455 222.845578 
L 111.291455 223.350563 
L 111.523536 223.926586 
L 111.754574 224.48415 
L 111.985612 225.026956 
L 112.282175 225.703593 
L 112.578737 226.359252 
L 112.899724 227.047055 
L 113.22071 227.713811 
L 113.460719 228.199512 
L 113.700728 228.674852 
L 113.919295 229.099144 
L 114.265447 229.755265 
L 114.611599 230.393071 
L 114.77042 230.679896 
L 115.287011 231.589053 
L 115.730479 232.342263 
L 116.267833 233.223805 
L 116.600769 233.753988 
L 117.204302 234.685987 
L 117.604635 235.284732 
L 118.1559 236.085462 
L 118.468295 236.527629 
L 119.007928 237.272736 
L 119.372026 237.762689 
L 119.736124 238.242809 
L 119.843349 238.382382 
L 120.218199 238.863997 
L 120.593049 239.336058 
L 120.887647 239.700574 
L 121.501682 240.442735 
L 121.792971 240.78678 
L 122.449775 241.544439 
L 122.866453 242.01259 
L 123.411561 242.611004 
L 123.662136 242.880914 
L 124.276299 243.529182 
L 124.646914 243.911521 
L 125.310838 244.580422 
L 125.490439 244.757932 
L 125.944379 245.200248 
L 126.65417 245.874181 
L 127.066454 246.256055 
L 127.735554 246.861354 
L 128.227438 247.295274 
L 128.614924 247.630691 
L 129.194298 248.121956 
L 129.661862 248.509678 
L 129.903445 248.707019 
L 130.205982 248.951326 
L 131.051843 249.6181 
L 131.185877 249.721599 
L 131.671776 250.09197 
L 132.146151 250.446369 
L 132.545723 250.739484 
L 133.25336 251.246749 
L 133.555461 251.458791 
L 134.359807 252.010496 
L 134.775926 252.288725 
L 135.067077 252.480539 
L 135.676669 252.874649 
L 135.934707 253.038463 
L 136.32318 253.281752 
L 136.926634 253.651861 
L 137.462408 253.972628 
L 138.120411 254.356695 
L 138.328727 254.476051 
L 138.85334 254.771938 
L 139.180525 254.95311 
L 139.682006 255.225848 
L 140.069295 255.432432 
L 140.753983 255.789147 
L 141.367154 256.099529 
L 141.863293 256.344497 
L 141.890292 256.357671 
L 142.723684 256.756445 
L 143.026424 256.897568 
L 143.698103 257.203664 
L 143.852514 257.272679 
L 144.598686 257.599142 
L 144.856028 257.709051 
L 145.557693 258.001828 
L 146.028375 258.192625 
L 146.272335 258.289765 
L 146.775584 258.486402 
L 147.496901 258.759531 
L 147.87832 258.899849 
L 147.991438 258.940922 
L 148.76628 259.215647 
L 149.038636 259.30949 
L 149.676426 259.523759 
L 150.241905 259.707356 
L 150.706943 259.853891 
L 151.236111 260.015787 
L 151.65005 260.138859 
L 152.198122 260.297025 
L 152.315137 260.330091 
L 152.915392 260.495845 
L 153.616104 260.681209 
L 153.919996 260.758896 
L 154.338748 260.863281 
L 154.924688 261.004188 
L 155.349339 261.102572 
L 155.898483 261.225171 
L 156.082636 261.26512 
L 156.901765 261.435774 
L 157.303219 261.515232 
L 157.598814 261.571989 
L 157.874828 261.623651 
L 158.5547 261.745426 
L 159.117881 261.840425 
L 159.711582 261.934837 
L 160.128757 261.99767 
L 160.468748 262.046745 
L 160.800533 262.092792 
L 161.316249 262.160763 
L 161.945503 262.237776 
L 162.08966 262.254505 
L 162.943489 262.346625 
L 163.369467 262.388138 
L 163.769369 262.424425 
L 164.420442 262.477951 
L 164.486104 262.482967 
L 165.34864 262.542395 
L 165.389356 262.544903 
L 166.084533 262.583601 
L 166.53072 262.604336 
L 166.879303 262.618305 
L 167.681838 262.64304 
L 168.062855 262.651161 
L 168.459747 262.657141 
L 169.0617 262.661385 
L 169.539783 262.660612 
L 169.79318 262.658715 
L 170.470927 262.648575 
L 170.930375 262.637506 
L 171.427188 262.62172 
L 171.689424 262.611788 
L 172.362503 262.581228 
L 172.424103 262.578067 
L 173.012988 262.544759 
L 173.391851 262.520372 
L 174.071128 262.470838 
L 174.671559 262.420831 
L 174.825451 262.407072 
L 175.33799 262.358472 
L 175.917216 262.298398 
L 176.20666 262.266327 
L 176.777487 262.199058 
L 177.538676 262.101032 
L 177.584521 262.094824 
L 178.086716 262.024543 
L 178.699237 261.933169 
L 179.340202 261.830873 
L 179.893303 261.737083 
L 180.264517 261.671258 
L 180.478063 261.63234 
L 181.099534 261.514697 
L 181.397226 261.456025 
L 181.946456 261.343816 
L 182.401059 261.247036 
L 183.14454 261.081091 
L 183.618079 260.970408 
L 183.916326 260.898691 
L 184.163767 260.838011 
L 185.045535 260.613016 
L 185.322677 260.539457 
L 185.945072 260.36927 
L 186.14628 260.312766 
L 186.708162 260.15111 
L 187.014783 260.060479 
L 187.879773 259.795537 
L 188.053208 259.740756 
L 188.394397 259.63136 
L 188.945939 259.449924 
L 189.416966 259.290446 
L 189.992373 259.089915 
L 190.362906 258.957429 
L 190.93155 258.748951 
L 191.361499 258.58714 
L 191.912905 258.374295 
L 192.287745 258.226158 
L 192.660139 258.076202 
L 193.304735 257.810006 
L 193.985639 257.519575 
L 194.23947 257.40885 
L 194.903493 257.112801 
L 195.162528 256.994783 
L 195.804825 256.695942 
L 196.097868 256.556633 
L 196.684392 256.27215 
L 197.29978 255.965454 
L 197.522444 255.852384 
L 198.082006 255.56325 
L 198.427729 255.381007 
L 199.023113 255.060614 
L 199.587644 254.749063 
L 199.878551 254.585525 
L 200.353846 254.313891 
z
" style="fill:#808080;opacity:0.5;"/>
   </g>
   <g id="patch_8">
    <path clip-path="url(#p287f9ad99c)" d="M 231.507692 200.353846 
L 231.500512 199.407964 
L 231.493332 199.016205 
L 231.486152 198.715624 
L 231.478972 198.462245 
L 231.471792 198.239033 
L 231.464612 198.037251 
L 231.457432 197.851709 
L 231.450252 197.679026 
L 231.443072 197.516853 
L 231.435892 197.363479 
L 231.428712 197.217613 
L 231.421532 197.078252 
L 231.414352 196.944598 
L 231.407172 196.816004 
L 231.399992 196.691937 
L 231.392811 196.571952 
L 231.385631 196.455671 
L 231.378451 196.342773 
L 231.364091 196.126048 
L 231.349731 195.91995 
L 231.335371 195.723059 
L 231.321011 195.534249 
L 231.306651 195.352602 
L 231.292291 195.177365 
L 231.277931 195.007908 
L 231.265177 194.861824 
L 231.252424 194.719555 
L 231.23967 194.58082 
L 231.226917 194.445368 
L 231.211086 194.281473 
L 231.195255 194.121927 
L 231.179425 193.966404 
L 231.163594 193.814617 
L 231.147764 193.666312 
L 231.131933 193.521262 
L 231.100272 193.240134 
L 231.071885 192.997329 
L 231.043499 192.762391 
L 231.015112 192.534612 
L 230.986726 192.313384 
L 230.958339 192.098179 
L 230.929953 191.888538 
L 230.901566 191.684058 
L 230.87318 191.484382 
L 230.829613 191.186549 
L 230.786046 190.898293 
L 230.742479 190.618763 
L 230.698912 190.347229 
L 230.653631 190.072807 
L 230.60835 189.805717 
L 230.56307 189.545414 
L 230.517789 189.29142 
L 230.48087 189.088699 
L 230.44395 188.88968 
L 230.39801 188.64692 
L 230.35207 188.40927 
L 230.306129 188.17643 
L 230.260189 187.948129 
L 230.213473 187.720372 
L 230.166756 187.496818 
L 230.120644 187.280069 
L 230.074532 187.067015 
L 230.02842 186.857482 
L 229.982308 186.651308 
L 229.915486 186.358195 
L 229.848665 186.071409 
L 229.781843 185.790576 
L 229.715021 185.515358 
L 229.620919 185.136717 
L 229.548122 184.850533 
L 229.475324 184.569873 
L 229.385875 184.232153 
L 229.296425 183.90185 
L 229.212978 183.60001 
L 229.12953 183.303921 
L 229.032148 182.965269 
L 228.917211 182.574554 
L 228.802274 182.19297 
L 228.691149 181.83219 
L 228.583544 181.490037 
L 228.475938 181.154584 
L 228.390509 180.892805 
L 228.274616 180.543791 
L 228.154393 180.188824 
L 228.03417 179.840704 
L 227.942848 179.580635 
L 227.820775 179.238608 
L 227.698701 178.902728 
L 227.586488 178.599157 
L 227.403801 178.115004 
L 227.350527 177.976073 
L 227.176687 177.529467 
L 227.056504 177.226515 
L 226.936322 176.928098 
L 226.826011 176.658036 
L 226.720455 176.402944 
L 226.6149 176.151 
L 226.569598 176.043813 
L 226.441446 175.743577 
L 226.313294 175.447619 
L 226.262949 175.332488 
L 226.043376 174.837594 
L 225.892344 174.503765 
L 225.737022 174.165802 
L 225.622745 173.920489 
L 225.447884 173.550413 
L 225.288878 173.21925 
L 225.044095 172.718985 
L 224.991702 172.613361 
L 224.796804 172.224789 
L 224.669364 171.974308 
L 224.526128 171.696071 
L 224.284386 171.234111 
L 224.12507 170.934717 
L 223.940319 170.592361 
L 223.88005 170.481775 
L 223.733402 170.214892 
L 223.480545 169.761839 
L 223.343169 169.519357 
L 223.188798 169.249856 
L 222.996723 168.918816 
L 222.854655 168.676938 
L 222.769174 168.532593 
L 222.589834 168.232605 
L 222.497787 168.080104 
L 222.27599 167.716631 
L 222.086507 167.410472 
L 221.900669 167.113991 
L 221.748997 166.874727 
L 221.697112 166.793427 
L 221.490238 166.472 
L 221.3031 166.184921 
L 221.139072 165.936099 
L 221.086067 165.856244 
L 220.796116 165.424069 
L 220.782067 165.403325 
L 220.587311 165.117604 
L 220.410225 164.860729 
L 220.227804 164.598963 
L 220.048072 164.343818 
L 219.932949 164.181807 
L 219.771461 163.956375 
L 219.548867 163.649077 
L 219.518181 163.607021 
L 219.334909 163.357368 
L 219.10183 163.04358 
L 218.960455 162.855237 
L 218.880024 162.748744 
L 218.691607 162.501114 
L 218.555127 162.323333 
L 218.384678 162.103147 
L 218.230462 161.905669 
L 218.105805 161.747231 
L 217.898464 161.486017 
L 217.791042 161.351806 
L 217.549995 161.053382 
L 217.427984 160.90375 
L 217.256344 160.694845 
L 217.042814 160.437512 
L 216.973302 160.354344 
L 216.781608 160.126504 
L 216.637378 159.956524 
L 216.441698 159.727863 
L 216.313242 159.578964 
L 216.146184 159.386733 
L 216.07579 159.306205 
L 215.840293 159.038818 
L 215.7707 158.960388 
L 215.485482 158.641705 
L 215.390284 158.536311 
L 215.297528 158.434084 
L 215.126082 158.246323 
L 214.875673 157.974825 
L 214.704842 157.791446 
L 214.576836 157.655003 
L 214.460314 157.531509 
L 214.293891 157.356294 
L 214.085581 157.138882 
L 213.97982 157.029301 
L 213.870045 156.916125 
L 213.706295 156.748362 
L 213.533177 156.572367 
L 213.409288 156.447271 
L 213.207006 156.244528 
L 213.080378 156.118555 
L 212.87776 155.91848 
L 212.793655 155.835964 
L 212.574721 155.622625 
L 212.341096 155.397263 
L 212.256365 155.316107 
L 212.170536 155.23421 
L 211.889251 154.967985 
L 211.756369 154.843364 
L 211.673222 154.765756 
L 211.536222 154.6385 
L 211.255437 154.380063 
L 211.157611 154.290765 
L 211.067528 154.208872 
L 210.79788 153.965649 
L 210.69145 153.870428 
L 210.58964 153.779752 
L 210.315797 153.537826 
L 210.158922 153.400516 
L 210.090328 153.340767 
L 209.921846 153.194756 
L 209.7283 153.02832 
L 209.573477 152.896172 
L 209.462189 152.80172 
L 209.249358 152.622332 
L 209.115425 152.510274 
L 208.966449 152.386377 
L 208.74965 152.207468 
L 208.705901 152.171564 
L 208.526007 152.024624 
L 208.298524 151.840405 
L 208.242318 151.795161 
L 208.075981 151.66189 
L 207.874533 151.501732 
L 207.768413 151.417908 
L 207.6252 151.305375 
L 207.447123 151.166387 
L 207.31904 151.06706 
L 207.061932 150.869276 
L 206.934748 150.772223 
L 206.785981 150.659354 
L 206.579836 150.504108 
L 206.438299 150.39829 
L 206.284819 150.284247 
L 206.070052 150.125888 
L 206.059219 150.117938 
L 205.782129 149.915801 
L 205.608414 149.790263 
L 205.453719 149.679233 
L 205.407904 149.646488 
L 205.171175 149.478281 
L 205.056164 149.397158 
L 204.869746 149.266492 
L 204.670473 149.127934 
L 204.567741 149.056951 
L 204.423181 148.957582 
L 204.300915 148.874003 
L 204.084328 148.726991 
L 203.92129 148.6172 
L 203.752033 148.50401 
L 203.715634 148.479772 
L 203.480401 148.324022 
L 203.367446 148.249776 
L 203.143239 148.103439 
L 203.076689 148.060266 
L 202.857495 147.918919 
L 202.647621 147.784795 
L 202.498357 147.690121 
L 202.454386 147.662344 
L 202.190374 147.496645 
L 202.111058 147.447223 
L 201.883359 147.306259 
L 201.808703 147.260334 
L 201.672094 147.176674 
L 201.43055 147.029929 
L 201.345561 146.978651 
L 201.18177 146.880349 
L 200.929997 146.73057 
L 200.901754 146.713867 
L 200.707954 146.599801 
L 200.578808 146.524311 
L 200.353846 146.393802 
L 200.353846 254.313891 
L 200.56991 254.188568 
L 200.593328 254.174915 
L 200.791445 254.058866 
L 200.949691 253.965465 
L 201.125525 253.860943 
L 201.263805 253.778194 
L 201.373952 253.711932 
L 201.681993 253.524973 
L 201.819138 253.440948 
L 201.916192 253.381191 
L 202.005673 253.325879 
L 202.246834 253.175767 
L 202.401466 253.078709 
L 202.523959 253.001375 
L 202.657591 252.916553 
L 202.814751 252.816185 
L 202.968322 252.717468 
L 203.1599 252.593426 
L 203.272839 252.519833 
L 203.527352 252.352706 
L 203.631803 252.283601 
L 203.792257 252.176856 
L 203.93033 252.084424 
L 204.078465 251.984663 
L 204.269987 251.854764 
L 204.442467 251.736889 
L 204.520787 251.683083 
L 204.762986 251.515576 
L 204.940107 251.392001 
L 205.046725 251.317174 
L 205.234806 251.184361 
L 205.412225 251.058119 
L 205.516289 250.983636 
L 205.677235 250.867803 
L 205.82035 250.764148 
L 205.995339 250.636563 
L 206.134944 250.534105 
L 206.354701 250.37161 
L 206.437045 250.310337 
L 206.663814 250.140502 
L 206.818649 250.023614 
L 206.902285 249.960159 
L 207.14643 249.77365 
L 207.296761 249.657856 
L 207.416108 249.565406 
L 207.596136 249.425072 
L 207.754602 249.300666 
L 207.897095 249.18809 
L 208.023444 249.087702 
L 208.103742 249.023625 
L 208.385885 248.79675 
L 208.555567 248.659 
L 208.630201 248.598097 
L 208.755872 248.495113 
L 208.891247 248.383561 
L 209.061843 248.24207 
L 209.304776 248.038807 
L 209.44668 247.919099 
L 209.638623 247.756022 
L 209.751926 247.65913 
L 209.946811 247.491367 
L 210.110772 247.349136 
L 210.226706 247.24796 
L 210.309265 247.175602 
L 210.504102 247.003816 
L 210.686827 246.84139 
L 210.862665 246.683868 
L 210.95537 246.600333 
L 211.176241 246.39995 
L 211.390079 246.2041 
L 211.424434 246.172464 
L 211.633734 245.978694 
L 211.746723 245.873347 
L 211.91644 245.714118 
L 212.023348 245.613203 
L 212.232632 245.414262 
L 212.432225 245.222802 
L 212.499955 245.157444 
L 212.762422 244.902291 
L 212.819715 244.846194 
L 212.992696 244.675943 
L 213.265732 244.404497 
L 213.280174 244.390044 
L 213.44694 244.222478 
L 213.673956 243.992312 
L 213.769667 243.894555 
L 214.010955 243.646187 
L 214.206612 243.442747 
L 214.351473 243.290928 
L 214.468026 243.168031 
L 214.623605 243.002933 
L 214.757552 242.859821 
L 214.877834 242.730538 
L 215.012305 242.585129 
L 215.259637 242.315238 
L 215.438421 242.118149 
L 215.608293 241.929306 
L 215.722656 241.801295 
L 215.807368 241.706013 
L 215.946485 241.548684 
L 216.132347 241.33681 
L 216.255584 241.195253 
L 216.50984 240.900456 
L 216.621061 240.770322 
L 216.739173 240.631328 
L 217.0225 240.294515 
L 217.142768 240.150071 
L 217.276989 239.987818 
L 217.364537 239.88138 
L 217.541092 239.665261 
L 217.694756 239.475543 
L 217.86468 239.263966 
L 218.064909 239.012211 
L 218.24333 238.785607 
L 218.340362 238.661461 
L 218.580707 238.35114 
L 218.642051 238.271285 
L 218.823498 238.033508 
L 219.015643 237.779107 
L 219.10319 237.662293 
L 219.32054 237.369789 
L 219.516734 237.102652 
L 219.595157 236.995034 
L 219.72501 236.81577 
L 219.969662 236.474339 
L 220.032678 236.385602 
L 220.308662 235.993055 
L 220.438831 235.805655 
L 220.494052 235.72571 
L 220.640708 235.51209 
L 220.875496 235.16608 
L 221.002757 234.976424 
L 221.172264 234.721451 
L 221.273682 234.567589 
L 221.456603 234.287545 
L 221.600352 234.065145 
L 221.780704 233.783145 
L 221.92854 233.549473 
L 222.182412 233.142755 
L 222.345089 232.878422 
L 222.416105 232.762097 
L 222.559096 232.526123 
L 222.790652 232.138913 
L 222.827705 232.076358 
L 223.078453 231.648587 
L 223.183773 231.466558 
L 223.407301 231.075452 
L 223.597575 230.737269 
L 223.64885 230.645285 
L 223.823973 230.328337 
L 224.018995 229.970165 
L 224.210394 229.613119 
L 224.369747 229.311531 
L 224.417583 229.220211 
L 224.562244 228.94179 
L 224.717041 228.640002 
L 224.953461 228.171108 
L 225.031978 228.01318 
L 225.219334 227.631726 
L 225.453866 227.144722 
L 225.584372 226.868958 
L 225.657017 226.713924 
L 225.784653 226.438815 
L 225.912288 226.160142 
L 226.002967 225.95993 
L 226.154349 225.621427 
L 226.274257 225.3494 
L 226.393484 225.075373 
L 226.512712 224.797692 
L 226.674292 224.415316 
L 226.738348 224.261731 
L 226.932138 223.789902 
L 227.063755 223.463031 
L 227.195371 223.130709 
L 227.226379 223.051595 
L 227.404242 222.591533 
L 227.533307 222.250736 
L 227.685765 221.840208 
L 227.835105 221.429259 
L 227.984444 221.009055 
L 228.13168 220.58515 
L 228.272292 220.170829 
L 228.356057 219.919362 
L 228.439822 219.664258 
L 228.58806 219.20343 
L 228.662859 218.966125 
L 228.773436 218.609097 
L 228.884014 218.244263 
L 228.953278 218.011543 
L 229.022543 217.775439 
L 229.120198 217.43654 
L 229.241651 217.00463 
L 229.302378 216.784082 
L 229.363105 216.560305 
L 229.472243 216.14958 
L 229.528674 215.932667 
L 229.585104 215.712483 
L 229.678206 215.341679 
L 229.771308 214.960871 
L 229.828358 214.722238 
L 229.885409 214.479344 
L 229.942459 214.231964 
L 229.99951 213.979855 
L 230.072017 213.652193 
L 230.144525 213.315845 
L 230.19498 213.076306 
L 230.245434 212.831967 
L 230.315207 212.485623 
L 230.384979 212.128684 
L 230.43857 211.846719 
L 230.49216 211.557403 
L 230.545605 211.260968 
L 230.59905 210.95598 
L 230.652495 210.641676 
L 230.705939 210.317175 
L 230.757444 209.993849 
L 230.808948 209.65901 
L 230.842465 209.434322 
L 230.875982 209.203803 
L 230.909499 208.966987 
L 230.943017 208.723339 
L 230.976534 208.472244 
L 231.010051 208.212987 
L 231.043568 207.944734 
L 231.077086 207.666493 
L 231.108767 207.393241 
L 231.140449 207.108797 
L 231.156289 206.961928 
L 231.17213 206.811681 
L 231.187971 206.657814 
L 231.203811 206.500056 
L 231.229277 206.237496 
L 231.24201 206.101677 
L 231.254742 205.962542 
L 231.267475 205.819837 
L 231.280208 205.673275 
L 231.292941 205.522526 
L 231.305673 205.367215 
L 231.318406 205.206903 
L 231.331139 205.041076 
L 231.343871 204.869127 
L 231.356604 204.690328 
L 231.369337 204.503794 
L 231.38207 204.30843 
L 231.394802 204.102856 
L 231.401169 203.995704 
L 231.407535 203.88529 
L 231.413795 203.773238 
L 231.420055 203.657375 
L 231.426315 203.537286 
L 231.432574 203.412473 
L 231.438834 203.282332 
L 231.445094 203.146118 
L 231.451354 203.002895 
L 231.457614 202.851456 
L 231.463874 202.690205 
L 231.467003 202.605246 
L 231.470133 202.516948 
L 231.473263 202.424885 
L 231.476393 202.328529 
L 231.479523 202.227218 
L 231.482653 202.1201 
L 231.485783 202.006047 
L 231.488913 201.883506 
L 231.492043 201.750245 
L 231.495173 201.602839 
L 231.498303 201.43552 
L 231.501432 201.23704 
L 231.504562 200.978366 
z
" style="fill:#808080;opacity:0.5;"/>
   </g>
   <g id="matplotlib.axis_1"/>
   <g id="matplotlib.axis_2"/>
   <g id="line2d_1">
    <path clip-path="url(#p287f9ad99c)" d="M 106.892308 84.086109 
L 110.315108 82.24976 
L 113.401922 80.819321 
L 116.866588 79.44859 
L 120.460811 78.271542 
L 124.208009 77.294576 
L 127.817257 76.583822 
L 131.608059 76.07197 
L 135.388644 75.795161 
L 138.930633 75.74474 
L 142.593198 75.904598 
L 146.21442 76.276194 
L 150.07991 76.911571 
L 153.806657 77.764689 
L 157.545241 78.868167 
L 160.772974 80.031154 
L 164.256178 81.519318 
L 167.576226 83.180652 
L 170.599347 84.918589 
L 173.872062 87.06819 
L 176.734272 89.204798 
L 179.501294 91.530351 
L 181.936145 93.820401 
L 184.437854 96.452179 
L 186.72709 99.156374 
L 188.846201 101.968408 
L 191.055252 105.300406 
L 192.964209 108.61393 
L 194.707057 112.12723 
L 196.232224 115.760962 
L 197.52177 119.474681 
L 198.497314 122.949608 
L 199.278728 126.521382 
L 199.889355 130.452272 
L 200.227167 134.074986 
L 200.332733 136.424244 
L 200.353846 138.046154 
L 200.353846 138.046154 
" style="fill:none;stroke:#0000ff;stroke-linecap:square;"/>
   </g>
   <g id="line2d_2">
    <path clip-path="url(#p287f9ad99c)" d="M 75.738462 138.046154 
L 75.873589 133.944856 
L 76.228499 130.247046 
L 76.812347 126.527935 
L 77.62686 122.822571 
L 78.666399 119.170424 
L 79.912027 115.62581 
L 81.383282 112.131536 
L 83.023997 108.809006 
L 84.874881 105.564401 
L 86.878683 102.491429 
L 89.110746 99.477069 
L 91.531272 96.589981 
L 94.084616 93.89152 
L 96.756823 91.38311 
L 99.629452 88.991026 
L 102.669445 86.755444 
L 105.844729 84.704643 
L 106.892308 84.086109 
L 106.892308 84.086109 
" style="fill:none;stroke:#0000ff;stroke-linecap:square;"/>
   </g>
   <g id="line2d_3">
    <path clip-path="url(#p287f9ad99c)" d="M 75.738462 138.046154 
L 75.873011 142.138691 
L 76.218143 145.762735 
L 76.80322 149.515746 
L 77.605135 153.183251 
L 78.635077 156.823066 
L 79.909228 160.459238 
L 81.333355 163.851327 
L 82.877543 167.006005 
L 84.636939 170.135159 
L 86.634976 173.247565 
L 88.840455 176.269808 
L 91.177096 179.101482 
L 93.694474 181.808889 
L 96.446404 184.432675 
L 99.352983 186.883507 
L 102.346232 189.112426 
L 105.407651 191.121352 
L 106.892308 192.006198 
L 106.892308 192.006198 
" style="fill:none;stroke:#0000ff;stroke-linecap:square;"/>
   </g>
   <g id="line2d_4">
    <path clip-path="url(#p287f9ad99c)" d="M 106.892308 200.353846 
L 107.047203 204.744558 
L 107.387973 208.19743 
L 107.949252 211.781636 
L 108.785711 215.597278 
L 109.861842 219.359938 
L 111.093455 222.845578 
L 112.578737 226.359252 
L 114.265447 229.755265 
L 116.267833 233.223805 
L 118.468295 236.527629 
L 120.887647 239.700574 
L 123.662136 242.880914 
L 125.944379 245.200248 
L 128.614924 247.630691 
L 131.671776 250.09197 
L 134.775926 252.288725 
L 137.462408 253.972628 
L 140.753983 255.789147 
L 143.852514 257.272679 
L 147.496901 258.759531 
L 150.706943 259.853891 
L 154.338748 260.863281 
L 157.874828 261.623651 
L 161.316249 262.160763 
L 165.34864 262.542395 
L 169.0617 262.661385 
L 173.012988 262.544759 
L 176.777487 262.199058 
L 180.478063 261.63234 
L 184.163767 260.838011 
L 188.053208 259.740756 
L 191.361499 258.58714 
L 194.903493 257.112801 
L 198.082006 255.56325 
L 200.353846 254.313891 
L 200.353846 254.313891 
" style="fill:none;stroke:#228b22;stroke-linecap:square;"/>
   </g>
   <g id="line2d_5">
    <path clip-path="url(#p287f9ad99c)" d="M 200.353846 254.313891 
L 203.527352 252.352706 
L 206.437045 250.310337 
L 209.44668 247.919099 
L 212.232632 245.414262 
L 214.877834 242.730538 
L 217.364537 239.88138 
L 219.595157 236.995034 
L 221.600352 234.065145 
L 223.597575 230.737269 
L 225.219334 227.631726 
L 226.738348 224.261731 
L 228.13168 220.58515 
L 229.241651 217.00463 
L 230.144525 213.315845 
L 230.808948 209.65901 
L 231.254742 205.962542 
L 231.479523 202.227218 
L 231.507692 200.353846 
L 231.507692 200.353846 
" style="fill:none;stroke:#228b22;stroke-linecap:square;"/>
   </g>
   <g id="text_1">
    <!-- $\Omega$ -->
    <g transform="translate(16.011538 22.420913)scale(0.1 -0.1)">
     <defs>
      <path d="M 7.71875 0 
L 4.390625 16.609375 
L 7.328125 16.609375 
Q 7.859375 13.71875 8.296875 11.5 
Q 8.734375 9.28125 9.4375 8.375 
Q 10.15625 7.46875 11.71875 7.171875 
Q 13.28125 6.890625 16.890625 6.890625 
L 23 6.890625 
Q 21.53125 12.546875 15.6875 21.65625 
Q 9.859375 30.765625 7.734375 34.890625 
Q 5.609375 39.015625 5.609375 45.515625 
Q 5.609375 53.078125 10.09375 58.765625 
Q 14.59375 64.453125 21.703125 67.484375 
Q 28.8125 70.515625 36.078125 70.515625 
Q 43.3125 70.515625 50.40625 67.484375 
Q 57.515625 64.453125 62 58.71875 
Q 66.5 52.984375 66.5 45.515625 
Q 66.5 40.4375 64.640625 35.9375 
Q 62.796875 31.453125 59.90625 26.953125 
Q 57.03125 22.46875 53.6875 16.9375 
Q 50.34375 11.421875 49.125 6.890625 
L 55.171875 6.890625 
Q 58.84375 6.890625 60.453125 7.171875 
Q 62.0625 7.46875 62.734375 8.375 
Q 63.421875 9.28125 63.84375 11.5 
Q 64.265625 13.71875 64.796875 16.609375 
L 67.671875 16.609375 
L 64.40625 0 
L 46.6875 0 
Q 45.703125 0 45.703125 1.3125 
Q 45.703125 6.390625 46.9375 11.265625 
Q 48.1875 16.15625 50.625 23.09375 
Q 53.078125 30.03125 54.4375 35.328125 
Q 55.8125 40.625 55.8125 45.515625 
Q 55.8125 51.515625 53.46875 56.640625 
Q 51.125 61.765625 46.625 64.84375 
Q 42.140625 67.921875 36.078125 67.921875 
Q 26.953125 67.921875 21.625 61.40625 
Q 16.3125 54.890625 16.3125 45.515625 
Q 16.359375 40.375 17.53125 35.828125 
Q 18.703125 31.296875 21.3125 23.71875 
Q 23.921875 16.15625 25.171875 11.265625 
Q 26.421875 6.390625 26.421875 1.3125 
Q 26.421875 0 25.390625 0 
z
" id="Cmr10-173"/>
     </defs>
     <use transform="translate(0 0.484375)" xlink:href="#Cmr10-173"/>
    </g>
   </g>
   <g id="text_2">
    <!-- $A$ -->
    <g style="fill:#0000ff;" transform="translate(103.142308 78.497837)scale(0.1 -0.1)">
     <defs>
      <path d="M 4.5 0 
Q 3.515625 0 3.515625 1.3125 
Q 3.90625 3.515625 4.78125 3.515625 
Q 8.84375 3.515625 11.796875 5.125 
Q 14.75 6.734375 16.890625 10.109375 
Q 17.09375 10.296875 17.09375 10.296875 
L 52.78125 70.515625 
Q 53.5625 71.578125 54.6875 71.578125 
L 56 71.578125 
Q 56.296875 71.578125 56.59375 71.453125 
Q 56.890625 71.34375 57.109375 71.0625 
Q 57.328125 70.796875 57.328125 70.515625 
L 63.375 5.90625 
Q 63.375 5.46875 63.8125 4.59375 
Q 64.796875 3.515625 71.296875 3.515625 
Q 72.3125 3.515625 72.3125 2.203125 
Q 71.96875 0.875 71.75 0.4375 
Q 71.53125 0 70.609375 0 
L 45.609375 0 
Q 44.671875 0 44.671875 1.3125 
Q 45.21875 3.515625 46 3.515625 
Q 53.90625 3.515625 54.390625 6.203125 
L 52.875 22.703125 
L 28.21875 22.703125 
L 20.21875 9.28125 
Q 19.484375 8.203125 19.484375 6.78125 
Q 19.484375 5.03125 21.171875 4.265625 
Q 22.859375 3.515625 24.90625 3.515625 
Q 25.875 3.515625 25.875 2.203125 
Q 25.53125 0.78125 25.328125 0.390625 
Q 25.140625 0 24.21875 0 
z
M 30.171875 26.21875 
L 52.484375 26.21875 
L 49.515625 58.59375 
z
" id="Cmmi10-65"/>
     </defs>
     <use transform="translate(0 0.421875)" xlink:href="#Cmmi10-65"/>
    </g>
   </g>
   <g id="text_3">
    <!-- $B$ -->
    <g style="fill:#ff0000;" transform="translate(227.707692 78.497837)scale(0.1 -0.1)">
     <defs>
      <path d="M 4.984375 0 
Q 4 0 4 1.3125 
Q 4.046875 1.5625 4.1875 2.140625 
Q 4.34375 2.734375 4.578125 3.125 
Q 4.828125 3.515625 5.328125 3.515625 
Q 8.15625 3.515625 10.25 3.65625 
Q 12.359375 3.8125 13.8125 4.203125 
Q 14.984375 4.640625 15.71875 6.890625 
L 29.390625 61.8125 
Q 29.59375 62.796875 29.59375 63.1875 
Q 29.59375 64.265625 28.421875 64.40625 
Q 26.515625 64.796875 21.1875 64.796875 
Q 20.21875 64.796875 20.21875 66.109375 
Q 20.265625 66.359375 20.40625 66.96875 
Q 20.5625 67.578125 20.828125 67.9375 
Q 21.09375 68.3125 21.484375 68.3125 
L 57.328125 68.3125 
Q 60.59375 68.3125 63.796875 67.5 
Q 67 66.703125 69.703125 64.9375 
Q 72.40625 63.1875 74 60.5625 
Q 75.59375 57.953125 75.59375 54.5 
Q 75.59375 50.734375 73.65625 47.5 
Q 71.734375 44.28125 68.671875 41.890625 
Q 65.625 39.5 62.078125 37.953125 
Q 58.546875 36.421875 54.6875 35.6875 
Q 57.421875 35.6875 60.21875 34.609375 
Q 63.03125 33.546875 65.234375 31.6875 
Q 67.4375 29.828125 68.78125 27.234375 
Q 70.125 24.65625 70.125 21.6875 
Q 70.125 15.671875 65.921875 10.6875 
Q 61.71875 5.71875 55.34375 2.859375 
Q 48.96875 0 43.015625 0 
z
M 23.390625 4.296875 
Q 23.390625 3.515625 26.8125 3.515625 
L 41.109375 3.515625 
Q 46 3.515625 50.484375 6.21875 
Q 54.984375 8.9375 57.6875 13.421875 
Q 60.40625 17.921875 60.40625 22.796875 
Q 60.40625 25.78125 59.15625 28.4375 
Q 57.90625 31.109375 55.5625 32.640625 
Q 53.21875 34.1875 50.203125 34.1875 
L 30.71875 34.1875 
L 23.78125 6.5 
Q 23.390625 5.125 23.390625 4.296875 
z
M 31.390625 36.8125 
L 46.578125 36.8125 
Q 51.375 36.8125 55.890625 39.25 
Q 60.40625 41.703125 63.25 45.890625 
Q 66.109375 50.09375 66.109375 54.78125 
Q 66.109375 59.125 63.390625 61.953125 
Q 60.6875 64.796875 56.390625 64.796875 
L 42.671875 64.796875 
Q 39.984375 64.796875 39.0625 64.296875 
Q 38.140625 63.8125 37.5 61.375 
z
" id="Cmmi10-66"/>
     </defs>
     <use transform="translate(0 0.6875)" xlink:href="#Cmmi10-66"/>
    </g>
   </g>
   <g id="text_4">
    <!-- $C$ -->
    <g style="fill:#228b22;" transform="translate(150.023077 271.651683)scale(0.1 -0.1)">
     <defs>
      <path d="M 14.59375 21.578125 
Q 14.59375 15.578125 16.90625 11.015625 
Q 19.234375 6.453125 23.65625 3.875 
Q 28.078125 1.3125 34.078125 1.3125 
Q 40.375 1.3125 46.203125 4.53125 
Q 52.046875 7.765625 56.171875 13.15625 
Q 60.296875 18.5625 61.8125 24.609375 
Q 62.015625 25.203125 62.59375 25.203125 
L 63.8125 25.203125 
Q 64.203125 25.203125 64.453125 24.921875 
Q 64.703125 24.65625 64.703125 24.3125 
Q 64.703125 24.21875 64.59375 24.03125 
Q 62.890625 17.09375 57.984375 11.015625 
Q 53.078125 4.9375 46.234375 1.359375 
Q 39.40625 -2.203125 32.171875 -2.203125 
Q 24.359375 -2.203125 18.15625 1.3125 
Q 11.96875 4.828125 8.515625 11.078125 
Q 5.078125 17.328125 5.078125 25.203125 
Q 5.078125 33.59375 8.828125 41.8125 
Q 12.59375 50.046875 18.9375 56.46875 
Q 25.296875 62.890625 33.421875 66.703125 
Q 41.546875 70.515625 49.90625 70.515625 
Q 53.21875 70.515625 56.25 69.5 
Q 59.28125 68.5 61.859375 66.453125 
Q 64.453125 64.40625 66.109375 61.71875 
L 74.03125 70.3125 
Q 74.03125 70.515625 74.515625 70.515625 
L 75.09375 70.515625 
Q 75.484375 70.515625 75.734375 70.171875 
Q 75.984375 69.828125 75.984375 69.484375 
L 69.1875 42.484375 
Q 69.1875 41.796875 68.40625 41.796875 
L 66.609375 41.796875 
Q 65.828125 41.796875 65.828125 42.921875 
Q 66.21875 45.125 66.21875 48.1875 
Q 66.21875 53.078125 64.546875 57.390625 
Q 62.890625 61.71875 59.390625 64.359375 
Q 55.90625 67 50.875 67 
Q 42.71875 67 35.9375 62.890625 
Q 29.15625 58.796875 24.4375 52.125 
Q 19.734375 45.453125 17.15625 37.328125 
Q 14.59375 29.203125 14.59375 21.578125 
z
" id="Cmmi10-67"/>
     </defs>
     <use transform="translate(0 0.484375)" xlink:href="#Cmmi10-67"/>
    </g>
   </g>
   <g id="patch_9">
    <path clip-path="url(#p287f9ad99c)" d="M 138.046154 200.353846 
C 154.570347 200.353846 170.419977 193.788715 182.104346 182.104346 
C 193.788715 170.419977 200.353846 154.570347 200.353846 138.046154 
C 200.353846 121.521961 193.788715 105.672331 182.104346 93.987962 
C 170.419977 82.303593 154.570347 75.738462 138.046154 75.738462 
C 121.521961 75.738462 105.672331 82.303593 93.987962 93.987962 
C 82.303593 105.672331 75.738462 121.521961 75.738462 138.046154 
C 75.738462 154.570347 82.303593 170.419977 93.987962 182.104346 
C 105.672331 193.788715 121.521961 200.353846 138.046154 200.353846 
z
" style="fill:none;stroke:#0000ff;stroke-linejoin:miter;"/>
   </g>
   <g id="patch_10">
    <path clip-path="url(#p287f9ad99c)" d="M 200.353846 200.353846 
C 216.878039 200.353846 232.727669 193.788715 244.412038 182.104346 
C 256.096407 170.419977 262.661538 154.570347 262.661538 138.046154 
C 262.661538 121.521961 256.096407 105.672331 244.412038 93.987962 
C 232.727669 82.303593 216.878039 75.738462 200.353846 75.738462 
C 183.829653 75.738462 167.980023 82.303593 156.295654 93.987962 
C 144.611285 105.672331 138.046154 121.521961 138.046154 138.046154 
C 138.046154 154.570347 144.611285 170.419977 156.295654 182.104346 
C 167.980023 193.788715 183.829653 200.353846 200.353846 200.353846 
z
" style="fill:none;stroke:#ff0000;stroke-linejoin:miter;"/>
   </g>
   <g id="patch_11">
    <path clip-path="url(#p287f9ad99c)" d="M 169.2 262.661538 
C 185.724193 262.661538 201.573823 256.096407 213.258192 244.412038 
C 224.942561 232.727669 231.507692 216.878039 231.507692 200.353846 
C 231.507692 183.829653 224.942561 167.980023 213.258192 156.295654 
C 201.573823 144.611285 185.724193 138.046154 169.2 138.046154 
C 152.675807 138.046154 136.826177 144.611285 125.141808 156.295654 
C 113.457439 167.980023 106.892308 183.829653 106.892308 200.353846 
C 106.892308 216.878039 113.457439 232.727669 125.141808 244.412038 
C 136.826177 256.096407 152.675807 262.661538 169.2 262.661538 
z
" style="fill:none;stroke:#228b22;stroke-linejoin:miter;"/>
   </g>
  </g>
 </g>
 <defs>
  <clipPath id="p287f9ad99c">
   <rect height="324" width="324" x="7.2" y="7.2"/>
  </clipPath>
 </defs>
</svg>
