<?xml version="1.0" encoding="utf-8" standalone="no"?>
<!DOCTYPE svg PUBLIC "-//W3C//DTD SVG 1.1//EN"
  "http://www.w3.org/Graphics/SVG/1.1/DTD/svg11.dtd">
<!-- Created with matplotlib (https://matplotlib.org/) -->
<svg height="337.726922pt" version="1.1" viewBox="0 0 453.6 337.726922" width="453.6pt" xmlns="http://www.w3.org/2000/svg" xmlns:xlink="http://www.w3.org/1999/xlink">
 <metadata>
  <rdf:RDF xmlns:cc="http://creativecommons.org/ns#" xmlns:dc="http://purl.org/dc/elements/1.1/" xmlns:rdf="http://www.w3.org/1999/02/22-rdf-syntax-ns#">
   <cc:Work>
    <dc:type rdf:resource="http://purl.org/dc/dcmitype/StillImage"/>
    <dc:date>2021-08-20T18:31:07.235629</dc:date>
    <dc:format>image/svg+xml</dc:format>
    <dc:creator>
     <cc:Agent>
      <dc:title>Matplotlib v3.3.4, https://matplotlib.org/</dc:title>
     </cc:Agent>
    </dc:creator>
   </cc:Work>
  </rdf:RDF>
 </metadata>
 <defs>
  <style type="text/css">*{stroke-linecap:butt;stroke-linejoin:round;}</style>
 </defs>
 <g id="figure_1">
  <g id="patch_1">
   <path d="M 0 337.726922 
L 453.6 337.726922 
L 453.6 0 
L 0 0 
z
" style="fill:#ffffff;"/>
  </g>
  <g id="axes_1">
   <g id="patch_2">
    <path d="M 7.2 325.515903 
L 446.4 325.515903 
L 446.4 10.131189 
L 7.2 10.131189 
z
" style="fill:#ffffff;"/>
   </g>
   <g id="matplotlib.axis_1">
    <g id="xtick_1">
     <g id="line2d_1">
      <defs>
       <path d="M 0 0 
L 0 3.5 
" id="m013cb88195" style="stroke:#000000;stroke-width:0.8;"/>
      </defs>
      <g>
       <use style="stroke:#000000;stroke-width:0.8;" x="25.16293" xlink:href="#m013cb88195" y="167.823617"/>
      </g>
     </g>
     <g id="text_1">
      <!-- −3 -->
      <g transform="translate(17.791836 182.422055)scale(0.1 -0.1)">
       <defs>
        <path d="M 10.59375 35.5 
L 73.1875 35.5 
L 73.1875 27.203125 
L 10.59375 27.203125 
z
" id="DejaVuSans-8722"/>
        <path d="M 40.578125 39.3125 
Q 47.65625 37.796875 51.625 33 
Q 55.609375 28.21875 55.609375 21.1875 
Q 55.609375 10.40625 48.1875 4.484375 
Q 40.765625 -1.421875 27.09375 -1.421875 
Q 22.515625 -1.421875 17.65625 -0.515625 
Q 12.796875 0.390625 7.625 2.203125 
L 7.625 11.71875 
Q 11.71875 9.328125 16.59375 8.109375 
Q 21.484375 6.890625 26.8125 6.890625 
Q 36.078125 6.890625 40.9375 10.546875 
Q 45.796875 14.203125 45.796875 21.1875 
Q 45.796875 27.640625 41.28125 31.265625 
Q 36.765625 34.90625 28.71875 34.90625 
L 20.21875 34.90625 
L 20.21875 43.015625 
L 29.109375 43.015625 
Q 36.375 43.015625 40.234375 45.921875 
Q 44.09375 48.828125 44.09375 54.296875 
Q 44.09375 59.90625 40.109375 62.90625 
Q 36.140625 65.921875 28.71875 65.921875 
Q 24.65625 65.921875 20.015625 65.03125 
Q 15.375 64.15625 9.8125 62.3125 
L 9.8125 71.09375 
Q 15.4375 72.65625 20.34375 73.4375 
Q 25.25 74.21875 29.59375 74.21875 
Q 40.828125 74.21875 47.359375 69.109375 
Q 53.90625 64.015625 53.90625 55.328125 
Q 53.90625 49.265625 50.4375 45.09375 
Q 46.96875 40.921875 40.578125 39.3125 
z
" id="DejaVuSans-51"/>
       </defs>
       <use xlink:href="#DejaVuSans-8722"/>
       <use x="83.789062" xlink:href="#DejaVuSans-51"/>
      </g>
     </g>
    </g>
    <g id="xtick_2">
     <g id="line2d_2">
      <g>
       <use style="stroke:#000000;stroke-width:0.8;" x="92.375287" xlink:href="#m013cb88195" y="167.823617"/>
      </g>
     </g>
     <g id="text_2">
      <!-- −2 -->
      <g transform="translate(85.004193 182.422055)scale(0.1 -0.1)">
       <defs>
        <path d="M 19.1875 8.296875 
L 53.609375 8.296875 
L 53.609375 0 
L 7.328125 0 
L 7.328125 8.296875 
Q 12.9375 14.109375 22.625 23.890625 
Q 32.328125 33.6875 34.8125 36.53125 
Q 39.546875 41.84375 41.421875 45.53125 
Q 43.3125 49.21875 43.3125 52.78125 
Q 43.3125 58.59375 39.234375 62.25 
Q 35.15625 65.921875 28.609375 65.921875 
Q 23.96875 65.921875 18.8125 64.3125 
Q 13.671875 62.703125 7.8125 59.421875 
L 7.8125 69.390625 
Q 13.765625 71.78125 18.9375 73 
Q 24.125 74.21875 28.421875 74.21875 
Q 39.75 74.21875 46.484375 68.546875 
Q 53.21875 62.890625 53.21875 53.421875 
Q 53.21875 48.921875 51.53125 44.890625 
Q 49.859375 40.875 45.40625 35.40625 
Q 44.1875 33.984375 37.640625 27.21875 
Q 31.109375 20.453125 19.1875 8.296875 
z
" id="DejaVuSans-50"/>
       </defs>
       <use xlink:href="#DejaVuSans-8722"/>
       <use x="83.789062" xlink:href="#DejaVuSans-50"/>
      </g>
     </g>
    </g>
    <g id="xtick_3">
     <g id="line2d_3">
      <g>
       <use style="stroke:#000000;stroke-width:0.8;" x="159.587643" xlink:href="#m013cb88195" y="167.823617"/>
      </g>
     </g>
     <g id="text_3">
      <!-- −1 -->
      <g transform="translate(152.21655 182.422055)scale(0.1 -0.1)">
       <defs>
        <path d="M 12.40625 8.296875 
L 28.515625 8.296875 
L 28.515625 63.921875 
L 10.984375 60.40625 
L 10.984375 69.390625 
L 28.421875 72.90625 
L 38.28125 72.90625 
L 38.28125 8.296875 
L 54.390625 8.296875 
L 54.390625 0 
L 12.40625 0 
z
" id="DejaVuSans-49"/>
       </defs>
       <use xlink:href="#DejaVuSans-8722"/>
       <use x="83.789062" xlink:href="#DejaVuSans-49"/>
      </g>
     </g>
    </g>
    <g id="xtick_4">
     <g id="line2d_4">
      <g>
       <use style="stroke:#000000;stroke-width:0.8;" x="226.8" xlink:href="#m013cb88195" y="167.823617"/>
      </g>
     </g>
    </g>
    <g id="xtick_5">
     <g id="line2d_5">
      <g>
       <use style="stroke:#000000;stroke-width:0.8;" x="294.012357" xlink:href="#m013cb88195" y="167.823617"/>
      </g>
     </g>
     <g id="text_4">
      <!-- 1 -->
      <g transform="translate(290.831107 182.422055)scale(0.1 -0.1)">
       <use xlink:href="#DejaVuSans-49"/>
      </g>
     </g>
    </g>
    <g id="xtick_6">
     <g id="line2d_6">
      <g>
       <use style="stroke:#000000;stroke-width:0.8;" x="361.224713" xlink:href="#m013cb88195" y="167.823617"/>
      </g>
     </g>
     <g id="text_5">
      <!-- 2 -->
      <g transform="translate(358.043463 182.422055)scale(0.1 -0.1)">
       <use xlink:href="#DejaVuSans-50"/>
      </g>
     </g>
    </g>
    <g id="xtick_7">
     <g id="line2d_7">
      <g>
       <use style="stroke:#000000;stroke-width:0.8;" x="428.43707" xlink:href="#m013cb88195" y="167.823617"/>
      </g>
     </g>
     <g id="text_6">
      <!-- 3 -->
      <g transform="translate(425.25582 182.422055)scale(0.1 -0.1)">
       <use xlink:href="#DejaVuSans-51"/>
      </g>
     </g>
    </g>
    <g id="xtick_8">
     <g id="line2d_8">
      <defs>
       <path d="M 0 0 
L 0 2 
" id="m70eff635fc" style="stroke:#000000;stroke-width:0.6;"/>
      </defs>
      <g>
       <use style="stroke:#000000;stroke-width:0.6;" x="11.720458" xlink:href="#m70eff635fc" y="167.823617"/>
      </g>
     </g>
    </g>
    <g id="xtick_9">
     <g id="line2d_9">
      <g>
       <use style="stroke:#000000;stroke-width:0.6;" x="38.605401" xlink:href="#m70eff635fc" y="167.823617"/>
      </g>
     </g>
    </g>
    <g id="xtick_10">
     <g id="line2d_10">
      <g>
       <use style="stroke:#000000;stroke-width:0.6;" x="52.047872" xlink:href="#m70eff635fc" y="167.823617"/>
      </g>
     </g>
    </g>
    <g id="xtick_11">
     <g id="line2d_11">
      <g>
       <use style="stroke:#000000;stroke-width:0.6;" x="65.490344" xlink:href="#m70eff635fc" y="167.823617"/>
      </g>
     </g>
    </g>
    <g id="xtick_12">
     <g id="line2d_12">
      <g>
       <use style="stroke:#000000;stroke-width:0.6;" x="78.932815" xlink:href="#m70eff635fc" y="167.823617"/>
      </g>
     </g>
    </g>
    <g id="xtick_13">
     <g id="line2d_13">
      <g>
       <use style="stroke:#000000;stroke-width:0.6;" x="105.817758" xlink:href="#m70eff635fc" y="167.823617"/>
      </g>
     </g>
    </g>
    <g id="xtick_14">
     <g id="line2d_14">
      <g>
       <use style="stroke:#000000;stroke-width:0.6;" x="119.260229" xlink:href="#m70eff635fc" y="167.823617"/>
      </g>
     </g>
    </g>
    <g id="xtick_15">
     <g id="line2d_15">
      <g>
       <use style="stroke:#000000;stroke-width:0.6;" x="132.702701" xlink:href="#m70eff635fc" y="167.823617"/>
      </g>
     </g>
    </g>
    <g id="xtick_16">
     <g id="line2d_16">
      <g>
       <use style="stroke:#000000;stroke-width:0.6;" x="146.145172" xlink:href="#m70eff635fc" y="167.823617"/>
      </g>
     </g>
    </g>
    <g id="xtick_17">
     <g id="line2d_17">
      <g>
       <use style="stroke:#000000;stroke-width:0.6;" x="173.030115" xlink:href="#m70eff635fc" y="167.823617"/>
      </g>
     </g>
    </g>
    <g id="xtick_18">
     <g id="line2d_18">
      <g>
       <use style="stroke:#000000;stroke-width:0.6;" x="186.472586" xlink:href="#m70eff635fc" y="167.823617"/>
      </g>
     </g>
    </g>
    <g id="xtick_19">
     <g id="line2d_19">
      <g>
       <use style="stroke:#000000;stroke-width:0.6;" x="199.915057" xlink:href="#m70eff635fc" y="167.823617"/>
      </g>
     </g>
    </g>
    <g id="xtick_20">
     <g id="line2d_20">
      <g>
       <use style="stroke:#000000;stroke-width:0.6;" x="213.357529" xlink:href="#m70eff635fc" y="167.823617"/>
      </g>
     </g>
    </g>
    <g id="xtick_21">
     <g id="line2d_21">
      <g>
       <use style="stroke:#000000;stroke-width:0.6;" x="240.242471" xlink:href="#m70eff635fc" y="167.823617"/>
      </g>
     </g>
    </g>
    <g id="xtick_22">
     <g id="line2d_22">
      <g>
       <use style="stroke:#000000;stroke-width:0.6;" x="253.684943" xlink:href="#m70eff635fc" y="167.823617"/>
      </g>
     </g>
    </g>
    <g id="xtick_23">
     <g id="line2d_23">
      <g>
       <use style="stroke:#000000;stroke-width:0.6;" x="267.127414" xlink:href="#m70eff635fc" y="167.823617"/>
      </g>
     </g>
    </g>
    <g id="xtick_24">
     <g id="line2d_24">
      <g>
       <use style="stroke:#000000;stroke-width:0.6;" x="280.569885" xlink:href="#m70eff635fc" y="167.823617"/>
      </g>
     </g>
    </g>
    <g id="xtick_25">
     <g id="line2d_25">
      <g>
       <use style="stroke:#000000;stroke-width:0.6;" x="307.454828" xlink:href="#m70eff635fc" y="167.823617"/>
      </g>
     </g>
    </g>
    <g id="xtick_26">
     <g id="line2d_26">
      <g>
       <use style="stroke:#000000;stroke-width:0.6;" x="320.897299" xlink:href="#m70eff635fc" y="167.823617"/>
      </g>
     </g>
    </g>
    <g id="xtick_27">
     <g id="line2d_27">
      <g>
       <use style="stroke:#000000;stroke-width:0.6;" x="334.339771" xlink:href="#m70eff635fc" y="167.823617"/>
      </g>
     </g>
    </g>
    <g id="xtick_28">
     <g id="line2d_28">
      <g>
       <use style="stroke:#000000;stroke-width:0.6;" x="347.782242" xlink:href="#m70eff635fc" y="167.823617"/>
      </g>
     </g>
    </g>
    <g id="xtick_29">
     <g id="line2d_29">
      <g>
       <use style="stroke:#000000;stroke-width:0.6;" x="374.667185" xlink:href="#m70eff635fc" y="167.823617"/>
      </g>
     </g>
    </g>
    <g id="xtick_30">
     <g id="line2d_30">
      <g>
       <use style="stroke:#000000;stroke-width:0.6;" x="388.109656" xlink:href="#m70eff635fc" y="167.823617"/>
      </g>
     </g>
    </g>
    <g id="xtick_31">
     <g id="line2d_31">
      <g>
       <use style="stroke:#000000;stroke-width:0.6;" x="401.552128" xlink:href="#m70eff635fc" y="167.823617"/>
      </g>
     </g>
    </g>
    <g id="xtick_32">
     <g id="line2d_32">
      <g>
       <use style="stroke:#000000;stroke-width:0.6;" x="414.994599" xlink:href="#m70eff635fc" y="167.823617"/>
      </g>
     </g>
    </g>
    <g id="xtick_33">
     <g id="line2d_33">
      <g>
       <use style="stroke:#000000;stroke-width:0.6;" x="441.879542" xlink:href="#m70eff635fc" y="167.823617"/>
      </g>
     </g>
    </g>
   </g>
   <g id="matplotlib.axis_2">
    <g id="ytick_1">
     <g id="line2d_34">
      <defs>
       <path d="M 0 0 
L -3.5 0 
" id="m8306e8a136" style="stroke:#000000;stroke-width:0.8;"/>
      </defs>
      <g>
       <use style="stroke:#000000;stroke-width:0.8;" x="226.8" xlink:href="#m8306e8a136" y="324.648015"/>
      </g>
     </g>
     <g id="text_7">
      <!-- −1.0 -->
      <g transform="translate(195.517187 328.447234)scale(0.1 -0.1)">
       <defs>
        <path d="M 10.6875 12.40625 
L 21 12.40625 
L 21 0 
L 10.6875 0 
z
" id="DejaVuSans-46"/>
        <path d="M 31.78125 66.40625 
Q 24.171875 66.40625 20.328125 58.90625 
Q 16.5 51.421875 16.5 36.375 
Q 16.5 21.390625 20.328125 13.890625 
Q 24.171875 6.390625 31.78125 6.390625 
Q 39.453125 6.390625 43.28125 13.890625 
Q 47.125 21.390625 47.125 36.375 
Q 47.125 51.421875 43.28125 58.90625 
Q 39.453125 66.40625 31.78125 66.40625 
z
M 31.78125 74.21875 
Q 44.046875 74.21875 50.515625 64.515625 
Q 56.984375 54.828125 56.984375 36.375 
Q 56.984375 17.96875 50.515625 8.265625 
Q 44.046875 -1.421875 31.78125 -1.421875 
Q 19.53125 -1.421875 13.0625 8.265625 
Q 6.59375 17.96875 6.59375 36.375 
Q 6.59375 54.828125 13.0625 64.515625 
Q 19.53125 74.21875 31.78125 74.21875 
z
" id="DejaVuSans-48"/>
       </defs>
       <use xlink:href="#DejaVuSans-8722"/>
       <use x="83.789062" xlink:href="#DejaVuSans-49"/>
       <use x="147.412109" xlink:href="#DejaVuSans-46"/>
       <use x="179.199219" xlink:href="#DejaVuSans-48"/>
      </g>
     </g>
    </g>
    <g id="ytick_2">
     <g id="line2d_35">
      <g>
       <use style="stroke:#000000;stroke-width:0.8;" x="226.8" xlink:href="#m8306e8a136" y="246.235816"/>
      </g>
     </g>
     <g id="text_8">
      <!-- −0.5 -->
      <g transform="translate(195.517187 250.035035)scale(0.1 -0.1)">
       <defs>
        <path d="M 10.796875 72.90625 
L 49.515625 72.90625 
L 49.515625 64.59375 
L 19.828125 64.59375 
L 19.828125 46.734375 
Q 21.96875 47.46875 24.109375 47.828125 
Q 26.265625 48.1875 28.421875 48.1875 
Q 40.625 48.1875 47.75 41.5 
Q 54.890625 34.8125 54.890625 23.390625 
Q 54.890625 11.625 47.5625 5.09375 
Q 40.234375 -1.421875 26.90625 -1.421875 
Q 22.3125 -1.421875 17.546875 -0.640625 
Q 12.796875 0.140625 7.71875 1.703125 
L 7.71875 11.625 
Q 12.109375 9.234375 16.796875 8.0625 
Q 21.484375 6.890625 26.703125 6.890625 
Q 35.15625 6.890625 40.078125 11.328125 
Q 45.015625 15.765625 45.015625 23.390625 
Q 45.015625 31 40.078125 35.4375 
Q 35.15625 39.890625 26.703125 39.890625 
Q 22.75 39.890625 18.8125 39.015625 
Q 14.890625 38.140625 10.796875 36.28125 
z
" id="DejaVuSans-53"/>
       </defs>
       <use xlink:href="#DejaVuSans-8722"/>
       <use x="83.789062" xlink:href="#DejaVuSans-48"/>
       <use x="147.412109" xlink:href="#DejaVuSans-46"/>
       <use x="179.199219" xlink:href="#DejaVuSans-53"/>
      </g>
     </g>
    </g>
    <g id="ytick_3">
     <g id="line2d_36">
      <g>
       <use style="stroke:#000000;stroke-width:0.8;" x="226.8" xlink:href="#m8306e8a136" y="167.823617"/>
      </g>
     </g>
    </g>
    <g id="ytick_4">
     <g id="line2d_37">
      <g>
       <use style="stroke:#000000;stroke-width:0.8;" x="226.8" xlink:href="#m8306e8a136" y="89.411418"/>
      </g>
     </g>
     <g id="text_9">
      <!-- 0.5 -->
      <g transform="translate(203.896875 93.210637)scale(0.1 -0.1)">
       <use xlink:href="#DejaVuSans-48"/>
       <use x="63.623047" xlink:href="#DejaVuSans-46"/>
       <use x="95.410156" xlink:href="#DejaVuSans-53"/>
      </g>
     </g>
    </g>
    <g id="ytick_5">
     <g id="line2d_38">
      <g>
       <use style="stroke:#000000;stroke-width:0.8;" x="226.8" xlink:href="#m8306e8a136" y="10.999219"/>
      </g>
     </g>
     <g id="text_10">
      <!-- 1.0 -->
      <g transform="translate(203.896875 14.798437)scale(0.1 -0.1)">
       <use xlink:href="#DejaVuSans-49"/>
       <use x="63.623047" xlink:href="#DejaVuSans-46"/>
       <use x="95.410156" xlink:href="#DejaVuSans-48"/>
      </g>
     </g>
    </g>
    <g id="ytick_6">
     <g id="line2d_39">
      <defs>
       <path d="M 0 0 
L -2 0 
" id="m90d00c5e4f" style="stroke:#000000;stroke-width:0.6;"/>
      </defs>
      <g>
       <use style="stroke:#000000;stroke-width:0.6;" x="226.8" xlink:href="#m90d00c5e4f" y="308.965576"/>
      </g>
     </g>
    </g>
    <g id="ytick_7">
     <g id="line2d_40">
      <g>
       <use style="stroke:#000000;stroke-width:0.6;" x="226.8" xlink:href="#m90d00c5e4f" y="293.283136"/>
      </g>
     </g>
    </g>
    <g id="ytick_8">
     <g id="line2d_41">
      <g>
       <use style="stroke:#000000;stroke-width:0.6;" x="226.8" xlink:href="#m90d00c5e4f" y="277.600696"/>
      </g>
     </g>
    </g>
    <g id="ytick_9">
     <g id="line2d_42">
      <g>
       <use style="stroke:#000000;stroke-width:0.6;" x="226.8" xlink:href="#m90d00c5e4f" y="261.918256"/>
      </g>
     </g>
    </g>
    <g id="ytick_10">
     <g id="line2d_43">
      <g>
       <use style="stroke:#000000;stroke-width:0.6;" x="226.8" xlink:href="#m90d00c5e4f" y="230.553376"/>
      </g>
     </g>
    </g>
    <g id="ytick_11">
     <g id="line2d_44">
      <g>
       <use style="stroke:#000000;stroke-width:0.6;" x="226.8" xlink:href="#m90d00c5e4f" y="214.870937"/>
      </g>
     </g>
    </g>
    <g id="ytick_12">
     <g id="line2d_45">
      <g>
       <use style="stroke:#000000;stroke-width:0.6;" x="226.8" xlink:href="#m90d00c5e4f" y="199.188497"/>
      </g>
     </g>
    </g>
    <g id="ytick_13">
     <g id="line2d_46">
      <g>
       <use style="stroke:#000000;stroke-width:0.6;" x="226.8" xlink:href="#m90d00c5e4f" y="183.506057"/>
      </g>
     </g>
    </g>
    <g id="ytick_14">
     <g id="line2d_47">
      <g>
       <use style="stroke:#000000;stroke-width:0.6;" x="226.8" xlink:href="#m90d00c5e4f" y="152.141177"/>
      </g>
     </g>
    </g>
    <g id="ytick_15">
     <g id="line2d_48">
      <g>
       <use style="stroke:#000000;stroke-width:0.6;" x="226.8" xlink:href="#m90d00c5e4f" y="136.458737"/>
      </g>
     </g>
    </g>
    <g id="ytick_16">
     <g id="line2d_49">
      <g>
       <use style="stroke:#000000;stroke-width:0.6;" x="226.8" xlink:href="#m90d00c5e4f" y="120.776298"/>
      </g>
     </g>
    </g>
    <g id="ytick_17">
     <g id="line2d_50">
      <g>
       <use style="stroke:#000000;stroke-width:0.6;" x="226.8" xlink:href="#m90d00c5e4f" y="105.093858"/>
      </g>
     </g>
    </g>
    <g id="ytick_18">
     <g id="line2d_51">
      <g>
       <use style="stroke:#000000;stroke-width:0.6;" x="226.8" xlink:href="#m90d00c5e4f" y="73.728978"/>
      </g>
     </g>
    </g>
    <g id="ytick_19">
     <g id="line2d_52">
      <g>
       <use style="stroke:#000000;stroke-width:0.6;" x="226.8" xlink:href="#m90d00c5e4f" y="58.046538"/>
      </g>
     </g>
    </g>
    <g id="ytick_20">
     <g id="line2d_53">
      <g>
       <use style="stroke:#000000;stroke-width:0.6;" x="226.8" xlink:href="#m90d00c5e4f" y="42.364098"/>
      </g>
     </g>
    </g>
    <g id="ytick_21">
     <g id="line2d_54">
      <g>
       <use style="stroke:#000000;stroke-width:0.6;" x="226.8" xlink:href="#m90d00c5e4f" y="26.681659"/>
      </g>
     </g>
    </g>
   </g>
   <g id="line2d_55">
    <path clip-path="url(#pae6f9b5c58)" d="M 15.646154 167.823617 
L 17.549604 168.012048 
L 19.102824 168.443273 
L 20.656044 169.119415 
L 22.880368 170.500359 
L 24.710128 171.982745 
L 27.361111 174.640158 
L 30.369297 178.295314 
L 33.478079 182.644219 
L 36.951136 187.970144 
L 44.65275 200.129975 
L 46.736446 203.171229 
L 48.911481 206.095184 
L 50.742772 208.304548 
L 53.717593 211.286271 
L 54.861124 212.201898 
L 56.402439 213.209644 
L 57.350774 213.692454 
L 58.400765 214.098513 
L 59.450756 214.364029 
L 60.360001 214.476325 
L 61.269245 214.476115 
L 62.17849 214.360507 
L 63.087734 214.126878 
L 64.662452 213.436321 
L 65.917112 212.620979 
L 67.171771 211.566207 
L 68.317317 210.391708 
L 69.462864 209.014051 
L 70.651063 207.369994 
L 71.879265 205.440859 
L 73.107467 203.279769 
L 75.291575 198.872783 
L 77.061709 194.78571 
L 78.465531 191.228901 
L 81.064963 183.947034 
L 84.174626 174.156702 
L 86.70825 165.432197 
L 89.727816 154.334327 
L 95.505533 131.796968 
L 102.001009 106.378263 
L 105.701587 92.895298 
L 108.776351 82.723927 
L 111.390687 75.045019 
L 112.830501 71.261999 
L 114.948098 66.342163 
L 116.118029 63.977774 
L 118.309752 60.276891 
L 120.044871 58.060166 
L 120.758197 57.339968 
L 121.672269 56.584449 
L 122.58634 56.02044 
L 123.500412 55.651378 
L 124.414483 55.480327 
L 125.246588 55.499055 
L 126.078693 55.685841 
L 126.81257 55.991221 
L 127.546447 56.42929 
L 129.0142 57.705941 
L 129.886555 58.71875 
L 130.758909 59.92127 
L 131.992726 61.945572 
L 133.712162 65.395486 
L 135.431598 69.569006 
L 137.016483 74.044329 
L 138.625709 79.188884 
L 140.672143 86.573011 
L 142.347987 93.288996 
L 144.601115 103.206043 
L 146.98579 114.71608 
L 150.218057 131.758966 
L 154.145762 154.224512 
L 158.849169 182.699732 
L 166.288379 228.053536 
L 169.981952 249.233078 
L 172.760153 264.018353 
L 175.893815 279.141073 
L 178.617885 290.681224 
L 180.886381 298.990088 
L 182.891948 305.257797 
L 184.404593 309.273682 
L 186.125786 313.064687 
L 187.846979 315.9974 
L 189.008029 317.477949 
L 189.890523 318.330354 
L 190.773017 318.944471 
L 191.655512 319.318438 
L 192.538006 319.450813 
L 193.137607 319.402382 
L 194.336808 318.968774 
L 194.936408 318.583462 
L 195.96706 317.658876 
L 196.997711 316.403596 
L 197.931349 314.982493 
L 199.418328 312.166795 
L 200.972273 308.509488 
L 202.526218 304.137411 
L 203.860249 299.828936 
L 205.19428 295.023239 
L 207.089402 287.375057 
L 209.156939 277.991397 
L 211.213281 267.66197 
L 213.277546 256.384852 
L 216.321076 238.313973 
L 219.191716 219.978713 
L 223.942401 187.767548 
L 233.63438 120.783676 
L 237.826443 93.968253 
L 240.440711 78.593502 
L 242.680758 66.450704 
L 244.726584 56.307661 
L 246.830725 46.914508 
L 248.67604 39.610823 
L 250.663942 32.779619 
L 252.03674 28.717276 
L 253.125993 25.88635 
L 254.215245 23.409436 
L 255.145711 21.577952 
L 256.076176 20.011357 
L 257.030434 18.682123 
L 257.888266 17.728442 
L 258.746097 17.004089 
L 259.603929 16.509559 
L 260.461761 16.244963 
L 261.635443 16.25489 
L 262.809126 16.692809 
L 264.104282 17.668894 
L 265.271102 18.986089 
L 266.437921 20.712262 
L 267.67454 22.980183 
L 268.911159 25.689552 
L 270.866559 30.846281 
L 272.966503 37.520953 
L 274.71232 43.913222 
L 276.601252 51.631363 
L 279.303011 63.985153 
L 281.975951 77.534839 
L 285.094431 94.701825 
L 288.518698 114.791819 
L 302.667978 199.930728 
L 306.245946 219.068335 
L 309.285582 233.75693 
L 311.003701 241.314012 
L 313.565489 251.47354 
L 315.3227 257.622554 
L 317.749714 264.953947 
L 319.047698 268.302135 
L 320.411974 271.380583 
L 321.77625 274.001255 
L 323.610245 276.79612 
L 325.195445 278.536568 
L 325.988044 279.172366 
L 327.029054 279.771173 
L 328.070064 280.103524 
L 329.015104 280.176676 
L 329.866705 280.058347 
L 330.718305 279.76752 
L 331.569905 279.306583 
L 332.421505 278.67821 
L 333.473002 277.675747 
L 334.5245 276.428653 
L 336.361124 273.684037 
L 338.276226 270.092716 
L 340.032246 266.188221 
L 342.08545 260.940787 
L 343.890669 255.776036 
L 345.681539 250.198615 
L 348.191525 241.727698 
L 351.022151 231.440664 
L 354.692862 217.315122 
L 362.794263 185.419057 
L 366.777717 170.621457 
L 369.874076 160.011421 
L 372.28995 152.431009 
L 374.935547 144.944225 
L 377.69862 138.131272 
L 379.387978 134.506887 
L 381.077336 131.309688 
L 383.623615 127.316847 
L 385.460708 125.059691 
L 386.263862 124.237103 
L 387.87017 122.889429 
L 389.60592 121.873025 
L 391.413444 121.288278 
L 392.696006 121.157324 
L 393.978567 121.253691 
L 395.128779 121.526445 
L 396.27899 121.968284 
L 397.357879 122.529764 
L 398.719128 123.430747 
L 400.080377 124.533252 
L 402.607198 127.061547 
L 405.545717 130.669147 
L 409.493452 136.344809 
L 415.728658 146.216743 
L 420.12685 153.010279 
L 421.753975 155.348307 
L 425.433661 160.090488 
L 427.310044 162.149678 
L 428.740698 163.530501 
L 430.628695 165.080405 
L 432.112436 166.067418 
L 433.596177 166.841197 
L 435.02322 167.3777 
L 436.450264 167.705985 
L 437.953846 167.823617 
L 437.953846 167.823617 
" style="fill:none;stroke:#000000;stroke-linecap:square;"/>
   </g>
   <g id="patch_3">
    <path d="M 226.8 325.515903 
L 226.8 10.131189 
" style="fill:none;stroke:#000000;stroke-linecap:square;stroke-linejoin:miter;stroke-width:0.8;"/>
   </g>
   <g id="patch_4">
    <path d="M 7.2 167.823617 
L 446.4 167.823617 
" style="fill:none;stroke:#000000;stroke-linecap:square;stroke-linejoin:miter;stroke-width:0.8;"/>
   </g>
  </g>
 </g>
 <defs>
  <clipPath id="pae6f9b5c58">
   <rect height="315.384715" width="439.2" x="7.2" y="10.131189"/>
  </clipPath>
 </defs>
</svg>
