<?xml version="1.0" encoding="utf-8" standalone="no"?>
<!DOCTYPE svg PUBLIC "-//W3C//DTD SVG 1.1//EN"
  "http://www.w3.org/Graphics/SVG/1.1/DTD/svg11.dtd">
<!-- Created with matplotlib (https://matplotlib.org/) -->
<svg height="338.4pt" version="1.1" viewBox="0 0 338.4 338.4" width="338.4pt" xmlns="http://www.w3.org/2000/svg" xmlns:xlink="http://www.w3.org/1999/xlink">
 <metadata>
  <rdf:RDF xmlns:cc="http://creativecommons.org/ns#" xmlns:dc="http://purl.org/dc/elements/1.1/" xmlns:rdf="http://www.w3.org/1999/02/22-rdf-syntax-ns#">
   <cc:Work>
    <dc:type rdf:resource="http://purl.org/dc/dcmitype/StillImage"/>
    <dc:date>2021-09-05T16:54:43.839199</dc:date>
    <dc:format>image/svg+xml</dc:format>
    <dc:creator>
     <cc:Agent>
      <dc:title>Matplotlib v3.3.4, https://matplotlib.org/</dc:title>
     </cc:Agent>
    </dc:creator>
   </cc:Work>
  </rdf:RDF>
 </metadata>
 <defs>
  <style type="text/css">*{stroke-linecap:butt;stroke-linejoin:round;}</style>
 </defs>
 <g id="figure_1">
  <g id="patch_1">
   <path d="M -0 338.4 
L 338.4 338.4 
L 338.4 0 
L -0 0 
z
" style="fill:#ffffff;"/>
  </g>
  <g id="axes_1">
   <g id="patch_2">
    <path d="M 7.2 331.2 
L 331.2 331.2 
L 331.2 7.2 
L 7.2 7.2 
z
" style="fill:#ffffff;"/>
   </g>
   <g id="patch_3">
    <path clip-path="url(#p19971bf435)" d="M 13.430769 324.969231 
L 13.430769 13.430769 
L 324.969231 13.430769 
L 324.969231 324.969231 
z
" style="fill:none;stroke:#000000;stroke-linejoin:miter;"/>
   </g>
   <g id="patch_4">
    <path clip-path="url(#p19971bf435)" d="M 169.2 169.2 
L 169.2 101.749945 
L 169.454831 101.897714 
L 169.652307 102.013114 
L 169.830158 102.117713 
L 170.070402 102.260016 
L 170.197883 102.336 
L 170.463599 102.49544 
L 170.596335 102.575626 
L 170.802275 102.700751 
L 170.994174 102.818132 
L 171.186069 102.936275 
L 171.388502 103.061737 
L 171.618321 103.205215 
L 171.69151 103.251141 
L 171.966865 103.424942 
L 172.12413 103.524931 
L 172.416691 103.712351 
L 172.516734 103.776864 
L 172.687623 103.887564 
L 172.896031 104.023429 
L 173.168599 104.202558 
L 173.279501 104.275912 
L 173.534971 104.445923 
L 173.747592 104.588531 
L 173.825453 104.641007 
L 174.17074 104.875374 
L 174.232488 104.917571 
L 174.49623 105.09879 
L 174.585478 105.160476 
L 174.841704 105.338594 
L 174.987983 105.440966 
L 175.179973 105.57609 
L 175.506896 105.80818 
L 175.729123 105.967395 
L 175.879471 106.075784 
L 176.141183 106.26576 
L 176.338124 106.409817 
L 176.477858 106.512604 
L 176.642069 106.634011 
L 176.798801 106.750512 
L 177.056118 106.943108 
L 177.298293 107.12589 
L 177.349687 107.16487 
L 177.654633 107.397546 
L 177.859051 107.554855 
L 177.988402 107.654954 
L 178.25919 107.865918 
L 178.451323 108.016773 
L 178.549301 108.094077 
L 178.879933 108.356833 
L 178.970741 108.429512 
L 179.214194 108.625465 
L 179.366886 108.74919 
L 179.506382 108.862782 
L 179.731868 109.047534 
L 179.973841 109.24737 
L 180.074722 109.331169 
L 180.319886 109.536024 
L 180.5831 109.757871 
L 180.733125 109.885213 
L 180.852129 109.986688 
L 181.200596 110.286217 
L 181.299139 110.371571 
L 181.604485 110.637895 
L 181.813406 110.821736 
L 181.911062 110.908125 
L 182.179749 111.147323 
L 182.27302 111.230879 
L 182.449844 111.390031 
L 182.634741 111.557498 
L 182.986044 111.878676 
L 183.190384 112.067317 
L 183.195081 112.071669 
L 183.409375 112.270992 
L 183.713418 112.556389 
L 183.808294 112.646076 
L 184.029946 112.856784 
L 184.277319 113.093911 
L 184.47749 113.287329 
L 184.648349 113.453523 
L 184.800073 113.60196 
L 185.000884 113.799672 
L 185.166435 113.96375 
L 185.527986 114.325526 
L 185.613701 114.411994 
L 185.754644 114.554766 
L 186.061141 114.867795 
L 186.305962 115.120385 
L 186.437091 115.256618 
L 186.617056 115.444671 
L 186.821077 115.659391 
L 187.046597 115.898653 
L 187.285325 116.154148 
L 187.443994 116.32524 
L 187.672815 116.573799 
L 187.70282 116.606554 
L 188.008587 116.942489 
L 188.274713 117.238105 
L 188.282055 117.246302 
L 188.521258 117.5147 
L 188.709895 117.728131 
L 188.886561 117.929453 
L 189.221522 118.31503 
L 189.275757 118.377944 
L 189.547236 118.694918 
L 189.725487 118.904924 
L 189.965063 119.189569 
L 190.168541 119.433511 
L 190.324249 119.621557 
L 190.54503 119.890262 
L 190.673263 120.04746 
L 190.84955 120.26494 
L 191.181096 120.678332 
L 191.389923 120.941698 
L 191.501898 121.083885 
L 191.765965 121.421912 
L 191.982289 121.70171 
L 192.129224 121.893268 
L 192.20787 121.996306 
L 192.461315 122.330792 
L 192.615831 122.536568 
L 192.943443 122.977602 
L 193.067074 123.14574 
L 193.335574 123.514179 
L 193.369337 123.560832 
L 193.675781 123.987619 
L 193.867628 124.257933 
L 194.089721 124.573937 
L 194.223043 124.765248 
L 194.488074 125.149218 
L 194.576267 125.278089 
L 194.765398 125.556338 
L 195.125935 126.094032 
L 195.205584 126.214134 
L 195.432367 126.558763 
L 195.605063 126.823893 
L 195.856786 127.214619 
L 196.023205 127.475778 
L 196.123086 127.633629 
L 196.318599 127.945061 
L 196.539914 128.301584 
L 196.826953 128.77047 
L 197.081874 129.193224 
L 197.172653 129.345247 
L 197.328771 129.60854 
L 197.61608 130.09935 
L 197.761364 130.350707 
L 197.985011 130.741923 
L 198.066503 130.885793 
L 198.263718 131.236943 
L 198.593219 131.833315 
L 198.78143 132.179591 
L 198.963648 132.518874 
L 199.093212 132.762594 
L 199.425817 133.397991 
L 199.597029 133.730721 
L 199.687584 133.908308 
L 199.826553 134.183048 
L 200.14079 134.81445 
L 200.260953 135.059748 
L 200.501089 135.556598 
L 200.686166 135.945776 
L 200.867171 136.331857 
L 201.120428 136.881492 
L 201.332515 137.350621 
L 201.393511 137.487091 
L 201.541627 137.821441 
L 201.689743 138.160099 
L 201.800005 138.415087 
L 201.93838 138.738674 
L 202.076755 139.066372 
L 202.220732 139.411845 
L 202.381503 139.803243 
L 202.542273 140.200815 
L 202.735854 140.688083 
L 202.771617 140.779162 
L 202.998161 141.364097 
L 203.205022 141.9108 
L 203.328484 142.243131 
L 203.451945 142.580183 
L 203.5559 142.867774 
L 203.714829 143.314436 
L 203.873758 143.769936 
L 203.961959 144.026713 
L 204.071455 144.349612 
L 204.180951 144.677251 
L 204.328615 145.12695 
L 204.476279 145.586133 
L 204.651261 146.143326 
L 204.720291 146.367245 
L 204.822248 146.702438 
L 204.924205 147.04317 
L 205.069855 147.540045 
L 205.215505 148.049593 
L 205.314053 148.402017 
L 205.412601 148.760991 
L 205.517905 149.152215 
L 205.62321 149.551792 
L 205.75734 150.073669 
L 205.824405 150.34038 
L 205.89147 150.611159 
L 205.98015 150.975768 
L 206.056816 151.297315 
L 206.133482 151.625078 
L 206.213611 151.974676 
L 206.293739 152.331898 
L 206.373868 152.69724 
L 206.453997 153.071253 
L 206.508892 153.332808 
L 206.563788 153.59894 
L 206.618684 153.869888 
L 206.673579 154.145912 
L 206.764259 154.613755 
L 206.825047 154.936289 
L 206.885836 155.266552 
L 206.960623 155.684314 
L 207.03541 156.115835 
L 207.072804 156.337186 
L 207.110197 156.562524 
L 207.147591 156.792067 
L 207.184985 157.026052 
L 207.249643 157.441903 
L 207.281972 157.655581 
L 207.314301 157.873381 
L 207.346631 158.095546 
L 207.37896 158.322344 
L 207.411289 158.55407 
L 207.443618 158.791054 
L 207.473121 159.012216 
L 207.502623 159.238375 
L 207.532126 159.469878 
L 207.561628 159.707116 
L 207.606784 160.082361 
L 207.629362 160.275984 
L 207.65194 160.473961 
L 207.674518 160.676595 
L 207.697096 160.884226 
L 207.719674 161.097239 
L 207.742252 161.316069 
L 207.761436 161.506945 
L 207.780619 161.702728 
L 207.799803 161.903814 
L 207.818987 162.110652 
L 207.838171 162.323763 
L 207.857355 162.543748 
L 207.876539 162.771314 
L 207.895723 163.007297 
L 207.911134 163.203644 
L 207.926546 163.406683 
L 207.941957 163.617143 
L 207.957369 163.835899 
L 207.97278 164.06401 
L 207.988192 164.302783 
L 208.003604 164.553862 
L 208.011309 164.684654 
L 208.019015 164.819362 
L 208.026721 164.958361 
L 208.034427 165.102086 
L 208.042132 165.251053 
L 208.049838 165.405881 
L 208.057544 165.567317 
L 208.06525 165.736287 
L 208.072956 165.913952 
L 208.080661 166.101808 
L 208.088367 166.301835 
L 208.096073 166.516754 
L 208.103779 166.750482 
L 208.111485 167.009031 
L 208.11919 167.302518 
L 208.126896 167.650674 
L 208.134602 168.104434 
L 208.142308 169.2 
L 208.142308 169.2 
z
" style="fill:#808080;opacity:0.5;"/>
   </g>
   <g id="patch_5">
    <path clip-path="url(#p19971bf435)" d="M 169.2 169.2 
L 169.2 236.650055 
L 169.354434 236.560657 
L 169.546705 236.448694 
L 169.76058 236.323284 
L 170.040163 236.15796 
L 170.122876 236.108747 
L 170.368031 235.96207 
L 170.475135 235.897606 
L 170.725108 235.746237 
L 170.929688 235.621398 
L 171.07927 235.529572 
L 171.443544 235.304001 
L 171.530202 235.24993 
L 171.69524 235.146516 
L 172.000542 234.953691 
L 172.14231 234.863476 
L 172.39873 234.699208 
L 172.543482 234.60585 
L 172.797797 234.44073 
L 172.848015 234.407958 
L 173.160241 234.202959 
L 173.319896 234.097303 
L 173.4083 234.038557 
L 173.7703 233.796179 
L 173.815735 233.76555 
L 173.999617 233.641115 
L 174.228398 233.485226 
L 174.545281 233.26733 
L 174.663899 233.185171 
L 174.964928 232.975202 
L 175.081691 232.89319 
L 175.354713 232.700173 
L 175.53274 232.573365 
L 175.570926 232.546067 
L 175.756438 232.412953 
L 175.972965 232.256539 
L 176.180426 232.105611 
L 176.461176 231.899692 
L 176.550876 231.833493 
L 176.80064 231.648117 
L 177.052014 231.459977 
L 177.250568 231.310248 
L 177.385617 231.207838 
L 177.66306 230.995991 
L 177.895914 230.816663 
L 178.027203 230.714935 
L 178.222922 230.562448 
L 178.364836 230.451253 
L 178.612522 230.255907 
L 178.747468 230.148789 
L 178.959216 229.979725 
L 179.084729 229.87894 
L 179.319773 229.689054 
L 179.573146 229.482662 
L 179.77074 229.320474 
L 179.991443 229.138029 
L 180.252114 228.920776 
L 180.311923 228.870657 
L 180.494973 228.716627 
L 180.68238 228.557933 
L 180.92001 228.355244 
L 181.208505 228.106944 
L 181.295388 228.031683 
L 181.497625 227.855628 
L 181.682011 227.694041 
L 181.981939 227.428993 
L 182.124315 227.30221 
L 182.338593 227.110216 
L 182.52469 226.942309 
L 182.766792 226.722237 
L 182.81985 226.673758 
L 183.089152 226.426307 
L 183.331941 226.201206 
L 183.459528 226.082141 
L 183.720603 225.83683 
L 183.891351 225.675162 
L 183.986829 225.584334 
L 184.286383 225.297361 
L 184.41585 225.17238 
L 184.730504 224.866203 
L 184.841306 224.75756 
L 185.129616 224.472826 
L 185.24284 224.360193 
L 185.445701 224.157229 
L 185.681404 223.919517 
L 185.922014 223.674734 
L 186.086203 223.506451 
L 186.267823 223.319115 
L 186.393034 223.189228 
L 186.611605 222.961044 
L 186.721177 222.845953 
L 187.059675 222.48741 
L 187.284912 222.246297 
L 187.365102 222.159957 
L 187.559093 221.950003 
L 187.852301 221.629709 
L 188.076581 221.382271 
L 188.164451 221.284744 
L 188.457171 220.957453 
L 188.530243 220.875169 
L 188.704001 220.678561 
L 188.888023 220.468876 
L 189.146783 220.171446 
L 189.439517 219.831265 
L 189.618764 219.620993 
L 189.744361 219.472752 
L 189.882855 219.308415 
L 190.077509 219.075875 
L 190.43161 218.648083 
L 190.501975 218.562331 
L 190.755866 218.250834 
L 190.866201 218.114435 
L 191.138366 217.77527 
L 191.385536 217.463858 
L 191.475312 217.349936 
L 191.777323 216.963463 
L 191.887993 216.820577 
L 192.140143 216.492448 
L 192.373467 216.18557 
L 192.422607 216.120536 
L 192.676417 215.782358 
L 192.931374 215.43876 
L 193.107823 215.198634 
L 193.195852 215.078115 
L 193.554442 214.582098 
L 193.59062 214.531596 
L 193.840815 214.179993 
L 194.017105 213.929751 
L 194.292932 213.533975 
L 194.520652 213.203243 
L 194.638413 213.030767 
L 194.782175 212.818855 
L 195.014437 212.473286 
L 195.257687 212.107039 
L 195.495151 211.745121 
L 195.695261 211.436689 
L 195.873044 211.159969 
L 196.098574 210.805188 
L 196.114529 210.779928 
L 196.437044 210.264665 
L 196.57175 210.046776 
L 196.773082 209.718097 
L 197.036092 209.283146 
L 197.186191 209.032015 
L 197.453619 208.579192 
L 197.516444 208.471792 
L 197.700603 208.15468 
L 197.870093 207.859753 
L 198.231811 207.220159 
L 198.415055 206.890679 
L 198.542739 206.658854 
L 198.742176 206.292975 
L 198.926998 205.94969 
L 199.092733 205.638311 
L 199.399962 205.051915 
L 199.43993 204.97473 
L 199.693609 204.479836 
L 200.017835 203.834315 
L 200.10452 203.659165 
L 200.353602 203.149622 
L 200.59789 202.640543 
L 200.630217 202.572459 
L 200.796716 202.219077 
L 200.963214 201.861024 
L 201.121502 201.516153 
L 201.253404 201.225338 
L 201.395842 200.907681 
L 201.620561 200.398626 
L 201.891744 199.770835 
L 202.027277 199.451281 
L 202.162811 199.127701 
L 202.268802 198.871761 
L 202.456461 198.412174 
L 202.651017 197.92664 
L 202.80344 197.53951 
L 202.955863 197.146187 
L 203.059059 196.87624 
L 203.152773 196.628462 
L 203.342135 196.119834 
L 203.531498 195.600052 
L 203.708756 195.102791 
L 203.764417 194.944412 
L 203.932261 194.460073 
L 204.100104 193.965128 
L 204.210081 193.634762 
L 204.320057 193.299365 
L 204.489525 192.772194 
L 204.555791 192.562487 
L 204.694043 192.118181 
L 204.832295 191.664239 
L 204.935392 191.319097 
L 205.03849 190.967995 
L 205.169639 190.512287 
L 205.300787 190.045795 
L 205.379888 189.758915 
L 205.458989 189.467666 
L 205.542336 189.155843 
L 205.625684 188.838717 
L 205.71536 188.491287 
L 205.805036 188.137059 
L 205.918181 187.679822 
L 205.983587 187.409947 
L 206.048994 187.135773 
L 206.1144 186.8571 
L 206.179807 186.573711 
L 206.243136 186.294607 
L 206.306466 186.010632 
L 206.369795 185.721533 
L 206.433125 185.427038 
L 206.48939 185.160624 
L 206.580972 184.716776 
L 206.672553 184.259294 
L 206.764135 183.786898 
L 206.809925 183.544648 
L 206.855716 183.298088 
L 206.930093 182.887813 
L 206.970247 182.660955 
L 207.0104 182.430085 
L 207.050554 182.19499 
L 207.090707 181.955437 
L 207.160994 181.524588 
L 207.196138 181.30326 
L 207.231281 181.077705 
L 207.266425 180.847677 
L 207.301569 180.612906 
L 207.336712 180.373092 
L 207.371856 180.127904 
L 207.420346 179.780083 
L 207.468837 179.420201 
L 207.517327 179.046937 
L 207.541572 178.854804 
L 207.565817 178.658706 
L 207.596454 178.404851 
L 207.62709 178.143688 
L 207.657727 177.874558 
L 207.688363 177.596695 
L 207.719 177.309201 
L 207.749636 177.011012 
L 207.780273 176.700853 
L 207.81091 176.377173 
L 207.839267 176.063865 
L 207.853445 175.901675 
L 207.867624 175.73543 
L 207.881802 175.564814 
L 207.895981 175.389463 
L 207.910159 175.208965 
L 207.924338 175.022839 
L 207.938517 174.830528 
L 207.952695 174.631376 
L 207.966874 174.424599 
L 207.981052 174.209254 
L 207.995231 173.984184 
L 208.009409 173.747944 
L 208.023588 173.498695 
L 208.030677 173.368467 
L 208.037767 173.234025 
L 208.0443 173.10601 
L 208.050834 172.973644 
L 208.057368 172.83645 
L 208.063902 172.693862 
L 208.070436 172.545188 
L 208.076969 172.389579 
L 208.083503 172.225964 
L 208.090037 172.052966 
L 208.096571 171.868761 
L 208.103105 171.670844 
L 208.106372 171.565678 
L 208.109639 171.455609 
L 208.112906 171.339881 
L 208.116172 171.217521 
L 208.119439 171.087238 
L 208.122706 170.947261 
L 208.125973 170.79504 
L 208.12924 170.626662 
L 208.132507 170.435539 
L 208.135774 170.208824 
L 208.139041 169.913354 
L 208.142308 169.2 
L 208.142308 169.2 
z
" style="fill:#808080;opacity:0.5;"/>
   </g>
   <g id="patch_6">
    <path clip-path="url(#p19971bf435)" d="M 130.257692 169.2 
L 130.257692 169.2 
L 130.261888 168.391619 
L 130.266083 168.056792 
L 130.270278 167.799881 
L 130.274473 167.583304 
L 130.278669 167.392503 
L 130.282864 167.220013 
L 130.287059 167.061398 
L 130.291255 166.91377 
L 130.29545 166.775119 
L 130.299645 166.643986 
L 130.30384 166.519266 
L 130.308036 166.400102 
L 130.312231 166.285813 
L 130.316426 166.175846 
L 130.324817 165.96713 
L 130.333208 165.771116 
L 130.341598 165.585737 
L 130.349989 165.409431 
L 130.358379 165.240986 
L 130.36677 165.079439 
L 130.37516 164.924007 
L 130.383551 164.774046 
L 130.391942 164.629018 
L 130.402984 164.444908 
L 130.414027 164.26769 
L 130.42507 164.096647 
L 130.436112 163.931176 
L 130.447155 163.770769 
L 130.458198 163.614989 
L 130.46924 163.463458 
L 130.480283 163.31585 
L 130.502368 163.031279 
L 130.524454 162.759344 
L 130.546539 162.498508 
L 130.568624 162.247521 
L 130.59071 162.005352 
L 130.612795 161.771139 
L 130.63488 161.544151 
L 130.656966 161.323764 
L 130.679051 161.109439 
L 130.701136 160.900705 
L 130.723222 160.697151 
L 130.745307 160.498413 
L 130.772965 160.255834 
L 130.800623 160.019746 
L 130.82828 159.789661 
L 130.855938 159.565147 
L 130.888129 159.310349 
L 130.92032 159.062054 
L 130.952511 158.819797 
L 130.984702 158.583163 
L 131.02222 158.313984 
L 131.059737 158.051428 
L 131.097255 157.795038 
L 131.134772 157.544408 
L 131.17229 157.299172 
L 131.209808 157.059005 
L 131.247325 156.823612 
L 131.284843 156.592724 
L 131.342144 156.248235 
L 131.399446 155.912921 
L 131.456747 155.586105 
L 131.514049 155.267188 
L 131.594514 154.83168 
L 131.66606 154.455617 
L 131.737606 154.089248 
L 131.809152 153.731885 
L 131.880697 153.382918 
L 131.980955 152.907006 
L 132.081213 152.445206 
L 132.186226 151.975395 
L 132.29124 151.518686 
L 132.353729 151.252725 
L 132.416218 150.990863 
L 132.497758 150.655045 
L 132.579297 150.325553 
L 132.648701 150.049838 
L 132.718106 149.778284 
L 132.848547 149.278581 
L 132.978989 148.791944 
L 133.107421 148.324676 
L 133.188662 148.034834 
L 133.269902 147.749216 
L 133.432382 147.189996 
L 133.5804 146.693663 
L 133.701272 146.297042 
L 133.798047 145.984826 
L 133.894823 145.677152 
L 133.997485 145.355532 
L 134.100148 145.038629 
L 134.227029 144.653212 
L 134.353909 144.274399 
L 134.551608 143.696624 
L 134.70065 143.270554 
L 134.849692 142.852216 
L 135.041966 142.323368 
L 135.232033 141.811952 
L 135.285854 141.6691 
L 135.405566 141.354359 
L 135.525278 141.043645 
L 135.673821 140.6635 
L 135.822365 140.289117 
L 136.029191 139.777021 
L 136.196058 139.371315 
L 136.314692 139.086766 
L 136.574609 138.47415 
L 136.783308 137.992526 
L 136.947838 137.61898 
L 137.142317 137.184151 
L 137.215941 137.021377 
L 137.443711 136.523988 
L 137.615678 136.154459 
L 137.787644 135.789903 
L 137.820578 135.720638 
L 138.124321 135.089959 
L 138.257125 134.818689 
L 138.525578 134.278313 
L 138.601845 134.126687 
L 138.775814 133.783861 
L 138.949784 133.445169 
L 139.088527 133.177942 
L 139.306196 132.763712 
L 139.47325 132.449846 
L 139.72982 131.974407 
L 139.811883 131.823987 
L 140.097814 131.305935 
L 140.300164 130.944846 
L 140.383859 130.796797 
L 140.614435 130.392788 
L 140.810577 130.053463 
L 141.01904 129.697086 
L 141.201994 129.387844 
L 141.431215 129.004932 
L 141.566707 128.780911 
L 141.840552 128.333259 
L 142.090667 127.930228 
L 142.154509 127.828225 
L 142.47269 127.325012 
L 142.575978 127.163472 
L 142.872094 126.705148 
L 143.035457 126.455278 
L 143.237433 126.14921 
L 143.314601 126.033095 
L 143.54942 125.682508 
L 143.746334 125.391645 
L 144.042899 124.958853 
L 144.08815 124.893361 
L 144.417458 124.421022 
L 144.448061 124.377503 
L 144.784171 123.903645 
L 144.854047 123.806064 
L 145.034822 123.555081 
L 145.244451 123.266647 
L 145.451959 122.983839 
L 145.756383 122.573722 
L 145.858497 122.437406 
L 146.112165 122.101437 
L 146.364554 121.770869 
L 146.531432 121.554294 
L 146.737167 121.289437 
L 146.855649 121.13797 
L 147.024866 120.92297 
L 147.322628 120.548383 
L 147.573936 120.235874 
L 147.731784 120.041258 
L 147.869498 119.872506 
L 148.138919 119.545124 
L 148.273881 119.382485 
L 148.402474 119.228352 
L 148.649828 118.934125 
L 148.81842 118.735264 
L 149.071706 118.439018 
L 149.1564 118.340625 
L 149.440075 118.013466 
L 149.538499 117.90081 
L 149.774733 117.632185 
L 149.995971 117.382852 
L 150.17386 117.183921 
L 150.401499 116.931345 
L 150.56089 116.755804 
L 150.841052 116.449839 
L 150.970979 116.309051 
L 151.112512 116.156474 
L 151.349582 115.902724 
L 151.551019 115.688885 
L 151.832274 115.392998 
L 152.051941 115.164048 
L 152.182769 115.028574 
L 152.34038 114.866233 
L 152.550535 114.651232 
L 152.834057 114.363783 
L 152.916879 114.280374 
L 153.209291 113.987891 
L 153.407143 113.791742 
L 153.515622 113.68479 
L 153.685599 113.518044 
L 154.023374 113.189694 
L 154.070374 113.144319 
L 154.32157 112.903095 
L 154.549382 112.686182 
L 154.708211 112.535984 
L 154.859895 112.393329 
L 155.061323 112.205067 
L 155.233653 112.045056 
L 155.411895 111.880572 
L 155.745854 111.575136 
L 155.83297 111.496044 
L 156.014036 111.332422 
L 156.200115 111.165339 
L 156.468855 110.925926 
L 156.772942 110.657694 
L 156.919945 110.529028 
L 157.111332 110.362488 
L 157.189742 110.294572 
L 157.39708 110.115863 
L 157.697232 109.859393 
L 157.924157 109.667231 
L 157.977985 109.621866 
L 158.167012 109.463218 
L 158.435964 109.239241 
L 158.578821 109.121101 
L 158.846974 108.900884 
L 159.067857 108.720982 
L 159.306138 108.52841 
L 159.353934 108.489969 
L 159.636026 108.264345 
L 159.798531 108.135341 
L 159.924254 108.036019 
L 160.150489 107.858345 
L 160.431435 107.639575 
L 160.618104 107.495354 
L 160.718083 107.41848 
L 160.999428 107.20353 
L 161.162032 107.08022 
L 161.298698 106.977098 
L 161.473571 106.845831 
L 161.760515 106.632096 
L 161.934184 106.503727 
L 162.058951 106.411963 
L 162.39928 106.163592 
L 162.499329 106.091112 
L 162.731571 105.923793 
L 162.901686 105.802055 
L 163.177643 105.606036 
L 163.404256 105.446411 
L 163.503474 105.376902 
L 163.712781 105.23102 
L 163.995405 105.035646 
L 164.080857 104.976936 
L 164.259177 104.85496 
L 164.551581 104.656512 
L 164.698863 104.557286 
L 164.905352 104.418992 
L 165.019207 104.343146 
L 165.304996 104.154031 
L 165.410168 104.08489 
L 165.774708 103.847113 
L 165.963989 103.724793 
L 165.999107 103.702184 
L 166.326916 103.492418 
L 166.474947 103.398447 
L 166.675331 103.271985 
L 166.803499 103.191544 
L 167.095065 103.009841 
L 167.199408 102.945247 
L 167.451554 102.790092 
L 167.650229 102.668768 
L 167.84142 102.552781 
L 167.965306 102.478026 
L 168.287871 102.284851 
L 168.433515 102.19832 
L 168.694435 102.04437 
L 168.866227 101.943753 
L 168.943567 101.898648 
L 169.2 101.749945 
L 169.2 169.2 
z
" style="fill:#808080;opacity:0.5;"/>
   </g>
   <g id="patch_7">
    <path clip-path="url(#p19971bf435)" d="M 130.257692 169.2 
L 130.257692 169.2 
L 130.26414 170.20214 
L 130.270587 170.617211 
L 130.277035 170.935686 
L 130.283482 171.204156 
L 130.28993 171.440668 
L 130.296377 171.654478 
L 130.302825 171.851084 
L 130.309273 172.034069 
L 130.31572 172.205922 
L 130.322168 172.368455 
L 130.328615 172.523035 
L 130.335063 172.670725 
L 130.34151 172.81237 
L 130.347958 172.948656 
L 130.354405 173.080147 
L 130.360853 173.207316 
L 130.373748 173.450224 
L 130.386643 173.679944 
L 130.399538 173.89841 
L 130.412433 174.107126 
L 130.425328 174.307287 
L 130.438223 174.499863 
L 130.451118 174.685652 
L 130.464013 174.865322 
L 130.475572 175.021641 
L 130.487131 175.173848 
L 130.510249 175.467118 
L 130.533367 175.747184 
L 130.556485 176.015673 
L 130.579603 176.273903 
L 130.602721 176.52296 
L 130.625838 176.76375 
L 130.648956 176.997039 
L 130.680919 177.308431 
L 130.712883 177.608177 
L 130.744846 177.897483 
L 130.776809 178.177356 
L 130.808772 178.448653 
L 130.840735 178.712108 
L 130.872698 178.968356 
L 130.904661 179.21795 
L 130.954174 179.592562 
L 131.003687 179.953904 
L 131.036978 180.190064 
L 131.07027 180.421156 
L 131.103562 180.647487 
L 131.136854 180.869334 
L 131.170145 181.086948 
L 131.203437 181.300558 
L 131.270021 181.716581 
L 131.30956 181.957045 
L 131.3491 182.19294 
L 131.388639 182.42451 
L 131.428178 182.651977 
L 131.496415 183.035476 
L 131.564651 183.408299 
L 131.632887 183.771267 
L 131.701123 184.125099 
L 131.753784 184.392328 
L 131.806446 184.654757 
L 131.859107 184.912628 
L 131.911769 185.166161 
L 132.016154 185.656672 
L 132.103817 186.057084 
L 132.19148 186.447758 
L 132.256212 186.730366 
L 132.320943 187.008255 
L 132.385674 187.281642 
L 132.450405 187.550728 
L 132.562871 188.008562 
L 132.646043 188.339678 
L 132.729215 188.664807 
L 132.839967 189.088963 
L 132.95072 189.503657 
L 133.046594 189.855439 
L 133.142469 190.200892 
L 133.24348 190.558345 
L 133.344491 190.909444 
L 133.507363 191.462935 
L 133.634615 191.885172 
L 133.761867 192.298992 
L 133.89414 192.72069 
L 134.026412 193.134229 
L 134.183805 193.616248 
L 134.302616 193.973237 
L 134.421427 194.324592 
L 134.595271 194.829021 
L 134.709657 195.154945 
L 134.824044 195.47633 
L 134.884566 195.644594 
L 135.033809 196.054435 
L 135.183051 196.457297 
L 135.370729 196.954471 
L 135.563535 197.454825 
L 135.739134 197.901808 
L 135.93287 198.385792 
L 136.114874 198.832113 
L 136.293914 199.263626 
L 136.442494 199.616279 
L 136.591074 199.964173 
L 136.721636 200.266075 
L 136.966375 200.822776 
L 137.018825 200.940567 
L 137.177388 201.293511 
L 137.33595 201.641841 
L 137.586682 202.183587 
L 137.602145 202.216643 
L 137.771846 202.57681 
L 137.941548 202.932278 
L 138.072334 203.203119 
L 138.25808 203.583252 
L 138.43054 203.931581 
L 138.745645 204.556987 
L 138.772274 204.609204 
L 139.08566 205.216561 
L 139.337935 205.696187 
L 139.453749 205.913692 
L 139.616838 206.217203 
L 139.859047 206.662109 
L 140.095317 207.089582 
L 140.206593 207.288738 
L 140.46672 207.749036 
L 140.590803 207.966061 
L 140.903522 208.505967 
L 141.036502 208.73257 
L 141.22494 209.050712 
L 141.33275 209.231191 
L 141.685904 209.814773 
L 141.79733 209.996535 
L 141.968737 210.273979 
L 142.19826 210.641475 
L 142.330651 210.851401 
L 142.633366 211.325904 
L 142.811671 211.601901 
L 142.896479 211.732284 
L 143.229731 212.239177 
L 143.301988 212.347958 
L 143.560341 212.733698 
L 143.828438 213.1288 
L 143.991097 213.365999 
L 144.066018 213.474626 
L 144.366081 213.905773 
L 144.612517 214.255288 
L 144.703013 214.382621 
L 144.915483 214.679467 
L 145.15384 215.009019 
L 145.348416 215.275378 
L 145.482811 215.457981 
L 145.772891 215.848356 
L 145.881485 215.993196 
L 146.050768 216.217593 
L 146.259625 216.492144 
L 146.441011 216.728553 
L 146.660565 217.012223 
L 146.844825 217.248225 
L 147.157806 217.644854 
L 147.225656 217.730144 
L 147.512514 218.08805 
L 147.6988 218.318181 
L 147.78395 218.42278 
L 148.019611 218.710349 
L 148.229351 218.963952 
L 148.36241 219.123714 
L 148.58102 219.384324 
L 148.84463 219.695532 
L 149.10652 220.001467 
L 149.301863 220.227594 
L 149.512661 220.469658 
L 149.5712 220.536523 
L 149.876397 220.882657 
L 149.98607 221.006035 
L 150.274869 221.328426 
L 150.3903 221.456282 
L 150.690854 221.786537 
L 150.748828 221.849803 
L 151.03791 222.163205 
L 151.172489 222.307938 
L 151.369335 222.518317 
L 151.545958 222.705761 
L 151.861575 223.037649 
L 152.076734 223.261676 
L 152.197196 223.386325 
L 152.410079 223.605257 
L 152.634541 223.834249 
L 152.807895 224.009817 
L 152.885024 224.087575 
L 153.063462 224.266633 
L 153.440183 224.640877 
L 153.474309 224.674528 
L 153.829644 225.022468 
L 153.838693 225.03127 
L 154.130829 225.313933 
L 154.371817 225.544899 
L 154.543409 225.708153 
L 154.761642 225.914353 
L 154.96291 226.10312 
L 155.074467 226.207172 
L 155.383244 226.493058 
L 155.437665 226.543125 
L 155.750348 226.82895 
L 155.941504 227.002157 
L 156.009096 227.063127 
L 156.260615 227.288753 
L 156.518614 227.518158 
L 156.728337 227.703136 
L 156.889338 227.844236 
L 157.005623 227.945662 
L 157.249955 228.157457 
L 157.420946 228.304626 
L 157.638523 228.490649 
L 157.860355 228.678892 
L 157.990202 228.788418 
L 158.22063 228.981597 
L 158.437724 229.162219 
L 158.714698 229.390736 
L 158.906266 229.547539 
L 159.059969 229.672616 
L 159.161915 229.755219 
L 159.422696 229.965226 
L 159.669974 230.162662 
L 159.781173 230.250913 
L 160.057189 230.468546 
L 160.192517 230.574514 
L 160.43369 230.762173 
L 160.546846 230.849699 
L 160.847541 231.080679 
L 160.927038 231.141356 
L 161.242102 231.380255 
L 161.419685 231.513802 
L 161.626644 231.668442 
L 161.732425 231.747071 
L 162.011831 231.953425 
L 162.24553 232.124551 
L 162.376481 232.219857 
L 162.634807 232.406651 
L 162.650412 232.417883 
L 162.972485 232.648408 
L 163.111496 232.747142 
L 163.252375 232.846738 
L 163.443764 232.981294 
L 163.631417 233.112392 
L 163.948024 233.331729 
L 164.19206 233.499215 
L 164.361353 233.614605 
L 164.534933 233.732241 
L 164.707046 233.848212 
L 164.874683 233.960528 
L 165.13856 234.136053 
L 165.202124 234.178103 
L 165.451463 234.342191 
L 165.687066 234.495986 
L 165.947823 234.66479 
L 166.044873 234.727241 
L 166.336242 234.913516 
L 166.455801 234.989425 
L 166.73305 235.164283 
L 166.917526 235.27973 
L 167.010801 235.337829 
L 167.180023 235.44277 
L 167.470238 235.621353 
L 167.56008 235.676283 
L 167.751602 235.792824 
L 168.083903 235.993245 
L 168.28871 236.115649 
L 168.449489 236.211145 
L 168.653027 236.33129 
L 168.774811 236.402779 
L 168.916914 236.485822 
L 169.2 236.650055 
L 169.2 169.2 
z
" style="fill:#808080;opacity:0.5;"/>
   </g>
   <g id="matplotlib.axis_1"/>
   <g id="matplotlib.axis_2"/>
   <g id="line2d_1">
    <path clip-path="url(#p19971bf435)" d="M 169.2 101.749945 
L 172.687623 103.887564 
L 176.141183 106.26576 
L 179.506382 108.862782 
L 182.634741 111.557498 
L 185.754644 114.554766 
L 188.709895 117.728131 
L 191.389923 120.941698 
L 193.867628 124.257933 
L 196.123086 127.633629 
L 198.263718 131.236943 
L 200.260953 135.059748 
L 202.076755 139.066372 
L 203.5559 142.867774 
L 204.924205 147.04317 
L 206.056816 151.297315 
L 206.885836 155.266552 
L 207.532126 159.469878 
L 207.941957 163.617143 
L 208.126896 167.650674 
L 208.142308 169.2 
L 208.142308 169.2 
" style="fill:none;stroke:#0000ff;stroke-linecap:square;"/>
   </g>
   <g id="line2d_2">
    <path clip-path="url(#p19971bf435)" d="M 169.2 236.650055 
L 172.797797 234.44073 
L 176.180426 232.105611 
L 179.573146 229.482662 
L 182.766792 226.722237 
L 185.681404 223.919517 
L 188.530243 220.875169 
L 191.138366 217.77527 
L 193.59062 214.531596 
L 195.873044 211.159969 
L 197.870093 207.859753 
L 199.693609 204.479836 
L 201.620561 200.398626 
L 203.152773 196.628462 
L 204.555791 192.562487 
L 205.71536 188.491287 
L 206.672553 184.259294 
L 207.371856 180.127904 
L 207.853445 175.901675 
L 208.103105 171.670844 
L 208.142308 169.2 
L 208.142308 169.2 
" style="fill:none;stroke:#0000ff;stroke-linecap:square;"/>
   </g>
   <g id="line2d_3">
    <path clip-path="url(#p19971bf435)" d="M 130.257692 169.2 
L 130.391942 164.629018 
L 130.745307 160.498413 
L 131.284843 156.592724 
L 132.081213 152.445206 
L 133.107421 148.324676 
L 134.353909 144.274399 
L 135.822365 140.289117 
L 137.443711 136.523988 
L 139.306196 132.763712 
L 141.431215 129.004932 
L 143.746334 125.391645 
L 146.112165 122.101437 
L 148.81842 118.735264 
L 151.551019 115.688885 
L 154.549382 112.686182 
L 157.697232 109.859393 
L 160.999428 107.20353 
L 164.259177 104.85496 
L 167.84142 102.552781 
L 169.2 101.749945 
L 169.2 101.749945 
" style="fill:none;stroke:#0000ff;stroke-linecap:square;"/>
   </g>
   <g id="line2d_4">
    <path clip-path="url(#p19971bf435)" d="M 130.257692 169.2 
L 130.386643 173.679944 
L 130.744846 177.897483 
L 131.30956 181.957045 
L 132.103817 186.057084 
L 133.142469 190.200892 
L 134.421427 194.324592 
L 135.93287 198.385792 
L 137.602145 202.216643 
L 139.453749 205.913692 
L 141.33275 209.231191 
L 143.560341 212.733698 
L 146.050768 216.217593 
L 148.58102 219.384324 
L 151.369335 222.518317 
L 154.371817 225.544899 
L 157.420946 228.304626 
L 160.546846 230.849699 
L 163.948024 233.331729 
L 167.56008 235.676283 
L 169.2 236.650055 
L 169.2 236.650055 
" style="fill:none;stroke:#0000ff;stroke-linecap:square;"/>
   </g>
   <g id="text_1">
    <!-- $\Omega$ -->
    <g transform="translate(17.569231 23.978606)scale(0.1 -0.1)">
     <defs>
      <path d="M 7.71875 0 
L 4.390625 16.609375 
L 7.328125 16.609375 
Q 7.859375 13.71875 8.296875 11.5 
Q 8.734375 9.28125 9.4375 8.375 
Q 10.15625 7.46875 11.71875 7.171875 
Q 13.28125 6.890625 16.890625 6.890625 
L 23 6.890625 
Q 21.53125 12.546875 15.6875 21.65625 
Q 9.859375 30.765625 7.734375 34.890625 
Q 5.609375 39.015625 5.609375 45.515625 
Q 5.609375 53.078125 10.09375 58.765625 
Q 14.59375 64.453125 21.703125 67.484375 
Q 28.8125 70.515625 36.078125 70.515625 
Q 43.3125 70.515625 50.40625 67.484375 
Q 57.515625 64.453125 62 58.71875 
Q 66.5 52.984375 66.5 45.515625 
Q 66.5 40.4375 64.640625 35.9375 
Q 62.796875 31.453125 59.90625 26.953125 
Q 57.03125 22.46875 53.6875 16.9375 
Q 50.34375 11.421875 49.125 6.890625 
L 55.171875 6.890625 
Q 58.84375 6.890625 60.453125 7.171875 
Q 62.0625 7.46875 62.734375 8.375 
Q 63.421875 9.28125 63.84375 11.5 
Q 64.265625 13.71875 64.796875 16.609375 
L 67.671875 16.609375 
L 64.40625 0 
L 46.6875 0 
Q 45.703125 0 45.703125 1.3125 
Q 45.703125 6.390625 46.9375 11.265625 
Q 48.1875 16.15625 50.625 23.09375 
Q 53.078125 30.03125 54.4375 35.328125 
Q 55.8125 40.625 55.8125 45.515625 
Q 55.8125 51.515625 53.46875 56.640625 
Q 51.125 61.765625 46.625 64.84375 
Q 42.140625 67.921875 36.078125 67.921875 
Q 26.953125 67.921875 21.625 61.40625 
Q 16.3125 54.890625 16.3125 45.515625 
Q 16.359375 40.375 17.53125 35.828125 
Q 18.703125 31.296875 21.3125 23.71875 
Q 23.921875 16.15625 25.171875 11.265625 
Q 26.421875 6.390625 26.421875 1.3125 
Q 26.421875 0 25.390625 0 
z
" id="Cmr10-173"/>
     </defs>
     <use transform="translate(0 0.484375)" xlink:href="#Cmr10-173"/>
    </g>
   </g>
   <g id="text_2">
    <!-- $A$ -->
    <g style="fill:#0000ff;" transform="translate(87.565385 94.07476)scale(0.1 -0.1)">
     <defs>
      <path d="M 4.5 0 
Q 3.515625 0 3.515625 1.3125 
Q 3.90625 3.515625 4.78125 3.515625 
Q 8.84375 3.515625 11.796875 5.125 
Q 14.75 6.734375 16.890625 10.109375 
Q 17.09375 10.296875 17.09375 10.296875 
L 52.78125 70.515625 
Q 53.5625 71.578125 54.6875 71.578125 
L 56 71.578125 
Q 56.296875 71.578125 56.59375 71.453125 
Q 56.890625 71.34375 57.109375 71.0625 
Q 57.328125 70.796875 57.328125 70.515625 
L 63.375 5.90625 
Q 63.375 5.46875 63.8125 4.59375 
Q 64.796875 3.515625 71.296875 3.515625 
Q 72.3125 3.515625 72.3125 2.203125 
Q 71.96875 0.875 71.75 0.4375 
Q 71.53125 0 70.609375 0 
L 45.609375 0 
Q 44.671875 0 44.671875 1.3125 
Q 45.21875 3.515625 46 3.515625 
Q 53.90625 3.515625 54.390625 6.203125 
L 52.875 22.703125 
L 28.21875 22.703125 
L 20.21875 9.28125 
Q 19.484375 8.203125 19.484375 6.78125 
Q 19.484375 5.03125 21.171875 4.265625 
Q 22.859375 3.515625 24.90625 3.515625 
Q 25.875 3.515625 25.875 2.203125 
Q 25.53125 0.78125 25.328125 0.390625 
Q 25.140625 0 24.21875 0 
z
M 30.171875 26.21875 
L 52.484375 26.21875 
L 49.515625 58.59375 
z
" id="Cmmi10-65"/>
     </defs>
     <use transform="translate(0 0.421875)" xlink:href="#Cmmi10-65"/>
    </g>
   </g>
   <g id="text_3">
    <!-- $B$ -->
    <g style="fill:#ff0000;" transform="translate(243.284615 94.07476)scale(0.1 -0.1)">
     <defs>
      <path d="M 4.984375 0 
Q 4 0 4 1.3125 
Q 4.046875 1.5625 4.1875 2.140625 
Q 4.34375 2.734375 4.578125 3.125 
Q 4.828125 3.515625 5.328125 3.515625 
Q 8.15625 3.515625 10.25 3.65625 
Q 12.359375 3.8125 13.8125 4.203125 
Q 14.984375 4.640625 15.71875 6.890625 
L 29.390625 61.8125 
Q 29.59375 62.796875 29.59375 63.1875 
Q 29.59375 64.265625 28.421875 64.40625 
Q 26.515625 64.796875 21.1875 64.796875 
Q 20.21875 64.796875 20.21875 66.109375 
Q 20.265625 66.359375 20.40625 66.96875 
Q 20.5625 67.578125 20.828125 67.9375 
Q 21.09375 68.3125 21.484375 68.3125 
L 57.328125 68.3125 
Q 60.59375 68.3125 63.796875 67.5 
Q 67 66.703125 69.703125 64.9375 
Q 72.40625 63.1875 74 60.5625 
Q 75.59375 57.953125 75.59375 54.5 
Q 75.59375 50.734375 73.65625 47.5 
Q 71.734375 44.28125 68.671875 41.890625 
Q 65.625 39.5 62.078125 37.953125 
Q 58.546875 36.421875 54.6875 35.6875 
Q 57.421875 35.6875 60.21875 34.609375 
Q 63.03125 33.546875 65.234375 31.6875 
Q 67.4375 29.828125 68.78125 27.234375 
Q 70.125 24.65625 70.125 21.6875 
Q 70.125 15.671875 65.921875 10.6875 
Q 61.71875 5.71875 55.34375 2.859375 
Q 48.96875 0 43.015625 0 
z
M 23.390625 4.296875 
Q 23.390625 3.515625 26.8125 3.515625 
L 41.109375 3.515625 
Q 46 3.515625 50.484375 6.21875 
Q 54.984375 8.9375 57.6875 13.421875 
Q 60.40625 17.921875 60.40625 22.796875 
Q 60.40625 25.78125 59.15625 28.4375 
Q 57.90625 31.109375 55.5625 32.640625 
Q 53.21875 34.1875 50.203125 34.1875 
L 30.71875 34.1875 
L 23.78125 6.5 
Q 23.390625 5.125 23.390625 4.296875 
z
M 31.390625 36.8125 
L 46.578125 36.8125 
Q 51.375 36.8125 55.890625 39.25 
Q 60.40625 41.703125 63.25 45.890625 
Q 66.109375 50.09375 66.109375 54.78125 
Q 66.109375 59.125 63.390625 61.953125 
Q 60.6875 64.796875 56.390625 64.796875 
L 42.671875 64.796875 
Q 39.984375 64.796875 39.0625 64.296875 
Q 38.140625 63.8125 37.5 61.375 
z
" id="Cmmi10-66"/>
     </defs>
     <use transform="translate(0 0.6875)" xlink:href="#Cmmi10-66"/>
    </g>
   </g>
   <g id="text_4">
    <!-- $A\cap B$, colorée en gris -->
    <g transform="translate(116.25 55.323077)scale(0.1 -0.1)">
     <defs>
      <path d="M 5.609375 -0.390625 
L 5.609375 38.625 
Q 5.609375 45.265625 9.765625 50.09375 
Q 13.921875 54.9375 20.40625 57.375 
Q 26.90625 59.8125 33.296875 59.8125 
Q 38.03125 59.8125 42.890625 58.515625 
Q 47.75 57.234375 51.875 54.515625 
Q 56 51.8125 58.484375 47.75 
Q 60.984375 43.703125 60.984375 38.625 
L 60.984375 -0.390625 
Q 60.984375 -1.171875 60.390625 -1.6875 
Q 59.8125 -2.203125 58.984375 -2.203125 
Q 58.25 -2.203125 57.609375 -1.6875 
Q 56.984375 -1.171875 56.984375 -0.390625 
L 56.984375 38.28125 
Q 56.984375 42.671875 54.8125 46.015625 
Q 52.640625 49.359375 49.234375 51.453125 
Q 45.84375 53.5625 41.59375 54.6875 
Q 37.359375 55.8125 33.296875 55.8125 
Q 27.734375 55.8125 22.28125 53.859375 
Q 16.84375 51.90625 13.234375 47.953125 
Q 9.625 44 9.625 38.28125 
L 9.625 -0.390625 
Q 9.625 -1.171875 8.984375 -1.6875 
Q 8.34375 -2.203125 7.625 -2.203125 
Q 6.78125 -2.203125 6.1875 -1.6875 
Q 5.609375 -1.171875 5.609375 -0.390625 
z
" id="Cmsy10-92"/>
      <path d="M 11.71875 12.40625 
L 22.015625 12.40625 
L 22.015625 4 
L 14.015625 -11.625 
L 7.71875 -11.625 
L 11.71875 4 
z
" id="DejaVuSans-44"/>
      <path id="DejaVuSans-32"/>
      <path d="M 48.78125 52.59375 
L 48.78125 44.1875 
Q 44.96875 46.296875 41.140625 47.34375 
Q 37.3125 48.390625 33.40625 48.390625 
Q 24.65625 48.390625 19.8125 42.84375 
Q 14.984375 37.3125 14.984375 27.296875 
Q 14.984375 17.28125 19.8125 11.734375 
Q 24.65625 6.203125 33.40625 6.203125 
Q 37.3125 6.203125 41.140625 7.25 
Q 44.96875 8.296875 48.78125 10.40625 
L 48.78125 2.09375 
Q 45.015625 0.34375 40.984375 -0.53125 
Q 36.96875 -1.421875 32.421875 -1.421875 
Q 20.0625 -1.421875 12.78125 6.34375 
Q 5.515625 14.109375 5.515625 27.296875 
Q 5.515625 40.671875 12.859375 48.328125 
Q 20.21875 56 33.015625 56 
Q 37.15625 56 41.109375 55.140625 
Q 45.0625 54.296875 48.78125 52.59375 
z
" id="DejaVuSans-99"/>
      <path d="M 30.609375 48.390625 
Q 23.390625 48.390625 19.1875 42.75 
Q 14.984375 37.109375 14.984375 27.296875 
Q 14.984375 17.484375 19.15625 11.84375 
Q 23.34375 6.203125 30.609375 6.203125 
Q 37.796875 6.203125 41.984375 11.859375 
Q 46.1875 17.53125 46.1875 27.296875 
Q 46.1875 37.015625 41.984375 42.703125 
Q 37.796875 48.390625 30.609375 48.390625 
z
M 30.609375 56 
Q 42.328125 56 49.015625 48.375 
Q 55.71875 40.765625 55.71875 27.296875 
Q 55.71875 13.875 49.015625 6.21875 
Q 42.328125 -1.421875 30.609375 -1.421875 
Q 18.84375 -1.421875 12.171875 6.21875 
Q 5.515625 13.875 5.515625 27.296875 
Q 5.515625 40.765625 12.171875 48.375 
Q 18.84375 56 30.609375 56 
z
" id="DejaVuSans-111"/>
      <path d="M 9.421875 75.984375 
L 18.40625 75.984375 
L 18.40625 0 
L 9.421875 0 
z
" id="DejaVuSans-108"/>
      <path d="M 41.109375 46.296875 
Q 39.59375 47.171875 37.8125 47.578125 
Q 36.03125 48 33.890625 48 
Q 26.265625 48 22.1875 43.046875 
Q 18.109375 38.09375 18.109375 28.8125 
L 18.109375 0 
L 9.078125 0 
L 9.078125 54.6875 
L 18.109375 54.6875 
L 18.109375 46.1875 
Q 20.953125 51.171875 25.484375 53.578125 
Q 30.03125 56 36.53125 56 
Q 37.453125 56 38.578125 55.875 
Q 39.703125 55.765625 41.0625 55.515625 
z
" id="DejaVuSans-114"/>
      <path d="M 56.203125 29.59375 
L 56.203125 25.203125 
L 14.890625 25.203125 
Q 15.484375 15.921875 20.484375 11.0625 
Q 25.484375 6.203125 34.421875 6.203125 
Q 39.59375 6.203125 44.453125 7.46875 
Q 49.3125 8.734375 54.109375 11.28125 
L 54.109375 2.78125 
Q 49.265625 0.734375 44.1875 -0.34375 
Q 39.109375 -1.421875 33.890625 -1.421875 
Q 20.796875 -1.421875 13.15625 6.1875 
Q 5.515625 13.8125 5.515625 26.8125 
Q 5.515625 40.234375 12.765625 48.109375 
Q 20.015625 56 32.328125 56 
Q 43.359375 56 49.78125 48.890625 
Q 56.203125 41.796875 56.203125 29.59375 
z
M 47.21875 32.234375 
Q 47.125 39.59375 43.09375 43.984375 
Q 39.0625 48.390625 32.421875 48.390625 
Q 24.90625 48.390625 20.390625 44.140625 
Q 15.875 39.890625 15.1875 32.171875 
z
M 38.578125 79.984375 
L 48.296875 79.984375 
L 32.375 61.625 
L 24.90625 61.625 
z
" id="DejaVuSans-233"/>
      <path d="M 56.203125 29.59375 
L 56.203125 25.203125 
L 14.890625 25.203125 
Q 15.484375 15.921875 20.484375 11.0625 
Q 25.484375 6.203125 34.421875 6.203125 
Q 39.59375 6.203125 44.453125 7.46875 
Q 49.3125 8.734375 54.109375 11.28125 
L 54.109375 2.78125 
Q 49.265625 0.734375 44.1875 -0.34375 
Q 39.109375 -1.421875 33.890625 -1.421875 
Q 20.796875 -1.421875 13.15625 6.1875 
Q 5.515625 13.8125 5.515625 26.8125 
Q 5.515625 40.234375 12.765625 48.109375 
Q 20.015625 56 32.328125 56 
Q 43.359375 56 49.78125 48.890625 
Q 56.203125 41.796875 56.203125 29.59375 
z
M 47.21875 32.234375 
Q 47.125 39.59375 43.09375 43.984375 
Q 39.0625 48.390625 32.421875 48.390625 
Q 24.90625 48.390625 20.390625 44.140625 
Q 15.875 39.890625 15.1875 32.171875 
z
" id="DejaVuSans-101"/>
      <path d="M 54.890625 33.015625 
L 54.890625 0 
L 45.90625 0 
L 45.90625 32.71875 
Q 45.90625 40.484375 42.875 44.328125 
Q 39.84375 48.1875 33.796875 48.1875 
Q 26.515625 48.1875 22.3125 43.546875 
Q 18.109375 38.921875 18.109375 30.90625 
L 18.109375 0 
L 9.078125 0 
L 9.078125 54.6875 
L 18.109375 54.6875 
L 18.109375 46.1875 
Q 21.34375 51.125 25.703125 53.5625 
Q 30.078125 56 35.796875 56 
Q 45.21875 56 50.046875 50.171875 
Q 54.890625 44.34375 54.890625 33.015625 
z
" id="DejaVuSans-110"/>
      <path d="M 45.40625 27.984375 
Q 45.40625 37.75 41.375 43.109375 
Q 37.359375 48.484375 30.078125 48.484375 
Q 22.859375 48.484375 18.828125 43.109375 
Q 14.796875 37.75 14.796875 27.984375 
Q 14.796875 18.265625 18.828125 12.890625 
Q 22.859375 7.515625 30.078125 7.515625 
Q 37.359375 7.515625 41.375 12.890625 
Q 45.40625 18.265625 45.40625 27.984375 
z
M 54.390625 6.78125 
Q 54.390625 -7.171875 48.1875 -13.984375 
Q 42 -20.796875 29.203125 -20.796875 
Q 24.46875 -20.796875 20.265625 -20.09375 
Q 16.0625 -19.390625 12.109375 -17.921875 
L 12.109375 -9.1875 
Q 16.0625 -11.328125 19.921875 -12.34375 
Q 23.78125 -13.375 27.78125 -13.375 
Q 36.625 -13.375 41.015625 -8.765625 
Q 45.40625 -4.15625 45.40625 5.171875 
L 45.40625 9.625 
Q 42.625 4.78125 38.28125 2.390625 
Q 33.9375 0 27.875 0 
Q 17.828125 0 11.671875 7.65625 
Q 5.515625 15.328125 5.515625 27.984375 
Q 5.515625 40.671875 11.671875 48.328125 
Q 17.828125 56 27.875 56 
Q 33.9375 56 38.28125 53.609375 
Q 42.625 51.21875 45.40625 46.390625 
L 45.40625 54.6875 
L 54.390625 54.6875 
z
" id="DejaVuSans-103"/>
      <path d="M 9.421875 54.6875 
L 18.40625 54.6875 
L 18.40625 0 
L 9.421875 0 
z
M 9.421875 75.984375 
L 18.40625 75.984375 
L 18.40625 64.59375 
L 9.421875 64.59375 
z
" id="DejaVuSans-105"/>
      <path d="M 44.28125 53.078125 
L 44.28125 44.578125 
Q 40.484375 46.53125 36.375 47.5 
Q 32.28125 48.484375 27.875 48.484375 
Q 21.1875 48.484375 17.84375 46.4375 
Q 14.5 44.390625 14.5 40.28125 
Q 14.5 37.15625 16.890625 35.375 
Q 19.28125 33.59375 26.515625 31.984375 
L 29.59375 31.296875 
Q 39.15625 29.25 43.1875 25.515625 
Q 47.21875 21.78125 47.21875 15.09375 
Q 47.21875 7.46875 41.1875 3.015625 
Q 35.15625 -1.421875 24.609375 -1.421875 
Q 20.21875 -1.421875 15.453125 -0.5625 
Q 10.6875 0.296875 5.421875 2 
L 5.421875 11.28125 
Q 10.40625 8.6875 15.234375 7.390625 
Q 20.0625 6.109375 24.8125 6.109375 
Q 31.15625 6.109375 34.5625 8.28125 
Q 37.984375 10.453125 37.984375 14.40625 
Q 37.984375 18.0625 35.515625 20.015625 
Q 33.0625 21.96875 24.703125 23.78125 
L 21.578125 24.515625 
Q 13.234375 26.265625 9.515625 29.90625 
Q 5.8125 33.546875 5.8125 39.890625 
Q 5.8125 47.609375 11.28125 51.796875 
Q 16.75 56 26.8125 56 
Q 31.78125 56 36.171875 55.265625 
Q 40.578125 54.546875 44.28125 53.078125 
z
" id="DejaVuSans-115"/>
     </defs>
     <use transform="translate(0 0.015625)" xlink:href="#Cmmi10-65"/>
     <use transform="translate(92.558594 0.015625)" xlink:href="#Cmsy10-92"/>
     <use transform="translate(176.71875 0.015625)" xlink:href="#Cmmi10-66"/>
     <use transform="translate(252.5 0.015625)" xlink:href="#DejaVuSans-44"/>
     <use transform="translate(284.287109 0.015625)" xlink:href="#DejaVuSans-32"/>
     <use transform="translate(316.074219 0.015625)" xlink:href="#DejaVuSans-99"/>
     <use transform="translate(371.054688 0.015625)" xlink:href="#DejaVuSans-111"/>
     <use transform="translate(432.236328 0.015625)" xlink:href="#DejaVuSans-108"/>
     <use transform="translate(460.019531 0.015625)" xlink:href="#DejaVuSans-111"/>
     <use transform="translate(521.201172 0.015625)" xlink:href="#DejaVuSans-114"/>
     <use transform="translate(562.314453 0.015625)" xlink:href="#DejaVuSans-233"/>
     <use transform="translate(623.837891 0.015625)" xlink:href="#DejaVuSans-101"/>
     <use transform="translate(685.361328 0.015625)" xlink:href="#DejaVuSans-32"/>
     <use transform="translate(717.148438 0.015625)" xlink:href="#DejaVuSans-101"/>
     <use transform="translate(778.671875 0.015625)" xlink:href="#DejaVuSans-110"/>
     <use transform="translate(842.050781 0.015625)" xlink:href="#DejaVuSans-32"/>
     <use transform="translate(873.837891 0.015625)" xlink:href="#DejaVuSans-103"/>
     <use transform="translate(937.314453 0.015625)" xlink:href="#DejaVuSans-114"/>
     <use transform="translate(978.427734 0.015625)" xlink:href="#DejaVuSans-105"/>
     <use transform="translate(1006.210938 0.015625)" xlink:href="#DejaVuSans-115"/>
    </g>
   </g>
   <g id="patch_8">
    <path clip-path="url(#p19971bf435)" d="M 130.257692 247.084615 
C 150.912934 247.084615 170.724971 238.878201 185.330432 224.27274 
C 199.935893 209.667278 208.142308 189.855241 208.142308 169.2 
C 208.142308 148.544759 199.935893 128.732722 185.330432 114.12726 
C 170.724971 99.521799 150.912934 91.315385 130.257692 91.315385 
C 109.602451 91.315385 89.790414 99.521799 75.184953 114.12726 
C 60.579491 128.732722 52.373077 148.544759 52.373077 169.2 
C 52.373077 189.855241 60.579491 209.667278 75.184953 224.27274 
C 89.790414 238.878201 109.602451 247.084615 130.257692 247.084615 
z
" style="fill:none;stroke:#0000ff;stroke-linejoin:miter;"/>
   </g>
   <g id="patch_9">
    <path clip-path="url(#p19971bf435)" d="M 208.142308 247.084615 
C 228.797549 247.084615 248.609586 238.878201 263.215047 224.27274 
C 277.820509 209.667278 286.026923 189.855241 286.026923 169.2 
C 286.026923 148.544759 277.820509 128.732722 263.215047 114.12726 
C 248.609586 99.521799 228.797549 91.315385 208.142308 91.315385 
C 187.487066 91.315385 167.675029 99.521799 153.069568 114.12726 
C 138.464107 128.732722 130.257692 148.544759 130.257692 169.2 
C 130.257692 189.855241 138.464107 209.667278 153.069568 224.27274 
C 167.675029 238.878201 187.487066 247.084615 208.142308 247.084615 
z
" style="fill:none;stroke:#ff0000;stroke-linejoin:miter;"/>
   </g>
  </g>
 </g>
 <defs>
  <clipPath id="p19971bf435">
   <rect height="324" width="324" x="7.2" y="7.2"/>
  </clipPath>
 </defs>
</svg>
