<?xml version="1.0" encoding="utf-8" standalone="no"?>
<!DOCTYPE svg PUBLIC "-//W3C//DTD SVG 1.1//EN"
  "http://www.w3.org/Graphics/SVG/1.1/DTD/svg11.dtd">
<!-- Created with matplotlib (https://matplotlib.org/) -->
<svg height="338.4pt" version="1.1" viewBox="0 0 338.4 338.4" width="338.4pt" xmlns="http://www.w3.org/2000/svg" xmlns:xlink="http://www.w3.org/1999/xlink">
 <metadata>
  <rdf:RDF xmlns:cc="http://creativecommons.org/ns#" xmlns:dc="http://purl.org/dc/elements/1.1/" xmlns:rdf="http://www.w3.org/1999/02/22-rdf-syntax-ns#">
   <cc:Work>
    <dc:type rdf:resource="http://purl.org/dc/dcmitype/StillImage"/>
    <dc:date>2021-08-20T13:43:48.197297</dc:date>
    <dc:format>image/svg+xml</dc:format>
    <dc:creator>
     <cc:Agent>
      <dc:title>Matplotlib v3.3.4, https://matplotlib.org/</dc:title>
     </cc:Agent>
    </dc:creator>
   </cc:Work>
  </rdf:RDF>
 </metadata>
 <defs>
  <style type="text/css">*{stroke-linecap:butt;stroke-linejoin:round;}</style>
 </defs>
 <g id="figure_1">
  <g id="patch_1">
   <path d="M -0 338.4 
L 338.4 338.4 
L 338.4 0 
L -0 0 
z
" style="fill:#ffffff;"/>
  </g>
  <g id="axes_1">
   <g id="patch_2">
    <path d="M 7.2 331.2 
L 331.2 331.2 
L 331.2 7.2 
L 7.2 7.2 
z
" style="fill:#ffffff;"/>
   </g>
   <g id="patch_3">
    <path clip-path="url(#pfc6948c2a7)" d="M 13.430769 324.969231 
L 13.430769 13.430769 
L 324.969231 13.430769 
L 324.969231 324.969231 
z
" style="fill:none;stroke:#000000;stroke-linejoin:miter;"/>
   </g>
   <g id="patch_4">
    <path clip-path="url(#pfc6948c2a7)" d="M 169.2 169.2 
L 169.2 101.749945 
L 169.345625 101.834231 
L 169.52852 101.940685 
L 169.8341 102.120038 
L 170.032484 102.237479 
L 170.209884 102.34317 
L 170.422717 102.470815 
L 170.653224 102.610103 
L 170.842774 102.72546 
L 170.893882 102.75669 
L 171.188233 102.937612 
L 171.336372 103.029346 
L 171.495879 103.128635 
L 171.681485 103.244843 
L 171.87965 103.369719 
L 172.20553 103.576893 
L 172.36933 103.681886 
L 172.498867 103.765326 
L 172.715794 103.905874 
L 172.919307 104.038662 
L 173.021189 104.105479 
L 173.312151 104.297559 
L 173.530196 104.442732 
L 173.694481 104.552814 
L 173.82438 104.640283 
L 174.116018 104.83805 
L 174.258306 104.93524 
L 174.4293 105.052651 
L 174.7551 105.278219 
L 174.849602 105.344108 
L 175.023451 105.465864 
L 175.187418 105.581346 
L 175.529322 105.824194 
L 175.580994 105.861136 
L 175.877936 106.074675 
L 176.113762 106.245777 
L 176.1839 106.296926 
L 176.413446 106.465164 
L 176.598054 106.601404 
L 176.821276 106.767268 
L 177.014603 106.911922 
L 177.266264 107.10163 
L 177.357933 107.17113 
L 177.660093 107.401734 
L 177.780487 107.494269 
L 177.998235 107.662581 
L 178.233701 107.845979 
L 178.465953 108.0283 
L 178.578074 108.116827 
L 178.717315 108.227233 
L 178.90545 108.377233 
L 179.140157 108.565703 
L 179.401154 108.777045 
L 179.52757 108.880082 
L 179.857227 109.150858 
L 179.99309 109.263337 
L 180.061206 109.319925 
L 180.277524 109.500504 
L 180.527183 109.710576 
L 180.801189 109.943201 
L 180.881992 110.012218 
L 181.128522 110.223971 
L 181.257899 110.335816 
L 181.578126 110.614793 
L 181.657755 110.684644 
L 181.836385 110.842038 
L 182.133015 111.105558 
L 182.402622 111.347432 
L 182.465836 111.404472 
L 182.657208 111.57792 
L 182.950745 111.846225 
L 183.020007 111.909936 
L 183.325036 112.192366 
L 183.567932 112.419443 
L 183.696753 112.540666 
L 183.867668 112.702356 
L 184.129813 112.952263 
L 184.21642 113.03534 
L 184.533222 113.341427 
L 184.743653 113.546668 
L 184.879289 113.679784 
L 185.107419 113.905147 
L 185.193833 113.991 
L 185.461874 114.259017 
L 185.684387 114.483505 
L 185.915002 114.718102 
L 186.070345 114.87725 
L 186.200689 115.011492 
L 186.466139 115.286886 
L 186.691408 115.522733 
L 186.744681 115.578797 
L 187.03398 115.885213 
L 187.225056 116.089429 
L 187.462506 116.345269 
L 187.651563 116.550622 
L 187.855311 116.773598 
L 188.043582 116.981189 
L 188.10473 117.048935 
L 188.420376 117.401202 
L 188.562416 117.561134 
L 188.726051 117.746484 
L 188.955301 118.008164 
L 189.217866 118.310795 
L 189.362735 118.479124 
L 189.507097 118.647836 
L 189.788484 118.979504 
L 189.962224 119.18618 
L 190.159968 119.423192 
L 190.250508 119.53235 
L 190.587533 119.942273 
L 190.632331 119.997192 
L 190.960398 120.402512 
L 191.198275 120.69991 
L 191.302087 120.830638 
L 191.536133 121.127492 
L 191.652239 121.275863 
L 191.970157 121.685949 
L 192.020009 121.750768 
L 192.346642 122.178987 
L 192.487251 122.365234 
L 192.655761 122.589976 
L 192.880214 122.891976 
L 193.041954 123.1115 
L 193.295649 123.459106 
L 193.494734 123.73474 
L 193.609471 123.894752 
L 193.807218 124.172552 
L 194.009781 124.459812 
L 194.274652 124.839633 
L 194.457299 125.104378 
L 194.647395 125.382429 
L 194.739588 125.518214 
L 195.055815 125.988698 
L 195.320514 126.38829 
L 195.337194 126.413649 
L 195.604482 126.822997 
L 195.9024 127.285972 
L 196.042141 127.505641 
L 196.214243 127.778427 
L 196.451852 128.159209 
L 196.685552 128.53856 
L 196.725514 128.603917 
L 197.064736 129.164613 
L 197.22735 129.437225 
L 197.310102 129.57693 
L 197.511908 129.92044 
L 197.755721 130.340903 
L 198.018152 130.800347 
L 198.078178 130.906462 
L 198.333748 131.362664 
L 198.575105 131.800208 
L 198.696128 132.022132 
L 198.89994 132.399794 
L 199.132611 132.837122 
L 199.325016 133.203916 
L 199.549376 133.637717 
L 199.643958 133.822613 
L 199.940193 134.409737 
L 200.208404 134.952209 
L 200.339146 135.220548 
L 200.426875 135.402084 
L 200.67132 135.914352 
L 200.804999 136.198623 
L 201.104575 136.846755 
L 201.243181 137.152009 
L 201.431932 137.573414 
L 201.635164 138.034798 
L 201.90415 138.658252 
L 201.999029 138.881789 
L 202.239075 139.456197 
L 202.372806 139.781916 
L 202.529686 140.16946 
L 202.686566 140.563107 
L 202.856201 140.995924 
L 202.981557 141.320745 
L 203.1034 141.64068 
L 203.225244 141.964918 
L 203.449237 142.572737 
L 203.666128 143.176647 
L 203.776199 143.489254 
L 203.88627 143.806186 
L 204.02636 144.216067 
L 204.150611 144.585983 
L 204.335843 145.149202 
L 204.521075 145.727393 
L 204.572299 145.890076 
L 204.685048 146.252624 
L 204.797797 146.621556 
L 204.922056 147.035928 
L 205.046316 147.458907 
L 205.194697 147.97599 
L 205.307218 148.377369 
L 205.419739 148.787259 
L 205.530316 149.198862 
L 205.638414 149.610202 
L 205.746512 150.030976 
L 205.828817 150.358066 
L 205.911122 150.691301 
L 206.030957 151.188181 
L 206.150793 151.699983 
L 206.217424 151.991502 
L 206.284056 152.288308 
L 206.350688 152.590684 
L 206.417319 152.89894 
L 206.475713 153.17419 
L 206.534108 153.454468 
L 206.592502 153.740047 
L 206.650896 154.031226 
L 206.723832 154.403282 
L 206.796767 154.785307 
L 206.858935 155.119411 
L 206.921102 155.461919 
L 206.968028 155.726406 
L 207.014953 155.996357 
L 207.061879 156.272113 
L 207.108804 156.554055 
L 207.159494 156.866053 
L 207.210183 157.186365 
L 207.260873 157.515674 
L 207.311563 157.854764 
L 207.362146 158.203794 
L 207.412729 158.564513 
L 207.463313 158.938152 
L 207.513896 159.326179 
L 207.540251 159.534629 
L 207.566607 159.747748 
L 207.592962 159.965859 
L 207.619318 160.189326 
L 207.645673 160.418556 
L 207.672028 160.654014 
L 207.698384 160.896229 
L 207.724739 161.145812 
L 207.743433 161.327691 
L 207.762127 161.513918 
L 207.780821 161.704817 
L 207.799515 161.900755 
L 207.81821 162.102149 
L 207.836904 162.309478 
L 207.855598 162.523294 
L 207.874292 162.744241 
L 207.891043 162.948902 
L 207.907794 163.16054 
L 207.924545 163.379917 
L 207.941296 163.607944 
L 207.958047 163.845726 
L 207.974798 164.094625 
L 207.991549 164.356356 
L 207.999924 164.492697 
L 208.0083 164.633123 
L 208.016675 164.778021 
L 208.025051 164.927847 
L 208.033426 165.08314 
L 208.041802 165.244543 
L 208.050177 165.412836 
L 208.058553 165.588984 
L 208.066928 165.774197 
L 208.075304 165.970035 
L 208.083679 166.178563 
L 208.092055 166.402618 
L 208.10043 166.646282 
L 208.108806 166.915824 
L 208.117181 167.221792 
L 208.125557 167.584757 
L 208.133932 168.05782 
L 208.142308 169.2 
L 208.142308 169.2 
z
" style="fill:#808080;opacity:0.5;"/>
   </g>
   <g id="patch_5">
    <path clip-path="url(#pfc6948c2a7)" d="M 169.2 169.2 
L 169.2 236.650055 
L 169.368629 236.552416 
L 169.568348 236.436044 
L 169.71629 236.349329 
L 170.080535 236.133957 
L 170.125124 236.107408 
L 170.330756 235.984451 
L 170.517818 235.87185 
L 170.811716 235.693492 
L 170.881207 235.65106 
L 171.064204 235.538842 
L 171.418582 235.319547 
L 171.615815 235.196356 
L 171.703355 235.141416 
L 171.980259 234.966563 
L 172.085139 234.899909 
L 172.315427 234.752729 
L 172.57854 234.583172 
L 172.710851 234.49734 
L 173.008574 234.302807 
L 173.099911 234.242737 
L 173.354763 234.074154 
L 173.541847 233.949481 
L 173.645489 233.880078 
L 173.968064 233.662522 
L 174.075221 233.589731 
L 174.219899 233.491039 
L 174.387841 233.375878 
L 174.671737 233.179731 
L 174.84916 233.0562 
L 175.052813 232.913503 
L 175.306994 232.734036 
L 175.391033 232.674364 
L 175.631986 232.502344 
L 175.882965 232.321691 
L 176.101433 232.163202 
L 176.317001 232.005679 
L 176.346485 231.984047 
L 176.598941 231.797939 
L 176.867874 231.597951 
L 176.975154 231.51767 
L 177.238399 231.319454 
L 177.329626 231.250353 
L 177.647955 231.007575 
L 177.869553 230.837035 
L 177.91246 230.803867 
L 178.12932 230.635499 
L 178.485061 230.356637 
L 178.610127 230.257804 
L 178.858841 230.060017 
L 178.948951 229.987948 
L 179.119996 229.850545 
L 179.427555 229.601473 
L 179.626935 229.438619 
L 179.765983 229.324392 
L 179.970437 229.155453 
L 180.241084 228.930008 
L 180.389743 228.805292 
L 180.526923 228.689644 
L 180.830771 228.431554 
L 180.944085 228.334617 
L 181.179452 228.13206 
L 181.330306 228.001373 
L 181.479048 227.87185 
L 181.673849 227.701215 
L 181.98692 227.424568 
L 182.192618 227.241165 
L 182.355203 227.095274 
L 182.495084 226.969094 
L 182.684591 226.797167 
L 182.977844 226.528867 
L 183.137051 226.382049 
L 183.250664 226.276775 
L 183.530617 226.015568 
L 183.703305 225.853154 
L 183.962056 225.60793 
L 184.067292 225.507551 
L 184.17569 225.403762 
L 184.450873 225.13847 
L 184.694659 224.901257 
L 184.93992 224.660503 
L 185.121855 224.48053 
L 185.279611 224.323514 
L 185.518174 224.084356 
L 185.552158 224.050117 
L 185.877166 223.720523 
L 185.962684 223.633145 
L 186.246682 223.340986 
L 186.376659 223.206249 
L 186.566642 223.008135 
L 186.759686 222.805392 
L 186.913227 222.643088 
L 187.19781 222.339781 
L 187.466259 222.050669 
L 187.605628 221.899407 
L 187.78416 221.704465 
L 188.00628 221.46006 
L 188.093171 221.363884 
L 188.376773 221.047718 
L 188.568847 220.831604 
L 188.844637 220.518449 
L 189.048501 220.284774 
L 189.25308 220.048378 
L 189.370254 219.912113 
L 189.523473 219.732965 
L 189.807298 219.398185 
L 189.923079 219.260513 
L 190.120741 219.023978 
L 190.387706 218.701462 
L 190.541545 218.513998 
L 190.644118 218.388341 
L 190.945454 218.016072 
L 191.033397 217.90654 
L 191.40321 217.441465 
L 191.46267 217.366005 
L 191.664586 217.108316 
L 191.927608 216.769264 
L 192.098679 216.546654 
L 192.289532 216.296328 
L 192.490013 216.031097 
L 192.696162 215.755889 
L 192.900517 215.480556 
L 193.163747 215.122125 
L 193.313411 214.916405 
L 193.416725 214.773566 
L 193.647113 214.452566 
L 193.840445 214.180516 
L 194.060381 213.868 
L 194.275024 213.559831 
L 194.46929 213.278158 
L 194.560479 213.145022 
L 194.820928 212.761472 
L 195.020178 212.464695 
L 195.317107 212.016888 
L 195.407174 211.879719 
L 195.539024 211.677771 
L 195.859366 211.181349 
L 195.953572 211.033775 
L 196.180794 210.674787 
L 196.309032 210.470253 
L 196.622973 209.963499 
L 196.785841 209.697145 
L 196.941713 209.439964 
L 197.270966 208.889223 
L 197.284206 208.86686 
L 197.60056 208.327374 
L 197.713426 208.132471 
L 197.997852 207.635454 
L 198.210855 207.257601 
L 198.393346 206.92991 
L 198.519939 206.700387 
L 198.78922 206.205987 
L 198.974705 205.860407 
L 199.112418 205.6011 
L 199.387614 205.07572 
L 199.569999 204.72207 
L 199.742314 204.383813 
L 200.00278 203.864622 
L 200.085889 203.696902 
L 200.36265 203.130934 
L 200.501865 202.841782 
L 200.659482 202.510678 
L 200.90608 201.984428 
L 201.022667 201.732009 
L 201.258535 201.21396 
L 201.459458 200.764567 
L 201.588662 200.471489 
L 201.728766 200.149941 
L 201.86887 199.824377 
L 201.98714 199.546328 
L 202.238737 198.944621 
L 202.409842 198.527132 
L 202.574926 198.117659 
L 202.74001 197.701349 
L 202.788137 197.578653 
L 203.0042 197.020117 
L 203.169888 196.582933 
L 203.342066 196.120023 
L 203.514244 195.647891 
L 203.723499 195.060947 
L 203.828628 194.760334 
L 203.933758 194.455707 
L 204.104087 193.953249 
L 204.135607 193.859017 
L 204.23544 193.557878 
L 204.335273 193.252554 
L 204.463772 192.853139 
L 204.592272 192.446153 
L 204.696532 192.110094 
L 204.800793 191.76855 
L 204.939211 191.3062 
L 205.077878 190.832223 
L 205.216546 190.346716 
L 205.333616 189.927252 
L 205.417331 189.621606 
L 205.501047 189.310966 
L 205.600179 188.936337 
L 205.699311 188.553951 
L 205.789209 188.200086 
L 205.879107 187.839071 
L 205.969005 187.470481 
L 206.058902 187.093849 
L 206.163896 186.643095 
L 206.26889 186.179729 
L 206.355093 185.78912 
L 206.446755 185.362922 
L 206.538417 184.924643 
L 206.594001 184.652549 
L 206.649585 184.375375 
L 206.70517 184.092835 
L 206.760754 183.804619 
L 206.838329 183.392233 
L 206.915903 182.967062 
L 206.969607 182.664597 
L 207.023312 182.354961 
L 207.077016 182.037633 
L 207.13072 181.71203 
L 207.176892 181.424975 
L 207.223064 181.130837 
L 207.269236 180.829078 
L 207.315408 180.51909 
L 207.364511 180.179609 
L 207.413614 179.829064 
L 207.462718 179.466322 
L 207.511821 179.090041 
L 207.551079 178.778396 
L 207.590337 178.456098 
L 207.629595 178.121993 
L 207.668853 177.7747 
L 207.688402 177.596339 
L 207.707951 177.414059 
L 207.7275 177.227594 
L 207.747048 177.036645 
L 207.766597 176.840875 
L 207.786146 176.639905 
L 207.805695 176.433299 
L 207.825244 176.220563 
L 207.844792 176.001118 
L 207.864341 175.774295 
L 207.88389 175.539302 
L 207.903439 175.295192 
L 207.922988 175.040823 
L 207.942536 174.774792 
L 207.962085 174.495341 
L 207.97186 174.349904 
L 207.981634 174.20022 
L 207.991676 174.041598 
L 208.001718 173.877579 
L 208.01176 173.707574 
L 208.021802 173.530876 
L 208.031845 173.346632 
L 208.041887 173.153786 
L 208.051929 172.951012 
L 208.061971 172.736602 
L 208.072013 172.508295 
L 208.077034 172.388004 
L 208.082055 172.262985 
L 208.087076 172.132632 
L 208.092097 171.9962 
L 208.097118 171.852751 
L 208.102139 171.701078 
L 208.10716 171.539582 
L 208.112181 171.366067 
L 208.117202 171.177371 
L 208.122223 170.968643 
L 208.127245 170.731715 
L 208.132266 170.45066 
L 208.137287 170.084364 
L 208.142308 169.2 
L 208.142308 169.2 
z
" style="fill:#808080;opacity:0.5;"/>
   </g>
   <g id="patch_6">
    <path clip-path="url(#pfc6948c2a7)" d="M 130.257692 169.2 
L 130.257692 169.2 
L 130.262785 168.309356 
L 130.267878 167.94046 
L 130.27297 167.65741 
L 130.278063 167.4188 
L 130.283155 167.20859 
L 130.288248 167.018555 
L 130.293341 166.843809 
L 130.298433 166.681167 
L 130.303526 166.528418 
L 130.308618 166.383951 
L 130.313711 166.246551 
L 130.318804 166.115274 
L 130.323896 165.989368 
L 130.328989 165.868224 
L 130.339174 165.638298 
L 130.349359 165.422368 
L 130.359545 165.218157 
L 130.36973 165.023944 
L 130.379915 164.838395 
L 130.3901 164.660446 
L 130.400285 164.489236 
L 130.410471 164.324056 
L 130.420656 164.164311 
L 130.438912 163.89005 
L 130.457167 163.629335 
L 130.475423 163.380346 
L 130.493679 163.141635 
L 130.511935 162.912034 
L 130.530191 162.690577 
L 130.548446 162.476459 
L 130.566702 162.269002 
L 130.584958 162.067622 
L 130.603214 161.87182 
L 130.621469 161.68116 
L 130.639725 161.495259 
L 130.657981 161.313782 
L 130.676237 161.136429 
L 130.712748 160.793059 
L 130.747222 160.481397 
L 130.781696 160.18063 
L 130.816169 159.889702 
L 130.850643 159.607716 
L 130.881463 159.362562 
L 130.912283 159.123464 
L 130.943103 158.890002 
L 130.973922 158.661801 
L 131.012959 158.379794 
L 131.051995 158.10509 
L 131.091031 157.83716 
L 131.130068 157.575534 
L 131.169104 157.319797 
L 131.20814 157.069575 
L 131.247177 156.824535 
L 131.286213 156.584375 
L 131.329977 156.320594 
L 131.37374 156.062254 
L 131.417504 155.80904 
L 131.461268 155.560667 
L 131.526144 155.20083 
L 131.59102 154.850308 
L 131.655896 154.508432 
L 131.720772 154.174613 
L 131.772915 153.911797 
L 131.825057 153.653599 
L 131.888727 153.344252 
L 131.952397 153.041077 
L 132.016067 152.743732 
L 132.079737 152.451908 
L 132.124109 152.251643 
L 132.183327 151.988186 
L 132.242544 151.728903 
L 132.360979 151.222136 
L 132.443646 150.877175 
L 132.526312 150.538956 
L 132.608979 150.207118 
L 132.691645 149.881333 
L 132.78753 149.510642 
L 132.883415 149.147261 
L 132.965358 148.84221 
L 133.056447 148.508774 
L 133.147536 148.181021 
L 133.291092 147.675391 
L 133.434648 147.182305 
L 133.538185 146.833996 
L 133.641722 146.491499 
L 133.811435 145.941998 
L 133.961149 145.468819 
L 134.102077 145.032716 
L 134.271156 144.520732 
L 134.440235 144.02029 
L 134.469545 143.93466 
L 134.605418 143.54188 
L 134.74129 143.155732 
L 134.873846 142.785121 
L 135.069472 142.248673 
L 135.283304 141.675848 
L 135.506148 141.093033 
L 135.728408 140.525265 
L 135.944012 139.986657 
L 136.113463 139.571317 
L 136.37031 138.954445 
L 136.464823 138.73114 
L 136.627564 138.351098 
L 136.790305 137.97653 
L 136.820449 137.907737 
L 137.058641 137.370365 
L 137.226993 136.997026 
L 137.395345 136.628837 
L 137.461943 136.484571 
L 137.61342 136.159278 
L 137.907694 135.538265 
L 138.006023 135.333867 
L 138.297328 134.737091 
L 138.427881 134.473756 
L 138.658948 134.013695 
L 138.867629 133.604604 
L 139.086321 133.18217 
L 139.307986 132.760332 
L 139.40336 132.580738 
L 139.678942 132.068061 
L 139.902077 131.659565 
L 140.079604 131.338652 
L 140.159142 131.196021 
L 140.403708 130.761798 
L 140.718867 130.211631 
L 140.79448 130.081162 
L 141.064341 129.620212 
L 141.14549 129.483004 
L 141.454222 128.966773 
L 141.686085 128.584932 
L 141.804557 128.391715 
L 141.959318 128.141199 
L 142.18173 127.784839 
L 142.439794 127.376645 
L 142.606275 127.116253 
L 142.852745 126.734881 
L 142.904816 126.65493 
L 143.131864 126.308795 
L 143.457013 125.819981 
L 143.505042 125.74845 
L 143.671625 125.501666 
L 143.934674 125.116067 
L 144.068169 124.922262 
L 144.399792 124.446173 
L 144.542983 124.242918 
L 144.695228 124.028311 
L 144.848344 123.814016 
L 145.052687 123.530392 
L 145.340594 123.135284 
L 145.500681 122.917823 
L 145.687178 122.666463 
L 145.962272 122.299505 
L 146.080618 122.143013 
L 146.314745 121.835818 
L 146.475356 121.626895 
L 146.725204 121.304774 
L 146.878186 121.109245 
L 147.132745 120.78671 
L 147.25032 120.638913 
L 147.498026 120.329923 
L 147.675506 120.110498 
L 147.910344 119.822638 
L 148.001744 119.711356 
L 148.33626 119.307617 
L 148.386636 119.247292 
L 148.718911 118.852476 
L 148.817018 118.736911 
L 149.054365 118.459204 
L 149.273078 118.205616 
L 149.370648 118.093197 
L 149.640369 117.784666 
L 149.884963 117.507688 
L 150.000335 117.377956 
L 150.271062 117.0758 
L 150.502883 116.819564 
L 150.585071 116.729267 
L 150.80769 116.486103 
L 151.031976 116.243194 
L 151.189464 116.073859 
L 151.475184 115.7692 
L 151.523564 115.717936 
L 151.848273 115.376261 
L 152.051473 115.164534 
L 152.100752 115.113427 
L 152.3839 114.821573 
L 152.606723 114.594029 
L 152.828357 114.369533 
L 152.900608 114.29674 
L 153.145763 114.05117 
L 153.401324 113.797491 
L 153.608483 113.593568 
L 153.829305 113.377863 
L 153.914618 113.294982 
L 154.141919 113.075395 
L 154.37282 112.854144 
L 154.564398 112.671945 
L 154.7027 112.541183 
L 154.988032 112.273413 
L 155.101652 112.167534 
L 155.269592 112.011809 
L 155.535043 111.767527 
L 155.737069 111.583125 
L 155.918312 111.418796 
L 156.169946 111.192354 
L 156.240026 111.129642 
L 156.530272 110.871524 
L 156.70185 110.720152 
L 156.815573 110.620314 
L 157.051567 110.414377 
L 157.349511 110.156752 
L 157.454669 110.066451 
L 157.700225 109.856849 
L 157.934471 109.658532 
L 158.089805 109.527893 
L 158.14389 109.482569 
L 158.343461 109.316044 
L 158.626704 109.081631 
L 158.844973 108.90252 
L 159.012818 108.765684 
L 159.153744 108.651392 
L 159.390669 108.460466 
L 159.572735 108.314781 
L 159.780953 108.149261 
L 160.028302 107.954137 
L 160.126633 107.877017 
L 160.464543 107.61393 
L 160.575274 107.528365 
L 160.710679 107.424164 
L 161.008905 107.196325 
L 161.106348 107.122372 
L 161.333422 106.950972 
L 161.639059 106.722314 
L 161.798103 106.604249 
L 161.954969 106.488414 
L 162.167315 106.332573 
L 162.279655 106.250572 
L 162.618594 106.005025 
L 162.781599 105.88792 
L 162.944297 105.771669 
L 163.070665 105.681811 
L 163.333662 105.496008 
L 163.542179 105.349849 
L 163.758213 105.199489 
L 164.008888 105.026372 
L 164.07962 104.977785 
L 164.36077 104.785791 
L 164.515388 104.68097 
L 164.616921 104.612431 
L 164.933955 104.39991 
L 165.10141 104.288564 
L 165.308805 104.151523 
L 165.384348 104.101842 
L 165.582401 103.972187 
L 165.844267 103.802071 
L 166.065618 103.659436 
L 166.176378 103.588461 
L 166.471342 103.40073 
L 166.602897 103.3176 
L 166.884752 103.140728 
L 166.980529 103.081006 
L 167.20861 102.939562 
L 167.487605 102.768016 
L 167.551866 102.728733 
L 167.927407 102.500861 
L 167.932817 102.4976 
L 168.186075 102.345585 
L 168.444456 102.191837 
L 168.565499 102.120275 
L 168.9003 101.923866 
L 169.089124 101.814081 
L 169.2 101.749945 
L 169.2 169.2 
z
" style="fill:#808080;opacity:0.5;"/>
   </g>
   <g id="patch_7">
    <path clip-path="url(#pfc6948c2a7)" d="M 130.257692 169.2 
L 130.257692 169.2 
L 130.261154 169.934263 
L 130.264615 170.238393 
L 130.268076 170.471752 
L 130.271537 170.668476 
L 130.274998 170.841788 
L 130.27846 170.998469 
L 130.281921 171.142547 
L 130.285382 171.276647 
L 130.288843 171.402592 
L 130.292305 171.52171 
L 130.295766 171.635003 
L 130.299227 171.74325 
L 130.302688 171.847069 
L 130.30615 171.946962 
L 130.313072 172.136561 
L 130.319995 172.314624 
L 130.326917 172.483029 
L 130.333839 172.643194 
L 130.340762 172.796218 
L 130.347684 172.94298 
L 130.354607 173.084187 
L 130.361529 173.220426 
L 130.368452 173.352186 
L 130.375696 173.485721 
L 130.38294 173.615207 
L 130.397428 173.863371 
L 130.411916 174.098938 
L 130.426405 174.323645 
L 130.440893 174.538863 
L 130.455381 174.745697 
L 130.469869 174.945054 
L 130.484358 175.137685 
L 130.498846 175.324226 
L 130.513334 175.505218 
L 130.527822 175.681124 
L 130.542311 175.85235 
L 130.556799 176.019246 
L 130.571287 176.182125 
L 130.600263 176.496896 
L 130.623039 176.735007 
L 130.645815 176.965753 
L 130.668591 177.189774 
L 130.691366 177.407619 
L 130.714142 177.619768 
L 130.736918 177.826641 
L 130.759694 178.02861 
L 130.782469 178.226002 
L 130.819913 178.541336 
L 130.857356 178.846222 
L 130.8948 179.141621 
L 130.932243 179.428355 
L 130.969687 179.707134 
L 131.00713 179.978576 
L 131.044574 180.24322 
L 131.082017 180.501545 
L 131.119315 180.753005 
L 131.156613 180.99899 
L 131.213081 181.361718 
L 131.269549 181.713682 
L 131.326016 182.055765 
L 131.382484 182.388737 
L 131.437995 182.707839 
L 131.493506 183.019353 
L 131.549017 183.323779 
L 131.604528 183.621567 
L 131.678658 184.00958 
L 131.752789 184.387322 
L 131.826919 184.75554 
L 131.90105 185.114896 
L 131.962807 185.407931 
L 132.04181 185.774906 
L 132.120812 186.133561 
L 132.199814 186.484415 
L 132.278816 186.827932 
L 132.321537 187.010785 
L 132.438096 187.49988 
L 132.554655 187.975516 
L 132.621813 188.24385 
L 132.688972 188.508222 
L 132.823289 189.02571 
L 132.960794 189.540926 
L 133.041877 189.838281 
L 133.12296 190.131097 
L 133.204044 190.419564 
L 133.285127 190.703855 
L 133.369624 190.99585 
L 133.454121 191.28366 
L 133.522267 191.512842 
L 133.635786 191.889018 
L 133.749305 192.2585 
L 133.861157 192.616318 
L 133.973009 192.968223 
L 134.091457 193.334722 
L 134.209905 193.695166 
L 134.368053 194.167433 
L 134.54784 194.692501 
L 134.747074 195.260563 
L 134.895167 195.673944 
L 135.04326 196.080152 
L 135.20804 196.52409 
L 135.43847 197.13144 
L 135.56047 197.446949 
L 135.652032 197.681103 
L 135.800072 198.055055 
L 135.948112 198.423473 
L 136.045477 198.662863 
L 136.24025 199.135052 
L 136.409907 199.539348 
L 136.579565 199.93739 
L 136.625029 200.043024 
L 136.772393 200.382505 
L 136.919758 200.717641 
L 137.188296 201.317621 
L 137.32464 201.617144 
L 137.542086 202.088023 
L 137.650224 202.319171 
L 137.863392 202.769143 
L 138.100585 203.261274 
L 138.20945 203.484234 
L 138.451944 203.97451 
L 138.667121 204.402439 
L 138.86569 204.791622 
L 139.012949 205.076804 
L 139.202885 205.440438 
L 139.40316 205.818887 
L 139.673123 206.321208 
L 139.835794 206.619695 
L 140.006489 206.929611 
L 140.189797 207.258765 
L 140.337197 207.520755 
L 140.672999 208.108941 
L 140.892015 208.486276 
L 140.984747 208.644586 
L 141.24092 209.077532 
L 141.480772 209.477201 
L 141.538997 209.573411 
L 141.876208 210.124533 
L 141.966234 210.269948 
L 142.214537 210.667366 
L 142.294757 210.794631 
L 142.523308 211.154264 
L 142.822726 211.618929 
L 143.00101 211.892208 
L 143.158587 212.131683 
L 143.431776 212.542363 
L 143.497329 212.640073 
L 143.811044 213.103324 
L 143.920415 213.263156 
L 144.125736 213.560927 
L 144.266526 213.763413 
L 144.634321 214.286018 
L 144.806754 214.527927 
L 144.871184 214.617819 
L 145.143699 214.995071 
L 145.258512 215.152602 
L 145.45647 215.422279 
L 145.7058 215.758521 
L 145.836339 215.933068 
L 146.171464 216.376561 
L 146.234094 216.458718 
L 146.438393 216.725154 
L 146.758264 217.137589 
L 146.824092 217.221763 
L 147.160239 217.647917 
L 147.218808 217.721547 
L 147.406762 217.956608 
L 147.625018 218.227247 
L 147.950298 218.626059 
L 147.977643 218.659341 
L 148.3359 219.091952 
L 148.374487 219.138171 
L 148.635202 219.448559 
L 148.9056 219.767042 
L 149.072547 219.961962 
L 149.20538 220.116125 
L 149.430131 220.375128 
L 149.587607 220.555237 
L 149.919998 220.931769 
L 150.032482 221.05809 
L 150.278904 221.332906 
L 150.365772 221.429161 
L 150.645403 221.736837 
L 150.863511 221.974547 
L 150.999469 222.121728 
L 151.251136 222.392178 
L 151.323191 222.46914 
L 151.607404 222.770682 
L 151.834858 223.009706 
L 151.999855 223.181833 
L 152.131484 223.318398 
L 152.456181 223.652444 
L 152.619864 223.819333 
L 152.715457 223.916337 
L 152.977874 224.180893 
L 153.215466 224.418252 
L 153.348402 224.550169 
L 153.547273 224.746337 
L 153.764131 224.958651 
L 153.924305 225.114412 
L 154.197547 225.378075 
L 154.28599 225.462869 
L 154.611546 225.772705 
L 154.678811 225.836277 
L 154.908296 226.05203 
L 155.049155 226.183598 
L 155.284537 226.402005 
L 155.492659 226.593622 
L 155.635304 226.72415 
L 155.831678 226.902785 
L 156.160282 227.198985 
L 156.317257 227.339293 
L 156.442974 227.451113 
L 156.734391 227.708456 
L 156.804698 227.770156 
L 156.986056 227.928624 
L 157.325323 228.222431 
L 157.493705 228.366987 
L 157.625538 228.479586 
L 157.91083 228.721525 
L 158.077386 228.861687 
L 158.286158 229.036257 
L 158.436307 229.161044 
L 158.647202 229.335246 
L 158.836868 229.490853 
L 159.057082 229.670274 
L 159.218264 229.800753 
L 159.485595 230.015604 
L 159.611514 230.116134 
L 159.792766 230.260094 
L 160.099291 230.501565 
L 160.179851 230.564616 
L 160.3536 230.700022 
L 160.526043 230.833632 
L 160.701477 230.968769 
L 161.021195 231.213015 
L 161.117025 231.285716 
L 161.356605 231.466454 
L 161.500278 231.574148 
L 161.705068 231.726763 
L 162.011454 231.953149 
L 162.091147 232.011654 
L 162.264869 232.138652 
L 162.55333 232.347909 
L 162.76311 232.498829 
L 162.929994 232.618136 
L 163.165409 232.785312 
L 163.303254 232.882593 
L 163.557572 233.060901 
L 163.688841 233.152346 
L 163.929105 233.318687 
L 164.038384 233.393903 
L 164.213045 233.513554 
L 164.580503 233.763012 
L 164.736174 233.867773 
L 164.811546 233.9183 
L 165.158507 234.149258 
L 165.190386 234.170345 
L 165.411631 234.31607 
L 165.590113 234.432845 
L 165.919424 234.646477 
L 165.9965 234.696139 
L 166.310697 234.897257 
L 166.492213 235.012483 
L 166.663677 235.120683 
L 166.916432 235.279047 
L 166.995738 235.328459 
L 167.288672 235.509832 
L 167.496982 235.637722 
L 167.654808 235.734019 
L 167.836997 235.844544 
L 167.98048 235.931109 
L 168.17696 236.048966 
L 168.43222 236.200912 
L 168.629395 236.317383 
L 168.861255 236.453344 
L 169.096051 236.589933 
L 169.2 236.650055 
L 169.2 169.2 
z
" style="fill:#808080;opacity:0.5;"/>
   </g>
   <g id="matplotlib.axis_1"/>
   <g id="matplotlib.axis_2"/>
   <g id="line2d_1">
    <path clip-path="url(#pfc6948c2a7)" d="M 169.2 101.749945 
L 172.715794 103.905874 
L 176.1839 106.296926 
L 179.52757 108.880082 
L 182.657208 111.57792 
L 185.684387 114.483505 
L 188.562416 117.561134 
L 191.302087 120.830638 
L 193.807218 124.172552 
L 196.214243 127.778427 
L 198.333748 131.362664 
L 200.339146 135.220548 
L 201.999029 138.881789 
L 203.449237 142.572737 
L 204.797797 146.621556 
L 205.911122 150.691301 
L 206.796767 154.785307 
L 207.463313 158.938152 
L 207.907794 163.16054 
L 208.117181 167.221792 
L 208.142308 169.2 
L 208.142308 169.2 
" style="fill:none;stroke:#0000ff;stroke-linecap:square;"/>
   </g>
   <g id="line2d_2">
    <path clip-path="url(#pfc6948c2a7)" d="M 169.2 236.650055 
L 172.710851 234.49734 
L 176.101433 232.163202 
L 179.427555 229.601473 
L 182.495084 226.969094 
L 185.552158 224.050117 
L 188.376773 221.047718 
L 191.033397 217.90654 
L 193.647113 214.452566 
L 195.953572 211.033775 
L 197.997852 207.635454 
L 200.00278 203.864622 
L 201.728766 200.149941 
L 203.342066 196.120023 
L 204.696532 192.110094 
L 205.789209 188.200086 
L 206.70517 184.092835 
L 207.364511 180.179609 
L 207.844792 176.001118 
L 208.097118 171.852751 
L 208.142308 169.2 
L 208.142308 169.2 
" style="fill:none;stroke:#0000ff;stroke-linecap:square;"/>
   </g>
   <g id="line2d_3">
    <path clip-path="url(#pfc6948c2a7)" d="M 130.257692 169.2 
L 130.3901 164.660446 
L 130.747222 160.481397 
L 131.329977 156.320594 
L 132.124109 152.251643 
L 133.147536 148.181021 
L 134.440235 144.02029 
L 135.728408 140.525265 
L 137.461943 136.484571 
L 139.307986 132.760332 
L 141.14549 129.483004 
L 143.505042 125.74845 
L 145.962272 122.299505 
L 148.386636 119.247292 
L 151.189464 116.073859 
L 154.141919 113.075395 
L 157.051567 110.414377 
L 160.126633 107.877017 
L 163.542179 105.349849 
L 166.980529 103.081006 
L 169.2 101.749945 
L 169.2 101.749945 
" style="fill:none;stroke:#0000ff;stroke-linecap:square;"/>
   </g>
   <g id="line2d_4">
    <path clip-path="url(#pfc6948c2a7)" d="M 130.257692 169.2 
L 130.38294 173.615207 
L 130.736918 177.826641 
L 131.269549 181.713682 
L 132.04181 185.774906 
L 133.041877 189.838281 
L 134.209905 193.695166 
L 135.652032 197.681103 
L 137.32464 201.617144 
L 139.202885 205.440438 
L 141.24092 209.077532 
L 143.497329 212.640073 
L 145.836339 215.933068 
L 148.374487 219.138171 
L 151.251136 222.392178 
L 154.197547 225.378075 
L 156.986056 227.928624 
L 160.3536 230.700022 
L 163.688841 233.152346 
L 167.288672 235.509832 
L 169.2 236.650055 
L 169.2 236.650055 
" style="fill:none;stroke:#0000ff;stroke-linecap:square;"/>
   </g>
   <g id="text_1">
    <!-- $\Omega$ -->
    <g transform="translate(17.569231 23.978606)scale(0.1 -0.1)">
     <defs>
      <path d="M 7.71875 0 
L 4.390625 16.609375 
L 7.328125 16.609375 
Q 7.859375 13.71875 8.296875 11.5 
Q 8.734375 9.28125 9.4375 8.375 
Q 10.15625 7.46875 11.71875 7.171875 
Q 13.28125 6.890625 16.890625 6.890625 
L 23 6.890625 
Q 21.53125 12.546875 15.6875 21.65625 
Q 9.859375 30.765625 7.734375 34.890625 
Q 5.609375 39.015625 5.609375 45.515625 
Q 5.609375 53.078125 10.09375 58.765625 
Q 14.59375 64.453125 21.703125 67.484375 
Q 28.8125 70.515625 36.078125 70.515625 
Q 43.3125 70.515625 50.40625 67.484375 
Q 57.515625 64.453125 62 58.71875 
Q 66.5 52.984375 66.5 45.515625 
Q 66.5 40.4375 64.640625 35.9375 
Q 62.796875 31.453125 59.90625 26.953125 
Q 57.03125 22.46875 53.6875 16.9375 
Q 50.34375 11.421875 49.125 6.890625 
L 55.171875 6.890625 
Q 58.84375 6.890625 60.453125 7.171875 
Q 62.0625 7.46875 62.734375 8.375 
Q 63.421875 9.28125 63.84375 11.5 
Q 64.265625 13.71875 64.796875 16.609375 
L 67.671875 16.609375 
L 64.40625 0 
L 46.6875 0 
Q 45.703125 0 45.703125 1.3125 
Q 45.703125 6.390625 46.9375 11.265625 
Q 48.1875 16.15625 50.625 23.09375 
Q 53.078125 30.03125 54.4375 35.328125 
Q 55.8125 40.625 55.8125 45.515625 
Q 55.8125 51.515625 53.46875 56.640625 
Q 51.125 61.765625 46.625 64.84375 
Q 42.140625 67.921875 36.078125 67.921875 
Q 26.953125 67.921875 21.625 61.40625 
Q 16.3125 54.890625 16.3125 45.515625 
Q 16.359375 40.375 17.53125 35.828125 
Q 18.703125 31.296875 21.3125 23.71875 
Q 23.921875 16.15625 25.171875 11.265625 
Q 26.421875 6.390625 26.421875 1.3125 
Q 26.421875 0 25.390625 0 
z
" id="Cmr10-173"/>
     </defs>
     <use transform="translate(0 0.484375)" xlink:href="#Cmr10-173"/>
    </g>
   </g>
   <g id="text_2">
    <!-- $A$ -->
    <g style="fill:#0000ff;" transform="translate(87.565385 94.07476)scale(0.1 -0.1)">
     <defs>
      <path d="M 4.5 0 
Q 3.515625 0 3.515625 1.3125 
Q 3.90625 3.515625 4.78125 3.515625 
Q 8.84375 3.515625 11.796875 5.125 
Q 14.75 6.734375 16.890625 10.109375 
Q 17.09375 10.296875 17.09375 10.296875 
L 52.78125 70.515625 
Q 53.5625 71.578125 54.6875 71.578125 
L 56 71.578125 
Q 56.296875 71.578125 56.59375 71.453125 
Q 56.890625 71.34375 57.109375 71.0625 
Q 57.328125 70.796875 57.328125 70.515625 
L 63.375 5.90625 
Q 63.375 5.46875 63.8125 4.59375 
Q 64.796875 3.515625 71.296875 3.515625 
Q 72.3125 3.515625 72.3125 2.203125 
Q 71.96875 0.875 71.75 0.4375 
Q 71.53125 0 70.609375 0 
L 45.609375 0 
Q 44.671875 0 44.671875 1.3125 
Q 45.21875 3.515625 46 3.515625 
Q 53.90625 3.515625 54.390625 6.203125 
L 52.875 22.703125 
L 28.21875 22.703125 
L 20.21875 9.28125 
Q 19.484375 8.203125 19.484375 6.78125 
Q 19.484375 5.03125 21.171875 4.265625 
Q 22.859375 3.515625 24.90625 3.515625 
Q 25.875 3.515625 25.875 2.203125 
Q 25.53125 0.78125 25.328125 0.390625 
Q 25.140625 0 24.21875 0 
z
M 30.171875 26.21875 
L 52.484375 26.21875 
L 49.515625 58.59375 
z
" id="Cmmi10-65"/>
     </defs>
     <use transform="translate(0 0.421875)" xlink:href="#Cmmi10-65"/>
    </g>
   </g>
   <g id="text_3">
    <!-- $B$ -->
    <g style="fill:#ff0000;" transform="translate(243.284615 94.07476)scale(0.1 -0.1)">
     <defs>
      <path d="M 4.984375 0 
Q 4 0 4 1.3125 
Q 4.046875 1.5625 4.1875 2.140625 
Q 4.34375 2.734375 4.578125 3.125 
Q 4.828125 3.515625 5.328125 3.515625 
Q 8.15625 3.515625 10.25 3.65625 
Q 12.359375 3.8125 13.8125 4.203125 
Q 14.984375 4.640625 15.71875 6.890625 
L 29.390625 61.8125 
Q 29.59375 62.796875 29.59375 63.1875 
Q 29.59375 64.265625 28.421875 64.40625 
Q 26.515625 64.796875 21.1875 64.796875 
Q 20.21875 64.796875 20.21875 66.109375 
Q 20.265625 66.359375 20.40625 66.96875 
Q 20.5625 67.578125 20.828125 67.9375 
Q 21.09375 68.3125 21.484375 68.3125 
L 57.328125 68.3125 
Q 60.59375 68.3125 63.796875 67.5 
Q 67 66.703125 69.703125 64.9375 
Q 72.40625 63.1875 74 60.5625 
Q 75.59375 57.953125 75.59375 54.5 
Q 75.59375 50.734375 73.65625 47.5 
Q 71.734375 44.28125 68.671875 41.890625 
Q 65.625 39.5 62.078125 37.953125 
Q 58.546875 36.421875 54.6875 35.6875 
Q 57.421875 35.6875 60.21875 34.609375 
Q 63.03125 33.546875 65.234375 31.6875 
Q 67.4375 29.828125 68.78125 27.234375 
Q 70.125 24.65625 70.125 21.6875 
Q 70.125 15.671875 65.921875 10.6875 
Q 61.71875 5.71875 55.34375 2.859375 
Q 48.96875 0 43.015625 0 
z
M 23.390625 4.296875 
Q 23.390625 3.515625 26.8125 3.515625 
L 41.109375 3.515625 
Q 46 3.515625 50.484375 6.21875 
Q 54.984375 8.9375 57.6875 13.421875 
Q 60.40625 17.921875 60.40625 22.796875 
Q 60.40625 25.78125 59.15625 28.4375 
Q 57.90625 31.109375 55.5625 32.640625 
Q 53.21875 34.1875 50.203125 34.1875 
L 30.71875 34.1875 
L 23.78125 6.5 
Q 23.390625 5.125 23.390625 4.296875 
z
M 31.390625 36.8125 
L 46.578125 36.8125 
Q 51.375 36.8125 55.890625 39.25 
Q 60.40625 41.703125 63.25 45.890625 
Q 66.109375 50.09375 66.109375 54.78125 
Q 66.109375 59.125 63.390625 61.953125 
Q 60.6875 64.796875 56.390625 64.796875 
L 42.671875 64.796875 
Q 39.984375 64.796875 39.0625 64.296875 
Q 38.140625 63.8125 37.5 61.375 
z
" id="Cmmi10-66"/>
     </defs>
     <use transform="translate(0 0.6875)" xlink:href="#Cmmi10-66"/>
    </g>
   </g>
   <g id="text_4">
    <!-- $A\cap B$, coloré en gris -->
    <g transform="translate(119.35 55.323077)scale(0.1 -0.1)">
     <defs>
      <path d="M 5.609375 -0.390625 
L 5.609375 38.625 
Q 5.609375 45.265625 9.765625 50.09375 
Q 13.921875 54.9375 20.40625 57.375 
Q 26.90625 59.8125 33.296875 59.8125 
Q 38.03125 59.8125 42.890625 58.515625 
Q 47.75 57.234375 51.875 54.515625 
Q 56 51.8125 58.484375 47.75 
Q 60.984375 43.703125 60.984375 38.625 
L 60.984375 -0.390625 
Q 60.984375 -1.171875 60.390625 -1.6875 
Q 59.8125 -2.203125 58.984375 -2.203125 
Q 58.25 -2.203125 57.609375 -1.6875 
Q 56.984375 -1.171875 56.984375 -0.390625 
L 56.984375 38.28125 
Q 56.984375 42.671875 54.8125 46.015625 
Q 52.640625 49.359375 49.234375 51.453125 
Q 45.84375 53.5625 41.59375 54.6875 
Q 37.359375 55.8125 33.296875 55.8125 
Q 27.734375 55.8125 22.28125 53.859375 
Q 16.84375 51.90625 13.234375 47.953125 
Q 9.625 44 9.625 38.28125 
L 9.625 -0.390625 
Q 9.625 -1.171875 8.984375 -1.6875 
Q 8.34375 -2.203125 7.625 -2.203125 
Q 6.78125 -2.203125 6.1875 -1.6875 
Q 5.609375 -1.171875 5.609375 -0.390625 
z
" id="Cmsy10-92"/>
      <path d="M 11.71875 12.40625 
L 22.015625 12.40625 
L 22.015625 4 
L 14.015625 -11.625 
L 7.71875 -11.625 
L 11.71875 4 
z
" id="DejaVuSans-44"/>
      <path id="DejaVuSans-32"/>
      <path d="M 48.78125 52.59375 
L 48.78125 44.1875 
Q 44.96875 46.296875 41.140625 47.34375 
Q 37.3125 48.390625 33.40625 48.390625 
Q 24.65625 48.390625 19.8125 42.84375 
Q 14.984375 37.3125 14.984375 27.296875 
Q 14.984375 17.28125 19.8125 11.734375 
Q 24.65625 6.203125 33.40625 6.203125 
Q 37.3125 6.203125 41.140625 7.25 
Q 44.96875 8.296875 48.78125 10.40625 
L 48.78125 2.09375 
Q 45.015625 0.34375 40.984375 -0.53125 
Q 36.96875 -1.421875 32.421875 -1.421875 
Q 20.0625 -1.421875 12.78125 6.34375 
Q 5.515625 14.109375 5.515625 27.296875 
Q 5.515625 40.671875 12.859375 48.328125 
Q 20.21875 56 33.015625 56 
Q 37.15625 56 41.109375 55.140625 
Q 45.0625 54.296875 48.78125 52.59375 
z
" id="DejaVuSans-99"/>
      <path d="M 30.609375 48.390625 
Q 23.390625 48.390625 19.1875 42.75 
Q 14.984375 37.109375 14.984375 27.296875 
Q 14.984375 17.484375 19.15625 11.84375 
Q 23.34375 6.203125 30.609375 6.203125 
Q 37.796875 6.203125 41.984375 11.859375 
Q 46.1875 17.53125 46.1875 27.296875 
Q 46.1875 37.015625 41.984375 42.703125 
Q 37.796875 48.390625 30.609375 48.390625 
z
M 30.609375 56 
Q 42.328125 56 49.015625 48.375 
Q 55.71875 40.765625 55.71875 27.296875 
Q 55.71875 13.875 49.015625 6.21875 
Q 42.328125 -1.421875 30.609375 -1.421875 
Q 18.84375 -1.421875 12.171875 6.21875 
Q 5.515625 13.875 5.515625 27.296875 
Q 5.515625 40.765625 12.171875 48.375 
Q 18.84375 56 30.609375 56 
z
" id="DejaVuSans-111"/>
      <path d="M 9.421875 75.984375 
L 18.40625 75.984375 
L 18.40625 0 
L 9.421875 0 
z
" id="DejaVuSans-108"/>
      <path d="M 41.109375 46.296875 
Q 39.59375 47.171875 37.8125 47.578125 
Q 36.03125 48 33.890625 48 
Q 26.265625 48 22.1875 43.046875 
Q 18.109375 38.09375 18.109375 28.8125 
L 18.109375 0 
L 9.078125 0 
L 9.078125 54.6875 
L 18.109375 54.6875 
L 18.109375 46.1875 
Q 20.953125 51.171875 25.484375 53.578125 
Q 30.03125 56 36.53125 56 
Q 37.453125 56 38.578125 55.875 
Q 39.703125 55.765625 41.0625 55.515625 
z
" id="DejaVuSans-114"/>
      <path d="M 56.203125 29.59375 
L 56.203125 25.203125 
L 14.890625 25.203125 
Q 15.484375 15.921875 20.484375 11.0625 
Q 25.484375 6.203125 34.421875 6.203125 
Q 39.59375 6.203125 44.453125 7.46875 
Q 49.3125 8.734375 54.109375 11.28125 
L 54.109375 2.78125 
Q 49.265625 0.734375 44.1875 -0.34375 
Q 39.109375 -1.421875 33.890625 -1.421875 
Q 20.796875 -1.421875 13.15625 6.1875 
Q 5.515625 13.8125 5.515625 26.8125 
Q 5.515625 40.234375 12.765625 48.109375 
Q 20.015625 56 32.328125 56 
Q 43.359375 56 49.78125 48.890625 
Q 56.203125 41.796875 56.203125 29.59375 
z
M 47.21875 32.234375 
Q 47.125 39.59375 43.09375 43.984375 
Q 39.0625 48.390625 32.421875 48.390625 
Q 24.90625 48.390625 20.390625 44.140625 
Q 15.875 39.890625 15.1875 32.171875 
z
M 38.578125 79.984375 
L 48.296875 79.984375 
L 32.375 61.625 
L 24.90625 61.625 
z
" id="DejaVuSans-233"/>
      <path d="M 56.203125 29.59375 
L 56.203125 25.203125 
L 14.890625 25.203125 
Q 15.484375 15.921875 20.484375 11.0625 
Q 25.484375 6.203125 34.421875 6.203125 
Q 39.59375 6.203125 44.453125 7.46875 
Q 49.3125 8.734375 54.109375 11.28125 
L 54.109375 2.78125 
Q 49.265625 0.734375 44.1875 -0.34375 
Q 39.109375 -1.421875 33.890625 -1.421875 
Q 20.796875 -1.421875 13.15625 6.1875 
Q 5.515625 13.8125 5.515625 26.8125 
Q 5.515625 40.234375 12.765625 48.109375 
Q 20.015625 56 32.328125 56 
Q 43.359375 56 49.78125 48.890625 
Q 56.203125 41.796875 56.203125 29.59375 
z
M 47.21875 32.234375 
Q 47.125 39.59375 43.09375 43.984375 
Q 39.0625 48.390625 32.421875 48.390625 
Q 24.90625 48.390625 20.390625 44.140625 
Q 15.875 39.890625 15.1875 32.171875 
z
" id="DejaVuSans-101"/>
      <path d="M 54.890625 33.015625 
L 54.890625 0 
L 45.90625 0 
L 45.90625 32.71875 
Q 45.90625 40.484375 42.875 44.328125 
Q 39.84375 48.1875 33.796875 48.1875 
Q 26.515625 48.1875 22.3125 43.546875 
Q 18.109375 38.921875 18.109375 30.90625 
L 18.109375 0 
L 9.078125 0 
L 9.078125 54.6875 
L 18.109375 54.6875 
L 18.109375 46.1875 
Q 21.34375 51.125 25.703125 53.5625 
Q 30.078125 56 35.796875 56 
Q 45.21875 56 50.046875 50.171875 
Q 54.890625 44.34375 54.890625 33.015625 
z
" id="DejaVuSans-110"/>
      <path d="M 45.40625 27.984375 
Q 45.40625 37.75 41.375 43.109375 
Q 37.359375 48.484375 30.078125 48.484375 
Q 22.859375 48.484375 18.828125 43.109375 
Q 14.796875 37.75 14.796875 27.984375 
Q 14.796875 18.265625 18.828125 12.890625 
Q 22.859375 7.515625 30.078125 7.515625 
Q 37.359375 7.515625 41.375 12.890625 
Q 45.40625 18.265625 45.40625 27.984375 
z
M 54.390625 6.78125 
Q 54.390625 -7.171875 48.1875 -13.984375 
Q 42 -20.796875 29.203125 -20.796875 
Q 24.46875 -20.796875 20.265625 -20.09375 
Q 16.0625 -19.390625 12.109375 -17.921875 
L 12.109375 -9.1875 
Q 16.0625 -11.328125 19.921875 -12.34375 
Q 23.78125 -13.375 27.78125 -13.375 
Q 36.625 -13.375 41.015625 -8.765625 
Q 45.40625 -4.15625 45.40625 5.171875 
L 45.40625 9.625 
Q 42.625 4.78125 38.28125 2.390625 
Q 33.9375 0 27.875 0 
Q 17.828125 0 11.671875 7.65625 
Q 5.515625 15.328125 5.515625 27.984375 
Q 5.515625 40.671875 11.671875 48.328125 
Q 17.828125 56 27.875 56 
Q 33.9375 56 38.28125 53.609375 
Q 42.625 51.21875 45.40625 46.390625 
L 45.40625 54.6875 
L 54.390625 54.6875 
z
" id="DejaVuSans-103"/>
      <path d="M 9.421875 54.6875 
L 18.40625 54.6875 
L 18.40625 0 
L 9.421875 0 
z
M 9.421875 75.984375 
L 18.40625 75.984375 
L 18.40625 64.59375 
L 9.421875 64.59375 
z
" id="DejaVuSans-105"/>
      <path d="M 44.28125 53.078125 
L 44.28125 44.578125 
Q 40.484375 46.53125 36.375 47.5 
Q 32.28125 48.484375 27.875 48.484375 
Q 21.1875 48.484375 17.84375 46.4375 
Q 14.5 44.390625 14.5 40.28125 
Q 14.5 37.15625 16.890625 35.375 
Q 19.28125 33.59375 26.515625 31.984375 
L 29.59375 31.296875 
Q 39.15625 29.25 43.1875 25.515625 
Q 47.21875 21.78125 47.21875 15.09375 
Q 47.21875 7.46875 41.1875 3.015625 
Q 35.15625 -1.421875 24.609375 -1.421875 
Q 20.21875 -1.421875 15.453125 -0.5625 
Q 10.6875 0.296875 5.421875 2 
L 5.421875 11.28125 
Q 10.40625 8.6875 15.234375 7.390625 
Q 20.0625 6.109375 24.8125 6.109375 
Q 31.15625 6.109375 34.5625 8.28125 
Q 37.984375 10.453125 37.984375 14.40625 
Q 37.984375 18.0625 35.515625 20.015625 
Q 33.0625 21.96875 24.703125 23.78125 
L 21.578125 24.515625 
Q 13.234375 26.265625 9.515625 29.90625 
Q 5.8125 33.546875 5.8125 39.890625 
Q 5.8125 47.609375 11.28125 51.796875 
Q 16.75 56 26.8125 56 
Q 31.78125 56 36.171875 55.265625 
Q 40.578125 54.546875 44.28125 53.078125 
z
" id="DejaVuSans-115"/>
     </defs>
     <use transform="translate(0 0.015625)" xlink:href="#Cmmi10-65"/>
     <use transform="translate(92.558594 0.015625)" xlink:href="#Cmsy10-92"/>
     <use transform="translate(176.71875 0.015625)" xlink:href="#Cmmi10-66"/>
     <use transform="translate(252.5 0.015625)" xlink:href="#DejaVuSans-44"/>
     <use transform="translate(284.287109 0.015625)" xlink:href="#DejaVuSans-32"/>
     <use transform="translate(316.074219 0.015625)" xlink:href="#DejaVuSans-99"/>
     <use transform="translate(371.054688 0.015625)" xlink:href="#DejaVuSans-111"/>
     <use transform="translate(432.236328 0.015625)" xlink:href="#DejaVuSans-108"/>
     <use transform="translate(460.019531 0.015625)" xlink:href="#DejaVuSans-111"/>
     <use transform="translate(521.201172 0.015625)" xlink:href="#DejaVuSans-114"/>
     <use transform="translate(562.314453 0.015625)" xlink:href="#DejaVuSans-233"/>
     <use transform="translate(623.837891 0.015625)" xlink:href="#DejaVuSans-32"/>
     <use transform="translate(655.625 0.015625)" xlink:href="#DejaVuSans-101"/>
     <use transform="translate(717.148438 0.015625)" xlink:href="#DejaVuSans-110"/>
     <use transform="translate(780.527344 0.015625)" xlink:href="#DejaVuSans-32"/>
     <use transform="translate(812.314453 0.015625)" xlink:href="#DejaVuSans-103"/>
     <use transform="translate(875.791016 0.015625)" xlink:href="#DejaVuSans-114"/>
     <use transform="translate(916.904297 0.015625)" xlink:href="#DejaVuSans-105"/>
     <use transform="translate(944.6875 0.015625)" xlink:href="#DejaVuSans-115"/>
    </g>
   </g>
   <g id="patch_8">
    <path clip-path="url(#pfc6948c2a7)" d="M 130.257692 247.084615 
C 150.912934 247.084615 170.724971 238.878201 185.330432 224.27274 
C 199.935893 209.667278 208.142308 189.855241 208.142308 169.2 
C 208.142308 148.544759 199.935893 128.732722 185.330432 114.12726 
C 170.724971 99.521799 150.912934 91.315385 130.257692 91.315385 
C 109.602451 91.315385 89.790414 99.521799 75.184953 114.12726 
C 60.579491 128.732722 52.373077 148.544759 52.373077 169.2 
C 52.373077 189.855241 60.579491 209.667278 75.184953 224.27274 
C 89.790414 238.878201 109.602451 247.084615 130.257692 247.084615 
z
" style="fill:none;stroke:#0000ff;stroke-linejoin:miter;"/>
   </g>
   <g id="patch_9">
    <path clip-path="url(#pfc6948c2a7)" d="M 208.142308 247.084615 
C 228.797549 247.084615 248.609586 238.878201 263.215047 224.27274 
C 277.820509 209.667278 286.026923 189.855241 286.026923 169.2 
C 286.026923 148.544759 277.820509 128.732722 263.215047 114.12726 
C 248.609586 99.521799 228.797549 91.315385 208.142308 91.315385 
C 187.487066 91.315385 167.675029 99.521799 153.069568 114.12726 
C 138.464107 128.732722 130.257692 148.544759 130.257692 169.2 
C 130.257692 189.855241 138.464107 209.667278 153.069568 224.27274 
C 167.675029 238.878201 187.487066 247.084615 208.142308 247.084615 
z
" style="fill:none;stroke:#ff0000;stroke-linejoin:miter;"/>
   </g>
  </g>
 </g>
 <defs>
  <clipPath id="pfc6948c2a7">
   <rect height="324" width="324" x="7.2" y="7.2"/>
  </clipPath>
 </defs>
</svg>
