<?xml version="1.0" encoding="utf-8" standalone="no"?>
<!DOCTYPE svg PUBLIC "-//W3C//DTD SVG 1.1//EN"
  "http://www.w3.org/Graphics/SVG/1.1/DTD/svg11.dtd">
<svg xmlns:xlink="http://www.w3.org/1999/xlink" width="338.4pt" height="338.4pt" viewBox="0 0 338.4 338.4" xmlns="http://www.w3.org/2000/svg" version="1.1">
 <metadata>
  <rdf:RDF xmlns:dc="http://purl.org/dc/elements/1.1/" xmlns:cc="http://creativecommons.org/ns#" xmlns:rdf="http://www.w3.org/1999/02/22-rdf-syntax-ns#">
   <cc:Work>
    <dc:type rdf:resource="http://purl.org/dc/dcmitype/StillImage"/>
    <dc:date>2025-08-21T01:25:40.609557</dc:date>
    <dc:format>image/svg+xml</dc:format>
    <dc:creator>
     <cc:Agent>
      <dc:title>Matplotlib v3.8.0, https://matplotlib.org/</dc:title>
     </cc:Agent>
    </dc:creator>
   </cc:Work>
  </rdf:RDF>
 </metadata>
 <defs>
  <style type="text/css">*{stroke-linejoin: round; stroke-linecap: butt}</style>
 </defs>
 <g id="figure_1">
  <g id="patch_1">
   <path d="M -0 338.4 
L 338.4 338.4 
L 338.4 0 
L -0 0 
z
" style="fill: #ffffff"/>
  </g>
  <g id="axes_1">
   <g id="patch_2">
    <path d="M 7.2 331.2 
L 331.2 331.2 
L 331.2 7.2 
L 7.2 7.2 
z
" style="fill: #ffffff"/>
   </g>
   <g id="patch_3">
    <path d="M 13.430769 324.969231 
L 13.430769 13.430769 
L 324.969231 13.430769 
L 324.969231 324.969231 
L 13.430769 324.969231 
z
" clip-path="url(#p9affa40fd3)" style="fill: none; stroke: #000000; stroke-linejoin: miter"/>
   </g>
   <g id="patch_4">
    <path d="M 169.2 169.2 
L 169.2 101.749945 
L 169.332449 101.826588 
L 169.508127 101.928783 
L 169.846763 102.127511 
L 169.982073 102.207561 
L 170.099283 102.277201 
L 170.418302 102.468158 
L 170.522183 102.530786 
L 170.849302 102.729446 
L 171.032135 102.841442 
L 171.076294 102.868597 
L 171.400897 103.069447 
L 171.54653 103.160276 
L 171.741424 103.282527 
L 171.991944 103.440852 
L 172.121863 103.523486 
L 172.350921 103.670057 
L 172.438531 103.726417 
L 172.766482 103.938862 
L 172.925452 104.042686 
L 173.113054 104.165922 
L 173.218058 104.235238 
L 173.462914 104.397823 
L 173.667523 104.534709 
L 173.89666 104.689119 
L 174.150569 104.861608 
L 174.303333 104.966093 
L 174.554741 105.13921 
L 174.755803 105.278709 
L 174.955554 105.418228 
L 175.003258 105.451685 
L 175.180441 105.57642 
L 175.376809 105.715524 
L 175.727981 105.966574 
L 175.777417 106.002152 
L 176.005126 106.16679 
L 176.31033 106.389428 
L 176.346247 106.415779 
L 176.679296 106.661627 
L 176.828142 106.77239 
L 176.941561 106.85716 
L 177.207127 107.056908 
L 177.366595 107.177709 
L 177.593094 107.3504 
L 177.718894 107.446882 
L 177.95088 107.625873 
L 178.217314 107.833168 
L 178.479503 108.038981 
L 178.64012 108.165961 
L 178.727196 108.235088 
L 178.984017 108.440156 
L 179.14495 108.569567 
L 179.430201 108.800681 
L 179.490408 108.849747 
L 179.786714 109.092685 
L 179.933127 109.213631 
L 180.078069 109.333955 
L 180.37434 109.581757 
L 180.563459 109.741248 
L 180.775066 109.920929 
L 181.03034 110.139424 
L 181.064921 110.169171 
L 181.292835 110.366102 
L 181.540432 110.581795 
L 181.8101 110.818817 
L 181.984794 110.973543 
L 182.069974 111.049327 
L 182.317547 111.270864 
L 182.437774 111.379135 
L 182.699679 111.616571 
L 182.842641 111.747093 
L 183.056838 111.943878 
L 183.210759 112.086201 
L 183.436001 112.295863 
L 183.715642 112.558488 
L 183.903987 112.73684 
L 184.014993 112.842517 
L 184.298233 113.114055 
L 184.458217 113.268645 
L 184.718491 113.522044 
L 184.951549 113.750967 
L 185.053272 113.851488 
L 185.215574 114.012642 
L 185.350233 114.147068 
L 185.734661 114.534478 
L 185.891977 114.694591 
L 185.993583 114.798494 
L 186.130868 114.939503 
L 186.440705 115.260381 
L 186.594127 115.420641 
L 186.797981 115.635001 
L 187.080411 115.934702 
L 187.228944 116.0936 
L 187.3019 116.171973 
L 187.692249 116.595009 
L 187.886822 116.808238 
L 188.068665 117.008959 
L 188.10449 117.048669 
L 188.300216 117.266593 
L 188.621391 117.627798 
L 188.765358 117.791184 
L 188.877894 117.919543 
L 189.193773 118.282893 
L 189.416548 118.541899 
L 189.53535 118.680967 
L 189.765756 118.952576 
L 190.020669 119.256032 
L 190.187554 119.456408 
L 190.263137 119.547609 
L 190.562122 119.911167 
L 190.677772 120.053003 
L 190.998524 120.449978 
L 191.087908 120.561556 
L 191.400964 120.955688 
L 191.497574 121.078381 
L 191.712349 121.352968 
L 191.954631 121.665791 
L 192.107681 121.865106 
L 192.291147 122.105799 
L 192.547088 122.444845 
L 192.671253 122.610723 
L 192.86408 122.870166 
L 193.04767 123.119289 
L 193.202554 123.331081 
L 193.485465 123.721851 
L 193.664502 123.971803 
L 193.777535 124.130688 
L 193.960938 124.390294 
L 194.209125 124.745219 
L 194.496337 125.16127 
L 194.596679 125.307995 
L 194.929475 125.799841 
L 195.063733 126.000574 
L 195.173373 126.165505 
L 195.335158 126.410553 
L 195.547471 126.735213 
L 195.791416 127.112658 
L 196.059285 127.532703 
L 196.208918 127.769948 
L 196.361976 128.014603 
L 196.65124 128.482558 
L 196.783539 128.699074 
L 196.998766 129.054734 
L 197.239186 129.457167 
L 197.429156 129.779094 
L 197.603324 130.077383 
L 197.726947 130.290966 
L 197.97047 130.716327 
L 198.17074 131.070861 
L 198.413539 131.50658 
L 198.533841 131.724931 
L 198.824189 132.258847 
L 199.017362 132.619662 
L 199.167163 132.902642 
L 199.27344 133.105127 
L 199.451124 133.446925 
L 199.628807 133.792914 
L 199.802803 134.135903 
L 199.947435 134.424246 
L 200.108073 134.748039 
L 200.225782 134.987726 
L 200.452489 135.455313 
L 200.715747 136.008498 
L 200.833068 136.258694 
L 201.019162 136.660366 
L 201.170612 136.991753 
L 201.322061 137.327304 
L 201.583952 137.917768 
L 201.642643 138.051932 
L 201.881051 138.604122 
L 202.047443 138.996606 
L 202.203473 139.370185 
L 202.359504 139.749328 
L 202.376611 139.791245 
L 202.513447 140.129066 
L 202.650283 140.471511 
L 202.7807 140.802347 
L 202.99369 141.352417 
L 203.133806 141.721184 
L 203.273922 142.095692 
L 203.397524 142.431019 
L 203.614831 143.032396 
L 203.751511 143.418767 
L 203.86244 143.737195 
L 203.973369 144.060144 
L 204.117779 144.487635 
L 204.262188 144.923511 
L 204.378413 145.280716 
L 204.532382 145.763194 
L 204.68635 146.256849 
L 204.790056 146.596015 
L 204.893761 146.940832 
L 205.035665 147.422301 
L 205.123008 147.724484 
L 205.235675 148.121209 
L 205.348342 148.52616 
L 205.483413 149.023176 
L 205.618485 149.533676 
L 205.753283 150.057662 
L 205.820682 150.32547 
L 205.888081 150.597377 
L 205.947436 150.840369 
L 206.010036 151.100396 
L 206.072637 151.364432 
L 206.135238 151.63266 
L 206.197838 151.905273 
L 206.261043 152.185181 
L 206.324247 152.47001 
L 206.387452 152.760016 
L 206.450656 153.055478 
L 206.5143 153.358816 
L 206.577944 153.668337 
L 206.644882 154.000966 
L 206.711819 154.341341 
L 206.782919 154.711972 
L 206.854019 155.092696 
L 206.925119 155.484352 
L 206.996219 155.887906 
L 207.047455 156.18671 
L 207.09869 156.492745 
L 207.149926 156.806546 
L 207.201162 157.128719 
L 207.240653 157.383189 
L 207.280145 157.643397 
L 207.320666 157.916767 
L 207.361188 158.197077 
L 207.401709 158.48487 
L 207.44223 158.780766 
L 207.482751 159.085478 
L 207.523273 159.399827 
L 207.563794 159.724771 
L 207.604315 160.061443 
L 207.630697 160.287564 
L 207.657078 160.519654 
L 207.683459 160.758204 
L 207.709841 161.00378 
L 207.736222 161.257032 
L 207.762603 161.51872 
L 207.788985 161.789737 
L 207.815366 162.071147 
L 207.83554 162.294148 
L 207.855715 162.524656 
L 207.875889 162.763476 
L 207.896063 163.011572 
L 207.916238 163.270107 
L 207.936412 163.540511 
L 207.956586 163.824577 
L 207.966674 163.972424 
L 207.976761 164.124596 
L 207.987107 164.285598 
L 207.997454 164.452079 
L 208.007801 164.624637 
L 208.018147 164.803987 
L 208.028494 164.990998 
L 208.038841 165.186741 
L 208.049188 165.392561 
L 208.059534 165.610193 
L 208.069881 165.841932 
L 208.075054 165.964031 
L 208.080228 166.090929 
L 208.085401 166.223242 
L 208.090574 166.361726 
L 208.095748 166.507332 
L 208.100921 166.661286 
L 208.106094 166.825211 
L 208.111268 167.001336 
L 208.116441 167.19287 
L 208.121614 167.404739 
L 208.126788 167.645232 
L 208.131961 167.930516 
L 208.137134 168.302325 
L 208.142308 169.2 
L 208.142308 169.2 
z
" clip-path="url(#p9affa40fd3)" style="fill: #808080; opacity: 0.5"/>
   </g>
   <g id="patch_5">
    <path d="M 169.2 169.2 
L 169.2 236.650055 
L 169.469566 236.493702 
L 169.531429 236.457616 
L 169.737834 236.336664 
L 169.89442 236.244337 
L 170.219165 236.051283 
L 170.462069 235.905482 
L 170.527982 235.865712 
L 170.740778 235.736705 
L 170.891228 235.644933 
L 171.190721 235.460852 
L 171.320343 235.380601 
L 171.620471 235.193438 
L 171.674466 235.159565 
L 171.944804 234.989042 
L 172.219028 234.814477 
L 172.375373 234.71423 
L 172.485551 234.643267 
L 172.630895 234.549254 
L 172.836115 234.415728 
L 173.103569 234.240328 
L 173.230783 234.156345 
L 173.573778 233.928124 
L 173.733818 233.820738 
L 173.895038 233.711978 
L 174.173423 233.522795 
L 174.35788 233.39647 
L 174.41428 233.357689 
L 174.762657 233.116519 
L 174.929927 232.999724 
L 175.105182 232.876652 
L 175.262218 232.765761 
L 175.524509 232.579244 
L 175.641849 232.495273 
L 175.786283 232.391461 
L 176.078136 232.180158 
L 176.255374 232.050828 
L 176.404648 231.941308 
L 176.542234 231.839879 
L 176.858796 231.604731 
L 177.009446 231.491949 
L 177.152789 231.384107 
L 177.388932 231.205319 
L 177.564251 231.071664 
L 177.853087 230.84975 
L 178.011434 230.727176 
L 178.214078 230.56936 
L 178.448786 230.385225 
L 178.496494 230.347619 
L 178.806934 230.101432 
L 178.895853 230.030442 
L 179.146236 229.829395 
L 179.310757 229.696365 
L 179.527397 229.520059 
L 179.707251 229.372705 
L 179.946524 229.175272 
L 180.117588 229.033135 
L 180.433293 228.768636 
L 180.462196 228.744278 
L 180.762093 228.490124 
L 180.881854 228.3879 
L 181.171485 228.138943 
L 181.344805 227.988777 
L 181.440772 227.905244 
L 181.777491 227.609962 
L 181.960834 227.447733 
L 182.093541 227.329666 
L 182.261611 227.179356 
L 182.525046 226.941987 
L 182.780602 226.709628 
L 182.873544 226.624606 
L 183.14111 226.378295 
L 183.320076 226.212251 
L 183.581268 225.968033 
L 183.757985 225.801519 
L 183.946167 225.623054 
L 184.112692 225.46413 
L 184.242973 225.339137 
L 184.442264 225.14681 
L 184.643837 224.95088 
L 184.889916 224.70976 
L 185.082663 224.519399 
L 185.3294 224.273772 
L 185.485841 224.11689 
L 185.588055 224.013906 
L 185.853232 223.744929 
L 186.007109 223.587644 
L 186.179646 223.410225 
L 186.335418 223.24907 
L 186.616682 222.955721 
L 186.775274 222.788957 
L 187.073211 222.472978 
L 187.116155 222.427141 
L 187.458893 222.058641 
L 187.683955 221.814045 
L 187.704798 221.791286 
L 187.961616 221.509373 
L 188.16056 221.28907 
L 188.438442 220.978506 
L 188.631312 220.760972 
L 188.698382 220.68494 
L 188.868143 220.491602 
L 189.083275 220.244727 
L 189.313384 219.978328 
L 189.644843 219.590274 
L 189.787792 219.421315 
L 190.028711 219.134344 
L 190.201148 218.92721 
L 190.429737 218.650362 
L 190.445979 218.630592 
L 190.693823 218.327257 
L 190.846658 218.13864 
L 191.195922 217.703046 
L 191.2461 217.639937 
L 191.426222 217.412283 
L 191.800129 216.934074 
L 191.882917 216.827146 
L 192.052268 216.607212 
L 192.248779 216.349957 
L 192.42389 216.118836 
L 192.649675 215.818171 
L 192.867931 215.52463 
L 193.128672 215.170134 
L 193.216484 215.049797 
L 193.561553 214.572178 
L 193.719902 214.35043 
L 193.772904 214.275838 
L 193.993233 213.963759 
L 194.193798 213.676823 
L 194.502441 213.229826 
L 194.723499 212.905527 
L 194.777446 212.825849 
L 194.972436 212.536074 
L 195.150569 212.268873 
L 195.487027 211.757576 
L 195.656837 211.49616 
L 195.819442 211.243671 
L 195.937392 211.059173 
L 196.284687 210.509191 
L 196.387195 210.344893 
L 196.520253 210.130263 
L 196.735367 209.779947 
L 197.008642 209.328844 
L 197.1686 209.061557 
L 197.476599 208.539953 
L 197.521732 208.462733 
L 197.854766 207.886548 
L 197.967769 207.688425 
L 198.192537 207.29029 
L 198.340939 207.024395 
L 198.597417 206.559007 
L 198.683411 206.401268 
L 198.981823 205.847063 
L 199.05276 205.713722 
L 199.239415 205.359856 
L 199.42607 205.001519 
L 199.437544 204.979343 
L 199.625241 204.614072 
L 199.812938 204.243988 
L 199.988412 203.893516 
L 200.039865 203.789908 
L 200.212105 203.440232 
L 200.384345 203.086072 
L 200.536358 202.769666 
L 200.761223 202.294796 
L 200.8933 202.011953 
L 201.050912 201.670501 
L 201.213822 201.312942 
L 201.376732 200.95052 
L 201.412345 200.870628 
L 201.657089 200.314939 
L 201.897521 199.757296 
L 202.084319 199.315593 
L 202.301969 198.791138 
L 202.53421 198.219274 
L 202.743063 197.693585 
L 202.781101 197.596628 
L 202.979262 197.08524 
L 203.174063 196.571815 
L 203.329368 196.154472 
L 203.484673 195.729656 
L 203.548925 195.551631 
L 203.68183 195.179017 
L 203.814734 194.800291 
L 203.960659 194.377093 
L 204.106584 193.945799 
L 204.2881 193.397355 
L 204.422927 192.980901 
L 204.551384 192.576498 
L 204.710768 192.063789 
L 204.870151 191.538179 
L 204.955671 191.250516 
L 205.041191 190.958715 
L 205.163317 190.534497 
L 205.285442 190.100958 
L 205.428256 189.581357 
L 205.524412 189.22334 
L 205.620569 188.858335 
L 205.739506 188.396592 
L 205.810005 188.117225 
L 205.880503 187.833404 
L 205.951002 187.544922 
L 206.021501 187.251554 
L 206.141448 186.740495 
L 206.201421 186.478986 
L 206.261394 186.213247 
L 206.320273 185.948048 
L 206.379152 185.678371 
L 206.443193 185.379701 
L 206.507235 185.075155 
L 206.571277 184.764388 
L 206.635318 184.447019 
L 206.727398 183.978274 
L 206.773438 183.738016 
L 206.819479 183.493572 
L 206.898188 183.065342 
L 206.976898 182.622997 
L 207.028181 182.326514 
L 207.079464 182.022973 
L 207.130748 181.711861 
L 207.182031 181.392596 
L 207.240725 181.016341 
L 207.29942 180.627403 
L 207.339076 180.356775 
L 207.378732 180.079272 
L 207.418388 179.794355 
L 207.458044 179.501408 
L 207.4977 179.199725 
L 207.537356 178.888491 
L 207.577012 178.566754 
L 207.616668 178.233391 
L 207.653733 177.910122 
L 207.690797 177.574219 
L 207.727862 177.224097 
L 207.746394 177.043111 
L 207.764927 176.857804 
L 207.781837 176.684676 
L 207.798746 176.507409 
L 207.815656 176.325694 
L 207.832566 176.13918 
L 207.849476 175.94747 
L 207.866386 175.750108 
L 207.883296 175.546567 
L 207.900206 175.336231 
L 207.917116 175.118376 
L 207.934026 174.89214 
L 207.950936 174.656478 
L 207.967846 174.410114 
L 207.984756 174.151449 
L 208.001666 173.878444 
L 208.010121 173.73576 
L 208.018576 173.588423 
L 208.027031 173.435947 
L 208.035486 173.277757 
L 208.042162 173.148356 
L 208.048839 173.014556 
L 208.055515 172.875877 
L 208.062192 172.731744 
L 208.068868 172.58146 
L 208.075544 172.424164 
L 208.082221 172.258777 
L 208.088897 172.083904 
L 208.095573 171.897703 
L 208.10225 171.697641 
L 208.105588 171.591335 
L 208.108926 171.480073 
L 208.112264 171.36309 
L 208.115602 171.239403 
L 208.11894 171.107707 
L 208.122279 170.966213 
L 208.125617 170.812341 
L 208.128955 170.642137 
L 208.132293 170.448941 
L 208.135631 170.219767 
L 208.13897 169.921092 
L 208.142308 169.2 
L 208.142308 169.2 
z
" clip-path="url(#p9affa40fd3)" style="fill: #808080; opacity: 0.5"/>
   </g>
   <g id="patch_6">
    <path d="M 130.257692 169.2 
L 130.257692 169.2 
L 130.261484 168.431481 
L 130.265276 168.113164 
L 130.269068 167.868919 
L 130.272859 167.663019 
L 130.276651 167.481624 
L 130.280443 167.317636 
L 130.284234 167.166839 
L 130.288026 167.026486 
L 130.291818 166.894669 
L 130.29561 166.769997 
L 130.299401 166.651422 
L 130.303193 166.53813 
L 130.306985 166.429471 
L 130.310777 166.324922 
L 130.31836 166.126487 
L 130.325943 165.940126 
L 130.333527 165.763875 
L 130.34111 165.59625 
L 130.348694 165.436097 
L 130.356277 165.282501 
L 130.363861 165.134718 
L 130.371444 164.992136 
L 130.379028 164.854243 
L 130.387107 164.712008 
L 130.395186 164.574159 
L 130.411345 164.310144 
L 130.427503 164.059723 
L 130.443661 163.820996 
L 130.45982 163.59247 
L 130.475978 163.372944 
L 130.492137 163.161436 
L 130.508295 162.957132 
L 130.524454 162.759346 
L 130.540612 162.567495 
L 130.55677 162.381077 
L 130.572929 162.19966 
L 130.589087 162.022863 
L 130.605246 161.850353 
L 130.637562 161.517047 
L 130.656118 161.332109 
L 130.674673 161.151463 
L 130.711784 160.801942 
L 130.748895 160.466556 
L 130.786006 160.143733 
L 130.823117 159.832176 
L 130.860228 159.530794 
L 130.897339 159.238665 
L 130.93445 158.954997 
L 130.966797 158.714108 
L 130.999145 158.478727 
L 131.038067 158.202301 
L 131.076989 157.932789 
L 131.115912 157.669707 
L 131.154834 157.412623 
L 131.213532 157.035431 
L 131.272229 156.669864 
L 131.330926 156.314931 
L 131.389624 155.969777 
L 131.447238 155.639778 
L 131.504853 155.31786 
L 131.562467 155.003474 
L 131.620082 154.696129 
L 131.68481 154.358696 
L 131.749538 154.029042 
L 131.814265 153.70667 
L 131.878993 153.391136 
L 131.940841 153.09566 
L 132.002689 152.805741 
L 132.062466 152.530537 
L 132.122243 152.260014 
L 132.182021 151.993951 
L 132.241798 151.732145 
L 132.318 151.404281 
L 132.394201 151.082669 
L 132.493144 150.673874 
L 132.592087 150.274424 
L 132.666203 149.980973 
L 132.74032 149.692218 
L 132.814436 149.407953 
L 132.888553 149.127987 
L 132.97911 148.791497 
L 133.083468 148.410966 
L 133.187827 148.037791 
L 133.334251 147.525868 
L 133.49199 146.988667 
L 133.649728 146.46525 
L 133.734263 146.190085 
L 133.833097 145.872879 
L 133.931932 145.560343 
L 134.070193 145.130617 
L 134.208455 144.709211 
L 134.318877 144.378347 
L 134.4293 144.052321 
L 134.505206 143.830913 
L 134.642774 143.435066 
L 134.780342 143.045932 
L 134.939195 142.604557 
L 135.076483 142.229673 
L 135.21377 141.860619 
L 135.350376 141.498953 
L 135.4877 141.140754 
L 135.625023 140.787735 
L 135.66018 140.698168 
L 135.869251 140.172108 
L 136.014452 139.813171 
L 136.159653 139.459275 
L 136.250702 139.239853 
L 136.417366 138.843024 
L 136.584029 138.452219 
L 136.644387 138.312129 
L 136.816176 137.917477 
L 136.987965 137.528674 
L 137.057452 137.37302 
L 137.298542 136.839929 
L 137.467562 136.472433 
L 137.59976 136.188452 
L 137.759634 135.84895 
L 137.919508 135.513628 
L 138.091989 135.156407 
L 138.307956 134.71556 
L 138.494818 134.339701 
L 138.619936 134.090839 
L 138.859396 133.620632 
L 139.161538 133.038326 
L 139.329527 132.71967 
L 139.394397 132.597567 
L 139.669517 132.085445 
L 139.923109 131.62136 
L 140.017464 131.450576 
L 140.182263 131.15469 
L 140.345919 130.863816 
L 140.611019 130.398732 
L 140.864671 129.96057 
L 141.094725 129.568764 
L 141.233987 129.334101 
L 141.326461 129.179306 
L 141.615137 128.701248 
L 141.812869 128.378206 
L 141.919352 128.205689 
L 142.133365 127.861969 
L 142.384072 127.464312 
L 142.596984 127.130725 
L 142.758819 126.879641 
L 142.903669 126.656688 
L 143.15755 126.269887 
L 143.365224 125.957165 
L 143.510936 125.739683 
L 143.724637 125.423557 
L 144.013151 125.001984 
L 144.110675 124.860816 
L 144.372994 124.484366 
L 144.510526 124.288869 
L 144.825934 123.845285 
L 144.922941 123.710166 
L 145.119785 123.437844 
L 145.368718 123.096966 
L 145.501128 122.917217 
L 145.650346 122.715938 
L 145.988328 122.26498 
L 146.191764 121.996785 
L 146.37037 121.763295 
L 146.498838 121.596471 
L 146.751519 121.271048 
L 146.896564 121.085842 
L 147.081757 120.851034 
L 147.196387 120.706618 
L 147.40276 120.448378 
L 147.635287 120.16008 
L 147.837222 119.91197 
L 148.109234 119.581018 
L 148.200682 119.470584 
L 148.502995 119.108426 
L 148.732404 118.836554 
L 148.784437 118.775239 
L 148.985854 118.539095 
L 149.284395 118.192555 
L 149.456927 117.994146 
L 149.689112 117.729259 
L 149.785661 117.619819 
L 149.929099 117.45799 
L 150.129544 117.233351 
L 150.426167 116.904107 
L 150.644965 116.663642 
L 150.721197 116.580333 
L 150.997211 116.280711 
L 151.160207 116.10524 
L 151.404111 115.844678 
L 151.546225 115.693957 
L 151.854402 115.369851 
L 151.98146 115.237304 
L 152.16955 115.042233 
L 152.468167 114.735302 
L 152.529221 114.672962 
L 152.818141 114.37984 
L 153.004972 114.191933 
L 153.227838 113.969444 
L 153.251781 113.945649 
L 153.537682 113.663092 
L 153.774432 113.431305 
L 153.898347 113.31077 
L 154.071734 113.143008 
L 154.292204 112.931184 
L 154.497583 112.735349 
L 154.665264 112.576514 
L 155.003661 112.258824 
L 155.207445 112.069328 
L 155.323822 111.961718 
L 155.499107 111.800464 
L 155.723882 111.595122 
L 155.886819 111.447275 
L 156.027774 111.320049 
L 156.328511 111.050677 
L 156.554837 110.849797 
L 156.642027 110.772829 
L 156.828516 110.608976 
L 156.990581 110.467435 
L 157.251011 110.241631 
L 157.483887 110.041419 
L 157.56101 109.975465 
L 157.932977 109.659791 
L 157.947943 109.647174 
L 158.198267 109.437084 
L 158.402685 109.266843 
L 158.679173 109.038454 
L 158.896576 108.860368 
L 159.110235 108.68662 
L 159.254883 108.569702 
L 159.44318 108.418356 
L 159.688958 108.222249 
L 159.83561 108.106005 
L 159.999191 107.977017 
L 160.153941 107.855644 
L 160.398466 107.665141 
L 160.665236 107.459082 
L 160.798569 107.356781 
L 161.046186 107.168003 
L 161.245418 107.017245 
L 161.423254 106.883523 
L 161.509833 106.818708 
L 161.808831 106.596308 
L 162.020304 106.440347 
L 162.131042 106.359116 
L 162.383322 106.175175 
L 162.595209 106.021878 
L 162.73444 105.921735 
L 162.983446 105.743791 
L 163.093434 105.665661 
L 163.396819 105.451631 
L 163.50256 105.377541 
L 163.718523 105.227032 
L 163.964082 105.057209 
L 164.029044 105.012514 
L 164.252208 104.859713 
L 164.502366 104.689777 
L 164.770524 104.509184 
L 164.933969 104.399902 
L 165.167307 104.244919 
L 165.307306 104.15251 
L 165.488012 104.033871 
L 165.774838 103.847029 
L 165.823689 103.815385 
L 166.163897 103.596446 
L 166.199849 103.573455 
L 166.528104 103.364817 
L 166.742675 103.229675 
L 166.849218 103.162934 
L 167.03619 103.046388 
L 167.337719 102.859975 
L 167.403246 102.819716 
L 167.612858 102.691527 
L 167.836899 102.555515 
L 168.086507 102.405194 
L 168.271009 102.294897 
L 168.421798 102.205266 
L 168.652998 102.068727 
L 168.875285 101.938464 
L 168.963437 101.887078 
L 169.2 101.749945 
L 169.2 169.2 
z
" clip-path="url(#p9affa40fd3)" style="fill: #808080; opacity: 0.5"/>
   </g>
   <g id="patch_7">
    <path d="M 130.257692 169.2 
L 130.257692 169.2 
L 130.265837 170.326342 
L 130.273982 170.792847 
L 130.282127 171.15078 
L 130.290272 171.452508 
L 130.298416 171.718315 
L 130.306561 171.958603 
L 130.314706 172.179554 
L 130.322851 172.385194 
L 130.330996 172.57832 
L 130.339141 172.760969 
L 130.347285 172.934678 
L 130.35543 173.100642 
L 130.363575 173.259811 
L 130.37172 173.412955 
L 130.379865 173.560708 
L 130.38801 173.703602 
L 130.396154 173.842085 
L 130.404299 173.976542 
L 130.420589 174.234653 
L 130.436879 174.480113 
L 130.453168 174.714609 
L 130.469458 174.939487 
L 130.485747 175.155835 
L 130.502037 175.364552 
L 130.518327 175.566388 
L 130.532582 175.737869 
L 130.546836 175.904936 
L 130.575346 176.227076 
L 130.603856 176.534971 
L 130.632366 176.830347 
L 130.660875 177.114603 
L 130.689385 177.3889 
L 130.717895 177.654205 
L 130.746404 177.911341 
L 130.769331 178.112672 
L 130.792257 178.309497 
L 130.815183 178.502102 
L 130.838109 178.690743 
L 130.883962 179.057042 
L 130.929814 179.410001 
L 130.978312 179.770296 
L 131.026811 180.118493 
L 131.061758 180.362535 
L 131.096705 180.601249 
L 131.131652 180.83496 
L 131.1666 181.063966 
L 131.201547 181.288533 
L 131.236494 181.508904 
L 131.306388 181.937928 
L 131.349723 182.196626 
L 131.393058 182.450134 
L 131.436393 182.698742 
L 131.479728 182.942716 
L 131.530399 183.222438 
L 131.577092 183.47519 
L 131.623785 183.723393 
L 131.670478 183.967279 
L 131.71717 184.207056 
L 131.810556 184.675045 
L 131.903942 185.128745 
L 131.984482 185.509472 
L 132.082593 185.961059 
L 132.180704 186.400235 
L 132.253716 186.71956 
L 132.326728 187.032868 
L 132.399709 187.340342 
L 132.472689 187.642401 
L 132.54567 187.939308 
L 132.618651 188.231304 
L 132.712056 188.598206 
L 132.805461 188.957855 
L 132.89722 189.304478 
L 132.988978 189.644814 
L 133.123113 190.131646 
L 133.257248 190.606569 
L 133.366944 190.986653 
L 133.476639 191.359676 
L 133.516666 191.494099 
L 133.653082 191.945736 
L 133.789497 192.387775 
L 133.912478 192.7785 
L 134.081814 193.305115 
L 134.25115 193.819303 
L 134.338599 194.080231 
L 134.494981 194.539389 
L 134.628695 194.924737 
L 134.762409 195.303712 
L 134.896792 195.678438 
L 135.025439 196.031639 
L 135.154087 196.379642 
L 135.278495 196.711417 
L 135.402902 197.038682 
L 135.500314 197.291886 
L 135.639054 197.64805 
L 135.777794 197.999141 
L 135.894879 198.291621 
L 136.049421 198.672513 
L 136.203963 199.047745 
L 136.275341 199.219201 
L 136.453108 199.641286 
L 136.63089 200.056611 
L 136.808672 200.465407 
L 136.995202 200.88758 
L 137.096336 201.113683 
L 137.259466 201.474387 
L 137.542971 202.089921 
L 137.727689 202.483551 
L 137.792101 202.619482 
L 138.037035 203.130282 
L 138.219995 203.505735 
L 138.446503 203.963602 
L 138.721099 204.508768 
L 138.880774 204.820966 
L 139.025488 205.100954 
L 139.244516 205.519522 
L 139.476631 205.956471 
L 139.558491 206.108988 
L 139.871954 206.685625 
L 140.032739 206.976976 
L 140.232235 207.334437 
L 140.394188 207.621421 
L 140.552744 207.899667 
L 140.753068 208.247455 
L 141.080882 208.807809 
L 141.178678 208.972926 
L 141.478769 209.473886 
L 141.690581 209.822424 
L 141.799472 210.000018 
L 141.940834 210.228992 
L 142.254263 210.730457 
L 142.445071 211.031644 
L 142.531603 211.167235 
L 142.870805 211.692872 
L 142.941502 211.801271 
L 143.095445 212.035955 
L 143.29273 212.334042 
L 143.567962 212.745002 
L 143.846959 213.155904 
L 144.022837 213.412065 
L 144.235361 213.718709 
L 144.292144 213.800111 
L 144.446469 214.020234 
L 144.738433 214.432311 
L 144.864539 214.608559 
L 145.112378 214.951954 
L 145.401768 215.348001 
L 145.456107 215.421786 
L 145.744752 215.810711 
L 145.881438 215.993134 
L 146.120797 216.30993 
L 146.251473 216.481475 
L 146.415481 216.695391 
L 146.713444 217.080142 
L 146.926835 217.352666 
L 147.135401 217.616636 
L 147.21022 217.710762 
L 147.520119 218.09748 
L 147.763822 218.398087 
L 147.887097 218.548991 
L 148.082332 218.786416 
L 148.280101 219.024989 
L 148.519869 219.311657 
L 148.650638 219.466834 
L 148.78355 219.623717 
L 149.007331 219.885973 
L 149.185805 220.093459 
L 149.4092 220.351103 
L 149.535643 220.495928 
L 149.808401 220.805897 
L 150.112316 221.14741 
L 150.274028 221.327493 
L 150.372203 221.436274 
L 150.605773 221.693433 
L 150.793206 221.898139 
L 151.092799 222.222325 
L 151.211339 222.349583 
L 151.36349 222.512092 
L 151.667173 222.833688 
L 151.737081 222.907203 
L 152.03303 223.216315 
L 152.222399 223.412334 
L 152.333699 223.526904 
L 152.519588 223.717212 
L 152.79631 223.998119 
L 153.003326 224.206418 
L 153.233037 224.435725 
L 153.310614 224.512735 
L 153.607452 224.80542 
L 153.804247 224.997746 
L 153.942668 225.132212 
L 154.091502 225.276053 
L 154.25968 225.437672 
L 154.459974 225.628896 
L 154.679295 225.836733 
L 155.002636 226.14022 
L 155.181992 226.307077 
L 155.396794 226.505532 
L 155.514661 226.613797 
L 155.670844 226.756571 
L 155.817311 226.889757 
L 156.115869 227.159149 
L 156.331598 227.352074 
L 156.453773 227.460696 
L 156.768218 227.73816 
L 156.923825 227.874358 
L 157.11034 228.036652 
L 157.227916 228.138426 
L 157.380919 228.270253 
L 157.668243 228.515951 
L 157.832909 228.655679 
L 158.033015 228.824425 
L 158.275556 229.027422 
L 158.460098 229.180758 
L 158.717708 229.393208 
L 158.816145 229.4739 
L 159.064996 229.676696 
L 159.293702 229.861578 
L 159.415721 229.959634 
L 159.680999 230.171427 
L 159.893978 230.340101 
L 160.068253 230.477227 
L 160.191635 230.573825 
L 160.340357 230.68973 
L 160.63068 230.914331 
L 160.758491 231.012517 
L 160.93328 231.146114 
L 161.220561 231.364001 
L 161.469644 231.551229 
L 161.508632 231.580395 
L 161.800613 231.797609 
L 162.031605 231.967957 
L 162.064698 231.992254 
L 162.337697 232.191674 
L 162.629185 232.402603 
L 162.787287 232.516154 
L 163.013528 232.677606 
L 163.161485 232.782536 
L 163.294703 232.876571 
L 163.464186 232.995602 
L 163.643057 233.120498 
L 163.889169 233.291131 
L 164.061879 233.410039 
L 164.292485 233.567743 
L 164.534996 233.732284 
L 164.69101 233.837435 
L 164.833 233.93266 
L 165.136022 234.134372 
L 165.212936 234.185247 
L 165.519634 234.386816 
L 165.769663 234.549616 
L 165.949015 234.665558 
L 166.023538 234.71353 
L 166.185631 234.817457 
L 166.402256 234.955467 
L 166.691771 235.138353 
L 166.902172 235.270149 
L 167.022535 235.345125 
L 167.199988 235.455111 
L 167.35724 235.552028 
L 167.643787 235.727311 
L 167.813842 235.830535 
L 168.118474 236.013966 
L 168.196483 236.060634 
L 168.436989 236.203739 
L 168.586468 236.292093 
L 168.722043 236.37184 
L 169.06775 236.573528 
L 169.2 236.650055 
L 169.2 169.2 
z
" clip-path="url(#p9affa40fd3)" style="fill: #808080; opacity: 0.5"/>
   </g>
   <g id="matplotlib.axis_1"/>
   <g id="matplotlib.axis_2"/>
   <g id="line2d_1">
    <path d="M 169.2 101.749945 
L 172.766482 103.938862 
L 176.005126 106.16679 
L 179.430201 108.800681 
L 182.437774 111.379135 
L 185.350233 114.147068 
L 188.300216 117.266593 
L 191.087908 120.561556 
L 193.664502 123.971803 
L 195.791416 127.112658 
L 197.97047 130.716327 
L 199.947435 134.424246 
L 201.642643 138.051932 
L 203.273922 142.095692 
L 204.532382 145.763194 
L 205.618485 149.533676 
L 206.577944 153.668337 
L 207.320666 157.916767 
L 207.815366 162.071147 
L 208.085401 166.223242 
L 208.142308 169.2 
L 208.142308 169.2 
" clip-path="url(#p9affa40fd3)" style="fill: none; stroke: #0000ff; stroke-linecap: square"/>
   </g>
   <g id="line2d_2">
    <path d="M 169.2 236.650055 
L 172.836115 234.415728 
L 176.255374 232.050828 
L 179.527397 229.520059 
L 182.525046 226.941987 
L 185.588055 224.013906 
L 188.438442 220.978506 
L 191.195922 217.703046 
L 193.719902 214.35043 
L 195.937392 211.059173 
L 198.192537 207.29029 
L 200.039865 203.789908 
L 201.657089 200.314939 
L 203.174063 196.571815 
L 204.551384 192.576498 
L 205.739506 188.396592 
L 206.635318 184.447019 
L 207.339076 180.356775 
L 207.832566 176.13918 
L 208.095573 171.897703 
L 208.142308 169.2 
L 208.142308 169.2 
" clip-path="url(#p9affa40fd3)" style="fill: none; stroke: #0000ff; stroke-linecap: square"/>
   </g>
   <g id="line2d_3">
    <path d="M 130.257692 169.2 
L 130.387107 164.712008 
L 130.711784 160.801942 
L 131.272229 156.669864 
L 132.062466 152.530537 
L 133.083468 148.410966 
L 134.318877 144.378347 
L 135.66018 140.698168 
L 137.298542 136.839929 
L 139.161538 133.038326 
L 141.233987 129.334101 
L 143.365224 125.957165 
L 145.650346 122.715938 
L 148.200682 119.470584 
L 150.997211 116.280711 
L 153.898347 113.31077 
L 156.990581 110.467435 
L 160.153941 107.855644 
L 163.50256 105.377541 
L 167.03619 103.046388 
L 169.2 101.749945 
L 169.2 101.749945 
" clip-path="url(#p9affa40fd3)" style="fill: none; stroke: #0000ff; stroke-linecap: square"/>
   </g>
   <g id="line2d_4">
    <path d="M 130.257692 169.2 
L 130.396154 173.842085 
L 130.746404 177.911341 
L 131.306388 181.937928 
L 132.082593 185.961059 
L 133.123113 190.131646 
L 134.338599 194.080231 
L 135.777794 197.999141 
L 137.259466 201.474387 
L 139.244516 205.519522 
L 141.178678 208.972926 
L 143.29273 212.334042 
L 145.744752 215.810711 
L 148.280101 219.024989 
L 151.092799 222.222325 
L 153.942668 225.132212 
L 156.923825 227.874358 
L 160.191635 230.573825 
L 163.464186 232.995602 
L 167.022535 235.345125 
L 169.2 236.650055 
L 169.2 236.650055 
" clip-path="url(#p9affa40fd3)" style="fill: none; stroke: #0000ff; stroke-linecap: square"/>
   </g>
   <g id="text_1">
    <!-- $\Omega$ -->
    <g transform="translate(17.569231 23.978606) scale(0.1 -0.1)">
     <defs>
      <path id="Cmr10-ad" d="M 494 0 
L 281 1063 
L 469 1063 
Q 503 878 531 736 
Q 559 594 604 536 
Q 650 478 750 459 
Q 850 441 1081 441 
L 1472 441 
Q 1378 803 1004 1386 
Q 631 1969 495 2233 
Q 359 2497 359 2913 
Q 359 3397 646 3761 
Q 934 4125 1389 4319 
Q 1844 4513 2309 4513 
Q 2772 4513 3226 4319 
Q 3681 4125 3968 3758 
Q 4256 3391 4256 2913 
Q 4256 2588 4137 2300 
Q 4019 2013 3834 1725 
Q 3650 1438 3436 1084 
Q 3222 731 3144 441 
L 3531 441 
Q 3766 441 3869 459 
Q 3972 478 4015 536 
Q 4059 594 4086 736 
Q 4113 878 4147 1063 
L 4331 1063 
L 4122 0 
L 2988 0 
Q 2925 0 2925 84 
Q 2925 409 3004 721 
Q 3084 1034 3240 1478 
Q 3397 1922 3484 2261 
Q 3572 2600 3572 2913 
Q 3572 3297 3422 3625 
Q 3272 3953 2984 4150 
Q 2697 4347 2309 4347 
Q 1725 4347 1384 3930 
Q 1044 3513 1044 2913 
Q 1047 2584 1122 2293 
Q 1197 2003 1364 1518 
Q 1531 1034 1611 721 
Q 1691 409 1691 84 
Q 1691 0 1625 0 
L 494 0 
z
" transform="scale(0.015625)"/>
     </defs>
     <use xlink:href="#Cmr10-ad" transform="translate(0 0.484375)"/>
    </g>
   </g>
   <g id="text_2">
    <!-- $A$ -->
    <g style="fill: #0000ff" transform="translate(87.565385 94.07476) scale(0.1 -0.1)">
     <defs>
      <path id="Cmmi10-41" d="M 288 0 
Q 225 0 225 84 
Q 250 225 306 225 
Q 566 225 755 328 
Q 944 431 1081 647 
Q 1094 659 1094 659 
L 3378 4513 
Q 3428 4581 3500 4581 
L 3584 4581 
Q 3603 4581 3622 4573 
Q 3641 4566 3655 4548 
Q 3669 4531 3669 4513 
L 4056 378 
Q 4056 350 4084 294 
Q 4147 225 4563 225 
Q 4628 225 4628 141 
Q 4606 56 4592 28 
Q 4578 0 4519 0 
L 2919 0 
Q 2859 0 2859 84 
Q 2894 225 2944 225 
Q 3450 225 3481 397 
L 3384 1453 
L 1806 1453 
L 1294 594 
Q 1247 525 1247 434 
Q 1247 322 1355 273 
Q 1463 225 1594 225 
Q 1656 225 1656 141 
Q 1634 50 1621 25 
Q 1609 0 1550 0 
L 288 0 
z
M 1931 1678 
L 3359 1678 
L 3169 3750 
L 1931 1678 
z
" transform="scale(0.015625)"/>
     </defs>
     <use xlink:href="#Cmmi10-41" transform="translate(0 0.421875)"/>
    </g>
   </g>
   <g id="text_3">
    <!-- $B$ -->
    <g style="fill: #ff0000" transform="translate(243.284615 94.07476) scale(0.1 -0.1)">
     <defs>
      <path id="Cmmi10-42" d="M 319 0 
Q 256 0 256 84 
Q 259 100 268 137 
Q 278 175 293 200 
Q 309 225 341 225 
Q 522 225 656 234 
Q 791 244 884 269 
Q 959 297 1006 441 
L 1881 3956 
Q 1894 4019 1894 4044 
Q 1894 4113 1819 4122 
Q 1697 4147 1356 4147 
Q 1294 4147 1294 4231 
Q 1297 4247 1306 4286 
Q 1316 4325 1333 4348 
Q 1350 4372 1375 4372 
L 3669 4372 
Q 3878 4372 4083 4320 
Q 4288 4269 4461 4156 
Q 4634 4044 4736 3876 
Q 4838 3709 4838 3488 
Q 4838 3247 4714 3040 
Q 4591 2834 4395 2681 
Q 4200 2528 3973 2429 
Q 3747 2331 3500 2284 
Q 3675 2284 3854 2215 
Q 4034 2147 4175 2028 
Q 4316 1909 4402 1743 
Q 4488 1578 4488 1388 
Q 4488 1003 4219 684 
Q 3950 366 3542 183 
Q 3134 0 2753 0 
L 319 0 
z
M 1497 275 
Q 1497 225 1716 225 
L 2631 225 
Q 2944 225 3231 398 
Q 3519 572 3692 859 
Q 3866 1147 3866 1459 
Q 3866 1650 3786 1820 
Q 3706 1991 3556 2089 
Q 3406 2188 3213 2188 
L 1966 2188 
L 1522 416 
Q 1497 328 1497 275 
z
M 2009 2356 
L 2981 2356 
Q 3288 2356 3577 2512 
Q 3866 2669 4048 2937 
Q 4231 3206 4231 3506 
Q 4231 3784 4057 3965 
Q 3884 4147 3609 4147 
L 2731 4147 
Q 2559 4147 2500 4115 
Q 2441 4084 2400 3928 
L 2009 2356 
z
" transform="scale(0.015625)"/>
     </defs>
     <use xlink:href="#Cmmi10-42" transform="translate(0 0.6875)"/>
    </g>
   </g>
   <g id="text_4">
    <!-- $A\cap B$, colorée en gris -->
    <g transform="translate(116.25 55.323077) scale(0.1 -0.1)">
     <defs>
      <path id="Cmsy10-5c" d="M 359 -25 
L 359 2472 
Q 359 2897 625 3206 
Q 891 3516 1306 3672 
Q 1722 3828 2131 3828 
Q 2434 3828 2745 3745 
Q 3056 3663 3320 3489 
Q 3584 3316 3743 3056 
Q 3903 2797 3903 2472 
L 3903 -25 
Q 3903 -75 3865 -108 
Q 3828 -141 3775 -141 
Q 3728 -141 3687 -108 
Q 3647 -75 3647 -25 
L 3647 2450 
Q 3647 2731 3508 2945 
Q 3369 3159 3151 3293 
Q 2934 3428 2662 3500 
Q 2391 3572 2131 3572 
Q 1775 3572 1426 3447 
Q 1078 3322 847 3069 
Q 616 2816 616 2450 
L 616 -25 
Q 616 -75 575 -108 
Q 534 -141 488 -141 
Q 434 -141 396 -108 
Q 359 -75 359 -25 
z
" transform="scale(0.015625)"/>
      <path id="DejaVuSans-2c" d="M 750 794 
L 1409 794 
L 1409 256 
L 897 -744 
L 494 -744 
L 750 256 
L 750 794 
z
" transform="scale(0.015625)"/>
      <path id="DejaVuSans-20" transform="scale(0.015625)"/>
      <path id="DejaVuSans-63" d="M 3122 3366 
L 3122 2828 
Q 2878 2963 2633 3030 
Q 2388 3097 2138 3097 
Q 1578 3097 1268 2742 
Q 959 2388 959 1747 
Q 959 1106 1268 751 
Q 1578 397 2138 397 
Q 2388 397 2633 464 
Q 2878 531 3122 666 
L 3122 134 
Q 2881 22 2623 -34 
Q 2366 -91 2075 -91 
Q 1284 -91 818 406 
Q 353 903 353 1747 
Q 353 2603 823 3093 
Q 1294 3584 2113 3584 
Q 2378 3584 2631 3529 
Q 2884 3475 3122 3366 
z
" transform="scale(0.015625)"/>
      <path id="DejaVuSans-6f" d="M 1959 3097 
Q 1497 3097 1228 2736 
Q 959 2375 959 1747 
Q 959 1119 1226 758 
Q 1494 397 1959 397 
Q 2419 397 2687 759 
Q 2956 1122 2956 1747 
Q 2956 2369 2687 2733 
Q 2419 3097 1959 3097 
z
M 1959 3584 
Q 2709 3584 3137 3096 
Q 3566 2609 3566 1747 
Q 3566 888 3137 398 
Q 2709 -91 1959 -91 
Q 1206 -91 779 398 
Q 353 888 353 1747 
Q 353 2609 779 3096 
Q 1206 3584 1959 3584 
z
" transform="scale(0.015625)"/>
      <path id="DejaVuSans-6c" d="M 603 4863 
L 1178 4863 
L 1178 0 
L 603 0 
L 603 4863 
z
" transform="scale(0.015625)"/>
      <path id="DejaVuSans-72" d="M 2631 2963 
Q 2534 3019 2420 3045 
Q 2306 3072 2169 3072 
Q 1681 3072 1420 2755 
Q 1159 2438 1159 1844 
L 1159 0 
L 581 0 
L 581 3500 
L 1159 3500 
L 1159 2956 
Q 1341 3275 1631 3429 
Q 1922 3584 2338 3584 
Q 2397 3584 2469 3576 
Q 2541 3569 2628 3553 
L 2631 2963 
z
" transform="scale(0.015625)"/>
      <path id="DejaVuSans-e9" d="M 3597 1894 
L 3597 1613 
L 953 1613 
Q 991 1019 1311 708 
Q 1631 397 2203 397 
Q 2534 397 2845 478 
Q 3156 559 3463 722 
L 3463 178 
Q 3153 47 2828 -22 
Q 2503 -91 2169 -91 
Q 1331 -91 842 396 
Q 353 884 353 1716 
Q 353 2575 817 3079 
Q 1281 3584 2069 3584 
Q 2775 3584 3186 3129 
Q 3597 2675 3597 1894 
z
M 3022 2063 
Q 3016 2534 2758 2815 
Q 2500 3097 2075 3097 
Q 1594 3097 1305 2825 
Q 1016 2553 972 2059 
L 3022 2063 
z
M 2469 5119 
L 3091 5119 
L 2072 3944 
L 1594 3944 
L 2469 5119 
z
" transform="scale(0.015625)"/>
      <path id="DejaVuSans-65" d="M 3597 1894 
L 3597 1613 
L 953 1613 
Q 991 1019 1311 708 
Q 1631 397 2203 397 
Q 2534 397 2845 478 
Q 3156 559 3463 722 
L 3463 178 
Q 3153 47 2828 -22 
Q 2503 -91 2169 -91 
Q 1331 -91 842 396 
Q 353 884 353 1716 
Q 353 2575 817 3079 
Q 1281 3584 2069 3584 
Q 2775 3584 3186 3129 
Q 3597 2675 3597 1894 
z
M 3022 2063 
Q 3016 2534 2758 2815 
Q 2500 3097 2075 3097 
Q 1594 3097 1305 2825 
Q 1016 2553 972 2059 
L 3022 2063 
z
" transform="scale(0.015625)"/>
      <path id="DejaVuSans-6e" d="M 3513 2113 
L 3513 0 
L 2938 0 
L 2938 2094 
Q 2938 2591 2744 2837 
Q 2550 3084 2163 3084 
Q 1697 3084 1428 2787 
Q 1159 2491 1159 1978 
L 1159 0 
L 581 0 
L 581 3500 
L 1159 3500 
L 1159 2956 
Q 1366 3272 1645 3428 
Q 1925 3584 2291 3584 
Q 2894 3584 3203 3211 
Q 3513 2838 3513 2113 
z
" transform="scale(0.015625)"/>
      <path id="DejaVuSans-67" d="M 2906 1791 
Q 2906 2416 2648 2759 
Q 2391 3103 1925 3103 
Q 1463 3103 1205 2759 
Q 947 2416 947 1791 
Q 947 1169 1205 825 
Q 1463 481 1925 481 
Q 2391 481 2648 825 
Q 2906 1169 2906 1791 
z
M 3481 434 
Q 3481 -459 3084 -895 
Q 2688 -1331 1869 -1331 
Q 1566 -1331 1297 -1286 
Q 1028 -1241 775 -1147 
L 775 -588 
Q 1028 -725 1275 -790 
Q 1522 -856 1778 -856 
Q 2344 -856 2625 -561 
Q 2906 -266 2906 331 
L 2906 616 
Q 2728 306 2450 153 
Q 2172 0 1784 0 
Q 1141 0 747 490 
Q 353 981 353 1791 
Q 353 2603 747 3093 
Q 1141 3584 1784 3584 
Q 2172 3584 2450 3431 
Q 2728 3278 2906 2969 
L 2906 3500 
L 3481 3500 
L 3481 434 
z
" transform="scale(0.015625)"/>
      <path id="DejaVuSans-69" d="M 603 3500 
L 1178 3500 
L 1178 0 
L 603 0 
L 603 3500 
z
M 603 4863 
L 1178 4863 
L 1178 4134 
L 603 4134 
L 603 4863 
z
" transform="scale(0.015625)"/>
      <path id="DejaVuSans-73" d="M 2834 3397 
L 2834 2853 
Q 2591 2978 2328 3040 
Q 2066 3103 1784 3103 
Q 1356 3103 1142 2972 
Q 928 2841 928 2578 
Q 928 2378 1081 2264 
Q 1234 2150 1697 2047 
L 1894 2003 
Q 2506 1872 2764 1633 
Q 3022 1394 3022 966 
Q 3022 478 2636 193 
Q 2250 -91 1575 -91 
Q 1294 -91 989 -36 
Q 684 19 347 128 
L 347 722 
Q 666 556 975 473 
Q 1284 391 1588 391 
Q 1994 391 2212 530 
Q 2431 669 2431 922 
Q 2431 1156 2273 1281 
Q 2116 1406 1581 1522 
L 1381 1569 
Q 847 1681 609 1914 
Q 372 2147 372 2553 
Q 372 3047 722 3315 
Q 1072 3584 1716 3584 
Q 2034 3584 2315 3537 
Q 2597 3491 2834 3397 
z
" transform="scale(0.015625)"/>
     </defs>
     <use xlink:href="#Cmmi10-41" transform="translate(0 0.015625)"/>
     <use xlink:href="#Cmsy10-5c" transform="translate(92.558594 0.015625)"/>
     <use xlink:href="#Cmmi10-42" transform="translate(176.71875 0.015625)"/>
     <use xlink:href="#DejaVuSans-2c" transform="translate(252.5 0.015625)"/>
     <use xlink:href="#DejaVuSans-20" transform="translate(284.287109 0.015625)"/>
     <use xlink:href="#DejaVuSans-63" transform="translate(316.074219 0.015625)"/>
     <use xlink:href="#DejaVuSans-6f" transform="translate(371.054688 0.015625)"/>
     <use xlink:href="#DejaVuSans-6c" transform="translate(432.236328 0.015625)"/>
     <use xlink:href="#DejaVuSans-6f" transform="translate(460.019531 0.015625)"/>
     <use xlink:href="#DejaVuSans-72" transform="translate(521.201172 0.015625)"/>
     <use xlink:href="#DejaVuSans-e9" transform="translate(562.314453 0.015625)"/>
     <use xlink:href="#DejaVuSans-65" transform="translate(623.837891 0.015625)"/>
     <use xlink:href="#DejaVuSans-20" transform="translate(685.361328 0.015625)"/>
     <use xlink:href="#DejaVuSans-65" transform="translate(717.148438 0.015625)"/>
     <use xlink:href="#DejaVuSans-6e" transform="translate(778.671875 0.015625)"/>
     <use xlink:href="#DejaVuSans-20" transform="translate(842.050781 0.015625)"/>
     <use xlink:href="#DejaVuSans-67" transform="translate(873.837891 0.015625)"/>
     <use xlink:href="#DejaVuSans-72" transform="translate(937.314453 0.015625)"/>
     <use xlink:href="#DejaVuSans-69" transform="translate(978.427734 0.015625)"/>
     <use xlink:href="#DejaVuSans-73" transform="translate(1006.210938 0.015625)"/>
    </g>
   </g>
   <g id="patch_8">
    <path d="M 130.257692 247.084615 
C 150.912934 247.084615 170.724971 238.878201 185.330432 224.27274 
C 199.935893 209.667278 208.142308 189.855241 208.142308 169.2 
C 208.142308 148.544759 199.935893 128.732722 185.330432 114.12726 
C 170.724971 99.521799 150.912934 91.315385 130.257692 91.315385 
C 109.602451 91.315385 89.790414 99.521799 75.184953 114.12726 
C 60.579491 128.732722 52.373077 148.544759 52.373077 169.2 
C 52.373077 189.855241 60.579491 209.667278 75.184953 224.27274 
C 89.790414 238.878201 109.602451 247.084615 130.257692 247.084615 
L 130.257692 247.084615 
z
" clip-path="url(#p9affa40fd3)" style="fill: none; stroke: #0000ff; stroke-linejoin: miter"/>
   </g>
   <g id="patch_9">
    <path d="M 208.142308 247.084615 
C 228.797549 247.084615 248.609586 238.878201 263.215047 224.27274 
C 277.820509 209.667278 286.026923 189.855241 286.026923 169.2 
C 286.026923 148.544759 277.820509 128.732722 263.215047 114.12726 
C 248.609586 99.521799 228.797549 91.315385 208.142308 91.315385 
C 187.487066 91.315385 167.675029 99.521799 153.069568 114.12726 
C 138.464107 128.732722 130.257692 148.544759 130.257692 169.2 
C 130.257692 189.855241 138.464107 209.667278 153.069568 224.27274 
C 167.675029 238.878201 187.487066 247.084615 208.142308 247.084615 
L 208.142308 247.084615 
z
" clip-path="url(#p9affa40fd3)" style="fill: none; stroke: #ff0000; stroke-linejoin: miter"/>
   </g>
  </g>
 </g>
 <defs>
  <clipPath id="p9affa40fd3">
   <rect x="7.2" y="7.2" width="324" height="324"/>
  </clipPath>
 </defs>
</svg>
