<?xml version="1.0" encoding="utf-8" standalone="no"?>
<!DOCTYPE svg PUBLIC "-//W3C//DTD SVG 1.1//EN"
  "http://www.w3.org/Graphics/SVG/1.1/DTD/svg11.dtd">
<svg xmlns:xlink="http://www.w3.org/1999/xlink" width="338.4pt" height="338.4pt" viewBox="0 0 338.4 338.4" xmlns="http://www.w3.org/2000/svg" version="1.1">
 <metadata>
  <rdf:RDF xmlns:dc="http://purl.org/dc/elements/1.1/" xmlns:cc="http://creativecommons.org/ns#" xmlns:rdf="http://www.w3.org/1999/02/22-rdf-syntax-ns#">
   <cc:Work>
    <dc:type rdf:resource="http://purl.org/dc/dcmitype/StillImage"/>
    <dc:date>2025-08-27T15:08:56.509506</dc:date>
    <dc:format>image/svg+xml</dc:format>
    <dc:creator>
     <cc:Agent>
      <dc:title>Matplotlib v3.8.0, https://matplotlib.org/</dc:title>
     </cc:Agent>
    </dc:creator>
   </cc:Work>
  </rdf:RDF>
 </metadata>
 <defs>
  <style type="text/css">*{stroke-linejoin: round; stroke-linecap: butt}</style>
 </defs>
 <g id="figure_1">
  <g id="patch_1">
   <path d="M -0 338.4 
L 338.4 338.4 
L 338.4 0 
L -0 0 
z
" style="fill: #ffffff"/>
  </g>
  <g id="axes_1">
   <g id="patch_2">
    <path d="M 7.2 331.2 
L 331.2 331.2 
L 331.2 7.2 
L 7.2 7.2 
z
" style="fill: #ffffff"/>
   </g>
   <g id="patch_3">
    <path d="M 13.430769 324.969231 
L 13.430769 13.430769 
L 324.969231 13.430769 
L 324.969231 324.969231 
L 13.430769 324.969231 
z
" clip-path="url(#p895b85e035)" style="fill: none; stroke: #000000; stroke-linejoin: miter"/>
   </g>
   <g id="patch_4">
    <path d="M 169.2 169.2 
L 169.2 101.749945 
L 169.410653 101.872004 
L 169.613277 101.990244 
L 169.829303 102.117208 
L 170.057445 102.252312 
L 170.175158 102.322431 
L 170.460977 102.493859 
L 170.512856 102.525154 
L 170.810056 102.705496 
L 170.873453 102.744201 
L 171.133522 102.903847 
L 171.278642 102.993543 
L 171.510812 103.137958 
L 171.792041 103.314409 
L 171.892938 103.378122 
L 172.085941 103.500602 
L 172.24687 103.603336 
L 172.588765 103.823447 
L 172.696068 103.893051 
L 172.932383 104.047225 
L 173.195042 104.220024 
L 173.302128 104.290911 
L 173.552193 104.457436 
L 173.710603 104.563649 
L 173.837096 104.648866 
L 174.026009 104.776807 
L 174.362148 105.006462 
L 174.433047 105.055231 
L 174.680195 105.226141 
L 174.841309 105.338318 
L 175.008318 105.455237 
L 175.21528 105.601033 
L 175.390882 105.725529 
L 175.680225 105.932261 
L 175.92054 106.105487 
L 175.961664 106.135269 
L 176.297455 106.37999 
L 176.419138 106.469352 
L 176.713431 106.68698 
L 176.905035 106.829825 
L 177.011182 106.909354 
L 177.149118 107.013125 
L 177.426904 107.223563 
L 177.613864 107.366301 
L 177.864414 107.558996 
L 177.933092 107.612099 
L 178.276005 107.879082 
L 178.31389 107.908767 
L 178.564964 108.106459 
L 178.781549 108.27834 
L 179.013004 108.463414 
L 179.269066 108.669854 
L 179.463126 108.827501 
L 179.626432 108.960969 
L 179.716178 109.034632 
L 179.965054 109.240084 
L 180.139403 109.38505 
L 180.351815 109.562829 
L 180.569436 109.746305 
L 180.807943 109.948962 
L 180.915753 110.04111 
L 181.071185 110.174563 
L 181.378089 110.440164 
L 181.598583 110.63272 
L 181.705108 110.726273 
L 181.98118 110.970333 
L 182.106138 111.081569 
L 182.356914 111.306266 
L 182.46731 111.405803 
L 182.693048 111.610532 
L 182.983769 111.876583 
L 183.105441 111.988735 
L 183.213172 112.088438 
L 183.566307 112.417917 
L 183.586818 112.437181 
L 183.894286 112.727625 
L 183.989419 112.818134 
L 184.180267 113.000629 
L 184.413405 113.225255 
L 184.727848 113.531199 
L 184.934829 113.734479 
L 185.037354 113.835734 
L 185.264479 114.061387 
L 185.483411 114.280665 
L 185.693708 114.492948 
L 185.815989 114.617137 
L 185.954768 114.758755 
L 186.210378 115.021497 
L 186.505137 115.327574 
L 186.632044 115.460389 
L 186.862925 115.703636 
L 187.021425 115.871847 
L 187.11268 115.969147 
L 187.317193 116.188429 
L 187.677626 116.579048 
L 187.809464 116.723273 
L 187.97175 116.901808 
L 188.170041 117.121471 
L 188.367522 117.341915 
L 188.610343 117.615299 
L 188.855215 117.89363 
L 188.921532 117.96947 
L 189.221138 118.314586 
L 189.266932 118.367698 
L 189.597672 118.754187 
L 189.830244 119.029048 
L 189.978319 119.2054 
L 190.116264 119.370645 
L 190.278548 119.566239 
L 190.607626 119.966893 
L 190.656648 120.027045 
L 190.879815 120.302438 
L 191.117341 120.59839 
L 191.274826 120.796254 
L 191.547545 121.142043 
L 191.63908 121.25901 
L 191.916456 121.616283 
L 192.119232 121.880202 
L 192.301845 122.119893 
L 192.466721 122.337967 
L 192.612737 122.532434 
L 192.793185 122.774517 
L 193.084215 123.169127 
L 193.366525 123.556944 
L 193.540602 123.798605 
L 193.622073 123.91238 
L 193.82944 124.203932 
L 194.088598 124.572332 
L 194.310821 124.891874 
L 194.497064 125.16233 
L 194.582107 125.286642 
L 194.923566 125.791037 
L 194.947357 125.826499 
L 195.148863 126.128556 
L 195.507593 126.673964 
L 195.594471 126.807564 
L 195.788597 127.108269 
L 196.031926 127.489528 
L 196.284052 127.889793 
L 196.490674 128.22189 
L 196.582927 128.371375 
L 196.854029 128.815086 
L 196.958138 128.987268 
L 197.165343 129.332976 
L 197.361584 129.664181 
L 197.605337 130.080848 
L 197.716838 130.273441 
L 198.051433 130.859134 
L 198.246225 131.205623 
L 198.332003 131.359525 
L 198.6275 131.896077 
L 198.781665 132.180027 
L 199.018326 132.621474 
L 199.058325 132.696764 
L 199.383721 133.31678 
L 199.55096 133.640805 
L 199.754 134.039276 
L 199.9515 134.432394 
L 200.053009 134.636622 
L 200.281354 135.101611 
L 200.580523 135.722952 
L 200.618352 135.802532 
L 200.805389 136.199457 
L 200.992425 136.602288 
L 201.139121 136.922511 
L 201.285662 137.246271 
L 201.523838 137.781059 
L 201.713875 138.215694 
L 201.80431 138.425094 
L 202.034374 138.965562 
L 202.175387 139.302533 
L 202.316399 139.644018 
L 202.49727 140.08889 
L 202.631276 140.42366 
L 202.774245 140.785868 
L 202.969317 141.288838 
L 203.174335 141.828912 
L 203.364311 142.340445 
L 203.488563 142.681085 
L 203.612816 143.026748 
L 203.762956 143.451417 
L 203.86773 143.752493 
L 203.972505 144.057612 
L 204.110296 144.465282 
L 204.248086 144.880565 
L 204.36219 145.230505 
L 204.476295 145.586182 
L 204.57492 145.898435 
L 204.673546 146.215352 
L 204.735593 146.417207 
L 204.877933 146.88783 
L 205.020274 147.369524 
L 205.119025 147.710604 
L 205.217777 148.057647 
L 205.348789 148.527786 
L 205.479802 149.009718 
L 205.551678 149.279433 
L 205.660371 149.69489 
L 205.769064 150.120009 
L 205.876185 150.549077 
L 205.983305 150.98888 
L 206.05833 151.303726 
L 206.133355 151.624532 
L 206.244681 152.112259 
L 206.300344 152.361695 
L 206.356006 152.615069 
L 206.427454 152.946364 
L 206.498902 153.284873 
L 206.57035 153.631069 
L 206.641798 153.985476 
L 206.709935 154.331647 
L 206.778072 154.686391 
L 206.829137 154.958261 
L 206.880203 155.23561 
L 206.931268 155.51877 
L 206.982334 155.808111 
L 207.047907 156.18938 
L 207.11348 156.582505 
L 207.179053 156.988632 
L 207.244627 157.409103 
L 207.280592 157.646375 
L 207.316557 157.888738 
L 207.352523 158.136526 
L 207.388488 158.390112 
L 207.417662 158.600359 
L 207.446836 158.814944 
L 207.47601 159.034141 
L 207.505184 159.258255 
L 207.536557 159.505138 
L 207.56793 159.75858 
L 207.599303 160.019122 
L 207.630676 160.287387 
L 207.662049 160.564096 
L 207.693422 160.850087 
L 207.724795 161.14635 
L 207.756168 161.454063 
L 207.787055 161.76957 
L 207.817941 162.099217 
L 207.833384 162.269969 
L 207.848828 162.445072 
L 207.864271 162.624873 
L 207.879714 162.809768 
L 207.896126 163.012358 
L 207.912538 163.221854 
L 207.92895 163.439011 
L 207.945362 163.664728 
L 207.961774 163.900101 
L 207.978187 164.146478 
L 207.994599 164.405556 
L 208.002805 164.540515 
L 208.011011 164.679516 
L 208.019217 164.822945 
L 208.027423 164.971252 
L 208.035629 165.124969 
L 208.043835 165.284733 
L 208.052041 165.451319 
L 208.060247 165.625679 
L 208.068453 165.809012 
L 208.076659 166.002861 
L 208.084865 166.209272 
L 208.093071 166.431051 
L 208.101277 166.67224 
L 208.109483 166.939043 
L 208.11769 167.241902 
L 208.125896 167.601178 
L 208.134102 168.069432 
L 208.142308 169.2 
L 208.142308 169.2 
z
" clip-path="url(#p895b85e035)" style="fill: #808080; opacity: 0.5"/>
   </g>
   <g id="patch_5">
    <path d="M 169.2 169.2 
L 169.2 236.650055 
L 169.399851 236.534276 
L 169.533132 236.456621 
L 169.710994 236.352441 
L 169.984861 236.190786 
L 170.212929 236.05501 
L 170.351236 235.972158 
L 170.477996 235.89588 
L 170.758949 235.725646 
L 170.933796 235.618882 
L 171.06935 235.535676 
L 171.394981 235.334233 
L 171.585974 235.215047 
L 171.679967 235.15611 
L 172.022867 234.939512 
L 172.049214 234.922766 
L 172.236347 234.803398 
L 172.624341 234.553503 
L 172.727767 234.486339 
L 173.009879 234.30195 
L 173.067788 234.263884 
L 173.317375 234.098976 
L 173.534561 233.954351 
L 173.68619 233.852756 
L 173.891191 233.714581 
L 174.034185 233.617637 
L 174.294683 233.439838 
L 174.497538 233.300307 
L 174.737918 233.133738 
L 174.894834 233.024282 
L 175.029161 232.930126 
L 175.222608 232.793786 
L 175.412197 232.65931 
L 175.575877 232.542525 
L 175.950847 232.272569 
L 176.026519 232.217678 
L 176.329241 231.996702 
L 176.45363 231.905252 
L 176.582286 231.810265 
L 176.872855 231.59423 
L 177.021169 231.483148 
L 177.244086 231.315152 
L 177.472588 231.141641 
L 177.671292 230.989674 
L 177.781955 230.904601 
L 178.065621 230.685081 
L 178.170656 230.603267 
L 178.346044 230.466008 
L 178.678133 230.203887 
L 178.770149 230.130738 
L 179.039236 229.915519 
L 179.167242 229.812452 
L 179.343279 229.66998 
L 179.568965 229.486082 
L 179.758299 229.330718 
L 179.9089 229.206423 
L 180.1731 228.986833 
L 180.427226 228.773746 
L 180.518818 228.696492 
L 180.781298 228.47376 
L 180.886989 228.383508 
L 181.115687 228.187098 
L 181.376579 227.96115 
L 181.436118 227.909301 
L 181.735397 227.647063 
L 181.871252 227.527127 
L 182.131312 227.295963 
L 182.381203 227.071867 
L 182.472762 226.989271 
L 182.672145 226.808493 
L 182.9377 226.565757 
L 183.063156 226.450295 
L 183.228156 226.297664 
L 183.566946 225.981483 
L 183.610026 225.941006 
L 183.87813 225.687716 
L 183.980819 225.590061 
L 184.290285 225.293602 
L 184.464217 225.125539 
L 184.610771 224.983117 
L 184.86215 224.737073 
L 185.052322 224.549453 
L 185.306364 224.296797 
L 185.38313 224.219991 
L 185.621458 223.980168 
L 185.749172 223.850791 
L 186.009301 223.585397 
L 186.269745 223.317126 
L 186.355473 223.228254 
L 186.689953 222.878797 
L 186.73778 222.828472 
L 187.028505 222.520616 
L 187.111585 222.432022 
L 187.336173 222.191135 
L 187.641507 221.860338 
L 187.854099 221.627734 
L 187.889168 221.589182 
L 188.182273 221.264923 
L 188.373279 221.051634 
L 188.603472 220.792473 
L 188.777422 220.595083 
L 188.940986 220.408245 
L 189.221065 220.085499 
L 189.319437 219.971287 
L 189.486248 219.77659 
L 189.781549 219.428715 
L 189.946133 219.233022 
L 190.095964 219.053731 
L 190.331437 218.769733 
L 190.459009 218.614723 
L 190.630486 218.405072 
L 190.93943 218.023561 
L 191.132293 217.782881 
L 191.344699 217.515535 
L 191.543575 217.26302 
L 191.648039 217.129517 
L 191.852488 216.866493 
L 192.078957 216.572403 
L 192.285914 216.301094 
L 192.555935 215.943367 
L 192.667431 215.794397 
L 192.823458 215.584677 
L 193.046487 215.282324 
L 193.314641 214.914707 
L 193.486766 214.67634 
L 193.747796 214.311197 
L 193.815464 214.215809 
L 193.996092 213.959688 
L 194.332517 213.476744 
L 194.392406 213.389951 
L 194.712381 212.921921 
L 194.828895 212.749663 
L 195.064123 212.398841 
L 195.161359 212.252611 
L 195.384119 211.914891 
L 195.661728 211.488597 
L 195.879736 211.149502 
L 195.964125 211.017198 
L 196.187593 210.663978 
L 196.493674 210.17326 
L 196.556313 210.071827 
L 196.780254 209.706322 
L 196.983185 209.371158 
L 197.170052 209.05912 
L 197.44671 208.590979 
L 197.653171 208.236685 
L 197.806016 207.971605 
L 198.015096 207.605045 
L 198.140665 207.382657 
L 198.454642 206.819002 
L 198.456682 206.815304 
L 198.820801 206.147441 
L 198.960241 205.887507 
L 199.141687 205.545683 
L 199.297583 205.248673 
L 199.58087 204.70085 
L 199.790885 204.287725 
L 199.965801 203.938926 
L 200.057323 203.754666 
L 200.287659 203.285438 
L 200.593274 202.650252 
L 200.788329 202.236989 
L 200.909827 201.97635 
L 201.039922 201.694451 
L 201.311324 201.096626 
L 201.505177 200.661234 
L 201.777989 200.036026 
L 201.868443 199.825377 
L 202.029414 199.446211 
L 202.180238 199.085796 
L 202.331061 198.720211 
L 202.559633 198.155874 
L 202.730041 197.72669 
L 202.909568 197.26632 
L 202.992314 197.051178 
L 203.219222 196.451211 
L 203.431119 195.877012 
L 203.560476 195.519483 
L 203.689834 195.156385 
L 203.808444 194.818357 
L 203.953123 194.399144 
L 204.097801 193.971994 
L 204.146509 193.82633 
L 204.323034 193.290216 
L 204.499559 192.740572 
L 204.523104 192.666186 
L 204.687742 192.138636 
L 204.85238 191.597454 
L 204.976722 191.179079 
L 205.101064 190.751867 
L 205.201465 190.400101 
L 205.301865 190.041915 
L 205.32508 189.958147 
L 205.417755 189.620045 
L 205.510431 189.275823 
L 205.603106 188.925158 
L 205.695782 188.567703 
L 205.767003 188.288147 
L 205.840145 187.99644 
L 205.913287 187.699845 
L 206.013239 187.286197 
L 206.11319 186.862298 
L 206.194942 186.507439 
L 206.276694 186.144755 
L 206.358446 185.773734 
L 206.440198 185.393801 
L 206.508535 185.068908 
L 206.576873 184.736922 
L 206.626868 184.489288 
L 206.676862 184.237411 
L 206.726857 183.981074 
L 206.776852 183.72004 
L 206.842552 183.369422 
L 206.908253 183.009592 
L 206.973954 182.639811 
L 207.039655 182.259234 
L 207.089527 181.96254 
L 207.1394 181.658584 
L 207.198191 181.290202 
L 207.256982 180.909941 
L 207.315773 180.516606 
L 207.374563 180.108781 
L 207.42026 179.780709 
L 207.465957 179.44193 
L 207.506798 179.129199 
L 207.547639 178.806119 
L 207.588479 178.471608 
L 207.62932 178.124381 
L 207.67016 177.762891 
L 207.690581 177.576223 
L 207.711001 177.385248 
L 207.731421 177.189657 
L 207.751842 176.989103 
L 207.772262 176.783192 
L 207.792682 176.571475 
L 207.823728 176.237288 
L 207.839251 176.064043 
L 207.854774 175.886274 
L 207.870297 175.703612 
L 207.885819 175.51563 
L 207.901342 175.32184 
L 207.916865 175.12167 
L 207.930955 174.933892 
L 207.945046 174.739717 
L 207.959136 174.538447 
L 207.973226 174.329246 
L 207.987316 174.111102 
L 208.001406 173.882764 
L 208.015496 173.642661 
L 208.029586 173.38877 
L 208.036632 173.255851 
L 208.043677 173.118413 
L 208.050722 172.975963 
L 208.057767 172.82791 
L 208.064812 172.673538 
L 208.071857 172.511963 
L 208.078902 172.342075 
L 208.085947 172.162444 
L 208.092992 171.971175 
L 208.100037 171.765668 
L 208.107082 171.542177 
L 208.114127 171.294954 
L 208.121172 171.014324 
L 208.128218 170.681423 
L 208.135263 170.247548 
L 208.142308 169.2 
L 208.142308 169.2 
z
" clip-path="url(#p895b85e035)" style="fill: #808080; opacity: 0.5"/>
   </g>
   <g id="patch_6">
    <path d="M 130.257692 169.2 
L 130.257692 169.2 
L 130.266336 168.039679 
L 130.27498 167.559104 
L 130.283623 167.190377 
L 130.292267 166.879552 
L 130.300911 166.605732 
L 130.309554 166.358201 
L 130.318198 166.130591 
L 130.326842 165.918755 
L 130.335485 165.719811 
L 130.344129 165.53166 
L 130.352773 165.35272 
L 130.361416 165.181758 
L 130.37006 165.017798 
L 130.378704 164.860044 
L 130.387347 164.707843 
L 130.395991 164.560649 
L 130.404635 164.418 
L 130.413278 164.279499 
L 130.430566 164.013625 
L 130.447853 163.760786 
L 130.465141 163.519242 
L 130.482428 163.287608 
L 130.499715 163.064762 
L 130.517003 162.849778 
L 130.53429 162.641883 
L 130.55976 162.34715 
L 130.585229 162.064672 
L 130.610699 161.793046 
L 130.636169 161.531119 
L 130.661638 161.27793 
L 130.687108 161.032665 
L 130.712578 160.79463 
L 130.738047 160.563229 
L 130.767444 160.30372 
L 130.796841 160.051664 
L 130.836927 159.718887 
L 130.877014 159.397565 
L 130.917101 159.086605 
L 130.957188 158.78508 
L 130.997274 158.492192 
L 131.037361 158.207252 
L 131.077448 157.929655 
L 131.117535 157.658872 
L 131.167749 157.328577 
L 131.217964 157.007433 
L 131.268179 156.694735 
L 131.318394 156.389865 
L 131.360317 156.140936 
L 131.402239 155.896796 
L 131.458942 155.573748 
L 131.515645 155.258415 
L 131.572347 154.950282 
L 131.62905 154.648895 
L 131.706311 154.248355 
L 131.783572 153.858657 
L 131.840792 153.576557 
L 131.898011 153.299666 
L 131.955231 153.027718 
L 132.012451 152.760467 
L 132.080527 152.448319 
L 132.148603 152.142153 
L 132.212585 151.85957 
L 132.276567 151.581751 
L 132.340549 151.308474 
L 132.404531 151.039534 
L 132.496355 150.660767 
L 132.588179 150.290031 
L 132.723053 149.759082 
L 132.857927 149.243165 
L 132.936258 148.949976 
L 133.01459 148.661271 
L 133.128535 148.248934 
L 133.242479 147.845166 
L 133.340028 147.505938 
L 133.437578 147.172366 
L 133.54466 146.812409 
L 133.651741 146.458654 
L 133.80447 145.964269 
L 133.890716 145.69012 
L 134.059241 145.164348 
L 134.227766 144.650991 
L 134.27235 144.517157 
L 134.461559 143.957959 
L 134.650768 143.412271 
L 134.855796 142.835242 
L 135.047544 142.308201 
L 135.064956 142.260921 
L 135.216354 141.853728 
L 135.367752 141.453336 
L 135.515336 141.0693 
L 135.658575 140.702248 
L 135.826546 140.278658 
L 135.994518 139.862146 
L 136.137961 139.511832 
L 136.348446 139.00638 
L 136.510894 138.622983 
L 136.652628 138.293059 
L 136.808592 137.934773 
L 136.964557 137.581317 
L 137.046483 137.397532 
L 137.210204 137.034025 
L 137.373924 136.675406 
L 137.522998 136.352985 
L 137.735665 135.89958 
L 137.905329 135.543201 
L 138.026633 135.291218 
L 138.274153 134.784099 
L 138.414597 134.500438 
L 138.654205 134.023064 
L 138.87261 133.594912 
L 139.086564 133.181705 
L 139.188315 132.987292 
L 139.498221 132.403225 
L 139.656933 132.10867 
L 139.819881 131.809368 
L 139.994303 131.492404 
L 140.221289 131.085062 
L 140.502253 130.588651 
L 140.545844 130.512386 
L 140.747788 130.161659 
L 141.084816 129.585531 
L 141.165509 129.449255 
L 141.351262 129.137929 
L 141.531443 128.839053 
L 141.736231 128.502995 
L 142.071988 127.960138 
L 142.280067 127.628633 
L 142.359169 127.503573 
L 142.659491 127.033496 
L 142.786613 126.836733 
L 143.016335 126.484418 
L 143.177042 126.240397 
L 143.304408 126.048406 
L 143.573336 125.647029 
L 143.762636 125.367693 
L 144.037498 124.966679 
L 144.141422 124.816445 
L 144.323763 124.554656 
L 144.626509 124.124989 
L 144.765609 123.929619 
L 145.020622 123.574721 
L 145.072508 123.503023 
L 145.40106 123.052961 
L 145.450294 122.986098 
L 145.787841 122.531662 
L 146.008093 122.238817 
L 146.047159 122.187174 
L 146.343319 121.798541 
L 146.539644 121.543676 
L 146.637471 121.417488 
L 146.970528 120.991839 
L 147.141891 120.775188 
L 147.189209 120.715641 
L 147.432129 120.41181 
L 147.738844 120.032583 
L 147.946148 119.778995 
L 148.001856 119.71122 
L 148.295632 119.356357 
L 148.460491 119.159076 
L 148.559879 119.040779 
L 148.803765 118.752496 
L 149.099841 118.406295 
L 149.142789 118.356416 
L 149.375094 118.088084 
L 149.533472 117.906553 
L 149.892995 117.498638 
L 149.949859 117.434643 
L 150.311272 117.031191 
L 150.323643 117.017481 
L 150.618901 116.692182 
L 150.851887 116.438072 
L 150.953019 116.328471 
L 151.263289 115.994826 
L 151.427473 115.819846 
L 151.653126 115.581107 
L 151.735025 115.494956 
L 152.001274 115.216691 
L 152.228135 114.98175 
L 152.390515 114.814791 
L 152.533651 114.668444 
L 152.686816 114.512691 
L 153.039475 114.15737 
L 153.181016 114.016038 
L 153.291792 113.90593 
L 153.543744 113.657132 
L 153.655114 113.547875 
L 153.955386 113.255467 
L 154.111783 113.104405 
L 154.391248 112.836564 
L 154.513321 112.720401 
L 154.695721 112.547765 
L 154.821615 112.429259 
L 155.13702 112.134662 
L 155.283262 111.999173 
L 155.407974 111.884179 
L 155.659617 111.653667 
L 155.875827 111.457223 
L 156.128745 111.229295 
L 156.37921 111.005541 
L 156.454385 110.938761 
L 156.600646 110.80933 
L 156.899279 110.547077 
L 157.153515 110.325928 
L 157.183082 110.300334 
L 157.404783 110.109249 
L 157.687225 109.867901 
L 157.828777 109.747818 
L 158.088688 109.52883 
L 158.315568 109.339251 
L 158.514234 109.174442 
L 158.535907 109.15653 
L 158.921263 108.840228 
L 159.044231 108.740161 
L 159.123079 108.676215 
L 159.458962 108.405714 
L 159.658898 108.246146 
L 159.801404 108.133066 
L 160.055136 107.933066 
L 160.109045 107.890792 
L 160.414984 107.652328 
L 160.653348 107.468225 
L 160.781736 107.369671 
L 161.04431 107.169427 
L 161.263844 107.003352 
L 161.401892 106.899544 
L 161.561303 106.780265 
L 161.675114 106.695495 
L 161.984577 106.466618 
L 162.21844 106.295217 
L 162.344356 106.203485 
L 162.512486 106.081598 
L 162.811488 105.866517 
L 162.861072 105.831056 
L 163.044345 105.700495 
L 163.286183 105.529431 
L 163.448364 105.415482 
L 163.805589 105.166659 
L 163.903118 105.09924 
L 164.028287 105.013035 
L 164.352132 104.791664 
L 164.452414 104.723597 
L 164.663183 104.58128 
L 164.860335 104.449061 
L 165.054267 104.319849 
L 165.336265 104.13345 
L 165.452198 104.057327 
L 165.765735 103.852931 
L 165.870654 103.785012 
L 166.141067 103.611059 
L 166.183903 103.583648 
L 166.551187 103.350232 
L 166.730959 103.237029 
L 166.880938 103.14311 
L 166.9975 103.070445 
L 167.289187 102.889851 
L 167.511149 102.753614 
L 167.64742 102.670478 
L 167.757 102.603902 
L 168.064913 102.418148 
L 168.263195 102.299554 
L 168.35957 102.242199 
L 168.595171 102.102777 
L 168.760634 102.005528 
L 168.908273 101.919216 
L 169.2 101.749945 
L 169.2 169.2 
z
" clip-path="url(#p895b85e035)" style="fill: #808080; opacity: 0.5"/>
   </g>
   <g id="patch_7">
    <path d="M 130.257692 169.2 
L 130.257692 169.2 
L 130.265801 170.323866 
L 130.27391 170.789346 
L 130.282019 171.146492 
L 130.290129 171.447557 
L 130.298238 171.71278 
L 130.306347 171.952541 
L 130.314456 172.173006 
L 130.322565 172.378195 
L 130.330674 172.570897 
L 130.338783 172.753145 
L 130.346892 172.926472 
L 130.355001 173.092072 
L 130.36311 173.250892 
L 130.371219 173.403699 
L 130.379328 173.551129 
L 130.387437 173.69371 
L 130.395546 173.831889 
L 130.403655 173.96605 
L 130.419873 174.223596 
L 130.436092 174.468518 
L 130.45231 174.702501 
L 130.468528 174.926886 
L 130.484746 175.14276 
L 130.500964 175.351021 
L 130.517182 175.552416 
L 130.541856 175.847046 
L 130.56653 176.129072 
L 130.591204 176.399974 
L 130.615878 176.660966 
L 130.640552 176.913052 
L 130.665226 177.15708 
L 130.6899 177.393769 
L 130.714574 177.623738 
L 130.747227 177.918646 
L 130.77988 178.203782 
L 130.812533 178.480046 
L 130.845186 178.748208 
L 130.876341 178.997125 
L 130.907495 179.239775 
L 130.93865 179.476604 
L 130.969805 179.708003 
L 131.008035 179.985051 
L 131.046266 180.255026 
L 131.084496 180.518434 
L 131.122726 180.775724 
L 131.160957 181.027294 
L 131.199187 181.273503 
L 131.237417 181.514671 
L 131.275648 181.75109 
L 131.328695 182.071763 
L 131.381743 182.384425 
L 131.434791 182.689634 
L 131.487839 182.987884 
L 131.54555 183.304962 
L 131.60326 183.614837 
L 131.659342 183.909498 
L 131.715424 184.198161 
L 131.771507 184.481167 
L 131.827589 184.758823 
L 131.924467 185.226668 
L 132.021346 185.680669 
L 132.097141 186.026942 
L 132.172937 186.365898 
L 132.282108 186.842094 
L 132.39128 187.305111 
L 132.464394 187.608332 
L 132.537508 187.906352 
L 132.637895 188.307513 
L 132.738283 188.699906 
L 132.813696 188.98923 
L 132.88911 189.274101 
L 132.964523 189.554706 
L 133.039937 189.831219 
L 133.149892 190.227383 
L 133.241245 190.550506 
L 133.332598 190.868426 
L 133.450682 191.272027 
L 133.568766 191.667759 
L 133.707182 192.122159 
L 133.845598 192.566905 
L 133.942353 192.872348 
L 134.099511 193.359418 
L 134.256668 193.835859 
L 134.36436 194.156518 
L 134.502085 194.560026 
L 134.690067 195.099452 
L 134.822856 195.473016 
L 134.955646 195.84068 
L 135.179671 196.448246 
L 135.32513 196.834615 
L 135.562054 197.451019 
L 135.674982 197.739448 
L 135.860763 198.206751 
L 135.994189 198.537047 
L 136.127616 198.863065 
L 136.350213 199.397821 
L 136.606973 200.001124 
L 136.708502 200.235862 
L 136.882406 200.633099 
L 137.027792 200.96065 
L 137.173177 201.2842 
L 137.356936 201.687606 
L 137.411327 201.805853 
L 137.680498 202.38353 
L 137.952407 202.954868 
L 138.169721 203.403075 
L 138.206441 203.478095 
L 138.394555 203.859259 
L 138.641141 204.351118 
L 138.908158 204.874162 
L 138.982786 205.018624 
L 139.257193 205.543559 
L 139.371901 205.760149 
L 139.721528 206.410352 
L 139.919695 206.772442 
L 140.063117 207.031694 
L 140.189649 207.2585 
L 140.474668 207.762986 
L 140.565775 207.922417 
L 140.884721 208.473788 
L 141.053008 208.760577 
L 141.127918 208.887339 
L 141.42311 209.381612 
L 141.573875 209.630892 
L 141.738509 209.900723 
L 141.948197 210.24087 
L 142.130027 210.5327 
L 142.301939 210.806 
L 142.675935 211.39203 
L 142.855198 211.66889 
L 142.881757 211.70969 
L 143.194081 212.18536 
L 143.328269 212.387426 
L 143.482245 212.617619 
L 143.732708 212.988317 
L 144.017691 213.404602 
L 144.11082 213.539394 
L 144.33873 213.866731 
L 144.534158 214.144595 
L 144.78776 214.501375 
L 144.914671 214.678339 
L 145.11175 214.951088 
L 145.421985 215.375475 
L 145.493387 215.472303 
L 145.676679 215.719443 
L 145.937742 216.067956 
L 146.204268 216.419621 
L 146.206698 216.422807 
L 146.509692 216.817581 
L 146.686929 217.046104 
L 146.93729 217.365954 
L 147.042195 217.49896 
L 147.207198 217.706966 
L 147.568312 218.157169 
L 147.605795 218.203509 
L 147.853297 218.507692 
L 147.982146 218.664818 
L 148.184178 218.909516 
L 148.509351 219.29914 
L 148.5871 219.391539 
L 148.777958 219.617132 
L 149.081749 219.972667 
L 149.289751 220.213625 
L 149.512953 220.469992 
L 149.673173 220.652635 
L 149.84733 220.849869 
L 149.957511 220.973959 
L 150.126291 221.163017 
L 150.395248 221.461748 
L 150.692051 221.787844 
L 150.892537 222.006032 
L 150.98078 222.101541 
L 151.197214 222.334448 
L 151.434219 222.587321 
L 151.495219 222.652041 
L 151.851114 223.026712 
L 152.069818 223.254503 
L 152.129542 223.316387 
L 152.35911 223.552996 
L 152.504619 223.701935 
L 152.670121 223.870374 
L 152.893079 224.095684 
L 153.125773 224.328887 
L 153.352246 224.553974 
L 153.613767 224.811614 
L 153.67498 224.871569 
L 153.892063 225.08313 
L 154.190833 225.371627 
L 154.305572 225.481606 
L 154.530917 225.696302 
L 154.635723 225.795571 
L 154.872732 226.018708 
L 155.201865 226.325501 
L 155.294239 226.410969 
L 155.504387 226.604378 
L 155.631604 226.720773 
L 155.918007 226.980928 
L 156.102766 227.147385 
L 156.314226 227.336591 
L 156.543128 227.539849 
L 156.604855 227.594386 
L 156.880287 227.836325 
L 157.031786 227.968426 
L 157.233084 228.14289 
L 157.544427 228.410369 
L 157.669381 228.51692 
L 157.774164 228.605921 
L 158.018225 228.811993 
L 158.196116 228.961118 
L 158.425838 229.152364 
L 158.668993 229.353175 
L 158.913767 229.553659 
L 158.952096 229.584902 
L 159.246231 229.823321 
L 159.409084 229.95431 
L 159.543564 230.061938 
L 159.845252 230.301618 
L 160.088596 230.493181 
L 160.138499 230.532272 
L 160.345389 230.693641 
L 160.673065 230.946938 
L 160.702861 230.969833 
L 160.930506 231.144 
L 161.154189 231.313847 
L 161.44015 231.529141 
L 161.599606 231.6483 
L 161.735101 231.749057 
L 162.035912 231.971121 
L 162.153139 232.057058 
L 162.349493 232.200249 
L 162.454545 232.276475 
L 162.827519 232.544954 
L 162.907257 232.60192 
L 163.213338 232.819188 
L 163.349773 232.915321 
L 163.521063 233.035396 
L 163.708909 233.166291 
L 163.965886 233.344034 
L 164.17551 233.4879 
L 164.359266 233.613186 
L 164.560229 233.749328 
L 164.607473 233.781201 
L 164.974496 234.027104 
L 165.094532 234.106874 
L 165.198765 234.175884 
L 165.546466 234.404353 
L 165.710088 234.510949 
L 165.827578 234.587131 
L 166.000762 234.698881 
L 166.173342 234.809597 
L 166.416609 234.964576 
L 166.615647 235.090438 
L 166.78436 235.196465 
L 166.978608 235.317797 
L 167.199607 235.454876 
L 167.424194 235.593136 
L 167.537995 235.662795 
L 167.903271 235.88458 
L 167.941075 235.907377 
L 168.135714 236.02429 
L 168.49186 236.236224 
L 168.595223 236.297253 
L 168.762869 236.395782 
L 169.081428 236.581459 
L 169.2 236.650055 
L 169.2 169.2 
z
" clip-path="url(#p895b85e035)" style="fill: #808080; opacity: 0.5"/>
   </g>
   <g id="matplotlib.axis_1"/>
   <g id="matplotlib.axis_2"/>
   <g id="line2d_1">
    <path d="M 169.2 101.749945 
L 172.696068 103.893051 
L 175.961664 106.135269 
L 179.269066 108.669854 
L 182.46731 111.405803 
L 185.483411 114.280665 
L 188.367522 117.341915 
L 191.117341 120.59839 
L 193.622073 123.91238 
L 196.031926 127.489528 
L 198.246225 131.205623 
L 200.053009 134.636622 
L 201.80431 138.425094 
L 203.364311 142.340445 
L 204.735593 146.417207 
L 205.876185 150.549077 
L 206.778072 154.686391 
L 207.446836 158.814944 
L 207.896126 163.012358 
L 208.11769 167.241902 
L 208.142308 169.2 
L 208.142308 169.2 
" clip-path="url(#p895b85e035)" style="fill: none; stroke: #0000ff; stroke-linecap: square"/>
   </g>
   <g id="line2d_2">
    <path d="M 169.2 236.650055 
L 172.727767 234.486339 
L 176.026519 232.217678 
L 179.343279 229.66998 
L 182.472762 226.989271 
L 185.38313 224.219991 
L 188.182273 221.264923 
L 190.93943 218.023561 
L 193.486766 214.67634 
L 195.879736 211.149502 
L 198.015096 207.605045 
L 199.965801 203.938926 
L 201.505177 200.661234 
L 202.992314 197.051178 
L 204.323034 193.290216 
L 205.510431 189.275823 
L 206.508535 185.068908 
L 207.256982 180.909941 
L 207.772262 176.783192 
L 208.064812 172.673538 
L 208.142308 169.2 
L 208.142308 169.2 
" clip-path="url(#p895b85e035)" style="fill: none; stroke: #0000ff; stroke-linecap: square"/>
   </g>
   <g id="line2d_3">
    <path d="M 130.257692 169.2 
L 130.395991 164.560649 
L 130.738047 160.563229 
L 131.318394 156.389865 
L 132.080527 152.448319 
L 133.01459 148.661271 
L 134.27235 144.517157 
L 135.658575 140.702248 
L 137.373924 136.675406 
L 139.188315 132.987292 
L 141.351262 129.137929 
L 143.573336 125.647029 
L 146.047159 122.187174 
L 148.803765 118.752496 
L 151.735025 115.494956 
L 154.821615 112.429259 
L 158.088688 109.52883 
L 161.401892 106.899544 
L 164.860335 104.449061 
L 168.35957 102.242199 
L 169.2 101.749945 
L 169.2 101.749945 
" clip-path="url(#p895b85e035)" style="fill: none; stroke: #0000ff; stroke-linecap: square"/>
   </g>
   <g id="line2d_4">
    <path d="M 130.257692 169.2 
L 130.395546 173.831889 
L 130.747227 177.918646 
L 131.328695 182.071763 
L 132.097141 186.026942 
L 133.149892 190.227383 
L 134.36436 194.156518 
L 135.860763 198.206751 
L 137.411327 201.805853 
L 139.371901 205.760149 
L 141.573875 209.630892 
L 143.732708 212.988317 
L 146.206698 216.422807 
L 148.777958 219.617132 
L 151.495219 222.652041 
L 154.530917 225.696302 
L 157.669381 228.51692 
L 160.930506 231.144 
L 164.359266 233.613186 
L 167.941075 235.907377 
L 169.2 236.650055 
L 169.2 236.650055 
" clip-path="url(#p895b85e035)" style="fill: none; stroke: #0000ff; stroke-linecap: square"/>
   </g>
   <g id="text_1">
    <!-- $\Omega$ -->
    <g transform="translate(17.569231 23.978606) scale(0.1 -0.1)">
     <defs>
      <path id="Cmr10-ad" d="M 494 0 
L 281 1063 
L 469 1063 
Q 503 878 531 736 
Q 559 594 604 536 
Q 650 478 750 459 
Q 850 441 1081 441 
L 1472 441 
Q 1378 803 1004 1386 
Q 631 1969 495 2233 
Q 359 2497 359 2913 
Q 359 3397 646 3761 
Q 934 4125 1389 4319 
Q 1844 4513 2309 4513 
Q 2772 4513 3226 4319 
Q 3681 4125 3968 3758 
Q 4256 3391 4256 2913 
Q 4256 2588 4137 2300 
Q 4019 2013 3834 1725 
Q 3650 1438 3436 1084 
Q 3222 731 3144 441 
L 3531 441 
Q 3766 441 3869 459 
Q 3972 478 4015 536 
Q 4059 594 4086 736 
Q 4113 878 4147 1063 
L 4331 1063 
L 4122 0 
L 2988 0 
Q 2925 0 2925 84 
Q 2925 409 3004 721 
Q 3084 1034 3240 1478 
Q 3397 1922 3484 2261 
Q 3572 2600 3572 2913 
Q 3572 3297 3422 3625 
Q 3272 3953 2984 4150 
Q 2697 4347 2309 4347 
Q 1725 4347 1384 3930 
Q 1044 3513 1044 2913 
Q 1047 2584 1122 2293 
Q 1197 2003 1364 1518 
Q 1531 1034 1611 721 
Q 1691 409 1691 84 
Q 1691 0 1625 0 
L 494 0 
z
" transform="scale(0.015625)"/>
     </defs>
     <use xlink:href="#Cmr10-ad" transform="translate(0 0.484375)"/>
    </g>
   </g>
   <g id="text_2">
    <!-- $A$ -->
    <g style="fill: #0000ff" transform="translate(87.565385 94.07476) scale(0.1 -0.1)">
     <defs>
      <path id="Cmmi10-41" d="M 288 0 
Q 225 0 225 84 
Q 250 225 306 225 
Q 566 225 755 328 
Q 944 431 1081 647 
Q 1094 659 1094 659 
L 3378 4513 
Q 3428 4581 3500 4581 
L 3584 4581 
Q 3603 4581 3622 4573 
Q 3641 4566 3655 4548 
Q 3669 4531 3669 4513 
L 4056 378 
Q 4056 350 4084 294 
Q 4147 225 4563 225 
Q 4628 225 4628 141 
Q 4606 56 4592 28 
Q 4578 0 4519 0 
L 2919 0 
Q 2859 0 2859 84 
Q 2894 225 2944 225 
Q 3450 225 3481 397 
L 3384 1453 
L 1806 1453 
L 1294 594 
Q 1247 525 1247 434 
Q 1247 322 1355 273 
Q 1463 225 1594 225 
Q 1656 225 1656 141 
Q 1634 50 1621 25 
Q 1609 0 1550 0 
L 288 0 
z
M 1931 1678 
L 3359 1678 
L 3169 3750 
L 1931 1678 
z
" transform="scale(0.015625)"/>
     </defs>
     <use xlink:href="#Cmmi10-41" transform="translate(0 0.421875)"/>
    </g>
   </g>
   <g id="text_3">
    <!-- $B$ -->
    <g style="fill: #ff0000" transform="translate(243.284615 94.07476) scale(0.1 -0.1)">
     <defs>
      <path id="Cmmi10-42" d="M 319 0 
Q 256 0 256 84 
Q 259 100 268 137 
Q 278 175 293 200 
Q 309 225 341 225 
Q 522 225 656 234 
Q 791 244 884 269 
Q 959 297 1006 441 
L 1881 3956 
Q 1894 4019 1894 4044 
Q 1894 4113 1819 4122 
Q 1697 4147 1356 4147 
Q 1294 4147 1294 4231 
Q 1297 4247 1306 4286 
Q 1316 4325 1333 4348 
Q 1350 4372 1375 4372 
L 3669 4372 
Q 3878 4372 4083 4320 
Q 4288 4269 4461 4156 
Q 4634 4044 4736 3876 
Q 4838 3709 4838 3488 
Q 4838 3247 4714 3040 
Q 4591 2834 4395 2681 
Q 4200 2528 3973 2429 
Q 3747 2331 3500 2284 
Q 3675 2284 3854 2215 
Q 4034 2147 4175 2028 
Q 4316 1909 4402 1743 
Q 4488 1578 4488 1388 
Q 4488 1003 4219 684 
Q 3950 366 3542 183 
Q 3134 0 2753 0 
L 319 0 
z
M 1497 275 
Q 1497 225 1716 225 
L 2631 225 
Q 2944 225 3231 398 
Q 3519 572 3692 859 
Q 3866 1147 3866 1459 
Q 3866 1650 3786 1820 
Q 3706 1991 3556 2089 
Q 3406 2188 3213 2188 
L 1966 2188 
L 1522 416 
Q 1497 328 1497 275 
z
M 2009 2356 
L 2981 2356 
Q 3288 2356 3577 2512 
Q 3866 2669 4048 2937 
Q 4231 3206 4231 3506 
Q 4231 3784 4057 3965 
Q 3884 4147 3609 4147 
L 2731 4147 
Q 2559 4147 2500 4115 
Q 2441 4084 2400 3928 
L 2009 2356 
z
" transform="scale(0.015625)"/>
     </defs>
     <use xlink:href="#Cmmi10-42" transform="translate(0 0.6875)"/>
    </g>
   </g>
   <g id="text_4">
    <!-- L'ensemble $A\cap B$, coloré en gris -->
    <g transform="translate(89.15 55.323077) scale(0.1 -0.1)">
     <defs>
      <path id="DejaVuSans-4c" d="M 628 4666 
L 1259 4666 
L 1259 531 
L 3531 531 
L 3531 0 
L 628 0 
L 628 4666 
z
" transform="scale(0.015625)"/>
      <path id="DejaVuSans-27" d="M 1147 4666 
L 1147 2931 
L 616 2931 
L 616 4666 
L 1147 4666 
z
" transform="scale(0.015625)"/>
      <path id="DejaVuSans-65" d="M 3597 1894 
L 3597 1613 
L 953 1613 
Q 991 1019 1311 708 
Q 1631 397 2203 397 
Q 2534 397 2845 478 
Q 3156 559 3463 722 
L 3463 178 
Q 3153 47 2828 -22 
Q 2503 -91 2169 -91 
Q 1331 -91 842 396 
Q 353 884 353 1716 
Q 353 2575 817 3079 
Q 1281 3584 2069 3584 
Q 2775 3584 3186 3129 
Q 3597 2675 3597 1894 
z
M 3022 2063 
Q 3016 2534 2758 2815 
Q 2500 3097 2075 3097 
Q 1594 3097 1305 2825 
Q 1016 2553 972 2059 
L 3022 2063 
z
" transform="scale(0.015625)"/>
      <path id="DejaVuSans-6e" d="M 3513 2113 
L 3513 0 
L 2938 0 
L 2938 2094 
Q 2938 2591 2744 2837 
Q 2550 3084 2163 3084 
Q 1697 3084 1428 2787 
Q 1159 2491 1159 1978 
L 1159 0 
L 581 0 
L 581 3500 
L 1159 3500 
L 1159 2956 
Q 1366 3272 1645 3428 
Q 1925 3584 2291 3584 
Q 2894 3584 3203 3211 
Q 3513 2838 3513 2113 
z
" transform="scale(0.015625)"/>
      <path id="DejaVuSans-73" d="M 2834 3397 
L 2834 2853 
Q 2591 2978 2328 3040 
Q 2066 3103 1784 3103 
Q 1356 3103 1142 2972 
Q 928 2841 928 2578 
Q 928 2378 1081 2264 
Q 1234 2150 1697 2047 
L 1894 2003 
Q 2506 1872 2764 1633 
Q 3022 1394 3022 966 
Q 3022 478 2636 193 
Q 2250 -91 1575 -91 
Q 1294 -91 989 -36 
Q 684 19 347 128 
L 347 722 
Q 666 556 975 473 
Q 1284 391 1588 391 
Q 1994 391 2212 530 
Q 2431 669 2431 922 
Q 2431 1156 2273 1281 
Q 2116 1406 1581 1522 
L 1381 1569 
Q 847 1681 609 1914 
Q 372 2147 372 2553 
Q 372 3047 722 3315 
Q 1072 3584 1716 3584 
Q 2034 3584 2315 3537 
Q 2597 3491 2834 3397 
z
" transform="scale(0.015625)"/>
      <path id="DejaVuSans-6d" d="M 3328 2828 
Q 3544 3216 3844 3400 
Q 4144 3584 4550 3584 
Q 5097 3584 5394 3201 
Q 5691 2819 5691 2113 
L 5691 0 
L 5113 0 
L 5113 2094 
Q 5113 2597 4934 2840 
Q 4756 3084 4391 3084 
Q 3944 3084 3684 2787 
Q 3425 2491 3425 1978 
L 3425 0 
L 2847 0 
L 2847 2094 
Q 2847 2600 2669 2842 
Q 2491 3084 2119 3084 
Q 1678 3084 1418 2786 
Q 1159 2488 1159 1978 
L 1159 0 
L 581 0 
L 581 3500 
L 1159 3500 
L 1159 2956 
Q 1356 3278 1631 3431 
Q 1906 3584 2284 3584 
Q 2666 3584 2933 3390 
Q 3200 3197 3328 2828 
z
" transform="scale(0.015625)"/>
      <path id="DejaVuSans-62" d="M 3116 1747 
Q 3116 2381 2855 2742 
Q 2594 3103 2138 3103 
Q 1681 3103 1420 2742 
Q 1159 2381 1159 1747 
Q 1159 1113 1420 752 
Q 1681 391 2138 391 
Q 2594 391 2855 752 
Q 3116 1113 3116 1747 
z
M 1159 2969 
Q 1341 3281 1617 3432 
Q 1894 3584 2278 3584 
Q 2916 3584 3314 3078 
Q 3713 2572 3713 1747 
Q 3713 922 3314 415 
Q 2916 -91 2278 -91 
Q 1894 -91 1617 61 
Q 1341 213 1159 525 
L 1159 0 
L 581 0 
L 581 4863 
L 1159 4863 
L 1159 2969 
z
" transform="scale(0.015625)"/>
      <path id="DejaVuSans-6c" d="M 603 4863 
L 1178 4863 
L 1178 0 
L 603 0 
L 603 4863 
z
" transform="scale(0.015625)"/>
      <path id="DejaVuSans-20" transform="scale(0.015625)"/>
      <path id="Cmsy10-5c" d="M 359 -25 
L 359 2472 
Q 359 2897 625 3206 
Q 891 3516 1306 3672 
Q 1722 3828 2131 3828 
Q 2434 3828 2745 3745 
Q 3056 3663 3320 3489 
Q 3584 3316 3743 3056 
Q 3903 2797 3903 2472 
L 3903 -25 
Q 3903 -75 3865 -108 
Q 3828 -141 3775 -141 
Q 3728 -141 3687 -108 
Q 3647 -75 3647 -25 
L 3647 2450 
Q 3647 2731 3508 2945 
Q 3369 3159 3151 3293 
Q 2934 3428 2662 3500 
Q 2391 3572 2131 3572 
Q 1775 3572 1426 3447 
Q 1078 3322 847 3069 
Q 616 2816 616 2450 
L 616 -25 
Q 616 -75 575 -108 
Q 534 -141 488 -141 
Q 434 -141 396 -108 
Q 359 -75 359 -25 
z
" transform="scale(0.015625)"/>
      <path id="DejaVuSans-2c" d="M 750 794 
L 1409 794 
L 1409 256 
L 897 -744 
L 494 -744 
L 750 256 
L 750 794 
z
" transform="scale(0.015625)"/>
      <path id="DejaVuSans-63" d="M 3122 3366 
L 3122 2828 
Q 2878 2963 2633 3030 
Q 2388 3097 2138 3097 
Q 1578 3097 1268 2742 
Q 959 2388 959 1747 
Q 959 1106 1268 751 
Q 1578 397 2138 397 
Q 2388 397 2633 464 
Q 2878 531 3122 666 
L 3122 134 
Q 2881 22 2623 -34 
Q 2366 -91 2075 -91 
Q 1284 -91 818 406 
Q 353 903 353 1747 
Q 353 2603 823 3093 
Q 1294 3584 2113 3584 
Q 2378 3584 2631 3529 
Q 2884 3475 3122 3366 
z
" transform="scale(0.015625)"/>
      <path id="DejaVuSans-6f" d="M 1959 3097 
Q 1497 3097 1228 2736 
Q 959 2375 959 1747 
Q 959 1119 1226 758 
Q 1494 397 1959 397 
Q 2419 397 2687 759 
Q 2956 1122 2956 1747 
Q 2956 2369 2687 2733 
Q 2419 3097 1959 3097 
z
M 1959 3584 
Q 2709 3584 3137 3096 
Q 3566 2609 3566 1747 
Q 3566 888 3137 398 
Q 2709 -91 1959 -91 
Q 1206 -91 779 398 
Q 353 888 353 1747 
Q 353 2609 779 3096 
Q 1206 3584 1959 3584 
z
" transform="scale(0.015625)"/>
      <path id="DejaVuSans-72" d="M 2631 2963 
Q 2534 3019 2420 3045 
Q 2306 3072 2169 3072 
Q 1681 3072 1420 2755 
Q 1159 2438 1159 1844 
L 1159 0 
L 581 0 
L 581 3500 
L 1159 3500 
L 1159 2956 
Q 1341 3275 1631 3429 
Q 1922 3584 2338 3584 
Q 2397 3584 2469 3576 
Q 2541 3569 2628 3553 
L 2631 2963 
z
" transform="scale(0.015625)"/>
      <path id="DejaVuSans-e9" d="M 3597 1894 
L 3597 1613 
L 953 1613 
Q 991 1019 1311 708 
Q 1631 397 2203 397 
Q 2534 397 2845 478 
Q 3156 559 3463 722 
L 3463 178 
Q 3153 47 2828 -22 
Q 2503 -91 2169 -91 
Q 1331 -91 842 396 
Q 353 884 353 1716 
Q 353 2575 817 3079 
Q 1281 3584 2069 3584 
Q 2775 3584 3186 3129 
Q 3597 2675 3597 1894 
z
M 3022 2063 
Q 3016 2534 2758 2815 
Q 2500 3097 2075 3097 
Q 1594 3097 1305 2825 
Q 1016 2553 972 2059 
L 3022 2063 
z
M 2469 5119 
L 3091 5119 
L 2072 3944 
L 1594 3944 
L 2469 5119 
z
" transform="scale(0.015625)"/>
      <path id="DejaVuSans-67" d="M 2906 1791 
Q 2906 2416 2648 2759 
Q 2391 3103 1925 3103 
Q 1463 3103 1205 2759 
Q 947 2416 947 1791 
Q 947 1169 1205 825 
Q 1463 481 1925 481 
Q 2391 481 2648 825 
Q 2906 1169 2906 1791 
z
M 3481 434 
Q 3481 -459 3084 -895 
Q 2688 -1331 1869 -1331 
Q 1566 -1331 1297 -1286 
Q 1028 -1241 775 -1147 
L 775 -588 
Q 1028 -725 1275 -790 
Q 1522 -856 1778 -856 
Q 2344 -856 2625 -561 
Q 2906 -266 2906 331 
L 2906 616 
Q 2728 306 2450 153 
Q 2172 0 1784 0 
Q 1141 0 747 490 
Q 353 981 353 1791 
Q 353 2603 747 3093 
Q 1141 3584 1784 3584 
Q 2172 3584 2450 3431 
Q 2728 3278 2906 2969 
L 2906 3500 
L 3481 3500 
L 3481 434 
z
" transform="scale(0.015625)"/>
      <path id="DejaVuSans-69" d="M 603 3500 
L 1178 3500 
L 1178 0 
L 603 0 
L 603 3500 
z
M 603 4863 
L 1178 4863 
L 1178 4134 
L 603 4134 
L 603 4863 
z
" transform="scale(0.015625)"/>
     </defs>
     <use xlink:href="#DejaVuSans-4c" transform="translate(0 0.015625)"/>
     <use xlink:href="#DejaVuSans-27" transform="translate(55.712891 0.015625)"/>
     <use xlink:href="#DejaVuSans-65" transform="translate(83.203125 0.015625)"/>
     <use xlink:href="#DejaVuSans-6e" transform="translate(144.726562 0.015625)"/>
     <use xlink:href="#DejaVuSans-73" transform="translate(208.105469 0.015625)"/>
     <use xlink:href="#DejaVuSans-65" transform="translate(260.205078 0.015625)"/>
     <use xlink:href="#DejaVuSans-6d" transform="translate(321.728516 0.015625)"/>
     <use xlink:href="#DejaVuSans-62" transform="translate(419.140625 0.015625)"/>
     <use xlink:href="#DejaVuSans-6c" transform="translate(482.617188 0.015625)"/>
     <use xlink:href="#DejaVuSans-65" transform="translate(510.400391 0.015625)"/>
     <use xlink:href="#DejaVuSans-20" transform="translate(571.923828 0.015625)"/>
     <use xlink:href="#Cmmi10-41" transform="translate(603.710938 0.015625)"/>
     <use xlink:href="#Cmsy10-5c" transform="translate(696.269531 0.015625)"/>
     <use xlink:href="#Cmmi10-42" transform="translate(780.429688 0.015625)"/>
     <use xlink:href="#DejaVuSans-2c" transform="translate(856.210938 0.015625)"/>
     <use xlink:href="#DejaVuSans-20" transform="translate(887.998047 0.015625)"/>
     <use xlink:href="#DejaVuSans-63" transform="translate(919.785156 0.015625)"/>
     <use xlink:href="#DejaVuSans-6f" transform="translate(974.765625 0.015625)"/>
     <use xlink:href="#DejaVuSans-6c" transform="translate(1035.947266 0.015625)"/>
     <use xlink:href="#DejaVuSans-6f" transform="translate(1063.730469 0.015625)"/>
     <use xlink:href="#DejaVuSans-72" transform="translate(1124.912109 0.015625)"/>
     <use xlink:href="#DejaVuSans-e9" transform="translate(1166.025391 0.015625)"/>
     <use xlink:href="#DejaVuSans-20" transform="translate(1227.548828 0.015625)"/>
     <use xlink:href="#DejaVuSans-65" transform="translate(1259.335938 0.015625)"/>
     <use xlink:href="#DejaVuSans-6e" transform="translate(1320.859375 0.015625)"/>
     <use xlink:href="#DejaVuSans-20" transform="translate(1384.238281 0.015625)"/>
     <use xlink:href="#DejaVuSans-67" transform="translate(1416.025391 0.015625)"/>
     <use xlink:href="#DejaVuSans-72" transform="translate(1479.501953 0.015625)"/>
     <use xlink:href="#DejaVuSans-69" transform="translate(1520.615234 0.015625)"/>
     <use xlink:href="#DejaVuSans-73" transform="translate(1548.398438 0.015625)"/>
    </g>
   </g>
   <g id="patch_8">
    <path d="M 130.257692 247.084615 
C 150.912934 247.084615 170.724971 238.878201 185.330432 224.27274 
C 199.935893 209.667278 208.142308 189.855241 208.142308 169.2 
C 208.142308 148.544759 199.935893 128.732722 185.330432 114.12726 
C 170.724971 99.521799 150.912934 91.315385 130.257692 91.315385 
C 109.602451 91.315385 89.790414 99.521799 75.184953 114.12726 
C 60.579491 128.732722 52.373077 148.544759 52.373077 169.2 
C 52.373077 189.855241 60.579491 209.667278 75.184953 224.27274 
C 89.790414 238.878201 109.602451 247.084615 130.257692 247.084615 
L 130.257692 247.084615 
z
" clip-path="url(#p895b85e035)" style="fill: none; stroke: #0000ff; stroke-linejoin: miter"/>
   </g>
   <g id="patch_9">
    <path d="M 208.142308 247.084615 
C 228.797549 247.084615 248.609586 238.878201 263.215047 224.27274 
C 277.820509 209.667278 286.026923 189.855241 286.026923 169.2 
C 286.026923 148.544759 277.820509 128.732722 263.215047 114.12726 
C 248.609586 99.521799 228.797549 91.315385 208.142308 91.315385 
C 187.487066 91.315385 167.675029 99.521799 153.069568 114.12726 
C 138.464107 128.732722 130.257692 148.544759 130.257692 169.2 
C 130.257692 189.855241 138.464107 209.667278 153.069568 224.27274 
C 167.675029 238.878201 187.487066 247.084615 208.142308 247.084615 
L 208.142308 247.084615 
z
" clip-path="url(#p895b85e035)" style="fill: none; stroke: #ff0000; stroke-linejoin: miter"/>
   </g>
  </g>
 </g>
 <defs>
  <clipPath id="p895b85e035">
   <rect x="7.2" y="7.2" width="324" height="324"/>
  </clipPath>
 </defs>
</svg>
