<?xml version="1.0" encoding="utf-8" standalone="no"?>
<!DOCTYPE svg PUBLIC "-//W3C//DTD SVG 1.1//EN"
  "http://www.w3.org/Graphics/SVG/1.1/DTD/svg11.dtd">
<!-- Created with matplotlib (https://matplotlib.org/) -->
<svg height="338.4pt" version="1.1" viewBox="0 0 338.4 338.4" width="338.4pt" xmlns="http://www.w3.org/2000/svg" xmlns:xlink="http://www.w3.org/1999/xlink">
 <metadata>
  <rdf:RDF xmlns:cc="http://creativecommons.org/ns#" xmlns:dc="http://purl.org/dc/elements/1.1/" xmlns:rdf="http://www.w3.org/1999/02/22-rdf-syntax-ns#">
   <cc:Work>
    <dc:type rdf:resource="http://purl.org/dc/dcmitype/StillImage"/>
    <dc:date>2021-08-20T18:31:31.650149</dc:date>
    <dc:format>image/svg+xml</dc:format>
    <dc:creator>
     <cc:Agent>
      <dc:title>Matplotlib v3.3.4, https://matplotlib.org/</dc:title>
     </cc:Agent>
    </dc:creator>
   </cc:Work>
  </rdf:RDF>
 </metadata>
 <defs>
  <style type="text/css">*{stroke-linecap:butt;stroke-linejoin:round;}</style>
 </defs>
 <g id="figure_1">
  <g id="patch_1">
   <path d="M -0 338.4 
L 338.4 338.4 
L 338.4 0 
L -0 0 
z
" style="fill:#ffffff;"/>
  </g>
  <g id="axes_1">
   <g id="patch_2">
    <path d="M 7.2 331.2 
L 331.2 331.2 
L 331.2 7.2 
L 7.2 7.2 
z
" style="fill:#ffffff;"/>
   </g>
   <g id="patch_3">
    <path clip-path="url(#p53414d2309)" d="M 13.430769 324.969231 
L 13.430769 13.430769 
L 324.969231 13.430769 
L 324.969231 324.969231 
z
" style="fill:none;stroke:#000000;stroke-linejoin:miter;"/>
   </g>
   <g id="patch_4">
    <path clip-path="url(#p53414d2309)" d="M 169.2 169.2 
L 169.2 101.749945 
L 169.423924 101.879724 
L 169.683018 102.031131 
L 169.702129 102.042352 
L 170.077283 102.264109 
L 170.203813 102.339542 
L 170.334574 102.41784 
L 170.483193 102.507254 
L 170.753947 102.671309 
L 170.98947 102.815246 
L 171.059712 102.858395 
L 171.359177 103.043509 
L 171.512999 103.139323 
L 171.763432 103.296382 
L 172.007534 103.450749 
L 172.214895 103.58288 
L 172.278793 103.623782 
L 172.576578 103.815558 
L 172.712366 103.903645 
L 172.970067 104.071923 
L 173.035123 104.114635 
L 173.34801 104.32136 
L 173.585604 104.479792 
L 173.639557 104.515944 
L 173.991673 104.753493 
L 174.147614 104.859592 
L 174.250616 104.929976 
L 174.500259 105.101571 
L 174.66861 105.218099 
L 174.778583 105.294573 
L 175.027834 105.468943 
L 175.194414 105.586288 
L 175.54047 105.832159 
L 175.671954 105.926324 
L 175.906456 106.095296 
L 176.013218 106.172663 
L 176.287445 106.372656 
L 176.36275 106.427896 
L 176.731534 106.700437 
L 176.82124 106.767241 
L 176.956195 106.868121 
L 177.156091 107.018382 
L 177.336207 107.154639 
L 177.681633 107.418262 
L 177.753286 107.473329 
L 178.078199 107.724701 
L 178.109113 107.74876 
L 178.450032 108.015756 
L 178.611875 108.143581 
L 178.843054 108.32738 
L 179.002975 108.455364 
L 179.109763 108.541212 
L 179.309677 108.702759 
L 179.492785 108.851686 
L 179.679381 109.004402 
L 179.89372 109.181019 
L 180.168526 109.409348 
L 180.36848 109.576831 
L 180.588788 109.762688 
L 180.657114 109.820613 
L 181.020412 110.130891 
L 181.221559 110.30435 
L 181.286836 110.360899 
L 181.594664 110.629285 
L 181.697973 110.719997 
L 181.990785 110.978866 
L 182.181974 111.149313 
L 182.315622 111.269134 
L 182.547475 111.478323 
L 182.650395 111.571725 
L 182.914847 111.813265 
L 183.134683 112.015761 
L 183.324562 112.191925 
L 183.570357 112.42172 
L 183.669381 112.514863 
L 183.779107 112.618453 
L 184.023393 112.850531 
L 184.194393 113.014187 
L 184.490109 113.299568 
L 184.630294 113.435912 
L 184.926859 113.726623 
L 185.064082 113.862192 
L 185.199309 113.996449 
L 185.382657 114.179535 
L 185.630476 114.428948 
L 185.916546 114.719679 
L 186.119516 114.927816 
L 186.215483 115.026769 
L 186.384162 115.201548 
L 186.626797 115.454885 
L 186.823352 115.661795 
L 187.095952 115.951286 
L 187.159982 116.019714 
L 187.330624 116.202889 
L 187.518846 116.406311 
L 187.835866 116.752243 
L 188.057426 116.996513 
L 188.255746 117.216935 
L 188.298414 117.264579 
L 188.607427 117.612 
L 188.681755 117.696192 
L 188.884987 117.927652 
L 189.155975 118.239176 
L 189.317418 118.426364 
L 189.617229 118.777201 
L 189.761552 118.947597 
L 189.884463 119.093498 
L 190.188734 119.457829 
L 190.357585 119.661972 
L 190.566261 119.916232 
L 190.803122 120.207508 
L 190.937975 120.374632 
L 191.034861 120.495286 
L 191.369756 120.916162 
L 191.437819 121.002434 
L 191.640321 121.260599 
L 191.907217 121.604313 
L 192.015467 121.744857 
L 192.328752 122.155374 
L 192.528902 122.420627 
L 192.672951 122.612997 
L 192.795247 122.777294 
L 193.158131 123.270182 
L 193.18875 123.312145 
L 193.521657 123.77221 
L 193.739084 124.076544 
L 193.867232 124.257373 
L 193.984196 124.423376 
L 194.151718 124.662749 
L 194.429535 125.063984 
L 194.707206 125.47045 
L 194.74759 125.530029 
L 195.090198 126.040302 
L 195.220362 126.23647 
L 195.44297 126.574973 
L 195.596759 126.81109 
L 195.868069 127.232253 
L 196.065136 127.541944 
L 196.121806 127.6316 
L 196.421578 128.11042 
L 196.642957 128.469055 
L 196.809607 128.741923 
L 197.034737 129.114596 
L 197.131503 129.276239 
L 197.338222 129.624556 
L 197.616878 130.100724 
L 197.778385 130.380296 
L 198.050667 130.857779 
L 198.163711 131.058343 
L 198.281147 131.26818 
L 198.572135 131.794783 
L 198.689432 132.009809 
L 198.8826 132.36747 
L 199.226454 133.015429 
L 199.426472 133.399257 
L 199.594878 133.726516 
L 199.785081 134.100777 
L 199.846977 134.223654 
L 200.014296 134.558557 
L 200.181615 134.897546 
L 200.224416 134.984931 
L 200.536066 135.629723 
L 200.800322 136.188627 
L 200.863743 136.324494 
L 201.014503 136.650237 
L 201.165263 136.979979 
L 201.326179 137.336487 
L 201.459711 137.636004 
L 201.616638 137.992401 
L 201.773564 138.353713 
L 201.841003 138.510541 
L 202.04406 138.988567 
L 202.179693 139.312893 
L 202.315325 139.6414 
L 202.502369 140.101547 
L 202.634465 140.431683 
L 202.769919 140.774829 
L 202.905372 141.122822 
L 202.978254 141.312131 
L 203.160585 141.792308 
L 203.342916 142.282284 
L 203.530664 142.797634 
L 203.678945 143.212832 
L 203.830043 143.643738 
L 203.953535 144.002062 
L 204.077027 144.36617 
L 204.209068 144.762173 
L 204.322135 145.107022 
L 204.435203 145.457418 
L 204.598996 145.97536 
L 204.730237 146.399706 
L 204.899226 146.959163 
L 204.98372 147.244724 
L 205.068214 147.534379 
L 205.185192 147.942457 
L 205.302169 148.35918 
L 205.324317 148.439094 
L 205.401224 148.719204 
L 205.478131 149.003491 
L 205.555038 149.292135 
L 205.631945 149.585327 
L 205.747222 150.033774 
L 205.862499 150.493678 
L 205.960408 150.893929 
L 206.058316 151.303665 
L 206.164475 151.759426 
L 206.270635 152.228085 
L 206.337567 152.53069 
L 206.4045 152.839164 
L 206.468975 153.142177 
L 206.53345 153.451283 
L 206.597925 153.766848 
L 206.6624 154.089277 
L 206.686093 154.209575 
L 206.740585 154.490124 
L 206.795077 154.776335 
L 206.849568 155.068551 
L 206.90406 155.367154 
L 206.976088 155.772374 
L 207.048115 156.190609 
L 207.120143 156.623156 
L 207.156157 156.845265 
L 207.192171 157.071548 
L 207.250719 157.448952 
L 207.309268 157.839189 
L 207.367816 158.243628 
L 207.397091 158.451672 
L 207.426365 158.663906 
L 207.460737 158.918792 
L 207.495109 159.180279 
L 207.529481 159.448895 
L 207.563853 159.725249 
L 207.603303 160.052882 
L 207.642754 160.39287 
L 207.682205 160.746706 
L 207.70193 160.929369 
L 207.721656 161.116207 
L 207.741083 161.304592 
L 207.760511 161.497632 
L 207.779938 161.695686 
L 207.799366 161.899163 
L 207.818793 162.108529 
L 207.838221 162.324323 
L 207.857648 162.547168 
L 207.877076 162.777801 
L 207.896503 163.017091 
L 207.915931 163.266087 
L 207.935358 163.526065 
L 207.954786 163.798612 
L 207.964499 163.940206 
L 207.974213 164.085736 
L 207.983927 164.23555 
L 207.993641 164.390048 
L 208.003354 164.549696 
L 208.013068 164.715044 
L 208.022782 164.886748 
L 208.032496 165.0656 
L 208.039359 165.196796 
L 208.046222 165.332452 
L 208.053085 165.473056 
L 208.059949 165.619189 
L 208.066812 165.771559 
L 208.073675 165.931038 
L 208.080538 166.098722 
L 208.087402 166.276022 
L 208.094265 166.464809 
L 208.101128 166.667649 
L 208.10456 166.775432 
L 208.107991 166.88824 
L 208.111423 167.006848 
L 208.114855 167.132253 
L 208.118286 167.265779 
L 208.121718 167.409239 
L 208.12515 167.565249 
L 208.128581 167.737818 
L 208.132013 167.933699 
L 208.135444 168.166058 
L 208.138876 168.468885 
L 208.142308 169.2 
L 208.142308 169.2 
z
" style="fill:#808080;opacity:0.5;"/>
   </g>
   <g id="patch_5">
    <path clip-path="url(#p53414d2309)" d="M 169.2 169.2 
L 169.2 236.650055 
L 169.38225 236.544505 
L 169.49929 236.476373 
L 169.700981 236.358323 
L 170.019237 236.170388 
L 170.247602 236.034276 
L 170.404966 235.939866 
L 170.558576 235.847221 
L 170.69196 235.766383 
L 170.897425 235.641143 
L 171.16039 235.47958 
L 171.265068 235.414866 
L 171.632924 235.185631 
L 171.678344 235.157129 
L 171.960023 234.979396 
L 172.148415 234.859582 
L 172.296715 234.764731 
L 172.559192 234.595691 
L 172.771449 234.457902 
L 172.878613 234.387963 
L 173.161558 234.202089 
L 173.224584 234.160446 
L 173.512495 233.969092 
L 173.745242 233.813051 
L 173.939483 233.681892 
L 174.092386 233.578047 
L 174.284304 233.446952 
L 174.414102 233.357812 
L 174.767392 233.113222 
L 174.844708 233.059309 
L 175.09788 232.881794 
L 175.336936 232.712795 
L 175.386916 232.677291 
L 175.692417 232.458984 
L 175.806034 232.377226 
L 176.03887 232.208706 
L 176.320276 232.003278 
L 176.393883 231.949225 
L 176.605927 231.792767 
L 176.796721 231.651038 
L 177.125099 231.404979 
L 177.182515 231.361679 
L 177.47491 231.139871 
L 177.655307 231.001937 
L 177.846181 230.855081 
L 178.102779 230.656171 
L 178.146458 230.622141 
L 178.400263 230.423412 
L 178.611949 230.256361 
L 178.793082 230.112472 
L 178.92149 230.009934 
L 179.118459 229.851783 
L 179.390952 229.631251 
L 179.663927 229.408282 
L 179.754224 229.334072 
L 179.903818 229.210628 
L 180.200082 228.964295 
L 180.355356 228.834196 
L 180.477773 228.731141 
L 180.744476 228.505126 
L 180.869414 228.398538 
L 181.171411 228.139007 
L 181.287812 228.038255 
L 181.507281 227.847191 
L 181.805632 227.585128 
L 181.931404 227.473844 
L 182.119447 227.306555 
L 182.354407 227.095989 
L 182.559889 226.910428 
L 182.684951 226.796839 
L 182.830748 226.663789 
L 183.040152 226.471505 
L 183.303782 226.227411 
L 183.457196 226.084322 
L 183.595187 225.954955 
L 183.791782 225.769555 
L 184.16597 225.413085 
L 184.222747 225.358581 
L 184.389377 225.197982 
L 184.639828 224.95479 
L 184.844759 224.754166 
L 184.972846 224.628019 
L 185.308119 224.295044 
L 185.396836 224.206256 
L 185.734302 223.865886 
L 185.892946 223.70442 
L 185.974304 223.62125 
L 186.212715 223.37609 
L 186.404073 223.177748 
L 186.631718 222.939953 
L 186.858621 222.700918 
L 187.010683 222.539585 
L 187.148245 222.392841 
L 187.327945 222.199995 
L 187.605662 221.899371 
L 187.769886 221.7201 
L 187.997919 221.469298 
L 188.237241 221.203705 
L 188.374631 221.050118 
L 188.582593 220.816076 
L 188.789428 220.58141 
L 189.017496 220.320434 
L 189.176265 220.137365 
L 189.279151 220.018114 
L 189.528571 219.726986 
L 189.826629 219.375243 
L 189.862387 219.332761 
L 190.092311 219.058116 
L 190.360825 218.734097 
L 190.511148 218.551134 
L 190.703075 218.315873 
L 190.922252 218.044903 
L 191.089087 217.836969 
L 191.247358 217.638352 
L 191.523881 217.288122 
L 191.765877 216.978201 
L 191.982703 216.697751 
L 192.045119 216.616529 
L 192.235458 216.367467 
L 192.394916 216.157201 
L 192.7302 215.710204 
L 192.854936 215.542189 
L 192.990054 215.359117 
L 193.318264 214.909711 
L 193.403044 214.79252 
L 193.599532 214.519142 
L 193.789813 214.252002 
L 194.006663 213.944632 
L 194.326855 213.484937 
L 194.382924 213.403709 
L 194.613867 213.0668 
L 194.800303 212.792027 
L 194.936248 212.590065 
L 195.314801 212.020392 
L 195.396402 211.896157 
L 195.557024 211.650096 
L 195.77362 211.315039 
L 196.082707 210.830286 
L 196.14871 210.725741 
L 196.476086 210.201679 
L 196.652007 209.916192 
L 196.752308 209.752182 
L 197.063998 209.236619 
L 197.120777 209.141723 
L 197.288971 208.858807 
L 197.634467 208.268959 
L 197.675358 208.198355 
L 197.902936 207.802259 
L 198.161693 207.345248 
L 198.420341 206.881117 
L 198.625915 206.506828 
L 198.79517 206.194965 
L 198.860729 206.073252 
L 199.068857 205.683379 
L 199.32863 205.18915 
L 199.483454 204.890435 
L 199.78091 204.307486 
L 199.958783 203.953003 
L 200.121556 203.624611 
L 200.233201 203.397097 
L 200.41457 203.023451 
L 200.595939 202.644647 
L 200.695429 202.434599 
L 200.891226 202.016417 
L 201.177411 201.393272 
L 201.28074 201.164669 
L 201.425572 200.840895 
L 201.614592 200.412277 
L 201.795281 199.995888 
L 201.97597 199.572717 
L 202.0178 199.473756 
L 202.150793 199.156558 
L 202.283787 198.835368 
L 202.485444 198.340439 
L 202.619323 198.006382 
L 202.753203 197.667776 
L 202.884368 197.331465 
L 202.981499 197.079406 
L 203.161673 196.604796 
L 203.338378 196.130035 
L 203.515082 195.645571 
L 203.618845 195.356348 
L 203.826115 194.767568 
L 203.972229 194.343197 
L 204.073713 194.043678 
L 204.175197 193.740085 
L 204.283389 193.411764 
L 204.391581 193.07844 
L 204.539282 192.614924 
L 204.686984 192.141095 
L 204.790961 191.800999 
L 204.894938 191.455222 
L 205.054873 190.911634 
L 205.183512 190.463464 
L 205.30765 190.021077 
L 205.441558 189.532232 
L 205.575466 189.030437 
L 205.703876 188.536151 
L 205.832285 188.028018 
L 205.928236 187.638603 
L 206.024188 187.240274 
L 206.136892 186.760192 
L 206.249597 186.265867 
L 206.344924 185.835699 
L 206.440783 185.391047 
L 206.536642 184.933251 
L 206.625136 184.497939 
L 206.713629 184.049344 
L 206.788426 183.658914 
L 206.863222 183.257246 
L 206.938018 182.843349 
L 207.012814 182.416072 
L 207.054928 182.169111 
L 207.097043 181.917216 
L 207.139157 181.660087 
L 207.181271 181.397393 
L 207.221401 181.14156 
L 207.261531 180.879986 
L 207.301662 180.612278 
L 207.341792 180.337993 
L 207.386207 180.026148 
L 207.430623 179.704862 
L 207.475038 179.373241 
L 207.519453 179.030239 
L 207.549736 178.789229 
L 207.580018 178.541906 
L 207.610301 178.287753 
L 207.640584 178.026181 
L 207.670866 177.756509 
L 207.701149 177.477946 
L 207.731431 177.189562 
L 207.761714 176.890252 
L 207.778807 176.715985 
L 207.795901 176.537539 
L 207.812995 176.354604 
L 207.830089 176.166825 
L 207.847182 175.973799 
L 207.864276 175.775065 
L 207.88137 175.570088 
L 207.898463 175.358244 
L 207.915557 175.138799 
L 207.932651 174.910878 
L 207.949745 174.67342 
L 207.966838 174.425126 
L 207.983932 174.16437 
L 207.992479 174.028692 
L 208.001026 173.889074 
L 208.009573 173.745154 
L 208.018119 173.596508 
L 208.026666 173.44264 
L 208.035213 173.282959 
L 208.041907 173.153393 
L 208.0486 173.019423 
L 208.055293 172.880567 
L 208.061987 172.736251 
L 208.06868 172.585775 
L 208.075374 172.428279 
L 208.082067 172.26268 
L 208.08876 172.087585 
L 208.095454 171.901146 
L 208.102147 171.700829 
L 208.105494 171.594387 
L 208.108841 171.482983 
L 208.112187 171.365851 
L 208.115534 171.242006 
L 208.118881 171.110143 
L 208.122227 170.968467 
L 208.125574 170.8144 
L 208.128921 170.643979 
L 208.132268 170.450536 
L 208.135614 170.221069 
L 208.138961 169.922013 
L 208.142308 169.2 
L 208.142308 169.2 
z
" style="fill:#808080;opacity:0.5;"/>
   </g>
   <g id="patch_6">
    <path clip-path="url(#p53414d2309)" d="M 130.257692 169.2 
L 130.257692 169.2 
L 130.263183 168.275239 
L 130.268673 167.892213 
L 130.274163 167.598323 
L 130.279653 167.350575 
L 130.285144 167.132316 
L 130.290634 166.935006 
L 130.296124 166.75357 
L 130.301614 166.584702 
L 130.307105 166.426107 
L 130.312595 166.276112 
L 130.318085 166.133454 
L 130.323575 165.997154 
L 130.329066 165.866431 
L 130.334556 165.740652 
L 130.340046 165.619298 
L 130.345536 165.501932 
L 130.356517 165.277745 
L 130.367498 165.065726 
L 130.378478 164.86409 
L 130.389459 164.67145 
L 130.400439 164.486702 
L 130.41142 164.308952 
L 130.4224 164.137463 
L 130.433381 163.971618 
L 130.447688 163.763145 
L 130.461995 163.562413 
L 130.476303 163.36862 
L 130.49061 163.181099 
L 130.504917 162.999278 
L 130.519225 162.822672 
L 130.533532 162.650857 
L 130.547839 162.483467 
L 130.576454 162.160704 
L 130.605069 161.852217 
L 130.633684 161.556277 
L 130.662298 161.271478 
L 130.69002 161.005099 
L 130.717741 160.747201 
L 130.745463 160.497031 
L 130.773184 160.253939 
L 130.800905 160.017365 
L 130.828627 159.786815 
L 130.856348 159.561859 
L 130.88407 159.342112 
L 130.91524 159.100822 
L 130.946411 158.865258 
L 130.985279 158.578971 
L 131.024147 158.30034 
L 131.063015 158.028792 
L 131.101882 157.763822 
L 131.14075 157.504982 
L 131.179618 157.251875 
L 131.218486 157.004144 
L 131.257353 156.761467 
L 131.318996 156.386252 
L 131.380639 156.022004 
L 131.442282 155.667837 
L 131.503925 155.32298 
L 131.558121 155.026939 
L 131.612317 154.737159 
L 131.666512 154.453271 
L 131.720708 154.174942 
L 131.774549 153.903637 
L 131.832652 153.616361 
L 131.890756 153.334498 
L 131.948859 153.057766 
L 132.006963 152.785904 
L 132.06825 152.504161 
L 132.129537 152.227317 
L 132.223238 151.812988 
L 132.316939 151.408799 
L 132.439467 150.894448 
L 132.561995 150.394957 
L 132.657507 150.015157 
L 132.753019 149.643198 
L 132.864251 149.219321 
L 132.975483 148.804858 
L 133.052607 148.522713 
L 133.129731 148.244651 
L 133.283979 147.700143 
L 133.335032 147.523175 
L 133.495348 146.977384 
L 133.655664 146.44581 
L 133.770636 146.072791 
L 133.907701 145.636545 
L 134.041241 145.2199 
L 134.174781 144.811102 
L 134.309393 144.406573 
L 134.444005 144.009258 
L 134.543453 143.720167 
L 134.745753 143.143157 
L 134.905446 142.697634 
L 135.086154 142.203487 
L 135.291804 141.653359 
L 135.454772 141.226165 
L 135.597249 140.858726 
L 135.739727 140.496697 
L 135.928283 140.02556 
L 136.057969 139.706587 
L 136.201713 139.357679 
L 136.345457 139.013487 
L 136.51197 138.620464 
L 136.67272 138.246626 
L 136.8593 137.819335 
L 137.135302 137.199711 
L 137.27102 136.900248 
L 137.442067 136.527546 
L 137.739475 135.891527 
L 137.901738 135.550695 
L 138.117304 135.104367 
L 138.341336 134.648045 
L 138.465389 134.39856 
L 138.768134 133.798908 
L 138.835451 133.667298 
L 139.112787 133.131474 
L 139.343631 132.693077 
L 139.402053 132.583191 
L 139.636882 132.145715 
L 139.854109 131.746892 
L 139.980027 131.518217 
L 140.306235 130.934082 
L 140.394277 130.778422 
L 140.596782 130.423522 
L 140.737328 130.179724 
L 141.051348 129.64224 
L 141.124018 129.519248 
L 141.397977 129.06015 
L 141.690991 128.576905 
L 141.883181 128.264179 
L 142.043963 128.005071 
L 142.138849 127.853213 
L 142.345461 127.525208 
L 142.629069 127.080777 
L 142.759566 126.878487 
L 143.026084 126.469557 
L 143.250261 126.129876 
L 143.393621 125.914657 
L 143.59025 125.621964 
L 143.683055 125.484807 
L 144.039087 124.964377 
L 144.158836 124.791344 
L 144.309158 124.575541 
L 144.511541 124.287431 
L 144.663901 124.072346 
L 144.894646 123.749515 
L 145.078018 123.495419 
L 145.346598 123.1271 
L 145.563378 122.833084 
L 145.66196 122.700328 
L 145.858318 122.437644 
L 146.16033 122.038069 
L 146.349867 121.790006 
L 146.526528 121.560636 
L 146.657945 121.391146 
L 146.948099 121.020314 
L 147.055472 120.884248 
L 147.322782 120.54819 
L 147.457784 120.379903 
L 147.605334 120.19706 
L 147.798467 119.959426 
L 147.98844 119.727527 
L 148.307951 119.34157 
L 148.499998 119.111996 
L 148.67299 118.906724 
L 148.863464 118.68236 
L 148.995484 118.527853 
L 149.180408 118.312795 
L 149.430072 118.024941 
L 149.611412 117.817633 
L 149.847045 117.550453 
L 149.952361 117.431831 
L 150.273765 117.072799 
L 150.339928 116.999443 
L 150.578063 116.736956 
L 150.816251 116.476793 
L 151.056 116.217297 
L 151.259187 115.999211 
L 151.33455 115.918747 
L 151.606033 115.630765 
L 151.850195 115.37425 
L 151.95952 115.260147 
L 152.164787 115.047156 
L 152.431002 114.773318 
L 152.527605 114.67461 
L 152.727271 114.471699 
L 153.028683 114.168176 
L 153.095267 114.101573 
L 153.432235 113.766966 
L 153.591657 113.610075 
L 153.767137 113.438417 
L 153.974785 113.236683 
L 154.218614 113.001703 
L 154.42006 112.809102 
L 154.46091 112.770213 
L 154.784165 112.464456 
L 154.958983 112.300551 
L 155.025707 112.238258 
L 155.242076 112.03726 
L 155.515805 111.785154 
L 155.625058 111.685204 
L 155.957789 111.38314 
L 156.016781 111.329949 
L 156.33076 111.048673 
L 156.506252 110.892787 
L 156.643892 110.771184 
L 156.783711 110.648246 
L 157.041981 110.422709 
L 157.322667 110.179856 
L 157.500387 110.027293 
L 157.607415 109.935863 
L 157.771299 109.796508 
L 157.953963 109.642101 
L 158.265716 109.380781 
L 158.532508 109.159338 
L 158.66903 109.046795 
L 158.755444 108.975827 
L 159.097761 108.69673 
L 159.26755 108.559491 
L 159.346512 108.495934 
L 159.56607 108.320099 
L 159.787425 108.144135 
L 159.933383 108.028823 
L 160.225881 107.799435 
L 160.344071 107.707384 
L 160.648494 107.471959 
L 160.858798 107.310719 
L 161.035104 107.176419 
L 161.241538 107.020171 
L 161.446992 106.865733 
L 161.645568 106.717471 
L 161.812198 106.593816 
L 161.96245 106.482904 
L 162.205013 106.305022 
L 162.423599 106.145951 
L 162.591843 106.024305 
L 162.771062 105.895471 
L 163.006872 105.727126 
L 163.10772 105.655533 
L 163.307138 105.514673 
L 163.521573 105.364247 
L 163.693391 105.244491 
L 163.81878 105.157528 
L 164.021848 105.017461 
L 164.292229 104.832431 
L 164.514283 104.681717 
L 164.644899 104.593586 
L 164.927504 104.404213 
L 165.072655 104.30764 
L 165.297965 104.158662 
L 165.577008 103.975706 
L 165.584184 103.971023 
L 165.834 103.808713 
L 166.016568 103.690952 
L 166.212968 103.565072 
L 166.477053 103.397114 
L 166.592506 103.324152 
L 166.907865 103.126298 
L 167.03392 103.047798 
L 167.327627 102.866184 
L 167.479633 102.772896 
L 167.72481 102.623434 
L 167.865137 102.538446 
L 168.085016 102.406088 
L 168.128894 102.379793 
L 168.338542 102.254697 
L 168.528358 102.142202 
L 168.798438 101.983386 
L 169.021013 101.8536 
L 169.2 101.749945 
L 169.2 169.2 
z
" style="fill:#808080;opacity:0.5;"/>
   </g>
   <g id="patch_7">
    <path clip-path="url(#p53414d2309)" d="M 130.257692 169.2 
L 130.257692 169.2 
L 130.26597 170.335496 
L 130.274248 170.805791 
L 130.282526 171.166632 
L 130.290803 171.470811 
L 130.299081 171.738776 
L 130.307359 171.981016 
L 130.315637 172.203761 
L 130.323914 172.41107 
L 130.332192 172.605764 
L 130.34047 172.789895 
L 130.348748 172.965013 
L 130.357025 173.132323 
L 130.365303 173.292783 
L 130.373581 173.447169 
L 130.381859 173.59612 
L 130.390136 173.740173 
L 130.398414 173.879779 
L 130.406692 174.015324 
L 130.423247 174.275528 
L 130.439803 174.522975 
L 130.456358 174.75937 
L 130.472914 174.986068 
L 130.489469 175.204167 
L 130.506025 175.414573 
L 130.52258 175.618042 
L 130.539016 175.813806 
L 130.555451 176.0039 
L 130.571887 176.188787 
L 130.588322 176.368869 
L 130.604758 176.544501 
L 130.621193 176.715993 
L 130.654064 177.047641 
L 130.681555 177.314504 
L 130.709046 177.572775 
L 130.736537 177.823227 
L 130.764028 178.066522 
L 130.79152 178.303235 
L 130.819011 178.533865 
L 130.846502 178.758853 
L 130.873993 178.978588 
L 130.923876 179.364995 
L 130.973759 179.737005 
L 131.023643 180.096094 
L 131.073526 180.443499 
L 131.128544 180.81437 
L 131.183563 181.173506 
L 131.219308 181.401042 
L 131.255053 181.624309 
L 131.326544 182.05892 
L 131.398035 182.47893 
L 131.469526 182.885682 
L 131.527988 183.209257 
L 131.586449 183.525286 
L 131.644911 183.834259 
L 131.703372 184.136614 
L 131.759977 184.423429 
L 131.816581 184.704734 
L 131.886978 185.047333 
L 131.957374 185.382375 
L 132.027771 185.710319 
L 132.098168 186.031581 
L 132.148261 186.256325 
L 132.235674 186.641223 
L 132.323086 187.017379 
L 132.403664 187.356848 
L 132.484241 187.689735 
L 132.564819 188.016388 
L 132.645396 188.337127 
L 132.753294 188.757862 
L 132.861193 189.169152 
L 132.932627 189.436534 
L 133.010214 189.722714 
L 133.0878 190.004669 
L 133.242973 190.556569 
L 133.342249 190.901717 
L 133.447037 191.259689 
L 133.551825 191.611454 
L 133.683309 192.044492 
L 133.814793 192.46873 
L 133.941874 192.870847 
L 134.068956 193.265575 
L 134.189203 193.632593 
L 134.308243 193.990002 
L 134.427284 194.341769 
L 134.540154 194.670301 
L 134.653024 194.994155 
L 134.8028 195.416979 
L 135.001482 195.966266 
L 135.191285 196.479325 
L 135.351727 196.904597 
L 135.526688 197.359992 
L 135.648944 197.673243 
L 135.7712 197.982567 
L 135.839687 198.154177 
L 136.055892 198.688338 
L 136.283965 199.239838 
L 136.482752 199.711005 
L 136.739428 200.306945 
L 136.972155 200.835782 
L 137.100591 201.123155 
L 137.279014 201.517284 
L 137.522291 202.045495 
L 137.64309 202.303982 
L 137.869422 202.781764 
L 137.987472 203.027685 
L 138.270552 203.608591 
L 138.533818 204.138109 
L 138.670992 204.410077 
L 138.871118 204.802185 
L 138.995568 205.043295 
L 139.240438 205.511785 
L 139.530131 206.056241 
L 139.733931 206.433149 
L 139.832912 206.614433 
L 139.969293 206.862361 
L 140.174521 207.231478 
L 140.451202 207.721779 
L 140.566676 207.923989 
L 140.787406 208.306656 
L 140.988257 208.650561 
L 141.295035 209.16818 
L 141.409366 209.358782 
L 141.638536 209.737164 
L 141.886358 210.140963 
L 142.059328 210.419572 
L 142.156693 210.575259 
L 142.296744 210.797778 
L 142.654593 211.358897 
L 142.699473 211.42853 
L 142.955043 211.821988 
L 143.103099 212.047574 
L 143.318861 212.373303 
L 143.642804 212.855782 
L 143.76918 213.041918 
L 143.900628 213.234304 
L 144.198904 213.66633 
L 144.288194 213.794456 
L 144.507929 214.107451 
L 144.801188 214.520149 
L 144.895857 214.65217 
L 145.222793 215.103682 
L 145.382229 215.321424 
L 145.423864 215.378027 
L 145.731209 215.792576 
L 145.916453 216.039688 
L 146.095343 216.276401 
L 146.279817 216.518554 
L 146.502545 216.808329 
L 146.775512 217.159667 
L 146.8097 217.20338 
L 147.039246 217.495229 
L 147.332267 217.863665 
L 147.407717 217.957798 
L 147.585734 218.178717 
L 147.964284 218.643086 
L 148.069067 218.770345 
L 148.319378 219.07214 
L 148.390669 219.157532 
L 148.588439 219.393127 
L 148.797097 219.63966 
L 149.120975 220.018261 
L 149.276675 220.198535 
L 149.348311 220.281104 
L 149.643135 220.61848 
L 149.909158 220.919567 
L 150.116573 221.152165 
L 150.22958 221.278108 
L 150.36102 221.423903 
L 150.540198 221.621467 
L 150.717918 221.816089 
L 150.934166 222.051129 
L 151.113087 222.244145 
L 151.302908 222.447497 
L 151.629186 222.79366 
L 151.750486 222.921279 
L 152.009058 223.191403 
L 152.100584 223.286398 
L 152.312608 223.505229 
L 152.61036 223.80967 
L 152.713436 223.91429 
L 153.006123 224.209221 
L 153.056189 224.259357 
L 153.3442 224.546009 
L 153.46647 224.666802 
L 153.767025 224.961474 
L 154.014171 225.201412 
L 154.077187 225.262252 
L 154.377647 225.550462 
L 154.436503 225.606559 
L 154.699802 225.856084 
L 154.996165 226.134179 
L 155.074079 226.206811 
L 155.258715 226.378133 
L 155.436091 226.541678 
L 155.621998 226.712002 
L 155.91481 226.978039 
L 156.018819 227.071887 
L 156.363366 227.380362 
L 156.437921 227.446628 
L 156.74604 227.718689 
L 156.961875 227.907552 
L 157.002659 227.943082 
L 157.226822 228.137481 
L 157.440484 228.321387 
L 157.594131 228.452807 
L 157.7816 228.612225 
L 158.002573 228.798829 
L 158.273092 229.025368 
L 158.475334 229.193375 
L 158.537668 229.244925 
L 158.91762 229.556801 
L 159.091617 229.69829 
L 159.16373 229.756686 
L 159.38457 229.934639 
L 159.651533 230.147995 
L 159.755655 230.23069 
L 160.059073 230.470024 
L 160.269255 230.634389 
L 160.332494 230.683616 
L 160.585175 230.879271 
L 160.878505 231.104331 
L 161.022422 231.213948 
L 161.194781 231.344533 
L 161.447201 231.534423 
L 161.546024 231.60833 
L 161.731382 231.746297 
L 161.946858 231.905612 
L 162.228031 232.111783 
L 162.253223 232.130162 
L 162.584878 232.370673 
L 162.780197 232.511075 
L 162.874972 232.578873 
L 163.047695 232.701884 
L 163.353232 232.917752 
L 163.548088 233.054278 
L 163.742347 233.189505 
L 163.893322 233.293998 
L 164.176746 233.488745 
L 164.262169 233.54708 
L 164.464056 233.68429 
L 164.724266 233.859779 
L 164.856109 233.948114 
L 165.175648 234.160599 
L 165.379651 234.295073 
L 165.562163 234.414604 
L 165.585786 234.430022 
L 165.947961 234.664879 
L 166.098726 234.761807 
L 166.200135 234.826728 
L 166.500654 235.017825 
L 166.752974 235.176786 
L 166.871882 235.251232 
L 167.083166 235.382778 
L 167.158675 235.429564 
L 167.53534 235.661173 
L 167.564454 235.678952 
L 167.843451 235.848447 
L 168.011709 235.949894 
L 168.233503 236.082738 
L 168.48649 236.233047 
L 168.60878 236.305242 
L 168.836214 236.438712 
L 168.924299 236.490126 
L 169.2 236.650055 
L 169.2 169.2 
z
" style="fill:#808080;opacity:0.5;"/>
   </g>
   <g id="matplotlib.axis_1"/>
   <g id="matplotlib.axis_2"/>
   <g id="line2d_1">
    <path clip-path="url(#p53414d2309)" d="M 169.2 101.749945 
L 172.712366 103.903645 
L 176.013218 106.172663 
L 179.309677 108.702759 
L 182.547475 111.478323 
L 185.382657 114.179535 
L 188.298414 117.264579 
L 191.034861 120.495286 
L 193.521657 123.77221 
L 195.868069 127.232253 
L 198.050667 130.857779 
L 200.014296 134.558557 
L 201.773564 138.353713 
L 203.342916 142.282284 
L 204.730237 146.399706 
L 205.862499 150.493678 
L 206.740585 154.490124 
L 207.426365 158.663906 
L 207.877076 162.777801 
L 208.111423 167.006848 
L 208.142308 169.2 
L 208.142308 169.2 
" style="fill:none;stroke:#0000ff;stroke-linecap:square;"/>
   </g>
   <g id="line2d_2">
    <path clip-path="url(#p53414d2309)" d="M 169.2 236.650055 
L 172.771449 234.457902 
L 176.03887 232.208706 
L 179.390952 229.631251 
L 182.559889 226.910428 
L 185.396836 224.206256 
L 188.374631 221.050118 
L 191.089087 217.836969 
L 193.599532 214.519142 
L 195.77362 211.315039 
L 197.902936 207.802259 
L 199.958783 203.953003 
L 201.614592 200.412277 
L 203.161673 196.604796 
L 204.539282 192.614924 
L 205.703876 188.536151 
L 206.625136 184.497939 
L 207.341792 180.337993 
L 207.830089 176.166825 
L 208.08876 172.087585 
L 208.142308 169.2 
L 208.142308 169.2 
" style="fill:none;stroke:#0000ff;stroke-linecap:square;"/>
   </g>
   <g id="line2d_3">
    <path clip-path="url(#p53414d2309)" d="M 130.257692 169.2 
L 130.389459 164.67145 
L 130.745463 160.497031 
L 131.318996 156.386252 
L 132.129537 152.227317 
L 133.129731 148.244651 
L 134.444005 144.009258 
L 135.928283 140.02556 
L 137.442067 136.527546 
L 139.402053 132.583191 
L 141.397977 129.06015 
L 143.683055 125.484807 
L 146.16033 122.038069 
L 148.863464 118.68236 
L 151.606033 115.630765 
L 154.46091 112.770213 
L 157.607415 109.935863 
L 160.858798 107.310719 
L 164.292229 104.832431 
L 167.865137 102.538446 
L 169.2 101.749945 
L 169.2 101.749945 
" style="fill:none;stroke:#0000ff;stroke-linecap:square;"/>
   </g>
   <g id="line2d_4">
    <path clip-path="url(#p53414d2309)" d="M 130.257692 169.2 
L 130.398414 173.879779 
L 130.764028 178.066522 
L 131.326544 182.05892 
L 132.148261 186.256325 
L 133.0878 190.004669 
L 134.308243 193.990002 
L 135.7712 197.982567 
L 137.279014 201.517284 
L 139.240438 205.511785 
L 141.409366 209.358782 
L 143.76918 213.041918 
L 146.095343 216.276401 
L 148.797097 219.63966 
L 151.750486 222.921279 
L 154.699802 225.856084 
L 157.7816 228.612225 
L 161.022422 231.213948 
L 164.464056 233.68429 
L 168.011709 235.949894 
L 169.2 236.650055 
L 169.2 236.650055 
" style="fill:none;stroke:#0000ff;stroke-linecap:square;"/>
   </g>
   <g id="text_1">
    <!-- $\Omega$ -->
    <g transform="translate(17.569231 23.978606)scale(0.1 -0.1)">
     <defs>
      <path d="M 7.71875 0 
L 4.390625 16.609375 
L 7.328125 16.609375 
Q 7.859375 13.71875 8.296875 11.5 
Q 8.734375 9.28125 9.4375 8.375 
Q 10.15625 7.46875 11.71875 7.171875 
Q 13.28125 6.890625 16.890625 6.890625 
L 23 6.890625 
Q 21.53125 12.546875 15.6875 21.65625 
Q 9.859375 30.765625 7.734375 34.890625 
Q 5.609375 39.015625 5.609375 45.515625 
Q 5.609375 53.078125 10.09375 58.765625 
Q 14.59375 64.453125 21.703125 67.484375 
Q 28.8125 70.515625 36.078125 70.515625 
Q 43.3125 70.515625 50.40625 67.484375 
Q 57.515625 64.453125 62 58.71875 
Q 66.5 52.984375 66.5 45.515625 
Q 66.5 40.4375 64.640625 35.9375 
Q 62.796875 31.453125 59.90625 26.953125 
Q 57.03125 22.46875 53.6875 16.9375 
Q 50.34375 11.421875 49.125 6.890625 
L 55.171875 6.890625 
Q 58.84375 6.890625 60.453125 7.171875 
Q 62.0625 7.46875 62.734375 8.375 
Q 63.421875 9.28125 63.84375 11.5 
Q 64.265625 13.71875 64.796875 16.609375 
L 67.671875 16.609375 
L 64.40625 0 
L 46.6875 0 
Q 45.703125 0 45.703125 1.3125 
Q 45.703125 6.390625 46.9375 11.265625 
Q 48.1875 16.15625 50.625 23.09375 
Q 53.078125 30.03125 54.4375 35.328125 
Q 55.8125 40.625 55.8125 45.515625 
Q 55.8125 51.515625 53.46875 56.640625 
Q 51.125 61.765625 46.625 64.84375 
Q 42.140625 67.921875 36.078125 67.921875 
Q 26.953125 67.921875 21.625 61.40625 
Q 16.3125 54.890625 16.3125 45.515625 
Q 16.359375 40.375 17.53125 35.828125 
Q 18.703125 31.296875 21.3125 23.71875 
Q 23.921875 16.15625 25.171875 11.265625 
Q 26.421875 6.390625 26.421875 1.3125 
Q 26.421875 0 25.390625 0 
z
" id="Cmr10-173"/>
     </defs>
     <use transform="translate(0 0.484375)" xlink:href="#Cmr10-173"/>
    </g>
   </g>
   <g id="text_2">
    <!-- $A$ -->
    <g style="fill:#0000ff;" transform="translate(87.565385 94.07476)scale(0.1 -0.1)">
     <defs>
      <path d="M 4.5 0 
Q 3.515625 0 3.515625 1.3125 
Q 3.90625 3.515625 4.78125 3.515625 
Q 8.84375 3.515625 11.796875 5.125 
Q 14.75 6.734375 16.890625 10.109375 
Q 17.09375 10.296875 17.09375 10.296875 
L 52.78125 70.515625 
Q 53.5625 71.578125 54.6875 71.578125 
L 56 71.578125 
Q 56.296875 71.578125 56.59375 71.453125 
Q 56.890625 71.34375 57.109375 71.0625 
Q 57.328125 70.796875 57.328125 70.515625 
L 63.375 5.90625 
Q 63.375 5.46875 63.8125 4.59375 
Q 64.796875 3.515625 71.296875 3.515625 
Q 72.3125 3.515625 72.3125 2.203125 
Q 71.96875 0.875 71.75 0.4375 
Q 71.53125 0 70.609375 0 
L 45.609375 0 
Q 44.671875 0 44.671875 1.3125 
Q 45.21875 3.515625 46 3.515625 
Q 53.90625 3.515625 54.390625 6.203125 
L 52.875 22.703125 
L 28.21875 22.703125 
L 20.21875 9.28125 
Q 19.484375 8.203125 19.484375 6.78125 
Q 19.484375 5.03125 21.171875 4.265625 
Q 22.859375 3.515625 24.90625 3.515625 
Q 25.875 3.515625 25.875 2.203125 
Q 25.53125 0.78125 25.328125 0.390625 
Q 25.140625 0 24.21875 0 
z
M 30.171875 26.21875 
L 52.484375 26.21875 
L 49.515625 58.59375 
z
" id="Cmmi10-65"/>
     </defs>
     <use transform="translate(0 0.421875)" xlink:href="#Cmmi10-65"/>
    </g>
   </g>
   <g id="text_3">
    <!-- $B$ -->
    <g style="fill:#ff0000;" transform="translate(243.284615 94.07476)scale(0.1 -0.1)">
     <defs>
      <path d="M 4.984375 0 
Q 4 0 4 1.3125 
Q 4.046875 1.5625 4.1875 2.140625 
Q 4.34375 2.734375 4.578125 3.125 
Q 4.828125 3.515625 5.328125 3.515625 
Q 8.15625 3.515625 10.25 3.65625 
Q 12.359375 3.8125 13.8125 4.203125 
Q 14.984375 4.640625 15.71875 6.890625 
L 29.390625 61.8125 
Q 29.59375 62.796875 29.59375 63.1875 
Q 29.59375 64.265625 28.421875 64.40625 
Q 26.515625 64.796875 21.1875 64.796875 
Q 20.21875 64.796875 20.21875 66.109375 
Q 20.265625 66.359375 20.40625 66.96875 
Q 20.5625 67.578125 20.828125 67.9375 
Q 21.09375 68.3125 21.484375 68.3125 
L 57.328125 68.3125 
Q 60.59375 68.3125 63.796875 67.5 
Q 67 66.703125 69.703125 64.9375 
Q 72.40625 63.1875 74 60.5625 
Q 75.59375 57.953125 75.59375 54.5 
Q 75.59375 50.734375 73.65625 47.5 
Q 71.734375 44.28125 68.671875 41.890625 
Q 65.625 39.5 62.078125 37.953125 
Q 58.546875 36.421875 54.6875 35.6875 
Q 57.421875 35.6875 60.21875 34.609375 
Q 63.03125 33.546875 65.234375 31.6875 
Q 67.4375 29.828125 68.78125 27.234375 
Q 70.125 24.65625 70.125 21.6875 
Q 70.125 15.671875 65.921875 10.6875 
Q 61.71875 5.71875 55.34375 2.859375 
Q 48.96875 0 43.015625 0 
z
M 23.390625 4.296875 
Q 23.390625 3.515625 26.8125 3.515625 
L 41.109375 3.515625 
Q 46 3.515625 50.484375 6.21875 
Q 54.984375 8.9375 57.6875 13.421875 
Q 60.40625 17.921875 60.40625 22.796875 
Q 60.40625 25.78125 59.15625 28.4375 
Q 57.90625 31.109375 55.5625 32.640625 
Q 53.21875 34.1875 50.203125 34.1875 
L 30.71875 34.1875 
L 23.78125 6.5 
Q 23.390625 5.125 23.390625 4.296875 
z
M 31.390625 36.8125 
L 46.578125 36.8125 
Q 51.375 36.8125 55.890625 39.25 
Q 60.40625 41.703125 63.25 45.890625 
Q 66.109375 50.09375 66.109375 54.78125 
Q 66.109375 59.125 63.390625 61.953125 
Q 60.6875 64.796875 56.390625 64.796875 
L 42.671875 64.796875 
Q 39.984375 64.796875 39.0625 64.296875 
Q 38.140625 63.8125 37.5 61.375 
z
" id="Cmmi10-66"/>
     </defs>
     <use transform="translate(0 0.6875)" xlink:href="#Cmmi10-66"/>
    </g>
   </g>
   <g id="text_4">
    <!-- $A\cap B$, colorée en gris -->
    <g transform="translate(116.25 55.323077)scale(0.1 -0.1)">
     <defs>
      <path d="M 5.609375 -0.390625 
L 5.609375 38.625 
Q 5.609375 45.265625 9.765625 50.09375 
Q 13.921875 54.9375 20.40625 57.375 
Q 26.90625 59.8125 33.296875 59.8125 
Q 38.03125 59.8125 42.890625 58.515625 
Q 47.75 57.234375 51.875 54.515625 
Q 56 51.8125 58.484375 47.75 
Q 60.984375 43.703125 60.984375 38.625 
L 60.984375 -0.390625 
Q 60.984375 -1.171875 60.390625 -1.6875 
Q 59.8125 -2.203125 58.984375 -2.203125 
Q 58.25 -2.203125 57.609375 -1.6875 
Q 56.984375 -1.171875 56.984375 -0.390625 
L 56.984375 38.28125 
Q 56.984375 42.671875 54.8125 46.015625 
Q 52.640625 49.359375 49.234375 51.453125 
Q 45.84375 53.5625 41.59375 54.6875 
Q 37.359375 55.8125 33.296875 55.8125 
Q 27.734375 55.8125 22.28125 53.859375 
Q 16.84375 51.90625 13.234375 47.953125 
Q 9.625 44 9.625 38.28125 
L 9.625 -0.390625 
Q 9.625 -1.171875 8.984375 -1.6875 
Q 8.34375 -2.203125 7.625 -2.203125 
Q 6.78125 -2.203125 6.1875 -1.6875 
Q 5.609375 -1.171875 5.609375 -0.390625 
z
" id="Cmsy10-92"/>
      <path d="M 11.71875 12.40625 
L 22.015625 12.40625 
L 22.015625 4 
L 14.015625 -11.625 
L 7.71875 -11.625 
L 11.71875 4 
z
" id="DejaVuSans-44"/>
      <path id="DejaVuSans-32"/>
      <path d="M 48.78125 52.59375 
L 48.78125 44.1875 
Q 44.96875 46.296875 41.140625 47.34375 
Q 37.3125 48.390625 33.40625 48.390625 
Q 24.65625 48.390625 19.8125 42.84375 
Q 14.984375 37.3125 14.984375 27.296875 
Q 14.984375 17.28125 19.8125 11.734375 
Q 24.65625 6.203125 33.40625 6.203125 
Q 37.3125 6.203125 41.140625 7.25 
Q 44.96875 8.296875 48.78125 10.40625 
L 48.78125 2.09375 
Q 45.015625 0.34375 40.984375 -0.53125 
Q 36.96875 -1.421875 32.421875 -1.421875 
Q 20.0625 -1.421875 12.78125 6.34375 
Q 5.515625 14.109375 5.515625 27.296875 
Q 5.515625 40.671875 12.859375 48.328125 
Q 20.21875 56 33.015625 56 
Q 37.15625 56 41.109375 55.140625 
Q 45.0625 54.296875 48.78125 52.59375 
z
" id="DejaVuSans-99"/>
      <path d="M 30.609375 48.390625 
Q 23.390625 48.390625 19.1875 42.75 
Q 14.984375 37.109375 14.984375 27.296875 
Q 14.984375 17.484375 19.15625 11.84375 
Q 23.34375 6.203125 30.609375 6.203125 
Q 37.796875 6.203125 41.984375 11.859375 
Q 46.1875 17.53125 46.1875 27.296875 
Q 46.1875 37.015625 41.984375 42.703125 
Q 37.796875 48.390625 30.609375 48.390625 
z
M 30.609375 56 
Q 42.328125 56 49.015625 48.375 
Q 55.71875 40.765625 55.71875 27.296875 
Q 55.71875 13.875 49.015625 6.21875 
Q 42.328125 -1.421875 30.609375 -1.421875 
Q 18.84375 -1.421875 12.171875 6.21875 
Q 5.515625 13.875 5.515625 27.296875 
Q 5.515625 40.765625 12.171875 48.375 
Q 18.84375 56 30.609375 56 
z
" id="DejaVuSans-111"/>
      <path d="M 9.421875 75.984375 
L 18.40625 75.984375 
L 18.40625 0 
L 9.421875 0 
z
" id="DejaVuSans-108"/>
      <path d="M 41.109375 46.296875 
Q 39.59375 47.171875 37.8125 47.578125 
Q 36.03125 48 33.890625 48 
Q 26.265625 48 22.1875 43.046875 
Q 18.109375 38.09375 18.109375 28.8125 
L 18.109375 0 
L 9.078125 0 
L 9.078125 54.6875 
L 18.109375 54.6875 
L 18.109375 46.1875 
Q 20.953125 51.171875 25.484375 53.578125 
Q 30.03125 56 36.53125 56 
Q 37.453125 56 38.578125 55.875 
Q 39.703125 55.765625 41.0625 55.515625 
z
" id="DejaVuSans-114"/>
      <path d="M 56.203125 29.59375 
L 56.203125 25.203125 
L 14.890625 25.203125 
Q 15.484375 15.921875 20.484375 11.0625 
Q 25.484375 6.203125 34.421875 6.203125 
Q 39.59375 6.203125 44.453125 7.46875 
Q 49.3125 8.734375 54.109375 11.28125 
L 54.109375 2.78125 
Q 49.265625 0.734375 44.1875 -0.34375 
Q 39.109375 -1.421875 33.890625 -1.421875 
Q 20.796875 -1.421875 13.15625 6.1875 
Q 5.515625 13.8125 5.515625 26.8125 
Q 5.515625 40.234375 12.765625 48.109375 
Q 20.015625 56 32.328125 56 
Q 43.359375 56 49.78125 48.890625 
Q 56.203125 41.796875 56.203125 29.59375 
z
M 47.21875 32.234375 
Q 47.125 39.59375 43.09375 43.984375 
Q 39.0625 48.390625 32.421875 48.390625 
Q 24.90625 48.390625 20.390625 44.140625 
Q 15.875 39.890625 15.1875 32.171875 
z
M 38.578125 79.984375 
L 48.296875 79.984375 
L 32.375 61.625 
L 24.90625 61.625 
z
" id="DejaVuSans-233"/>
      <path d="M 56.203125 29.59375 
L 56.203125 25.203125 
L 14.890625 25.203125 
Q 15.484375 15.921875 20.484375 11.0625 
Q 25.484375 6.203125 34.421875 6.203125 
Q 39.59375 6.203125 44.453125 7.46875 
Q 49.3125 8.734375 54.109375 11.28125 
L 54.109375 2.78125 
Q 49.265625 0.734375 44.1875 -0.34375 
Q 39.109375 -1.421875 33.890625 -1.421875 
Q 20.796875 -1.421875 13.15625 6.1875 
Q 5.515625 13.8125 5.515625 26.8125 
Q 5.515625 40.234375 12.765625 48.109375 
Q 20.015625 56 32.328125 56 
Q 43.359375 56 49.78125 48.890625 
Q 56.203125 41.796875 56.203125 29.59375 
z
M 47.21875 32.234375 
Q 47.125 39.59375 43.09375 43.984375 
Q 39.0625 48.390625 32.421875 48.390625 
Q 24.90625 48.390625 20.390625 44.140625 
Q 15.875 39.890625 15.1875 32.171875 
z
" id="DejaVuSans-101"/>
      <path d="M 54.890625 33.015625 
L 54.890625 0 
L 45.90625 0 
L 45.90625 32.71875 
Q 45.90625 40.484375 42.875 44.328125 
Q 39.84375 48.1875 33.796875 48.1875 
Q 26.515625 48.1875 22.3125 43.546875 
Q 18.109375 38.921875 18.109375 30.90625 
L 18.109375 0 
L 9.078125 0 
L 9.078125 54.6875 
L 18.109375 54.6875 
L 18.109375 46.1875 
Q 21.34375 51.125 25.703125 53.5625 
Q 30.078125 56 35.796875 56 
Q 45.21875 56 50.046875 50.171875 
Q 54.890625 44.34375 54.890625 33.015625 
z
" id="DejaVuSans-110"/>
      <path d="M 45.40625 27.984375 
Q 45.40625 37.75 41.375 43.109375 
Q 37.359375 48.484375 30.078125 48.484375 
Q 22.859375 48.484375 18.828125 43.109375 
Q 14.796875 37.75 14.796875 27.984375 
Q 14.796875 18.265625 18.828125 12.890625 
Q 22.859375 7.515625 30.078125 7.515625 
Q 37.359375 7.515625 41.375 12.890625 
Q 45.40625 18.265625 45.40625 27.984375 
z
M 54.390625 6.78125 
Q 54.390625 -7.171875 48.1875 -13.984375 
Q 42 -20.796875 29.203125 -20.796875 
Q 24.46875 -20.796875 20.265625 -20.09375 
Q 16.0625 -19.390625 12.109375 -17.921875 
L 12.109375 -9.1875 
Q 16.0625 -11.328125 19.921875 -12.34375 
Q 23.78125 -13.375 27.78125 -13.375 
Q 36.625 -13.375 41.015625 -8.765625 
Q 45.40625 -4.15625 45.40625 5.171875 
L 45.40625 9.625 
Q 42.625 4.78125 38.28125 2.390625 
Q 33.9375 0 27.875 0 
Q 17.828125 0 11.671875 7.65625 
Q 5.515625 15.328125 5.515625 27.984375 
Q 5.515625 40.671875 11.671875 48.328125 
Q 17.828125 56 27.875 56 
Q 33.9375 56 38.28125 53.609375 
Q 42.625 51.21875 45.40625 46.390625 
L 45.40625 54.6875 
L 54.390625 54.6875 
z
" id="DejaVuSans-103"/>
      <path d="M 9.421875 54.6875 
L 18.40625 54.6875 
L 18.40625 0 
L 9.421875 0 
z
M 9.421875 75.984375 
L 18.40625 75.984375 
L 18.40625 64.59375 
L 9.421875 64.59375 
z
" id="DejaVuSans-105"/>
      <path d="M 44.28125 53.078125 
L 44.28125 44.578125 
Q 40.484375 46.53125 36.375 47.5 
Q 32.28125 48.484375 27.875 48.484375 
Q 21.1875 48.484375 17.84375 46.4375 
Q 14.5 44.390625 14.5 40.28125 
Q 14.5 37.15625 16.890625 35.375 
Q 19.28125 33.59375 26.515625 31.984375 
L 29.59375 31.296875 
Q 39.15625 29.25 43.1875 25.515625 
Q 47.21875 21.78125 47.21875 15.09375 
Q 47.21875 7.46875 41.1875 3.015625 
Q 35.15625 -1.421875 24.609375 -1.421875 
Q 20.21875 -1.421875 15.453125 -0.5625 
Q 10.6875 0.296875 5.421875 2 
L 5.421875 11.28125 
Q 10.40625 8.6875 15.234375 7.390625 
Q 20.0625 6.109375 24.8125 6.109375 
Q 31.15625 6.109375 34.5625 8.28125 
Q 37.984375 10.453125 37.984375 14.40625 
Q 37.984375 18.0625 35.515625 20.015625 
Q 33.0625 21.96875 24.703125 23.78125 
L 21.578125 24.515625 
Q 13.234375 26.265625 9.515625 29.90625 
Q 5.8125 33.546875 5.8125 39.890625 
Q 5.8125 47.609375 11.28125 51.796875 
Q 16.75 56 26.8125 56 
Q 31.78125 56 36.171875 55.265625 
Q 40.578125 54.546875 44.28125 53.078125 
z
" id="DejaVuSans-115"/>
     </defs>
     <use transform="translate(0 0.015625)" xlink:href="#Cmmi10-65"/>
     <use transform="translate(92.558594 0.015625)" xlink:href="#Cmsy10-92"/>
     <use transform="translate(176.71875 0.015625)" xlink:href="#Cmmi10-66"/>
     <use transform="translate(252.5 0.015625)" xlink:href="#DejaVuSans-44"/>
     <use transform="translate(284.287109 0.015625)" xlink:href="#DejaVuSans-32"/>
     <use transform="translate(316.074219 0.015625)" xlink:href="#DejaVuSans-99"/>
     <use transform="translate(371.054688 0.015625)" xlink:href="#DejaVuSans-111"/>
     <use transform="translate(432.236328 0.015625)" xlink:href="#DejaVuSans-108"/>
     <use transform="translate(460.019531 0.015625)" xlink:href="#DejaVuSans-111"/>
     <use transform="translate(521.201172 0.015625)" xlink:href="#DejaVuSans-114"/>
     <use transform="translate(562.314453 0.015625)" xlink:href="#DejaVuSans-233"/>
     <use transform="translate(623.837891 0.015625)" xlink:href="#DejaVuSans-101"/>
     <use transform="translate(685.361328 0.015625)" xlink:href="#DejaVuSans-32"/>
     <use transform="translate(717.148438 0.015625)" xlink:href="#DejaVuSans-101"/>
     <use transform="translate(778.671875 0.015625)" xlink:href="#DejaVuSans-110"/>
     <use transform="translate(842.050781 0.015625)" xlink:href="#DejaVuSans-32"/>
     <use transform="translate(873.837891 0.015625)" xlink:href="#DejaVuSans-103"/>
     <use transform="translate(937.314453 0.015625)" xlink:href="#DejaVuSans-114"/>
     <use transform="translate(978.427734 0.015625)" xlink:href="#DejaVuSans-105"/>
     <use transform="translate(1006.210938 0.015625)" xlink:href="#DejaVuSans-115"/>
    </g>
   </g>
   <g id="patch_8">
    <path clip-path="url(#p53414d2309)" d="M 130.257692 247.084615 
C 150.912934 247.084615 170.724971 238.878201 185.330432 224.27274 
C 199.935893 209.667278 208.142308 189.855241 208.142308 169.2 
C 208.142308 148.544759 199.935893 128.732722 185.330432 114.12726 
C 170.724971 99.521799 150.912934 91.315385 130.257692 91.315385 
C 109.602451 91.315385 89.790414 99.521799 75.184953 114.12726 
C 60.579491 128.732722 52.373077 148.544759 52.373077 169.2 
C 52.373077 189.855241 60.579491 209.667278 75.184953 224.27274 
C 89.790414 238.878201 109.602451 247.084615 130.257692 247.084615 
z
" style="fill:none;stroke:#0000ff;stroke-linejoin:miter;"/>
   </g>
   <g id="patch_9">
    <path clip-path="url(#p53414d2309)" d="M 208.142308 247.084615 
C 228.797549 247.084615 248.609586 238.878201 263.215047 224.27274 
C 277.820509 209.667278 286.026923 189.855241 286.026923 169.2 
C 286.026923 148.544759 277.820509 128.732722 263.215047 114.12726 
C 248.609586 99.521799 228.797549 91.315385 208.142308 91.315385 
C 187.487066 91.315385 167.675029 99.521799 153.069568 114.12726 
C 138.464107 128.732722 130.257692 148.544759 130.257692 169.2 
C 130.257692 189.855241 138.464107 209.667278 153.069568 224.27274 
C 167.675029 238.878201 187.487066 247.084615 208.142308 247.084615 
z
" style="fill:none;stroke:#ff0000;stroke-linejoin:miter;"/>
   </g>
  </g>
 </g>
 <defs>
  <clipPath id="p53414d2309">
   <rect height="324" width="324" x="7.2" y="7.2"/>
  </clipPath>
 </defs>
</svg>
