<?xml version="1.0" encoding="utf-8" standalone="no"?>
<!DOCTYPE svg PUBLIC "-//W3C//DTD SVG 1.1//EN"
  "http://www.w3.org/Graphics/SVG/1.1/DTD/svg11.dtd">
<!-- Created with matplotlib (https://matplotlib.org/) -->
<svg height="338.4pt" version="1.1" viewBox="0 0 338.4 338.4" width="338.4pt" xmlns="http://www.w3.org/2000/svg" xmlns:xlink="http://www.w3.org/1999/xlink">
 <metadata>
  <rdf:RDF xmlns:cc="http://creativecommons.org/ns#" xmlns:dc="http://purl.org/dc/elements/1.1/" xmlns:rdf="http://www.w3.org/1999/02/22-rdf-syntax-ns#">
   <cc:Work>
    <dc:type rdf:resource="http://purl.org/dc/dcmitype/StillImage"/>
    <dc:date>2021-08-17T15:45:37.316332</dc:date>
    <dc:format>image/svg+xml</dc:format>
    <dc:creator>
     <cc:Agent>
      <dc:title>Matplotlib v3.3.4, https://matplotlib.org/</dc:title>
     </cc:Agent>
    </dc:creator>
   </cc:Work>
  </rdf:RDF>
 </metadata>
 <defs>
  <style type="text/css">*{stroke-linecap:butt;stroke-linejoin:round;}</style>
 </defs>
 <g id="figure_1">
  <g id="patch_1">
   <path d="M -0 338.4 
L 338.4 338.4 
L 338.4 0 
L -0 0 
z
" style="fill:#ffffff;"/>
  </g>
  <g id="axes_1">
   <g id="patch_2">
    <path d="M 7.2 331.2 
L 331.2 331.2 
L 331.2 7.2 
L 7.2 7.2 
z
" style="fill:#ffffff;"/>
   </g>
   <g id="patch_3">
    <path clip-path="url(#p780720cac3)" d="M 13.430769 324.969231 
L 13.430769 13.430769 
L 324.969231 13.430769 
L 324.969231 324.969231 
z
" style="fill:none;stroke:#000000;stroke-linejoin:miter;"/>
   </g>
   <g id="patch_4">
    <path clip-path="url(#p780720cac3)" d="M 169.2 169.2 
L 169.2 101.749945 
L 169.34464 101.83366 
L 169.556499 101.957029 
L 169.862172 102.136608 
L 169.917362 102.169232 
L 170.179332 102.324923 
L 170.450925 102.487802 
L 170.56019 102.553755 
L 170.797041 102.69756 
L 170.988843 102.814861 
L 171.168816 102.925622 
L 171.417403 103.079719 
L 171.637562 103.217277 
L 171.68454 103.246762 
L 171.935978 103.405366 
L 172.095112 103.506442 
L 172.422224 103.715913 
L 172.501324 103.766913 
L 172.770414 103.941424 
L 172.855107 103.996675 
L 173.180137 104.210177 
L 173.35297 104.324655 
L 173.520795 104.436451 
L 173.76797 104.602252 
L 173.99326 104.75457 
L 174.090591 104.82073 
L 174.347552 104.996436 
L 174.443971 105.062756 
L 174.714746 105.250147 
L 174.948416 105.413226 
L 175.126946 105.538682 
L 175.233806 105.614133 
L 175.507332 105.808491 
L 175.615477 105.885825 
L 175.78695 106.00902 
L 176.082705 106.223166 
L 176.148144 106.270835 
L 176.454506 106.495393 
L 176.618122 106.616265 
L 176.826393 106.771085 
L 177.004833 106.904589 
L 177.30781 107.133103 
L 177.382033 107.189438 
L 177.573198 107.335178 
L 177.841021 107.540936 
L 178.017124 107.67724 
L 178.120751 107.757824 
L 178.433812 108.002984 
L 178.595449 108.130575 
L 178.790583 108.285537 
L 179.056508 108.498362 
L 179.184699 108.601639 
L 179.327751 108.717419 
L 179.518448 108.872633 
L 179.824795 109.124084 
L 179.96328 109.238614 
L 180.134724 109.381148 
L 180.305718 109.524138 
L 180.586012 109.760337 
L 180.708791 109.864514 
L 181.031684 110.14058 
L 181.06038 110.165262 
L 181.254049 110.33248 
L 181.476033 110.525518 
L 181.687908 110.711144 
L 181.931382 110.926137 
L 182.196956 111.162717 
L 182.309365 111.263512 
L 182.554872 111.485025 
L 182.769267 111.680022 
L 182.952311 111.847664 
L 183.112651 111.995396 
L 183.193827 112.070507 
L 183.417634 112.278704 
L 183.759171 112.599602 
L 183.945603 112.77641 
L 184.064167 112.889463 
L 184.254306 113.071763 
L 184.550016 113.35775 
L 184.721589 113.525075 
L 184.892576 113.692858 
L 185.144702 113.942154 
L 185.341826 114.138657 
L 185.524685 114.322201 
L 185.556442 114.354202 
L 185.740116 114.540015 
L 186.046475 114.852737 
L 186.261315 115.074151 
L 186.505709 115.328171 
L 186.597298 115.423963 
L 186.819024 115.657222 
L 186.970556 115.817752 
L 187.118363 115.975218 
L 187.311783 116.182606 
L 187.552739 116.443096 
L 187.813406 116.727596 
L 188.040276 116.977531 
L 188.084741 117.026772 
L 188.462465 117.4485 
L 188.482551 117.471099 
L 188.858364 117.897226 
L 189.017118 118.079131 
L 189.128399 118.207322 
L 189.440783 118.570215 
L 189.618304 118.778465 
L 189.776471 118.965269 
L 189.934737 119.153385 
L 190.110789 119.364068 
L 190.409964 119.725587 
L 190.587756 119.942546 
L 190.759369 120.153487 
L 190.947656 120.386665 
L 191.077212 120.548182 
L 191.324085 120.858414 
L 191.566249 121.165905 
L 191.625081 121.241091 
L 191.864451 121.548971 
L 192.169852 121.946452 
L 192.201986 121.988584 
L 192.583423 122.493292 
L 192.688892 122.634362 
L 192.965073 123.006952 
L 193.122246 123.221079 
L 193.249457 123.395514 
L 193.458034 123.683738 
L 193.67081 123.980647 
L 193.786515 124.143347 
L 194.139055 124.644587 
L 194.216809 124.756274 
L 194.479691 125.136998 
L 194.578143 125.280836 
L 194.770813 125.564344 
L 195.010359 125.920612 
L 195.154696 126.137346 
L 195.331307 126.404696 
L 195.568881 126.76815 
L 195.727424 127.013182 
L 196.020117 127.470912 
L 196.300088 127.915436 
L 196.458096 128.169282 
L 196.530139 128.285747 
L 196.744659 128.63528 
L 196.917633 128.920159 
L 197.089999 129.206799 
L 197.390713 129.713662 
L 197.559421 130.001906 
L 197.860453 130.523391 
L 197.920142 130.627909 
L 198.162546 131.056269 
L 198.454152 131.58011 
L 198.569374 131.789742 
L 198.73171 132.087707 
L 198.88285 132.367935 
L 199.181119 132.92915 
L 199.408365 133.364295 
L 199.571704 133.681257 
L 199.712952 133.95826 
L 199.870578 134.27065 
L 200.180623 134.895524 
L 200.26841 135.075043 
L 200.50515 135.565078 
L 200.719628 136.016737 
L 200.808455 136.206013 
L 200.986589 136.589627 
L 201.164724 136.978792 
L 201.368927 137.432003 
L 201.408617 137.520996 
L 201.665952 138.105405 
L 201.791807 138.396044 
L 201.947025 138.759026 
L 202.102242 139.127189 
L 202.222935 139.417166 
L 202.420354 139.898745 
L 202.593104 140.327841 
L 202.744191 140.709286 
L 202.895279 141.09672 
L 203.061772 141.530896 
L 203.225705 141.966154 
L 203.385449 142.39805 
L 203.547668 142.844872 
L 203.709887 143.300418 
L 203.91504 143.889756 
L 204.087899 144.39851 
L 204.254013 144.898604 
L 204.338702 145.158009 
L 204.464045 145.547716 
L 204.589388 145.944628 
L 204.714597 146.348683 
L 204.839806 146.760711 
L 204.923093 147.039422 
L 205.010215 147.335104 
L 205.097336 147.635191 
L 205.184458 147.93987 
L 205.271579 148.249342 
L 205.357671 148.560075 
L 205.446676 148.886703 
L 205.535681 149.219065 
L 205.620823 149.542639 
L 205.705966 149.872005 
L 205.834153 150.379481 
L 205.96234 150.901924 
L 206.042481 151.23673 
L 206.122622 151.578261 
L 206.228313 152.039634 
L 206.334003 152.514428 
L 206.427196 152.945156 
L 206.52039 153.388161 
L 206.583161 153.693995 
L 206.645932 154.006244 
L 206.708702 154.325311 
L 206.771473 154.651644 
L 206.834473 154.98698 
L 206.897473 155.330707 
L 206.960473 155.683466 
L 207.023473 156.045983 
L 207.082249 156.393721 
L 207.141025 156.751447 
L 207.199801 157.120047 
L 207.258576 157.500549 
L 207.279469 157.638894 
L 207.338943 158.04231 
L 207.36868 158.249711 
L 207.398417 158.461199 
L 207.428154 158.67702 
L 207.457891 158.897448 
L 207.487628 159.122784 
L 207.517365 159.353364 
L 207.543279 159.558871 
L 207.569193 159.768926 
L 207.595107 159.98384 
L 207.621021 160.203961 
L 207.646935 160.429682 
L 207.672849 160.661447 
L 207.698762 160.899761 
L 207.724676 161.145206 
L 207.746538 161.358306 
L 207.768399 161.577424 
L 207.79026 161.803094 
L 207.812122 162.035936 
L 207.833983 162.276674 
L 207.855844 162.526161 
L 207.877706 162.785419 
L 207.899567 163.055684 
L 207.914738 163.250502 
L 207.92991 163.451958 
L 207.945081 163.660778 
L 207.960252 163.877829 
L 207.975423 164.10416 
L 207.990595 164.341071 
L 208.005766 164.59019 
L 208.020937 164.853618 
L 208.028523 164.991531 
L 208.036109 165.134134 
L 208.043694 165.281938 
L 208.05128 165.435556 
L 208.058866 165.595731 
L 208.066451 165.763381 
L 208.074037 165.939657 
L 208.081623 166.126045 
L 208.089208 166.324508 
L 208.096794 166.537747 
L 208.104379 166.769647 
L 208.111965 167.026174 
L 208.119551 167.317365 
L 208.127136 167.662798 
L 208.134722 168.113007 
L 208.142308 169.2 
L 208.142308 169.2 
z
" style="fill:#808080;opacity:0.5;"/>
   </g>
   <g id="patch_5">
    <path clip-path="url(#p780720cac3)" d="M 169.2 169.2 
L 169.2 236.650055 
L 169.320311 236.580451 
L 169.623647 236.403682 
L 169.842393 236.275068 
L 169.975397 236.196397 
L 170.249451 236.03317 
L 170.334027 235.982488 
L 170.520766 235.87007 
L 170.741164 235.73647 
L 170.94358 235.612889 
L 171.173041 235.471771 
L 171.44934 235.300389 
L 171.484208 235.278648 
L 171.775339 235.096118 
L 171.896393 235.019692 
L 172.120396 234.877449 
L 172.287258 234.770793 
L 172.518248 234.622158 
L 172.726182 234.48737 
L 172.829701 234.419916 
L 173.100023 234.242663 
L 173.402364 234.042506 
L 173.504072 233.974717 
L 173.664348 233.867423 
L 173.980075 233.654376 
L 174.036253 233.616232 
L 174.217803 233.492472 
L 174.532737 233.275999 
L 174.681031 233.173278 
L 174.896465 233.023141 
L 175.105863 232.876172 
L 175.240393 232.781208 
L 175.382438 232.680474 
L 175.560924 232.55322 
L 175.936328 232.283084 
L 175.967489 232.260509 
L 176.308465 232.011938 
L 176.35222 231.979836 
L 176.638441 231.768678 
L 176.779352 231.663977 
L 177.113907 231.41341 
L 177.290735 231.279837 
L 177.462147 231.149598 
L 177.683619 230.980214 
L 177.765129 230.917557 
L 178.099314 230.658869 
L 178.181985 230.594426 
L 178.462069 230.374761 
L 178.55369 230.302454 
L 178.82022 230.090838 
L 179.074953 229.886806 
L 179.14331 229.831755 
L 179.380755 229.63954 
L 179.561694 229.492029 
L 179.822138 229.278108 
L 179.939924 229.18074 
L 180.214421 228.952311 
L 180.393758 228.801914 
L 180.57535 228.648689 
L 180.687001 228.554007 
L 180.888349 228.382345 
L 181.229005 228.089206 
L 181.302434 228.02557 
L 181.465882 227.883342 
L 181.671236 227.703511 
L 182.000672 227.412347 
L 182.041819 227.375747 
L 182.374389 227.078003 
L 182.480145 226.982599 
L 182.716711 226.767913 
L 182.802239 226.68986 
L 183.115062 226.402376 
L 183.334875 226.198473 
L 183.474928 226.067734 
L 183.768338 225.791732 
L 183.879361 225.686547 
L 184.052136 225.52203 
L 184.254189 225.32835 
L 184.520983 225.070463 
L 184.677609 224.917915 
L 184.812347 224.785997 
L 185.125846 224.476569 
L 185.222228 224.380732 
L 185.430501 224.172489 
L 185.584322 224.017673 
L 185.896351 223.700944 
L 186.069992 223.523113 
L 186.128902 223.462522 
L 186.461166 223.118298 
L 186.691501 222.87717 
L 186.820819 222.740881 
L 186.916256 222.639878 
L 187.181423 222.357335 
L 187.453524 222.06445 
L 187.686743 221.811001 
L 187.821437 221.663593 
L 187.967317 221.503084 
L 188.272169 221.164736 
L 188.45998 220.954294 
L 188.498446 220.911004 
L 188.774974 220.597871 
L 188.903512 220.451157 
L 189.21048 220.097762 
L 189.43382 219.837922 
L 189.488101 219.77442 
L 189.730038 219.489695 
L 189.979486 219.193207 
L 190.079943 219.072955 
L 190.277157 218.835443 
L 190.509378 218.553295 
L 190.79941 218.197079 
L 190.964953 217.991821 
L 191.171699 217.733463 
L 191.35212 217.506151 
L 191.460837 217.368334 
L 191.705806 217.055435 
L 191.975939 216.70654 
L 192.06857 216.585955 
L 192.213754 216.395972 
L 192.482328 216.041307 
L 192.752949 215.679632 
L 192.78421 215.63757 
L 193.000163 215.345375 
L 193.264455 214.983853 
L 193.399625 214.797255 
L 193.67859 214.40844 
L 193.931909 214.050947 
L 194.068073 213.857011 
L 194.251639 213.593559 
L 194.357443 213.440652 
L 194.549673 213.160829 
L 194.814161 212.771501 
L 194.960813 212.553425 
L 195.172298 212.236117 
L 195.474747 211.776391 
L 195.573574 211.624627 
L 195.794732 211.282179 
L 196.020921 210.927821 
L 196.244231 210.573784 
L 196.473869 210.20526 
L 196.549343 210.08313 
L 196.771541 209.720627 
L 197.07674 209.215349 
L 197.12277 209.138386 
L 197.352405 208.751394 
L 197.581216 208.36065 
L 197.771214 208.032173 
L 197.933487 207.748673 
L 198.215326 207.249617 
L 198.402045 206.914196 
L 198.476611 206.779149 
L 198.691317 206.386723 
L 198.967703 205.873528 
L 199.174269 205.483864 
L 199.421744 205.009877 
L 199.515636 204.827947 
L 199.64628 204.572831 
L 199.896337 204.077966 
L 200.061939 203.745339 
L 200.35715 203.142295 
L 200.431895 202.987491 
L 200.730264 202.360669 
L 200.869946 202.062182 
L 201.022111 201.733219 
L 201.174277 201.400176 
L 201.295257 201.132392 
L 201.428402 200.834529 
L 201.6935 200.231254 
L 201.834399 199.904859 
L 201.975298 199.574304 
L 202.150365 199.157585 
L 202.326198 198.732082 
L 202.414117 198.51661 
L 202.598827 198.057817 
L 202.742047 197.696168 
L 202.885268 197.32914 
L 203.005188 197.017535 
L 203.125107 196.701877 
L 203.211081 196.472997 
L 203.395057 195.97572 
L 203.580116 195.464719 
L 203.706359 195.109587 
L 203.832602 194.748895 
L 203.966385 194.360324 
L 204.100169 193.964935 
L 204.186075 193.707296 
L 204.376257 193.125962 
L 204.493579 192.759423 
L 204.610901 192.386497 
L 204.724421 192.019281 
L 204.837942 191.645483 
L 204.91551 191.386111 
L 205.007988 191.072509 
L 205.100465 190.753947 
L 205.192943 190.430204 
L 205.28542 190.101037 
L 205.309068 190.015963 
L 205.406672 189.660797 
L 205.504275 189.298881 
L 205.577869 189.021311 
L 205.651462 188.739521 
L 205.725055 188.453326 
L 205.798648 188.162526 
L 205.92132 187.666962 
L 206.043993 187.156891 
L 206.161236 186.654666 
L 206.249825 186.264848 
L 206.338415 185.865443 
L 206.406099 185.553392 
L 206.473784 185.234984 
L 206.541468 184.909832 
L 206.609153 184.577509 
L 206.663144 184.306963 
L 206.717134 184.031286 
L 206.771125 183.750186 
L 206.825116 183.463344 
L 206.891307 183.103325 
L 206.967056 182.679126 
L 207.042805 182.240696 
L 207.08068 182.015689 
L 207.118554 181.786548 
L 207.156429 181.55304 
L 207.194304 181.314914 
L 207.253908 180.930133 
L 207.313513 180.531982 
L 207.356933 180.232698 
L 207.400353 179.92489 
L 207.443772 179.607802 
L 207.487192 179.280558 
L 207.521553 179.01372 
L 207.555914 178.739296 
L 207.590276 178.456613 
L 207.624637 178.164889 
L 207.658998 177.863211 
L 207.693359 177.550501 
L 207.72772 177.225467 
L 207.762081 176.886549 
L 207.780804 176.695358 
L 207.799528 176.499113 
L 207.818251 176.297394 
L 207.836975 176.08972 
L 207.855698 175.875537 
L 207.874422 175.654196 
L 207.893145 175.424933 
L 207.911868 175.186839 
L 207.926271 174.997 
L 207.940673 174.800694 
L 207.955076 174.597213 
L 207.969478 174.385715 
L 207.983881 174.165174 
L 207.998283 173.934326 
L 208.012686 173.691584 
L 208.027088 173.434902 
L 208.034289 173.300521 
L 208.041491 173.161572 
L 208.048692 173.017554 
L 208.055893 172.867872 
L 208.063094 172.711802 
L 208.070295 172.548449 
L 208.077497 172.376691 
L 208.084698 172.195082 
L 208.091899 172.001708 
L 208.0991 171.793937 
L 208.106302 171.567985 
L 208.113503 171.318039 
L 208.120704 171.034318 
L 208.127905 170.697749 
L 208.135106 170.259093 
L 208.142308 169.2 
L 208.142308 169.2 
z
" style="fill:#808080;opacity:0.5;"/>
   </g>
   <g id="patch_6">
    <path clip-path="url(#p780720cac3)" d="M 130.257692 169.2 
L 130.257692 169.2 
L 130.263488 168.249855 
L 130.269284 167.856317 
L 130.27508 167.554362 
L 130.280876 167.299816 
L 130.286671 167.07557 
L 130.292467 166.872846 
L 130.298263 166.686434 
L 130.304059 166.512934 
L 130.309855 166.34999 
L 130.31565 166.195881 
L 130.321446 166.049312 
L 130.327242 165.909275 
L 130.333038 165.774969 
L 130.338834 165.645743 
L 130.344629 165.521063 
L 130.350425 165.400481 
L 130.362017 165.170152 
L 130.373609 164.952325 
L 130.3852 164.745167 
L 130.396792 164.547252 
L 130.408383 164.357447 
L 130.419975 164.174832 
L 130.431567 163.998651 
L 130.443158 163.82827 
L 130.460961 163.57668 
L 130.478764 163.335929 
L 130.496567 163.104732 
L 130.51437 162.882039 
L 130.532173 162.666982 
L 130.549976 162.458828 
L 130.567779 162.256958 
L 130.585582 162.060838 
L 130.603385 161.870007 
L 130.621188 161.684062 
L 130.638991 161.502648 
L 130.656794 161.325453 
L 130.6924 160.982634 
L 130.728006 160.653702 
L 130.76882 160.291763 
L 130.809634 159.944145 
L 130.850448 159.609292 
L 130.891261 159.285911 
L 130.91766 159.082335 
L 130.944059 158.882843 
L 130.996857 158.495202 
L 131.049994 158.119001 
L 131.103132 157.755407 
L 131.15627 157.403253 
L 131.209407 157.061544 
L 131.273525 156.661916 
L 131.337643 156.274956 
L 131.401761 155.899558 
L 131.465879 155.53477 
L 131.509764 155.290776 
L 131.553649 155.051126 
L 131.599339 154.806002 
L 131.645028 154.565125 
L 131.736408 154.095305 
L 131.801648 153.768962 
L 131.866887 153.449649 
L 131.932127 153.136948 
L 131.997366 152.830479 
L 132.062534 152.530225 
L 132.127702 152.235535 
L 132.19287 151.946124 
L 132.258038 151.66173 
L 132.340237 151.309797 
L 132.408252 151.024023 
L 132.476267 150.742924 
L 132.544282 150.46629 
L 132.612298 150.193925 
L 132.7138 149.795012 
L 132.815303 149.404656 
L 132.925306 148.990697 
L 133.035309 148.585636 
L 133.188478 148.035484 
L 133.306808 147.620812 
L 133.425139 147.214596 
L 133.566998 146.73811 
L 133.676273 146.378454 
L 133.785548 146.024894 
L 133.928273 145.571831 
L 134.070999 145.128139 
L 134.160667 144.853949 
L 134.298989 144.437578 
L 134.43731 144.028854 
L 134.501153 143.84268 
L 134.702024 143.266661 
L 134.856104 142.834384 
L 135.010185 142.409967 
L 135.118987 142.114802 
L 135.275114 141.697538 
L 135.431241 141.287384 
L 135.492239 141.129004 
L 135.71687 140.554419 
L 135.949697 139.972611 
L 136.086011 139.638142 
L 136.222325 139.308037 
L 136.313224 139.090266 
L 136.541219 138.55204 
L 136.776303 138.008548 
L 136.985868 137.533388 
L 137.050364 137.388857 
L 137.296674 136.844018 
L 137.554649 136.285023 
L 137.750507 135.868218 
L 137.881497 135.59298 
L 138.032404 135.279288 
L 138.298745 134.734218 
L 138.536616 134.256316 
L 138.673051 133.98586 
L 138.90631 133.529426 
L 139.05244 133.247205 
L 139.188638 132.986677 
L 139.503691 132.393022 
L 139.652694 132.116498 
L 139.898115 131.666769 
L 140.042216 131.405942 
L 140.161632 131.191567 
L 140.388807 130.788069 
L 140.66194 130.310242 
L 140.872658 129.946879 
L 141.020922 129.693888 
L 141.151194 129.473384 
L 141.506231 128.880691 
L 141.625599 128.684067 
L 141.901133 128.235137 
L 142.065323 127.970819 
L 142.210154 127.739604 
L 142.467493 127.333164 
L 142.676928 127.00643 
L 142.87315 126.703525 
L 143.065887 126.408964 
L 143.222516 126.171708 
L 143.387 125.924563 
L 143.584008 125.631213 
L 143.807786 125.301451 
L 143.991142 125.033935 
L 144.165198 124.782179 
L 144.278837 124.618946 
L 144.477045 124.336344 
L 144.671811 124.061222 
L 145.007006 123.593565 
L 145.119177 123.438681 
L 145.379406 123.082417 
L 145.580957 122.809368 
L 145.638262 122.732188 
L 145.903395 122.377665 
L 146.054538 122.177429 
L 146.232297 121.943637 
L 146.574318 121.498889 
L 146.671062 121.374282 
L 146.907333 121.072137 
L 147.161359 120.750673 
L 147.348007 120.516673 
L 147.419653 120.427338 
L 147.75449 120.013368 
L 147.890886 119.846383 
L 148.02995 119.677099 
L 148.305307 119.344742 
L 148.492271 119.121198 
L 148.684742 118.892832 
L 148.884669 118.657487 
L 149.094149 118.412913 
L 149.233899 118.250881 
L 149.507867 117.935825 
L 149.692548 117.725356 
L 149.812386 117.589598 
L 149.936914 117.449198 
L 150.139512 117.222226 
L 150.497991 116.824948 
L 150.517162 116.803856 
L 150.748022 116.551076 
L 150.920744 116.363403 
L 151.16975 116.095001 
L 151.487833 115.755787 
L 151.585941 115.651977 
L 151.797678 115.429227 
L 151.886558 115.336247 
L 152.230411 114.979403 
L 152.421685 114.782857 
L 152.555555 114.646116 
L 152.808049 114.390027 
L 152.985606 114.211351 
L 153.248031 113.949373 
L 153.401263 113.797551 
L 153.584685 113.616917 
L 153.669759 113.53354 
L 153.870246 113.338058 
L 154.107798 113.108244 
L 154.285825 112.937289 
L 154.594327 112.643594 
L 154.669138 112.572856 
L 154.976709 112.283988 
L 155.09897 112.170029 
L 155.281405 112.00089 
L 155.523647 111.777967 
L 155.743494 111.577282 
L 155.922281 111.415209 
L 156.153511 111.207084 
L 156.210538 111.156011 
L 156.486256 110.910502 
L 156.705695 110.71677 
L 156.829839 110.607817 
L 157.000841 110.458501 
L 157.273346 110.22236 
L 157.496135 110.030933 
L 157.733461 109.828614 
L 157.768022 109.799287 
L 158.027985 109.579802 
L 158.143973 109.4825 
L 158.401826 109.267556 
L 158.649874 109.062555 
L 158.894354 108.862182 
L 159.083293 108.70846 
L 159.262072 108.563906 
L 159.500752 108.372273 
L 159.680553 108.228928 
L 159.728699 108.190691 
L 160.056928 107.93166 
L 160.203714 107.816741 
L 160.378134 107.680921 
L 160.598421 107.510519 
L 160.724943 107.413215 
L 161.058561 107.15861 
L 161.173409 107.071618 
L 161.360954 106.930278 
L 161.564 106.778253 
L 161.807508 106.597287 
L 161.935081 106.503066 
L 162.183984 106.320386 
L 162.346075 106.202235 
L 162.529223 106.069502 
L 162.666746 105.970366 
L 162.935359 105.778039 
L 163.167232 105.613399 
L 163.240293 105.561785 
L 163.509857 105.372438 
L 163.720803 105.225449 
L 163.996012 105.035228 
L 164.155078 104.926079 
L 164.242653 104.866233 
L 164.422312 104.744005 
L 164.75266 104.521164 
L 164.945091 104.392486 
L 165.001928 104.354638 
L 165.292098 104.162528 
L 165.523881 104.010407 
L 165.766826 103.852223 
L 165.800699 103.830271 
L 166.166171 103.59499 
L 166.329491 103.490779 
L 166.48047 103.39495 
L 166.634122 103.297922 
L 166.851571 103.161463 
L 167.015803 103.05906 
L 167.168996 102.964051 
L 167.390156 102.827751 
L 167.616119 102.689539 
L 167.733055 102.618429 
L 167.977751 102.470534 
L 168.139342 102.373538 
L 168.51142 102.152211 
L 168.703922 102.038798 
L 168.799474 101.98278 
L 169.068614 101.825971 
L 169.2 101.749945 
L 169.2 169.2 
z
" style="fill:#808080;opacity:0.5;"/>
   </g>
   <g id="patch_7">
    <path clip-path="url(#p780720cac3)" d="M 130.257692 169.2 
L 130.257692 169.2 
L 130.26344 170.146199 
L 130.269188 170.538102 
L 130.274936 170.838804 
L 130.280683 171.092293 
L 130.286431 171.315608 
L 130.292179 171.51749 
L 130.297927 171.703129 
L 130.303674 171.875908 
L 130.309422 172.038177 
L 130.31517 172.191646 
L 130.320918 172.337607 
L 130.326665 172.477063 
L 130.332413 172.610812 
L 130.338161 172.739502 
L 130.343909 172.863665 
L 130.349657 172.983747 
L 130.361152 173.213122 
L 130.372648 173.430045 
L 130.384143 173.636345 
L 130.395639 173.83344 
L 130.407134 174.02246 
L 130.41863 174.204318 
L 130.430125 174.37977 
L 130.441621 174.549446 
L 130.461463 174.830252 
L 130.481306 175.097638 
L 130.501149 175.353351 
L 130.520991 175.598792 
L 130.540834 175.835101 
L 130.560676 176.063221 
L 130.580519 176.283943 
L 130.600362 176.497939 
L 130.620761 176.711528 
L 130.64116 176.919156 
L 130.661559 177.121291 
L 130.681958 177.318343 
L 130.702357 177.510674 
L 130.722756 177.698605 
L 130.763554 178.062379 
L 130.804352 178.411618 
L 130.84515 178.747917 
L 130.885948 179.072598 
L 130.926746 179.386773 
L 130.955578 179.602981 
L 130.984409 179.814707 
L 131.013241 180.022215 
L 131.042072 180.225743 
L 131.072419 180.435903 
L 131.102765 180.642123 
L 131.163458 181.043563 
L 131.223281 181.426063 
L 131.283104 181.79667 
L 131.342927 182.156404 
L 131.40275 182.506147 
L 131.450463 182.778449 
L 131.498176 183.045232 
L 131.54589 183.306809 
L 131.593603 183.563465 
L 131.681592 184.024718 
L 131.769581 184.471539 
L 131.844493 184.841509 
L 131.919405 185.202577 
L 131.994318 185.555333 
L 132.06923 185.900303 
L 132.125158 186.153062 
L 132.196347 186.469172 
L 132.267535 186.779311 
L 132.338723 187.083789 
L 132.409912 187.38289 
L 132.523676 187.850357 
L 132.615962 188.220631 
L 132.708248 188.583394 
L 132.800534 188.93906 
L 132.89282 189.288006 
L 132.971036 189.578743 
L 133.049251 189.865095 
L 133.112827 190.094746 
L 133.213088 190.451479 
L 133.313348 190.801856 
L 133.424419 191.182957 
L 133.535489 191.557011 
L 133.623267 191.847867 
L 133.711045 192.134699 
L 133.805072 192.437657 
L 133.8991 192.736341 
L 134.032746 193.153835 
L 134.166393 193.563443 
L 134.351915 194.119698 
L 134.482328 194.502583 
L 134.61274 194.879097 
L 134.689113 195.096748 
L 134.86627 195.593856 
L 135.043426 196.080604 
L 135.078726 196.176403 
L 135.217959 196.550552 
L 135.357192 196.918951 
L 135.452724 197.168513 
L 135.6537 197.685348 
L 135.789403 198.028293 
L 135.925106 198.366575 
L 136.070613 198.724298 
L 136.21612 199.077029 
L 136.298641 199.274921 
L 136.481746 199.708641 
L 136.637498 200.071921 
L 136.793251 200.4302 
L 136.978008 200.848945 
L 137.09538 201.111556 
L 137.302625 201.569008 
L 137.423886 201.833083 
L 137.699398 202.423633 
L 137.863886 202.770177 
L 138.154869 203.372675 
L 138.264809 203.596925 
L 138.56047 204.191158 
L 138.641116 204.35107 
L 138.937912 204.931847 
L 139.107855 205.259086 
L 139.209223 205.452492 
L 139.459253 205.923988 
L 139.738168 206.440932 
L 139.879879 206.700055 
L 139.945065 206.818471 
L 140.291854 207.440414 
L 140.399097 207.630076 
L 140.619143 208.015404 
L 140.735135 208.216489 
L 141.089722 208.822773 
L 141.149485 208.923734 
L 141.470354 209.459954 
L 141.535114 209.567005 
L 141.789859 209.984382 
L 141.92511 210.20361 
L 142.155303 210.573041 
L 142.399437 210.959889 
L 142.558808 211.209735 
L 142.744861 211.498785 
L 142.898765 211.73579 
L 143.098095 212.039978 
L 143.394281 212.486329 
L 143.517209 212.669644 
L 143.663738 212.886695 
L 144.038312 213.4345 
L 144.124268 213.558808 
L 144.427021 213.992584 
L 144.618633 214.263911 
L 144.766059 214.471011 
L 145.009588 214.81001 
L 145.147346 215.000089 
L 145.400413 215.346159 
L 145.569824 215.575614 
L 145.667482 215.707091 
L 145.824431 215.917187 
L 146.11287 216.299492 
L 146.311056 216.559367 
L 146.589777 216.921057 
L 146.786203 217.173344 
L 146.931398 217.358466 
L 147.129271 217.608911 
L 147.240794 217.74914 
L 147.42979 217.98528 
L 147.749486 218.380488 
L 147.784091 218.422952 
L 147.980485 218.662798 
L 148.172087 218.894929 
L 148.523499 219.315976 
L 148.741878 219.574619 
L 148.782284 219.622227 
L 149.079424 219.969963 
L 149.33195 220.262267 
L 149.448892 220.396643 
L 149.641774 220.616932 
L 149.775827 220.769054 
L 150.035078 221.060998 
L 150.21768 221.264871 
L 150.394556 221.460984 
L 150.542584 221.62409 
L 150.716129 221.814136 
L 150.910715 222.025733 
L 151.226853 222.366195 
L 151.48366 222.639788 
L 151.622642 222.786759 
L 151.781675 222.953999 
L 152.072896 223.257695 
L 152.19756 223.3867 
L 152.371172 223.565373 
L 152.539771 223.737797 
L 152.751229 223.952549 
L 152.877634 224.080134 
L 153.132482 224.335582 
L 153.341383 224.543219 
L 153.500218 224.700048 
L 153.705047 224.900969 
L 153.975682 225.164185 
L 154.212026 225.391975 
L 154.391025 225.563223 
L 154.557277 225.721304 
L 154.678258 225.835754 
L 154.859389 226.006196 
L 155.20662 226.329907 
L 155.300809 226.417037 
L 155.419471 226.526397 
L 155.700541 226.783629 
L 155.987651 227.043799 
L 155.994349 227.049837 
L 156.315212 227.33747 
L 156.528606 227.527001 
L 156.718195 227.694221 
L 156.848246 227.808298 
L 156.986057 227.928625 
L 157.290899 228.192776 
L 157.543857 228.409882 
L 157.676893 228.523311 
L 157.803136 228.630473 
L 158.068809 228.854488 
L 158.262742 229.016739 
L 158.515475 229.226584 
L 158.587895 229.286384 
L 158.758698 229.426841 
L 159.111136 229.71411 
L 159.217465 229.800108 
L 159.323984 229.88595 
L 159.635572 230.135293 
L 159.863381 230.315943 
L 159.905022 230.348815 
L 160.120321 230.51804 
L 160.348132 230.695773 
L 160.622127 230.907745 
L 160.84583 231.07937 
L 160.911988 231.129881 
L 161.191308 231.34191 
L 161.281888 231.410243 
L 161.596198 231.645761 
L 161.787555 231.78794 
L 161.968133 231.92128 
L 162.165792 232.066313 
L 162.335755 232.190262 
L 162.634859 232.406688 
L 162.800062 232.525304 
L 162.913981 232.606717 
L 163.048333 232.702336 
L 163.302255 232.881889 
L 163.600488 233.090841 
L 163.710742 233.167565 
L 163.881756 233.286012 
L 164.084517 233.425574 
L 164.265048 233.549043 
L 164.488125 233.700586 
L 164.628963 233.795682 
L 164.813062 233.919315 
L 165.063733 234.086437 
L 165.34139 234.269922 
L 165.523162 234.389123 
L 165.581597 234.427289 
L 165.943321 234.661889 
L 165.998692 234.697549 
L 166.303237 234.892507 
L 166.466488 234.996196 
L 166.559896 235.055268 
L 166.821034 235.219434 
L 167.128608 235.410949 
L 167.243147 235.481762 
L 167.453795 235.611281 
L 167.589257 235.694086 
L 167.921101 235.895336 
L 168.031336 235.96169 
L 168.159055 236.038259 
L 168.400411 236.182049 
L 168.651531 236.330409 
L 168.862954 236.454336 
L 168.924489 236.490237 
L 169.2 236.650055 
L 169.2 169.2 
z
" style="fill:#808080;opacity:0.5;"/>
   </g>
   <g id="matplotlib.axis_1"/>
   <g id="matplotlib.axis_2"/>
   <g id="line2d_1">
    <path clip-path="url(#p780720cac3)" d="M 169.2 101.749945 
L 172.770414 103.941424 
L 176.148144 106.270835 
L 179.518448 108.872633 
L 182.769267 111.680022 
L 185.740116 114.540015 
L 188.482551 117.471099 
L 191.324085 120.858414 
L 193.786515 124.143347 
L 196.020117 127.470912 
L 198.162546 131.056269 
L 200.180623 134.895524 
L 201.947025 138.759026 
L 203.385449 142.39805 
L 204.714597 146.348683 
L 205.834153 150.379481 
L 206.771473 154.651644 
L 207.457891 158.897448 
L 207.899567 163.055684 
L 208.111965 167.026174 
L 208.142308 169.2 
L 208.142308 169.2 
" style="fill:none;stroke:#0000ff;stroke-linecap:square;"/>
   </g>
   <g id="line2d_2">
    <path clip-path="url(#p780720cac3)" d="M 169.2 236.650055 
L 172.726182 234.48737 
L 175.967489 232.260509 
L 179.380755 229.63954 
L 182.480145 226.982599 
L 185.584322 224.017673 
L 188.498446 220.911004 
L 191.171699 217.733463 
L 193.67859 214.40844 
L 196.020921 210.927821 
L 198.215326 207.249617 
L 200.061939 203.745339 
L 201.834399 199.904859 
L 203.395057 195.97572 
L 204.724421 192.019281 
L 205.798648 188.162526 
L 206.717134 184.031286 
L 207.400353 179.92489 
L 207.874422 175.654196 
L 208.106302 171.567985 
L 208.142308 169.2 
L 208.142308 169.2 
" style="fill:none;stroke:#0000ff;stroke-linecap:square;"/>
   </g>
   <g id="line2d_3">
    <path clip-path="url(#p780720cac3)" d="M 130.257692 169.2 
L 130.396792 164.547252 
L 130.728006 160.653702 
L 131.273525 156.661916 
L 132.062534 152.530225 
L 133.035309 148.585636 
L 134.298989 144.437578 
L 135.71687 140.554419 
L 137.296674 136.844018 
L 139.188638 132.986677 
L 141.151194 129.473384 
L 143.387 125.924563 
L 145.638262 122.732188 
L 148.305307 119.344742 
L 150.920744 116.363403 
L 153.870246 113.338058 
L 157.000841 110.458501 
L 160.203714 107.816741 
L 163.509857 105.372438 
L 167.015803 103.05906 
L 169.2 101.749945 
L 169.2 101.749945 
" style="fill:none;stroke:#0000ff;stroke-linecap:square;"/>
   </g>
   <g id="line2d_4">
    <path clip-path="url(#p780720cac3)" d="M 130.257692 169.2 
L 130.395639 173.83344 
L 130.763554 178.062379 
L 131.342927 182.156404 
L 132.125158 186.153062 
L 133.112827 190.094746 
L 134.351915 194.119698 
L 135.789403 198.028293 
L 137.423886 201.833083 
L 139.209223 205.452492 
L 141.149485 208.923734 
L 143.517209 212.669644 
L 145.824431 215.917187 
L 148.523499 219.315976 
L 151.226853 222.366195 
L 154.212026 225.391975 
L 157.290899 228.192776 
L 160.622127 230.907745 
L 164.084517 233.425574 
L 167.589257 235.694086 
L 169.2 236.650055 
L 169.2 236.650055 
" style="fill:none;stroke:#0000ff;stroke-linecap:square;"/>
   </g>
   <g id="text_1">
    <!-- $\Omega$ -->
    <g transform="translate(17.569231 23.978606)scale(0.1 -0.1)">
     <defs>
      <path d="M 7.71875 0 
L 4.390625 16.609375 
L 7.328125 16.609375 
Q 7.859375 13.71875 8.296875 11.5 
Q 8.734375 9.28125 9.4375 8.375 
Q 10.15625 7.46875 11.71875 7.171875 
Q 13.28125 6.890625 16.890625 6.890625 
L 23 6.890625 
Q 21.53125 12.546875 15.6875 21.65625 
Q 9.859375 30.765625 7.734375 34.890625 
Q 5.609375 39.015625 5.609375 45.515625 
Q 5.609375 53.078125 10.09375 58.765625 
Q 14.59375 64.453125 21.703125 67.484375 
Q 28.8125 70.515625 36.078125 70.515625 
Q 43.3125 70.515625 50.40625 67.484375 
Q 57.515625 64.453125 62 58.71875 
Q 66.5 52.984375 66.5 45.515625 
Q 66.5 40.4375 64.640625 35.9375 
Q 62.796875 31.453125 59.90625 26.953125 
Q 57.03125 22.46875 53.6875 16.9375 
Q 50.34375 11.421875 49.125 6.890625 
L 55.171875 6.890625 
Q 58.84375 6.890625 60.453125 7.171875 
Q 62.0625 7.46875 62.734375 8.375 
Q 63.421875 9.28125 63.84375 11.5 
Q 64.265625 13.71875 64.796875 16.609375 
L 67.671875 16.609375 
L 64.40625 0 
L 46.6875 0 
Q 45.703125 0 45.703125 1.3125 
Q 45.703125 6.390625 46.9375 11.265625 
Q 48.1875 16.15625 50.625 23.09375 
Q 53.078125 30.03125 54.4375 35.328125 
Q 55.8125 40.625 55.8125 45.515625 
Q 55.8125 51.515625 53.46875 56.640625 
Q 51.125 61.765625 46.625 64.84375 
Q 42.140625 67.921875 36.078125 67.921875 
Q 26.953125 67.921875 21.625 61.40625 
Q 16.3125 54.890625 16.3125 45.515625 
Q 16.359375 40.375 17.53125 35.828125 
Q 18.703125 31.296875 21.3125 23.71875 
Q 23.921875 16.15625 25.171875 11.265625 
Q 26.421875 6.390625 26.421875 1.3125 
Q 26.421875 0 25.390625 0 
z
" id="Cmr10-173"/>
     </defs>
     <use transform="translate(0 0.484375)" xlink:href="#Cmr10-173"/>
    </g>
   </g>
   <g id="text_2">
    <!-- $A$ -->
    <g style="fill:#0000ff;" transform="translate(87.565385 94.07476)scale(0.1 -0.1)">
     <defs>
      <path d="M 4.5 0 
Q 3.515625 0 3.515625 1.3125 
Q 3.90625 3.515625 4.78125 3.515625 
Q 8.84375 3.515625 11.796875 5.125 
Q 14.75 6.734375 16.890625 10.109375 
Q 17.09375 10.296875 17.09375 10.296875 
L 52.78125 70.515625 
Q 53.5625 71.578125 54.6875 71.578125 
L 56 71.578125 
Q 56.296875 71.578125 56.59375 71.453125 
Q 56.890625 71.34375 57.109375 71.0625 
Q 57.328125 70.796875 57.328125 70.515625 
L 63.375 5.90625 
Q 63.375 5.46875 63.8125 4.59375 
Q 64.796875 3.515625 71.296875 3.515625 
Q 72.3125 3.515625 72.3125 2.203125 
Q 71.96875 0.875 71.75 0.4375 
Q 71.53125 0 70.609375 0 
L 45.609375 0 
Q 44.671875 0 44.671875 1.3125 
Q 45.21875 3.515625 46 3.515625 
Q 53.90625 3.515625 54.390625 6.203125 
L 52.875 22.703125 
L 28.21875 22.703125 
L 20.21875 9.28125 
Q 19.484375 8.203125 19.484375 6.78125 
Q 19.484375 5.03125 21.171875 4.265625 
Q 22.859375 3.515625 24.90625 3.515625 
Q 25.875 3.515625 25.875 2.203125 
Q 25.53125 0.78125 25.328125 0.390625 
Q 25.140625 0 24.21875 0 
z
M 30.171875 26.21875 
L 52.484375 26.21875 
L 49.515625 58.59375 
z
" id="Cmmi10-65"/>
     </defs>
     <use transform="translate(0 0.421875)" xlink:href="#Cmmi10-65"/>
    </g>
   </g>
   <g id="text_3">
    <!-- $B$ -->
    <g style="fill:#ff0000;" transform="translate(243.284615 94.07476)scale(0.1 -0.1)">
     <defs>
      <path d="M 4.984375 0 
Q 4 0 4 1.3125 
Q 4.046875 1.5625 4.1875 2.140625 
Q 4.34375 2.734375 4.578125 3.125 
Q 4.828125 3.515625 5.328125 3.515625 
Q 8.15625 3.515625 10.25 3.65625 
Q 12.359375 3.8125 13.8125 4.203125 
Q 14.984375 4.640625 15.71875 6.890625 
L 29.390625 61.8125 
Q 29.59375 62.796875 29.59375 63.1875 
Q 29.59375 64.265625 28.421875 64.40625 
Q 26.515625 64.796875 21.1875 64.796875 
Q 20.21875 64.796875 20.21875 66.109375 
Q 20.265625 66.359375 20.40625 66.96875 
Q 20.5625 67.578125 20.828125 67.9375 
Q 21.09375 68.3125 21.484375 68.3125 
L 57.328125 68.3125 
Q 60.59375 68.3125 63.796875 67.5 
Q 67 66.703125 69.703125 64.9375 
Q 72.40625 63.1875 74 60.5625 
Q 75.59375 57.953125 75.59375 54.5 
Q 75.59375 50.734375 73.65625 47.5 
Q 71.734375 44.28125 68.671875 41.890625 
Q 65.625 39.5 62.078125 37.953125 
Q 58.546875 36.421875 54.6875 35.6875 
Q 57.421875 35.6875 60.21875 34.609375 
Q 63.03125 33.546875 65.234375 31.6875 
Q 67.4375 29.828125 68.78125 27.234375 
Q 70.125 24.65625 70.125 21.6875 
Q 70.125 15.671875 65.921875 10.6875 
Q 61.71875 5.71875 55.34375 2.859375 
Q 48.96875 0 43.015625 0 
z
M 23.390625 4.296875 
Q 23.390625 3.515625 26.8125 3.515625 
L 41.109375 3.515625 
Q 46 3.515625 50.484375 6.21875 
Q 54.984375 8.9375 57.6875 13.421875 
Q 60.40625 17.921875 60.40625 22.796875 
Q 60.40625 25.78125 59.15625 28.4375 
Q 57.90625 31.109375 55.5625 32.640625 
Q 53.21875 34.1875 50.203125 34.1875 
L 30.71875 34.1875 
L 23.78125 6.5 
Q 23.390625 5.125 23.390625 4.296875 
z
M 31.390625 36.8125 
L 46.578125 36.8125 
Q 51.375 36.8125 55.890625 39.25 
Q 60.40625 41.703125 63.25 45.890625 
Q 66.109375 50.09375 66.109375 54.78125 
Q 66.109375 59.125 63.390625 61.953125 
Q 60.6875 64.796875 56.390625 64.796875 
L 42.671875 64.796875 
Q 39.984375 64.796875 39.0625 64.296875 
Q 38.140625 63.8125 37.5 61.375 
z
" id="Cmmi10-66"/>
     </defs>
     <use transform="translate(0 0.6875)" xlink:href="#Cmmi10-66"/>
    </g>
   </g>
   <g id="text_4">
    <!-- $A\cap B$, coloré en gris -->
    <g transform="translate(119.35 55.323077)scale(0.1 -0.1)">
     <defs>
      <path d="M 5.609375 -0.390625 
L 5.609375 38.625 
Q 5.609375 45.265625 9.765625 50.09375 
Q 13.921875 54.9375 20.40625 57.375 
Q 26.90625 59.8125 33.296875 59.8125 
Q 38.03125 59.8125 42.890625 58.515625 
Q 47.75 57.234375 51.875 54.515625 
Q 56 51.8125 58.484375 47.75 
Q 60.984375 43.703125 60.984375 38.625 
L 60.984375 -0.390625 
Q 60.984375 -1.171875 60.390625 -1.6875 
Q 59.8125 -2.203125 58.984375 -2.203125 
Q 58.25 -2.203125 57.609375 -1.6875 
Q 56.984375 -1.171875 56.984375 -0.390625 
L 56.984375 38.28125 
Q 56.984375 42.671875 54.8125 46.015625 
Q 52.640625 49.359375 49.234375 51.453125 
Q 45.84375 53.5625 41.59375 54.6875 
Q 37.359375 55.8125 33.296875 55.8125 
Q 27.734375 55.8125 22.28125 53.859375 
Q 16.84375 51.90625 13.234375 47.953125 
Q 9.625 44 9.625 38.28125 
L 9.625 -0.390625 
Q 9.625 -1.171875 8.984375 -1.6875 
Q 8.34375 -2.203125 7.625 -2.203125 
Q 6.78125 -2.203125 6.1875 -1.6875 
Q 5.609375 -1.171875 5.609375 -0.390625 
z
" id="Cmsy10-92"/>
      <path d="M 11.71875 12.40625 
L 22.015625 12.40625 
L 22.015625 4 
L 14.015625 -11.625 
L 7.71875 -11.625 
L 11.71875 4 
z
" id="DejaVuSans-44"/>
      <path id="DejaVuSans-32"/>
      <path d="M 48.78125 52.59375 
L 48.78125 44.1875 
Q 44.96875 46.296875 41.140625 47.34375 
Q 37.3125 48.390625 33.40625 48.390625 
Q 24.65625 48.390625 19.8125 42.84375 
Q 14.984375 37.3125 14.984375 27.296875 
Q 14.984375 17.28125 19.8125 11.734375 
Q 24.65625 6.203125 33.40625 6.203125 
Q 37.3125 6.203125 41.140625 7.25 
Q 44.96875 8.296875 48.78125 10.40625 
L 48.78125 2.09375 
Q 45.015625 0.34375 40.984375 -0.53125 
Q 36.96875 -1.421875 32.421875 -1.421875 
Q 20.0625 -1.421875 12.78125 6.34375 
Q 5.515625 14.109375 5.515625 27.296875 
Q 5.515625 40.671875 12.859375 48.328125 
Q 20.21875 56 33.015625 56 
Q 37.15625 56 41.109375 55.140625 
Q 45.0625 54.296875 48.78125 52.59375 
z
" id="DejaVuSans-99"/>
      <path d="M 30.609375 48.390625 
Q 23.390625 48.390625 19.1875 42.75 
Q 14.984375 37.109375 14.984375 27.296875 
Q 14.984375 17.484375 19.15625 11.84375 
Q 23.34375 6.203125 30.609375 6.203125 
Q 37.796875 6.203125 41.984375 11.859375 
Q 46.1875 17.53125 46.1875 27.296875 
Q 46.1875 37.015625 41.984375 42.703125 
Q 37.796875 48.390625 30.609375 48.390625 
z
M 30.609375 56 
Q 42.328125 56 49.015625 48.375 
Q 55.71875 40.765625 55.71875 27.296875 
Q 55.71875 13.875 49.015625 6.21875 
Q 42.328125 -1.421875 30.609375 -1.421875 
Q 18.84375 -1.421875 12.171875 6.21875 
Q 5.515625 13.875 5.515625 27.296875 
Q 5.515625 40.765625 12.171875 48.375 
Q 18.84375 56 30.609375 56 
z
" id="DejaVuSans-111"/>
      <path d="M 9.421875 75.984375 
L 18.40625 75.984375 
L 18.40625 0 
L 9.421875 0 
z
" id="DejaVuSans-108"/>
      <path d="M 41.109375 46.296875 
Q 39.59375 47.171875 37.8125 47.578125 
Q 36.03125 48 33.890625 48 
Q 26.265625 48 22.1875 43.046875 
Q 18.109375 38.09375 18.109375 28.8125 
L 18.109375 0 
L 9.078125 0 
L 9.078125 54.6875 
L 18.109375 54.6875 
L 18.109375 46.1875 
Q 20.953125 51.171875 25.484375 53.578125 
Q 30.03125 56 36.53125 56 
Q 37.453125 56 38.578125 55.875 
Q 39.703125 55.765625 41.0625 55.515625 
z
" id="DejaVuSans-114"/>
      <path d="M 56.203125 29.59375 
L 56.203125 25.203125 
L 14.890625 25.203125 
Q 15.484375 15.921875 20.484375 11.0625 
Q 25.484375 6.203125 34.421875 6.203125 
Q 39.59375 6.203125 44.453125 7.46875 
Q 49.3125 8.734375 54.109375 11.28125 
L 54.109375 2.78125 
Q 49.265625 0.734375 44.1875 -0.34375 
Q 39.109375 -1.421875 33.890625 -1.421875 
Q 20.796875 -1.421875 13.15625 6.1875 
Q 5.515625 13.8125 5.515625 26.8125 
Q 5.515625 40.234375 12.765625 48.109375 
Q 20.015625 56 32.328125 56 
Q 43.359375 56 49.78125 48.890625 
Q 56.203125 41.796875 56.203125 29.59375 
z
M 47.21875 32.234375 
Q 47.125 39.59375 43.09375 43.984375 
Q 39.0625 48.390625 32.421875 48.390625 
Q 24.90625 48.390625 20.390625 44.140625 
Q 15.875 39.890625 15.1875 32.171875 
z
M 38.578125 79.984375 
L 48.296875 79.984375 
L 32.375 61.625 
L 24.90625 61.625 
z
" id="DejaVuSans-233"/>
      <path d="M 56.203125 29.59375 
L 56.203125 25.203125 
L 14.890625 25.203125 
Q 15.484375 15.921875 20.484375 11.0625 
Q 25.484375 6.203125 34.421875 6.203125 
Q 39.59375 6.203125 44.453125 7.46875 
Q 49.3125 8.734375 54.109375 11.28125 
L 54.109375 2.78125 
Q 49.265625 0.734375 44.1875 -0.34375 
Q 39.109375 -1.421875 33.890625 -1.421875 
Q 20.796875 -1.421875 13.15625 6.1875 
Q 5.515625 13.8125 5.515625 26.8125 
Q 5.515625 40.234375 12.765625 48.109375 
Q 20.015625 56 32.328125 56 
Q 43.359375 56 49.78125 48.890625 
Q 56.203125 41.796875 56.203125 29.59375 
z
M 47.21875 32.234375 
Q 47.125 39.59375 43.09375 43.984375 
Q 39.0625 48.390625 32.421875 48.390625 
Q 24.90625 48.390625 20.390625 44.140625 
Q 15.875 39.890625 15.1875 32.171875 
z
" id="DejaVuSans-101"/>
      <path d="M 54.890625 33.015625 
L 54.890625 0 
L 45.90625 0 
L 45.90625 32.71875 
Q 45.90625 40.484375 42.875 44.328125 
Q 39.84375 48.1875 33.796875 48.1875 
Q 26.515625 48.1875 22.3125 43.546875 
Q 18.109375 38.921875 18.109375 30.90625 
L 18.109375 0 
L 9.078125 0 
L 9.078125 54.6875 
L 18.109375 54.6875 
L 18.109375 46.1875 
Q 21.34375 51.125 25.703125 53.5625 
Q 30.078125 56 35.796875 56 
Q 45.21875 56 50.046875 50.171875 
Q 54.890625 44.34375 54.890625 33.015625 
z
" id="DejaVuSans-110"/>
      <path d="M 45.40625 27.984375 
Q 45.40625 37.75 41.375 43.109375 
Q 37.359375 48.484375 30.078125 48.484375 
Q 22.859375 48.484375 18.828125 43.109375 
Q 14.796875 37.75 14.796875 27.984375 
Q 14.796875 18.265625 18.828125 12.890625 
Q 22.859375 7.515625 30.078125 7.515625 
Q 37.359375 7.515625 41.375 12.890625 
Q 45.40625 18.265625 45.40625 27.984375 
z
M 54.390625 6.78125 
Q 54.390625 -7.171875 48.1875 -13.984375 
Q 42 -20.796875 29.203125 -20.796875 
Q 24.46875 -20.796875 20.265625 -20.09375 
Q 16.0625 -19.390625 12.109375 -17.921875 
L 12.109375 -9.1875 
Q 16.0625 -11.328125 19.921875 -12.34375 
Q 23.78125 -13.375 27.78125 -13.375 
Q 36.625 -13.375 41.015625 -8.765625 
Q 45.40625 -4.15625 45.40625 5.171875 
L 45.40625 9.625 
Q 42.625 4.78125 38.28125 2.390625 
Q 33.9375 0 27.875 0 
Q 17.828125 0 11.671875 7.65625 
Q 5.515625 15.328125 5.515625 27.984375 
Q 5.515625 40.671875 11.671875 48.328125 
Q 17.828125 56 27.875 56 
Q 33.9375 56 38.28125 53.609375 
Q 42.625 51.21875 45.40625 46.390625 
L 45.40625 54.6875 
L 54.390625 54.6875 
z
" id="DejaVuSans-103"/>
      <path d="M 9.421875 54.6875 
L 18.40625 54.6875 
L 18.40625 0 
L 9.421875 0 
z
M 9.421875 75.984375 
L 18.40625 75.984375 
L 18.40625 64.59375 
L 9.421875 64.59375 
z
" id="DejaVuSans-105"/>
      <path d="M 44.28125 53.078125 
L 44.28125 44.578125 
Q 40.484375 46.53125 36.375 47.5 
Q 32.28125 48.484375 27.875 48.484375 
Q 21.1875 48.484375 17.84375 46.4375 
Q 14.5 44.390625 14.5 40.28125 
Q 14.5 37.15625 16.890625 35.375 
Q 19.28125 33.59375 26.515625 31.984375 
L 29.59375 31.296875 
Q 39.15625 29.25 43.1875 25.515625 
Q 47.21875 21.78125 47.21875 15.09375 
Q 47.21875 7.46875 41.1875 3.015625 
Q 35.15625 -1.421875 24.609375 -1.421875 
Q 20.21875 -1.421875 15.453125 -0.5625 
Q 10.6875 0.296875 5.421875 2 
L 5.421875 11.28125 
Q 10.40625 8.6875 15.234375 7.390625 
Q 20.0625 6.109375 24.8125 6.109375 
Q 31.15625 6.109375 34.5625 8.28125 
Q 37.984375 10.453125 37.984375 14.40625 
Q 37.984375 18.0625 35.515625 20.015625 
Q 33.0625 21.96875 24.703125 23.78125 
L 21.578125 24.515625 
Q 13.234375 26.265625 9.515625 29.90625 
Q 5.8125 33.546875 5.8125 39.890625 
Q 5.8125 47.609375 11.28125 51.796875 
Q 16.75 56 26.8125 56 
Q 31.78125 56 36.171875 55.265625 
Q 40.578125 54.546875 44.28125 53.078125 
z
" id="DejaVuSans-115"/>
     </defs>
     <use transform="translate(0 0.015625)" xlink:href="#Cmmi10-65"/>
     <use transform="translate(92.558594 0.015625)" xlink:href="#Cmsy10-92"/>
     <use transform="translate(176.71875 0.015625)" xlink:href="#Cmmi10-66"/>
     <use transform="translate(252.5 0.015625)" xlink:href="#DejaVuSans-44"/>
     <use transform="translate(284.287109 0.015625)" xlink:href="#DejaVuSans-32"/>
     <use transform="translate(316.074219 0.015625)" xlink:href="#DejaVuSans-99"/>
     <use transform="translate(371.054688 0.015625)" xlink:href="#DejaVuSans-111"/>
     <use transform="translate(432.236328 0.015625)" xlink:href="#DejaVuSans-108"/>
     <use transform="translate(460.019531 0.015625)" xlink:href="#DejaVuSans-111"/>
     <use transform="translate(521.201172 0.015625)" xlink:href="#DejaVuSans-114"/>
     <use transform="translate(562.314453 0.015625)" xlink:href="#DejaVuSans-233"/>
     <use transform="translate(623.837891 0.015625)" xlink:href="#DejaVuSans-32"/>
     <use transform="translate(655.625 0.015625)" xlink:href="#DejaVuSans-101"/>
     <use transform="translate(717.148438 0.015625)" xlink:href="#DejaVuSans-110"/>
     <use transform="translate(780.527344 0.015625)" xlink:href="#DejaVuSans-32"/>
     <use transform="translate(812.314453 0.015625)" xlink:href="#DejaVuSans-103"/>
     <use transform="translate(875.791016 0.015625)" xlink:href="#DejaVuSans-114"/>
     <use transform="translate(916.904297 0.015625)" xlink:href="#DejaVuSans-105"/>
     <use transform="translate(944.6875 0.015625)" xlink:href="#DejaVuSans-115"/>
    </g>
   </g>
   <g id="patch_8">
    <path clip-path="url(#p780720cac3)" d="M 130.257692 247.084615 
C 150.912934 247.084615 170.724971 238.878201 185.330432 224.27274 
C 199.935893 209.667278 208.142308 189.855241 208.142308 169.2 
C 208.142308 148.544759 199.935893 128.732722 185.330432 114.12726 
C 170.724971 99.521799 150.912934 91.315385 130.257692 91.315385 
C 109.602451 91.315385 89.790414 99.521799 75.184953 114.12726 
C 60.579491 128.732722 52.373077 148.544759 52.373077 169.2 
C 52.373077 189.855241 60.579491 209.667278 75.184953 224.27274 
C 89.790414 238.878201 109.602451 247.084615 130.257692 247.084615 
z
" style="fill:none;stroke:#0000ff;stroke-linejoin:miter;"/>
   </g>
   <g id="patch_9">
    <path clip-path="url(#p780720cac3)" d="M 208.142308 247.084615 
C 228.797549 247.084615 248.609586 238.878201 263.215047 224.27274 
C 277.820509 209.667278 286.026923 189.855241 286.026923 169.2 
C 286.026923 148.544759 277.820509 128.732722 263.215047 114.12726 
C 248.609586 99.521799 228.797549 91.315385 208.142308 91.315385 
C 187.487066 91.315385 167.675029 99.521799 153.069568 114.12726 
C 138.464107 128.732722 130.257692 148.544759 130.257692 169.2 
C 130.257692 189.855241 138.464107 209.667278 153.069568 224.27274 
C 167.675029 238.878201 187.487066 247.084615 208.142308 247.084615 
z
" style="fill:none;stroke:#ff0000;stroke-linejoin:miter;"/>
   </g>
  </g>
 </g>
 <defs>
  <clipPath id="p780720cac3">
   <rect height="324" width="324" x="7.2" y="7.2"/>
  </clipPath>
 </defs>
</svg>
