<?xml version="1.0" encoding="utf-8" standalone="no"?>
<!DOCTYPE svg PUBLIC "-//W3C//DTD SVG 1.1//EN"
  "http://www.w3.org/Graphics/SVG/1.1/DTD/svg11.dtd">
<!-- Created with matplotlib (https://matplotlib.org/) -->
<svg height="338.4pt" version="1.1" viewBox="0 0 338.4 338.4" width="338.4pt" xmlns="http://www.w3.org/2000/svg" xmlns:xlink="http://www.w3.org/1999/xlink">
 <metadata>
  <rdf:RDF xmlns:cc="http://creativecommons.org/ns#" xmlns:dc="http://purl.org/dc/elements/1.1/" xmlns:rdf="http://www.w3.org/1999/02/22-rdf-syntax-ns#">
   <cc:Work>
    <dc:type rdf:resource="http://purl.org/dc/dcmitype/StillImage"/>
    <dc:date>2021-08-17T17:51:57.681777</dc:date>
    <dc:format>image/svg+xml</dc:format>
    <dc:creator>
     <cc:Agent>
      <dc:title>Matplotlib v3.3.4, https://matplotlib.org/</dc:title>
     </cc:Agent>
    </dc:creator>
   </cc:Work>
  </rdf:RDF>
 </metadata>
 <defs>
  <style type="text/css">*{stroke-linecap:butt;stroke-linejoin:round;}</style>
 </defs>
 <g id="figure_1">
  <g id="patch_1">
   <path d="M -0 338.4 
L 338.4 338.4 
L 338.4 0 
L -0 0 
z
" style="fill:#ffffff;"/>
  </g>
  <g id="axes_1">
   <g id="patch_2">
    <path d="M 7.2 331.2 
L 331.2 331.2 
L 331.2 7.2 
L 7.2 7.2 
z
" style="fill:#ffffff;"/>
   </g>
   <g id="patch_3">
    <path clip-path="url(#pd73b09d50e)" d="M 13.430769 324.969231 
L 13.430769 13.430769 
L 324.969231 13.430769 
L 324.969231 324.969231 
z
" style="fill:none;stroke:#000000;stroke-linejoin:miter;"/>
   </g>
   <g id="patch_4">
    <path clip-path="url(#pd73b09d50e)" d="M 169.2 169.2 
L 169.2 101.749945 
L 169.432346 101.884624 
L 169.606496 101.986274 
L 169.8335 102.119684 
L 170.040058 102.241978 
L 170.231406 102.356036 
L 170.289918 102.391062 
L 170.579508 102.565441 
L 170.710254 102.644733 
L 170.927413 102.777209 
L 171.060411 102.858825 
L 171.411134 103.075817 
L 171.458063 103.105048 
L 171.705658 103.260032 
L 172.012553 103.453936 
L 172.190344 103.567188 
L 172.325488 103.653728 
L 172.437688 103.725873 
L 172.676058 103.880053 
L 172.926528 104.04339 
L 173.074507 104.140537 
L 173.325657 104.30652 
L 173.434287 104.378746 
L 173.614685 104.49927 
L 173.970758 104.739305 
L 174.152748 104.863094 
L 174.344274 104.994186 
L 174.47611 105.084909 
L 174.64728 105.203299 
L 174.892422 105.374032 
L 174.999793 105.449253 
L 175.226012 105.60862 
L 175.418706 105.745322 
L 175.727567 105.966276 
L 175.833146 106.042329 
L 176.050689 106.199883 
L 176.258339 106.351342 
L 176.474377 106.510038 
L 176.604683 106.606312 
L 176.926587 106.84595 
L 177.046392 106.935797 
L 177.182004 107.037935 
L 177.324233 107.145555 
L 177.66813 107.4079 
L 177.870822 107.563946 
L 178.083253 107.728632 
L 178.172912 107.798493 
L 178.335801 107.925954 
L 178.519926 108.070874 
L 178.816539 108.306226 
L 178.939925 108.404823 
L 179.157236 108.579476 
L 179.374369 108.75527 
L 179.527811 108.880279 
L 179.725851 109.042585 
L 179.888424 109.17664 
L 180.100226 109.352401 
L 180.335679 109.549279 
L 180.510925 109.696841 
L 180.675031 109.835825 
L 181.031474 110.1404 
L 181.213831 110.297664 
L 181.425547 110.481485 
L 181.607281 110.640346 
L 181.719801 110.739203 
L 181.905297 110.903017 
L 182.040809 111.023354 
L 182.253163 111.213068 
L 182.596831 111.523074 
L 182.747755 111.660391 
L 182.872918 111.774819 
L 183.081594 111.966717 
L 183.333654 112.20039 
L 183.555999 112.408242 
L 183.608047 112.457132 
L 183.863467 112.698369 
L 184.064991 112.89025 
L 184.302029 113.117712 
L 184.373856 113.187018 
L 184.592166 113.398761 
L 184.94299 113.742525 
L 185.076206 113.874202 
L 185.312842 114.109676 
L 185.389454 114.186346 
L 185.686026 114.485165 
L 185.789988 114.590683 
L 186.123436 114.931851 
L 186.147225 114.956351 
L 186.378096 115.195245 
L 186.531651 115.355271 
L 186.901635 115.744625 
L 186.98348 115.831486 
L 187.27501 116.143061 
L 187.319569 116.190986 
L 187.692515 116.5953 
L 187.754194 116.662722 
L 187.911719 116.835637 
L 188.279117 117.243021 
L 188.307177 117.274374 
L 188.664534 117.676664 
L 188.73703 117.758962 
L 189.008269 118.068962 
L 189.192121 118.280981 
L 189.267798 118.368704 
L 189.572773 118.724912 
L 189.761874 118.947978 
L 190.037114 119.275717 
L 190.076849 119.323334 
L 190.245257 119.526009 
L 190.471374 119.800346 
L 190.750632 120.142711 
L 190.891496 120.316924 
L 191.106038 120.58424 
L 191.256303 120.772912 
L 191.450899 121.019042 
L 191.629358 121.246564 
L 191.997386 121.721336 
L 192.175839 121.954297 
L 192.298273 122.115187 
L 192.453592 122.320544 
L 192.645587 122.576359 
L 192.963092 123.004262 
L 193.02432 123.087488 
L 193.188724 123.312109 
L 193.497217 123.738194 
L 193.579205 123.85246 
L 193.920305 124.332583 
L 194.013339 124.464882 
L 194.151836 124.662917 
L 194.446667 125.088904 
L 194.672394 125.419188 
L 194.759054 125.546964 
L 195.017838 125.931803 
L 195.172015 126.163457 
L 195.50822 126.674925 
L 195.698608 126.968496 
L 195.89349 127.272021 
L 196.027992 127.483324 
L 196.281113 127.885097 
L 196.425477 128.1167 
L 196.626954 128.442984 
L 196.706064 128.572088 
L 197.057573 129.152662 
L 197.093185 129.212124 
L 197.425012 129.772035 
L 197.532437 129.955612 
L 197.718432 130.276203 
L 197.883781 130.564194 
L 198.081145 130.911718 
L 198.334511 131.364037 
L 198.642623 131.923807 
L 198.656379 131.949053 
L 198.867608 132.339551 
L 199.076836 132.731675 
L 199.330095 133.213662 
L 199.517513 133.575703 
L 199.714206 133.960731 
L 199.879714 134.288863 
L 200.153859 134.841024 
L 200.26554 135.069156 
L 200.504909 135.564575 
L 200.675154 135.922464 
L 200.93674 136.481725 
L 201.057236 136.743291 
L 201.209424 137.077344 
L 201.362855 137.418416 
L 201.516287 137.763937 
L 201.640162 138.046247 
L 201.800823 138.416988 
L 201.963019 138.79672 
L 202.125215 139.18213 
L 202.221534 139.413781 
L 202.478088 140.041335 
L 202.60423 140.355733 
L 202.730373 140.674154 
L 202.789941 140.825959 
L 202.964205 141.275525 
L 203.155118 141.777772 
L 203.346032 142.290746 
L 203.469483 142.628453 
L 203.647896 143.125274 
L 203.833273 143.653039 
L 203.974601 144.063759 
L 204.085193 144.390455 
L 204.195784 144.722011 
L 204.337852 145.15539 
L 204.47992 145.59758 
L 204.597387 145.970209 
L 204.714853 146.349518 
L 204.769536 146.528467 
L 204.920037 147.029126 
L 205.034002 147.416594 
L 205.147968 147.811688 
L 205.293821 148.329141 
L 205.439673 148.8608 
L 205.51593 149.144803 
L 205.592188 149.433181 
L 205.687368 149.799554 
L 205.782549 150.173456 
L 205.85262 150.453794 
L 205.922691 150.738655 
L 205.992763 151.028251 
L 206.062834 151.322813 
L 206.146367 151.6808 
L 206.2299 152.046664 
L 206.306965 152.391624 
L 206.385522 152.751082 
L 206.464079 153.118956 
L 206.542636 153.495838 
L 206.621193 153.882392 
L 206.69756 154.268155 
L 206.773927 154.664554 
L 206.843254 155.034373 
L 206.912582 155.414458 
L 206.983607 155.815405 
L 207.054631 156.229127 
L 207.125655 156.65689 
L 207.161167 156.876492 
L 207.196679 157.100183 
L 207.236694 157.357425 
L 207.276709 157.620519 
L 207.316724 157.889873 
L 207.356739 158.165945 
L 207.386996 158.379475 
L 207.417254 158.597392 
L 207.447512 158.81997 
L 207.47777 159.047517 
L 207.508028 159.280375 
L 207.538286 159.518927 
L 207.568544 159.763604 
L 207.598802 160.014896 
L 207.62837 160.267385 
L 207.657937 160.527321 
L 207.687505 160.795397 
L 207.717073 161.072418 
L 207.735972 161.254591 
L 207.75487 161.441086 
L 207.773768 161.632223 
L 207.792667 161.828362 
L 207.811565 162.029915 
L 207.830463 162.237351 
L 207.849362 162.451212 
L 207.86826 162.672131 
L 207.887159 162.90085 
L 207.906057 163.138252 
L 207.924955 163.385399 
L 207.943854 163.643593 
L 207.962752 163.914451 
L 207.972201 164.055251 
L 207.98165 164.200033 
L 207.991099 164.349152 
L 208.000549 164.503022 
L 208.009998 164.662125 
L 208.019447 164.827035 
L 208.027126 164.96579 
L 208.034805 165.109264 
L 208.042483 165.257971 
L 208.050162 165.412527 
L 208.057841 165.573681 
L 208.06552 165.742356 
L 208.073199 165.91971 
L 208.080877 166.107236 
L 208.088556 166.306913 
L 208.092396 166.412117 
L 208.096235 166.521456 
L 208.100074 166.635458 
L 208.103914 166.754775 
L 208.107753 166.880227 
L 208.111593 167.01287 
L 208.115432 167.154102 
L 208.119271 167.305843 
L 208.123111 167.470858 
L 208.12695 167.653389 
L 208.130789 167.860579 
L 208.134629 168.106354 
L 208.138468 168.426666 
L 208.142308 169.2 
L 208.142308 169.2 
z
" style="fill:#808080;opacity:0.5;"/>
   </g>
   <g id="patch_5">
    <path clip-path="url(#pd73b09d50e)" d="M 169.2 169.2 
L 169.2 236.650055 
L 169.343309 236.567113 
L 169.570933 236.434533 
L 169.814978 236.29124 
L 169.938824 236.218066 
L 170.127982 236.105705 
L 170.310452 235.99663 
L 170.472055 235.899463 
L 170.808648 235.695363 
L 171.020546 235.565677 
L 171.231637 235.435558 
L 171.34858 235.363073 
L 171.461178 235.293011 
L 171.808858 235.074988 
L 171.998325 234.955098 
L 172.183177 234.837391 
L 172.352357 234.72902 
L 172.535153 234.611235 
L 172.743605 234.476033 
L 172.942404 234.34621 
L 173.03811 234.283402 
L 173.251897 234.142372 
L 173.546935 233.946079 
L 173.633548 233.888086 
L 173.877319 233.72396 
L 174.10739 233.567828 
L 174.282868 233.447935 
L 174.532577 233.27611 
L 174.661018 233.187171 
L 174.889148 233.028257 
L 175.026831 232.931762 
L 175.237162 232.783494 
L 175.438608 232.640509 
L 175.720107 232.439087 
L 175.871864 232.329713 
L 175.967894 232.260216 
L 176.24915 232.055383 
L 176.395938 231.947714 
L 176.593306 231.802111 
L 176.889558 231.581748 
L 177.067017 231.448698 
L 177.176714 231.366058 
L 177.459354 231.151727 
L 177.538348 231.091461 
L 177.745733 230.932482 
L 178.067224 230.683835 
L 178.103989 230.655229 
L 178.38375 230.436393 
L 178.584101 230.278405 
L 178.879404 230.04359 
L 178.917189 230.013376 
L 179.194857 229.790158 
L 179.310801 229.696329 
L 179.653693 229.416679 
L 179.860662 229.246304 
L 179.908401 229.206837 
L 180.078159 229.06597 
L 180.308162 228.873812 
L 180.61598 228.614276 
L 180.776891 228.477516 
L 180.995737 228.290305 
L 181.166323 228.143402 
L 181.285446 228.040306 
L 181.468557 227.881007 
L 181.762941 227.622793 
L 181.921434 227.482683 
L 182.194208 227.239742 
L 182.374684 227.077737 
L 182.418046 227.038662 
L 182.653122 226.825796 
L 182.935 226.568236 
L 183.103837 226.412746 
L 183.294445 226.236095 
L 183.414993 226.123762 
L 183.59802 225.952293 
L 183.9244 225.643758 
L 183.99653 225.575089 
L 184.35245 225.233655 
L 184.453883 225.135554 
L 184.632481 224.961955 
L 184.898041 224.701762 
L 184.96859 224.632219 
L 185.312371 224.290795 
L 185.394919 224.208177 
L 185.544257 224.058081 
L 185.828959 223.769659 
L 186.037713 223.556256 
L 186.199759 223.389469 
L 186.402764 223.17911 
L 186.657406 222.912993 
L 186.813314 222.74881 
L 186.993843 222.557498 
L 187.300283 222.229767 
L 187.331468 222.196202 
L 187.50994 222.003347 
L 187.876354 221.603275 
L 187.892252 221.585789 
L 188.185636 221.261182 
L 188.357198 221.069652 
L 188.597767 220.798925 
L 188.854603 220.507069 
L 189.004671 220.335172 
L 189.072836 220.256755 
L 189.330126 219.958851 
L 189.621214 219.618107 
L 189.671891 219.558379 
L 189.993817 219.176081 
L 190.21439 218.911243 
L 190.374328 218.717709 
L 190.46414 218.608471 
L 190.69789 218.322253 
L 190.910422 218.059592 
L 191.175974 217.728098 
L 191.320064 217.546666 
L 191.574891 217.223062 
L 191.692791 217.072142 
L 191.969713 216.714628 
L 192.138738 216.494286 
L 192.295274 216.288764 
L 192.540028 215.964559 
L 192.753826 215.678454 
L 192.940116 215.426908 
L 193.141215 215.152974 
L 193.356932 214.856316 
L 193.470936 214.698343 
L 193.647154 214.452508 
L 193.831488 214.193175 
L 194.018363 213.927957 
L 194.336397 213.47113 
L 194.505256 213.225719 
L 194.633203 213.038418 
L 194.836108 212.738966 
L 194.997484 212.498646 
L 195.133004 212.295328 
L 195.351915 211.963951 
L 195.662627 211.487206 
L 195.750867 211.350414 
L 195.996272 210.966642 
L 196.139375 210.740549 
L 196.401285 210.322237 
L 196.593338 210.011707 
L 196.734866 209.780767 
L 196.959496 209.41048 
L 197.132169 209.122646 
L 197.32822 208.792394 
L 197.5504 208.413579 
L 197.70945 208.139359 
L 197.986077 207.656199 
L 198.146203 207.37281 
L 198.445181 206.836149 
L 198.570577 206.608061 
L 198.696565 206.377063 
L 199.021199 205.773125 
L 199.205418 205.424639 
L 199.377254 205.095676 
L 199.458351 204.939085 
L 199.638389 204.588307 
L 199.818427 204.233092 
L 199.915763 204.039153 
L 200.176859 203.512147 
L 200.277172 203.306975 
L 200.429137 202.99322 
L 200.613641 202.607392 
L 200.897402 202.003121 
L 201.014941 201.748812 
L 201.26292 201.204232 
L 201.541418 200.579034 
L 201.608488 200.426226 
L 201.81724 199.944827 
L 202.04638 199.40592 
L 202.178999 199.088776 
L 202.311618 198.767635 
L 202.536729 198.213001 
L 202.567348 198.136603 
L 202.744856 197.689023 
L 202.922363 197.233175 
L 202.993672 197.047631 
L 203.170214 196.582065 
L 203.346756 196.107286 
L 203.469273 195.772123 
L 203.66236 195.23398 
L 203.771264 194.924852 
L 203.948682 194.412127 
L 204.1261 193.88748 
L 204.261935 193.477259 
L 204.372627 193.137206 
L 204.495975 192.751871 
L 204.619324 192.35947 
L 204.722091 192.026883 
L 204.824859 191.688908 
L 204.91394 191.391394 
L 205.003021 191.089475 
L 205.142936 190.605924 
L 205.293761 190.071073 
L 205.369174 189.798027 
L 205.444586 189.521032 
L 205.543381 189.151903 
L 205.642175 188.775316 
L 205.713176 188.499825 
L 205.825778 188.054119 
L 205.938379 187.596929 
L 206.001339 187.335969 
L 206.064298 187.070977 
L 206.127258 186.801771 
L 206.190217 186.528155 
L 206.254713 186.243066 
L 206.319209 185.952879 
L 206.406491 185.551567 
L 206.493773 185.139676 
L 206.581055 184.716366 
L 206.668337 184.280672 
L 206.742431 183.900276 
L 206.793846 183.630194 
L 206.845261 183.354773 
L 206.896676 183.073695 
L 206.948092 182.786609 
L 206.987334 182.563211 
L 207.026576 182.335897 
L 207.065818 182.10446 
L 207.10506 181.868675 
L 207.159162 181.536015 
L 207.213264 181.193888 
L 207.267365 180.84146 
L 207.321467 180.477764 
L 207.353089 180.259525 
L 207.384711 180.0368 
L 207.416334 179.809305 
L 207.447956 179.576728 
L 207.479578 179.338718 
L 207.511201 179.094885 
L 207.542823 178.844784 
L 207.574445 178.587918 
L 207.61668 178.233293 
L 207.658914 177.863961 
L 207.680031 177.673181 
L 207.701148 177.477951 
L 207.722265 177.277949 
L 207.743382 177.072812 
L 207.763542 176.871809 
L 207.783701 176.665341 
L 207.80386 176.452943 
L 207.824019 176.234076 
L 207.844179 176.008117 
L 207.864338 175.774335 
L 207.884497 175.531863 
L 207.904656 175.279662 
L 207.91951 175.086888 
L 207.934363 174.887546 
L 207.949216 174.680918 
L 207.964069 174.466147 
L 207.978922 174.242193 
L 207.993776 174.007772 
L 208.008629 173.76127 
L 208.023482 173.500612 
L 208.030909 173.364149 
L 208.038335 173.223046 
L 208.045762 173.076797 
L 208.053188 172.924795 
L 208.060615 172.766304 
L 208.068042 172.600419 
L 208.075468 172.425998 
L 208.082895 172.241572 
L 208.090321 172.045198 
L 208.097748 171.834204 
L 208.105175 171.604746 
L 208.112601 171.350921 
L 208.120028 171.062797 
L 208.127454 170.721004 
L 208.134881 170.275538 
L 208.142308 169.2 
L 208.142308 169.2 
z
" style="fill:#808080;opacity:0.5;"/>
   </g>
   <g id="patch_6">
    <path clip-path="url(#pd73b09d50e)" d="M 130.257692 169.2 
L 130.257692 169.2 
L 130.262978 168.292647 
L 130.268263 167.916831 
L 130.273549 167.628471 
L 130.278834 167.385386 
L 130.28412 167.171234 
L 130.289405 166.977636 
L 130.294691 166.799613 
L 130.299976 166.633922 
L 130.305262 166.47831 
L 130.310547 166.331135 
L 130.315833 166.191161 
L 130.321118 166.057423 
L 130.326404 165.929158 
L 130.331689 165.805744 
L 130.34226 165.571511 
L 130.352831 165.351537 
L 130.363402 165.143501 
L 130.373973 164.945653 
L 130.384544 164.75663 
L 130.395115 164.575351 
L 130.405686 164.400938 
L 130.416257 164.232668 
L 130.426828 164.069936 
L 130.439049 163.888038 
L 130.45127 163.712194 
L 130.463491 163.541839 
L 130.475712 163.37649 
L 130.487933 163.215733 
L 130.500154 163.059207 
L 130.524596 162.757625 
L 130.549038 162.46963 
L 130.57348 162.193549 
L 130.597922 161.928024 
L 130.622365 161.671938 
L 130.64526 161.439786 
L 130.668156 161.214446 
L 130.691051 160.995356 
L 130.713947 160.782029 
L 130.736842 160.574037 
L 130.759738 160.371003 
L 130.782633 160.172592 
L 130.805529 159.978505 
L 130.850636 159.607777 
L 130.895742 159.251058 
L 130.940849 158.906892 
L 130.985956 158.574058 
L 131.021229 158.321008 
L 131.056502 158.073823 
L 131.091775 157.832121 
L 131.127048 157.595559 
L 131.162321 157.36383 
L 131.197594 157.136654 
L 131.232867 156.913779 
L 131.26814 156.694975 
L 131.308213 156.451072 
L 131.348285 156.211873 
L 131.415821 155.818684 
L 131.483357 155.437055 
L 131.550894 155.066048 
L 131.61843 154.70485 
L 131.680062 154.383173 
L 131.741695 154.068585 
L 131.803328 153.760652 
L 131.864961 153.458982 
L 131.917364 153.207151 
L 131.969767 152.959393 
L 132.074573 152.475377 
L 132.155323 152.11224 
L 132.238604 151.74603 
L 132.321884 151.387737 
L 132.405165 151.036892 
L 132.488445 150.693071 
L 132.613546 150.188966 
L 132.684224 149.910342 
L 132.754902 149.635941 
L 132.826857 149.360743 
L 132.898811 149.089568 
L 133.042719 148.558654 
L 133.101821 148.344818 
L 133.248519 147.823993 
L 133.395217 147.316543 
L 133.517257 146.903923 
L 133.669866 146.399369 
L 133.822476 145.906741 
L 133.978286 145.415317 
L 134.110848 145.005863 
L 134.24341 144.60394 
L 134.342014 144.30964 
L 134.449908 143.991993 
L 134.557803 143.678756 
L 134.681762 143.324112 
L 134.805722 142.974849 
L 134.967378 142.527111 
L 135.088157 142.198066 
L 135.208937 141.873516 
L 135.416332 141.326252 
L 135.636342 140.758864 
L 135.801567 140.341196 
L 136.029742 139.77567 
L 136.21211 139.332628 
L 136.227325 139.296011 
L 136.472808 138.712362 
L 136.713522 138.152586 
L 136.841925 137.858834 
L 137.095281 137.288664 
L 137.359912 136.705911 
L 137.50701 136.38738 
L 137.720164 135.932373 
L 137.884488 135.586728 
L 138.179787 134.976339 
L 138.243366 134.84667 
L 138.442197 134.445032 
L 138.663539 134.004631 
L 138.84696 133.644859 
L 139.156906 133.047163 
L 139.217541 132.931696 
L 139.540045 132.325309 
L 139.692304 132.043435 
L 139.867523 131.722446 
L 140.114596 131.275815 
L 140.23309 131.064039 
L 140.514357 130.567455 
L 140.726874 130.197787 
L 140.893659 129.91091 
L 140.997329 129.734 
L 141.302987 129.218522 
L 141.33639 129.162733 
L 141.586932 128.747618 
L 141.897286 128.241358 
L 142.080322 127.94679 
L 142.161885 127.816463 
L 142.451777 127.357826 
L 142.654174 127.041754 
L 142.870759 126.707198 
L 143.029624 126.464164 
L 143.20814 126.193405 
L 143.407969 125.893202 
L 143.561673 125.664325 
L 143.847748 125.242943 
L 143.974994 125.0574 
L 144.23128 124.687149 
L 144.419939 124.417491 
L 144.638255 124.108442 
L 144.651152 124.090284 
L 144.926433 123.705314 
L 145.217614 123.303418 
L 145.395727 123.060214 
L 145.472796 122.955588 
L 145.661974 122.70031 
L 145.978464 122.278045 
L 146.067381 122.160477 
L 146.396934 121.728723 
L 146.418979 121.700064 
L 146.695355 121.343074 
L 146.817629 121.186491 
L 147.009882 120.941945 
L 147.266677 120.61841 
L 147.552539 120.262353 
L 147.70268 120.077045 
L 147.900302 119.83489 
L 148.149512 119.532326 
L 148.315715 119.332254 
L 148.3664 119.271509 
L 148.700682 118.873999 
L 148.818424 118.735258 
L 149.092905 118.414359 
L 149.190049 118.301625 
L 149.341076 118.127223 
L 149.536024 117.903638 
L 149.825224 117.575092 
L 150.117777 117.246491 
L 150.188626 117.167471 
L 150.414281 116.917228 
L 150.628824 116.681313 
L 150.852372 116.437546 
L 151.005276 116.272002 
L 151.183837 116.079891 
L 151.404963 115.843772 
L 151.644243 115.590468 
L 151.851095 115.373308 
L 151.954435 115.265444 
L 152.189574 115.021546 
L 152.364845 114.841118 
L 152.477966 114.725287 
L 152.846002 114.351738 
L 153.053692 114.143141 
L 153.10318 114.093668 
L 153.272712 113.924863 
L 153.544261 113.656624 
L 153.769931 113.435692 
L 153.944358 113.26615 
L 154.203294 113.016407 
L 154.358076 112.868217 
L 154.537985 112.696992 
L 154.635466 112.604672 
L 154.884899 112.369887 
L 155.068776 112.198127 
L 155.225764 112.05236 
L 155.5061 111.794051 
L 155.616846 111.692703 
L 155.839726 111.489921 
L 156.025108 111.32245 
L 156.308606 111.068419 
L 156.506452 110.89261 
L 156.613845 110.797681 
L 156.948222 110.504354 
L 157.114725 110.359546 
L 157.211191 110.276026 
L 157.419435 110.096671 
L 157.60644 109.936694 
L 157.904964 109.683426 
L 158.072269 109.542607 
L 158.32036 109.335262 
L 158.502195 109.184398 
L 158.630844 109.078221 
L 158.875203 108.877817 
L 159.086183 108.706117 
L 159.304859 108.529439 
L 159.327914 108.510888 
L 159.605343 108.288783 
L 159.826853 108.11293 
L 160.007139 107.970768 
L 160.232524 107.794251 
L 160.409997 107.656196 
L 160.51139 107.577691 
L 160.73825 107.403005 
L 161.037183 107.174839 
L 161.138261 107.098205 
L 161.446496 106.866105 
L 161.536777 106.798575 
L 161.747026 106.642098 
L 161.914139 106.518505 
L 162.252808 106.270141 
L 162.292385 106.2413 
L 162.454069 106.12387 
L 162.646958 105.984603 
L 162.984782 105.74284 
L 163.105649 105.657001 
L 163.350763 105.483983 
L 163.433791 105.425696 
L 163.628183 105.28986 
L 163.877485 105.116939 
L 164.206888 104.890652 
L 164.265286 104.850794 
L 164.48361 104.70247 
L 164.731649 104.535264 
L 164.938095 104.39715 
L 165.151135 104.255621 
L 165.20723 104.218522 
L 165.464372 104.04935 
L 165.581214 103.972961 
L 165.924616 103.750173 
L 165.974908 103.71776 
L 166.22594 103.556787 
L 166.381637 103.457626 
L 166.662864 103.279828 
L 166.888373 103.138466 
L 167.066428 103.027608 
L 167.337663 102.86001 
L 167.498834 102.761146 
L 167.725829 102.622815 
L 167.744967 102.611201 
L 168.03826 102.434151 
L 168.292367 102.282173 
L 168.388189 102.225204 
L 168.640938 102.075823 
L 168.885894 101.932272 
L 169.080858 101.818871 
L 169.2 101.749945 
L 169.2 169.2 
z
" style="fill:#808080;opacity:0.5;"/>
   </g>
   <g id="patch_7">
    <path clip-path="url(#pd73b09d50e)" d="M 130.257692 169.2 
L 130.257692 169.2 
L 130.264233 170.209357 
L 130.270774 170.627417 
L 130.277315 170.948185 
L 130.283855 171.218588 
L 130.290396 171.456802 
L 130.296937 171.672151 
L 130.303477 171.870172 
L 130.310018 172.054474 
L 130.316559 172.227564 
L 130.3231 172.391265 
L 130.32964 172.546957 
L 130.336181 172.695709 
L 130.342722 172.838373 
L 130.349263 172.975639 
L 130.355803 173.108075 
L 130.362344 173.236158 
L 130.375426 173.480812 
L 130.388507 173.712183 
L 130.401588 173.932218 
L 130.41467 174.142433 
L 130.427751 174.344031 
L 130.440833 174.537989 
L 130.453914 174.725111 
L 130.466996 174.906071 
L 130.485823 175.156818 
L 130.50465 175.397371 
L 130.523477 175.628875 
L 130.542304 175.852273 
L 130.561131 176.068358 
L 130.579958 176.277799 
L 130.598785 176.481169 
L 130.617612 176.678963 
L 130.634736 176.854383 
L 130.651859 177.025833 
L 130.686106 177.357824 
L 130.720353 177.676684 
L 130.754599 177.983844 
L 130.788846 178.28049 
L 130.823093 178.567622 
L 130.85734 178.84609 
L 130.891587 179.116623 
L 130.9304 179.414434 
L 130.969214 179.703661 
L 131.008027 179.984995 
L 131.046841 180.259039 
L 131.078914 180.480369 
L 131.110988 180.697349 
L 131.175134 181.119207 
L 131.239281 181.526303 
L 131.303427 181.920053 
L 131.376849 182.355899 
L 131.450271 182.777365 
L 131.504711 183.081356 
L 131.55915 183.378622 
L 131.615942 183.68201 
L 131.672733 183.978953 
L 131.729524 184.269833 
L 131.786316 184.554993 
L 131.863626 184.93455 
L 131.940937 185.304793 
L 132.018247 185.66635 
L 132.095557 186.019783 
L 132.156413 186.292605 
L 132.217269 186.560928 
L 132.292285 186.885796 
L 132.367301 187.20449 
L 132.44145 187.513752 
L 132.5156 187.817582 
L 132.589749 188.116242 
L 132.663898 188.409973 
L 132.749296 188.742442 
L 132.834693 189.068982 
L 132.969181 189.571901 
L 133.061347 189.909001 
L 133.153514 190.240296 
L 133.305273 190.773862 
L 133.457032 191.293503 
L 133.567578 191.663814 
L 133.673646 192.012972 
L 133.779714 192.356381 
L 133.909792 192.770043 
L 134.03987 193.175864 
L 134.15659 193.533659 
L 134.271582 193.880542 
L 134.386573 194.222089 
L 134.506706 194.573439 
L 134.627676 194.921825 
L 134.748647 195.264993 
L 134.884246 195.643709 
L 135.019845 196.016391 
L 135.218737 196.552625 
L 135.323551 196.830455 
L 135.44645 197.152203 
L 135.56935 197.469755 
L 135.665527 197.715426 
L 135.796688 198.046571 
L 135.92785 198.373369 
L 136.075272 198.735667 
L 136.222693 199.092849 
L 136.352714 199.403768 
L 136.437902 199.605453 
L 136.595427 199.974294 
L 136.752952 200.33797 
L 136.835055 200.525533 
L 137.035035 200.976865 
L 137.207553 201.360129 
L 137.361489 201.697524 
L 137.515425 202.030729 
L 137.709397 202.444826 
L 137.848458 202.73786 
L 138.113237 203.287279 
L 138.358655 203.786921 
L 138.457926 203.986495 
L 138.615841 204.301051 
L 138.929298 204.915158 
L 139.125054 205.291994 
L 139.233545 205.498702 
L 139.445952 205.899102 
L 139.697659 206.366428 
L 139.846822 206.639817 
L 139.983622 206.888286 
L 140.227714 207.326386 
L 140.528031 207.856473 
L 140.657041 208.081257 
L 140.851972 208.41765 
L 140.970727 208.620706 
L 141.284618 209.150752 
L 141.468302 209.456556 
L 141.687266 209.817 
L 141.84664 210.076617 
L 141.969167 210.274673 
L 142.249451 210.722821 
L 142.301389 210.805129 
L 142.666348 211.377151 
L 142.797527 211.580101 
L 143.013725 211.911603 
L 143.239347 212.253676 
L 143.380807 212.466169 
L 143.578417 212.760503 
L 143.770574 213.043964 
L 144.011243 213.395248 
L 144.134372 213.573386 
L 144.307455 213.822022 
L 144.597062 214.233488 
L 144.676312 214.345107 
L 144.897349 214.654246 
L 145.134237 214.982053 
L 145.334743 215.256738 
L 145.463311 215.431555 
L 145.741088 215.805805 
L 145.876123 215.986061 
L 146.039885 216.203217 
L 146.218365 216.438106 
L 146.514542 216.823858 
L 146.746216 217.122158 
L 146.946644 217.377837 
L 147.135963 217.617345 
L 147.347019 217.882094 
L 147.462687 218.026191 
L 147.684757 218.300894 
L 147.781672 218.419985 
L 148.158158 218.878114 
L 148.172222 218.895092 
L 148.532056 219.326153 
L 148.614546 219.424087 
L 148.917146 219.780565 
L 149.087308 219.979133 
L 149.167983 220.072806 
L 149.419765 220.363232 
L 149.65208 220.628655 
L 149.918239 220.929789 
L 150.081208 221.112639 
L 150.308894 221.366173 
L 150.441011 221.51227 
L 150.706361 221.803473 
L 150.853446 221.963621 
L 151.052977 222.179445 
L 151.16879 222.30397 
L 151.473463 222.628974 
L 151.639178 222.804195 
L 151.761221 222.932545 
L 151.944789 223.124505 
L 152.258115 223.44915 
L 152.39624 223.591077 
L 152.555403 223.753729 
L 152.727148 223.928178 
L 153.025616 224.228753 
L 153.165701 224.368705 
L 153.409361 224.610449 
L 153.590799 224.789083 
L 153.77932 224.97346 
L 153.957154 225.146246 
L 154.199157 225.379621 
L 154.401567 225.573274 
L 154.471822 225.640165 
L 154.692864 225.849539 
L 154.872293 226.018297 
L 155.12353 226.252805 
L 155.394869 226.503761 
L 155.506509 226.606324 
L 155.747883 226.826709 
L 155.875894 226.942837 
L 156.031763 227.083542 
L 156.203344 227.237551 
L 156.398224 227.411366 
L 156.675859 227.656975 
L 156.786239 227.753971 
L 157.070962 228.002474 
L 157.35495 228.247927 
L 157.454838 228.333694 
L 157.741822 228.578484 
L 157.876969 228.692933 
L 158.019843 228.813353 
L 158.298185 229.046276 
L 158.343237 229.08377 
L 158.535575 229.243196 
L 158.919157 229.558054 
L 158.94066 229.575584 
L 159.180389 229.770157 
L 159.453073 229.989569 
L 159.706383 230.191593 
L 159.897008 230.342493 
L 159.997275 230.421476 
L 160.219701 230.595742 
L 160.422165 230.75324 
L 160.668027 230.943064 
L 160.851789 231.083925 
L 160.997689 231.195147 
L 161.165769 231.322605 
L 161.459989 231.544001 
L 161.499606 231.573646 
L 161.804663 231.800607 
L 161.962704 231.917282 
L 162.137522 232.045629 
L 162.400356 232.237189 
L 162.455163 232.276922 
L 162.775703 232.507855 
L 162.862725 232.570125 
L 163.168743 232.78767 
L 163.236189 232.835319 
L 163.558326 233.061427 
L 163.709152 233.16646 
L 163.979685 233.353535 
L 164.089359 233.428895 
L 164.348709 233.60601 
L 164.588814 233.768619 
L 164.68274 233.831876 
L 164.894151 233.973531 
L 165.02396 234.060014 
L 165.243177 234.205214 
L 165.490712 234.367896 
L 165.59007 234.432817 
L 165.904354 234.636752 
L 166.01646 234.708979 
L 166.202879 234.828482 
L 166.440047 234.97944 
L 166.622226 235.094583 
L 166.891162 235.263275 
L 167.134361 235.414512 
L 167.259229 235.491683 
L 167.370388 235.560108 
L 167.55647 235.674079 
L 167.74022 235.785919 
L 167.958222 235.917708 
L 168.312013 236.129522 
L 168.50521 236.244118 
L 168.621149 236.312527 
L 168.753981 236.390572 
L 168.958314 236.509939 
L 169.2 236.650055 
L 169.2 169.2 
z
" style="fill:#808080;opacity:0.5;"/>
   </g>
   <g id="matplotlib.axis_1"/>
   <g id="matplotlib.axis_2"/>
   <g id="line2d_1">
    <path clip-path="url(#pd73b09d50e)" d="M 169.2 101.749945 
L 172.676058 103.880053 
L 176.050689 106.199883 
L 179.374369 108.75527 
L 182.596831 111.523074 
L 185.389454 114.186346 
L 188.307177 117.274374 
L 191.106038 120.58424 
L 193.579205 123.85246 
L 196.027992 127.483324 
L 198.081145 130.911718 
L 199.879714 134.288863 
L 201.640162 138.046247 
L 203.155118 141.777772 
L 204.597387 145.970209 
L 205.687368 149.799554 
L 206.621193 153.882392 
L 207.356739 158.165945 
L 207.830463 162.237351 
L 208.092396 166.412117 
L 208.142308 169.2 
L 208.142308 169.2 
" style="fill:none;stroke:#0000ff;stroke-linecap:square;"/>
   </g>
   <g id="line2d_2">
    <path clip-path="url(#pd73b09d50e)" d="M 169.2 236.650055 
L 172.743605 234.476033 
L 176.24915 232.055383 
L 179.310801 229.696329 
L 182.418046 227.038662 
L 185.544257 224.058081 
L 188.357198 221.069652 
L 190.910422 218.059592 
L 193.470936 214.698343 
L 195.750867 211.350414 
L 197.986077 207.656199 
L 199.915763 204.039153 
L 201.608488 200.426226 
L 203.170214 196.582065 
L 204.495975 192.751871 
L 205.642175 188.775316 
L 206.581055 184.716366 
L 207.321467 180.477764 
L 207.80386 176.452943 
L 208.082895 172.241572 
L 208.142308 169.2 
L 208.142308 169.2 
" style="fill:none;stroke:#0000ff;stroke-linecap:square;"/>
   </g>
   <g id="line2d_3">
    <path clip-path="url(#pd73b09d50e)" d="M 130.257692 169.2 
L 130.395115 164.575351 
L 130.759738 160.371003 
L 131.348285 156.211873 
L 132.155323 152.11224 
L 133.101821 148.344818 
L 134.342014 144.30964 
L 135.801567 140.341196 
L 137.50701 136.38738 
L 139.217541 132.931696 
L 141.33639 129.162733 
L 143.561673 125.664325 
L 146.067381 122.160477 
L 148.818424 118.735258 
L 151.644243 115.590468 
L 154.635466 112.604672 
L 157.60644 109.936694 
L 160.73825 107.403005 
L 164.206888 104.890652 
L 167.725829 102.622815 
L 169.2 101.749945 
L 169.2 101.749945 
" style="fill:none;stroke:#0000ff;stroke-linecap:square;"/>
   </g>
   <g id="line2d_4">
    <path clip-path="url(#pd73b09d50e)" d="M 130.257692 169.2 
L 130.388507 173.712183 
L 130.720353 177.676684 
L 131.303427 181.920053 
L 132.095557 186.019783 
L 133.061347 189.909001 
L 134.271582 193.880542 
L 135.665527 197.715426 
L 137.361489 201.697524 
L 139.233545 205.498702 
L 141.284618 209.150752 
L 143.578417 212.760503 
L 146.039885 216.203217 
L 148.614546 219.424087 
L 151.473463 222.628974 
L 154.471822 225.640165 
L 157.454838 228.333694 
L 160.668027 230.943064 
L 164.089359 233.428895 
L 167.55647 235.674079 
L 169.2 236.650055 
L 169.2 236.650055 
" style="fill:none;stroke:#0000ff;stroke-linecap:square;"/>
   </g>
   <g id="text_1">
    <!-- $\Omega$ -->
    <g transform="translate(17.569231 23.978606)scale(0.1 -0.1)">
     <defs>
      <path d="M 7.71875 0 
L 4.390625 16.609375 
L 7.328125 16.609375 
Q 7.859375 13.71875 8.296875 11.5 
Q 8.734375 9.28125 9.4375 8.375 
Q 10.15625 7.46875 11.71875 7.171875 
Q 13.28125 6.890625 16.890625 6.890625 
L 23 6.890625 
Q 21.53125 12.546875 15.6875 21.65625 
Q 9.859375 30.765625 7.734375 34.890625 
Q 5.609375 39.015625 5.609375 45.515625 
Q 5.609375 53.078125 10.09375 58.765625 
Q 14.59375 64.453125 21.703125 67.484375 
Q 28.8125 70.515625 36.078125 70.515625 
Q 43.3125 70.515625 50.40625 67.484375 
Q 57.515625 64.453125 62 58.71875 
Q 66.5 52.984375 66.5 45.515625 
Q 66.5 40.4375 64.640625 35.9375 
Q 62.796875 31.453125 59.90625 26.953125 
Q 57.03125 22.46875 53.6875 16.9375 
Q 50.34375 11.421875 49.125 6.890625 
L 55.171875 6.890625 
Q 58.84375 6.890625 60.453125 7.171875 
Q 62.0625 7.46875 62.734375 8.375 
Q 63.421875 9.28125 63.84375 11.5 
Q 64.265625 13.71875 64.796875 16.609375 
L 67.671875 16.609375 
L 64.40625 0 
L 46.6875 0 
Q 45.703125 0 45.703125 1.3125 
Q 45.703125 6.390625 46.9375 11.265625 
Q 48.1875 16.15625 50.625 23.09375 
Q 53.078125 30.03125 54.4375 35.328125 
Q 55.8125 40.625 55.8125 45.515625 
Q 55.8125 51.515625 53.46875 56.640625 
Q 51.125 61.765625 46.625 64.84375 
Q 42.140625 67.921875 36.078125 67.921875 
Q 26.953125 67.921875 21.625 61.40625 
Q 16.3125 54.890625 16.3125 45.515625 
Q 16.359375 40.375 17.53125 35.828125 
Q 18.703125 31.296875 21.3125 23.71875 
Q 23.921875 16.15625 25.171875 11.265625 
Q 26.421875 6.390625 26.421875 1.3125 
Q 26.421875 0 25.390625 0 
z
" id="Cmr10-173"/>
     </defs>
     <use transform="translate(0 0.484375)" xlink:href="#Cmr10-173"/>
    </g>
   </g>
   <g id="text_2">
    <!-- $A$ -->
    <g style="fill:#0000ff;" transform="translate(87.565385 94.07476)scale(0.1 -0.1)">
     <defs>
      <path d="M 4.5 0 
Q 3.515625 0 3.515625 1.3125 
Q 3.90625 3.515625 4.78125 3.515625 
Q 8.84375 3.515625 11.796875 5.125 
Q 14.75 6.734375 16.890625 10.109375 
Q 17.09375 10.296875 17.09375 10.296875 
L 52.78125 70.515625 
Q 53.5625 71.578125 54.6875 71.578125 
L 56 71.578125 
Q 56.296875 71.578125 56.59375 71.453125 
Q 56.890625 71.34375 57.109375 71.0625 
Q 57.328125 70.796875 57.328125 70.515625 
L 63.375 5.90625 
Q 63.375 5.46875 63.8125 4.59375 
Q 64.796875 3.515625 71.296875 3.515625 
Q 72.3125 3.515625 72.3125 2.203125 
Q 71.96875 0.875 71.75 0.4375 
Q 71.53125 0 70.609375 0 
L 45.609375 0 
Q 44.671875 0 44.671875 1.3125 
Q 45.21875 3.515625 46 3.515625 
Q 53.90625 3.515625 54.390625 6.203125 
L 52.875 22.703125 
L 28.21875 22.703125 
L 20.21875 9.28125 
Q 19.484375 8.203125 19.484375 6.78125 
Q 19.484375 5.03125 21.171875 4.265625 
Q 22.859375 3.515625 24.90625 3.515625 
Q 25.875 3.515625 25.875 2.203125 
Q 25.53125 0.78125 25.328125 0.390625 
Q 25.140625 0 24.21875 0 
z
M 30.171875 26.21875 
L 52.484375 26.21875 
L 49.515625 58.59375 
z
" id="Cmmi10-65"/>
     </defs>
     <use transform="translate(0 0.421875)" xlink:href="#Cmmi10-65"/>
    </g>
   </g>
   <g id="text_3">
    <!-- $B$ -->
    <g style="fill:#ff0000;" transform="translate(243.284615 94.07476)scale(0.1 -0.1)">
     <defs>
      <path d="M 4.984375 0 
Q 4 0 4 1.3125 
Q 4.046875 1.5625 4.1875 2.140625 
Q 4.34375 2.734375 4.578125 3.125 
Q 4.828125 3.515625 5.328125 3.515625 
Q 8.15625 3.515625 10.25 3.65625 
Q 12.359375 3.8125 13.8125 4.203125 
Q 14.984375 4.640625 15.71875 6.890625 
L 29.390625 61.8125 
Q 29.59375 62.796875 29.59375 63.1875 
Q 29.59375 64.265625 28.421875 64.40625 
Q 26.515625 64.796875 21.1875 64.796875 
Q 20.21875 64.796875 20.21875 66.109375 
Q 20.265625 66.359375 20.40625 66.96875 
Q 20.5625 67.578125 20.828125 67.9375 
Q 21.09375 68.3125 21.484375 68.3125 
L 57.328125 68.3125 
Q 60.59375 68.3125 63.796875 67.5 
Q 67 66.703125 69.703125 64.9375 
Q 72.40625 63.1875 74 60.5625 
Q 75.59375 57.953125 75.59375 54.5 
Q 75.59375 50.734375 73.65625 47.5 
Q 71.734375 44.28125 68.671875 41.890625 
Q 65.625 39.5 62.078125 37.953125 
Q 58.546875 36.421875 54.6875 35.6875 
Q 57.421875 35.6875 60.21875 34.609375 
Q 63.03125 33.546875 65.234375 31.6875 
Q 67.4375 29.828125 68.78125 27.234375 
Q 70.125 24.65625 70.125 21.6875 
Q 70.125 15.671875 65.921875 10.6875 
Q 61.71875 5.71875 55.34375 2.859375 
Q 48.96875 0 43.015625 0 
z
M 23.390625 4.296875 
Q 23.390625 3.515625 26.8125 3.515625 
L 41.109375 3.515625 
Q 46 3.515625 50.484375 6.21875 
Q 54.984375 8.9375 57.6875 13.421875 
Q 60.40625 17.921875 60.40625 22.796875 
Q 60.40625 25.78125 59.15625 28.4375 
Q 57.90625 31.109375 55.5625 32.640625 
Q 53.21875 34.1875 50.203125 34.1875 
L 30.71875 34.1875 
L 23.78125 6.5 
Q 23.390625 5.125 23.390625 4.296875 
z
M 31.390625 36.8125 
L 46.578125 36.8125 
Q 51.375 36.8125 55.890625 39.25 
Q 60.40625 41.703125 63.25 45.890625 
Q 66.109375 50.09375 66.109375 54.78125 
Q 66.109375 59.125 63.390625 61.953125 
Q 60.6875 64.796875 56.390625 64.796875 
L 42.671875 64.796875 
Q 39.984375 64.796875 39.0625 64.296875 
Q 38.140625 63.8125 37.5 61.375 
z
" id="Cmmi10-66"/>
     </defs>
     <use transform="translate(0 0.6875)" xlink:href="#Cmmi10-66"/>
    </g>
   </g>
   <g id="text_4">
    <!-- $A\cap B$, coloré en gris -->
    <g transform="translate(119.35 55.323077)scale(0.1 -0.1)">
     <defs>
      <path d="M 5.609375 -0.390625 
L 5.609375 38.625 
Q 5.609375 45.265625 9.765625 50.09375 
Q 13.921875 54.9375 20.40625 57.375 
Q 26.90625 59.8125 33.296875 59.8125 
Q 38.03125 59.8125 42.890625 58.515625 
Q 47.75 57.234375 51.875 54.515625 
Q 56 51.8125 58.484375 47.75 
Q 60.984375 43.703125 60.984375 38.625 
L 60.984375 -0.390625 
Q 60.984375 -1.171875 60.390625 -1.6875 
Q 59.8125 -2.203125 58.984375 -2.203125 
Q 58.25 -2.203125 57.609375 -1.6875 
Q 56.984375 -1.171875 56.984375 -0.390625 
L 56.984375 38.28125 
Q 56.984375 42.671875 54.8125 46.015625 
Q 52.640625 49.359375 49.234375 51.453125 
Q 45.84375 53.5625 41.59375 54.6875 
Q 37.359375 55.8125 33.296875 55.8125 
Q 27.734375 55.8125 22.28125 53.859375 
Q 16.84375 51.90625 13.234375 47.953125 
Q 9.625 44 9.625 38.28125 
L 9.625 -0.390625 
Q 9.625 -1.171875 8.984375 -1.6875 
Q 8.34375 -2.203125 7.625 -2.203125 
Q 6.78125 -2.203125 6.1875 -1.6875 
Q 5.609375 -1.171875 5.609375 -0.390625 
z
" id="Cmsy10-92"/>
      <path d="M 11.71875 12.40625 
L 22.015625 12.40625 
L 22.015625 4 
L 14.015625 -11.625 
L 7.71875 -11.625 
L 11.71875 4 
z
" id="DejaVuSans-44"/>
      <path id="DejaVuSans-32"/>
      <path d="M 48.78125 52.59375 
L 48.78125 44.1875 
Q 44.96875 46.296875 41.140625 47.34375 
Q 37.3125 48.390625 33.40625 48.390625 
Q 24.65625 48.390625 19.8125 42.84375 
Q 14.984375 37.3125 14.984375 27.296875 
Q 14.984375 17.28125 19.8125 11.734375 
Q 24.65625 6.203125 33.40625 6.203125 
Q 37.3125 6.203125 41.140625 7.25 
Q 44.96875 8.296875 48.78125 10.40625 
L 48.78125 2.09375 
Q 45.015625 0.34375 40.984375 -0.53125 
Q 36.96875 -1.421875 32.421875 -1.421875 
Q 20.0625 -1.421875 12.78125 6.34375 
Q 5.515625 14.109375 5.515625 27.296875 
Q 5.515625 40.671875 12.859375 48.328125 
Q 20.21875 56 33.015625 56 
Q 37.15625 56 41.109375 55.140625 
Q 45.0625 54.296875 48.78125 52.59375 
z
" id="DejaVuSans-99"/>
      <path d="M 30.609375 48.390625 
Q 23.390625 48.390625 19.1875 42.75 
Q 14.984375 37.109375 14.984375 27.296875 
Q 14.984375 17.484375 19.15625 11.84375 
Q 23.34375 6.203125 30.609375 6.203125 
Q 37.796875 6.203125 41.984375 11.859375 
Q 46.1875 17.53125 46.1875 27.296875 
Q 46.1875 37.015625 41.984375 42.703125 
Q 37.796875 48.390625 30.609375 48.390625 
z
M 30.609375 56 
Q 42.328125 56 49.015625 48.375 
Q 55.71875 40.765625 55.71875 27.296875 
Q 55.71875 13.875 49.015625 6.21875 
Q 42.328125 -1.421875 30.609375 -1.421875 
Q 18.84375 -1.421875 12.171875 6.21875 
Q 5.515625 13.875 5.515625 27.296875 
Q 5.515625 40.765625 12.171875 48.375 
Q 18.84375 56 30.609375 56 
z
" id="DejaVuSans-111"/>
      <path d="M 9.421875 75.984375 
L 18.40625 75.984375 
L 18.40625 0 
L 9.421875 0 
z
" id="DejaVuSans-108"/>
      <path d="M 41.109375 46.296875 
Q 39.59375 47.171875 37.8125 47.578125 
Q 36.03125 48 33.890625 48 
Q 26.265625 48 22.1875 43.046875 
Q 18.109375 38.09375 18.109375 28.8125 
L 18.109375 0 
L 9.078125 0 
L 9.078125 54.6875 
L 18.109375 54.6875 
L 18.109375 46.1875 
Q 20.953125 51.171875 25.484375 53.578125 
Q 30.03125 56 36.53125 56 
Q 37.453125 56 38.578125 55.875 
Q 39.703125 55.765625 41.0625 55.515625 
z
" id="DejaVuSans-114"/>
      <path d="M 56.203125 29.59375 
L 56.203125 25.203125 
L 14.890625 25.203125 
Q 15.484375 15.921875 20.484375 11.0625 
Q 25.484375 6.203125 34.421875 6.203125 
Q 39.59375 6.203125 44.453125 7.46875 
Q 49.3125 8.734375 54.109375 11.28125 
L 54.109375 2.78125 
Q 49.265625 0.734375 44.1875 -0.34375 
Q 39.109375 -1.421875 33.890625 -1.421875 
Q 20.796875 -1.421875 13.15625 6.1875 
Q 5.515625 13.8125 5.515625 26.8125 
Q 5.515625 40.234375 12.765625 48.109375 
Q 20.015625 56 32.328125 56 
Q 43.359375 56 49.78125 48.890625 
Q 56.203125 41.796875 56.203125 29.59375 
z
M 47.21875 32.234375 
Q 47.125 39.59375 43.09375 43.984375 
Q 39.0625 48.390625 32.421875 48.390625 
Q 24.90625 48.390625 20.390625 44.140625 
Q 15.875 39.890625 15.1875 32.171875 
z
M 38.578125 79.984375 
L 48.296875 79.984375 
L 32.375 61.625 
L 24.90625 61.625 
z
" id="DejaVuSans-233"/>
      <path d="M 56.203125 29.59375 
L 56.203125 25.203125 
L 14.890625 25.203125 
Q 15.484375 15.921875 20.484375 11.0625 
Q 25.484375 6.203125 34.421875 6.203125 
Q 39.59375 6.203125 44.453125 7.46875 
Q 49.3125 8.734375 54.109375 11.28125 
L 54.109375 2.78125 
Q 49.265625 0.734375 44.1875 -0.34375 
Q 39.109375 -1.421875 33.890625 -1.421875 
Q 20.796875 -1.421875 13.15625 6.1875 
Q 5.515625 13.8125 5.515625 26.8125 
Q 5.515625 40.234375 12.765625 48.109375 
Q 20.015625 56 32.328125 56 
Q 43.359375 56 49.78125 48.890625 
Q 56.203125 41.796875 56.203125 29.59375 
z
M 47.21875 32.234375 
Q 47.125 39.59375 43.09375 43.984375 
Q 39.0625 48.390625 32.421875 48.390625 
Q 24.90625 48.390625 20.390625 44.140625 
Q 15.875 39.890625 15.1875 32.171875 
z
" id="DejaVuSans-101"/>
      <path d="M 54.890625 33.015625 
L 54.890625 0 
L 45.90625 0 
L 45.90625 32.71875 
Q 45.90625 40.484375 42.875 44.328125 
Q 39.84375 48.1875 33.796875 48.1875 
Q 26.515625 48.1875 22.3125 43.546875 
Q 18.109375 38.921875 18.109375 30.90625 
L 18.109375 0 
L 9.078125 0 
L 9.078125 54.6875 
L 18.109375 54.6875 
L 18.109375 46.1875 
Q 21.34375 51.125 25.703125 53.5625 
Q 30.078125 56 35.796875 56 
Q 45.21875 56 50.046875 50.171875 
Q 54.890625 44.34375 54.890625 33.015625 
z
" id="DejaVuSans-110"/>
      <path d="M 45.40625 27.984375 
Q 45.40625 37.75 41.375 43.109375 
Q 37.359375 48.484375 30.078125 48.484375 
Q 22.859375 48.484375 18.828125 43.109375 
Q 14.796875 37.75 14.796875 27.984375 
Q 14.796875 18.265625 18.828125 12.890625 
Q 22.859375 7.515625 30.078125 7.515625 
Q 37.359375 7.515625 41.375 12.890625 
Q 45.40625 18.265625 45.40625 27.984375 
z
M 54.390625 6.78125 
Q 54.390625 -7.171875 48.1875 -13.984375 
Q 42 -20.796875 29.203125 -20.796875 
Q 24.46875 -20.796875 20.265625 -20.09375 
Q 16.0625 -19.390625 12.109375 -17.921875 
L 12.109375 -9.1875 
Q 16.0625 -11.328125 19.921875 -12.34375 
Q 23.78125 -13.375 27.78125 -13.375 
Q 36.625 -13.375 41.015625 -8.765625 
Q 45.40625 -4.15625 45.40625 5.171875 
L 45.40625 9.625 
Q 42.625 4.78125 38.28125 2.390625 
Q 33.9375 0 27.875 0 
Q 17.828125 0 11.671875 7.65625 
Q 5.515625 15.328125 5.515625 27.984375 
Q 5.515625 40.671875 11.671875 48.328125 
Q 17.828125 56 27.875 56 
Q 33.9375 56 38.28125 53.609375 
Q 42.625 51.21875 45.40625 46.390625 
L 45.40625 54.6875 
L 54.390625 54.6875 
z
" id="DejaVuSans-103"/>
      <path d="M 9.421875 54.6875 
L 18.40625 54.6875 
L 18.40625 0 
L 9.421875 0 
z
M 9.421875 75.984375 
L 18.40625 75.984375 
L 18.40625 64.59375 
L 9.421875 64.59375 
z
" id="DejaVuSans-105"/>
      <path d="M 44.28125 53.078125 
L 44.28125 44.578125 
Q 40.484375 46.53125 36.375 47.5 
Q 32.28125 48.484375 27.875 48.484375 
Q 21.1875 48.484375 17.84375 46.4375 
Q 14.5 44.390625 14.5 40.28125 
Q 14.5 37.15625 16.890625 35.375 
Q 19.28125 33.59375 26.515625 31.984375 
L 29.59375 31.296875 
Q 39.15625 29.25 43.1875 25.515625 
Q 47.21875 21.78125 47.21875 15.09375 
Q 47.21875 7.46875 41.1875 3.015625 
Q 35.15625 -1.421875 24.609375 -1.421875 
Q 20.21875 -1.421875 15.453125 -0.5625 
Q 10.6875 0.296875 5.421875 2 
L 5.421875 11.28125 
Q 10.40625 8.6875 15.234375 7.390625 
Q 20.0625 6.109375 24.8125 6.109375 
Q 31.15625 6.109375 34.5625 8.28125 
Q 37.984375 10.453125 37.984375 14.40625 
Q 37.984375 18.0625 35.515625 20.015625 
Q 33.0625 21.96875 24.703125 23.78125 
L 21.578125 24.515625 
Q 13.234375 26.265625 9.515625 29.90625 
Q 5.8125 33.546875 5.8125 39.890625 
Q 5.8125 47.609375 11.28125 51.796875 
Q 16.75 56 26.8125 56 
Q 31.78125 56 36.171875 55.265625 
Q 40.578125 54.546875 44.28125 53.078125 
z
" id="DejaVuSans-115"/>
     </defs>
     <use transform="translate(0 0.015625)" xlink:href="#Cmmi10-65"/>
     <use transform="translate(92.558594 0.015625)" xlink:href="#Cmsy10-92"/>
     <use transform="translate(176.71875 0.015625)" xlink:href="#Cmmi10-66"/>
     <use transform="translate(252.5 0.015625)" xlink:href="#DejaVuSans-44"/>
     <use transform="translate(284.287109 0.015625)" xlink:href="#DejaVuSans-32"/>
     <use transform="translate(316.074219 0.015625)" xlink:href="#DejaVuSans-99"/>
     <use transform="translate(371.054688 0.015625)" xlink:href="#DejaVuSans-111"/>
     <use transform="translate(432.236328 0.015625)" xlink:href="#DejaVuSans-108"/>
     <use transform="translate(460.019531 0.015625)" xlink:href="#DejaVuSans-111"/>
     <use transform="translate(521.201172 0.015625)" xlink:href="#DejaVuSans-114"/>
     <use transform="translate(562.314453 0.015625)" xlink:href="#DejaVuSans-233"/>
     <use transform="translate(623.837891 0.015625)" xlink:href="#DejaVuSans-32"/>
     <use transform="translate(655.625 0.015625)" xlink:href="#DejaVuSans-101"/>
     <use transform="translate(717.148438 0.015625)" xlink:href="#DejaVuSans-110"/>
     <use transform="translate(780.527344 0.015625)" xlink:href="#DejaVuSans-32"/>
     <use transform="translate(812.314453 0.015625)" xlink:href="#DejaVuSans-103"/>
     <use transform="translate(875.791016 0.015625)" xlink:href="#DejaVuSans-114"/>
     <use transform="translate(916.904297 0.015625)" xlink:href="#DejaVuSans-105"/>
     <use transform="translate(944.6875 0.015625)" xlink:href="#DejaVuSans-115"/>
    </g>
   </g>
   <g id="patch_8">
    <path clip-path="url(#pd73b09d50e)" d="M 130.257692 247.084615 
C 150.912934 247.084615 170.724971 238.878201 185.330432 224.27274 
C 199.935893 209.667278 208.142308 189.855241 208.142308 169.2 
C 208.142308 148.544759 199.935893 128.732722 185.330432 114.12726 
C 170.724971 99.521799 150.912934 91.315385 130.257692 91.315385 
C 109.602451 91.315385 89.790414 99.521799 75.184953 114.12726 
C 60.579491 128.732722 52.373077 148.544759 52.373077 169.2 
C 52.373077 189.855241 60.579491 209.667278 75.184953 224.27274 
C 89.790414 238.878201 109.602451 247.084615 130.257692 247.084615 
z
" style="fill:none;stroke:#0000ff;stroke-linejoin:miter;"/>
   </g>
   <g id="patch_9">
    <path clip-path="url(#pd73b09d50e)" d="M 208.142308 247.084615 
C 228.797549 247.084615 248.609586 238.878201 263.215047 224.27274 
C 277.820509 209.667278 286.026923 189.855241 286.026923 169.2 
C 286.026923 148.544759 277.820509 128.732722 263.215047 114.12726 
C 248.609586 99.521799 228.797549 91.315385 208.142308 91.315385 
C 187.487066 91.315385 167.675029 99.521799 153.069568 114.12726 
C 138.464107 128.732722 130.257692 148.544759 130.257692 169.2 
C 130.257692 189.855241 138.464107 209.667278 153.069568 224.27274 
C 167.675029 238.878201 187.487066 247.084615 208.142308 247.084615 
z
" style="fill:none;stroke:#ff0000;stroke-linejoin:miter;"/>
   </g>
  </g>
 </g>
 <defs>
  <clipPath id="pd73b09d50e">
   <rect height="324" width="324" x="7.2" y="7.2"/>
  </clipPath>
 </defs>
</svg>
