<?xml version="1.0" encoding="utf-8" standalone="no"?>
<!DOCTYPE svg PUBLIC "-//W3C//DTD SVG 1.1//EN"
  "http://www.w3.org/Graphics/SVG/1.1/DTD/svg11.dtd">
<!-- Created with matplotlib (https://matplotlib.org/) -->
<svg height="337.733023pt" version="1.1" viewBox="0 0 453.6 337.733023" width="453.6pt" xmlns="http://www.w3.org/2000/svg" xmlns:xlink="http://www.w3.org/1999/xlink">
 <metadata>
  <rdf:RDF xmlns:cc="http://creativecommons.org/ns#" xmlns:dc="http://purl.org/dc/elements/1.1/" xmlns:rdf="http://www.w3.org/1999/02/22-rdf-syntax-ns#">
   <cc:Work>
    <dc:type rdf:resource="http://purl.org/dc/dcmitype/StillImage"/>
    <dc:date>2021-08-20T13:43:24.532848</dc:date>
    <dc:format>image/svg+xml</dc:format>
    <dc:creator>
     <cc:Agent>
      <dc:title>Matplotlib v3.3.4, https://matplotlib.org/</dc:title>
     </cc:Agent>
    </dc:creator>
   </cc:Work>
  </rdf:RDF>
 </metadata>
 <defs>
  <style type="text/css">*{stroke-linecap:butt;stroke-linejoin:round;}</style>
 </defs>
 <g id="figure_1">
  <g id="patch_1">
   <path d="M 0 337.733023 
L 453.6 337.733023 
L 453.6 0 
L 0 0 
z
" style="fill:#ffffff;"/>
  </g>
  <g id="axes_1">
   <g id="patch_2">
    <path d="M 7.2 325.513262 
L 446.4 325.513262 
L 446.4 10.160567 
L 7.2 10.160567 
z
" style="fill:#ffffff;"/>
   </g>
   <g id="matplotlib.axis_1">
    <g id="xtick_1">
     <g id="line2d_1">
      <defs>
       <path d="M 0 0 
L 0 3.5 
" id="m33271dd4c2" style="stroke:#000000;stroke-width:0.8;"/>
      </defs>
      <g>
       <use style="stroke:#000000;stroke-width:0.8;" x="25.16293" xlink:href="#m33271dd4c2" y="167.826668"/>
      </g>
     </g>
     <g id="text_1">
      <!-- −3 -->
      <g transform="translate(17.791836 182.425105)scale(0.1 -0.1)">
       <defs>
        <path d="M 10.59375 35.5 
L 73.1875 35.5 
L 73.1875 27.203125 
L 10.59375 27.203125 
z
" id="DejaVuSans-8722"/>
        <path d="M 40.578125 39.3125 
Q 47.65625 37.796875 51.625 33 
Q 55.609375 28.21875 55.609375 21.1875 
Q 55.609375 10.40625 48.1875 4.484375 
Q 40.765625 -1.421875 27.09375 -1.421875 
Q 22.515625 -1.421875 17.65625 -0.515625 
Q 12.796875 0.390625 7.625 2.203125 
L 7.625 11.71875 
Q 11.71875 9.328125 16.59375 8.109375 
Q 21.484375 6.890625 26.8125 6.890625 
Q 36.078125 6.890625 40.9375 10.546875 
Q 45.796875 14.203125 45.796875 21.1875 
Q 45.796875 27.640625 41.28125 31.265625 
Q 36.765625 34.90625 28.71875 34.90625 
L 20.21875 34.90625 
L 20.21875 43.015625 
L 29.109375 43.015625 
Q 36.375 43.015625 40.234375 45.921875 
Q 44.09375 48.828125 44.09375 54.296875 
Q 44.09375 59.90625 40.109375 62.90625 
Q 36.140625 65.921875 28.71875 65.921875 
Q 24.65625 65.921875 20.015625 65.03125 
Q 15.375 64.15625 9.8125 62.3125 
L 9.8125 71.09375 
Q 15.4375 72.65625 20.34375 73.4375 
Q 25.25 74.21875 29.59375 74.21875 
Q 40.828125 74.21875 47.359375 69.109375 
Q 53.90625 64.015625 53.90625 55.328125 
Q 53.90625 49.265625 50.4375 45.09375 
Q 46.96875 40.921875 40.578125 39.3125 
z
" id="DejaVuSans-51"/>
       </defs>
       <use xlink:href="#DejaVuSans-8722"/>
       <use x="83.789062" xlink:href="#DejaVuSans-51"/>
      </g>
     </g>
    </g>
    <g id="xtick_2">
     <g id="line2d_2">
      <g>
       <use style="stroke:#000000;stroke-width:0.8;" x="92.375287" xlink:href="#m33271dd4c2" y="167.826668"/>
      </g>
     </g>
     <g id="text_2">
      <!-- −2 -->
      <g transform="translate(85.004193 182.425105)scale(0.1 -0.1)">
       <defs>
        <path d="M 19.1875 8.296875 
L 53.609375 8.296875 
L 53.609375 0 
L 7.328125 0 
L 7.328125 8.296875 
Q 12.9375 14.109375 22.625 23.890625 
Q 32.328125 33.6875 34.8125 36.53125 
Q 39.546875 41.84375 41.421875 45.53125 
Q 43.3125 49.21875 43.3125 52.78125 
Q 43.3125 58.59375 39.234375 62.25 
Q 35.15625 65.921875 28.609375 65.921875 
Q 23.96875 65.921875 18.8125 64.3125 
Q 13.671875 62.703125 7.8125 59.421875 
L 7.8125 69.390625 
Q 13.765625 71.78125 18.9375 73 
Q 24.125 74.21875 28.421875 74.21875 
Q 39.75 74.21875 46.484375 68.546875 
Q 53.21875 62.890625 53.21875 53.421875 
Q 53.21875 48.921875 51.53125 44.890625 
Q 49.859375 40.875 45.40625 35.40625 
Q 44.1875 33.984375 37.640625 27.21875 
Q 31.109375 20.453125 19.1875 8.296875 
z
" id="DejaVuSans-50"/>
       </defs>
       <use xlink:href="#DejaVuSans-8722"/>
       <use x="83.789062" xlink:href="#DejaVuSans-50"/>
      </g>
     </g>
    </g>
    <g id="xtick_3">
     <g id="line2d_3">
      <g>
       <use style="stroke:#000000;stroke-width:0.8;" x="159.587643" xlink:href="#m33271dd4c2" y="167.826668"/>
      </g>
     </g>
     <g id="text_3">
      <!-- −1 -->
      <g transform="translate(152.21655 182.425105)scale(0.1 -0.1)">
       <defs>
        <path d="M 12.40625 8.296875 
L 28.515625 8.296875 
L 28.515625 63.921875 
L 10.984375 60.40625 
L 10.984375 69.390625 
L 28.421875 72.90625 
L 38.28125 72.90625 
L 38.28125 8.296875 
L 54.390625 8.296875 
L 54.390625 0 
L 12.40625 0 
z
" id="DejaVuSans-49"/>
       </defs>
       <use xlink:href="#DejaVuSans-8722"/>
       <use x="83.789062" xlink:href="#DejaVuSans-49"/>
      </g>
     </g>
    </g>
    <g id="xtick_4">
     <g id="line2d_4">
      <g>
       <use style="stroke:#000000;stroke-width:0.8;" x="226.8" xlink:href="#m33271dd4c2" y="167.826668"/>
      </g>
     </g>
    </g>
    <g id="xtick_5">
     <g id="line2d_5">
      <g>
       <use style="stroke:#000000;stroke-width:0.8;" x="294.012357" xlink:href="#m33271dd4c2" y="167.826668"/>
      </g>
     </g>
     <g id="text_4">
      <!-- 1 -->
      <g transform="translate(290.831107 182.425105)scale(0.1 -0.1)">
       <use xlink:href="#DejaVuSans-49"/>
      </g>
     </g>
    </g>
    <g id="xtick_6">
     <g id="line2d_6">
      <g>
       <use style="stroke:#000000;stroke-width:0.8;" x="361.224713" xlink:href="#m33271dd4c2" y="167.826668"/>
      </g>
     </g>
     <g id="text_5">
      <!-- 2 -->
      <g transform="translate(358.043463 182.425105)scale(0.1 -0.1)">
       <use xlink:href="#DejaVuSans-50"/>
      </g>
     </g>
    </g>
    <g id="xtick_7">
     <g id="line2d_7">
      <g>
       <use style="stroke:#000000;stroke-width:0.8;" x="428.43707" xlink:href="#m33271dd4c2" y="167.826668"/>
      </g>
     </g>
     <g id="text_6">
      <!-- 3 -->
      <g transform="translate(425.25582 182.425105)scale(0.1 -0.1)">
       <use xlink:href="#DejaVuSans-51"/>
      </g>
     </g>
    </g>
    <g id="xtick_8">
     <g id="line2d_8">
      <defs>
       <path d="M 0 0 
L 0 2 
" id="mb18c58a521" style="stroke:#000000;stroke-width:0.6;"/>
      </defs>
      <g>
       <use style="stroke:#000000;stroke-width:0.6;" x="11.720458" xlink:href="#mb18c58a521" y="167.826668"/>
      </g>
     </g>
    </g>
    <g id="xtick_9">
     <g id="line2d_9">
      <g>
       <use style="stroke:#000000;stroke-width:0.6;" x="38.605401" xlink:href="#mb18c58a521" y="167.826668"/>
      </g>
     </g>
    </g>
    <g id="xtick_10">
     <g id="line2d_10">
      <g>
       <use style="stroke:#000000;stroke-width:0.6;" x="52.047872" xlink:href="#mb18c58a521" y="167.826668"/>
      </g>
     </g>
    </g>
    <g id="xtick_11">
     <g id="line2d_11">
      <g>
       <use style="stroke:#000000;stroke-width:0.6;" x="65.490344" xlink:href="#mb18c58a521" y="167.826668"/>
      </g>
     </g>
    </g>
    <g id="xtick_12">
     <g id="line2d_12">
      <g>
       <use style="stroke:#000000;stroke-width:0.6;" x="78.932815" xlink:href="#mb18c58a521" y="167.826668"/>
      </g>
     </g>
    </g>
    <g id="xtick_13">
     <g id="line2d_13">
      <g>
       <use style="stroke:#000000;stroke-width:0.6;" x="105.817758" xlink:href="#mb18c58a521" y="167.826668"/>
      </g>
     </g>
    </g>
    <g id="xtick_14">
     <g id="line2d_14">
      <g>
       <use style="stroke:#000000;stroke-width:0.6;" x="119.260229" xlink:href="#mb18c58a521" y="167.826668"/>
      </g>
     </g>
    </g>
    <g id="xtick_15">
     <g id="line2d_15">
      <g>
       <use style="stroke:#000000;stroke-width:0.6;" x="132.702701" xlink:href="#mb18c58a521" y="167.826668"/>
      </g>
     </g>
    </g>
    <g id="xtick_16">
     <g id="line2d_16">
      <g>
       <use style="stroke:#000000;stroke-width:0.6;" x="146.145172" xlink:href="#mb18c58a521" y="167.826668"/>
      </g>
     </g>
    </g>
    <g id="xtick_17">
     <g id="line2d_17">
      <g>
       <use style="stroke:#000000;stroke-width:0.6;" x="173.030115" xlink:href="#mb18c58a521" y="167.826668"/>
      </g>
     </g>
    </g>
    <g id="xtick_18">
     <g id="line2d_18">
      <g>
       <use style="stroke:#000000;stroke-width:0.6;" x="186.472586" xlink:href="#mb18c58a521" y="167.826668"/>
      </g>
     </g>
    </g>
    <g id="xtick_19">
     <g id="line2d_19">
      <g>
       <use style="stroke:#000000;stroke-width:0.6;" x="199.915057" xlink:href="#mb18c58a521" y="167.826668"/>
      </g>
     </g>
    </g>
    <g id="xtick_20">
     <g id="line2d_20">
      <g>
       <use style="stroke:#000000;stroke-width:0.6;" x="213.357529" xlink:href="#mb18c58a521" y="167.826668"/>
      </g>
     </g>
    </g>
    <g id="xtick_21">
     <g id="line2d_21">
      <g>
       <use style="stroke:#000000;stroke-width:0.6;" x="240.242471" xlink:href="#mb18c58a521" y="167.826668"/>
      </g>
     </g>
    </g>
    <g id="xtick_22">
     <g id="line2d_22">
      <g>
       <use style="stroke:#000000;stroke-width:0.6;" x="253.684943" xlink:href="#mb18c58a521" y="167.826668"/>
      </g>
     </g>
    </g>
    <g id="xtick_23">
     <g id="line2d_23">
      <g>
       <use style="stroke:#000000;stroke-width:0.6;" x="267.127414" xlink:href="#mb18c58a521" y="167.826668"/>
      </g>
     </g>
    </g>
    <g id="xtick_24">
     <g id="line2d_24">
      <g>
       <use style="stroke:#000000;stroke-width:0.6;" x="280.569885" xlink:href="#mb18c58a521" y="167.826668"/>
      </g>
     </g>
    </g>
    <g id="xtick_25">
     <g id="line2d_25">
      <g>
       <use style="stroke:#000000;stroke-width:0.6;" x="307.454828" xlink:href="#mb18c58a521" y="167.826668"/>
      </g>
     </g>
    </g>
    <g id="xtick_26">
     <g id="line2d_26">
      <g>
       <use style="stroke:#000000;stroke-width:0.6;" x="320.897299" xlink:href="#mb18c58a521" y="167.826668"/>
      </g>
     </g>
    </g>
    <g id="xtick_27">
     <g id="line2d_27">
      <g>
       <use style="stroke:#000000;stroke-width:0.6;" x="334.339771" xlink:href="#mb18c58a521" y="167.826668"/>
      </g>
     </g>
    </g>
    <g id="xtick_28">
     <g id="line2d_28">
      <g>
       <use style="stroke:#000000;stroke-width:0.6;" x="347.782242" xlink:href="#mb18c58a521" y="167.826668"/>
      </g>
     </g>
    </g>
    <g id="xtick_29">
     <g id="line2d_29">
      <g>
       <use style="stroke:#000000;stroke-width:0.6;" x="374.667185" xlink:href="#mb18c58a521" y="167.826668"/>
      </g>
     </g>
    </g>
    <g id="xtick_30">
     <g id="line2d_30">
      <g>
       <use style="stroke:#000000;stroke-width:0.6;" x="388.109656" xlink:href="#mb18c58a521" y="167.826668"/>
      </g>
     </g>
    </g>
    <g id="xtick_31">
     <g id="line2d_31">
      <g>
       <use style="stroke:#000000;stroke-width:0.6;" x="401.552128" xlink:href="#mb18c58a521" y="167.826668"/>
      </g>
     </g>
    </g>
    <g id="xtick_32">
     <g id="line2d_32">
      <g>
       <use style="stroke:#000000;stroke-width:0.6;" x="414.994599" xlink:href="#mb18c58a521" y="167.826668"/>
      </g>
     </g>
    </g>
    <g id="xtick_33">
     <g id="line2d_33">
      <g>
       <use style="stroke:#000000;stroke-width:0.6;" x="441.879542" xlink:href="#mb18c58a521" y="167.826668"/>
      </g>
     </g>
    </g>
   </g>
   <g id="matplotlib.axis_2">
    <g id="ytick_1">
     <g id="line2d_34">
      <defs>
       <path d="M 0 0 
L -3.5 0 
" id="mea4b6a1f1e" style="stroke:#000000;stroke-width:0.8;"/>
      </defs>
      <g>
       <use style="stroke:#000000;stroke-width:0.8;" x="226.8" xlink:href="#mea4b6a1f1e" y="324.654116"/>
      </g>
     </g>
     <g id="text_7">
      <!-- −1.0 -->
      <g transform="translate(195.517187 328.453335)scale(0.1 -0.1)">
       <defs>
        <path d="M 10.6875 12.40625 
L 21 12.40625 
L 21 0 
L 10.6875 0 
z
" id="DejaVuSans-46"/>
        <path d="M 31.78125 66.40625 
Q 24.171875 66.40625 20.328125 58.90625 
Q 16.5 51.421875 16.5 36.375 
Q 16.5 21.390625 20.328125 13.890625 
Q 24.171875 6.390625 31.78125 6.390625 
Q 39.453125 6.390625 43.28125 13.890625 
Q 47.125 21.390625 47.125 36.375 
Q 47.125 51.421875 43.28125 58.90625 
Q 39.453125 66.40625 31.78125 66.40625 
z
M 31.78125 74.21875 
Q 44.046875 74.21875 50.515625 64.515625 
Q 56.984375 54.828125 56.984375 36.375 
Q 56.984375 17.96875 50.515625 8.265625 
Q 44.046875 -1.421875 31.78125 -1.421875 
Q 19.53125 -1.421875 13.0625 8.265625 
Q 6.59375 17.96875 6.59375 36.375 
Q 6.59375 54.828125 13.0625 64.515625 
Q 19.53125 74.21875 31.78125 74.21875 
z
" id="DejaVuSans-48"/>
       </defs>
       <use xlink:href="#DejaVuSans-8722"/>
       <use x="83.789062" xlink:href="#DejaVuSans-49"/>
       <use x="147.412109" xlink:href="#DejaVuSans-46"/>
       <use x="179.199219" xlink:href="#DejaVuSans-48"/>
      </g>
     </g>
    </g>
    <g id="ytick_2">
     <g id="line2d_35">
      <g>
       <use style="stroke:#000000;stroke-width:0.8;" x="226.8" xlink:href="#mea4b6a1f1e" y="246.240392"/>
      </g>
     </g>
     <g id="text_8">
      <!-- −0.5 -->
      <g transform="translate(195.517187 250.039611)scale(0.1 -0.1)">
       <defs>
        <path d="M 10.796875 72.90625 
L 49.515625 72.90625 
L 49.515625 64.59375 
L 19.828125 64.59375 
L 19.828125 46.734375 
Q 21.96875 47.46875 24.109375 47.828125 
Q 26.265625 48.1875 28.421875 48.1875 
Q 40.625 48.1875 47.75 41.5 
Q 54.890625 34.8125 54.890625 23.390625 
Q 54.890625 11.625 47.5625 5.09375 
Q 40.234375 -1.421875 26.90625 -1.421875 
Q 22.3125 -1.421875 17.546875 -0.640625 
Q 12.796875 0.140625 7.71875 1.703125 
L 7.71875 11.625 
Q 12.109375 9.234375 16.796875 8.0625 
Q 21.484375 6.890625 26.703125 6.890625 
Q 35.15625 6.890625 40.078125 11.328125 
Q 45.015625 15.765625 45.015625 23.390625 
Q 45.015625 31 40.078125 35.4375 
Q 35.15625 39.890625 26.703125 39.890625 
Q 22.75 39.890625 18.8125 39.015625 
Q 14.890625 38.140625 10.796875 36.28125 
z
" id="DejaVuSans-53"/>
       </defs>
       <use xlink:href="#DejaVuSans-8722"/>
       <use x="83.789062" xlink:href="#DejaVuSans-48"/>
       <use x="147.412109" xlink:href="#DejaVuSans-46"/>
       <use x="179.199219" xlink:href="#DejaVuSans-53"/>
      </g>
     </g>
    </g>
    <g id="ytick_3">
     <g id="line2d_36">
      <g>
       <use style="stroke:#000000;stroke-width:0.8;" x="226.8" xlink:href="#mea4b6a1f1e" y="167.826668"/>
      </g>
     </g>
    </g>
    <g id="ytick_4">
     <g id="line2d_37">
      <g>
       <use style="stroke:#000000;stroke-width:0.8;" x="226.8" xlink:href="#mea4b6a1f1e" y="89.412943"/>
      </g>
     </g>
     <g id="text_9">
      <!-- 0.5 -->
      <g transform="translate(203.896875 93.212162)scale(0.1 -0.1)">
       <use xlink:href="#DejaVuSans-48"/>
       <use x="63.623047" xlink:href="#DejaVuSans-46"/>
       <use x="95.410156" xlink:href="#DejaVuSans-53"/>
      </g>
     </g>
    </g>
    <g id="ytick_5">
     <g id="line2d_38">
      <g>
       <use style="stroke:#000000;stroke-width:0.8;" x="226.8" xlink:href="#mea4b6a1f1e" y="10.999219"/>
      </g>
     </g>
     <g id="text_10">
      <!-- 1.0 -->
      <g transform="translate(203.896875 14.798437)scale(0.1 -0.1)">
       <use xlink:href="#DejaVuSans-49"/>
       <use x="63.623047" xlink:href="#DejaVuSans-46"/>
       <use x="95.410156" xlink:href="#DejaVuSans-48"/>
      </g>
     </g>
    </g>
    <g id="ytick_6">
     <g id="line2d_39">
      <defs>
       <path d="M 0 0 
L -2 0 
" id="mfe4cc8c151" style="stroke:#000000;stroke-width:0.6;"/>
      </defs>
      <g>
       <use style="stroke:#000000;stroke-width:0.6;" x="226.8" xlink:href="#mfe4cc8c151" y="308.971372"/>
      </g>
     </g>
    </g>
    <g id="ytick_7">
     <g id="line2d_40">
      <g>
       <use style="stroke:#000000;stroke-width:0.6;" x="226.8" xlink:href="#mfe4cc8c151" y="293.288627"/>
      </g>
     </g>
    </g>
    <g id="ytick_8">
     <g id="line2d_41">
      <g>
       <use style="stroke:#000000;stroke-width:0.6;" x="226.8" xlink:href="#mfe4cc8c151" y="277.605882"/>
      </g>
     </g>
    </g>
    <g id="ytick_9">
     <g id="line2d_42">
      <g>
       <use style="stroke:#000000;stroke-width:0.6;" x="226.8" xlink:href="#mfe4cc8c151" y="261.923137"/>
      </g>
     </g>
    </g>
    <g id="ytick_10">
     <g id="line2d_43">
      <g>
       <use style="stroke:#000000;stroke-width:0.6;" x="226.8" xlink:href="#mfe4cc8c151" y="230.557647"/>
      </g>
     </g>
    </g>
    <g id="ytick_11">
     <g id="line2d_44">
      <g>
       <use style="stroke:#000000;stroke-width:0.6;" x="226.8" xlink:href="#mfe4cc8c151" y="214.874902"/>
      </g>
     </g>
    </g>
    <g id="ytick_12">
     <g id="line2d_45">
      <g>
       <use style="stroke:#000000;stroke-width:0.6;" x="226.8" xlink:href="#mfe4cc8c151" y="199.192157"/>
      </g>
     </g>
    </g>
    <g id="ytick_13">
     <g id="line2d_46">
      <g>
       <use style="stroke:#000000;stroke-width:0.6;" x="226.8" xlink:href="#mfe4cc8c151" y="183.509412"/>
      </g>
     </g>
    </g>
    <g id="ytick_14">
     <g id="line2d_47">
      <g>
       <use style="stroke:#000000;stroke-width:0.6;" x="226.8" xlink:href="#mfe4cc8c151" y="152.143923"/>
      </g>
     </g>
    </g>
    <g id="ytick_15">
     <g id="line2d_48">
      <g>
       <use style="stroke:#000000;stroke-width:0.6;" x="226.8" xlink:href="#mfe4cc8c151" y="136.461178"/>
      </g>
     </g>
    </g>
    <g id="ytick_16">
     <g id="line2d_49">
      <g>
       <use style="stroke:#000000;stroke-width:0.6;" x="226.8" xlink:href="#mfe4cc8c151" y="120.778433"/>
      </g>
     </g>
    </g>
    <g id="ytick_17">
     <g id="line2d_50">
      <g>
       <use style="stroke:#000000;stroke-width:0.6;" x="226.8" xlink:href="#mfe4cc8c151" y="105.095688"/>
      </g>
     </g>
    </g>
    <g id="ytick_18">
     <g id="line2d_51">
      <g>
       <use style="stroke:#000000;stroke-width:0.6;" x="226.8" xlink:href="#mfe4cc8c151" y="73.730198"/>
      </g>
     </g>
    </g>
    <g id="ytick_19">
     <g id="line2d_52">
      <g>
       <use style="stroke:#000000;stroke-width:0.6;" x="226.8" xlink:href="#mfe4cc8c151" y="58.047453"/>
      </g>
     </g>
    </g>
    <g id="ytick_20">
     <g id="line2d_53">
      <g>
       <use style="stroke:#000000;stroke-width:0.6;" x="226.8" xlink:href="#mfe4cc8c151" y="42.364709"/>
      </g>
     </g>
    </g>
    <g id="ytick_21">
     <g id="line2d_54">
      <g>
       <use style="stroke:#000000;stroke-width:0.6;" x="226.8" xlink:href="#mfe4cc8c151" y="26.681964"/>
      </g>
     </g>
    </g>
   </g>
   <g id="line2d_55">
    <path clip-path="url(#pe97236d81b)" d="M 15.646154 167.826668 
L 16.941621 167.914009 
L 19.166377 168.469233 
L 20.530558 169.058912 
L 21.89474 169.832881 
L 23.495971 170.968368 
L 26.228692 173.438114 
L 28.145232 175.535313 
L 31.037157 179.189488 
L 34.866057 184.73091 
L 40.114848 193.02547 
L 44.966372 200.60373 
L 47.059578 203.627326 
L 49.186152 206.446319 
L 51.209396 208.82883 
L 52.784044 210.443555 
L 55.075659 212.362028 
L 56.400781 213.21264 
L 57.725903 213.857259 
L 59.445283 214.366974 
L 61.164662 214.485918 
L 62.136493 214.372383 
L 63.92751 213.808172 
L 65.127666 213.165642 
L 66.327821 212.306135 
L 67.750402 211.002175 
L 70.017627 208.277542 
L 71.875552 205.450824 
L 73.986193 201.596423 
L 76.285777 196.636494 
L 78.483883 191.184112 
L 81.204709 183.534588 
L 84.450018 173.241687 
L 88.011866 160.725919 
L 91.157754 148.876715 
L 104.278275 97.947296 
L 107.048765 88.305124 
L 109.981461 79.063209 
L 112.338497 72.517772 
L 114.516495 67.280626 
L 116.489386 63.283635 
L 118.30326 60.287354 
L 119.234591 59.015383 
L 120.385707 57.702814 
L 122.192198 56.240803 
L 122.847572 55.895802 
L 123.829661 55.567667 
L 124.81175 55.469273 
L 125.793839 55.603751 
L 127.262122 56.244658 
L 128.337357 57.051606 
L 129.412593 58.145863 
L 130.926733 60.175317 
L 132.440872 62.775421 
L 134.087054 66.245258 
L 135.642127 70.130236 
L 137.197199 74.593477 
L 139.514171 82.282693 
L 141.395867 89.403062 
L 143.309016 97.400288 
L 145.82792 109.006364 
L 148.891517 124.584223 
L 152.747615 146.048266 
L 156.981485 171.266386 
L 167.308837 234.050532 
L 170.276714 250.859388 
L 173.091383 265.705503 
L 175.823955 278.829583 
L 178.413449 289.877666 
L 180.352146 297.151997 
L 182.007669 302.629444 
L 183.663192 307.389531 
L 185.238503 311.221606 
L 186.539181 313.854321 
L 187.839859 315.993006 
L 189.099552 317.583327 
L 190.359245 318.692316 
L 191.353692 319.223654 
L 192.348139 319.448787 
L 193.21207 319.394536 
L 193.966031 319.156819 
L 194.719992 318.741474 
L 195.473953 318.14855 
L 196.227914 317.378328 
L 197.12907 316.225869 
L 198.030225 314.822171 
L 199.668615 311.632577 
L 201.307006 307.633254 
L 203.049268 302.514061 
L 204.843498 296.339708 
L 206.757681 288.786805 
L 208.565358 280.787975 
L 210.492245 271.396586 
L 213.249954 256.545933 
L 215.697636 242.146372 
L 218.564909 224.076763 
L 221.841315 202.231036 
L 235.879107 106.139691 
L 239.128168 86.164376 
L 241.568384 72.353629 
L 243.986338 59.868209 
L 246.336131 49.02384 
L 248.237542 41.264889 
L 250.140598 34.471177 
L 251.616428 29.903382 
L 253.088534 25.97815 
L 254.34979 23.128557 
L 255.686614 20.635051 
L 257.099006 18.597622 
L 258.501319 17.187482 
L 259.197435 16.715344 
L 259.893551 16.394626 
L 260.589667 16.225298 
L 261.451137 16.225042 
L 262.312608 16.455601 
L 263.284544 16.991421 
L 264.256479 17.817425 
L 265.374094 19.12225 
L 266.491708 20.801774 
L 267.39101 22.421033 
L 269.045855 26.011146 
L 270.556939 29.960557 
L 272.510668 35.976063 
L 274.465146 42.964288 
L 276.677335 51.959573 
L 279.095029 62.984336 
L 281.74702 76.329601 
L 284.612991 91.97191 
L 288.099561 112.282269 
L 295.394433 156.903518 
L 300.590235 188.085158 
L 303.772522 206.029734 
L 306.455587 220.135511 
L 308.801071 231.528826 
L 310.885165 240.815638 
L 312.908803 249.005808 
L 314.879558 256.141818 
L 316.592583 261.635063 
L 318.418337 266.734305 
L 320.074141 270.665765 
L 320.760704 272.099297 
L 321.941741 274.292923 
L 323.817452 277.064372 
L 325.248078 278.58883 
L 326.719982 279.626526 
L 327.455934 279.944785 
L 328.238623 280.137675 
L 329.021311 280.181679 
L 329.804 280.078204 
L 330.586688 279.828874 
L 331.55332 279.322387 
L 332.490786 278.625019 
L 333.428252 277.728629 
L 335.195967 275.512509 
L 336.963683 272.63723 
L 338.766988 269.063514 
L 341.206634 263.277475 
L 343.587173 256.682732 
L 346.001147 249.164571 
L 349.56863 236.811241 
L 353.287068 222.805338 
L 365.697174 174.52841 
L 368.544533 164.45719 
L 371.873724 153.691578 
L 373.520229 148.840431 
L 375.977023 142.253332 
L 377.615756 138.322306 
L 380.010767 133.280323 
L 381.331196 130.869112 
L 382.651625 128.725136 
L 384.049345 126.749412 
L 385.447066 125.076743 
L 387.568434 123.114681 
L 389.275076 122.034125 
L 390.128397 121.657152 
L 391.562399 121.263294 
L 392.811584 121.158952 
L 394.060768 121.269568 
L 395.177532 121.543942 
L 396.191545 121.931077 
L 397.205558 122.444284 
L 398.996685 123.641864 
L 400.787812 125.183009 
L 401.981762 126.383806 
L 404.900309 129.825776 
L 407.745477 133.740909 
L 412.254639 140.66217 
L 419.343753 151.846576 
L 423.084318 157.161742 
L 425.205569 159.825142 
L 426.802935 161.622887 
L 428.432308 163.250383 
L 429.853005 164.485427 
L 431.273701 165.538152 
L 432.715888 166.411312 
L 434.374167 167.162309 
L 436.032445 167.634666 
L 437.953846 167.826668 
L 437.953846 167.826668 
" style="fill:none;stroke:#000000;stroke-linecap:square;"/>
   </g>
   <g id="patch_3">
    <path d="M 226.8 325.513262 
L 226.8 10.160567 
" style="fill:none;stroke:#000000;stroke-linecap:square;stroke-linejoin:miter;stroke-width:0.8;"/>
   </g>
   <g id="patch_4">
    <path d="M 7.2 167.826668 
L 446.4 167.826668 
" style="fill:none;stroke:#000000;stroke-linecap:square;stroke-linejoin:miter;stroke-width:0.8;"/>
   </g>
  </g>
 </g>
 <defs>
  <clipPath id="pe97236d81b">
   <rect height="315.352695" width="439.2" x="7.2" y="10.160567"/>
  </clipPath>
 </defs>
</svg>
