<?xml version="1.0" encoding="utf-8" standalone="no"?>
<!DOCTYPE svg PUBLIC "-//W3C//DTD SVG 1.1//EN"
  "http://www.w3.org/Graphics/SVG/1.1/DTD/svg11.dtd">
<svg xmlns:xlink="http://www.w3.org/1999/xlink" width="338.4pt" height="338.4pt" viewBox="0 0 338.4 338.4" xmlns="http://www.w3.org/2000/svg" version="1.1">
 <metadata>
  <rdf:RDF xmlns:dc="http://purl.org/dc/elements/1.1/" xmlns:cc="http://creativecommons.org/ns#" xmlns:rdf="http://www.w3.org/1999/02/22-rdf-syntax-ns#">
   <cc:Work>
    <dc:type rdf:resource="http://purl.org/dc/dcmitype/StillImage"/>
    <dc:date>2025-08-21T01:25:01.291828</dc:date>
    <dc:format>image/svg+xml</dc:format>
    <dc:creator>
     <cc:Agent>
      <dc:title>Matplotlib v3.8.0, https://matplotlib.org/</dc:title>
     </cc:Agent>
    </dc:creator>
   </cc:Work>
  </rdf:RDF>
 </metadata>
 <defs>
  <style type="text/css">*{stroke-linejoin: round; stroke-linecap: butt}</style>
 </defs>
 <g id="figure_1">
  <g id="patch_1">
   <path d="M -0 338.4 
L 338.4 338.4 
L 338.4 0 
L -0 0 
z
" style="fill: #ffffff"/>
  </g>
  <g id="axes_1">
   <g id="patch_2">
    <path d="M 7.2 331.2 
L 331.2 331.2 
L 331.2 7.2 
L 7.2 7.2 
z
" style="fill: #ffffff"/>
   </g>
   <g id="patch_3">
    <path d="M 13.430769 324.969231 
L 13.430769 13.430769 
L 324.969231 13.430769 
L 324.969231 324.969231 
L 13.430769 324.969231 
z
" clip-path="url(#p887d6ef403)" style="fill: none; stroke: #000000; stroke-linejoin: miter"/>
   </g>
   <g id="patch_4">
    <path d="M 169.2 192.006198 
L 168.766387 192.254232 
L 168.688186 192.298475 
L 168.314121 192.508055 
L 167.972518 192.696508 
L 167.675123 192.858312 
L 167.346764 193.034542 
L 166.964188 193.236695 
L 166.61658 193.417439 
L 166.251484 193.604302 
L 166.137802 193.661869 
L 165.799449 193.831485 
L 165.530544 193.964459 
L 165.106777 194.170758 
L 164.697133 194.366433 
L 164.509728 194.454733 
L 164.346876 194.530847 
L 163.87041 194.750266 
L 163.457388 194.936555 
L 163.195871 195.052647 
L 162.914713 195.17586 
L 162.51553 195.34797 
L 162.28076 195.447655 
L 162.03923 195.549031 
L 161.65831 195.706492 
L 161.455871 195.788977 
L 161.022366 195.962837 
L 160.83181 196.03807 
L 160.461124 196.182353 
L 160.225893 196.272503 
L 159.785033 196.438531 
L 159.500197 196.543782 
L 159.03819 196.71116 
L 159.018615 196.718161 
L 158.586923 196.870684 
L 158.235077 196.992366 
L 157.958602 197.086334 
L 157.597481 197.206902 
L 157.238635 197.324288 
L 156.909843 197.429735 
L 156.534656 197.547615 
L 156.446505 197.574933 
L 156.023387 197.704076 
L 155.867185 197.750922 
L 155.515203 197.854856 
L 154.965206 198.012763 
L 154.651769 198.100313 
L 154.360695 198.18004 
L 154.033254 198.26792 
L 153.939795 198.292653 
L 153.612358 198.378084 
L 153.113014 198.50472 
L 152.859314 198.56738 
L 152.745741 198.595065 
L 152.365809 198.686042 
L 152.00978 198.769013 
L 151.818658 198.812647 
L 151.377611 198.910928 
L 150.933268 199.006557 
L 150.610547 199.07389 
L 150.504611 199.095604 
L 150.23807 199.149392 
L 149.655644 199.262722 
L 149.422072 199.306557 
L 149.195197 199.348253 
L 148.902859 199.400701 
L 148.481261 199.473811 
L 148.1002 199.537329 
L 147.999751 199.553669 
L 147.742893 199.594686 
L 147.393477 199.648719 
L 146.999755 199.707175 
L 146.584795 199.766006 
L 146.204994 199.81736 
L 146.044323 199.838369 
L 145.56138 199.898962 
L 145.43552 199.914124 
L 145.017006 199.962676 
L 144.624047 200.005655 
L 144.457155 200.023146 
L 144.133058 200.055815 
L 143.684281 200.098229 
L 143.376699 200.125408 
L 143.172131 200.142634 
L 142.910487 200.163678 
L 142.526233 200.192573 
L 142.14347 200.218982 
L 141.90558 200.234202 
L 141.786959 200.24145 
L 141.358257 200.265753 
L 141.12942 200.277512 
L 140.778456 200.293909 
L 140.319916 200.312345 
L 139.941258 200.325019 
L 139.817427 200.328664 
L 139.353019 200.340139 
L 139.078024 200.345301 
L 138.841569 200.348769 
L 138.608068 200.351312 
L 138.327153 200.353213 
L 137.922327 200.353723 
L 137.579585 200.352099 
L 137.358875 200.350056 
L 137.002487 200.345105 
L 136.489728 200.334404 
L 136.229604 200.32736 
L 136.121964 200.324128 
L 135.584356 200.305194 
L 135.314334 200.29393 
L 135.180981 200.287935 
L 134.884425 200.273575 
L 134.385645 200.246228 
L 134.068656 200.226762 
L 133.863363 200.21329 
L 133.383792 200.179164 
L 133.127576 200.159406 
L 132.941506 200.144391 
L 132.653092 200.120008 
L 132.152738 200.074504 
L 131.899382 200.04991 
L 131.675259 200.027282 
L 131.164403 199.972643 
L 130.997603 199.953879 
L 130.821097 199.933528 
L 130.524168 199.898141 
L 130.131131 199.849074 
L 129.604905 199.779401 
L 129.517888 199.76744 
L 129.091107 199.706965 
L 128.889156 199.677298 
L 128.571929 199.62933 
L 128.33566 199.592517 
L 127.80772 199.506897 
L 127.420558 199.441147 
L 127.250146 199.411411 
L 126.853317 199.340272 
L 126.722641 199.316265 
L 126.443181 199.263958 
L 125.949411 199.168305 
L 125.571486 199.092294 
L 125.376987 199.052225 
L 124.968957 198.966064 
L 124.656729 198.898202 
L 124.545476 198.873616 
L 124.076305 198.767582 
L 123.825112 198.709244 
L 123.349701 198.595826 
L 123.104655 198.535823 
L 122.821992 198.465302 
L 122.574625 198.402432 
L 122.107552 198.280774 
L 121.900205 198.225526 
L 121.607269 198.146167 
L 121.16663 198.023901 
L 121.138251 198.015907 
L 120.698147 197.890077 
L 120.340936 197.785369 
L 120.166043 197.733256 
L 119.826142 197.630377 
L 119.386622 197.494202 
L 119.072825 197.394796 
L 118.788474 197.303139 
L 118.320955 197.149157 
L 118.270956 197.132447 
L 117.946043 197.022709 
L 117.593497 196.901377 
L 117.245359 196.779241 
L 116.890451 196.652338 
L 116.590173 196.543072 
L 116.402261 196.473805 
L 115.939528 196.300301 
L 115.563657 196.156272 
L 115.391998 196.089567 
L 114.948699 195.914592 
L 114.823947 195.864642 
L 114.377942 195.683505 
L 114.094404 195.566256 
L 113.731198 195.413666 
L 113.53966 195.332106 
L 113.128862 195.154622 
L 112.994648 195.095874 
L 112.616671 194.9284 
L 112.104381 194.696599 
L 111.865381 194.586544 
L 111.453789 194.394132 
L 111.193793 194.270697 
L 111.07877 194.215618 
L 110.501624 193.934859 
L 110.286421 193.828282 
L 109.928746 193.648851 
L 109.635821 193.499751 
L 109.355226 193.355097 
L 109.173701 193.260554 
L 108.808331 193.067952 
L 108.582525 192.947366 
L 108.001202 192.631403 
L 107.819396 192.530937 
L 107.575274 192.394788 
L 107.129504 192.14245 
L 106.892308 192.006198 
L 106.892308 200.353846 
L 106.903629 201.541582 
L 106.914951 202.033483 
L 106.926272 202.410879 
L 106.937594 202.728995 
L 106.948916 203.009222 
L 106.960237 203.262533 
L 106.971559 203.495444 
L 106.98288 203.712203 
L 106.994202 203.91576 
L 107.005524 204.108262 
L 107.016845 204.291332 
L 107.028167 204.466229 
L 107.039488 204.633955 
L 107.05081 204.795323 
L 107.073453 205.101552 
L 107.096096 205.389091 
L 107.11874 205.660977 
L 107.141383 205.919505 
L 107.164026 206.166458 
L 107.186669 206.403254 
L 107.209312 206.631042 
L 107.231956 206.850769 
L 107.254599 207.063228 
L 107.281817 207.309934 
L 107.309035 207.548082 
L 107.336254 207.778495 
L 107.363472 208.001873 
L 107.395024 208.252801 
L 107.426577 208.495877 
L 107.458129 208.731785 
L 107.489681 208.961114 
L 107.552786 209.402022 
L 107.61589 209.822001 
L 107.678995 210.223722 
L 107.7421 210.609332 
L 107.805204 210.980584 
L 107.868309 211.338934 
L 107.918077 211.613263 
L 107.967846 211.880849 
L 108.067383 212.397585 
L 108.147855 212.799091 
L 108.228328 213.187539 
L 108.3088 213.56408 
L 108.389272 213.929704 
L 108.519103 214.498714 
L 108.648934 215.044557 
L 108.778765 215.569724 
L 108.908596 216.076288 
L 109.030656 216.537126 
L 109.148177 216.967907 
L 109.265697 217.386986 
L 109.385143 217.801807 
L 109.504588 218.206193 
L 109.624033 218.600838 
L 109.743479 218.98636 
L 109.923741 219.552118 
L 110.104004 220.100029 
L 110.180131 220.326416 
L 110.326206 220.752985 
L 110.472281 221.16979 
L 110.618356 221.577406 
L 110.764431 221.976353 
L 110.89976 222.338626 
L 111.11457 222.90005 
L 111.329379 223.44583 
L 111.584183 224.074431 
L 111.864083 224.74321 
L 112.095835 225.280996 
L 112.327587 225.805312 
L 112.530604 226.254194 
L 112.731656 226.689651 
L 113.017464 227.293986 
L 113.303272 227.882092 
L 113.316024 227.90797 
L 113.553845 228.38515 
L 113.791667 228.852357 
L 114.014171 229.280871 
L 114.350999 229.914557 
L 114.621521 230.411094 
L 115.040146 231.15902 
L 115.358279 231.711742 
L 115.755644 232.384291 
L 116.012906 232.809687 
L 116.240434 233.179643 
L 116.447858 233.511953 
L 116.871239 234.176166 
L 117.230437 234.725535 
L 117.686265 235.405004 
L 117.791142 235.558644 
L 118.258331 236.231344 
L 118.43061 236.47472 
L 118.846716 237.052556 
L 119.232762 237.576469 
L 119.313958 237.685217 
L 119.586068 238.046103 
L 120.10697 238.7221 
L 120.452792 239.160524 
L 120.558382 239.292792 
L 120.827087 239.626099 
L 121.422673 240.34854 
L 121.653841 240.623082 
L 121.810226 240.807002 
L 122.297165 241.370581 
L 122.675579 241.799314 
L 122.788428 241.925645 
L 123.142072 242.317113 
L 123.430721 242.631756 
L 123.820208 243.049548 
L 123.992114 243.231527 
L 124.27422 243.527018 
L 124.820013 244.087875 
L 124.986667 244.256348 
L 125.415882 244.684417 
L 125.552611 244.819046 
L 126.119951 245.368932 
L 126.19256 245.438307 
L 126.562294 245.788134 
L 127.023401 246.2165 
L 127.304292 246.473236 
L 127.707392 246.83623 
L 127.991585 247.088363 
L 128.325733 247.38089 
L 128.409372 247.453455 
L 128.698428 247.702248 
L 129.174453 248.105329 
L 129.413602 248.30477 
L 129.86787 248.678085 
L 130.045169 248.821854 
L 130.495194 249.181979 
L 130.823542 249.440464 
L 130.868064 249.475238 
L 131.259646 249.778314 
L 131.584203 250.025773 
L 132.057597 250.380743 
L 132.116968 250.424769 
L 132.491605 250.70007 
L 132.772656 250.903793 
L 133.139503 251.166138 
L 133.435367 251.374818 
L 133.686404 251.549871 
L 134.286485 251.960968 
L 134.358469 252.009593 
L 134.836907 252.329094 
L 135.030911 252.456839 
L 135.390493 252.690886 
L 135.571269 252.807225 
L 135.938073 253.040588 
L 136.173222 253.188309 
L 136.757151 253.548865 
L 136.853369 253.607428 
L 137.199596 253.816194 
L 137.44291 253.961082 
L 137.952887 254.259935 
L 138.303294 254.461536 
L 138.542147 254.597229 
L 138.878358 254.785882 
L 139.179633 254.95262 
L 139.454308 255.102749 
L 139.696101 255.233428 
L 140.155545 255.477962 
L 140.371531 255.591224 
L 140.781362 255.803188 
L 141.014197 255.921904 
L 141.209626 256.0206 
L 141.662647 256.246088 
L 141.826473 256.326505 
L 142.225184 256.519742 
L 142.575543 256.686668 
L 142.831344 256.806857 
L 143.192641 256.974212 
L 143.527465 257.126811 
L 143.735208 257.220294 
L 144.209295 257.430227 
L 144.317019 257.477272 
L 144.849982 257.706485 
L 145.21714 257.860984 
L 145.248781 257.87417 
L 145.72901 258.071791 
L 146.026863 258.192019 
L 146.324898 258.310539 
L 146.540061 258.395001 
L 146.892235 258.531266 
L 147.151052 258.629848 
L 147.684841 258.829024 
L 147.765685 258.858706 
L 148.236632 259.029103 
L 148.405794 259.089266 
L 148.915381 259.267196 
L 149.157232 259.349913 
L 149.56665 259.487425 
L 149.730619 259.541613 
L 150.07293 259.653119 
L 150.332198 259.736121 
L 150.877922 259.906764 
L 151.043373 259.957415 
L 151.34234 260.047669 
L 151.612184 260.12773 
L 152.085585 260.264991 
L 152.422581 260.360235 
L 152.457938 260.37011 
L 152.980257 260.513371 
L 153.374578 260.618301 
L 153.412458 260.628236 
L 153.951099 260.766755 
L 154.246731 260.840607 
L 154.545209 260.913615 
L 154.841622 260.984577 
L 155.261591 261.082499 
L 155.520108 261.141255 
L 155.586993 261.156269 
L 155.99119 261.245355 
L 156.457764 261.344698 
L 156.783814 261.411908 
L 157.024876 261.460432 
L 157.244477 261.503777 
L 157.699321 261.59095 
L 157.859061 261.620735 
L 158.205491 261.683849 
L 158.68876 261.768522 
L 158.917276 261.807195 
L 159.137335 261.843612 
L 159.471528 261.89737 
L 159.926276 261.967534 
L 159.964983 261.973348 
L 160.49682 262.050711 
L 160.725349 262.082517 
L 160.981009 262.117077 
L 161.413077 262.173037 
L 161.757378 262.215433 
L 161.993568 262.243392 
L 162.443691 262.294147 
L 162.723964 262.324077 
L 162.881779 262.340366 
L 163.340488 262.385408 
L 163.543375 262.404238 
L 163.862335 262.432489 
L 164.137736 262.455553 
L 164.567498 262.489089 
L 164.696307 262.498558 
L 165.011872 262.520623 
L 165.42602 262.547138 
L 165.824465 262.570036 
L 165.959615 262.577221 
L 166.242093 262.591289 
L 166.792285 262.615001 
L 166.883829 262.618474 
L 167.236857 262.630604 
L 167.718241 262.643917 
L 167.914261 262.648271 
L 168.400703 262.656411 
L 168.524779 262.65788 
L 168.869012 262.660659 
L 169.2 262.661538 
z
" clip-path="url(#p887d6ef403)" style="fill: #808080; opacity: 0.5"/>
   </g>
   <g id="patch_5">
    <path d="M 231.507692 192.006198 
L 231.15868 192.206201 
L 230.965611 192.315559 
L 230.455132 192.600357 
L 230.23082 192.723525 
L 229.9148 192.895024 
L 229.779175 192.967903 
L 229.258672 193.243613 
L 229.003732 193.376368 
L 228.814899 193.473737 
L 228.323722 193.72321 
L 227.98105 193.894038 
L 227.816487 193.975143 
L 227.423136 194.166579 
L 227.245731 194.251804 
L 226.928404 194.402533 
L 226.582122 194.564523 
L 226.336786 194.67773 
L 225.930733 194.862273 
L 225.434089 195.083246 
L 225.095665 195.230863 
L 224.864233 195.33044 
L 224.504296 195.483113 
L 224.428117 195.515085 
L 223.923469 195.723891 
L 223.792804 195.777114 
L 223.215291 196.008235 
L 223.123119 196.044505 
L 222.892887 196.134364 
L 222.372258 196.3337 
L 222.269441 196.372436 
L 221.953565 196.49015 
L 221.521753 196.647931 
L 221.020038 196.826738 
L 220.792587 196.906212 
L 220.427986 197.031554 
L 220.327913 197.065516 
L 220.048375 197.159385 
L 219.627631 197.297903 
L 219.174552 197.443372 
L 218.960733 197.5107 
L 218.599279 197.622598 
L 218.212114 197.739795 
L 218.136028 197.762504 
L 217.843214 197.848917 
L 217.31917 197.999688 
L 217.014667 198.085021 
L 216.873892 198.123909 
L 216.59504 198.199891 
L 216.27154 198.286303 
L 215.868358 198.391398 
L 215.594432 198.461161 
L 215.130971 198.576188 
L 215.001244 198.607711 
L 214.6041 198.702388 
L 214.154292 198.806307 
L 214.11249 198.815786 
L 213.526462 198.945503 
L 213.419402 198.968562 
L 213.186614 199.018021 
L 212.783802 199.101413 
L 212.384251 199.181396 
L 212.172138 199.222755 
L 211.859937 199.282241 
L 211.54424 199.340718 
L 211.252568 199.393252 
L 210.763372 199.478151 
L 210.596455 199.506202 
L 210.104175 199.586219 
L 209.859012 199.624562 
L 209.529902 199.674463 
L 209.187598 199.724459 
L 208.91175 199.763338 
L 208.662468 199.797391 
L 208.30473 199.844471 
L 208.112948 199.868843 
L 207.664618 199.923461 
L 207.397113 199.954481 
L 207.074058 199.990381 
L 206.848529 200.014433 
L 206.343083 200.065325 
L 205.993161 200.098121 
L 205.822226 200.113419 
L 205.437175 200.14614 
L 205.096935 200.173053 
L 204.737307 200.199463 
L 204.73114 200.199897 
L 204.155991 200.237731 
L 203.84175 200.256145 
L 203.643524 200.266943 
L 203.337714 200.282358 
L 202.872992 200.3029 
L 202.584894 200.31389 
L 202.357306 200.321628 
L 202.095541 200.329498 
L 201.865086 200.335516 
L 201.577398 200.341831 
L 201.16189 200.348606 
L 200.869042 200.351716 
L 200.406688 200.353824 
L 200.273194 200.353794 
L 200.03656 200.353038 
L 199.726322 200.350686 
L 199.331463 200.345458 
L 198.948225 200.337989 
L 198.720346 200.33243 
L 198.279478 200.319306 
L 197.924473 200.306468 
L 197.581889 200.292156 
L 197.456573 200.286449 
L 196.974975 200.262163 
L 196.842371 200.254819 
L 196.375718 200.226722 
L 196.141591 200.2113 
L 195.716625 200.181045 
L 195.517727 200.165881 
L 195.089033 200.131017 
L 194.865422 200.111649 
L 194.706588 200.097399 
L 194.360529 200.064931 
L 194.056535 200.034801 
L 193.684304 199.995857 
L 193.454348 199.970668 
L 193.134517 199.934196 
L 192.666232 199.877773 
L 192.224666 199.82127 
L 192.033247 199.795779 
L 191.876249 199.77442 
L 191.455301 199.715145 
L 191.200513 199.677842 
L 190.895034 199.631699 
L 190.613169 199.587747 
L 190.099669 199.504273 
L 189.978899 199.484 
L 189.400927 199.383598 
L 189.107348 199.330449 
L 188.78771 199.270928 
L 188.712933 199.256755 
L 188.307575 199.178272 
L 188.088311 199.134657 
L 187.694026 199.054165 
L 187.485048 199.010427 
L 186.993739 198.904646 
L 186.70319 198.840135 
L 186.407148 198.772904 
L 186.030292 198.685121 
L 185.884255 198.65044 
L 185.39187 198.530762 
L 185.280772 198.503171 
L 184.900136 198.406997 
L 184.644449 198.340958 
L 184.075204 198.189768 
L 183.876778 198.13571 
L 183.681975 198.081954 
L 183.162106 197.935156 
L 183.078028 197.910957 
L 182.668656 197.791301 
L 182.217317 197.655841 
L 181.98122 197.583496 
L 181.653046 197.481233 
L 181.306927 197.371219 
L 181.160751 197.324089 
L 180.933978 197.250185 
L 180.317643 197.044451 
L 180.254377 197.022928 
L 179.995423 196.93404 
L 179.46276 196.747185 
L 179.264263 196.676163 
L 178.777674 196.498847 
L 178.465958 196.382839 
L 178.306249 196.322667 
L 177.893847 196.164971 
L 177.622633 196.059432 
L 177.206454 195.894635 
L 176.974593 195.801319 
L 176.681077 195.681633 
L 176.326938 195.534902 
L 176.117825 195.447058 
L 175.720224 195.277554 
L 175.45063 195.160761 
L 175.279424 195.085806 
L 174.825744 194.884209 
L 174.418849 194.699701 
L 174.147135 194.574526 
L 173.896253 194.457538 
L 173.458086 194.249949 
L 173.284045 194.166332 
L 172.888042 193.97359 
L 172.558864 193.810726 
L 172.210929 193.635944 
L 171.893648 193.474176 
L 171.659453 193.353299 
L 171.289536 193.159804 
L 170.938722 192.973369 
L 170.741562 192.867328 
L 170.347321 192.652536 
L 170.017006 192.469721 
L 169.966862 192.441739 
L 169.534826 192.19813 
L 169.2 192.006198 
L 169.2 262.661538 
L 169.587052 262.660336 
L 169.731591 262.659271 
L 170.148107 262.654325 
L 170.526547 262.647416 
L 170.62213 262.645307 
L 171.185835 262.629885 
L 171.47263 262.620078 
L 171.841259 262.605531 
L 172.081333 262.594881 
L 172.307313 262.584009 
L 172.649167 262.565997 
L 172.868776 262.553433 
L 173.327573 262.524673 
L 173.558638 262.508901 
L 173.785745 262.492558 
L 174.196072 262.460913 
L 174.455221 262.439522 
L 174.843522 262.405431 
L 175.110077 262.380611 
L 175.572627 262.334796 
L 175.908365 262.299357 
L 176.24006 262.262538 
L 176.357694 262.249047 
L 176.864184 262.188374 
L 177.033693 262.167128 
L 177.264884 262.137389 
L 177.753733 262.071608 
L 178.089728 262.024108 
L 178.232099 262.003418 
L 178.4393 261.972706 
L 178.996135 261.886636 
L 179.163827 261.859705 
L 179.593008 261.78864 
L 179.953898 261.726496 
L 180.266377 261.670922 
L 180.459381 261.635775 
L 180.705886 261.589972 
L 181.053031 261.523726 
L 181.451115 261.445243 
L 181.64017 261.407025 
L 181.922608 261.348795 
L 182.25868 261.277728 
L 182.719764 261.177069 
L 183.11622 261.087588 
L 183.245715 261.05777 
L 183.672435 260.957453 
L 184.018671 260.873723 
L 184.172293 260.835901 
L 184.631493 260.720373 
L 184.802512 260.676397 
L 185.314793 260.541569 
L 185.389561 260.521501 
L 185.924227 260.375082 
L 186.122188 260.31957 
L 186.33664 260.258638 
L 186.843895 260.111201 
L 186.96298 260.075911 
L 187.43405 259.933775 
L 187.732272 259.841689 
L 187.865178 259.800122 
L 188.450939 259.613022 
L 188.640186 259.551208 
L 189.058836 259.412081 
L 189.175959 259.372568 
L 189.666686 259.204193 
L 189.748095 259.175818 
L 190.087434 259.056177 
L 190.530532 258.896625 
L 190.750898 258.815862 
L 191.126768 258.675929 
L 191.275171 258.61992 
L 191.872304 258.390172 
L 192.194485 258.263277 
L 192.525281 258.130829 
L 192.73669 258.045031 
L 192.864807 257.992595 
L 193.357411 257.787878 
L 193.549507 257.706702 
L 193.821378 257.590515 
L 194.322595 257.372297 
L 194.508827 257.289879 
L 194.84062 257.141231 
L 195.32367 256.920642 
L 195.359006 256.90431 
L 195.921177 256.640854 
L 196.123205 256.5445 
L 196.355504 256.432604 
L 196.637104 256.295368 
L 196.963122 256.134287 
L 197.37136 255.929228 
L 197.652588 255.785775 
L 198.003313 255.604346 
L 198.344688 255.425034 
L 198.642701 255.266284 
L 198.975865 255.086345 
L 199.317873 254.898894 
L 199.6308 254.724932 
L 199.993965 254.520074 
L 200.349182 254.316583 
L 200.657129 254.13765 
L 200.726184 254.097202 
L 201.114903 253.867279 
L 201.323694 253.742204 
L 201.874507 253.406887 
L 202.035288 253.307527 
L 202.338239 253.118471 
L 202.828684 252.807256 
L 203.013116 252.688555 
L 203.208116 252.56205 
L 203.718535 252.22599 
L 203.930966 252.083997 
L 204.257887 251.863001 
L 204.570756 251.648662 
L 204.845082 251.458412 
L 205.087375 251.288558 
L 205.634629 250.898543 
L 205.896398 250.708815 
L 206.25122 250.448313 
L 206.480819 250.277678 
L 206.755068 250.071704 
L 207.172421 249.753682 
L 207.344068 249.621265 
L 207.556718 249.45589 
L 208.054773 249.062728 
L 208.260233 248.898122 
L 208.684551 248.553626 
L 208.944782 248.339269 
L 209.230383 248.101275 
L 209.543246 247.837222 
L 209.794979 247.622189 
L 210.182469 247.286625 
L 210.430092 247.06924 
L 210.71091 246.819886 
L 211.097488 246.471619 
L 211.5319 246.073194 
L 211.671697 245.943357 
L 211.950533 245.681988 
L 212.459094 245.196898 
L 212.652648 245.009371 
L 212.98409 244.684445 
L 213.470732 244.198468 
L 213.601819 244.065709 
L 213.981979 243.67616 
L 214.426069 243.212348 
L 214.456647 243.180058 
L 214.80125 242.812938 
L 215.109645 242.47929 
L 215.645444 241.887799 
L 215.959035 241.534438 
L 216.098741 241.375263 
L 216.570628 240.829421 
L 216.669843 240.713015 
L 217.180705 240.104323 
L 217.486701 239.732052 
L 217.739334 239.42022 
L 218.16252 238.888508 
L 218.243782 238.785031 
L 218.784214 238.085189 
L 218.907215 237.922999 
L 219.392496 237.27216 
L 219.469733 237.166921 
L 219.789975 236.725579 
L 220.287597 236.023245 
L 220.705344 235.417332 
L 220.736958 235.370849 
L 221.112235 234.812058 
L 221.580196 234.096455 
L 221.693196 233.920391 
L 221.959321 233.500529 
L 222.225446 233.073115 
L 222.350747 232.869175 
L 222.794826 232.131876 
L 222.911852 231.933674 
L 223.139595 231.543084 
L 223.367339 231.145857 
L 223.531307 230.85561 
L 223.7923 230.385984 
L 224.053293 229.906592 
L 224.188309 229.654603 
L 224.436752 229.183513 
L 224.685196 228.702419 
L 224.994148 228.089412 
L 225.182121 227.708017 
L 225.370094 227.319918 
L 225.708545 226.603282 
L 225.869292 226.254424 
L 226.136736 225.661091 
L 226.38737 225.089513 
L 226.650981 224.470922 
L 226.914591 223.833081 
L 227.040825 223.520363 
L 227.304745 222.850226 
L 227.568665 222.15631 
L 227.669875 221.883413 
L 227.852303 221.381348 
L 228.034732 220.865376 
L 228.24709 220.245798 
L 228.362847 219.898822 
L 228.478604 219.544877 
L 228.594361 219.183568 
L 228.710118 218.814463 
L 228.816822 218.466909 
L 228.923526 218.111913 
L 229.030231 217.749019 
L 229.136935 217.377723 
L 229.232096 217.039049 
L 229.327257 216.692803 
L 229.415309 216.36525 
L 229.503362 216.03036 
L 229.591414 215.687653 
L 229.679467 215.336591 
L 229.797164 214.853235 
L 229.917179 214.342151 
L 230.037195 213.8106 
L 230.157211 213.256054 
L 230.217219 212.969216 
L 230.277227 212.675409 
L 230.348535 212.316505 
L 230.419843 211.946056 
L 230.503725 211.493946 
L 230.587607 211.022035 
L 230.671489 210.527567 
L 230.71343 210.270826 
L 230.755371 210.007077 
L 230.801975 209.705061 
L 230.848579 209.39272 
L 230.895183 209.068943 
L 230.941787 208.732404 
L 230.988391 208.381499 
L 231.034995 208.014255 
L 231.0816 207.628195 
L 231.128204 207.220148 
L 231.151922 207.002749 
L 231.17564 206.77791 
L 231.199358 206.544819 
L 231.223076 206.302508 
L 231.246794 206.0498 
L 231.270512 205.785243 
L 231.29423 205.507013 
L 231.317948 205.212761 
L 231.341666 204.899378 
L 231.353525 204.734239 
L 231.365384 204.562592 
L 231.377243 204.383606 
L 231.389102 204.196254 
L 231.400961 203.999248 
L 231.41282 203.790928 
L 231.424679 203.569095 
L 231.436538 203.330729 
L 231.448397 203.071486 
L 231.460256 202.784693 
L 231.472115 202.459121 
L 231.483974 202.072878 
L 231.495833 201.569443 
L 231.507692 200.353846 
z
" clip-path="url(#p887d6ef403)" style="fill: #808080; opacity: 0.5"/>
   </g>
   <g id="matplotlib.axis_1"/>
   <g id="matplotlib.axis_2"/>
   <g id="line2d_1">
    <path d="M 106.892308 200.353846 
L 107.039488 204.633955 
L 107.395024 208.252801 
L 107.967846 211.880849 
L 108.778765 215.569724 
L 109.743479 218.98636 
L 110.89976 222.338626 
L 112.327587 225.805312 
L 114.014171 229.280871 
L 116.012906 232.809687 
L 117.791142 235.558644 
L 120.10697 238.7221 
L 122.675579 241.799314 
L 124.986667 244.256348 
L 127.707392 246.83623 
L 130.495194 249.181979 
L 133.435367 251.374818 
L 136.173222 253.188309 
L 139.696101 255.233428 
L 143.192641 256.974212 
L 146.540061 258.395001 
L 150.07293 259.653119 
L 153.412458 260.628236 
L 157.244477 261.503777 
L 160.981009 262.117077 
L 164.696307 262.498558 
L 168.524779 262.65788 
L 169.2 262.661538 
L 169.2 262.661538 
" clip-path="url(#p887d6ef403)" style="fill: none; stroke: #ff0000; stroke-linecap: square"/>
   </g>
   <g id="line2d_2">
    <path d="M 169.2 262.661538 
L 172.868776 262.553433 
L 176.357694 262.249047 
L 180.266377 261.670922 
L 183.672435 260.957453 
L 187.43405 259.933775 
L 190.750898 258.815862 
L 194.322595 257.372297 
L 197.652588 255.785775 
L 200.726184 254.097202 
L 203.930966 252.083997 
L 206.755068 250.071704 
L 209.794979 247.622189 
L 212.652648 245.009371 
L 215.109645 242.47929 
L 217.739334 239.42022 
L 219.789975 236.725579 
L 221.959321 233.500529 
L 223.7923 230.385984 
L 225.370094 227.319918 
L 226.914591 223.833081 
L 228.24709 220.245798 
L 229.327257 216.692803 
L 230.217219 212.969216 
L 230.848579 209.39272 
L 231.270512 205.785243 
L 231.483974 202.072878 
L 231.507692 200.353846 
L 231.507692 200.353846 
" clip-path="url(#p887d6ef403)" style="fill: none; stroke: #ff0000; stroke-linecap: square"/>
   </g>
   <g id="text_1">
    <!-- $\Omega$ -->
    <g transform="translate(16.011538 22.420913) scale(0.1 -0.1)">
     <defs>
      <path id="Cmr10-ad" d="M 494 0 
L 281 1063 
L 469 1063 
Q 503 878 531 736 
Q 559 594 604 536 
Q 650 478 750 459 
Q 850 441 1081 441 
L 1472 441 
Q 1378 803 1004 1386 
Q 631 1969 495 2233 
Q 359 2497 359 2913 
Q 359 3397 646 3761 
Q 934 4125 1389 4319 
Q 1844 4513 2309 4513 
Q 2772 4513 3226 4319 
Q 3681 4125 3968 3758 
Q 4256 3391 4256 2913 
Q 4256 2588 4137 2300 
Q 4019 2013 3834 1725 
Q 3650 1438 3436 1084 
Q 3222 731 3144 441 
L 3531 441 
Q 3766 441 3869 459 
Q 3972 478 4015 536 
Q 4059 594 4086 736 
Q 4113 878 4147 1063 
L 4331 1063 
L 4122 0 
L 2988 0 
Q 2925 0 2925 84 
Q 2925 409 3004 721 
Q 3084 1034 3240 1478 
Q 3397 1922 3484 2261 
Q 3572 2600 3572 2913 
Q 3572 3297 3422 3625 
Q 3272 3953 2984 4150 
Q 2697 4347 2309 4347 
Q 1725 4347 1384 3930 
Q 1044 3513 1044 2913 
Q 1047 2584 1122 2293 
Q 1197 2003 1364 1518 
Q 1531 1034 1611 721 
Q 1691 409 1691 84 
Q 1691 0 1625 0 
L 494 0 
z
" transform="scale(0.015625)"/>
     </defs>
     <use xlink:href="#Cmr10-ad" transform="translate(0 0.484375)"/>
    </g>
   </g>
   <g id="text_2">
    <!-- $A$ -->
    <g style="fill: #0000ff" transform="translate(103.142308 78.497837) scale(0.1 -0.1)">
     <defs>
      <path id="Cmmi10-41" d="M 288 0 
Q 225 0 225 84 
Q 250 225 306 225 
Q 566 225 755 328 
Q 944 431 1081 647 
Q 1094 659 1094 659 
L 3378 4513 
Q 3428 4581 3500 4581 
L 3584 4581 
Q 3603 4581 3622 4573 
Q 3641 4566 3655 4548 
Q 3669 4531 3669 4513 
L 4056 378 
Q 4056 350 4084 294 
Q 4147 225 4563 225 
Q 4628 225 4628 141 
Q 4606 56 4592 28 
Q 4578 0 4519 0 
L 2919 0 
Q 2859 0 2859 84 
Q 2894 225 2944 225 
Q 3450 225 3481 397 
L 3384 1453 
L 1806 1453 
L 1294 594 
Q 1247 525 1247 434 
Q 1247 322 1355 273 
Q 1463 225 1594 225 
Q 1656 225 1656 141 
Q 1634 50 1621 25 
Q 1609 0 1550 0 
L 288 0 
z
M 1931 1678 
L 3359 1678 
L 3169 3750 
L 1931 1678 
z
" transform="scale(0.015625)"/>
     </defs>
     <use xlink:href="#Cmmi10-41" transform="translate(0 0.421875)"/>
    </g>
   </g>
   <g id="text_3">
    <!-- $B$ -->
    <g style="fill: #ff0000" transform="translate(149.823077 271.651683) scale(0.1 -0.1)">
     <defs>
      <path id="Cmmi10-42" d="M 319 0 
Q 256 0 256 84 
Q 259 100 268 137 
Q 278 175 293 200 
Q 309 225 341 225 
Q 522 225 656 234 
Q 791 244 884 269 
Q 959 297 1006 441 
L 1881 3956 
Q 1894 4019 1894 4044 
Q 1894 4113 1819 4122 
Q 1697 4147 1356 4147 
Q 1294 4147 1294 4231 
Q 1297 4247 1306 4286 
Q 1316 4325 1333 4348 
Q 1350 4372 1375 4372 
L 3669 4372 
Q 3878 4372 4083 4320 
Q 4288 4269 4461 4156 
Q 4634 4044 4736 3876 
Q 4838 3709 4838 3488 
Q 4838 3247 4714 3040 
Q 4591 2834 4395 2681 
Q 4200 2528 3973 2429 
Q 3747 2331 3500 2284 
Q 3675 2284 3854 2215 
Q 4034 2147 4175 2028 
Q 4316 1909 4402 1743 
Q 4488 1578 4488 1388 
Q 4488 1003 4219 684 
Q 3950 366 3542 183 
Q 3134 0 2753 0 
L 319 0 
z
M 1497 275 
Q 1497 225 1716 225 
L 2631 225 
Q 2944 225 3231 398 
Q 3519 572 3692 859 
Q 3866 1147 3866 1459 
Q 3866 1650 3786 1820 
Q 3706 1991 3556 2089 
Q 3406 2188 3213 2188 
L 1966 2188 
L 1522 416 
Q 1497 328 1497 275 
z
M 2009 2356 
L 2981 2356 
Q 3288 2356 3577 2512 
Q 3866 2669 4048 2937 
Q 4231 3206 4231 3506 
Q 4231 3784 4057 3965 
Q 3884 4147 3609 4147 
L 2731 4147 
Q 2559 4147 2500 4115 
Q 2441 4084 2400 3928 
L 2009 2356 
z
" transform="scale(0.015625)"/>
     </defs>
     <use xlink:href="#Cmmi10-42" transform="translate(0 0.6875)"/>
    </g>
   </g>
   <g id="text_4">
    <!-- $C$ -->
    <g style="fill: #228b22" transform="translate(227.907692 78.497837) scale(0.1 -0.1)">
     <defs>
      <path id="Cmmi10-43" d="M 934 1381 
Q 934 997 1082 705 
Q 1231 413 1514 248 
Q 1797 84 2181 84 
Q 2584 84 2957 290 
Q 3331 497 3595 842 
Q 3859 1188 3956 1575 
Q 3969 1613 4006 1613 
L 4084 1613 
Q 4109 1613 4125 1595 
Q 4141 1578 4141 1556 
Q 4141 1550 4134 1538 
Q 4025 1094 3711 705 
Q 3397 316 2959 87 
Q 2522 -141 2059 -141 
Q 1559 -141 1162 84 
Q 766 309 545 709 
Q 325 1109 325 1613 
Q 325 2150 565 2676 
Q 806 3203 1212 3614 
Q 1619 4025 2139 4269 
Q 2659 4513 3194 4513 
Q 3406 4513 3600 4448 
Q 3794 4384 3959 4253 
Q 4125 4122 4231 3950 
L 4738 4500 
Q 4738 4513 4769 4513 
L 4806 4513 
Q 4831 4513 4847 4491 
Q 4863 4469 4863 4447 
L 4428 2719 
Q 4428 2675 4378 2675 
L 4263 2675 
Q 4213 2675 4213 2747 
Q 4238 2888 4238 3084 
Q 4238 3397 4131 3673 
Q 4025 3950 3801 4119 
Q 3578 4288 3256 4288 
Q 2734 4288 2300 4025 
Q 1866 3763 1564 3336 
Q 1263 2909 1098 2389 
Q 934 1869 934 1381 
z
" transform="scale(0.015625)"/>
     </defs>
     <use xlink:href="#Cmmi10-43" transform="translate(0 0.484375)"/>
    </g>
   </g>
   <g id="patch_6">
    <path d="M 138.046154 200.353846 
C 154.570347 200.353846 170.419977 193.788715 182.104346 182.104346 
C 193.788715 170.419977 200.353846 154.570347 200.353846 138.046154 
C 200.353846 121.521961 193.788715 105.672331 182.104346 93.987962 
C 170.419977 82.303593 154.570347 75.738462 138.046154 75.738462 
C 121.521961 75.738462 105.672331 82.303593 93.987962 93.987962 
C 82.303593 105.672331 75.738462 121.521961 75.738462 138.046154 
C 75.738462 154.570347 82.303593 170.419977 93.987962 182.104346 
C 105.672331 193.788715 121.521961 200.353846 138.046154 200.353846 
L 138.046154 200.353846 
z
" clip-path="url(#p887d6ef403)" style="fill: none; stroke: #0000ff; stroke-linejoin: miter"/>
   </g>
   <g id="patch_7">
    <path d="M 169.2 262.661538 
C 185.724193 262.661538 201.573823 256.096407 213.258192 244.412038 
C 224.942561 232.727669 231.507692 216.878039 231.507692 200.353846 
C 231.507692 183.829653 224.942561 167.980023 213.258192 156.295654 
C 201.573823 144.611285 185.724193 138.046154 169.2 138.046154 
C 152.675807 138.046154 136.826177 144.611285 125.141808 156.295654 
C 113.457439 167.980023 106.892308 183.829653 106.892308 200.353846 
C 106.892308 216.878039 113.457439 232.727669 125.141808 244.412038 
C 136.826177 256.096407 152.675807 262.661538 169.2 262.661538 
L 169.2 262.661538 
z
" clip-path="url(#p887d6ef403)" style="fill: none; stroke: #ff0000; stroke-linejoin: miter"/>
   </g>
   <g id="patch_8">
    <path d="M 200.353846 200.353846 
C 216.878039 200.353846 232.727669 193.788715 244.412038 182.104346 
C 256.096407 170.419977 262.661538 154.570347 262.661538 138.046154 
C 262.661538 121.521961 256.096407 105.672331 244.412038 93.987962 
C 232.727669 82.303593 216.878039 75.738462 200.353846 75.738462 
C 183.829653 75.738462 167.980023 82.303593 156.295654 93.987962 
C 144.611285 105.672331 138.046154 121.521961 138.046154 138.046154 
C 138.046154 154.570347 144.611285 170.419977 156.295654 182.104346 
C 167.980023 193.788715 183.829653 200.353846 200.353846 200.353846 
L 200.353846 200.353846 
z
" clip-path="url(#p887d6ef403)" style="fill: none; stroke: #228b22; stroke-linejoin: miter"/>
   </g>
  </g>
 </g>
 <defs>
  <clipPath id="p887d6ef403">
   <rect x="7.2" y="7.2" width="324" height="324"/>
  </clipPath>
 </defs>
</svg>
