<?xml version="1.0" encoding="utf-8" standalone="no"?>
<!DOCTYPE svg PUBLIC "-//W3C//DTD SVG 1.1//EN"
  "http://www.w3.org/Graphics/SVG/1.1/DTD/svg11.dtd">
<svg xmlns:xlink="http://www.w3.org/1999/xlink" width="338.4pt" height="338.4pt" viewBox="0 0 338.4 338.4" xmlns="http://www.w3.org/2000/svg" version="1.1">
 <metadata>
  <rdf:RDF xmlns:dc="http://purl.org/dc/elements/1.1/" xmlns:cc="http://creativecommons.org/ns#" xmlns:rdf="http://www.w3.org/1999/02/22-rdf-syntax-ns#">
   <cc:Work>
    <dc:type rdf:resource="http://purl.org/dc/dcmitype/StillImage"/>
    <dc:date>2025-08-24T20:29:05.699452</dc:date>
    <dc:format>image/svg+xml</dc:format>
    <dc:creator>
     <cc:Agent>
      <dc:title>Matplotlib v3.8.0, https://matplotlib.org/</dc:title>
     </cc:Agent>
    </dc:creator>
   </cc:Work>
  </rdf:RDF>
 </metadata>
 <defs>
  <style type="text/css">*{stroke-linejoin: round; stroke-linecap: butt}</style>
 </defs>
 <g id="figure_1">
  <g id="patch_1">
   <path d="M -0 338.4 
L 338.4 338.4 
L 338.4 0 
L -0 0 
z
" style="fill: #ffffff"/>
  </g>
  <g id="axes_1">
   <g id="patch_2">
    <path d="M 7.2 331.2 
L 331.2 331.2 
L 331.2 7.2 
L 7.2 7.2 
z
" style="fill: #ffffff"/>
   </g>
   <g id="patch_3">
    <path d="M 13.430769 324.969231 
L 13.430769 13.430769 
L 324.969231 13.430769 
L 324.969231 324.969231 
L 13.430769 324.969231 
z
" clip-path="url(#p5f461fd950)" style="fill: none; stroke: #000000; stroke-linejoin: miter"/>
   </g>
   <g id="patch_4">
    <path d="M 200.353846 138.046154 
L 200.351001 138.641569 
L 200.348156 138.888188 
L 200.345311 139.07742 
L 200.342466 139.236943 
L 200.339621 139.377482 
L 200.336776 139.504534 
L 200.333931 139.621366 
L 200.331086 139.730108 
L 200.328241 139.832236 
L 200.325396 139.928828 
L 200.322551 140.020697 
L 200.319706 140.108473 
L 200.316862 140.19266 
L 200.314017 140.273663 
L 200.308327 140.427407 
L 200.302637 140.571796 
L 200.296947 140.708354 
L 200.291257 140.838229 
L 200.285567 140.962314 
L 200.279877 141.081321 
L 200.274187 141.195823 
L 200.268497 141.306297 
L 200.262807 141.413138 
L 200.2537 141.577404 
L 200.244593 141.734338 
L 200.235486 141.884839 
L 200.226379 142.029638 
L 200.217272 142.169335 
L 200.208165 142.304432 
L 200.199058 142.435354 
L 200.18995 142.562464 
L 200.180843 142.686076 
L 200.171736 142.806461 
L 200.153522 143.03848 
L 200.135308 143.260121 
L 200.117094 143.472655 
L 200.09888 143.677115 
L 200.080666 143.87435 
L 200.062451 144.06507 
L 200.044237 144.249876 
L 200.026023 144.429281 
L 200.007809 144.60373 
L 199.989595 144.773607 
L 199.971381 144.939251 
L 199.950817 145.12155 
L 199.930253 145.29921 
L 199.909689 145.472565 
L 199.889125 145.641908 
L 199.868561 145.807503 
L 199.847997 145.969585 
L 199.806868 146.284033 
L 199.78073 146.477683 
L 199.754591 146.666904 
L 199.729811 146.842459 
L 199.705031 147.01451 
L 199.655471 147.348873 
L 199.605911 147.671372 
L 199.556351 147.983164 
L 199.518672 148.213655 
L 199.480992 148.4389 
L 199.441556 148.669386 
L 199.402121 148.894833 
L 199.362685 149.115549 
L 199.323249 149.331812 
L 199.26528 149.642147 
L 199.207311 149.944109 
L 199.149342 150.238319 
L 199.091373 150.525325 
L 199.035504 150.795571 
L 198.979636 151.059966 
L 198.923767 151.318861 
L 198.867898 151.572571 
L 198.818809 151.79144 
L 198.761813 152.041056 
L 198.704816 152.28607 
L 198.64782 152.526714 
L 198.590823 152.763203 
L 198.536122 152.986444 
L 198.464581 153.273177 
L 198.393039 153.554278 
L 198.30255 153.902232 
L 198.212061 154.242206 
L 198.142922 154.496899 
L 198.073782 154.747422 
L 197.995974 155.0246 
L 197.918165 155.296973 
L 197.812123 155.660849 
L 197.70608 156.016733 
L 197.616542 156.31135 
L 197.527004 156.600857 
L 197.440564 156.875721 
L 197.353158 157.149238 
L 197.265751 157.4185 
L 197.152298 157.76194 
L 197.038845 158.098858 
L 196.954344 158.34575 
L 196.830097 158.702788 
L 196.70585 159.053023 
L 196.544381 159.498565 
L 196.368342 159.972642 
L 196.326563 160.083451 
L 196.214568 160.377389 
L 196.102574 160.666953 
L 196.026383 160.861535 
L 195.869591 161.256037 
L 195.703023 161.66678 
L 195.57286 161.982038 
L 195.442698 162.2925 
L 195.379168 162.442342 
L 195.220095 162.812846 
L 195.026212 163.255705 
L 194.915437 163.504613 
L 194.749132 163.872899 
L 194.627428 164.138451 
L 194.505723 164.400765 
L 194.379029 164.670498 
L 194.274661 164.890213 
L 194.105707 165.241283 
L 193.900318 165.660658 
L 193.773278 165.91614 
L 193.662687 166.136184 
L 193.455151 166.543374 
L 193.347586 166.751557 
L 193.205616 167.023425 
L 192.961519 167.483396 
L 192.90692 167.585024 
L 192.624968 168.102794 
L 192.592278 168.162078 
L 192.40598 168.497062 
L 192.238909 168.793411 
L 191.995409 169.218679 
L 191.878267 169.420539 
L 191.691189 169.739351 
L 191.600357 169.892595 
L 191.505373 170.051785 
L 191.328865 170.344779 
L 191.070582 170.767073 
L 191.029281 170.833907 
L 190.756766 171.270239 
L 190.575965 171.555368 
L 190.56307 171.575575 
L 190.336085 171.928475 
L 190.161914 172.195767 
L 190.039975 172.381137 
L 189.798728 172.743698 
L 189.648307 172.967012 
L 189.513997 173.164662 
L 189.342185 173.415147 
L 189.201777 173.617922 
L 189.042502 173.845888 
L 188.983877 173.929255 
L 188.80499 174.181857 
L 188.621494 174.438233 
L 188.473102 174.643578 
L 188.367803 174.78823 
L 188.13854 175.100187 
L 188.02745 175.249898 
L 187.859591 175.474352 
L 187.638929 175.766244 
L 187.58163 175.841459 
L 187.401456 176.076439 
L 187.261494 176.257394 
L 186.98268 176.613821 
L 186.967343 176.633273 
L 186.68955 176.982878 
L 186.518168 177.196024 
L 186.490619 177.230109 
L 186.277243 177.492454 
L 186.132883 177.668307 
L 185.954359 177.88398 
L 185.752412 178.125593 
L 185.704362 178.182717 
L 185.551189 178.363893 
L 185.372015 178.574063 
L 185.09482 178.89553 
L 185.001983 179.002212 
L 184.845713 179.180687 
L 184.705352 179.339831 
L 184.508433 179.561273 
L 184.404306 179.677515 
L 184.155492 179.952925 
L 184.044938 180.074244 
L 183.944792 180.183591 
L 183.830526 180.307718 
L 183.54123 180.618992 
L 183.493789 180.669633 
L 183.365675 180.805825 
L 183.152607 181.030528 
L 183.005321 181.184557 
L 182.797019 181.400607 
L 182.682871 181.518122 
L 182.574288 181.629336 
L 182.41048 181.796069 
L 182.270805 181.937255 
L 182.057553 182.151088 
L 181.844419 182.362747 
L 181.763544 182.442531 
L 181.530033 182.671267 
L 181.33375 182.861693 
L 181.196341 182.994011 
L 181.171055 183.018272 
L 180.917905 183.259663 
L 180.811909 183.359934 
L 180.612533 183.547273 
L 180.427517 183.719653 
L 180.315565 183.823281 
L 180.126583 183.997062 
L 180.022017 184.092603 
L 179.847621 184.250979 
L 179.643438 184.434886 
L 179.591695 184.481232 
L 179.314564 184.727701 
L 179.148545 184.873945 
L 179.007961 184.996967 
L 178.910499 185.081819 
L 178.684662 185.277078 
L 178.570184 185.375337 
L 178.475526 185.45622 
L 178.239087 185.656832 
L 178.193668 185.695138 
L 177.900359 185.940735 
L 177.832219 185.997353 
L 177.579087 186.206259 
L 177.425924 186.331578 
L 177.349154 186.394088 
L 177.190605 186.522545 
L 177.059309 186.628273 
L 176.913438 186.745053 
L 176.676246 186.933417 
L 176.575548 187.012819 
L 176.444964 187.115288 
L 176.23619 187.277949 
L 176.060426 187.413791 
L 175.857946 187.569047 
L 175.769219 187.636665 
L 175.602045 187.76339 
L 175.45258 187.875942 
L 175.319338 187.975687 
L 175.155277 188.097742 
L 175.046298 188.178357 
L 174.87534 188.304084 
L 174.7144 188.421626 
L 174.50867 188.570736 
L 174.346345 188.687487 
L 174.173566 188.810892 
L 173.975141 188.951521 
L 173.882545 189.016749 
L 173.803682 189.072105 
L 173.565765 189.238006 
L 173.407659 189.347348 
L 173.244534 189.459406 
L 173.118945 189.545162 
L 172.956463 189.655444 
L 172.852965 189.725303 
L 172.612813 189.886241 
L 172.453139 189.992356 
L 172.289526 190.100356 
L 172.153688 190.189462 
L 172.092995 190.229112 
L 171.935649 190.331435 
L 171.704734 190.480384 
L 171.589511 190.554169 
L 171.330647 190.718642 
L 171.159285 190.826539 
L 171.141861 190.837467 
L 170.915633 190.978619 
L 170.811139 191.043364 
L 170.618156 191.162189 
L 170.475269 191.249546 
L 170.311467 191.349044 
L 170.176376 191.430583 
L 169.913157 191.588125 
L 169.833506 191.635451 
L 169.686003 191.722671 
L 169.530415 191.814079 
L 169.352095 191.9181 
L 169.2 192.006198 
L 169.2 192.006198 
L 169.394144 192.117823 
L 169.473932 192.163428 
L 169.727461 192.30731 
L 169.754805 192.322734 
L 169.952676 192.433812 
L 170.191992 192.566894 
L 170.218664 192.581641 
L 170.414835 192.689581 
L 170.571751 192.775263 
L 170.720589 192.855994 
L 170.978034 192.994404 
L 171.08985 193.054035 
L 171.194694 193.109684 
L 171.346142 193.189618 
L 171.487153 193.263565 
L 171.73023 193.389962 
L 171.926455 193.491009 
L 172.051717 193.555054 
L 172.176714 193.618609 
L 172.306068 193.684007 
L 172.563238 193.812906 
L 172.590345 193.826406 
L 172.807876 193.93415 
L 172.879317 193.969304 
L 173.072786 194.063939 
L 173.308599 194.178169 
L 173.390111 194.21737 
L 173.590208 194.312984 
L 173.686335 194.358607 
L 173.824155 194.423667 
L 174.000551 194.506337 
L 174.275884 194.634036 
L 174.319554 194.654141 
L 174.500163 194.736855 
L 174.705084 194.829862 
L 174.784917 194.865855 
L 175.007762 194.96561 
L 175.166894 195.036205 
L 175.293338 195.09192 
L 175.483853 195.175235 
L 175.592225 195.222291 
L 175.702576 195.269955 
L 175.991723 195.393651 
L 176.158502 195.464216 
L 176.188541 195.476865 
L 176.339485 195.540145 
L 176.591709 195.644846 
L 176.772227 195.718987 
L 176.911312 195.775662 
L 177.047669 195.830846 
L 177.217375 195.899004 
L 177.392019 195.968542 
L 177.45026 195.991596 
L 177.647417 196.069137 
L 177.868032 196.154989 
L 177.90368 196.16877 
L 178.046942 196.223903 
L 178.26471 196.306935 
L 178.50196 196.396335 
L 178.57544 196.4238 
L 178.763199 196.493502 
L 178.903134 196.545004 
L 178.985831 196.575262 
L 179.174698 196.643869 
L 179.355313 196.708835 
L 179.469038 196.749419 
L 179.693951 196.828951 
L 179.837786 196.879306 
L 179.927138 196.910388 
L 180.145773 196.985804 
L 180.345016 197.05374 
L 180.48443 197.10083 
L 180.694426 197.17107 
L 180.861024 197.226205 
L 180.900944 197.239339 
L 181.100568 197.304569 
L 181.314269 197.373576 
L 181.423202 197.408425 
L 181.60677 197.466652 
L 181.762181 197.515461 
L 181.912981 197.562395 
L 182.020719 197.595671 
L 182.24912 197.665508 
L 182.368981 197.701775 
L 182.501637 197.741607 
L 182.740861 197.812627 
L 182.844842 197.843171 
L 182.969615 197.879564 
L 183.115644 197.921799 
L 183.321522 197.980689 
L 183.392152 198.000715 
L 183.546355 198.044127 
L 183.688842 198.08386 
L 183.9576 198.157814 
L 184.075458 198.189837 
L 184.19802 198.222875 
L 184.317664 198.254869 
L 184.485358 198.299283 
L 184.674571 198.348798 
L 184.815382 198.385235 
L 184.946058 198.418735 
L 185.193078 198.48124 
L 185.30833 198.510035 
L 185.42263 198.538363 
L 185.670877 198.599097 
L 185.851196 198.642537 
L 185.93973 198.663658 
L 186.1189 198.705983 
L 186.325349 198.754059 
L 186.361743 198.762458 
L 186.651069 198.828408 
L 186.736981 198.847712 
L 186.813756 198.864856 
L 186.975402 198.900618 
L 187.198451 198.949225 
L 187.333269 198.97819 
L 187.584241 199.031281 
L 187.624117 199.039617 
L 187.898479 199.096234 
L 188.036726 199.124277 
L 188.137944 199.144601 
L 188.225318 199.162006 
L 188.421684 199.200647 
L 188.635029 199.241888 
L 188.810698 199.275267 
L 188.852759 199.283181 
L 189.136178 199.335732 
L 189.246942 199.355902 
L 189.457514 199.393676 
L 189.514293 199.403734 
L 189.651283 199.427777 
L 189.872792 199.465988 
L 189.951273 199.479329 
L 190.188251 199.518987 
L 190.314993 199.539812 
L 190.434201 199.559154 
L 190.594909 199.584854 
L 190.874118 199.628483 
L 190.976244 199.644117 
L 191.101707 199.663087 
L 191.228577 199.682004 
L 191.507743 199.722689 
L 191.662051 199.744624 
L 191.798129 199.763641 
L 191.908185 199.778798 
L 192.059339 199.799289 
L 192.242312 199.823589 
L 192.38941 199.842726 
L 192.465467 199.85248 
L 192.678453 199.879291 
L 192.89564 199.905864 
L 193.014471 199.920075 
L 193.197532 199.941515 
L 193.383463 199.962729 
L 193.532074 199.979279 
L 193.672043 199.994536 
L 193.856046 200.014106 
L 193.941134 200.022969 
L 194.07555 200.03673 
L 194.270588 200.056173 
L 194.431344 200.071733 
L 194.585458 200.086256 
L 194.768619 200.103013 
L 194.823477 200.107926 
L 194.955688 200.119565 
L 195.184967 200.139078 
L 195.403453 200.156879 
L 195.464876 200.161744 
L 195.638193 200.175142 
L 195.76138 200.184369 
L 195.909974 200.195172 
L 196.057789 200.205565 
L 196.325072 200.223461 
L 196.373814 200.2266 
L 196.625887 200.242222 
L 196.784276 200.251513 
L 196.883175 200.257109 
L 197.056614 200.266543 
L 197.163757 200.272128 
L 197.334735 200.280658 
L 197.480739 200.287569 
L 197.699962 200.297302 
L 197.90813 200.305828 
L 197.936793 200.306947 
L 198.116847 200.313676 
L 198.275435 200.319172 
L 198.506613 200.326458 
L 198.630468 200.330008 
L 198.71756 200.332357 
L 198.979347 200.338684 
L 199.052825 200.340262 
L 199.28073 200.344604 
L 199.491792 200.347882 
L 199.635441 200.349704 
L 199.774379 200.351152 
L 199.893945 200.352149 
L 199.975553 200.352698 
L 200.21249 200.353686 
L 200.353846 200.353846 
z
" clip-path="url(#p5f461fd950)" style="fill: #808080; opacity: 0.5"/>
   </g>
   <g id="patch_5">
    <path d="M 231.507692 200.353846 
L 231.50298 199.58757 
L 231.498268 199.270189 
L 231.493556 199.026667 
L 231.488844 198.821381 
L 231.484132 198.64053 
L 231.47942 198.477038 
L 231.474708 198.3267 
L 231.469995 198.186777 
L 231.465283 198.055366 
L 231.460571 197.931081 
L 231.455859 197.812877 
L 231.451147 197.69994 
L 231.446435 197.591625 
L 231.441723 197.487408 
L 231.437011 197.386857 
L 231.432299 197.289611 
L 231.422874 197.103857 
L 231.41345 196.928187 
L 231.404026 196.76112 
L 231.394602 196.601508 
L 231.385177 196.448437 
L 231.375753 196.301165 
L 231.366329 196.159081 
L 231.356905 196.021676 
L 231.342033 195.813336 
L 231.327162 195.614193 
L 231.31229 195.423131 
L 231.297418 195.239244 
L 231.282547 195.061785 
L 231.267675 194.890127 
L 231.252804 194.72374 
L 231.237932 194.562169 
L 231.22306 194.405022 
L 231.208189 194.251957 
L 231.193317 194.102674 
L 231.178445 193.956908 
L 231.148702 193.675013 
L 231.118959 193.404671 
L 231.096053 193.203521 
L 231.074207 193.016883 
L 231.052361 192.83494 
L 231.030515 192.657359 
L 231.008669 192.483845 
L 230.986823 192.314134 
L 230.964977 192.14799 
L 230.943132 191.985201 
L 230.921286 191.825574 
L 230.887957 191.587747 
L 230.854628 191.356327 
L 230.821299 191.130832 
L 230.787971 190.910838 
L 230.754642 190.695969 
L 230.721313 190.485889 
L 230.687984 190.280301 
L 230.654655 190.078933 
L 230.615113 189.845165 
L 230.575571 189.616631 
L 230.536029 189.393004 
L 230.496487 189.173989 
L 230.42829 188.806333 
L 230.360093 188.450418 
L 230.314466 188.218337 
L 230.268839 187.99078 
L 230.227163 187.786672 
L 230.185487 187.585962 
L 230.102135 187.194119 
L 230.035538 186.889605 
L 229.968942 186.592151 
L 229.914034 186.351898 
L 229.859127 186.115911 
L 229.80422 185.883981 
L 229.749313 185.655914 
L 229.674529 185.351183 
L 229.599744 185.052885 
L 229.51301 184.714493 
L 229.426275 184.38374 
L 229.347797 184.090666 
L 229.269319 183.803153 
L 229.210222 183.590143 
L 229.143079 183.351617 
L 229.075936 183.116653 
L 228.984665 182.802711 
L 228.893394 182.494753 
L 228.807169 182.209042 
L 228.720944 181.928165 
L 228.587691 181.503098 
L 228.512322 181.267281 
L 228.436954 181.034637 
L 228.33673 180.729993 
L 228.236507 180.43051 
L 228.133455 180.127715 
L 228.030403 179.829904 
L 227.935056 179.558613 
L 227.839709 179.291247 
L 227.720397 178.961988 
L 227.595895 178.62442 
L 227.476051 178.305029 
L 227.349888 177.974412 
L 227.223724 177.64931 
L 227.047842 177.204858 
L 227.021223 177.138449 
L 226.84871 176.713315 
L 226.723684 176.4107 
L 226.598658 176.112506 
L 226.559672 176.020402 
L 226.434568 175.727584 
L 226.309463 175.438836 
L 226.195809 175.179925 
L 225.972894 174.681155 
L 225.893249 174.505751 
L 225.782186 174.263528 
L 225.631426 173.939027 
L 225.480666 173.619315 
L 225.428233 173.509212 
L 225.27103 173.182389 
L 225.106578 172.845609 
L 224.888939 172.407637 
L 224.751566 172.135554 
L 224.587601 171.815062 
L 224.496258 171.638478 
L 224.29958 171.262872 
L 224.12944 170.942877 
L 223.958306 170.625469 
L 223.789532 170.316677 
L 223.707429 170.167943 
L 223.541458 169.87017 
L 223.444536 169.698035 
L 223.288737 169.423973 
L 223.132937 169.153096 
L 223.008677 168.939283 
L 222.867164 168.698135 
L 222.728294 168.463876 
L 222.553642 168.172526 
L 222.356485 167.847898 
L 222.236151 167.651931 
L 222.090507 167.416895 
L 222.023263 167.309158 
L 221.724298 166.835991 
L 221.711408 166.8158 
L 221.522003 166.521074 
L 221.278999 166.148198 
L 221.135349 165.930481 
L 221.043838 165.792813 
L 220.919721 165.60735 
L 220.692973 165.272195 
L 220.62314 165.169912 
L 220.350057 164.774074 
L 220.235369 164.60976 
L 220.093407 164.40792 
L 219.854122 164.071502 
L 219.775748 163.962332 
L 219.590226 163.705878 
L 219.504336 163.58807 
L 219.35005 163.377895 
L 219.081766 163.01676 
L 218.998304 162.905515 
L 218.764325 162.59638 
L 218.662992 162.463729 
L 218.45925 162.199229 
L 218.409186 162.134681 
L 218.16693 161.824788 
L 218.105238 161.746512 
L 217.918603 161.511263 
L 217.80079 161.363954 
L 217.561716 161.067807 
L 217.423929 160.898794 
L 217.337789 160.793742 
L 217.057129 160.454676 
L 216.893023 160.258658 
L 216.764261 160.105994 
L 216.5728 159.880813 
L 216.409009 159.689882 
L 216.37553 159.651046 
L 216.124896 159.362351 
L 216.063036 159.291645 
L 215.900198 159.106543 
L 215.749049 158.936042 
L 215.464765 158.618728 
L 215.305397 158.442739 
L 215.168976 158.293155 
L 215.023415 158.134619 
L 214.984083 158.091969 
L 214.687612 157.773033 
L 214.544418 157.620577 
L 214.446789 157.517219 
L 214.349572 157.414765 
L 214.189854 157.247448 
L 213.937076 156.985164 
L 213.746678 156.789618 
L 213.694581 156.73641 
L 213.446396 156.484666 
L 213.297415 156.334912 
L 213.230908 156.268388 
L 212.975373 156.01464 
L 212.900577 155.940919 
L 212.750219 155.793472 
L 212.59 155.637446 
L 212.389956 155.444201 
L 212.270738 155.329852 
L 212.125853 155.191697 
L 211.971022 155.045037 
L 211.752804 154.840031 
L 211.658813 154.752336 
L 211.462923 154.570729 
L 211.382031 154.496188 
L 211.154774 154.288181 
L 211.066103 154.20758 
L 210.791865 153.960255 
L 210.675244 153.855968 
L 210.578683 153.770017 
L 210.35715 153.574176 
L 210.138501 153.38271 
L 210.062785 153.316825 
L 209.841263 153.125293 
L 209.755023 153.051218 
L 209.579148 152.900997 
L 209.374295 152.72744 
L 209.268713 152.638579 
L 209.114288 152.509326 
L 208.998602 152.413051 
L 208.865361 152.302752 
L 208.651151 152.126725 
L 208.559928 152.052246 
L 208.29944 151.841144 
L 208.148777 151.720099 
L 208.063916 151.652259 
L 207.875799 151.502734 
L 207.755546 151.407769 
L 207.500724 151.208114 
L 207.404099 151.132963 
L 207.230963 150.999065 
L 207.147271 150.934688 
L 206.920675 150.761516 
L 206.77912 150.654165 
L 206.595687 150.515998 
L 206.390709 150.36285 
L 206.295675 150.29229 
L 206.112081 150.156767 
L 206.030931 150.097195 
L 205.837798 149.956225 
L 205.677518 149.840094 
L 205.562592 149.757301 
L 205.393697 149.636346 
L 205.129802 149.449054 
L 205.032678 149.380641 
L 204.944284 149.318617 
L 204.716993 149.160177 
L 204.522367 149.025697 
L 204.411269 148.94942 
L 204.209976 148.812115 
L 204.059673 148.71034 
L 204.029786 148.690179 
L 203.820664 148.54981 
L 203.619036 148.415628 
L 203.431047 148.291538 
L 203.311082 148.212858 
L 203.162064 148.115673 
L 202.979952 147.997726 
L 202.794966 147.878835 
L 202.757635 147.854954 
L 202.564952 147.732287 
L 202.456776 147.663853 
L 202.256525 147.53799 
L 202.13679 147.463238 
L 201.872811 147.299761 
L 201.791194 147.249585 
L 201.633977 147.153417 
L 201.386484 147.003319 
L 201.345395 146.978551 
L 201.121033 146.84407 
L 200.923806 146.726907 
L 200.843042 146.679211 
L 200.681627 146.584378 
L 200.530758 146.496329 
L 200.353846 146.393802 
L 200.353846 200.353846 
L 200.527375 200.353605 
L 200.603298 200.353347 
L 200.889797 200.351541 
L 201.001005 200.350485 
L 201.136679 200.348928 
L 201.31961 200.346361 
L 201.512947 200.343064 
L 201.598335 200.341417 
L 201.713746 200.339004 
L 201.91535 200.334277 
L 202.024129 200.331454 
L 202.225001 200.325744 
L 202.331622 200.322449 
L 202.60378 200.31321 
L 202.700338 200.309646 
L 202.792227 200.306115 
L 203.008448 200.297271 
L 203.163822 200.290451 
L 203.387886 200.279932 
L 203.515431 200.273583 
L 203.685488 200.26471 
L 203.727803 200.262429 
L 203.957816 200.249529 
L 204.13179 200.239205 
L 204.217207 200.233958 
L 204.471003 200.217671 
L 204.514357 200.214785 
L 204.748512 200.198671 
L 204.882871 200.189025 
L 205.098324 200.172947 
L 205.272135 200.159429 
L 205.344611 200.153648 
L 205.566525 200.135416 
L 205.634024 200.129712 
L 205.889152 200.107486 
L 206.021049 200.09558 
L 206.071083 200.09099 
L 206.315641 200.067969 
L 206.536683 200.046324 
L 206.544029 200.045591 
L 206.824201 200.016978 
L 206.954998 200.003182 
L 207.028665 199.995289 
L 207.279823 199.967712 
L 207.4681 199.946363 
L 207.579902 199.933411 
L 207.719436 199.91696 
L 207.885375 199.896979 
L 207.976177 199.885855 
L 208.233814 199.853553 
L 208.312903 199.843419 
L 208.514921 199.817064 
L 208.614262 199.803858 
L 208.820415 199.775934 
L 208.94076 199.759308 
L 209.072776 199.740795 
L 209.348429 199.70121 
L 209.466968 199.683801 
L 209.656241 199.65552 
L 209.821788 199.630296 
L 209.843822 199.626905 
L 210.136112 199.58115 
L 210.23294 199.565679 
L 210.419567 199.535419 
L 210.500559 199.522106 
L 210.651442 199.497013 
L 210.91359 199.452508 
L 210.999863 199.43761 
L 211.094738 199.421082 
L 211.298166 199.385133 
L 211.416197 199.363956 
L 211.691305 199.313686 
L 211.84584 199.284888 
L 211.977061 199.260118 
L 212.117086 199.233364 
L 212.255295 199.206632 
L 212.395007 199.179279 
L 212.568557 199.144839 
L 212.749012 199.108486 
L 212.934319 199.070577 
L 213.106248 199.03488 
L 213.168336 199.021865 
L 213.311257 198.991654 
L 213.581315 198.933612 
L 213.607684 198.927878 
L 213.830509 198.878942 
L 213.936249 198.85542 
L 214.133791 198.81096 
L 214.220499 198.791231 
L 214.446213 198.739265 
L 214.614416 198.699964 
L 214.737226 198.670958 
L 214.977446 198.613462 
L 215.100964 198.583506 
L 215.278438 198.539997 
L 215.430742 198.502218 
L 215.498706 198.485228 
L 215.732395 198.42619 
L 215.897343 198.383938 
L 215.986399 198.360927 
L 216.126845 198.324351 
L 216.337275 198.268895 
L 216.431757 198.243739 
L 216.706991 198.169553 
L 216.793187 198.146042 
L 216.921986 198.110663 
L 217.179528 198.039028 
L 217.250571 198.019058 
L 217.390036 197.97959 
L 217.610826 197.91639 
L 217.717149 197.885641 
L 217.9323 197.822792 
L 217.969879 197.811729 
L 218.211426 197.740001 
L 218.291459 197.716 
L 218.441726 197.670621 
L 218.725571 197.583774 
L 218.867805 197.539698 
L 218.933841 197.519108 
L 219.152244 197.450436 
L 219.304204 197.402135 
L 219.378106 197.37849 
L 219.674506 197.282634 
L 219.762476 197.25387 
L 219.93402 197.197361 
L 220.115774 197.136887 
L 220.217095 197.102905 
L 220.38809 197.045116 
L 220.601578 196.972191 
L 220.627887 196.963145 
L 220.919156 196.862109 
L 221.069977 196.809156 
L 221.206803 196.760741 
L 221.369189 196.702815 
L 221.418041 196.685289 
L 221.680328 196.590408 
L 221.809856 196.543061 
L 221.966053 196.485533 
L 222.113405 196.430827 
L 222.225468 196.38894 
L 222.49282 196.288015 
L 222.579117 196.255138 
L 222.805402 196.168233 
L 222.881025 196.138965 
L 223.109201 196.049967 
L 223.218675 196.0069 
L 223.32646 195.964265 
L 223.536548 195.880494 
L 223.629256 195.843246 
L 223.778576 195.782889 
L 223.973708 195.703336 
L 224.129597 195.639228 
L 224.274722 195.579103 
L 224.450822 195.505568 
L 224.635199 195.427897 
L 224.739467 195.383663 
L 224.947155 195.294889 
L 225.045174 195.252682 
L 225.299674 195.142163 
L 225.3243 195.131397 
L 225.497787 195.055195 
L 225.74751 194.9444 
L 225.864455 194.892063 
L 226.06973 194.799496 
L 226.191715 194.744064 
L 226.302314 194.693533 
L 226.478181 194.612643 
L 226.67332 194.522112 
L 226.847876 194.440434 
L 227.013295 194.362424 
L 227.071672 194.334752 
L 227.30035 194.225638 
L 227.423191 194.166552 
L 227.650945 194.056125 
L 227.720515 194.022166 
L 227.962693 193.903115 
L 228.093897 193.838072 
L 228.282951 193.743673 
L 228.359604 193.70517 
L 228.456895 193.656109 
L 228.645426 193.560432 
L 228.898431 193.430765 
L 229.028446 193.363564 
L 229.210753 193.268681 
L 229.353585 193.193807 
L 229.409696 193.164264 
L 229.68258 193.019547 
L 229.808745 192.95205 
L 229.893944 192.906259 
L 230.129433 192.778804 
L 230.250054 192.713011 
L 230.368291 192.648183 
L 230.583977 192.529066 
L 230.79405 192.411975 
L 230.870313 192.369204 
L 231.020182 192.284741 
L 231.123756 192.22605 
L 231.37099 192.084893 
L 231.507692 192.006198 
z
" clip-path="url(#p5f461fd950)" style="fill: #808080; opacity: 0.5"/>
   </g>
   <g id="matplotlib.axis_1"/>
   <g id="matplotlib.axis_2"/>
   <g id="line2d_1">
    <path d="M 169.2 192.006198 
L 172.563238 193.812906 
L 175.702576 195.269955 
L 179.174698 196.643869 
L 182.740861 197.812627 
L 186.361743 198.762458 
L 189.951273 199.479329 
L 193.672043 199.994536 
L 197.334735 200.280658 
L 200.353846 200.353846 
L 200.353846 200.353846 
" clip-path="url(#p5f461fd950)" style="fill: none; stroke: #ff0000; stroke-linecap: square"/>
   </g>
   <g id="line2d_2">
    <path d="M 200.353846 200.353846 
L 204.13179 200.239205 
L 207.719436 199.91696 
L 211.416197 199.363956 
L 215.100964 198.583506 
L 218.725571 197.583774 
L 222.225468 196.38894 
L 225.74751 194.9444 
L 229.028446 193.363564 
L 231.507692 192.006198 
L 231.507692 192.006198 
" clip-path="url(#p5f461fd950)" style="fill: none; stroke: #ff0000; stroke-linecap: square"/>
   </g>
   <g id="text_1">
    <!-- $\Omega$ -->
    <g transform="translate(16.011538 22.420913) scale(0.1 -0.1)">
     <defs>
      <path id="Cmr10-ad" d="M 494 0 
L 281 1063 
L 469 1063 
Q 503 878 531 736 
Q 559 594 604 536 
Q 650 478 750 459 
Q 850 441 1081 441 
L 1472 441 
Q 1378 803 1004 1386 
Q 631 1969 495 2233 
Q 359 2497 359 2913 
Q 359 3397 646 3761 
Q 934 4125 1389 4319 
Q 1844 4513 2309 4513 
Q 2772 4513 3226 4319 
Q 3681 4125 3968 3758 
Q 4256 3391 4256 2913 
Q 4256 2588 4137 2300 
Q 4019 2013 3834 1725 
Q 3650 1438 3436 1084 
Q 3222 731 3144 441 
L 3531 441 
Q 3766 441 3869 459 
Q 3972 478 4015 536 
Q 4059 594 4086 736 
Q 4113 878 4147 1063 
L 4331 1063 
L 4122 0 
L 2988 0 
Q 2925 0 2925 84 
Q 2925 409 3004 721 
Q 3084 1034 3240 1478 
Q 3397 1922 3484 2261 
Q 3572 2600 3572 2913 
Q 3572 3297 3422 3625 
Q 3272 3953 2984 4150 
Q 2697 4347 2309 4347 
Q 1725 4347 1384 3930 
Q 1044 3513 1044 2913 
Q 1047 2584 1122 2293 
Q 1197 2003 1364 1518 
Q 1531 1034 1611 721 
Q 1691 409 1691 84 
Q 1691 0 1625 0 
L 494 0 
z
" transform="scale(0.015625)"/>
     </defs>
     <use xlink:href="#Cmr10-ad" transform="translate(0 0.484375)"/>
    </g>
   </g>
   <g id="text_2">
    <!-- $A$ -->
    <g style="fill: #0000ff" transform="translate(103.142308 78.497837) scale(0.1 -0.1)">
     <defs>
      <path id="Cmmi10-41" d="M 288 0 
Q 225 0 225 84 
Q 250 225 306 225 
Q 566 225 755 328 
Q 944 431 1081 647 
Q 1094 659 1094 659 
L 3378 4513 
Q 3428 4581 3500 4581 
L 3584 4581 
Q 3603 4581 3622 4573 
Q 3641 4566 3655 4548 
Q 3669 4531 3669 4513 
L 4056 378 
Q 4056 350 4084 294 
Q 4147 225 4563 225 
Q 4628 225 4628 141 
Q 4606 56 4592 28 
Q 4578 0 4519 0 
L 2919 0 
Q 2859 0 2859 84 
Q 2894 225 2944 225 
Q 3450 225 3481 397 
L 3384 1453 
L 1806 1453 
L 1294 594 
Q 1247 525 1247 434 
Q 1247 322 1355 273 
Q 1463 225 1594 225 
Q 1656 225 1656 141 
Q 1634 50 1621 25 
Q 1609 0 1550 0 
L 288 0 
z
M 1931 1678 
L 3359 1678 
L 3169 3750 
L 1931 1678 
z
" transform="scale(0.015625)"/>
     </defs>
     <use xlink:href="#Cmmi10-41" transform="translate(0 0.421875)"/>
    </g>
   </g>
   <g id="text_3">
    <!-- $B$ -->
    <g style="fill: #ff0000" transform="translate(227.707692 78.497837) scale(0.1 -0.1)">
     <defs>
      <path id="Cmmi10-42" d="M 319 0 
Q 256 0 256 84 
Q 259 100 268 137 
Q 278 175 293 200 
Q 309 225 341 225 
Q 522 225 656 234 
Q 791 244 884 269 
Q 959 297 1006 441 
L 1881 3956 
Q 1894 4019 1894 4044 
Q 1894 4113 1819 4122 
Q 1697 4147 1356 4147 
Q 1294 4147 1294 4231 
Q 1297 4247 1306 4286 
Q 1316 4325 1333 4348 
Q 1350 4372 1375 4372 
L 3669 4372 
Q 3878 4372 4083 4320 
Q 4288 4269 4461 4156 
Q 4634 4044 4736 3876 
Q 4838 3709 4838 3488 
Q 4838 3247 4714 3040 
Q 4591 2834 4395 2681 
Q 4200 2528 3973 2429 
Q 3747 2331 3500 2284 
Q 3675 2284 3854 2215 
Q 4034 2147 4175 2028 
Q 4316 1909 4402 1743 
Q 4488 1578 4488 1388 
Q 4488 1003 4219 684 
Q 3950 366 3542 183 
Q 3134 0 2753 0 
L 319 0 
z
M 1497 275 
Q 1497 225 1716 225 
L 2631 225 
Q 2944 225 3231 398 
Q 3519 572 3692 859 
Q 3866 1147 3866 1459 
Q 3866 1650 3786 1820 
Q 3706 1991 3556 2089 
Q 3406 2188 3213 2188 
L 1966 2188 
L 1522 416 
Q 1497 328 1497 275 
z
M 2009 2356 
L 2981 2356 
Q 3288 2356 3577 2512 
Q 3866 2669 4048 2937 
Q 4231 3206 4231 3506 
Q 4231 3784 4057 3965 
Q 3884 4147 3609 4147 
L 2731 4147 
Q 2559 4147 2500 4115 
Q 2441 4084 2400 3928 
L 2009 2356 
z
" transform="scale(0.015625)"/>
     </defs>
     <use xlink:href="#Cmmi10-42" transform="translate(0 0.6875)"/>
    </g>
   </g>
   <g id="text_4">
    <!-- $C$ -->
    <g style="fill: #228b22" transform="translate(150.023077 271.651683) scale(0.1 -0.1)">
     <defs>
      <path id="Cmmi10-43" d="M 934 1381 
Q 934 997 1082 705 
Q 1231 413 1514 248 
Q 1797 84 2181 84 
Q 2584 84 2957 290 
Q 3331 497 3595 842 
Q 3859 1188 3956 1575 
Q 3969 1613 4006 1613 
L 4084 1613 
Q 4109 1613 4125 1595 
Q 4141 1578 4141 1556 
Q 4141 1550 4134 1538 
Q 4025 1094 3711 705 
Q 3397 316 2959 87 
Q 2522 -141 2059 -141 
Q 1559 -141 1162 84 
Q 766 309 545 709 
Q 325 1109 325 1613 
Q 325 2150 565 2676 
Q 806 3203 1212 3614 
Q 1619 4025 2139 4269 
Q 2659 4513 3194 4513 
Q 3406 4513 3600 4448 
Q 3794 4384 3959 4253 
Q 4125 4122 4231 3950 
L 4738 4500 
Q 4738 4513 4769 4513 
L 4806 4513 
Q 4831 4513 4847 4491 
Q 4863 4469 4863 4447 
L 4428 2719 
Q 4428 2675 4378 2675 
L 4263 2675 
Q 4213 2675 4213 2747 
Q 4238 2888 4238 3084 
Q 4238 3397 4131 3673 
Q 4025 3950 3801 4119 
Q 3578 4288 3256 4288 
Q 2734 4288 2300 4025 
Q 1866 3763 1564 3336 
Q 1263 2909 1098 2389 
Q 934 1869 934 1381 
z
" transform="scale(0.015625)"/>
     </defs>
     <use xlink:href="#Cmmi10-43" transform="translate(0 0.484375)"/>
    </g>
   </g>
   <g id="patch_6">
    <path d="M 138.046154 200.353846 
C 154.570347 200.353846 170.419977 193.788715 182.104346 182.104346 
C 193.788715 170.419977 200.353846 154.570347 200.353846 138.046154 
C 200.353846 121.521961 193.788715 105.672331 182.104346 93.987962 
C 170.419977 82.303593 154.570347 75.738462 138.046154 75.738462 
C 121.521961 75.738462 105.672331 82.303593 93.987962 93.987962 
C 82.303593 105.672331 75.738462 121.521961 75.738462 138.046154 
C 75.738462 154.570347 82.303593 170.419977 93.987962 182.104346 
C 105.672331 193.788715 121.521961 200.353846 138.046154 200.353846 
L 138.046154 200.353846 
z
" clip-path="url(#p5f461fd950)" style="fill: none; stroke: #0000ff; stroke-linejoin: miter"/>
   </g>
   <g id="patch_7">
    <path d="M 200.353846 200.353846 
C 216.878039 200.353846 232.727669 193.788715 244.412038 182.104346 
C 256.096407 170.419977 262.661538 154.570347 262.661538 138.046154 
C 262.661538 121.521961 256.096407 105.672331 244.412038 93.987962 
C 232.727669 82.303593 216.878039 75.738462 200.353846 75.738462 
C 183.829653 75.738462 167.980023 82.303593 156.295654 93.987962 
C 144.611285 105.672331 138.046154 121.521961 138.046154 138.046154 
C 138.046154 154.570347 144.611285 170.419977 156.295654 182.104346 
C 167.980023 193.788715 183.829653 200.353846 200.353846 200.353846 
L 200.353846 200.353846 
z
" clip-path="url(#p5f461fd950)" style="fill: none; stroke: #ff0000; stroke-linejoin: miter"/>
   </g>
   <g id="patch_8">
    <path d="M 169.2 262.661538 
C 185.724193 262.661538 201.573823 256.096407 213.258192 244.412038 
C 224.942561 232.727669 231.507692 216.878039 231.507692 200.353846 
C 231.507692 183.829653 224.942561 167.980023 213.258192 156.295654 
C 201.573823 144.611285 185.724193 138.046154 169.2 138.046154 
C 152.675807 138.046154 136.826177 144.611285 125.141808 156.295654 
C 113.457439 167.980023 106.892308 183.829653 106.892308 200.353846 
C 106.892308 216.878039 113.457439 232.727669 125.141808 244.412038 
C 136.826177 256.096407 152.675807 262.661538 169.2 262.661538 
L 169.2 262.661538 
z
" clip-path="url(#p5f461fd950)" style="fill: none; stroke: #228b22; stroke-linejoin: miter"/>
   </g>
  </g>
 </g>
 <defs>
  <clipPath id="p5f461fd950">
   <rect x="7.2" y="7.2" width="324" height="324"/>
  </clipPath>
 </defs>
</svg>
