<?xml version="1.0" encoding="utf-8" standalone="no"?>
<!DOCTYPE svg PUBLIC "-//W3C//DTD SVG 1.1//EN"
  "http://www.w3.org/Graphics/SVG/1.1/DTD/svg11.dtd">
<!-- Created with matplotlib (https://matplotlib.org/) -->
<svg height="338.4pt" version="1.1" viewBox="0 0 338.4 338.4" width="338.4pt" xmlns="http://www.w3.org/2000/svg" xmlns:xlink="http://www.w3.org/1999/xlink">
 <metadata>
  <rdf:RDF xmlns:cc="http://creativecommons.org/ns#" xmlns:dc="http://purl.org/dc/elements/1.1/" xmlns:rdf="http://www.w3.org/1999/02/22-rdf-syntax-ns#">
   <cc:Work>
    <dc:type rdf:resource="http://purl.org/dc/dcmitype/StillImage"/>
    <dc:date>2021-08-20T18:31:21.231856</dc:date>
    <dc:format>image/svg+xml</dc:format>
    <dc:creator>
     <cc:Agent>
      <dc:title>Matplotlib v3.3.4, https://matplotlib.org/</dc:title>
     </cc:Agent>
    </dc:creator>
   </cc:Work>
  </rdf:RDF>
 </metadata>
 <defs>
  <style type="text/css">*{stroke-linecap:butt;stroke-linejoin:round;}</style>
 </defs>
 <g id="figure_1">
  <g id="patch_1">
   <path d="M -0 338.4 
L 338.4 338.4 
L 338.4 0 
L -0 0 
z
" style="fill:#ffffff;"/>
  </g>
  <g id="axes_1">
   <g id="patch_2">
    <path d="M 7.2 331.2 
L 331.2 331.2 
L 331.2 7.2 
L 7.2 7.2 
z
" style="fill:#ffffff;"/>
   </g>
   <g id="patch_3">
    <path clip-path="url(#p633422e2ce)" d="M 13.430769 324.969231 
L 13.430769 13.430769 
L 324.969231 13.430769 
L 324.969231 324.969231 
z
" style="fill:none;stroke:#000000;stroke-linejoin:miter;"/>
   </g>
   <g id="patch_4">
    <path clip-path="url(#p633422e2ce)" d="M 200.353846 146.393802 
L 200.08118 146.237294 
L 199.455077 145.884783 
L 198.824358 145.539196 
L 198.501323 145.365839 
L 197.956856 145.079153 
L 197.369847 144.777698 
L 196.882149 144.533177 
L 196.797128 144.491094 
L 196.185116 144.192898 
L 195.475632 143.857477 
L 195.032413 143.653449 
L 194.916788 143.600914 
L 194.034088 143.209148 
L 193.954463 143.17461 
L 193.136981 142.827596 
L 193.008335 142.774234 
L 192.390264 142.522538 
L 191.945161 142.346035 
L 191.646285 142.229731 
L 190.765913 141.897367 
L 190.487892 141.795549 
L 189.850625 141.567792 
L 189.47833 141.438331 
L 189.283543 141.371647 
L 188.710466 141.17961 
L 188.105762 140.983646 
L 187.781702 140.881425 
L 187.295085 140.731565 
L 186.790485 140.580747 
L 186.252529 140.425057 
L 185.876127 140.319229 
L 185.29951 140.162034 
L 184.903136 140.057411 
L 184.365245 139.919883 
L 184.115926 139.857865 
L 183.311114 139.665091 
L 182.857 139.56129 
L 182.702924 139.526882 
L 181.808885 139.335287 
L 181.603288 139.293164 
L 181.087746 139.190703 
L 180.658543 139.108844 
L 180.292811 139.041547 
L 179.72212 138.941034 
L 178.994086 138.82073 
L 178.706236 138.775603 
L 178.085621 138.682992 
L 177.855766 138.650311 
L 177.433385 138.592532 
L 177.018966 138.5387 
L 176.48918 138.473992 
L 175.92549 138.410192 
L 175.418052 138.357198 
L 175.169177 138.332741 
L 174.529281 138.274483 
L 173.949125 138.227408 
L 173.506851 138.195182 
L 173.139343 138.170809 
L 172.756683 138.147749 
L 172.274136 138.122036 
L 171.827863 138.101594 
L 171.448611 138.086742 
L 170.625497 138.062462 
L 170.200295 138.054184 
L 169.604037 138.047464 
L 169.578903 138.047306 
L 168.889827 138.046926 
L 168.194417 138.054269 
L 167.83764 138.06105 
L 167.538945 138.068299 
L 167.213337 138.077834 
L 166.627976 138.099262 
L 165.869373 138.135236 
L 165.429075 138.160369 
L 165.026556 138.186082 
L 164.60829 138.215575 
L 164.016024 138.262181 
L 163.663319 138.292637 
L 163.32824 138.323443 
L 162.992565 138.356134 
L 162.366457 138.422019 
L 161.629959 138.507723 
L 161.598496 138.511582 
L 160.912778 138.599733 
L 160.398846 138.670881 
L 159.901829 138.743843 
L 159.303002 138.837198 
L 159.177883 138.857458 
L 158.727956 138.932475 
L 158.145989 139.03454 
L 157.568747 139.141409 
L 157.081154 139.236074 
L 156.79549 139.293412 
L 156.420695 139.370751 
L 155.705045 139.525114 
L 155.448281 139.582646 
L 154.876563 139.714851 
L 154.351225 139.841348 
L 153.699415 140.005024 
L 153.265082 140.118251 
L 153.143167 140.150635 
L 152.384757 140.358045 
L 152.195925 140.411291 
L 151.475754 140.620274 
L 150.829462 140.815859 
L 150.767659 140.834964 
L 150.098679 141.046274 
L 149.419184 141.269433 
L 149.097884 141.377974 
L 148.922493 141.438048 
L 148.053142 141.74447 
L 147.740487 141.858224 
L 147.400262 141.984163 
L 146.91864 142.166309 
L 146.424047 142.358118 
L 145.873716 142.577268 
L 145.355163 142.789341 
L 145.095089 142.89776 
L 144.555946 143.126937 
L 144.031456 143.355663 
L 143.561551 143.565481 
L 143.240397 143.711569 
L 142.354872 144.125849 
L 142.330083 144.137691 
L 141.749518 144.418888 
L 141.236367 144.673654 
L 140.687584 144.952667 
L 140.241925 145.184303 
L 139.908029 145.360856 
L 139.121887 145.786863 
L 138.806455 145.961926 
L 138.496841 146.136095 
L 137.902602 146.476936 
L 137.351276 146.801 
L 136.8689 147.090834 
L 136.488398 147.323669 
L 136.153624 147.531639 
L 135.630531 147.862521 
L 134.886635 148.345756 
L 134.381742 148.682409 
L 134.083026 148.884956 
L 133.653304 149.180797 
L 133.109736 149.562692 
L 132.681472 149.869733 
L 132.410447 150.066897 
L 131.58764 150.679316 
L 131.12735 151.031216 
L 130.631284 151.418147 
L 130.302901 151.678758 
L 129.880958 152.018958 
L 129.357693 152.449367 
L 128.834014 152.8898 
L 128.670013 153.029765 
L 128.139892 153.488976 
L 127.368065 154.176604 
L 127.263029 154.271974 
L 126.792318 154.704782 
L 126.131546 155.327667 
L 125.680548 155.763423 
L 125.420786 156.018432 
L 124.930415 156.508067 
L 124.267823 157.187331 
L 124.030454 157.435778 
L 123.383212 158.127427 
L 123.074908 158.464415 
L 122.507809 159.09748 
L 121.77339 159.943883 
L 121.442502 160.335476 
L 121.126968 160.715076 
L 120.710416 161.225739 
L 120.293864 161.74765 
L 120.042146 162.068681 
L 119.385543 162.927006 
L 119.225229 163.141337 
L 118.837179 163.668225 
L 118.449129 164.206957 
L 118.27496 164.452748 
L 117.822045 165.103963 
L 117.390613 165.74119 
L 117.028692 166.289155 
L 116.666772 166.849989 
L 116.109012 167.741034 
L 115.859347 168.151001 
L 115.53708 168.690941 
L 115.214813 169.243588 
L 114.805722 169.964522 
L 114.338063 170.817151 
L 114.026736 171.402862 
L 113.681863 172.06984 
L 113.33699 172.75724 
L 113.093212 173.256304 
L 112.849433 173.766968 
L 112.683261 174.122057 
L 112.421378 174.693826 
L 112.159495 175.281364 
L 111.957387 175.74629 
L 111.755279 176.221864 
L 111.498575 176.842273 
L 111.24187 177.482385 
L 111.076457 177.90608 
L 110.911043 178.33917 
L 110.745629 178.782221 
L 110.580215 179.23586 
L 110.426321 179.668026 
L 110.272427 180.110585 
L 110.118533 180.564235 
L 109.964638 181.029756 
L 109.771894 181.630899 
L 109.57915 182.254047 
L 109.44485 182.702485 
L 109.31055 183.163665 
L 109.17625 183.638644 
L 109.04195 184.128631 
L 108.907484 184.635669 
L 108.773018 185.160808 
L 108.653273 185.645263 
L 108.533528 186.147237 
L 108.413783 186.668657 
L 108.294038 187.211838 
L 108.196693 187.671375 
L 108.099348 188.148977 
L 108.002003 188.646855 
L 107.904657 189.167717 
L 107.811348 189.691672 
L 107.718039 190.243604 
L 107.62473 190.828374 
L 107.578075 191.135012 
L 107.531421 191.452452 
L 107.491476 191.73372 
L 107.451531 192.024672 
L 107.411587 192.326361 
L 107.371642 192.640046 
L 107.331698 192.967257 
L 107.291753 193.309877 
L 107.251809 193.670276 
L 107.211864 194.051503 
L 107.17192 194.457597 
L 107.131975 194.894103 
L 107.112003 195.126121 
L 107.09203 195.369005 
L 107.072058 195.624431 
L 107.052086 195.894553 
L 107.032114 196.182225 
L 107.012141 196.491365 
L 106.992169 196.827617 
L 106.972197 197.199638 
L 106.952225 197.622003 
L 106.932252 198.123127 
L 106.91228 198.776363 
L 106.892308 200.353846 
L 106.892308 84.086109 
L 107.489795 83.745533 
L 107.859643 83.539062 
L 108.12341 83.393817 
L 108.578605 83.147046 
L 109.374246 82.727348 
L 109.931238 82.442197 
L 110.233296 82.290495 
L 110.509184 82.153723 
L 111.064097 81.883736 
L 111.494095 81.679171 
L 111.891823 81.493528 
L 112.408422 81.257465 
L 113.037112 80.977806 
L 113.604771 80.732392 
L 114.16941 80.494876 
L 114.618231 80.310714 
L 115.10401 80.115967 
L 115.340499 80.022868 
L 115.767638 79.857527 
L 116.459372 79.597378 
L 116.533859 79.569922 
L 117.090342 79.368198 
L 117.482173 79.229734 
L 118.280071 78.956811 
L 118.695582 78.819438 
L 119.088653 78.692454 
L 119.804006 78.468704 
L 120.101858 78.378317 
L 120.323202 78.312198 
L 120.965285 78.125436 
L 121.530368 77.967228 
L 121.852483 77.879605 
L 122.190374 77.789679 
L 122.982505 77.586787 
L 123.154273 77.54425 
L 123.745521 77.401777 
L 124.420845 77.246487 
L 124.642958 77.197137 
L 125.232064 77.070358 
L 125.577091 76.998869 
L 125.963976 76.921122 
L 126.70633 76.779059 
L 127.202645 76.689273 
L 127.419557 76.651333 
L 128.039547 76.547241 
L 128.293539 76.506451 
L 128.974304 76.402419 
L 129.31341 76.353466 
L 129.96568 76.264648 
L 130.317525 76.219648 
L 130.770829 76.164669 
L 131.193194 76.116472 
L 131.836171 76.048697 
L 132.472504 75.988254 
L 132.588717 75.977926 
L 133.417742 75.910606 
L 133.428268 75.909823 
L 134.15398 75.860147 
L 134.763417 75.824999 
L 135.150354 75.80579 
L 135.567566 75.78778 
L 135.933956 75.774273 
L 136.474025 75.758298 
L 136.870244 75.749559 
L 137.475449 75.741075 
L 137.847752 75.738777 
L 138.471292 75.739912 
L 138.728413 75.742197 
L 139.402099 75.753217 
L 139.932749 75.76703 
L 140.448091 75.784776 
L 140.647459 75.792787 
L 141.014025 75.809185 
L 141.872351 75.856052 
L 142.315125 75.884876 
L 142.489619 75.897106 
L 143.028651 75.937996 
L 143.73156 75.998393 
L 144.035149 76.02696 
L 144.283991 76.051493 
L 145.130248 76.142486 
L 145.471776 76.182524 
L 145.652216 76.20445 
L 146.337825 76.292638 
L 146.754482 76.350015 
L 147.259017 76.423336 
L 147.588446 76.473488 
L 148.238956 76.577826 
L 148.672172 76.651233 
L 149.269516 76.757618 
L 149.446612 76.790313 
L 150.219902 76.939294 
L 150.515519 76.998931 
L 150.897139 77.078124 
L 151.392819 77.184713 
L 151.914143 77.301381 
L 152.456426 77.427736 
L 153.09623 77.583407 
L 153.378398 77.654343 
L 153.812245 77.76615 
L 154.294922 77.894462 
L 154.975 78.082309 
L 155.256543 78.162508 
L 155.805012 78.322863 
L 156.130163 78.420512 
L 156.559024 78.552271 
L 157.299662 78.787813 
L 157.517209 78.858938 
L 158.11134 79.057707 
L 158.390895 79.153539 
L 159.187285 79.434712 
L 159.427003 79.521733 
L 160.08886 79.767791 
L 160.452978 79.906815 
L 160.928937 80.092494 
L 161.363969 80.266157 
L 161.823019 80.45354 
L 162.357163 80.676969 
L 162.856586 80.89118 
L 163.318951 81.094119 
L 163.618762 81.228109 
L 163.976362 81.390414 
L 164.663243 81.70985 
L 165.049134 81.893793 
L 165.753157 82.237817 
L 166.211285 82.467616 
L 166.715036 82.725781 
L 166.960677 82.853773 
L 167.428971 83.101649 
L 167.997518 83.409496 
L 168.584631 83.735474 
L 168.913241 83.921562 
L 169.537775 84.282539 
L 169.746834 84.40554 
L 170.180945 84.664474 
L 170.653554 84.951842 
L 171.30472 85.357291 
L 171.551534 85.513897 
L 171.962224 85.778107 
L 172.665208 86.241042 
L 173.084863 86.523951 
L 173.437244 86.765365 
L 173.89801 87.086435 
L 174.636259 87.613895 
L 175.13475 87.979353 
L 175.527749 88.272882 
L 175.7738 88.459127 
L 176.475785 89.001155 
L 176.687709 89.167951 
L 177.225533 89.597988 
L 177.731008 90.011157 
L 178.069036 90.292438 
L 178.765956 90.885299 
L 178.991304 91.080814 
L 179.688225 91.697622 
L 180.128839 92.097311 
L 180.399813 92.346963 
L 181.149982 93.053838 
L 181.773351 93.659436 
L 181.817441 93.702914 
L 182.430113 94.316156 
L 183.039997 94.943919 
L 183.227736 95.140756 
L 184.08724 96.064409 
L 184.45284 96.4689 
L 184.651872 96.692127 
L 185.073278 97.171979 
L 185.494684 97.66193 
L 185.688218 97.89043 
L 186.070751 98.348716 
L 186.59112 98.986779 
L 187.08822 99.612779 
L 187.451888 100.081408 
L 188.1039 100.945338 
L 188.768748 101.859596 
L 189.248392 102.541515 
L 189.367284 102.713589 
L 189.819422 103.379495 
L 190.256233 104.040917 
L 190.693045 104.721187 
L 191.011589 105.229829 
L 191.421264 105.900453 
L 191.840114 106.606396 
L 192.252717 107.323246 
L 192.75494 108.226743 
L 193.084267 108.839055 
L 193.413595 109.468277 
L 193.779158 110.187927 
L 194.124425 110.889644 
L 194.534933 111.754209 
L 194.740187 112.199778 
L 194.945441 112.654824 
L 195.171822 113.168322 
L 195.398204 113.694749 
L 195.568018 114.098636 
L 195.768961 114.587125 
L 195.969904 115.087763 
L 196.264018 115.844153 
L 196.558132 116.631277 
L 196.826403 117.379009 
L 197.094674 118.158448 
L 197.355508 118.95037 
L 197.570154 119.630347 
L 197.784799 120.339015 
L 197.929066 120.833212 
L 198.073333 121.34327 
L 198.217599 121.870689 
L 198.361866 122.417227 
L 198.533036 123.093375 
L 198.704206 123.803638 
L 198.789791 124.17319 
L 198.875375 124.553403 
L 198.96096 124.945205 
L 199.046545 125.349667 
L 199.146987 125.842191 
L 199.247429 126.356309 
L 199.325819 126.774455 
L 199.404209 127.20929 
L 199.482599 127.66291 
L 199.560989 128.137895 
L 199.639379 128.63748 
L 199.717769 129.165815 
L 199.796159 129.728378 
L 199.835354 130.024728 
L 199.874549 130.332654 
L 199.934461 130.829095 
L 199.964417 131.090783 
L 199.994373 131.362844 
L 200.024329 131.646601 
L 200.054285 131.943684 
L 200.084242 132.256145 
L 200.114198 132.586624 
L 200.144154 132.938616 
L 200.17411 133.316924 
L 200.189088 133.517988 
L 200.204066 133.728457 
L 200.219044 133.949781 
L 200.234022 134.183824 
L 200.249 134.433058 
L 200.263978 134.700876 
L 200.278956 134.992163 
L 200.293934 135.314417 
L 200.308912 135.680258 
L 200.32389 136.114292 
L 200.338868 136.680039 
L 200.353846 138.046154 
z
" style="fill:#808080;opacity:0.5;"/>
   </g>
   <g id="patch_5">
    <path clip-path="url(#p633422e2ce)" d="M 75.738462 138.046154 
L 75.738462 138.046154 
L 75.74299 137.294944 
L 75.747519 136.983802 
L 75.752047 136.745068 
L 75.756576 136.543816 
L 75.761105 136.36652 
L 75.765633 136.20624 
L 75.770162 136.058856 
L 75.774691 135.921682 
L 75.779219 135.792852 
L 75.783748 135.671008 
L 75.788276 135.555125 
L 75.792805 135.444407 
L 75.797334 135.338219 
L 75.801862 135.236048 
L 75.806391 135.137471 
L 75.81092 135.042134 
L 75.819977 134.860025 
L 75.829034 134.687801 
L 75.838091 134.524012 
L 75.847149 134.367531 
L 75.856206 134.217461 
L 75.865263 134.073076 
L 75.87432 133.933777 
L 75.883378 133.799064 
L 75.896936 133.605068 
L 75.910494 133.419239 
L 75.924053 133.240629 
L 75.937611 133.06846 
L 75.951169 132.902086 
L 75.964728 132.740962 
L 75.978286 132.584623 
L 75.991845 132.432669 
L 76.013507 132.198145 
L 76.035169 131.972748 
L 76.056831 131.755495 
L 76.078493 131.545572 
L 76.100155 131.342289 
L 76.121818 131.145059 
L 76.14348 130.953378 
L 76.165142 130.766807 
L 76.198937 130.485049 
L 76.232732 130.213565 
L 76.266527 129.951323 
L 76.300323 129.69745 
L 76.334118 129.451206 
L 76.367913 129.211952 
L 76.401708 128.979135 
L 76.435503 128.752271 
L 76.463815 128.566485 
L 76.492128 128.384355 
L 76.52044 128.205676 
L 76.548752 128.030264 
L 76.605594 127.687284 
L 76.662437 127.355604 
L 76.718917 127.036224 
L 76.775397 126.726133 
L 76.831877 126.424587 
L 76.888357 126.130938 
L 76.935001 125.893971 
L 76.981646 125.661713 
L 77.027003 125.440134 
L 77.07236 125.222543 
L 77.117717 125.008741 
L 77.163074 124.798544 
L 77.217503 124.550831 
L 77.271931 124.307799 
L 77.32636 124.069205 
L 77.380788 123.834823 
L 77.430234 123.625378 
L 77.491923 123.368496 
L 77.553612 123.116289 
L 77.615301 122.868522 
L 77.67699 122.624982 
L 77.740797 122.377319 
L 77.804603 122.133765 
L 77.888137 121.820819 
L 77.97167 121.514218 
L 78.015433 121.356006 
L 78.111738 121.013412 
L 78.208043 120.678108 
L 78.289722 120.399131 
L 78.371402 120.124868 
L 78.509576 119.671052 
L 78.624411 119.303021 
L 78.739247 118.942769 
L 78.882262 118.504341 
L 78.971635 118.235808 
L 79.088894 117.889517 
L 79.206153 117.549745 
L 79.305079 117.26793 
L 79.404005 116.99035 
L 79.476274 116.79015 
L 79.573993 116.522796 
L 79.7019 116.178447 
L 79.829807 115.840174 
L 79.933993 115.568938 
L 80.038178 115.301412 
L 80.089249 115.171589 
L 80.199526 114.89413 
L 80.309804 114.620475 
L 80.388835 114.426627 
L 80.526666 114.092927 
L 80.656506 113.78349 
L 80.786346 113.478635 
L 80.915886 113.178887 
L 81.011936 112.959373 
L 81.231729 112.465505 
L 81.438006 112.012212 
L 81.591111 111.681847 
L 81.703413 111.442694 
L 81.825825 111.184972 
L 81.974197 110.876608 
L 82.136577 110.544013 
L 82.363945 110.086537 
L 82.492518 109.831937 
L 82.671281 109.482682 
L 82.717635 109.392996 
L 82.863016 109.113995 
L 83.008397 108.838383 
L 83.125756 108.618302 
L 83.321003 108.256786 
L 83.461713 107.999734 
L 83.640356 107.677458 
L 83.703613 107.56441 
L 83.895477 107.22485 
L 83.980196 107.076479 
L 84.183425 106.724357 
L 84.361004 106.420955 
L 84.556166 106.091972 
L 84.704257 105.845369 
L 84.7471 105.774504 
L 84.906087 105.513373 
L 85.107984 105.185863 
L 85.217453 105.01016 
L 85.415429 104.695662 
L 85.577997 104.440483 
L 85.800553 104.095518 
L 85.935812 103.888274 
L 86.049248 103.715842 
L 86.169939 103.533738 
L 86.368536 103.237069 
L 86.593844 102.904892 
L 86.734958 102.699164 
L 86.804678 102.598169 
L 87.014735 102.296429 
L 87.171025 102.074362 
L 87.345583 101.828745 
L 87.444437 101.690759 
L 87.628481 101.435954 
L 87.743991 101.277405 
L 88.003535 100.924936 
L 88.106288 100.786815 
L 88.319087 100.503281 
L 88.458019 100.319964 
L 88.543919 100.207321 
L 88.765441 99.919263 
L 88.895022 99.752358 
L 89.008265 99.607449 
L 89.211606 99.349443 
L 89.284798 99.257255 
L 89.451705 99.048358 
L 89.652384 98.799606 
L 89.876793 98.5245 
L 89.976895 98.402808 
L 90.157498 98.18483 
L 90.284602 98.032623 
L 90.526731 97.745373 
L 90.558173 97.708328 
L 90.827562 97.393317 
L 90.93302 97.271148 
L 91.079731 97.102245 
L 91.260596 96.895696 
L 91.316554 96.832163 
L 91.553615 96.564924 
L 91.725841 96.372695 
L 91.94103 96.134746 
L 92.077646 95.984951 
L 92.10728 95.952587 
L 92.324657 95.716575 
L 92.438427 95.594019 
L 92.672114 95.344339 
L 92.815419 95.192576 
L 92.967775 95.032339 
L 93.090521 94.904067 
L 93.196669 94.793729 
L 93.442228 94.540541 
L 93.639223 94.339484 
L 93.755519 94.221638 
L 93.935211 94.040776 
L 94.048942 93.927066 
L 94.17449 93.802221 
L 94.332567 93.646031 
L 94.475321 93.505936 
L 94.746018 93.24273 
L 94.879826 93.113798 
L 95.060141 92.941263 
L 95.166585 92.840058 
L 95.243346 92.767372 
L 95.424373 92.596926 
L 95.622811 92.411643 
L 95.728886 92.313262 
L 95.964609 92.096267 
L 96.058926 92.010068 
L 96.323858 91.769825 
L 96.352506 91.744013 
L 96.605229 91.517687 
L 96.6947 91.438153 
L 96.855849 91.295675 
L 96.959754 91.204332 
L 97.167486 91.022936 
L 97.377708 90.841006 
L 97.571233 90.674968 
L 97.675081 90.586434 
L 97.7685 90.507126 
L 97.918826 90.380169 
L 98.10186 90.226682 
L 98.244775 90.107664 
L 98.366073 90.007214 
L 98.602286 89.813076 
L 98.751216 89.691667 
L 98.854482 89.607931 
L 99.014898 89.478577 
L 99.252986 89.288194 
L 99.37907 89.188144 
L 99.470869 89.115632 
L 99.740948 88.903914 
L 99.923189 88.762403 
L 99.971452 88.725108 
L 100.199053 88.55024 
L 100.364694 88.42402 
L 100.450329 88.359109 
L 100.66574 88.196849 
L 100.844713 88.063143 
L 100.930796 87.999189 
L 101.123031 87.857195 
L 101.290658 87.734306 
L 101.475663 87.59967 
L 101.504572 87.578725 
L 101.684896 87.44865 
L 101.866456 87.318666 
L 102.054697 87.184935 
L 102.270814 87.032689 
L 102.38086 86.955691 
L 102.441117 86.91368 
L 102.700999 86.733694 
L 102.87396 86.614983 
L 102.903102 86.595066 
L 103.121657 86.446463 
L 103.229068 86.373927 
L 103.489185 86.199607 
L 103.571712 86.144696 
L 103.744333 86.030449 
L 103.981801 85.874625 
L 103.997053 85.86467 
L 104.254818 85.697379 
L 104.442886 85.576458 
L 104.620557 85.463096 
L 104.648568 85.445301 
L 104.797533 85.351014 
L 105.071497 85.179146 
L 105.198683 85.100029 
L 105.368284 84.995184 
L 105.478249 84.927606 
L 105.620941 84.840382 
L 105.843608 84.70532 
L 106.019742 84.599382 
L 106.125954 84.53588 
L 106.333665 84.412521 
L 106.356625 84.398952 
L 106.650991 84.226155 
L 106.687038 84.205144 
L 106.892308 84.086109 
L 106.892308 138.046154 
z
" style="fill:#808080;opacity:0.5;"/>
   </g>
   <g id="patch_6">
    <path clip-path="url(#p633422e2ce)" d="M 75.738462 138.046154 
L 75.738462 138.046154 
L 75.744386 138.905344 
L 75.75031 139.261204 
L 75.756234 139.534245 
L 75.762158 139.764412 
L 75.768082 139.96718 
L 75.774007 140.150482 
L 75.779931 140.319034 
L 75.785855 140.475907 
L 75.791779 140.623235 
L 75.797703 140.762572 
L 75.803627 140.895089 
L 75.809552 141.021699 
L 75.815476 141.143126 
L 75.8214 141.259957 
L 75.827324 141.372677 
L 75.833248 141.48169 
L 75.845097 141.689917 
L 75.856945 141.886835 
L 75.868793 142.074103 
L 75.880642 142.253009 
L 75.89249 142.424579 
L 75.904338 142.589644 
L 75.916187 142.748889 
L 75.928035 142.902887 
L 75.947127 143.141184 
L 75.966218 143.368754 
L 75.985309 143.58692 
L 76.004401 143.796752 
L 76.029322 144.059559 
L 76.054243 144.311252 
L 76.079164 144.553122 
L 76.104085 144.786226 
L 76.129006 145.011444 
L 76.153927 145.229518 
L 76.178847 145.441079 
L 76.203768 145.646673 
L 76.241058 145.944172 
L 76.278348 146.230695 
L 76.315638 146.507357 
L 76.352928 146.775096 
L 76.397247 147.082789 
L 76.441565 147.380135 
L 76.485884 147.668093 
L 76.530203 147.947481 
L 76.581005 148.258109 
L 76.631808 148.559318 
L 76.664259 148.747158 
L 76.69671 148.931661 
L 76.761612 149.291307 
L 76.826514 149.639439 
L 76.891417 149.977064 
L 76.945816 150.252595 
L 77.000215 150.521805 
L 77.047421 150.750609 
L 77.094628 150.975191 
L 77.141834 151.195769 
L 77.189041 151.41254 
L 77.256967 151.718145 
L 77.32495 152.016978 
L 77.392933 152.309227 
L 77.460915 152.59529 
L 77.528898 152.875524 
L 77.612534 153.212767 
L 77.713522 153.60964 
L 77.81451 153.996001 
L 77.888068 154.271234 
L 77.961626 154.541547 
L 78.026776 154.777048 
L 78.091927 155.00903 
L 78.18922 155.349216 
L 78.309932 155.761468 
L 78.430645 156.163539 
L 78.502968 156.399832 
L 78.57529 156.632839 
L 78.655572 156.88779 
L 78.737922 157.145425 
L 78.820272 157.399279 
L 78.967517 157.844214 
L 79.090888 158.208623 
L 79.214259 158.56582 
L 79.353308 158.960226 
L 79.481206 159.315743 
L 79.588145 159.607918 
L 79.695083 159.895663 
L 79.867961 160.351902 
L 79.951738 160.569194 
L 80.049515 160.819787 
L 80.179096 161.147065 
L 80.308676 161.469053 
L 80.357165 161.588225 
L 80.530765 162.009222 
L 80.686098 162.378694 
L 80.84815 162.757222 
L 81.012966 163.135275 
L 81.13266 163.405624 
L 81.252353 163.672561 
L 81.312331 163.805071 
L 81.499702 164.21383 
L 81.677577 164.594828 
L 81.766504 164.782824 
L 82.00835 165.28607 
L 82.12102 165.516645 
L 82.255928 165.789608 
L 82.390836 166.059261 
L 82.45678 166.189893 
L 82.573235 166.418744 
L 82.806174 166.869636 
L 82.930057 167.105823 
L 83.163466 167.544275 
L 83.265044 167.732489 
L 83.487431 168.139247 
L 83.525992 168.209052 
L 83.65239 168.436399 
L 83.84183 168.773011 
L 83.958316 168.977599 
L 84.190442 169.380014 
L 84.315489 169.593961 
L 84.497532 169.901979 
L 84.642814 170.144936 
L 84.872114 170.523377 
L 85.02564 170.773415 
L 85.116249 170.919755 
L 85.330826 171.262757 
L 85.453174 171.456137 
L 85.535726 171.585735 
L 85.739654 171.902891 
L 85.939891 172.210257 
L 86.078621 172.420913 
L 86.227754 172.645314 
L 86.368409 172.85505 
L 86.48953 173.034196 
L 86.730082 173.386065 
L 86.896746 173.626859 
L 86.948175 173.700678 
L 87.201702 174.061293 
L 87.392298 174.328869 
L 87.479929 174.450898 
L 87.622098 174.647563 
L 87.739023 174.808105 
L 87.97184 175.124606 
L 88.071819 175.259248 
L 88.312008 175.579649 
L 88.360579 175.643922 
L 88.5133 175.844896 
L 88.744652 176.14616 
L 88.925371 176.378872 
L 89.112968 176.618058 
L 89.274307 176.821861 
L 89.353363 176.92109 
L 89.497886 177.101425 
L 89.636221 177.272763 
L 89.838805 177.521463 
L 90.020074 177.741798 
L 90.14097 177.887613 
L 90.350697 178.138446 
L 90.386365 178.18084 
L 90.559931 178.38605 
L 90.77892 178.642424 
L 90.863544 178.740746 
L 91.132915 179.050989 
L 91.306175 179.248374 
L 91.438055 179.397498 
L 91.520007 179.489683 
L 91.661983 179.648524 
L 91.818959 179.822882 
L 92.038186 180.064191 
L 92.199386 180.240021 
L 92.385114 180.440941 
L 92.437495 180.497288 
L 92.597004 180.668018 
L 92.727489 180.806733 
L 92.977978 181.070659 
L 93.143413 181.243288 
L 93.207767 181.310083 
L 93.373191 181.480874 
L 93.590443 181.703207 
L 93.791684 181.907189 
L 93.863766 181.979798 
L 94.037988 182.154314 
L 94.145945 182.261765 
L 94.393142 182.505833 
L 94.484958 182.595797 
L 94.65574 182.762152 
L 94.790977 182.892984 
L 95.054385 183.145559 
L 95.19295 183.277244 
L 95.360471 183.435371 
L 95.528218 183.592544 
L 95.620534 183.678547 
L 95.834066 183.876146 
L 95.872706 183.911706 
L 96.115801 184.134048 
L 96.28503 184.287446 
L 96.427628 184.41583 
L 96.551282 184.526516 
L 96.673139 184.635017 
L 96.944015 184.874166 
L 97.049127 184.966217 
L 97.231473 185.124922 
L 97.384925 185.257519 
L 97.449093 185.312709 
L 97.704768 185.53111 
L 97.842624 185.647884 
L 97.98218 185.765401 
L 98.090971 185.856528 
L 98.220122 185.964164 
L 98.3934 186.107652 
L 98.520434 186.212179 
L 98.801582 186.441527 
L 98.94712 186.559184 
L 99.127544 186.704044 
L 99.246033 186.798581 
L 99.430158 186.944552 
L 99.517727 187.01358 
L 99.745296 187.191783 
L 99.876039 187.293396 
L 100.046211 187.424822 
L 100.202202 187.544475 
L 100.333655 187.644701 
L 100.419346 187.709741 
L 100.704738 187.924678 
L 100.76765 187.971715 
L 101.019419 188.158722 
L 101.034171 188.169618 
L 101.310762 188.372683 
L 101.392899 188.432536 
L 101.496254 188.507558 
L 101.782878 188.713928 
L 101.913272 188.806999 
L 102.041949 188.898349 
L 102.1554 188.978485 
L 102.416117 189.16121 
L 102.554886 189.257661 
L 102.682341 189.345757 
L 102.876811 189.479274 
L 102.926516 189.513226 
L 103.069167 189.610278 
L 103.321033 189.780229 
L 103.456883 189.871156 
L 103.622102 189.981047 
L 103.779832 190.085252 
L 103.932549 190.185491 
L 104.093867 190.290682 
L 104.161988 190.334889 
L 104.440318 190.514205 
L 104.540299 190.578108 
L 104.633574 190.637484 
L 104.903015 190.807701 
L 104.999154 190.867971 
L 105.222046 191.006766 
L 105.404653 191.119508 
L 105.408581 191.121924 
L 105.688173 191.29284 
L 105.773134 191.344378 
L 105.908792 191.426286 
L 106.053257 191.512995 
L 106.196262 191.598305 
L 106.414425 191.727456 
L 106.550698 191.807523 
L 106.803956 191.955092 
L 106.892308 192.006198 
L 106.892308 138.046154 
z
" style="fill:#808080;opacity:0.5;"/>
   </g>
   <g id="patch_7">
    <path clip-path="url(#p633422e2ce)" d="M 200.353846 138.046154 
L 200.338854 139.412918 
L 200.323862 139.978934 
L 200.308869 140.413174 
L 200.293877 140.779189 
L 200.278885 141.101596 
L 200.263892 141.393021 
L 200.2489 141.660966 
L 200.233908 141.910318 
L 200.218916 142.144472 
L 200.203923 142.3659 
L 200.188931 142.576469 
L 200.173939 142.777629 
L 200.143954 143.156115 
L 200.11397 143.508274 
L 200.083985 143.838909 
L 200.054001 144.151518 
L 200.024016 144.448741 
L 199.994031 144.732631 
L 199.964047 145.004821 
L 199.934062 145.266632 
L 199.874093 145.763306 
L 199.808176 146.274224 
L 199.742259 146.754722 
L 199.676342 147.209586 
L 199.610424 147.642462 
L 199.544507 148.056202 
L 199.47859 148.45309 
L 199.412673 148.834986 
L 199.346755 149.203428 
L 199.247427 149.736009 
L 199.148098 150.244552 
L 199.04877 150.731948 
L 198.949441 151.20055 
L 198.812746 151.818219 
L 198.676051 152.40805 
L 198.539356 152.973343 
L 198.402661 153.516788 
L 198.268562 154.030835 
L 198.134463 154.527768 
L 198.000364 155.009089 
L 197.866265 155.476094 
L 197.638948 156.238114 
L 197.411631 156.966743 
L 197.200271 157.617533 
L 196.988912 158.245158 
L 196.814162 158.748079 
L 196.639412 159.237629 
L 196.344911 160.034866 
L 196.119539 160.623365 
L 195.894167 161.194716 
L 195.668795 161.750157 
L 195.443423 162.290783 
L 195.220512 162.811882 
L 194.997601 163.320275 
L 194.791629 163.779392 
L 194.585658 164.228839 
L 194.316292 164.802836 
L 194.057757 165.339904 
L 193.799222 165.864204 
L 193.473174 166.508304 
L 193.163521 167.103413 
L 192.853869 167.683341 
L 192.358029 168.582505 
L 192.125097 168.993147 
L 191.7906 169.570478 
L 191.456103 170.133937 
L 191.107795 170.706692 
L 190.759487 171.265922 
L 190.500914 171.672731 
L 189.959467 172.502742 
L 189.637175 172.983456 
L 189.156219 173.683351 
L 188.769239 174.232023 
L 188.38226 174.768422 
L 187.972106 175.324135 
L 187.465717 175.992896 
L 187.179561 176.362688 
L 186.619629 177.07007 
L 186.36591 177.383791 
L 185.66937 178.22423 
L 185.413227 178.525889 
L 184.841524 179.185452 
L 184.166161 179.941183 
L 183.911763 180.219539 
L 183.484031 180.680035 
L 182.885167 181.309434 
L 182.495263 181.709929 
L 181.90537 182.302427 
L 181.428483 182.769996 
L 181.164227 183.024818 
L 180.770769 183.398725 
L 179.9259 184.18004 
L 179.855642 184.243721 
L 179.065328 184.946856 
L 178.740018 185.229392 
L 178.141775 185.738812 
L 177.576365 186.208493 
L 177.390042 186.36082 
L 176.891974 186.762175 
L 176.407752 187.144385 
L 175.893703 187.541725 
L 175.567828 187.789219 
L 175.069334 188.161348 
L 174.446562 188.615501 
L 174.122225 188.84739 
L 173.515713 189.272698 
L 173.327109 189.402777 
L 172.608296 189.889252 
L 172.012839 190.281322 
L 171.919142 190.342131 
L 171.241878 190.774632 
L 170.869285 191.007372 
L 170.330089 191.337767 
L 169.881827 191.606759 
L 169.481551 191.842662 
L 168.737178 192.270775 
L 168.230685 192.554342 
L 168.136758 192.60625 
L 167.25269 193.084566 
L 166.991481 193.222385 
L 166.326588 193.56611 
L 166.238753 193.610764 
L 165.582073 193.939102 
L 165.266695 194.093372 
L 164.737624 194.347255 
L 164.181334 194.607632 
L 163.845855 194.761442 
L 163.347905 194.985331 
L 162.57662 195.321844 
L 162.292361 195.442756 
L 161.626481 195.719516 
L 161.583183 195.7372 
L 160.974126 195.981951 
L 160.439764 196.190584 
L 160.097417 196.32128 
L 159.720974 196.462339 
L 159.139133 196.674942 
L 158.763197 196.808835 
L 158.25365 196.986001 
L 157.724512 197.16477 
L 157.103247 197.367952 
L 156.601225 197.526889 
L 156.393 197.591445 
L 155.763502 197.781772 
L 155.477226 197.865935 
L 154.851688 198.044675 
L 154.10351 198.249226 
L 153.632136 198.372978 
L 153.553549 198.393227 
L 153.150454 198.495378 
L 152.50835 198.652205 
L 151.921476 198.789252 
L 151.531083 198.87711 
L 151.113949 198.968081 
L 150.484739 199.099656 
L 149.936959 199.208702 
L 149.479633 199.29584 
L 149.186683 199.349801 
L 148.550159 199.462067 
L 148.219506 199.517704 
L 147.691119 199.60282 
L 147.321912 199.659536 
L 146.712571 199.748194 
L 146.496774 199.778119 
L 145.961936 199.848977 
L 145.527423 199.903079 
L 144.701539 199.99738 
L 144.640481 200.003909 
L 143.837867 200.084082 
L 143.437395 200.120166 
L 143.226053 200.138159 
L 142.49521 200.194802 
L 141.913661 200.2337 
L 141.522577 200.256788 
L 141.311383 200.26823 
L 140.513361 200.30498 
L 140.145678 200.318463 
L 139.915142 200.325809 
L 139.247072 200.342272 
L 138.917083 200.347759 
L 138.402371 200.352828 
L 137.843296 200.353516 
L 137.527294 200.351686 
L 136.891682 200.34315 
L 136.264121 200.328357 
L 135.780239 200.312631 
L 135.383175 200.296913 
L 135.015294 200.280087 
L 134.709956 200.264465 
L 133.9621 200.219854 
L 133.436732 200.183113 
L 133.395205 200.180019 
L 132.585466 200.114096 
L 132.344792 200.092451 
L 131.859007 200.045894 
L 131.463107 200.005108 
L 130.781214 199.928859 
L 130.45329 199.88948 
L 129.985758 199.830282 
L 129.339034 199.742463 
L 129.111163 199.709875 
L 128.702039 199.649206 
L 127.961646 199.532341 
L 127.383134 199.434659 
L 126.940042 199.356045 
L 126.524897 199.27939 
L 126.000044 199.178304 
L 125.524302 199.082633 
L 125.098268 198.993679 
L 124.965323 198.965284 
L 124.162088 198.787254 
L 124.028057 198.756462 
L 123.225914 198.565647 
L 122.746941 198.446341 
L 122.254085 198.319358 
L 122.103741 198.279766 
L 121.440718 198.100363 
L 120.807714 197.921731 
L 120.492156 197.829979 
L 119.870242 197.643845 
L 119.529485 197.538855 
L 119.021627 197.378404 
L 118.604273 197.242959 
L 118.27802 197.134811 
L 117.532193 196.880038 
L 117.206117 196.765328 
L 116.94625 196.67245 
L 116.244058 196.414956 
L 115.706226 196.21123 
L 115.402366 196.093612 
L 115.067347 195.961808 
L 114.328894 195.66334 
L 114.082063 195.561116 
L 113.31108 195.23378 
L 113.05297 195.121449 
L 112.359551 194.812755 
L 112.230397 194.754136 
L 111.3829 194.360623 
L 111.124068 194.237344 
L 110.46213 193.915378 
L 110.258358 193.814307 
L 109.842996 193.605405 
L 109.063177 193.202618 
L 109.001667 193.170253 
L 108.12738 192.700664 
L 107.874367 192.561398 
L 107.259572 192.216578 
L 106.892308 192.006198 
L 106.892308 200.353846 
L 106.901563 201.427767 
L 106.910819 201.872544 
L 106.920075 202.213794 
L 106.92933 202.501449 
L 106.938586 202.75485 
L 106.947841 202.983916 
L 106.957097 203.194541 
L 106.966353 203.390564 
L 106.975608 203.574652 
L 106.984864 203.748748 
L 107.003375 204.072498 
L 107.021886 204.37015 
L 107.040398 204.647137 
L 107.058909 204.90723 
L 107.07742 205.153177 
L 107.095931 205.387052 
L 107.114442 205.610468 
L 107.151465 206.030801 
L 107.188487 206.421863 
L 107.214659 206.683614 
L 107.24083 206.934859 
L 107.293172 207.410272 
L 107.345514 207.855252 
L 107.397856 208.274929 
L 107.450199 208.673133 
L 107.502541 209.052814 
L 107.554883 209.4163 
L 107.607225 209.765467 
L 107.659567 210.101855 
L 107.71191 210.426744 
L 107.764252 210.741212 
L 107.816594 211.04618 
L 107.921279 211.630673 
L 108.025963 212.185402 
L 108.100955 212.566758 
L 108.175947 212.936115 
L 108.250939 213.294499 
L 108.325931 213.642798 
L 108.434962 214.132768 
L 108.543993 214.605069 
L 108.653024 215.061403 
L 108.762055 215.503214 
L 108.922908 216.131067 
L 109.083761 216.733294 
L 109.29229 217.48028 
L 109.500818 218.193583 
L 109.709347 218.877093 
L 109.917875 219.533997 
L 110.061113 219.971199 
L 110.20435 220.397843 
L 110.488661 221.215945 
L 110.657398 221.684862 
L 110.826134 222.142383 
L 110.994871 222.589212 
L 111.163608 223.025982 
L 111.344655 223.484077 
L 111.525702 223.931884 
L 111.764104 224.506825 
L 112.002507 225.066095 
L 112.223121 225.570582 
L 112.443735 226.063279 
L 112.778179 226.789176 
L 113.117979 227.50261 
L 113.457778 228.193623 
L 113.761508 228.793645 
L 114.151065 229.540543 
L 114.540621 230.263725 
L 114.811549 230.753598 
L 115.082477 231.233325 
L 115.404266 231.790568 
L 115.75659 232.385869 
L 116.172793 233.070262 
L 116.715231 233.933565 
L 117.32166 234.863067 
L 117.8833 235.692845 
L 118.383007 236.407719 
L 118.538069 236.625285 
L 118.910734 237.140233 
L 119.283399 237.644347 
L 119.451278 237.868019 
L 120.08317 238.691628 
L 120.579524 239.319187 
L 121.123561 239.988484 
L 121.362142 240.276119 
L 121.980079 241.005139 
L 122.173669 241.228933 
L 122.733882 241.864669 
L 123.484716 242.690135 
L 123.859354 243.091117 
L 124.067897 243.311288 
L 124.774337 244.041476 
L 125.098306 244.368493 
L 125.835265 245.094748 
L 126.187392 245.433376 
L 126.685759 245.903685 
L 126.961008 246.159043 
L 127.544868 246.69064 
L 128.141547 247.220166 
L 128.406645 247.451093 
L 128.782838 247.774322 
L 129.439988 248.326651 
L 129.710118 248.549258 
L 130.249107 248.985898 
L 130.734773 249.370933 
L 131.328211 249.830872 
L 131.818307 250.202192 
L 132.33741 250.587281 
L 132.935861 251.021003 
L 133.35535 251.318634 
L 133.810551 251.635767 
L 134.293916 251.965994 
L 134.590456 252.165312 
L 135.138749 252.5274 
L 135.46647 252.739889 
L 136.172792 253.18804 
L 136.705716 253.517462 
L 136.739771 253.538262 
L 137.266314 253.856073 
L 137.675988 254.098476 
L 138.156803 254.377623 
L 138.669765 254.66916 
L 139.217786 254.97358 
L 139.821677 255.300754 
L 140.169999 255.485575 
L 140.673918 255.74799 
L 141.298089 256.064993 
L 141.686454 256.257811 
L 142.080396 256.449974 
L 142.550761 256.674949 
L 143.037047 256.902484 
L 143.451255 257.092287 
L 144.092831 257.379091 
L 144.369857 257.500259 
L 144.837234 257.701071 
L 145.171175 257.841793 
L 145.640445 258.035697 
L 146.402762 258.341211 
L 146.703063 258.458376 
L 147.424593 258.732611 
L 147.838505 258.885334 
L 148.362378 259.073877 
L 148.881644 259.255569 
L 149.01941 259.302911 
L 149.457807 259.451176 
L 150.052241 259.646441 
L 150.616422 259.825681 
L 150.965209 259.933548 
L 151.692544 260.151317 
L 152.053763 260.255892 
L 152.354322 260.341108 
L 152.711728 260.440329 
L 153.317593 260.603308 
L 154.047092 260.790903 
L 154.169566 260.821479 
L 154.884563 260.99473 
L 155.267201 261.083786 
L 155.645467 261.169331 
L 156.274807 261.306187 
L 156.707894 261.39642 
L 157.246171 261.504108 
L 157.391983 261.532431 
L 157.865156 261.621863 
L 158.358451 261.711073 
L 158.872884 261.799751 
L 159.637449 261.923369 
L 160.163611 262.002789 
L 160.234337 262.013115 
L 161.003763 262.120101 
L 161.148125 262.139086 
L 161.914103 262.234087 
L 162.255234 262.2733 
L 162.655994 262.316936 
L 163.435416 262.394301 
L 163.922251 262.437611 
L 164.183258 262.459247 
L 164.695021 262.498465 
L 164.914511 262.513987 
L 165.832405 262.570466 
L 166.149273 262.586808 
L 166.671801 262.610225 
L 167.090596 262.625822 
L 167.461127 262.63727 
L 168.137036 262.652471 
L 168.577219 262.658426 
L 168.782796 262.660142 
L 169.328271 262.661406 
L 169.655516 262.659873 
L 170.36912 262.650569 
L 170.691628 262.643681 
L 171.327221 262.625216 
L 171.59534 262.615479 
L 172.146389 262.591835 
L 172.868305 262.553461 
L 173.042311 262.542954 
L 173.6493 262.502476 
L 173.831868 262.489137 
L 174.552309 262.431228 
L 175.02737 262.388436 
L 175.278436 262.364338 
L 175.814847 262.309413 
L 176.604655 262.219989 
L 176.882107 262.18615 
L 177.46635 262.110756 
L 178.033128 262.032241 
L 178.247708 262.001129 
L 178.913722 261.8997 
L 179.092564 261.871207 
L 179.782617 261.756262 
L 180.068328 261.706336 
L 180.602236 261.609356 
L 181.004743 261.533063 
L 181.513335 261.432732 
L 182.127553 261.305687 
L 182.357726 261.256414 
L 182.777584 261.164189 
L 183.562877 260.983511 
L 183.80788 260.924948 
L 184.165885 260.837487 
L 184.909149 260.648715 
L 185.393271 260.520502 
L 185.670551 260.445189 
L 186.122139 260.319584 
L 186.810229 260.121131 
L 187.044768 260.051524 
L 187.660068 259.864134 
L 188.294584 259.663587 
L 188.669595 259.541542 
L 189.211757 259.36044 
L 189.616989 259.221452 
L 190.080519 259.058637 
L 190.704208 258.833052 
L 190.764284 258.810926 
L 191.535273 258.52071 
L 191.79392 258.420733 
L 192.280382 258.229096 
L 192.975512 257.947019 
L 193.233966 257.839645 
L 193.860837 257.573525 
L 194.053614 257.490055 
L 194.663293 257.220965 
L 194.966402 257.084271 
L 195.639104 256.773898 
L 196.124369 256.543942 
L 196.56592 256.330225 
L 196.874535 256.178291 
L 197.497733 255.864987 
L 198.175858 255.514051 
L 198.338117 255.428511 
L 199.029685 255.057031 
L 199.536472 254.777619 
L 200.066973 254.478503 
L 200.353846 254.313891 
z
" style="fill:#808080;opacity:0.5;"/>
   </g>
   <g id="patch_8">
    <path clip-path="url(#p633422e2ce)" d="M 231.507692 200.353846 
L 231.500459 199.404461 
L 231.493226 199.011251 
L 231.485992 198.709558 
L 231.478759 198.45524 
L 231.471526 198.231202 
L 231.464292 198.028673 
L 231.457059 197.842446 
L 231.449826 197.669124 
L 231.442592 197.506351 
L 231.435359 197.35241 
L 231.428126 197.206004 
L 231.420892 197.066128 
L 231.413659 196.93198 
L 231.406426 196.802911 
L 231.399192 196.678386 
L 231.391959 196.557958 
L 231.384726 196.441247 
L 231.377492 196.327932 
L 231.363026 196.110407 
L 231.348559 195.903548 
L 231.334092 195.705932 
L 231.319626 195.516425 
L 231.305159 195.334108 
L 231.290692 195.158226 
L 231.276225 194.988145 
L 231.255673 194.755459 
L 231.235121 194.532139 
L 231.214569 194.317145 
L 231.194017 194.109616 
L 231.170217 193.877684 
L 231.146418 193.653861 
L 231.122619 193.437359 
L 231.09882 193.227511 
L 231.080582 193.070843 
L 231.062344 192.917521 
L 231.025868 192.620118 
L 230.989392 192.333902 
L 230.952917 192.057715 
L 230.924823 191.851217 
L 230.89673 191.649707 
L 230.868637 191.452847 
L 230.840543 191.260334 
L 230.81245 191.071898 
L 230.784356 190.887296 
L 230.756263 190.706307 
L 230.72817 190.528732 
L 230.69285 190.310044 
L 230.65753 190.096139 
L 230.62221 189.886724 
L 230.58689 189.681534 
L 230.554434 189.496499 
L 230.521977 189.314659 
L 230.457064 188.959961 
L 230.421615 188.770997 
L 230.386166 188.585173 
L 230.315267 188.222372 
L 230.243157 187.864589 
L 230.171046 187.517179 
L 230.098936 187.179322 
L 230.026826 186.8503 
L 229.958114 186.544424 
L 229.889401 186.245512 
L 229.839562 186.032813 
L 229.789724 185.823398 
L 229.688768 185.408696 
L 229.623728 185.147874 
L 229.558689 184.891725 
L 229.49365 184.64002 
L 229.42861 184.392548 
L 229.373195 184.184891 
L 229.306871 183.940052 
L 229.240546 183.699076 
L 229.174221 183.461797 
L 229.107896 183.228063 
L 229.008483 182.884046 
L 228.932403 182.625659 
L 228.856322 182.371307 
L 228.742803 181.998923 
L 228.629283 181.634635 
L 228.521268 181.295102 
L 228.391724 180.896499 
L 228.269707 180.529159 
L 228.133916 180.129057 
L 227.998124 179.737613 
L 227.907747 179.48164 
L 227.804664 179.193935 
L 227.701582 178.910586 
L 227.586274 178.598583 
L 227.403846 178.115122 
L 227.337042 177.941063 
L 227.211973 177.619301 
L 227.086903 177.302708 
L 226.91138 176.866719 
L 226.865066 176.753239 
L 226.735384 176.438828 
L 226.605702 176.129191 
L 226.467323 175.803851 
L 226.322302 175.468285 
L 226.188971 175.164449 
L 226.102197 174.969038 
L 225.914904 174.553299 
L 225.79164 174.28404 
L 225.668377 174.018111 
L 225.516084 173.694003 
L 225.418082 173.487962 
L 225.224129 173.085815 
L 225.132961 172.899294 
L 224.956311 172.542296 
L 224.702736 172.03963 
L 224.56174 171.764927 
L 224.388425 171.431774 
L 224.274204 171.214859 
L 224.080787 170.852189 
L 224.002191 170.706446 
L 223.763465 170.269351 
L 223.753833 170.251889 
L 223.462285 169.729462 
L 223.354604 169.539444 
L 223.277306 169.403991 
L 222.99481 168.915542 
L 222.898984 168.752143 
L 222.778875 168.54893 
L 222.552383 168.170438 
L 222.355844 167.846851 
L 222.261345 167.692827 
L 222.137637 167.492698 
L 221.982671 167.244358 
L 221.746418 166.87068 
L 221.644376 166.711076 
L 221.557418 166.575905 
L 221.379991 166.302457 
L 221.195235 166.021004 
L 221.060789 165.818254 
L 220.784328 165.406663 
L 220.631595 165.182274 
L 220.621192 165.167065 
L 220.454532 164.924741 
L 220.184385 164.537076 
L 220.037285 164.328592 
L 219.871507 164.095787 
L 219.80247 163.999499 
L 219.666063 163.810379 
L 219.485905 163.562865 
L 219.307234 163.319894 
L 219.112675 163.058091 
L 218.919017 162.800313 
L 218.834925 162.689237 
L 218.625864 162.415311 
L 218.493353 162.243298 
L 218.302398 161.997582 
L 218.219661 161.891899 
L 217.972045 161.578388 
L 217.877686 161.459998 
L 217.80339 161.367195 
L 217.598888 161.113609 
L 217.36385 160.825476 
L 217.318602 160.770407 
L 217.165236 160.584704 
L 216.879375 160.24243 
L 216.802709 160.151475 
L 216.593268 159.904783 
L 216.507629 159.804657 
L 216.39399 159.672452 
L 216.231625 159.484851 
L 215.973474 159.189654 
L 215.882418 159.086421 
L 215.668255 158.845416 
L 215.489542 158.646211 
L 215.307914 158.445508 
L 215.252862 158.38502 
L 215.097437 158.215102 
L 214.873023 157.971969 
L 214.834108 157.930071 
L 214.646793 157.729469 
L 214.472194 157.54407 
L 214.363074 157.428966 
L 214.20082 157.258897 
L 213.96136 157.010229 
L 213.797509 156.841656 
L 213.689718 156.731449 
L 213.564141 156.603743 
L 213.393005 156.430881 
L 213.252719 156.290183 
L 212.973118 156.012413 
L 212.920994 155.961018 
L 212.76075 155.803767 
L 212.536382 155.585481 
L 212.367631 155.422742 
L 212.178972 155.242246 
L 212.050608 155.120298 
L 211.950262 155.025448 
L 211.756664 154.84364 
L 211.701624 154.792234 
L 211.441222 154.550706 
L 211.36287 154.478571 
L 211.106676 154.244422 
L 211.034868 154.17926 
L 210.852426 154.01462 
L 210.613192 153.800694 
L 210.521557 153.719337 
L 210.395463 153.607912 
L 210.231006 153.463495 
L 210.112772 153.360297 
L 209.960013 153.22774 
L 209.737868 153.036515 
L 209.528039 152.857554 
L 209.470912 152.809107 
L 209.224015 152.601079 
L 209.090054 152.489119 
L 208.958501 152.37979 
L 208.818916 152.26445 
L 208.586372 152.073807 
L 208.520382 152.020048 
L 208.303032 151.844039 
L 208.173813 151.740161 
L 208.049768 151.640972 
L 207.808655 151.449651 
L 207.745548 151.399896 
L 207.599628 151.285352 
L 207.397894 151.128148 
L 207.2928 151.046777 
L 207.03263 150.84687 
L 206.879518 150.730238 
L 206.722072 150.611081 
L 206.675528 150.576007 
L 206.452385 150.408793 
L 206.24681 150.256117 
L 206.119371 150.162128 
L 205.948883 150.037168 
L 205.826211 149.947803 
L 205.604663 149.787563 
L 205.589804 149.776868 
L 205.298626 149.568634 
L 205.26702 149.546183 
L 205.039028 149.385105 
L 204.81648 149.229343 
L 204.705759 149.152385 
L 204.512505 149.018911 
L 204.348228 148.906294 
L 204.204239 148.808218 
L 204.05439 148.706774 
L 204.03094 148.690957 
L 203.86791 148.581416 
L 203.597988 148.401686 
L 203.508597 148.34261 
L 203.318497 148.21771 
L 203.105555 148.078978 
L 203.039836 148.036411 
L 202.872906 147.928815 
L 202.636687 147.777839 
L 202.508589 147.696592 
L 202.319631 147.577539 
L 202.186722 147.494366 
L 202.134988 147.462116 
L 201.843244 147.281564 
L 201.747511 147.2228 
L 201.623612 147.147099 
L 201.413645 147.019715 
L 201.29415 146.947723 
L 201.059159 146.807208 
L 200.910288 146.718912 
L 200.896279 146.710632 
L 200.679333 146.583035 
L 200.492279 146.473963 
L 200.353846 146.393802 
L 200.353846 254.313891 
L 200.484188 254.238427 
L 200.662722 254.134379 
L 200.750392 254.082994 
L 200.943099 253.969368 
L 201.200602 253.816076 
L 201.362379 253.718909 
L 201.477276 253.649493 
L 201.624947 253.55978 
L 201.733118 253.493706 
L 201.892072 253.396065 
L 202.009041 253.323794 
L 202.261992 253.166281 
L 202.373395 253.096375 
L 202.515748 253.006571 
L 202.688964 252.89657 
L 202.784773 252.835382 
L 202.958044 252.724095 
L 203.173353 252.584678 
L 203.356578 252.465042 
L 203.440219 252.410123 
L 203.617777 252.292898 
L 203.756762 252.200531 
L 203.919196 252.091897 
L 204.181496 251.914911 
L 204.273452 251.852404 
L 204.463791 251.722256 
L 204.598395 251.629593 
L 204.755312 251.520909 
L 204.908222 251.414314 
L 205.006278 251.3456 
L 205.18187 251.221848 
L 205.306666 251.133342 
L 205.464512 251.020736 
L 205.6614 250.879234 
L 205.871408 250.727017 
L 205.963464 250.659872 
L 206.068023 250.583294 
L 206.272168 250.432812 
L 206.48453 250.274908 
L 206.646375 250.153621 
L 206.768803 250.061326 
L 206.946799 249.926295 
L 207.129776 249.786432 
L 207.220636 249.716583 
L 207.428701 249.555624 
L 207.622642 249.404321 
L 207.725445 249.323619 
L 207.922707 249.167784 
L 208.00245 249.10442 
L 208.144425 248.991078 
L 208.317633 248.85188 
L 208.419169 248.769807 
L 208.635578 248.593702 
L 208.767195 248.485806 
L 209.006044 248.288462 
L 209.102981 248.207797 
L 209.213933 248.115061 
L 209.367962 247.985593 
L 209.56282 247.820585 
L 209.804149 247.614312 
L 209.839601 247.58383 
L 210.057122 247.395786 
L 210.254725 247.223432 
L 210.431915 247.067631 
L 210.606164 246.91325 
L 210.635488 246.887155 
L 210.792153 246.747179 
L 210.99149 246.567696 
L 211.162586 246.412394 
L 211.288461 246.297398 
L 211.511902 246.091702 
L 211.667528 245.94724 
L 211.802763 245.820901 
L 211.881941 245.746582 
L 212.137342 245.505072 
L 212.307359 245.342779 
L 212.339478 245.311982 
L 212.565915 245.093604 
L 212.774113 244.890855 
L 212.826304 244.839733 
L 212.998939 244.669774 
L 213.218549 244.451645 
L 213.307854 244.362319 
L 213.499885 244.169011 
L 213.703794 243.961883 
L 213.748039 243.916683 
L 214.036608 243.619619 
L 214.162482 243.488794 
L 214.213693 243.43535 
L 214.41592 243.223056 
L 214.576628 243.052912 
L 214.729448 242.889924 
L 214.977965 242.62235 
L 215.047563 242.546849 
L 215.257731 242.31733 
L 215.371737 242.191858 
L 215.503671 242.045795 
L 215.70552 241.820521 
L 215.792867 241.722351 
L 215.950002 241.544692 
L 216.126789 241.343174 
L 216.317759 241.123508 
L 216.545636 240.858652 
L 216.662843 240.721247 
L 216.727935 240.644589 
L 216.904124 240.435826 
L 217.06676 240.241461 
L 217.198573 240.082747 
L 217.349222 239.900034 
L 217.561035 239.640724 
L 217.667829 239.508898 
L 217.911974 239.204742 
L 218.072642 239.002435 
L 218.134638 238.923909 
L 218.326653 238.67904 
L 218.579031 238.353318 
L 218.714269 238.17693 
L 218.827285 238.028521 
L 219.028354 237.762183 
L 219.112757 237.649492 
L 219.337832 237.346363 
L 219.478365 237.15513 
L 219.573832 237.024347 
L 219.740288 236.794589 
L 219.888787 236.587744 
L 220.039482 236.376 
L 220.308108 235.993849 
L 220.4139 235.84166 
L 220.539071 235.660337 
L 220.664813 235.476795 
L 220.863666 235.183635 
L 220.944678 235.063165 
L 221.229195 234.635203 
L 221.364014 234.429705 
L 221.54474 234.151431 
L 221.582161 234.093404 
L 221.735777 233.853706 
L 222.025684 233.394664 
L 222.15934 233.180007 
L 222.310684 232.934572 
L 222.440151 232.722578 
L 222.652077 232.371403 
L 222.719664 232.258299 
L 222.936384 231.891911 
L 223.028134 231.735059 
L 223.267336 231.321114 
L 223.438285 231.020717 
L 223.535682 230.847815 
L 223.654251 230.635574 
L 223.760179 230.4443 
L 223.930975 230.132511 
L 224.076913 229.862709 
L 224.248155 229.542014 
L 224.455499 229.147567 
L 224.583193 228.901183 
L 224.775032 228.525895 
L 224.977417 228.123042 
L 225.136073 227.802056 
L 225.185364 227.701379 
L 225.322178 227.4195 
L 225.458992 227.133956 
L 225.527584 226.989383 
L 225.709896 226.600374 
L 225.915762 226.152507 
L 226.018732 225.924927 
L 226.2373 225.433618 
L 226.405226 225.04819 
L 226.556376 224.695059 
L 226.685146 224.389372 
L 226.742886 224.250808 
L 226.941889 223.765868 
L 227.063277 223.464228 
L 227.203969 223.108804 
L 227.344662 222.746855 
L 227.464026 222.43442 
L 227.626797 222.000045 
L 227.698343 221.805942 
L 227.829446 221.444996 
L 227.960549 221.076935 
L 228.011109 220.93301 
L 228.166866 220.482364 
L 228.256343 220.218308 
L 228.345821 219.950285 
L 228.487096 219.518626 
L 228.602879 219.156678 
L 228.718662 218.786897 
L 228.810943 218.486249 
L 228.903223 218.180053 
L 228.979151 217.923753 
L 229.107113 217.48237 
L 229.171094 217.256995 
L 229.235075 217.028327 
L 229.265868 216.91706 
L 229.333233 216.670794 
L 229.400598 216.420472 
L 229.496557 216.056514 
L 229.592515 215.683317 
L 229.657609 215.424548 
L 229.722703 215.16097 
L 229.787797 214.892324 
L 229.852892 214.618322 
L 229.900302 214.415207 
L 229.947712 214.208953 
L 230.027292 213.855294 
L 230.106871 213.491637 
L 230.176662 213.163813 
L 230.246452 212.826985 
L 230.313521 212.494115 
L 230.380589 212.151476 
L 230.418817 211.951476 
L 230.457044 211.747838 
L 230.495272 211.540362 
L 230.5335 211.328832 
L 230.566159 211.144723 
L 230.598819 210.957317 
L 230.631478 210.766436 
L 230.664137 210.571886 
L 230.696797 210.373452 
L 230.729456 210.170899 
L 230.762116 209.963968 
L 230.794775 209.752368 
L 230.839957 209.451329 
L 230.885139 209.13975 
L 230.922544 208.873007 
L 230.959948 208.597467 
L 230.997353 208.312218 
L 231.034758 208.016174 
L 231.057484 207.830489 
L 231.08021 207.640002 
L 231.102937 207.444327 
L 231.125663 207.243022 
L 231.147491 207.043906 
L 231.169318 206.838605 
L 231.191146 206.626513 
L 231.212973 206.406915 
L 231.234801 206.178963 
L 231.256628 205.941635 
L 231.278456 205.693679 
L 231.28937 205.565245 
L 231.300284 205.433542 
L 231.313247 205.272496 
L 231.32621 205.105961 
L 231.339173 204.933337 
L 231.352136 204.753908 
L 231.365099 204.566804 
L 231.378062 204.370953 
L 231.391025 204.165007 
L 231.397506 204.057725 
L 231.403988 203.94723 
L 231.410469 203.833216 
L 231.416951 203.715324 
L 231.423432 203.593131 
L 231.429914 203.466132 
L 231.436396 203.33371 
L 231.442877 203.195109 
L 231.449359 203.049375 
L 231.45584 202.895281 
L 231.462322 202.731203 
L 231.468803 202.554908 
L 231.475285 202.363184 
L 231.481766 202.151099 
L 231.488248 201.910353 
L 231.494729 201.624762 
L 231.501211 201.252543 
z
" style="fill:#808080;opacity:0.5;"/>
   </g>
   <g id="matplotlib.axis_1"/>
   <g id="matplotlib.axis_2"/>
   <g id="line2d_1">
    <path clip-path="url(#p633422e2ce)" d="M 106.892308 84.086109 
L 110.233296 82.290495 
L 113.604771 80.732392 
L 117.090342 79.368198 
L 120.323202 78.312198 
L 123.745521 77.401777 
L 127.419557 76.651333 
L 131.193194 76.116472 
L 135.150354 75.80579 
L 138.728413 75.742197 
L 142.489619 75.897106 
L 146.337825 76.292638 
L 150.219902 76.939294 
L 153.812245 77.76615 
L 157.517209 78.858938 
L 160.928937 80.092494 
L 163.976362 81.390414 
L 167.428971 83.101649 
L 170.653554 84.951842 
L 173.89801 87.086435 
L 177.225533 89.597988 
L 180.128839 92.097311 
L 182.430113 94.316156 
L 185.073278 97.171979 
L 187.451888 100.081408 
L 189.819422 103.379495 
L 191.840114 106.606396 
L 193.779158 110.187927 
L 195.398204 113.694749 
L 196.558132 116.631277 
L 197.784799 120.339015 
L 198.789791 124.17319 
L 199.482599 127.66291 
L 199.994373 131.362844 
L 200.278956 134.992163 
L 200.353846 138.046154 
L 200.353846 138.046154 
" style="fill:none;stroke:#0000ff;stroke-linecap:square;"/>
   </g>
   <g id="line2d_2">
    <path clip-path="url(#p633422e2ce)" d="M 75.738462 138.046154 
L 75.87432 133.933777 
L 76.232732 130.213565 
L 76.831877 126.424587 
L 77.615301 122.868522 
L 78.624411 119.303021 
L 79.829807 115.840174 
L 81.231729 112.465505 
L 82.863016 109.113995 
L 84.7471 105.774504 
L 86.804678 102.598169 
L 89.008265 99.607449 
L 91.316554 96.832163 
L 93.935211 94.040776 
L 96.6947 91.438153 
L 99.470869 89.115632 
L 102.441117 86.91368 
L 105.620941 84.840382 
L 106.892308 84.086109 
L 106.892308 84.086109 
" style="fill:none;stroke:#0000ff;stroke-linecap:square;"/>
   </g>
   <g id="line2d_3">
    <path clip-path="url(#p633422e2ce)" d="M 75.738462 138.046154 
L 75.868793 142.074103 
L 76.203768 145.646673 
L 76.761612 149.291307 
L 77.528898 152.875524 
L 78.502968 156.399832 
L 79.695083 159.895663 
L 81.13266 163.405624 
L 82.806174 166.869636 
L 84.642814 170.144936 
L 86.730082 173.386065 
L 88.925371 176.378872 
L 91.306175 179.248374 
L 93.863766 181.979798 
L 96.551282 184.526516 
L 99.430158 186.944552 
L 102.416117 189.16121 
L 105.408581 191.121924 
L 106.892308 192.006198 
L 106.892308 192.006198 
" style="fill:none;stroke:#0000ff;stroke-linecap:square;"/>
   </g>
   <g id="line2d_4">
    <path clip-path="url(#p633422e2ce)" d="M 106.892308 200.353846 
L 107.040398 204.647137 
L 107.397856 208.274929 
L 107.921279 211.630673 
L 108.762055 215.503214 
L 109.709347 218.877093 
L 110.994871 222.589212 
L 112.443735 226.063279 
L 114.151065 229.540543 
L 116.172793 233.070262 
L 118.383007 236.407719 
L 120.579524 239.319187 
L 122.733882 241.864669 
L 125.098306 244.368493 
L 128.141547 247.220166 
L 130.734773 249.370933 
L 133.810551 251.635767 
L 136.739771 253.538262 
L 140.169999 255.485575 
L 143.451255 257.092287 
L 146.703063 258.458376 
L 150.052241 259.646441 
L 153.317593 260.603308 
L 157.246171 261.504108 
L 160.234337 262.013115 
L 164.183258 262.459247 
L 168.137036 262.652471 
L 171.59534 262.615479 
L 175.278436 262.364338 
L 179.092564 261.871207 
L 182.777584 261.164189 
L 186.122139 260.319584 
L 189.616989 259.221452 
L 193.233966 257.839645 
L 196.874535 256.178291 
L 200.353846 254.313891 
L 200.353846 254.313891 
" style="fill:none;stroke:#228b22;stroke-linecap:square;"/>
   </g>
   <g id="line2d_5">
    <path clip-path="url(#p633422e2ce)" d="M 200.353846 254.313891 
L 203.440219 252.410123 
L 206.48453 250.274908 
L 209.367962 247.985593 
L 212.137342 245.505072 
L 214.729448 242.889924 
L 217.198573 240.082747 
L 219.478365 237.15513 
L 221.582161 234.093404 
L 223.535682 230.847815 
L 225.185364 227.701379 
L 226.742886 224.250808 
L 228.011109 220.93301 
L 229.171094 217.256995 
L 230.027292 213.855294 
L 230.729456 210.170899 
L 231.212973 206.406915 
L 231.462322 202.731203 
L 231.507692 200.353846 
L 231.507692 200.353846 
" style="fill:none;stroke:#228b22;stroke-linecap:square;"/>
   </g>
   <g id="text_1">
    <!-- $\Omega$ -->
    <g transform="translate(16.011538 22.420913)scale(0.1 -0.1)">
     <defs>
      <path d="M 7.71875 0 
L 4.390625 16.609375 
L 7.328125 16.609375 
Q 7.859375 13.71875 8.296875 11.5 
Q 8.734375 9.28125 9.4375 8.375 
Q 10.15625 7.46875 11.71875 7.171875 
Q 13.28125 6.890625 16.890625 6.890625 
L 23 6.890625 
Q 21.53125 12.546875 15.6875 21.65625 
Q 9.859375 30.765625 7.734375 34.890625 
Q 5.609375 39.015625 5.609375 45.515625 
Q 5.609375 53.078125 10.09375 58.765625 
Q 14.59375 64.453125 21.703125 67.484375 
Q 28.8125 70.515625 36.078125 70.515625 
Q 43.3125 70.515625 50.40625 67.484375 
Q 57.515625 64.453125 62 58.71875 
Q 66.5 52.984375 66.5 45.515625 
Q 66.5 40.4375 64.640625 35.9375 
Q 62.796875 31.453125 59.90625 26.953125 
Q 57.03125 22.46875 53.6875 16.9375 
Q 50.34375 11.421875 49.125 6.890625 
L 55.171875 6.890625 
Q 58.84375 6.890625 60.453125 7.171875 
Q 62.0625 7.46875 62.734375 8.375 
Q 63.421875 9.28125 63.84375 11.5 
Q 64.265625 13.71875 64.796875 16.609375 
L 67.671875 16.609375 
L 64.40625 0 
L 46.6875 0 
Q 45.703125 0 45.703125 1.3125 
Q 45.703125 6.390625 46.9375 11.265625 
Q 48.1875 16.15625 50.625 23.09375 
Q 53.078125 30.03125 54.4375 35.328125 
Q 55.8125 40.625 55.8125 45.515625 
Q 55.8125 51.515625 53.46875 56.640625 
Q 51.125 61.765625 46.625 64.84375 
Q 42.140625 67.921875 36.078125 67.921875 
Q 26.953125 67.921875 21.625 61.40625 
Q 16.3125 54.890625 16.3125 45.515625 
Q 16.359375 40.375 17.53125 35.828125 
Q 18.703125 31.296875 21.3125 23.71875 
Q 23.921875 16.15625 25.171875 11.265625 
Q 26.421875 6.390625 26.421875 1.3125 
Q 26.421875 0 25.390625 0 
z
" id="Cmr10-173"/>
     </defs>
     <use transform="translate(0 0.484375)" xlink:href="#Cmr10-173"/>
    </g>
   </g>
   <g id="text_2">
    <!-- $A$ -->
    <g style="fill:#0000ff;" transform="translate(103.142308 78.497837)scale(0.1 -0.1)">
     <defs>
      <path d="M 4.5 0 
Q 3.515625 0 3.515625 1.3125 
Q 3.90625 3.515625 4.78125 3.515625 
Q 8.84375 3.515625 11.796875 5.125 
Q 14.75 6.734375 16.890625 10.109375 
Q 17.09375 10.296875 17.09375 10.296875 
L 52.78125 70.515625 
Q 53.5625 71.578125 54.6875 71.578125 
L 56 71.578125 
Q 56.296875 71.578125 56.59375 71.453125 
Q 56.890625 71.34375 57.109375 71.0625 
Q 57.328125 70.796875 57.328125 70.515625 
L 63.375 5.90625 
Q 63.375 5.46875 63.8125 4.59375 
Q 64.796875 3.515625 71.296875 3.515625 
Q 72.3125 3.515625 72.3125 2.203125 
Q 71.96875 0.875 71.75 0.4375 
Q 71.53125 0 70.609375 0 
L 45.609375 0 
Q 44.671875 0 44.671875 1.3125 
Q 45.21875 3.515625 46 3.515625 
Q 53.90625 3.515625 54.390625 6.203125 
L 52.875 22.703125 
L 28.21875 22.703125 
L 20.21875 9.28125 
Q 19.484375 8.203125 19.484375 6.78125 
Q 19.484375 5.03125 21.171875 4.265625 
Q 22.859375 3.515625 24.90625 3.515625 
Q 25.875 3.515625 25.875 2.203125 
Q 25.53125 0.78125 25.328125 0.390625 
Q 25.140625 0 24.21875 0 
z
M 30.171875 26.21875 
L 52.484375 26.21875 
L 49.515625 58.59375 
z
" id="Cmmi10-65"/>
     </defs>
     <use transform="translate(0 0.421875)" xlink:href="#Cmmi10-65"/>
    </g>
   </g>
   <g id="text_3">
    <!-- $B$ -->
    <g style="fill:#ff0000;" transform="translate(227.707692 78.497837)scale(0.1 -0.1)">
     <defs>
      <path d="M 4.984375 0 
Q 4 0 4 1.3125 
Q 4.046875 1.5625 4.1875 2.140625 
Q 4.34375 2.734375 4.578125 3.125 
Q 4.828125 3.515625 5.328125 3.515625 
Q 8.15625 3.515625 10.25 3.65625 
Q 12.359375 3.8125 13.8125 4.203125 
Q 14.984375 4.640625 15.71875 6.890625 
L 29.390625 61.8125 
Q 29.59375 62.796875 29.59375 63.1875 
Q 29.59375 64.265625 28.421875 64.40625 
Q 26.515625 64.796875 21.1875 64.796875 
Q 20.21875 64.796875 20.21875 66.109375 
Q 20.265625 66.359375 20.40625 66.96875 
Q 20.5625 67.578125 20.828125 67.9375 
Q 21.09375 68.3125 21.484375 68.3125 
L 57.328125 68.3125 
Q 60.59375 68.3125 63.796875 67.5 
Q 67 66.703125 69.703125 64.9375 
Q 72.40625 63.1875 74 60.5625 
Q 75.59375 57.953125 75.59375 54.5 
Q 75.59375 50.734375 73.65625 47.5 
Q 71.734375 44.28125 68.671875 41.890625 
Q 65.625 39.5 62.078125 37.953125 
Q 58.546875 36.421875 54.6875 35.6875 
Q 57.421875 35.6875 60.21875 34.609375 
Q 63.03125 33.546875 65.234375 31.6875 
Q 67.4375 29.828125 68.78125 27.234375 
Q 70.125 24.65625 70.125 21.6875 
Q 70.125 15.671875 65.921875 10.6875 
Q 61.71875 5.71875 55.34375 2.859375 
Q 48.96875 0 43.015625 0 
z
M 23.390625 4.296875 
Q 23.390625 3.515625 26.8125 3.515625 
L 41.109375 3.515625 
Q 46 3.515625 50.484375 6.21875 
Q 54.984375 8.9375 57.6875 13.421875 
Q 60.40625 17.921875 60.40625 22.796875 
Q 60.40625 25.78125 59.15625 28.4375 
Q 57.90625 31.109375 55.5625 32.640625 
Q 53.21875 34.1875 50.203125 34.1875 
L 30.71875 34.1875 
L 23.78125 6.5 
Q 23.390625 5.125 23.390625 4.296875 
z
M 31.390625 36.8125 
L 46.578125 36.8125 
Q 51.375 36.8125 55.890625 39.25 
Q 60.40625 41.703125 63.25 45.890625 
Q 66.109375 50.09375 66.109375 54.78125 
Q 66.109375 59.125 63.390625 61.953125 
Q 60.6875 64.796875 56.390625 64.796875 
L 42.671875 64.796875 
Q 39.984375 64.796875 39.0625 64.296875 
Q 38.140625 63.8125 37.5 61.375 
z
" id="Cmmi10-66"/>
     </defs>
     <use transform="translate(0 0.6875)" xlink:href="#Cmmi10-66"/>
    </g>
   </g>
   <g id="text_4">
    <!-- $C$ -->
    <g style="fill:#228b22;" transform="translate(150.023077 271.651683)scale(0.1 -0.1)">
     <defs>
      <path d="M 14.59375 21.578125 
Q 14.59375 15.578125 16.90625 11.015625 
Q 19.234375 6.453125 23.65625 3.875 
Q 28.078125 1.3125 34.078125 1.3125 
Q 40.375 1.3125 46.203125 4.53125 
Q 52.046875 7.765625 56.171875 13.15625 
Q 60.296875 18.5625 61.8125 24.609375 
Q 62.015625 25.203125 62.59375 25.203125 
L 63.8125 25.203125 
Q 64.203125 25.203125 64.453125 24.921875 
Q 64.703125 24.65625 64.703125 24.3125 
Q 64.703125 24.21875 64.59375 24.03125 
Q 62.890625 17.09375 57.984375 11.015625 
Q 53.078125 4.9375 46.234375 1.359375 
Q 39.40625 -2.203125 32.171875 -2.203125 
Q 24.359375 -2.203125 18.15625 1.3125 
Q 11.96875 4.828125 8.515625 11.078125 
Q 5.078125 17.328125 5.078125 25.203125 
Q 5.078125 33.59375 8.828125 41.8125 
Q 12.59375 50.046875 18.9375 56.46875 
Q 25.296875 62.890625 33.421875 66.703125 
Q 41.546875 70.515625 49.90625 70.515625 
Q 53.21875 70.515625 56.25 69.5 
Q 59.28125 68.5 61.859375 66.453125 
Q 64.453125 64.40625 66.109375 61.71875 
L 74.03125 70.3125 
Q 74.03125 70.515625 74.515625 70.515625 
L 75.09375 70.515625 
Q 75.484375 70.515625 75.734375 70.171875 
Q 75.984375 69.828125 75.984375 69.484375 
L 69.1875 42.484375 
Q 69.1875 41.796875 68.40625 41.796875 
L 66.609375 41.796875 
Q 65.828125 41.796875 65.828125 42.921875 
Q 66.21875 45.125 66.21875 48.1875 
Q 66.21875 53.078125 64.546875 57.390625 
Q 62.890625 61.71875 59.390625 64.359375 
Q 55.90625 67 50.875 67 
Q 42.71875 67 35.9375 62.890625 
Q 29.15625 58.796875 24.4375 52.125 
Q 19.734375 45.453125 17.15625 37.328125 
Q 14.59375 29.203125 14.59375 21.578125 
z
" id="Cmmi10-67"/>
     </defs>
     <use transform="translate(0 0.484375)" xlink:href="#Cmmi10-67"/>
    </g>
   </g>
   <g id="patch_9">
    <path clip-path="url(#p633422e2ce)" d="M 138.046154 200.353846 
C 154.570347 200.353846 170.419977 193.788715 182.104346 182.104346 
C 193.788715 170.419977 200.353846 154.570347 200.353846 138.046154 
C 200.353846 121.521961 193.788715 105.672331 182.104346 93.987962 
C 170.419977 82.303593 154.570347 75.738462 138.046154 75.738462 
C 121.521961 75.738462 105.672331 82.303593 93.987962 93.987962 
C 82.303593 105.672331 75.738462 121.521961 75.738462 138.046154 
C 75.738462 154.570347 82.303593 170.419977 93.987962 182.104346 
C 105.672331 193.788715 121.521961 200.353846 138.046154 200.353846 
z
" style="fill:none;stroke:#0000ff;stroke-linejoin:miter;"/>
   </g>
   <g id="patch_10">
    <path clip-path="url(#p633422e2ce)" d="M 200.353846 200.353846 
C 216.878039 200.353846 232.727669 193.788715 244.412038 182.104346 
C 256.096407 170.419977 262.661538 154.570347 262.661538 138.046154 
C 262.661538 121.521961 256.096407 105.672331 244.412038 93.987962 
C 232.727669 82.303593 216.878039 75.738462 200.353846 75.738462 
C 183.829653 75.738462 167.980023 82.303593 156.295654 93.987962 
C 144.611285 105.672331 138.046154 121.521961 138.046154 138.046154 
C 138.046154 154.570347 144.611285 170.419977 156.295654 182.104346 
C 167.980023 193.788715 183.829653 200.353846 200.353846 200.353846 
z
" style="fill:none;stroke:#ff0000;stroke-linejoin:miter;"/>
   </g>
   <g id="patch_11">
    <path clip-path="url(#p633422e2ce)" d="M 169.2 262.661538 
C 185.724193 262.661538 201.573823 256.096407 213.258192 244.412038 
C 224.942561 232.727669 231.507692 216.878039 231.507692 200.353846 
C 231.507692 183.829653 224.942561 167.980023 213.258192 156.295654 
C 201.573823 144.611285 185.724193 138.046154 169.2 138.046154 
C 152.675807 138.046154 136.826177 144.611285 125.141808 156.295654 
C 113.457439 167.980023 106.892308 183.829653 106.892308 200.353846 
C 106.892308 216.878039 113.457439 232.727669 125.141808 244.412038 
C 136.826177 256.096407 152.675807 262.661538 169.2 262.661538 
z
" style="fill:none;stroke:#228b22;stroke-linejoin:miter;"/>
   </g>
  </g>
 </g>
 <defs>
  <clipPath id="p633422e2ce">
   <rect height="324" width="324" x="7.2" y="7.2"/>
  </clipPath>
 </defs>
</svg>
