<?xml version="1.0" encoding="utf-8" standalone="no"?>
<!DOCTYPE svg PUBLIC "-//W3C//DTD SVG 1.1//EN"
  "http://www.w3.org/Graphics/SVG/1.1/DTD/svg11.dtd">
<svg xmlns:xlink="http://www.w3.org/1999/xlink" width="338.4pt" height="338.4pt" viewBox="0 0 338.4 338.4" xmlns="http://www.w3.org/2000/svg" version="1.1">
 <metadata>
  <rdf:RDF xmlns:dc="http://purl.org/dc/elements/1.1/" xmlns:cc="http://creativecommons.org/ns#" xmlns:rdf="http://www.w3.org/1999/02/22-rdf-syntax-ns#">
   <cc:Work>
    <dc:type rdf:resource="http://purl.org/dc/dcmitype/StillImage"/>
    <dc:date>2025-08-21T01:25:25.302666</dc:date>
    <dc:format>image/svg+xml</dc:format>
    <dc:creator>
     <cc:Agent>
      <dc:title>Matplotlib v3.8.0, https://matplotlib.org/</dc:title>
     </cc:Agent>
    </dc:creator>
   </cc:Work>
  </rdf:RDF>
 </metadata>
 <defs>
  <style type="text/css">*{stroke-linejoin: round; stroke-linecap: butt}</style>
 </defs>
 <g id="figure_1">
  <g id="patch_1">
   <path d="M -0 338.4 
L 338.4 338.4 
L 338.4 0 
L -0 0 
z
" style="fill: #ffffff"/>
  </g>
  <g id="axes_1">
   <g id="patch_2">
    <path d="M 7.2 331.2 
L 331.2 331.2 
L 331.2 7.2 
L 7.2 7.2 
z
" style="fill: #ffffff"/>
   </g>
   <g id="patch_3">
    <path d="M 13.430769 324.969231 
L 13.430769 13.430769 
L 324.969231 13.430769 
L 324.969231 324.969231 
L 13.430769 324.969231 
z
" clip-path="url(#p246f45a859)" style="fill: none; stroke: #000000; stroke-linejoin: miter"/>
   </g>
   <g id="patch_4">
    <path d="M 200.353846 146.393802 
L 200.004153 146.193412 
L 199.548907 145.937007 
L 199.149642 145.716245 
L 198.363005 145.292356 
L 198.082916 145.144918 
L 197.495537 144.841585 
L 197.000108 144.59183 
L 196.625862 144.406812 
L 195.914134 144.063496 
L 195.486873 143.862707 
L 195.166689 143.714817 
L 194.536782 143.430248 
L 194.237809 143.298113 
L 193.777409 143.098283 
L 193.305573 142.898038 
L 192.824685 142.69864 
L 192.403705 142.52793 
L 192.1221 142.415725 
L 191.323072 142.105943 
L 191.016554 141.990446 
L 190.687753 141.868592 
L 189.915802 141.590728 
L 189.401184 141.411835 
L 188.994014 141.273854 
L 188.577225 141.135845 
L 187.957424 140.936613 
L 187.58198 140.819391 
L 187.198492 140.702335 
L 186.506143 140.497803 
L 186.316064 140.443172 
L 185.703302 140.27149 
L 185.407323 140.190974 
L 184.826539 140.037515 
L 184.158109 139.868282 
L 184.088012 139.85099 
L 183.361252 139.676771 
L 182.998545 139.593261 
L 182.291176 139.436939 
L 181.910268 139.356325 
L 181.733403 139.319738 
L 181.272257 139.226854 
L 180.791355 139.133841 
L 180.144622 139.014921 
L 179.595857 138.919534 
L 179.257386 138.863217 
L 178.767959 138.785163 
L 178.225415 138.703295 
L 177.709699 138.629997 
L 177.4385 138.593214 
L 176.837923 138.516069 
L 176.415509 138.465358 
L 175.889095 138.406251 
L 175.518597 138.367365 
L 174.902701 138.307672 
L 174.487251 138.27089 
L 174.014297 138.232424 
L 173.752998 138.212727 
L 173.143699 138.171085 
L 172.598827 138.138924 
L 172.345319 138.125593 
L 171.614666 138.09296 
L 171.412637 138.085453 
L 170.774749 138.066057 
L 170.160925 138.053564 
L 169.705278 138.048203 
L 169.532299 138.04704 
L 168.751673 138.047767 
L 168.302208 138.052622 
L 168.062015 138.056547 
L 167.476105 138.070006 
L 167.167891 138.0793 
L 166.551001 138.10249 
L 165.945771 138.131193 
L 165.420976 138.16086 
L 165.230674 138.172716 
L 164.625158 138.214331 
L 164.342334 138.2358 
L 163.708632 138.288611 
L 163.449036 138.312127 
L 162.80534 138.375166 
L 162.418162 138.416336 
L 161.71673 138.497164 
L 161.436512 138.531708 
L 160.699253 138.628764 
L 160.244499 138.693101 
L 159.873778 138.748083 
L 159.566935 138.795317 
L 159.169747 138.858785 
L 158.446513 138.981124 
L 157.953804 139.069496 
L 157.48872 139.156669 
L 157.059492 139.240373 
L 156.618178 139.329701 
L 156.375999 139.380134 
L 155.719654 139.521874 
L 155.107303 139.660812 
L 154.959716 139.69527 
L 154.42803 139.822553 
L 153.645287 140.018952 
L 153.49788 140.057147 
L 153.039698 140.178327 
L 152.371764 140.361688 
L 152.213259 140.406376 
L 151.312978 140.668815 
L 150.822846 140.817901 
L 150.69483 140.857567 
L 150.287666 140.985739 
L 149.489073 141.246081 
L 149.200269 141.343175 
L 148.882668 141.45177 
L 148.049411 141.745817 
L 147.768852 141.847826 
L 147.207222 142.056623 
L 146.887809 142.178124 
L 146.285046 142.412899 
L 146.01461 142.520584 
L 145.399727 142.770902 
L 144.713628 143.05929 
L 144.52531 143.14014 
L 144.127518 143.313342 
L 143.34274 143.664777 
L 143.218401 143.721655 
L 142.727425 143.949491 
L 142.088576 144.253764 
L 141.68118 144.452477 
L 141.362225 144.610624 
L 140.897454 144.845158 
L 140.208192 145.202023 
L 139.687229 145.479036 
L 139.503754 145.578108 
L 138.886995 145.917 
L 138.54017 146.111581 
L 138.099525 146.363023 
L 137.559408 146.677767 
L 136.876651 147.086129 
L 136.276566 147.454924 
L 135.839395 147.729531 
L 135.606459 147.877923 
L 135.219403 148.127726 
L 134.412315 148.661821 
L 133.948924 148.976709 
L 133.722453 149.132833 
L 133.371844 149.377462 
L 132.856157 149.743831 
L 132.221759 150.205484 
L 131.790474 150.526385 
L 131.13717 151.023637 
L 130.653081 151.400976 
L 130.332216 151.655346 
L 129.779481 152.101684 
L 129.62185 152.230893 
L 129.030577 152.723331 
L 128.499658 153.176196 
L 128.089994 153.53274 
L 127.553472 154.009319 
L 127.14341 154.381117 
L 126.469482 155.006836 
L 126.005134 155.448923 
L 125.799111 155.648015 
L 125.422609 156.016632 
L 124.574574 156.870288 
L 124.377387 157.073575 
L 123.845158 157.631641 
L 123.374365 158.137028 
L 122.809696 158.758315 
L 122.339581 159.288658 
L 122.123632 159.536397 
L 121.420973 160.361184 
L 120.940869 160.941859 
L 120.558084 161.415272 
L 119.830381 162.342148 
L 119.542545 162.718947 
L 119.017516 163.421924 
L 118.861013 163.635528 
L 118.187121 164.577671 
L 117.721624 165.250779 
L 117.140486 166.118549 
L 116.548875 167.03557 
L 116.104984 167.747591 
L 116.043576 167.847798 
L 115.676536 168.455769 
L 115.309496 169.079862 
L 115.066305 169.502727 
L 114.771491 170.025873 
L 114.476677 170.561121 
L 114.184827 171.10356 
L 113.892977 171.659218 
L 113.564481 172.30144 
L 113.235985 172.962652 
L 113.005613 173.438435 
L 112.775241 173.924789 
L 112.68639 174.115316 
L 112.325593 174.906836 
L 111.964795 175.729065 
L 111.774636 176.175839 
L 111.584476 176.63255 
L 111.345012 177.222722 
L 111.105548 177.830898 
L 110.869834 178.448589 
L 110.634121 179.086823 
L 110.417497 179.693115 
L 110.200873 180.320087 
L 110.022509 180.853254 
L 109.844145 181.403094 
L 109.708954 181.831861 
L 109.573762 182.271803 
L 109.438571 182.723755 
L 109.303379 183.188667 
L 109.179997 183.625196 
L 109.056614 184.07436 
L 108.933231 184.537237 
L 108.809849 185.015067 
L 108.684626 185.516796 
L 108.559404 186.037191 
L 108.434181 186.578368 
L 108.308959 187.14288 
L 108.173639 187.782775 
L 108.10598 188.115823 
L 108.03832 188.458577 
L 107.97066 188.811902 
L 107.903001 189.176799 
L 107.835341 189.554442 
L 107.767681 189.946218 
L 107.678691 190.485863 
L 107.589701 191.057631 
L 107.545206 191.357461 
L 107.500711 191.667863 
L 107.456216 191.990013 
L 107.411721 192.325325 
L 107.346795 192.841888 
L 107.314331 193.114196 
L 107.281868 193.397306 
L 107.249405 193.692596 
L 107.216941 194.001764 
L 107.184478 194.326945 
L 107.152015 194.670887 
L 107.119551 195.037231 
L 107.087088 195.430975 
L 107.070856 195.640248 
L 107.054624 195.859314 
L 107.038393 196.08968 
L 107.022161 196.33329 
L 107.005929 196.592715 
L 106.989698 196.871488 
L 106.973466 197.174696 
L 106.957234 197.510142 
L 106.941003 197.890966 
L 106.924771 198.342782 
L 106.908539 198.931716 
L 106.892308 200.353846 
L 106.892308 192.006198 
L 107.411492 192.302637 
L 107.914919 192.583822 
L 108.517503 192.912421 
L 108.848061 193.089045 
L 109.307046 193.330077 
L 109.794032 193.580523 
L 110.034961 193.702435 
L 110.686865 194.025774 
L 110.913209 194.13583 
L 111.797137 194.554893 
L 112.16109 194.722533 
L 112.569141 194.907127 
L 112.849005 195.031698 
L 113.392072 195.268744 
L 113.783809 195.435937 
L 114.479969 195.725296 
L 114.95904 195.918718 
L 115.282543 196.046728 
L 115.590293 196.166571 
L 116.432771 196.485098 
L 116.909627 196.659256 
L 117.00589 196.69388 
L 117.658953 196.924083 
L 118.244556 197.123605 
L 118.446405 197.190878 
L 118.904992 197.340879 
L 119.763404 197.611157 
L 120.218365 197.748905 
L 120.292405 197.770964 
L 121.037544 197.987423 
L 121.459285 198.105494 
L 121.866365 198.216437 
L 122.505645 198.384708 
L 122.69419 198.432955 
L 123.327407 198.59041 
L 123.978801 198.745067 
L 124.1726 198.789656 
L 124.824815 198.934944 
L 125.381128 199.053085 
L 125.805141 199.139575 
L 126.252713 199.22755 
L 126.601151 199.293688 
L 127.227604 199.407441 
L 127.504018 199.455533 
L 128.055325 199.547632 
L 128.430262 199.607369 
L 129.143878 199.714606 
L 129.273303 199.733151 
L 129.774627 199.802371 
L 130.565387 199.903139 
L 131.003307 199.954528 
L 131.282557 199.985659 
L 131.778293 200.037786 
L 132.122121 200.071587 
L 132.744287 200.127864 
L 133.389572 200.179597 
L 133.645202 200.198227 
L 134.048615 200.225477 
L 134.422881 200.248408 
L 134.853372 200.27199 
L 135.349282 200.295454 
L 135.855161 200.315312 
L 136.667673 200.338596 
L 136.787291 200.341128 
L 137.359099 200.350058 
L 137.935826 200.353748 
L 138.250696 200.35351 
L 138.797937 200.349311 
L 139.221669 200.342756 
L 139.687827 200.332215 
L 140.089127 200.320344 
L 140.61103 200.301033 
L 141.35557 200.265896 
L 141.631657 200.250596 
L 142.121251 200.220442 
L 142.592491 200.187761 
L 143.207578 200.139698 
L 143.365921 200.126333 
L 143.835464 200.084307 
L 144.610991 200.00704 
L 144.977932 199.967063 
L 145.22057 199.939419 
L 145.745429 199.876322 
L 146.154752 199.823975 
L 146.771003 199.739958 
L 147.298062 199.663122 
L 147.913452 199.567572 
L 148.072556 199.541843 
L 148.559034 199.460549 
L 149.384014 199.313612 
L 149.859641 199.223683 
L 149.953628 199.205459 
L 150.683128 199.058902 
L 151.00953 198.990386 
L 151.502843 198.883363 
L 152.033699 198.763508 
L 152.614794 198.626706 
L 152.697605 198.606731 
L 153.450854 198.419523 
L 153.654766 198.367126 
L 154.340811 198.185431 
L 154.998692 198.003305 
L 155.478511 197.865561 
L 155.568051 197.839395 
L 156.404756 197.587822 
L 156.686646 197.500175 
L 156.978556 197.407864 
L 157.557118 197.220226 
L 158.280432 196.976812 
L 158.727565 196.821385 
L 159.252558 196.63401 
L 159.667396 196.482191 
L 159.98453 196.363871 
L 160.389352 196.209974 
L 160.889497 196.015371 
L 161.416045 195.805107 
L 161.680255 195.6975 
L 162.380805 195.405314 
L 162.591525 195.315459 
L 163.47788 194.927397 
L 163.928597 194.72373 
L 164.406745 194.502932 
L 164.61183 194.40672 
L 164.944324 194.248796 
L 165.830046 193.816252 
L 165.966614 193.748007 
L 166.397165 193.530103 
L 167.11804 193.155808 
L 167.494502 192.955564 
L 168.151923 192.597883 
L 168.545371 192.37889 
L 169.107697 192.059384 
L 169.399627 191.89045 
L 169.752058 191.683679 
L 170.146347 191.448645 
L 170.665753 191.132972 
L 171.31658 190.727529 
L 171.723579 190.468282 
L 172.172429 190.177199 
L 172.482153 189.973127 
L 173.01753 189.614083 
L 173.608585 189.208269 
L 174.121958 188.84758 
L 174.648194 188.469751 
L 175.179346 188.079888 
L 175.338837 187.961125 
L 176.139588 187.352733 
L 176.212259 187.296504 
L 176.861972 186.786084 
L 177.395806 186.356126 
L 177.897002 185.943528 
L 178.177145 185.709054 
L 178.684628 185.277107 
L 179.205973 184.823475 
L 179.505752 184.557983 
L 180.233423 183.898993 
L 180.630786 183.530191 
L 181.054976 183.129296 
L 181.699016 182.50598 
L 181.9102 182.297639 
L 182.391301 181.815509 
L 182.989447 181.201095 
L 183.230028 180.949138 
L 183.735364 180.41058 
L 184.527085 179.54039 
L 184.927916 179.086974 
L 185.425087 178.512006 
L 185.906573 177.941376 
L 186.432439 177.301929 
L 186.918667 176.694905 
L 187.030749 176.552751 
L 187.404331 176.072709 
L 187.777913 175.582812 
L 188.24603 174.954431 
L 188.616234 174.445543 
L 189.098209 173.766403 
L 189.678647 172.922136 
L 190.230474 172.090907 
L 190.489781 171.69009 
L 190.76735 171.253443 
L 191.065292 170.775644 
L 191.363234 170.288013 
L 191.666373 169.781318 
L 191.962431 169.275684 
L 192.25849 168.758874 
L 192.762751 167.851229 
L 193.08005 167.261198 
L 193.392381 166.665092 
L 193.704713 166.05282 
L 193.940411 165.579416 
L 194.176109 165.095675 
L 194.53863 164.330153 
L 194.901151 163.536501 
L 195.097917 163.093006 
L 195.409955 162.369864 
L 195.721992 161.620423 
L 195.935187 161.091943 
L 196.184785 160.454815 
L 196.434383 159.79617 
L 196.618208 159.296164 
L 196.802034 158.782477 
L 196.985859 158.254064 
L 197.169685 157.70974 
L 197.413103 156.962122 
L 197.651111 156.198222 
L 197.770115 155.802757 
L 197.889119 155.397465 
L 198.075878 154.739886 
L 198.262638 154.05314 
L 198.449397 153.333298 
L 198.542776 152.959476 
L 198.636156 152.57544 
L 198.798714 151.87999 
L 198.879992 151.518073 
L 198.961271 151.145658 
L 199.060552 150.675158 
L 199.159833 150.185626 
L 199.259113 149.674658 
L 199.358394 149.139293 
L 199.430796 148.731388 
L 199.503198 148.30677 
L 199.5756 147.86327 
L 199.648002 147.398203 
L 199.720404 146.908173 
L 199.792806 146.388783 
L 199.829007 146.11632 
L 199.865208 145.834162 
L 199.901409 145.541214 
L 199.93761 145.236159 
L 199.98964 144.773197 
L 200.015654 144.529173 
L 200.041669 144.275489 
L 200.067684 144.010912 
L 200.093699 143.733923 
L 200.119713 143.44261 
L 200.145728 143.134513 
L 200.171743 142.806376 
L 200.197758 142.453724 
L 200.223772 142.070117 
L 200.23678 141.86382 
L 200.249787 141.645672 
L 200.262794 141.41337 
L 200.275802 141.163753 
L 200.288809 140.892268 
L 200.301817 140.591929 
L 200.314824 140.250975 
L 200.327831 139.846477 
L 200.340839 139.319241 
L 200.353846 138.046154 
z
" clip-path="url(#p246f45a859)" style="fill: #808080; opacity: 0.5"/>
   </g>
   <g id="patch_5">
    <path d="M 231.507692 192.006198 
L 231.255196 192.151192 
L 230.432275 192.612963 
L 229.999841 192.849105 
L 229.722104 192.998442 
L 229.259799 193.243023 
L 228.479475 193.644693 
L 228.122827 193.823678 
L 227.536989 194.11152 
L 227.354352 194.199704 
L 226.850243 194.439322 
L 226.439855 194.630327 
L 226.00085 194.830656 
L 225.484895 195.060879 
L 225.02086 195.26317 
L 224.32376 195.55869 
L 224.033185 195.678935 
L 223.409972 195.931071 
L 222.904018 196.130044 
L 222.452361 196.303378 
L 222.205024 196.3966 
L 221.620714 196.61209 
L 221.206983 196.760677 
L 220.651197 196.955118 
L 220.355957 197.056018 
L 219.796662 197.242652 
L 219.101453 197.466485 
L 218.80229 197.560047 
L 218.128736 197.764675 
L 217.784596 197.866029 
L 217.580492 197.925125 
L 216.966354 198.098407 
L 216.50682 198.223641 
L 215.996575 198.358288 
L 215.46222 198.49436 
L 214.855446 198.642788 
L 214.794377 198.657371 
L 214.349294 198.761687 
L 213.552905 198.939777 
L 213.086907 199.038921 
L 212.738853 199.110547 
L 212.392339 199.179804 
L 211.993677 199.256961 
L 211.147482 199.411828 
L 211.024989 199.433247 
L 210.511108 199.520364 
L 209.990706 199.60409 
L 209.489353 199.680487 
L 209.170827 199.726859 
L 208.471326 199.822808 
L 208.206142 199.857075 
L 207.767605 199.911206 
L 207.298052 199.96567 
L 206.554512 200.044543 
L 206.042154 200.093649 
L 205.779945 200.117129 
L 205.276314 200.159098 
L 204.824549 200.193248 
L 204.483137 200.216866 
L 203.939849 200.250568 
L 203.286756 200.28478 
L 202.837687 200.304318 
L 202.339212 200.322207 
L 202.015374 200.331689 
L 201.328812 200.346218 
L 200.822494 200.352084 
L 200.626332 200.35325 
L 199.85835 200.351876 
L 199.543533 200.348577 
L 199.084674 200.340919 
L 198.863047 200.336009 
L 198.140995 200.314539 
L 197.541306 200.290335 
L 197.173814 200.272643 
L 196.810171 200.252993 
L 196.188365 200.214452 
L 196.045242 200.204697 
L 195.148094 200.135997 
L 195.002706 200.123636 
L 194.249467 200.054098 
L 194.081166 200.037298 
L 193.691758 199.996659 
L 192.901666 199.90659 
L 192.475102 199.853709 
L 191.943749 199.783653 
L 191.627684 199.739773 
L 191.077872 199.659503 
L 190.724424 199.605254 
L 190.108122 199.505682 
L 189.759729 199.446587 
L 189.087654 199.326831 
L 188.636975 199.24226 
L 188.235251 199.163976 
L 187.633768 199.04163 
L 187.230561 198.956152 
L 187.107864 198.929587 
L 186.539873 198.803233 
L 186.180797 198.720475 
L 185.663569 198.597324 
L 184.995507 198.431334 
L 184.751593 198.368772 
L 184.194071 198.221815 
L 183.678504 198.08099 
L 182.931104 197.868362 
L 182.683178 197.795597 
L 182.140774 197.632499 
L 181.946899 197.572894 
L 181.457461 197.419339 
L 180.745293 197.187959 
L 180.209022 197.007451 
L 179.744375 196.846649 
L 179.336634 196.702145 
L 179.031664 196.591974 
L 178.33047 196.331825 
L 178.007174 196.20864 
L 177.540484 196.027177 
L 177.148094 195.871249 
L 176.482038 195.599479 
L 176.285782 195.517684 
L 175.696701 195.267424 
L 175.383415 195.131407 
L 174.562623 194.765298 
L 174.274363 194.633335 
L 173.938915 194.477527 
L 173.229739 194.140105 
L 172.66247 193.862246 
L 172.373071 193.717733 
L 171.885679 193.470084 
L 171.158285 193.090388 
L 170.914036 192.960142 
L 170.43952 192.703099 
L 169.812517 192.35523 
L 169.588124 192.228428 
L 169.148881 191.976653 
L 168.790898 191.767926 
L 168.044147 191.322151 
L 167.56393 191.027942 
L 167.253499 190.834557 
L 166.755335 190.518895 
L 166.131098 190.113918 
L 165.718154 189.840143 
L 165.10525 189.424992 
L 164.902219 189.28511 
L 164.383677 188.92243 
L 164.074436 188.702377 
L 163.587776 188.350275 
L 163.13633 188.017195 
L 162.399226 187.459667 
L 161.900577 187.072622 
L 161.378813 186.658861 
L 161.136927 186.463938 
L 160.401199 185.858647 
L 160.12928 185.630109 
L 159.675644 185.242895 
L 159.188215 184.81836 
L 158.715745 184.398252 
L 158.330053 184.048864 
L 157.765267 183.526495 
L 157.149906 182.942346 
L 156.897995 182.698562 
L 156.149773 181.957979 
L 155.740619 181.542228 
L 155.553513 181.349488 
L 155.022378 180.79316 
L 154.412493 180.137015 
L 154.03147 179.717319 
L 153.484811 179.101508 
L 152.97672 178.514122 
L 152.441519 177.879023 
L 151.937258 177.264549 
L 151.477195 176.689672 
L 150.997234 176.07474 
L 150.810071 175.83058 
L 150.473689 175.385388 
L 150.09499 174.874076 
L 149.71629 174.351614 
L 149.117514 173.501574 
L 148.738245 172.947131 
L 148.196797 172.132672 
L 147.704521 171.367274 
L 147.308075 170.732461 
L 146.907132 170.072663 
L 146.592904 169.542339 
L 146.278676 168.99974 
L 146.114681 168.711467 
L 145.698962 167.964244 
L 145.305215 167.233423 
L 144.911467 166.478374 
L 144.660808 165.984192 
L 144.323379 165.301158 
L 143.98595 164.596272 
L 143.639084 163.847012 
L 143.277001 163.035798 
L 143.061312 162.537254 
L 142.845622 162.026409 
L 142.503652 161.189265 
L 142.296274 160.663996 
L 142.088895 160.124288 
L 141.881517 159.569053 
L 141.674138 158.997058 
L 141.483522 158.455305 
L 141.292906 157.896945 
L 141.12732 157.397308 
L 140.961734 156.882968 
L 140.806033 156.384813 
L 140.650331 155.871384 
L 140.49463 155.341318 
L 140.338928 154.793038 
L 140.208721 154.319211 
L 140.078513 153.830093 
L 139.948306 153.324217 
L 139.818098 152.799857 
L 139.69883 152.301595 
L 139.579563 151.784239 
L 139.460295 151.245546 
L 139.341027 150.682785 
L 139.267237 150.321117 
L 139.193447 149.948007 
L 139.118655 149.557014 
L 139.043863 149.151761 
L 138.969071 148.730626 
L 138.894279 148.291649 
L 138.819488 147.832431 
L 138.744696 147.349975 
L 138.669904 146.840457 
L 138.595112 146.298866 
L 138.526492 145.767993 
L 138.492182 145.488133 
L 138.457872 145.197164 
L 138.423562 144.89367 
L 138.389253 144.575906 
L 138.354943 144.241676 
L 138.320633 143.888154 
L 138.286323 143.511598 
L 138.252013 143.10687 
L 138.234858 142.891755 
L 138.217703 142.666572 
L 138.200548 142.429769 
L 138.183393 142.179351 
L 138.166238 141.912672 
L 138.149083 141.626101 
L 138.131929 141.314408 
L 138.114774 140.969571 
L 138.097619 140.578082 
L 138.080464 140.113607 
L 138.063309 139.508164 
L 138.046154 138.046154 
L 138.046154 146.393802 
L 138.714338 146.013503 
L 139.132272 145.78114 
L 139.571172 145.541612 
L 139.963633 145.331275 
L 140.552307 145.022497 
L 140.871399 144.858451 
L 141.280234 144.651645 
L 141.837374 144.375857 
L 142.198687 144.200684 
L 142.719632 143.953149 
L 143.034878 143.806212 
L 143.762949 143.474984 
L 144.358707 143.212279 
L 144.715985 143.058283 
L 145.255548 142.830705 
L 145.490167 142.733604 
L 146.260733 142.42252 
L 146.527135 142.317739 
L 147.188818 142.063569 
L 147.297654 142.022587 
L 148.101389 141.727085 
L 148.191814 141.694622 
L 148.919299 141.439148 
L 149.336818 141.297072 
L 149.591414 141.212052 
L 150.338067 140.969707 
L 150.610773 140.883777 
L 151.325032 140.665204 
L 151.524476 140.605839 
L 152.049906 140.452905 
L 152.421348 140.347802 
L 153.227362 140.128242 
L 153.448248 140.070094 
L 154.028262 139.921513 
L 154.702897 139.756136 
L 155.162692 139.647977 
L 155.340673 139.607097 
L 156.081822 139.442748 
L 156.443019 139.366077 
L 156.950529 139.26212 
L 157.150528 139.222359 
L 157.918906 139.07591 
L 158.169062 139.030385 
L 158.807695 138.918933 
L 159.25202 138.845422 
L 159.847015 138.75214 
L 159.913485 138.742085 
L 160.453126 138.66316 
L 161.174928 138.56512 
L 161.375968 138.539341 
L 161.891282 138.476296 
L 162.462654 138.41148 
L 162.926064 138.362829 
L 163.283121 138.32773 
L 163.978315 138.265341 
L 164.308085 138.238488 
L 165.037637 138.185339 
L 165.16694 138.176817 
L 165.634081 138.148278 
L 166.393061 138.109412 
L 166.474417 138.105796 
L 167.014491 138.084495 
L 167.856215 138.060646 
L 168.103142 138.055809 
L 168.774074 138.04761 
L 169.227396 138.04616 
L 169.333517 138.046297 
L 170.126027 138.053036 
L 170.654419 138.063131 
L 171.073338 138.074322 
L 171.556401 138.090728 
L 171.738123 138.097871 
L 172.350821 138.125871 
L 172.836498 138.152364 
L 173.301771 138.181312 
L 173.536542 138.197246 
L 174.160935 138.243963 
L 174.84129 138.302058 
L 175.29521 138.345001 
L 175.438296 138.359232 
L 175.985799 138.41677 
L 176.513919 138.476911 
L 177.212837 138.563532 
L 177.293113 138.573995 
L 178.111074 138.686665 
L 178.275034 138.71058 
L 178.978416 138.818238 
L 179.211238 138.855687 
L 179.815156 138.957047 
L 180.53829 139.086467 
L 180.726372 139.121573 
L 181.121283 139.197231 
L 181.808935 139.335298 
L 182.027556 139.380882 
L 182.503081 139.482863 
L 182.946845 139.581543 
L 183.52211 139.714538 
L 184.011843 139.832298 
L 184.309367 139.905889 
L 185.050405 140.095957 
L 185.619509 140.248537 
L 185.994503 140.352236 
L 186.521837 140.502343 
L 187.025542 140.650424 
L 187.535562 140.805079 
L 188.035151 140.961207 
L 188.165728 141.002775 
L 188.9825 141.269997 
L 189.075979 141.301378 
L 189.522318 141.45349 
L 190.310065 141.731208 
L 190.712281 141.877609 
L 191.246099 142.076766 
L 191.565132 142.198456 
L 191.991945 142.364401 
L 192.387459 142.521413 
L 192.79712 142.687353 
L 193.469052 142.966899 
L 193.852258 143.130471 
L 194.535731 143.429781 
L 194.983637 143.631253 
L 195.111557 143.689574 
L 195.860214 144.037938 
L 196.504127 144.3473 
L 196.971797 144.577724 
L 197.281281 144.732895 
L 197.577927 144.883658 
L 197.967771 145.084832 
L 198.772937 145.511436 
L 199.233193 145.762127 
L 199.455688 145.885122 
L 200.178542 146.292969 
L 200.670701 146.577982 
L 200.804546 146.656535 
L 201.25146 146.922091 
L 202.14629 147.469156 
L 202.538918 147.715789 
L 202.941838 147.973154 
L 203.528912 148.356016 
L 203.792992 148.531328 
L 204.351636 148.908623 
L 204.726652 149.16688 
L 205.029096 149.378123 
L 205.514827 149.723007 
L 206.247536 150.256654 
L 206.627566 150.539934 
L 207.153721 150.939642 
L 207.569495 151.261786 
L 208.031924 151.626747 
L 208.300335 151.841865 
L 209.1719 152.557447 
L 209.452959 152.793907 
L 209.71832 153.019775 
L 210.260754 153.489542 
L 211.003644 154.150991 
L 211.53076 154.633443 
L 211.722722 154.811924 
L 212.114025 155.180458 
L 212.520308 155.569927 
L 213.249315 156.286779 
L 213.594868 156.634923 
L 213.969946 157.019097 
L 214.45261 157.523368 
L 215.293832 158.43002 
L 215.386498 158.53213 
L 216.137977 159.377331 
L 216.487858 159.781602 
L 217.068469 160.468283 
L 217.418181 160.891769 
L 218.090495 161.727844 
L 218.245344 161.924654 
L 218.660124 162.459985 
L 219.344261 163.370044 
L 219.684175 163.835405 
L 220.180303 164.531266 
L 220.490784 164.977243 
L 220.836565 165.483892 
L 221.182346 166.001492 
L 221.51851 166.515672 
L 221.854674 167.041178 
L 222.12902 167.47882 
L 222.563023 168.188084 
L 222.908717 168.768687 
L 223.25441 169.364021 
L 223.602323 169.978926 
L 223.882422 170.486118 
L 224.248158 171.165683 
L 224.613893 171.866147 
L 224.920396 172.47041 
L 225.251295 173.141701 
L 225.582194 173.834104 
L 225.792169 174.285188 
L 226.002144 174.745937 
L 226.283094 175.37848 
L 226.564044 176.030709 
L 226.697573 176.348063 
L 227.022654 177.142012 
L 227.347735 177.968819 
L 227.663993 178.808312 
L 227.867577 179.368997 
L 228.071161 179.94711 
L 228.218348 180.376782 
L 228.365535 180.81701 
L 228.512722 181.268525 
L 228.659909 181.732147 
L 228.790142 182.153201 
L 228.920375 182.585184 
L 229.050608 183.028913 
L 229.18084 183.485316 
L 229.341858 184.068718 
L 229.502876 184.675466 
L 229.663895 185.308382 
L 229.824913 185.970923 
L 229.870253 186.163393 
L 229.952834 186.521214 
L 230.035415 186.889047 
L 230.117996 187.267735 
L 230.200577 187.658251 
L 230.283158 188.061721 
L 230.365739 188.479466 
L 230.44832 188.91305 
L 230.530901 189.364347 
L 230.632529 189.947461 
L 230.683344 190.252016 
L 230.734158 190.566306 
L 230.784972 190.891303 
L 230.835786 191.228148 
L 230.886601 191.578207 
L 230.937415 191.94313 
L 231.008699 192.484082 
L 231.044342 192.769263 
L 231.079984 193.065768 
L 231.115626 193.375041 
L 231.151269 193.698862 
L 231.186911 194.039469 
L 231.222554 194.39974 
L 231.258196 194.783492 
L 231.293838 195.195961 
L 231.311659 195.415194 
L 231.329481 195.644689 
L 231.347302 195.886027 
L 231.365123 196.141244 
L 231.382944 196.413036 
L 231.400765 196.705104 
L 231.418586 197.022777 
L 231.436408 197.374234 
L 231.454229 197.773242 
L 231.47205 198.246641 
L 231.489871 198.86372 
L 231.507692 200.353846 
z
" clip-path="url(#p246f45a859)" style="fill: #808080; opacity: 0.5"/>
   </g>
   <g id="matplotlib.axis_1"/>
   <g id="matplotlib.axis_2"/>
   <g id="line2d_1">
    <path d="M 106.892308 192.006198 
L 110.034961 193.702435 
L 113.392072 195.268744 
L 117.00589 196.69388 
L 120.292405 197.770964 
L 124.1726 198.789656 
L 128.055325 199.547632 
L 131.778293 200.037786 
L 135.349282 200.295454 
L 139.221669 200.342756 
L 142.592491 200.187761 
L 146.154752 199.823975 
L 149.953628 199.205459 
L 153.654766 198.367126 
L 157.557118 197.220226 
L 161.416045 195.805107 
L 164.944324 194.248796 
L 168.545371 192.37889 
L 171.723579 190.468282 
L 174.648194 188.469751 
L 177.395806 186.356126 
L 180.233423 183.898993 
L 182.989447 181.201095 
L 185.425087 178.512006 
L 187.777913 175.582812 
L 189.678647 172.922136 
L 191.666373 169.781318 
L 193.392381 166.665092 
L 195.097917 163.093006 
L 196.618208 159.296164 
L 197.770115 155.802757 
L 198.636156 152.57544 
L 199.430796 148.731388 
L 199.93761 145.236159 
L 200.262794 141.41337 
L 200.353846 138.046154 
L 200.353846 138.046154 
" clip-path="url(#p246f45a859)" style="fill: none; stroke: #0000ff; stroke-linecap: square"/>
   </g>
   <g id="line2d_2">
    <path d="M 138.046154 146.393802 
L 141.280234 144.651645 
L 144.715985 143.058283 
L 148.191814 141.694622 
L 152.049906 140.452905 
L 155.340673 139.607097 
L 159.25202 138.845422 
L 162.926064 138.362829 
L 166.474417 138.105796 
L 170.126027 138.053036 
L 173.536542 138.197246 
L 177.293113 138.573995 
L 181.121283 139.197231 
L 185.050405 140.095957 
L 188.165728 141.002775 
L 191.991945 142.364401 
L 195.111557 143.689574 
L 198.772937 145.511436 
L 202.14629 147.469156 
L 205.029096 149.378123 
L 208.031924 151.626747 
L 210.260754 153.489542 
L 213.249315 156.286779 
L 215.386498 158.53213 
L 218.090495 161.727844 
L 220.180303 164.531266 
L 222.12902 167.47882 
L 223.882422 170.486118 
L 225.582194 173.834104 
L 227.022654 177.142012 
L 228.365535 180.81701 
L 229.341858 184.068718 
L 230.200577 187.658251 
L 230.835786 191.228148 
L 231.258196 194.783492 
L 231.47205 198.246641 
L 231.507692 200.353846 
L 231.507692 200.353846 
" clip-path="url(#p246f45a859)" style="fill: none; stroke: #228b22; stroke-linecap: square"/>
   </g>
   <g id="line2d_3">
    <path d="M 200.353846 254.313891 
L 203.492891 252.375439 
L 206.54286 250.23129 
L 209.3985 247.959824 
L 212.202714 245.442815 
L 214.756932 242.860486 
L 217.265933 240.001224 
L 219.46275 237.176455 
L 221.59754 234.069515 
L 223.637493 230.66569 
L 225.348408 227.365045 
L 226.872577 223.936094 
L 228.177161 220.452181 
L 229.324472 216.703048 
L 230.209691 213.005568 
L 230.841131 209.443373 
L 231.271649 205.772232 
L 231.48486 202.040497 
L 231.507692 200.353846 
L 231.507692 200.353846 
" clip-path="url(#p246f45a859)" style="fill: none; stroke: #228b22; stroke-linecap: square"/>
   </g>
   <g id="text_1">
    <!-- $\Omega$ -->
    <g transform="translate(16.011538 22.420913) scale(0.1 -0.1)">
     <defs>
      <path id="Cmr10-ad" d="M 494 0 
L 281 1063 
L 469 1063 
Q 503 878 531 736 
Q 559 594 604 536 
Q 650 478 750 459 
Q 850 441 1081 441 
L 1472 441 
Q 1378 803 1004 1386 
Q 631 1969 495 2233 
Q 359 2497 359 2913 
Q 359 3397 646 3761 
Q 934 4125 1389 4319 
Q 1844 4513 2309 4513 
Q 2772 4513 3226 4319 
Q 3681 4125 3968 3758 
Q 4256 3391 4256 2913 
Q 4256 2588 4137 2300 
Q 4019 2013 3834 1725 
Q 3650 1438 3436 1084 
Q 3222 731 3144 441 
L 3531 441 
Q 3766 441 3869 459 
Q 3972 478 4015 536 
Q 4059 594 4086 736 
Q 4113 878 4147 1063 
L 4331 1063 
L 4122 0 
L 2988 0 
Q 2925 0 2925 84 
Q 2925 409 3004 721 
Q 3084 1034 3240 1478 
Q 3397 1922 3484 2261 
Q 3572 2600 3572 2913 
Q 3572 3297 3422 3625 
Q 3272 3953 2984 4150 
Q 2697 4347 2309 4347 
Q 1725 4347 1384 3930 
Q 1044 3513 1044 2913 
Q 1047 2584 1122 2293 
Q 1197 2003 1364 1518 
Q 1531 1034 1611 721 
Q 1691 409 1691 84 
Q 1691 0 1625 0 
L 494 0 
z
" transform="scale(0.015625)"/>
     </defs>
     <use xlink:href="#Cmr10-ad" transform="translate(0 0.484375)"/>
    </g>
   </g>
   <g id="text_2">
    <!-- $A$ -->
    <g style="fill: #0000ff" transform="translate(103.142308 78.497837) scale(0.1 -0.1)">
     <defs>
      <path id="Cmmi10-41" d="M 288 0 
Q 225 0 225 84 
Q 250 225 306 225 
Q 566 225 755 328 
Q 944 431 1081 647 
Q 1094 659 1094 659 
L 3378 4513 
Q 3428 4581 3500 4581 
L 3584 4581 
Q 3603 4581 3622 4573 
Q 3641 4566 3655 4548 
Q 3669 4531 3669 4513 
L 4056 378 
Q 4056 350 4084 294 
Q 4147 225 4563 225 
Q 4628 225 4628 141 
Q 4606 56 4592 28 
Q 4578 0 4519 0 
L 2919 0 
Q 2859 0 2859 84 
Q 2894 225 2944 225 
Q 3450 225 3481 397 
L 3384 1453 
L 1806 1453 
L 1294 594 
Q 1247 525 1247 434 
Q 1247 322 1355 273 
Q 1463 225 1594 225 
Q 1656 225 1656 141 
Q 1634 50 1621 25 
Q 1609 0 1550 0 
L 288 0 
z
M 1931 1678 
L 3359 1678 
L 3169 3750 
L 1931 1678 
z
" transform="scale(0.015625)"/>
     </defs>
     <use xlink:href="#Cmmi10-41" transform="translate(0 0.421875)"/>
    </g>
   </g>
   <g id="text_3">
    <!-- $B$ -->
    <g style="fill: #ff0000" transform="translate(227.707692 78.497837) scale(0.1 -0.1)">
     <defs>
      <path id="Cmmi10-42" d="M 319 0 
Q 256 0 256 84 
Q 259 100 268 137 
Q 278 175 293 200 
Q 309 225 341 225 
Q 522 225 656 234 
Q 791 244 884 269 
Q 959 297 1006 441 
L 1881 3956 
Q 1894 4019 1894 4044 
Q 1894 4113 1819 4122 
Q 1697 4147 1356 4147 
Q 1294 4147 1294 4231 
Q 1297 4247 1306 4286 
Q 1316 4325 1333 4348 
Q 1350 4372 1375 4372 
L 3669 4372 
Q 3878 4372 4083 4320 
Q 4288 4269 4461 4156 
Q 4634 4044 4736 3876 
Q 4838 3709 4838 3488 
Q 4838 3247 4714 3040 
Q 4591 2834 4395 2681 
Q 4200 2528 3973 2429 
Q 3747 2331 3500 2284 
Q 3675 2284 3854 2215 
Q 4034 2147 4175 2028 
Q 4316 1909 4402 1743 
Q 4488 1578 4488 1388 
Q 4488 1003 4219 684 
Q 3950 366 3542 183 
Q 3134 0 2753 0 
L 319 0 
z
M 1497 275 
Q 1497 225 1716 225 
L 2631 225 
Q 2944 225 3231 398 
Q 3519 572 3692 859 
Q 3866 1147 3866 1459 
Q 3866 1650 3786 1820 
Q 3706 1991 3556 2089 
Q 3406 2188 3213 2188 
L 1966 2188 
L 1522 416 
Q 1497 328 1497 275 
z
M 2009 2356 
L 2981 2356 
Q 3288 2356 3577 2512 
Q 3866 2669 4048 2937 
Q 4231 3206 4231 3506 
Q 4231 3784 4057 3965 
Q 3884 4147 3609 4147 
L 2731 4147 
Q 2559 4147 2500 4115 
Q 2441 4084 2400 3928 
L 2009 2356 
z
" transform="scale(0.015625)"/>
     </defs>
     <use xlink:href="#Cmmi10-42" transform="translate(0 0.6875)"/>
    </g>
   </g>
   <g id="text_4">
    <!-- $C$ -->
    <g style="fill: #228b22" transform="translate(150.023077 271.651683) scale(0.1 -0.1)">
     <defs>
      <path id="Cmmi10-43" d="M 934 1381 
Q 934 997 1082 705 
Q 1231 413 1514 248 
Q 1797 84 2181 84 
Q 2584 84 2957 290 
Q 3331 497 3595 842 
Q 3859 1188 3956 1575 
Q 3969 1613 4006 1613 
L 4084 1613 
Q 4109 1613 4125 1595 
Q 4141 1578 4141 1556 
Q 4141 1550 4134 1538 
Q 4025 1094 3711 705 
Q 3397 316 2959 87 
Q 2522 -141 2059 -141 
Q 1559 -141 1162 84 
Q 766 309 545 709 
Q 325 1109 325 1613 
Q 325 2150 565 2676 
Q 806 3203 1212 3614 
Q 1619 4025 2139 4269 
Q 2659 4513 3194 4513 
Q 3406 4513 3600 4448 
Q 3794 4384 3959 4253 
Q 4125 4122 4231 3950 
L 4738 4500 
Q 4738 4513 4769 4513 
L 4806 4513 
Q 4831 4513 4847 4491 
Q 4863 4469 4863 4447 
L 4428 2719 
Q 4428 2675 4378 2675 
L 4263 2675 
Q 4213 2675 4213 2747 
Q 4238 2888 4238 3084 
Q 4238 3397 4131 3673 
Q 4025 3950 3801 4119 
Q 3578 4288 3256 4288 
Q 2734 4288 2300 4025 
Q 1866 3763 1564 3336 
Q 1263 2909 1098 2389 
Q 934 1869 934 1381 
z
" transform="scale(0.015625)"/>
     </defs>
     <use xlink:href="#Cmmi10-43" transform="translate(0 0.484375)"/>
    </g>
   </g>
   <g id="patch_6">
    <path d="M 138.046154 200.353846 
C 154.570347 200.353846 170.419977 193.788715 182.104346 182.104346 
C 193.788715 170.419977 200.353846 154.570347 200.353846 138.046154 
C 200.353846 121.521961 193.788715 105.672331 182.104346 93.987962 
C 170.419977 82.303593 154.570347 75.738462 138.046154 75.738462 
C 121.521961 75.738462 105.672331 82.303593 93.987962 93.987962 
C 82.303593 105.672331 75.738462 121.521961 75.738462 138.046154 
C 75.738462 154.570347 82.303593 170.419977 93.987962 182.104346 
C 105.672331 193.788715 121.521961 200.353846 138.046154 200.353846 
L 138.046154 200.353846 
z
" clip-path="url(#p246f45a859)" style="fill: none; stroke: #0000ff; stroke-linejoin: miter"/>
   </g>
   <g id="patch_7">
    <path d="M 200.353846 200.353846 
C 216.878039 200.353846 232.727669 193.788715 244.412038 182.104346 
C 256.096407 170.419977 262.661538 154.570347 262.661538 138.046154 
C 262.661538 121.521961 256.096407 105.672331 244.412038 93.987962 
C 232.727669 82.303593 216.878039 75.738462 200.353846 75.738462 
C 183.829653 75.738462 167.980023 82.303593 156.295654 93.987962 
C 144.611285 105.672331 138.046154 121.521961 138.046154 138.046154 
C 138.046154 154.570347 144.611285 170.419977 156.295654 182.104346 
C 167.980023 193.788715 183.829653 200.353846 200.353846 200.353846 
L 200.353846 200.353846 
z
" clip-path="url(#p246f45a859)" style="fill: none; stroke: #ff0000; stroke-linejoin: miter"/>
   </g>
   <g id="patch_8">
    <path d="M 169.2 262.661538 
C 185.724193 262.661538 201.573823 256.096407 213.258192 244.412038 
C 224.942561 232.727669 231.507692 216.878039 231.507692 200.353846 
C 231.507692 183.829653 224.942561 167.980023 213.258192 156.295654 
C 201.573823 144.611285 185.724193 138.046154 169.2 138.046154 
C 152.675807 138.046154 136.826177 144.611285 125.141808 156.295654 
C 113.457439 167.980023 106.892308 183.829653 106.892308 200.353846 
C 106.892308 216.878039 113.457439 232.727669 125.141808 244.412038 
C 136.826177 256.096407 152.675807 262.661538 169.2 262.661538 
L 169.2 262.661538 
z
" clip-path="url(#p246f45a859)" style="fill: none; stroke: #228b22; stroke-linejoin: miter"/>
   </g>
  </g>
 </g>
 <defs>
  <clipPath id="p246f45a859">
   <rect x="7.2" y="7.2" width="324" height="324"/>
  </clipPath>
 </defs>
</svg>
