<?xml version="1.0" encoding="utf-8" standalone="no"?>
<!DOCTYPE svg PUBLIC "-//W3C//DTD SVG 1.1//EN"
  "http://www.w3.org/Graphics/SVG/1.1/DTD/svg11.dtd">
<!-- Created with matplotlib (https://matplotlib.org/) -->
<svg height="338.4pt" version="1.1" viewBox="0 0 338.4 338.4" width="338.4pt" xmlns="http://www.w3.org/2000/svg" xmlns:xlink="http://www.w3.org/1999/xlink">
 <metadata>
  <rdf:RDF xmlns:cc="http://creativecommons.org/ns#" xmlns:dc="http://purl.org/dc/elements/1.1/" xmlns:rdf="http://www.w3.org/1999/02/22-rdf-syntax-ns#">
   <cc:Work>
    <dc:type rdf:resource="http://purl.org/dc/dcmitype/StillImage"/>
    <dc:date>2021-08-17T17:51:42.890935</dc:date>
    <dc:format>image/svg+xml</dc:format>
    <dc:creator>
     <cc:Agent>
      <dc:title>Matplotlib v3.3.4, https://matplotlib.org/</dc:title>
     </cc:Agent>
    </dc:creator>
   </cc:Work>
  </rdf:RDF>
 </metadata>
 <defs>
  <style type="text/css">*{stroke-linecap:butt;stroke-linejoin:round;}</style>
 </defs>
 <g id="figure_1">
  <g id="patch_1">
   <path d="M -0 338.4 
L 338.4 338.4 
L 338.4 0 
L -0 0 
z
" style="fill:#ffffff;"/>
  </g>
  <g id="axes_1">
   <g id="patch_2">
    <path d="M 7.2 331.2 
L 331.2 331.2 
L 331.2 7.2 
L 7.2 7.2 
z
" style="fill:#ffffff;"/>
   </g>
   <g id="patch_3">
    <path clip-path="url(#pf8351bb2b3)" d="M 13.430769 324.969231 
L 13.430769 13.430769 
L 324.969231 13.430769 
L 324.969231 324.969231 
z
" style="fill:none;stroke:#000000;stroke-linejoin:miter;"/>
   </g>
   <g id="patch_4">
    <path clip-path="url(#pf8351bb2b3)" d="M 169.2 138.046154 
L 169.055262 138.046322 
L 168.935389 138.046716 
L 168.732055 138.047911 
L 168.591986 138.04912 
L 168.380501 138.051543 
L 168.256587 138.053296 
L 168.170259 138.054664 
L 167.91721 138.05936 
L 167.750546 138.063015 
L 167.600919 138.066677 
L 167.500937 138.069324 
L 167.377791 138.072805 
L 167.116466 138.081 
L 166.97072 138.086047 
L 166.848342 138.090549 
L 166.712752 138.095818 
L 166.507181 138.10437 
L 166.357304 138.111034 
L 166.161753 138.120273 
L 166.056955 138.125478 
L 165.932472 138.13189 
L 165.682734 138.145508 
L 165.675906 138.145894 
L 165.404902 138.161839 
L 165.351302 138.165133 
L 165.175732 138.176247 
L 164.982365 138.189065 
L 164.785398 138.202742 
L 164.634195 138.213666 
L 164.534423 138.221078 
L 164.286239 138.240213 
L 164.158334 138.250464 
L 164.088495 138.256173 
L 163.901073 138.271885 
L 163.712127 138.288302 
L 163.507023 138.306779 
L 163.417277 138.315079 
L 163.194839 138.336215 
L 163.121787 138.343332 
L 163.006939 138.354697 
L 162.778271 138.377964 
L 162.589193 138.397848 
L 162.540645 138.403047 
L 162.29025 138.430475 
L 162.139545 138.447477 
L 161.976472 138.466294 
L 161.86961 138.47886 
L 161.651096 138.505139 
L 161.502483 138.523459 
L 161.427782 138.532805 
L 161.202602 138.561532 
L 160.993599 138.588941 
L 160.8826 138.60379 
L 160.736448 138.623652 
L 160.630819 138.638227 
L 160.423143 138.667419 
L 160.227805 138.695528 
L 160.059344 138.720276 
L 159.999059 138.729247 
L 159.799224 138.759415 
L 159.640196 138.783897 
L 159.473258 138.810049 
L 159.36633 138.827043 
L 159.251607 138.845489 
L 159.090737 138.871724 
L 158.803242 138.919687 
L 158.652167 138.945445 
L 158.48718 138.974012 
L 158.393619 138.990415 
L 158.239079 139.017831 
L 158.14648 139.034451 
L 157.970444 139.066445 
L 157.829722 139.092396 
L 157.595956 139.136245 
L 157.427218 139.168471 
L 157.296119 139.193842 
L 157.098534 139.23263 
L 156.964884 139.259244 
L 156.812474 139.289964 
L 156.677663 139.317467 
L 156.474067 139.359591 
L 156.343349 139.387011 
L 156.191309 139.419271 
L 156.121391 139.434239 
L 155.855956 139.49183 
L 155.677621 139.531204 
L 155.615251 139.545104 
L 155.374182 139.599461 
L 155.324049 139.610892 
L 155.101832 139.662082 
L 154.915797 139.705598 
L 154.862356 139.718209 
L 154.644433 139.770152 
L 154.476285 139.810797 
L 154.364491 139.838094 
L 154.226583 139.87207 
L 154.001124 139.928333 
L 153.888556 139.956758 
L 153.63926 140.020506 
L 153.485451 140.060385 
L 153.359606 140.093325 
L 153.154525 140.147607 
L 153.112265 140.158885 
L 152.893294 140.217835 
L 152.793336 140.245029 
L 152.598238 140.298621 
L 152.454559 140.338525 
L 152.326106 140.374514 
L 152.205857 140.408474 
L 151.952653 140.480834 
L 151.883026 140.500935 
L 151.706452 140.552305 
L 151.528984 140.604505 
L 151.42669 140.634854 
L 151.269984 140.681716 
L 151.003471 140.762447 
L 150.958881 140.776081 
L 150.789982 140.828056 
L 150.633199 140.876771 
L 150.339872 140.969134 
L 150.334548 140.970825 
L 150.142048 141.032324 
L 150.005827 141.07626 
L 149.752517 141.158881 
L 149.640476 141.195808 
L 149.534683 141.230891 
L 149.263436 141.321805 
L 149.087675 141.381455 
L 148.948781 141.429007 
L 148.785842 141.485258 
L 148.661897 141.528385 
L 148.484431 141.590646 
L 148.444577 141.604711 
L 148.18959 141.695418 
L 147.987843 141.768072 
L 147.908848 141.796734 
L 147.788716 141.840553 
L 147.609757 141.906349 
L 147.363143 141.998039 
L 147.354104 142.001422 
L 147.179914 142.066932 
L 146.951803 142.153621 
L 146.783591 142.218202 
L 146.659256 142.266297 
L 146.499306 142.328619 
L 146.302681 142.405927 
L 146.176222 142.456056 
L 146.107833 142.483298 
L 145.892796 142.569568 
L 145.785866 142.612814 
L 145.514173 142.723731 
L 145.39399 142.773273 
L 145.253912 142.831386 
L 145.115333 142.889272 
L 144.939497 142.963285 
L 144.801458 143.021833 
L 144.545391 143.131484 
L 144.451777 143.171909 
L 144.386322 143.200282 
L 144.129625 143.312416 
L 143.942762 143.394909 
L 143.807034 143.455289 
L 143.624148 143.537261 
L 143.517962 143.58518 
L 143.432795 143.623786 
L 143.25341 143.705607 
L 143.109686 143.771658 
L 142.822566 143.904936 
L 142.697051 143.963756 
L 142.609049 144.005201 
L 142.505275 144.054289 
L 142.206251 144.197047 
L 142.063342 144.265966 
L 141.93297 144.32923 
L 141.810993 144.38876 
L 141.631099 144.477159 
L 141.435006 144.574337 
L 141.327716 144.627871 
L 141.166347 144.708875 
L 140.975082 144.805646 
L 140.81306 144.88827 
L 140.700447 144.946049 
L 140.513556 145.042577 
L 140.391766 145.105913 
L 140.181967 145.215817 
L 140.033752 145.294074 
L 139.939089 145.344323 
L 139.739827 145.45078 
L 139.58517 145.534047 
L 139.39126 145.639245 
L 139.365299 145.653397 
L 139.066265 145.817559 
L 139.052556 145.825137 
L 138.823389 145.952467 
L 138.62615 146.063071 
L 138.55509 146.10315 
L 138.413424 146.183418 
L 138.278402 146.260378 
L 138.046154 146.393802 
L 138.046154 138.046154 
L 138.049003 138.642028 
L 138.051853 138.888838 
L 138.054702 139.078215 
L 138.057551 139.237862 
L 138.060401 139.378509 
L 138.06325 139.505659 
L 138.066099 139.622582 
L 138.068949 139.731407 
L 138.071798 139.833614 
L 138.074647 139.930281 
L 138.077497 140.02222 
L 138.080346 140.110064 
L 138.083196 140.194315 
L 138.086045 140.275381 
L 138.091744 140.429243 
L 138.097442 140.573744 
L 138.103141 140.710407 
L 138.10884 140.840382 
L 138.114539 140.964563 
L 138.120237 141.083661 
L 138.125936 141.198252 
L 138.131635 141.308811 
L 138.137334 141.415735 
L 138.143637 141.530177 
L 138.149941 141.640968 
L 138.162548 141.852856 
L 138.175156 142.053517 
L 138.187763 142.24456 
L 138.20037 142.427245 
L 138.212978 142.602576 
L 138.225585 142.771372 
L 138.238192 142.93431 
L 138.2508 143.091958 
L 138.263407 143.244797 
L 138.276014 143.393239 
L 138.288622 143.537642 
L 138.301229 143.678315 
L 138.313836 143.815531 
L 138.339051 144.080532 
L 138.35397 144.231936 
L 138.368889 144.379687 
L 138.383808 144.524035 
L 138.398727 144.665201 
L 138.428566 144.93877 
L 138.458404 145.201762 
L 138.488242 145.455306 
L 138.51808 145.700339 
L 138.547918 145.937655 
L 138.577756 146.167931 
L 138.601703 146.348042 
L 138.62565 146.52426 
L 138.649596 146.696823 
L 138.673543 146.865946 
L 138.714005 147.144425 
L 138.754468 147.414455 
L 138.79493 147.676747 
L 138.835392 147.931917 
L 138.891178 148.273026 
L 138.946963 148.602823 
L 138.9953 148.880239 
L 139.043638 149.150515 
L 139.091975 149.414163 
L 139.140312 149.671631 
L 139.200762 149.985535 
L 139.261212 150.291096 
L 139.333675 150.647237 
L 139.406139 150.99318 
L 139.459416 151.24149 
L 139.512693 151.485002 
L 139.565971 151.723972 
L 139.619248 151.958634 
L 139.690318 152.265327 
L 139.761388 152.565195 
L 139.857974 152.962521 
L 139.953255 153.343771 
L 140.048535 153.715168 
L 140.151086 154.104678 
L 140.253637 154.484322 
L 140.345279 154.81578 
L 140.43692 155.14032 
L 140.531586 155.468717 
L 140.620972 155.772751 
L 140.710358 156.071215 
L 140.835184 156.479204 
L 140.959055 156.874519 
L 141.080886 157.254607 
L 141.202716 157.626561 
L 141.300141 157.918456 
L 141.397565 158.205654 
L 141.490364 158.475029 
L 141.593942 158.771071 
L 141.69752 159.062432 
L 141.750433 159.20953 
L 141.914996 159.65979 
L 142.093838 160.137328 
L 142.251229 160.548029 
L 142.41783 160.973572 
L 142.529906 161.254782 
L 142.641982 161.53209 
L 142.770627 161.845762 
L 142.91892 162.20144 
L 143.021518 162.443955 
L 143.172012 162.794616 
L 143.286719 163.057981 
L 143.401425 163.31808 
L 143.487276 163.510673 
L 143.693217 163.965677 
L 143.783106 164.161281 
L 143.928237 164.473397 
L 144.073369 164.781082 
L 144.204702 165.05582 
L 144.288888 165.230138 
L 144.462509 165.585342 
L 144.578929 165.820371 
L 144.712956 166.087906 
L 144.846983 166.352278 
L 144.859696 166.377194 
L 145.004953 166.659936 
L 145.15021 166.939181 
L 145.268453 167.163983 
L 145.376622 167.367704 
L 145.597327 167.777824 
L 145.703532 167.972592 
L 145.865408 168.266322 
L 146.022882 168.548529 
L 146.165206 168.800663 
L 146.32862 169.086828 
L 146.522269 169.421459 
L 146.684354 169.697918 
L 146.846705 169.971603 
L 146.951402 170.146425 
L 147.161678 170.493678 
L 147.278611 170.684597 
L 147.499212 171.040642 
L 147.642227 171.268642 
L 147.817207 171.544662 
L 147.975889 171.792237 
L 148.040004 171.891544 
L 148.25815 172.226367 
L 148.349518 172.36522 
L 148.525118 172.629842 
L 148.663687 172.836612 
L 148.861084 173.128115 
L 149.04133 173.391227 
L 149.206996 173.630536 
L 149.394138 173.898025 
L 149.510296 174.062566 
L 149.643112 174.249331 
L 149.801306 174.469899 
L 149.90638 174.615289 
L 150.069728 174.839578 
L 150.324527 175.185294 
L 150.486764 175.402849 
L 150.518756 175.445517 
L 150.720732 175.713148 
L 150.886763 175.930929 
L 150.988457 176.063346 
L 151.123751 176.238382 
L 151.384979 176.572749 
L 151.495843 176.713247 
L 151.689648 176.956877 
L 151.757058 177.041034 
L 151.966996 177.301234 
L 152.19357 177.578878 
L 152.220619 177.611807 
L 152.417965 177.850674 
L 152.620669 178.09353 
L 152.716717 178.207733 
L 152.847457 178.362299 
L 153.140762 178.705386 
L 153.23226 178.811392 
L 153.369245 178.969201 
L 153.606508 179.240023 
L 153.663751 179.304893 
L 153.791399 179.448896 
L 154.072298 179.762659 
L 154.16678 179.867243 
L 154.296788 180.010376 
L 154.485911 180.21701 
L 154.715242 180.465092 
L 154.784354 180.539329 
L 154.916491 180.680591 
L 155.098304 180.873533 
L 155.201712 180.98254 
L 155.473801 181.266868 
L 155.595696 181.393086 
L 155.806901 181.610109 
L 155.95154 181.757522 
L 156.049313 181.856619 
L 156.281885 182.090572 
L 156.432284 182.240553 
L 156.449258 182.257415 
L 156.599597 182.406206 
L 156.828466 182.63079 
L 156.943858 182.74315 
L 157.158212 182.950338 
L 157.265435 183.053235 
L 157.396869 183.178699 
L 157.580914 183.35316 
L 157.769907 183.53084 
L 157.908335 183.660046 
L 158.03012 183.773069 
L 158.221519 183.949482 
L 158.467849 184.174364 
L 158.573685 184.270246 
L 158.68509 184.370697 
L 158.805126 184.478388 
L 159.072747 184.716481 
L 159.164057 184.797087 
L 159.385287 184.991075 
L 159.416525 185.018319 
L 159.691551 185.2566 
L 159.870278 185.40995 
L 159.933928 185.464281 
L 160.084141 185.591915 
L 160.339723 185.807209 
L 160.45957 185.907362 
L 160.586576 186.012942 
L 160.78567 186.177308 
L 160.954282 186.315429 
L 161.009057 186.360087 
L 161.232052 186.540831 
L 161.345846 186.632412 
L 161.469742 186.731623 
L 161.624492 186.854818 
L 161.794667 186.989368 
L 162.028743 187.172878 
L 162.158816 187.274074 
L 162.260606 187.352884 
L 162.544042 187.570564 
L 162.580181 187.598134 
L 162.848991 187.801901 
L 163.014133 187.925953 
L 163.105529 187.994241 
L 163.311627 188.147277 
L 163.343751 188.171011 
L 163.576644 188.342137 
L 163.720327 188.446886 
L 163.804485 188.507949 
L 164.097528 188.718907 
L 164.159327 188.763067 
L 164.414298 188.944066 
L 164.546299 189.037017 
L 164.727029 189.163454 
L 164.887616 189.275004 
L 164.989044 189.345075 
L 165.117526 189.433412 
L 165.338835 189.584465 
L 165.418505 189.638503 
L 165.60483 189.764182 
L 165.831624 189.915844 
L 165.849315 189.927613 
L 166.057362 190.065378 
L 166.221118 190.172974 
L 166.405011 190.292925 
L 166.508451 190.359993 
L 166.662768 190.459509 
L 166.877209 190.596732 
L 166.937458 190.635064 
L 167.17607 190.785927 
L 167.315614 190.873455 
L 167.494179 190.984711 
L 167.568744 191.030921 
L 167.763989 191.151236 
L 167.914574 191.243354 
L 168.150295 191.386381 
L 168.250343 191.446656 
L 168.339648 191.500243 
L 168.529072 191.613236 
L 168.764699 191.752525 
L 168.808989 191.778551 
L 169.054393 191.921869 
L 169.2 192.006198 
z
" style="fill:#808080;opacity:0.5;"/>
   </g>
   <g id="patch_5">
    <path clip-path="url(#pf8351bb2b3)" d="M 169.2 192.006198 
L 168.784528 192.243948 
L 168.675976 192.30537 
L 168.156793 192.595195 
L 167.898256 192.737109 
L 167.658175 192.86747 
L 167.44934 192.979761 
L 167.024507 193.205048 
L 166.624895 193.413148 
L 166.472717 193.491433 
L 166.098553 193.681677 
L 165.760659 193.850766 
L 165.566413 193.946815 
L 165.142571 194.153486 
L 164.707436 194.361556 
L 164.631341 194.397519 
L 164.20022 194.598902 
L 163.963859 194.707614 
L 163.513917 194.911271 
L 163.18556 195.057195 
L 162.784614 195.232316 
L 162.763053 195.241638 
L 162.384545 195.403727 
L 161.94974 195.586288 
L 161.661889 195.705026 
L 161.337187 195.836951 
L 161.018832 195.964239 
L 160.862898 196.025846 
L 160.44031 196.190374 
L 160.156475 196.298898 
L 159.824716 196.423742 
L 159.419289 196.573392 
L 159.163614 196.666128 
L 158.935097 196.747947 
L 158.512921 196.896472 
L 158.191414 197.007302 
L 157.817358 197.133784 
L 157.608632 197.203216 
L 157.258651 197.317804 
L 157.00772 197.398555 
L 156.750161 197.480224 
L 156.324846 197.612402 
L 155.948828 197.726492 
L 155.706296 197.798709 
L 155.57347 197.837806 
L 155.138295 197.963657 
L 154.655659 198.099238 
L 154.458438 198.153437 
L 154.022911 198.270665 
L 153.993758 198.278391 
L 153.49093 198.409283 
L 153.151406 198.49514 
L 152.864582 198.56609 
L 152.583098 198.634319 
L 152.384069 198.681727 
L 152.102552 198.747605 
L 151.670751 198.84598 
L 151.268899 198.934638 
L 151.120785 198.966615 
L 150.813967 199.031656 
L 150.33024 199.130929 
L 149.966236 199.203003 
L 149.747141 199.245299 
L 149.424532 199.3061 
L 149.124852 199.361005 
L 148.741003 199.429122 
L 148.573845 199.458011 
L 148.360699 199.49417 
L 148.00509 199.552805 
L 147.551647 199.624511 
L 147.155387 199.684376 
L 147.107059 199.691499 
L 146.585448 199.765915 
L 146.264195 199.809511 
L 145.895219 199.857485 
L 145.709831 199.880744 
L 145.512368 199.904898 
L 145.048407 199.959133 
L 144.665983 200.001189 
L 144.547871 200.013695 
L 144.005886 200.068167 
L 143.895906 200.078637 
L 143.592425 200.106507 
L 143.110807 200.147666 
L 142.793782 200.172707 
L 142.629331 200.185055 
L 142.238766 200.212628 
L 142.050026 200.225069 
L 141.628743 200.250764 
L 141.351449 200.266115 
L 140.951782 200.286059 
L 140.853827 200.290555 
L 140.541196 200.303871 
L 140.028948 200.322289 
L 139.719315 200.331377 
L 139.427619 200.33853 
L 139.082005 200.345235 
L 138.858159 200.348555 
L 138.410612 200.35278 
L 138.190317 200.353679 
L 137.897999 200.35367 
L 137.700266 200.352886 
L 137.166 200.347629 
L 136.983816 200.344789 
L 136.692831 200.339147 
L 136.217252 200.326999 
L 135.9526 200.318664 
L 135.720205 200.310417 
L 135.254018 200.291254 
L 135.213265 200.289413 
L 134.763012 200.267288 
L 134.382794 200.24606 
L 134.191282 200.234485 
L 133.731286 200.204262 
L 133.423368 200.182121 
L 133.263615 200.170029 
L 132.772142 200.130237 
L 132.670631 200.12153 
L 132.256843 200.084307 
L 131.843292 200.044323 
L 131.732012 200.033089 
L 131.199479 199.976531 
L 131.128135 199.968602 
L 130.715343 199.92109 
L 130.388124 199.881444 
L 130.202716 199.8582 
L 129.642503 199.784531 
L 129.295773 199.736342 
L 129.019769 199.696563 
L 128.729531 199.65337 
L 128.353193 199.595281 
L 128.048005 199.546443 
L 127.894867 199.521351 
L 127.65074 199.480541 
L 127.308214 199.421598 
L 126.930457 199.354308 
L 126.524259 199.27927 
L 126.358311 199.247811 
L 126.130186 199.203805 
L 125.535353 199.084899 
L 125.211546 199.017634 
L 125.043958 198.982116 
L 124.767635 198.9225 
L 124.42235 198.846158 
L 124.09538 198.771967 
L 123.715569 198.68346 
L 123.380542 198.603303 
L 123.214002 198.562728 
L 122.795183 198.45854 
L 122.527895 198.390434 
L 122.366271 198.34864 
L 121.790316 198.195936 
L 121.487291 198.113221 
L 121.423201 198.095517 
L 120.858709 197.936389 
L 120.548572 197.846514 
L 120.362508 197.791758 
L 120.099677 197.713335 
L 119.876367 197.645712 
L 119.431414 197.508242 
L 119.107523 197.405877 
L 118.86461 197.327828 
L 118.603715 197.242776 
L 118.036454 197.053445 
L 117.903526 197.008201 
L 117.673621 196.92916 
L 117.297071 196.797529 
L 117.051862 196.710353 
L 116.510338 196.513728 
L 116.329506 196.446802 
L 115.946154 196.302815 
L 115.671374 196.197833 
L 115.438781 196.107804 
L 115.042788 195.952057 
L 114.857627 195.878158 
L 114.544434 195.751593 
L 113.960871 195.51047 
L 113.697196 195.399242 
L 113.544098 195.334004 
L 113.30711 195.232063 
L 112.91315 195.060017 
L 112.47319 194.864039 
L 112.069752 194.680729 
L 112.054704 194.673824 
L 111.693673 194.506718 
L 111.269846 194.306956 
L 110.851699 194.106034 
L 110.745465 194.054375 
L 110.283454 193.826805 
L 110.073753 193.721941 
L 109.792794 193.579893 
L 109.283169 193.317659 
L 109.131544 193.238489 
L 108.828042 193.078421 
L 108.608855 192.961488 
L 108.118591 192.695852 
L 107.971068 192.614806 
L 107.493318 192.348758 
L 107.199696 192.182505 
L 106.892308 192.006198 
L 106.892308 200.353846 
L 106.905694 201.645364 
L 106.919081 202.18023 
L 106.932468 202.59058 
L 106.945855 202.936465 
L 106.959242 203.241147 
L 106.972628 203.516556 
L 106.986015 203.769779 
L 106.999402 204.005436 
L 107.012789 204.226734 
L 107.026175 204.436009 
L 107.039562 204.635024 
L 107.052949 204.82515 
L 107.066336 205.007477 
L 107.079722 205.182887 
L 107.106496 205.515753 
L 107.13327 205.828286 
L 107.160043 206.123791 
L 107.186817 206.404764 
L 107.21359 206.673143 
L 107.240364 206.93047 
L 107.267137 207.177996 
L 107.293911 207.416752 
L 107.320684 207.647597 
L 107.356764 207.947442 
L 107.392844 208.235723 
L 107.428924 208.513666 
L 107.465004 208.782295 
L 107.501083 209.042472 
L 107.537163 209.294936 
L 107.573243 209.540323 
L 107.609323 209.779185 
L 107.662204 210.118487 
L 107.715086 210.446112 
L 107.758722 210.708455 
L 107.802359 210.964135 
L 107.889633 211.457333 
L 107.976907 211.928878 
L 108.06418 212.381318 
L 108.161539 212.866031 
L 108.258897 213.331924 
L 108.356256 213.780956 
L 108.453614 214.214766 
L 108.554349 214.649076 
L 108.655085 215.069885 
L 108.755821 215.478319 
L 108.856556 215.875357 
L 108.940497 216.198113 
L 109.024437 216.513987 
L 109.192318 217.126642 
L 109.241758 217.302525 
L 109.388669 217.813891 
L 109.53558 218.309499 
L 109.682491 218.790619 
L 109.829401 219.258358 
L 109.923351 219.550914 
L 110.141101 220.210708 
L 110.358851 220.84696 
L 110.595827 221.515118 
L 110.784353 222.030118 
L 110.97288 222.53156 
L 111.195594 223.107691 
L 111.418309 223.667462 
L 111.503134 223.876606 
L 111.765402 224.50991 
L 112.046935 225.168674 
L 112.328468 225.807283 
L 112.394809 225.954996 
L 112.682308 226.583582 
L 112.969807 227.194374 
L 113.146964 227.562406 
L 113.355088 227.987057 
L 113.563212 228.403737 
L 113.92533 229.110747 
L 114.095984 229.436417 
L 114.291311 229.803539 
L 114.657177 230.475748 
L 115.044967 231.167494 
L 115.338506 231.677767 
L 115.652879 232.212195 
L 116.071032 232.904749 
L 116.280884 233.244812 
L 116.626279 233.794127 
L 117.036091 234.429866 
L 117.306574 234.840378 
L 117.499317 235.128663 
L 117.711175 235.441586 
L 118.121773 236.036661 
L 118.619841 236.739229 
L 118.717406 236.874474 
L 119.124568 237.430788 
L 119.319671 237.692851 
L 119.841896 238.380496 
L 120.019967 238.610517 
L 120.426068 239.126931 
L 120.797817 239.590018 
L 120.959057 239.788094 
L 121.390909 240.310565 
L 121.505567 240.447356 
L 121.775833 240.766677 
L 122.109872 241.155419 
L 122.469801 241.567157 
L 122.882622 242.030567 
L 123.290341 242.479274 
L 123.459121 242.66248 
L 123.812754 243.041625 
L 124.266128 243.518597 
L 124.342548 243.598008 
L 124.769732 244.036792 
L 124.913557 244.182598 
L 125.494605 244.762032 
L 125.829634 245.08929 
L 125.981604 245.236123 
L 126.263253 245.505638 
L 126.738143 245.952522 
L 126.905428 246.107728 
L 127.317256 246.48501 
L 127.446845 246.602333 
L 127.929952 247.033945 
L 128.301813 247.360088 
L 128.455424 247.493299 
L 128.707865 247.710319 
L 129.141224 248.077457 
L 129.409504 248.301369 
L 129.641332 248.492815 
L 130.148523 248.905166 
L 130.526034 249.206408 
L 130.558237 249.231885 
L 130.990157 249.57027 
L 131.357079 249.852955 
L 131.542172 249.993916 
L 131.91855 250.277207 
L 132.098994 250.411452 
L 132.624191 250.796474 
L 132.871982 250.975221 
L 133.088489 251.129897 
L 133.554388 251.458042 
L 133.687208 251.550429 
L 134.185416 251.892447 
L 134.397066 252.035606 
L 134.762365 252.279734 
L 134.971694 252.417956 
L 135.386772 252.688483 
L 135.778508 252.939513 
L 135.972244 253.062145 
L 136.395259 253.326457 
L 136.712242 253.52145 
L 136.840017 253.599316 
L 137.242388 253.841784 
L 137.536017 254.01613 
L 137.92746 254.245188 
L 138.327821 254.475534 
L 138.443449 254.541327 
L 138.85253 254.771487 
L 139.126247 254.923232 
L 139.444834 255.0976 
L 139.757879 255.266595 
L 140.209922 255.506578 
L 140.356028 255.58313 
L 140.725834 255.774694 
L 141.12131 255.976105 
L 141.251166 256.041468 
L 141.720132 256.274373 
L 141.822678 256.324649 
L 142.228852 256.521503 
L 142.711306 256.750634 
L 142.744477 256.766201 
L 143.191031 256.973472 
L 143.479988 257.105317 
L 143.722954 257.214805 
L 144.151203 257.404756 
L 144.588794 257.59489 
L 144.852405 257.707513 
L 144.994861 257.76778 
L 145.330513 257.908135 
L 145.75504 258.082369 
L 145.881227 258.133456 
L 146.213922 258.266615 
L 146.536487 258.393606 
L 146.895921 258.532679 
L 147.338321 258.700359 
L 147.641262 258.812972 
L 147.858957 258.892794 
L 148.33459 259.064009 
L 148.512112 259.126797 
L 148.883935 259.256359 
L 149.267231 259.387169 
L 149.340615 259.411897 
L 149.653268 259.516113 
L 150.024116 259.637351 
L 150.459237 259.776336 
L 150.852093 259.898811 
L 151.159715 259.992731 
L 151.254352 260.021276 
L 151.590714 260.121409 
L 152.124076 260.275973 
L 152.173346 260.289992 
L 152.679875 260.431579 
L 153.052598 260.532829 
L 153.139756 260.556148 
L 153.520319 260.656384 
L 153.919719 260.758826 
L 154.325866 260.860116 
L 154.531238 260.910233 
L 154.678973 260.945828 
L 155.147113 261.056111 
L 155.426719 261.120163 
L 155.863793 261.21758 
L 156.086518 261.265956 
L 156.208552 261.2921 
L 156.812068 261.417646 
L 156.87665 261.430712 
L 157.202749 261.495603 
L 157.561863 261.564975 
L 157.949601 261.637425 
L 158.109647 261.66659 
L 158.483518 261.733041 
L 159.014378 261.823364 
L 159.183267 261.851111 
L 159.538058 261.90785 
L 159.890496 261.962138 
L 160.051988 261.986325 
L 160.314117 262.024663 
L 160.770388 262.088684 
L 161.096456 262.13233 
L 161.407349 262.172315 
L 161.569043 262.192483 
L 161.876356 262.229631 
L 162.31621 262.280108 
L 162.73632 262.325367 
L 163.067874 262.359052 
L 163.300545 262.381622 
L 163.444371 262.395133 
L 163.74373 262.422177 
L 164.182086 262.459152 
L 164.496087 262.483724 
L 164.736419 262.501452 
L 165.246908 262.536011 
L 165.411197 262.546237 
L 165.855327 262.571703 
L 166.110043 262.584873 
L 166.453405 262.600972 
L 166.840027 262.616829 
L 167.119464 262.626793 
L 167.30216 262.632628 
L 167.751668 262.644703 
L 168.020088 262.650366 
L 168.284201 262.654808 
L 168.599444 262.658644 
L 168.971442 262.661119 
L 169.2 262.661538 
z
" style="fill:#808080;opacity:0.5;"/>
   </g>
   <g id="patch_6">
    <path clip-path="url(#pf8351bb2b3)" d="M 200.353846 146.393802 
L 200.166764 146.286221 
L 200.066938 146.229169 
L 199.823633 146.091137 
L 199.726651 146.036519 
L 199.565653 145.94635 
L 199.450475 145.882227 
L 199.279454 145.787602 
L 199.023978 145.64755 
L 198.964222 145.615015 
L 198.788178 145.519658 
L 198.70654 145.475685 
L 198.473476 145.351009 
L 198.306433 145.26243 
L 198.231574 145.222945 
L 198.059516 145.132683 
L 197.831801 145.014272 
L 197.65565 144.923489 
L 197.531882 144.860126 
L 197.417453 144.801854 
L 197.227597 144.705824 
L 197.043434 144.613451 
L 196.97678 144.580205 
L 196.677322 144.432068 
L 196.601383 144.394819 
L 196.509753 144.350043 
L 196.250026 144.224134 
L 196.157981 144.179868 
L 195.978155 144.093923 
L 195.752322 143.986988 
L 195.587356 143.909573 
L 195.528417 143.882057 
L 195.410355 143.827164 
L 195.202118 143.731074 
L 195.103034 143.685677 
L 194.862797 143.57648 
L 194.744952 143.523362 
L 194.621022 143.467818 
L 194.415158 143.376269 
L 194.170942 143.268817 
L 194.135842 143.253476 
L 193.891236 143.147279 
L 193.843181 143.126561 
L 193.667171 143.051088 
L 193.39866 142.937182 
L 193.276976 142.886049 
L 193.180629 142.845778 
L 193.023097 142.78034 
L 192.908853 142.7332 
L 192.659821 142.631361 
L 192.578222 142.598264 
L 192.439257 142.542208 
L 192.135916 142.421193 
L 191.987455 142.362636 
L 191.849683 142.308688 
L 191.809211 142.292912 
L 191.588486 142.207443 
L 191.41062 142.13927 
L 191.204586 142.061079 
L 191.152069 142.041281 
L 190.925962 141.956662 
L 190.863001 141.933277 
L 190.609196 141.839789 
L 190.458427 141.784846 
L 190.372406 141.753695 
L 190.149924 141.673788 
L 190.053454 141.639436 
L 189.902493 141.586038 
L 189.700167 141.515154 
L 189.522591 141.453585 
L 189.466346 141.434208 
L 189.263857 141.364947 
L 189.076459 141.30154 
L 188.892895 141.240071 
L 188.759667 141.195855 
L 188.581433 141.137222 
L 188.466631 141.099771 
L 188.370023 141.068445 
L 188.084179 140.976777 
L 187.986159 140.945692 
L 187.792151 140.884691 
L 187.670265 140.846722 
L 187.456528 140.780801 
L 187.306264 140.734959 
L 187.186986 140.698864 
L 187.027516 140.651014 
L 186.925362 140.620605 
L 186.669052 140.545145 
L 186.558864 140.513071 
L 186.454211 140.482812 
L 186.340078 140.450038 
L 186.111894 140.385218 
L 185.895667 140.32466 
L 185.76748 140.289155 
L 185.605515 140.244715 
L 185.550732 140.22979 
L 185.354646 140.176808 
L 185.173543 140.128482 
L 185.076315 140.102779 
L 184.778916 140.025197 
L 184.703846 140.005861 
L 184.607077 139.981083 
L 184.353854 139.917026 
L 184.179561 139.873591 
L 184.1038 139.854877 
L 183.852349 139.793486 
L 183.780058 139.776041 
L 183.680321 139.752123 
L 183.385802 139.682506 
L 183.349757 139.674089 
L 183.163999 139.631072 
L 183.034591 139.601459 
L 182.861888 139.562388 
L 182.659971 139.517363 
L 182.500131 139.482219 
L 182.383443 139.45684 
L 182.174676 139.412019 
L 182.054235 139.386501 
L 181.84084 139.341899 
L 181.725342 139.318083 
L 181.551893 139.282746 
L 181.366559 139.245554 
L 181.236858 139.219874 
L 181.124444 139.197848 
L 180.941575 139.162475 
L 180.837443 139.142585 
L 180.637736 139.104955 
L 180.543866 139.0875 
L 180.318116 139.04613 
L 180.138264 139.013787 
L 180.023391 138.993413 
L 179.889917 138.970019 
L 179.75915 138.94739 
L 179.465619 138.897637 
L 179.421546 138.890292 
L 179.202104 138.8542 
L 179.024346 138.825554 
L 178.962398 138.815695 
L 178.723283 138.778237 
L 178.543928 138.750766 
L 178.431462 138.733812 
L 178.324569 138.717893 
L 178.105446 138.685852 
L 177.99104 138.669439 
L 177.796039 138.641962 
L 177.697007 138.628249 
L 177.45907 138.595962 
L 177.390606 138.586845 
L 177.114481 138.550857 
L 177.065329 138.544582 
L 176.818877 138.51372 
L 176.684902 138.497361 
L 176.612291 138.488618 
L 176.354549 138.458281 
L 176.224865 138.443429 
L 176.145076 138.434427 
L 175.879956 138.405265 
L 175.711611 138.387344 
L 175.544689 138.37003 
L 175.404353 138.355826 
L 175.350572 138.350467 
L 175.145763 138.330492 
L 174.952624 138.312281 
L 174.793606 138.297742 
L 174.75314 138.294108 
L 174.456485 138.268277 
L 174.347023 138.259107 
L 174.213759 138.248204 
L 174.118352 138.240576 
L 173.958181 138.228101 
L 173.705276 138.209249 
L 173.50535 138.195078 
L 173.408524 138.188447 
L 173.221121 138.176044 
L 173.052745 138.165384 
L 172.925741 138.157646 
L 172.848974 138.153094 
L 172.701241 138.144604 
L 172.51723 138.13452 
L 172.392899 138.128016 
L 172.216675 138.119224 
L 172.078619 138.112686 
L 171.907739 138.105017 
L 171.653443 138.094476 
L 171.493683 138.088386 
L 171.409216 138.085332 
L 171.167951 138.07724 
L 171.150443 138.076689 
L 170.9418 138.070504 
L 170.727744 138.064886 
L 170.590904 138.06168 
L 170.433124 138.058357 
L 170.338675 138.056559 
L 170.134124 138.053156 
L 170.012528 138.051452 
L 169.872703 138.049785 
L 169.642591 138.047726 
L 169.58223 138.047326 
L 169.338667 138.046308 
L 169.2 138.046154 
L 169.2 262.661538 
L 169.420812 262.661147 
L 169.523106 262.660701 
L 169.660735 262.659835 
L 169.754246 262.659073 
L 169.963587 262.656859 
L 170.157018 262.654188 
L 170.264316 262.652448 
L 170.410475 262.649779 
L 170.616183 262.645442 
L 170.688273 262.643762 
L 170.96771 262.636458 
L 171.034572 262.634524 
L 171.225436 262.628609 
L 171.366269 262.623869 
L 171.480453 262.619792 
L 171.727638 262.610248 
L 171.932638 262.601587 
L 172.078579 262.595009 
L 172.183377 262.590073 
L 172.381397 262.580265 
L 172.425432 262.577998 
L 172.61942 262.56764 
L 172.729557 262.561488 
L 172.97601 262.547015 
L 173.119808 262.538118 
L 173.231693 262.530964 
L 173.400761 262.51977 
L 173.610527 262.50524 
L 173.735341 262.496257 
L 173.82193 262.489877 
L 174.104453 262.468215 
L 174.161057 262.46372 
L 174.378614 262.445959 
L 174.453163 262.439696 
L 174.625981 262.424832 
L 174.829424 262.406712 
L 175.044799 262.386796 
L 175.104008 262.381189 
L 175.277728 262.364408 
L 175.481154 262.344133 
L 175.594707 262.332522 
L 175.838445 262.306889 
L 176.006568 262.288644 
L 176.024478 262.286673 
L 176.30271 262.255381 
L 176.439505 262.239532 
L 176.528662 262.229037 
L 176.655391 262.213895 
L 176.870691 262.187567 
L 177.009255 262.17022 
L 177.177809 262.148693 
L 177.316157 262.130674 
L 177.421205 262.116782 
L 177.723499 262.075791 
L 177.828622 262.061183 
L 177.916774 262.048792 
L 178.096324 262.023157 
L 178.331216 261.988815 
L 178.449238 261.971215 
L 178.554159 261.955374 
L 178.722102 261.929638 
L 178.829006 261.913011 
L 179.097609 261.870396 
L 179.195273 261.854603 
L 179.307987 261.836178 
L 179.532654 261.79882 
L 179.691916 261.771826 
L 179.782144 261.756344 
L 179.98859 261.720407 
L 180.146219 261.692487 
L 180.254231 261.673113 
L 180.47568 261.632779 
L 180.639599 261.60239 
L 180.717401 261.587807 
L 180.991482 261.53562 
L 181.08016 261.518463 
L 181.221506 261.490839 
L 181.398246 261.455821 
L 181.519487 261.431492 
L 181.77918 261.378536 
L 181.936259 261.345946 
L 182.033978 261.325459 
L 182.142057 261.302609 
L 182.272298 261.274808 
L 182.564503 261.211373 
L 182.670795 261.187934 
L 182.749724 261.170402 
L 183.042406 261.104454 
L 183.145785 261.080806 
L 183.319422 261.040669 
L 183.476199 261.003979 
L 183.576892 260.980189 
L 183.771602 260.933686 
L 183.938935 260.893191 
L 184.063726 260.862673 
L 184.225747 260.822643 
L 184.323169 260.798352 
L 184.500964 260.75359 
L 184.764593 260.686192 
L 184.892012 260.653177 
L 184.981478 260.629824 
L 185.11021 260.595972 
L 185.391339 260.521022 
L 185.452094 260.50464 
L 185.591864 260.466701 
L 185.833372 260.400323 
L 185.942397 260.370016 
L 186.154528 260.310435 
L 186.256732 260.281439 
L 186.384763 260.244851 
L 186.606811 260.180692 
L 186.666066 260.163419 
L 186.871999 260.102896 
L 187.092719 260.03717 
L 187.165589 260.015275 
L 187.353796 259.958277 
L 187.593622 259.884705 
L 187.700803 259.851483 
L 187.782422 259.826042 
L 187.991939 259.760172 
L 188.065892 259.736728 
L 188.232511 259.683536 
L 188.408668 259.626737 
L 188.654117 259.546632 
L 188.828418 259.489062 
L 188.940144 259.45186 
L 189.045769 259.416474 
L 189.165968 259.375949 
L 189.408727 259.293272 
L 189.604173 259.225896 
L 189.715511 259.18719 
L 189.877073 259.130603 
L 189.972005 259.097121 
L 190.164491 259.028702 
L 190.278286 258.987918 
L 190.553922 258.888097 
L 190.682942 258.840868 
L 190.825526 258.788298 
L 191.01448 258.718022 
L 191.042922 258.707383 
L 191.253954 258.627954 
L 191.464607 258.547796 
L 191.583157 258.502301 
L 191.776996 258.427315 
L 191.830635 258.406433 
L 192.03449 258.326552 
L 192.290909 258.224896 
L 192.402705 258.180164 
L 192.566707 258.114088 
L 192.672921 258.071006 
L 192.788044 258.024052 
L 193.002852 257.935725 
L 193.164845 257.868494 
L 193.297485 257.813047 
L 193.449514 257.749051 
L 193.594376 257.687631 
L 193.822838 257.589887 
L 193.889716 257.56107 
L 194.080594 257.478312 
L 194.267734 257.396437 
L 194.361196 257.355274 
L 194.599194 257.249623 
L 194.696521 257.206075 
L 194.931817 257.099966 
L 195.026207 257.05707 
L 195.244026 256.957355 
L 195.368287 256.900016 
L 195.576592 256.80315 
L 195.721319 256.735298 
L 195.8329 256.682677 
L 195.926141 256.638497 
L 196.186877 256.513948 
L 196.276423 256.47083 
L 196.421741 256.400481 
L 196.573347 256.326593 
L 196.686073 256.271324 
L 196.944967 256.14332 
L 197.025601 256.103146 
L 197.212449 256.009495 
L 197.44084 255.893953 
L 197.486435 255.870745 
L 197.671238 255.776198 
L 197.79922 255.710265 
L 197.986291 255.613216 
L 198.163341 255.520624 
L 198.389703 255.401187 
L 198.45377 255.367167 
L 198.603493 255.287289 
L 198.71862 255.225511 
L 198.904023 255.125368 
L 199.116983 255.009337 
L 199.235411 254.944346 
L 199.409227 254.848351 
L 199.639408 254.720113 
L 199.730004 254.669289 
L 199.934525 254.553823 
L 200.026932 254.501319 
L 200.182771 254.4123 
L 200.353846 254.313891 
z
" style="fill:#808080;opacity:0.5;"/>
   </g>
   <g id="patch_7">
    <path clip-path="url(#pf8351bb2b3)" d="M 231.507692 200.353846 
L 231.50301 199.589997 
L 231.498328 199.27362 
L 231.493645 199.03087 
L 231.488963 198.826234 
L 231.484281 198.645956 
L 231.479598 198.482981 
L 231.474916 198.333119 
L 231.470234 198.193638 
L 231.465552 198.062643 
L 231.460869 197.938751 
L 231.456187 197.820921 
L 231.451505 197.708342 
L 231.446822 197.600369 
L 231.44214 197.496482 
L 231.437458 197.396249 
L 231.432775 197.29931 
L 231.423411 197.114143 
L 231.414046 196.939028 
L 231.404682 196.772489 
L 231.395317 196.613382 
L 231.385952 196.460794 
L 231.376588 196.313987 
L 231.367223 196.172351 
L 231.357858 196.035379 
L 231.348291 195.899813 
L 231.338724 195.768272 
L 231.329157 195.640421 
L 231.31959 195.515966 
L 231.300455 195.276253 
L 231.281321 195.047426 
L 231.262187 194.828134 
L 231.243052 194.617282 
L 231.223918 194.413972 
L 231.204784 194.217454 
L 231.177522 193.947969 
L 231.150261 193.689484 
L 231.122999 193.440765 
L 231.095738 193.200793 
L 231.076384 193.035264 
L 231.05703 192.873448 
L 231.037676 192.715108 
L 231.018322 192.560032 
L 230.979615 192.258927 
L 230.940907 191.968805 
L 230.901968 191.686918 
L 230.863029 191.414085 
L 230.82409 191.149499 
L 230.785152 190.892471 
L 230.757402 190.713579 
L 230.729653 190.538026 
L 230.674155 190.196246 
L 230.618656 189.865891 
L 230.563158 189.545913 
L 230.508753 189.241452 
L 230.454349 188.945373 
L 230.399945 188.657039 
L 230.34554 188.375891 
L 230.320973 188.251153 
L 230.247732 187.886971 
L 230.174491 187.533549 
L 230.120206 187.278029 
L 230.065922 187.027629 
L 230.011638 186.782065 
L 229.957353 186.54108 
L 229.895093 186.270018 
L 229.832832 186.004346 
L 229.770572 185.743769 
L 229.708311 185.48802 
L 229.629695 185.171604 
L 229.525329 184.76208 
L 229.454699 184.491319 
L 229.384069 184.225413 
L 229.313439 183.964124 
L 229.242809 183.707235 
L 229.235611 183.681295 
L 229.13853 183.335586 
L 229.041449 182.997305 
L 228.916976 182.573764 
L 228.831223 182.288248 
L 228.745469 182.007576 
L 228.67251 181.77243 
L 228.599551 181.540505 
L 228.458439 181.100641 
L 228.317327 180.671616 
L 228.231186 180.41475 
L 228.145046 180.161519 
L 228.086713 179.992031 
L 227.995983 179.731505 
L 227.905252 179.474624 
L 227.794681 179.166305 
L 227.684109 178.862977 
L 227.596455 178.625925 
L 227.488401 178.337696 
L 227.380346 178.053715 
L 227.311072 177.873814 
L 227.188065 177.55839 
L 227.065058 177.247925 
L 226.903442 176.847224 
L 226.734348 176.436337 
L 226.633004 176.193992 
L 226.50936 175.902143 
L 226.388679 175.621205 
L 226.267997 175.344004 
L 226.142334 175.059199 
L 225.981426 174.700032 
L 225.811529 174.327257 
L 225.677171 174.036976 
L 225.606744 173.88636 
L 225.372191 173.392142 
L 225.307817 173.258434 
L 225.12815 172.889496 
L 224.917347 172.464319 
L 224.783039 172.197597 
L 224.543672 171.729967 
L 224.389424 171.43368 
L 224.280145 171.226091 
L 224.15304 170.986996 
L 223.931731 170.576571 
L 223.875925 170.474226 
L 223.684965 170.127416 
L 223.553182 169.891081 
L 223.382476 169.588479 
L 223.193361 169.257777 
L 223.003902 168.931105 
L 222.884245 168.727111 
L 222.712415 168.437237 
L 222.607147 168.261399 
L 222.499646 168.083174 
L 222.305254 167.764269 
L 222.065695 167.377084 
L 221.901107 167.114685 
L 221.801054 166.956577 
L 221.60451 166.649012 
L 221.46271 166.429552 
L 221.323017 166.215311 
L 221.163757 165.97338 
L 221.066455 165.826764 
L 220.915106 165.600482 
L 220.710841 165.298435 
L 220.571564 165.09465 
L 220.382518 164.820786 
L 220.272792 164.663253 
L 220.017463 164.300636 
L 219.885261 164.115016 
L 219.73986 163.912509 
L 219.625976 163.755083 
L 219.407402 163.455807 
L 219.258104 163.253513 
L 219.186852 163.157568 
L 218.952121 162.844181 
L 218.894878 162.768375 
L 218.692498 162.502278 
L 218.557341 162.326206 
L 218.399992 162.122847 
L 218.248375 161.928523 
L 218.108157 161.75021 
L 217.958698 161.561606 
L 217.672143 161.204135 
L 217.643154 161.168271 
L 217.369104 160.831879 
L 217.229427 160.662251 
L 217.168784 160.588984 
L 216.89205 160.257501 
L 216.868193 160.229142 
L 216.672363 159.997642 
L 216.507587 159.804608 
L 216.346966 159.617964 
L 216.224556 159.476718 
L 215.978676 159.195567 
L 215.853714 159.053973 
L 215.657119 158.832952 
L 215.586573 158.754154 
L 215.425995 158.575791 
L 215.202256 158.329556 
L 215.068302 158.183389 
L 214.915156 158.01742 
L 214.756839 157.847106 
L 214.641058 157.723355 
L 214.400301 157.468169 
L 214.239581 157.299407 
L 214.171513 157.228313 
L 214.036574 157.088038 
L 213.809161 156.853602 
L 213.648887 156.689846 
L 213.533084 156.572272 
L 213.398391 156.436301 
L 213.141351 156.179123 
L 212.999048 156.038026 
L 212.876217 155.916963 
L 212.778893 155.821514 
L 212.619084 155.665686 
L 212.408581 155.462121 
L 212.243517 155.303828 
L 212.022062 155.093273 
L 211.885435 154.964396 
L 211.818711 154.90174 
L 211.617421 154.713832 
L 211.535083 154.637446 
L 211.332892 154.451036 
L 211.123567 154.259778 
L 211.041059 154.184871 
L 210.807745 153.974497 
L 210.662724 153.844804 
L 210.493066 153.694108 
L 210.319958 153.54148 
L 210.147395 153.390463 
L 210.099384 153.348645 
L 209.908744 153.183445 
L 209.697896 153.0023 
L 209.549849 152.87608 
L 209.493216 152.828008 
L 209.2093 152.58875 
L 209.109343 152.505201 
L 208.902972 152.333824 
L 208.784787 152.236353 
L 208.720466 152.18351 
L 208.51849 152.018509 
L 208.411883 151.931984 
L 208.240097 151.793375 
L 208.027965 151.623592 
L 207.930882 151.546395 
L 207.706796 151.369408 
L 207.58756 151.275911 
L 207.355044 151.094927 
L 207.202994 150.977526 
L 207.128052 150.919937 
L 206.8819 150.732047 
L 206.70904 150.601254 
L 206.672266 150.573551 
L 206.514874 150.455462 
L 206.345006 150.328882 
L 206.150954 150.185375 
L 205.995557 150.071289 
L 205.784599 149.917593 
L 205.673752 149.837374 
L 205.572046 149.764097 
L 205.286216 149.559816 
L 205.133347 149.451556 
L 205.090802 149.421549 
L 204.881935 149.275005 
L 204.67267 149.129455 
L 204.512113 149.018642 
L 204.426704 148.959996 
L 204.278958 148.859039 
L 204.052559 148.705539 
L 204.003967 148.672782 
L 203.783309 148.524865 
L 203.607376 148.407903 
L 203.415814 148.281525 
L 203.280093 148.192599 
L 203.110688 148.082307 
L 203.037554 148.034935 
L 202.842652 147.909395 
L 202.69546 147.815264 
L 202.604345 147.757285 
L 202.35044 147.596886 
L 202.181139 147.490882 
L 202.022674 147.392345 
L 201.975262 147.362991 
L 201.706632 147.19778 
L 201.593136 147.128539 
L 201.51173 147.079081 
L 201.368958 146.992749 
L 201.092061 146.826797 
L 200.974058 146.756665 
L 200.876871 146.699169 
L 200.64561 146.563307 
L 200.514897 146.487106 
L 200.353846 146.393802 
L 200.353846 254.313891 
L 200.539967 254.206005 
L 200.622786 254.157722 
L 200.851094 254.023733 
L 200.98807 253.942718 
L 201.187712 253.823789 
L 201.230101 253.798408 
L 201.460486 253.659658 
L 201.596099 253.577349 
L 201.748623 253.484211 
L 201.906372 253.387249 
L 202.087529 253.275099 
L 202.252912 253.171963 
L 202.409728 253.073506 
L 202.502267 253.015099 
L 202.739808 252.864129 
L 202.923414 252.746402 
L 202.997979 252.698331 
L 203.225652 252.550623 
L 203.275816 252.517888 
L 203.45206 252.402332 
L 203.669146 252.258822 
L 203.812889 252.163077 
L 204.013271 252.028644 
L 204.171789 251.921496 
L 204.295927 251.83709 
L 204.361494 251.792332 
L 204.626143 251.610425 
L 204.719326 251.545896 
L 204.921243 251.405206 
L 204.982348 251.362395 
L 205.137862 251.252948 
L 205.356733 251.097705 
L 205.562645 250.950354 
L 205.712946 250.841996 
L 205.823507 250.761854 
L 206.029201 250.611766 
L 206.203492 250.483579 
L 206.233658 250.461298 
L 206.518265 250.249694 
L 206.581951 250.201998 
L 206.842403 250.005613 
L 206.985493 249.896808 
L 207.10159 249.808047 
L 207.311998 249.646078 
L 207.383529 249.590688 
L 207.529365 249.477245 
L 207.713077 249.333346 
L 207.837296 249.235416 
L 208.038006 249.076098 
L 208.191334 248.95348 
L 208.293047 248.871701 
L 208.422154 248.767389 
L 208.593966 248.62769 
L 208.853731 248.414539 
L 209.003007 248.290984 
L 209.123855 248.190384 
L 209.340773 248.008509 
L 209.511741 247.863972 
L 209.618245 247.773399 
L 209.739812 247.669512 
L 209.934638 247.501887 
L 210.108525 247.351092 
L 210.164705 247.302131 
L 210.35219 247.13788 
L 210.470206 247.033806 
L 210.672408 246.854254 
L 210.792253 246.747089 
L 210.994661 246.564828 
L 211.079459 246.487992 
L 211.379113 246.214188 
L 211.414565 246.181556 
L 211.681203 245.934499 
L 211.812295 245.811968 
L 211.995912 245.639147 
L 212.120942 245.520662 
L 212.231054 245.415769 
L 212.427577 245.22728 
L 212.56424 245.095228 
L 212.768873 244.895982 
L 212.835274 244.830935 
L 213.083953 244.58559 
L 213.113033 244.55672 
L 213.333452 244.336649 
L 213.466796 244.202441 
L 213.663014 244.003461 
L 213.760865 243.903563 
L 213.935479 243.724175 
L 214.14213 243.509998 
L 214.338341 243.304734 
L 214.497917 243.136404 
L 214.55905 243.071583 
L 214.705045 242.916029 
L 214.941692 242.661601 
L 215.031978 242.563777 
L 215.250916 242.324808 
L 215.434885 242.122063 
L 215.577734 241.963392 
L 215.763993 241.754849 
L 215.8596 241.647069 
L 215.940705 241.555242 
L 216.132661 241.336451 
L 216.353341 241.082349 
L 216.507451 240.903243 
L 216.635943 240.752854 
L 216.831739 240.521818 
L 216.931977 240.402652 
L 217.160691 240.128469 
L 217.26484 240.00255 
L 217.404128 239.833088 
L 217.572308 239.626843 
L 217.799167 239.345762 
L 217.870349 239.256876 
L 218.064647 239.012542 
L 218.226867 238.806607 
L 218.328279 238.676956 
L 218.508606 238.444657 
L 218.668511 238.236758 
L 218.820611 238.03731 
L 219.000779 237.798885 
L 219.07272 237.703014 
L 219.221471 237.503556 
L 219.439423 237.208275 
L 219.533978 237.079031 
L 219.799604 236.712182 
L 219.939359 236.516893 
L 220.145287 236.226206 
L 220.204528 236.141926 
L 220.32961 235.962995 
L 220.484366 235.739752 
L 220.699769 235.425519 
L 220.81208 235.260031 
L 220.944083 235.064051 
L 221.116792 234.805191 
L 221.260992 234.586896 
L 221.446905 234.302476 
L 221.671163 233.954822 
L 221.804549 233.745611 
L 221.952874 233.510788 
L 222.163166 233.173834 
L 222.235477 233.056854 
L 222.459698 232.690406 
L 222.513172 232.602168 
L 222.749834 232.207634 
L 222.968387 231.83732 
L 223.102858 231.606532 
L 223.155869 231.514923 
L 223.342723 231.189119 
L 223.474115 230.957261 
L 223.616609 230.703166 
L 223.897237 230.194436 
L 223.960413 230.078343 
L 224.142122 229.741119 
L 224.327706 229.391486 
L 224.520803 229.021899 
L 224.580615 228.906183 
L 224.771898 228.532076 
L 224.870693 228.336385 
L 225.120746 227.833269 
L 225.177371 227.717736 
L 225.310216 227.44429 
L 225.443062 227.167397 
L 225.538821 226.965607 
L 225.652627 226.723326 
L 225.833184 226.333281 
L 226.030648 225.898434 
L 226.152491 225.625614 
L 226.295851 225.300034 
L 226.489772 224.851409 
L 226.683039 224.39441 
L 226.785412 224.148148 
L 226.985515 223.657983 
L 227.178871 223.172676 
L 227.304644 222.850486 
L 227.401707 222.598166 
L 227.49639 222.348832 
L 227.591073 222.096227 
L 227.703863 221.790884 
L 227.816652 221.480526 
L 227.939143 221.137532 
L 228.049113 220.824078 
L 228.211441 220.351306 
L 228.302749 220.079807 
L 228.394058 219.80409 
L 228.485167 219.524592 
L 228.576276 219.240519 
L 228.71153 218.809909 
L 228.785163 218.570787 
L 228.858795 218.328181 
L 228.964614 217.973138 
L 229.070433 217.610143 
L 229.151404 217.326696 
L 229.232376 217.038042 
L 229.288475 216.834855 
L 229.354542 216.592062 
L 229.420608 216.34531 
L 229.479298 216.122637 
L 229.537988 215.896552 
L 229.596678 215.666905 
L 229.655368 215.433533 
L 229.732982 215.118893 
L 229.79565 214.859562 
L 229.858317 214.595233 
L 229.920984 214.325624 
L 229.983652 214.050422 
L 230.043299 213.782974 
L 230.095087 213.546149 
L 230.146876 213.304788 
L 230.198664 213.058631 
L 230.250452 212.807394 
L 230.309868 212.512485 
L 230.369285 212.209946 
L 230.436061 211.860076 
L 230.502838 211.498828 
L 230.536226 211.313587 
L 230.569614 211.125057 
L 230.603002 210.933063 
L 230.63639 210.737412 
L 230.682158 210.462889 
L 230.727926 210.180485 
L 230.770853 209.907828 
L 230.81378 209.626959 
L 230.847077 209.402958 
L 230.880374 209.173143 
L 230.913671 208.937049 
L 230.946968 208.694141 
L 230.980264 208.443806 
L 231.013561 208.185331 
L 231.046858 207.917883 
L 231.080155 207.640473 
L 231.102689 207.446492 
L 231.125223 207.246979 
L 231.147757 207.041442 
L 231.170291 206.829306 
L 231.192825 206.609899 
L 231.215359 206.382428 
L 231.237893 206.145943 
L 231.260427 205.899291 
L 231.280246 205.672829 
L 231.300065 205.436208 
L 231.319885 205.187939 
L 231.329794 205.058862 
L 231.339704 204.926122 
L 231.349614 204.789389 
L 231.359523 204.648282 
L 231.369433 204.502354 
L 231.379343 204.351078 
L 231.389252 204.193822 
L 231.399162 204.029818 
L 231.409072 203.858118 
L 231.418981 203.677531 
L 231.424526 203.572062 
L 231.43007 203.463007 
L 231.435615 203.349975 
L 231.441159 203.232498 
L 231.446704 203.110007 
L 231.452248 202.981801 
L 231.457792 202.846998 
L 231.463337 202.704465 
L 231.468881 202.552698 
L 231.471653 202.472736 
L 231.474426 202.389632 
L 231.477198 202.302985 
L 231.47997 202.212298 
L 231.482742 202.116948 
L 231.485515 202.016133 
L 231.488287 201.90879 
L 231.491059 201.79346 
L 231.493831 201.668043 
L 231.496603 201.529312 
L 231.499376 201.371841 
L 231.502148 201.185045 
L 231.50492 200.941599 
z
" style="fill:#808080;opacity:0.5;"/>
   </g>
   <g id="matplotlib.axis_1"/>
   <g id="matplotlib.axis_2"/>
   <g id="line2d_1">
    <path clip-path="url(#pf8351bb2b3)" d="M 138.046154 138.046154 
L 138.175156 142.053517 
L 138.51808 145.700339 
L 139.091975 149.414163 
L 139.857974 152.962521 
L 140.835184 156.479204 
L 142.093838 160.137328 
L 143.487276 163.510673 
L 145.15021 166.939181 
L 146.951402 170.146425 
L 149.04133 173.391227 
L 151.123751 176.238382 
L 153.606508 179.240023 
L 156.049313 181.856619 
L 158.805126 184.478388 
L 161.794667 186.989368 
L 164.887616 189.275004 
L 167.914574 191.243354 
L 169.2 192.006198 
L 169.2 192.006198 
" style="fill:none;stroke:#ff0000;stroke-linecap:square;"/>
   </g>
   <g id="line2d_2">
    <path clip-path="url(#pf8351bb2b3)" d="M 106.892308 200.353846 
L 107.039562 204.635024 
L 107.392844 208.235723 
L 107.976907 211.928878 
L 108.755821 215.478319 
L 109.829401 219.258358 
L 110.97288 222.53156 
L 112.394809 225.954996 
L 114.095984 229.436417 
L 115.652879 232.212195 
L 117.711175 235.441586 
L 120.019967 238.610517 
L 122.469801 241.567157 
L 124.913557 244.182598 
L 127.929952 247.033945 
L 130.990157 249.57027 
L 134.185416 251.892447 
L 137.242388 253.841784 
L 140.356028 255.58313 
L 143.722954 257.214805 
L 147.338321 258.700359 
L 150.852093 259.898811 
L 154.531238 260.910233 
L 158.109647 261.66659 
L 161.876356 262.229631 
L 165.411197 262.546237 
L 169.2 262.661538 
L 169.2 262.661538 
" style="fill:none;stroke:#228b22;stroke-linecap:square;"/>
   </g>
   <g id="line2d_3">
    <path clip-path="url(#pf8351bb2b3)" d="M 169.2 262.661538 
L 172.97601 262.547015 
L 176.655391 262.213895 
L 180.254231 261.673113 
L 183.938935 260.893191 
L 187.353796 259.958277 
L 190.825526 258.788298 
L 194.361196 257.355274 
L 197.79922 255.710265 
L 200.353846 254.313891 
L 200.353846 254.313891 
" style="fill:none;stroke:#228b22;stroke-linecap:square;"/>
   </g>
   <g id="line2d_4">
    <path clip-path="url(#pf8351bb2b3)" d="M 200.353846 254.313891 
L 203.45206 252.402332 
L 206.581951 250.201998 
L 209.511741 247.863972 
L 212.231054 245.415769 
L 214.705045 242.916029 
L 217.26484 240.00255 
L 219.533978 237.079031 
L 221.671163 233.954822 
L 223.616609 230.703166 
L 225.443062 227.167397 
L 226.985515 223.657983 
L 228.302749 220.079807 
L 229.354542 216.592062 
L 230.198664 213.058631 
L 230.847077 209.402958 
L 231.280246 205.672829 
L 231.488287 201.90879 
L 231.507692 200.353846 
L 231.507692 200.353846 
" style="fill:none;stroke:#228b22;stroke-linecap:square;"/>
   </g>
   <g id="text_1">
    <!-- $\Omega$ -->
    <g transform="translate(16.011538 22.420913)scale(0.1 -0.1)">
     <defs>
      <path d="M 7.71875 0 
L 4.390625 16.609375 
L 7.328125 16.609375 
Q 7.859375 13.71875 8.296875 11.5 
Q 8.734375 9.28125 9.4375 8.375 
Q 10.15625 7.46875 11.71875 7.171875 
Q 13.28125 6.890625 16.890625 6.890625 
L 23 6.890625 
Q 21.53125 12.546875 15.6875 21.65625 
Q 9.859375 30.765625 7.734375 34.890625 
Q 5.609375 39.015625 5.609375 45.515625 
Q 5.609375 53.078125 10.09375 58.765625 
Q 14.59375 64.453125 21.703125 67.484375 
Q 28.8125 70.515625 36.078125 70.515625 
Q 43.3125 70.515625 50.40625 67.484375 
Q 57.515625 64.453125 62 58.71875 
Q 66.5 52.984375 66.5 45.515625 
Q 66.5 40.4375 64.640625 35.9375 
Q 62.796875 31.453125 59.90625 26.953125 
Q 57.03125 22.46875 53.6875 16.9375 
Q 50.34375 11.421875 49.125 6.890625 
L 55.171875 6.890625 
Q 58.84375 6.890625 60.453125 7.171875 
Q 62.0625 7.46875 62.734375 8.375 
Q 63.421875 9.28125 63.84375 11.5 
Q 64.265625 13.71875 64.796875 16.609375 
L 67.671875 16.609375 
L 64.40625 0 
L 46.6875 0 
Q 45.703125 0 45.703125 1.3125 
Q 45.703125 6.390625 46.9375 11.265625 
Q 48.1875 16.15625 50.625 23.09375 
Q 53.078125 30.03125 54.4375 35.328125 
Q 55.8125 40.625 55.8125 45.515625 
Q 55.8125 51.515625 53.46875 56.640625 
Q 51.125 61.765625 46.625 64.84375 
Q 42.140625 67.921875 36.078125 67.921875 
Q 26.953125 67.921875 21.625 61.40625 
Q 16.3125 54.890625 16.3125 45.515625 
Q 16.359375 40.375 17.53125 35.828125 
Q 18.703125 31.296875 21.3125 23.71875 
Q 23.921875 16.15625 25.171875 11.265625 
Q 26.421875 6.390625 26.421875 1.3125 
Q 26.421875 0 25.390625 0 
z
" id="Cmr10-173"/>
     </defs>
     <use transform="translate(0 0.484375)" xlink:href="#Cmr10-173"/>
    </g>
   </g>
   <g id="text_2">
    <!-- $A$ -->
    <g style="fill:#0000ff;" transform="translate(103.142308 78.497837)scale(0.1 -0.1)">
     <defs>
      <path d="M 4.5 0 
Q 3.515625 0 3.515625 1.3125 
Q 3.90625 3.515625 4.78125 3.515625 
Q 8.84375 3.515625 11.796875 5.125 
Q 14.75 6.734375 16.890625 10.109375 
Q 17.09375 10.296875 17.09375 10.296875 
L 52.78125 70.515625 
Q 53.5625 71.578125 54.6875 71.578125 
L 56 71.578125 
Q 56.296875 71.578125 56.59375 71.453125 
Q 56.890625 71.34375 57.109375 71.0625 
Q 57.328125 70.796875 57.328125 70.515625 
L 63.375 5.90625 
Q 63.375 5.46875 63.8125 4.59375 
Q 64.796875 3.515625 71.296875 3.515625 
Q 72.3125 3.515625 72.3125 2.203125 
Q 71.96875 0.875 71.75 0.4375 
Q 71.53125 0 70.609375 0 
L 45.609375 0 
Q 44.671875 0 44.671875 1.3125 
Q 45.21875 3.515625 46 3.515625 
Q 53.90625 3.515625 54.390625 6.203125 
L 52.875 22.703125 
L 28.21875 22.703125 
L 20.21875 9.28125 
Q 19.484375 8.203125 19.484375 6.78125 
Q 19.484375 5.03125 21.171875 4.265625 
Q 22.859375 3.515625 24.90625 3.515625 
Q 25.875 3.515625 25.875 2.203125 
Q 25.53125 0.78125 25.328125 0.390625 
Q 25.140625 0 24.21875 0 
z
M 30.171875 26.21875 
L 52.484375 26.21875 
L 49.515625 58.59375 
z
" id="Cmmi10-65"/>
     </defs>
     <use transform="translate(0 0.421875)" xlink:href="#Cmmi10-65"/>
    </g>
   </g>
   <g id="text_3">
    <!-- $B$ -->
    <g style="fill:#ff0000;" transform="translate(227.707692 78.497837)scale(0.1 -0.1)">
     <defs>
      <path d="M 4.984375 0 
Q 4 0 4 1.3125 
Q 4.046875 1.5625 4.1875 2.140625 
Q 4.34375 2.734375 4.578125 3.125 
Q 4.828125 3.515625 5.328125 3.515625 
Q 8.15625 3.515625 10.25 3.65625 
Q 12.359375 3.8125 13.8125 4.203125 
Q 14.984375 4.640625 15.71875 6.890625 
L 29.390625 61.8125 
Q 29.59375 62.796875 29.59375 63.1875 
Q 29.59375 64.265625 28.421875 64.40625 
Q 26.515625 64.796875 21.1875 64.796875 
Q 20.21875 64.796875 20.21875 66.109375 
Q 20.265625 66.359375 20.40625 66.96875 
Q 20.5625 67.578125 20.828125 67.9375 
Q 21.09375 68.3125 21.484375 68.3125 
L 57.328125 68.3125 
Q 60.59375 68.3125 63.796875 67.5 
Q 67 66.703125 69.703125 64.9375 
Q 72.40625 63.1875 74 60.5625 
Q 75.59375 57.953125 75.59375 54.5 
Q 75.59375 50.734375 73.65625 47.5 
Q 71.734375 44.28125 68.671875 41.890625 
Q 65.625 39.5 62.078125 37.953125 
Q 58.546875 36.421875 54.6875 35.6875 
Q 57.421875 35.6875 60.21875 34.609375 
Q 63.03125 33.546875 65.234375 31.6875 
Q 67.4375 29.828125 68.78125 27.234375 
Q 70.125 24.65625 70.125 21.6875 
Q 70.125 15.671875 65.921875 10.6875 
Q 61.71875 5.71875 55.34375 2.859375 
Q 48.96875 0 43.015625 0 
z
M 23.390625 4.296875 
Q 23.390625 3.515625 26.8125 3.515625 
L 41.109375 3.515625 
Q 46 3.515625 50.484375 6.21875 
Q 54.984375 8.9375 57.6875 13.421875 
Q 60.40625 17.921875 60.40625 22.796875 
Q 60.40625 25.78125 59.15625 28.4375 
Q 57.90625 31.109375 55.5625 32.640625 
Q 53.21875 34.1875 50.203125 34.1875 
L 30.71875 34.1875 
L 23.78125 6.5 
Q 23.390625 5.125 23.390625 4.296875 
z
M 31.390625 36.8125 
L 46.578125 36.8125 
Q 51.375 36.8125 55.890625 39.25 
Q 60.40625 41.703125 63.25 45.890625 
Q 66.109375 50.09375 66.109375 54.78125 
Q 66.109375 59.125 63.390625 61.953125 
Q 60.6875 64.796875 56.390625 64.796875 
L 42.671875 64.796875 
Q 39.984375 64.796875 39.0625 64.296875 
Q 38.140625 63.8125 37.5 61.375 
z
" id="Cmmi10-66"/>
     </defs>
     <use transform="translate(0 0.6875)" xlink:href="#Cmmi10-66"/>
    </g>
   </g>
   <g id="text_4">
    <!-- $C$ -->
    <g style="fill:#228b22;" transform="translate(150.023077 271.651683)scale(0.1 -0.1)">
     <defs>
      <path d="M 14.59375 21.578125 
Q 14.59375 15.578125 16.90625 11.015625 
Q 19.234375 6.453125 23.65625 3.875 
Q 28.078125 1.3125 34.078125 1.3125 
Q 40.375 1.3125 46.203125 4.53125 
Q 52.046875 7.765625 56.171875 13.15625 
Q 60.296875 18.5625 61.8125 24.609375 
Q 62.015625 25.203125 62.59375 25.203125 
L 63.8125 25.203125 
Q 64.203125 25.203125 64.453125 24.921875 
Q 64.703125 24.65625 64.703125 24.3125 
Q 64.703125 24.21875 64.59375 24.03125 
Q 62.890625 17.09375 57.984375 11.015625 
Q 53.078125 4.9375 46.234375 1.359375 
Q 39.40625 -2.203125 32.171875 -2.203125 
Q 24.359375 -2.203125 18.15625 1.3125 
Q 11.96875 4.828125 8.515625 11.078125 
Q 5.078125 17.328125 5.078125 25.203125 
Q 5.078125 33.59375 8.828125 41.8125 
Q 12.59375 50.046875 18.9375 56.46875 
Q 25.296875 62.890625 33.421875 66.703125 
Q 41.546875 70.515625 49.90625 70.515625 
Q 53.21875 70.515625 56.25 69.5 
Q 59.28125 68.5 61.859375 66.453125 
Q 64.453125 64.40625 66.109375 61.71875 
L 74.03125 70.3125 
Q 74.03125 70.515625 74.515625 70.515625 
L 75.09375 70.515625 
Q 75.484375 70.515625 75.734375 70.171875 
Q 75.984375 69.828125 75.984375 69.484375 
L 69.1875 42.484375 
Q 69.1875 41.796875 68.40625 41.796875 
L 66.609375 41.796875 
Q 65.828125 41.796875 65.828125 42.921875 
Q 66.21875 45.125 66.21875 48.1875 
Q 66.21875 53.078125 64.546875 57.390625 
Q 62.890625 61.71875 59.390625 64.359375 
Q 55.90625 67 50.875 67 
Q 42.71875 67 35.9375 62.890625 
Q 29.15625 58.796875 24.4375 52.125 
Q 19.734375 45.453125 17.15625 37.328125 
Q 14.59375 29.203125 14.59375 21.578125 
z
" id="Cmmi10-67"/>
     </defs>
     <use transform="translate(0 0.484375)" xlink:href="#Cmmi10-67"/>
    </g>
   </g>
   <g id="patch_8">
    <path clip-path="url(#pf8351bb2b3)" d="M 138.046154 200.353846 
C 154.570347 200.353846 170.419977 193.788715 182.104346 182.104346 
C 193.788715 170.419977 200.353846 154.570347 200.353846 138.046154 
C 200.353846 121.521961 193.788715 105.672331 182.104346 93.987962 
C 170.419977 82.303593 154.570347 75.738462 138.046154 75.738462 
C 121.521961 75.738462 105.672331 82.303593 93.987962 93.987962 
C 82.303593 105.672331 75.738462 121.521961 75.738462 138.046154 
C 75.738462 154.570347 82.303593 170.419977 93.987962 182.104346 
C 105.672331 193.788715 121.521961 200.353846 138.046154 200.353846 
z
" style="fill:none;stroke:#0000ff;stroke-linejoin:miter;"/>
   </g>
   <g id="patch_9">
    <path clip-path="url(#pf8351bb2b3)" d="M 200.353846 200.353846 
C 216.878039 200.353846 232.727669 193.788715 244.412038 182.104346 
C 256.096407 170.419977 262.661538 154.570347 262.661538 138.046154 
C 262.661538 121.521961 256.096407 105.672331 244.412038 93.987962 
C 232.727669 82.303593 216.878039 75.738462 200.353846 75.738462 
C 183.829653 75.738462 167.980023 82.303593 156.295654 93.987962 
C 144.611285 105.672331 138.046154 121.521961 138.046154 138.046154 
C 138.046154 154.570347 144.611285 170.419977 156.295654 182.104346 
C 167.980023 193.788715 183.829653 200.353846 200.353846 200.353846 
z
" style="fill:none;stroke:#ff0000;stroke-linejoin:miter;"/>
   </g>
   <g id="patch_10">
    <path clip-path="url(#pf8351bb2b3)" d="M 169.2 262.661538 
C 185.724193 262.661538 201.573823 256.096407 213.258192 244.412038 
C 224.942561 232.727669 231.507692 216.878039 231.507692 200.353846 
C 231.507692 183.829653 224.942561 167.980023 213.258192 156.295654 
C 201.573823 144.611285 185.724193 138.046154 169.2 138.046154 
C 152.675807 138.046154 136.826177 144.611285 125.141808 156.295654 
C 113.457439 167.980023 106.892308 183.829653 106.892308 200.353846 
C 106.892308 216.878039 113.457439 232.727669 125.141808 244.412038 
C 136.826177 256.096407 152.675807 262.661538 169.2 262.661538 
z
" style="fill:none;stroke:#228b22;stroke-linejoin:miter;"/>
   </g>
  </g>
 </g>
 <defs>
  <clipPath id="pf8351bb2b3">
   <rect height="324" width="324" x="7.2" y="7.2"/>
  </clipPath>
 </defs>
</svg>
