<?xml version="1.0" encoding="utf-8" standalone="no"?>
<!DOCTYPE svg PUBLIC "-//W3C//DTD SVG 1.1//EN"
  "http://www.w3.org/Graphics/SVG/1.1/DTD/svg11.dtd">
<svg xmlns:xlink="http://www.w3.org/1999/xlink" width="338.4pt" height="338.4pt" viewBox="0 0 338.4 338.4" xmlns="http://www.w3.org/2000/svg" version="1.1">
 <metadata>
  <rdf:RDF xmlns:dc="http://purl.org/dc/elements/1.1/" xmlns:cc="http://creativecommons.org/ns#" xmlns:rdf="http://www.w3.org/1999/02/22-rdf-syntax-ns#">
   <cc:Work>
    <dc:type rdf:resource="http://purl.org/dc/dcmitype/StillImage"/>
    <dc:date>2025-08-24T20:28:53.329653</dc:date>
    <dc:format>image/svg+xml</dc:format>
    <dc:creator>
     <cc:Agent>
      <dc:title>Matplotlib v3.8.0, https://matplotlib.org/</dc:title>
     </cc:Agent>
    </dc:creator>
   </cc:Work>
  </rdf:RDF>
 </metadata>
 <defs>
  <style type="text/css">*{stroke-linejoin: round; stroke-linecap: butt}</style>
 </defs>
 <g id="figure_1">
  <g id="patch_1">
   <path d="M -0 338.4 
L 338.4 338.4 
L 338.4 0 
L -0 0 
z
" style="fill: #ffffff"/>
  </g>
  <g id="axes_1">
   <g id="patch_2">
    <path d="M 7.2 331.2 
L 331.2 331.2 
L 331.2 7.2 
L 7.2 7.2 
z
" style="fill: #ffffff"/>
   </g>
   <g id="patch_3">
    <path d="M 13.430769 324.969231 
L 13.430769 13.430769 
L 324.969231 13.430769 
L 324.969231 324.969231 
L 13.430769 324.969231 
z
" clip-path="url(#pb0c4a4143a)" style="fill: none; stroke: #000000; stroke-linejoin: miter"/>
   </g>
   <g id="patch_4">
    <path d="M 200.353846 138.046154 
L 200.34959 138.774398 
L 200.345334 139.076029 
L 200.341078 139.307467 
L 200.336822 139.502568 
L 200.332566 139.674447 
L 200.32831 139.829829 
L 200.324054 139.97271 
L 200.319798 140.105694 
L 200.315543 140.230588 
L 200.311287 140.348711 
L 200.307031 140.461055 
L 200.302775 140.568392 
L 200.298519 140.671338 
L 200.294263 140.77039 
L 200.290007 140.865958 
L 200.285751 140.958385 
L 200.277239 141.134936 
L 200.268727 141.301905 
L 200.260215 141.460698 
L 200.251703 141.612407 
L 200.243191 141.7579 
L 200.234679 141.897884 
L 200.226167 142.032937 
L 200.217655 142.163545 
L 200.209106 142.290671 
L 200.200556 142.414082 
L 200.192007 142.534084 
L 200.183457 142.650944 
L 200.166358 142.876145 
L 200.149258 143.091245 
L 200.132159 143.297486 
L 200.11506 143.495874 
L 200.09796 143.687238 
L 200.080861 143.872269 
L 200.064063 144.048444 
L 200.047265 144.219547 
L 200.030466 144.38599 
L 200.013668 144.54813 
L 199.99687 144.706282 
L 199.980072 144.860723 
L 199.963273 145.011699 
L 199.946475 145.159433 
L 199.912879 145.445943 
L 199.879282 145.721618 
L 199.845686 145.987588 
L 199.812089 146.244796 
L 199.771056 146.54821 
L 199.746148 146.727124 
L 199.72124 146.902353 
L 199.696332 147.074113 
L 199.671424 147.242599 
L 199.621608 147.570437 
L 199.571792 147.887108 
L 199.524811 148.176469 
L 199.477829 148.457579 
L 199.430848 148.731089 
L 199.383867 148.997569 
L 199.341952 149.229786 
L 199.300038 149.457124 
L 199.258123 149.67987 
L 199.216208 149.898282 
L 199.141314 150.278483 
L 199.06642 150.646773 
L 199.025177 150.844875 
L 198.983934 151.039826 
L 198.901447 151.420826 
L 198.862446 151.597062 
L 198.794894 151.896754 
L 198.727341 152.189774 
L 198.659789 152.47653 
L 198.592237 152.757387 
L 198.506045 153.107695 
L 198.416039 153.464504 
L 198.326032 153.812726 
L 198.267726 154.033987 
L 198.209419 154.252017 
L 198.092807 154.678893 
L 198.054458 154.816721 
L 197.991289 155.041132 
L 197.92812 155.262387 
L 197.801781 155.6959 
L 197.710021 156.003645 
L 197.618261 156.305744 
L 197.530391 156.589995 
L 197.412614 156.963658 
L 197.287465 157.351995 
L 197.200211 157.617715 
L 197.112957 157.879492 
L 196.995989 158.224495 
L 196.879021 158.563032 
L 196.783829 158.833988 
L 196.688637 159.101028 
L 196.622632 159.283969 
L 196.448899 159.757162 
L 196.270453 160.231273 
L 196.172442 160.486812 
L 196.074431 160.739051 
L 196.004544 160.916956 
L 195.876287 161.239348 
L 195.74803 161.556621 
L 195.656148 161.780877 
L 195.52659 162.092942 
L 195.411963 162.365126 
L 195.26514 162.708597 
L 195.14807 162.978456 
L 195.031 163.244881 
L 194.882594 163.577853 
L 194.795185 163.771549 
L 194.611703 164.172524 
L 194.391829 164.643398 
L 194.233273 164.976733 
L 194.062259 165.330664 
L 193.92476 165.611167 
L 193.77942 165.903856 
L 193.616775 166.226902 
L 193.404022 166.642569 
L 193.355774 166.735777 
L 193.196713 167.040366 
L 192.949216 167.506336 
L 192.787995 167.804838 
L 192.723875 167.922488 
L 192.502017 168.324984 
L 192.387953 168.52922 
L 192.222218 168.82281 
L 192.007657 169.197473 
L 191.868737 169.436885 
L 191.708309 169.710356 
L 191.614823 169.868256 
L 191.472533 170.106574 
L 191.293853 170.402468 
L 191.177431 170.593288 
L 190.98949 170.89812 
L 190.806953 171.190484 
L 190.654631 171.431729 
L 190.454758 171.744622 
L 190.38131 171.858577 
L 190.222504 172.103121 
L 190.074222 172.32922 
L 189.796405 172.747163 
L 189.664214 172.943495 
L 189.509387 173.171417 
L 189.410174 173.316339 
L 189.281068 173.503623 
L 189.043918 173.843872 
L 188.859131 174.105687 
L 188.74547 174.265318 
L 188.536013 174.556736 
L 188.41745 174.720137 
L 188.27184 174.9193 
L 188.133906 175.106451 
L 188.052726 175.215916 
L 187.752137 175.616938 
L 187.640713 175.763898 
L 187.509338 175.93602 
L 187.378089 176.106746 
L 187.178205 176.364427 
L 187.092284 176.474342 
L 186.949158 176.656316 
L 186.783693 176.864973 
L 186.56142 177.142413 
L 186.452726 177.276911 
L 186.186121 177.603606 
L 186.106185 177.700686 
L 185.898816 177.95068 
L 185.740194 178.140132 
L 185.584449 178.324672 
L 185.548667 178.366865 
L 185.358543 178.589789 
L 185.155257 178.825817 
L 184.999941 179.004552 
L 184.816667 179.213709 
L 184.662416 179.388295 
L 184.471245 179.602855 
L 184.364797 179.721469 
L 184.228319 179.872654 
L 184.099705 180.014224 
L 183.930189 180.199491 
L 183.704521 180.443819 
L 183.556577 180.602586 
L 183.402081 180.767207 
L 183.293613 180.882073 
L 183.148446 181.034894 
L 182.986422 181.204245 
L 182.878019 181.316841 
L 182.640887 181.561189 
L 182.432669 181.773557 
L 182.323234 181.884364 
L 182.119427 182.089259 
L 182.106838 182.101853 
L 181.926561 182.281416 
L 181.681839 182.522839 
L 181.606198 182.596923 
L 181.46356 182.735944 
L 181.309559 182.885047 
L 181.13397 183.053805 
L 180.880988 183.29464 
L 180.713118 183.452967 
L 180.665626 183.497547 
L 180.464789 183.68504 
L 180.311351 183.827172 
L 180.211757 183.918917 
L 180.013399 184.100457 
L 179.862567 184.237453 
L 179.712974 184.372438 
L 179.57191 184.498927 
L 179.39502 184.656451 
L 179.258636 184.777084 
L 178.995086 185.008197 
L 178.983164 185.01859 
L 178.694479 185.268629 
L 178.617094 185.335131 
L 178.442685 185.484206 
L 178.243114 185.653432 
L 178.122423 185.755075 
L 177.989531 185.866392 
L 177.74214 186.071951 
L 177.691317 186.113914 
L 177.571502 186.212484 
L 177.41108 186.343681 
L 177.175296 186.534902 
L 177.00202 186.674222 
L 176.803647 186.832476 
L 176.668111 186.939844 
L 176.60056 186.993128 
L 176.423745 187.131885 
L 176.301066 187.227555 
L 176.107398 187.377586 
L 175.881812 187.550816 
L 175.795241 187.616861 
L 175.625382 187.745753 
L 175.502676 187.838296 
L 175.361691 187.944042 
L 175.177014 188.081619 
L 175.012769 188.203087 
L 174.80144 188.358155 
L 174.742872 188.40089 
L 174.475916 188.594358 
L 174.384578 188.66006 
L 174.238292 188.764766 
L 173.994858 188.937599 
L 173.903942 189.001699 
L 173.773559 189.093201 
L 173.558919 189.242756 
L 173.497334 189.28542 
L 173.318961 189.408373 
L 173.047621 189.593664 
L 172.967736 189.647816 
L 172.814693 189.751059 
L 172.659033 189.855392 
L 172.565667 189.917647 
L 172.407458 190.022584 
L 172.16033 190.185117 
L 172.064237 190.247864 
L 171.895067 190.357717 
L 171.672331 190.50117 
L 171.569496 190.56695 
L 171.411344 190.667562 
L 171.219192 190.788908 
L 171.110835 190.856904 
L 170.897839 190.989664 
L 170.770199 191.068653 
L 170.614842 191.164221 
L 170.410362 191.289055 
L 170.311514 191.349015 
L 170.167978 191.435637 
L 169.930005 191.578093 
L 169.874771 191.610952 
L 169.707822 191.709803 
L 169.452257 191.859769 
L 169.434277 191.870259 
L 169.2 192.006198 
L 169.2 192.006198 
L 169.339257 192.086359 
L 169.552834 192.208375 
L 169.707351 192.295954 
L 169.903249 192.406154 
L 170.028123 192.475916 
L 170.09692 192.51419 
L 170.348243 192.653043 
L 170.524999 192.749795 
L 170.611641 192.796951 
L 170.715314 192.853142 
L 170.916888 192.961671 
L 171.058986 193.037605 
L 171.311068 193.171153 
L 171.367284 193.200734 
L 171.582106 193.313101 
L 171.650118 193.348455 
L 171.935792 193.495795 
L 171.957307 193.506816 
L 172.111451 193.58547 
L 172.306863 193.684408 
L 172.504489 193.783591 
L 172.690812 193.876299 
L 172.766753 193.913862 
L 172.922772 193.990633 
L 173.126538 194.090085 
L 173.193483 194.122559 
L 173.38436 194.214609 
L 173.659476 194.34588 
L 173.761923 194.39434 
L 173.844161 194.433077 
L 174.09521 194.550424 
L 174.249082 194.621677 
L 174.350291 194.668267 
L 174.559614 194.76393 
L 174.711902 194.832941 
L 174.773446 194.860691 
L 175.064484 194.990835 
L 175.134912 195.02206 
L 175.277392 195.084913 
L 175.482874 195.174809 
L 175.633671 195.240222 
L 175.723846 195.279113 
L 175.974924 195.386512 
L 176.057898 195.421718 
L 176.266672 195.509678 
L 176.414221 195.571304 
L 176.579872 195.639962 
L 176.765641 195.716294 
L 176.920337 195.779326 
L 177.052277 195.832704 
L 177.193644 195.889508 
L 177.365652 195.958082 
L 177.558958 196.034442 
L 177.598739 196.050064 
L 177.776086 196.119325 
L 177.959112 196.190151 
L 178.141284 196.259989 
L 178.238192 196.296874 
L 178.387684 196.353411 
L 178.665206 196.45721 
L 178.741705 196.485557 
L 178.850532 196.525689 
L 179.050941 196.598991 
L 179.210455 196.65678 
L 179.323774 196.697536 
L 179.585777 196.79082 
L 179.680239 196.82413 
L 179.864081 196.888469 
L 180.078254 196.962611 
L 180.08867 196.966194 
L 180.252125 197.02216 
L 180.448066 197.088583 
L 180.569499 197.129384 
L 180.813708 197.210598 
L 180.884839 197.234044 
L 181.151539 197.321106 
L 181.309734 197.37212 
L 181.444611 197.415248 
L 181.507546 197.435256 
L 181.691474 197.49331 
L 181.927425 197.566869 
L 182.073107 197.611774 
L 182.270902 197.672118 
L 182.408467 197.713665 
L 182.434822 197.721585 
L 182.671363 197.792102 
L 182.818857 197.835557 
L 182.997759 197.887734 
L 183.180456 197.940421 
L 183.317741 197.979614 
L 183.442028 198.014803 
L 183.566586 198.04979 
L 183.694839 198.085524 
L 183.852161 198.128954 
L 184.071148 198.18867 
L 184.263492 198.240414 
L 184.318384 198.255061 
L 184.51524 198.307145 
L 184.685498 198.351638 
L 184.789508 198.378566 
L 184.979484 198.427256 
L 185.158176 198.472474 
L 185.303504 198.508834 
L 185.556632 198.571281 
L 185.652223 198.594571 
L 185.871965 198.647504 
L 186.026703 198.684273 
L 186.18196 198.720746 
L 186.329799 198.755087 
L 186.413003 198.774248 
L 186.612158 198.819623 
L 186.754113 198.851546 
L 186.859139 198.874941 
L 187.013362 198.90895 
L 187.23267 198.956607 
L 187.348297 198.9814 
L 187.453274 199.003711 
L 187.617082 199.038148 
L 187.800229 199.076107 
L 187.920232 199.100669 
L 188.192949 199.155573 
L 188.301349 199.177045 
L 188.430201 199.202308 
L 188.550429 199.225626 
L 188.784324 199.270289 
L 188.918285 199.295452 
L 189.041245 199.318281 
L 189.25789 199.357884 
L 189.380407 199.379931 
L 189.528961 199.406323 
L 189.634461 199.424841 
L 189.78733 199.451343 
L 190.045622 199.495231 
L 190.252739 199.529616 
L 190.412692 199.555681 
L 190.534557 199.575253 
L 190.690057 199.599868 
L 190.867359 199.627442 
L 190.945899 199.63949 
L 191.147556 199.669954 
L 191.202408 199.678124 
L 191.400031 199.707144 
L 191.614503 199.737907 
L 191.729235 199.754051 
L 191.83494 199.768733 
L 192.112558 199.806414 
L 192.17602 199.814849 
L 192.422745 199.847013 
L 192.479537 199.854274 
L 192.74229 199.887182 
L 192.903544 199.906816 
L 192.957645 199.913308 
L 193.09021 199.929012 
L 193.386557 199.963077 
L 193.409362 199.965639 
L 193.646011 199.991722 
L 193.771893 200.005224 
L 193.864529 200.014995 
L 194.067768 200.035941 
L 194.193174 200.04853 
L 194.385561 200.067344 
L 194.63397 200.090747 
L 194.704457 200.097205 
L 194.869649 200.112023 
L 195.044358 200.127213 
L 195.15078 200.136223 
L 195.365292 200.153825 
L 195.476095 200.162626 
L 195.61501 200.173378 
L 195.791827 200.186612 
L 195.994085 200.20113 
L 196.117538 200.209666 
L 196.31962 200.223107 
L 196.450771 200.231478 
L 196.523109 200.235976 
L 196.804071 200.252646 
L 196.918412 200.259065 
L 197.061285 200.26679 
L 197.17687 200.272799 
L 197.304401 200.279179 
L 197.505103 200.288689 
L 197.620266 200.293853 
L 197.811055 200.301939 
L 197.943938 200.307224 
L 198.143079 200.314613 
L 198.386389 200.322776 
L 198.40108 200.323238 
L 198.635897 200.330158 
L 198.803735 200.334561 
L 198.955612 200.338155 
L 199.110812 200.341446 
L 199.241305 200.343913 
L 199.415996 200.346788 
L 199.610034 200.349406 
L 199.745471 200.350876 
L 199.862357 200.351908 
L 200.043071 200.353071 
L 200.176769 200.353595 
L 200.353846 200.353846 
z
" clip-path="url(#pb0c4a4143a)" style="fill: #808080; opacity: 0.5"/>
   </g>
   <g id="patch_5">
    <path d="M 231.507692 200.353846 
L 231.503707 199.649144 
L 231.499722 199.357262 
L 231.495737 199.133305 
L 231.491751 198.944509 
L 231.487766 198.778184 
L 231.483781 198.627823 
L 231.479796 198.489558 
L 231.47581 198.36087 
L 231.471825 198.240009 
L 231.46784 198.125702 
L 231.463855 198.016986 
L 231.45987 197.913115 
L 231.455884 197.813493 
L 231.451899 197.717639 
L 231.443929 197.535713 
L 231.435958 197.36486 
L 231.427988 197.203279 
L 231.420017 197.049609 
L 231.412047 196.902793 
L 231.404076 196.761991 
L 231.396106 196.626522 
L 231.388135 196.495822 
L 231.380165 196.369424 
L 231.372359 196.249422 
L 231.364553 196.132846 
L 231.348942 195.908896 
L 231.33333 195.695754 
L 231.317718 195.491996 
L 231.302107 195.29649 
L 231.286495 195.108311 
L 231.270884 194.926698 
L 231.255272 194.751013 
L 231.23966 194.580713 
L 231.224049 194.415336 
L 231.208437 194.254482 
L 231.192826 194.097801 
L 231.177214 193.944987 
L 231.161602 193.79577 
L 231.145991 193.64991 
L 231.130379 193.507192 
L 231.112914 193.351019 
L 231.095449 193.198296 
L 231.060519 192.902357 
L 231.025589 192.617888 
L 230.990659 192.343668 
L 230.963811 192.139214 
L 230.936963 191.939813 
L 230.901518 191.683711 
L 230.866073 191.435101 
L 230.830627 191.193372 
L 230.795182 190.957995 
L 230.766553 190.77219 
L 230.737923 190.590005 
L 230.709293 190.411241 
L 230.680663 190.235714 
L 230.623403 189.89373 
L 230.566144 189.562881 
L 230.511006 189.253887 
L 230.455868 188.953531 
L 230.40073 188.661147 
L 230.345592 188.376153 
L 230.317726 188.234767 
L 230.243642 187.866961 
L 230.169558 187.510111 
L 230.095474 187.163328 
L 230.02139 186.825836 
L 229.966078 186.579511 
L 229.881782 186.212778 
L 229.797487 185.85581 
L 229.696565 185.440291 
L 229.595643 185.036704 
L 229.510085 184.703219 
L 229.424528 184.377151 
L 229.361922 184.142995 
L 229.270048 183.8058 
L 229.178175 183.475841 
L 229.078293 183.124842 
L 228.978411 182.781421 
L 228.859501 182.381857 
L 228.760729 182.057177 
L 228.687676 181.82104 
L 228.614624 181.588159 
L 228.468519 181.131691 
L 228.339039 180.736952 
L 228.273158 180.539445 
L 228.131349 180.12158 
L 227.98954 179.713146 
L 227.917338 179.508636 
L 227.80273 179.188578 
L 227.688122 178.873899 
L 227.588326 178.604089 
L 227.437855 178.204338 
L 227.285584 177.808038 
L 227.112885 177.368062 
L 227.011622 177.114551 
L 226.91036 176.864212 
L 226.829251 176.665918 
L 226.719188 176.3999 
L 226.609125 176.137305 
L 226.527761 175.945316 
L 226.40653 175.662523 
L 226.285299 175.38352 
L 226.26093 175.327883 
L 226.131911 175.035749 
L 226.002892 174.747597 
L 225.819936 174.345552 
L 225.756144 174.207123 
L 225.52683 173.716715 
L 225.35242 173.350991 
L 225.270718 173.181745 
L 225.141176 172.916037 
L 225.011633 172.653483 
L 224.877864 172.385578 
L 224.771089 172.17402 
L 224.556586 171.754949 
L 224.437453 171.525521 
L 224.347069 171.352997 
L 224.205402 171.08519 
L 223.929598 170.57265 
L 223.862858 170.450327 
L 223.666576 170.094292 
L 223.550166 169.885699 
L 223.364578 169.556979 
L 223.258747 169.371587 
L 223.108265 169.110487 
L 222.96114 168.858 
L 222.764078 168.524017 
L 222.522551 168.121035 
L 222.44506 167.99319 
L 222.2013 167.595477 
L 222.152676 167.516937 
L 221.978875 167.238307 
L 221.851029 167.035417 
L 221.67737 166.762565 
L 221.475071 166.448604 
L 221.393124 166.32259 
L 221.139673 165.937006 
L 220.952416 165.656066 
L 220.853627 165.509171 
L 220.708705 165.295298 
L 220.559574 165.077187 
L 220.452607 164.921957 
L 220.285921 164.682048 
L 220.012011 164.292953 
L 219.874865 164.10048 
L 219.734676 163.905321 
L 219.534699 163.629649 
L 219.513204 163.600206 
L 219.241816 163.231547 
L 219.114563 163.060617 
L 219.031132 162.94921 
L 218.774327 162.609514 
L 218.640624 162.434547 
L 218.465148 162.206845 
L 218.371389 162.086065 
L 218.211962 161.882089 
L 217.989502 161.600356 
L 217.851017 161.426644 
L 217.715093 161.257372 
L 217.588046 161.100242 
L 217.485633 160.974332 
L 217.274698 160.717097 
L 217.146974 160.562688 
L 216.944096 160.319489 
L 216.861711 160.221443 
L 216.57692 159.885637 
L 216.476602 159.768487 
L 216.246056 159.501464 
L 216.241001 159.495643 
L 216.006015 159.22666 
L 215.925551 159.135265 
L 215.679751 158.858289 
L 215.501141 158.659088 
L 215.457785 158.610993 
L 215.203383 158.330789 
L 215.032611 158.144602 
L 214.977204 158.084518 
L 214.721638 157.80941 
L 214.653495 157.736616 
L 214.464049 157.535458 
L 214.292995 157.355354 
L 214.098632 157.152442 
L 213.984893 157.034545 
L 213.782892 156.826679 
L 213.720096 156.762453 
L 213.50624 156.545107 
L 213.298191 156.33569 
L 213.161455 156.199129 
L 213.100358 156.138384 
L 212.950074 155.989677 
L 212.657782 155.703317 
L 212.525695 155.575139 
L 212.348389 155.404263 
L 212.310537 155.367958 
L 212.088416 155.156144 
L 211.933592 155.009733 
L 211.810166 154.893729 
L 211.639633 154.734486 
L 211.422811 154.533734 
L 211.267654 154.391242 
L 211.210045 154.338581 
L 211.021326 154.166995 
L 210.821211 153.98658 
L 210.701801 153.87967 
L 210.485806 153.687683 
L 210.301386 153.525173 
L 210.287702 153.513167 
L 210.006508 153.267995 
L 209.971737 153.237883 
L 209.79998 153.089799 
L 209.657574 152.967844 
L 209.477626 152.814795 
L 209.337073 152.696067 
L 209.065769 152.46889 
L 208.922882 152.350293 
L 208.855052 152.294244 
L 208.679592 152.150005 
L 208.448576 151.961721 
L 208.384988 151.910216 
L 208.239155 151.792618 
L 208.08059 151.66557 
L 207.834797 151.470301 
L 207.67394 151.343597 
L 207.496258 151.204633 
L 207.364636 151.102358 
L 207.212091 150.984529 
L 207.118693 150.912757 
L 206.909273 150.752846 
L 206.767422 150.645322 
L 206.656057 150.561354 
L 206.443684 150.402305 
L 206.374747 150.350979 
L 206.147779 150.183036 
L 205.920436 150.016404 
L 205.795661 149.925619 
L 205.644876 149.816538 
L 205.460978 149.684428 
L 205.34855 149.604158 
L 205.165989 149.474615 
L 205.092696 149.422884 
L 204.944554 149.318805 
L 204.678858 149.133741 
L 204.569387 149.058086 
L 204.424303 148.95835 
L 204.315308 148.883819 
L 204.062404 148.712183 
L 203.939132 148.629178 
L 203.732946 148.491296 
L 203.596329 148.400588 
L 203.433872 148.293395 
L 203.380288 148.258199 
L 203.242984 148.168372 
L 203.05962 148.049213 
L 202.816458 147.892601 
L 202.678951 147.804742 
L 202.600417 147.75479 
L 202.342379 147.591822 
L 202.263928 147.542624 
L 202.11159 147.447554 
L 201.904174 147.319088 
L 201.710338 147.200046 
L 201.650425 147.163448 
L 201.474202 147.056338 
L 201.292502 146.946732 
L 201.204001 146.893651 
L 200.921985 146.725829 
L 200.749272 146.624041 
L 200.626448 146.552109 
L 200.469929 146.460989 
L 200.353846 146.393802 
L 200.353846 200.353846 
L 200.501723 200.353671 
L 200.608589 200.353325 
L 200.775941 200.352416 
L 201.012039 200.35037 
L 201.164342 200.348574 
L 201.281805 200.346936 
L 201.486548 200.34355 
L 201.566663 200.342041 
L 201.773876 200.337662 
L 201.893775 200.334814 
L 202.102123 200.329314 
L 202.252266 200.324918 
L 202.390229 200.32056 
L 202.547522 200.315218 
L 202.76941 200.307005 
L 202.798694 200.305862 
L 203.013694 200.297047 
L 203.116716 200.29256 
L 203.329858 200.282734 
L 203.553457 200.271639 
L 203.686199 200.264672 
L 203.867554 200.254693 
L 203.906987 200.252453 
L 204.170063 200.236869 
L 204.344325 200.22593 
L 204.424793 200.220714 
L 204.54463 200.212751 
L 204.717191 200.200878 
L 204.957166 200.183566 
L 205.031046 200.178048 
L 205.175848 200.166978 
L 205.304377 200.156868 
L 205.542097 200.137462 
L 205.659415 200.127548 
L 205.855093 200.110514 
L 206.029305 200.094826 
L 206.081524 200.090027 
L 206.350443 200.064614 
L 206.468663 200.053069 
L 206.638612 200.036074 
L 206.737514 200.025968 
L 206.906252 200.008356 
L 207.101567 199.98739 
L 207.191282 199.977551 
L 207.356044 199.959139 
L 207.516294 199.940805 
L 207.668076 199.923052 
L 207.790171 199.908498 
L 207.961456 199.887667 
L 208.128641 199.866871 
L 208.286199 199.846852 
L 208.556288 199.811585 
L 208.720072 199.789613 
L 208.830035 199.774614 
L 208.957833 199.75693 
L 209.111731 199.735277 
L 209.280041 199.711148 
L 209.39953 199.693734 
L 209.561693 199.669721 
L 209.763644 199.639207 
L 209.925985 199.614187 
L 210.077108 199.590501 
L 210.220421 199.567688 
L 210.38246 199.541482 
L 210.505355 199.521315 
L 210.709886 199.48719 
L 210.869507 199.460072 
L 211.009685 199.435906 
L 211.174157 199.40713 
L 211.356116 199.374765 
L 211.405535 199.365879 
L 211.67974 199.315825 
L 211.765289 199.29995 
L 211.936261 199.267851 
L 212.078586 199.240753 
L 212.191059 199.219096 
L 212.435193 199.17135 
L 212.614885 199.135559 
L 212.77662 199.102875 
L 212.8521 199.087469 
L 213.091943 199.03787 
L 213.158252 199.023983 
L 213.321782 198.989416 
L 213.572366 198.935556 
L 213.708083 198.905934 
L 213.802823 198.885069 
L 213.980285 198.845567 
L 214.05908 198.827854 
L 214.24292 198.786109 
L 214.41397 198.746742 
L 214.57367 198.709529 
L 214.739346 198.670455 
L 214.982449 198.612254 
L 215.100486 198.583623 
L 215.217653 198.554961 
L 215.406505 198.508257 
L 215.538754 198.475179 
L 215.649442 198.447257 
L 215.851518 198.395724 
L 215.963025 198.36698 
L 216.089668 198.334067 
L 216.300148 198.278736 
L 216.436766 198.242401 
L 216.620763 198.19294 
L 216.855365 198.129 
L 216.982661 198.093893 
L 217.181109 198.038585 
L 217.202093 198.032695 
L 217.475412 197.955256 
L 217.564373 197.92976 
L 217.762215 197.872546 
L 217.931097 197.823146 
L 218.10549 197.771589 
L 218.179374 197.74958 
L 218.312648 197.709626 
L 218.548648 197.63808 
L 218.604333 197.62105 
L 218.762407 197.572395 
L 219.052319 197.481965 
L 219.217007 197.429903 
L 219.233795 197.424568 
L 219.522813 197.331896 
L 219.598841 197.30726 
L 219.745493 197.259434 
L 219.973502 197.184277 
L 220.061752 197.154926 
L 220.164474 197.120578 
L 220.444255 197.026015 
L 220.609726 196.969391 
L 220.689287 196.94198 
L 220.876676 196.876945 
L 221.029793 196.823307 
L 221.231649 196.75191 
L 221.355448 196.707736 
L 221.541892 196.640652 
L 221.703552 196.581943 
L 221.844078 196.530497 
L 222.026417 196.463174 
L 222.039581 196.458288 
L 222.206166 196.396172 
L 222.35521 196.340137 
L 222.642233 196.231 
L 222.695786 196.210458 
L 222.86666 196.144533 
L 223.071049 196.06492 
L 223.228314 196.003097 
L 223.350355 195.954781 
L 223.446621 195.916459 
L 223.715957 195.808255 
L 223.779776 195.782402 
L 223.973893 195.70326 
L 224.205072 195.608012 
L 224.377593 195.536223 
L 224.464558 195.499805 
L 224.604055 195.441066 
L 224.806946 195.354918 
L 224.900799 195.314781 
L 225.07582 195.239445 
L 225.272036 195.15423 
L 225.364889 195.113625 
L 225.520339 195.045243 
L 225.657352 194.984551 
L 225.807293 194.917681 
L 226.047901 194.809382 
L 226.259507 194.713122 
L 226.378065 194.658772 
L 226.463149 194.619583 
L 226.592204 194.559843 
L 226.820632 194.453226 
L 227.006897 194.365452 
L 227.075393 194.332986 
L 227.206103 194.270747 
L 227.468586 194.144633 
L 227.616845 194.072731 
L 227.768129 193.998863 
L 227.870251 193.948712 
L 227.987467 193.890863 
L 228.178008 193.796172 
L 228.310733 193.729733 
L 228.603578 193.581738 
L 228.725098 193.519757 
L 228.773719 193.494863 
L 229.005601 193.3754 
L 229.1053 193.323658 
L 229.281828 193.231482 
L 229.548033 193.091117 
L 229.668098 193.02727 
L 229.762718 192.976717 
L 229.913754 192.895587 
L 230.17555 192.75369 
L 230.251421 192.712264 
L 230.451479 192.602373 
L 230.528487 192.559818 
L 230.723105 192.451637 
L 230.950911 192.323849 
L 231.107143 192.235482 
L 231.222017 192.170128 
L 231.28209 192.135822 
L 231.507692 192.006198 
z
" clip-path="url(#pb0c4a4143a)" style="fill: #808080; opacity: 0.5"/>
   </g>
   <g id="matplotlib.axis_1"/>
   <g id="matplotlib.axis_2"/>
   <g id="line2d_1">
    <path d="M 169.2 192.006198 
L 172.504489 193.783591 
L 175.974924 195.386512 
L 179.323774 196.697536 
L 182.997759 197.887734 
L 186.612158 198.819623 
L 190.252739 199.529616 
L 193.864529 200.014995 
L 197.620266 200.293853 
L 200.353846 200.353846 
L 200.353846 200.353846 
" clip-path="url(#pb0c4a4143a)" style="fill: none; stroke: #0000ff; stroke-linecap: square"/>
   </g>
   <g id="line2d_2">
    <path d="M 200.353846 200.353846 
L 203.906987 200.252453 
L 207.668076 199.923052 
L 211.405535 199.365879 
L 215.100486 198.583623 
L 218.604333 197.62105 
L 222.206166 196.396172 
L 225.657352 194.984551 
L 229.005601 193.3754 
L 231.507692 192.006198 
L 231.507692 192.006198 
" clip-path="url(#pb0c4a4143a)" style="fill: none; stroke: #0000ff; stroke-linecap: square"/>
   </g>
   <g id="text_1">
    <!-- $\Omega$ -->
    <g transform="translate(16.011538 22.420913) scale(0.1 -0.1)">
     <defs>
      <path id="Cmr10-ad" d="M 494 0 
L 281 1063 
L 469 1063 
Q 503 878 531 736 
Q 559 594 604 536 
Q 650 478 750 459 
Q 850 441 1081 441 
L 1472 441 
Q 1378 803 1004 1386 
Q 631 1969 495 2233 
Q 359 2497 359 2913 
Q 359 3397 646 3761 
Q 934 4125 1389 4319 
Q 1844 4513 2309 4513 
Q 2772 4513 3226 4319 
Q 3681 4125 3968 3758 
Q 4256 3391 4256 2913 
Q 4256 2588 4137 2300 
Q 4019 2013 3834 1725 
Q 3650 1438 3436 1084 
Q 3222 731 3144 441 
L 3531 441 
Q 3766 441 3869 459 
Q 3972 478 4015 536 
Q 4059 594 4086 736 
Q 4113 878 4147 1063 
L 4331 1063 
L 4122 0 
L 2988 0 
Q 2925 0 2925 84 
Q 2925 409 3004 721 
Q 3084 1034 3240 1478 
Q 3397 1922 3484 2261 
Q 3572 2600 3572 2913 
Q 3572 3297 3422 3625 
Q 3272 3953 2984 4150 
Q 2697 4347 2309 4347 
Q 1725 4347 1384 3930 
Q 1044 3513 1044 2913 
Q 1047 2584 1122 2293 
Q 1197 2003 1364 1518 
Q 1531 1034 1611 721 
Q 1691 409 1691 84 
Q 1691 0 1625 0 
L 494 0 
z
" transform="scale(0.015625)"/>
     </defs>
     <use xlink:href="#Cmr10-ad" transform="translate(0 0.484375)"/>
    </g>
   </g>
   <g id="text_2">
    <!-- $A$ -->
    <g style="fill: #0000ff" transform="translate(227.757692 78.497837) scale(0.1 -0.1)">
     <defs>
      <path id="Cmmi10-41" d="M 288 0 
Q 225 0 225 84 
Q 250 225 306 225 
Q 566 225 755 328 
Q 944 431 1081 647 
Q 1094 659 1094 659 
L 3378 4513 
Q 3428 4581 3500 4581 
L 3584 4581 
Q 3603 4581 3622 4573 
Q 3641 4566 3655 4548 
Q 3669 4531 3669 4513 
L 4056 378 
Q 4056 350 4084 294 
Q 4147 225 4563 225 
Q 4628 225 4628 141 
Q 4606 56 4592 28 
Q 4578 0 4519 0 
L 2919 0 
Q 2859 0 2859 84 
Q 2894 225 2944 225 
Q 3450 225 3481 397 
L 3384 1453 
L 1806 1453 
L 1294 594 
Q 1247 525 1247 434 
Q 1247 322 1355 273 
Q 1463 225 1594 225 
Q 1656 225 1656 141 
Q 1634 50 1621 25 
Q 1609 0 1550 0 
L 288 0 
z
M 1931 1678 
L 3359 1678 
L 3169 3750 
L 1931 1678 
z
" transform="scale(0.015625)"/>
     </defs>
     <use xlink:href="#Cmmi10-41" transform="translate(0 0.421875)"/>
    </g>
   </g>
   <g id="text_3">
    <!-- $B$ -->
    <g style="fill: #ff0000" transform="translate(103.092308 78.497837) scale(0.1 -0.1)">
     <defs>
      <path id="Cmmi10-42" d="M 319 0 
Q 256 0 256 84 
Q 259 100 268 137 
Q 278 175 293 200 
Q 309 225 341 225 
Q 522 225 656 234 
Q 791 244 884 269 
Q 959 297 1006 441 
L 1881 3956 
Q 1894 4019 1894 4044 
Q 1894 4113 1819 4122 
Q 1697 4147 1356 4147 
Q 1294 4147 1294 4231 
Q 1297 4247 1306 4286 
Q 1316 4325 1333 4348 
Q 1350 4372 1375 4372 
L 3669 4372 
Q 3878 4372 4083 4320 
Q 4288 4269 4461 4156 
Q 4634 4044 4736 3876 
Q 4838 3709 4838 3488 
Q 4838 3247 4714 3040 
Q 4591 2834 4395 2681 
Q 4200 2528 3973 2429 
Q 3747 2331 3500 2284 
Q 3675 2284 3854 2215 
Q 4034 2147 4175 2028 
Q 4316 1909 4402 1743 
Q 4488 1578 4488 1388 
Q 4488 1003 4219 684 
Q 3950 366 3542 183 
Q 3134 0 2753 0 
L 319 0 
z
M 1497 275 
Q 1497 225 1716 225 
L 2631 225 
Q 2944 225 3231 398 
Q 3519 572 3692 859 
Q 3866 1147 3866 1459 
Q 3866 1650 3786 1820 
Q 3706 1991 3556 2089 
Q 3406 2188 3213 2188 
L 1966 2188 
L 1522 416 
Q 1497 328 1497 275 
z
M 2009 2356 
L 2981 2356 
Q 3288 2356 3577 2512 
Q 3866 2669 4048 2937 
Q 4231 3206 4231 3506 
Q 4231 3784 4057 3965 
Q 3884 4147 3609 4147 
L 2731 4147 
Q 2559 4147 2500 4115 
Q 2441 4084 2400 3928 
L 2009 2356 
z
" transform="scale(0.015625)"/>
     </defs>
     <use xlink:href="#Cmmi10-42" transform="translate(0 0.6875)"/>
    </g>
   </g>
   <g id="text_4">
    <!-- $C$ -->
    <g style="fill: #228b22" transform="translate(150.023077 271.651683) scale(0.1 -0.1)">
     <defs>
      <path id="Cmmi10-43" d="M 934 1381 
Q 934 997 1082 705 
Q 1231 413 1514 248 
Q 1797 84 2181 84 
Q 2584 84 2957 290 
Q 3331 497 3595 842 
Q 3859 1188 3956 1575 
Q 3969 1613 4006 1613 
L 4084 1613 
Q 4109 1613 4125 1595 
Q 4141 1578 4141 1556 
Q 4141 1550 4134 1538 
Q 4025 1094 3711 705 
Q 3397 316 2959 87 
Q 2522 -141 2059 -141 
Q 1559 -141 1162 84 
Q 766 309 545 709 
Q 325 1109 325 1613 
Q 325 2150 565 2676 
Q 806 3203 1212 3614 
Q 1619 4025 2139 4269 
Q 2659 4513 3194 4513 
Q 3406 4513 3600 4448 
Q 3794 4384 3959 4253 
Q 4125 4122 4231 3950 
L 4738 4500 
Q 4738 4513 4769 4513 
L 4806 4513 
Q 4831 4513 4847 4491 
Q 4863 4469 4863 4447 
L 4428 2719 
Q 4428 2675 4378 2675 
L 4263 2675 
Q 4213 2675 4213 2747 
Q 4238 2888 4238 3084 
Q 4238 3397 4131 3673 
Q 4025 3950 3801 4119 
Q 3578 4288 3256 4288 
Q 2734 4288 2300 4025 
Q 1866 3763 1564 3336 
Q 1263 2909 1098 2389 
Q 934 1869 934 1381 
z
" transform="scale(0.015625)"/>
     </defs>
     <use xlink:href="#Cmmi10-43" transform="translate(0 0.484375)"/>
    </g>
   </g>
   <g id="patch_6">
    <path d="M 200.353846 200.353846 
C 216.878039 200.353846 232.727669 193.788715 244.412038 182.104346 
C 256.096407 170.419977 262.661538 154.570347 262.661538 138.046154 
C 262.661538 121.521961 256.096407 105.672331 244.412038 93.987962 
C 232.727669 82.303593 216.878039 75.738462 200.353846 75.738462 
C 183.829653 75.738462 167.980023 82.303593 156.295654 93.987962 
C 144.611285 105.672331 138.046154 121.521961 138.046154 138.046154 
C 138.046154 154.570347 144.611285 170.419977 156.295654 182.104346 
C 167.980023 193.788715 183.829653 200.353846 200.353846 200.353846 
L 200.353846 200.353846 
z
" clip-path="url(#pb0c4a4143a)" style="fill: none; stroke: #0000ff; stroke-linejoin: miter"/>
   </g>
   <g id="patch_7">
    <path d="M 138.046154 200.353846 
C 154.570347 200.353846 170.419977 193.788715 182.104346 182.104346 
C 193.788715 170.419977 200.353846 154.570347 200.353846 138.046154 
C 200.353846 121.521961 193.788715 105.672331 182.104346 93.987962 
C 170.419977 82.303593 154.570347 75.738462 138.046154 75.738462 
C 121.521961 75.738462 105.672331 82.303593 93.987962 93.987962 
C 82.303593 105.672331 75.738462 121.521961 75.738462 138.046154 
C 75.738462 154.570347 82.303593 170.419977 93.987962 182.104346 
C 105.672331 193.788715 121.521961 200.353846 138.046154 200.353846 
L 138.046154 200.353846 
z
" clip-path="url(#pb0c4a4143a)" style="fill: none; stroke: #ff0000; stroke-linejoin: miter"/>
   </g>
   <g id="patch_8">
    <path d="M 169.2 262.661538 
C 185.724193 262.661538 201.573823 256.096407 213.258192 244.412038 
C 224.942561 232.727669 231.507692 216.878039 231.507692 200.353846 
C 231.507692 183.829653 224.942561 167.980023 213.258192 156.295654 
C 201.573823 144.611285 185.724193 138.046154 169.2 138.046154 
C 152.675807 138.046154 136.826177 144.611285 125.141808 156.295654 
C 113.457439 167.980023 106.892308 183.829653 106.892308 200.353846 
C 106.892308 216.878039 113.457439 232.727669 125.141808 244.412038 
C 136.826177 256.096407 152.675807 262.661538 169.2 262.661538 
L 169.2 262.661538 
z
" clip-path="url(#pb0c4a4143a)" style="fill: none; stroke: #228b22; stroke-linejoin: miter"/>
   </g>
  </g>
 </g>
 <defs>
  <clipPath id="pb0c4a4143a">
   <rect x="7.2" y="7.2" width="324" height="324"/>
  </clipPath>
 </defs>
</svg>
