<?xml version="1.0" encoding="utf-8" standalone="no"?>
<!DOCTYPE svg PUBLIC "-//W3C//DTD SVG 1.1//EN"
  "http://www.w3.org/Graphics/SVG/1.1/DTD/svg11.dtd">
<svg xmlns:xlink="http://www.w3.org/1999/xlink" width="338.4pt" height="338.4pt" viewBox="0 0 338.4 338.4" xmlns="http://www.w3.org/2000/svg" version="1.1">
 <metadata>
  <rdf:RDF xmlns:dc="http://purl.org/dc/elements/1.1/" xmlns:cc="http://creativecommons.org/ns#" xmlns:rdf="http://www.w3.org/1999/02/22-rdf-syntax-ns#">
   <cc:Work>
    <dc:type rdf:resource="http://purl.org/dc/dcmitype/StillImage"/>
    <dc:date>2025-08-24T20:28:34.957641</dc:date>
    <dc:format>image/svg+xml</dc:format>
    <dc:creator>
     <cc:Agent>
      <dc:title>Matplotlib v3.8.0, https://matplotlib.org/</dc:title>
     </cc:Agent>
    </dc:creator>
   </cc:Work>
  </rdf:RDF>
 </metadata>
 <defs>
  <style type="text/css">*{stroke-linejoin: round; stroke-linecap: butt}</style>
 </defs>
 <g id="figure_1">
  <g id="patch_1">
   <path d="M -0 338.4 
L 338.4 338.4 
L 338.4 0 
L -0 0 
z
" style="fill: #ffffff"/>
  </g>
  <g id="axes_1">
   <g id="patch_2">
    <path d="M 7.2 331.2 
L 331.2 331.2 
L 331.2 7.2 
L 7.2 7.2 
z
" style="fill: #ffffff"/>
   </g>
   <g id="patch_3">
    <path d="M 13.430769 324.969231 
L 13.430769 13.430769 
L 324.969231 13.430769 
L 324.969231 324.969231 
L 13.430769 324.969231 
z
" clip-path="url(#pd63cbc4486)" style="fill: none; stroke: #000000; stroke-linejoin: miter"/>
   </g>
   <g id="patch_4">
    <path d="M 200.353846 146.393802 
L 200.090781 146.242774 
L 199.586559 145.958023 
L 198.725023 145.485627 
L 198.649949 145.445294 
L 197.818996 145.007648 
L 197.498311 144.842999 
L 197.010612 144.597067 
L 196.639544 144.413521 
L 196.232153 144.215524 
L 195.664862 143.945871 
L 195.177533 143.71979 
L 194.606835 143.461481 
L 194.132202 143.251886 
L 193.925733 143.16218 
L 193.368115 142.924318 
L 192.852328 142.709975 
L 192.444896 142.544476 
L 192.009868 142.371449 
L 191.637594 142.226375 
L 190.977636 141.975913 
L 190.717798 141.879639 
L 189.979993 141.613397 
L 189.708594 141.518091 
L 189.089952 141.306083 
L 188.553368 141.128044 
L 188.14672 140.996704 
L 187.443805 140.776903 
L 187.331187 140.742534 
L 186.626319 140.53268 
L 186.33244 140.447853 
L 185.647947 140.256312 
L 185.262617 140.152178 
L 184.731551 140.012986 
L 184.436836 139.937893 
L 184.099633 139.853851 
L 183.490738 139.707137 
L 182.794444 139.547271 
L 182.307007 139.440343 
L 182.126587 139.4018 
L 181.789374 139.331259 
L 181.191781 139.211016 
L 180.588578 139.095795 
L 180.365322 139.05471 
L 179.904502 138.972561 
L 179.018373 138.8246 
L 178.62811 138.763593 
L 178.101022 138.685213 
L 177.873466 138.652797 
L 177.256582 138.56922 
L 177.028196 138.539868 
L 176.407527 138.464428 
L 175.849339 138.401971 
L 175.539535 138.369503 
L 175.129803 138.328964 
L 174.298605 138.255112 
L 173.999606 138.231287 
L 173.476934 138.193116 
L 173.126674 138.170008 
L 172.642304 138.141315 
L 172.335165 138.125081 
L 171.81852 138.101201 
L 171.313161 138.081998 
L 170.896032 138.069241 
L 170.252359 138.055042 
L 169.873775 138.049797 
L 169.393597 138.046455 
L 169.074126 138.046281 
L 168.642264 138.04865 
L 167.983157 138.058037 
L 167.279978 138.075744 
L 166.945295 138.086962 
L 166.676072 138.097294 
L 166.121085 138.122272 
L 165.565643 138.152239 
L 164.952267 138.191114 
L 164.520824 138.2221 
L 163.959867 138.266895 
L 163.718868 138.287706 
L 163.164893 138.339122 
L 162.569737 138.399927 
L 162.092573 138.452853 
L 161.69737 138.499509 
L 161.526424 138.520483 
L 160.805312 138.61425 
L 160.320806 138.682066 
L 160.153767 138.706347 
L 159.302273 138.837316 
L 158.944194 138.895999 
L 158.757502 138.927445 
L 158.027535 139.056011 
L 157.605733 139.134393 
L 157.286569 139.195701 
L 156.496415 139.354933 
L 156.412861 139.372393 
L 155.700096 139.526212 
L 155.489232 139.573394 
L 154.98061 139.690369 
L 154.202659 139.877997 
L 153.660465 140.015041 
L 153.465931 140.065476 
L 153.037465 140.178926 
L 152.674898 140.277482 
L 152.003469 140.466219 
L 151.359999 140.654743 
L 151.108893 140.730358 
L 150.3567 140.963792 
L 150.324161 140.974126 
L 149.747671 141.160473 
L 149.317341 141.303627 
L 148.674173 141.524101 
L 148.263249 141.669087 
L 147.766938 141.848527 
L 147.189192 142.063428 
L 146.841834 142.195778 
L 146.359775 142.3834 
L 145.752507 142.626352 
L 145.485538 142.735508 
L 144.927489 142.968362 
L 144.635534 143.092729 
L 144.012082 143.364222 
L 143.496136 143.595059 
L 142.896948 143.870238 
L 142.67872 143.972376 
L 141.900461 144.345064 
L 141.574597 144.505072 
L 141.059004 144.763084 
L 140.723921 144.933981 
L 140.278959 145.164881 
L 139.661242 145.493019 
L 139.250379 145.716234 
L 138.858993 145.932602 
L 138.31506 146.239439 
L 137.736579 146.573723 
L 137.264444 146.852736 
L 137.064015 146.972885 
L 136.401235 147.377535 
L 136.094798 147.568487 
L 135.717217 147.807183 
L 135.250295 148.10764 
L 134.798685 148.403889 
L 134.018492 148.929046 
L 133.573042 149.236644 
L 133.320812 149.413367 
L 132.500399 150.001212 
L 132.440807 150.0447 
L 131.566451 150.695368 
L 131.139783 151.021621 
L 130.913877 151.196738 
L 130.457776 151.555397 
L 130.034447 151.894503 
L 129.425617 152.392956 
L 128.841668 152.883291 
L 128.307762 153.342428 
L 128.258728 153.385125 
L 127.740093 153.842292 
L 127.175511 154.351772 
L 126.620985 154.86455 
L 125.953496 155.498652 
L 125.601986 155.840234 
L 125.230862 156.20678 
L 124.726408 156.715008 
L 124.217581 157.23969 
L 123.985598 157.483036 
L 123.323888 158.191886 
L 123.03075 158.513091 
L 122.43537 159.179608 
L 122.080044 159.586724 
L 121.561004 160.194481 
L 120.873766 161.024167 
L 120.371001 161.650134 
L 120.208302 161.856287 
L 119.739831 162.460045 
L 119.322415 163.011175 
L 118.905 163.575299 
L 118.45372 164.200512 
L 118.175253 164.594599 
L 117.852281 165.059934 
L 117.296537 165.882423 
L 116.89055 166.501668 
L 116.504441 167.10589 
L 116.118332 167.725866 
L 115.906005 168.073842 
L 115.570269 168.634759 
L 115.234533 169.209395 
L 114.979938 169.654768 
L 114.610872 170.315943 
L 114.241806 170.996642 
L 113.994551 171.464283 
L 113.747295 171.94177 
L 113.313869 172.804094 
L 113.160366 173.117694 
L 112.735144 174.010563 
L 112.510158 174.498279 
L 112.285172 174.99737 
L 112.060186 175.508521 
L 111.8352 176.032492 
L 111.548149 176.720976 
L 111.280591 177.384507 
L 111.087198 177.878286 
L 110.893806 178.384861 
L 110.700414 178.90514 
L 110.507022 179.440146 
L 110.253241 180.16652 
L 110.028078 180.836363 
L 109.802915 181.53272 
L 109.674595 181.94258 
L 109.546276 182.362689 
L 109.417957 182.793783 
L 109.289637 183.236693 
L 109.122647 183.832341 
L 108.955656 184.452036 
L 108.788666 185.098709 
L 108.621675 185.775948 
L 108.520686 186.202191 
L 108.419696 186.642422 
L 108.318706 187.098032 
L 108.217717 187.570668 
L 108.125214 188.020192 
L 108.032711 188.487452 
L 107.940209 188.974634 
L 107.847706 189.484416 
L 107.767583 189.9468 
L 107.687459 190.431353 
L 107.607336 190.941498 
L 107.527213 191.48165 
L 107.487531 191.762004 
L 107.44785 192.052011 
L 107.408168 192.352718 
L 107.368487 192.665382 
L 107.328805 192.991526 
L 107.289124 193.333028 
L 107.249442 193.692249 
L 107.20976 194.072229 
L 107.170079 194.476994 
L 107.130397 194.91207 
L 107.110556 195.143327 
L 107.090716 195.385415 
L 107.070875 195.640002 
L 107.051034 195.909237 
L 107.031193 196.195964 
L 107.011352 196.504088 
L 106.991512 196.839234 
L 106.971671 197.210031 
L 106.95183 197.631006 
L 106.931989 198.130479 
L 106.912148 198.781563 
L 106.892308 200.353846 
L 106.892308 84.086109 
L 107.348661 83.825195 
L 107.683013 83.637256 
L 108.489522 83.194955 
L 108.576091 83.148395 
L 109.120569 82.85957 
L 109.639788 82.590524 
L 110.097256 82.358564 
L 110.716741 82.051942 
L 110.907672 81.959156 
L 111.379282 81.733398 
L 112.241941 81.332918 
L 112.322794 81.2962 
L 113.028521 80.981572 
L 113.31544 80.856642 
L 113.732863 80.677936 
L 114.387303 80.404959 
L 114.708457 80.274185 
L 115.125106 80.107617 
L 115.759215 79.860753 
L 116.11394 79.726119 
L 116.96065 79.414677 
L 117.098534 79.365273 
L 117.688642 79.157953 
L 118.005721 79.049293 
L 118.421555 78.909671 
L 119.322018 78.618422 
L 119.623344 78.524321 
L 119.837574 78.458436 
L 120.74249 78.189394 
L 121.145189 78.074445 
L 121.598251 77.948608 
L 122.052925 77.826015 
L 122.268238 77.769244 
L 122.905697 77.605976 
L 123.412095 77.481372 
L 123.769644 77.396094 
L 124.269531 77.280595 
L 124.661764 77.192998 
L 124.986577 77.122464 
L 125.523484 77.009843 
L 126.28784 76.857997 
L 126.642905 76.790832 
L 127.305393 76.671203 
L 127.702292 76.603066 
L 128.127788 76.532948 
L 128.567339 76.463684 
L 128.81736 76.42572 
L 129.400912 76.341143 
L 130.051535 76.25348 
L 130.377869 76.212135 
L 131.013602 76.136609 
L 131.228885 76.112533 
L 131.835569 76.048757 
L 132.461438 75.989249 
L 132.832007 75.957015 
L 133.119793 75.933518 
L 133.51611 75.903357 
L 134.02359 75.868445 
L 134.679773 75.829468 
L 134.910267 75.817425 
L 135.607114 75.786218 
L 135.922599 75.774659 
L 136.493737 75.757804 
L 137.162093 75.744734 
L 137.288596 75.743067 
L 138.077109 75.738469 
L 138.36834 75.739295 
L 138.701171 75.741905 
L 139.15632 75.748352 
L 139.988245 75.768736 
L 140.370568 75.781833 
L 140.8058 75.799605 
L 140.967868 75.807001 
L 141.582267 75.838884 
L 141.892495 75.857295 
L 142.742517 75.915705 
L 142.896193 75.927512 
L 143.415553 75.970248 
L 143.782199 76.003053 
L 144.587048 76.082735 
L 144.833596 76.109257 
L 145.34371 76.167287 
L 145.842296 76.228125 
L 146.528515 76.318542 
L 146.856587 76.364513 
L 147.289732 76.427936 
L 147.942772 76.529445 
L 148.043194 76.545685 
L 148.591326 76.637296 
L 149.125747 76.731464 
L 149.523135 76.804604 
L 150.062818 76.908209 
L 150.712387 77.039473 
L 150.975781 77.094753 
L 151.284596 77.16108 
L 151.872653 77.291924 
L 152.505118 77.439332 
L 153.049273 77.571738 
L 153.505243 77.686688 
L 153.817053 77.767407 
L 154.404479 77.924164 
L 154.640101 77.988769 
L 155.194056 78.144585 
L 155.562303 78.251229 
L 156.382404 78.497598 
L 156.759477 78.615017 
L 157.372406 78.811498 
L 157.825303 78.961183 
L 157.989132 79.016279 
L 158.497695 79.190543 
L 158.919566 79.338836 
L 159.477171 79.540086 
L 159.955671 79.717588 
L 160.303813 79.849546 
L 160.875375 80.071373 
L 161.242283 80.217198 
L 162.06369 80.553489 
L 162.230762 80.623569 
L 162.601669 80.781198 
L 163.345312 81.105824 
L 163.75819 81.291069 
L 164.006178 81.40407 
L 164.675348 81.715571 
L 165.303359 82.016757 
L 165.583544 82.15393 
L 165.855568 82.288777 
L 166.507211 82.618573 
L 166.965498 82.856299 
L 167.488232 83.133382 
L 168.082628 83.456239 
L 168.324159 83.589833 
L 169.038989 83.993469 
L 169.24354 84.111271 
L 169.769634 84.419021 
L 170.159732 84.65171 
L 170.71648 84.990539 
L 171.085256 85.219397 
L 171.903168 85.739834 
L 172.275773 85.982907 
L 172.538036 86.156284 
L 173.313596 86.68025 
L 173.419999 86.753468 
L 174.089944 87.222009 
L 174.526297 87.534297 
L 174.893358 87.801432 
L 175.618457 88.341319 
L 175.745692 88.437754 
L 176.509775 89.027807 
L 176.719077 89.192765 
L 177.389466 89.731019 
L 177.962375 90.203246 
L 178.077966 90.299923 
L 178.569754 90.716603 
L 179.393507 91.434514 
L 179.521774 91.548611 
L 180.070157 92.043636 
L 180.399502 92.346675 
L 181.106488 93.012209 
L 181.728131 93.614933 
L 181.934147 93.818419 
L 182.453327 94.33973 
L 182.783305 94.67755 
L 183.53357 95.465131 
L 183.941702 95.905352 
L 184.550263 96.577897 
L 184.657601 96.698584 
L 185.17393 97.288073 
L 185.660558 97.857635 
L 186.294149 98.620534 
L 186.637497 99.044489 
L 187.314563 99.903365 
L 187.742982 100.463261 
L 188.179934 101.048146 
L 188.508052 101.496936 
L 188.904712 102.050938 
L 189.301373 102.618042 
L 189.383389 102.736993 
L 189.994365 103.642203 
L 190.303147 104.113056 
L 190.607683 104.586713 
L 190.912219 105.069986 
L 191.414204 105.888733 
L 191.750536 106.453625 
L 192.086868 107.032451 
L 192.597663 107.939986 
L 192.935482 108.560392 
L 193.229172 109.113767 
L 193.597086 109.826613 
L 193.964999 110.562863 
L 194.036777 110.709391 
L 194.351835 111.364347 
L 194.666892 112.039606 
L 194.999339 112.775949 
L 195.331786 113.538912 
L 195.610968 114.202062 
L 195.89015 114.887556 
L 196.137672 115.515639 
L 196.414311 116.242329 
L 196.629651 116.827709 
L 196.84499 117.431951 
L 197.06033 118.056769 
L 197.27567 118.704154 
L 197.441957 119.220983 
L 197.608245 119.753919 
L 197.811566 120.429569 
L 197.984288 121.0265 
L 198.15701 121.646963 
L 198.329732 122.293736 
L 198.502455 122.970206 
L 198.612969 123.420511 
L 198.723483 123.885989 
L 198.833997 124.368192 
L 198.944511 124.868953 
L 199.018253 125.214489 
L 199.091996 125.570027 
L 199.165738 125.936448 
L 199.23948 126.314771 
L 199.338597 126.844149 
L 199.437714 127.40074 
L 199.536831 127.989062 
L 199.58639 128.296905 
L 199.635949 128.615051 
L 199.685507 128.94458 
L 199.735066 129.286777 
L 199.784624 129.643191 
L 199.834183 130.015712 
L 199.883741 130.406698 
L 199.9333 130.819144 
L 199.982859 131.256961 
L 200.032417 131.725419 
L 200.072596 132.132692 
L 200.112774 132.570468 
L 200.132864 132.80316 
L 200.152953 133.046752 
L 200.173042 133.302922 
L 200.193132 133.573831 
L 200.213221 133.862341 
L 200.23331 134.172383 
L 200.2534 134.509616 
L 200.263444 134.690964 
L 200.273489 134.882723 
L 200.283534 135.086916 
L 200.293578 135.306321 
L 200.303623 135.54494 
L 200.313668 135.80891 
L 200.323712 136.108565 
L 200.333757 136.464056 
L 200.343801 136.927396 
L 200.353846 138.046154 
z
" clip-path="url(#pd63cbc4486)" style="fill: #808080; opacity: 0.5"/>
   </g>
   <g id="patch_5">
    <path d="M 75.738462 138.046154 
L 75.738462 138.046154 
L 75.742216 137.362166 
L 75.74597 137.078863 
L 75.749725 136.861487 
L 75.753479 136.67824 
L 75.757233 136.516802 
L 75.760988 136.370858 
L 75.764742 136.236655 
L 75.768497 136.111747 
L 75.772251 135.994437 
L 75.776005 135.883487 
L 75.77976 135.777964 
L 75.783514 135.677142 
L 75.787269 135.580446 
L 75.791023 135.487406 
L 75.798532 135.31082 
L 75.80604 135.144982 
L 75.813549 134.988142 
L 75.821058 134.838981 
L 75.828567 134.696472 
L 75.836075 134.559799 
L 75.843584 134.428302 
L 75.851093 134.301434 
L 75.858602 134.17874 
L 75.872279 133.964758 
L 75.885956 133.761493 
L 75.899633 133.567485 
L 75.91331 133.381579 
L 75.926987 133.202843 
L 75.940664 133.030509 
L 75.954341 132.863938 
L 75.968019 132.702593 
L 75.981696 132.546013 
L 75.995373 132.393801 
L 76.00905 132.245615 
L 76.022727 132.101153 
L 76.036404 131.960149 
L 76.050081 131.822369 
L 76.077435 131.555664 
L 76.098937 131.353555 
L 76.120439 131.157441 
L 76.141941 130.966822 
L 76.163443 130.781267 
L 76.184945 130.600396 
L 76.206446 130.423877 
L 76.227948 130.251413 
L 76.24945 130.082742 
L 76.282379 129.831249 
L 76.315308 129.587358 
L 76.348237 129.35043 
L 76.381166 129.119909 
L 76.426185 128.814257 
L 76.471203 128.518617 
L 76.516221 128.232086 
L 76.56124 127.953887 
L 76.602113 127.707953 
L 76.642987 127.467893 
L 76.675066 127.283341 
L 76.707146 127.101994 
L 76.771305 126.748303 
L 76.835464 126.405707 
L 76.899623 126.073254 
L 76.914949 125.995249 
L 76.978964 125.674946 
L 77.042978 125.363052 
L 77.106993 125.058961 
L 77.171007 124.762138 
L 77.249811 124.406023 
L 77.330861 124.049663 
L 77.411912 123.702612 
L 77.480446 123.415928 
L 77.548979 123.13507 
L 77.617513 122.859715 
L 77.686047 122.589568 
L 77.716239 122.472139 
L 77.778778 122.231858 
L 77.841317 121.995418 
L 77.903856 121.762651 
L 77.966394 121.533401 
L 78.016241 121.353098 
L 78.087988 121.097203 
L 78.159735 120.845415 
L 78.231483 120.597554 
L 78.30323 120.353457 
L 78.329112 120.266293 
L 78.440179 119.897426 
L 78.551247 119.536574 
L 78.641191 119.249907 
L 78.758488 118.883138 
L 78.875785 118.523963 
L 79.025847 118.074878 
L 79.112796 117.81974 
L 79.199745 117.568149 
L 79.329027 117.200349 
L 79.440363 116.889362 
L 79.5517 116.583457 
L 79.597113 116.460089 
L 79.712532 116.150101 
L 79.827951 115.845041 
L 79.921922 115.600169 
L 80.068322 115.224683 
L 80.209011 114.870445 
L 80.349701 114.522382 
L 80.459687 114.254404 
L 80.577929 113.970197 
L 80.760914 113.537995 
L 80.918197 113.173577 
L 81.078556 112.808457 
L 81.157054 112.632006 
L 81.287462 112.34208 
L 81.41787 112.056041 
L 81.509048 111.85829 
L 81.688274 111.474781 
L 81.804734 111.229159 
L 81.995008 110.833702 
L 82.120452 110.576819 
L 82.26213 110.290232 
L 82.520706 109.776503 
L 82.597013 109.627123 
L 82.767019 109.297836 
L 82.966054 108.918312 
L 83.096258 108.67342 
L 83.200787 108.4787 
L 83.416714 108.081628 
L 83.610183 107.731576 
L 83.667315 107.629212 
L 83.807029 107.380768 
L 84.027406 106.994207 
L 84.262658 106.588498 
L 84.396496 106.360783 
L 84.510641 106.168304 
L 84.610293 106.00154 
L 84.80976 105.671243 
L 84.971545 105.406693 
L 85.187357 105.058337 
L 85.335847 104.821584 
L 85.518174 104.534069 
L 85.60778 104.39403 
L 85.725226 104.211719 
L 85.979916 103.821084 
L 86.118347 103.611413 
L 86.251385 103.411628 
L 86.346632 103.269611 
L 86.607465 102.884957 
L 86.660941 102.806852 
L 86.83903 102.548562 
L 86.988182 102.334363 
L 87.131502 102.130325 
L 87.290565 101.905889 
L 87.454545 101.676693 
L 87.576118 101.508174 
L 87.811471 101.185265 
L 87.944821 101.004219 
L 88.101474 100.793268 
L 88.248955 100.596354 
L 88.46508 100.310685 
L 88.539651 100.212905 
L 88.805841 99.867101 
L 88.938742 99.696309 
L 89.039855 99.567183 
L 89.155705 99.420094 
L 89.354028 99.170385 
L 89.449311 99.051342 
L 89.738389 98.693792 
L 89.846447 98.561514 
L 89.930429 98.459217 
L 90.069817 98.290404 
L 90.294534 98.020771 
L 90.393961 97.902449 
L 90.623141 97.631968 
L 90.819797 97.402339 
L 90.943932 97.258542 
L 91.023574 97.166752 
L 91.213673 96.949107 
L 91.328356 96.818786 
L 91.584337 96.530518 
L 91.723204 96.375627 
L 91.797844 96.292802 
L 91.985262 96.08614 
L 92.152184 95.903633 
L 92.392541 95.643369 
L 92.507971 95.519428 
L 92.682259 95.333561 
L 92.727472 95.285592 
L 92.959611 95.040896 
L 93.061883 94.933929 
L 93.260066 94.728088 
L 93.382271 94.602097 
L 93.553231 94.427026 
L 93.681784 94.296283 
L 93.864877 94.111392 
L 94.065573 93.910488 
L 94.274813 93.702967 
L 94.356513 93.622468 
L 94.52733 93.455118 
L 94.753593 93.235411 
L 94.82432 93.167187 
L 94.964585 93.032523 
L 95.215326 92.793876 
L 95.286069 92.727022 
L 95.515592 92.511553 
L 95.54945 92.479953 
L 95.77146 92.273905 
L 95.878668 92.175121 
L 96.092448 91.979517 
L 96.27278 91.815928 
L 96.448112 91.658101 
L 96.602836 91.519818 
L 96.770178 91.371296 
L 96.899106 91.257598 
L 97.076909 91.101831 
L 97.218616 90.978536 
L 97.344733 90.869434 
L 97.468578 90.762871 
L 97.715494 90.552087 
L 97.777548 90.499462 
L 97.958903 90.346459 
L 98.098336 90.229626 
L 98.213907 90.13331 
L 98.428506 89.955713 
L 98.5469 89.858422 
L 98.711836 89.723696 
L 98.860092 89.603393 
L 99.080012 89.426319 
L 99.184636 89.342654 
L 99.350698 89.210611 
L 99.516248 89.079891 
L 99.709019 88.928819 
L 99.857406 88.813359 
L 100.039968 88.67229 
L 100.238077 88.520425 
L 100.35169 88.433898 
L 100.400417 88.396914 
L 100.646991 88.210914 
L 100.821479 88.080445 
L 101.011362 87.93954 
L 101.056127 87.906485 
L 101.277758 87.743733 
L 101.431102 87.632004 
L 101.588479 87.518078 
L 101.705352 87.433955 
L 101.845047 87.333943 
L 102.110075 87.145793 
L 102.234933 87.057871 
L 102.287925 87.020694 
L 102.451309 86.906585 
L 102.678727 86.749043 
L 102.852939 86.629365 
L 102.98474 86.539399 
L 103.190199 86.400138 
L 103.362504 86.284267 
L 103.451399 86.224812 
L 103.60133 86.125034 
L 103.733296 86.037729 
L 103.911925 85.920316 
L 104.144375 85.768836 
L 104.185931 85.741911 
L 104.373321 85.621076 
L 104.498688 85.540763 
L 104.732476 85.392119 
L 104.877453 85.300672 
L 105.038017 85.200043 
L 105.129196 85.143201 
L 105.298104 85.038478 
L 105.558303 84.878607 
L 105.649386 84.823058 
L 105.754967 84.758935 
L 105.932306 84.651872 
L 106.077495 84.564817 
L 106.254831 84.459212 
L 106.374822 84.388207 
L 106.511413 84.307819 
L 106.773956 84.154613 
L 106.892308 84.086109 
L 106.892308 138.046154 
z
" clip-path="url(#pd63cbc4486)" style="fill: #808080; opacity: 0.5"/>
   </g>
   <g id="patch_6">
    <path d="M 75.738462 138.046154 
L 75.738462 138.046154 
L 75.741447 138.656124 
L 75.744433 138.908771 
L 75.747419 139.102627 
L 75.750405 139.266049 
L 75.75339 139.410022 
L 75.756376 139.540179 
L 75.759362 139.659866 
L 75.762348 139.771264 
L 75.765333 139.875887 
L 75.768319 139.974839 
L 75.771305 140.068952 
L 75.774291 140.158872 
L 75.777276 140.245115 
L 75.780262 140.328096 
L 75.786234 140.485594 
L 75.792205 140.633509 
L 75.798177 140.7734 
L 75.804148 140.906445 
L 75.81012 141.033559 
L 75.816091 141.155469 
L 75.822063 141.272766 
L 75.828034 141.385934 
L 75.834006 141.495382 
L 75.844473 141.67925 
L 75.85494 141.854223 
L 75.865406 142.021474 
L 75.875873 142.18194 
L 75.88634 142.336383 
L 75.896807 142.485432 
L 75.907274 142.629613 
L 75.917741 142.769371 
L 75.928207 142.905088 
L 75.938674 143.037095 
L 75.949141 143.165677 
L 75.959608 143.291087 
L 75.980541 143.533255 
L 76.001475 143.765102 
L 76.023987 144.004283 
L 76.046498 144.234145 
L 76.06901 144.455689 
L 76.091521 144.669752 
L 76.114033 144.877035 
L 76.136545 145.078138 
L 76.159056 145.273578 
L 76.181568 145.463803 
L 76.208606 145.685933 
L 76.235645 145.901692 
L 76.262683 146.111591 
L 76.289722 146.316075 
L 76.31676 146.515538 
L 76.343799 146.710326 
L 76.370837 146.900747 
L 76.397876 147.087077 
L 76.44546 147.405804 
L 76.477104 147.61175 
L 76.508748 147.813253 
L 76.540392 148.010581 
L 76.572036 148.203977 
L 76.60368 148.393664 
L 76.635324 148.579839 
L 76.666968 148.762688 
L 76.698612 148.942377 
L 76.736583 149.154037 
L 76.774554 149.361612 
L 76.812525 149.565321 
L 76.850496 149.765368 
L 76.898617 150.013915 
L 76.946739 150.257214 
L 76.99486 150.495574 
L 77.042982 150.729273 
L 77.089271 150.949913 
L 77.135561 151.166681 
L 77.195731 151.442965 
L 77.2559 151.7134 
L 77.31607 151.978327 
L 77.37624 152.238054 
L 77.440102 152.508345 
L 77.50377 152.772602 
L 77.567438 153.03193 
L 77.655869 153.384409 
L 77.744301 153.728469 
L 77.847216 154.119 
L 77.950131 154.49962 
L 78.021738 154.758963 
L 78.093345 155.014041 
L 78.170611 155.284713 
L 78.247878 155.55086 
L 78.345492 155.880938 
L 78.443107 156.204493 
L 78.502226 156.397427 
L 78.607129 156.734408 
L 78.712032 157.064842 
L 78.797966 157.330883 
L 78.917444 157.694162 
L 79.036923 158.050132 
L 79.142721 158.359553 
L 79.24852 158.663787 
L 79.407868 159.112715 
L 79.52382 159.432713 
L 79.670304 159.829374 
L 79.826459 160.243352 
L 79.924515 160.49885 
L 80.049422 160.819551 
L 80.210307 161.225096 
L 80.395899 161.682919 
L 80.56245 162.085129 
L 80.706045 162.425663 
L 80.868523 162.804324 
L 80.985256 163.07219 
L 81.10199 163.33668 
L 81.269603 163.710755 
L 81.407955 164.014652 
L 81.545636 164.312863 
L 81.685733 164.612137 
L 81.786762 164.825426 
L 81.93997 165.144949 
L 82.098358 165.470461 
L 82.235708 165.748909 
L 82.380287 166.038292 
L 82.524867 166.323975 
L 82.588093 166.447774 
L 82.77179 166.803644 
L 82.962227 167.166756 
L 83.170284 167.556957 
L 83.287244 167.77342 
L 83.361695 167.910153 
L 83.555858 168.262973 
L 83.770738 168.647262 
L 83.859692 168.8045 
L 84.057886 169.151064 
L 84.250291 169.482656 
L 84.314439 169.592174 
L 84.429095 169.786656 
L 84.647748 170.153143 
L 84.830346 170.454892 
L 84.947522 170.646519 
L 85.184036 171.028649 
L 85.36174 171.311768 
L 85.397243 171.367929 
L 85.594463 171.677518 
L 85.820516 172.027491 
L 85.952839 172.229996 
L 86.086831 172.433321 
L 86.292509 172.742101 
L 86.325142 172.790728 
L 86.495473 173.042952 
L 86.771048 173.445476 
L 86.827182 173.526647 
L 87.078792 173.887144 
L 87.171431 174.01852 
L 87.387214 174.321771 
L 87.550013 174.548048 
L 87.683718 174.732304 
L 87.835003 174.939092 
L 87.888169 175.011342 
L 88.184215 175.409714 
L 88.261097 175.512093 
L 88.478323 175.799017 
L 88.574038 175.924357 
L 88.704715 176.094424 
L 88.961218 176.424762 
L 89.045348 176.532119 
L 89.229328 176.76522 
L 89.41877 177.002874 
L 89.537139 177.150169 
L 89.609141 177.239321 
L 89.764028 177.429969 
L 89.962004 177.671436 
L 90.084249 177.819313 
L 90.305874 178.085063 
L 90.408547 178.207166 
L 90.65019 178.492058 
L 90.796009 178.662313 
L 90.973972 178.86843 
L 91.11969 179.035854 
L 91.256295 179.19172 
L 91.376623 179.328153 
L 91.504422 179.472181 
L 91.727987 179.721998 
L 91.862759 179.871297 
L 92.046125 180.072881 
L 92.181712 180.220808 
L 92.276103 180.323228 
L 92.439273 180.499198 
L 92.685631 180.762328 
L 92.769855 180.851589 
L 92.946245 181.037394 
L 93.107098 181.205508 
L 93.329686 181.436084 
L 93.502751 181.613731 
L 93.551377 181.663391 
L 93.809407 181.925064 
L 93.90222 182.018436 
L 94.065908 182.182154 
L 94.157196 182.272932 
L 94.343966 182.457495 
L 94.472941 182.584043 
L 94.686125 182.791616 
L 94.792308 182.894268 
L 94.955951 183.051519 
L 95.102674 183.191542 
L 95.281443 183.36092 
L 95.437863 183.508029 
L 95.640717 183.697304 
L 95.828642 183.87115 
L 95.905856 183.942164 
L 96.163296 184.177214 
L 96.236062 184.243175 
L 96.472082 184.45569 
L 96.509049 184.488779 
L 96.765153 184.716567 
L 96.839958 184.782627 
L 96.98029 184.905981 
L 97.128244 185.035229 
L 97.297656 185.182217 
L 97.503346 185.359252 
L 97.641942 185.477664 
L 97.820744 185.629396 
L 98.034939 185.809646 
L 98.103441 185.866947 
L 98.220026 185.964084 
L 98.456908 186.159979 
L 98.625429 186.298149 
L 98.800087 186.440314 
L 98.852465 186.482744 
L 98.995535 186.598164 
L 99.264985 186.813658 
L 99.378592 186.903786 
L 99.523425 187.018063 
L 99.651934 187.11888 
L 99.828468 187.256488 
L 99.981656 187.375075 
L 100.170936 187.520555 
L 100.293659 187.614265 
L 100.512848 187.780442 
L 100.66544 187.895234 
L 100.85445 188.03641 
L 100.96344 188.117311 
L 101.148276 188.253674 
L 101.188628 188.283305 
L 101.44368 188.469437 
L 101.54117 188.540061 
L 101.672222 188.634548 
L 101.892003 188.791852 
L 102.003798 188.871316 
L 102.258778 189.051175 
L 102.280143 189.06616 
L 102.586998 189.279901 
L 102.60136 189.289837 
L 102.826062 189.444536 
L 103.029305 189.583217 
L 103.083281 189.619849 
L 103.276357 189.750213 
L 103.427302 189.851401 
L 103.571297 189.947336 
L 103.799516 190.098208 
L 103.896558 190.161925 
L 104.063945 190.271225 
L 104.194106 190.355688 
L 104.457894 190.525457 
L 104.531008 190.572181 
L 104.706466 190.683723 
L 104.866389 190.784676 
L 105.070371 190.912459 
L 105.149751 190.961891 
L 105.296562 191.052878 
L 105.534676 191.199257 
L 105.615204 191.248428 
L 105.791329 191.355391 
L 106.004083 191.48354 
L 106.090976 191.535546 
L 106.337192 191.681872 
L 106.477778 191.764737 
L 106.554586 191.8098 
L 106.803037 191.954559 
L 106.892308 192.006198 
L 106.892308 138.046154 
z
" clip-path="url(#pd63cbc4486)" style="fill: #808080; opacity: 0.5"/>
   </g>
   <g id="patch_7">
    <path d="M 200.353846 138.046154 
L 200.332176 139.689304 
L 200.310506 140.369716 
L 200.288836 140.891678 
L 200.267166 141.331596 
L 200.245496 141.71907 
L 200.223826 142.069282 
L 200.202156 142.391251 
L 200.180486 142.690853 
L 200.158816 142.972173 
L 200.137147 143.238181 
L 200.115477 143.491124 
L 200.093807 143.732744 
L 200.050467 144.187303 
L 200.007127 144.610174 
L 199.963787 145.007134 
L 199.920447 145.382391 
L 199.877107 145.739122 
L 199.833767 146.079794 
L 199.790427 146.406372 
L 199.747087 146.720446 
L 199.703747 147.02333 
L 199.660407 147.316121 
L 199.599262 147.713799 
L 199.539745 148.085414 
L 199.480228 148.443415 
L 199.420711 148.789163 
L 199.361194 149.123805 
L 199.24216 149.763549 
L 199.123126 150.368978 
L 199.043562 150.756966 
L 198.963998 151.132973 
L 198.884433 151.498004 
L 198.804869 151.852929 
L 198.645741 152.535412 
L 198.486612 153.185491 
L 198.307713 153.882598 
L 198.128815 154.548347 
L 197.949916 155.186393 
L 197.771017 155.799722 
L 197.734223 155.923037 
L 197.545284 156.542154 
L 197.356346 157.139337 
L 197.167407 157.716586 
L 196.978469 158.275607 
L 196.773227 158.863919 
L 196.567986 159.434087 
L 196.28408 160.195475 
L 195.968938 161.006982 
L 195.653795 161.786587 
L 195.319257 162.582661 
L 195.110592 163.064115 
L 194.901928 163.534769 
L 194.693263 163.995211 
L 194.484598 164.445974 
L 194.259502 164.921942 
L 194.034406 165.387773 
L 193.870735 165.720414 
L 193.534849 166.387876 
L 193.198963 167.036086 
L 192.936379 167.530246 
L 192.636023 168.08271 
L 192.335667 168.622244 
L 191.820187 169.519982 
L 191.413633 170.204522 
L 191.117632 170.690705 
L 190.82163 171.167108 
L 190.660464 171.422536 
L 190.082989 172.315912 
L 189.485366 173.206585 
L 189.228979 173.578772 
L 188.88052 174.075527 
L 188.532062 174.5622 
L 188.063928 175.200842 
L 187.617577 175.794299 
L 187.022534 176.563198 
L 186.673492 177.002932 
L 186.248055 177.528115 
L 185.78746 178.083839 
L 185.242559 178.724746 
L 185.082576 178.909628 
L 184.297507 179.796135 
L 183.753481 180.391033 
L 183.39218 180.777717 
L 183.09001 181.09612 
L 182.525571 181.679054 
L 182.183218 182.025331 
L 181.669246 182.53519 
L 180.941433 183.237343 
L 180.692109 183.472699 
L 180.254102 183.879959 
L 179.746744 184.342043 
L 179.438418 184.617916 
L 178.519139 185.418994 
L 178.118398 185.758456 
L 177.798998 186.024898 
L 177.311332 186.424809 
L 176.985226 186.687671 
L 176.471297 187.09467 
L 176.030478 187.436838 
L 175.548438 187.803838 
L 174.80877 188.352799 
L 174.634067 188.480003 
L 174.124292 188.845923 
L 173.531938 189.26146 
L 173.139674 189.531039 
L 172.635561 189.871065 
L 171.94356 190.326307 
L 171.517341 190.600204 
L 171.401392 190.673871 
L 170.532143 191.214839 
L 170.429433 191.277458 
L 169.666713 191.734037 
L 169.536296 191.810635 
L 168.973235 192.136488 
L 168.268057 192.53363 
L 167.885301 192.744178 
L 167.390912 193.010995 
L 166.986221 193.225145 
L 166.47668 193.489401 
L 165.950339 193.756162 
L 165.383507 194.036489 
L 165.284631 194.084657 
L 164.583824 194.419912 
L 164.357831 194.525744 
L 163.589711 194.877265 
L 163.243654 195.031542 
L 162.717311 195.261384 
L 162.206786 195.478831 
L 161.659519 195.705997 
L 161.354919 195.829802 
L 160.684273 196.095823 
L 160.643542 196.111691 
L 159.779055 196.440756 
L 159.334496 196.604287 
L 158.964723 196.737397 
L 158.759116 196.810273 
L 158.010301 197.068873 
L 157.421009 197.264931 
L 157.116541 197.363679 
L 156.517696 197.552882 
L 156.120255 197.674799 
L 155.854164 197.754807 
L 155.090222 197.97735 
L 154.581501 198.119699 
L 154.411404 198.16626 
L 153.788466 198.332372 
L 153.315521 198.453893 
L 152.834337 198.573488 
L 152.287852 198.704398 
L 151.927957 198.787771 
L 151.394477 198.907232 
L 151.049279 198.981917 
L 150.519273 199.09261 
L 150.001087 199.1962 
L 149.643583 199.265008 
L 149.13941 199.358373 
L 148.661493 199.442922 
L 148.449544 199.47919 
L 147.905602 199.568831 
L 147.242002 199.671513 
L 147.037259 199.701718 
L 146.259252 199.810169 
L 145.687492 199.883509 
L 145.576386 199.897137 
L 144.940391 199.971254 
L 144.696724 199.997897 
L 143.782242 200.08925 
L 143.440666 200.119882 
L 142.99831 200.156738 
L 142.671995 200.181893 
L 142.297389 200.208647 
L 141.455023 200.260526 
L 140.990855 200.284223 
L 140.805282 200.292726 
L 140.023267 200.32247 
L 139.759785 200.330277 
L 139.408879 200.338942 
L 138.636337 200.351051 
L 138.392146 200.352886 
L 137.881739 200.353629 
L 137.469064 200.351174 
L 136.896049 200.343231 
L 136.461967 200.333704 
L 136.204085 200.326611 
L 135.32997 200.294615 
L 135.235671 200.290428 
L 134.671868 200.262412 
L 134.240927 200.237542 
L 133.628928 200.197072 
L 133.157405 200.161761 
L 132.785763 200.131392 
L 132.039378 200.063628 
L 131.981213 200.057967 
L 131.538754 200.013099 
L 131.024261 199.956909 
L 130.343467 199.875897 
L 129.80337 199.806214 
L 129.389617 199.749581 
L 129.042925 199.699948 
L 128.654191 199.641929 
L 127.843785 199.512894 
L 127.72099 199.492387 
L 127.245858 199.410656 
L 126.747024 199.320767 
L 126.021442 199.182516 
L 125.828672 199.144285 
L 125.090446 198.992016 
L 124.756303 198.920027 
L 124.233665 198.80357 
L 123.815194 198.706918 
L 123.260443 198.574092 
L 123.064 198.525767 
L 122.580018 198.403814 
L 122.017152 198.256781 
L 121.253161 198.048186 
L 120.781928 197.914301 
L 120.340111 197.785124 
L 120.242686 197.756162 
L 119.493819 197.527743 
L 118.980593 197.365231 
L 118.692427 197.271839 
L 118.291676 197.139378 
L 117.642268 196.918303 
L 117.290189 196.795098 
L 116.530622 196.521195 
L 116.505137 196.511811 
L 115.750099 196.228062 
L 115.353095 196.074368 
L 114.81549 195.861245 
L 114.41419 195.698377 
L 113.872752 195.473457 
L 113.318411 195.236951 
L 112.896542 195.052693 
L 112.695159 194.963424 
L 112.24146 194.759171 
L 111.80785 194.559869 
L 111.328287 194.334733 
L 110.563375 193.965251 
L 109.99801 193.683822 
L 109.748645 193.55741 
L 109.261985 193.306629 
L 108.817731 193.072946 
L 108.517563 192.912453 
L 107.805593 192.523277 
L 107.412943 192.303457 
L 106.892308 192.006198 
L 106.892308 200.353846 
L 106.913902 201.994137 
L 106.935497 202.673367 
L 106.957092 203.194421 
L 106.978686 203.633576 
L 107.000281 204.020377 
L 107.021875 204.369981 
L 107.04347 204.691392 
L 107.065065 204.990475 
L 107.086659 205.271307 
L 107.108254 205.536855 
L 107.129848 205.78936 
L 107.151443 206.030563 
L 107.194632 206.484336 
L 107.237822 206.906477 
L 107.281011 207.302753 
L 107.3242 207.677363 
L 107.367389 208.03348 
L 107.410579 208.373567 
L 107.453768 208.699583 
L 107.496957 209.013119 
L 107.540146 209.315484 
L 107.583335 209.607774 
L 107.640308 209.979483 
L 107.697281 210.337037 
L 107.754254 210.681906 
L 107.811227 211.015321 
L 107.8682 211.338325 
L 107.925172 211.651812 
L 108.039118 212.253218 
L 108.130332 212.712817 
L 108.221546 213.155277 
L 108.312759 213.582317 
L 108.403973 213.995387 
L 108.514733 214.479955 
L 108.625494 214.947602 
L 108.736254 215.399907 
L 108.847014 215.838214 
L 108.965096 216.291376 
L 109.083178 216.731154 
L 109.225571 217.245157 
L 109.367964 217.742809 
L 109.510358 218.225475 
L 109.652751 218.694338 
L 109.840386 219.292822 
L 110.028022 219.87116 
L 110.215657 220.431093 
L 110.403293 220.974122 
L 110.663715 221.702193 
L 110.950949 222.473894 
L 111.210978 223.146869 
L 111.471008 223.797652 
L 111.690761 224.331669 
L 111.910515 224.852078 
L 112.285502 225.711064 
L 112.66049 226.536519 
L 112.94006 227.131966 
L 113.21963 227.711601 
L 113.335931 227.948309 
L 113.767145 228.80463 
L 114.190506 229.614812 
L 114.613867 230.397192 
L 115.093825 231.253205 
L 115.496061 231.947127 
L 115.695614 232.283913 
L 116.104559 232.959408 
L 116.513505 233.616163 
L 116.982297 234.347376 
L 117.272681 234.789323 
L 117.73949 235.4831 
L 118.14204 236.065655 
L 118.710957 236.865557 
L 119.19306 237.523114 
L 119.688899 238.181077 
L 120.13188 238.753952 
L 120.646452 239.402553 
L 120.965557 239.796044 
L 121.591702 240.549598 
L 121.783416 240.775574 
L 122.56839 241.678675 
L 122.988312 242.147726 
L 123.54869 242.75911 
L 123.601782 242.816195 
L 124.276772 243.529674 
L 124.582593 243.845633 
L 125.0965 244.366683 
L 125.880273 245.138328 
L 126.191768 245.437552 
L 126.528379 245.756283 
L 127.118315 246.303605 
L 127.661372 246.79511 
L 127.90872 247.015165 
L 128.515466 247.54513 
L 128.849269 247.830862 
L 129.549407 248.417127 
L 129.938792 248.735724 
L 130.248219 248.985186 
L 130.786031 249.411113 
L 131.226151 249.752584 
L 131.710046 250.120822 
L 132.251487 250.524115 
L 132.636718 250.805555 
L 133.401737 251.351227 
L 133.450561 251.385465 
L 134.113245 251.843342 
L 134.425803 252.054946 
L 135.171821 252.548976 
L 135.320275 252.645459 
L 136.213227 253.213295 
L 136.401753 253.330478 
L 136.839806 253.599187 
L 137.638805 254.076648 
L 137.996928 254.28544 
L 138.334708 254.479462 
L 138.703628 254.68818 
L 139.436753 255.093207 
L 139.62025 255.192581 
L 140.316262 255.562344 
L 140.521729 255.669353 
L 140.949376 255.888977 
L 141.685212 256.2572 
L 142.265772 256.539217 
L 142.759062 256.773039 
L 143.082979 256.923712 
L 143.664836 257.188729 
L 143.791426 257.245435 
L 144.240965 257.444082 
L 145.135823 257.827004 
L 145.47639 257.968417 
L 145.976269 258.171723 
L 146.306608 258.303317 
L 146.868049 258.521986 
L 147.515378 258.766393 
L 147.798852 258.870847 
L 148.183744 259.01018 
L 148.490081 259.119038 
L 149.213059 259.36885 
L 149.580015 259.49186 
L 150.125611 259.670085 
L 150.574497 259.812564 
L 150.959444 259.931784 
L 151.543328 260.107427 
L 152.109597 260.271846 
L 152.35129 260.340257 
L 152.890972 260.489228 
L 153.443807 260.636438 
L 153.686263 260.699289 
L 154.228024 260.83598 
L 154.752384 260.963374 
L 155.131983 261.052606 
L 155.659218 261.172394 
L 156.139695 261.27738 
L 156.445655 261.342166 
L 157.298337 261.514282 
L 157.721401 261.595093 
L 158.009582 261.648406 
L 158.32684 261.705479 
L 159.125237 261.841631 
L 159.323157 261.873733 
L 160.074043 261.989594 
L 160.220168 262.011053 
L 161.122842 262.135786 
L 161.264733 262.15417 
L 161.935444 262.236596 
L 162.525723 262.303039 
L 162.953539 262.347638 
L 163.133274 262.365485 
L 163.943126 262.439382 
L 164.277875 262.466818 
L 164.843276 262.509035 
L 165.237635 262.53542 
L 165.827924 262.570224 
L 166.078177 262.583282 
L 166.726963 262.612441 
L 167.046982 262.624329 
L 167.701412 262.643514 
L 168.068088 262.651256 
L 168.368011 262.655983 
L 168.93044 262.660955 
L 169.289252 262.661475 
L 169.740904 262.659191 
L 170.424859 262.649498 
L 170.713735 262.643148 
L 171.324314 262.625315 
L 171.603208 262.615175 
L 172.037293 262.596904 
L 172.769653 262.5592 
L 172.951715 262.548485 
L 173.758921 262.494531 
L 173.860882 262.486967 
L 174.35387 262.448018 
L 174.971447 262.393663 
L 175.667948 262.324921 
L 175.83884 262.306847 
L 176.49152 262.233425 
L 176.795883 262.196801 
L 177.562369 262.097828 
L 178.008829 262.035716 
L 178.431399 261.97389 
L 178.978463 261.889447 
L 179.280381 261.84071 
L 179.750585 261.761775 
L 180.312278 261.66262 
L 180.601297 261.609531 
L 181.067866 261.520849 
L 181.498449 261.435731 
L 182.04387 261.323376 
L 182.418044 261.243351 
L 182.91171 261.134086 
L 183.50764 260.99657 
L 183.778596 260.932003 
L 184.279872 260.809168 
L 184.851609 260.663677 
L 185.23191 260.563699 
L 185.814452 260.405561 
L 186.361633 260.251483 
L 186.650592 260.167936 
L 187.090041 260.037973 
L 187.517476 259.908179 
L 188.135642 259.714523 
L 188.5286 259.587736 
L 189.201785 259.363821 
L 189.395369 259.29785 
L 190.239979 259.001675 
L 190.282949 258.986241 
L 190.82908 258.786983 
L 191.569143 258.507694 
L 192.028554 258.328889 
L 192.51197 258.136201 
L 192.945021 257.959597 
L 193.109311 257.891602 
L 193.800612 257.599443 
L 194.330409 257.368854 
L 194.68382 257.21177 
L 194.962375 257.086099 
L 195.46199 256.856558 
L 196.21378 256.501012 
L 196.724776 256.252283 
L 197.226536 256.002402 
L 197.666177 255.778798 
L 197.941821 255.636359 
L 198.241892 255.479312 
L 198.773724 255.195832 
L 199.562554 254.763072 
L 199.673137 254.701214 
L 200.353846 254.313891 
z
" clip-path="url(#pd63cbc4486)" style="fill: #808080; opacity: 0.5"/>
   </g>
   <g id="patch_8">
    <path d="M 231.507692 200.353846 
L 231.500652 199.417235 
L 231.493612 199.029315 
L 231.486572 198.731679 
L 231.479532 198.480782 
L 231.472492 198.259756 
L 231.465452 198.05995 
L 231.458412 197.876225 
L 231.451372 197.705233 
L 231.444332 197.544647 
L 231.437292 197.392774 
L 231.430252 197.248335 
L 231.423212 197.110338 
L 231.416173 196.977991 
L 231.409133 196.850655 
L 231.402093 196.727801 
L 231.395053 196.608989 
L 231.388013 196.493844 
L 231.380973 196.382049 
L 231.366893 196.167442 
L 231.352813 195.963356 
L 231.338733 195.768388 
L 231.324653 195.58142 
L 231.310573 195.401546 
L 231.296493 195.228019 
L 231.282413 195.060214 
L 231.264532 194.854541 
L 231.246652 194.656345 
L 231.228972 194.466981 
L 231.211292 194.283573 
L 231.193612 194.105597 
L 231.175932 193.9326 
L 231.158252 193.764191 
L 231.140572 193.600026 
L 231.122892 193.439803 
L 231.105212 193.283254 
L 231.087306 193.128205 
L 231.0694 192.976457 
L 231.033588 192.682087 
L 230.997776 192.398763 
L 230.961965 192.125345 
L 230.926153 191.860875 
L 230.890341 191.604542 
L 230.854529 191.35565 
L 230.818718 191.113599 
L 230.79095 190.930293 
L 230.763183 190.750566 
L 230.735416 190.57422 
L 230.707649 190.401075 
L 230.67631 190.209299 
L 230.644971 190.021177 
L 230.591693 189.709198 
L 230.538415 189.406364 
L 230.485137 189.111938 
L 230.431859 188.825275 
L 230.377489 188.540151 
L 230.323119 188.261994 
L 230.268748 187.990332 
L 230.214378 187.724746 
L 230.165901 187.492762 
L 230.117423 187.265069 
L 230.058072 186.991827 
L 229.998721 186.724319 
L 229.93937 186.462215 
L 229.880019 186.205215 
L 229.845203 186.056717 
L 229.774887 185.761671 
L 229.704572 185.472807 
L 229.634256 185.18977 
L 229.563941 184.91224 
L 229.523005 184.75309 
L 229.457521 184.502043 
L 229.392037 184.255176 
L 229.326553 184.012301 
L 229.26107 183.773242 
L 229.153034 183.386752 
L 229.053457 183.038759 
L 228.986025 182.807343 
L 228.918593 182.579195 
L 228.811228 182.222381 
L 228.703863 181.873078 
L 228.582969 181.488228 
L 228.462075 181.111834 
L 228.353338 180.780112 
L 228.270519 180.531579 
L 228.1877 180.286465 
L 228.136754 180.137329 
L 228.046975 179.877467 
L 227.957195 179.621251 
L 227.824966 179.250247 
L 227.671853 178.829653 
L 227.557357 178.521133 
L 227.442862 178.217505 
L 227.330675 177.924555 
L 227.218489 177.635937 
L 227.16232 177.493008 
L 227.044128 177.195579 
L 226.925936 176.902517 
L 226.83261 176.674092 
L 226.679603 176.305068 
L 226.471744 175.814167 
L 226.358147 175.550726 
L 226.213072 175.219047 
L 226.09653 174.956337 
L 225.979987 174.696847 
L 225.940565 174.609783 
L 225.74972 174.193233 
L 225.612854 173.899387 
L 225.373166 173.394175 
L 225.185633 173.006864 
L 225.145029 172.923895 
L 225.010948 172.652103 
L 224.876867 172.383594 
L 224.767213 172.166378 
L 224.69749 172.029349 
L 224.555129 171.75213 
L 224.412768 171.478273 
L 224.263563 171.194756 
L 224.154907 170.990489 
L 223.964049 170.63605 
L 223.785796 170.309888 
L 223.633236 170.034358 
L 223.56485 169.911907 
L 223.316428 169.472448 
L 223.256331 169.367372 
L 223.00444 168.932026 
L 222.875803 168.712786 
L 222.70893 168.431395 
L 222.605357 168.258419 
L 222.45346 168.007015 
L 222.313626 167.777915 
L 222.085457 167.408786 
L 221.982039 167.243351 
L 221.845801 167.027157 
L 221.67553 166.75969 
L 221.415496 166.356927 
L 221.365953 166.280956 
L 221.136308 165.931928 
L 221.061249 165.818946 
L 220.908231 165.590254 
L 220.730375 165.327157 
L 220.49858 164.988549 
L 220.434717 164.896092 
L 220.212207 164.576713 
L 220.006535 164.285237 
L 219.971313 164.235675 
L 219.737861 163.909736 
L 219.611135 163.734644 
L 219.379492 163.41786 
L 219.331853 163.353226 
L 219.09436 163.033592 
L 218.914475 162.7943 
L 218.777303 162.613423 
L 218.627151 162.416988 
L 218.589884 162.368483 
L 218.415628 162.142977 
L 218.229582 161.904546 
L 217.979601 161.587894 
L 217.944615 161.543911 
L 217.788677 161.34886 
L 217.50488 160.997943 
L 217.35755 160.817801 
L 217.250568 160.687848 
L 217.165571 160.585109 
L 216.981781 160.364474 
L 216.837986 160.193284 
L 216.613218 159.92817 
L 216.482674 159.775561 
L 216.29477 159.557631 
L 216.092878 159.325727 
L 216.025482 159.248825 
L 215.903043 159.109764 
L 215.693962 158.874212 
L 215.473673 158.628606 
L 215.396514 158.543194 
L 215.197268 158.324097 
L 215.052556 158.16627 
L 214.853006 157.950408 
L 214.80292 157.896547 
L 214.665012 157.748902 
L 214.426819 157.496135 
L 214.28047 157.342223 
L 214.104577 157.158621 
L 214.024222 157.075241 
L 213.777217 156.820868 
L 213.598402 156.638512 
L 213.528895 156.568031 
L 213.314879 156.352414 
L 213.143978 156.181736 
L 213.033557 156.072159 
L 212.955678 155.995203 
L 212.746945 155.790273 
L 212.640882 155.686876 
L 212.482384 155.533273 
L 212.208853 155.270733 
L 212.026145 155.097136 
L 211.948594 155.023875 
L 211.84377 154.92525 
L 211.59858 154.696329 
L 211.418075 154.529369 
L 211.322183 154.44121 
L 211.145151 154.279419 
L 210.959307 154.110914 
L 210.814154 153.980247 
L 210.733264 153.907786 
L 210.54359 153.738869 
L 210.311485 153.534039 
L 210.144723 153.388133 
L 210.087458 153.338271 
L 209.854019 153.136272 
L 209.777111 153.070164 
L 209.628097 152.942692 
L 209.476944 152.814217 
L 209.220128 152.597822 
L 209.094982 152.493226 
L 208.916482 152.344997 
L 208.8689 152.305673 
L 208.704604 152.170501 
L 208.53146 152.029062 
L 208.290428 151.833882 
L 208.132999 151.707468 
L 208.049183 151.640506 
L 207.836622 151.471744 
L 207.649696 151.324575 
L 207.51963 151.222853 
L 207.379151 151.113609 
L 207.300373 151.052628 
L 207.063006 150.870099 
L 206.945422 150.780348 
L 206.795481 150.66654 
L 206.569345 150.496243 
L 206.472669 150.423929 
L 206.280365 150.280949 
L 206.203809 150.224348 
L 206.061994 150.119974 
L 205.899738 150.001312 
L 205.652063 149.821722 
L 205.499556 149.712057 
L 205.375898 149.623648 
L 205.244921 149.530503 
L 205.114162 149.438019 
L 204.859037 149.259017 
L 204.692187 149.142976 
L 204.642677 149.108698 
L 204.370753 148.92169 
L 204.340332 148.900901 
L 204.092776 148.732701 
L 203.988299 148.662234 
L 203.842386 148.564334 
L 203.574888 148.386398 
L 203.531589 148.357784 
L 203.349192 148.23781 
L 203.201904 148.141596 
L 203.028347 148.028982 
L 202.860154 147.920626 
L 202.768509 147.861906 
L 202.549209 147.722308 
L 202.423847 147.643083 
L 202.166605 147.481817 
L 202.120492 147.453093 
L 201.865089 147.295006 
L 201.757348 147.228827 
L 201.644797 147.160015 
L 201.479829 147.059746 
L 201.255915 146.924764 
L 201.109405 146.837135 
L 200.983041 146.761992 
L 200.846645 146.681336 
L 200.651882 146.566974 
L 200.441366 146.444426 
L 200.353846 146.393802 
L 200.353846 254.313891 
L 200.448085 254.259372 
L 200.711305 254.105927 
L 200.888514 254.001648 
L 200.987037 253.94333 
L 201.205669 253.813042 
L 201.364472 253.717647 
L 201.470524 253.653581 
L 201.544546 253.608695 
L 201.739853 253.489583 
L 201.919262 253.379297 
L 202.104583 253.264497 
L 202.184359 253.214801 
L 202.453233 253.046075 
L 202.512705 253.008496 
L 202.742305 252.862534 
L 202.899785 252.761603 
L 202.940772 252.735225 
L 203.141128 252.605625 
L 203.344305 252.473084 
L 203.462713 252.39532 
L 203.687258 252.246789 
L 203.815888 252.161073 
L 203.99516 252.040841 
L 204.183735 251.913392 
L 204.220902 251.888154 
L 204.489852 251.704356 
L 204.544609 251.666682 
L 204.773525 251.508248 
L 204.889912 251.427114 
L 205.063999 251.30502 
L 205.282395 251.150591 
L 205.338059 251.111005 
L 205.455874 251.026917 
L 205.711636 250.842943 
L 205.788028 250.787612 
L 206.012198 250.624221 
L 206.187024 250.495731 
L 206.242328 250.454889 
L 206.413836 250.327629 
L 206.555944 250.221491 
L 206.832026 250.013479 
L 206.97234 249.906837 
L 207.155363 249.766789 
L 207.198735 249.733444 
L 207.358539 249.610058 
L 207.539165 249.469597 
L 207.694787 249.347722 
L 207.871921 249.208027 
L 208.005159 249.102263 
L 208.241473 248.913211 
L 208.337094 248.836177 
L 208.534855 248.675867 
L 208.686416 248.552098 
L 208.872594 248.398969 
L 208.972141 248.316595 
L 209.171903 248.150242 
L 209.253108 248.082214 
L 209.367931 247.98562 
L 209.613854 247.777141 
L 209.717119 247.688945 
L 209.872851 247.555199 
L 210.11691 247.343792 
L 210.187759 247.282005 
L 210.314858 247.170692 
L 210.539464 246.972482 
L 210.667682 246.858469 
L 210.780364 246.757746 
L 211.029016 246.533733 
L 211.178837 246.397584 
L 211.319632 246.268824 
L 211.513425 246.090293 
L 211.670761 245.944229 
L 211.833044 245.792509 
L 211.869531 245.758247 
L 212.058483 245.579933 
L 212.274095 245.374629 
L 212.473373 245.183119 
L 212.495056 245.162179 
L 212.764344 244.900411 
L 212.830595 244.835525 
L 213.079033 244.590471 
L 213.262953 244.407276 
L 213.377448 244.292458 
L 213.581392 244.086449 
L 213.702046 243.963666 
L 213.846808 243.81545 
L 213.982968 243.675137 
L 214.17785 243.47277 
L 214.338566 243.304497 
L 214.446222 243.191072 
L 214.636377 242.989327 
L 214.817643 242.795326 
L 214.987258 242.612284 
L 215.047069 242.547385 
L 215.26401 242.310437 
L 215.371836 242.191748 
L 215.563628 241.97911 
L 215.629615 241.905493 
L 215.897941 241.603704 
L 216.013749 241.472229 
L 216.161241 241.303698 
L 216.346855 241.089857 
L 216.468148 240.949052 
L 216.591291 240.805225 
L 216.829125 240.524918 
L 216.886893 240.456324 
L 217.122851 240.174053 
L 217.321055 239.934304 
L 217.371856 239.872459 
L 217.504537 239.710171 
L 217.710068 239.456555 
L 217.917901 239.19731 
L 218.063487 239.014009 
L 218.198575 238.842652 
L 218.322242 238.684694 
L 218.582975 238.348191 
L 218.681316 238.220031 
L 218.89811 237.935044 
L 219.012253 237.783619 
L 219.064394 237.714129 
L 219.239605 237.479127 
L 219.513136 237.107579 
L 219.566442 237.034495 
L 219.822205 236.680708 
L 219.975476 236.466165 
L 220.123475 236.257163 
L 220.214818 236.127256 
L 220.465229 235.767471 
L 220.541577 235.656693 
L 220.731522 235.378848 
L 220.913914 235.108985 
L 221.057704 234.89407 
L 221.252067 234.600465 
L 221.32911 234.483078 
L 221.451928 234.294744 
L 221.716408 233.884062 
L 221.859468 233.658935 
L 221.953354 233.510025 
L 222.097757 233.279153 
L 222.208542 233.100494 
L 222.49312 232.635294 
L 222.617542 232.428988 
L 222.678365 232.327476 
L 222.830789 232.071145 
L 223.052546 231.693147 
L 223.216741 231.409284 
L 223.30638 231.252845 
L 223.46468 230.973986 
L 223.625028 230.688066 
L 223.842904 230.293812 
L 223.949105 230.099165 
L 224.085353 229.847008 
L 224.297307 229.449126 
L 224.398275 229.257114 
L 224.556931 228.952075 
L 224.754023 228.567301 
L 224.892485 228.292989 
L 225.029814 228.017547 
L 225.167144 227.738647 
L 225.286365 227.493637 
L 225.38815 227.282275 
L 225.551004 226.939799 
L 225.65226 226.724112 
L 225.807973 226.388167 
L 225.938926 226.101522 
L 226.069879 225.810975 
L 226.12433 225.688983 
L 226.329868 225.222032 
L 226.437832 224.97252 
L 226.622244 224.539265 
L 226.759701 224.210279 
L 226.956663 223.729397 
L 227.124458 223.31045 
L 227.245427 223.00284 
L 227.344986 222.746014 
L 227.444544 222.485759 
L 227.622131 222.012635 
L 227.798558 221.530662 
L 227.937689 221.141641 
L 227.986805 221.002335 
L 228.146435 220.542118 
L 228.243545 220.256318 
L 228.340654 219.965872 
L 228.435291 219.678152 
L 228.529928 219.385613 
L 228.653521 218.995933 
L 228.785467 218.569792 
L 228.881012 218.254273 
L 228.976558 217.932573 
L 229.060935 217.643062 
L 229.145312 217.348202 
L 229.231684 217.040532 
L 229.318055 216.726627 
L 229.391101 216.456017 
L 229.464146 216.180445 
L 229.561029 215.806831 
L 229.657911 215.423335 
L 229.752483 215.038715 
L 229.813431 214.785082 
L 229.874378 214.526648 
L 229.935326 214.263147 
L 229.996274 213.994284 
L 230.045959 213.770917 
L 230.095644 213.543581 
L 230.154352 213.269554 
L 230.21306 212.989313 
L 230.255556 212.782344 
L 230.298052 212.571722 
L 230.340549 212.357255 
L 230.383045 212.138732 
L 230.44212 211.827785 
L 230.501195 211.50786 
L 230.564494 211.154191 
L 230.596143 210.972799 
L 230.627792 210.788159 
L 230.659441 210.600093 
L 230.691091 210.408411 
L 230.72274 210.212902 
L 230.754389 210.013332 
L 230.784944 209.816573 
L 230.815499 209.615534 
L 230.846053 209.40993 
L 230.876608 209.199442 
L 230.914152 208.933584 
L 230.951697 208.659051 
L 230.989242 208.374951 
L 231.026786 208.08023 
L 231.048453 207.904833 
L 231.070119 207.725201 
L 231.091786 207.541015 
L 231.113452 207.351917 
L 231.135118 207.157495 
L 231.156785 206.957281 
L 231.178451 206.75073 
L 231.200117 206.537207 
L 231.214934 206.386797 
L 231.22975 206.232502 
L 231.244567 206.074008 
L 231.259383 205.910956 
L 231.2742 205.742933 
L 231.289016 205.569457 
L 231.303833 205.389966 
L 231.318649 205.203791 
L 231.330464 205.050008 
L 231.342279 204.890985 
L 231.354095 204.72615 
L 231.36591 204.554819 
L 231.377725 204.376163 
L 231.38954 204.189157 
L 231.401355 203.992514 
L 231.413171 203.784578 
L 231.419078 203.675716 
L 231.424986 203.563154 
L 231.430893 203.446486 
L 231.436801 203.325229 
L 231.442709 203.198796 
L 231.448616 203.066463 
L 231.454524 202.927322 
L 231.460431 202.7802 
L 231.466339 202.623546 
L 231.472247 202.45523 
L 231.478154 202.272184 
L 231.484062 202.0697 
L 231.489969 201.839854 
L 231.495877 201.567196 
L 231.501785 201.211834 
z
" clip-path="url(#pd63cbc4486)" style="fill: #808080; opacity: 0.5"/>
   </g>
   <g id="matplotlib.axis_1"/>
   <g id="matplotlib.axis_2"/>
   <g id="line2d_1">
    <path d="M 106.892308 84.086109 
L 110.097256 82.358564 
L 113.732863 80.677936 
L 117.098534 79.365273 
L 120.74249 78.189394 
L 124.269531 77.280595 
L 127.702292 76.603066 
L 131.228885 76.112533 
L 134.910267 75.817425 
L 138.701171 75.741905 
L 141.892495 75.857295 
L 145.842296 76.228125 
L 149.523135 76.804604 
L 153.049273 77.571738 
L 156.759477 78.615017 
L 160.303813 79.849546 
L 164.006178 81.40407 
L 167.488232 83.133382 
L 170.71648 84.990539 
L 173.419999 86.753468 
L 176.719077 89.192765 
L 179.521774 91.548611 
L 182.453327 94.33973 
L 184.657601 96.698584 
L 186.637497 99.044489 
L 188.904712 102.050938 
L 190.912219 105.069986 
L 192.935482 108.560392 
L 194.666892 112.039606 
L 196.137672 115.515639 
L 197.441957 119.220983 
L 198.502455 122.970206 
L 199.23948 126.314771 
L 199.834183 130.015712 
L 200.213221 133.862341 
L 200.343801 136.927396 
L 200.353846 138.046154 
L 200.353846 138.046154 
" clip-path="url(#pd63cbc4486)" style="fill: none; stroke: #0000ff; stroke-linecap: square"/>
   </g>
   <g id="line2d_2">
    <path d="M 75.738462 138.046154 
L 75.858602 134.17874 
L 76.206446 130.423877 
L 76.771305 126.748303 
L 77.548979 123.13507 
L 78.551247 119.536574 
L 79.712532 116.150101 
L 81.157054 112.632006 
L 82.767019 109.297836 
L 84.610293 106.00154 
L 86.660941 102.806852 
L 88.938742 99.696309 
L 91.328356 96.818786 
L 93.864877 94.111392 
L 96.602836 91.519818 
L 99.516248 89.079891 
L 102.451309 86.906585 
L 105.649386 84.823058 
L 106.892308 84.086109 
L 106.892308 84.086109 
" clip-path="url(#pd63cbc4486)" style="fill: none; stroke: #0000ff; stroke-linecap: square"/>
   </g>
   <g id="line2d_3">
    <path d="M 75.738462 138.046154 
L 75.865406 142.021474 
L 76.208606 145.685933 
L 76.774554 149.361612 
L 77.567438 153.03193 
L 78.607129 156.734408 
L 79.826459 160.243352 
L 81.269603 163.710755 
L 82.962227 167.166756 
L 84.830346 170.454892 
L 86.827182 173.526647 
L 89.045348 176.532119 
L 91.504422 179.472181 
L 94.157196 182.272932 
L 96.839958 184.782627 
L 99.651934 187.11888 
L 102.60136 189.289837 
L 105.791329 191.355391 
L 106.892308 192.006198 
L 106.892308 192.006198 
" clip-path="url(#pd63cbc4486)" style="fill: none; stroke: #0000ff; stroke-linecap: square"/>
   </g>
   <g id="line2d_4">
    <path d="M 106.892308 200.353846 
L 107.04347 204.691392 
L 107.410579 208.373567 
L 107.925172 211.651812 
L 108.736254 215.399907 
L 109.652751 218.694338 
L 110.950949 222.473894 
L 112.285502 225.711064 
L 113.767145 228.80463 
L 115.695614 232.283913 
L 117.73949 235.4831 
L 120.13188 238.753952 
L 122.56839 241.678675 
L 125.0965 244.366683 
L 127.90872 247.015165 
L 130.786031 249.411113 
L 133.450561 251.385465 
L 136.839806 253.599187 
L 140.316262 255.562344 
L 143.664836 257.188729 
L 146.868049 258.521986 
L 150.574497 259.812564 
L 154.228024 260.83598 
L 158.009582 261.648406 
L 161.264733 262.15417 
L 165.237635 262.53542 
L 168.93044 262.660955 
L 172.769653 262.5592 
L 176.49152 262.233425 
L 180.312278 261.66262 
L 183.778596 260.932003 
L 187.517476 259.908179 
L 190.82908 258.786983 
L 194.330409 257.368854 
L 197.666177 255.778798 
L 200.353846 254.313891 
L 200.353846 254.313891 
" clip-path="url(#pd63cbc4486)" style="fill: none; stroke: #228b22; stroke-linecap: square"/>
   </g>
   <g id="line2d_5">
    <path d="M 200.353846 254.313891 
L 203.462713 252.39532 
L 206.555944 250.221491 
L 209.367931 247.98562 
L 212.058483 245.579933 
L 214.636377 242.989327 
L 217.122851 240.174053 
L 219.239605 237.479127 
L 221.451928 234.294744 
L 223.46468 230.973986 
L 225.167144 227.738647 
L 226.622244 224.539265 
L 227.986805 221.002335 
L 229.145312 217.348202 
L 230.045959 213.770917 
L 230.754389 210.013332 
L 231.22975 206.232502 
L 231.472247 202.45523 
L 231.507692 200.353846 
L 231.507692 200.353846 
" clip-path="url(#pd63cbc4486)" style="fill: none; stroke: #228b22; stroke-linecap: square"/>
   </g>
   <g id="text_1">
    <!-- $\Omega$ -->
    <g transform="translate(16.011538 22.420913) scale(0.1 -0.1)">
     <defs>
      <path id="Cmr10-ad" d="M 494 0 
L 281 1063 
L 469 1063 
Q 503 878 531 736 
Q 559 594 604 536 
Q 650 478 750 459 
Q 850 441 1081 441 
L 1472 441 
Q 1378 803 1004 1386 
Q 631 1969 495 2233 
Q 359 2497 359 2913 
Q 359 3397 646 3761 
Q 934 4125 1389 4319 
Q 1844 4513 2309 4513 
Q 2772 4513 3226 4319 
Q 3681 4125 3968 3758 
Q 4256 3391 4256 2913 
Q 4256 2588 4137 2300 
Q 4019 2013 3834 1725 
Q 3650 1438 3436 1084 
Q 3222 731 3144 441 
L 3531 441 
Q 3766 441 3869 459 
Q 3972 478 4015 536 
Q 4059 594 4086 736 
Q 4113 878 4147 1063 
L 4331 1063 
L 4122 0 
L 2988 0 
Q 2925 0 2925 84 
Q 2925 409 3004 721 
Q 3084 1034 3240 1478 
Q 3397 1922 3484 2261 
Q 3572 2600 3572 2913 
Q 3572 3297 3422 3625 
Q 3272 3953 2984 4150 
Q 2697 4347 2309 4347 
Q 1725 4347 1384 3930 
Q 1044 3513 1044 2913 
Q 1047 2584 1122 2293 
Q 1197 2003 1364 1518 
Q 1531 1034 1611 721 
Q 1691 409 1691 84 
Q 1691 0 1625 0 
L 494 0 
z
" transform="scale(0.015625)"/>
     </defs>
     <use xlink:href="#Cmr10-ad" transform="translate(0 0.484375)"/>
    </g>
   </g>
   <g id="text_2">
    <!-- $A$ -->
    <g style="fill: #0000ff" transform="translate(103.142308 78.497837) scale(0.1 -0.1)">
     <defs>
      <path id="Cmmi10-41" d="M 288 0 
Q 225 0 225 84 
Q 250 225 306 225 
Q 566 225 755 328 
Q 944 431 1081 647 
Q 1094 659 1094 659 
L 3378 4513 
Q 3428 4581 3500 4581 
L 3584 4581 
Q 3603 4581 3622 4573 
Q 3641 4566 3655 4548 
Q 3669 4531 3669 4513 
L 4056 378 
Q 4056 350 4084 294 
Q 4147 225 4563 225 
Q 4628 225 4628 141 
Q 4606 56 4592 28 
Q 4578 0 4519 0 
L 2919 0 
Q 2859 0 2859 84 
Q 2894 225 2944 225 
Q 3450 225 3481 397 
L 3384 1453 
L 1806 1453 
L 1294 594 
Q 1247 525 1247 434 
Q 1247 322 1355 273 
Q 1463 225 1594 225 
Q 1656 225 1656 141 
Q 1634 50 1621 25 
Q 1609 0 1550 0 
L 288 0 
z
M 1931 1678 
L 3359 1678 
L 3169 3750 
L 1931 1678 
z
" transform="scale(0.015625)"/>
     </defs>
     <use xlink:href="#Cmmi10-41" transform="translate(0 0.421875)"/>
    </g>
   </g>
   <g id="text_3">
    <!-- $B$ -->
    <g style="fill: #ff0000" transform="translate(227.707692 78.497837) scale(0.1 -0.1)">
     <defs>
      <path id="Cmmi10-42" d="M 319 0 
Q 256 0 256 84 
Q 259 100 268 137 
Q 278 175 293 200 
Q 309 225 341 225 
Q 522 225 656 234 
Q 791 244 884 269 
Q 959 297 1006 441 
L 1881 3956 
Q 1894 4019 1894 4044 
Q 1894 4113 1819 4122 
Q 1697 4147 1356 4147 
Q 1294 4147 1294 4231 
Q 1297 4247 1306 4286 
Q 1316 4325 1333 4348 
Q 1350 4372 1375 4372 
L 3669 4372 
Q 3878 4372 4083 4320 
Q 4288 4269 4461 4156 
Q 4634 4044 4736 3876 
Q 4838 3709 4838 3488 
Q 4838 3247 4714 3040 
Q 4591 2834 4395 2681 
Q 4200 2528 3973 2429 
Q 3747 2331 3500 2284 
Q 3675 2284 3854 2215 
Q 4034 2147 4175 2028 
Q 4316 1909 4402 1743 
Q 4488 1578 4488 1388 
Q 4488 1003 4219 684 
Q 3950 366 3542 183 
Q 3134 0 2753 0 
L 319 0 
z
M 1497 275 
Q 1497 225 1716 225 
L 2631 225 
Q 2944 225 3231 398 
Q 3519 572 3692 859 
Q 3866 1147 3866 1459 
Q 3866 1650 3786 1820 
Q 3706 1991 3556 2089 
Q 3406 2188 3213 2188 
L 1966 2188 
L 1522 416 
Q 1497 328 1497 275 
z
M 2009 2356 
L 2981 2356 
Q 3288 2356 3577 2512 
Q 3866 2669 4048 2937 
Q 4231 3206 4231 3506 
Q 4231 3784 4057 3965 
Q 3884 4147 3609 4147 
L 2731 4147 
Q 2559 4147 2500 4115 
Q 2441 4084 2400 3928 
L 2009 2356 
z
" transform="scale(0.015625)"/>
     </defs>
     <use xlink:href="#Cmmi10-42" transform="translate(0 0.6875)"/>
    </g>
   </g>
   <g id="text_4">
    <!-- $C$ -->
    <g style="fill: #228b22" transform="translate(150.023077 271.651683) scale(0.1 -0.1)">
     <defs>
      <path id="Cmmi10-43" d="M 934 1381 
Q 934 997 1082 705 
Q 1231 413 1514 248 
Q 1797 84 2181 84 
Q 2584 84 2957 290 
Q 3331 497 3595 842 
Q 3859 1188 3956 1575 
Q 3969 1613 4006 1613 
L 4084 1613 
Q 4109 1613 4125 1595 
Q 4141 1578 4141 1556 
Q 4141 1550 4134 1538 
Q 4025 1094 3711 705 
Q 3397 316 2959 87 
Q 2522 -141 2059 -141 
Q 1559 -141 1162 84 
Q 766 309 545 709 
Q 325 1109 325 1613 
Q 325 2150 565 2676 
Q 806 3203 1212 3614 
Q 1619 4025 2139 4269 
Q 2659 4513 3194 4513 
Q 3406 4513 3600 4448 
Q 3794 4384 3959 4253 
Q 4125 4122 4231 3950 
L 4738 4500 
Q 4738 4513 4769 4513 
L 4806 4513 
Q 4831 4513 4847 4491 
Q 4863 4469 4863 4447 
L 4428 2719 
Q 4428 2675 4378 2675 
L 4263 2675 
Q 4213 2675 4213 2747 
Q 4238 2888 4238 3084 
Q 4238 3397 4131 3673 
Q 4025 3950 3801 4119 
Q 3578 4288 3256 4288 
Q 2734 4288 2300 4025 
Q 1866 3763 1564 3336 
Q 1263 2909 1098 2389 
Q 934 1869 934 1381 
z
" transform="scale(0.015625)"/>
     </defs>
     <use xlink:href="#Cmmi10-43" transform="translate(0 0.484375)"/>
    </g>
   </g>
   <g id="patch_9">
    <path d="M 138.046154 200.353846 
C 154.570347 200.353846 170.419977 193.788715 182.104346 182.104346 
C 193.788715 170.419977 200.353846 154.570347 200.353846 138.046154 
C 200.353846 121.521961 193.788715 105.672331 182.104346 93.987962 
C 170.419977 82.303593 154.570347 75.738462 138.046154 75.738462 
C 121.521961 75.738462 105.672331 82.303593 93.987962 93.987962 
C 82.303593 105.672331 75.738462 121.521961 75.738462 138.046154 
C 75.738462 154.570347 82.303593 170.419977 93.987962 182.104346 
C 105.672331 193.788715 121.521961 200.353846 138.046154 200.353846 
L 138.046154 200.353846 
z
" clip-path="url(#pd63cbc4486)" style="fill: none; stroke: #0000ff; stroke-linejoin: miter"/>
   </g>
   <g id="patch_10">
    <path d="M 200.353846 200.353846 
C 216.878039 200.353846 232.727669 193.788715 244.412038 182.104346 
C 256.096407 170.419977 262.661538 154.570347 262.661538 138.046154 
C 262.661538 121.521961 256.096407 105.672331 244.412038 93.987962 
C 232.727669 82.303593 216.878039 75.738462 200.353846 75.738462 
C 183.829653 75.738462 167.980023 82.303593 156.295654 93.987962 
C 144.611285 105.672331 138.046154 121.521961 138.046154 138.046154 
C 138.046154 154.570347 144.611285 170.419977 156.295654 182.104346 
C 167.980023 193.788715 183.829653 200.353846 200.353846 200.353846 
L 200.353846 200.353846 
z
" clip-path="url(#pd63cbc4486)" style="fill: none; stroke: #ff0000; stroke-linejoin: miter"/>
   </g>
   <g id="patch_11">
    <path d="M 169.2 262.661538 
C 185.724193 262.661538 201.573823 256.096407 213.258192 244.412038 
C 224.942561 232.727669 231.507692 216.878039 231.507692 200.353846 
C 231.507692 183.829653 224.942561 167.980023 213.258192 156.295654 
C 201.573823 144.611285 185.724193 138.046154 169.2 138.046154 
C 152.675807 138.046154 136.826177 144.611285 125.141808 156.295654 
C 113.457439 167.980023 106.892308 183.829653 106.892308 200.353846 
C 106.892308 216.878039 113.457439 232.727669 125.141808 244.412038 
C 136.826177 256.096407 152.675807 262.661538 169.2 262.661538 
L 169.2 262.661538 
z
" clip-path="url(#pd63cbc4486)" style="fill: none; stroke: #228b22; stroke-linejoin: miter"/>
   </g>
  </g>
 </g>
 <defs>
  <clipPath id="pd63cbc4486">
   <rect x="7.2" y="7.2" width="324" height="324"/>
  </clipPath>
 </defs>
</svg>
