<?xml version="1.0" encoding="utf-8" standalone="no"?>
<!DOCTYPE svg PUBLIC "-//W3C//DTD SVG 1.1//EN"
  "http://www.w3.org/Graphics/SVG/1.1/DTD/svg11.dtd">
<!-- Created with matplotlib (https://matplotlib.org/) -->
<svg height="338.4pt" version="1.1" viewBox="0 0 338.4 338.4" width="338.4pt" xmlns="http://www.w3.org/2000/svg" xmlns:xlink="http://www.w3.org/1999/xlink">
 <metadata>
  <rdf:RDF xmlns:cc="http://creativecommons.org/ns#" xmlns:dc="http://purl.org/dc/elements/1.1/" xmlns:rdf="http://www.w3.org/1999/02/22-rdf-syntax-ns#">
   <cc:Work>
    <dc:type rdf:resource="http://purl.org/dc/dcmitype/StillImage"/>
    <dc:date>2021-08-17T15:45:19.193852</dc:date>
    <dc:format>image/svg+xml</dc:format>
    <dc:creator>
     <cc:Agent>
      <dc:title>Matplotlib v3.3.4, https://matplotlib.org/</dc:title>
     </cc:Agent>
    </dc:creator>
   </cc:Work>
  </rdf:RDF>
 </metadata>
 <defs>
  <style type="text/css">*{stroke-linecap:butt;stroke-linejoin:round;}</style>
 </defs>
 <g id="figure_1">
  <g id="patch_1">
   <path d="M -0 338.4 
L 338.4 338.4 
L 338.4 0 
L -0 0 
z
" style="fill:#ffffff;"/>
  </g>
  <g id="axes_1">
   <g id="patch_2">
    <path d="M 7.2 331.2 
L 331.2 331.2 
L 331.2 7.2 
L 7.2 7.2 
z
" style="fill:#ffffff;"/>
   </g>
   <g id="patch_3">
    <path clip-path="url(#p5ceaa5fba7)" d="M 13.430769 324.969231 
L 13.430769 13.430769 
L 324.969231 13.430769 
L 324.969231 324.969231 
z
" style="fill:none;stroke:#000000;stroke-linejoin:miter;"/>
   </g>
   <g id="patch_4">
    <path clip-path="url(#p5ceaa5fba7)" d="M 169.2 138.046154 
L 168.976891 138.046553 
L 168.890558 138.046922 
L 168.68338 138.048296 
L 168.628244 138.048777 
L 168.345751 138.05201 
L 168.194831 138.054262 
L 168.06257 138.056537 
L 167.954071 138.058612 
L 167.834545 138.061117 
L 167.689262 138.064472 
L 167.41781 138.071647 
L 167.335191 138.074066 
L 167.22816 138.077363 
L 167.030644 138.08393 
L 166.789977 138.09278 
L 166.640883 138.09873 
L 166.577227 138.10138 
L 166.35852 138.110979 
L 166.291174 138.11409 
L 165.996381 138.128567 
L 165.933003 138.131862 
L 165.724148 138.14318 
L 165.651119 138.147303 
L 165.37249 138.163825 
L 165.219861 138.173407 
L 165.151898 138.177795 
L 164.955291 138.190907 
L 164.799298 138.201756 
L 164.611697 138.215324 
L 164.48281 138.224975 
L 164.302438 138.238933 
L 164.203526 138.246811 
L 164.01855 138.26197 
L 163.863961 138.275064 
L 163.677962 138.291332 
L 163.540038 138.303759 
L 163.474998 138.309726 
L 163.243408 138.331531 
L 163.151773 138.3404 
L 162.891408 138.366346 
L 162.804649 138.375237 
L 162.601938 138.396489 
L 162.543718 138.402717 
L 162.237482 138.436386 
L 162.201146 138.440483 
L 162.06627 138.455878 
L 161.890496 138.476389 
L 161.687165 138.500747 
L 161.605554 138.510715 
L 161.428356 138.532733 
L 161.237226 138.55706 
L 161.051924 138.58122 
L 160.970671 138.591992 
L 160.714458 138.626671 
L 160.549028 138.649639 
L 160.400219 138.670685 
L 160.242065 138.693454 
L 160.153465 138.706391 
L 159.923079 138.740639 
L 159.793343 138.760313 
L 159.631772 138.785205 
L 159.42744 138.817307 
L 159.393787 138.822661 
L 159.179745 138.857155 
L 159.047707 138.878815 
L 158.897659 138.903783 
L 158.721633 138.933554 
L 158.540501 138.96473 
L 158.423294 138.985197 
L 158.2199 139.021262 
L 158.073155 139.047714 
L 157.85551 139.087615 
L 157.826608 139.092974 
L 157.568929 139.141374 
L 157.400431 139.173631 
L 157.319686 139.18926 
L 157.211532 139.210366 
L 156.922179 139.267812 
L 156.899528 139.272368 
L 156.648953 139.323364 
L 156.540446 139.345779 
L 156.295382 139.397145 
L 156.27533 139.401394 
L 155.98281 139.464156 
L 155.912893 139.479374 
L 155.736744 139.51809 
L 155.567505 139.55579 
L 155.384738 139.59706 
L 155.287907 139.619159 
L 155.058292 139.672213 
L 154.994292 139.687163 
L 154.846801 139.721889 
L 154.600048 139.780833 
L 154.513835 139.801678 
L 154.353108 139.840886 
L 154.17242 139.885504 
L 154.037705 139.919143 
L 153.922611 139.948135 
L 153.743791 139.993643 
L 153.52789 140.04934 
L 153.319963 140.10376 
L 153.159178 140.146367 
L 153.091168 140.164528 
L 152.873658 140.223163 
L 152.703307 140.269675 
L 152.629364 140.290025 
L 152.45091 140.339544 
L 152.263654 140.392119 
L 152.101767 140.438081 
L 151.907662 140.493813 
L 151.827924 140.516905 
L 151.64265 140.571006 
L 151.560035 140.595331 
L 151.36782 140.652407 
L 151.235947 140.691955 
L 151.012183 140.759788 
L 150.824092 140.817517 
L 150.702921 140.855051 
L 150.612388 140.883272 
L 150.382593 140.955583 
L 150.310889 140.978346 
L 150.128899 141.03655 
L 149.868674 141.120846 
L 149.71338 141.171753 
L 149.620357 141.202463 
L 149.413916 141.271197 
L 149.391197 141.27881 
L 149.090994 141.380323 
L 149.054944 141.392628 
L 148.902787 141.444835 
L 148.739619 141.501307 
L 148.469411 141.595943 
L 148.431882 141.609197 
L 148.257428 141.671164 
L 148.132429 141.715924 
L 147.922754 141.79168 
L 147.761251 141.850611 
L 147.539947 141.932184 
L 147.479442 141.954652 
L 147.215274 142.053586 
L 147.193831 142.061676 
L 147.008983 142.131795 
L 146.743264 142.233768 
L 146.700296 142.250388 
L 146.531514 142.316029 
L 146.305957 142.404633 
L 146.189229 142.450885 
L 145.995689 142.528173 
L 145.944933 142.548566 
L 145.786771 142.612446 
L 145.510453 142.725261 
L 145.401901 142.770003 
L 145.298047 142.813033 
L 145.047259 142.91785 
L 144.976487 142.947662 
L 144.763826 143.037863 
L 144.58889 143.112762 
L 144.443536 143.175476 
L 144.30032 143.237697 
L 144.120723 143.316329 
L 143.981484 143.377755 
L 143.904752 143.411779 
L 143.682999 143.510806 
L 143.564686 143.564066 
L 143.344048 143.66418 
L 143.211634 143.724761 
L 142.995115 143.824628 
L 142.848831 143.89267 
L 142.808949 143.9113 
L 142.599784 144.009574 
L 142.396299 144.106089 
L 142.306199 144.149113 
L 142.157333 144.220588 
L 141.933276 144.329081 
L 141.753027 144.417166 
L 141.623308 144.481003 
L 141.417352 144.583128 
L 141.283191 144.650163 
L 141.246385 144.668624 
L 140.957219 144.814726 
L 140.862402 144.863045 
L 140.662023 144.96583 
L 140.618716 144.988164 
L 140.381282 145.11138 
L 140.283819 145.162334 
L 140.083155 145.267933 
L 139.944922 145.341221 
L 139.786254 145.425892 
L 139.684293 145.480615 
L 139.405993 145.631221 
L 139.23259 145.725988 
L 139.157393 145.767307 
L 138.963764 145.874322 
L 138.813021 145.958258 
L 138.73465 146.002112 
L 138.553501 146.104048 
L 138.418769 146.180381 
L 138.140729 146.339309 
L 138.046154 146.393802 
L 138.046154 138.046154 
L 138.051209 138.839828 
L 138.056264 139.168556 
L 138.061319 139.420782 
L 138.066374 139.633406 
L 138.071429 139.820719 
L 138.076484 139.990054 
L 138.08154 140.145763 
L 138.086595 140.290685 
L 138.09165 140.42679 
L 138.096705 140.555514 
L 138.10176 140.677939 
L 138.106815 140.794909 
L 138.11187 140.90709 
L 138.116925 141.015028 
L 138.12198 141.119168 
L 138.127036 141.219885 
L 138.137146 141.412267 
L 138.147256 141.594205 
L 138.157366 141.76723 
L 138.167476 141.932533 
L 138.177587 142.091062 
L 138.187697 142.243582 
L 138.197807 142.390729 
L 138.207917 142.533029 
L 138.222612 142.732119 
L 138.237307 142.923043 
L 138.252001 143.106727 
L 138.266696 143.283932 
L 138.281391 143.455295 
L 138.296085 143.621354 
L 138.31078 143.782571 
L 138.325475 143.939342 
L 138.342028 144.111043 
L 138.35858 144.27797 
L 138.375133 144.440498 
L 138.391686 144.598955 
L 138.408239 144.753629 
L 138.424791 144.904775 
L 138.457897 145.197375 
L 138.487469 145.448848 
L 138.517041 145.691941 
L 138.546613 145.927428 
L 138.576185 146.155972 
L 138.605757 146.378144 
L 138.63533 146.594443 
L 138.664902 146.805301 
L 138.694474 147.011104 
L 138.740873 147.324624 
L 138.787271 147.627665 
L 138.83367 147.921193 
L 138.880068 148.206033 
L 138.925037 148.474475 
L 138.970005 148.735989 
L 139.03188 149.085403 
L 139.093756 149.423756 
L 139.132998 149.633056 
L 139.172241 149.838512 
L 139.211484 150.040321 
L 139.250727 150.238664 
L 139.313445 150.548869 
L 139.376163 150.851255 
L 139.438881 151.146363 
L 139.501599 151.434675 
L 139.549925 151.652463 
L 139.598251 151.86665 
L 139.652997 152.105153 
L 139.707744 152.339466 
L 139.76249 152.569793 
L 139.817237 152.796321 
L 139.893557 153.106098 
L 139.969877 153.409251 
L 140.03183 153.650735 
L 140.093784 153.888296 
L 140.173304 154.18774 
L 140.252823 154.481345 
L 140.348922 154.82881 
L 140.44502 155.168686 
L 140.556579 155.554305 
L 140.623957 155.782806 
L 140.691335 156.008148 
L 140.800033 156.365322 
L 140.908732 156.71503 
L 140.98776 156.964831 
L 141.104027 157.32587 
L 141.20082 157.620831 
L 141.297612 157.91094 
L 141.382815 158.162465 
L 141.468017 158.410526 
L 141.590477 158.761244 
L 141.712937 159.10541 
L 141.85304 159.49153 
L 142.011902 159.920021 
L 142.123915 160.216487 
L 142.280302 160.622957 
L 142.464681 161.09161 
L 142.588225 161.39956 
L 142.715247 161.711326 
L 142.824489 161.975666 
L 142.933731 162.236625 
L 143.085528 162.593826 
L 143.197963 162.85449 
L 143.33802 163.174705 
L 143.529937 163.605728 
L 143.616916 163.798227 
L 143.803453 164.205312 
L 144.022994 164.674778 
L 144.107146 164.852071 
L 144.34241 165.340247 
L 144.496586 165.654395 
L 144.668716 165.999952 
L 144.853772 166.365587 
L 144.867214 166.391916 
L 145.130135 166.900794 
L 145.208933 167.051103 
L 145.478344 167.55764 
L 145.52028 167.635486 
L 145.793798 168.136844 
L 145.803008 168.153537 
L 146.034089 168.568482 
L 146.17821 168.823565 
L 146.368469 169.156081 
L 146.436923 169.274569 
L 146.684065 169.697427 
L 146.832178 169.947244 
L 147.02504 170.268614 
L 147.127096 170.436917 
L 147.228498 170.602964 
L 147.486174 171.019746 
L 147.628911 171.247505 
L 147.716403 171.386041 
L 147.881761 171.645689 
L 148.116477 172.009454 
L 148.287178 172.27057 
L 148.442534 172.505756 
L 148.482082 172.565259 
L 148.68813 172.8729 
L 148.816819 173.063055 
L 149.051159 173.405492 
L 149.145504 173.541988 
L 149.247366 173.688491 
L 149.441669 173.965491 
L 149.590958 174.176165 
L 149.794505 174.460457 
L 150.012024 174.760585 
L 150.029661 174.784756 
L 150.189433 175.002616 
L 150.400079 175.286852 
L 150.494208 175.412784 
L 150.777872 175.788322 
L 150.878321 175.919904 
L 151.115647 176.227932 
L 151.121489 176.235465 
L 151.351164 176.529731 
L 151.488494 176.703958 
L 151.685505 176.951695 
L 151.838712 177.142577 
L 151.979287 177.316378 
L 152.130438 177.501843 
L 152.268769 177.670311 
L 152.440333 177.877596 
L 152.572829 178.036439 
L 152.827148 178.338355 
L 152.871052 178.390085 
L 153.063123 178.615058 
L 153.307502 178.898204 
L 153.424493 179.032546 
L 153.473554 179.088653 
L 153.756071 179.409131 
L 153.783862 179.440418 
L 153.964971 179.643279 
L 154.223654 179.929968 
L 154.325516 180.041884 
L 154.501001 180.233417 
L 154.717418 180.467433 
L 154.84816 180.607651 
L 154.985893 180.754435 
L 155.137639 180.91506 
L 155.209395 180.990619 
L 155.423687 181.214768 
L 155.612781 181.41072 
L 155.765531 181.567765 
L 155.915003 181.720377 
L 156.104923 181.912785 
L 156.238655 182.047273 
L 156.40781 182.216216 
L 156.508637 182.316304 
L 156.597946 182.404577 
L 156.891637 182.692373 
L 157.023191 182.820062 
L 157.13627 182.92922 
L 157.341132 183.125583 
L 157.402204 183.183776 
L 157.681639 183.448039 
L 157.752459 183.514498 
L 157.895561 183.648155 
L 158.098432 183.836202 
L 158.316221 184.036225 
L 158.454064 184.161843 
L 158.477995 184.183575 
L 158.764864 184.44233 
L 158.901604 184.564539 
L 159.025945 184.675041 
L 159.109716 184.749154 
L 159.367535 184.975578 
L 159.570688 185.152232 
L 159.700411 185.26423 
L 159.767448 185.321864 
L 160.015631 185.533804 
L 160.173664 185.667593 
L 160.249021 185.731073 
L 160.39774 185.855756 
L 160.627284 186.046662 
L 160.739187 186.139057 
L 160.865858 186.243118 
L 161.069943 186.409605 
L 161.194026 186.510131 
L 161.430087 186.699925 
L 161.475272 186.73604 
L 161.643742 186.870086 
L 161.84586 187.029657 
L 161.968262 187.125635 
L 162.117946 187.242337 
L 162.267536 187.358236 
L 162.459025 187.505542 
L 162.682128 187.675683 
L 162.734639 187.715499 
L 162.968744 187.891943 
L 163.032647 187.939807 
L 163.175588 188.04641 
L 163.38478 188.20128 
L 163.601601 188.360377 
L 163.71921 188.446074 
L 163.876128 188.559762 
L 164.07198 188.700618 
L 164.119338 188.734505 
L 164.340847 188.892122 
L 164.478256 188.989167 
L 164.663278 189.118964 
L 164.886776 189.274422 
L 164.899602 189.283299 
L 165.204742 189.493107 
L 165.247584 189.522351 
L 165.456487 189.664202 
L 165.540262 189.72074 
L 165.812069 189.902823 
L 165.874215 189.944165 
L 166.089679 190.086671 
L 166.160359 190.133138 
L 166.39748 190.288031 
L 166.491778 190.349202 
L 166.676293 190.4682 
L 166.860088 190.585822 
L 167.020415 190.687686 
L 167.196113 190.79853 
L 167.395381 190.923258 
L 167.433649 190.947091 
L 167.619551 191.062325 
L 167.773657 191.157168 
L 168.007957 191.300186 
L 168.046699 191.323698 
L 168.280895 191.465011 
L 168.40697 191.540505 
L 168.520101 191.607905 
L 168.738072 191.736854 
L 168.844788 191.799552 
L 169.013316 191.897985 
L 169.2 192.006198 
z
" style="fill:#808080;opacity:0.5;"/>
   </g>
   <g id="patch_5">
    <path clip-path="url(#p5ceaa5fba7)" d="M 169.2 192.006198 
L 168.902223 192.177028 
L 168.473581 192.419127 
L 168.134172 192.607676 
L 168.101978 192.625417 
L 167.630515 192.882402 
L 167.285705 193.067033 
L 167.030029 193.202146 
L 166.831664 193.30593 
L 166.456938 193.499521 
L 166.04218 193.710065 
L 165.662951 193.899185 
L 165.440883 194.008439 
L 165.254273 194.099403 
L 164.739629 194.346304 
L 164.503396 194.457703 
L 164.141016 194.626245 
L 163.972694 194.703572 
L 163.647107 194.851433 
L 163.369553 194.975707 
L 162.944778 195.162763 
L 162.765471 195.240593 
L 162.419006 195.389092 
L 162.050349 195.54439 
L 161.550208 195.750642 
L 161.248496 195.872617 
L 161.074555 195.942106 
L 160.704912 196.08777 
L 160.575505 196.138123 
L 160.193862 196.284694 
L 159.846301 196.415685 
L 159.603424 196.50582 
L 159.292639 196.619487 
L 158.879719 196.767624 
L 158.671332 196.841141 
L 158.170841 197.014327 
L 157.83905 197.126521 
L 157.585828 197.210752 
L 157.319395 197.29808 
L 156.902851 197.431956 
L 156.808879 197.461713 
L 156.504003 197.557131 
L 156.054723 197.694624 
L 155.859766 197.753136 
L 155.515419 197.854793 
L 155.130968 197.965747 
L 154.65815 198.098548 
L 154.633952 198.105237 
L 154.066627 198.259051 
L 153.847933 198.316813 
L 153.58138 198.386068 
L 153.38264 198.436888 
L 153.047636 198.520976 
L 152.467398 198.661962 
L 152.334794 198.693357 
L 151.907332 198.792481 
L 151.603297 198.861057 
L 151.197147 198.950176 
L 150.90273 199.013005 
L 150.698993 199.055614 
L 150.459118 199.10487 
L 149.984155 199.199507 
L 149.863671 199.222904 
L 149.599556 199.273333 
L 149.030304 199.378013 
L 148.781157 199.422112 
L 148.570487 199.458587 
L 148.309654 199.502716 
L 147.979046 199.557016 
L 147.678168 199.604848 
L 147.424022 199.644077 
L 147.022809 199.703823 
L 146.776473 199.739185 
L 146.370656 199.795252 
L 146.083644 199.833266 
L 145.860027 199.861944 
L 145.392202 199.919283 
L 144.946455 199.970579 
L 144.857223 199.980457 
L 144.466391 200.02219 
L 144.065554 200.062404 
L 143.951566 200.073363 
L 143.464003 200.11785 
L 143.162575 200.143422 
L 142.966073 200.1593 
L 142.536187 200.191855 
L 142.156664 200.218111 
L 141.966096 200.230417 
L 141.765369 200.242745 
L 141.399948 200.263519 
L 141.153334 200.276323 
L 140.824775 200.291859 
L 140.461964 200.306995 
L 140.112522 200.319572 
L 139.730267 200.331082 
L 139.460768 200.337786 
L 139.077967 200.345302 
L 138.907219 200.347896 
L 138.437324 200.352618 
L 138.309024 200.353292 
L 138.01416 200.353838 
L 137.470069 200.351183 
L 137.113106 200.34686 
L 136.884191 200.343011 
L 136.679911 200.338865 
L 136.245316 200.327817 
L 135.88546 200.316371 
L 135.662403 200.308231 
L 135.5053 200.302018 
L 135.029754 200.280789 
L 134.642996 200.260839 
L 134.565418 200.256547 
L 134.072792 200.227026 
L 133.888877 200.215001 
L 133.498507 200.187665 
L 133.309912 200.173576 
L 132.795991 200.132258 
L 132.485199 200.105193 
L 132.291836 200.087562 
L 132.076131 200.067177 
L 131.579226 200.017336 
L 131.404424 199.998845 
L 131.136406 199.969525 
L 130.594053 199.906599 
L 130.380525 199.880502 
L 130.199422 199.857782 
L 129.680027 199.789627 
L 129.440147 199.756649 
L 129.034742 199.698753 
L 128.873725 199.675003 
L 128.42262 199.606174 
L 128.114222 199.557171 
L 127.919044 199.525339 
L 127.707311 199.490086 
L 127.396887 199.437046 
L 126.859767 199.34145 
L 126.708596 199.313668 
L 126.333077 199.242987 
L 126.036537 199.185483 
L 125.626298 199.103469 
L 125.480291 199.073587 
L 125.091328 198.992204 
L 124.695197 198.906654 
L 124.550359 198.8747 
L 123.997725 198.74945 
L 123.874386 198.720774 
L 123.400073 198.60803 
L 123.300103 198.583766 
L 122.942595 198.495563 
L 122.530779 198.391176 
L 122.249569 198.318174 
L 121.807551 198.200591 
L 121.64898 198.15756 
L 121.287171 198.057694 
L 120.977883 197.970462 
L 120.547127 197.846092 
L 120.319474 197.779004 
L 120.147078 197.727571 
L 119.867237 197.642928 
L 119.562621 197.549158 
L 119.186539 197.43103 
L 118.864367 197.327749 
L 118.479957 197.201986 
L 118.050364 197.05816 
L 117.928066 197.016579 
L 117.383858 196.828107 
L 117.313494 196.803327 
L 116.98996 196.688163 
L 116.527851 196.520175 
L 116.213039 196.403361 
L 116.04362 196.339696 
L 115.633296 196.183167 
L 115.450031 196.112183 
L 115.111805 195.979427 
L 114.722026 195.823603 
L 114.298964 195.651011 
L 114.177158 195.600646 
L 113.925801 195.495759 
L 113.352944 195.25187 
L 113.085787 195.135808 
L 112.712493 194.971141 
L 112.48183 194.867927 
L 112.36476 194.815111 
L 111.972893 194.636202 
L 111.649267 194.48597 
L 111.146773 194.248216 
L 111.081545 194.21695 
L 110.689802 194.027209 
L 110.296762 193.833426 
L 109.959151 193.664215 
L 109.672287 193.518419 
L 109.485333 193.422395 
L 109.166147 193.256603 
L 108.757265 193.040785 
L 108.528817 192.918509 
L 108.125014 192.699369 
L 107.889437 192.569735 
L 107.633056 192.427143 
L 107.091724 192.120841 
L 106.892308 192.006198 
L 106.892308 200.353846 
L 106.898171 201.208577 
L 106.904033 201.562589 
L 106.909896 201.834213 
L 106.915759 202.063186 
L 106.921622 202.264901 
L 106.927485 202.447253 
L 106.933347 202.614931 
L 106.93921 202.770991 
L 106.945073 202.917555 
L 106.950936 203.056169 
L 106.962662 203.313953 
L 106.974387 203.550976 
L 106.986113 203.771561 
L 106.997839 203.978709 
L 107.009564 204.174608 
L 107.02129 204.360906 
L 107.033016 204.538886 
L 107.044741 204.709569 
L 107.056467 204.87378 
L 107.079918 205.185404 
L 107.094326 205.367209 
L 107.108734 205.542608 
L 107.137551 205.876608 
L 107.166367 206.191387 
L 107.195183 206.489904 
L 107.223999 206.774427 
L 107.252816 207.046743 
L 107.281632 207.308284 
L 107.310448 207.560224 
L 107.339264 207.803537 
L 107.368081 208.039044 
L 107.396897 208.267439 
L 107.425713 208.489323 
L 107.483346 208.915568 
L 107.540978 209.321205 
L 107.57651 209.562209 
L 107.612041 209.79693 
L 107.683104 210.249301 
L 107.754167 210.681389 
L 107.82523 211.09564 
L 107.878543 211.395922 
L 107.931856 211.688 
L 107.985169 211.972494 
L 108.038482 212.249947 
L 108.139899 212.759995 
L 108.241315 213.249089 
L 108.342732 213.719529 
L 108.444149 214.17322 
L 108.570326 214.716685 
L 108.696503 215.239254 
L 108.799982 215.653728 
L 108.903462 216.056585 
L 109.006941 216.448696 
L 109.110421 216.830829 
L 109.247556 217.323023 
L 109.384691 217.80026 
L 109.497087 218.181091 
L 109.609482 218.55326 
L 109.721877 218.917289 
L 109.834272 219.273648 
L 110.004586 219.799962 
L 110.174899 220.310949 
L 110.32406 220.746791 
L 110.531961 221.337403 
L 110.739861 221.909836 
L 110.902143 222.344944 
L 111.048004 222.727801 
L 111.193865 223.103281 
L 111.415159 223.659653 
L 111.636453 224.200995 
L 111.866744 224.749467 
L 112.178754 225.470097 
L 112.41581 226.001541 
L 112.652865 226.520046 
L 112.853263 226.948842 
L 113.063269 227.389303 
L 113.273274 227.821096 
L 113.424408 228.126708 
L 113.790094 228.8493 
L 113.971778 229.199851 
L 114.265877 229.756068 
L 114.559976 230.299068 
L 114.875915 230.86847 
L 114.99647 231.082104 
L 115.421683 231.820355 
L 115.713109 232.313211 
L 116.056672 232.881299 
L 116.212794 233.135008 
L 116.629132 233.798612 
L 117.051291 234.453123 
L 117.136645 234.583301 
L 117.405029 234.98807 
L 117.673412 235.386107 
L 117.895778 235.710957 
L 118.200547 236.149158 
L 118.393847 236.422993 
L 118.743473 236.910479 
L 118.955395 237.20121 
L 119.285182 237.646734 
L 119.750584 238.261679 
L 120.126523 238.747105 
L 120.485129 239.201109 
L 120.54665 239.278133 
L 120.911194 239.72947 
L 121.291528 240.191352 
L 121.64068 240.607537 
L 121.832724 240.833343 
L 122.337078 241.416178 
L 122.539562 241.646122 
L 122.722558 241.85199 
L 123.151984 242.32799 
L 123.596086 242.810078 
L 123.722895 242.945881 
L 123.96864 243.206764 
L 124.426742 243.685173 
L 124.815399 244.083192 
L 124.97476 244.244354 
L 125.362048 244.631182 
L 125.783798 245.044807 
L 125.96496 245.22009 
L 126.264323 245.506655 
L 126.486026 245.71644 
L 127.017208 246.210804 
L 127.166497 246.347684 
L 127.583238 246.725105 
L 127.736652 246.862333 
L 128.235184 247.302035 
L 128.476282 247.51132 
L 128.864238 247.84358 
L 129.13331 248.070813 
L 129.480935 248.360558 
L 129.805612 248.627345 
L 129.992599 248.779338 
L 130.251904 248.988138 
L 130.733937 249.370277 
L 131.11584 249.66759 
L 131.385704 249.874827 
L 131.609436 250.044872 
L 131.86388 250.236335 
L 132.153541 250.451834 
L 132.433046 250.657321 
L 133.032517 251.090043 
L 133.054084 251.10541 
L 133.479596 251.405793 
L 133.796235 251.625885 
L 134.051586 251.801271 
L 134.422502 252.052726 
L 134.912706 252.379128 
L 134.993271 252.432135 
L 135.429271 252.715916 
L 135.652425 252.859167 
L 136.052146 253.112431 
L 136.319229 253.279298 
L 136.513356 253.39941 
L 137.010064 253.702291 
L 137.149341 253.786081 
L 137.459618 253.970976 
L 137.771548 254.154412 
L 138.145528 254.371142 
L 138.510059 254.57908 
L 138.690576 254.680852 
L 139.132826 254.926857 
L 139.459152 255.10538 
L 139.758434 255.266893 
L 140.16604 255.48349 
L 140.290106 255.548652 
L 140.742148 255.783073 
L 141.120332 255.975612 
L 141.477496 256.154485 
L 141.714443 256.271578 
L 141.973985 256.398405 
L 142.36128 256.584902 
L 142.547729 256.673514 
L 142.984309 256.878054 
L 143.098416 256.930837 
L 143.53087 257.12835 
L 143.81747 257.25706 
L 144.084149 257.375268 
L 144.346123 257.489941 
L 144.753386 257.665377 
L 144.969993 257.757289 
L 145.41105 257.94147 
L 145.702293 258.060919 
L 146.111113 258.225703 
L 146.330493 258.312747 
L 146.575894 258.408978 
L 147.023817 258.581549 
L 147.160935 258.633587 
L 147.714452 258.839911 
L 147.763076 258.857751 
L 148.127231 258.989901 
L 148.576575 259.149448 
L 148.73769 259.205714 
L 149.306209 259.400316 
L 149.406397 259.433976 
L 149.887999 259.59315 
L 150.136451 259.67357 
L 150.555983 259.806762 
L 150.630042 259.829935 
L 151.150693 259.990002 
L 151.299855 260.034943 
L 151.644144 260.137125 
L 152.066565 260.259555 
L 152.211364 260.300779 
L 152.711762 260.440338 
L 152.822372 260.470581 
L 153.378236 260.619262 
L 153.677297 260.696983 
L 153.95884 260.768708 
L 154.038395 260.788722 
L 154.526857 260.909171 
L 154.875399 260.992566 
L 155.019821 261.026501 
L 155.464243 261.128656 
L 155.767844 261.196477 
L 156.059657 261.260167 
L 156.240044 261.298805 
L 156.637884 261.382051 
L 156.923038 261.440054 
L 157.182798 261.491685 
L 157.737372 261.598084 
L 157.991021 261.645015 
L 158.118387 261.66817 
L 158.536011 261.742183 
L 158.78186 261.784383 
L 159.209366 261.855356 
L 159.519693 261.904965 
L 159.930701 261.9682 
L 160.127659 261.997509 
L 160.498918 262.051007 
L 160.65218 262.072428 
L 160.909903 262.107573 
L 161.295321 262.15809 
L 161.797491 262.220246 
L 162.018474 262.246287 
L 162.45278 262.295137 
L 162.638039 262.315037 
L 163.024172 262.354714 
L 163.219794 262.373889 
L 163.49537 262.399843 
L 163.811195 262.42807 
L 164.195418 262.460228 
L 164.519144 262.485465 
L 164.760635 262.503187 
L 165.060427 262.523875 
L 165.367582 262.543565 
L 165.676744 262.561846 
L 166.016815 262.580174 
L 166.249015 262.591618 
L 166.801513 262.615357 
L 167.109643 262.626464 
L 167.183532 262.6289 
L 167.487569 262.638002 
L 167.80649 262.645954 
L 168.177889 262.653154 
L 168.72219 262.659706 
L 168.773719 262.66008 
L 169.2 262.661538 
z
" style="fill:#808080;opacity:0.5;"/>
   </g>
   <g id="patch_6">
    <path clip-path="url(#p5ceaa5fba7)" d="M 200.353846 146.393802 
L 200.16641 146.286019 
L 200.013538 146.19875 
L 199.82356 146.091096 
L 199.658946 145.998523 
L 199.635529 145.985408 
L 199.344411 145.82346 
L 199.208913 145.748776 
L 199.061235 145.667878 
L 198.957277 145.61124 
L 198.741072 145.494266 
L 198.555763 145.394883 
L 198.542768 145.387943 
L 198.349088 145.284988 
L 198.170395 145.190772 
L 198.046752 145.126014 
L 197.922203 145.061138 
L 197.645102 144.918075 
L 197.503121 144.845451 
L 197.441247 144.813946 
L 197.29094 144.737773 
L 197.061646 144.622552 
L 196.85321 144.518835 
L 196.79671 144.490888 
L 196.590714 144.389596 
L 196.411235 144.302109 
L 196.245238 144.221827 
L 196.202891 144.201443 
L 195.931396 144.071691 
L 195.888522 144.051348 
L 195.698842 143.961826 
L 195.528381 143.88204 
L 195.374733 143.81066 
L 195.254343 143.755085 
L 195.09529 143.682138 
L 194.929673 143.606754 
L 194.749598 143.52545 
L 194.599277 143.458106 
L 194.382235 143.36171 
L 194.191721 143.277911 
L 194.120262 143.246675 
L 193.935772 143.166522 
L 193.807653 143.111275 
L 193.645319 143.041763 
L 193.446173 142.957229 
L 193.247743 142.87381 
L 193.205847 142.8563 
L 193.011 142.775336 
L 192.78019 142.680428 
L 192.757848 142.671298 
L 192.476708 142.557277 
L 192.391035 142.522847 
L 192.214203 142.452249 
L 191.987342 142.362592 
L 191.926695 142.338798 
L 191.785753 142.283783 
L 191.564197 142.198097 
L 191.357633 142.119082 
L 191.299329 142.096931 
L 191.132641 142.033971 
L 190.922056 141.955209 
L 190.815408 141.915651 
L 190.713543 141.878074 
L 190.557206 141.820793 
L 190.32269 141.735756 
L 190.243744 141.707368 
L 190.089131 141.652119 
L 189.897021 141.58411 
L 189.682471 141.508992 
L 189.549767 141.462968 
L 189.338576 141.390415 
L 189.267092 141.366048 
L 189.031566 141.286448 
L 188.958581 141.261994 
L 188.807427 141.211667 
L 188.648856 141.159332 
L 188.524073 141.118479 
L 188.309358 141.048863 
L 188.106669 140.983935 
L 187.989641 140.946793 
L 187.789664 140.883913 
L 187.646355 140.839306 
L 187.470952 140.785223 
L 187.429031 140.772381 
L 187.218772 140.708457 
L 187.062283 140.661406 
L 186.889102 140.609858 
L 186.778006 140.577076 
L 186.552133 140.511119 
L 186.387833 140.463723 
L 186.259341 140.426996 
L 186.150921 140.396238 
L 185.928669 140.333848 
L 185.79379 140.296418 
L 185.571378 140.235409 
L 185.553861 140.230641 
L 185.275054 140.155498 
L 185.130308 140.117032 
L 185.023216 140.088812 
L 184.93305 140.06521 
L 184.740226 140.015219 
L 184.482488 139.949425 
L 184.31848 139.908167 
L 184.171551 139.871608 
L 184.047789 139.841106 
L 183.847301 139.792265 
L 183.700901 139.757044 
L 183.613003 139.736078 
L 183.471923 139.702706 
L 183.283006 139.658563 
L 183.198478 139.639012 
L 182.960503 139.584635 
L 182.819356 139.552846 
L 182.586508 139.501156 
L 182.432785 139.467543 
L 182.324086 139.44402 
L 182.213965 139.420397 
L 181.996889 139.374438 
L 181.864759 139.34686 
L 181.748366 139.322813 
L 181.516176 139.275533 
L 181.335148 139.239309 
L 181.271084 139.226623 
L 181.037493 139.180958 
L 181.003068 139.174306 
L 180.803302 139.136104 
L 180.575124 139.093295 
L 180.470927 139.074039 
L 180.391821 139.059542 
L 180.154463 139.016677 
L 179.949603 138.980443 
L 179.804536 138.955211 
L 179.625036 138.924479 
L 179.595112 138.919408 
L 179.429333 138.891587 
L 179.255852 138.862966 
L 179.082645 138.834891 
L 178.92183 138.809273 
L 178.680118 138.771577 
L 178.562913 138.753648 
L 178.479607 138.741044 
L 178.300924 138.714397 
L 178.123638 138.688481 
L 178.031019 138.67515 
L 177.774933 138.639026 
L 177.652259 138.622105 
L 177.461616 138.596302 
L 177.38927 138.586667 
L 177.18669 138.560147 
L 177.070411 138.545229 
L 176.917309 138.525926 
L 176.782857 138.509293 
L 176.54432 138.480512 
L 176.383381 138.461621 
L 176.205396 138.441223 
L 176.161203 138.436238 
L 175.958855 138.413824 
L 175.803672 138.397087 
L 175.693521 138.385445 
L 175.451203 138.360532 
L 175.293185 138.344802 
L 175.144361 138.330358 
L 175.005901 138.317244 
L 174.852474 138.303076 
L 174.646768 138.284681 
L 174.535953 138.275057 
L 174.418401 138.265064 
L 174.136897 138.242047 
L 174.016435 138.23259 
L 173.860434 138.220692 
L 173.782251 138.214877 
L 173.539783 138.197472 
L 173.414941 138.188882 
L 173.308032 138.181725 
L 173.164085 138.172381 
L 172.902809 138.156276 
L 172.84288 138.152737 
L 172.650471 138.141767 
L 172.488843 138.133013 
L 172.261597 138.121418 
L 172.155847 138.116305 
L 172.041346 138.110973 
L 171.921079 138.105599 
L 171.688504 138.095868 
L 171.601584 138.092454 
L 171.450572 138.086813 
L 171.279491 138.080865 
L 171.01408 138.072568 
L 170.85276 138.068078 
L 170.742771 138.065257 
L 170.615413 138.062233 
L 170.529702 138.060344 
L 170.306624 138.055982 
L 170.083608 138.05242 
L 170.005263 138.051358 
L 169.803513 138.049077 
L 169.747324 138.048558 
L 169.441243 138.046621 
L 169.279073 138.046204 
L 169.2 138.046154 
L 169.2 262.661538 
L 169.421508 262.661145 
L 169.586192 262.660342 
L 169.592787 262.6603 
L 169.82876 262.658366 
L 170.006072 262.656324 
L 170.091916 262.655154 
L 170.359296 262.650753 
L 170.388828 262.650196 
L 170.64106 262.644872 
L 170.836282 262.640049 
L 170.948694 262.636995 
L 171.123469 262.631842 
L 171.229542 262.628476 
L 171.451775 262.620836 
L 171.515376 262.618504 
L 171.764308 262.608748 
L 171.878281 262.603949 
L 171.955959 262.600559 
L 172.17501 262.590474 
L 172.27202 262.585761 
L 172.409416 262.578826 
L 172.589804 262.56926 
L 172.867763 262.553493 
L 172.942845 262.54902 
L 173.059572 262.541885 
L 173.225895 262.53134 
L 173.356831 262.522723 
L 173.609449 262.505317 
L 173.789591 262.492274 
L 173.930731 262.481688 
L 174.104112 262.468242 
L 174.219609 262.459015 
L 174.419661 262.442522 
L 174.505603 262.435237 
L 174.722886 262.416285 
L 174.906667 262.399656 
L 174.991015 262.39184 
L 175.093739 262.382165 
L 175.272349 262.364935 
L 175.454714 262.346806 
L 175.674913 262.324194 
L 175.742039 262.317144 
L 175.963694 262.293341 
L 176.026019 262.286503 
L 176.250578 262.261341 
L 176.335983 262.251554 
L 176.522747 262.229737 
L 176.645811 262.215049 
L 176.85199 262.189884 
L 177.069419 262.16259 
L 177.126742 262.155264 
L 177.314984 262.130829 
L 177.47522 262.109569 
L 177.627584 262.088961 
L 177.752799 262.071738 
L 177.970222 262.041217 
L 178.065046 262.027661 
L 178.258482 261.999547 
L 178.368622 261.983262 
L 178.639742 261.942317 
L 178.747821 261.925655 
L 178.882399 261.904635 
L 178.985028 261.888403 
L 179.278331 261.841046 
L 179.365001 261.826777 
L 179.526748 261.799813 
L 179.670549 261.775472 
L 179.858022 261.743219 
L 180.030508 261.713023 
L 180.209662 261.681131 
L 180.251478 261.673609 
L 180.508943 261.626649 
L 180.624772 261.605157 
L 180.796314 261.572912 
L 180.957764 261.542109 
L 181.06567 261.521275 
L 181.18925 261.497173 
L 181.373065 261.460843 
L 181.590194 261.417187 
L 181.680413 261.398812 
L 181.841152 261.365729 
L 181.994455 261.333765 
L 182.163988 261.297948 
L 182.375687 261.252531 
L 182.464574 261.233232 
L 182.682551 261.185329 
L 182.837194 261.150848 
L 182.94671 261.126179 
L 183.206957 261.066725 
L 183.347663 261.034091 
L 183.453395 261.009343 
L 183.61672 260.970731 
L 183.690789 260.953067 
L 183.917014 260.898524 
L 184.048907 260.866312 
L 184.248437 260.817001 
L 184.405478 260.777699 
L 184.615862 260.724366 
L 184.703061 260.702033 
L 184.830778 260.669079 
L 185.006892 260.623164 
L 185.097094 260.599435 
L 185.247132 260.559644 
L 185.466805 260.500663 
L 185.606617 260.462676 
L 185.726529 260.429818 
L 185.968233 260.362803 
L 186.176047 260.304345 
L 186.190448 260.300266 
L 186.433089 260.230963 
L 186.499589 260.211784 
L 186.805172 260.122621 
L 186.874297 260.102217 
L 186.990197 260.067809 
L 187.25839 259.987252 
L 187.340834 259.962224 
L 187.533352 259.903294 
L 187.628738 259.873844 
L 187.829146 259.811423 
L 187.913823 259.784826 
L 188.123958 259.718249 
L 188.348694 259.646139 
L 188.515842 259.591898 
L 188.663488 259.543551 
L 188.828797 259.488936 
L 188.975233 259.440128 
L 189.092225 259.400844 
L 189.256454 259.345262 
L 189.435198 259.284189 
L 189.590451 259.23065 
L 189.710503 259.188936 
L 189.913977 259.117608 
L 190.013015 259.082603 
L 190.188608 259.020079 
L 190.348224 258.962729 
L 190.491133 258.910965 
L 190.591676 258.87431 
L 190.730817 258.823261 
L 190.999668 258.723556 
L 191.10982 258.682298 
L 191.303697 258.609104 
L 191.363388 258.586421 
L 191.591988 258.498901 
L 191.791986 258.421485 
L 191.968006 258.352694 
L 192.017214 258.333353 
L 192.21067 258.256848 
L 192.349815 258.201358 
L 192.49637 258.142493 
L 192.734745 258.045824 
L 192.793685 258.021745 
L 193.044491 257.918495 
L 193.181448 257.861573 
L 193.33357 257.7979 
L 193.521336 257.718654 
L 193.63669 257.669609 
L 193.734228 257.627926 
L 193.96621 257.527996 
L 194.027268 257.501508 
L 194.200765 257.42582 
L 194.406638 257.335193 
L 194.578126 257.259024 
L 194.670746 257.217627 
L 194.83345 257.144468 
L 194.988487 257.074234 
L 195.140554 257.004849 
L 195.374259 256.897252 
L 195.54425 256.818251 
L 195.580384 256.801378 
L 195.838813 256.67988 
L 195.976015 256.614788 
L 196.101446 256.55492 
L 196.353411 256.433618 
L 196.371441 256.424884 
L 196.551866 256.337093 
L 196.830624 256.200038 
L 196.914521 256.15845 
L 196.99336 256.119226 
L 197.17013 256.030775 
L 197.365859 255.932015 
L 197.59476 255.81542 
L 197.644853 255.789745 
L 197.918066 255.648703 
L 197.962111 255.625806 
L 198.222245 255.489659 
L 198.294736 255.45144 
L 198.502457 255.34125 
L 198.604886 255.286543 
L 198.811279 255.175564 
L 198.990585 255.078334 
L 199.138723 254.997431 
L 199.293451 254.912372 
L 199.425559 254.839295 
L 199.645737 254.716569 
L 199.653582 254.712174 
L 199.858703 254.596749 
L 200.079265 254.471491 
L 200.157036 254.427041 
L 200.353846 254.313891 
z
" style="fill:#808080;opacity:0.5;"/>
   </g>
   <g id="patch_7">
    <path clip-path="url(#p5ceaa5fba7)" d="M 231.507692 200.353846 
L 231.504983 199.772831 
L 231.502274 199.532175 
L 231.499565 199.347519 
L 231.496856 199.191853 
L 231.494147 199.054712 
L 231.491438 198.930732 
L 231.488729 198.816724 
L 231.48602 198.710611 
L 231.483311 198.610951 
L 231.480602 198.516693 
L 231.477893 198.427045 
L 231.475184 198.34139 
L 231.469766 198.180192 
L 231.464348 198.030163 
L 231.45893 197.889261 
L 231.453512 197.756002 
L 231.448094 197.629263 
L 231.442676 197.508174 
L 231.437258 197.392041 
L 231.43184 197.280303 
L 231.426421 197.172496 
L 231.421003 197.068233 
L 231.411337 196.890017 
L 231.40167 196.720558 
L 231.392003 196.558682 
L 231.382336 196.403458 
L 231.37267 196.25413 
L 231.363003 196.110074 
L 231.353336 195.970772 
L 231.343669 195.835784 
L 231.334003 195.704733 
L 231.324336 195.577296 
L 231.305002 195.332171 
L 231.285669 195.098538 
L 231.266335 194.874926 
L 231.249752 194.690213 
L 231.23317 194.511384 
L 231.216587 194.337914 
L 231.200005 194.169353 
L 231.183422 194.005308 
L 231.166839 193.845439 
L 231.150257 193.689445 
L 231.133674 193.537061 
L 231.117091 193.388048 
L 231.100509 193.242196 
L 231.067343 192.959229 
L 231.034178 192.686841 
L 231.001013 192.423943 
L 230.965739 192.153722 
L 230.930465 191.892273 
L 230.906291 191.717752 
L 230.882118 191.546755 
L 230.857944 191.37908 
L 230.833771 191.214545 
L 230.785424 190.894242 
L 230.737077 190.584675 
L 230.689164 190.287504 
L 230.641251 189.999079 
L 230.599494 189.754287 
L 230.557737 189.515182 
L 230.51598 189.281397 
L 230.474223 189.052602 
L 230.432337 188.827812 
L 230.39045 188.607472 
L 230.348564 188.391337 
L 230.306678 188.179182 
L 230.243023 187.863937 
L 230.179368 187.556771 
L 230.115714 187.257116 
L 230.052059 186.964469 
L 229.979019 186.636728 
L 229.912215 186.344011 
L 229.84541 186.057598 
L 229.789517 185.822538 
L 229.733624 185.591431 
L 229.677731 185.364095 
L 229.621837 185.140362 
L 229.555479 184.879198 
L 229.48912 184.62265 
L 229.39989 184.284565 
L 229.310659 183.953933 
L 229.226183 183.647384 
L 229.141707 183.346779 
L 229.036378 182.979832 
L 228.93105 182.621103 
L 228.918668 182.579448 
L 228.791632 182.15808 
L 228.664596 181.747118 
L 228.581399 181.483288 
L 228.432524 181.021061 
L 228.298261 180.614442 
L 228.198627 180.318613 
L 228.098993 180.027578 
L 227.942304 179.579095 
L 227.826942 179.255736 
L 227.711579 178.93788 
L 227.615373 178.676836 
L 227.519166 178.419321 
L 227.507521 178.388385 
L 227.402889 178.112617 
L 227.298256 177.840713 
L 227.136011 177.426413 
L 227.017849 177.130048 
L 226.899688 176.838011 
L 226.744255 176.460181 
L 226.633295 176.194684 
L 226.448521 175.760038 
L 226.383771 175.609859 
L 226.252485 175.308639 
L 226.1212 175.011678 
L 226.060493 174.87576 
L 225.86579 174.44561 
L 225.760894 174.217401 
L 225.632941 173.942263 
L 225.399217 173.448521 
L 225.317206 173.277885 
L 225.134411 172.90225 
L 224.901665 172.433011 
L 224.760616 172.153376 
L 224.558023 171.757732 
L 224.515933 171.676397 
L 224.317094 171.296068 
L 224.08729 170.86429 
L 223.986444 170.677356 
L 223.857865 170.441202 
L 223.71994 170.190547 
L 223.508331 169.811193 
L 223.335312 169.505563 
L 223.196797 169.263745 
L 223.06151 169.029953 
L 222.849098 168.667527 
L 222.726933 168.46159 
L 222.572773 168.204265 
L 222.505071 168.092136 
L 222.300906 167.757186 
L 222.076287 167.394071 
L 221.953653 167.198144 
L 221.851407 167.036016 
L 221.580091 166.611075 
L 221.492541 166.475554 
L 221.405879 166.342161 
L 221.149353 165.951619 
L 221.038835 165.78531 
L 220.868157 165.530721 
L 220.733406 165.331616 
L 220.603701 165.141519 
L 220.320012 164.73092 
L 220.204728 164.566051 
L 220.054522 164.352928 
L 219.871184 164.095335 
L 219.770152 163.954557 
L 219.635273 163.767896 
L 219.511587 163.597993 
L 219.332807 163.35452 
L 219.130087 163.081405 
L 218.909339 162.787503 
L 218.761451 162.592608 
L 218.684681 162.49206 
L 218.479074 162.224836 
L 218.315631 162.014528 
L 218.191992 161.856661 
L 217.97116 161.577275 
L 217.886072 161.470497 
L 217.729914 161.275771 
L 217.620815 161.14067 
L 217.477836 160.964774 
L 217.220617 160.651593 
L 217.165678 160.585238 
L 216.954817 160.332277 
L 216.79486 160.142184 
L 216.659386 159.982381 
L 216.423214 159.706379 
L 216.282998 159.544046 
L 216.163192 159.406231 
L 216.080296 159.311352 
L 215.87772 159.081107 
L 215.768116 158.957481 
L 215.611399 158.781854 
L 215.383394 158.528702 
L 215.202986 158.330355 
L 215.060558 158.174968 
L 214.942594 158.047066 
L 214.816975 157.911649 
L 214.620945 157.701926 
L 214.509111 157.583144 
L 214.295047 157.357506 
L 214.134485 157.189734 
L 214.008613 157.05908 
L 213.784112 156.827928 
L 213.709849 156.75199 
L 213.434455 156.472625 
L 213.280758 156.318232 
L 213.113385 156.151322 
L 213.061021 156.099362 
L 212.924082 155.964059 
L 212.796455 155.838707 
L 212.558859 155.60725 
L 212.472528 155.523757 
L 212.309102 155.366583 
L 212.135175 155.20056 
L 211.897664 154.9759 
L 211.847982 154.929203 
L 211.690775 154.782116 
L 211.490867 154.59654 
L 211.287108 154.409055 
L 211.135947 154.271041 
L 211.060727 154.202703 
L 210.835409 153.99933 
L 210.737913 153.911943 
L 210.514079 153.712712 
L 210.390101 153.603188 
L 210.236652 153.468436 
L 210.090515 153.34093 
L 209.865239 153.145935 
L 209.757138 153.053032 
L 209.638793 152.951815 
L 209.469687 152.80807 
L 209.22378 152.600883 
L 209.150144 152.539261 
L 208.957465 152.378931 
L 208.818174 152.263839 
L 208.647164 152.123464 
L 208.563655 152.055283 
L 208.322765 151.859952 
L 208.147928 151.71942 
L 207.971958 151.579019 
L 207.882522 151.508058 
L 207.64326 151.319529 
L 207.614355 151.296881 
L 207.435672 151.157486 
L 207.233194 151.000785 
L 207.063046 150.870129 
L 206.883691 150.733407 
L 206.726214 150.614206 
L 206.55905 150.488528 
L 206.462885 150.416626 
L 206.253711 150.261222 
L 206.137384 150.175383 
L 205.928592 150.022355 
L 205.908359 150.007596 
L 205.667047 149.832534 
L 205.476659 149.695653 
L 205.35259 149.607036 
L 205.157418 149.468558 
L 205.067023 149.404801 
L 204.899271 149.28712 
L 204.811162 149.225638 
L 204.583431 149.067772 
L 204.469274 148.989201 
L 204.281288 148.860626 
L 204.105401 148.741236 
L 203.952173 148.63794 
L 203.798027 148.534689 
L 203.611631 148.410722 
L 203.515243 148.346994 
L 203.261075 148.180178 
L 203.188233 148.132696 
L 203.012674 148.018852 
L 202.890626 147.9402 
L 202.695629 147.815371 
L 202.505059 147.694359 
L 202.31662 147.57565 
L 202.238593 147.526771 
L 202.142112 147.466553 
L 201.930064 147.335063 
L 201.687131 147.185859 
L 201.651076 147.163846 
L 201.39446 147.008132 
L 201.370117 146.993448 
L 201.099708 146.831354 
L 200.903216 146.714731 
L 200.783586 146.644205 
L 200.685371 146.58657 
L 200.4855 146.470027 
L 200.353846 146.393802 
L 200.353846 254.313891 
L 200.537896 254.20721 
L 200.651352 254.141029 
L 200.855353 254.021221 
L 201.044745 253.909058 
L 201.170106 253.834318 
L 201.245513 253.789168 
L 201.514207 253.627109 
L 201.576693 253.589156 
L 201.833584 253.432069 
L 201.853496 253.419821 
L 202.047573 253.299908 
L 202.16094 253.229407 
L 202.435236 253.057429 
L 202.54448 252.98838 
L 202.682636 252.900602 
L 202.859266 252.787636 
L 203.028993 252.678293 
L 203.180966 252.579725 
L 203.381449 252.448731 
L 203.499756 252.370913 
L 203.692518 252.243294 
L 203.857412 252.133305 
L 203.92262 252.0896 
L 204.066228 251.992927 
L 204.287047 251.843143 
L 204.406646 251.761439 
L 204.612265 251.620014 
L 204.667469 251.581838 
L 204.911124 251.412285 
L 205.073623 251.298244 
L 205.258743 251.167383 
L 205.388327 251.075178 
L 205.477326 251.011561 
L 205.75401 250.812273 
L 205.800863 250.778298 
L 205.957166 250.664474 
L 206.112283 250.550777 
L 206.336264 250.385301 
L 206.393162 250.343018 
L 206.659387 250.143834 
L 206.7107 250.105187 
L 206.8565 249.994923 
L 207.075575 249.827975 
L 207.218669 249.718098 
L 207.447399 249.54109 
L 207.48034 249.515458 
L 207.701062 249.342791 
L 207.88045 249.201275 
L 208.088859 249.035518 
L 208.158442 248.979851 
L 208.361004 248.816866 
L 208.508307 248.697465 
L 208.589156 248.631614 
L 208.842521 248.423786 
L 209.030536 248.268113 
L 209.059138 248.244322 
L 209.315237 248.030007 
L 209.423077 247.939061 
L 209.599796 247.789118 
L 209.825073 247.596327 
L 209.901784 247.530252 
L 210.033666 247.416148 
L 210.231421 247.243835 
L 210.343405 247.145606 
L 210.558235 246.95583 
L 210.717628 246.813884 
L 210.811135 246.730154 
L 211.006158 246.554427 
L 211.122793 246.448618 
L 211.267525 246.316569 
L 211.454654 246.144595 
L 211.565911 246.041679 
L 211.774996 245.846903 
L 211.91635 245.714203 
L 212.124751 245.517042 
L 212.240275 245.406962 
L 212.44618 245.209353 
L 212.5448 245.114061 
L 212.726807 244.93709 
L 212.928623 244.739159 
L 213.027985 244.641048 
L 213.192723 244.477409 
L 213.40129 244.268473 
L 213.492411 244.176567 
L 213.600787 244.066758 
L 213.848673 243.813535 
L 213.933967 243.725735 
L 214.194767 243.455116 
L 214.234066 243.414053 
L 214.417853 243.221017 
L 214.653584 242.970982 
L 214.775594 242.840477 
L 214.941967 242.661304 
L 215.031418 242.564386 
L 215.193323 242.387913 
L 215.384661 242.177591 
L 215.566957 241.975401 
L 215.626874 241.908556 
L 215.886225 241.616964 
L 215.938623 241.557604 
L 216.239139 241.214193 
L 216.337226 241.100999 
L 216.544413 240.860081 
L 216.617654 240.774318 
L 216.852513 240.49717 
L 216.925077 240.410875 
L 217.06866 240.23918 
L 217.206942 240.072633 
L 217.339823 239.911474 
L 217.517618 239.694109 
L 217.696619 239.473234 
L 217.924121 239.189507 
L 218.043192 239.039646 
L 218.271144 238.750087 
L 218.425054 238.55257 
L 218.454895 238.514085 
L 218.712114 238.179751 
L 218.859836 237.985604 
L 219.055307 237.726255 
L 219.08816 237.682387 
L 219.371669 237.300458 
L 219.470406 237.166002 
L 219.670889 236.890648 
L 219.726229 236.814081 
L 219.942691 236.512218 
L 220.111029 236.274809 
L 220.196272 236.153689 
L 220.352347 235.930326 
L 220.510737 235.701502 
L 220.691449 235.437734 
L 220.877475 235.163142 
L 221.000371 234.979993 
L 221.17338 234.719764 
L 221.280961 234.556507 
L 221.443898 234.307103 
L 221.60068 234.064634 
L 221.765463 233.807106 
L 221.997293 233.440013 
L 222.082175 233.304174 
L 222.286363 232.974186 
L 222.496994 232.628898 
L 222.540244 232.557369 
L 222.700708 232.290075 
L 222.965351 231.842504 
L 223.109631 231.594847 
L 223.284564 231.291016 
L 223.404025 231.081232 
L 223.582506 230.764232 
L 223.69746 230.557743 
L 223.794345 230.382266 
L 224.028658 229.952271 
L 224.166737 229.695051 
L 224.264081 229.511958 
L 224.436903 229.183225 
L 224.641059 228.78864 
L 224.777148 228.52172 
L 224.994462 228.08878 
L 225.068145 227.940054 
L 225.278873 227.509113 
L 225.381116 227.296948 
L 225.595791 226.844661 
L 225.660541 226.706377 
L 225.875174 226.24155 
L 226.057932 225.837647 
L 226.259217 225.383714 
L 226.387016 225.090332 
L 226.485166 224.862176 
L 226.602224 224.58674 
L 226.801212 224.109875 
L 226.915453 223.830963 
L 227.029693 223.548136 
L 227.120354 223.320803 
L 227.235064 223.02938 
L 227.349775 222.733573 
L 227.44624 222.481295 
L 227.531926 222.254415 
L 227.660453 221.908985 
L 227.788979 221.557149 
L 227.866089 221.342855 
L 227.953557 221.09675 
L 228.041025 220.847317 
L 228.156567 220.51251 
L 228.272109 220.171374 
L 228.317209 220.03643 
L 228.398714 219.789915 
L 228.480219 219.539887 
L 228.612668 219.125723 
L 228.70683 218.82506 
L 228.800991 218.518933 
L 228.928161 218.096319 
L 229.055331 217.662455 
L 229.108235 217.478445 
L 229.207091 217.128754 
L 229.305947 216.771021 
L 229.419408 216.349827 
L 229.476139 216.134709 
L 229.532869 215.916412 
L 229.603178 215.641245 
L 229.673488 215.360705 
L 229.766648 214.980182 
L 229.819972 214.75758 
L 229.873296 214.531283 
L 229.949176 214.202533 
L 230.025056 213.865362 
L 230.100937 213.51912 
L 230.176817 213.163074 
L 230.218926 212.960955 
L 230.278904 212.667094 
L 230.338881 212.365746 
L 230.398859 212.056334 
L 230.458836 211.7382 
L 230.497655 211.527297 
L 230.536474 211.312199 
L 230.575293 211.092653 
L 230.614112 210.86838 
L 230.668588 210.545076 
L 230.71097 210.28607 
L 230.753352 210.01994 
L 230.795734 209.746081 
L 230.838116 209.463797 
L 230.871299 209.236383 
L 230.904481 209.002864 
L 230.937664 208.762732 
L 230.970847 208.515403 
L 231.004029 208.260202 
L 231.037212 207.996339 
L 231.070395 207.722886 
L 231.103578 207.438731 
L 231.135069 207.157947 
L 231.150814 207.013061 
L 231.16656 206.864914 
L 231.188282 206.654749 
L 231.210005 206.437251 
L 231.231728 206.211602 
L 231.25345 205.976821 
L 231.275173 205.731712 
L 231.286034 205.604835 
L 231.296895 205.474793 
L 231.307757 205.341338 
L 231.318618 205.204187 
L 231.329479 205.063019 
L 231.340341 204.917461 
L 231.3508 204.772732 
L 231.36126 204.623075 
L 231.371719 204.467951 
L 231.382179 204.306716 
L 231.392638 204.13859 
L 231.403098 203.96261 
L 231.413557 203.777564 
L 231.424017 203.581893 
L 231.429246 203.479455 
L 231.434476 203.373535 
L 231.439706 203.263752 
L 231.444935 203.149652 
L 231.450165 203.030683 
L 231.455395 202.906163 
L 231.460625 202.775237 
L 231.465854 202.636804 
L 231.471084 202.489402 
L 231.476314 202.331028 
L 231.481544 202.158796 
L 231.486773 201.968276 
L 231.492003 201.752013 
L 231.497233 201.495469 
L 231.502463 201.161112 
z
" style="fill:#808080;opacity:0.5;"/>
   </g>
   <g id="matplotlib.axis_1"/>
   <g id="matplotlib.axis_2"/>
   <g id="line2d_1">
    <path clip-path="url(#p5ceaa5fba7)" d="M 138.046154 138.046154 
L 138.177587 142.091062 
L 138.517041 145.691941 
L 139.093756 149.423756 
L 139.893557 153.106098 
L 140.908732 156.71503 
L 142.123915 160.216487 
L 143.616916 163.798227 
L 145.208933 167.051103 
L 147.127096 170.436917 
L 149.145504 173.541988 
L 151.351164 176.529731 
L 153.783862 179.440418 
L 156.40781 182.216216 
L 159.109716 184.749154 
L 161.968262 187.125635 
L 164.899602 189.283299 
L 168.046699 191.323698 
L 169.2 192.006198 
L 169.2 192.006198 
" style="fill:none;stroke:#ff0000;stroke-linecap:square;"/>
   </g>
   <g id="line2d_2">
    <path clip-path="url(#p5ceaa5fba7)" d="M 106.892308 200.353846 
L 107.02129 204.360906 
L 107.368081 208.039044 
L 107.931856 211.688 
L 108.696503 215.239254 
L 109.721877 218.917289 
L 110.902143 222.344944 
L 112.178754 225.470097 
L 113.790094 228.8493 
L 115.421683 231.820355 
L 117.405029 234.98807 
L 119.285182 237.646734 
L 121.832724 240.833343 
L 124.426742 243.685173 
L 127.166497 246.347684 
L 129.992599 248.779338 
L 133.054084 251.10541 
L 136.319229 253.279298 
L 139.459152 255.10538 
L 142.547729 256.673514 
L 146.111113 258.225703 
L 149.406397 259.433976 
L 152.822372 260.470581 
L 156.637884 261.382051 
L 160.127659 261.997509 
L 163.811195 262.42807 
L 167.487569 262.638002 
L 169.2 262.661538 
L 169.2 262.661538 
" style="fill:none;stroke:#228b22;stroke-linecap:square;"/>
   </g>
   <g id="line2d_3">
    <path clip-path="url(#p5ceaa5fba7)" d="M 169.2 262.661538 
L 172.942845 262.54902 
L 176.645811 262.215049 
L 180.251478 261.673609 
L 183.917014 260.898524 
L 187.533352 259.903294 
L 190.999668 258.723556 
L 194.406638 257.335193 
L 197.644853 255.789745 
L 200.353846 254.313891 
L 200.353846 254.313891 
" style="fill:none;stroke:#228b22;stroke-linecap:square;"/>
   </g>
   <g id="line2d_4">
    <path clip-path="url(#p5ceaa5fba7)" d="M 200.353846 254.313891 
L 203.499756 252.370913 
L 206.393162 250.343018 
L 209.423077 247.939061 
L 212.240275 245.406962 
L 214.941967 242.661304 
L 217.339823 239.911474 
L 219.670889 236.890648 
L 221.765463 233.807106 
L 223.69746 230.557743 
L 225.381116 227.296948 
L 226.915453 223.830963 
L 228.156567 220.51251 
L 229.207091 217.128754 
L 230.100937 213.51912 
L 230.795734 209.746081 
L 231.25345 205.976821 
L 231.481544 202.158796 
L 231.507692 200.353846 
L 231.507692 200.353846 
" style="fill:none;stroke:#228b22;stroke-linecap:square;"/>
   </g>
   <g id="text_1">
    <!-- $\Omega$ -->
    <g transform="translate(16.011538 22.420913)scale(0.1 -0.1)">
     <defs>
      <path d="M 7.71875 0 
L 4.390625 16.609375 
L 7.328125 16.609375 
Q 7.859375 13.71875 8.296875 11.5 
Q 8.734375 9.28125 9.4375 8.375 
Q 10.15625 7.46875 11.71875 7.171875 
Q 13.28125 6.890625 16.890625 6.890625 
L 23 6.890625 
Q 21.53125 12.546875 15.6875 21.65625 
Q 9.859375 30.765625 7.734375 34.890625 
Q 5.609375 39.015625 5.609375 45.515625 
Q 5.609375 53.078125 10.09375 58.765625 
Q 14.59375 64.453125 21.703125 67.484375 
Q 28.8125 70.515625 36.078125 70.515625 
Q 43.3125 70.515625 50.40625 67.484375 
Q 57.515625 64.453125 62 58.71875 
Q 66.5 52.984375 66.5 45.515625 
Q 66.5 40.4375 64.640625 35.9375 
Q 62.796875 31.453125 59.90625 26.953125 
Q 57.03125 22.46875 53.6875 16.9375 
Q 50.34375 11.421875 49.125 6.890625 
L 55.171875 6.890625 
Q 58.84375 6.890625 60.453125 7.171875 
Q 62.0625 7.46875 62.734375 8.375 
Q 63.421875 9.28125 63.84375 11.5 
Q 64.265625 13.71875 64.796875 16.609375 
L 67.671875 16.609375 
L 64.40625 0 
L 46.6875 0 
Q 45.703125 0 45.703125 1.3125 
Q 45.703125 6.390625 46.9375 11.265625 
Q 48.1875 16.15625 50.625 23.09375 
Q 53.078125 30.03125 54.4375 35.328125 
Q 55.8125 40.625 55.8125 45.515625 
Q 55.8125 51.515625 53.46875 56.640625 
Q 51.125 61.765625 46.625 64.84375 
Q 42.140625 67.921875 36.078125 67.921875 
Q 26.953125 67.921875 21.625 61.40625 
Q 16.3125 54.890625 16.3125 45.515625 
Q 16.359375 40.375 17.53125 35.828125 
Q 18.703125 31.296875 21.3125 23.71875 
Q 23.921875 16.15625 25.171875 11.265625 
Q 26.421875 6.390625 26.421875 1.3125 
Q 26.421875 0 25.390625 0 
z
" id="Cmr10-173"/>
     </defs>
     <use transform="translate(0 0.484375)" xlink:href="#Cmr10-173"/>
    </g>
   </g>
   <g id="text_2">
    <!-- $A$ -->
    <g style="fill:#0000ff;" transform="translate(103.142308 78.497837)scale(0.1 -0.1)">
     <defs>
      <path d="M 4.5 0 
Q 3.515625 0 3.515625 1.3125 
Q 3.90625 3.515625 4.78125 3.515625 
Q 8.84375 3.515625 11.796875 5.125 
Q 14.75 6.734375 16.890625 10.109375 
Q 17.09375 10.296875 17.09375 10.296875 
L 52.78125 70.515625 
Q 53.5625 71.578125 54.6875 71.578125 
L 56 71.578125 
Q 56.296875 71.578125 56.59375 71.453125 
Q 56.890625 71.34375 57.109375 71.0625 
Q 57.328125 70.796875 57.328125 70.515625 
L 63.375 5.90625 
Q 63.375 5.46875 63.8125 4.59375 
Q 64.796875 3.515625 71.296875 3.515625 
Q 72.3125 3.515625 72.3125 2.203125 
Q 71.96875 0.875 71.75 0.4375 
Q 71.53125 0 70.609375 0 
L 45.609375 0 
Q 44.671875 0 44.671875 1.3125 
Q 45.21875 3.515625 46 3.515625 
Q 53.90625 3.515625 54.390625 6.203125 
L 52.875 22.703125 
L 28.21875 22.703125 
L 20.21875 9.28125 
Q 19.484375 8.203125 19.484375 6.78125 
Q 19.484375 5.03125 21.171875 4.265625 
Q 22.859375 3.515625 24.90625 3.515625 
Q 25.875 3.515625 25.875 2.203125 
Q 25.53125 0.78125 25.328125 0.390625 
Q 25.140625 0 24.21875 0 
z
M 30.171875 26.21875 
L 52.484375 26.21875 
L 49.515625 58.59375 
z
" id="Cmmi10-65"/>
     </defs>
     <use transform="translate(0 0.421875)" xlink:href="#Cmmi10-65"/>
    </g>
   </g>
   <g id="text_3">
    <!-- $B$ -->
    <g style="fill:#ff0000;" transform="translate(227.707692 78.497837)scale(0.1 -0.1)">
     <defs>
      <path d="M 4.984375 0 
Q 4 0 4 1.3125 
Q 4.046875 1.5625 4.1875 2.140625 
Q 4.34375 2.734375 4.578125 3.125 
Q 4.828125 3.515625 5.328125 3.515625 
Q 8.15625 3.515625 10.25 3.65625 
Q 12.359375 3.8125 13.8125 4.203125 
Q 14.984375 4.640625 15.71875 6.890625 
L 29.390625 61.8125 
Q 29.59375 62.796875 29.59375 63.1875 
Q 29.59375 64.265625 28.421875 64.40625 
Q 26.515625 64.796875 21.1875 64.796875 
Q 20.21875 64.796875 20.21875 66.109375 
Q 20.265625 66.359375 20.40625 66.96875 
Q 20.5625 67.578125 20.828125 67.9375 
Q 21.09375 68.3125 21.484375 68.3125 
L 57.328125 68.3125 
Q 60.59375 68.3125 63.796875 67.5 
Q 67 66.703125 69.703125 64.9375 
Q 72.40625 63.1875 74 60.5625 
Q 75.59375 57.953125 75.59375 54.5 
Q 75.59375 50.734375 73.65625 47.5 
Q 71.734375 44.28125 68.671875 41.890625 
Q 65.625 39.5 62.078125 37.953125 
Q 58.546875 36.421875 54.6875 35.6875 
Q 57.421875 35.6875 60.21875 34.609375 
Q 63.03125 33.546875 65.234375 31.6875 
Q 67.4375 29.828125 68.78125 27.234375 
Q 70.125 24.65625 70.125 21.6875 
Q 70.125 15.671875 65.921875 10.6875 
Q 61.71875 5.71875 55.34375 2.859375 
Q 48.96875 0 43.015625 0 
z
M 23.390625 4.296875 
Q 23.390625 3.515625 26.8125 3.515625 
L 41.109375 3.515625 
Q 46 3.515625 50.484375 6.21875 
Q 54.984375 8.9375 57.6875 13.421875 
Q 60.40625 17.921875 60.40625 22.796875 
Q 60.40625 25.78125 59.15625 28.4375 
Q 57.90625 31.109375 55.5625 32.640625 
Q 53.21875 34.1875 50.203125 34.1875 
L 30.71875 34.1875 
L 23.78125 6.5 
Q 23.390625 5.125 23.390625 4.296875 
z
M 31.390625 36.8125 
L 46.578125 36.8125 
Q 51.375 36.8125 55.890625 39.25 
Q 60.40625 41.703125 63.25 45.890625 
Q 66.109375 50.09375 66.109375 54.78125 
Q 66.109375 59.125 63.390625 61.953125 
Q 60.6875 64.796875 56.390625 64.796875 
L 42.671875 64.796875 
Q 39.984375 64.796875 39.0625 64.296875 
Q 38.140625 63.8125 37.5 61.375 
z
" id="Cmmi10-66"/>
     </defs>
     <use transform="translate(0 0.6875)" xlink:href="#Cmmi10-66"/>
    </g>
   </g>
   <g id="text_4">
    <!-- $C$ -->
    <g style="fill:#228b22;" transform="translate(150.023077 271.651683)scale(0.1 -0.1)">
     <defs>
      <path d="M 14.59375 21.578125 
Q 14.59375 15.578125 16.90625 11.015625 
Q 19.234375 6.453125 23.65625 3.875 
Q 28.078125 1.3125 34.078125 1.3125 
Q 40.375 1.3125 46.203125 4.53125 
Q 52.046875 7.765625 56.171875 13.15625 
Q 60.296875 18.5625 61.8125 24.609375 
Q 62.015625 25.203125 62.59375 25.203125 
L 63.8125 25.203125 
Q 64.203125 25.203125 64.453125 24.921875 
Q 64.703125 24.65625 64.703125 24.3125 
Q 64.703125 24.21875 64.59375 24.03125 
Q 62.890625 17.09375 57.984375 11.015625 
Q 53.078125 4.9375 46.234375 1.359375 
Q 39.40625 -2.203125 32.171875 -2.203125 
Q 24.359375 -2.203125 18.15625 1.3125 
Q 11.96875 4.828125 8.515625 11.078125 
Q 5.078125 17.328125 5.078125 25.203125 
Q 5.078125 33.59375 8.828125 41.8125 
Q 12.59375 50.046875 18.9375 56.46875 
Q 25.296875 62.890625 33.421875 66.703125 
Q 41.546875 70.515625 49.90625 70.515625 
Q 53.21875 70.515625 56.25 69.5 
Q 59.28125 68.5 61.859375 66.453125 
Q 64.453125 64.40625 66.109375 61.71875 
L 74.03125 70.3125 
Q 74.03125 70.515625 74.515625 70.515625 
L 75.09375 70.515625 
Q 75.484375 70.515625 75.734375 70.171875 
Q 75.984375 69.828125 75.984375 69.484375 
L 69.1875 42.484375 
Q 69.1875 41.796875 68.40625 41.796875 
L 66.609375 41.796875 
Q 65.828125 41.796875 65.828125 42.921875 
Q 66.21875 45.125 66.21875 48.1875 
Q 66.21875 53.078125 64.546875 57.390625 
Q 62.890625 61.71875 59.390625 64.359375 
Q 55.90625 67 50.875 67 
Q 42.71875 67 35.9375 62.890625 
Q 29.15625 58.796875 24.4375 52.125 
Q 19.734375 45.453125 17.15625 37.328125 
Q 14.59375 29.203125 14.59375 21.578125 
z
" id="Cmmi10-67"/>
     </defs>
     <use transform="translate(0 0.484375)" xlink:href="#Cmmi10-67"/>
    </g>
   </g>
   <g id="patch_8">
    <path clip-path="url(#p5ceaa5fba7)" d="M 138.046154 200.353846 
C 154.570347 200.353846 170.419977 193.788715 182.104346 182.104346 
C 193.788715 170.419977 200.353846 154.570347 200.353846 138.046154 
C 200.353846 121.521961 193.788715 105.672331 182.104346 93.987962 
C 170.419977 82.303593 154.570347 75.738462 138.046154 75.738462 
C 121.521961 75.738462 105.672331 82.303593 93.987962 93.987962 
C 82.303593 105.672331 75.738462 121.521961 75.738462 138.046154 
C 75.738462 154.570347 82.303593 170.419977 93.987962 182.104346 
C 105.672331 193.788715 121.521961 200.353846 138.046154 200.353846 
z
" style="fill:none;stroke:#0000ff;stroke-linejoin:miter;"/>
   </g>
   <g id="patch_9">
    <path clip-path="url(#p5ceaa5fba7)" d="M 200.353846 200.353846 
C 216.878039 200.353846 232.727669 193.788715 244.412038 182.104346 
C 256.096407 170.419977 262.661538 154.570347 262.661538 138.046154 
C 262.661538 121.521961 256.096407 105.672331 244.412038 93.987962 
C 232.727669 82.303593 216.878039 75.738462 200.353846 75.738462 
C 183.829653 75.738462 167.980023 82.303593 156.295654 93.987962 
C 144.611285 105.672331 138.046154 121.521961 138.046154 138.046154 
C 138.046154 154.570347 144.611285 170.419977 156.295654 182.104346 
C 167.980023 193.788715 183.829653 200.353846 200.353846 200.353846 
z
" style="fill:none;stroke:#ff0000;stroke-linejoin:miter;"/>
   </g>
   <g id="patch_10">
    <path clip-path="url(#p5ceaa5fba7)" d="M 169.2 262.661538 
C 185.724193 262.661538 201.573823 256.096407 213.258192 244.412038 
C 224.942561 232.727669 231.507692 216.878039 231.507692 200.353846 
C 231.507692 183.829653 224.942561 167.980023 213.258192 156.295654 
C 201.573823 144.611285 185.724193 138.046154 169.2 138.046154 
C 152.675807 138.046154 136.826177 144.611285 125.141808 156.295654 
C 113.457439 167.980023 106.892308 183.829653 106.892308 200.353846 
C 106.892308 216.878039 113.457439 232.727669 125.141808 244.412038 
C 136.826177 256.096407 152.675807 262.661538 169.2 262.661538 
z
" style="fill:none;stroke:#228b22;stroke-linejoin:miter;"/>
   </g>
  </g>
 </g>
 <defs>
  <clipPath id="p5ceaa5fba7">
   <rect height="324" width="324" x="7.2" y="7.2"/>
  </clipPath>
 </defs>
</svg>
