<?xml version="1.0" encoding="utf-8" standalone="no"?>
<!DOCTYPE svg PUBLIC "-//W3C//DTD SVG 1.1//EN"
  "http://www.w3.org/Graphics/SVG/1.1/DTD/svg11.dtd">
<!-- Created with matplotlib (https://matplotlib.org/) -->
<svg height="338.4pt" version="1.1" viewBox="0 0 338.4 338.4" width="338.4pt" xmlns="http://www.w3.org/2000/svg" xmlns:xlink="http://www.w3.org/1999/xlink">
 <metadata>
  <rdf:RDF xmlns:cc="http://creativecommons.org/ns#" xmlns:dc="http://purl.org/dc/elements/1.1/" xmlns:rdf="http://www.w3.org/1999/02/22-rdf-syntax-ns#">
   <cc:Work>
    <dc:type rdf:resource="http://purl.org/dc/dcmitype/StillImage"/>
    <dc:date>2021-08-20T13:43:34.025915</dc:date>
    <dc:format>image/svg+xml</dc:format>
    <dc:creator>
     <cc:Agent>
      <dc:title>Matplotlib v3.3.4, https://matplotlib.org/</dc:title>
     </cc:Agent>
    </dc:creator>
   </cc:Work>
  </rdf:RDF>
 </metadata>
 <defs>
  <style type="text/css">*{stroke-linecap:butt;stroke-linejoin:round;}</style>
 </defs>
 <g id="figure_1">
  <g id="patch_1">
   <path d="M -0 338.4 
L 338.4 338.4 
L 338.4 0 
L -0 0 
z
" style="fill:#ffffff;"/>
  </g>
  <g id="axes_1">
   <g id="patch_2">
    <path d="M 7.2 331.2 
L 331.2 331.2 
L 331.2 7.2 
L 7.2 7.2 
z
" style="fill:#ffffff;"/>
   </g>
   <g id="patch_3">
    <path clip-path="url(#p2320fc282a)" d="M 13.430769 324.969231 
L 13.430769 13.430769 
L 324.969231 13.430769 
L 324.969231 324.969231 
z
" style="fill:none;stroke:#000000;stroke-linejoin:miter;"/>
   </g>
   <g id="patch_4">
    <path clip-path="url(#p2320fc282a)" d="M 169.2 138.046154 
L 169.06755 138.046295 
L 168.951867 138.046648 
L 168.782224 138.047554 
L 168.526437 138.049795 
L 168.346619 138.051998 
L 168.28668 138.052848 
L 168.077204 138.056271 
L 168.004242 138.057629 
L 167.760645 138.062781 
L 167.570717 138.06746 
L 167.552623 138.067935 
L 167.3187 138.074562 
L 167.192014 138.078518 
L 166.987411 138.085452 
L 166.86694 138.089849 
L 166.750693 138.094313 
L 166.488391 138.105186 
L 166.377599 138.110111 
L 166.300699 138.113646 
L 166.045277 138.126069 
L 165.942303 138.131375 
L 165.752117 138.141624 
L 165.672984 138.14606 
L 165.442147 138.159577 
L 165.300156 138.168319 
L 165.15762 138.177422 
L 164.98977 138.188563 
L 164.815311 138.200624 
L 164.612625 138.215255 
L 164.547173 138.220122 
L 164.42014 138.229765 
L 164.164756 138.249943 
L 164.072304 138.257508 
L 163.865941 138.274894 
L 163.78079 138.282269 
L 163.634737 138.295193 
L 163.423996 138.314453 
L 163.268291 138.329147 
L 163.146803 138.340885 
L 162.959513 138.359452 
L 162.724818 138.383526 
L 162.631391 138.39336 
L 162.3974 138.418613 
L 162.294096 138.430046 
L 162.189518 138.441798 
L 161.960104 138.468206 
L 161.842968 138.482022 
L 161.71391 138.497505 
L 161.452411 138.529713 
L 161.365605 138.540654 
L 161.238249 138.556928 
L 161.071443 138.578648 
L 160.903203 138.601019 
L 160.708403 138.627504 
L 160.555964 138.648667 
L 160.410208 138.669261 
L 160.34776 138.678192 
L 160.097498 138.71463 
L 159.91587 138.741725 
L 159.753686 138.766383 
L 159.714043 138.772476 
L 159.547435 138.798371 
L 159.404097 138.821019 
L 159.159921 138.860389 
L 159.0917 138.871566 
L 158.850212 138.911756 
L 158.719267 138.933957 
L 158.535294 138.965634 
L 158.405305 138.988358 
L 158.191057 139.026432 
L 158.072309 139.047868 
L 157.986253 139.06355 
L 157.723107 139.11228 
L 157.580621 139.139154 
L 157.48498 139.157385 
L 157.337034 139.185893 
L 157.198418 139.212939 
L 156.971822 139.257855 
L 156.791076 139.294309 
L 156.737361 139.30525 
L 156.543653 139.345114 
L 156.40962 139.373073 
L 156.250015 139.406767 
L 156.035754 139.452687 
L 155.821526 139.499389 
L 155.781102 139.50829 
L 155.56529 139.556287 
L 155.472293 139.577218 
L 155.242198 139.629648 
L 155.061017 139.671578 
L 154.970101 139.692833 
L 154.745598 139.745936 
L 154.642563 139.770601 
L 154.482163 139.809368 
L 154.384644 139.833157 
L 154.131769 139.895621 
L 153.943285 139.94291 
L 153.914335 139.950229 
L 153.655951 140.016204 
L 153.478998 140.062067 
L 153.456006 140.068067 
L 153.281976 140.113785 
L 153.053579 140.174601 
L 152.876577 140.22237 
L 152.758351 140.254589 
L 152.533067 140.316675 
L 152.481058 140.331138 
L 152.27528 140.388837 
L 152.172725 140.417877 
L 152.01304 140.463472 
L 151.804652 140.523667 
L 151.640263 140.571707 
L 151.526012 140.605384 
L 151.392312 140.645097 
L 151.247718 140.688412 
L 151.037531 140.752057 
L 150.812921 140.820966 
L 150.796501 140.82604 
L 150.618793 140.88127 
L 150.38129 140.955995 
L 150.310095 140.978599 
L 150.132048 141.035538 
L 149.959335 141.091334 
L 149.861971 141.123033 
L 149.648855 141.193038 
L 149.545588 141.227265 
L 149.290818 141.312564 
L 149.178058 141.350707 
L 148.950851 141.428296 
L 148.791339 141.483352 
L 148.626747 141.540669 
L 148.530217 141.574525 
L 148.348838 141.638622 
L 148.189204 141.695556 
L 148.018309 141.75705 
L 147.843394 141.820574 
L 147.827819 141.82626 
L 147.537875 141.932952 
L 147.508692 141.943781 
L 147.341844 142.006014 
L 147.166916 142.071845 
L 147.017848 142.128416 
L 146.854886 142.190762 
L 146.66412 142.26441 
L 146.545419 142.3106 
L 146.359913 142.383346 
L 146.111351 142.481894 
L 145.994397 142.528692 
L 145.945632 142.548285 
L 145.713163 142.642348 
L 145.510973 142.725047 
L 145.352883 142.790285 
L 145.261394 142.828272 
L 145.061628 142.91181 
L 144.974767 142.948388 
L 144.798572 143.023062 
L 144.591388 143.111687 
L 144.470375 143.163863 
L 144.277346 143.247718 
L 144.114666 143.318992 
L 143.945352 143.393761 
L 143.782205 143.466376 
L 143.656196 143.522846 
L 143.527223 143.580991 
L 143.43776 143.621532 
L 143.252621 143.705968 
L 143.053257 143.797712 
L 142.889561 143.873679 
L 142.769094 143.929953 
L 142.631782 143.994478 
L 142.382512 144.112661 
L 142.273706 144.164673 
L 142.039774 144.277375 
L 141.937524 144.327014 
L 141.876994 144.356508 
L 141.693736 144.446298 
L 141.474999 144.554448 
L 141.37639 144.603552 
L 141.101008 144.74184 
L 141.014434 144.785668 
L 140.857689 144.865452 
L 140.685328 144.953828 
L 140.499441 145.0499 
L 140.413234 145.094723 
L 140.20521 145.203591 
L 140.024514 145.298969 
L 139.923878 145.352417 
L 139.775067 145.431885 
L 139.576962 145.538482 
L 139.377645 145.646665 
L 139.320961 145.677603 
L 139.132338 145.781104 
L 139.009002 145.849239 
L 138.815849 145.956678 
L 138.667172 146.03999 
L 138.463531 146.154972 
L 138.363015 146.212098 
L 138.186339 146.313108 
L 138.046154 146.393802 
L 138.046154 138.046154 
L 138.05156 138.866894 
L 138.056965 139.20683 
L 138.062371 139.467655 
L 138.067777 139.687527 
L 138.073183 139.881225 
L 138.078589 140.05633 
L 138.083994 140.217345 
L 138.0894 140.367204 
L 138.094806 140.507946 
L 138.100212 140.641054 
L 138.105617 140.767649 
L 138.111023 140.888601 
L 138.116429 141.004603 
L 138.121835 141.116215 
L 138.127241 141.2239 
L 138.132646 141.328045 
L 138.143458 141.526974 
L 138.154269 141.715101 
L 138.165081 141.894011 
L 138.175893 142.064935 
L 138.186704 142.228852 
L 138.197516 142.386556 
L 138.208327 142.538702 
L 138.219139 142.685836 
L 138.230094 142.830285 
L 138.241049 142.970474 
L 138.252004 143.106757 
L 138.262959 143.239442 
L 138.284869 143.495061 
L 138.306779 143.739131 
L 138.328689 143.973077 
L 138.350599 144.198055 
L 138.372509 144.415016 
L 138.394419 144.624752 
L 138.425061 144.907211 
L 138.455703 145.17836 
L 138.477689 145.366651 
L 138.499675 145.550154 
L 138.521661 145.729212 
L 138.543647 145.90413 
L 138.565633 146.075178 
L 138.587619 146.242599 
L 138.609605 146.406609 
L 138.631591 146.567407 
L 138.677245 146.891797 
L 138.722899 147.204477 
L 138.768553 147.506607 
L 138.814207 147.79917 
L 138.85773 148.069939 
L 138.901254 148.3334 
L 138.944777 148.5901 
L 138.988301 148.840521 
L 139.027178 149.059248 
L 139.066054 149.27358 
L 139.102367 149.470027 
L 139.138681 149.663039 
L 139.211307 150.039418 
L 139.283933 150.403913 
L 139.356559 150.757546 
L 139.428515 151.098072 
L 139.475806 151.316902 
L 139.523097 151.532016 
L 139.570388 151.743588 
L 139.617679 151.951782 
L 139.665575 152.159347 
L 139.713471 152.363744 
L 139.809263 152.763556 
L 139.852092 152.938643 
L 139.9173 153.2011 
L 139.982508 153.458813 
L 140.047716 153.712015 
L 140.112924 153.960922 
L 140.181759 154.219232 
L 140.250594 154.473192 
L 140.346379 154.819718 
L 140.442165 155.158692 
L 140.532569 155.472093 
L 140.622974 155.779495 
L 140.744592 156.184106 
L 140.815623 156.415926 
L 140.886654 156.644585 
L 141.026657 157.086459 
L 141.117167 157.366204 
L 141.201393 157.622565 
L 141.28562 157.875253 
L 141.409831 158.241491 
L 141.534043 158.600453 
L 141.688659 159.037685 
L 141.801784 159.35119 
L 141.902464 159.625878 
L 142.011969 159.920201 
L 142.121474 160.210075 
L 142.228932 160.490371 
L 142.33639 160.766701 
L 142.429207 161.002301 
L 142.53539 161.268442 
L 142.641573 161.531087 
L 142.80117 161.919527 
L 142.938785 162.248618 
L 143.088237 162.600146 
L 143.178583 162.809793 
L 143.308963 163.108673 
L 143.450139 163.427577 
L 143.591315 163.741749 
L 143.745907 164.08055 
L 143.824993 164.251827 
L 144.068024 164.769828 
L 144.19213 165.029671 
L 144.320306 165.294839 
L 144.498053 165.657364 
L 144.665367 165.99328 
L 144.816738 166.29289 
L 144.89738 166.450888 
L 145.1215 166.884262 
L 145.294322 167.21287 
L 145.335659 167.290771 
L 145.623215 167.825451 
L 145.685074 167.938859 
L 145.862489 168.26106 
L 146.047209 168.59182 
L 146.155461 168.783485 
L 146.317663 169.06775 
L 146.575603 169.512788 
L 146.685425 169.699733 
L 146.791646 169.879143 
L 147.037115 170.288591 
L 147.145002 170.466325 
L 147.285977 170.696572 
L 147.405069 170.889349 
L 147.588058 171.18254 
L 147.686964 171.339518 
L 147.919414 171.70442 
L 147.994924 171.821764 
L 148.290289 172.275301 
L 148.31318 172.310094 
L 148.51531 172.615138 
L 148.635542 172.794759 
L 148.859628 173.125977 
L 149.010902 173.347013 
L 149.210097 173.634992 
L 149.336642 173.816161 
L 149.53134 174.092255 
L 149.621119 174.218504 
L 149.792783 174.458067 
L 149.886931 174.588444 
L 150.066842 174.835633 
L 150.21918 175.042961 
L 150.350301 175.219989 
L 150.564805 175.506798 
L 150.703182 175.690012 
L 150.940714 176.001271 
L 151.063723 176.16088 
L 151.261769 176.415628 
L 151.332741 176.50626 
L 151.485701 176.700429 
L 151.728541 177.005469 
L 151.864738 177.17485 
L 152.009383 177.353423 
L 152.105284 177.47108 
L 152.341325 177.758197 
L 152.442443 177.880134 
L 152.59542 178.063416 
L 152.772392 178.273679 
L 152.89732 178.420981 
L 153.067908 178.620636 
L 153.277679 178.863834 
L 153.416392 179.023268 
L 153.481893 179.098177 
L 153.714685 179.36246 
L 153.842723 179.506543 
L 154.057191 179.745893 
L 154.09576 179.788674 
L 154.336222 180.053615 
L 154.547506 180.283907 
L 154.618616 180.360894 
L 154.809458 180.566235 
L 154.902761 180.665954 
L 155.100623 180.875984 
L 155.23935 181.022086 
L 155.426994 181.21821 
L 155.548834 181.344646 
L 155.808037 181.61127 
L 155.92763 181.733221 
L 156.112412 181.920338 
L 156.214621 182.023163 
L 156.323673 182.132346 
L 156.468256 182.276274 
L 156.696077 182.501162 
L 156.826795 182.629159 
L 157.041467 182.837741 
L 157.180873 182.972125 
L 157.259023 183.047096 
L 157.43007 183.210276 
L 157.554413 183.328126 
L 157.697035 183.462505 
L 157.969274 183.716676 
L 158.143302 183.877568 
L 158.280105 184.003187 
L 158.397235 184.110145 
L 158.536544 184.236648 
L 158.662914 184.35074 
L 158.880788 184.545982 
L 158.961556 184.617892 
L 159.109773 184.749205 
L 159.343289 184.954391 
L 159.554128 185.137889 
L 159.67694 185.244012 
L 159.863088 185.403804 
L 159.967504 185.492881 
L 160.13617 185.635932 
L 160.258992 185.739458 
L 160.358602 185.82302 
L 160.620581 186.041114 
L 160.732379 186.133448 
L 160.873116 186.249063 
L 161.0873 186.423699 
L 161.176332 186.495828 
L 161.31628 186.60866 
L 161.480612 186.740303 
L 161.701576 186.915884 
L 161.852705 187.035037 
L 161.93887 187.102633 
L 162.115807 187.240675 
L 162.31178 187.392377 
L 162.437826 187.489293 
L 162.5878 187.603941 
L 162.783647 187.752578 
L 162.975263 187.896831 
L 163.155654 188.031582 
L 163.190383 188.057408 
L 163.371232 188.191291 
L 163.539017 188.314602 
L 163.771864 188.484305 
L 163.868249 188.554071 
L 164.003203 188.651284 
L 164.158198 188.762262 
L 164.300334 188.863403 
L 164.492763 188.99938 
L 164.727341 189.163672 
L 164.845527 189.245839 
L 164.911922 189.291822 
L 165.06215 189.395396 
L 165.224159 189.506368 
L 165.419139 189.638932 
L 165.593973 189.756885 
L 165.702682 189.829794 
L 165.895768 189.958478 
L 166.110451 190.100341 
L 166.185363 190.149544 
L 166.420065 190.302704 
L 166.513288 190.363122 
L 166.73877 190.508285 
L 166.813064 190.555814 
L 167.02859 190.692861 
L 167.143184 190.765225 
L 167.274008 190.847412 
L 167.404796 190.929125 
L 167.617418 191.061008 
L 167.831236 191.192446 
L 168.017664 191.306081 
L 168.048162 191.324585 
L 168.184076 191.406761 
L 168.463814 191.574412 
L 168.550216 191.625792 
L 168.664385 191.693396 
L 168.816359 191.782877 
L 169.073398 191.932906 
L 169.2 192.006198 
z
" style="fill:#808080;opacity:0.5;"/>
   </g>
   <g id="patch_5">
    <path clip-path="url(#p2320fc282a)" d="M 169.2 192.006198 
L 168.850341 192.206569 
L 168.454081 192.430034 
L 168.2708 192.532109 
L 168.065934 192.64525 
L 167.571912 192.913978 
L 167.369131 193.022617 
L 166.906778 193.266738 
L 166.748853 193.348989 
L 166.511872 193.471342 
L 166.053277 193.704483 
L 165.731209 193.865382 
L 165.496417 193.98122 
L 165.185343 194.13281 
L 164.817182 194.309469 
L 164.577532 194.422873 
L 164.112385 194.639441 
L 163.823919 194.771416 
L 163.591584 194.876423 
L 163.187684 195.056258 
L 162.884284 195.189096 
L 162.59706 195.313086 
L 162.278076 195.448789 
L 161.962025 195.581183 
L 161.640037 195.713972 
L 161.397343 195.812671 
L 161.09534 195.933834 
L 160.841199 196.03438 
L 160.532084 196.154944 
L 160.056457 196.336763 
L 159.702094 196.469341 
L 159.339973 196.602296 
L 159.210164 196.649338 
L 158.888532 196.764497 
L 158.419688 196.928814 
L 158.278179 196.977586 
L 157.989255 197.075987 
L 157.597405 197.206927 
L 157.290685 197.307411 
L 156.922501 197.425713 
L 156.76132 197.476711 
L 156.249189 197.635566 
L 155.903579 197.740047 
L 155.595919 197.831221 
L 155.322176 197.910898 
L 155.147723 197.960967 
L 154.885034 198.035325 
L 154.638486 198.103985 
L 154.03338 198.267887 
L 153.961755 198.286856 
L 153.698305 198.355844 
L 153.382948 198.436809 
L 152.942838 198.546875 
L 152.475774 198.659969 
L 152.272309 198.708045 
L 152.016591 198.767447 
L 151.798077 198.817308 
L 151.364333 198.913835 
L 150.982107 198.996212 
L 150.669831 199.061654 
L 150.377659 199.121374 
L 150.232194 199.150564 
L 149.781507 199.238719 
L 149.427682 199.305515 
L 149.08112 199.368891 
L 148.993794 199.384541 
L 148.567912 199.459028 
L 148.308217 199.502956 
L 147.949669 199.561753 
L 147.624168 199.613273 
L 147.302597 199.662441 
L 146.985484 199.709246 
L 146.630242 199.759701 
L 146.40047 199.791226 
L 146.154236 199.824043 
L 145.708563 199.880901 
L 145.336701 199.925847 
L 145.228116 199.938544 
L 144.748511 199.992315 
L 144.586462 200.009634 
L 144.149981 200.054152 
L 143.82299 200.085469 
L 143.546262 200.110615 
L 143.076751 200.150434 
L 142.911572 200.163593 
L 142.660513 200.182747 
L 142.292454 200.208984 
L 141.990437 200.228878 
L 141.519515 200.256959 
L 141.291668 200.269262 
L 141.073518 200.280257 
L 140.796308 200.293123 
L 140.297723 200.313151 
L 139.947573 200.324827 
L 139.736331 200.330918 
L 139.479398 200.33736 
L 139.126395 200.344481 
L 138.81454 200.349108 
L 138.652147 200.350899 
L 138.272467 200.353435 
L 137.783028 200.353291 
L 137.505538 200.351501 
L 137.36142 200.350084 
L 137.025333 200.345483 
L 136.53764 200.335582 
L 136.18395 200.326012 
L 136.021886 200.320955 
L 135.565204 200.304434 
L 135.230057 200.290175 
L 135.200964 200.288852 
L 134.889519 200.273834 
L 134.571934 200.256911 
L 134.047245 200.225389 
L 133.720966 200.203545 
L 133.592347 200.194461 
L 133.040926 200.152484 
L 132.91926 200.142559 
L 132.444726 200.101553 
L 132.354563 200.093348 
L 131.858547 200.045848 
L 131.614666 200.021024 
L 131.358139 199.993865 
L 130.95142 199.948604 
L 130.767214 199.927214 
L 130.243175 199.86332 
L 130.127418 199.848598 
L 129.854731 199.813047 
L 129.452347 199.758349 
L 129.067542 199.703538 
L 128.840019 199.669977 
L 128.525054 199.6221 
L 128.272606 199.582536 
L 127.949446 199.530339 
L 127.467418 199.449239 
L 127.26096 199.413312 
L 126.841714 199.338152 
L 126.693578 199.310887 
L 126.247626 199.226569 
L 126.133043 199.204361 
L 125.587966 199.095659 
L 125.364997 199.049734 
L 125.133973 199.001253 
L 124.661747 198.899306 
L 124.510106 198.865755 
L 124.24052 198.805128 
L 123.849597 198.714979 
L 123.450116 198.62011 
L 123.094512 198.533317 
L 122.785412 198.456073 
L 122.499845 198.383214 
L 122.102079 198.279326 
L 121.783804 198.194175 
L 121.478186 198.11071 
L 121.351019 198.075488 
L 120.902561 197.948956 
L 120.796022 197.918363 
L 120.475633 197.825124 
L 119.958438 197.670671 
L 119.579102 197.554275 
L 119.338334 197.479023 
L 118.964762 197.360141 
L 118.829842 197.316567 
L 118.380233 197.168908 
L 118.051635 197.058591 
L 117.849164 196.989602 
L 117.664512 196.926008 
L 117.150235 196.745465 
L 116.814927 196.62502 
L 116.449016 196.491104 
L 116.207763 196.401387 
L 116.103637 196.362313 
L 115.685445 196.203245 
L 115.272296 196.042705 
L 115.154894 195.996467 
L 114.735023 195.828847 
L 114.524989 195.74367 
L 113.938238 195.500979 
L 113.8737 195.473856 
L 113.592934 195.354867 
L 113.230931 195.199047 
L 112.699217 194.965231 
L 112.498884 194.875596 
L 112.279137 194.776299 
L 111.93887 194.620514 
L 111.582007 194.454464 
L 111.362494 194.350957 
L 111.004627 194.179961 
L 110.673322 194.019152 
L 110.262916 193.816578 
L 110.014692 193.692229 
L 109.598582 193.480657 
L 109.285913 193.319086 
L 108.982007 193.15989 
L 108.766361 193.045629 
L 108.468043 192.885774 
L 108.190155 192.734981 
L 107.732852 192.482835 
L 107.379148 192.284362 
L 107.211434 192.189192 
L 106.892308 192.006198 
L 106.892308 200.353846 
L 106.899564 201.30471 
L 106.906819 201.698532 
L 106.914075 202.000696 
L 106.921331 202.255409 
L 106.928587 202.479796 
L 106.935843 202.682639 
L 106.943099 202.869157 
L 106.950355 203.042748 
L 106.957611 203.205775 
L 106.964867 203.359955 
L 106.972122 203.506588 
L 106.979378 203.646682 
L 106.99389 203.910308 
L 107.008402 204.155642 
L 107.022914 204.386024 
L 107.037425 204.603888 
L 107.051937 204.811067 
L 107.066449 205.00899 
L 107.080961 205.198791 
L 107.095473 205.38139 
L 107.124496 205.72789 
L 107.142484 205.931774 
L 107.160473 206.128408 
L 107.196449 206.502682 
L 107.232425 206.855248 
L 107.268402 207.189464 
L 107.304378 207.507903 
L 107.340355 207.812587 
L 107.376331 208.105136 
L 107.412308 208.386877 
L 107.464897 208.781515 
L 107.517487 209.158168 
L 107.570076 209.519054 
L 107.622666 209.865968 
L 107.675256 210.200386 
L 107.727845 210.523541 
L 107.780435 210.836476 
L 107.833024 211.140079 
L 107.902632 211.528871 
L 107.972239 211.904165 
L 108.041847 212.267236 
L 108.111455 212.619169 
L 108.190115 213.004635 
L 108.268776 213.378224 
L 108.347436 213.740929 
L 108.426097 214.093613 
L 108.520907 214.506448 
L 108.615717 214.90696 
L 108.710526 215.296139 
L 108.805336 215.674849 
L 108.960976 216.275796 
L 109.116615 216.853404 
L 109.213115 217.200868 
L 109.309614 217.540766 
L 109.434725 217.970895 
L 109.559836 218.389903 
L 109.684947 218.798545 
L 109.810057 219.197498 
L 109.982241 219.73181 
L 110.154424 220.250289 
L 110.319976 220.734996 
L 110.485528 221.207126 
L 110.607246 221.546716 
L 110.857746 222.226886 
L 111.108245 222.883749 
L 111.309424 223.395759 
L 111.513293 223.901507 
L 111.717162 224.394891 
L 111.890825 224.805982 
L 112.083291 225.252241 
L 112.275757 225.689179 
L 112.49258 226.170837 
L 112.700362 226.622447 
L 112.908143 227.064806 
L 113.00647 227.271047 
L 113.266508 227.807316 
L 113.526546 228.330891 
L 113.83455 228.935579 
L 114.055962 229.360458 
L 114.393825 229.993881 
L 114.682725 230.521963 
L 114.904439 230.919195 
L 115.266045 231.552836 
L 115.520875 231.989271 
L 115.845586 232.533888 
L 116.109803 232.967945 
L 116.374019 233.394188 
L 116.694902 233.90177 
L 116.919446 234.250633 
L 117.222372 234.713339 
L 117.665099 235.373876 
L 117.732805 235.473305 
L 118.021797 235.893121 
L 118.493508 236.562963 
L 118.829706 237.029206 
L 119.162273 237.481658 
L 119.270841 237.627531 
L 119.710065 238.208764 
L 120.116442 238.734216 
L 120.366108 239.051385 
L 120.727949 239.503671 
L 120.874787 239.684779 
L 121.387716 240.306744 
L 121.547962 240.497735 
L 121.991865 241.018825 
L 122.343732 241.423771 
L 122.431503 241.523692 
L 122.956357 242.112366 
L 123.320423 242.512036 
L 123.591812 242.805486 
L 123.777636 243.004255 
L 124.180535 243.429319 
L 124.478137 243.738215 
L 124.643075 243.907594 
L 125.047203 244.317229 
L 125.485822 244.753386 
L 125.592749 244.85841 
L 125.844573 245.103768 
L 126.423301 245.657296 
L 126.484921 245.7154 
L 127.062345 246.252283 
L 127.24636 246.420544 
L 127.537373 246.683901 
L 128.016308 247.110151 
L 128.154694 247.231681 
L 128.602366 247.619908 
L 128.676312 247.683321 
L 129.006772 247.964275 
L 129.488078 248.366467 
L 129.860821 248.672347 
L 130.198817 248.945577 
L 130.480718 249.1705 
L 130.59065 249.257492 
L 130.885897 249.489149 
L 131.424279 249.904259 
L 131.608788 250.044381 
L 131.884462 250.251733 
L 132.190126 250.478867 
L 132.675825 250.833874 
L 132.822969 250.940012 
L 133.24613 251.241642 
L 133.544432 251.451096 
L 133.851979 251.664332 
L 134.082714 251.822524 
L 134.322255 251.985149 
L 134.870377 252.351207 
L 135.018068 252.448415 
L 135.303589 252.634644 
L 135.685091 252.880024 
L 135.899073 253.015946 
L 136.168446 253.185323 
L 136.767635 253.555258 
L 136.8084 253.580088 
L 137.352248 253.90727 
L 137.53627 254.016279 
L 137.791141 254.165853 
L 138.311963 254.466485 
L 138.583634 254.620656 
L 138.780742 254.73139 
L 139.210129 254.969377 
L 139.350566 255.046257 
L 139.820867 255.300321 
L 140.18498 255.493461 
L 140.547512 255.682712 
L 140.818522 255.822217 
L 140.987666 255.908439 
L 141.204843 256.018195 
L 141.575898 256.203264 
L 141.881128 256.353201 
L 142.329502 256.569724 
L 142.481627 256.642185 
L 142.829458 256.805977 
L 143.142392 256.951104 
L 143.584875 257.152736 
L 143.839665 257.266955 
L 144.304537 257.471833 
L 144.595765 257.597886 
L 144.71515 257.649052 
L 145.077073 257.80237 
L 145.554699 258.0006 
L 145.572363 258.007843 
L 145.882346 258.133908 
L 146.220895 258.269382 
L 146.638608 258.433379 
L 146.939254 258.549273 
L 147.173841 258.638466 
L 147.717784 258.841135 
L 147.865442 258.895158 
L 148.137931 258.993745 
L 148.451383 259.105386 
L 148.856933 259.247039 
L 149.205251 259.366205 
L 149.461155 259.452294 
L 149.870096 259.587311 
L 150.133601 259.672654 
L 150.438976 259.769943 
L 150.821282 259.889308 
L 151.144513 259.988131 
L 151.421453 260.071279 
L 151.807276 260.184788 
L 152.115714 260.27359 
L 152.435007 260.363708 
L 152.74585 260.449682 
L 152.871299 260.483889 
L 153.25347 260.586368 
L 153.60372 260.678009 
L 153.947721 260.765902 
L 154.045117 260.790408 
L 154.467845 260.894842 
L 154.79911 260.974494 
L 155.23535 261.07647 
L 155.28874 261.088724 
L 155.806791 261.205062 
L 156.084052 261.265425 
L 156.485652 261.350517 
L 156.606523 261.375587 
L 156.926591 261.440768 
L 157.310143 261.516578 
L 157.549771 261.562675 
L 157.943767 261.636354 
L 158.235516 261.689224 
L 158.610328 261.755046 
L 158.719182 261.773721 
L 159.0889 261.835666 
L 159.347364 261.877615 
L 159.919402 261.966499 
L 160.265931 262.0177 
L 160.537215 262.056396 
L 160.821959 262.095704 
L 161.181069 262.14337 
L 161.454874 262.178287 
L 161.734599 262.212688 
L 161.901952 262.232655 
L 162.304925 262.278853 
L 162.694226 262.320962 
L 162.880216 262.340206 
L 163.157735 262.367873 
L 163.642175 262.413165 
L 163.793589 262.426539 
L 164.299355 262.468516 
L 164.356545 262.473001 
L 164.855322 262.509878 
L 165.136893 262.528919 
L 165.47531 262.55011 
L 165.744165 262.565627 
L 166.197099 262.589134 
L 166.451986 262.60091 
L 166.827705 262.616361 
L 167.15799 262.628068 
L 167.433602 262.636495 
L 167.760702 262.644912 
L 168.092896 262.651702 
L 168.270206 262.654601 
L 168.421904 262.65668 
L 168.901754 262.660825 
L 169.2 262.661538 
z
" style="fill:#808080;opacity:0.5;"/>
   </g>
   <g id="patch_6">
    <path clip-path="url(#p2320fc282a)" d="M 200.353846 146.393802 
L 200.120941 146.260003 
L 200.097434 146.246572 
L 199.925378 146.148683 
L 199.787715 146.070882 
L 199.511031 145.915901 
L 199.375166 145.840473 
L 199.280684 145.78828 
L 199.113152 145.696259 
L 198.881761 145.570257 
L 198.747589 145.497775 
L 198.647586 145.444027 
L 198.530707 145.381506 
L 198.309633 145.264121 
L 198.170366 145.190757 
L 198.079853 145.143316 
L 197.925981 145.0631 
L 197.73239 144.962951 
L 197.482716 144.835052 
L 197.383629 144.784686 
L 197.224502 144.704265 
L 197.100735 144.64211 
L 196.849273 144.516885 
L 196.757942 144.471753 
L 196.601353 144.394804 
L 196.387525 144.290605 
L 196.315812 144.255885 
L 196.073078 144.139202 
L 196.010441 144.109302 
L 195.802882 144.010832 
L 195.627211 143.928222 
L 195.477559 143.858374 
L 195.286665 143.769975 
L 195.185836 143.723599 
L 194.99526 143.636538 
L 194.946198 143.61425 
L 194.685745 143.496786 
L 194.565802 143.443174 
L 194.368559 143.35567 
L 194.258045 143.306998 
L 194.14798 143.258778 
L 194.000223 143.194442 
L 193.734232 143.079769 
L 193.546879 142.999875 
L 193.395664 142.935919 
L 193.294393 142.893349 
L 193.080614 142.804174 
L 192.947867 142.749269 
L 192.80129 142.68906 
L 192.700408 142.647873 
L 192.544121 142.584472 
L 192.357203 142.509292 
L 192.248855 142.466034 
L 192.123993 142.416474 
L 191.881684 142.321185 
L 191.686598 142.245315 
L 191.556325 142.19507 
L 191.363481 142.121307 
L 191.24497 142.076339 
L 191.060842 142.00702 
L 190.894477 141.944958 
L 190.73513 141.88602 
L 190.614224 141.841629 
L 190.469797 141.788974 
L 190.37675 141.755264 
L 190.160485 141.67756 
L 190.04414 141.636129 
L 189.819994 141.55704 
L 189.68503 141.509882 
L 189.493686 141.443619 
L 189.459396 141.431818 
L 189.215668 141.348579 
L 189.06757 141.298548 
L 188.888951 141.238757 
L 188.785632 141.204446 
L 188.558028 141.129567 
L 188.513303 141.114967 
L 188.320772 141.052543 
L 188.087408 140.977804 
L 187.969978 140.940578 
L 187.893939 140.916609 
L 187.643684 140.838478 
L 187.517991 140.799671 
L 187.438002 140.775127 
L 187.281677 140.727497 
L 187.029604 140.651637 
L 186.847343 140.597509 
L 186.69675 140.553242 
L 186.644236 140.537902 
L 186.424027 140.474122 
L 186.281335 140.433261 
L 186.146965 140.39512 
L 185.951952 140.340342 
L 185.870325 140.317617 
L 185.576383 140.236772 
L 185.557001 140.231496 
L 185.379951 140.183607 
L 185.17664 140.129304 
L 185.02441 140.089125 
L 184.810665 140.033405 
L 184.701695 140.005309 
L 184.590639 139.976891 
L 184.333466 139.911917 
L 184.27524 139.897369 
L 184.113284 139.857214 
L 183.951609 139.817588 
L 183.830289 139.788153 
L 183.608276 139.734954 
L 183.494302 139.707977 
L 183.352798 139.674798 
L 183.070033 139.60954 
L 182.966253 139.585937 
L 182.821445 139.553314 
L 182.728703 139.53261 
L 182.540923 139.491146 
L 182.316376 139.44236 
L 182.158616 139.408602 
L 182.068872 139.389589 
L 181.837775 139.341264 
L 181.750473 139.323246 
L 181.508029 139.273891 
L 181.443168 139.260857 
L 181.32746 139.237783 
L 181.035394 139.180552 
L 181.01425 139.176465 
L 180.823234 139.139886 
L 180.582084 139.094588 
L 180.542172 139.087186 
L 180.338881 139.0499 
L 180.122055 139.010899 
L 180.006225 138.990388 
L 179.869643 138.966492 
L 179.767029 138.948745 
L 179.580772 138.916984 
L 179.330588 138.875234 
L 179.170875 138.84913 
L 179.073961 138.833497 
L 178.91612 138.808371 
L 178.736235 138.780242 
L 178.585225 138.757044 
L 178.475839 138.740476 
L 178.258068 138.708085 
L 178.165563 138.694563 
L 178.032071 138.6753 
L 177.853036 138.649928 
L 177.600043 138.614978 
L 177.561206 138.609707 
L 177.309074 138.576088 
L 177.123221 138.551976 
L 177.006924 138.537178 
L 176.805007 138.512013 
L 176.714102 138.500901 
L 176.491475 138.474262 
L 176.407467 138.464421 
L 176.179866 138.438339 
L 176.094109 138.428732 
L 175.975066 138.415595 
L 175.764118 138.392884 
L 175.680377 138.384069 
L 175.512374 138.366731 
L 175.343746 138.349791 
L 175.170647 138.332883 
L 174.973628 138.314232 
L 174.778237 138.296358 
L 174.732669 138.292279 
L 174.580199 138.278876 
L 174.302475 138.25543 
L 174.157817 138.243714 
L 174.094954 138.238728 
L 173.964455 138.228582 
L 173.678914 138.207343 
L 173.520323 138.196117 
L 173.491056 138.194089 
L 173.208595 138.175235 
L 173.070225 138.166469 
L 172.920002 138.157302 
L 172.859705 138.153725 
L 172.616317 138.139882 
L 172.53766 138.135613 
L 172.259938 138.121336 
L 172.150059 138.116031 
L 172.054244 138.111563 
L 171.894292 138.104434 
L 171.714712 138.096921 
L 171.542782 138.090214 
L 171.39197 138.084722 
L 171.245388 138.079735 
L 171.053879 138.07374 
L 170.949538 138.070721 
L 170.784779 138.066311 
L 170.608645 138.062079 
L 170.430669 138.058309 
L 170.297348 138.055818 
L 170.160452 138.053557 
L 169.978749 138.051021 
L 169.772289 138.048782 
L 169.723088 138.04835 
L 169.475977 138.046765 
L 169.389606 138.046442 
L 169.2 138.046154 
L 169.2 262.661538 
L 169.377072 262.661287 
L 169.44759 262.661047 
L 169.729233 262.659291 
L 169.777004 262.658867 
L 169.976112 262.656705 
L 170.067537 262.655499 
L 170.258353 262.652549 
L 170.417457 262.649643 
L 170.534211 262.647252 
L 170.776135 262.6416 
L 170.95936 262.636694 
L 171.143928 262.631207 
L 171.215779 262.628923 
L 171.315654 262.62561 
L 171.60611 262.615063 
L 171.754576 262.609148 
L 171.90892 262.602623 
L 171.952802 262.600698 
L 172.189492 262.58978 
L 172.291884 262.584777 
L 172.553595 262.571223 
L 172.660589 262.565363 
L 172.850091 262.554532 
L 172.913253 262.550794 
L 173.133175 262.537274 
L 173.326753 262.524727 
L 173.435082 262.517442 
L 173.519873 262.511607 
L 173.780002 262.492981 
L 173.903777 262.483734 
L 173.997521 262.476566 
L 174.149986 262.464603 
L 174.326861 262.450254 
L 174.476342 262.437731 
L 174.70773 262.417631 
L 174.887528 262.401413 
L 175.007408 262.390307 
L 175.157171 262.376105 
L 175.371902 262.355105 
L 175.479035 262.344347 
L 175.59673 262.332313 
L 175.739805 262.31738 
L 175.866558 262.303871 
L 176.127941 262.275185 
L 176.216339 262.265231 
L 176.385208 262.245859 
L 176.487768 262.233867 
L 176.677536 262.211222 
L 176.827075 262.192962 
L 177.068646 262.162688 
L 177.117337 262.15647 
L 177.316841 262.130585 
L 177.564772 262.097503 
L 177.628143 262.088884 
L 177.739096 262.073635 
L 178.022016 262.033831 
L 178.135166 262.017542 
L 178.279318 261.996482 
L 178.425562 261.974764 
L 178.645369 261.941455 
L 178.826304 261.913433 
L 178.972435 261.890405 
L 179.134707 261.864415 
L 179.282621 261.840343 
L 179.356743 261.828142 
L 179.482989 261.807151 
L 179.682195 261.773486 
L 179.840175 261.746315 
L 179.981468 261.721659 
L 180.19726 261.683356 
L 180.316245 261.661901 
L 180.467687 261.634249 
L 180.593345 261.611011 
L 180.787266 261.574625 
L 180.979506 261.537927 
L 181.057265 261.522905 
L 181.33003 261.4694 
L 181.385033 261.458457 
L 181.495191 261.436387 
L 181.651589 261.404697 
L 181.833559 261.367301 
L 181.973667 261.338122 
L 182.208137 261.28854 
L 182.415466 261.243911 
L 182.438351 261.23894 
L 182.721465 261.176691 
L 182.829056 261.152673 
L 183.020017 261.109551 
L 183.119971 261.086728 
L 183.345767 261.034533 
L 183.424684 261.016082 
L 183.538076 260.989381 
L 183.829092 260.919828 
L 183.985732 260.881779 
L 184.149447 260.841552 
L 184.209733 260.82662 
L 184.36708 260.787348 
L 184.510717 260.751118 
L 184.717267 260.698382 
L 184.857288 260.662203 
L 184.951167 260.637752 
L 185.140459 260.587975 
L 185.310285 260.542776 
L 185.555028 260.476734 
L 185.61049 260.461619 
L 185.78394 260.413995 
L 185.955922 260.366241 
L 186.176451 260.304231 
L 186.336247 260.25875 
L 186.372812 260.248279 
L 186.577789 260.189128 
L 186.675069 260.160789 
L 186.817122 260.1191 
L 187.076739 260.041958 
L 187.129863 260.026022 
L 187.388956 259.947557 
L 187.55746 259.895866 
L 187.638256 259.870896 
L 187.778728 259.827196 
L 187.911913 259.785427 
L 188.117991 259.720151 
L 188.33788 259.649631 
L 188.426649 259.620907 
L 188.645914 259.549327 
L 188.828326 259.489092 
L 188.909045 259.462239 
L 189.068413 259.40886 
L 189.217066 259.358639 
L 189.414781 259.291195 
L 189.616657 259.221568 
L 189.735759 259.180125 
L 189.891433 259.12555 
L 190.050182 259.069419 
L 190.136643 259.038644 
L 190.297912 258.980859 
L 190.485326 258.913076 
L 190.712291 258.830079 
L 190.782644 258.80415 
L 190.939822 258.745872 
L 191.186568 258.653412 
L 191.334168 258.597534 
L 191.492782 258.537008 
L 191.620252 258.488008 
L 191.701798 258.456493 
L 191.977628 258.348917 
L 192.049174 258.320766 
L 192.267451 258.234251 
L 192.308468 258.217887 
L 192.531578 258.128287 
L 192.660756 258.075951 
L 192.912177 257.973124 
L 192.964789 257.951445 
L 193.111161 257.890833 
L 193.375533 257.780252 
L 193.494907 257.729852 
L 193.630459 257.672266 
L 193.808681 257.595975 
L 193.934832 257.541577 
L 194.111515 257.464834 
L 194.226865 257.41438 
L 194.403055 257.336778 
L 194.521578 257.284209 
L 194.665003 257.220199 
L 194.870857 257.127569 
L 194.997492 257.070139 
L 195.189915 256.982221 
L 195.397024 256.886708 
L 195.520306 256.829416 
L 195.718757 256.736503 
L 195.815187 256.691048 
L 196.030298 256.588921 
L 196.190742 256.51209 
L 196.22337 256.496397 
L 196.453382 256.385103 
L 196.539087 256.343335 
L 196.753753 256.238005 
L 196.858231 256.186371 
L 197.12805 256.051894 
L 197.163938 256.033885 
L 197.407523 255.910881 
L 197.536391 255.845264 
L 197.707006 255.757809 
L 197.792198 255.713893 
L 198.024843 255.593116 
L 198.137668 255.534095 
L 198.318029 255.439134 
L 198.443053 255.372864 
L 198.681351 255.245544 
L 198.730359 255.219194 
L 198.96664 255.091362 
L 199.032513 255.055489 
L 199.326365 254.894204 
L 199.483401 254.807167 
L 199.548947 254.770663 
L 199.760636 254.65206 
L 199.815542 254.621121 
L 200.045906 254.490512 
L 200.176783 254.415731 
L 200.353846 254.313891 
z
" style="fill:#808080;opacity:0.5;"/>
   </g>
   <g id="patch_7">
    <path clip-path="url(#p2320fc282a)" d="M 231.507692 200.353846 
L 231.500512 199.407915 
L 231.493331 199.016137 
L 231.48615 198.715541 
L 231.478969 198.462148 
L 231.471788 198.238925 
L 231.464608 198.037132 
L 231.457427 197.851581 
L 231.450246 197.67889 
L 231.443065 197.516708 
L 231.435884 197.363326 
L 231.428704 197.217453 
L 231.421523 197.078085 
L 231.414342 196.944424 
L 231.407161 196.815824 
L 231.399981 196.69175 
L 231.3928 196.571759 
L 231.385619 196.455472 
L 231.378438 196.342568 
L 231.364077 196.125832 
L 231.349715 195.919723 
L 231.335353 195.722823 
L 231.320992 195.534003 
L 231.30663 195.352347 
L 231.292269 195.177101 
L 231.277907 195.007636 
L 231.257353 194.77411 
L 231.237726 194.559962 
L 231.218099 194.353517 
L 231.198472 194.154004 
L 231.178844 193.960774 
L 231.159217 193.773275 
L 231.13959 193.591029 
L 231.119963 193.413622 
L 231.100336 193.240693 
L 231.070728 192.987604 
L 231.04112 192.743042 
L 231.011513 192.506209 
L 230.981905 192.276426 
L 230.952297 192.053106 
L 230.92269 191.835743 
L 230.893082 191.62389 
L 230.863474 191.417156 
L 230.829132 191.183314 
L 230.794789 190.955414 
L 230.760446 190.733034 
L 230.726103 190.515799 
L 230.669322 190.167043 
L 230.612541 189.830144 
L 230.568851 189.578289 
L 230.525161 189.332361 
L 230.481471 189.091971 
L 230.437781 188.856773 
L 230.374502 188.524692 
L 230.311222 188.202013 
L 230.247943 187.888004 
L 230.184663 187.582027 
L 230.129055 187.319323 
L 230.064767 187.022355 
L 230.000479 186.732164 
L 229.952534 186.519897 
L 229.904588 186.311001 
L 229.808697 185.902744 
L 229.75334 185.672512 
L 229.697983 185.446042 
L 229.642625 185.223163 
L 229.587268 185.00372 
L 229.491695 184.632521 
L 229.398574 184.279637 
L 229.305453 183.934863 
L 229.213985 183.60362 
L 229.122518 183.279292 
L 229.048858 183.022871 
L 228.970778 182.755476 
L 228.892698 182.492425 
L 228.813337 182.229317 
L 228.733976 181.970316 
L 228.624539 181.619581 
L 228.515102 181.275921 
L 228.429909 181.013049 
L 228.344716 180.754073 
L 228.263711 180.511302 
L 228.172237 180.241069 
L 228.080762 179.974828 
L 227.963577 179.639346 
L 227.846392 179.309864 
L 227.770691 179.100077 
L 227.65823 178.792681 
L 227.54577 178.490185 
L 227.360861 178.002946 
L 227.274467 177.779418 
L 227.161218 177.490214 
L 227.04797 177.205177 
L 226.919425 176.886495 
L 226.821306 176.646598 
L 226.711143 176.380592 
L 226.60098 176.118006 
L 226.571299 176.047828 
L 226.400264 175.648011 
L 226.256693 175.318226 
L 226.105463 174.97636 
L 225.954233 174.639928 
L 225.847193 174.404972 
L 225.762445 174.220756 
L 225.622524 173.920018 
L 225.482604 173.623395 
L 225.414297 173.480043 
L 225.277466 173.195674 
L 225.087674 172.807224 
L 225.010446 172.651091 
L 224.799897 172.230903 
L 224.647768 171.932138 
L 224.522834 171.689713 
L 224.313529 171.289306 
L 224.188291 171.053055 
L 223.925526 170.565168 
L 223.846817 170.421023 
L 223.704672 170.162965 
L 223.593227 169.96264 
L 223.440842 169.691498 
L 223.171098 169.219153 
L 223.107143 169.108552 
L 222.954399 168.846496 
L 222.736088 168.476961 
L 222.622778 168.287427 
L 222.437693 167.981072 
L 222.252754 167.678873 
L 222.058565 167.365656 
L 221.935935 167.169969 
L 221.802238 166.958441 
L 221.615932 166.666778 
L 221.535871 166.54253 
L 221.390108 166.317967 
L 221.162573 165.97159 
L 221.014677 165.74911 
L 220.847671 165.500345 
L 220.656365 165.218521 
L 220.528357 165.03178 
L 220.449054 164.916818 
L 220.165152 164.509714 
L 220.005006 164.283083 
L 219.935649 164.185594 
L 219.734291 163.904787 
L 219.539862 163.636727 
L 219.471065 163.54259 
L 219.245964 163.237139 
L 219.200042 163.175299 
L 219.005266 162.914775 
L 218.876356 162.743899 
L 218.742373 162.567581 
L 218.509889 162.264696 
L 218.378467 162.095163 
L 218.163543 161.820484 
L 217.990916 161.602136 
L 217.906489 161.496074 
L 217.690007 161.226263 
L 217.613403 161.13152 
L 217.377309 160.84188 
L 217.317686 160.769293 
L 217.028104 160.419888 
L 217.025956 160.417316 
L 216.782692 160.127785 
L 216.702157 160.032716 
L 216.428132 159.712093 
L 216.290095 159.552235 
L 216.236907 159.49093 
L 216.053748 159.281047 
L 215.856714 159.057363 
L 215.73479 158.920022 
L 215.614302 158.785095 
L 215.349494 158.4913 
L 215.236178 158.366719 
L 215.062948 158.177567 
L 214.971616 158.078467 
L 214.782329 157.874442 
L 214.671611 157.755946 
L 214.441592 157.511731 
L 214.267165 157.328282 
L 214.072134 157.124919 
L 213.936433 156.984501 
L 213.742695 156.785546 
L 213.603653 156.643846 
L 213.436958 156.475149 
L 213.336789 156.374392 
L 213.142793 156.180557 
L 213.006708 156.045598 
L 212.877705 155.918426 
L 212.73114 155.774833 
L 212.589787 155.63724 
L 212.369433 155.424473 
L 212.225956 155.287056 
L 212.067209 155.13603 
L 211.935475 155.011507 
L 211.782715 154.868015 
L 211.67145 154.764106 
L 211.494716 154.600097 
L 211.285378 154.40747 
L 211.140687 154.275356 
L 211.023473 154.16894 
L 210.801877 153.969233 
L 210.64274 153.826996 
L 210.588361 153.778615 
L 210.307709 153.530724 
L 210.143145 153.386758 
L 210.043846 153.300379 
L 209.925786 153.198159 
L 209.799937 153.089762 
L 209.657061 152.967406 
L 209.378247 152.730774 
L 209.289792 152.656287 
L 209.19633 152.577889 
L 209.014744 152.426456 
L 208.841316 152.282913 
L 208.64818 152.124295 
L 208.567081 152.058075 
L 208.261211 151.810357 
L 208.225877 151.781946 
L 208.081333 151.666163 
L 207.830516 151.466918 
L 207.639023 151.316207 
L 207.601377 151.286721 
L 207.370997 151.107288 
L 207.222782 150.992762 
L 207.0542 150.863362 
L 206.926263 150.765767 
L 206.697979 150.592916 
L 206.673902 150.574782 
L 206.414825 150.3808 
L 206.283461 150.283241 
L 206.093777 150.143312 
L 205.970633 150.053061 
L 205.897059 149.999359 
L 205.740626 149.885726 
L 205.482137 149.699576 
L 205.36319 149.614589 
L 205.273937 149.551095 
L 205.037217 149.383831 
L 204.908189 149.293355 
L 204.705336 149.152092 
L 204.611085 149.086863 
L 204.431141 148.963038 
L 204.232301 148.827286 
L 204.145572 148.768426 
L 204.028041 148.689003 
L 203.773494 148.518318 
L 203.574578 148.386194 
L 203.517538 148.348509 
L 203.321222 148.219493 
L 203.140831 148.101875 
L 202.989046 148.003594 
L 202.838619 147.906808 
L 202.731257 147.838102 
L 202.475228 147.675504 
L 202.351281 147.597415 
L 202.246988 147.532022 
L 202.068264 147.420626 
L 201.91873 147.328067 
L 201.707782 147.198483 
L 201.533853 147.092505 
L 201.470353 147.054007 
L 201.309952 146.957222 
L 201.16427 146.869886 
L 201.052116 146.803017 
L 200.825799 146.66905 
L 200.617667 146.546981 
L 200.448245 146.448413 
L 200.353846 146.393802 
L 200.353846 254.313891 
L 200.512484 254.22199 
L 200.600498 254.170733 
L 200.833013 254.034392 
L 200.921759 253.981997 
L 201.143542 253.850189 
L 201.264058 253.778042 
L 201.506724 253.631647 
L 201.549004 253.605987 
L 201.789671 253.459042 
L 201.970749 253.347492 
L 202.130264 253.248517 
L 202.266394 253.163525 
L 202.407325 253.075019 
L 202.590914 252.958935 
L 202.717658 252.87827 
L 202.92119 252.747833 
L 202.970846 252.715841 
L 203.117715 252.620825 
L 203.373725 252.453799 
L 203.50427 252.367936 
L 203.589348 252.311726 
L 203.760408 252.198101 
L 204.006738 252.033044 
L 204.100179 251.969987 
L 204.196442 251.904768 
L 204.488757 251.705109 
L 204.60087 251.627884 
L 204.732767 251.536568 
L 204.862705 251.446116 
L 205.09958 251.279956 
L 205.22489 251.19139 
L 205.423999 251.049708 
L 205.473383 251.014385 
L 205.708353 250.845317 
L 205.798485 250.780024 
L 205.914263 250.695791 
L 206.068663 250.582824 
L 206.233066 250.461735 
L 206.527117 250.243072 
L 206.678199 250.129675 
L 206.783043 250.050561 
L 206.935874 249.934612 
L 207.089271 249.817486 
L 207.184856 249.744121 
L 207.369519 249.60155 
L 207.538541 249.470084 
L 207.711911 249.334263 
L 207.853555 249.22256 
L 207.959201 249.138811 
L 208.157056 248.980961 
L 208.379851 248.80163 
L 208.418615 248.770256 
L 208.70151 248.539729 
L 208.865718 248.404646 
L 208.956502 248.32956 
L 209.195761 248.13028 
L 209.243048 248.090654 
L 209.499679 247.874204 
L 209.660726 247.737158 
L 209.754148 247.657224 
L 209.960328 247.47968 
L 210.025159 247.423527 
L 210.197027 247.273909 
L 210.36785 247.1241 
L 210.525075 246.985238 
L 210.710746 246.820032 
L 210.864136 246.682545 
L 211.000457 246.559585 
L 211.157429 246.417093 
L 211.368678 246.223783 
L 211.510484 246.093014 
L 211.593767 246.015833 
L 211.79653 245.826741 
L 211.913147 245.717219 
L 212.055093 245.583146 
L 212.300889 245.348978 
L 212.372661 245.280118 
L 212.630301 245.031105 
L 212.783319 244.881847 
L 212.935928 244.731961 
L 213.022911 244.646069 
L 213.145228 244.524713 
L 213.416114 244.253548 
L 213.516333 244.152375 
L 213.725894 243.939317 
L 213.889936 243.771102 
L 214.042834 243.613166 
L 214.200076 243.449573 
L 214.361267 243.280626 
L 214.500666 243.133493 
L 214.530939 243.101413 
L 214.826468 242.785838 
L 214.906426 242.699698 
L 215.067471 242.525206 
L 215.171419 242.411868 
L 215.409566 242.150072 
L 215.486855 242.064463 
L 215.732224 241.790553 
L 215.815283 241.697091 
L 215.97605 241.51511 
L 216.113964 241.357852 
L 216.310976 241.131346 
L 216.556954 240.845418 
L 216.565309 240.835645 
L 216.785931 240.576075 
L 216.941819 240.39092 
L 217.127423 240.16855 
L 217.314282 239.942536 
L 217.442973 239.785611 
L 217.5616 239.640029 
L 217.763728 239.389892 
L 217.879493 239.245433 
L 218.059371 239.019211 
L 218.137731 238.919984 
L 218.288067 238.72845 
L 218.576431 238.356695 
L 218.628554 238.288877 
L 218.874766 237.965894 
L 219.005559 237.792526 
L 219.171736 237.570429 
L 219.361658 237.314049 
L 219.500631 237.124692 
L 219.67179 236.889403 
L 219.718968 236.824141 
L 219.964438 236.481679 
L 220.041951 236.372516 
L 220.186049 236.168247 
L 220.380852 235.889305 
L 220.566806 235.619974 
L 220.744709 235.359438 
L 220.872207 235.170961 
L 221.004572 234.973707 
L 221.241071 234.617172 
L 221.385564 234.396694 
L 221.508174 234.207995 
L 221.6353 234.01076 
L 221.865161 233.649932 
L 221.953043 233.51052 
L 222.043009 233.366949 
L 222.199442 233.115221 
L 222.488624 232.642716 
L 222.553352 232.535649 
L 222.670243 232.341057 
L 222.881546 231.985161 
L 222.994058 231.793436 
L 223.13516 231.550754 
L 223.432378 231.031161 
L 223.454689 230.991686 
L 223.739614 230.481558 
L 223.784666 230.399857 
L 223.960808 230.077614 
L 224.225292 229.585093 
L 224.25427 229.530479 
L 224.395568 229.262284 
L 224.536867 228.99088 
L 224.672132 228.727973 
L 224.822366 228.432325 
L 224.948492 228.181066 
L 225.109965 227.855197 
L 225.201655 227.668004 
L 225.365123 227.330271 
L 225.497482 227.052947 
L 225.729567 226.557978 
L 225.909742 226.165737 
L 226.085351 225.776382 
L 226.229687 225.450925 
L 226.308814 225.270345 
L 226.433872 224.981724 
L 226.558931 224.689038 
L 226.614322 224.558064 
L 226.747776 224.239031 
L 226.881229 223.914922 
L 226.991309 223.643611 
L 227.061261 223.469275 
L 227.187746 223.150114 
L 227.314232 222.825708 
L 227.435361 222.509913 
L 227.5476 222.212622 
L 227.675548 221.868 
L 227.816491 221.480974 
L 227.957434 221.085766 
L 228.043793 220.839366 
L 228.130153 220.589598 
L 228.165583 220.486123 
L 228.281968 220.141963 
L 228.398353 219.791013 
L 228.53931 219.356341 
L 228.611737 219.12867 
L 228.683501 218.90005 
L 228.755264 218.668295 
L 228.827028 218.433284 
L 228.898791 218.19489 
L 228.976587 217.932475 
L 229.101188 217.503081 
L 229.225788 217.061726 
L 229.308642 216.761153 
L 229.391495 216.454543 
L 229.461209 216.191623 
L 229.569803 215.772516 
L 229.6241 215.55834 
L 229.678397 215.340907 
L 229.737537 215.100205 
L 229.793683 214.867774 
L 229.849829 214.631338 
L 229.905975 214.390696 
L 229.96212 214.145628 
L 230.010601 213.930274 
L 230.059081 213.711272 
L 230.107561 213.488441 
L 230.156041 213.261581 
L 230.178585 213.154655 
L 230.236142 212.877339 
L 230.293699 212.593472 
L 230.351256 212.302585 
L 230.408814 212.004153 
L 230.445667 211.808836 
L 230.48252 211.61001 
L 230.519374 211.407485 
L 230.556227 211.201055 
L 230.602202 210.937705 
L 230.648178 210.667429 
L 230.694153 210.389666 
L 230.740128 210.103776 
L 230.771852 209.901387 
L 230.803576 209.694506 
L 230.8353 209.482828 
L 230.867024 209.266011 
L 230.89351 209.080779 
L 230.919996 208.891447 
L 230.946482 208.697737 
L 230.972968 208.499334 
L 230.997666 208.30979 
L 231.022363 208.11554 
L 231.047061 207.916221 
L 231.071759 207.711422 
L 231.096457 207.500672 
L 231.121155 207.283426 
L 231.145853 207.059055 
L 231.170551 206.826817 
L 231.18537 206.683338 
L 231.200188 206.536495 
L 231.215007 206.386042 
L 231.229826 206.231702 
L 231.244645 206.07316 
L 231.259464 205.910056 
L 231.274283 205.741977 
L 231.289101 205.568441 
L 231.30392 205.388883 
L 231.318739 205.202636 
L 231.333558 205.008896 
L 231.348377 204.806685 
L 231.363196 204.594792 
L 231.378015 204.371685 
L 231.385424 204.255329 
L 231.392833 204.13538 
L 231.400243 204.011485 
L 231.407652 203.883227 
L 231.413905 203.77124 
L 231.420157 203.655445 
L 231.42641 203.535427 
L 231.432662 203.410687 
L 231.438915 203.280621 
L 231.445167 203.144487 
L 231.45142 203.001347 
L 231.457672 202.849996 
L 231.463925 202.68884 
L 231.467051 202.60393 
L 231.470177 202.515684 
L 231.473304 202.423675 
L 231.47643 202.327375 
L 231.479556 202.226123 
L 231.482682 202.119068 
L 231.485809 202.005081 
L 231.488935 201.882612 
L 231.492061 201.749429 
L 231.495187 201.602109 
L 231.498314 201.434887 
L 231.50144 201.236524 
L 231.504566 200.978001 
z
" style="fill:#808080;opacity:0.5;"/>
   </g>
   <g id="matplotlib.axis_1"/>
   <g id="matplotlib.axis_2"/>
   <g id="line2d_1">
    <path clip-path="url(#p2320fc282a)" d="M 138.046154 138.046154 
L 138.175893 142.064935 
L 138.521661 145.729212 
L 139.102367 149.470027 
L 139.9173 153.2011 
L 140.886654 156.644585 
L 142.121474 160.210075 
L 143.591315 163.741749 
L 145.294322 167.21287 
L 147.145002 170.466325 
L 149.210097 173.634992 
L 151.485701 176.700429 
L 153.842723 179.506543 
L 156.468256 182.276274 
L 159.109773 184.749205 
L 161.93887 187.102633 
L 164.911922 189.291822 
L 168.048162 191.324585 
L 169.2 192.006198 
L 169.2 192.006198 
" style="fill:none;stroke:#ff0000;stroke-linecap:square;"/>
   </g>
   <g id="line2d_2">
    <path clip-path="url(#p2320fc282a)" d="M 106.892308 200.353846 
L 107.022914 204.386024 
L 107.376331 208.105136 
L 107.972239 211.904165 
L 108.805336 215.674849 
L 109.810057 219.197498 
L 111.108245 222.883749 
L 112.49258 226.170837 
L 114.055962 229.360458 
L 115.845586 232.533888 
L 117.732805 235.473305 
L 119.710065 238.208764 
L 121.991865 241.018825 
L 124.643075 243.907594 
L 127.537373 246.683901 
L 130.59065 249.257492 
L 133.544432 251.451096 
L 136.8084 253.580088 
L 140.18498 255.493461 
L 143.584875 257.152736 
L 146.939254 258.549273 
L 150.438976 259.769943 
L 154.045117 260.790408 
L 157.549771 261.562675 
L 161.181069 262.14337 
L 164.855322 262.509878 
L 168.421904 262.65668 
L 169.2 262.661538 
L 169.2 262.661538 
" style="fill:none;stroke:#228b22;stroke-linecap:square;"/>
   </g>
   <g id="line2d_3">
    <path clip-path="url(#p2320fc282a)" d="M 169.2 262.661538 
L 172.913253 262.550794 
L 176.677536 262.211222 
L 180.316245 261.661901 
L 183.985732 260.881779 
L 187.638256 259.870896 
L 191.186568 258.653412 
L 194.665003 257.220199 
L 198.024843 255.593116 
L 200.353846 254.313891 
L 200.353846 254.313891 
" style="fill:none;stroke:#228b22;stroke-linecap:square;"/>
   </g>
   <g id="line2d_4">
    <path clip-path="url(#p2320fc282a)" d="M 200.353846 254.313891 
L 203.589348 252.311726 
L 206.678199 250.129675 
L 209.499679 247.874204 
L 212.300889 245.348978 
L 214.906426 242.699698 
L 217.314282 239.942536 
L 219.500631 237.124692 
L 221.6353 234.01076 
L 223.454689 230.991686 
L 225.201655 227.668004 
L 226.747776 224.239031 
L 228.043793 220.839366 
L 229.101188 217.503081 
L 230.059081 213.711272 
L 230.740128 210.103776 
L 231.215007 206.386042 
L 231.467051 202.60393 
L 231.507692 200.353846 
L 231.507692 200.353846 
" style="fill:none;stroke:#228b22;stroke-linecap:square;"/>
   </g>
   <g id="text_1">
    <!-- $\Omega$ -->
    <g transform="translate(16.011538 22.420913)scale(0.1 -0.1)">
     <defs>
      <path d="M 7.71875 0 
L 4.390625 16.609375 
L 7.328125 16.609375 
Q 7.859375 13.71875 8.296875 11.5 
Q 8.734375 9.28125 9.4375 8.375 
Q 10.15625 7.46875 11.71875 7.171875 
Q 13.28125 6.890625 16.890625 6.890625 
L 23 6.890625 
Q 21.53125 12.546875 15.6875 21.65625 
Q 9.859375 30.765625 7.734375 34.890625 
Q 5.609375 39.015625 5.609375 45.515625 
Q 5.609375 53.078125 10.09375 58.765625 
Q 14.59375 64.453125 21.703125 67.484375 
Q 28.8125 70.515625 36.078125 70.515625 
Q 43.3125 70.515625 50.40625 67.484375 
Q 57.515625 64.453125 62 58.71875 
Q 66.5 52.984375 66.5 45.515625 
Q 66.5 40.4375 64.640625 35.9375 
Q 62.796875 31.453125 59.90625 26.953125 
Q 57.03125 22.46875 53.6875 16.9375 
Q 50.34375 11.421875 49.125 6.890625 
L 55.171875 6.890625 
Q 58.84375 6.890625 60.453125 7.171875 
Q 62.0625 7.46875 62.734375 8.375 
Q 63.421875 9.28125 63.84375 11.5 
Q 64.265625 13.71875 64.796875 16.609375 
L 67.671875 16.609375 
L 64.40625 0 
L 46.6875 0 
Q 45.703125 0 45.703125 1.3125 
Q 45.703125 6.390625 46.9375 11.265625 
Q 48.1875 16.15625 50.625 23.09375 
Q 53.078125 30.03125 54.4375 35.328125 
Q 55.8125 40.625 55.8125 45.515625 
Q 55.8125 51.515625 53.46875 56.640625 
Q 51.125 61.765625 46.625 64.84375 
Q 42.140625 67.921875 36.078125 67.921875 
Q 26.953125 67.921875 21.625 61.40625 
Q 16.3125 54.890625 16.3125 45.515625 
Q 16.359375 40.375 17.53125 35.828125 
Q 18.703125 31.296875 21.3125 23.71875 
Q 23.921875 16.15625 25.171875 11.265625 
Q 26.421875 6.390625 26.421875 1.3125 
Q 26.421875 0 25.390625 0 
z
" id="Cmr10-173"/>
     </defs>
     <use transform="translate(0 0.484375)" xlink:href="#Cmr10-173"/>
    </g>
   </g>
   <g id="text_2">
    <!-- $A$ -->
    <g style="fill:#0000ff;" transform="translate(103.142308 78.497837)scale(0.1 -0.1)">
     <defs>
      <path d="M 4.5 0 
Q 3.515625 0 3.515625 1.3125 
Q 3.90625 3.515625 4.78125 3.515625 
Q 8.84375 3.515625 11.796875 5.125 
Q 14.75 6.734375 16.890625 10.109375 
Q 17.09375 10.296875 17.09375 10.296875 
L 52.78125 70.515625 
Q 53.5625 71.578125 54.6875 71.578125 
L 56 71.578125 
Q 56.296875 71.578125 56.59375 71.453125 
Q 56.890625 71.34375 57.109375 71.0625 
Q 57.328125 70.796875 57.328125 70.515625 
L 63.375 5.90625 
Q 63.375 5.46875 63.8125 4.59375 
Q 64.796875 3.515625 71.296875 3.515625 
Q 72.3125 3.515625 72.3125 2.203125 
Q 71.96875 0.875 71.75 0.4375 
Q 71.53125 0 70.609375 0 
L 45.609375 0 
Q 44.671875 0 44.671875 1.3125 
Q 45.21875 3.515625 46 3.515625 
Q 53.90625 3.515625 54.390625 6.203125 
L 52.875 22.703125 
L 28.21875 22.703125 
L 20.21875 9.28125 
Q 19.484375 8.203125 19.484375 6.78125 
Q 19.484375 5.03125 21.171875 4.265625 
Q 22.859375 3.515625 24.90625 3.515625 
Q 25.875 3.515625 25.875 2.203125 
Q 25.53125 0.78125 25.328125 0.390625 
Q 25.140625 0 24.21875 0 
z
M 30.171875 26.21875 
L 52.484375 26.21875 
L 49.515625 58.59375 
z
" id="Cmmi10-65"/>
     </defs>
     <use transform="translate(0 0.421875)" xlink:href="#Cmmi10-65"/>
    </g>
   </g>
   <g id="text_3">
    <!-- $B$ -->
    <g style="fill:#ff0000;" transform="translate(227.707692 78.497837)scale(0.1 -0.1)">
     <defs>
      <path d="M 4.984375 0 
Q 4 0 4 1.3125 
Q 4.046875 1.5625 4.1875 2.140625 
Q 4.34375 2.734375 4.578125 3.125 
Q 4.828125 3.515625 5.328125 3.515625 
Q 8.15625 3.515625 10.25 3.65625 
Q 12.359375 3.8125 13.8125 4.203125 
Q 14.984375 4.640625 15.71875 6.890625 
L 29.390625 61.8125 
Q 29.59375 62.796875 29.59375 63.1875 
Q 29.59375 64.265625 28.421875 64.40625 
Q 26.515625 64.796875 21.1875 64.796875 
Q 20.21875 64.796875 20.21875 66.109375 
Q 20.265625 66.359375 20.40625 66.96875 
Q 20.5625 67.578125 20.828125 67.9375 
Q 21.09375 68.3125 21.484375 68.3125 
L 57.328125 68.3125 
Q 60.59375 68.3125 63.796875 67.5 
Q 67 66.703125 69.703125 64.9375 
Q 72.40625 63.1875 74 60.5625 
Q 75.59375 57.953125 75.59375 54.5 
Q 75.59375 50.734375 73.65625 47.5 
Q 71.734375 44.28125 68.671875 41.890625 
Q 65.625 39.5 62.078125 37.953125 
Q 58.546875 36.421875 54.6875 35.6875 
Q 57.421875 35.6875 60.21875 34.609375 
Q 63.03125 33.546875 65.234375 31.6875 
Q 67.4375 29.828125 68.78125 27.234375 
Q 70.125 24.65625 70.125 21.6875 
Q 70.125 15.671875 65.921875 10.6875 
Q 61.71875 5.71875 55.34375 2.859375 
Q 48.96875 0 43.015625 0 
z
M 23.390625 4.296875 
Q 23.390625 3.515625 26.8125 3.515625 
L 41.109375 3.515625 
Q 46 3.515625 50.484375 6.21875 
Q 54.984375 8.9375 57.6875 13.421875 
Q 60.40625 17.921875 60.40625 22.796875 
Q 60.40625 25.78125 59.15625 28.4375 
Q 57.90625 31.109375 55.5625 32.640625 
Q 53.21875 34.1875 50.203125 34.1875 
L 30.71875 34.1875 
L 23.78125 6.5 
Q 23.390625 5.125 23.390625 4.296875 
z
M 31.390625 36.8125 
L 46.578125 36.8125 
Q 51.375 36.8125 55.890625 39.25 
Q 60.40625 41.703125 63.25 45.890625 
Q 66.109375 50.09375 66.109375 54.78125 
Q 66.109375 59.125 63.390625 61.953125 
Q 60.6875 64.796875 56.390625 64.796875 
L 42.671875 64.796875 
Q 39.984375 64.796875 39.0625 64.296875 
Q 38.140625 63.8125 37.5 61.375 
z
" id="Cmmi10-66"/>
     </defs>
     <use transform="translate(0 0.6875)" xlink:href="#Cmmi10-66"/>
    </g>
   </g>
   <g id="text_4">
    <!-- $C$ -->
    <g style="fill:#228b22;" transform="translate(150.023077 271.651683)scale(0.1 -0.1)">
     <defs>
      <path d="M 14.59375 21.578125 
Q 14.59375 15.578125 16.90625 11.015625 
Q 19.234375 6.453125 23.65625 3.875 
Q 28.078125 1.3125 34.078125 1.3125 
Q 40.375 1.3125 46.203125 4.53125 
Q 52.046875 7.765625 56.171875 13.15625 
Q 60.296875 18.5625 61.8125 24.609375 
Q 62.015625 25.203125 62.59375 25.203125 
L 63.8125 25.203125 
Q 64.203125 25.203125 64.453125 24.921875 
Q 64.703125 24.65625 64.703125 24.3125 
Q 64.703125 24.21875 64.59375 24.03125 
Q 62.890625 17.09375 57.984375 11.015625 
Q 53.078125 4.9375 46.234375 1.359375 
Q 39.40625 -2.203125 32.171875 -2.203125 
Q 24.359375 -2.203125 18.15625 1.3125 
Q 11.96875 4.828125 8.515625 11.078125 
Q 5.078125 17.328125 5.078125 25.203125 
Q 5.078125 33.59375 8.828125 41.8125 
Q 12.59375 50.046875 18.9375 56.46875 
Q 25.296875 62.890625 33.421875 66.703125 
Q 41.546875 70.515625 49.90625 70.515625 
Q 53.21875 70.515625 56.25 69.5 
Q 59.28125 68.5 61.859375 66.453125 
Q 64.453125 64.40625 66.109375 61.71875 
L 74.03125 70.3125 
Q 74.03125 70.515625 74.515625 70.515625 
L 75.09375 70.515625 
Q 75.484375 70.515625 75.734375 70.171875 
Q 75.984375 69.828125 75.984375 69.484375 
L 69.1875 42.484375 
Q 69.1875 41.796875 68.40625 41.796875 
L 66.609375 41.796875 
Q 65.828125 41.796875 65.828125 42.921875 
Q 66.21875 45.125 66.21875 48.1875 
Q 66.21875 53.078125 64.546875 57.390625 
Q 62.890625 61.71875 59.390625 64.359375 
Q 55.90625 67 50.875 67 
Q 42.71875 67 35.9375 62.890625 
Q 29.15625 58.796875 24.4375 52.125 
Q 19.734375 45.453125 17.15625 37.328125 
Q 14.59375 29.203125 14.59375 21.578125 
z
" id="Cmmi10-67"/>
     </defs>
     <use transform="translate(0 0.484375)" xlink:href="#Cmmi10-67"/>
    </g>
   </g>
   <g id="patch_8">
    <path clip-path="url(#p2320fc282a)" d="M 138.046154 200.353846 
C 154.570347 200.353846 170.419977 193.788715 182.104346 182.104346 
C 193.788715 170.419977 200.353846 154.570347 200.353846 138.046154 
C 200.353846 121.521961 193.788715 105.672331 182.104346 93.987962 
C 170.419977 82.303593 154.570347 75.738462 138.046154 75.738462 
C 121.521961 75.738462 105.672331 82.303593 93.987962 93.987962 
C 82.303593 105.672331 75.738462 121.521961 75.738462 138.046154 
C 75.738462 154.570347 82.303593 170.419977 93.987962 182.104346 
C 105.672331 193.788715 121.521961 200.353846 138.046154 200.353846 
z
" style="fill:none;stroke:#0000ff;stroke-linejoin:miter;"/>
   </g>
   <g id="patch_9">
    <path clip-path="url(#p2320fc282a)" d="M 200.353846 200.353846 
C 216.878039 200.353846 232.727669 193.788715 244.412038 182.104346 
C 256.096407 170.419977 262.661538 154.570347 262.661538 138.046154 
C 262.661538 121.521961 256.096407 105.672331 244.412038 93.987962 
C 232.727669 82.303593 216.878039 75.738462 200.353846 75.738462 
C 183.829653 75.738462 167.980023 82.303593 156.295654 93.987962 
C 144.611285 105.672331 138.046154 121.521961 138.046154 138.046154 
C 138.046154 154.570347 144.611285 170.419977 156.295654 182.104346 
C 167.980023 193.788715 183.829653 200.353846 200.353846 200.353846 
z
" style="fill:none;stroke:#ff0000;stroke-linejoin:miter;"/>
   </g>
   <g id="patch_10">
    <path clip-path="url(#p2320fc282a)" d="M 169.2 262.661538 
C 185.724193 262.661538 201.573823 256.096407 213.258192 244.412038 
C 224.942561 232.727669 231.507692 216.878039 231.507692 200.353846 
C 231.507692 183.829653 224.942561 167.980023 213.258192 156.295654 
C 201.573823 144.611285 185.724193 138.046154 169.2 138.046154 
C 152.675807 138.046154 136.826177 144.611285 125.141808 156.295654 
C 113.457439 167.980023 106.892308 183.829653 106.892308 200.353846 
C 106.892308 216.878039 113.457439 232.727669 125.141808 244.412038 
C 136.826177 256.096407 152.675807 262.661538 169.2 262.661538 
z
" style="fill:none;stroke:#228b22;stroke-linejoin:miter;"/>
   </g>
  </g>
 </g>
 <defs>
  <clipPath id="p2320fc282a">
   <rect height="324" width="324" x="7.2" y="7.2"/>
  </clipPath>
 </defs>
</svg>
