<?xml version="1.0" encoding="utf-8" standalone="no"?>
<!DOCTYPE svg PUBLIC "-//W3C//DTD SVG 1.1//EN"
  "http://www.w3.org/Graphics/SVG/1.1/DTD/svg11.dtd">
<svg xmlns:xlink="http://www.w3.org/1999/xlink" width="338.4pt" height="338.4pt" viewBox="0 0 338.4 338.4" xmlns="http://www.w3.org/2000/svg" version="1.1">
 <metadata>
  <rdf:RDF xmlns:dc="http://purl.org/dc/elements/1.1/" xmlns:cc="http://creativecommons.org/ns#" xmlns:rdf="http://www.w3.org/1999/02/22-rdf-syntax-ns#">
   <cc:Work>
    <dc:type rdf:resource="http://purl.org/dc/dcmitype/StillImage"/>
    <dc:date>2025-08-21T01:25:16.493321</dc:date>
    <dc:format>image/svg+xml</dc:format>
    <dc:creator>
     <cc:Agent>
      <dc:title>Matplotlib v3.8.0, https://matplotlib.org/</dc:title>
     </cc:Agent>
    </dc:creator>
   </cc:Work>
  </rdf:RDF>
 </metadata>
 <defs>
  <style type="text/css">*{stroke-linejoin: round; stroke-linecap: butt}</style>
 </defs>
 <g id="figure_1">
  <g id="patch_1">
   <path d="M -0 338.4 
L 338.4 338.4 
L 338.4 0 
L -0 0 
z
" style="fill: #ffffff"/>
  </g>
  <g id="axes_1">
   <g id="patch_2">
    <path d="M 7.2 331.2 
L 331.2 331.2 
L 331.2 7.2 
L 7.2 7.2 
z
" style="fill: #ffffff"/>
   </g>
   <g id="patch_3">
    <path d="M 13.430769 324.969231 
L 13.430769 13.430769 
L 324.969231 13.430769 
L 324.969231 324.969231 
L 13.430769 324.969231 
z
" clip-path="url(#p93e36d9b3d)" style="fill: none; stroke: #000000; stroke-linejoin: miter"/>
   </g>
   <g id="patch_4">
    <path d="M 169.2 192.006198 
L 168.736992 192.27088 
L 168.502341 192.403023 
L 168.223562 192.558286 
L 168.014448 192.673526 
L 167.649929 192.871923 
L 167.318267 193.049716 
L 166.952184 193.242983 
L 166.69503 193.376891 
L 166.521354 193.466471 
L 166.040701 193.710809 
L 165.909117 193.77679 
L 165.313913 194.070415 
L 165.132077 194.158553 
L 164.855546 194.291198 
L 164.540708 194.440188 
L 164.207829 194.595383 
L 163.885233 194.743513 
L 163.575839 194.883498 
L 163.317414 194.998871 
L 162.856241 195.201277 
L 162.504859 195.352526 
L 162.394164 195.399645 
L 161.924442 195.596791 
L 161.773861 195.659038 
L 161.484176 195.777494 
L 160.96715 195.984711 
L 160.898998 196.011627 
L 160.395479 196.20762 
L 160.068647 196.332158 
L 159.675174 196.479312 
L 159.421772 196.572485 
L 159.07977 196.696265 
L 158.726928 196.821609 
L 158.578521 196.873617 
L 158.136155 197.026154 
L 157.79192 197.142289 
L 157.629793 197.196214 
L 157.284476 197.309426 
L 157.062344 197.381076 
L 156.62086 197.52076 
L 156.308869 197.617302 
L 156.066251 197.691142 
L 155.63432 197.819935 
L 155.54208 197.846999 
L 155.014544 197.998821 
L 154.659545 198.098163 
L 154.505892 198.140459 
L 154.049106 198.26371 
L 153.736411 198.345941 
L 153.421791 198.426931 
L 153.373293 198.43926 
L 152.980427 198.537608 
L 152.649799 198.618277 
L 152.298642 198.701863 
L 151.985851 198.774511 
L 151.725302 198.83373 
L 151.297706 198.928375 
L 151.177541 198.954406 
L 150.590147 199.078086 
L 150.355008 199.125943 
L 150.185183 199.159921 
L 149.650165 199.263761 
L 149.535109 199.285458 
L 149.308739 199.327494 
L 148.915264 199.398505 
L 148.566884 199.459204 
L 148.300259 199.504285 
L 148.020377 199.550328 
L 147.643012 199.610338 
L 147.241355 199.67161 
L 147.079301 199.695572 
L 146.77619 199.739225 
L 146.315752 199.802629 
L 145.960265 199.849191 
L 145.594816 199.89489 
L 145.36098 199.922982 
L 144.96541 199.968463 
L 144.926071 199.972846 
L 144.415909 200.027399 
L 144.010696 200.067705 
L 143.836553 200.084205 
L 143.569156 200.108582 
L 143.093393 200.149084 
L 142.819824 200.170711 
L 142.693407 200.180296 
L 142.127254 200.220048 
L 141.894409 200.234894 
L 141.638595 200.250196 
L 141.299653 200.268845 
L 140.921165 200.287481 
L 140.744139 200.295406 
L 140.548536 200.303576 
L 139.929536 200.325375 
L 139.720964 200.331333 
L 139.449777 200.338034 
L 139.014785 200.346317 
L 138.678382 200.350639 
L 138.579038 200.351567 
L 138.203386 200.353648 
L 137.839651 200.353504 
L 137.610924 200.352326 
L 137.212011 200.348262 
L 136.79386 200.34126 
L 136.694344 200.33918 
L 136.219337 200.32706 
L 135.944686 200.318398 
L 135.596255 200.305663 
L 135.287083 200.292728 
L 135.117729 200.284991 
L 134.817769 200.270153 
L 134.424975 200.24853 
L 134.195941 200.234773 
L 133.947375 200.218885 
L 133.396408 200.180109 
L 133.342541 200.176054 
L 132.9207 200.142677 
L 132.616811 200.116845 
L 132.252127 200.083866 
L 131.938897 200.053814 
L 131.714237 200.031276 
L 131.318539 199.989577 
L 130.944749 199.947839 
L 130.840379 199.935776 
L 130.224247 199.860928 
L 130.208116 199.858885 
L 129.860473 199.813808 
L 129.494219 199.764165 
L 129.111247 199.709887 
L 128.865616 199.673796 
L 128.508791 199.619583 
L 128.179202 199.567628 
L 127.82512 199.509793 
L 127.607948 199.473285 
L 127.366859 199.43183 
L 126.967604 199.361032 
L 126.737998 199.319102 
L 126.218888 199.221021 
L 125.932781 199.165011 
L 125.810634 199.140675 
L 125.446685 199.066658 
L 125.069194 198.987495 
L 124.626997 198.891653 
L 124.428877 198.84762 
L 124.158462 198.786425 
L 123.790427 198.701102 
L 123.455719 198.62146 
L 123.29511 198.58255 
L 122.769253 198.451988 
L 122.637017 198.418391 
L 122.304918 198.332653 
L 122.070164 198.270869 
L 121.45829 198.105219 
L 121.444438 198.101391 
L 121.10507 198.006543 
L 120.638146 197.872651 
L 120.378192 197.796398 
L 120.077884 197.706776 
L 119.729869 197.600853 
L 119.381512 197.492597 
L 119.189214 197.431879 
L 118.811673 197.310673 
L 118.32843 197.151652 
L 118.05595 197.060053 
L 117.835147 196.984797 
L 117.451331 196.851781 
L 117.076051 196.719004 
L 116.836873 196.632969 
L 116.472095 196.499627 
L 116.297164 196.434765 
L 116.035568 196.336656 
L 115.656443 196.192085 
L 115.193384 196.011656 
L 115.056573 195.957532 
L 114.611794 195.778981 
L 114.506792 195.736248 
L 114.14901 195.588964 
L 113.814634 195.448958 
L 113.597939 195.357002 
L 113.139903 195.159437 
L 112.89721 195.052988 
L 112.551299 194.89913 
L 112.096592 194.693032 
L 111.974195 194.636802 
L 111.434711 194.385125 
L 111.204988 194.276042 
L 110.810363 194.085963 
L 110.65526 194.010316 
L 110.479565 193.923982 
L 110.106412 193.738338 
L 109.68867 193.526796 
L 109.487365 193.423442 
L 108.97793 193.15774 
L 108.700105 193.010305 
L 108.499267 192.902603 
L 108.12253 192.698009 
L 107.912603 192.582542 
L 107.576989 192.395749 
L 107.082094 192.115327 
L 106.892308 192.006198 
L 106.892308 200.353846 
L 106.903182 201.517878 
L 106.914056 201.999964 
L 106.92493 202.369832 
L 106.935804 202.681605 
L 106.946679 202.956246 
L 106.957553 203.204508 
L 106.968427 203.432778 
L 106.979301 203.64522 
L 106.990175 203.844722 
L 107.001049 204.033392 
L 107.011924 204.212818 
L 107.022798 204.384235 
L 107.044546 204.706783 
L 107.066294 205.006925 
L 107.088043 205.28875 
L 107.109791 205.555237 
L 107.131539 205.808634 
L 107.153288 206.050688 
L 107.175036 206.282789 
L 107.196784 206.506063 
L 107.218533 206.721438 
L 107.240281 206.929691 
L 107.284609 207.334739 
L 107.328937 207.717274 
L 107.373265 208.08064 
L 107.417593 208.427426 
L 107.461921 208.759683 
L 107.506249 209.079073 
L 107.550577 209.386959 
L 107.594905 209.684481 
L 107.637485 209.961408 
L 107.680065 210.230389 
L 107.722645 210.492058 
L 107.765225 210.746967 
L 107.814225 211.032569 
L 107.863224 211.310509 
L 107.912224 211.581358 
L 107.961223 211.845615 
L 108.059223 212.35609 
L 108.157222 212.844952 
L 108.266501 213.367577 
L 108.37578 213.869125 
L 108.485059 214.351862 
L 108.594338 214.817672 
L 108.682413 215.181865 
L 108.757318 215.484303 
L 108.832224 215.780449 
L 108.982035 216.355257 
L 109.134922 216.919922 
L 109.287809 217.464599 
L 109.437153 217.97913 
L 109.586497 218.477831 
L 109.710997 218.882393 
L 109.835497 219.277491 
L 109.959997 219.663703 
L 110.084497 220.041553 
L 110.22938 220.471362 
L 110.374262 220.891156 
L 110.526554 221.322281 
L 110.678846 221.743635 
L 110.891825 222.317572 
L 111.104804 222.874874 
L 111.317628 223.416359 
L 111.469199 223.793197 
L 111.620771 224.163107 
L 111.829881 224.66265 
L 112.03899 225.150368 
L 112.106235 225.304809 
L 112.353546 225.863239 
L 112.600856 226.407356 
L 112.773445 226.779068 
L 112.950969 227.154872 
L 113.128493 227.524319 
L 113.336368 227.949192 
L 113.544243 228.366079 
L 113.720189 228.712956 
L 114.062891 229.373628 
L 114.317057 229.851492 
L 114.685259 230.526542 
L 114.926075 230.957597 
L 115.167402 231.381686 
L 115.408729 231.798205 
L 115.543705 232.027976 
L 115.973372 232.74481 
L 116.31387 233.297825 
L 116.491813 233.581779 
L 116.803703 234.071447 
L 117.264187 234.776511 
L 117.641146 235.338602 
L 117.857607 235.655507 
L 118.230637 236.19199 
L 118.343912 236.352552 
L 118.66852 236.806803 
L 119.04453 237.322445 
L 119.444379 237.858868 
L 119.62779 238.100958 
L 120.175522 238.809653 
L 120.506113 239.227409 
L 120.531761 239.259514 
L 120.919291 239.739398 
L 121.429925 240.357202 
L 121.67737 240.650845 
L 122.012046 241.042241 
L 122.312429 241.388029 
L 122.606809 241.721987 
L 122.974197 242.132114 
L 123.20757 242.38889 
L 123.496623 242.702988 
L 123.888295 243.1218 
L 124.210212 243.460314 
L 124.30315 243.557103 
L 124.643569 243.9081 
L 125.170922 244.441133 
L 125.32305 244.592537 
L 125.670851 244.934803 
L 125.959344 245.214677 
L 126.379032 245.615454 
L 126.500765 245.730314 
L 127.018856 246.21232 
L 127.117122 246.302512 
L 127.67166 246.804309 
L 127.881939 246.991453 
L 128.244775 247.310401 
L 128.544649 247.570273 
L 128.740387 247.738108 
L 129.022685 247.977705 
L 129.514836 248.388586 
L 129.882111 248.689672 
L 130.024728 248.805333 
L 130.412062 249.115966 
L 130.597449 249.26286 
L 130.919436 249.515283 
L 131.331747 249.833578 
L 131.747823 250.149257 
L 131.853136 250.228291 
L 132.17673 250.468973 
L 132.677183 250.834856 
L 132.916846 251.007388 
L 133.328281 251.299585 
L 133.361063 251.322651 
L 133.9495 251.731378 
L 134.029578 251.786228 
L 134.33161 251.991467 
L 134.732789 252.260107 
L 134.995149 252.433369 
L 135.260904 252.606944 
L 135.58087 252.813379 
L 135.966737 253.058673 
L 136.394365 253.325903 
L 136.758012 253.54939 
L 136.81928 253.586707 
L 137.416068 253.945172 
L 137.475213 253.980205 
L 137.907711 254.233723 
L 138.299482 254.459359 
L 138.378243 254.504264 
L 138.780477 254.731242 
L 139.223066 254.976478 
L 139.461246 255.106518 
L 139.901837 255.343537 
L 139.984034 255.387253 
L 140.51208 255.664349 
L 140.659148 255.740381 
L 141.076179 255.953299 
L 141.22026 256.025946 
L 141.572466 256.201566 
L 141.959927 256.391574 
L 142.224136 256.519239 
L 142.451385 256.62782 
L 142.875045 256.827249 
L 143.292684 257.020057 
L 143.515587 257.121438 
L 143.93784 257.3106 
L 144.087446 257.37672 
L 144.590875 257.595784 
L 144.867331 257.713848 
L 145.192465 257.850688 
L 145.305495 257.897752 
L 145.771398 258.08901 
L 146.046552 258.199904 
L 146.433716 258.35337 
L 146.576974 258.409399 
L 146.833066 258.508543 
L 147.434698 258.736379 
L 147.559002 258.782569 
L 147.903207 258.908907 
L 148.377024 259.079073 
L 148.411346 259.091231 
L 148.721556 259.200102 
L 149.276442 259.390279 
L 149.387644 259.42769 
L 149.856954 259.58302 
L 149.947081 259.612378 
L 150.464205 259.777903 
L 150.59434 259.818776 
L 151.06029 259.962566 
L 151.365069 260.054464 
L 151.532466 260.104217 
L 151.967 260.230989 
L 152.179556 260.291756 
L 152.602924 260.410366 
L 153.01841 260.523645 
L 153.160159 260.561587 
L 153.391175 260.622657 
L 153.703519 260.703723 
L 154.200514 260.829163 
L 154.518187 260.90707 
L 154.869394 260.991147 
L 154.95449 261.011195 
L 155.479265 261.132049 
L 155.647672 261.169822 
L 156.157432 261.281179 
L 156.304475 261.312471 
L 156.689916 261.392738 
L 156.877282 261.43084 
L 157.238723 261.502651 
L 157.728069 261.596342 
L 157.842077 261.617588 
L 158.336166 261.707132 
L 158.442322 261.725834 
L 158.89171 261.802912 
L 159.244334 261.861027 
L 159.58926 261.915865 
L 159.772364 261.944172 
L 160.149392 262.000703 
L 160.371997 262.032975 
L 160.896267 262.105741 
L 161.133757 262.137212 
L 161.502926 262.184288 
L 161.68572 262.206769 
L 161.91676 262.2344 
L 162.415813 262.291099 
L 162.555754 262.306268 
L 163.068189 262.359083 
L 163.138687 262.366014 
L 163.44842 262.395508 
L 163.993264 262.443607 
L 164.299925 262.468561 
L 164.51481 262.485139 
L 164.910065 262.51368 
L 165.085219 262.525521 
L 165.348388 262.542379 
L 165.770392 262.567079 
L 166.221008 262.590283 
L 166.344811 262.596086 
L 166.675464 262.610374 
L 167.135722 262.627334 
L 167.208117 262.629692 
L 167.652722 262.642324 
L 168.000514 262.649992 
L 168.257181 262.654405 
L 168.685451 262.659414 
L 169.00159 262.661223 
L 169.2 262.661538 
z
" clip-path="url(#p93e36d9b3d)" style="fill: #808080; opacity: 0.5"/>
   </g>
   <g id="patch_5">
    <path d="M 231.507692 192.006198 
L 231.040712 192.273129 
L 230.91136 192.346125 
L 230.542827 192.551878 
L 230.100931 192.794299 
L 229.98989 192.854488 
L 229.65415 193.034704 
L 229.334932 193.203612 
L 228.937261 193.410735 
L 228.681167 193.542203 
L 228.273153 193.748585 
L 228.132553 193.818835 
L 227.760667 194.002518 
L 227.485868 194.136277 
L 226.992198 194.372406 
L 226.832222 194.447786 
L 226.414181 194.642156 
L 226.104924 194.783536 
L 225.888901 194.881086 
L 225.624437 194.999167 
L 225.098212 195.22976 
L 224.870807 195.327627 
L 224.608302 195.439271 
L 224.293874 195.571136 
L 223.85854 195.750382 
L 223.543257 195.877804 
L 223.281825 195.981948 
L 223.09638 196.054995 
L 222.890556 196.135268 
L 222.371178 196.334108 
L 222.200441 196.398316 
L 221.912469 196.505322 
L 221.532685 196.643981 
L 221.035257 196.821385 
L 220.709272 196.935076 
L 220.48271 197.012902 
L 220.183936 197.114047 
L 219.778228 197.248704 
L 219.59638 197.308059 
L 219.150403 197.451019 
L 218.927894 197.520966 
L 218.654198 197.605751 
L 218.403636 197.682163 
L 218.063564 197.784035 
L 217.742266 197.878347 
L 217.51917 197.942733 
L 217.207148 198.031275 
L 216.875825 198.123377 
L 216.424314 198.245727 
L 216.140964 198.320655 
L 215.815528 198.404955 
L 215.481388 198.489565 
L 215.156033 198.570065 
L 214.833348 198.648073 
L 214.753344 198.667132 
L 214.195331 198.796971 
L 213.981115 198.845381 
L 213.52307 198.946237 
L 213.381519 198.976674 
L 212.879107 199.081933 
L 212.862055 199.08543 
L 212.333083 199.191443 
L 212.095365 199.237536 
L 211.914411 199.271981 
L 211.584313 199.333388 
L 211.258513 199.392195 
L 210.693543 199.489943 
L 210.41228 199.536612 
L 210.281034 199.557937 
L 210.030252 199.597886 
L 209.482892 199.681444 
L 209.335738 199.70306 
L 208.963022 199.756207 
L 208.804967 199.778051 
L 208.443097 199.826511 
L 208.180271 199.860356 
L 207.697533 199.919563 
L 207.420922 199.951767 
L 207.036829 199.994409 
L 206.733949 200.026335 
L 206.48405 200.05155 
L 206.005517 200.096997 
L 205.716292 200.122661 
L 205.653392 200.128062 
L 205.294344 200.157666 
L 204.937295 200.185035 
L 204.471961 200.217608 
L 204.376973 200.223826 
L 203.857035 200.255287 
L 203.780038 200.259575 
L 203.24137 200.286902 
L 203.10925 200.292891 
L 202.816693 200.305152 
L 202.462633 200.31815 
L 202.062963 200.330401 
L 201.886254 200.334999 
L 201.441225 200.344357 
L 201.174125 200.348446 
L 200.83449 200.351992 
L 200.597106 200.353371 
L 200.237988 200.353738 
L 199.821932 200.351576 
L 199.49308 200.3479 
L 199.401851 200.346573 
L 198.80152 200.334506 
L 198.537208 200.327358 
L 198.40395 200.323328 
L 198.109625 200.313416 
L 197.628612 200.294219 
L 197.32765 200.280314 
L 197.009018 200.264002 
L 196.906328 200.258397 
L 196.445013 200.231116 
L 195.997642 200.201379 
L 195.916899 200.195667 
L 195.617011 200.17353 
L 195.072061 200.129576 
L 194.793003 200.105203 
L 194.521467 200.080272 
L 194.393989 200.068155 
L 193.989909 200.027997 
L 193.716706 199.999337 
L 193.243068 199.946762 
L 192.888613 199.905016 
L 192.743492 199.88733 
L 192.320521 199.833808 
L 191.961518 199.786071 
L 191.793062 199.762938 
L 191.531 199.72602 
L 191.039201 199.653669 
L 190.84447 199.623912 
L 190.588322 199.58381 
L 190.2555 199.53007 
L 189.887751 199.468539 
L 189.43165 199.389076 
L 189.363347 199.376876 
L 188.881711 199.288612 
L 188.55348 199.226215 
L 188.229788 199.162893 
L 188.133583 199.143729 
L 187.632861 199.041441 
L 187.228022 198.955605 
L 187.028171 198.912194 
L 186.580828 198.81253 
L 186.527701 198.800464 
L 186.177188 198.719631 
L 185.793904 198.628797 
L 185.355958 198.521867 
L 185.036641 198.441781 
L 184.925236 198.413417 
L 184.672067 198.348146 
L 184.080063 198.191083 
L 183.941358 198.153381 
L 183.520932 198.036999 
L 183.300024 197.974575 
L 183.025152 197.895672 
L 182.650006 197.785777 
L 182.403854 197.712277 
L 182.035686 197.600276 
L 181.729817 197.505334 
L 181.493727 197.430869 
L 181.055348 197.289858 
L 180.916709 197.244517 
L 180.464363 197.094075 
L 180.157389 196.989785 
L 179.971927 196.925912 
L 179.513454 196.765202 
L 179.257303 196.673659 
L 178.970451 196.569644 
L 178.475284 196.386338 
L 178.159009 196.266749 
L 178.102421 196.245145 
L 177.566356 196.03735 
L 177.393854 195.969269 
L 176.912164 195.776008 
L 176.73148 195.70231 
L 176.477012 195.597395 
L 175.985948 195.391198 
L 175.663439 195.253079 
L 175.382138 195.130848 
L 175.224242 195.061516 
L 174.959828 194.944241 
L 174.44786 194.712973 
L 174.328738 194.658363 
L 173.751672 194.389502 
L 173.489891 194.265158 
L 173.281843 194.16527 
L 173.041804 194.04884 
L 172.670041 193.866002 
L 172.208311 193.634618 
L 172.009958 193.533743 
L 171.815383 193.43392 
L 171.502978 193.271835 
L 170.932113 192.969829 
L 170.7549 192.874531 
L 170.357134 192.657927 
L 170.141632 192.539003 
L 169.773938 192.333517 
L 169.520483 192.189965 
L 169.2 192.006198 
L 169.2 262.661538 
L 169.663542 262.659814 
L 169.696237 262.659562 
L 170.096821 262.655084 
L 170.5964 262.645889 
L 170.882298 262.638823 
L 171.120771 262.631925 
L 171.471008 262.620138 
L 171.81452 262.60666 
L 172.026637 262.597389 
L 172.390273 262.579811 
L 172.499468 262.574116 
L 172.944323 262.548931 
L 173.345951 262.52345 
L 173.458239 262.51586 
L 173.892025 262.484623 
L 174.335575 262.449534 
L 174.638547 262.423732 
L 174.811228 262.40836 
L 174.998203 262.391168 
L 175.462542 262.346016 
L 175.795547 262.311471 
L 176.040932 262.284858 
L 176.538192 262.227907 
L 176.725797 262.205369 
L 177.156617 262.151425 
L 177.247466 262.13966 
L 177.563598 262.097662 
L 177.971285 262.041066 
L 178.273954 261.997271 
L 178.549961 261.956011 
L 178.827544 261.91324 
L 179.235104 261.848116 
L 179.580324 261.790785 
L 179.746656 261.76245 
L 180.150721 261.691683 
L 180.362939 261.653416 
L 180.699458 261.591179 
L 181.158887 261.503119 
L 181.343973 261.466631 
L 181.71532 261.391665 
L 182.004074 261.331746 
L 182.470374 261.231968 
L 182.569943 261.210178 
L 182.833454 261.151687 
L 183.392594 261.023598 
L 183.628967 260.967817 
L 184.038661 260.868825 
L 184.15244 260.840812 
L 184.547705 260.74173 
L 184.713367 260.699384 
L 185.112014 260.595496 
L 185.447972 260.505753 
L 185.861324 260.392574 
L 186.244103 260.285032 
L 186.476347 260.218497 
L 186.596859 260.183586 
L 187.101538 260.034525 
L 187.289392 259.977855 
L 187.657907 259.864805 
L 188.097828 259.726572 
L 188.149522 259.710094 
L 188.52848 259.587775 
L 188.821233 259.491446 
L 189.126993 259.389119 
L 189.502298 259.261106 
L 189.721373 259.185146 
L 190.271184 258.99047 
L 190.368096 258.955555 
L 190.89903 258.761043 
L 190.961048 258.737965 
L 191.502408 258.53332 
L 191.787418 258.423262 
L 192.076517 258.30998 
L 192.216143 258.254673 
L 192.740566 258.043449 
L 193.051707 257.915505 
L 193.196964 257.8551 
L 193.597215 257.686423 
L 194.016536 257.50617 
L 194.263434 257.398327 
L 194.654402 257.224945 
L 194.802856 257.158268 
L 195.254684 256.95245 
L 195.590848 256.796487 
L 195.905214 256.648429 
L 196.091495 256.559682 
L 196.355765 256.432478 
L 196.674063 256.277226 
L 197.148822 256.041474 
L 197.26488 255.983074 
L 197.684223 255.769526 
L 198.110451 255.54836 
L 198.253022 255.473447 
L 198.592837 255.292991 
L 198.927181 255.112802 
L 199.266159 254.927417 
L 199.607311 254.738071 
L 200.029158 254.500052 
L 200.236701 254.381355 
L 200.476684 254.242783 
L 200.950227 253.965148 
L 200.99271 253.939965 
L 201.605428 253.57167 
L 201.791359 253.458007 
L 201.924883 253.375828 
L 202.436741 253.05648 
L 202.756092 252.853724 
L 203.055525 252.66113 
L 203.482869 252.382045 
L 203.505691 252.366999 
L 204.095419 251.973205 
L 204.389687 251.773049 
L 204.510415 251.690219 
L 205.027766 251.330504 
L 205.260917 251.165841 
L 205.530437 250.973485 
L 205.85729 250.737292 
L 206.219927 250.471443 
L 206.316896 250.39967 
L 206.908593 249.955364 
L 207.026224 249.865716 
L 207.361382 249.607855 
L 207.86018 249.21732 
L 207.992047 249.112698 
L 208.266234 248.893293 
L 208.538182 248.673159 
L 208.857658 248.411298 
L 209.249791 248.084997 
L 209.520701 247.856368 
L 209.893929 247.537028 
L 210.088701 247.36834 
L 210.673652 246.853144 
L 210.734257 246.799018 
L 211.090694 246.477791 
L 211.420771 246.175839 
L 211.783685 245.83877 
L 212.096188 245.544172 
L 212.282876 245.366226 
L 212.72179 244.941987 
L 212.967781 244.700547 
L 213.242616 244.427609 
L 213.551065 244.117205 
L 213.994801 243.662902 
L 214.371485 243.269875 
L 214.682385 242.940243 
L 215.016809 242.580242 
L 215.377073 242.185968 
L 215.402885 242.157458 
L 215.751182 241.769254 
L 216.20834 241.249623 
L 216.466108 240.951427 
L 216.863299 240.484364 
L 216.995555 240.326754 
L 217.505524 239.708959 
L 217.881659 239.242721 
L 217.997152 239.097704 
L 218.390124 238.597541 
L 218.685836 238.214123 
L 218.881574 237.956901 
L 219.279104 237.425828 
L 219.58115 237.014291 
L 219.783064 236.73519 
L 220.086159 236.310033 
L 220.389254 235.877202 
L 220.636067 235.518879 
L 221.005231 234.972722 
L 221.046114 234.911465 
L 221.531146 234.172475 
L 221.837119 233.694245 
L 222.084976 233.299678 
L 222.331141 232.901203 
L 222.577305 232.495903 
L 222.790757 232.138737 
L 223.072537 231.65877 
L 223.449643 231.000621 
L 223.558941 230.806334 
L 223.852334 230.276595 
L 224.145727 229.734377 
L 224.233639 229.569375 
L 224.489983 229.081295 
L 224.746326 228.582451 
L 224.976805 228.124272 
L 225.283593 227.499363 
L 225.402904 227.251468 
L 225.596266 226.843651 
L 225.789627 226.428022 
L 226.036922 225.88447 
L 226.284218 225.326644 
L 226.444334 224.957397 
L 226.604451 224.581465 
L 226.765715 224.195763 
L 226.970973 223.694009 
L 227.176231 223.179383 
L 227.416602 222.559156 
L 227.589562 222.100286 
L 227.762521 221.630116 
L 227.98114 221.018457 
L 228.199758 220.385747 
L 228.357329 219.915517 
L 228.55543 219.30593 
L 228.753531 218.673931 
L 228.853823 218.344675 
L 228.954116 218.00871 
L 229.054408 217.665645 
L 229.1547 217.31505 
L 229.216199 217.09614 
L 229.317281 216.729468 
L 229.418364 216.353757 
L 229.519447 215.968354 
L 229.62053 215.572523 
L 229.728088 215.138943 
L 229.835646 214.691452 
L 229.943204 214.228702 
L 230.050763 213.749114 
L 230.107197 213.490128 
L 230.208383 213.011875 
L 230.30957 212.513986 
L 230.410756 211.993942 
L 230.46135 211.724667 
L 230.511943 211.448628 
L 230.595309 210.977616 
L 230.678676 210.484043 
L 230.72036 210.227745 
L 230.762043 209.964434 
L 230.803726 209.693516 
L 230.84541 209.41431 
L 230.90371 209.008365 
L 230.96201 208.582004 
L 230.991161 208.360155 
L 231.020311 208.131872 
L 231.049461 207.89657 
L 231.078611 207.653571 
L 231.107762 207.402078 
L 231.136912 207.141149 
L 231.166062 206.869648 
L 231.195212 206.586195 
L 231.224363 206.289078 
L 231.253513 205.97613 
L 231.282663 205.644543 
L 231.311813 205.290564 
L 231.336298 204.972177 
L 231.348541 204.8044 
L 231.360783 204.63001 
L 231.373025 204.448163 
L 231.385268 204.257816 
L 231.39751 204.057659 
L 231.409753 203.846006 
L 231.421995 203.620623 
L 231.434238 203.378443 
L 231.44648 203.115048 
L 231.452601 202.973417 
L 231.458723 202.823662 
L 231.464844 202.664204 
L 231.470965 202.492874 
L 231.477086 202.306551 
L 231.483207 202.100441 
L 231.489329 201.866479 
L 231.49545 201.588936 
L 231.501571 201.227208 
L 231.507692 200.353846 
z
" clip-path="url(#p93e36d9b3d)" style="fill: #808080; opacity: 0.5"/>
   </g>
   <g id="matplotlib.axis_1"/>
   <g id="matplotlib.axis_2"/>
   <g id="line2d_1">
    <path d="M 106.892308 200.353846 
L 107.022798 204.384235 
L 107.373265 208.08064 
L 107.961223 211.845615 
L 108.757318 215.484303 
L 109.710997 218.882393 
L 110.891825 222.317572 
L 112.353546 225.863239 
L 114.062891 229.373628 
L 115.973372 232.74481 
L 117.857607 235.655507 
L 120.175522 238.809653 
L 122.606809 241.721987 
L 125.32305 244.592537 
L 127.881939 246.991453 
L 130.919436 249.515283 
L 134.029578 251.786228 
L 136.81928 253.586707 
L 139.984034 255.387253 
L 143.515587 257.121438 
L 146.833066 258.508543 
L 150.59434 259.818776 
L 154.200514 260.829163 
L 157.842077 261.617588 
L 161.68572 262.206769 
L 165.348388 262.542379 
L 169.2 262.661538 
L 169.2 262.661538 
" clip-path="url(#p93e36d9b3d)" style="fill: none; stroke: #228b22; stroke-linecap: square"/>
   </g>
   <g id="line2d_2">
    <path d="M 169.2 262.661538 
L 172.944323 262.548931 
L 176.725797 262.205369 
L 180.362939 261.653416 
L 184.15244 260.840812 
L 187.657907 259.864805 
L 190.961048 258.737965 
L 194.654402 257.224945 
L 197.684223 255.769526 
L 200.99271 253.939965 
L 204.389687 251.773049 
L 207.361382 249.607855 
L 210.088701 247.36834 
L 212.967781 244.700547 
L 215.402885 242.157458 
L 217.881659 239.242721 
L 220.086159 236.310033 
L 222.084976 233.299678 
L 223.852334 230.276595 
L 225.596266 226.843651 
L 226.970973 223.694009 
L 228.199758 220.385747 
L 229.317281 216.729468 
L 230.208383 213.011875 
L 230.84541 209.41431 
L 231.282663 205.644543 
L 231.489329 201.866479 
L 231.507692 200.353846 
L 231.507692 200.353846 
" clip-path="url(#p93e36d9b3d)" style="fill: none; stroke: #228b22; stroke-linecap: square"/>
   </g>
   <g id="text_1">
    <!-- $\Omega$ -->
    <g transform="translate(16.011538 22.420913) scale(0.1 -0.1)">
     <defs>
      <path id="Cmr10-ad" d="M 494 0 
L 281 1063 
L 469 1063 
Q 503 878 531 736 
Q 559 594 604 536 
Q 650 478 750 459 
Q 850 441 1081 441 
L 1472 441 
Q 1378 803 1004 1386 
Q 631 1969 495 2233 
Q 359 2497 359 2913 
Q 359 3397 646 3761 
Q 934 4125 1389 4319 
Q 1844 4513 2309 4513 
Q 2772 4513 3226 4319 
Q 3681 4125 3968 3758 
Q 4256 3391 4256 2913 
Q 4256 2588 4137 2300 
Q 4019 2013 3834 1725 
Q 3650 1438 3436 1084 
Q 3222 731 3144 441 
L 3531 441 
Q 3766 441 3869 459 
Q 3972 478 4015 536 
Q 4059 594 4086 736 
Q 4113 878 4147 1063 
L 4331 1063 
L 4122 0 
L 2988 0 
Q 2925 0 2925 84 
Q 2925 409 3004 721 
Q 3084 1034 3240 1478 
Q 3397 1922 3484 2261 
Q 3572 2600 3572 2913 
Q 3572 3297 3422 3625 
Q 3272 3953 2984 4150 
Q 2697 4347 2309 4347 
Q 1725 4347 1384 3930 
Q 1044 3513 1044 2913 
Q 1047 2584 1122 2293 
Q 1197 2003 1364 1518 
Q 1531 1034 1611 721 
Q 1691 409 1691 84 
Q 1691 0 1625 0 
L 494 0 
z
" transform="scale(0.015625)"/>
     </defs>
     <use xlink:href="#Cmr10-ad" transform="translate(0 0.484375)"/>
    </g>
   </g>
   <g id="text_2">
    <!-- $A$ -->
    <g style="fill: #0000ff" transform="translate(103.142308 78.497837) scale(0.1 -0.1)">
     <defs>
      <path id="Cmmi10-41" d="M 288 0 
Q 225 0 225 84 
Q 250 225 306 225 
Q 566 225 755 328 
Q 944 431 1081 647 
Q 1094 659 1094 659 
L 3378 4513 
Q 3428 4581 3500 4581 
L 3584 4581 
Q 3603 4581 3622 4573 
Q 3641 4566 3655 4548 
Q 3669 4531 3669 4513 
L 4056 378 
Q 4056 350 4084 294 
Q 4147 225 4563 225 
Q 4628 225 4628 141 
Q 4606 56 4592 28 
Q 4578 0 4519 0 
L 2919 0 
Q 2859 0 2859 84 
Q 2894 225 2944 225 
Q 3450 225 3481 397 
L 3384 1453 
L 1806 1453 
L 1294 594 
Q 1247 525 1247 434 
Q 1247 322 1355 273 
Q 1463 225 1594 225 
Q 1656 225 1656 141 
Q 1634 50 1621 25 
Q 1609 0 1550 0 
L 288 0 
z
M 1931 1678 
L 3359 1678 
L 3169 3750 
L 1931 1678 
z
" transform="scale(0.015625)"/>
     </defs>
     <use xlink:href="#Cmmi10-41" transform="translate(0 0.421875)"/>
    </g>
   </g>
   <g id="text_3">
    <!-- $B$ -->
    <g style="fill: #ff0000" transform="translate(227.707692 78.497837) scale(0.1 -0.1)">
     <defs>
      <path id="Cmmi10-42" d="M 319 0 
Q 256 0 256 84 
Q 259 100 268 137 
Q 278 175 293 200 
Q 309 225 341 225 
Q 522 225 656 234 
Q 791 244 884 269 
Q 959 297 1006 441 
L 1881 3956 
Q 1894 4019 1894 4044 
Q 1894 4113 1819 4122 
Q 1697 4147 1356 4147 
Q 1294 4147 1294 4231 
Q 1297 4247 1306 4286 
Q 1316 4325 1333 4348 
Q 1350 4372 1375 4372 
L 3669 4372 
Q 3878 4372 4083 4320 
Q 4288 4269 4461 4156 
Q 4634 4044 4736 3876 
Q 4838 3709 4838 3488 
Q 4838 3247 4714 3040 
Q 4591 2834 4395 2681 
Q 4200 2528 3973 2429 
Q 3747 2331 3500 2284 
Q 3675 2284 3854 2215 
Q 4034 2147 4175 2028 
Q 4316 1909 4402 1743 
Q 4488 1578 4488 1388 
Q 4488 1003 4219 684 
Q 3950 366 3542 183 
Q 3134 0 2753 0 
L 319 0 
z
M 1497 275 
Q 1497 225 1716 225 
L 2631 225 
Q 2944 225 3231 398 
Q 3519 572 3692 859 
Q 3866 1147 3866 1459 
Q 3866 1650 3786 1820 
Q 3706 1991 3556 2089 
Q 3406 2188 3213 2188 
L 1966 2188 
L 1522 416 
Q 1497 328 1497 275 
z
M 2009 2356 
L 2981 2356 
Q 3288 2356 3577 2512 
Q 3866 2669 4048 2937 
Q 4231 3206 4231 3506 
Q 4231 3784 4057 3965 
Q 3884 4147 3609 4147 
L 2731 4147 
Q 2559 4147 2500 4115 
Q 2441 4084 2400 3928 
L 2009 2356 
z
" transform="scale(0.015625)"/>
     </defs>
     <use xlink:href="#Cmmi10-42" transform="translate(0 0.6875)"/>
    </g>
   </g>
   <g id="text_4">
    <!-- $C$ -->
    <g style="fill: #228b22" transform="translate(150.023077 271.651683) scale(0.1 -0.1)">
     <defs>
      <path id="Cmmi10-43" d="M 934 1381 
Q 934 997 1082 705 
Q 1231 413 1514 248 
Q 1797 84 2181 84 
Q 2584 84 2957 290 
Q 3331 497 3595 842 
Q 3859 1188 3956 1575 
Q 3969 1613 4006 1613 
L 4084 1613 
Q 4109 1613 4125 1595 
Q 4141 1578 4141 1556 
Q 4141 1550 4134 1538 
Q 4025 1094 3711 705 
Q 3397 316 2959 87 
Q 2522 -141 2059 -141 
Q 1559 -141 1162 84 
Q 766 309 545 709 
Q 325 1109 325 1613 
Q 325 2150 565 2676 
Q 806 3203 1212 3614 
Q 1619 4025 2139 4269 
Q 2659 4513 3194 4513 
Q 3406 4513 3600 4448 
Q 3794 4384 3959 4253 
Q 4125 4122 4231 3950 
L 4738 4500 
Q 4738 4513 4769 4513 
L 4806 4513 
Q 4831 4513 4847 4491 
Q 4863 4469 4863 4447 
L 4428 2719 
Q 4428 2675 4378 2675 
L 4263 2675 
Q 4213 2675 4213 2747 
Q 4238 2888 4238 3084 
Q 4238 3397 4131 3673 
Q 4025 3950 3801 4119 
Q 3578 4288 3256 4288 
Q 2734 4288 2300 4025 
Q 1866 3763 1564 3336 
Q 1263 2909 1098 2389 
Q 934 1869 934 1381 
z
" transform="scale(0.015625)"/>
     </defs>
     <use xlink:href="#Cmmi10-43" transform="translate(0 0.484375)"/>
    </g>
   </g>
   <g id="patch_6">
    <path d="M 138.046154 200.353846 
C 154.570347 200.353846 170.419977 193.788715 182.104346 182.104346 
C 193.788715 170.419977 200.353846 154.570347 200.353846 138.046154 
C 200.353846 121.521961 193.788715 105.672331 182.104346 93.987962 
C 170.419977 82.303593 154.570347 75.738462 138.046154 75.738462 
C 121.521961 75.738462 105.672331 82.303593 93.987962 93.987962 
C 82.303593 105.672331 75.738462 121.521961 75.738462 138.046154 
C 75.738462 154.570347 82.303593 170.419977 93.987962 182.104346 
C 105.672331 193.788715 121.521961 200.353846 138.046154 200.353846 
L 138.046154 200.353846 
z
" clip-path="url(#p93e36d9b3d)" style="fill: none; stroke: #0000ff; stroke-linejoin: miter"/>
   </g>
   <g id="patch_7">
    <path d="M 200.353846 200.353846 
C 216.878039 200.353846 232.727669 193.788715 244.412038 182.104346 
C 256.096407 170.419977 262.661538 154.570347 262.661538 138.046154 
C 262.661538 121.521961 256.096407 105.672331 244.412038 93.987962 
C 232.727669 82.303593 216.878039 75.738462 200.353846 75.738462 
C 183.829653 75.738462 167.980023 82.303593 156.295654 93.987962 
C 144.611285 105.672331 138.046154 121.521961 138.046154 138.046154 
C 138.046154 154.570347 144.611285 170.419977 156.295654 182.104346 
C 167.980023 193.788715 183.829653 200.353846 200.353846 200.353846 
L 200.353846 200.353846 
z
" clip-path="url(#p93e36d9b3d)" style="fill: none; stroke: #ff0000; stroke-linejoin: miter"/>
   </g>
   <g id="patch_8">
    <path d="M 169.2 262.661538 
C 185.724193 262.661538 201.573823 256.096407 213.258192 244.412038 
C 224.942561 232.727669 231.507692 216.878039 231.507692 200.353846 
C 231.507692 183.829653 224.942561 167.980023 213.258192 156.295654 
C 201.573823 144.611285 185.724193 138.046154 169.2 138.046154 
C 152.675807 138.046154 136.826177 144.611285 125.141808 156.295654 
C 113.457439 167.980023 106.892308 183.829653 106.892308 200.353846 
C 106.892308 216.878039 113.457439 232.727669 125.141808 244.412038 
C 136.826177 256.096407 152.675807 262.661538 169.2 262.661538 
L 169.2 262.661538 
z
" clip-path="url(#p93e36d9b3d)" style="fill: none; stroke: #228b22; stroke-linejoin: miter"/>
   </g>
  </g>
 </g>
 <defs>
  <clipPath id="p93e36d9b3d">
   <rect x="7.2" y="7.2" width="324" height="324"/>
  </clipPath>
 </defs>
</svg>
