<?xml version="1.0" encoding="utf-8" standalone="no"?>
<!DOCTYPE svg PUBLIC "-//W3C//DTD SVG 1.1//EN"
  "http://www.w3.org/Graphics/SVG/1.1/DTD/svg11.dtd">
<svg xmlns:xlink="http://www.w3.org/1999/xlink" width="338.4pt" height="338.4pt" viewBox="0 0 338.4 338.4" xmlns="http://www.w3.org/2000/svg" version="1.1">
 <metadata>
  <rdf:RDF xmlns:dc="http://purl.org/dc/elements/1.1/" xmlns:cc="http://creativecommons.org/ns#" xmlns:rdf="http://www.w3.org/1999/02/22-rdf-syntax-ns#">
   <cc:Work>
    <dc:type rdf:resource="http://purl.org/dc/dcmitype/StillImage"/>
    <dc:date>2025-08-24T20:29:14.238586</dc:date>
    <dc:format>image/svg+xml</dc:format>
    <dc:creator>
     <cc:Agent>
      <dc:title>Matplotlib v3.8.0, https://matplotlib.org/</dc:title>
     </cc:Agent>
    </dc:creator>
   </cc:Work>
  </rdf:RDF>
 </metadata>
 <defs>
  <style type="text/css">*{stroke-linejoin: round; stroke-linecap: butt}</style>
 </defs>
 <g id="figure_1">
  <g id="patch_1">
   <path d="M -0 338.4 
L 338.4 338.4 
L 338.4 0 
L -0 0 
z
" style="fill: #ffffff"/>
  </g>
  <g id="axes_1">
   <g id="patch_2">
    <path d="M 7.2 331.2 
L 331.2 331.2 
L 331.2 7.2 
L 7.2 7.2 
z
" style="fill: #ffffff"/>
   </g>
   <g id="patch_3">
    <path d="M 13.430769 324.969231 
L 13.430769 13.430769 
L 324.969231 13.430769 
L 324.969231 324.969231 
L 13.430769 324.969231 
z
" clip-path="url(#p948cd9afa9)" style="fill: none; stroke: #000000; stroke-linejoin: miter"/>
   </g>
   <g id="patch_4">
    <path d="M 200.353846 138.046154 
L 200.345282 139.079177 
L 200.336718 139.507019 
L 200.328154 139.835279 
L 200.31959 140.111987 
L 200.311026 140.355746 
L 200.302462 140.576098 
L 200.293898 140.778712 
L 200.285334 140.967281 
L 200.27677 141.144371 
L 200.268206 141.311849 
L 200.251078 141.623298 
L 200.23395 141.909645 
L 200.216822 142.176115 
L 200.199694 142.426338 
L 200.182566 142.662956 
L 200.165437 142.887963 
L 200.148309 143.102911 
L 200.114053 143.507324 
L 200.079797 143.883586 
L 200.049956 144.192456 
L 200.020115 144.486392 
L 199.990274 144.767354 
L 199.960433 145.036905 
L 199.90075 145.546648 
L 199.841068 146.02344 
L 199.781386 146.472877 
L 199.721704 146.899125 
L 199.662021 147.305387 
L 199.602339 147.69419 
L 199.51561 148.232149 
L 199.428881 148.742385 
L 199.342152 149.228693 
L 199.255423 149.69407 
L 199.168693 150.140933 
L 199.081964 150.571263 
L 198.995235 150.98671 
L 198.908506 151.388665 
L 198.796803 151.888377 
L 198.6851 152.369795 
L 198.574591 152.829821 
L 198.464082 153.275156 
L 198.353573 153.707053 
L 198.243063 154.126596 
L 198.132554 154.534727 
L 198.022045 154.932273 
L 197.801026 155.698455 
L 197.763061 155.826467 
L 197.611079 156.329159 
L 197.459096 156.817164 
L 197.307114 157.291599 
L 197.155131 157.753444 
L 196.977024 158.279817 
L 196.798916 158.79131 
L 196.620808 159.288998 
L 196.4427 159.77383 
L 196.262714 160.251574 
L 196.082728 160.717824 
L 195.865195 161.266985 
L 195.647663 161.801463 
L 195.460491 162.250335 
L 195.27332 162.689612 
L 195.076978 163.140647 
L 194.880637 163.582208 
L 194.487954 164.438799 
L 194.166669 165.115256 
L 193.856401 165.74931 
L 193.546133 166.365774 
L 193.496598 166.462641 
L 193.232895 166.971439 
L 192.969192 167.469077 
L 192.526467 168.280968 
L 192.155072 168.940708 
L 191.783677 169.582278 
L 191.578333 169.929603 
L 191.231829 170.504319 
L 190.885325 171.065398 
L 190.600947 171.516174 
L 190.133654 172.238856 
L 189.625003 173.001423 
L 189.214273 173.599946 
L 188.703728 174.323677 
L 188.088617 175.167582 
L 187.548771 175.884487 
L 187.321117 176.180476 
L 186.595089 177.100596 
L 186.462225 177.265187 
L 185.997477 177.83207 
L 185.225788 178.744196 
L 185.005169 178.998558 
L 184.500211 179.570474 
L 184.021256 180.100149 
L 183.597908 180.558343 
L 182.878201 181.316653 
L 182.526411 181.678198 
L 182.265613 181.942486 
L 181.613847 182.589443 
L 180.92444 183.253466 
L 180.485317 183.665952 
L 179.966953 184.142739 
L 179.909861 184.194594 
L 179.347457 184.698602 
L 178.89889 185.091902 
L 178.120058 185.757061 
L 177.887141 185.95173 
L 177.388219 186.362304 
L 176.809825 186.827568 
L 176.382553 187.164064 
L 176.008137 187.454011 
L 175.441307 187.884403 
L 175.025121 188.19398 
L 174.746097 188.398539 
L 174.044009 188.902844 
L 173.643197 189.184193 
L 173.05516 189.588544 
L 172.562876 189.919504 
L 172.266279 190.115642 
L 171.476522 190.626179 
L 171.289899 190.744369 
L 170.790993 191.055814 
L 170.176574 191.430465 
L 169.744575 191.688102 
L 169.366494 191.90973 
L 168.94686 192.151559 
L 168.294424 192.518997 
L 167.797373 192.792053 
L 167.679147 192.856137 
L 166.895471 193.272646 
L 166.397242 193.530064 
L 165.887383 193.787651 
L 165.384227 194.036138 
L 164.97174 194.235666 
L 164.666798 194.380777 
L 164.097011 194.646519 
L 163.648267 194.85091 
L 163.275702 195.017361 
L 162.878427 195.191641 
L 162.496403 195.356134 
L 161.626098 195.719672 
L 161.228905 195.880474 
L 160.965483 195.985371 
L 160.485273 196.173036 
L 159.827429 196.422729 
L 159.581337 196.51396 
L 158.965397 196.737156 
L 158.382882 196.941536 
L 158.152123 197.020712 
L 157.627728 197.196898 
L 157.167909 197.34714 
L 156.512061 197.55463 
L 156.315087 197.615396 
L 155.835984 197.760226 
L 155.406469 197.886508 
L 154.722439 198.080728 
L 154.475982 198.148644 
L 154.007747 198.274686 
L 153.401983 198.431972 
L 152.952411 198.544518 
L 152.500252 198.654136 
L 151.941999 198.78456 
L 151.639975 198.852869 
L 151.07159 198.977152 
L 150.454434 199.105822 
L 149.982256 199.199878 
L 149.846006 199.226314 
L 149.230892 199.34175 
L 148.765872 199.424783 
L 148.35143 199.495725 
L 147.666507 199.606671 
L 147.400666 199.647628 
L 146.651911 199.756683 
L 146.559312 199.769526 
L 145.907759 199.855892 
L 145.496323 199.906832 
L 144.84609 199.98168 
L 144.652507 200.002627 
L 143.895259 200.078698 
L 143.710108 200.095877 
L 143.082893 200.149936 
L 142.77833 200.173885 
L 142.304472 200.208162 
L 141.621128 200.251203 
L 141.256172 200.271103 
L 140.638175 200.299908 
L 140.425825 200.308387 
L 139.643296 200.333373 
L 139.417414 200.338755 
L 138.634407 200.351069 
L 138.342603 200.353141 
L 137.870081 200.353597 
L 137.538604 200.351779 
L 137.146202 200.347347 
L 136.621937 200.337567 
L 135.807481 200.313616 
L 135.694441 200.309449 
L 135.008275 200.279745 
L 134.6405 200.260702 
L 134.271212 200.239388 
L 133.73609 200.204595 
L 132.989768 200.14834 
L 132.670229 200.121495 
L 132.41274 200.098657 
L 132.017131 200.06147 
L 131.319735 199.989707 
L 130.767325 199.927227 
L 130.271833 199.866931 
L 130.107014 199.845981 
L 129.653937 199.786086 
L 128.901105 199.679072 
L 128.555864 199.626856 
L 128.079464 199.551549 
L 127.33777 199.426762 
L 127.050632 199.375975 
L 126.461982 199.267518 
L 126.31424 199.239378 
L 125.680311 199.114431 
L 125.332715 199.043014 
L 124.756955 198.920169 
L 124.249099 198.807077 
L 124.005191 198.751177 
L 123.104356 198.53575 
L 122.713054 198.437747 
L 122.267358 198.322834 
L 121.877065 198.219313 
L 121.258335 198.049634 
L 121.20954 198.035961 
L 120.642983 197.874058 
L 120.079946 197.707397 
L 119.512296 197.533502 
L 119.19284 197.43303 
L 118.805426 197.308645 
L 118.009126 197.044171 
L 117.812979 196.977191 
L 117.280544 196.791689 
L 116.540781 196.524932 
L 116.433749 196.48546 
L 115.947946 196.303495 
L 115.338085 196.068496 
L 114.757413 195.837875 
L 114.529612 195.745554 
L 113.738019 195.416557 
L 113.432394 195.286099 
L 113.044944 195.117933 
L 112.706893 194.968648 
L 112.21928 194.749074 
L 111.409051 194.372997 
L 110.987265 194.171594 
L 110.562019 193.964584 
L 110.196793 193.783588 
L 109.849784 193.608851 
L 109.167434 193.257276 
L 108.578515 192.945214 
L 108.273228 192.780251 
L 107.790913 192.515126 
L 107.454547 192.326925 
L 106.892308 192.006198 
L 106.892308 84.086109 
L 107.492221 83.744168 
L 107.81287 83.564991 
L 108.205408 83.349002 
L 108.834041 83.010702 
L 109.468045 82.678833 
L 109.515748 82.654237 
L 110.273548 82.270435 
L 110.686846 82.066543 
L 111.173667 81.831227 
L 111.703793 81.580868 
L 111.833898 81.520353 
L 112.536849 81.19966 
L 112.802613 81.081146 
L 113.562899 80.750266 
L 113.737289 80.67606 
L 114.217984 80.474747 
L 114.963929 80.17164 
L 115.538487 79.94578 
L 116.003734 79.767682 
L 116.351803 79.637219 
L 116.910023 79.432909 
L 117.044313 79.384657 
L 117.481395 79.230006 
L 117.995262 79.052847 
L 118.426207 78.908127 
L 119.235294 78.645816 
L 119.557552 78.544724 
L 120.028131 78.400539 
L 120.619529 78.225077 
L 120.814159 78.168722 
L 121.289167 78.034056 
L 121.919744 77.861543 
L 122.591609 77.685525 
L 122.851234 77.619645 
L 123.241129 77.522937 
L 123.935746 77.357235 
L 124.276477 77.27902 
L 124.619063 77.202405 
L 125.147584 77.088173 
L 125.60669 76.992831 
L 126.217534 76.871549 
L 126.781578 76.765179 
L 126.945527 76.735269 
L 127.580136 76.623756 
L 127.869639 76.575128 
L 128.675179 76.447182 
L 128.760951 76.434195 
L 129.593434 76.314476 
L 129.758006 76.292165 
L 130.260319 76.226826 
L 130.910489 76.148409 
L 131.364489 76.097757 
L 131.652856 76.067333 
L 132.423879 75.99264 
L 132.552246 75.981144 
L 133.419921 75.910444 
L 133.660778 75.89298 
L 134.164115 75.859513 
L 134.821488 75.821962 
L 135.013446 75.812311 
L 135.507516 75.7902 
L 136.199895 75.765821 
L 136.670111 75.753658 
L 137.122885 75.745302 
L 137.268506 75.743315 
L 137.947772 75.738539 
L 138.316664 75.739049 
L 138.786092 75.742855 
L 139.293255 75.750943 
L 139.707295 75.760609 
L 140.358545 75.781386 
L 140.88375 75.80311 
L 141.385709 75.828022 
L 141.814859 75.852542 
L 142.113221 75.87134 
L 142.46275 75.895191 
L 143.026553 75.937828 
L 143.730477 75.998293 
L 143.802474 76.004931 
L 144.622243 76.086461 
L 144.780051 76.103413 
L 145.637939 76.202696 
L 145.816827 76.224918 
L 146.554228 76.322081 
L 146.729934 76.346555 
L 147.42159 76.447861 
L 147.934417 76.528101 
L 148.148679 76.562924 
L 148.460866 76.615036 
L 149.256916 76.755312 
L 149.529928 76.805877 
L 150.259752 76.947246 
L 150.603367 77.01694 
L 151.051501 77.110865 
L 151.568814 77.223574 
L 152.076443 77.338663 
L 152.426478 77.420625 
L 152.955583 77.548572 
L 153.506266 77.68695 
L 153.818283 77.767729 
L 154.191071 77.866505 
L 154.816868 78.03789 
L 155.148186 78.131473 
L 155.751771 78.307058 
L 156.121923 78.418014 
L 156.53769 78.545636 
L 157.128638 78.732519 
L 157.547451 78.868895 
L 158.01399 79.024683 
L 158.505655 79.193309 
L 158.988662 79.363449 
L 159.358006 79.496572 
L 160.176801 79.801128 
L 160.22166 79.818193 
L 160.981864 80.113419 
L 161.331539 80.25308 
L 161.648702 80.381882 
L 162.110464 80.573051 
L 162.762855 80.850584 
L 163.064427 80.981852 
L 163.771729 81.297204 
L 164.357756 81.566528 
L 164.847605 81.797325 
L 165.166937 81.950596 
L 165.564629 82.144615 
L 166.163613 82.443483 
L 166.465722 82.597289 
L 166.962506 82.854732 
L 167.434399 83.104552 
L 167.849935 83.328851 
L 168.207382 83.525068 
L 168.941139 83.937482 
L 169.149149 84.056783 
L 169.977037 84.542255 
L 170.255203 84.709246 
L 170.863074 85.081088 
L 171.405091 85.420781 
L 171.757659 85.645935 
L 172.113893 85.876837 
L 172.443307 86.093441 
L 173.307535 86.676089 
L 173.581123 86.864961 
L 173.836263 87.04305 
L 174.50284 87.517364 
L 175.071792 87.932776 
L 175.460896 88.222609 
L 175.749701 88.440801 
L 176.204963 88.790151 
L 176.639646 89.129992 
L 177.141889 89.530465 
L 178.030094 90.259827 
L 178.478496 90.63862 
L 178.890795 90.993377 
L 179.274232 91.328982 
L 179.482791 91.513868 
L 180.310887 92.264707 
L 180.463796 92.406345 
L 181.215998 93.117176 
L 181.635162 93.523722 
L 182.14479 94.028444 
L 182.488064 94.375052 
L 182.831125 94.726933 
L 183.63507 95.573819 
L 183.907053 95.867647 
L 184.510119 96.532922 
L 184.67575 96.719052 
L 185.36589 97.511093 
L 185.732012 97.942445 
L 186.202427 98.508553 
L 186.653271 99.064149 
L 187.156442 99.699992 
L 187.484895 100.1244 
L 188.039756 100.858948 
L 188.586053 101.60487 
L 189.117875 102.354029 
L 189.607721 103.065397 
L 190.134712 103.855065 
L 190.304361 104.114925 
L 190.611512 104.592729 
L 190.918663 105.080319 
L 191.21198 105.555486 
L 191.505296 106.040395 
L 192.016509 106.910174 
L 192.408855 107.600378 
L 192.747566 108.213219 
L 193.024217 108.726176 
L 193.300867 109.250926 
L 193.617697 109.867224 
L 193.934528 110.500951 
L 194.051289 110.739134 
L 194.274842 111.202473 
L 194.498394 111.675846 
L 194.895131 112.542383 
L 195.0935 112.989241 
L 195.291868 113.445814 
L 195.491317 113.915224 
L 195.690765 114.39563 
L 195.941108 115.015244 
L 196.19145 115.654794 
L 196.452372 116.34449 
L 196.634761 116.841824 
L 196.81715 117.352713 
L 196.999539 117.878188 
L 197.181929 118.41942 
L 197.391544 119.062656 
L 197.543473 119.544329 
L 197.695402 120.040163 
L 197.847331 120.551362 
L 197.99926 121.079315 
L 198.12269 121.521676 
L 198.246119 121.977156 
L 198.369549 122.446906 
L 198.492979 122.932257 
L 198.658072 123.608568 
L 198.740619 123.959619 
L 198.823165 124.320142 
L 198.91139 124.716804 
L 198.999614 125.12624 
L 199.087839 125.549705 
L 199.176063 125.988679 
L 199.264288 126.444921 
L 199.352512 126.920555 
L 199.440737 127.418185 
L 199.528961 127.94106 
L 199.623694 128.535369 
L 199.671061 128.847276 
L 199.718427 129.17039 
L 199.765794 129.505982 
L 199.813161 129.855586 
L 199.860527 130.221081 
L 199.907894 130.604806 
L 199.963638 131.083848 
L 199.99151 131.336356 
L 200.019382 131.598865 
L 200.047254 131.872653 
L 200.075126 132.159292 
L 200.102998 132.46076 
L 200.13087 132.779604 
L 200.158742 133.119196 
L 200.186614 133.484166 
L 200.214486 133.881182 
L 200.228422 134.094693 
L 200.242358 134.320472 
L 200.256294 134.560903 
L 200.27023 134.819258 
L 200.284166 135.10025 
L 200.298102 135.41111 
L 200.312038 135.764011 
L 200.325974 136.182688 
L 200.33991 136.728411 
z
" clip-path="url(#p948cd9afa9)" style="fill: #808080; opacity: 0.5"/>
   </g>
   <g id="patch_5">
    <path d="M 75.738462 138.046154 
L 75.738462 138.046154 
L 75.744005 137.215033 
L 75.749548 136.870797 
L 75.755092 136.606674 
L 75.760635 136.384022 
L 75.766179 136.187876 
L 75.771722 136.010557 
L 75.777265 135.847507 
L 75.782809 135.695754 
L 75.788352 135.553234 
L 75.793896 135.418444 
L 75.799439 135.29025 
L 75.804982 135.16777 
L 75.810526 135.050303 
L 75.816069 134.937282 
L 75.821613 134.828237 
L 75.827156 134.722778 
L 75.838243 134.521338 
L 75.84933 134.330838 
L 75.860416 134.149671 
L 75.871503 133.976591 
L 75.88259 133.810607 
L 75.893677 133.650915 
L 75.904764 133.496852 
L 75.91585 133.347865 
L 75.927003 133.202646 
L 75.938155 133.061681 
L 75.949307 132.924619 
L 75.960459 132.791154 
L 75.982763 132.533977 
L 76.005068 132.288363 
L 76.027372 132.052889 
L 76.049676 131.826403 
L 76.071981 131.607956 
L 76.094285 131.396757 
L 76.117968 131.179691 
L 76.141651 130.969359 
L 76.165334 130.765177 
L 76.189017 130.566642 
L 76.212699 130.373316 
L 76.236382 130.184814 
L 76.260065 130.000796 
L 76.283748 129.820963 
L 76.310578 129.621948 
L 76.337409 129.42761 
L 76.364239 129.23764 
L 76.391069 129.051762 
L 76.422316 128.840119 
L 76.453562 128.633337 
L 76.48605 128.423154 
L 76.518538 128.217572 
L 76.551026 128.016308 
L 76.583515 127.819107 
L 76.616003 127.625739 
L 76.648491 127.435994 
L 76.680979 127.24968 
L 76.713467 127.066624 
L 76.767499 126.768967 
L 76.82153 126.47922 
L 76.87219 126.214218 
L 76.922851 125.955235 
L 76.973511 125.701891 
L 77.024171 125.453848 
L 77.095899 125.111126 
L 77.167627 124.777641 
L 77.241084 124.44498 
L 77.31454 124.12065 
L 77.366579 123.895617 
L 77.418617 123.674296 
L 77.470655 123.456517 
L 77.522694 123.242124 
L 77.619712 122.850971 
L 77.684783 122.594506 
L 77.749854 122.342499 
L 77.850479 121.961091 
L 77.951104 121.589135 
L 78.030452 121.30208 
L 78.1098 121.020234 
L 78.195571 120.721135 
L 78.281343 120.427531 
L 78.351139 120.19248 
L 78.420934 119.960753 
L 78.483431 119.755976 
L 78.614902 119.333195 
L 78.746372 118.920662 
L 78.802457 118.747634 
L 78.914595 118.406723 
L 79.026733 118.072259 
L 79.132293 117.763019 
L 79.237853 117.458966 
L 79.279398 117.340674 
L 79.378495 117.061533 
L 79.477592 116.786518 
L 79.590082 116.479136 
L 79.702573 116.176653 
L 79.869611 115.736103 
L 79.959147 115.504012 
L 80.121401 115.090293 
L 80.238627 114.796672 
L 80.364258 114.486709 
L 80.48989 114.181432 
L 80.668693 113.754684 
L 80.679299 113.729648 
L 80.893338 113.230751 
L 80.998153 112.990733 
L 81.122096 112.710404 
L 81.24604 112.433744 
L 81.345658 112.213958 
L 81.473516 111.935138 
L 81.609648 111.64219 
L 81.745779 111.353152 
L 81.769529 111.303117 
L 81.996221 110.831204 
L 82.222263 110.370501 
L 82.326132 110.16197 
L 82.509886 109.797764 
L 82.612613 109.596707 
L 82.796344 109.241518 
L 82.91089 109.022867 
L 83.067989 108.726367 
L 83.308517 108.279735 
L 83.371732 108.163783 
L 83.513653 107.905569 
L 83.713 107.547679 
L 83.905335 107.207537 
L 84.051856 106.951712 
L 84.165175 106.755761 
L 84.320949 106.489049 
L 84.570314 106.068302 
L 84.631812 105.965684 
L 84.850463 105.604406 
L 84.989204 105.377995 
L 85.186157 105.060259 
L 85.30173 104.875771 
L 85.417306 104.6927 
L 85.531635 104.512979 
L 85.748028 104.176484 
L 85.974017 103.83006 
L 86.121314 103.606939 
L 86.208578 103.47573 
L 86.3324 103.290778 
L 86.550821 102.967967 
L 86.763381 102.657939 
L 86.905797 102.452441 
L 87.035429 102.266907 
L 87.241285 101.975198 
L 87.331873 101.847946 
L 87.471832 101.652659 
L 87.707375 101.32755 
L 87.735502 101.28902 
L 87.909735 101.051722 
L 88.034432 100.88332 
L 88.333553 100.484127 
L 88.436898 100.347742 
L 88.576597 100.164609 
L 88.788187 99.889881 
L 88.92435 99.714745 
L 89.121385 99.463573 
L 89.221313 99.337196 
L 89.413486 99.09603 
L 89.453772 99.045783 
L 89.596121 98.869084 
L 89.872988 98.529137 
L 89.98458 98.393492 
L 90.191308 98.144246 
L 90.234056 98.093034 
L 90.424422 97.866318 
L 90.600438 97.658624 
L 90.780072 97.448543 
L 90.950466 97.250999 
L 91.146814 97.025422 
L 91.240163 96.91894 
L 91.434616 96.698686 
L 91.487152 96.639538 
L 91.697889 96.403785 
L 91.813674 96.275275 
L 92.083843 95.978179 
L 92.103072 95.95718 
L 92.276105 95.769078 
L 92.518688 95.507955 
L 92.680834 95.335075 
L 92.867543 95.137627 
L 92.996309 95.002455 
L 93.093952 94.900493 
L 93.225302 94.764059 
L 93.378091 94.606395 
L 93.631384 94.347449 
L 93.78875 94.188079 
L 93.872129 94.1041 
L 94.073926 93.902166 
L 94.146912 93.829584 
L 94.3589 93.620121 
L 94.46713 93.51395 
L 94.686439 93.300387 
L 94.910048 93.084783 
L 94.982568 93.015319 
L 95.136822 92.868307 
L 95.289768 92.723533 
L 95.387218 92.631798 
L 95.606993 92.426354 
L 95.848061 92.203276 
L 95.883727 92.170471 
L 96.130365 91.945014 
L 96.272739 91.815966 
L 96.349869 91.746388 
L 96.58949 91.531709 
L 96.663563 91.465796 
L 96.880123 91.274299 
L 96.965564 91.199236 
L 97.248042 90.953027 
L 97.353045 90.862264 
L 97.509939 90.727407 
L 97.669756 90.590964 
L 97.871139 90.420355 
L 97.980583 90.328248 
L 98.176396 90.164519 
L 98.298365 90.063222 
L 98.382205 89.993894 
L 98.660269 89.765717 
L 98.673941 89.754567 
L 98.915233 89.55884 
L 98.997242 89.492771 
L 99.233846 89.303428 
L 99.390013 89.179485 
L 99.536396 89.064044 
L 99.675716 88.95483 
L 99.837439 88.828854 
L 99.946363 88.744486 
L 100.203377 88.546934 
L 100.393243 88.402354 
L 100.454754 88.355761 
L 100.570187 88.268644 
L 100.802022 88.094946 
L 100.987694 87.957043 
L 101.054157 87.907938 
L 101.18558 87.811239 
L 101.395574 87.657827 
L 101.583488 87.52168 
L 101.792295 87.371641 
L 101.855617 87.326399 
L 102.080608 87.166609 
L 102.16032 87.110357 
L 102.360356 86.970011 
L 102.476895 86.888785 
L 102.662656 86.760127 
L 102.83466 86.641881 
L 102.97698 86.544682 
L 103.183697 86.404527 
L 103.282399 86.338032 
L 103.424663 86.242671 
L 103.642193 86.097949 
L 103.697166 86.061584 
L 103.928914 85.909195 
L 104.006338 85.858613 
L 104.16635 85.754592 
L 104.347627 85.637588 
L 104.551222 85.507235 
L 104.728413 85.39469 
L 104.88118 85.298329 
L 105.014143 85.214963 
L 105.186278 85.107726 
L 105.32685 85.020729 
L 105.503384 84.912204 
L 105.609693 84.847239 
L 105.824862 84.716642 
L 106.006214 84.60749 
L 106.135723 84.530054 
L 106.253839 84.459801 
L 106.352908 84.401148 
L 106.583033 84.265855 
L 106.768862 84.157569 
L 106.892308 84.086109 
L 106.892308 138.046154 
z
" clip-path="url(#p948cd9afa9)" style="fill: #808080; opacity: 0.5"/>
   </g>
   <g id="patch_6">
    <path d="M 75.738462 138.046154 
L 75.738462 138.046154 
L 75.744368 138.904036 
L 75.750274 139.259354 
L 75.75618 139.531979 
L 75.762086 139.761796 
L 75.767992 139.964255 
L 75.773898 140.147278 
L 75.779805 140.315574 
L 75.785711 140.472208 
L 75.791617 140.619312 
L 75.797523 140.758436 
L 75.803429 140.890752 
L 75.809335 141.01717 
L 75.815241 141.138412 
L 75.821148 141.255065 
L 75.827054 141.367614 
L 75.83296 141.476462 
L 75.844772 141.684372 
L 75.856584 141.880991 
L 75.868397 142.067974 
L 75.880209 142.246609 
L 75.892021 142.417919 
L 75.903834 142.582733 
L 75.915646 142.741737 
L 75.927458 142.895501 
L 75.938426 143.034002 
L 75.949393 143.168737 
L 75.960361 143.299995 
L 75.971329 143.428029 
L 75.993264 143.675306 
L 76.015199 143.912085 
L 76.033539 144.102895 
L 76.051879 144.28782 
L 76.070219 144.467369 
L 76.088559 144.641981 
L 76.106899 144.812039 
L 76.125239 144.977878 
L 76.143579 145.139793 
L 76.161919 145.298048 
L 76.193476 145.562456 
L 76.225034 145.817745 
L 76.256591 146.064787 
L 76.288149 146.304322 
L 76.319222 146.533464 
L 76.350296 146.75647 
L 76.381369 146.973799 
L 76.412443 147.185856 
L 76.443516 147.393 
L 76.474589 147.59555 
L 76.505663 147.793794 
L 76.536736 147.987988 
L 76.588269 148.301732 
L 76.639801 148.605906 
L 76.691334 148.901316 
L 76.742866 149.188659 
L 76.786368 149.425396 
L 76.82987 149.657145 
L 76.882401 149.930762 
L 76.934933 150.197993 
L 76.979303 150.419038 
L 77.023673 150.636046 
L 77.068043 150.849222 
L 77.112413 151.058756 
L 77.178868 151.366138 
L 77.245322 151.666261 
L 77.311776 151.959595 
L 77.37823 152.246559 
L 77.443308 152.521774 
L 77.508386 152.791566 
L 77.588283 153.115805 
L 77.69435 153.535129 
L 77.800418 153.942688 
L 77.871498 154.209671 
L 77.936636 154.450251 
L 78.001774 154.687098 
L 78.066913 154.92037 
L 78.132051 155.150213 
L 78.175761 155.30259 
L 78.244332 155.538741 
L 78.312903 155.771481 
L 78.381473 156.000942 
L 78.450044 156.227249 
L 78.551339 156.556029 
L 78.635939 156.825793 
L 78.720538 157.09136 
L 78.836855 157.449955 
L 78.980919 157.884161 
L 79.129551 158.321322 
L 79.26313 158.705405 
L 79.39671 159.081629 
L 79.560442 159.532663 
L 79.719325 159.960295 
L 79.805298 160.187772 
L 79.953953 160.574907 
L 80.072594 160.878475 
L 80.191235 161.177452 
L 80.206804 161.216354 
L 80.349161 161.5686 
L 80.491517 161.9148 
L 80.640964 162.272022 
L 80.755117 162.540758 
L 80.967517 163.031705 
L 81.023108 163.158316 
L 81.15166 163.448222 
L 81.29592 163.768897 
L 81.440181 164.084824 
L 81.595574 164.420016 
L 81.648991 164.534049 
L 81.852947 164.964029 
L 82.066269 165.4049 
L 82.084315 165.441795 
L 82.298003 165.874057 
L 82.435373 166.147571 
L 82.575616 166.423398 
L 82.740397 166.743224 
L 82.9066 167.061289 
L 83.112281 167.448844 
L 83.181663 167.578106 
L 83.418515 168.013963 
L 83.641315 168.416567 
L 83.689402 168.50255 
L 83.950846 168.964534 
L 83.990467 169.033751 
L 84.216865 169.425386 
L 84.332331 169.622628 
L 84.545364 169.982246 
L 84.704683 170.247644 
L 84.804184 170.411894 
L 84.921224 170.603647 
L 85.111049 170.911382 
L 85.310424 171.230356 
L 85.428938 171.417954 
L 85.676721 171.805465 
L 85.823568 172.032182 
L 85.960546 172.241738 
L 86.114112 172.474507 
L 86.201938 172.60662 
L 86.328339 172.795486 
L 86.540477 173.109151 
L 86.743071 173.404919 
L 86.888257 173.614653 
L 86.948142 173.70063 
L 87.119882 173.945504 
L 87.276991 174.167347 
L 87.502077 174.481642 
L 87.609817 174.630638 
L 87.76228 174.83991 
L 87.962308 175.111729 
L 88.029362 175.202163 
L 88.201549 175.432835 
L 88.348651 175.628154 
L 88.643433 176.014821 
L 88.700022 176.088338 
L 88.961339 176.424918 
L 89.122978 176.630754 
L 89.19355 176.720068 
L 89.378775 176.952899 
L 89.517245 177.125477 
L 89.625541 177.25958 
L 89.867023 177.555897 
L 89.937997 177.642287 
L 90.197799 177.955845 
L 90.263512 178.034498 
L 90.37982 178.173067 
L 90.562253 178.388783 
L 90.771393 178.633658 
L 90.932683 178.82077 
L 91.058852 178.966099 
L 91.201025 179.128783 
L 91.352577 179.300953 
L 91.546787 179.519729 
L 91.631686 179.61472 
L 91.930974 179.946497 
L 91.964319 179.983166 
L 92.180206 180.219171 
L 92.326091 180.377282 
L 92.544946 180.612438 
L 92.651033 180.725558 
L 92.822625 180.907336 
L 92.923098 181.013099 
L 93.179152 181.280407 
L 93.322507 181.428684 
L 93.401752 181.51023 
L 93.512098 181.623285 
L 93.681848 181.79609 
L 93.865108 181.981148 
L 94.097112 182.213226 
L 94.287605 182.401965 
L 94.377575 182.490544 
L 94.513846 182.624026 
L 94.619675 182.727128 
L 94.818338 182.919358 
L 94.979551 183.074103 
L 95.163612 183.249429 
L 95.34887 183.424457 
L 95.448889 183.51836 
L 95.611411 183.670064 
L 95.84007 183.881675 
L 95.972029 184.002835 
L 96.058257 184.08163 
L 96.310781 184.310689 
L 96.462848 184.447416 
L 96.599408 184.569436 
L 96.722702 184.678984 
L 96.8384 184.781254 
L 97.004605 184.927278 
L 97.119581 185.027683 
L 97.384269 185.256954 
L 97.518 185.371805 
L 97.6522 185.4864 
L 97.772555 185.588617 
L 97.903368 185.699121 
L 98.053277 185.825002 
L 98.222858 185.966438 
L 98.463661 186.165534 
L 98.577976 186.259342 
L 98.772379 186.417831 
L 98.85452 186.484407 
L 99.060373 186.650243 
L 99.275296 186.821856 
L 99.325811 186.861966 
L 99.517437 187.013352 
L 99.758865 187.202354 
L 99.775206 187.215078 
L 99.980896 187.374489 
L 100.178955 187.526693 
L 100.346697 187.654615 
L 100.429388 187.717347 
L 100.623605 187.863835 
L 100.863583 188.043204 
L 100.992151 188.138563 
L 101.1263 188.237517 
L 101.232542 188.315494 
L 101.34802 188.399858 
L 101.519814 188.524615 
L 101.699004 188.653794 
L 101.845269 188.758524 
L 101.981239 188.855311 
L 102.137149 188.965619 
L 102.348547 189.114044 
L 102.453377 189.187163 
L 102.668393 189.336139 
L 102.873545 189.47704 
L 102.900797 189.495667 
L 103.122599 189.646482 
L 103.343846 189.795534 
L 103.432822 189.855089 
L 103.638527 189.991931 
L 103.767621 190.077209 
L 103.925229 190.180701 
L 104.017741 190.241131 
L 104.223149 190.374472 
L 104.381856 190.476713 
L 104.530978 190.572161 
L 104.627111 190.633378 
L 104.892941 190.801372 
L 105.040417 190.893763 
L 105.204667 190.995991 
L 105.36771 191.09677 
L 105.543427 191.204608 
L 105.6412 191.264266 
L 105.770234 191.342622 
L 106.007515 191.485598 
L 106.038678 191.504268 
L 106.19774 191.599184 
L 106.453158 191.750261 
L 106.566144 191.816569 
L 106.759373 191.92923 
L 106.892308 192.006198 
L 106.892308 138.046154 
z
" clip-path="url(#p948cd9afa9)" style="fill: #808080; opacity: 0.5"/>
   </g>
   <g id="patch_7">
    <path d="M 231.507692 192.006198 
L 230.889368 192.358495 
L 230.529525 192.559243 
L 229.908433 192.898455 
L 229.759458 192.978462 
L 229.224028 193.261741 
L 228.691103 193.53713 
L 228.019352 193.875074 
L 227.87166 193.948018 
L 227.254259 194.247723 
L 226.902468 194.414755 
L 226.546047 194.58125 
L 225.994739 194.833416 
L 225.211194 195.180739 
L 224.811434 195.353002 
L 224.524291 195.474702 
L 223.816594 195.767449 
L 223.592395 195.858076 
L 223.199241 196.014563 
L 222.722503 196.200188 
L 222.293174 196.363513 
L 221.602476 196.618709 
L 221.094551 196.800487 
L 220.723259 196.930239 
L 220.229611 197.098694 
L 219.747685 197.258716 
L 219.287556 197.407447 
L 218.69742 197.592454 
L 218.13609 197.762486 
L 217.740586 197.878836 
L 217.541518 197.936324 
L 216.954429 198.101705 
L 216.362953 198.262074 
L 216.009687 198.354886 
L 215.742822 198.423533 
L 214.971067 198.615002 
L 214.605799 198.701989 
L 214.009517 198.839009 
L 213.487252 198.953971 
L 213.124589 199.031043 
L 212.852624 199.087362 
L 212.174458 199.222307 
L 211.990426 199.257579 
L 211.143506 199.412527 
L 210.660927 199.495422 
L 210.329915 199.550028 
L 209.750746 199.641176 
L 209.662839 199.654523 
L 208.777169 199.78185 
L 208.285235 199.846976 
L 207.91924 199.892846 
L 207.35275 199.959512 
L 207.035634 199.994537 
L 206.453778 200.054535 
L 205.969205 200.100294 
L 205.642131 200.129022 
L 205.034328 200.177801 
L 204.662219 200.204713 
L 204.355475 200.225214 
L 203.850745 200.25564 
L 203.342345 200.282135 
L 202.715278 200.309082 
L 202.443298 200.318802 
L 202.137076 200.328323 
L 201.388798 200.34525 
L 201.175238 200.348432 
L 200.36913 200.353844 
L 199.961951 200.352614 
L 199.353709 200.345819 
L 199.206768 200.343286 
L 198.540988 200.327468 
L 198.051693 200.311302 
L 197.55291 200.290859 
L 197.420248 200.284747 
L 196.819349 200.253516 
L 196.409404 200.228868 
L 195.785394 200.186139 
L 195.162609 200.137213 
L 194.898016 200.114523 
L 194.624335 200.089858 
L 194.126257 200.041844 
L 193.240344 199.94645 
L 192.829177 199.897814 
L 192.566959 199.865349 
L 191.864566 199.772815 
L 191.635098 199.740821 
L 191.119417 199.665744 
L 190.425876 199.557811 
L 190.169788 199.515931 
L 189.49207 199.399804 
L 189.085282 199.326395 
L 188.576803 199.230709 
L 188.068518 199.130679 
L 188.016487 199.120192 
L 187.440799 199.001069 
L 186.990667 198.903971 
L 186.33914 198.757244 
L 185.772612 198.623675 
L 185.418567 198.53736 
L 184.881278 198.402166 
L 184.723651 198.361538 
L 183.970143 198.161234 
L 183.519629 198.036634 
L 183.098083 197.916741 
L 182.640188 197.782866 
L 182.037051 197.600696 
L 181.80703 197.529464 
L 181.02853 197.281115 
L 180.781956 197.200102 
L 180.198952 197.00401 
L 180.033905 196.94733 
L 179.207204 196.655607 
L 179.044719 196.596727 
L 178.505564 196.397684 
L 177.789194 196.12442 
L 177.633389 196.063646 
L 177.218383 195.899407 
L 176.619309 195.656225 
L 176.048265 195.417638 
L 175.820547 195.320631 
L 175.091656 195.002894 
L 174.790262 194.868259 
L 174.329568 194.658745 
L 173.941801 194.478878 
L 173.253897 194.15178 
L 172.964445 194.011046 
L 172.519258 193.790967 
L 171.636836 193.341559 
L 171.470877 193.255053 
L 170.800982 192.899383 
L 170.361528 192.66034 
L 170.02818 192.475948 
L 169.374645 192.106653 
L 168.853127 191.804439 
L 168.805542 191.776527 
L 167.956283 191.268766 
L 167.855734 191.207429 
L 166.941975 190.637934 
L 166.904143 190.613881 
L 166.302772 190.22635 
L 165.807959 189.900086 
L 165.484856 189.68337 
L 165.034406 189.376317 
L 164.485784 188.994468 
L 163.827619 188.524697 
L 163.215929 188.076381 
L 162.875229 187.821668 
L 162.388347 187.45131 
L 162.07778 187.211093 
L 161.595616 186.83189 
L 161.210797 186.523676 
L 160.392744 185.851581 
L 160.114388 185.617517 
L 159.856076 185.397808 
L 159.334197 184.946441 
L 158.67068 184.357731 
L 158.134858 183.869789 
L 157.853798 183.609236 
L 157.261434 183.049404 
L 156.890566 182.691331 
L 156.522979 182.330503 
L 156.065471 181.872953 
L 155.359163 181.147511 
L 154.861371 180.621771 
L 154.596152 180.336601 
L 153.89607 179.566312 
L 153.347305 178.943997 
L 153.075678 178.629689 
L 152.550343 178.009558 
L 152.263361 177.663748 
L 151.628283 176.880006 
L 150.964526 176.032251 
L 150.715181 175.705833 
L 150.125943 174.91628 
L 150.019553 174.770906 
L 149.625764 174.225018 
L 149.231975 173.666412 
L 148.90082 173.186368 
L 148.393747 172.432148 
L 148.078506 171.950982 
L 147.763266 171.459914 
L 147.615556 171.226288 
L 147.202542 170.560573 
L 146.789528 169.87558 
L 146.645283 169.631575 
L 146.125187 168.730042 
L 145.733761 168.027729 
L 145.342336 167.303329 
L 144.875597 166.408319 
L 144.633977 165.930643 
L 144.392357 165.442509 
L 144.143876 164.929007 
L 143.850098 164.305913 
L 143.55632 163.664302 
L 143.333713 163.164931 
L 143.132667 162.70351 
L 142.931621 162.231616 
L 142.730575 161.748625 
L 142.529529 161.253843 
L 142.342475 160.782235 
L 142.155422 160.299063 
L 141.927145 159.69261 
L 141.758203 159.231035 
L 141.589262 158.757798 
L 141.420321 158.272081 
L 141.25138 157.772963 
L 141.03012 157.097244 
L 140.834946 156.478438 
L 140.639773 155.835981 
L 140.444599 155.167213 
L 140.249426 154.468917 
L 140.117873 153.979641 
L 139.98632 153.473735 
L 139.854766 152.949505 
L 139.723213 152.404945 
L 139.623989 151.979317 
L 139.542088 151.617394 
L 139.460186 151.245043 
L 139.378284 150.861354 
L 139.296382 150.465278 
L 139.214481 150.055588 
L 139.132579 149.63084 
L 139.050677 149.189312 
L 138.968775 148.728925 
L 138.893969 148.289785 
L 138.819162 147.830384 
L 138.744355 147.347721 
L 138.669549 146.837966 
L 138.594742 146.296097 
L 138.557339 146.011088 
L 138.519935 145.715312 
L 138.482532 145.407471 
L 138.445129 145.085984 
L 138.407725 144.748886 
L 138.370322 144.393692 
L 138.329801 143.9847 
L 138.28928 143.545075 
L 138.269019 143.311399 
L 138.248759 143.066777 
L 138.228498 142.809523 
L 138.208238 142.537467 
L 138.187977 142.247734 
L 138.167717 141.936378 
L 138.147456 141.597715 
L 138.137326 141.415598 
L 138.127196 141.223025 
L 138.117066 141.017966 
L 138.106935 140.797629 
L 138.096805 140.557998 
L 138.086675 140.292907 
L 138.076545 139.991978 
L 138.066414 139.634977 
L 138.056284 139.169667 
L 138.046154 138.046154 
L 138.046154 146.393802 
L 138.491423 146.139163 
L 139.159993 145.765876 
L 139.371573 145.649976 
L 139.878061 145.376829 
L 140.462409 145.069134 
L 140.945563 144.820655 
L 141.136544 144.7239 
L 141.872102 144.358895 
L 142.399095 144.104757 
L 142.746092 143.940733 
L 143.007315 143.818974 
L 143.713679 143.497044 
L 144.163195 143.297673 
L 144.501396 143.150459 
L 144.962966 142.95337 
L 145.416075 142.764147 
L 145.810238 142.602937 
L 146.331728 142.394458 
L 147.082328 142.103892 
L 147.386483 141.989311 
L 148.045388 141.747269 
L 148.244656 141.675723 
L 148.798823 141.480758 
L 149.3286 141.299837 
L 149.939166 141.097886 
L 150.077637 141.053056 
L 150.91236 140.790344 
L 151.328707 140.664103 
L 151.512909 140.609262 
L 151.967457 140.476572 
L 152.737676 140.260249 
L 153.099196 140.16238 
L 153.349087 140.096091 
L 154.050526 139.915928 
L 154.269393 139.861487 
L 154.790544 139.735234 
L 155.587562 139.551296 
L 156.007703 139.458757 
L 156.148335 139.428461 
L 156.960245 139.260173 
L 157.297951 139.193485 
L 157.773903 139.102782 
L 158.285058 139.009632 
L 158.819023 138.917018 
L 159.104274 138.8695 
L 159.466613 138.811099 
L 160.147441 138.707275 
L 160.652659 138.635198 
L 160.827504 138.611237 
L 161.324318 138.5459 
L 162.220569 138.43829 
L 162.515178 138.40579 
L 162.763121 138.379536 
L 163.42015 138.314811 
L 163.702365 138.289166 
L 164.193856 138.24759 
L 164.765357 138.204168 
L 165.404441 138.161867 
L 165.905405 138.133318 
L 166.442057 138.107222 
L 166.616318 138.099745 
L 167.121946 138.080817 
L 167.678243 138.06474 
L 167.948193 138.05873 
L 168.34425 138.052031 
L 169.27389 138.046198 
L 169.431076 138.046582 
L 170.122017 138.052976 
L 170.311442 138.056068 
L 171.136745 138.076262 
L 171.363483 138.083726 
L 172.050116 138.111374 
L 172.38994 138.127864 
L 172.646728 138.14156 
L 173.190897 138.174097 
L 173.91494 138.224804 
L 174.294676 138.25479 
L 174.813269 138.299517 
L 174.977136 138.314558 
L 175.794859 138.396148 
L 176.274174 138.449044 
L 176.67693 138.496397 
L 177.252334 138.568666 
L 177.614544 138.616953 
L 178.064888 138.680008 
L 178.591077 138.757936 
L 178.71465 138.776903 
L 179.148317 138.845477 
L 180.006972 138.990519 
L 180.346116 139.051215 
L 180.970133 139.167961 
L 181.366254 139.245493 
L 181.94397 139.363357 
L 182.292641 139.437253 
L 182.496438 139.481412 
L 182.972167 139.587277 
L 183.683617 139.752911 
L 184.027939 139.836239 
L 184.599185 139.97907 
L 185.010863 140.08557 
L 185.276593 140.155909 
L 185.864699 140.316055 
L 186.449857 140.481557 
L 186.860324 140.601344 
L 187.181273 140.697142 
L 187.651491 140.840898 
L 188.343468 141.059865 
L 188.740753 141.189604 
L 189.415719 141.416819 
L 189.900126 141.585204 
L 190.069677 141.6452 
L 190.758429 141.894607 
L 191.169548 142.047865 
L 191.620756 142.219878 
L 192.169788 142.434615 
L 192.676696 142.638222 
L 192.978427 142.761877 
L 193.333591 142.909801 
L 193.900895 143.151448 
L 194.611173 143.463418 
L 194.704254 143.505086 
L 195.183148 143.722366 
L 195.921743 144.067107 
L 196.338846 144.267025 
L 196.861776 144.523078 
L 197.306864 144.745819 
L 197.589809 144.889738 
L 198.17445 145.192902 
L 198.796341 145.524063 
L 199.264791 145.779522 
L 199.710609 146.027506 
L 200.056169 146.223029 
L 200.671537 146.578472 
L 200.789612 146.647749 
L 201.471011 147.054406 
L 202.081969 147.429139 
L 202.245016 147.530788 
L 203.036721 148.034397 
L 203.395391 148.268111 
L 203.649685 148.435952 
L 204.351649 148.908632 
L 204.670318 149.127827 
L 205.207163 149.503746 
L 205.661233 149.828338 
L 205.994861 150.07078 
L 206.436569 150.397 
L 207.286926 151.042239 
L 207.453099 151.171035 
L 208.101452 151.682237 
L 208.609303 152.092523 
L 209.057128 152.461698 
L 209.414604 152.761471 
L 209.693074 152.998176 
L 210.57881 153.77013 
L 210.624963 153.811167 
L 211.37687 154.491442 
L 211.595066 154.693065 
L 212.262739 155.322201 
L 212.63205 155.678287 
L 213.176878 156.21449 
L 213.672543 156.71394 
L 214.318019 157.381612 
L 214.559344 157.636421 
L 214.991308 158.099798 
L 215.457489 158.610665 
L 215.948951 159.161806 
L 216.521301 159.820613 
L 217.162161 160.580995 
L 217.617051 161.136022 
L 217.913706 161.505122 
L 218.250916 161.931767 
L 218.627444 162.417369 
L 219.003972 162.913054 
L 219.155545 163.115532 
L 219.602948 163.723376 
L 219.950784 164.206834 
L 220.29862 164.70024 
L 220.521897 165.022396 
L 220.879013 165.546833 
L 221.236128 166.083014 
L 221.794404 166.946105 
L 222.236453 167.652421 
L 222.421635 167.954678 
L 222.845622 168.661643 
L 223.374393 169.574248 
L 223.806952 170.348359 
L 224.064997 170.822835 
L 224.323042 171.307352 
L 224.741529 172.115803 
L 225.160016 172.954482 
L 225.19409 173.024185 
L 225.415123 173.48177 
L 225.636156 173.949134 
L 225.857189 174.426805 
L 226.078222 174.915364 
L 226.262365 175.331156 
L 226.627753 176.181512 
L 226.810447 176.620221 
L 226.99314 177.068626 
L 227.188443 177.559352 
L 227.383747 178.062589 
L 227.696793 178.897524 
L 227.866407 179.365726 
L 228.036022 179.846017 
L 228.269135 180.527455 
L 228.502249 181.236007 
L 228.681801 181.802192 
L 228.861353 182.388005 
L 229.040905 182.995431 
L 229.220457 183.626826 
L 229.372744 184.183212 
L 229.525031 184.760925 
L 229.677317 185.362428 
L 229.829604 185.990711 
L 229.957055 186.539765 
L 230.084505 187.112792 
L 230.211261 187.709693 
L 230.338016 188.337543 
L 230.401393 188.664622 
L 230.464771 189.001474 
L 230.528149 189.348997 
L 230.591526 189.708236 
L 230.673534 190.192489 
L 230.755541 190.701701 
L 230.837548 191.240056 
L 230.878552 191.521816 
L 230.919555 191.813062 
L 230.960559 192.114801 
L 231.001563 192.428232 
L 231.042566 192.7548 
L 231.08357 193.096279 
L 231.124574 193.454883 
L 231.165577 193.833436 
L 231.206581 194.235641 
L 231.247585 194.666513 
L 231.280098 195.033137 
L 231.312612 195.427183 
L 231.328868 195.636617 
L 231.345125 195.855851 
L 231.361382 196.086395 
L 231.377638 196.330192 
L 231.393895 196.589816 
L 231.410152 196.868804 
L 231.426409 197.172245 
L 231.442665 197.50795 
L 231.450794 197.691667 
L 231.458922 197.889067 
L 231.46705 198.103747 
L 231.475179 198.341231 
L 231.483307 198.610813 
L 231.491436 198.930619 
L 231.499564 199.34744 
L 231.507692 200.353846 
z
" clip-path="url(#p948cd9afa9)" style="fill: #808080; opacity: 0.5"/>
   </g>
   <g id="matplotlib.axis_1"/>
   <g id="matplotlib.axis_2"/>
   <g id="line2d_1">
    <path d="M 106.892308 84.086109 
L 110.273548 82.270435 
L 113.737289 80.67606 
L 117.044313 79.384657 
L 120.619529 78.225077 
L 124.276477 77.27902 
L 127.869639 76.575128 
L 131.652856 76.067333 
L 135.507516 75.7902 
L 139.293255 75.750943 
L 143.026553 75.937828 
L 146.729934 76.346555 
L 150.603367 77.01694 
L 154.191071 77.866505 
L 158.01399 79.024683 
L 161.648702 80.381882 
L 165.166937 81.950596 
L 168.207382 83.525068 
L 171.757659 85.645935 
L 174.50284 87.517364 
L 177.141889 89.530465 
L 180.310887 92.264707 
L 182.831125 94.726933 
L 185.732012 97.942445 
L 188.039756 100.858948 
L 190.304361 104.114925 
L 192.016509 106.910174 
L 193.934528 110.500951 
L 195.491317 113.915224 
L 196.81715 117.352713 
L 197.99926 121.079315 
L 198.91139 124.716804 
L 199.623694 128.535369 
L 200.075126 132.159292 
L 200.312038 135.764011 
L 200.353846 138.046154 
L 200.353846 138.046154 
" clip-path="url(#p948cd9afa9)" style="fill: none; stroke: #0000ff; stroke-linecap: square"/>
   </g>
   <g id="line2d_2">
    <path d="M 75.738462 138.046154 
L 75.871503 133.976591 
L 76.212699 130.373316 
L 76.767499 126.768967 
L 77.522694 123.242124 
L 78.483431 119.755976 
L 79.702573 116.176653 
L 81.122096 112.710404 
L 82.796344 109.241518 
L 84.631812 105.965684 
L 86.763381 102.657939 
L 88.92435 99.714745 
L 91.240163 96.91894 
L 93.872129 94.1041 
L 96.663563 91.465796 
L 99.536396 89.064044 
L 102.476895 86.888785 
L 105.609693 84.847239 
L 106.892308 84.086109 
L 106.892308 84.086109 
" clip-path="url(#p948cd9afa9)" style="fill: none; stroke: #0000ff; stroke-linecap: square"/>
   </g>
   <g id="line2d_3">
    <path d="M 75.738462 138.046154 
L 75.868397 142.067974 
L 76.225034 145.817745 
L 76.786368 149.425396 
L 77.588283 153.115805 
L 78.635939 156.825793 
L 79.805298 160.187772 
L 81.29592 163.768897 
L 82.9066 167.061289 
L 84.804184 170.411894 
L 86.888257 173.614653 
L 89.122978 176.630754 
L 91.546787 179.519729 
L 94.097112 182.213226 
L 96.8384 184.781254 
L 99.775206 187.215078 
L 102.873545 189.47704 
L 106.007515 191.485598 
L 106.892308 192.006198 
L 106.892308 192.006198 
" clip-path="url(#p948cd9afa9)" style="fill: none; stroke: #0000ff; stroke-linecap: square"/>
   </g>
   <g id="line2d_4">
    <path d="M 138.046154 146.393802 
L 141.136544 144.7239 
L 144.501396 143.150459 
L 148.045388 141.747269 
L 151.512909 140.609262 
L 154.790544 139.735234 
L 158.819023 138.917018 
L 162.515178 138.40579 
L 165.905405 138.133318 
L 169.431076 138.046582 
L 173.190897 138.174097 
L 177.252334 138.568666 
L 180.970133 139.167961 
L 184.599185 139.97907 
L 188.343468 141.059865 
L 191.620756 142.219878 
L 195.183148 143.722366 
L 198.796341 145.524063 
L 202.245016 147.530788 
L 205.661233 149.828338 
L 208.609303 152.092523 
L 211.595066 154.693065 
L 214.559344 157.636421 
L 217.162161 160.580995 
L 219.602948 163.723376 
L 221.794404 166.946105 
L 223.806952 170.348359 
L 225.415123 173.48177 
L 226.99314 177.068626 
L 228.269135 180.527455 
L 229.372744 184.183212 
L 230.211261 187.709693 
L 230.878552 191.521816 
L 231.280098 195.033137 
L 231.491436 198.930619 
L 231.507692 200.353846 
L 231.507692 200.353846 
" clip-path="url(#p948cd9afa9)" style="fill: none; stroke: #228b22; stroke-linecap: square"/>
   </g>
   <g id="line2d_5">
    <path d="M 200.353846 254.313891 
L 203.580229 252.31776 
L 206.626124 250.168842 
L 209.560282 247.822743 
L 212.387093 245.266245 
L 215.092392 242.498085 
L 217.45387 239.772275 
L 219.767339 236.757042 
L 221.805726 233.743756 
L 223.791896 230.386718 
L 225.555447 226.930378 
L 227.003467 223.61342 
L 228.342444 219.960474 
L 229.44449 216.255104 
L 230.312748 212.498006 
L 230.931115 208.810679 
L 231.334127 205.001293 
L 231.496844 201.516467 
L 231.507692 200.353846 
L 231.507692 200.353846 
" clip-path="url(#p948cd9afa9)" style="fill: none; stroke: #228b22; stroke-linecap: square"/>
   </g>
   <g id="text_1">
    <!-- $\Omega$ -->
    <g transform="translate(16.011538 22.420913) scale(0.1 -0.1)">
     <defs>
      <path id="Cmr10-ad" d="M 494 0 
L 281 1063 
L 469 1063 
Q 503 878 531 736 
Q 559 594 604 536 
Q 650 478 750 459 
Q 850 441 1081 441 
L 1472 441 
Q 1378 803 1004 1386 
Q 631 1969 495 2233 
Q 359 2497 359 2913 
Q 359 3397 646 3761 
Q 934 4125 1389 4319 
Q 1844 4513 2309 4513 
Q 2772 4513 3226 4319 
Q 3681 4125 3968 3758 
Q 4256 3391 4256 2913 
Q 4256 2588 4137 2300 
Q 4019 2013 3834 1725 
Q 3650 1438 3436 1084 
Q 3222 731 3144 441 
L 3531 441 
Q 3766 441 3869 459 
Q 3972 478 4015 536 
Q 4059 594 4086 736 
Q 4113 878 4147 1063 
L 4331 1063 
L 4122 0 
L 2988 0 
Q 2925 0 2925 84 
Q 2925 409 3004 721 
Q 3084 1034 3240 1478 
Q 3397 1922 3484 2261 
Q 3572 2600 3572 2913 
Q 3572 3297 3422 3625 
Q 3272 3953 2984 4150 
Q 2697 4347 2309 4347 
Q 1725 4347 1384 3930 
Q 1044 3513 1044 2913 
Q 1047 2584 1122 2293 
Q 1197 2003 1364 1518 
Q 1531 1034 1611 721 
Q 1691 409 1691 84 
Q 1691 0 1625 0 
L 494 0 
z
" transform="scale(0.015625)"/>
     </defs>
     <use xlink:href="#Cmr10-ad" transform="translate(0 0.484375)"/>
    </g>
   </g>
   <g id="text_2">
    <!-- $A$ -->
    <g style="fill: #0000ff" transform="translate(103.142308 78.497837) scale(0.1 -0.1)">
     <defs>
      <path id="Cmmi10-41" d="M 288 0 
Q 225 0 225 84 
Q 250 225 306 225 
Q 566 225 755 328 
Q 944 431 1081 647 
Q 1094 659 1094 659 
L 3378 4513 
Q 3428 4581 3500 4581 
L 3584 4581 
Q 3603 4581 3622 4573 
Q 3641 4566 3655 4548 
Q 3669 4531 3669 4513 
L 4056 378 
Q 4056 350 4084 294 
Q 4147 225 4563 225 
Q 4628 225 4628 141 
Q 4606 56 4592 28 
Q 4578 0 4519 0 
L 2919 0 
Q 2859 0 2859 84 
Q 2894 225 2944 225 
Q 3450 225 3481 397 
L 3384 1453 
L 1806 1453 
L 1294 594 
Q 1247 525 1247 434 
Q 1247 322 1355 273 
Q 1463 225 1594 225 
Q 1656 225 1656 141 
Q 1634 50 1621 25 
Q 1609 0 1550 0 
L 288 0 
z
M 1931 1678 
L 3359 1678 
L 3169 3750 
L 1931 1678 
z
" transform="scale(0.015625)"/>
     </defs>
     <use xlink:href="#Cmmi10-41" transform="translate(0 0.421875)"/>
    </g>
   </g>
   <g id="text_3">
    <!-- $B$ -->
    <g style="fill: #ff0000" transform="translate(227.707692 78.497837) scale(0.1 -0.1)">
     <defs>
      <path id="Cmmi10-42" d="M 319 0 
Q 256 0 256 84 
Q 259 100 268 137 
Q 278 175 293 200 
Q 309 225 341 225 
Q 522 225 656 234 
Q 791 244 884 269 
Q 959 297 1006 441 
L 1881 3956 
Q 1894 4019 1894 4044 
Q 1894 4113 1819 4122 
Q 1697 4147 1356 4147 
Q 1294 4147 1294 4231 
Q 1297 4247 1306 4286 
Q 1316 4325 1333 4348 
Q 1350 4372 1375 4372 
L 3669 4372 
Q 3878 4372 4083 4320 
Q 4288 4269 4461 4156 
Q 4634 4044 4736 3876 
Q 4838 3709 4838 3488 
Q 4838 3247 4714 3040 
Q 4591 2834 4395 2681 
Q 4200 2528 3973 2429 
Q 3747 2331 3500 2284 
Q 3675 2284 3854 2215 
Q 4034 2147 4175 2028 
Q 4316 1909 4402 1743 
Q 4488 1578 4488 1388 
Q 4488 1003 4219 684 
Q 3950 366 3542 183 
Q 3134 0 2753 0 
L 319 0 
z
M 1497 275 
Q 1497 225 1716 225 
L 2631 225 
Q 2944 225 3231 398 
Q 3519 572 3692 859 
Q 3866 1147 3866 1459 
Q 3866 1650 3786 1820 
Q 3706 1991 3556 2089 
Q 3406 2188 3213 2188 
L 1966 2188 
L 1522 416 
Q 1497 328 1497 275 
z
M 2009 2356 
L 2981 2356 
Q 3288 2356 3577 2512 
Q 3866 2669 4048 2937 
Q 4231 3206 4231 3506 
Q 4231 3784 4057 3965 
Q 3884 4147 3609 4147 
L 2731 4147 
Q 2559 4147 2500 4115 
Q 2441 4084 2400 3928 
L 2009 2356 
z
" transform="scale(0.015625)"/>
     </defs>
     <use xlink:href="#Cmmi10-42" transform="translate(0 0.6875)"/>
    </g>
   </g>
   <g id="text_4">
    <!-- $C$ -->
    <g style="fill: #228b22" transform="translate(150.023077 271.651683) scale(0.1 -0.1)">
     <defs>
      <path id="Cmmi10-43" d="M 934 1381 
Q 934 997 1082 705 
Q 1231 413 1514 248 
Q 1797 84 2181 84 
Q 2584 84 2957 290 
Q 3331 497 3595 842 
Q 3859 1188 3956 1575 
Q 3969 1613 4006 1613 
L 4084 1613 
Q 4109 1613 4125 1595 
Q 4141 1578 4141 1556 
Q 4141 1550 4134 1538 
Q 4025 1094 3711 705 
Q 3397 316 2959 87 
Q 2522 -141 2059 -141 
Q 1559 -141 1162 84 
Q 766 309 545 709 
Q 325 1109 325 1613 
Q 325 2150 565 2676 
Q 806 3203 1212 3614 
Q 1619 4025 2139 4269 
Q 2659 4513 3194 4513 
Q 3406 4513 3600 4448 
Q 3794 4384 3959 4253 
Q 4125 4122 4231 3950 
L 4738 4500 
Q 4738 4513 4769 4513 
L 4806 4513 
Q 4831 4513 4847 4491 
Q 4863 4469 4863 4447 
L 4428 2719 
Q 4428 2675 4378 2675 
L 4263 2675 
Q 4213 2675 4213 2747 
Q 4238 2888 4238 3084 
Q 4238 3397 4131 3673 
Q 4025 3950 3801 4119 
Q 3578 4288 3256 4288 
Q 2734 4288 2300 4025 
Q 1866 3763 1564 3336 
Q 1263 2909 1098 2389 
Q 934 1869 934 1381 
z
" transform="scale(0.015625)"/>
     </defs>
     <use xlink:href="#Cmmi10-43" transform="translate(0 0.484375)"/>
    </g>
   </g>
   <g id="patch_8">
    <path d="M 138.046154 200.353846 
C 154.570347 200.353846 170.419977 193.788715 182.104346 182.104346 
C 193.788715 170.419977 200.353846 154.570347 200.353846 138.046154 
C 200.353846 121.521961 193.788715 105.672331 182.104346 93.987962 
C 170.419977 82.303593 154.570347 75.738462 138.046154 75.738462 
C 121.521961 75.738462 105.672331 82.303593 93.987962 93.987962 
C 82.303593 105.672331 75.738462 121.521961 75.738462 138.046154 
C 75.738462 154.570347 82.303593 170.419977 93.987962 182.104346 
C 105.672331 193.788715 121.521961 200.353846 138.046154 200.353846 
L 138.046154 200.353846 
z
" clip-path="url(#p948cd9afa9)" style="fill: none; stroke: #0000ff; stroke-linejoin: miter"/>
   </g>
   <g id="patch_9">
    <path d="M 200.353846 200.353846 
C 216.878039 200.353846 232.727669 193.788715 244.412038 182.104346 
C 256.096407 170.419977 262.661538 154.570347 262.661538 138.046154 
C 262.661538 121.521961 256.096407 105.672331 244.412038 93.987962 
C 232.727669 82.303593 216.878039 75.738462 200.353846 75.738462 
C 183.829653 75.738462 167.980023 82.303593 156.295654 93.987962 
C 144.611285 105.672331 138.046154 121.521961 138.046154 138.046154 
C 138.046154 154.570347 144.611285 170.419977 156.295654 182.104346 
C 167.980023 193.788715 183.829653 200.353846 200.353846 200.353846 
L 200.353846 200.353846 
z
" clip-path="url(#p948cd9afa9)" style="fill: none; stroke: #ff0000; stroke-linejoin: miter"/>
   </g>
   <g id="patch_10">
    <path d="M 169.2 262.661538 
C 185.724193 262.661538 201.573823 256.096407 213.258192 244.412038 
C 224.942561 232.727669 231.507692 216.878039 231.507692 200.353846 
C 231.507692 183.829653 224.942561 167.980023 213.258192 156.295654 
C 201.573823 144.611285 185.724193 138.046154 169.2 138.046154 
C 152.675807 138.046154 136.826177 144.611285 125.141808 156.295654 
C 113.457439 167.980023 106.892308 183.829653 106.892308 200.353846 
C 106.892308 216.878039 113.457439 232.727669 125.141808 244.412038 
C 136.826177 256.096407 152.675807 262.661538 169.2 262.661538 
L 169.2 262.661538 
z
" clip-path="url(#p948cd9afa9)" style="fill: none; stroke: #228b22; stroke-linejoin: miter"/>
   </g>
  </g>
 </g>
 <defs>
  <clipPath id="p948cd9afa9">
   <rect x="7.2" y="7.2" width="324" height="324"/>
  </clipPath>
 </defs>
</svg>
