<?xml version="1.0" encoding="utf-8" standalone="no"?>
<!DOCTYPE svg PUBLIC "-//W3C//DTD SVG 1.1//EN"
  "http://www.w3.org/Graphics/SVG/1.1/DTD/svg11.dtd">
<svg xmlns:xlink="http://www.w3.org/1999/xlink" width="338.4pt" height="338.4pt" viewBox="0 0 338.4 338.4" xmlns="http://www.w3.org/2000/svg" version="1.1">
 <metadata>
  <rdf:RDF xmlns:dc="http://purl.org/dc/elements/1.1/" xmlns:cc="http://creativecommons.org/ns#" xmlns:rdf="http://www.w3.org/1999/02/22-rdf-syntax-ns#">
   <cc:Work>
    <dc:type rdf:resource="http://purl.org/dc/dcmitype/StillImage"/>
    <dc:date>2025-08-24T20:29:09.802706</dc:date>
    <dc:format>image/svg+xml</dc:format>
    <dc:creator>
     <cc:Agent>
      <dc:title>Matplotlib v3.8.0, https://matplotlib.org/</dc:title>
     </cc:Agent>
    </dc:creator>
   </cc:Work>
  </rdf:RDF>
 </metadata>
 <defs>
  <style type="text/css">*{stroke-linejoin: round; stroke-linecap: butt}</style>
 </defs>
 <g id="figure_1">
  <g id="patch_1">
   <path d="M -0 338.4 
L 338.4 338.4 
L 338.4 0 
L -0 0 
z
" style="fill: #ffffff"/>
  </g>
  <g id="axes_1">
   <g id="patch_2">
    <path d="M 7.2 331.2 
L 331.2 331.2 
L 331.2 7.2 
L 7.2 7.2 
z
" style="fill: #ffffff"/>
   </g>
   <g id="patch_3">
    <path d="M 13.430769 324.969231 
L 13.430769 13.430769 
L 324.969231 13.430769 
L 324.969231 324.969231 
L 13.430769 324.969231 
z
" clip-path="url(#pbad14c5409)" style="fill: none; stroke: #000000; stroke-linejoin: miter"/>
   </g>
   <g id="patch_4">
    <path d="M 200.353846 146.393802 
L 199.923203 146.147451 
L 199.483432 145.900543 
L 198.722044 145.484024 
L 198.681629 145.462298 
L 198.037112 145.12098 
L 197.4212 144.803757 
L 196.905864 144.544943 
L 196.726188 144.456105 
L 196.260083 144.228981 
L 195.722947 143.97316 
L 195.398011 143.821442 
L 194.785622 143.54166 
L 194.030633 143.207646 
L 193.978424 143.184989 
L 193.459121 142.962701 
L 192.958043 142.753465 
L 192.198983 142.446202 
L 191.920432 142.336344 
L 191.40148 142.135784 
L 191.03407 141.996996 
L 190.604149 141.837943 
L 190.091513 141.652967 
L 189.59185 141.477527 
L 189.102493 141.310309 
L 188.832659 141.220039 
L 188.366448 141.067289 
L 187.695866 140.854674 
L 187.227726 140.711163 
L 186.730544 140.56314 
L 186.262093 140.427779 
L 185.639287 140.253943 
L 185.094913 140.107682 
L 184.863582 140.047124 
L 184.410876 139.931352 
L 183.775684 139.774989 
L 183.286244 139.659314 
L 183.066316 139.608692 
L 182.422661 139.465344 
L 181.885228 139.351113 
L 181.502283 139.272733 
L 181.169376 139.206626 
L 180.743023 139.12471 
L 180.159628 139.0176 
L 179.55232 138.912183 
L 179.187594 138.851842 
L 178.855987 138.798908 
L 178.137482 138.690486 
L 177.902879 138.656938 
L 177.143965 138.55464 
L 176.895904 138.523258 
L 176.186885 138.439131 
L 175.991919 138.41744 
L 175.252634 138.34083 
L 174.975856 138.314439 
L 174.424377 138.265567 
L 174.267384 138.252557 
L 173.64766 138.205098 
L 173.010132 138.162758 
L 172.84736 138.153 
L 172.39038 138.127887 
L 171.677966 138.095447 
L 171.177075 138.077529 
L 170.620777 138.062355 
L 170.214836 138.054419 
L 169.683412 138.048029 
L 169.261714 138.046184 
L 168.911339 138.046823 
L 168.54506 138.049596 
L 168.107711 138.055729 
L 167.688556 138.064489 
L 166.842453 138.090771 
L 166.500249 138.104671 
L 166.06149 138.125249 
L 165.428349 138.160413 
L 164.945346 138.191587 
L 164.551587 138.219791 
L 164.198173 138.247242 
L 163.681096 138.291054 
L 163.248707 138.331023 
L 162.928755 138.362556 
L 162.494984 138.407972 
L 161.70029 138.499155 
L 161.245989 138.555932 
L 160.767573 138.619393 
L 160.459187 138.662301 
L 159.873135 138.74818 
L 159.596927 138.790631 
L 158.856784 138.91065 
L 158.417084 138.986288 
L 157.973864 139.065818 
L 157.639419 139.128022 
L 157.062223 139.239831 
L 156.836571 139.28508 
L 156.065491 139.446267 
L 155.670751 139.532732 
L 155.279501 139.621085 
L 154.992414 139.687603 
L 154.498703 139.80535 
L 154.064702 139.912376 
L 153.217667 140.130814 
L 153.131247 140.153815 
L 152.263198 140.392248 
L 152.113097 140.434849 
L 151.297377 140.673492 
L 151.07432 140.740859 
L 150.525979 140.910348 
L 150.039554 141.065349 
L 149.419451 141.269344 
L 149.248662 141.326796 
L 148.608455 141.547071 
L 148.361072 141.634279 
L 147.520557 141.939377 
L 147.420364 141.976659 
L 146.863688 142.187381 
L 146.196467 142.448009 
L 146.085558 142.492192 
L 145.401825 142.770034 
L 144.865587 142.994585 
L 144.678445 143.07434 
L 144.206282 143.278785 
L 143.430261 143.624938 
L 143.249496 143.7074 
L 142.52723 144.043884 
L 142.100386 144.248058 
L 141.664848 144.46052 
L 141.16897 144.707554 
L 140.775045 144.907742 
L 140.030867 145.295602 
L 139.720877 145.460952 
L 139.335151 145.669851 
L 138.684356 146.030334 
L 138.488805 146.140646 
L 137.703935 146.592834 
L 137.354052 146.799349 
L 136.773934 147.148595 
L 136.578949 147.26792 
L 135.984599 147.637761 
L 135.377839 148.024983 
L 135.173923 148.157346 
L 134.414262 148.660511 
L 134.192716 148.810286 
L 133.85519 149.041149 
L 133.415461 149.346834 
L 132.55465 149.961716 
L 132.071611 150.316548 
L 131.967561 150.393922 
L 131.390651 150.829089 
L 130.990769 151.136946 
L 130.380683 151.616703 
L 129.674788 152.187404 
L 129.209424 152.573072 
L 128.883651 152.84763 
L 128.39079 153.270336 
L 128.001929 153.610211 
L 127.334378 154.207143 
L 127.076852 154.442095 
L 126.397854 155.074438 
L 125.921968 155.529071 
L 125.831446 155.616646 
L 125.132656 156.304809 
L 124.550607 156.894897 
L 124.379019 157.071884 
L 124.013711 157.453405 
L 123.424557 158.082611 
L 122.765896 158.807216 
L 122.538183 159.063129 
L 121.898587 159.797406 
L 121.619661 160.125003 
L 121.189411 160.639468 
L 120.759161 161.165409 
L 120.467727 161.528416 
L 120.103486 161.99005 
L 119.694587 162.519171 
L 119.261073 163.09325 
L 118.587262 164.013795 
L 118.007865 164.834642 
L 117.714692 165.260947 
L 117.443329 165.662413 
L 117.040943 166.2704 
L 116.638557 166.89427 
L 116.209197 167.5785 
L 115.703767 168.410121 
L 115.479292 168.789086 
L 115.08883 169.463236 
L 114.698368 170.157478 
L 114.266951 170.949618 
L 113.915532 171.615786 
L 113.621891 172.187868 
L 113.32825 172.774941 
L 113.054362 173.336892 
L 112.780474 173.913619 
L 112.553796 174.402813 
L 112.327119 174.903425 
L 112.094639 175.429434 
L 111.86216 175.969002 
L 111.662466 176.444002 
L 111.462771 176.930334 
L 111.220103 177.537623 
L 110.977435 178.164177 
L 110.703167 178.897634 
L 110.428899 179.660702 
L 110.204431 180.309612 
L 109.979962 180.982845 
L 109.756476 181.679907 
L 109.613852 182.140128 
L 109.471228 182.61343 
L 109.328605 183.100889 
L 109.185981 183.603742 
L 108.986738 184.334744 
L 108.887117 184.714004 
L 108.787496 185.103342 
L 108.683407 185.521769 
L 108.579319 185.9531 
L 108.47523 186.398531 
L 108.371141 186.85946 
L 108.292334 187.219741 
L 108.213526 187.590674 
L 108.134719 187.973217 
L 108.055912 188.368481 
L 107.977104 188.777769 
L 107.898297 189.202626 
L 107.819489 189.644904 
L 107.740682 190.106859 
L 107.664251 190.576318 
L 107.587819 191.070114 
L 107.511388 191.59236 
L 107.434956 192.148488 
L 107.367125 192.676339 
L 107.33321 192.954605 
L 107.299294 193.243914 
L 107.265379 193.545675 
L 107.231463 193.861624 
L 107.197548 194.193943 
L 107.163632 194.545442 
L 107.129716 194.91984 
L 107.095801 195.322248 
L 107.078843 195.53613 
L 107.061885 195.760021 
L 107.044928 195.995464 
L 107.02797 196.244444 
L 107.011012 196.509591 
L 106.994054 196.794515 
L 106.977097 197.104415 
L 106.960139 197.447268 
L 106.943181 197.836505 
L 106.926223 198.298306 
L 106.909265 198.900261 
L 106.892308 200.353846 
L 106.892308 192.006198 
L 107.571521 192.392683 
L 107.690544 192.459254 
L 108.322107 192.806811 
L 108.875433 193.103556 
L 109.262311 193.306799 
L 109.919827 193.64434 
L 110.202648 193.786513 
L 110.660708 194.012982 
L 111.099518 194.225575 
L 111.380406 194.359442 
L 111.894935 194.600219 
L 112.655726 194.945844 
L 112.92496 195.065222 
L 113.255741 195.209813 
L 114.108465 195.57211 
L 114.244854 195.628674 
L 115.074974 195.964833 
L 115.173784 196.003925 
L 115.736966 196.223028 
L 116.279212 196.428076 
L 116.610286 196.550445 
L 117.42249 196.841672 
L 117.897393 197.006106 
L 117.938502 197.020138 
L 118.453348 197.193178 
L 119.312475 197.470878 
L 119.494855 197.528066 
L 119.972826 197.675034 
L 120.346798 197.787106 
L 120.963428 197.966342 
L 121.385738 198.085133 
L 122.126919 198.285896 
L 122.48949 198.380545 
L 122.672763 198.427503 
L 123.36908 198.600526 
L 123.633409 198.663984 
L 124.304539 198.819639 
L 124.856912 198.941904 
L 125.086753 198.991231 
L 125.496664 199.076956 
L 126.060383 199.190163 
L 126.45155 199.265544 
L 127.059109 199.377495 
L 127.381733 199.434415 
L 128.157712 199.564178 
L 128.436365 199.608321 
L 128.879815 199.675909 
L 129.310716 199.73846 
L 129.805158 199.806453 
L 130.572978 199.904057 
L 131.07402 199.962532 
L 131.125771 199.968337 
L 131.559411 200.015265 
L 132.152845 200.074514 
L 132.661321 200.120723 
L 133.151709 200.161312 
L 133.802738 200.209181 
L 134.237775 200.237349 
L 134.615793 200.259345 
L 135.262063 200.291614 
L 135.514229 200.302381 
L 135.853737 200.315262 
L 136.414247 200.332472 
L 136.810929 200.341601 
L 137.490376 200.351367 
L 138.01123 200.353836 
L 138.554513 200.351772 
L 138.859016 200.348544 
L 139.151564 200.34404 
L 139.885349 200.326696 
L 140.385006 200.309934 
L 140.749847 200.295158 
L 141.317806 200.267893 
L 141.737679 200.244395 
L 142.066154 200.224029 
L 142.39811 200.201676 
L 142.983831 200.157891 
L 143.522282 200.112735 
L 144.139668 200.055166 
L 144.246669 200.044558 
L 144.809785 199.985655 
L 145.252863 199.935667 
L 145.982433 199.846348 
L 146.401257 199.791119 
L 146.855179 199.727995 
L 147.353341 199.654796 
L 147.5694 199.621768 
L 148.071007 199.542096 
L 148.921506 199.397399 
L 149.10653 199.364313 
L 149.816331 199.23203 
L 150.02944 199.19065 
L 150.701203 199.055155 
L 150.846678 199.024799 
L 151.361383 198.914481 
L 151.781079 198.821152 
L 152.425387 198.671942 
L 152.715926 198.602296 
L 153.168607 198.490839 
L 153.759581 198.339907 
L 154.534602 198.132588 
L 154.877513 198.037436 
L 155.388986 197.891577 
L 155.671142 197.809088 
L 156.40093 197.589001 
L 156.674276 197.504051 
L 157.231072 197.326736 
L 157.471029 197.248542 
L 158.178127 197.01184 
L 158.408742 196.9326 
L 159.242875 196.637514 
L 159.464907 196.556713 
L 160.08067 196.327614 
L 160.207852 196.279372 
L 161.096034 195.933558 
L 161.433749 195.797941 
L 161.805035 195.646189 
L 162.245965 195.462333 
L 162.658698 195.286622 
L 163.390517 194.966377 
L 163.63356 194.857536 
L 163.95812 194.710239 
L 164.580948 194.421265 
L 165.330679 194.062252 
L 165.773721 193.844277 
L 166.187633 193.636672 
L 166.373598 193.54214 
L 167.215315 193.104382 
L 167.334994 193.040812 
L 167.859608 192.758186 
L 168.332642 192.497757 
L 168.667736 192.31002 
L 169.346854 191.921145 
L 169.781581 191.666217 
L 170.144924 191.449501 
L 170.869409 191.007295 
L 171.327184 190.72083 
L 171.480195 190.623843 
L 172.259833 190.119877 
L 172.628484 189.875788 
L 173.326656 189.403088 
L 173.582971 189.226063 
L 174.086707 188.872594 
L 174.420268 188.634417 
L 174.79811 188.360587 
L 175.680774 187.703821 
L 175.940314 187.506048 
L 176.514994 187.060405 
L 177.059176 186.628379 
L 177.160064 186.54719 
L 177.635034 186.160279 
L 178.310467 185.596481 
L 178.91332 185.079369 
L 179.250417 184.784331 
L 179.608146 184.466509 
L 180.341533 183.799289 
L 180.753979 183.414537 
L 181.219685 182.971589 
L 181.345143 182.850685 
L 181.995181 182.21324 
L 182.418756 181.787675 
L 182.913177 181.280385 
L 183.292824 180.882906 
L 183.686092 180.463657 
L 184.14848 179.960638 
L 184.610869 179.446345 
L 184.636985 179.416953 
L 185.449512 178.483391 
L 185.757322 178.119748 
L 186.48864 177.232555 
L 186.63785 177.047379 
L 186.989859 176.60471 
L 187.445212 176.019586 
L 187.900565 175.419757 
L 188.301605 174.878722 
L 188.643483 174.407656 
L 188.897816 174.051112 
L 189.275081 173.512273 
L 189.652345 172.961043 
L 190.228786 172.093494 
L 190.477063 171.709907 
L 190.730202 171.312346 
L 191.133483 170.664921 
L 191.536764 169.999293 
L 191.955212 169.288145 
L 192.464285 168.392743 
L 192.761094 167.854272 
L 193.057902 167.302881 
L 193.300009 166.843028 
L 193.542117 166.373643 
L 193.625394 166.2099 
L 193.899348 165.662621 
L 194.173302 165.1015 
L 194.437115 164.547248 
L 194.700929 163.978469 
L 195.067464 163.162259 
L 195.370138 162.463552 
L 195.672813 161.740387 
L 195.949311 161.056431 
L 196.22581 160.348085 
L 196.44605 159.764825 
L 196.719045 159.016142 
L 196.99204 158.236029 
L 197.225541 157.54099 
L 197.459042 156.817334 
L 197.637217 156.243782 
L 197.815392 155.649752 
L 198.000221 155.009595 
L 198.18505 154.342217 
L 198.369879 153.644125 
L 198.554708 152.910991 
L 198.646589 152.531862 
L 198.738471 152.141941 
L 198.830352 151.740305 
L 198.922233 151.325893 
L 199.060637 150.674749 
L 199.129838 150.335662 
L 199.19904 149.986548 
L 199.271008 149.611868 
L 199.342976 149.224173 
L 199.414944 148.822058 
L 199.486912 148.403844 
L 199.55888 147.967496 
L 199.630848 147.510506 
L 199.702816 147.029724 
L 199.774784 146.521101 
L 199.847167 145.976054 
L 199.883358 145.688711 
L 199.91955 145.389956 
L 199.955741 145.078333 
L 199.991932 144.75205 
L 200.028124 144.408852 
L 200.064315 144.045837 
L 200.100506 143.65916 
L 200.136698 143.243544 
L 200.154794 143.022638 
L 200.172889 142.79139 
L 200.190985 142.548208 
L 200.209081 142.29104 
L 200.227176 142.01717 
L 200.245272 141.722867 
L 200.263368 141.402762 
L 200.281463 141.048614 
L 200.299559 140.646549 
L 200.317655 140.169522 
L 200.33575 139.547711 
L 200.353846 138.046154 
z
" clip-path="url(#pbad14c5409)" style="fill: #808080; opacity: 0.5"/>
   </g>
   <g id="patch_5">
    <path d="M 231.507692 192.006198 
L 231.175815 192.196452 
L 230.614775 192.511966 
L 230.323456 192.672805 
L 229.452716 193.141565 
L 229.057081 193.348711 
L 228.897534 193.431228 
L 228.14379 193.813237 
L 227.839755 193.963712 
L 227.254463 194.247625 
L 227.030518 194.354268 
L 226.157453 194.759665 
L 225.878575 194.885724 
L 225.434255 195.083173 
L 224.854792 195.334479 
L 224.37455 195.537495 
L 224.002224 195.691646 
L 223.600534 195.854804 
L 222.888705 196.135986 
L 222.515058 196.279557 
L 222.172259 196.408859 
L 221.865922 196.522466 
L 221.167768 196.77459 
L 220.494292 197.008947 
L 220.461339 197.020193 
L 219.595883 197.30822 
L 219.527481 197.330387 
L 218.597279 197.62321 
L 218.437161 197.672006 
L 218.072508 197.781382 
L 217.623933 197.91261 
L 217.128133 198.053418 
L 216.485316 198.229409 
L 215.98057 198.362437 
L 215.389116 198.512584 
L 214.843473 198.645653 
L 214.477248 198.73205 
L 214.129384 198.811959 
L 213.481836 198.955138 
L 213.425215 198.967315 
L 212.631579 199.132206 
L 212.116354 199.233505 
L 211.610976 199.328497 
L 211.191903 199.403998 
L 210.982879 199.440552 
L 210.195947 199.571609 
L 209.929689 199.613611 
L 209.209242 199.721355 
L 208.981415 199.753638 
L 208.684309 199.794449 
L 207.810702 199.906026 
L 207.72934 199.91578 
L 207.150216 199.982071 
L 206.655901 200.034319 
L 206.196707 200.079286 
L 205.82309 200.113342 
L 205.153394 200.168717 
L 204.53454 200.213431 
L 204.181759 200.23615 
L 203.636761 200.2673 
L 203.513225 200.273695 
L 202.744254 200.307976 
L 202.248504 200.325033 
L 201.688299 200.339554 
L 201.379545 200.345403 
L 200.954631 200.35095 
L 200.664231 200.353073 
L 200.030946 200.353009 
L 199.589173 200.349154 
L 198.937565 200.337748 
L 198.69472 200.331753 
L 198.167035 200.315459 
L 197.915412 200.306113 
L 197.221246 200.275049 
L 196.681699 200.245542 
L 196.129782 200.210499 
L 195.87544 200.192694 
L 195.419733 200.158174 
L 194.902711 200.114935 
L 194.541584 200.082161 
L 193.757193 200.003661 
L 193.515463 199.977447 
L 193.184943 199.940058 
L 192.446289 199.85003 
L 191.90894 199.778901 
L 191.771301 199.759916 
L 191.261286 199.686837 
L 190.537359 199.5757 
L 190.235098 199.526715 
L 189.651722 199.427854 
L 189.049564 199.319816 
L 188.872342 199.286856 
L 188.143042 199.14562 
L 188.004895 199.117849 
L 187.338249 198.979255 
L 186.939434 198.892699 
L 186.249361 198.73645 
L 185.906992 198.655864 
L 185.352729 198.521066 
L 184.816824 198.385606 
L 184.734733 198.364408 
L 184.292441 198.248145 
L 183.48097 198.025772 
L 183.093785 197.915502 
L 182.875155 197.852039 
L 182.182601 197.645268 
L 181.642911 197.478043 
L 181.448837 197.416594 
L 180.580372 197.133024 
L 180.353017 197.056453 
L 179.661511 196.81754 
L 179.524085 196.768974 
L 178.710522 196.474016 
L 178.544403 196.412212 
L 178.059607 196.228758 
L 177.491666 196.007945 
L 176.830547 195.7428 
L 176.6785 195.680575 
L 176.320963 195.532405 
L 175.384796 195.132011 
L 174.958142 194.943489 
L 174.696475 194.825973 
L 174.326545 194.657355 
L 173.583353 194.309723 
L 173.338316 194.192477 
L 172.708499 193.885059 
L 172.555607 193.809102 
L 171.642064 193.344274 
L 171.289667 193.159873 
L 170.947331 192.977979 
L 170.359265 192.659098 
L 169.877231 192.391572 
L 169.53619 192.198906 
L 169.057379 191.923605 
L 168.672999 191.698483 
L 168.251673 191.447455 
L 167.738637 191.135669 
L 167.363341 190.903273 
L 166.677198 190.468782 
L 166.391701 190.284274 
L 165.727599 189.846458 
L 165.118634 189.434171 
L 165.045116 189.383685 
L 164.132991 188.744262 
L 163.681728 188.418808 
L 163.62102 188.374556 
L 162.978709 187.899415 
L 162.456955 187.503955 
L 162.218016 187.31995 
L 161.365262 186.647993 
L 161.180869 186.499496 
L 160.759835 186.156057 
L 159.970871 185.495747 
L 159.690429 185.255634 
L 159.140185 184.776044 
L 158.88319 184.548124 
L 158.304842 184.02582 
L 157.586577 183.358506 
L 157.512574 183.288545 
L 156.790711 182.593901 
L 156.305588 182.114277 
L 156.007402 181.814194 
L 155.212932 180.994336 
L 154.875858 180.637245 
L 154.263519 179.973833 
L 154.206084 179.910609 
L 153.783167 179.439636 
L 153.360249 178.95887 
L 152.964424 178.499722 
L 152.575673 178.039837 
L 152.237994 177.632936 
L 151.617668 176.866683 
L 151.10758 176.217527 
L 150.66082 175.634073 
L 150.243952 175.076506 
L 149.915255 174.627529 
L 149.288086 173.746807 
L 148.952715 173.262234 
L 148.427182 172.482618 
L 148.023801 171.866487 
L 147.600624 171.202542 
L 147.294575 170.710542 
L 146.988526 170.208106 
L 146.685902 169.700542 
L 146.337397 169.102099 
L 145.988892 168.487906 
L 145.752089 168.061094 
L 145.37515 167.364944 
L 144.998211 166.64689 
L 144.622109 165.906914 
L 144.384184 165.425807 
L 144.102557 164.842442 
L 143.820931 164.243063 
L 143.546328 163.642139 
L 143.271726 163.023745 
L 142.957581 162.293159 
L 142.643436 161.535663 
L 142.449747 161.054063 
L 142.256059 160.560497 
L 141.995249 159.875553 
L 141.729243 159.15076 
L 141.463237 158.396698 
L 141.276157 157.847041 
L 141.089076 157.279864 
L 140.942087 156.820908 
L 140.795098 156.349268 
L 140.648108 155.863936 
L 140.501119 155.363761 
L 140.318811 154.720779 
L 140.136504 154.04991 
L 139.954197 153.347489 
L 139.863043 152.983063 
L 139.771889 152.60895 
L 139.656808 152.121598 
L 139.541727 151.615778 
L 139.426646 151.089344 
L 139.311565 150.53969 
L 139.209681 150.031128 
L 139.107797 149.499101 
L 139.020669 149.022945 
L 138.933541 148.52445 
L 138.846414 148.000261 
L 138.759286 147.446082 
L 138.715722 147.156046 
L 138.672158 146.856253 
L 138.628594 146.545669 
L 138.58503 146.223064 
L 138.541466 145.886956 
L 138.497902 145.535527 
L 138.454338 145.166507 
L 138.410774 144.777005 
L 138.365197 144.343443 
L 138.319619 143.87738 
L 138.29683 143.629639 
L 138.274042 143.370286 
L 138.251253 143.097532 
L 138.228464 142.809075 
L 138.205675 142.501867 
L 138.182886 142.17172 
L 138.160098 141.812608 
L 138.148703 141.619489 
L 138.137309 141.415281 
L 138.125915 141.197828 
L 138.11452 140.964171 
L 138.103126 140.710048 
L 138.091731 140.428922 
L 138.080337 140.109786 
L 138.068943 139.73118 
L 138.057548 139.237702 
L 138.046154 138.046154 
L 138.046154 146.393802 
L 138.656232 146.046142 
L 138.897756 145.911009 
L 139.530922 145.563388 
L 140.059373 145.28051 
L 140.36461 145.120081 
L 140.968511 144.808985 
L 141.114226 144.735164 
L 141.912343 144.339274 
L 142.445161 144.082831 
L 142.924778 143.857287 
L 143.05747 143.795764 
L 143.468211 143.607714 
L 144.363444 143.21022 
L 144.85459 142.999252 
L 145.065845 142.910038 
L 145.698619 142.648269 
L 146.164367 142.460771 
L 146.657731 142.266889 
L 146.852836 142.191549 
L 147.67366 141.882783 
L 147.847095 141.819224 
L 148.46518 141.597436 
L 148.851892 141.462395 
L 149.317053 141.303724 
L 150.009791 141.074976 
L 150.040551 141.065027 
L 150.757591 140.838083 
L 151.151455 140.71746 
L 151.589024 140.586781 
L 152.118945 140.433181 
L 152.516879 140.321172 
L 153.290037 140.111655 
L 153.645001 140.019026 
L 153.823552 139.973275 
L 154.617494 139.776631 
L 154.990979 139.687939 
L 155.214133 139.636105 
L 155.694545 139.527444 
L 156.471653 139.360095 
L 156.747177 139.303246 
L 157.532357 139.148335 
L 158.004808 139.060158 
L 158.012953 139.058671 
L 158.897256 138.90385 
L 159.201305 138.853646 
L 159.819033 138.756395 
L 160.15494 138.706175 
L 160.585139 138.644587 
L 161.098129 138.575143 
L 161.56802 138.515336 
L 161.841325 138.482218 
L 162.356355 138.423135 
L 163.020994 138.353294 
L 163.523455 138.305274 
L 163.848182 138.276422 
L 164.117289 138.253809 
L 164.908022 138.194153 
L 165.331347 138.166371 
L 165.749847 138.14175 
L 166.251915 138.115937 
L 166.921729 138.08782 
L 167.230134 138.0773 
L 167.621947 138.066141 
L 167.945567 138.058783 
L 168.361423 138.051797 
L 168.808924 138.047381 
L 169.637031 138.047687 
L 169.973956 138.050961 
L 170.652412 138.063084 
L 170.889703 138.069069 
L 171.175058 138.077465 
L 171.985518 138.108449 
L 172.242627 138.120487 
L 172.885753 138.155263 
L 173.414232 138.188834 
L 173.830382 138.218445 
L 174.194473 138.24665 
L 174.450484 138.267769 
L 175.161905 138.332042 
L 175.402719 138.355662 
L 176.217089 138.442547 
L 176.532521 138.479113 
L 177.251904 138.56861 
L 177.552016 138.608463 
L 178.116553 138.687457 
L 178.370877 138.724766 
L 178.986439 138.819513 
L 179.303928 138.870847 
L 180.052044 138.998474 
L 180.14997 139.015875 
L 180.807049 139.136815 
L 181.074472 139.188125 
L 181.673158 139.307398 
L 182.049731 139.385552 
L 182.552841 139.493759 
L 183.289967 139.660178 
L 183.692022 139.75492 
L 184.17485 139.872424 
L 184.317147 139.907834 
L 185.144755 140.120854 
L 185.623229 140.249553 
L 185.866584 140.316578 
L 186.55396 140.511649 
L 187.078369 140.666222 
L 187.221906 140.709405 
L 187.948038 140.933651 
L 188.173754 141.00534 
L 188.551644 141.12748 
L 189.327796 141.386734 
L 189.646037 141.496323 
L 190.357036 141.748144 
L 190.516502 141.805958 
L 190.953107 141.966769 
L 191.762989 142.274934 
L 191.85128 142.309311 
L 192.703206 142.649012 
L 193.18946 142.849461 
L 193.379765 142.929222 
L 193.841319 143.125759 
L 194.563346 143.442079 
L 194.70786 143.506704 
L 195.509636 143.873305 
L 195.777932 143.999059 
L 196.304544 144.25044 
L 196.539063 144.364346 
L 197.128968 144.656259 
L 197.856367 145.026989 
L 198.053438 145.129507 
L 198.606517 145.422022 
L 199.140997 145.711507 
L 199.597162 145.963948 
L 199.976036 146.177429 
L 200.55875 146.512623 
L 200.77944 146.641767 
L 201.472209 147.055131 
L 201.917606 147.327374 
L 202.420752 147.641133 
L 202.826399 147.898972 
L 203.371254 148.252273 
L 203.932574 148.624775 
L 204.43991 148.96905 
L 204.910358 149.294872 
L 205.271409 149.549299 
L 205.868539 149.978587 
L 206.319052 150.309621 
L 206.770377 150.647556 
L 207.227687 150.996542 
L 207.608137 151.292012 
L 207.790714 151.435492 
L 208.684472 152.154002 
L 209.053498 152.458677 
L 209.625904 152.940823 
L 209.739205 153.037661 
L 210.168664 153.409016 
L 210.633409 153.818686 
L 211.245375 154.37086 
L 211.877455 154.956893 
L 212.277373 155.3362 
L 212.721555 155.765476 
L 213.282713 156.32019 
L 213.518428 156.557437 
L 214.014672 157.065353 
L 214.529287 157.604527 
L 214.909358 158.01116 
L 215.404067 158.55154 
L 216.175493 159.420345 
L 216.539756 159.842169 
L 216.849219 160.206611 
L 217.288464 160.733798 
L 217.921155 161.514464 
L 218.336255 162.040964 
L 218.608972 162.393314 
L 219.216258 163.197117 
L 219.88636 164.116553 
L 220.273517 164.664291 
L 220.567729 165.089063 
L 220.99642 165.721789 
L 221.589468 166.625636 
L 221.94932 167.19125 
L 222.309171 167.770653 
L 222.56833 168.196889 
L 222.866245 168.696578 
L 223.164161 169.207131 
L 223.670683 170.101686 
L 223.901009 170.520172 
L 224.257941 171.184142 
L 224.614873 171.868054 
L 224.762477 172.157043 
L 225.176233 172.987629 
L 225.589273 173.84916 
L 226.002314 174.746314 
L 226.180974 175.146364 
L 226.443996 175.749508 
L 226.707018 176.370699 
L 226.905267 176.851703 
L 227.103515 177.344468 
L 227.301763 177.849766 
L 227.500011 178.36846 
L 227.687291 178.871637 
L 227.874571 179.388559 
L 228.152037 180.181938 
L 228.29077 180.592028 
L 228.429503 181.011806 
L 228.458628 181.101224 
L 228.630755 181.639309 
L 228.802881 182.194962 
L 228.975007 182.769848 
L 229.147134 183.365919 
L 229.266834 183.794136 
L 229.386534 184.234612 
L 229.506233 184.688383 
L 229.625933 185.156639 
L 229.783291 185.796601 
L 229.940648 186.467804 
L 230.019327 186.816565 
L 230.098006 187.175022 
L 230.176685 187.543988 
L 230.255363 187.9244 
L 230.347641 188.386619 
L 230.439919 188.868164 
L 230.532196 189.371577 
L 230.624474 189.900017 
L 230.701698 190.364371 
L 230.778923 190.852018 
L 230.856148 191.366747 
L 230.933373 191.913513 
L 230.971985 192.200909 
L 231.010597 192.499003 
L 231.04921 192.809062 
L 231.087822 193.132628 
L 231.126435 193.471606 
L 231.165047 193.828398 
L 231.203659 194.206102 
L 231.242272 194.608844 
L 231.275449 194.979172 
L 231.308627 195.377201 
L 231.325216 195.588754 
L 231.341804 195.810206 
L 231.358393 196.043083 
L 231.374982 196.289349 
L 231.391571 196.551604 
L 231.40816 196.83342 
L 231.424748 197.139937 
L 231.433043 197.304763 
L 231.441337 197.479047 
L 231.449632 197.664628 
L 231.457926 197.864031 
L 231.46622 198.080891 
L 231.474515 198.320785 
L 231.482809 198.593105 
L 231.491104 198.916159 
L 231.499398 199.337214 
L 231.507692 200.353846 
z
" clip-path="url(#pbad14c5409)" style="fill: #808080; opacity: 0.5"/>
   </g>
   <g id="matplotlib.axis_1"/>
   <g id="matplotlib.axis_2"/>
   <g id="line2d_1">
    <path d="M 106.892308 192.006198 
L 110.202648 193.786513 
L 113.255741 195.209813 
L 116.610286 196.550445 
L 120.346798 197.787106 
L 123.633409 198.663984 
L 127.381733 199.434415 
L 131.125771 199.968337 
L 134.615793 200.259345 
L 138.554513 200.351772 
L 142.39811 200.201676 
L 146.401257 199.791119 
L 150.02944 199.19065 
L 153.759581 198.339907 
L 157.471029 197.248542 
L 161.096034 195.933558 
L 164.580948 194.421265 
L 167.859608 192.758186 
L 170.869409 191.007295 
L 174.086707 188.872594 
L 177.160064 186.54719 
L 179.608146 184.466509 
L 182.418756 181.787675 
L 184.636985 179.416953 
L 186.989859 176.60471 
L 189.275081 173.512273 
L 191.133483 170.664921 
L 193.057902 167.302881 
L 194.700929 163.978469 
L 196.22581 160.348085 
L 197.459042 156.817334 
L 198.369879 153.644125 
L 199.19904 149.986548 
L 199.774784 146.521101 
L 200.190985 142.548208 
L 200.33575 139.547711 
L 200.353846 138.046154 
L 200.353846 138.046154 
" clip-path="url(#pbad14c5409)" style="fill: none; stroke: #0000ff; stroke-linecap: square"/>
   </g>
   <g id="line2d_2">
    <path d="M 138.046154 146.393802 
L 141.114226 144.735164 
L 144.85459 142.999252 
L 147.847095 141.819224 
L 151.589024 140.586781 
L 155.214133 139.636105 
L 158.897256 138.90385 
L 162.356355 138.423135 
L 166.251915 138.115937 
L 169.973956 138.050961 
L 173.830382 138.218445 
L 177.552016 138.608463 
L 181.074472 139.188125 
L 184.317147 139.907834 
L 188.173754 141.00534 
L 191.85128 142.309311 
L 195.509636 143.873305 
L 198.606517 145.422022 
L 201.917606 147.327374 
L 205.271409 149.549299 
L 207.790714 151.435492 
L 210.633409 153.818686 
L 213.518428 156.557437 
L 216.175493 159.420345 
L 218.608972 162.393314 
L 220.99642 165.721789 
L 223.164161 169.207131 
L 224.762477 172.157043 
L 226.443996 175.749508 
L 227.874571 179.388559 
L 228.975007 182.769848 
L 229.940648 186.467804 
L 230.624474 189.900017 
L 231.126435 193.471606 
L 231.433043 197.304763 
L 231.507692 200.353846 
L 231.507692 200.353846 
" clip-path="url(#pbad14c5409)" style="fill: none; stroke: #228b22; stroke-linecap: square"/>
   </g>
   <g id="line2d_3">
    <path d="M 200.353846 254.313891 
L 203.461733 252.395965 
L 206.444645 250.304671 
L 209.251644 248.083442 
L 212.103815 245.536931 
L 214.755921 242.86157 
L 217.225263 240.050478 
L 219.395171 237.268523 
L 221.617135 234.039043 
L 223.562184 230.800545 
L 225.224199 227.621733 
L 226.761401 224.206175 
L 228.126806 220.599342 
L 229.222166 217.074733 
L 230.134406 213.36333 
L 230.809368 209.656229 
L 231.250177 206.012831 
L 231.477598 202.290168 
L 231.507692 200.353846 
L 231.507692 200.353846 
" clip-path="url(#pbad14c5409)" style="fill: none; stroke: #228b22; stroke-linecap: square"/>
   </g>
   <g id="text_1">
    <!-- $\Omega$ -->
    <g transform="translate(16.011538 22.420913) scale(0.1 -0.1)">
     <defs>
      <path id="Cmr10-ad" d="M 494 0 
L 281 1063 
L 469 1063 
Q 503 878 531 736 
Q 559 594 604 536 
Q 650 478 750 459 
Q 850 441 1081 441 
L 1472 441 
Q 1378 803 1004 1386 
Q 631 1969 495 2233 
Q 359 2497 359 2913 
Q 359 3397 646 3761 
Q 934 4125 1389 4319 
Q 1844 4513 2309 4513 
Q 2772 4513 3226 4319 
Q 3681 4125 3968 3758 
Q 4256 3391 4256 2913 
Q 4256 2588 4137 2300 
Q 4019 2013 3834 1725 
Q 3650 1438 3436 1084 
Q 3222 731 3144 441 
L 3531 441 
Q 3766 441 3869 459 
Q 3972 478 4015 536 
Q 4059 594 4086 736 
Q 4113 878 4147 1063 
L 4331 1063 
L 4122 0 
L 2988 0 
Q 2925 0 2925 84 
Q 2925 409 3004 721 
Q 3084 1034 3240 1478 
Q 3397 1922 3484 2261 
Q 3572 2600 3572 2913 
Q 3572 3297 3422 3625 
Q 3272 3953 2984 4150 
Q 2697 4347 2309 4347 
Q 1725 4347 1384 3930 
Q 1044 3513 1044 2913 
Q 1047 2584 1122 2293 
Q 1197 2003 1364 1518 
Q 1531 1034 1611 721 
Q 1691 409 1691 84 
Q 1691 0 1625 0 
L 494 0 
z
" transform="scale(0.015625)"/>
     </defs>
     <use xlink:href="#Cmr10-ad" transform="translate(0 0.484375)"/>
    </g>
   </g>
   <g id="text_2">
    <!-- $A$ -->
    <g style="fill: #0000ff" transform="translate(103.142308 78.497837) scale(0.1 -0.1)">
     <defs>
      <path id="Cmmi10-41" d="M 288 0 
Q 225 0 225 84 
Q 250 225 306 225 
Q 566 225 755 328 
Q 944 431 1081 647 
Q 1094 659 1094 659 
L 3378 4513 
Q 3428 4581 3500 4581 
L 3584 4581 
Q 3603 4581 3622 4573 
Q 3641 4566 3655 4548 
Q 3669 4531 3669 4513 
L 4056 378 
Q 4056 350 4084 294 
Q 4147 225 4563 225 
Q 4628 225 4628 141 
Q 4606 56 4592 28 
Q 4578 0 4519 0 
L 2919 0 
Q 2859 0 2859 84 
Q 2894 225 2944 225 
Q 3450 225 3481 397 
L 3384 1453 
L 1806 1453 
L 1294 594 
Q 1247 525 1247 434 
Q 1247 322 1355 273 
Q 1463 225 1594 225 
Q 1656 225 1656 141 
Q 1634 50 1621 25 
Q 1609 0 1550 0 
L 288 0 
z
M 1931 1678 
L 3359 1678 
L 3169 3750 
L 1931 1678 
z
" transform="scale(0.015625)"/>
     </defs>
     <use xlink:href="#Cmmi10-41" transform="translate(0 0.421875)"/>
    </g>
   </g>
   <g id="text_3">
    <!-- $B$ -->
    <g style="fill: #ff0000" transform="translate(227.707692 78.497837) scale(0.1 -0.1)">
     <defs>
      <path id="Cmmi10-42" d="M 319 0 
Q 256 0 256 84 
Q 259 100 268 137 
Q 278 175 293 200 
Q 309 225 341 225 
Q 522 225 656 234 
Q 791 244 884 269 
Q 959 297 1006 441 
L 1881 3956 
Q 1894 4019 1894 4044 
Q 1894 4113 1819 4122 
Q 1697 4147 1356 4147 
Q 1294 4147 1294 4231 
Q 1297 4247 1306 4286 
Q 1316 4325 1333 4348 
Q 1350 4372 1375 4372 
L 3669 4372 
Q 3878 4372 4083 4320 
Q 4288 4269 4461 4156 
Q 4634 4044 4736 3876 
Q 4838 3709 4838 3488 
Q 4838 3247 4714 3040 
Q 4591 2834 4395 2681 
Q 4200 2528 3973 2429 
Q 3747 2331 3500 2284 
Q 3675 2284 3854 2215 
Q 4034 2147 4175 2028 
Q 4316 1909 4402 1743 
Q 4488 1578 4488 1388 
Q 4488 1003 4219 684 
Q 3950 366 3542 183 
Q 3134 0 2753 0 
L 319 0 
z
M 1497 275 
Q 1497 225 1716 225 
L 2631 225 
Q 2944 225 3231 398 
Q 3519 572 3692 859 
Q 3866 1147 3866 1459 
Q 3866 1650 3786 1820 
Q 3706 1991 3556 2089 
Q 3406 2188 3213 2188 
L 1966 2188 
L 1522 416 
Q 1497 328 1497 275 
z
M 2009 2356 
L 2981 2356 
Q 3288 2356 3577 2512 
Q 3866 2669 4048 2937 
Q 4231 3206 4231 3506 
Q 4231 3784 4057 3965 
Q 3884 4147 3609 4147 
L 2731 4147 
Q 2559 4147 2500 4115 
Q 2441 4084 2400 3928 
L 2009 2356 
z
" transform="scale(0.015625)"/>
     </defs>
     <use xlink:href="#Cmmi10-42" transform="translate(0 0.6875)"/>
    </g>
   </g>
   <g id="text_4">
    <!-- $C$ -->
    <g style="fill: #228b22" transform="translate(150.023077 271.651683) scale(0.1 -0.1)">
     <defs>
      <path id="Cmmi10-43" d="M 934 1381 
Q 934 997 1082 705 
Q 1231 413 1514 248 
Q 1797 84 2181 84 
Q 2584 84 2957 290 
Q 3331 497 3595 842 
Q 3859 1188 3956 1575 
Q 3969 1613 4006 1613 
L 4084 1613 
Q 4109 1613 4125 1595 
Q 4141 1578 4141 1556 
Q 4141 1550 4134 1538 
Q 4025 1094 3711 705 
Q 3397 316 2959 87 
Q 2522 -141 2059 -141 
Q 1559 -141 1162 84 
Q 766 309 545 709 
Q 325 1109 325 1613 
Q 325 2150 565 2676 
Q 806 3203 1212 3614 
Q 1619 4025 2139 4269 
Q 2659 4513 3194 4513 
Q 3406 4513 3600 4448 
Q 3794 4384 3959 4253 
Q 4125 4122 4231 3950 
L 4738 4500 
Q 4738 4513 4769 4513 
L 4806 4513 
Q 4831 4513 4847 4491 
Q 4863 4469 4863 4447 
L 4428 2719 
Q 4428 2675 4378 2675 
L 4263 2675 
Q 4213 2675 4213 2747 
Q 4238 2888 4238 3084 
Q 4238 3397 4131 3673 
Q 4025 3950 3801 4119 
Q 3578 4288 3256 4288 
Q 2734 4288 2300 4025 
Q 1866 3763 1564 3336 
Q 1263 2909 1098 2389 
Q 934 1869 934 1381 
z
" transform="scale(0.015625)"/>
     </defs>
     <use xlink:href="#Cmmi10-43" transform="translate(0 0.484375)"/>
    </g>
   </g>
   <g id="patch_6">
    <path d="M 138.046154 200.353846 
C 154.570347 200.353846 170.419977 193.788715 182.104346 182.104346 
C 193.788715 170.419977 200.353846 154.570347 200.353846 138.046154 
C 200.353846 121.521961 193.788715 105.672331 182.104346 93.987962 
C 170.419977 82.303593 154.570347 75.738462 138.046154 75.738462 
C 121.521961 75.738462 105.672331 82.303593 93.987962 93.987962 
C 82.303593 105.672331 75.738462 121.521961 75.738462 138.046154 
C 75.738462 154.570347 82.303593 170.419977 93.987962 182.104346 
C 105.672331 193.788715 121.521961 200.353846 138.046154 200.353846 
L 138.046154 200.353846 
z
" clip-path="url(#pbad14c5409)" style="fill: none; stroke: #0000ff; stroke-linejoin: miter"/>
   </g>
   <g id="patch_7">
    <path d="M 200.353846 200.353846 
C 216.878039 200.353846 232.727669 193.788715 244.412038 182.104346 
C 256.096407 170.419977 262.661538 154.570347 262.661538 138.046154 
C 262.661538 121.521961 256.096407 105.672331 244.412038 93.987962 
C 232.727669 82.303593 216.878039 75.738462 200.353846 75.738462 
C 183.829653 75.738462 167.980023 82.303593 156.295654 93.987962 
C 144.611285 105.672331 138.046154 121.521961 138.046154 138.046154 
C 138.046154 154.570347 144.611285 170.419977 156.295654 182.104346 
C 167.980023 193.788715 183.829653 200.353846 200.353846 200.353846 
L 200.353846 200.353846 
z
" clip-path="url(#pbad14c5409)" style="fill: none; stroke: #ff0000; stroke-linejoin: miter"/>
   </g>
   <g id="patch_8">
    <path d="M 169.2 262.661538 
C 185.724193 262.661538 201.573823 256.096407 213.258192 244.412038 
C 224.942561 232.727669 231.507692 216.878039 231.507692 200.353846 
C 231.507692 183.829653 224.942561 167.980023 213.258192 156.295654 
C 201.573823 144.611285 185.724193 138.046154 169.2 138.046154 
C 152.675807 138.046154 136.826177 144.611285 125.141808 156.295654 
C 113.457439 167.980023 106.892308 183.829653 106.892308 200.353846 
C 106.892308 216.878039 113.457439 232.727669 125.141808 244.412038 
C 136.826177 256.096407 152.675807 262.661538 169.2 262.661538 
L 169.2 262.661538 
z
" clip-path="url(#pbad14c5409)" style="fill: none; stroke: #228b22; stroke-linejoin: miter"/>
   </g>
  </g>
 </g>
 <defs>
  <clipPath id="pbad14c5409">
   <rect x="7.2" y="7.2" width="324" height="324"/>
  </clipPath>
 </defs>
</svg>
