<?xml version="1.0" encoding="utf-8" standalone="no"?>
<!DOCTYPE svg PUBLIC "-//W3C//DTD SVG 1.1//EN"
  "http://www.w3.org/Graphics/SVG/1.1/DTD/svg11.dtd">
<!-- Created with matplotlib (https://matplotlib.org/) -->
<svg height="338.4pt" version="1.1" viewBox="0 0 338.4 338.4" width="338.4pt" xmlns="http://www.w3.org/2000/svg" xmlns:xlink="http://www.w3.org/1999/xlink">
 <metadata>
  <rdf:RDF xmlns:cc="http://creativecommons.org/ns#" xmlns:dc="http://purl.org/dc/elements/1.1/" xmlns:rdf="http://www.w3.org/1999/02/22-rdf-syntax-ns#">
   <cc:Work>
    <dc:type rdf:resource="http://purl.org/dc/dcmitype/StillImage"/>
    <dc:date>2021-08-17T15:45:24.610839</dc:date>
    <dc:format>image/svg+xml</dc:format>
    <dc:creator>
     <cc:Agent>
      <dc:title>Matplotlib v3.3.4, https://matplotlib.org/</dc:title>
     </cc:Agent>
    </dc:creator>
   </cc:Work>
  </rdf:RDF>
 </metadata>
 <defs>
  <style type="text/css">*{stroke-linecap:butt;stroke-linejoin:round;}</style>
 </defs>
 <g id="figure_1">
  <g id="patch_1">
   <path d="M -0 338.4 
L 338.4 338.4 
L 338.4 0 
L -0 0 
z
" style="fill:#ffffff;"/>
  </g>
  <g id="axes_1">
   <g id="patch_2">
    <path d="M 7.2 331.2 
L 331.2 331.2 
L 331.2 7.2 
L 7.2 7.2 
z
" style="fill:#ffffff;"/>
   </g>
   <g id="patch_3">
    <path clip-path="url(#p5ef1d06352)" d="M 13.430769 324.969231 
L 13.430769 13.430769 
L 324.969231 13.430769 
L 324.969231 324.969231 
z
" style="fill:none;stroke:#000000;stroke-linejoin:miter;"/>
   </g>
   <g id="patch_4">
    <path clip-path="url(#p5ef1d06352)" d="M 200.353846 146.393802 
L 199.702726 146.023079 
L 199.36371 145.834133 
L 199.0729 145.674249 
L 198.355309 145.288281 
L 198.039113 145.122025 
L 197.313008 144.748925 
L 197.095016 144.639247 
L 196.548226 144.368821 
L 196.136295 144.169466 
L 195.670946 143.948726 
L 195.393698 143.819444 
L 194.904166 143.595196 
L 194.217554 143.289229 
L 193.87982 143.142352 
L 193.250044 142.874773 
L 193.010231 142.775018 
L 192.260411 142.470636 
L 191.885482 142.32267 
L 191.593457 142.209357 
L 191.025277 141.993707 
L 190.276411 141.7191 
L 190.03238 141.631955 
L 189.548024 141.462366 
L 188.926568 141.251299 
L 188.521724 141.117713 
L 188.074848 140.97381 
L 187.522577 140.801082 
L 187.241752 140.715405 
L 186.796344 140.582472 
L 186.061886 140.371138 
L 185.687351 140.267111 
L 185.151429 140.122621 
L 185.040487 140.093349 
L 184.191223 139.876481 
L 183.847513 139.792316 
L 183.471812 139.70268 
L 183.178285 139.634359 
L 182.470111 139.475667 
L 182.016477 139.378553 
L 181.396138 139.251451 
L 181.067193 139.186712 
L 180.62771 139.103083 
L 180.295922 139.04211 
L 179.793309 138.953273 
L 179.021886 138.825161 
L 178.767491 138.785091 
L 178.34679 138.721186 
L 178.010036 138.672149 
L 177.281504 138.572475 
L 176.891232 138.522677 
L 176.352263 138.458017 
L 176.148199 138.434778 
L 175.315981 138.347046 
L 174.840738 138.302008 
L 174.328449 138.25757 
L 173.963223 138.228487 
L 173.530161 138.196801 
L 172.964307 138.159968 
L 172.54357 138.13593 
L 172.407554 138.12877 
L 171.850628 138.102559 
L 171.219059 138.078876 
L 170.556586 138.060924 
L 170.177813 138.053827 
L 169.912908 138.050232 
L 169.520165 138.046976 
L 168.672136 138.04839 
L 168.222986 138.053814 
L 167.960038 138.058493 
L 167.573581 138.067385 
L 166.988153 138.085425 
L 166.598372 138.100492 
L 166.122676 138.122193 
L 165.530644 138.154293 
L 164.955296 138.190907 
L 164.548262 138.22004 
L 164.084821 138.256475 
L 163.496632 138.307733 
L 163.42397 138.314455 
L 162.713669 138.384692 
L 162.249665 138.435017 
L 162.029911 138.46008 
L 161.162672 138.566713 
L 160.708468 138.627495 
L 160.340709 138.679204 
L 160.162784 138.705024 
L 159.537342 138.799955 
L 159.061624 138.876518 
L 158.55051 138.962993 
L 158.147423 139.034281 
L 157.633134 139.129209 
L 157.265119 139.199884 
L 156.559235 139.341884 
L 156.11574 139.435453 
L 155.796029 139.505 
L 155.479953 139.575488 
L 154.858364 139.719153 
L 154.259082 139.864033 
L 153.813398 139.975862 
L 153.359034 140.093475 
L 152.934646 140.206637 
L 152.484174 140.33027 
L 151.765625 140.535027 
L 151.477354 140.6198 
L 150.968927 140.773006 
L 150.394902 140.951685 
L 150.300133 140.981769 
L 149.564515 141.220977 
L 149.258711 141.323401 
L 148.723392 141.506951 
L 148.355551 141.636238 
L 147.968679 141.775014 
L 147.050355 142.116043 
L 147.005653 142.133064 
L 146.169988 142.458535 
L 145.865098 142.580748 
L 145.402075 142.769931 
L 145.012911 142.932306 
L 144.526557 143.139602 
L 143.838312 143.44134 
L 143.592404 143.551561 
L 142.971636 143.835518 
L 142.618338 144.000818 
L 142.344984 144.130571 
L 141.566609 144.509023 
L 141.007994 144.788935 
L 140.793261 144.898407 
L 140.180066 145.216817 
L 139.857633 145.387729 
L 139.183327 145.753041 
L 138.615742 146.068934 
L 138.335042 146.22804 
L 137.813829 146.528603 
L 137.42609 146.756578 
L 137.062251 146.973947 
L 136.301462 147.439437 
L 135.945875 147.66218 
L 135.726788 147.801086 
L 135.156394 148.168777 
L 134.748153 148.437386 
L 134.045467 148.910602 
L 133.617317 149.205814 
L 133.195487 149.501869 
L 132.81686 149.772074 
L 132.315271 150.136665 
L 131.610401 150.662091 
L 131.318323 150.88439 
L 130.816531 151.272711 
L 130.365324 151.628941 
L 129.993085 151.927961 
L 129.428075 152.390918 
L 128.994921 152.753424 
L 128.364594 153.293054 
L 127.881714 153.716439 
L 127.480144 154.075319 
L 126.874808 154.628288 
L 126.681396 154.80808 
L 126.300033 155.167107 
L 125.866775 155.582426 
L 125.091332 156.346188 
L 124.832926 156.606718 
L 124.13603 157.324936 
L 123.954699 157.515648 
L 123.130107 158.403715 
L 122.760607 158.813128 
L 122.268439 159.369982 
L 121.906368 159.788332 
L 121.248992 160.56755 
L 121.210191 160.61436 
L 120.810276 161.102309 
L 120.410361 161.600528 
L 120.169453 161.905778 
L 119.44875 162.843026 
L 119.237003 163.125531 
L 118.761692 163.772081 
L 118.40797 164.264815 
L 118.054248 164.767886 
L 117.820027 165.106904 
L 117.31139 165.860069 
L 116.958754 166.39651 
L 116.590815 166.969387 
L 116.222876 167.556395 
L 116.04781 167.840876 
L 115.745336 168.340607 
L 115.442863 168.851168 
L 115.070631 169.495136 
L 114.6984 170.15742 
L 114.487647 170.540981 
L 114.15885 171.152471 
L 113.75072 171.935086 
L 113.342591 172.745906 
L 113.187873 173.06117 
L 112.844204 173.778052 
L 112.500536 174.519387 
L 112.277977 175.013526 
L 112.055418 175.519489 
L 111.793904 176.130125 
L 111.532389 176.759457 
L 111.358501 177.189011 
L 111.184613 177.628014 
L 110.888107 178.399994 
L 110.5916 179.204285 
L 110.367421 179.836143 
L 110.143242 180.490618 
L 109.8963 181.240507 
L 109.674861 181.94172 
L 109.453423 182.67349 
L 109.287957 183.242574 
L 109.122492 183.832905 
L 108.957026 184.446847 
L 108.791561 185.087249 
L 108.68469 185.516535 
L 108.57782 185.959411 
L 108.470949 186.417172 
L 108.364079 186.891336 
L 108.276924 187.291406 
L 108.18977 187.704723 
L 108.102615 188.13263 
L 108.015461 188.57672 
L 107.928307 189.038895 
L 107.841152 189.521472 
L 107.753998 190.02731 
L 107.666843 190.560013 
L 107.584688 191.09092 
L 107.502532 191.654942 
L 107.461454 191.95144 
L 107.420376 192.258998 
L 107.379298 192.57893 
L 107.33822 192.912832 
L 107.282481 193.391852 
L 107.254611 193.644349 
L 107.226742 193.906847 
L 107.198872 194.180622 
L 107.171003 194.467248 
L 107.143133 194.768703 
L 107.115264 195.087533 
L 107.087394 195.427109 
L 107.059525 195.792063 
L 107.031655 196.189061 
L 107.017721 196.402563 
L 107.003786 196.628332 
L 106.989851 196.868752 
L 106.975916 197.127095 
L 106.961981 197.408074 
L 106.948047 197.71892 
L 106.934112 198.071806 
L 106.920177 198.490464 
L 106.906242 199.036162 
L 106.892308 200.353846 
L 106.892308 84.086109 
L 107.301542 83.851898 
L 107.962433 83.482262 
L 108.076312 83.41963 
L 108.66835 83.098969 
L 109.306142 82.7627 
L 109.481085 82.672104 
L 110.122051 82.346127 
L 110.671588 82.074003 
L 111.074271 81.878849 
L 111.517291 81.668251 
L 112.013977 81.437194 
L 112.685574 81.133154 
L 113.050052 80.972137 
L 113.398249 80.820903 
L 113.857898 80.625105 
L 114.209653 80.478196 
L 114.8024 80.236324 
L 115.152687 80.096713 
L 115.942183 79.791 
L 116.131659 79.719458 
L 116.548332 79.5646 
L 117.302293 79.292935 
L 117.778061 79.127117 
L 118.374181 78.925413 
L 118.738807 78.805333 
L 119.155766 78.67106 
L 119.734902 78.489907 
L 119.829335 78.460954 
L 120.576755 78.237554 
L 120.855522 78.156833 
L 121.396561 78.004172 
L 121.977426 77.846116 
L 122.396327 77.735861 
L 123.059462 77.567665 
L 123.103006 77.556892 
L 123.907505 77.363808 
L 124.351976 77.261962 
L 124.773269 77.16858 
L 125.22753 77.071311 
L 125.779428 76.95789 
L 126.114742 76.891514 
L 126.570082 76.804434 
L 126.901896 76.743185 
L 127.675139 76.607643 
L 127.878939 76.573589 
L 128.328305 76.500951 
L 128.758683 76.434536 
L 129.448289 76.334524 
L 130.064448 76.25181 
L 130.250108 76.228113 
L 131.038895 76.133741 
L 131.455177 76.088043 
L 131.794458 76.05289 
L 132.024683 76.030104 
L 132.523335 75.98371 
L 133.38741 75.912873 
L 133.764572 75.885744 
L 134.312643 75.850419 
L 134.743923 75.82603 
L 135.160201 75.805333 
L 135.554578 75.788298 
L 136.085145 75.769329 
L 136.448259 75.758954 
L 136.958209 75.74796 
L 137.378668 75.742037 
L 137.732763 75.73925 
L 138.211397 75.738681 
L 139.026988 75.746182 
L 139.404714 75.753274 
L 139.776784 75.762501 
L 140.376275 75.782047 
L 140.616122 75.791485 
L 140.975844 75.807376 
L 141.516524 75.835182 
L 142.126043 75.87218 
L 142.817929 75.921451 
L 142.991493 75.935027 
L 143.445624 75.972857 
L 143.923614 76.01629 
L 144.686241 76.093287 
L 144.736941 76.098742 
L 145.203889 76.150957 
L 145.840762 76.227932 
L 146.258616 76.282054 
L 146.979465 76.38219 
L 147.397639 76.44422 
L 147.935279 76.52824 
L 148.300472 76.588059 
L 148.765548 76.667468 
L 149.178968 76.741105 
L 149.602048 76.819445 
L 149.866542 76.869958 
L 150.46031 76.98768 
L 151.176427 77.137661 
L 151.571657 77.224206 
L 151.998767 77.320763 
L 152.447868 77.425702 
L 152.823918 77.516275 
L 153.411856 77.662847 
L 154.009779 77.81816 
L 154.379602 77.9174 
L 154.972185 78.081514 
L 155.249951 78.160614 
L 155.718407 78.297179 
L 156.214597 78.446186 
L 156.826574 78.636185 
L 157.230971 78.765539 
L 157.409979 78.82377 
L 158.144723 79.069073 
L 158.432592 79.167961 
L 159.132542 79.414995 
L 159.436795 79.525311 
L 159.924503 79.70589 
L 160.514451 79.930544 
L 160.905863 80.083388 
L 161.404406 80.282493 
L 162.048339 80.547079 
L 162.250767 80.631999 
L 162.642134 80.798566 
L 163.028781 80.966237 
L 163.670632 81.251483 
L 164.097467 81.445998 
L 164.54389 81.653615 
L 165.003201 81.871728 
L 165.692317 82.207653 
L 166.006509 82.364316 
L 166.683432 82.709414 
L 166.890066 82.816838 
L 167.353309 83.061254 
L 168.069352 83.448937 
L 168.353784 83.606315 
L 168.950582 83.942874 
L 169.376952 84.18866 
L 169.755324 84.410559 
L 170.299069 84.735761 
L 170.86208 85.080472 
L 171.457249 85.453881 
L 171.756866 85.645425 
L 172.367372 86.043245 
L 172.627769 86.216043 
L 173.005308 86.469938 
L 173.759189 86.989052 
L 174.206732 87.305036 
L 174.358498 87.413534 
L 174.998858 87.878971 
L 175.291701 88.096001 
L 175.807405 88.484713 
L 176.532814 89.045894 
L 176.734905 89.2053 
L 177.483752 89.807949 
L 177.780575 90.052151 
L 178.420029 90.588818 
L 178.914041 91.013566 
L 179.382875 91.425085 
L 179.504488 91.533198 
L 180.332601 92.284763 
L 180.773193 92.695866 
L 181.016886 92.926705 
L 181.614567 93.503569 
L 182.098497 93.982114 
L 182.341645 94.226546 
L 183.092371 94.998659 
L 183.619653 95.557276 
L 184.066631 96.041818 
L 184.168335 96.153518 
L 184.717266 96.765943 
L 185.527464 97.700476 
L 185.850138 98.083326 
L 186.170988 98.470292 
L 186.595086 98.991708 
L 186.982592 99.478376 
L 187.41545 100.034036 
L 187.848308 100.602944 
L 188.169538 101.034063 
L 188.72527 101.79873 
L 189.082163 102.302983 
L 189.333468 102.664521 
L 189.660271 103.142981 
L 189.987073 103.631195 
L 190.525229 104.457537 
L 191.014559 105.234623 
L 191.305087 105.708335 
L 191.695387 106.360064 
L 192.085687 107.030394 
L 192.445214 107.66539 
L 192.72718 108.17587 
L 193.009147 108.697936 
L 193.132301 108.929752 
L 193.383665 109.410366 
L 193.63503 109.901431 
L 193.952795 110.538047 
L 194.270561 111.193509 
L 194.65181 112.006796 
L 194.954913 112.67606 
L 195.258015 113.367186 
L 195.441322 113.796553 
L 195.786489 114.630299 
L 195.959072 115.060453 
L 196.131655 115.500133 
L 196.342081 116.049939 
L 196.552506 116.615911 
L 196.712975 117.05919 
L 196.873444 117.51329 
L 197.033912 117.978945 
L 197.194381 118.456981 
L 197.302659 118.786996 
L 197.519299 119.466768 
L 197.735938 120.175 
L 197.952578 120.915222 
L 198.060898 121.298647 
L 198.169218 121.691777 
L 198.356333 122.39589 
L 198.52035 123.042149 
L 198.684366 123.719404 
L 198.766374 124.071055 
L 198.848382 124.43228 
L 198.93039 124.803863 
L 199.012398 125.186701 
L 199.126306 125.739102 
L 199.240214 126.318599 
L 199.354121 126.929426 
L 199.411075 127.24824 
L 199.468029 127.577067 
L 199.548124 128.058351 
L 199.628219 128.564708 
L 199.708313 129.100395 
L 199.748361 129.380926 
L 199.788408 129.671039 
L 199.859088 130.20972 
L 199.894428 130.493702 
L 199.929768 130.78896 
L 199.965108 131.096931 
L 200.000447 131.419388 
L 200.035787 131.758558 
L 200.071127 132.117309 
L 200.106467 132.499439 
L 200.141807 132.910164 
L 200.159477 133.128469 
L 200.177147 133.356992 
L 200.194817 133.597309 
L 200.212487 133.851445 
L 200.230157 134.122084 
L 200.247827 134.412913 
L 200.265496 134.729239 
L 200.283166 135.079205 
L 200.300836 135.476518 
L 200.318506 135.947906 
L 200.336176 136.562364 
L 200.353846 138.046154 
z
" style="fill:#808080;opacity:0.5;"/>
   </g>
   <g id="patch_5">
    <path clip-path="url(#p5ef1d06352)" d="M 75.738462 138.046154 
L 75.738462 138.046154 
L 75.741702 137.410733 
L 75.744942 137.147545 
L 75.748182 136.945601 
L 75.751422 136.775362 
L 75.754662 136.625383 
L 75.757902 136.489798 
L 75.761142 136.365119 
L 75.764383 136.249076 
L 75.767623 136.140089 
L 75.770863 136.037012 
L 75.774103 135.938975 
L 75.777343 135.845306 
L 75.780583 135.755468 
L 75.783823 135.669028 
L 75.790304 135.504966 
L 75.796784 135.350887 
L 75.803264 135.205167 
L 75.809744 135.066579 
L 75.816225 134.934171 
L 75.822705 134.807183 
L 75.829185 134.685003 
L 75.835665 134.567122 
L 75.842146 134.453119 
L 75.848618 134.342762 
L 75.855091 134.235611 
L 75.868036 134.029907 
L 75.880982 133.834277 
L 75.893927 133.647377 
L 75.906872 133.468138 
L 75.919818 133.295691 
L 75.932763 133.129323 
L 75.945709 132.968437 
L 75.958654 132.812525 
L 75.971599 132.661157 
L 75.984545 132.513959 
L 75.99749 132.370608 
L 76.010435 132.230817 
L 76.023381 132.094337 
L 76.049271 131.830442 
L 76.069901 131.628005 
L 76.090531 131.431825 
L 76.111161 131.241361 
L 76.131791 131.056146 
L 76.153884 130.863159 
L 76.175976 130.67529 
L 76.198069 130.492157 
L 76.220161 130.313422 
L 76.242254 130.138788 
L 76.264346 129.967989 
L 76.286439 129.800786 
L 76.308531 129.636965 
L 76.348264 129.350244 
L 76.387996 129.072855 
L 76.427728 128.803959 
L 76.467461 128.542834 
L 76.494578 128.368754 
L 76.521696 128.197826 
L 76.57593 127.864791 
L 76.630165 127.54259 
L 76.6844 127.230255 
L 76.747548 126.87792 
L 76.810696 126.536712 
L 76.873344 126.208257 
L 76.935991 125.888995 
L 76.998638 125.57822 
L 77.061286 125.275312 
L 77.136578 124.920908 
L 77.223484 124.523901 
L 77.31039 124.138764 
L 77.359949 123.924077 
L 77.409508 123.712777 
L 77.508626 123.299756 
L 77.592971 122.957707 
L 77.695917 122.551075 
L 77.798863 122.155511 
L 77.883068 121.839623 
L 77.967273 121.530205 
L 78.064767 121.179567 
L 78.162261 120.836624 
L 78.240128 120.567945 
L 78.317994 120.303677 
L 78.41733 119.97264 
L 78.492736 119.725701 
L 78.609444 119.350538 
L 78.726152 118.983471 
L 78.814714 118.710047 
L 78.943753 118.319148 
L 79.072793 117.936673 
L 79.225994 117.492874 
L 79.321088 117.222725 
L 79.416182 116.956465 
L 79.454391 116.850545 
L 79.582321 116.500185 
L 79.702033 116.178093 
L 79.821745 115.861322 
L 79.92402 115.594739 
L 80.026294 115.331745 
L 80.179615 114.943942 
L 80.231419 114.814604 
L 80.335783 114.556547 
L 80.440147 114.301754 
L 80.621635 113.866138 
L 80.746084 113.572687 
L 80.839579 113.354934 
L 81.028366 112.922054 
L 81.149161 112.649683 
L 81.348343 112.208067 
L 81.544363 111.782182 
L 81.715203 111.417738 
L 81.878168 111.07569 
L 82.037971 110.745385 
L 82.112717 110.592572 
L 82.296314 110.221635 
L 82.47197 109.872433 
L 82.641879 109.539754 
L 82.751536 109.327627 
L 82.984704 108.883073 
L 83.132162 108.606351 
L 83.256002 108.37651 
L 83.41698 108.081143 
L 83.551606 107.837004 
L 83.673141 107.618798 
L 83.902919 107.211779 
L 84.108334 106.853845 
L 84.252512 106.605851 
L 84.389136 106.373248 
L 84.519281 106.153798 
L 84.674913 105.894028 
L 84.872054 105.56903 
L 84.91019 105.506672 
L 85.155493 105.109449 
L 85.241963 104.970998 
L 85.370335 104.766932 
L 85.610032 104.390521 
L 85.764809 104.150586 
L 85.850456 104.018846 
L 86.044921 103.722397 
L 86.186172 103.509351 
L 86.436395 103.136538 
L 86.465797 103.09311 
L 86.653634 102.817509 
L 86.784805 102.626912 
L 86.942703 102.399474 
L 87.23241 101.987702 
L 87.263589 101.943804 
L 87.472301 101.652006 
L 87.593926 101.483588 
L 87.798171 101.203397 
L 87.884836 101.08549 
L 88.139541 100.742286 
L 88.334373 100.483042 
L 88.343703 100.470698 
L 88.563475 100.18175 
L 88.770703 99.912461 
L 88.958782 99.670661 
L 89.008572 99.607058 
L 89.247385 99.304334 
L 89.426664 99.079582 
L 89.479123 99.014218 
L 89.736594 98.695995 
L 89.753193 98.675626 
L 89.932911 98.456201 
L 90.15692 98.185524 
L 90.354459 97.949386 
L 90.417233 97.87484 
L 90.616262 97.640042 
L 90.704646 97.536523 
L 91.001416 97.192253 
L 91.051018 97.135205 
L 91.283376 96.869812 
L 91.427463 96.706752 
L 91.541315 96.578714 
L 91.631097 96.478245 
L 91.819419 96.268917 
L 92.094911 95.96609 
L 92.137221 95.919934 
L 92.40223 95.63294 
L 92.537158 95.488196 
L 92.625314 95.394122 
L 92.79383 95.215374 
L 92.933281 95.068517 
L 93.12918 94.86382 
L 93.304531 94.682163 
L 93.462133 94.520143 
L 93.527039 94.453758 
L 93.680581 94.297503 
L 93.950809 94.025146 
L 94.078198 93.89791 
L 94.183801 93.79299 
L 94.295478 93.682578 
L 94.551707 93.43134 
L 94.694336 93.292736 
L 94.784313 93.205752 
L 94.933196 93.062586 
L 95.210909 92.798056 
L 95.281232 92.731586 
L 95.463283 92.560468 
L 95.631214 92.403833 
L 95.772156 92.273262 
L 95.87818 92.175569 
L 96.128268 91.94692 
L 96.312539 91.780033 
L 96.354344 91.742358 
L 96.481788 91.627925 
L 96.673803 91.456701 
L 96.934239 91.226724 
L 97.053487 91.122282 
L 97.248568 90.952572 
L 97.384762 90.834929 
L 97.561968 90.682885 
L 97.665575 90.594522 
L 97.777201 90.499756 
L 97.983232 90.326024 
L 98.180673 90.160959 
L 98.294397 90.066509 
L 98.49825 89.898342 
L 98.647173 89.776403 
L 98.805752 89.6474 
L 98.869838 89.595511 
L 99.072177 89.4326 
L 99.295113 89.254706 
L 99.398877 89.172475 
L 99.546531 89.056078 
L 99.752291 88.895075 
L 99.891194 88.787169 
L 100.045872 88.667746 
L 100.110855 88.617805 
L 100.23891 88.519789 
L 100.469634 88.344507 
L 100.554286 88.28062 
L 100.860071 88.051716 
L 100.96949 87.970516 
L 101.115331 87.862861 
L 101.237401 87.773256 
L 101.347437 87.692875 
L 101.638939 87.481707 
L 101.680745 87.451632 
L 101.822155 87.350292 
L 102.109247 87.146377 
L 102.164753 87.107234 
L 102.402427 86.940642 
L 102.460254 86.90036 
L 102.616083 86.792289 
L 102.880769 86.610328 
L 103.002729 86.527159 
L 103.070989 86.480794 
L 103.259676 86.353316 
L 103.522082 86.177695 
L 103.66876 86.080364 
L 103.725824 86.042659 
L 103.873221 85.945682 
L 104.106716 85.793278 
L 104.267667 85.689088 
L 104.444177 85.575632 
L 104.483175 85.550678 
L 104.741786 85.38623 
L 104.858826 85.312391 
L 104.995521 85.22661 
L 105.106613 85.157259 
L 105.321464 85.024053 
L 105.517835 84.903356 
L 105.631937 84.833683 
L 105.862356 84.694006 
L 105.986069 84.619573 
L 106.076396 84.565474 
L 106.219918 84.47994 
L 106.362698 84.395365 
L 106.614642 84.247375 
L 106.725556 84.182728 
L 106.892308 84.086109 
L 106.892308 138.046154 
z
" style="fill:#808080;opacity:0.5;"/>
   </g>
   <g id="patch_6">
    <path clip-path="url(#p5ef1d06352)" d="M 75.738462 138.046154 
L 75.738462 138.046154 
L 75.7444 138.906349 
L 75.750338 139.262625 
L 75.756276 139.535985 
L 75.762214 139.766421 
L 75.768152 139.969425 
L 75.77409 140.152942 
L 75.780028 140.321691 
L 75.785966 140.478747 
L 75.791904 140.626248 
L 75.797842 140.765747 
L 75.80378 140.898419 
L 75.809718 141.025176 
L 75.815656 141.146745 
L 75.821594 141.263713 
L 75.827532 141.376564 
L 75.83347 141.485705 
L 75.845346 141.694174 
L 75.857222 141.891322 
L 75.869098 142.078808 
L 75.880974 142.257923 
L 75.892851 142.429693 
L 75.904727 142.59495 
L 75.916603 142.75438 
L 75.928479 142.908557 
L 75.938737 143.037882 
L 75.948996 143.16392 
L 75.969514 143.407054 
L 75.990031 143.639554 
L 76.010548 143.862696 
L 76.026199 144.027272 
L 76.041851 144.1874 
L 76.057502 144.343419 
L 76.073153 144.495626 
L 76.088804 144.644286 
L 76.104455 144.789634 
L 76.135758 145.071208 
L 76.16706 145.341789 
L 76.198363 145.602558 
L 76.229665 145.854497 
L 76.260967 146.098437 
L 76.298662 146.382566 
L 76.336357 146.65716 
L 76.374051 146.923105 
L 76.411746 147.181155 
L 76.453397 147.457895 
L 76.495049 147.726548 
L 76.544574 148.036361 
L 76.5941 148.336613 
L 76.643625 148.628118 
L 76.69315 148.911579 
L 76.742391 149.186045 
L 76.791632 149.453698 
L 76.853015 149.778514 
L 76.914398 150.094263 
L 76.975781 150.401641 
L 77.037164 150.701258 
L 77.111755 151.055672 
L 77.186346 151.400267 
L 77.241551 151.649419 
L 77.292802 151.876509 
L 77.344052 152.099743 
L 77.395303 152.319302 
L 77.446553 152.535353 
L 77.505607 152.780154 
L 77.564662 153.02072 
L 77.623716 153.257253 
L 77.68277 153.489938 
L 77.741088 153.716112 
L 77.805365 153.961426 
L 77.869642 154.20276 
L 77.933919 154.44029 
L 77.998196 154.674179 
L 78.027845 154.780882 
L 78.151501 155.218196 
L 78.275156 155.643778 
L 78.368453 155.957618 
L 78.46175 156.265574 
L 78.543771 156.531686 
L 78.625792 156.793662 
L 78.683816 156.976589 
L 78.78929 157.304208 
L 78.894765 157.625779 
L 78.986764 157.901556 
L 79.078763 158.173135 
L 79.230737 158.613002 
L 79.319723 158.865732 
L 79.428021 159.168725 
L 79.536319 159.466886 
L 79.57761 159.579336 
L 79.677296 159.848103 
L 79.776982 160.113145 
L 79.881296 160.386651 
L 79.98561 160.656367 
L 80.176102 161.139564 
L 80.265683 161.362794 
L 80.460868 161.840761 
L 80.529942 162.007245 
L 80.692309 162.39333 
L 80.844616 162.749039 
L 80.964339 163.024443 
L 81.084062 163.296276 
L 81.246598 163.659802 
L 81.360528 163.910962 
L 81.564909 164.354279 
L 81.610788 164.452555 
L 81.750073 164.74821 
L 81.889358 165.039909 
L 82.014929 165.2996 
L 82.169411 165.614943 
L 82.341719 165.961463 
L 82.47362 166.223131 
L 82.649691 166.567733 
L 82.815938 166.88834 
L 82.972352 167.185902 
L 83.144791 167.509501 
L 83.287226 167.773386 
L 83.429889 168.034688 
L 83.597243 168.337484 
L 83.665842 168.460463 
L 83.911335 168.895302 
L 83.995857 169.043153 
L 84.129581 169.275174 
L 84.385402 169.712733 
L 84.469557 169.854906 
L 84.610524 170.091153 
L 84.779618 170.371448 
L 84.933036 170.622912 
L 85.189937 171.038105 
L 85.329093 171.260007 
L 85.520197 171.561409 
L 85.600824 171.687437 
L 85.714626 171.864193 
L 85.985451 172.279643 
L 86.015366 172.325093 
L 86.188903 172.587057 
L 86.33832 172.810336 
L 86.500836 173.050849 
L 86.756034 173.42372 
L 86.857996 173.571088 
L 87.051561 173.848388 
L 87.169679 174.016042 
L 87.278986 174.170151 
L 87.522583 174.510072 
L 87.704264 174.760492 
L 87.734612 174.802068 
L 87.933394 175.072628 
L 88.147463 175.360617 
L 88.237616 175.480871 
L 88.450631 175.762631 
L 88.597039 175.954379 
L 88.711776 176.10358 
L 88.951545 176.412387 
L 88.989606 176.461042 
L 89.206752 176.736739 
L 89.374685 176.947781 
L 89.490102 177.091747 
L 89.668213 177.312212 
L 89.827904 177.508147 
L 89.939495 177.644107 
L 90.08341 177.818302 
L 90.232547 177.997468 
L 90.402702 178.200233 
L 90.586976 178.417864 
L 90.762497 178.623294 
L 90.949251 178.839907 
L 91.053253 178.95967 
L 91.259624 179.195506 
L 91.387216 179.340125 
L 91.488466 179.454247 
L 91.767081 179.765405 
L 91.886379 179.897362 
L 91.995464 180.017364 
L 92.250243 180.295214 
L 92.317758 180.36828 
L 92.422626 180.481307 
L 92.709589 180.787754 
L 92.778512 180.860744 
L 93.010317 181.104509 
L 93.156953 181.257358 
L 93.301511 181.407029 
L 93.413191 181.521976 
L 93.54606 181.657967 
L 93.732286 181.847178 
L 93.918957 182.035232 
L 93.987999 182.104383 
L 94.275235 182.389757 
L 94.435053 182.546945 
L 94.59739 182.705458 
L 94.743147 182.846803 
L 94.802928 182.904508 
L 95.071533 183.161899 
L 95.215317 183.298424 
L 95.329778 183.406486 
L 95.527364 183.591747 
L 95.696009 183.748602 
L 95.765444 183.812846 
L 95.91126 183.947126 
L 96.163431 184.177337 
L 96.308768 184.308873 
L 96.424399 184.412931 
L 96.587027 184.558403 
L 96.64051 184.60602 
L 96.809335 184.75561 
L 97.029277 184.948865 
L 97.239637 185.131998 
L 97.351246 185.228492 
L 97.532663 185.384358 
L 97.703508 185.53004 
L 97.859495 185.662128 
L 97.899093 185.695519 
L 98.159572 185.913775 
L 98.308552 186.037523 
L 98.430177 186.137971 
L 98.526007 186.216752 
L 98.781527 186.425257 
L 98.913954 186.532435 
L 98.994474 186.597311 
L 99.155132 186.726097 
L 99.360578 186.889523 
L 99.561418 187.047925 
L 99.7171 187.169795 
L 99.778995 187.218027 
L 99.978639 187.372748 
L 100.212404 187.552274 
L 100.319093 187.633626 
L 100.41671 187.707743 
L 100.682011 187.907655 
L 100.71748 187.934215 
L 101.010429 188.152078 
L 101.046654 188.178833 
L 101.240424 188.321265 
L 101.368365 188.414679 
L 101.561432 188.554703 
L 101.670027 188.632969 
L 101.907623 188.802977 
L 102.007047 188.87362 
L 102.152448 188.976404 
L 102.294196 189.076008 
L 102.473549 189.201196 
L 102.685199 189.347727 
L 102.782183 189.41444 
L 102.998372 189.562185 
L 103.117413 189.642972 
L 103.275423 189.749585 
L 103.460153 189.873338 
L 103.673134 190.014837 
L 103.699609 190.032339 
L 103.896932 190.16217 
L 104.05463 190.265162 
L 104.289592 190.417358 
L 104.37341 190.47129 
L 104.522274 190.566607 
L 104.657004 190.652363 
L 104.830432 190.762037 
L 105.077393 190.916839 
L 105.151501 190.962979 
L 105.333715 191.075814 
L 105.49321 191.173871 
L 105.673682 191.284031 
L 105.811199 191.367409 
L 105.975868 191.466611 
L 106.15891 191.576073 
L 106.313536 191.66788 
L 106.464755 191.757082 
L 106.523665 191.791677 
L 106.751087 191.924418 
L 106.892308 192.006198 
L 106.892308 138.046154 
z
" style="fill:#808080;opacity:0.5;"/>
   </g>
   <g id="patch_7">
    <path clip-path="url(#p5ef1d06352)" d="M 200.353846 138.046154 
L 200.34465 139.116624 
L 200.335454 139.559971 
L 200.326257 139.900125 
L 200.317061 140.186857 
L 200.307865 140.439444 
L 200.298669 140.667775 
L 200.289473 140.877724 
L 200.280276 141.073118 
L 200.27108 141.256616 
L 200.261884 141.430153 
L 200.243492 141.752865 
L 200.225099 142.049564 
L 200.206707 142.325663 
L 200.188314 142.584924 
L 200.169922 142.830084 
L 200.151529 143.063211 
L 200.133137 143.285912 
L 200.096352 143.704902 
L 200.059567 144.094716 
L 200.020578 144.481935 
L 199.981589 144.84692 
L 199.9426 145.193077 
L 199.903611 145.523023 
L 199.864621 145.838816 
L 199.825632 146.142114 
L 199.786643 146.434271 
L 199.747654 146.716413 
L 199.669676 147.254306 
L 199.591697 147.761841 
L 199.513719 148.243552 
L 199.435741 148.702942 
L 199.339198 149.244868 
L 199.242656 149.760959 
L 199.146113 150.254489 
L 199.049571 150.728094 
L 198.928605 151.296651 
L 198.807639 151.840734 
L 198.686673 152.363136 
L 198.565707 152.866148 
L 198.426624 153.423 
L 198.28754 153.959163 
L 198.148457 154.476664 
L 198.009374 154.977213 
L 197.871158 155.459291 
L 197.732943 155.92731 
L 197.594727 156.382346 
L 197.456511 156.825343 
L 197.322883 157.242973 
L 197.189255 157.650798 
L 196.922 158.439371 
L 196.665103 159.166459 
L 196.408207 159.866311 
L 196.101778 160.668996 
L 195.831269 161.351282 
L 195.56076 162.0111 
L 195.305262 162.615302 
L 195.049765 163.202402 
L 194.794546 163.772959 
L 194.539327 164.328655 
L 194.248832 164.944248 
L 193.820018 165.822485 
L 193.360876 166.725939 
L 192.993148 167.424315 
L 192.586319 168.172868 
L 192.179491 168.897902 
L 191.737266 169.661229 
L 191.627546 169.846828 
L 191.236977 170.495882 
L 190.846407 171.127595 
L 190.691774 171.373128 
L 190.252745 172.056745 
L 189.813717 172.721332 
L 189.680208 172.919825 
L 189.070166 173.806448 
L 188.691683 174.340491 
L 188.239919 174.962742 
L 187.848985 175.488463 
L 187.237767 176.287934 
L 186.915107 176.699406 
L 186.165214 177.629036 
L 185.725275 178.157872 
L 185.216773 178.754644 
L 184.88177 179.139627 
L 184.356124 179.731105 
L 184.039561 180.080128 
L 183.647669 180.504961 
L 182.907642 181.286129 
L 182.643645 181.558362 
L 182.220367 181.988017 
L 181.444682 182.754277 
L 180.979434 183.201242 
L 180.660156 183.502676 
L 179.976409 184.134137 
L 179.539672 184.527725 
L 179.421332 184.633095 
L 178.765061 185.207781 
L 178.284797 185.618206 
L 177.791202 186.031357 
L 177.129294 186.571989 
L 176.981089 186.690983 
L 176.288935 187.236988 
L 175.742287 187.657141 
L 175.274932 188.008806 
L 174.827031 188.33945 
L 174.508247 188.571042 
L 173.913242 188.995153 
L 173.652138 189.177968 
L 173.006049 189.621868 
L 172.423144 190.012211 
L 172.389935 190.034164 
L 171.649521 190.515786 
L 171.047259 190.896656 
L 170.892722 190.992839 
L 170.118484 191.465384 
L 169.951308 191.5654 
L 169.496927 191.833674 
L 168.846813 192.208575 
L 168.395219 192.462905 
L 167.867357 192.753963 
L 167.649345 192.872239 
L 166.9452 193.24664 
L 166.309738 193.57469 
L 166.166871 193.647177 
L 165.447254 194.00532 
L 165.276195 194.088757 
L 164.868308 194.285113 
L 164.134713 194.629151 
L 163.929649 194.72325 
L 163.387023 194.967933 
L 162.951418 195.159868 
L 162.401288 195.39662 
L 161.777542 195.657522 
L 161.513388 195.765626 
L 160.803314 196.049259 
L 160.643912 196.111547 
L 159.823638 196.424144 
L 159.269373 196.627921 
L 159.033176 196.712954 
L 158.506517 196.898699 
L 158.104733 197.036848 
L 157.662411 197.185405 
L 157.352442 197.28732 
L 156.681429 197.50181 
L 156.243268 197.637374 
L 155.82484 197.763545 
L 155.120844 197.968633 
L 154.814737 198.055013 
L 154.13915 198.239708 
L 153.689358 198.358165 
L 153.274631 198.464214 
L 153.057218 198.518598 
L 152.528343 198.64743 
L 151.765928 198.824574 
L 151.455721 198.893767 
L 150.902081 199.013142 
L 150.575164 199.081164 
L 149.867169 199.222229 
L 149.695219 199.255204 
L 149.222081 199.343357 
L 148.648668 199.445138 
L 148.03461 199.548018 
L 147.600062 199.617018 
L 147.070492 199.696862 
L 146.826925 199.732024 
L 146.466796 199.782215 
L 145.762934 199.87414 
L 145.511024 199.90506 
L 145.025725 199.961694 
L 144.396418 200.029399 
L 143.871314 200.080951 
L 143.56055 200.109347 
L 142.961762 200.159641 
L 142.622383 200.185567 
L 141.900346 200.234527 
L 141.773761 200.242243 
L 140.990409 200.284244 
L 140.901811 200.288372 
L 140.096063 200.320116 
L 139.582544 200.334901 
L 139.495432 200.336989 
L 138.998872 200.346562 
L 138.218583 200.353608 
L 137.902568 200.353681 
L 137.539266 200.351784 
L 136.953584 200.344266 
L 136.285489 200.328965 
L 135.890082 200.316531 
L 135.528406 200.302956 
L 135.201846 200.288892 
L 134.523143 200.254167 
L 134.015759 200.223356 
L 133.470161 200.185584 
L 133.042129 200.152581 
L 132.905797 200.141446 
L 132.306967 200.088964 
L 131.679776 200.027746 
L 131.481087 200.007016 
L 130.673459 199.916113 
L 130.453601 199.889518 
L 130.100668 199.845165 
L 129.350087 199.744022 
L 128.898175 199.678637 
L 128.358008 199.596039 
L 127.897605 199.521803 
L 127.360156 199.430663 
L 127.072759 199.379938 
L 126.550428 199.284188 
L 126.130734 199.203911 
L 125.496456 199.076913 
L 125.084127 198.990673 
L 124.85642 198.941798 
L 124.290126 198.816379 
L 124.007646 198.751745 
L 123.442198 198.618202 
L 122.915482 198.488782 
L 122.288914 198.328472 
L 121.863326 198.21562 
L 121.668099 198.162772 
L 121.111962 198.008489 
L 120.536628 197.843019 
L 119.983364 197.678227 
L 119.783986 197.61747 
L 119.023682 197.379063 
L 118.584987 197.236622 
L 118.297406 197.141293 
L 117.760423 196.959121 
L 117.081123 196.720816 
L 116.607331 196.549362 
L 116.394327 196.470865 
L 115.799522 196.246978 
L 115.379392 196.084645 
L 114.942277 195.912028 
L 114.562503 195.758949 
L 113.7577 195.424892 
L 113.417775 195.279811 
L 112.868559 195.04034 
L 112.717788 194.973497 
L 111.900187 194.602647 
L 111.735095 194.526032 
L 111.12172 194.236218 
L 110.639023 194.002366 
L 110.237699 193.804008 
L 109.817862 193.592639 
L 109.069957 193.20618 
L 108.73303 193.027872 
L 108.514373 192.910737 
L 107.65386 192.438773 
L 107.222864 192.1957 
L 106.892308 192.006198 
L 106.892308 200.353846 
L 106.902714 201.492572 
L 106.913121 201.964181 
L 106.923527 202.326013 
L 106.933934 202.631013 
L 106.94434 202.89969 
L 106.954746 203.142562 
L 106.965153 203.365878 
L 106.975559 203.573709 
L 106.985966 203.768883 
L 106.996372 203.953461 
L 107.017185 204.296697 
L 107.037998 204.612256 
L 107.058811 204.905897 
L 107.079624 205.181622 
L 107.100437 205.442343 
L 107.12125 205.69026 
L 107.142063 205.927082 
L 107.183689 206.372622 
L 107.225315 206.78711 
L 107.270997 207.212936 
L 107.31668 207.613541 
L 107.362362 207.992894 
L 107.408044 208.354018 
L 107.453727 208.699281 
L 107.499409 209.030576 
L 107.545092 209.349446 
L 107.590774 209.65717 
L 107.682139 210.243302 
L 107.773504 210.795787 
L 107.864869 211.319713 
L 107.956234 211.818996 
L 108.045189 212.284381 
L 108.134145 212.731643 
L 108.2231 213.16268 
L 108.312056 213.579078 
L 108.458439 214.235897 
L 108.604823 214.861536 
L 108.751207 215.459869 
L 108.897591 216.034023 
L 109.007824 216.451998 
L 109.118058 216.858656 
L 109.319136 217.57391 
L 109.520214 218.25836 
L 109.695493 218.832542 
L 109.870773 219.387799 
L 110.046053 219.925741 
L 110.221333 220.447759 
L 110.41261 221.00067 
L 110.603888 221.537429 
L 110.902209 222.345119 
L 111.20053 223.120268 
L 111.543798 223.976101 
L 111.853001 224.717143 
L 112.091713 225.271552 
L 112.330425 225.811653 
L 112.575881 226.353033 
L 112.821338 226.881096 
L 113.075869 227.415451 
L 113.3304 227.937108 
L 113.582926 228.442805 
L 113.835452 228.937326 
L 114.31486 229.847404 
L 114.659567 230.480076 
L 115.004274 231.095867 
L 115.29019 231.59454 
L 115.576107 232.082801 
L 116.034582 232.845181 
L 116.137187 233.01248 
L 116.660482 233.84784 
L 117.162111 234.622004 
L 117.662161 235.369552 
L 118.01411 235.882049 
L 118.494735 236.564682 
L 118.879138 237.097 
L 119.263541 237.61775 
L 119.72014 238.221933 
L 119.96711 238.542471 
L 120.353835 239.035892 
L 121.058939 239.909967 
L 121.428279 240.355236 
L 121.77929 240.770734 
L 122.51138 241.614254 
L 122.758735 241.892472 
L 123.521519 242.729841 
L 124.008909 243.249228 
L 124.082229 243.326341 
L 124.772507 244.039615 
L 125.42173 244.690193 
L 125.604768 244.870183 
L 125.998138 245.252038 
L 126.694854 245.912172 
L 126.90224 246.104781 
L 127.585862 246.72746 
L 128.131063 247.210979 
L 128.400272 247.445572 
L 129.126455 248.065056 
L 129.389264 248.284565 
L 130.019443 248.80106 
L 130.603735 249.26782 
L 130.86128 249.469944 
L 131.193834 249.727725 
L 131.958538 250.307045 
L 132.021049 250.353587 
L 132.698447 250.850234 
L 133.036591 251.092947 
L 133.551574 251.45608 
L 134.1876 251.893931 
L 134.515176 252.114947 
L 135.016194 252.447185 
L 135.674696 252.87339 
L 135.98285 253.068829 
L 136.589804 253.446441 
L 137.180929 253.805017 
L 137.516005 254.004317 
L 137.772362 254.154888 
L 138.303213 254.46149 
L 138.998236 254.852488 
L 139.409588 255.078428 
L 139.753195 255.264084 
L 140.153572 255.476922 
L 140.509563 255.663044 
L 141.381511 256.106695 
L 141.746447 256.287297 
L 141.979059 256.40087 
L 142.623546 256.709331 
L 143.088893 256.926442 
L 143.566104 257.144267 
L 143.800932 257.249679 
L 144.304724 257.471915 
L 144.8137 257.691067 
L 145.274382 257.884823 
L 145.712062 258.064896 
L 146.264967 258.286849 
L 146.584911 258.412491 
L 147.346014 258.70324 
L 147.571957 258.787366 
L 148.34112 259.066329 
L 148.521541 259.130116 
L 149.145783 259.346023 
L 149.696669 259.530435 
L 149.945753 259.611947 
L 150.382227 259.751994 
L 150.995752 259.942888 
L 151.376287 260.057814 
L 151.783705 260.177931 
L 152.598925 260.409261 
L 152.800595 260.464644 
L 153.608557 260.679259 
L 153.903216 260.754648 
L 154.406478 260.879875 
L 154.856796 260.988168 
L 155.322082 261.096351 
L 155.575208 261.153629 
L 156.280869 261.307473 
L 156.676292 261.389944 
L 157.173939 261.489943 
L 157.632782 261.578416 
L 158.085524 261.662222 
L 158.509063 261.737495 
L 159.215967 261.856428 
L 159.647605 261.924945 
L 160.179404 262.005102 
L 160.439896 262.042655 
L 160.728081 262.082892 
L 161.591855 262.195294 
L 161.877131 262.229723 
L 162.489718 262.29915 
L 162.611136 262.312182 
L 163.283558 262.380004 
L 163.866112 262.432813 
L 164.226474 262.462723 
L 164.585861 262.490456 
L 165.355946 262.542847 
L 165.541752 262.554053 
L 166.261836 262.592224 
L 166.663527 262.609889 
L 167.21632 262.629953 
L 167.488737 262.638034 
L 168.114638 262.652085 
L 168.507126 262.657686 
L 168.788041 262.660177 
L 169.196557 262.661538 
L 169.613299 262.660168 
L 170.401863 262.649946 
L 170.562689 262.646635 
L 171.083423 262.633066 
L 171.800361 262.607253 
L 172.062631 262.595744 
L 172.446495 262.576903 
L 173.306922 262.52604 
L 173.784637 262.492639 
L 174.040165 262.473258 
L 174.609291 262.426288 
L 174.769017 262.412162 
L 175.48771 262.343468 
L 175.835087 262.307249 
L 176.468054 262.236185 
L 177.026225 262.168074 
L 177.415718 262.117513 
L 177.766635 262.069819 
L 178.080748 262.025402 
L 178.536007 261.958128 
L 179.188418 261.855716 
L 179.537018 261.798086 
L 180.286134 261.667353 
L 180.63247 261.603721 
L 180.967271 261.540281 
L 181.538864 261.42758 
L 181.858785 261.362073 
L 182.637105 261.195384 
L 183.148831 261.080106 
L 183.674988 260.956843 
L 184.033918 260.869988 
L 184.406337 260.777483 
L 185.031851 260.616612 
L 185.430748 260.510403 
L 185.972253 260.361679 
L 186.154408 260.310468 
L 186.542331 260.199415 
L 187.245667 259.991103 
L 187.907206 259.786909 
L 188.262665 259.673854 
L 188.71354 259.527069 
L 189.316105 259.324948 
L 189.440473 259.282377 
L 189.81638 259.151919 
L 190.622001 258.863216 
L 191.189652 258.652249 
L 191.239465 258.633435 
L 192.056794 258.317761 
L 192.460369 258.156993 
L 192.645433 258.082177 
L 193.452989 257.747583 
L 193.989698 257.517816 
L 194.157005 257.44497 
L 194.878984 257.123894 
L 195.355353 256.905999 
L 195.773935 256.710518 
L 195.931264 256.636064 
L 196.62398 256.301803 
L 197.121991 256.054932 
L 197.584024 255.820915 
L 197.958944 255.627453 
L 198.615024 255.281115 
L 199.052466 255.044602 
L 199.471746 254.813647 
L 200.098717 254.460388 
L 200.353846 254.313891 
z
" style="fill:#808080;opacity:0.5;"/>
   </g>
   <g id="patch_8">
    <path clip-path="url(#p5ef1d06352)" d="M 231.507692 200.353846 
L 231.504591 199.732155 
L 231.501489 199.474653 
L 231.498387 199.277073 
L 231.495286 199.110511 
L 231.492184 198.963772 
L 231.489083 198.831115 
L 231.485981 198.709129 
L 231.482879 198.595592 
L 231.479778 198.488959 
L 231.476676 198.388107 
L 231.473575 198.292187 
L 231.470473 198.200541 
L 231.467371 198.112643 
L 231.46427 198.028068 
L 231.458066 197.867547 
L 231.451863 197.716793 
L 231.44566 197.574217 
L 231.439457 197.43862 
L 231.433254 197.309067 
L 231.42705 197.184819 
L 231.420847 197.065273 
L 231.414644 196.949934 
L 231.408441 196.838388 
L 231.401758 196.722064 
L 231.395075 196.609364 
L 231.38171 196.393608 
L 231.368344 196.189056 
L 231.354979 195.994132 
L 231.341614 195.807597 
L 231.328248 195.628458 
L 231.314883 195.455903 
L 231.301517 195.289258 
L 231.288152 195.127959 
L 231.274787 194.971525 
L 231.261421 194.819543 
L 231.248056 194.671656 
L 231.234691 194.527553 
L 231.221325 194.386958 
L 231.194594 194.115353 
L 231.16586 193.836125 
L 231.137126 193.568499 
L 231.108392 193.311153 
L 231.079658 193.062998 
L 231.050924 192.823125 
L 231.02219 192.590767 
L 230.993455 192.365268 
L 230.964721 192.146062 
L 230.935722 191.930718 
L 230.906724 191.720841 
L 230.877725 191.516042 
L 230.848726 191.315975 
L 230.809654 191.053359 
L 230.770582 190.798118 
L 230.73151 190.549675 
L 230.692438 190.307525 
L 230.658057 190.099296 
L 230.623675 189.895324 
L 230.589293 189.695366 
L 230.554911 189.499199 
L 230.508107 189.237888 
L 230.461303 188.982772 
L 230.422282 188.774524 
L 230.383261 188.570084 
L 230.344241 188.369259 
L 230.30522 188.171869 
L 230.264186 187.967818 
L 230.223152 187.76721 
L 230.141084 187.37568 
L 230.07597 187.073607 
L 230.010857 186.778566 
L 229.945743 186.490109 
L 229.880629 186.207831 
L 229.792997 185.837056 
L 229.696716 185.440904 
L 229.631561 185.179035 
L 229.566407 184.921883 
L 229.501252 184.669218 
L 229.436097 184.420825 
L 229.352695 184.10879 
L 229.290324 183.87958 
L 229.227954 183.653749 
L 229.103214 183.21169 
L 229.000787 182.857722 
L 228.888839 182.479533 
L 228.80772 182.210852 
L 228.726601 181.946449 
L 228.608135 181.567626 
L 228.489668 181.197025 
L 228.396914 180.912297 
L 228.304161 180.632115 
L 228.231133 180.414592 
L 228.121843 180.093913 
L 228.025087 179.814673 
L 227.928331 179.539628 
L 227.762621 179.077852 
L 227.659965 178.797384 
L 227.515805 178.410386 
L 227.371644 178.031026 
L 227.272645 177.774732 
L 227.166075 177.502529 
L 227.059504 177.234022 
L 226.952329 176.967588 
L 226.84697 176.709071 
L 226.741611 176.453815 
L 226.653749 176.243365 
L 226.475489 175.822908 
L 226.302396 175.422642 
L 226.122208 175.013942 
L 226.097342 174.958157 
L 225.86728 174.448869 
L 225.789437 174.279258 
L 225.593891 173.858987 
L 225.381995 173.412578 
L 225.246143 173.131092 
L 225.064485 172.760227 
L 224.907017 172.44369 
L 224.699891 172.034054 
L 224.616219 171.870672 
L 224.444992 171.539971 
L 224.318153 171.298077 
L 224.092277 170.873573 
L 224.041344 170.778932 
L 223.864004 170.452422 
L 223.71317 170.178312 
L 223.568506 169.918439 
L 223.340839 169.515266 
L 223.176561 169.228626 
L 223.121497 169.133329 
L 222.896836 168.748493 
L 222.727655 168.462803 
L 222.508797 168.098293 
L 222.458069 168.014604 
L 222.346981 167.832362 
L 222.110117 167.448405 
L 221.884181 167.087864 
L 221.841419 167.020236 
L 221.645481 166.712799 
L 221.519976 166.517938 
L 221.381798 166.305226 
L 221.238335 166.086366 
L 221.080685 165.84815 
L 220.849134 165.502512 
L 220.638814 165.192831 
L 220.488694 164.974214 
L 220.326889 164.740791 
L 220.212736 164.577468 
L 220.146271 164.482883 
L 219.895842 164.12982 
L 219.792132 163.985113 
L 219.570626 163.678942 
L 219.453117 163.518092 
L 219.270667 163.270469 
L 219.177524 163.145035 
L 219.043745 162.96602 
L 218.897031 162.771222 
L 218.734717 162.557546 
L 218.566071 162.33754 
L 218.375282 162.091069 
L 218.180788 161.842407 
L 217.981318 161.590054 
L 217.938375 161.536075 
L 217.79874 161.361398 
L 217.650605 161.177484 
L 217.434358 160.911543 
L 217.252229 160.68986 
L 217.093586 160.498446 
L 216.881892 160.245421 
L 216.763011 160.104517 
L 216.693986 160.02309 
L 216.495045 159.789979 
L 216.311255 159.576669 
L 216.142219 159.38219 
L 216.080254 159.311304 
L 215.865721 159.067541 
L 215.687585 158.867065 
L 215.607173 158.777137 
L 215.400566 158.547672 
L 215.215544 158.344107 
L 215.066545 158.181479 
L 214.975837 158.083037 
L 214.81669 157.911343 
L 214.599752 157.679368 
L 214.430793 157.50033 
L 214.215184 157.2739 
L 214.091307 157.14483 
L 213.912723 156.960057 
L 213.81111 156.8556 
L 213.642486 156.68333 
L 213.563764 156.603361 
L 213.333633 156.371225 
L 213.134801 156.172608 
L 212.981842 156.021028 
L 212.873017 155.913818 
L 212.674427 155.719524 
L 212.614686 155.661413 
L 212.433505 155.486123 
L 212.21964 155.281026 
L 212.116079 155.18241 
L 211.954305 155.029262 
L 211.708577 154.798721 
L 211.603917 154.701285 
L 211.39952 154.512282 
L 211.357822 154.473931 
L 211.176162 154.30767 
L 210.937565 154.091289 
L 210.892218 154.050417 
L 210.62203 153.808557 
L 210.488784 153.690318 
L 210.362826 153.579171 
L 210.271692 153.499128 
L 210.085888 153.336906 
L 209.979828 153.244885 
L 209.71879 153.020178 
L 209.550659 152.876769 
L 209.426835 152.771809 
L 209.348409 152.705616 
L 209.12026 152.514309 
L 208.986887 152.403329 
L 208.756497 152.213093 
L 208.674893 152.146156 
L 208.467792 151.977312 
L 208.358368 151.888696 
L 208.104111 151.684362 
L 208.102614 151.683166 
L 207.853803 151.485328 
L 207.718495 151.378607 
L 207.512863 151.217576 
L 207.47632 151.189105 
L 207.244364 151.009395 
L 207.074688 150.879039 
L 206.90961 150.753102 
L 206.837678 150.698497 
L 206.562281 150.490949 
L 206.450287 150.407229 
L 206.245303 150.255004 
L 206.070357 150.126112 
L 206.013945 150.084751 
L 205.79352 149.924065 
L 205.694905 149.852654 
L 205.588233 149.775738 
L 205.424492 149.658336 
L 205.169812 149.477318 
L 205.00025 149.35786 
L 204.854957 149.256169 
L 204.753583 149.185582 
L 204.560937 149.052261 
L 204.439805 148.968978 
L 204.305365 148.877037 
L 204.187817 148.79707 
L 203.973519 148.65229 
L 203.811171 148.543467 
L 203.56918 148.382624 
L 203.476747 148.321614 
L 203.364925 148.248122 
L 203.131752 148.095978 
L 202.97607 147.995221 
L 202.819315 147.894431 
L 202.763319 147.858588 
L 202.548939 147.722137 
L 202.344845 147.593371 
L 202.296956 147.563316 
L 202.030524 147.397211 
L 201.929186 147.334521 
L 201.840936 147.280144 
L 201.627712 147.149598 
L 201.492515 147.067431 
L 201.300365 146.951458 
L 201.12202 146.844659 
L 200.978597 146.759357 
L 200.893279 146.70886 
L 200.644662 146.562753 
L 200.49011 146.472703 
L 200.353846 146.393802 
L 200.353846 254.313891 
L 200.438101 254.265158 
L 200.671901 254.129007 
L 200.791888 254.058605 
L 200.915538 253.985676 
L 201.167068 253.836134 
L 201.324323 253.741826 
L 201.44776 253.667357 
L 201.547582 253.60685 
L 201.768291 253.472157 
L 201.970854 253.347428 
L 202.089662 253.273773 
L 202.248657 253.174626 
L 202.399775 253.079774 
L 202.571252 252.971411 
L 202.681474 252.901343 
L 202.806279 252.821613 
L 202.98932 252.703921 
L 203.199241 252.56783 
L 203.324446 252.486089 
L 203.45573 252.399917 
L 203.586576 252.31356 
L 203.866143 252.12746 
L 203.916486 252.093716 
L 204.072089 251.988969 
L 204.242178 251.87369 
L 204.487971 251.705648 
L 204.528015 251.678108 
L 204.713819 251.549717 
L 204.962922 251.376017 
L 204.985707 251.360039 
L 205.20769 251.203574 
L 205.38579 251.076988 
L 205.545131 250.962936 
L 205.658167 250.881567 
L 205.759767 250.808102 
L 205.931338 250.683334 
L 206.137213 250.532435 
L 206.342044 250.38101 
L 206.45814 250.294606 
L 206.570575 250.210527 
L 206.807403 250.032129 
L 206.988798 249.894287 
L 207.162896 249.761002 
L 207.228618 249.710434 
L 207.459007 249.532062 
L 207.521856 249.483103 
L 207.649828 249.383014 
L 207.817562 249.251008 
L 207.975143 249.126141 
L 208.16187 248.977104 
L 208.41084 248.776553 
L 208.560052 248.655346 
L 208.66188 248.572188 
L 208.75577 248.495196 
L 208.935758 248.346742 
L 209.130509 248.18483 
L 209.229904 248.101676 
L 209.360442 247.991934 
L 209.561985 247.821295 
L 209.779354 247.635603 
L 209.895855 247.535367 
L 210.041247 247.409569 
L 210.178785 247.289842 
L 210.404136 247.092135 
L 210.465524 247.037944 
L 210.641635 246.881681 
L 210.804601 246.736016 
L 210.93108 246.622253 
L 211.097616 246.471503 
L 211.262822 246.320872 
L 211.544811 246.061236 
L 211.655153 245.958764 
L 211.737609 245.881864 
L 211.965995 245.6674 
L 212.04405 245.593607 
L 212.317285 245.333267 
L 212.347583 245.304203 
L 212.534095 245.124425 
L 212.669459 244.993007 
L 212.817794 244.848077 
L 213.056948 244.612367 
L 213.120112 244.549687 
L 213.391604 244.278221 
L 213.548259 244.120048 
L 213.621063 244.046153 
L 213.762351 243.902043 
L 214.02406 243.632619 
L 214.165462 243.485687 
L 214.325905 243.317799 
L 214.422948 243.215642 
L 214.577021 243.052494 
L 214.709834 242.910908 
L 214.940813 242.662551 
L 215.023158 242.573353 
L 215.213975 242.365305 
L 215.417638 242.141146 
L 215.593653 241.945642 
L 215.711141 241.814216 
L 215.914873 241.584528 
L 216.048534 241.432593 
L 216.177368 241.285196 
L 216.302279 241.141391 
L 216.520174 240.888395 
L 216.705322 240.671248 
L 216.800718 240.558574 
L 216.890415 240.452136 
L 217.05648 240.253795 
L 217.226671 240.048775 
L 217.443677 239.784749 
L 217.582599 239.614165 
L 217.744142 239.414245 
L 217.811065 239.330927 
L 217.966308 239.136519 
L 218.244801 238.783731 
L 218.354246 238.643644 
L 218.459238 238.508479 
L 218.61928 238.300958 
L 218.782296 238.08771 
L 219.001692 237.79767 
L 219.18355 237.554561 
L 219.223463 237.500873 
L 219.440169 237.207258 
L 219.662488 236.902249 
L 219.830893 236.668597 
L 219.97998 236.459831 
L 220.028222 236.391887 
L 220.28137 236.032161 
L 220.457236 235.77904 
L 220.569615 235.615883 
L 220.69819 235.427839 
L 220.923772 235.094311 
L 220.973648 235.019938 
L 221.192274 234.691172 
L 221.320484 234.496249 
L 221.552601 234.139253 
L 221.694311 233.918646 
L 221.782701 233.780005 
L 221.986747 233.456835 
L 222.157191 233.183474 
L 222.289671 232.968802 
L 222.408333 232.774855 
L 222.609007 232.443199 
L 222.751779 232.204364 
L 222.957913 231.855201 
L 222.988809 231.802417 
L 223.205767 231.428363 
L 223.335029 231.202625 
L 223.54501 230.831189 
L 223.689555 230.572002 
L 223.874811 230.235505 
L 224.049596 229.913453 
L 224.132159 229.759737 
L 224.375644 229.300294 
L 224.482787 229.09514 
L 224.544829 228.975489 
L 224.723801 228.626731 
L 224.936767 228.204544 
L 225.125687 227.823211 
L 225.29128 227.483477 
L 225.452797 227.146968 
L 225.618955 226.795291 
L 225.649332 226.730378 
L 225.87682 226.237945 
L 226.085307 225.776481 
L 226.171969 225.581673 
L 226.363205 225.145306 
L 226.448809 224.946983 
L 226.605928 224.577964 
L 226.739223 224.259628 
L 226.872517 223.936241 
L 226.984707 223.659985 
L 227.047348 223.504071 
L 227.14722 223.252934 
L 227.247092 222.998573 
L 227.372966 222.673222 
L 227.49884 222.342338 
L 227.588018 222.10443 
L 227.735618 221.70402 
L 227.854818 221.374333 
L 228.001503 220.960441 
L 228.105127 220.66233 
L 228.208751 220.359241 
L 228.300119 220.087687 
L 228.391486 219.811916 
L 228.499574 219.479981 
L 228.607662 219.141562 
L 228.683992 218.898473 
L 228.760323 218.651836 
L 228.854027 218.343998 
L 228.959841 217.98932 
L 229.065654 217.626713 
L 229.116977 217.447831 
L 229.209528 217.120033 
L 229.302079 216.785175 
L 229.385941 216.475293 
L 229.469802 216.158893 
L 229.577896 215.740795 
L 229.631958 215.527077 
L 229.686021 215.31011 
L 229.740083 215.08975 
L 229.794145 214.865843 
L 229.858245 214.595542 
L 229.922344 214.319715 
L 229.976726 214.08112 
L 230.031109 213.838084 
L 230.085492 213.590363 
L 230.139875 213.337688 
L 230.204117 213.032421 
L 230.268358 212.719287 
L 230.317126 212.47595 
L 230.365894 212.227427 
L 230.420823 211.94088 
L 230.475752 211.646798 
L 230.530681 211.344576 
L 230.585609 211.033522 
L 230.637073 210.733376 
L 230.688536 210.424024 
L 230.739999 210.104592 
L 230.791462 209.774053 
L 230.830485 209.515276 
L 230.869508 209.248802 
L 230.908532 208.973919 
L 230.947555 208.689793 
L 230.986226 208.398149 
L 231.024897 208.095332 
L 231.044233 207.939318 
L 231.063569 207.779977 
L 231.082904 207.617089 
L 231.10224 207.450411 
L 231.119383 207.299239 
L 231.136527 207.14466 
L 231.15367 206.986435 
L 231.170814 206.824297 
L 231.187958 206.657943 
L 231.205101 206.487031 
L 231.222245 206.311168 
L 231.239388 206.129902 
L 231.258299 205.923056 
L 231.277209 205.708158 
L 231.291614 205.538436 
L 231.306019 205.362926 
L 231.320425 205.180996 
L 231.33483 204.99189 
L 231.349235 204.794692 
L 231.36364 204.588272 
L 231.378045 204.371207 
L 231.385248 204.258132 
L 231.392451 204.14167 
L 231.399653 204.021497 
L 231.406856 203.897236 
L 231.414058 203.768441 
L 231.421261 203.634577 
L 231.428464 203.494998 
L 231.435666 203.348903 
L 231.442869 203.195289 
L 231.450071 203.032862 
L 231.457274 202.859908 
L 231.464477 202.674076 
L 231.471679 202.471978 
L 231.478882 202.248415 
L 231.486084 201.994639 
L 231.493287 201.693586 
L 231.50049 201.301213 
z
" style="fill:#808080;opacity:0.5;"/>
   </g>
   <g id="matplotlib.axis_1"/>
   <g id="matplotlib.axis_2"/>
   <g id="line2d_1">
    <path clip-path="url(#p5ef1d06352)" d="M 106.892308 84.086109 
L 110.122051 82.346127 
L 113.398249 80.820903 
L 116.548332 79.5646 
L 119.829335 78.460954 
L 123.103006 77.556892 
L 126.901896 76.743185 
L 130.250108 76.228113 
L 134.312643 75.850419 
L 138.211397 75.738681 
L 142.126043 75.87218 
L 145.840762 76.227932 
L 149.602048 76.819445 
L 152.823918 77.516275 
L 156.214597 78.446186 
L 159.924503 79.70589 
L 163.028781 80.966237 
L 166.683432 82.709414 
L 169.755324 84.410559 
L 173.005308 86.469938 
L 175.807405 88.484713 
L 178.914041 91.013566 
L 181.614567 93.503569 
L 184.168335 96.153518 
L 186.595086 98.991708 
L 188.72527 101.79873 
L 190.525229 104.457537 
L 192.445214 107.66539 
L 194.270561 111.193509 
L 195.786489 114.630299 
L 197.033912 117.978945 
L 198.169218 121.691777 
L 199.012398 125.186701 
L 199.708313 129.100395 
L 200.141807 132.910164 
L 200.336176 136.562364 
L 200.353846 138.046154 
L 200.353846 138.046154 
" style="fill:none;stroke:#0000ff;stroke-linecap:square;"/>
   </g>
   <g id="line2d_2">
    <path clip-path="url(#p5ef1d06352)" d="M 75.738462 138.046154 
L 75.868036 134.029907 
L 76.220161 130.313422 
L 76.747548 126.87792 
L 77.508626 123.299756 
L 78.492736 119.725701 
L 79.702033 116.178093 
L 81.149161 112.649683 
L 82.751536 109.327627 
L 84.674913 105.894028 
L 86.784805 102.626912 
L 89.008572 99.607058 
L 91.427463 96.706752 
L 93.950809 94.025146 
L 96.673803 91.456701 
L 99.546531 89.056078 
L 102.616083 86.792289 
L 105.862356 84.694006 
L 106.892308 84.086109 
L 106.892308 84.086109 
" style="fill:none;stroke:#0000ff;stroke-linecap:square;"/>
   </g>
   <g id="line2d_3">
    <path clip-path="url(#p5ef1d06352)" d="M 75.738462 138.046154 
L 75.869098 142.078808 
L 76.229665 145.854497 
L 76.791632 149.453698 
L 77.564662 153.02072 
L 78.543771 156.531686 
L 79.776982 160.113145 
L 81.246598 163.659802 
L 82.815938 166.88834 
L 84.610524 170.091153 
L 86.500836 173.050849 
L 88.711776 176.10358 
L 91.053253 178.95967 
L 93.54606 181.657967 
L 96.308768 184.308873 
L 99.155132 186.726097 
L 102.152448 188.976404 
L 105.151501 190.962979 
L 106.892308 192.006198 
L 106.892308 192.006198 
" style="fill:none;stroke:#0000ff;stroke-linecap:square;"/>
   </g>
   <g id="line2d_4">
    <path clip-path="url(#p5ef1d06352)" d="M 106.892308 200.353846 
L 107.037998 204.612256 
L 107.408044 208.354018 
L 107.956234 211.818996 
L 108.751207 215.459869 
L 109.695493 218.832542 
L 110.902209 222.345119 
L 112.330425 225.811653 
L 113.835452 228.937326 
L 115.576107 232.082801 
L 117.662161 235.369552 
L 119.96711 238.542471 
L 122.51138 241.614254 
L 124.772507 244.039615 
L 127.585862 246.72746 
L 130.603735 249.26782 
L 133.551574 251.45608 
L 136.589804 253.446441 
L 139.753195 255.264084 
L 143.088893 256.926442 
L 146.584911 258.412491 
L 150.382227 259.751994 
L 153.903216 260.754648 
L 157.632782 261.578416 
L 160.728081 262.082892 
L 164.585861 262.490456 
L 168.507126 262.657686 
L 172.062631 262.595744 
L 175.835087 262.307249 
L 179.537018 261.798086 
L 183.148831 261.080106 
L 186.542331 260.199415 
L 189.81638 259.151919 
L 193.452989 257.747583 
L 196.62398 256.301803 
L 200.098717 254.460388 
L 200.353846 254.313891 
L 200.353846 254.313891 
" style="fill:none;stroke:#228b22;stroke-linecap:square;"/>
   </g>
   <g id="line2d_5">
    <path clip-path="url(#p5ef1d06352)" d="M 200.353846 254.313891 
L 203.45573 252.399917 
L 206.45814 250.294606 
L 209.360442 247.991934 
L 212.04405 245.593607 
L 214.709834 242.910908 
L 217.226671 240.048775 
L 219.440169 237.207258 
L 221.552601 234.139253 
L 223.335029 231.202625 
L 225.125687 227.823211 
L 226.739223 224.259628 
L 228.105127 220.66233 
L 229.209528 217.120033 
L 230.139875 213.337688 
L 230.791462 209.774053 
L 231.239388 206.129902 
L 231.471679 202.471978 
L 231.507692 200.353846 
L 231.507692 200.353846 
" style="fill:none;stroke:#228b22;stroke-linecap:square;"/>
   </g>
   <g id="text_1">
    <!-- $\Omega$ -->
    <g transform="translate(16.011538 22.420913)scale(0.1 -0.1)">
     <defs>
      <path d="M 7.71875 0 
L 4.390625 16.609375 
L 7.328125 16.609375 
Q 7.859375 13.71875 8.296875 11.5 
Q 8.734375 9.28125 9.4375 8.375 
Q 10.15625 7.46875 11.71875 7.171875 
Q 13.28125 6.890625 16.890625 6.890625 
L 23 6.890625 
Q 21.53125 12.546875 15.6875 21.65625 
Q 9.859375 30.765625 7.734375 34.890625 
Q 5.609375 39.015625 5.609375 45.515625 
Q 5.609375 53.078125 10.09375 58.765625 
Q 14.59375 64.453125 21.703125 67.484375 
Q 28.8125 70.515625 36.078125 70.515625 
Q 43.3125 70.515625 50.40625 67.484375 
Q 57.515625 64.453125 62 58.71875 
Q 66.5 52.984375 66.5 45.515625 
Q 66.5 40.4375 64.640625 35.9375 
Q 62.796875 31.453125 59.90625 26.953125 
Q 57.03125 22.46875 53.6875 16.9375 
Q 50.34375 11.421875 49.125 6.890625 
L 55.171875 6.890625 
Q 58.84375 6.890625 60.453125 7.171875 
Q 62.0625 7.46875 62.734375 8.375 
Q 63.421875 9.28125 63.84375 11.5 
Q 64.265625 13.71875 64.796875 16.609375 
L 67.671875 16.609375 
L 64.40625 0 
L 46.6875 0 
Q 45.703125 0 45.703125 1.3125 
Q 45.703125 6.390625 46.9375 11.265625 
Q 48.1875 16.15625 50.625 23.09375 
Q 53.078125 30.03125 54.4375 35.328125 
Q 55.8125 40.625 55.8125 45.515625 
Q 55.8125 51.515625 53.46875 56.640625 
Q 51.125 61.765625 46.625 64.84375 
Q 42.140625 67.921875 36.078125 67.921875 
Q 26.953125 67.921875 21.625 61.40625 
Q 16.3125 54.890625 16.3125 45.515625 
Q 16.359375 40.375 17.53125 35.828125 
Q 18.703125 31.296875 21.3125 23.71875 
Q 23.921875 16.15625 25.171875 11.265625 
Q 26.421875 6.390625 26.421875 1.3125 
Q 26.421875 0 25.390625 0 
z
" id="Cmr10-173"/>
     </defs>
     <use transform="translate(0 0.484375)" xlink:href="#Cmr10-173"/>
    </g>
   </g>
   <g id="text_2">
    <!-- $A$ -->
    <g style="fill:#0000ff;" transform="translate(103.142308 78.497837)scale(0.1 -0.1)">
     <defs>
      <path d="M 4.5 0 
Q 3.515625 0 3.515625 1.3125 
Q 3.90625 3.515625 4.78125 3.515625 
Q 8.84375 3.515625 11.796875 5.125 
Q 14.75 6.734375 16.890625 10.109375 
Q 17.09375 10.296875 17.09375 10.296875 
L 52.78125 70.515625 
Q 53.5625 71.578125 54.6875 71.578125 
L 56 71.578125 
Q 56.296875 71.578125 56.59375 71.453125 
Q 56.890625 71.34375 57.109375 71.0625 
Q 57.328125 70.796875 57.328125 70.515625 
L 63.375 5.90625 
Q 63.375 5.46875 63.8125 4.59375 
Q 64.796875 3.515625 71.296875 3.515625 
Q 72.3125 3.515625 72.3125 2.203125 
Q 71.96875 0.875 71.75 0.4375 
Q 71.53125 0 70.609375 0 
L 45.609375 0 
Q 44.671875 0 44.671875 1.3125 
Q 45.21875 3.515625 46 3.515625 
Q 53.90625 3.515625 54.390625 6.203125 
L 52.875 22.703125 
L 28.21875 22.703125 
L 20.21875 9.28125 
Q 19.484375 8.203125 19.484375 6.78125 
Q 19.484375 5.03125 21.171875 4.265625 
Q 22.859375 3.515625 24.90625 3.515625 
Q 25.875 3.515625 25.875 2.203125 
Q 25.53125 0.78125 25.328125 0.390625 
Q 25.140625 0 24.21875 0 
z
M 30.171875 26.21875 
L 52.484375 26.21875 
L 49.515625 58.59375 
z
" id="Cmmi10-65"/>
     </defs>
     <use transform="translate(0 0.421875)" xlink:href="#Cmmi10-65"/>
    </g>
   </g>
   <g id="text_3">
    <!-- $B$ -->
    <g style="fill:#ff0000;" transform="translate(227.707692 78.497837)scale(0.1 -0.1)">
     <defs>
      <path d="M 4.984375 0 
Q 4 0 4 1.3125 
Q 4.046875 1.5625 4.1875 2.140625 
Q 4.34375 2.734375 4.578125 3.125 
Q 4.828125 3.515625 5.328125 3.515625 
Q 8.15625 3.515625 10.25 3.65625 
Q 12.359375 3.8125 13.8125 4.203125 
Q 14.984375 4.640625 15.71875 6.890625 
L 29.390625 61.8125 
Q 29.59375 62.796875 29.59375 63.1875 
Q 29.59375 64.265625 28.421875 64.40625 
Q 26.515625 64.796875 21.1875 64.796875 
Q 20.21875 64.796875 20.21875 66.109375 
Q 20.265625 66.359375 20.40625 66.96875 
Q 20.5625 67.578125 20.828125 67.9375 
Q 21.09375 68.3125 21.484375 68.3125 
L 57.328125 68.3125 
Q 60.59375 68.3125 63.796875 67.5 
Q 67 66.703125 69.703125 64.9375 
Q 72.40625 63.1875 74 60.5625 
Q 75.59375 57.953125 75.59375 54.5 
Q 75.59375 50.734375 73.65625 47.5 
Q 71.734375 44.28125 68.671875 41.890625 
Q 65.625 39.5 62.078125 37.953125 
Q 58.546875 36.421875 54.6875 35.6875 
Q 57.421875 35.6875 60.21875 34.609375 
Q 63.03125 33.546875 65.234375 31.6875 
Q 67.4375 29.828125 68.78125 27.234375 
Q 70.125 24.65625 70.125 21.6875 
Q 70.125 15.671875 65.921875 10.6875 
Q 61.71875 5.71875 55.34375 2.859375 
Q 48.96875 0 43.015625 0 
z
M 23.390625 4.296875 
Q 23.390625 3.515625 26.8125 3.515625 
L 41.109375 3.515625 
Q 46 3.515625 50.484375 6.21875 
Q 54.984375 8.9375 57.6875 13.421875 
Q 60.40625 17.921875 60.40625 22.796875 
Q 60.40625 25.78125 59.15625 28.4375 
Q 57.90625 31.109375 55.5625 32.640625 
Q 53.21875 34.1875 50.203125 34.1875 
L 30.71875 34.1875 
L 23.78125 6.5 
Q 23.390625 5.125 23.390625 4.296875 
z
M 31.390625 36.8125 
L 46.578125 36.8125 
Q 51.375 36.8125 55.890625 39.25 
Q 60.40625 41.703125 63.25 45.890625 
Q 66.109375 50.09375 66.109375 54.78125 
Q 66.109375 59.125 63.390625 61.953125 
Q 60.6875 64.796875 56.390625 64.796875 
L 42.671875 64.796875 
Q 39.984375 64.796875 39.0625 64.296875 
Q 38.140625 63.8125 37.5 61.375 
z
" id="Cmmi10-66"/>
     </defs>
     <use transform="translate(0 0.6875)" xlink:href="#Cmmi10-66"/>
    </g>
   </g>
   <g id="text_4">
    <!-- $C$ -->
    <g style="fill:#228b22;" transform="translate(150.023077 271.651683)scale(0.1 -0.1)">
     <defs>
      <path d="M 14.59375 21.578125 
Q 14.59375 15.578125 16.90625 11.015625 
Q 19.234375 6.453125 23.65625 3.875 
Q 28.078125 1.3125 34.078125 1.3125 
Q 40.375 1.3125 46.203125 4.53125 
Q 52.046875 7.765625 56.171875 13.15625 
Q 60.296875 18.5625 61.8125 24.609375 
Q 62.015625 25.203125 62.59375 25.203125 
L 63.8125 25.203125 
Q 64.203125 25.203125 64.453125 24.921875 
Q 64.703125 24.65625 64.703125 24.3125 
Q 64.703125 24.21875 64.59375 24.03125 
Q 62.890625 17.09375 57.984375 11.015625 
Q 53.078125 4.9375 46.234375 1.359375 
Q 39.40625 -2.203125 32.171875 -2.203125 
Q 24.359375 -2.203125 18.15625 1.3125 
Q 11.96875 4.828125 8.515625 11.078125 
Q 5.078125 17.328125 5.078125 25.203125 
Q 5.078125 33.59375 8.828125 41.8125 
Q 12.59375 50.046875 18.9375 56.46875 
Q 25.296875 62.890625 33.421875 66.703125 
Q 41.546875 70.515625 49.90625 70.515625 
Q 53.21875 70.515625 56.25 69.5 
Q 59.28125 68.5 61.859375 66.453125 
Q 64.453125 64.40625 66.109375 61.71875 
L 74.03125 70.3125 
Q 74.03125 70.515625 74.515625 70.515625 
L 75.09375 70.515625 
Q 75.484375 70.515625 75.734375 70.171875 
Q 75.984375 69.828125 75.984375 69.484375 
L 69.1875 42.484375 
Q 69.1875 41.796875 68.40625 41.796875 
L 66.609375 41.796875 
Q 65.828125 41.796875 65.828125 42.921875 
Q 66.21875 45.125 66.21875 48.1875 
Q 66.21875 53.078125 64.546875 57.390625 
Q 62.890625 61.71875 59.390625 64.359375 
Q 55.90625 67 50.875 67 
Q 42.71875 67 35.9375 62.890625 
Q 29.15625 58.796875 24.4375 52.125 
Q 19.734375 45.453125 17.15625 37.328125 
Q 14.59375 29.203125 14.59375 21.578125 
z
" id="Cmmi10-67"/>
     </defs>
     <use transform="translate(0 0.484375)" xlink:href="#Cmmi10-67"/>
    </g>
   </g>
   <g id="patch_9">
    <path clip-path="url(#p5ef1d06352)" d="M 138.046154 200.353846 
C 154.570347 200.353846 170.419977 193.788715 182.104346 182.104346 
C 193.788715 170.419977 200.353846 154.570347 200.353846 138.046154 
C 200.353846 121.521961 193.788715 105.672331 182.104346 93.987962 
C 170.419977 82.303593 154.570347 75.738462 138.046154 75.738462 
C 121.521961 75.738462 105.672331 82.303593 93.987962 93.987962 
C 82.303593 105.672331 75.738462 121.521961 75.738462 138.046154 
C 75.738462 154.570347 82.303593 170.419977 93.987962 182.104346 
C 105.672331 193.788715 121.521961 200.353846 138.046154 200.353846 
z
" style="fill:none;stroke:#0000ff;stroke-linejoin:miter;"/>
   </g>
   <g id="patch_10">
    <path clip-path="url(#p5ef1d06352)" d="M 200.353846 200.353846 
C 216.878039 200.353846 232.727669 193.788715 244.412038 182.104346 
C 256.096407 170.419977 262.661538 154.570347 262.661538 138.046154 
C 262.661538 121.521961 256.096407 105.672331 244.412038 93.987962 
C 232.727669 82.303593 216.878039 75.738462 200.353846 75.738462 
C 183.829653 75.738462 167.980023 82.303593 156.295654 93.987962 
C 144.611285 105.672331 138.046154 121.521961 138.046154 138.046154 
C 138.046154 154.570347 144.611285 170.419977 156.295654 182.104346 
C 167.980023 193.788715 183.829653 200.353846 200.353846 200.353846 
z
" style="fill:none;stroke:#ff0000;stroke-linejoin:miter;"/>
   </g>
   <g id="patch_11">
    <path clip-path="url(#p5ef1d06352)" d="M 169.2 262.661538 
C 185.724193 262.661538 201.573823 256.096407 213.258192 244.412038 
C 224.942561 232.727669 231.507692 216.878039 231.507692 200.353846 
C 231.507692 183.829653 224.942561 167.980023 213.258192 156.295654 
C 201.573823 144.611285 185.724193 138.046154 169.2 138.046154 
C 152.675807 138.046154 136.826177 144.611285 125.141808 156.295654 
C 113.457439 167.980023 106.892308 183.829653 106.892308 200.353846 
C 106.892308 216.878039 113.457439 232.727669 125.141808 244.412038 
C 136.826177 256.096407 152.675807 262.661538 169.2 262.661538 
z
" style="fill:none;stroke:#228b22;stroke-linejoin:miter;"/>
   </g>
  </g>
 </g>
 <defs>
  <clipPath id="p5ef1d06352">
   <rect height="324" width="324" x="7.2" y="7.2"/>
  </clipPath>
 </defs>
</svg>
