<?xml version="1.0" encoding="utf-8" standalone="no"?>
<!DOCTYPE svg PUBLIC "-//W3C//DTD SVG 1.1//EN"
  "http://www.w3.org/Graphics/SVG/1.1/DTD/svg11.dtd">
<!-- Created with matplotlib (https://matplotlib.org/) -->
<svg height="338.4pt" version="1.1" viewBox="0 0 338.4 338.4" width="338.4pt" xmlns="http://www.w3.org/2000/svg" xmlns:xlink="http://www.w3.org/1999/xlink">
 <metadata>
  <rdf:RDF xmlns:cc="http://creativecommons.org/ns#" xmlns:dc="http://purl.org/dc/elements/1.1/" xmlns:rdf="http://www.w3.org/1999/02/22-rdf-syntax-ns#">
   <cc:Work>
    <dc:type rdf:resource="http://purl.org/dc/dcmitype/StillImage"/>
    <dc:date>2021-08-17T17:51:47.124982</dc:date>
    <dc:format>image/svg+xml</dc:format>
    <dc:creator>
     <cc:Agent>
      <dc:title>Matplotlib v3.3.4, https://matplotlib.org/</dc:title>
     </cc:Agent>
    </dc:creator>
   </cc:Work>
  </rdf:RDF>
 </metadata>
 <defs>
  <style type="text/css">*{stroke-linecap:butt;stroke-linejoin:round;}</style>
 </defs>
 <g id="figure_1">
  <g id="patch_1">
   <path d="M -0 338.4 
L 338.4 338.4 
L 338.4 0 
L -0 0 
z
" style="fill:#ffffff;"/>
  </g>
  <g id="axes_1">
   <g id="patch_2">
    <path d="M 7.2 331.2 
L 331.2 331.2 
L 331.2 7.2 
L 7.2 7.2 
z
" style="fill:#ffffff;"/>
   </g>
   <g id="patch_3">
    <path clip-path="url(#p7986ebf961)" d="M 13.430769 324.969231 
L 13.430769 13.430769 
L 324.969231 13.430769 
L 324.969231 324.969231 
z
" style="fill:none;stroke:#000000;stroke-linejoin:miter;"/>
   </g>
   <g id="patch_4">
    <path clip-path="url(#p7986ebf961)" d="M 200.353846 146.393802 
L 199.862926 146.113331 
L 199.300303 145.799101 
L 198.81435 145.533788 
L 198.378672 145.300657 
L 198.234042 145.224245 
L 197.415173 144.800695 
L 197.166199 144.674943 
L 196.594523 144.39146 
L 196.326507 144.261056 
L 195.665937 143.946376 
L 195.222893 143.740618 
L 194.948556 143.615319 
L 194.442171 143.388231 
L 193.589653 143.018051 
L 193.239791 142.870484 
L 192.707368 142.650708 
L 192.176815 142.437402 
L 191.71815 142.257535 
L 191.455966 142.156591 
L 190.987667 141.979656 
L 190.528135 141.810194 
L 189.867669 141.573782 
L 189.528735 141.455705 
L 188.903777 141.243697 
L 188.788547 141.205411 
L 188.31908 141.051997 
L 187.867313 140.908241 
L 187.352646 140.749065 
L 186.833134 140.593315 
L 186.318839 140.443965 
L 185.682226 140.265705 
L 185.132917 140.117722 
L 184.68945 140.002165 
L 184.354866 139.91728 
L 183.9771 139.823805 
L 183.39889 139.685568 
L 182.866472 139.563419 
L 182.453492 139.472047 
L 181.970443 139.368895 
L 181.639787 139.300589 
L 181.105511 139.194159 
L 180.662802 139.109641 
L 180.228214 139.029895 
L 179.660875 138.930572 
L 179.152753 138.846194 
L 178.597624 138.758934 
L 178.455721 138.737451 
L 177.89975 138.656497 
L 177.541624 138.607058 
L 176.646911 138.492776 
L 176.411034 138.464837 
L 176.158907 138.43598 
L 175.247614 138.340341 
L 174.84038 138.301976 
L 174.727913 138.291855 
L 173.959586 138.228208 
L 173.571759 138.199713 
L 173.005172 138.162455 
L 172.827914 138.151863 
L 171.963945 138.107488 
L 171.47986 138.087878 
L 171.322878 138.082329 
L 170.836355 138.067645 
L 170.528179 138.060311 
L 169.935506 138.050495 
L 169.455763 138.046679 
L 168.996707 138.046485 
L 168.525705 138.049803 
L 168.182023 138.05447 
L 167.61745 138.066255 
L 167.059206 138.082942 
L 166.604064 138.100255 
L 166.283582 138.114445 
L 165.737897 138.142413 
L 165.011403 138.187101 
L 164.788538 138.202519 
L 164.144451 138.251592 
L 163.631355 138.295497 
L 163.128369 138.342687 
L 162.938177 138.361604 
L 162.495037 138.407967 
L 161.945123 138.469961 
L 161.237333 138.557046 
L 160.873513 138.605015 
L 160.607973 138.641403 
L 160.150245 138.706864 
L 159.379025 138.825016 
L 159.075079 138.874301 
L 158.627964 138.949607 
L 158.145171 139.034687 
L 157.386518 139.176316 
L 156.938761 139.264481 
L 156.720126 139.308771 
L 156.193362 139.418833 
L 155.513523 139.56792 
L 155.275298 139.622049 
L 154.748907 139.745147 
L 154.424601 139.82339 
L 153.985417 139.932286 
L 153.58069 140.035643 
L 152.866836 140.225015 
L 152.219923 140.404488 
L 151.931204 140.487017 
L 151.730836 140.545178 
L 151.129618 140.724073 
L 150.625577 140.879151 
L 150.29049 140.98484 
L 149.527312 141.233343 
L 149.341171 141.295608 
L 148.702658 141.51417 
L 148.200154 141.691635 
L 147.731605 141.861483 
L 147.280841 142.028903 
L 146.79718 142.212964 
L 146.283184 142.413635 
L 145.721366 142.63901 
L 145.542129 142.71225 
L 144.884837 142.986422 
L 144.482406 143.158662 
L 144.130334 143.312104 
L 143.33045 143.670384 
L 143.005396 143.819863 
L 142.547058 144.034496 
L 142.092496 144.25187 
L 141.63308 144.476181 
L 141.344974 144.619242 
L 140.826419 144.881435 
L 140.386361 145.108731 
L 139.819772 145.407957 
L 139.493466 145.583687 
L 138.644642 146.052662 
L 138.126498 146.347495 
L 138.082208 146.373002 
L 137.227255 146.874952 
L 137.09153 146.95633 
L 136.398656 147.379132 
L 135.953429 147.657414 
L 135.64507 147.853225 
L 135.270127 148.094758 
L 134.497087 148.604872 
L 133.974128 148.959426 
L 133.583974 149.229026 
L 133.338537 149.400888 
L 132.715095 149.845429 
L 132.07843 150.311488 
L 131.563271 150.697778 
L 131.286538 150.908746 
L 131.070366 151.075255 
L 130.294965 151.685101 
L 130.015105 151.910141 
L 129.530674 152.306025 
L 128.876135 152.85401 
L 128.477834 153.195032 
L 128.077165 153.544008 
L 127.539424 154.021947 
L 127.071476 154.447028 
L 126.818104 154.680841 
L 126.354309 155.11564 
L 125.661583 155.781941 
L 125.015297 156.42253 
L 124.82898 156.610719 
L 124.2527 157.203079 
L 123.978 157.491051 
L 123.215351 158.31029 
L 122.685339 158.897425 
L 122.401709 159.21787 
L 121.742787 159.979826 
L 121.271959 160.539886 
L 120.765823 161.157176 
L 120.474648 161.51973 
L 120.035628 162.077051 
L 119.472051 162.812142 
L 119.163439 163.224463 
L 118.826926 163.682304 
L 118.386353 164.295258 
L 117.945779 164.924292 
L 117.606751 165.419835 
L 117.459126 165.638857 
L 117.0798 166.21101 
L 116.700474 166.797203 
L 116.377592 167.307791 
L 116.054711 167.829597 
L 116.008051 167.905964 
L 115.602735 168.579931 
L 115.197419 169.273792 
L 114.869148 169.851271 
L 114.559578 170.409351 
L 114.250007 170.981295 
L 113.794193 171.850424 
L 113.675811 172.081723 
L 113.4171 172.595665 
L 113.158389 173.121763 
L 112.861112 173.742228 
L 112.563834 174.380913 
L 112.266168 175.04007 
L 112.025945 175.587419 
L 111.785721 176.149526 
L 111.549434 176.717841 
L 111.313146 177.302584 
L 111.130425 177.766837 
L 110.947703 178.242346 
L 110.764982 178.729851 
L 110.58226 179.230184 
L 110.415719 179.698173 
L 110.249178 180.178389 
L 110.066588 180.719994 
L 109.883999 181.278717 
L 109.70141 181.856109 
L 109.51882 182.453977 
L 109.303167 183.18941 
L 109.164774 183.67991 
L 109.026381 184.186467 
L 108.887989 184.710643 
L 108.749596 185.254271 
L 108.633792 185.72569 
L 108.517988 186.213765 
L 108.402183 186.720285 
L 108.286379 187.247386 
L 108.200709 187.652074 
L 108.115039 188.070685 
L 108.029369 188.504694 
L 107.943699 188.955861 
L 107.858029 189.426309 
L 107.772359 189.918647 
L 107.686689 190.436133 
L 107.601018 190.982934 
L 107.551817 191.31227 
L 107.502616 191.654342 
L 107.464472 191.929292 
L 107.426328 192.213702 
L 107.388184 192.508601 
L 107.350039 192.815221 
L 107.311895 193.135053 
L 107.273751 193.46994 
L 107.235606 193.822197 
L 107.197462 194.194803 
L 107.159318 194.591705 
L 107.121173 195.018322 
L 107.102101 195.245079 
L 107.083029 195.482455 
L 107.063957 195.732084 
L 107.044885 195.996073 
L 107.025813 196.277211 
L 107.006741 196.579326 
L 106.987668 196.907932 
L 106.968596 197.271491 
L 106.949524 197.684244 
L 106.930452 198.173958 
L 106.91138 198.812315 
L 106.892308 200.353846 
L 106.892308 84.086109 
L 107.146495 83.94015 
L 107.826412 83.557479 
L 108.417279 83.233945 
L 108.671372 83.097353 
L 109.29533 82.768322 
L 109.653459 82.583523 
L 110.032806 82.390958 
L 110.441026 82.187355 
L 110.920153 81.953119 
L 111.813498 81.529818 
L 112.219166 81.343286 
L 112.457309 81.23542 
L 112.910185 81.033597 
L 113.408475 80.8165 
L 113.960155 80.582137 
L 114.436061 80.384971 
L 114.801014 80.236881 
L 115.46701 79.97352 
L 115.857171 79.823327 
L 116.318851 79.649469 
L 116.776851 79.481102 
L 117.175777 79.337757 
L 117.760752 79.133074 
L 118.393332 78.919044 
L 118.775919 78.79325 
L 119.182077 78.662695 
L 119.680636 78.506619 
L 120.092812 78.381038 
L 120.364716 78.299896 
L 120.904171 78.142891 
L 121.536565 77.965525 
L 121.767304 77.902596 
L 122.278687 77.76651 
L 122.979354 77.587572 
L 123.517 77.45612 
L 123.983759 77.346091 
L 124.379632 77.255738 
L 124.65238 77.195062 
L 125.125304 77.092892 
L 125.470076 77.020825 
L 126.378361 76.840671 
L 126.385585 76.839294 
L 126.941785 76.735947 
L 127.788187 76.588667 
L 128.175635 76.525252 
L 128.291341 76.506799 
L 129.163055 76.374936 
L 129.280572 76.358123 
L 129.789859 76.287898 
L 130.602682 76.18467 
L 130.784006 76.163121 
L 131.237381 76.111599 
L 131.920147 76.040343 
L 132.170027 76.016164 
L 132.783968 75.961068 
L 133.204884 75.926828 
L 133.507738 75.903968 
L 134.159815 75.859782 
L 134.625786 75.832413 
L 134.979663 75.813966 
L 135.39661 75.794821 
L 135.899541 75.77545 
L 136.618009 75.754831 
L 137.027398 75.746791 
L 137.228511 75.743827 
L 137.982575 75.738494 
L 138.51785 75.740247 
L 138.840965 75.743531 
L 139.45686 75.754433 
L 139.831459 75.764044 
L 140.257998 75.777733 
L 140.721727 75.795934 
L 141.29011 75.822965 
L 141.473613 75.832803 
L 142.112009 75.871261 
L 142.646483 75.90852 
L 142.910733 75.928649 
L 143.396171 75.968575 
L 144.160247 76.039167 
L 144.318268 76.054952 
L 144.850638 76.111127 
L 145.170484 76.147103 
L 146.098513 76.260977 
L 146.129941 76.265081 
L 146.685233 76.34028 
L 147.070551 76.395454 
L 147.788768 76.504867 
L 148.34073 76.594789 
L 148.52054 76.625182 
L 149.203391 76.745545 
L 149.451482 76.791219 
L 150.111914 76.917879 
L 150.518435 76.999526 
L 150.878173 77.074129 
L 151.567226 77.223221 
L 152.046678 77.331791 
L 152.222487 77.3726 
L 152.818931 77.515058 
L 153.231003 77.617114 
L 153.633676 77.719728 
L 154.388595 77.919844 
L 154.604719 77.979004 
L 155.220574 78.152182 
L 155.51452 78.237252 
L 156.009863 78.384159 
L 156.903428 78.660535 
L 156.942186 78.672856 
L 157.447488 78.836047 
L 158.20563 79.089865 
L 158.574149 79.217165 
L 158.905035 79.333671 
L 159.291861 79.472538 
L 159.867966 79.684719 
L 160.355885 79.869488 
L 160.820631 80.049846 
L 161.29075 80.236663 
L 161.611132 80.366518 
L 162.103606 80.570181 
L 162.698596 80.822858 
L 163.220822 81.050675 
L 163.925381 81.367109 
L 164.182824 81.485364 
L 164.463148 81.615746 
L 164.996822 81.868667 
L 165.718227 82.220489 
L 166.248298 82.486388 
L 166.683936 82.709675 
L 166.986344 82.867227 
L 167.297103 83.031333 
L 167.858102 83.333301 
L 168.537072 83.708759 
L 168.703168 83.802297 
L 169.576752 84.305388 
L 169.890978 84.490989 
L 170.341956 84.761731 
L 170.680727 84.968539 
L 171.000448 85.166451 
L 171.596033 85.542305 
L 172.322575 86.013708 
L 172.749163 86.297244 
L 173.007046 86.471116 
L 173.807944 87.023189 
L 174.173765 87.281558 
L 174.400483 87.443671 
L 174.90242 87.808079 
L 175.696767 88.400611 
L 175.92466 88.57427 
L 176.405542 88.946196 
L 176.929204 89.359843 
L 177.212185 89.587197 
L 177.779562 90.051313 
L 178.055016 90.280691 
L 178.566436 90.713763 
L 179.366152 91.410263 
L 179.540823 91.56561 
L 180.273055 92.22981 
L 180.632528 92.563748 
L 181.1891 93.091346 
L 181.774017 93.660092 
L 182.112431 93.996049 
L 182.734373 94.62713 
L 182.888475 94.786303 
L 183.226488 95.139442 
L 183.856897 95.813177 
L 184.212104 96.201757 
L 184.642851 96.681962 
L 185.073597 97.172346 
L 185.166442 97.279415 
L 185.755057 97.969864 
L 186.201644 98.5076 
L 186.710286 99.135348 
L 187.105563 99.63492 
L 187.662604 100.357212 
L 188.21985 101.102294 
L 188.797447 101.899857 
L 189.255683 102.552032 
L 189.728769 103.24449 
L 189.841213 103.412061 
L 190.185724 103.932905 
L 190.530235 104.465359 
L 191.083878 105.346791 
L 191.273563 105.656473 
L 191.694554 106.358653 
L 192.090634 107.039015 
L 192.486715 107.739821 
L 192.801974 108.313197 
L 193.170497 109.00213 
L 193.53902 109.7126 
L 193.920169 110.471837 
L 194.115392 110.870998 
L 194.45766 111.588821 
L 194.799929 112.331225 
L 194.955542 112.677471 
L 195.259211 113.369959 
L 195.562881 114.086299 
L 195.916991 114.954711 
L 196.094046 115.403478 
L 196.271101 115.862735 
L 196.512694 116.507533 
L 196.754287 117.175035 
L 196.920486 117.648568 
L 197.086685 118.134745 
L 197.255635 118.642909 
L 197.424584 119.166257 
L 197.613477 119.770965 
L 197.80237 120.398401 
L 197.96108 120.94498 
L 198.11979 121.511137 
L 198.2785 122.098959 
L 198.43721 122.710937 
L 198.556297 123.187785 
L 198.675384 123.68144 
L 198.794471 124.193699 
L 198.913558 124.726707 
L 198.992985 125.095005 
L 199.072413 125.474589 
L 199.15184 125.866515 
L 199.231268 126.272015 
L 199.334125 126.819704 
L 199.436981 127.396514 
L 199.539838 128.007463 
L 199.591266 128.327737 
L 199.642695 128.659213 
L 199.694123 129.003124 
L 199.745552 129.360946 
L 199.79698 129.734476 
L 199.848408 130.125936 
L 199.899837 130.538129 
L 199.951265 130.974682 
L 200.002694 131.440421 
L 200.028408 131.686223 
L 200.054122 131.942023 
L 200.091587 132.335402 
L 200.129053 132.758228 
L 200.147786 132.982969 
L 200.166518 133.218233 
L 200.185251 133.465642 
L 200.203984 133.72728 
L 200.222717 134.005914 
L 200.24145 134.305337 
L 200.260182 134.631014 
L 200.269549 134.806146 
L 200.278915 134.99133 
L 200.288281 135.18852 
L 200.297648 135.4004 
L 200.307014 135.630831 
L 200.316381 135.885742 
L 200.325747 136.175112 
L 200.335113 136.518397 
L 200.34448 136.965826 
L 200.353846 138.046154 
z
" style="fill:#808080;opacity:0.5;"/>
   </g>
   <g id="patch_5">
    <path clip-path="url(#p7986ebf961)" d="M 75.738462 138.046154 
L 75.738462 138.046154 
L 75.741833 137.397976 
L 75.745205 137.129504 
L 75.748576 136.923507 
L 75.751948 136.74985 
L 75.755319 136.596862 
L 75.758691 136.458555 
L 75.762062 136.331375 
L 75.765434 136.213002 
L 75.768805 136.101829 
L 75.772177 135.996684 
L 75.775549 135.896681 
L 75.77892 135.801133 
L 75.782292 135.709493 
L 75.785663 135.621319 
L 75.792406 135.453967 
L 75.799149 135.296799 
L 75.805892 135.148158 
L 75.812636 135.006792 
L 75.819379 134.87173 
L 75.826122 134.742198 
L 75.832865 134.61757 
L 75.839608 134.497328 
L 75.846351 134.381042 
L 75.8536 134.260019 
L 75.86085 134.14276 
L 75.868099 134.028935 
L 75.875349 133.91826 
L 75.889848 133.705404 
L 75.904346 133.502555 
L 75.918845 133.308428 
L 75.933344 133.12199 
L 75.947843 132.9424 
L 75.962342 132.768957 
L 75.976841 132.601075 
L 75.99134 132.438254 
L 76.005838 132.280065 
L 76.020337 132.126138 
L 76.034836 131.976146 
L 76.049335 131.829807 
L 76.063834 131.686868 
L 76.078333 131.547104 
L 76.096824 131.37314 
L 76.115316 131.203648 
L 76.133808 131.038303 
L 76.1523 130.876818 
L 76.173584 130.695393 
L 76.194869 130.5184 
L 76.216153 130.345532 
L 76.237438 130.176519 
L 76.258722 130.011116 
L 76.280007 129.849105 
L 76.322576 129.534489 
L 76.352213 129.322268 
L 76.38185 129.115187 
L 76.411487 128.912896 
L 76.441124 128.715083 
L 76.470762 128.521471 
L 76.500399 128.331806 
L 76.530036 128.145863 
L 76.559673 127.963436 
L 76.594235 127.754886 
L 76.628797 127.550594 
L 76.663359 127.350314 
L 76.697921 127.153826 
L 76.739335 126.923093 
L 76.780749 126.697202 
L 76.847663 126.341745 
L 76.914576 125.997142 
L 76.98806 125.630128 
L 77.061544 125.274078 
L 77.135029 124.9281 
L 77.208513 124.591417 
L 77.281245 124.266663 
L 77.342399 123.999706 
L 77.403553 123.737991 
L 77.464708 123.481234 
L 77.525862 123.229178 
L 77.605181 122.90887 
L 77.684501 122.595608 
L 77.790388 122.18768 
L 77.863023 121.914221 
L 77.935658 121.645642 
L 78.043416 121.25568 
L 78.151175 120.875247 
L 78.208278 120.6773 
L 78.275368 120.447812 
L 78.342458 120.22153 
L 78.449857 119.865671 
L 78.557256 119.517268 
L 78.662633 119.182272 
L 78.768011 118.853701 
L 78.852226 118.595513 
L 78.936441 118.341068 
L 79.086412 117.896777 
L 79.172435 117.646798 
L 79.258457 117.400204 
L 79.38943 117.030986 
L 79.478057 116.785237 
L 79.581949 116.501195 
L 79.68584 116.221344 
L 79.796538 115.927592 
L 79.913063 115.623125 
L 80.051187 115.268263 
L 80.192305 114.91218 
L 80.333424 114.562344 
L 80.427028 114.333607 
L 80.593373 113.933367 
L 80.708144 113.661708 
L 80.822916 113.393577 
L 80.839069 113.356117 
L 81.043009 112.888849 
L 81.173164 112.595977 
L 81.338607 112.229442 
L 81.472094 111.93822 
L 81.60558 111.650886 
L 81.689526 111.472124 
L 81.781182 111.278608 
L 81.990231 110.843543 
L 82.174887 110.466269 
L 82.253543 110.307496 
L 82.443305 109.929046 
L 82.604696 109.612137 
L 82.828891 109.179176 
L 82.964208 108.921803 
L 83.041856 108.775422 
L 83.259189 108.370626 
L 83.348428 108.20646 
L 83.550976 107.83814 
L 83.729164 107.518901 
L 83.833691 107.333657 
L 83.989118 107.060908 
L 84.145908 106.788962 
L 84.420923 106.319459 
L 84.572392 106.064826 
L 84.613803 105.995687 
L 84.750833 105.768339 
L 84.964981 105.417369 
L 85.072344 105.243348 
L 85.304228 104.871799 
L 85.472003 104.606548 
L 85.540152 104.499645 
L 85.784757 104.119838 
L 85.956276 103.857075 
L 86.039871 103.730049 
L 86.188692 103.505567 
L 86.435531 103.137815 
L 86.470575 103.086059 
L 86.71568 102.727165 
L 86.847901 102.535769 
L 87.035163 102.267287 
L 87.199247 102.03448 
L 87.378494 101.782718 
L 87.482447 101.637911 
L 87.706823 101.328307 
L 87.808636 101.189128 
L 87.944388 101.004805 
L 88.162572 100.711494 
L 88.226584 100.626119 
L 88.389035 100.410811 
L 88.513784 100.246778 
L 88.728218 99.967423 
L 88.920403 99.719803 
L 89.055568 99.547179 
L 89.178407 99.391376 
L 89.400972 99.111661 
L 89.490094 99.00057 
L 89.725714 98.709356 
L 89.895977 98.501128 
L 89.974045 98.406264 
L 90.181254 98.156307 
L 90.303215 98.010416 
L 90.516405 97.757552 
L 90.6442 97.607271 
L 90.773667 97.456001 
L 90.971021 97.227281 
L 91.072421 97.110632 
L 91.204186 96.959921 
L 91.384894 96.754807 
L 91.490486 96.635789 
L 91.758127 96.336837 
L 91.940952 96.134832 
L 91.949662 96.125252 
L 92.131297 95.92639 
L 92.39455 95.641206 
L 92.484158 95.544941 
L 92.708385 95.30583 
L 92.749534 95.262223 
L 92.961616 95.038794 
L 93.080184 94.914842 
L 93.20631 94.783735 
L 93.448449 94.534165 
L 93.600669 94.37869 
L 93.667563 94.310708 
L 93.938478 94.037502 
L 94.02878 93.947182 
L 94.203368 93.773604 
L 94.378628 93.60073 
L 94.447142 93.533519 
L 94.63719 93.348163 
L 94.799946 93.190675 
L 95.024012 92.975722 
L 95.228503 92.781407 
L 95.232224 92.777887 
L 95.527896 92.500064 
L 95.561903 92.468341 
L 95.730254 92.311997 
L 95.923455 92.13399 
L 96.048474 92.019603 
L 96.233752 91.851224 
L 96.359904 91.737352 
L 96.547222 91.569416 
L 96.718572 91.416984 
L 96.905927 91.2516 
L 97.041804 91.13249 
L 97.132329 91.053522 
L 97.363845 90.852953 
L 97.546071 90.696478 
L 97.713585 90.553708 
L 97.80233 90.478485 
L 97.895161 90.400102 
L 98.111772 90.218404 
L 98.259837 90.095163 
L 98.422221 89.960891 
L 98.62283 89.796283 
L 98.790883 89.659459 
L 98.960974 89.521962 
L 99.070496 89.433947 
L 99.201446 89.329245 
L 99.437239 89.142164 
L 99.527973 89.070667 
L 99.696235 88.938799 
L 99.835414 88.830426 
L 99.967516 88.728147 
L 100.231462 88.525475 
L 100.379928 88.412456 
L 100.542945 88.289166 
L 100.706074 88.166629 
L 100.812123 88.087416 
L 100.923766 88.004403 
L 101.160382 87.829739 
L 101.255715 87.759852 
L 101.415719 87.64318 
L 101.533892 87.557509 
L 101.690119 87.444896 
L 101.926452 87.27593 
L 101.961435 87.25106 
L 102.168741 87.104425 
L 102.416848 86.930588 
L 102.508658 86.866715 
L 102.643149 86.77359 
L 102.830179 86.644951 
L 103.052256 86.493505 
L 103.158345 86.421651 
L 103.325706 86.308943 
L 103.524944 86.175791 
L 103.630481 86.105708 
L 103.686815 86.068424 
L 103.929199 85.909009 
L 104.072572 85.815471 
L 104.212336 85.724826 
L 104.328993 85.649574 
L 104.561495 85.500686 
L 104.695643 85.415441 
L 104.864572 85.308775 
L 105.029728 85.205221 
L 105.102701 85.159696 
L 105.294419 85.040755 
L 105.429294 84.957653 
L 105.567247 84.873142 
L 105.795474 84.734409 
L 106.003603 84.609056 
L 106.165288 84.512436 
L 106.339823 84.40888 
L 106.412939 84.365727 
L 106.582335 84.266264 
L 106.702983 84.19586 
L 106.892308 84.086109 
L 106.892308 138.046154 
z
" style="fill:#808080;opacity:0.5;"/>
   </g>
   <g id="patch_6">
    <path clip-path="url(#p7986ebf961)" d="M 75.738462 138.046154 
L 75.738462 138.046154 
L 75.742546 138.75958 
L 75.746631 139.055075 
L 75.750715 139.281805 
L 75.7548 139.472937 
L 75.758884 139.64132 
L 75.762969 139.793542 
L 75.767053 139.933518 
L 75.771138 140.063798 
L 75.775222 140.186153 
L 75.779307 140.301874 
L 75.783391 140.411934 
L 75.787476 140.517091 
L 75.79156 140.617944 
L 75.795645 140.714983 
L 75.803814 140.899159 
L 75.811983 141.072123 
L 75.820152 141.235701 
L 75.828321 141.391269 
L 75.83649 141.539899 
L 75.844659 141.682439 
L 75.852828 141.819582 
L 75.860997 141.951895 
L 75.869166 142.079853 
L 75.880663 142.253321 
L 75.89216 142.419883 
L 75.903656 142.580302 
L 75.915153 142.735208 
L 75.926649 142.88513 
L 75.938146 143.030518 
L 75.949643 143.171758 
L 75.961139 143.309185 
L 75.972636 143.443088 
L 75.984133 143.573725 
L 76.007126 143.826078 
L 76.030119 144.067778 
L 76.053112 144.300059 
L 76.076526 144.527951 
L 76.099939 144.748015 
L 76.123352 144.961001 
L 76.146765 145.167542 
L 76.175012 145.408922 
L 76.20326 145.642532 
L 76.231507 145.869066 
L 76.259754 146.089123 
L 76.288002 146.303221 
L 76.316249 146.511812 
L 76.344496 146.715293 
L 76.372744 146.914017 
L 76.397241 147.082751 
L 76.421739 147.248327 
L 76.470734 147.570659 
L 76.519729 147.882189 
L 76.568724 148.183914 
L 76.609538 148.428389 
L 76.650353 148.667081 
L 76.689259 148.889581 
L 76.728164 149.107469 
L 76.76707 149.321013 
L 76.805976 149.530456 
L 76.872769 149.881081 
L 76.939561 150.221246 
L 76.984339 150.443865 
L 77.029116 150.662397 
L 77.073893 150.877051 
L 77.11867 151.088019 
L 77.18468 151.392671 
L 77.25069 151.690204 
L 77.306182 151.935157 
L 77.361675 152.175645 
L 77.417167 152.411895 
L 77.47266 152.64411 
L 77.562858 153.013434 
L 77.616733 153.229489 
L 77.670608 153.442323 
L 77.778358 153.85885 
L 77.861985 154.174214 
L 77.945611 154.483104 
L 78.009887 154.716343 
L 78.074163 154.946119 
L 78.176376 155.304722 
L 78.249394 155.556039 
L 78.322413 155.803499 
L 78.395432 156.047262 
L 78.468451 156.287475 
L 78.536177 156.507225 
L 78.666162 156.92114 
L 78.766671 157.23447 
L 78.867181 157.542247 
L 78.961409 157.825977 
L 79.109899 158.264126 
L 79.25839 158.691911 
L 79.358899 158.975908 
L 79.465069 159.271258 
L 79.597287 159.632689 
L 79.729505 159.987371 
L 79.816399 160.21695 
L 79.917027 160.479457 
L 80.061803 160.851057 
L 80.206924 161.216652 
L 80.348444 161.566843 
L 80.489964 161.911056 
L 80.6123 162.203987 
L 80.793058 162.629309 
L 80.84719 162.754999 
L 80.97731 163.054064 
L 81.10743 163.348925 
L 81.174708 163.499781 
L 81.328855 163.841435 
L 81.460446 164.128833 
L 81.592037 164.412442 
L 81.609858 164.450567 
L 81.770855 164.791982 
L 81.906048 165.074603 
L 82.041241 165.353631 
L 82.090597 165.454622 
L 82.261468 165.800745 
L 82.521725 166.317807 
L 82.655553 166.579115 
L 82.761679 166.784202 
L 82.892088 167.033695 
L 83.104026 167.433415 
L 83.189756 167.593136 
L 83.332611 167.856836 
L 83.513103 168.185744 
L 83.745349 168.602186 
L 83.802906 168.704246 
L 84.013337 169.073613 
L 84.206828 169.408162 
L 84.333177 169.624067 
L 84.443493 169.810966 
L 84.636943 170.135167 
L 84.782304 170.375875 
L 85.043515 170.802356 
L 85.147323 170.969735 
L 85.247004 171.129356 
L 85.46683 171.477625 
L 85.652349 171.767626 
L 85.782666 171.969249 
L 85.950648 172.226657 
L 86.020183 172.332404 
L 86.191402 172.59081 
L 86.310928 172.769559 
L 86.502684 173.05357 
L 86.75317 173.419567 
L 86.788326 173.47049 
L 87.055546 173.854064 
L 87.224494 174.093448 
L 87.294787 174.192347 
L 87.530276 174.520729 
L 87.657031 174.69564 
L 87.767707 174.847327 
L 87.98659 175.144518 
L 88.041798 175.218898 
L 88.291102 175.551932 
L 88.412377 175.712276 
L 88.607556 175.968094 
L 88.713532 176.105856 
L 88.866537 176.30336 
L 89.029514 176.511951 
L 89.228691 176.764416 
L 89.319822 176.87904 
L 89.493457 177.095919 
L 89.652521 177.292871 
L 89.84204 177.525413 
L 89.987499 177.702355 
L 90.216367 177.978096 
L 90.292584 178.069211 
L 90.426897 178.228922 
L 90.665238 178.509685 
L 90.736874 178.593417 
L 90.922468 178.808965 
L 91.045572 178.950846 
L 91.237738 179.170608 
L 91.379839 179.331788 
L 91.602805 179.582449 
L 91.676981 179.66524 
L 91.803181 179.805416 
L 92.088925 180.11968 
L 92.234929 180.278608 
L 92.331056 180.382643 
L 92.42003 180.478516 
L 92.717235 180.795863 
L 92.761169 180.8424 
L 93.033165 181.128393 
L 93.157866 181.258307 
L 93.220035 181.322794 
L 93.441068 181.550577 
L 93.601015 181.71397 
L 93.710147 181.824768 
L 93.82258 181.93834 
L 94.010982 182.127354 
L 94.183333 182.298854 
L 94.325191 182.439013 
L 94.492971 182.603632 
L 94.674621 182.780466 
L 94.880213 182.978882 
L 95.056286 183.147371 
L 95.135889 183.223114 
L 95.276173 183.355946 
L 95.501029 183.567148 
L 95.60366 183.662853 
L 95.75753 183.805533 
L 96.0104 184.037934 
L 96.075128 184.097012 
L 96.228256 184.236109 
L 96.480712 184.463419 
L 96.582692 184.554539 
L 96.718555 184.675308 
L 96.935977 184.86711 
L 96.962232 184.890149 
L 97.227335 185.121334 
L 97.307744 185.190936 
L 97.522939 185.376034 
L 97.651528 185.485829 
L 97.857929 185.660806 
L 97.973276 185.757924 
L 98.07885 185.846396 
L 98.276467 186.010938 
L 98.388183 186.103348 
L 98.545558 186.232786 
L 98.754463 186.403279 
L 98.840981 186.47345 
L 99.061897 186.651465 
L 99.273506 186.820433 
L 99.303902 186.84458 
L 99.517925 187.013736 
L 99.696934 187.154054 
L 99.790818 187.227225 
L 100.073873 187.446097 
L 100.096253 187.463292 
L 100.310481 187.627073 
L 100.539272 187.800373 
L 100.698458 187.919976 
L 100.762893 187.968163 
L 100.934934 188.096188 
L 101.047728 188.179626 
L 101.294827 188.361047 
L 101.423385 188.454698 
L 101.639834 188.611245 
L 101.727408 188.674182 
L 101.816984 188.73832 
L 101.986249 188.858867 
L 102.209407 189.016499 
L 102.393676 189.14556 
L 102.576228 189.272445 
L 102.735759 189.38254 
L 102.803905 189.429346 
L 102.918109 189.507489 
L 103.082358 189.619224 
L 103.365743 189.810211 
L 103.472456 189.881547 
L 103.65457 190.002554 
L 103.691417 190.026925 
L 103.910551 190.171091 
L 104.07517 190.278527 
L 104.182183 190.34797 
L 104.406309 190.492406 
L 104.61313 190.62449 
L 104.708714 190.685147 
L 104.930987 190.825262 
L 104.953851 190.8396 
L 105.1401 190.955889 
L 105.257783 191.028899 
L 105.418277 191.127885 
L 105.682321 191.289283 
L 105.815915 191.370259 
L 106.01496 191.490061 
L 106.081423 191.529838 
L 106.246159 191.62795 
L 106.449268 191.747973 
L 106.53442 191.797983 
L 106.80714 191.956937 
L 106.892308 192.006198 
L 106.892308 138.046154 
z
" style="fill:#808080;opacity:0.5;"/>
   </g>
   <g id="patch_7">
    <path clip-path="url(#p7986ebf961)" d="M 200.353846 138.046154 
L 200.332378 139.681642 
L 200.31091 140.358884 
L 200.289441 140.878415 
L 200.267973 141.316285 
L 200.246505 141.701957 
L 200.225036 142.05054 
L 200.203568 142.371012 
L 200.1821 142.669223 
L 200.160631 142.949236 
L 200.139163 143.214011 
L 200.117695 143.46578 
L 200.096226 143.70628 
L 200.05329 144.158734 
L 200.010353 144.579648 
L 199.967416 144.974774 
L 199.92448 145.348298 
L 199.881543 145.703383 
L 199.838606 146.042486 
L 199.79567 146.36756 
L 199.752733 146.680191 
L 199.709796 146.981684 
L 199.66686 147.273131 
L 199.611256 147.637122 
L 199.555653 147.987483 
L 199.50005 148.325609 
L 199.444446 148.652671 
L 199.33324 149.277433 
L 199.222033 149.868182 
L 199.147165 150.249227 
L 199.072296 150.618284 
L 198.997428 150.976377 
L 198.92256 151.324395 
L 198.805581 151.849796 
L 198.688602 152.354962 
L 198.571623 152.841967 
L 198.454644 153.312549 
L 198.334332 153.780958 
L 198.214021 154.234925 
L 198.093709 154.675635 
L 197.973397 155.104115 
L 197.753445 155.858731 
L 197.568204 156.468262 
L 197.382963 157.056456 
L 197.197722 157.625237 
L 197.012481 158.17625 
L 196.842332 158.667936 
L 196.672184 159.146797 
L 196.382741 159.934305 
L 196.093298 160.690747 
L 195.792696 161.446696 
L 195.492095 162.175232 
L 195.227241 162.796341 
L 194.958386 163.408455 
L 194.689532 164.003354 
L 194.473118 164.470504 
L 194.256703 164.927795 
L 194.002996 165.452 
L 193.669951 166.121796 
L 193.336907 166.77212 
L 192.962701 167.481191 
L 192.518806 168.294769 
L 192.131048 168.982746 
L 191.743291 169.650996 
L 191.21974 170.52412 
L 191.14471 170.646642 
L 190.812211 171.182112 
L 190.479712 171.705781 
L 190.134546 172.237497 
L 189.719171 172.862067 
L 189.175397 173.655829 
L 188.60883 174.455827 
L 188.225763 174.981981 
L 187.833662 175.508835 
L 187.260219 176.259035 
L 186.955036 176.648871 
L 186.284573 177.48349 
L 185.841808 178.018945 
L 185.301574 178.656174 
L 184.9324 179.081851 
L 184.453302 179.622892 
L 183.718566 180.428689 
L 183.324227 180.849713 
L 183.133172 181.050913 
L 182.655756 181.545945 
L 181.821057 182.385825 
L 181.433916 182.764725 
L 181.278245 182.915239 
L 180.683328 183.480942 
L 180.141226 183.983648 
L 179.572928 184.498016 
L 179.345433 184.700393 
L 178.658785 185.29933 
L 178.448412 185.479328 
L 177.849338 185.983144 
L 177.498943 186.271934 
L 176.780732 186.850672 
L 176.547619 187.034782 
L 175.901374 187.535858 
L 175.659092 187.720246 
L 174.842018 188.328485 
L 174.674402 188.450716 
L 173.838058 189.047998 
L 173.612573 189.205497 
L 173.283389 189.432784 
L 172.862931 189.718589 
L 172.348332 190.061624 
L 171.670248 190.502506 
L 171.261164 190.762486 
L 170.592983 191.177618 
L 170.465649 191.255409 
L 170.006869 191.532238 
L 169.565507 191.793516 
L 169.009328 192.115835 
L 168.62521 192.333996 
L 167.991876 192.685904 
L 167.528869 192.937119 
L 166.985777 193.225378 
L 166.334515 193.562072 
L 166.165911 193.647663 
L 165.777949 193.842176 
L 164.98449 194.229555 
L 164.446772 194.484225 
L 163.99493 194.693392 
L 163.90432 194.73481 
L 163.279989 195.015462 
L 162.689351 195.273432 
L 162.095332 195.52559 
L 161.881293 195.614675 
L 161.344056 195.834183 
L 160.95426 195.989809 
L 160.560089 196.144099 
L 159.754714 196.449809 
L 159.342795 196.60127 
L 159.040882 196.710196 
L 158.726717 196.821683 
L 157.983323 197.077991 
L 157.603714 197.204842 
L 157.368975 197.281929 
L 156.711009 197.492531 
L 156.148849 197.666125 
L 155.566986 197.839707 
L 155.196537 197.947013 
L 154.93679 198.020773 
L 154.248538 198.210357 
L 154.082241 198.254894 
L 153.464718 198.415984 
L 152.939998 198.547575 
L 152.329515 198.694601 
L 152.023872 198.765771 
L 151.434426 198.898456 
L 150.855871 199.022868 
L 150.668211 199.061989 
L 150.120557 199.172722 
L 149.641124 199.265474 
L 149.360808 199.317902 
L 148.915943 199.398385 
L 148.39069 199.489128 
L 147.607929 199.615797 
L 147.132634 199.687734 
L 146.764053 199.740941 
L 146.550161 199.770787 
L 145.667223 199.88601 
L 145.272614 199.933364 
L 144.807262 199.985931 
L 144.47314 200.021491 
L 143.811424 200.086545 
L 143.45748 200.118419 
L 143.164414 200.143271 
L 142.421449 200.200038 
L 142.192824 200.215709 
L 141.676909 200.247972 
L 141.239818 200.271945 
L 140.735831 200.295766 
L 140.160276 200.317969 
L 139.675419 200.332541 
L 139.434809 200.33837 
L 138.802519 200.349255 
L 138.136894 200.35378 
L 138.110503 200.353813 
L 137.203071 200.348142 
L 137.174113 200.347743 
L 136.560041 200.336121 
L 136.143825 200.324799 
L 135.401324 200.297687 
L 135.058298 200.282166 
L 134.372926 200.245478 
L 133.988564 200.221587 
L 133.43604 200.183062 
L 133.135607 200.160042 
L 132.736174 200.127171 
L 132.463439 200.103239 
L 131.652076 200.024895 
L 131.331395 199.990972 
L 130.984067 199.952337 
L 130.348613 199.876538 
L 130.004903 199.832777 
L 129.419922 199.753825 
L 128.837818 199.669648 
L 128.383334 199.60002 
L 127.821435 199.509181 
L 127.381598 199.434392 
L 126.929486 199.354132 
L 126.560316 199.286043 
L 126.148905 199.207449 
L 125.733588 199.125195 
L 125.232189 199.021976 
L 124.843991 198.939104 
L 124.318051 198.822693 
L 123.768702 198.695992 
L 123.530218 198.639356 
L 122.690967 198.432135 
L 122.403655 198.358348 
L 121.961263 198.241875 
L 121.287054 198.057662 
L 121.06433 197.995017 
L 120.74499 197.903637 
L 120.052317 197.699069 
L 119.561485 197.548805 
L 119.285863 197.462482 
L 118.813718 197.311337 
L 118.299291 197.141923 
L 117.692213 196.935589 
L 117.115277 196.733008 
L 116.616419 196.552692 
L 116.2183 196.405329 
L 115.675202 196.199305 
L 115.580852 196.162922 
L 114.86541 195.881279 
L 114.599668 195.774057 
L 113.719791 195.40883 
L 113.40887 195.275978 
L 112.864678 195.038625 
L 112.644891 194.941008 
L 112.059788 194.676157 
L 111.457472 194.39587 
L 110.977789 194.167025 
L 110.418413 193.893772 
L 109.963468 193.666396 
L 109.55956 193.460615 
L 109.37812 193.366967 
L 108.951442 193.143761 
L 108.397331 192.847576 
L 107.791777 192.515606 
L 107.290907 192.234375 
L 106.892308 192.006198 
L 106.892308 200.353846 
L 106.90806 201.754821 
L 106.923812 202.334998 
L 106.939565 202.780098 
L 106.955317 203.155264 
L 106.971069 203.485728 
L 106.986821 203.784434 
L 107.002574 204.05907 
L 107.018326 204.314646 
L 107.034078 204.554644 
L 107.049831 204.781595 
L 107.065583 204.997415 
L 107.081335 205.203588 
L 107.11284 205.591503 
L 107.144344 205.952428 
L 107.175849 206.291287 
L 107.207353 206.611665 
L 107.238858 206.91627 
L 107.270363 207.207205 
L 107.301867 207.486144 
L 107.333372 207.754443 
L 107.396381 208.263409 
L 107.453097 208.694621 
L 107.509814 209.104241 
L 107.56653 209.495174 
L 107.623246 209.869723 
L 107.671115 210.174477 
L 107.718983 210.469827 
L 107.81472 211.035414 
L 107.910457 211.571707 
L 108.006193 212.082723 
L 108.10193 212.571636 
L 108.197667 213.041001 
L 108.293404 213.492912 
L 108.389141 213.929114 
L 108.491086 214.377979 
L 108.593032 214.812197 
L 108.694977 215.233051 
L 108.796923 215.641644 
L 108.967389 216.30004 
L 109.137855 216.930556 
L 109.292272 217.480218 
L 109.446688 218.01143 
L 109.601105 218.525808 
L 109.755521 219.024745 
L 109.92868 219.56736 
L 110.101838 220.093547 
L 110.306761 220.696779 
L 110.511684 221.280625 
L 110.714309 221.840412 
L 110.916935 222.384118 
L 111.186635 223.084839 
L 111.456335 223.761488 
L 111.638136 224.205059 
L 111.819937 224.639169 
L 112.18354 225.480958 
L 112.543386 226.282145 
L 112.81182 226.860858 
L 113.153027 227.574892 
L 113.494234 228.266498 
L 113.782665 228.834849 
L 114.071097 229.389213 
L 114.354255 229.920598 
L 114.637414 230.439934 
L 114.735669 230.617442 
L 115.135918 231.326795 
L 115.536167 232.015203 
L 116.032833 232.842319 
L 116.423426 233.473051 
L 116.548758 233.671938 
L 116.863862 234.164749 
L 117.178966 234.647585 
L 117.602004 235.280847 
L 118.227898 236.188094 
L 118.625958 236.74773 
L 119.21038 237.546405 
L 119.528634 237.970384 
L 119.851076 238.392409 
L 120.55245 239.285381 
L 120.913707 239.732552 
L 121.51043 240.453141 
L 121.914374 240.928692 
L 122.51586 241.619323 
L 122.828212 241.970019 
L 123.098292 242.269011 
L 123.681 242.901104 
L 124.374984 243.631629 
L 124.620859 243.884855 
L 125.220991 244.491078 
L 125.484773 244.752354 
L 125.940049 245.196071 
L 126.697689 245.914817 
L 127.058307 246.248576 
L 127.477935 246.630382 
L 128.011501 247.105916 
L 128.619982 247.635034 
L 128.960625 247.925279 
L 129.402036 248.29517 
L 129.759897 248.590003 
L 130.151935 248.907911 
L 130.755018 249.386814 
L 131.344692 249.843483 
L 131.740345 250.143632 
L 132.202164 250.487753 
L 132.554479 250.745853 
L 133.413277 251.359326 
L 133.525476 251.437864 
L 134.099786 251.834167 
L 134.666249 252.215861 
L 134.924399 252.386833 
L 135.681894 252.877984 
L 136.080445 253.130201 
L 136.490129 253.38509 
L 137.118149 253.767359 
L 137.335059 253.897044 
L 137.793281 254.167102 
L 138.506395 254.577006 
L 138.903449 254.799852 
L 139.50679 255.13123 
L 139.878782 255.331248 
L 140.36204 255.586269 
L 140.841345 255.833889 
L 141.376294 256.104092 
L 141.767929 256.297836 
L 142.101511 256.460177 
L 142.745404 256.766636 
L 143.193815 256.974751 
L 143.7569 257.230003 
L 144.067492 257.367928 
L 144.338024 257.486417 
L 145.141204 257.829257 
L 145.434824 257.951285 
L 145.992082 258.178072 
L 146.401704 258.340795 
L 146.68651 258.451964 
L 147.294465 258.683908 
L 147.952505 258.926813 
L 148.10157 258.980673 
L 148.621333 259.165129 
L 149.22453 259.372734 
L 149.578113 259.491229 
L 150.203441 259.695057 
L 150.717269 259.8571 
L 151.162464 259.993563 
L 151.73764 260.164502 
L 152.096775 260.268187 
L 152.637654 260.419953 
L 152.791049 260.462039 
L 153.298864 260.598368 
L 153.83729 260.737914 
L 154.370872 260.871162 
L 154.848847 260.986287 
L 155.226678 261.074475 
L 155.900633 261.225641 
L 156.321656 261.316103 
L 156.490203 261.351466 
L 157.318848 261.51827 
L 157.633216 261.578498 
L 158.017827 261.649911 
L 158.506278 261.73701 
L 158.81587 261.790141 
L 159.388618 261.884207 
L 160.000486 261.978658 
L 160.655632 262.072906 
L 160.899257 262.106143 
L 161.35699 262.165946 
L 162.034115 262.2481 
L 162.484019 262.298532 
L 163.013811 262.353682 
L 163.087875 262.361027 
L 163.915905 262.437071 
L 164.36354 262.473547 
L 164.70107 262.498903 
L 165.002001 262.519957 
L 165.702975 262.563326 
L 166.200422 262.589295 
L 166.709499 262.611745 
L 166.834853 262.616633 
L 167.453972 262.637069 
L 167.818559 262.646222 
L 168.511549 262.657735 
L 169.003501 262.661229 
L 169.214021 262.661537 
L 169.611521 262.660179 
L 170.418166 262.649629 
L 170.976057 262.63622 
L 171.239714 262.628143 
L 171.545545 262.617374 
L 172.35786 262.581464 
L 172.630041 262.567055 
L 173.289705 262.527175 
L 173.726796 262.49688 
L 174.162362 262.463616 
L 174.578417 262.428971 
L 174.866973 262.403294 
L 175.507173 262.341491 
L 175.853734 262.305249 
L 176.432981 262.240295 
L 176.699894 262.208515 
L 177.183386 262.147973 
L 177.883366 262.053503 
L 178.332241 261.988663 
L 178.713661 261.930942 
L 179.329318 261.832667 
L 179.817464 261.750246 
L 180.032959 261.712591 
L 180.533514 261.622109 
L 181.037154 261.5268 
L 181.720392 261.390624 
L 181.908105 261.351818 
L 182.534865 261.217874 
L 183.173877 261.074348 
L 183.368737 261.029174 
L 183.735933 260.942254 
L 184.30093 260.803912 
L 184.842086 260.666147 
L 185.311862 260.542354 
L 186.006381 260.35213 
L 186.200893 260.297304 
L 186.814104 260.119989 
L 187.032514 260.055186 
L 187.726318 259.843543 
L 187.915976 259.784148 
L 188.694363 259.533389 
L 189.287642 259.33465 
L 189.68548 259.197653 
L 190.130105 259.040976 
L 190.652438 258.852064 
L 190.731763 258.822912 
L 191.196386 258.649708 
L 191.996493 258.341504 
L 192.437016 258.166385 
L 192.960424 257.953245 
L 193.155033 257.872582 
L 193.613626 257.679437 
L 194.129042 257.457186 
L 194.776488 257.170145 
L 195.056294 257.043357 
L 195.651032 256.768307 
L 196.258747 256.479355 
L 196.396037 256.412959 
L 197.210429 256.010512 
L 197.386455 255.921573 
L 198.059863 255.574828 
L 198.352643 255.420823 
L 198.752565 255.207237 
L 199.183982 254.97261 
L 200.01909 254.505782 
L 200.353846 254.313891 
z
" style="fill:#808080;opacity:0.5;"/>
   </g>
   <g id="patch_8">
    <path clip-path="url(#p7986ebf961)" d="M 231.507692 200.353846 
L 231.504269 199.700747 
L 231.500846 199.430238 
L 231.497424 199.222677 
L 231.494001 199.047702 
L 231.490578 198.893553 
L 231.487155 198.754197 
L 231.483732 198.626052 
L 231.480309 198.506781 
L 231.476886 198.394765 
L 231.473463 198.288822 
L 231.47004 198.18806 
L 231.466617 198.091787 
L 231.463194 197.999453 
L 231.459771 197.91061 
L 231.452925 197.741989 
L 231.44608 197.58363 
L 231.439234 197.433862 
L 231.432388 197.291425 
L 231.425542 197.155339 
L 231.418696 197.024826 
L 231.41185 196.899254 
L 231.405004 196.778102 
L 231.398159 196.660935 
L 231.389443 196.516964 
L 231.380728 196.378222 
L 231.372013 196.24418 
L 231.363297 196.114392 
L 231.354582 195.988478 
L 231.345867 195.866113 
L 231.328436 195.630932 
L 231.311006 195.406981 
L 231.293575 195.192797 
L 231.276145 194.987211 
L 231.258714 194.789269 
L 231.241284 194.598184 
L 231.223853 194.413293 
L 231.206423 194.234036 
L 231.188992 194.059929 
L 231.171561 193.890558 
L 231.154131 193.72556 
L 231.1367 193.564615 
L 231.11927 193.407441 
L 231.099631 193.234562 
L 231.079992 193.065836 
L 231.060353 192.90098 
L 231.040714 192.739744 
L 231.021076 192.581901 
L 231.001437 192.42725 
L 230.962159 192.126804 
L 230.930917 191.895568 
L 230.899674 191.670601 
L 230.870352 191.464744 
L 230.841031 191.263641 
L 230.811709 191.066985 
L 230.782388 190.874499 
L 230.753066 190.685933 
L 230.723745 190.501063 
L 230.694423 190.319683 
L 230.665102 190.141609 
L 230.627267 189.916443 
L 230.589432 189.696167 
L 230.551597 189.480484 
L 230.513763 189.269126 
L 230.446977 188.905864 
L 230.380192 188.554158 
L 230.32163 188.254471 
L 230.263068 187.962307 
L 230.207352 187.690848 
L 230.151636 187.425328 
L 230.09592 187.165388 
L 230.040204 186.910704 
L 229.97988 186.640543 
L 229.922811 186.390008 
L 229.865741 186.144119 
L 229.808672 185.902638 
L 229.751602 185.665349 
L 229.656703 185.279512 
L 229.595774 185.03722 
L 229.534844 184.798939 
L 229.473914 184.564489 
L 229.412984 184.333702 
L 229.310073 183.951783 
L 229.20245 183.562346 
L 229.137215 183.330958 
L 229.071981 183.10292 
L 228.941511 182.656377 
L 228.833686 182.296383 
L 228.751274 182.026428 
L 228.668862 181.760757 
L 228.604144 181.555011 
L 228.475869 181.154369 
L 228.347593 180.762758 
L 228.293607 180.600515 
L 228.163521 180.215531 
L 228.033434 179.838594 
L 227.959712 179.628384 
L 227.868461 179.371469 
L 227.777211 179.118054 
L 227.676753 178.842969 
L 227.576296 178.571822 
L 227.448205 178.231568 
L 227.313148 177.879182 
L 227.163488 177.495968 
L 227.045832 177.199835 
L 226.928177 176.908033 
L 226.795647 176.584328 
L 226.660262 176.258892 
L 226.519408 175.925707 
L 226.394039 175.633603 
L 226.26867 175.345539 
L 226.15616 175.090347 
L 225.956607 174.645169 
L 225.931645 174.590131 
L 225.720958 174.131149 
L 225.522644 173.707864 
L 225.427928 173.508575 
L 225.299241 173.240682 
L 225.051953 172.73487 
L 224.945901 172.521437 
L 224.830463 172.291413 
L 224.642424 171.921715 
L 224.517951 171.68029 
L 224.353939 171.366064 
L 224.096625 170.881671 
L 224.069449 170.831107 
L 223.786786 170.311687 
L 223.733354 170.214804 
L 223.584595 169.947196 
L 223.339975 169.513748 
L 223.157519 169.195626 
L 223.056244 169.020899 
L 222.944459 168.829544 
L 222.815537 168.610773 
L 222.52718 168.128695 
L 222.380086 167.886524 
L 222.336039 167.814488 
L 222.055411 167.360604 
L 221.977228 167.235682 
L 221.76758 166.903913 
L 221.568234 166.592677 
L 221.41597 166.357655 
L 221.345154 166.249133 
L 221.160378 165.968273 
L 221.023628 165.762516 
L 220.91578 165.601485 
L 220.703334 165.287408 
L 220.476657 164.95677 
L 220.464251 164.938805 
L 220.307276 164.712651 
L 220.153364 164.49296 
L 219.877234 164.103791 
L 219.835684 164.045775 
L 219.571783 163.680531 
L 219.446644 163.509263 
L 219.288471 163.294521 
L 219.172692 163.138546 
L 218.909378 162.787555 
L 218.836302 162.691052 
L 218.703453 162.516607 
L 218.564426 162.335403 
L 218.355423 162.06556 
L 218.235684 161.912329 
L 218.09529 161.733915 
L 217.93667 161.533934 
L 217.768599 161.323861 
L 217.57527 161.084497 
L 217.446479 160.926371 
L 217.328695 160.78268 
L 217.049719 160.44579 
L 216.936529 160.310465 
L 216.758423 160.099096 
L 216.619866 159.935969 
L 216.480879 159.773469 
L 216.302265 159.566285 
L 216.096562 159.329938 
L 215.9724 159.188435 
L 215.82375 159.02015 
L 215.772442 158.962348 
L 215.470755 158.62537 
L 215.363448 158.506689 
L 215.171204 158.295589 
L 215.097672 158.215358 
L 214.968715 158.075326 
L 214.704949 157.791561 
L 214.631809 157.713498 
L 214.453065 157.523849 
L 214.310519 157.373739 
L 214.168171 157.224829 
L 214.02142 157.07234 
L 213.855568 156.901243 
L 213.633808 156.6745 
L 213.567766 156.607419 
L 213.364586 156.402306 
L 213.137612 156.175404 
L 213.103897 156.141898 
L 212.926675 155.966614 
L 212.717477 155.761496 
L 212.492305 155.542856 
L 212.397234 155.451202 
L 212.203615 155.265737 
L 212.045731 155.115678 
L 211.896462 154.974769 
L 211.78406 154.869273 
L 211.671076 154.763757 
L 211.404032 154.516435 
L 211.287565 154.409474 
L 211.104729 154.242652 
L 211.064631 154.206244 
L 210.870768 154.031113 
L 210.715451 153.891863 
L 210.548882 153.743563 
L 210.309952 153.532693 
L 210.229581 153.462248 
L 210.099171 153.34846 
L 209.844576 153.128143 
L 209.686466 152.992526 
L 209.546051 152.872853 
L 209.431653 152.775883 
L 209.331771 152.691602 
L 209.165362 152.55198 
L 208.89144 152.324292 
L 208.845447 152.28632 
L 208.637415 152.115492 
L 208.420978 151.939351 
L 208.313853 151.852763 
L 208.23637 151.790379 
L 207.949691 151.561326 
L 207.841058 151.47525 
L 207.657757 151.330898 
L 207.596512 151.282914 
L 207.386442 151.119263 
L 207.317167 151.065611 
L 207.010018 150.829599 
L 206.949766 150.783657 
L 206.811805 150.678896 
L 206.559177 150.488624 
L 206.495116 150.440693 
L 206.351263 150.333528 
L 206.221163 150.237162 
L 206.007677 150.080161 
L 205.858574 149.971335 
L 205.630246 149.80599 
L 205.502922 149.71447 
L 205.299491 149.569249 
L 205.138089 149.454904 
L 205.086019 149.418179 
L 204.87773 149.272067 
L 204.719727 149.162074 
L 204.53134 149.031873 
L 204.459937 148.98279 
L 204.324939 148.890391 
L 204.051545 148.704855 
L 203.972373 148.651519 
L 203.875348 148.586397 
L 203.608597 148.408712 
L 203.444297 148.300252 
L 203.320361 148.21893 
L 203.246802 148.170862 
L 202.976411 147.995441 
L 202.905723 147.949908 
L 202.662554 147.794299 
L 202.547994 147.721539 
L 202.353686 147.598925 
L 202.241899 147.528839 
L 202.060205 147.415623 
L 201.864891 147.294885 
L 201.824176 147.26984 
L 201.542601 147.097817 
L 201.480901 147.060395 
L 201.263958 146.929591 
L 201.068856 146.812978 
L 200.90669 146.716785 
L 200.874636 146.69785 
L 200.657066 146.570006 
L 200.472358 146.462398 
L 200.353846 146.393802 
L 200.353846 254.313891 
L 200.477664 254.242215 
L 200.738473 254.089991 
L 200.882102 254.005435 
L 200.931361 253.976316 
L 201.192788 253.820752 
L 201.360121 253.720269 
L 201.375027 253.711284 
L 201.572349 253.591798 
L 201.686144 253.522436 
L 201.996751 253.331404 
L 202.010308 253.323009 
L 202.231547 253.185328 
L 202.452403 253.046599 
L 202.484708 253.026199 
L 202.676624 252.904433 
L 202.867396 252.782416 
L 202.984652 252.706934 
L 203.24393 252.538703 
L 203.39985 252.436653 
L 203.5371 252.346269 
L 203.649732 252.271709 
L 203.832278 252.150119 
L 204.003975 252.034905 
L 204.175341 251.919087 
L 204.266311 251.857267 
L 204.36667 251.788794 
L 204.631573 251.606672 
L 204.68823 251.567458 
L 204.84991 251.455044 
L 205.119807 251.265691 
L 205.186022 251.21891 
L 205.288265 251.146421 
L 205.538251 250.967876 
L 205.612204 250.9147 
L 205.827746 250.758774 
L 205.940279 250.676807 
L 206.090292 250.566941 
L 206.291493 250.418501 
L 206.393738 250.342588 
L 206.670149 250.135735 
L 206.732897 250.088443 
L 206.916938 249.949018 
L 207.136126 249.78156 
L 207.297448 249.657325 
L 207.430789 249.554001 
L 207.488467 249.509128 
L 207.765649 249.291963 
L 207.873155 249.207051 
L 207.947387 249.148196 
L 208.129137 249.003315 
L 208.290155 248.874031 
L 208.504658 248.700432 
L 208.691191 248.548185 
L 208.794794 248.463105 
L 208.914388 248.364427 
L 209.088684 248.219715 
L 209.199682 248.126997 
L 209.486148 247.885675 
L 209.652845 247.743886 
L 209.825032 247.596362 
L 209.966999 247.473908 
L 210.110734 247.349169 
L 210.26268 247.216463 
L 210.364501 247.127047 
L 210.482298 247.023112 
L 210.711341 246.819501 
L 210.819507 246.722641 
L 210.936142 246.617687 
L 211.172147 246.403682 
L 211.238118 246.343466 
L 211.515445 246.088424 
L 211.661952 245.952433 
L 211.790969 245.83195 
L 211.986536 245.648005 
L 212.121149 245.520466 
L 212.272131 245.376508 
L 212.436354 245.218824 
L 212.561462 245.09792 
L 212.79098 244.874347 
L 212.894097 244.773148 
L 213.074577 244.594891 
L 213.177735 244.492348 
L 213.292626 244.377577 
L 213.485063 244.183992 
L 213.599167 244.068404 
L 213.760966 243.90346 
L 213.903256 243.757387 
L 214.187371 243.462835 
L 214.255137 243.392006 
L 214.489068 243.145771 
L 214.63092 242.995141 
L 214.776698 242.839292 
L 214.914558 242.690919 
L 215.025896 242.57038 
L 215.268896 242.305072 
L 215.394491 242.166733 
L 215.54744 241.997133 
L 215.631925 241.902912 
L 215.903296 241.597642 
L 215.982117 241.508215 
L 216.136293 241.332291 
L 216.249207 241.2026 
L 216.431557 240.991619 
L 216.618213 240.773663 
L 216.778699 240.584629 
L 216.988202 240.335545 
L 217.073418 240.233469 
L 217.221783 240.054688 
L 217.432369 239.798581 
L 217.650921 239.529818 
L 217.705122 239.46269 
L 217.830185 239.307069 
L 218.067044 239.009513 
L 218.256282 238.769074 
L 218.358841 238.637745 
L 218.456025 238.512626 
L 218.616041 238.305175 
L 218.784281 238.085102 
L 219.037789 237.749612 
L 219.202327 237.529319 
L 219.361483 237.314286 
L 219.396576 237.266612 
L 219.687347 236.867903 
L 219.819821 236.68403 
L 219.912833 236.554082 
L 220.011611 236.415303 
L 220.200241 236.148034 
L 220.445321 235.796272 
L 220.533786 235.668021 
L 220.689806 235.440146 
L 220.93774 235.073505 
L 221.027588 234.939243 
L 221.189872 234.69481 
L 221.286328 234.548333 
L 221.526316 234.179948 
L 221.614111 234.043749 
L 221.765267 233.807415 
L 222.017213 233.408204 
L 222.040894 233.370334 
L 222.339244 232.887972 
L 222.37708 232.826091 
L 222.571068 232.506258 
L 222.732574 232.236632 
L 222.83492 232.064159 
L 223.042548 231.710322 
L 223.155856 231.514945 
L 223.385657 231.113611 
L 223.470595 230.963502 
L 223.695406 230.561448 
L 223.871242 230.242036 
L 223.923895 230.145519 
L 224.131432 229.761095 
L 224.230009 229.576211 
L 224.475579 229.109001 
L 224.579872 228.907626 
L 224.746037 228.583021 
L 224.880927 228.316015 
L 225.114563 227.845848 
L 225.191125 227.689582 
L 225.330692 227.40184 
L 225.470259 227.110276 
L 225.604096 226.826974 
L 225.718987 226.580792 
L 225.804316 226.396117 
L 225.929756 226.12172 
L 226.055195 225.843752 
L 226.112154 225.716322 
L 226.279799 225.336741 
L 226.498237 224.831602 
L 226.667603 224.431287 
L 226.793315 224.129014 
L 226.963368 223.712823 
L 227.155896 223.230966 
L 227.306149 222.846601 
L 227.45981 222.445543 
L 227.565454 222.164906 
L 227.671098 221.880092 
L 227.819043 221.473893 
L 227.881879 221.29867 
L 227.974987 221.03595 
L 228.068095 220.769426 
L 228.166403 220.48372 
L 228.264711 220.193413 
L 228.354757 219.923293 
L 228.444802 219.648973 
L 228.49988 219.479031 
L 228.613426 219.123324 
L 228.699769 218.847791 
L 228.786112 218.567681 
L 228.90751 218.165689 
L 229.028908 217.753566 
L 229.129257 217.404731 
L 229.229606 217.048006 
L 229.341235 216.641275 
L 229.400514 216.420787 
L 229.503381 216.030285 
L 229.606248 215.629111 
L 229.707804 215.221737 
L 229.758582 215.013542 
L 229.80936 214.802168 
L 229.903909 214.399626 
L 229.951184 214.193722 
L 229.998459 213.984545 
L 230.024768 213.866661 
L 230.087485 213.581194 
L 230.150202 213.289126 
L 230.212918 212.989997 
L 230.275635 212.683294 
L 230.320447 212.459194 
L 230.365259 212.230697 
L 230.409783 211.999057 
L 230.454308 211.762541 
L 230.498832 211.52084 
L 230.543356 211.273608 
L 230.577549 211.07975 
L 230.611742 210.882212 
L 230.645935 210.680783 
L 230.680128 210.47523 
L 230.7249 210.199412 
L 230.769673 209.91543 
L 230.814446 209.622536 
L 230.859218 209.319856 
L 230.886942 209.127081 
L 230.914667 208.929885 
L 230.942391 208.727955 
L 230.970115 208.520939 
L 230.997839 208.308442 
L 231.025563 208.09001 
L 231.053288 207.865126 
L 231.081012 207.633193 
L 231.107285 207.406262 
L 231.133558 207.17168 
L 231.159832 206.928629 
L 231.186105 206.676132 
L 231.212866 206.408011 
L 231.226247 206.26935 
L 231.239628 206.127328 
L 231.253009 205.981692 
L 231.266389 205.832153 
L 231.27977 205.678382 
L 231.293151 205.520001 
L 231.30656 205.356224 
L 231.319968 205.186862 
L 231.333377 205.011308 
L 231.346786 204.828832 
L 231.360195 204.63855 
L 231.373604 204.439371 
L 231.387013 204.229924 
L 231.393717 204.120818 
L 231.400422 204.008444 
L 231.407126 203.892491 
L 231.41383 203.772593 
L 231.420535 203.648322 
L 231.427239 203.519162 
L 231.433944 203.384486 
L 231.440648 203.243526 
L 231.447352 203.095311 
L 231.454057 202.938594 
L 231.460761 202.771721 
L 231.467466 202.592424 
L 231.47417 202.397433 
L 231.480875 202.181735 
L 231.487579 201.936887 
L 231.494283 201.646429 
L 231.500988 201.267865 
z
" style="fill:#808080;opacity:0.5;"/>
   </g>
   <g id="matplotlib.axis_1"/>
   <g id="matplotlib.axis_2"/>
   <g id="line2d_1">
    <path clip-path="url(#p7986ebf961)" d="M 106.892308 84.086109 
L 110.032806 82.390958 
L 113.408475 80.8165 
L 116.776851 79.481102 
L 120.364716 78.299896 
L 123.983759 77.346091 
L 127.788187 76.588667 
L 131.237381 76.111599 
L 134.979663 75.813966 
L 138.840965 75.743531 
L 142.646483 75.90852 
L 146.129941 76.265081 
L 149.451482 76.791219 
L 153.231003 77.617114 
L 156.942186 78.672856 
L 160.355885 79.869488 
L 163.925381 81.367109 
L 167.297103 83.031333 
L 170.680727 84.968539 
L 173.807944 87.023189 
L 176.929204 89.359843 
L 179.540823 91.56561 
L 182.112431 93.996049 
L 184.642851 96.681962 
L 187.105563 99.63492 
L 189.255683 102.552032 
L 191.273563 105.656473 
L 193.170497 109.00213 
L 194.955542 112.677471 
L 196.271101 115.862735 
L 197.424584 119.166257 
L 198.43721 122.710937 
L 199.231268 126.272015 
L 199.848408 130.125936 
L 200.222717 134.005914 
L 200.34448 136.965826 
L 200.353846 138.046154 
L 200.353846 138.046154 
" style="fill:none;stroke:#0000ff;stroke-linecap:square;"/>
   </g>
   <g id="line2d_2">
    <path clip-path="url(#p7986ebf961)" d="M 75.738462 138.046154 
L 75.868099 134.028935 
L 76.216153 130.345532 
L 76.780749 126.697202 
L 77.605181 122.90887 
L 78.662633 119.182272 
L 79.913063 115.623125 
L 81.338607 112.229442 
L 83.041856 108.775422 
L 84.964981 105.417369 
L 87.035163 102.267287 
L 89.178407 99.391376 
L 91.490486 96.635789 
L 94.02878 93.947182 
L 96.718572 91.416984 
L 99.527973 89.070667 
L 102.508658 86.866715 
L 105.567247 84.873142 
L 106.892308 84.086109 
L 106.892308 84.086109 
" style="fill:none;stroke:#0000ff;stroke-linecap:square;"/>
   </g>
   <g id="line2d_3">
    <path clip-path="url(#p7986ebf961)" d="M 75.738462 138.046154 
L 75.869166 142.079853 
L 76.231507 145.869066 
L 76.805976 149.530456 
L 77.616733 153.229489 
L 78.536177 156.507225 
L 79.816399 160.21695 
L 81.174708 163.499781 
L 82.761679 166.784202 
L 84.636943 170.135167 
L 86.502684 173.05357 
L 88.713532 176.105856 
L 91.045572 178.950846 
L 93.601015 181.71397 
L 96.228256 184.236109 
L 99.061897 186.651465 
L 101.986249 188.858867 
L 105.1401 190.955889 
L 106.892308 192.006198 
L 106.892308 192.006198 
" style="fill:none;stroke:#0000ff;stroke-linecap:square;"/>
   </g>
   <g id="line2d_4">
    <path clip-path="url(#p7986ebf961)" d="M 106.892308 200.353846 
L 107.049831 204.781595 
L 107.396381 208.263409 
L 108.006193 212.082723 
L 108.796923 215.641644 
L 109.755521 219.024745 
L 110.916935 222.384118 
L 112.18354 225.480958 
L 113.782665 228.834849 
L 115.536167 232.015203 
L 117.602004 235.280847 
L 119.851076 238.392409 
L 122.51586 241.619323 
L 125.220991 244.491078 
L 128.011501 247.105916 
L 130.755018 249.386814 
L 133.525476 251.437864 
L 136.490129 253.38509 
L 139.878782 255.331248 
L 143.193815 256.974751 
L 146.68651 258.451964 
L 150.203441 259.695057 
L 153.83729 260.737914 
L 157.633216 261.578498 
L 161.35699 262.165946 
L 165.002001 262.519957 
L 169.003501 262.661229 
L 172.630041 262.567055 
L 176.432981 262.240295 
L 180.032959 261.712591 
L 183.735933 260.942254 
L 187.032514 260.055186 
L 190.731763 258.822912 
L 194.129042 257.457186 
L 197.386455 255.921573 
L 200.353846 254.313891 
L 200.353846 254.313891 
" style="fill:none;stroke:#228b22;stroke-linecap:square;"/>
   </g>
   <g id="line2d_5">
    <path clip-path="url(#p7986ebf961)" d="M 200.353846 254.313891 
L 203.5371 252.346269 
L 206.393738 250.342588 
L 209.199682 248.126997 
L 211.986536 245.648005 
L 214.63092 242.995141 
L 217.073418 240.233469 
L 219.396576 237.266612 
L 221.614111 234.043749 
L 223.470595 230.963502 
L 225.191125 227.689582 
L 226.667603 224.431287 
L 227.974987 221.03595 
L 229.129257 217.404731 
L 230.024768 213.866661 
L 230.7249 210.199412 
L 231.212866 206.408011 
L 231.460761 202.771721 
L 231.507692 200.353846 
L 231.507692 200.353846 
" style="fill:none;stroke:#228b22;stroke-linecap:square;"/>
   </g>
   <g id="text_1">
    <!-- $\Omega$ -->
    <g transform="translate(16.011538 22.420913)scale(0.1 -0.1)">
     <defs>
      <path d="M 7.71875 0 
L 4.390625 16.609375 
L 7.328125 16.609375 
Q 7.859375 13.71875 8.296875 11.5 
Q 8.734375 9.28125 9.4375 8.375 
Q 10.15625 7.46875 11.71875 7.171875 
Q 13.28125 6.890625 16.890625 6.890625 
L 23 6.890625 
Q 21.53125 12.546875 15.6875 21.65625 
Q 9.859375 30.765625 7.734375 34.890625 
Q 5.609375 39.015625 5.609375 45.515625 
Q 5.609375 53.078125 10.09375 58.765625 
Q 14.59375 64.453125 21.703125 67.484375 
Q 28.8125 70.515625 36.078125 70.515625 
Q 43.3125 70.515625 50.40625 67.484375 
Q 57.515625 64.453125 62 58.71875 
Q 66.5 52.984375 66.5 45.515625 
Q 66.5 40.4375 64.640625 35.9375 
Q 62.796875 31.453125 59.90625 26.953125 
Q 57.03125 22.46875 53.6875 16.9375 
Q 50.34375 11.421875 49.125 6.890625 
L 55.171875 6.890625 
Q 58.84375 6.890625 60.453125 7.171875 
Q 62.0625 7.46875 62.734375 8.375 
Q 63.421875 9.28125 63.84375 11.5 
Q 64.265625 13.71875 64.796875 16.609375 
L 67.671875 16.609375 
L 64.40625 0 
L 46.6875 0 
Q 45.703125 0 45.703125 1.3125 
Q 45.703125 6.390625 46.9375 11.265625 
Q 48.1875 16.15625 50.625 23.09375 
Q 53.078125 30.03125 54.4375 35.328125 
Q 55.8125 40.625 55.8125 45.515625 
Q 55.8125 51.515625 53.46875 56.640625 
Q 51.125 61.765625 46.625 64.84375 
Q 42.140625 67.921875 36.078125 67.921875 
Q 26.953125 67.921875 21.625 61.40625 
Q 16.3125 54.890625 16.3125 45.515625 
Q 16.359375 40.375 17.53125 35.828125 
Q 18.703125 31.296875 21.3125 23.71875 
Q 23.921875 16.15625 25.171875 11.265625 
Q 26.421875 6.390625 26.421875 1.3125 
Q 26.421875 0 25.390625 0 
z
" id="Cmr10-173"/>
     </defs>
     <use transform="translate(0 0.484375)" xlink:href="#Cmr10-173"/>
    </g>
   </g>
   <g id="text_2">
    <!-- $A$ -->
    <g style="fill:#0000ff;" transform="translate(103.142308 78.497837)scale(0.1 -0.1)">
     <defs>
      <path d="M 4.5 0 
Q 3.515625 0 3.515625 1.3125 
Q 3.90625 3.515625 4.78125 3.515625 
Q 8.84375 3.515625 11.796875 5.125 
Q 14.75 6.734375 16.890625 10.109375 
Q 17.09375 10.296875 17.09375 10.296875 
L 52.78125 70.515625 
Q 53.5625 71.578125 54.6875 71.578125 
L 56 71.578125 
Q 56.296875 71.578125 56.59375 71.453125 
Q 56.890625 71.34375 57.109375 71.0625 
Q 57.328125 70.796875 57.328125 70.515625 
L 63.375 5.90625 
Q 63.375 5.46875 63.8125 4.59375 
Q 64.796875 3.515625 71.296875 3.515625 
Q 72.3125 3.515625 72.3125 2.203125 
Q 71.96875 0.875 71.75 0.4375 
Q 71.53125 0 70.609375 0 
L 45.609375 0 
Q 44.671875 0 44.671875 1.3125 
Q 45.21875 3.515625 46 3.515625 
Q 53.90625 3.515625 54.390625 6.203125 
L 52.875 22.703125 
L 28.21875 22.703125 
L 20.21875 9.28125 
Q 19.484375 8.203125 19.484375 6.78125 
Q 19.484375 5.03125 21.171875 4.265625 
Q 22.859375 3.515625 24.90625 3.515625 
Q 25.875 3.515625 25.875 2.203125 
Q 25.53125 0.78125 25.328125 0.390625 
Q 25.140625 0 24.21875 0 
z
M 30.171875 26.21875 
L 52.484375 26.21875 
L 49.515625 58.59375 
z
" id="Cmmi10-65"/>
     </defs>
     <use transform="translate(0 0.421875)" xlink:href="#Cmmi10-65"/>
    </g>
   </g>
   <g id="text_3">
    <!-- $B$ -->
    <g style="fill:#ff0000;" transform="translate(227.707692 78.497837)scale(0.1 -0.1)">
     <defs>
      <path d="M 4.984375 0 
Q 4 0 4 1.3125 
Q 4.046875 1.5625 4.1875 2.140625 
Q 4.34375 2.734375 4.578125 3.125 
Q 4.828125 3.515625 5.328125 3.515625 
Q 8.15625 3.515625 10.25 3.65625 
Q 12.359375 3.8125 13.8125 4.203125 
Q 14.984375 4.640625 15.71875 6.890625 
L 29.390625 61.8125 
Q 29.59375 62.796875 29.59375 63.1875 
Q 29.59375 64.265625 28.421875 64.40625 
Q 26.515625 64.796875 21.1875 64.796875 
Q 20.21875 64.796875 20.21875 66.109375 
Q 20.265625 66.359375 20.40625 66.96875 
Q 20.5625 67.578125 20.828125 67.9375 
Q 21.09375 68.3125 21.484375 68.3125 
L 57.328125 68.3125 
Q 60.59375 68.3125 63.796875 67.5 
Q 67 66.703125 69.703125 64.9375 
Q 72.40625 63.1875 74 60.5625 
Q 75.59375 57.953125 75.59375 54.5 
Q 75.59375 50.734375 73.65625 47.5 
Q 71.734375 44.28125 68.671875 41.890625 
Q 65.625 39.5 62.078125 37.953125 
Q 58.546875 36.421875 54.6875 35.6875 
Q 57.421875 35.6875 60.21875 34.609375 
Q 63.03125 33.546875 65.234375 31.6875 
Q 67.4375 29.828125 68.78125 27.234375 
Q 70.125 24.65625 70.125 21.6875 
Q 70.125 15.671875 65.921875 10.6875 
Q 61.71875 5.71875 55.34375 2.859375 
Q 48.96875 0 43.015625 0 
z
M 23.390625 4.296875 
Q 23.390625 3.515625 26.8125 3.515625 
L 41.109375 3.515625 
Q 46 3.515625 50.484375 6.21875 
Q 54.984375 8.9375 57.6875 13.421875 
Q 60.40625 17.921875 60.40625 22.796875 
Q 60.40625 25.78125 59.15625 28.4375 
Q 57.90625 31.109375 55.5625 32.640625 
Q 53.21875 34.1875 50.203125 34.1875 
L 30.71875 34.1875 
L 23.78125 6.5 
Q 23.390625 5.125 23.390625 4.296875 
z
M 31.390625 36.8125 
L 46.578125 36.8125 
Q 51.375 36.8125 55.890625 39.25 
Q 60.40625 41.703125 63.25 45.890625 
Q 66.109375 50.09375 66.109375 54.78125 
Q 66.109375 59.125 63.390625 61.953125 
Q 60.6875 64.796875 56.390625 64.796875 
L 42.671875 64.796875 
Q 39.984375 64.796875 39.0625 64.296875 
Q 38.140625 63.8125 37.5 61.375 
z
" id="Cmmi10-66"/>
     </defs>
     <use transform="translate(0 0.6875)" xlink:href="#Cmmi10-66"/>
    </g>
   </g>
   <g id="text_4">
    <!-- $C$ -->
    <g style="fill:#228b22;" transform="translate(150.023077 271.651683)scale(0.1 -0.1)">
     <defs>
      <path d="M 14.59375 21.578125 
Q 14.59375 15.578125 16.90625 11.015625 
Q 19.234375 6.453125 23.65625 3.875 
Q 28.078125 1.3125 34.078125 1.3125 
Q 40.375 1.3125 46.203125 4.53125 
Q 52.046875 7.765625 56.171875 13.15625 
Q 60.296875 18.5625 61.8125 24.609375 
Q 62.015625 25.203125 62.59375 25.203125 
L 63.8125 25.203125 
Q 64.203125 25.203125 64.453125 24.921875 
Q 64.703125 24.65625 64.703125 24.3125 
Q 64.703125 24.21875 64.59375 24.03125 
Q 62.890625 17.09375 57.984375 11.015625 
Q 53.078125 4.9375 46.234375 1.359375 
Q 39.40625 -2.203125 32.171875 -2.203125 
Q 24.359375 -2.203125 18.15625 1.3125 
Q 11.96875 4.828125 8.515625 11.078125 
Q 5.078125 17.328125 5.078125 25.203125 
Q 5.078125 33.59375 8.828125 41.8125 
Q 12.59375 50.046875 18.9375 56.46875 
Q 25.296875 62.890625 33.421875 66.703125 
Q 41.546875 70.515625 49.90625 70.515625 
Q 53.21875 70.515625 56.25 69.5 
Q 59.28125 68.5 61.859375 66.453125 
Q 64.453125 64.40625 66.109375 61.71875 
L 74.03125 70.3125 
Q 74.03125 70.515625 74.515625 70.515625 
L 75.09375 70.515625 
Q 75.484375 70.515625 75.734375 70.171875 
Q 75.984375 69.828125 75.984375 69.484375 
L 69.1875 42.484375 
Q 69.1875 41.796875 68.40625 41.796875 
L 66.609375 41.796875 
Q 65.828125 41.796875 65.828125 42.921875 
Q 66.21875 45.125 66.21875 48.1875 
Q 66.21875 53.078125 64.546875 57.390625 
Q 62.890625 61.71875 59.390625 64.359375 
Q 55.90625 67 50.875 67 
Q 42.71875 67 35.9375 62.890625 
Q 29.15625 58.796875 24.4375 52.125 
Q 19.734375 45.453125 17.15625 37.328125 
Q 14.59375 29.203125 14.59375 21.578125 
z
" id="Cmmi10-67"/>
     </defs>
     <use transform="translate(0 0.484375)" xlink:href="#Cmmi10-67"/>
    </g>
   </g>
   <g id="patch_9">
    <path clip-path="url(#p7986ebf961)" d="M 138.046154 200.353846 
C 154.570347 200.353846 170.419977 193.788715 182.104346 182.104346 
C 193.788715 170.419977 200.353846 154.570347 200.353846 138.046154 
C 200.353846 121.521961 193.788715 105.672331 182.104346 93.987962 
C 170.419977 82.303593 154.570347 75.738462 138.046154 75.738462 
C 121.521961 75.738462 105.672331 82.303593 93.987962 93.987962 
C 82.303593 105.672331 75.738462 121.521961 75.738462 138.046154 
C 75.738462 154.570347 82.303593 170.419977 93.987962 182.104346 
C 105.672331 193.788715 121.521961 200.353846 138.046154 200.353846 
z
" style="fill:none;stroke:#0000ff;stroke-linejoin:miter;"/>
   </g>
   <g id="patch_10">
    <path clip-path="url(#p7986ebf961)" d="M 200.353846 200.353846 
C 216.878039 200.353846 232.727669 193.788715 244.412038 182.104346 
C 256.096407 170.419977 262.661538 154.570347 262.661538 138.046154 
C 262.661538 121.521961 256.096407 105.672331 244.412038 93.987962 
C 232.727669 82.303593 216.878039 75.738462 200.353846 75.738462 
C 183.829653 75.738462 167.980023 82.303593 156.295654 93.987962 
C 144.611285 105.672331 138.046154 121.521961 138.046154 138.046154 
C 138.046154 154.570347 144.611285 170.419977 156.295654 182.104346 
C 167.980023 193.788715 183.829653 200.353846 200.353846 200.353846 
z
" style="fill:none;stroke:#ff0000;stroke-linejoin:miter;"/>
   </g>
   <g id="patch_11">
    <path clip-path="url(#p7986ebf961)" d="M 169.2 262.661538 
C 185.724193 262.661538 201.573823 256.096407 213.258192 244.412038 
C 224.942561 232.727669 231.507692 216.878039 231.507692 200.353846 
C 231.507692 183.829653 224.942561 167.980023 213.258192 156.295654 
C 201.573823 144.611285 185.724193 138.046154 169.2 138.046154 
C 152.675807 138.046154 136.826177 144.611285 125.141808 156.295654 
C 113.457439 167.980023 106.892308 183.829653 106.892308 200.353846 
C 106.892308 216.878039 113.457439 232.727669 125.141808 244.412038 
C 136.826177 256.096407 152.675807 262.661538 169.2 262.661538 
z
" style="fill:none;stroke:#228b22;stroke-linejoin:miter;"/>
   </g>
  </g>
 </g>
 <defs>
  <clipPath id="p7986ebf961">
   <rect height="324" width="324" x="7.2" y="7.2"/>
  </clipPath>
 </defs>
</svg>
