<?xml version="1.0" encoding="utf-8" standalone="no"?>
<!DOCTYPE svg PUBLIC "-//W3C//DTD SVG 1.1//EN"
  "http://www.w3.org/Graphics/SVG/1.1/DTD/svg11.dtd">
<!-- Created with matplotlib (https://matplotlib.org/) -->
<svg height="338.4pt" version="1.1" viewBox="0 0 338.4 338.4" width="338.4pt" xmlns="http://www.w3.org/2000/svg" xmlns:xlink="http://www.w3.org/1999/xlink">
 <metadata>
  <rdf:RDF xmlns:cc="http://creativecommons.org/ns#" xmlns:dc="http://purl.org/dc/elements/1.1/" xmlns:rdf="http://www.w3.org/1999/02/22-rdf-syntax-ns#">
   <cc:Work>
    <dc:type rdf:resource="http://purl.org/dc/dcmitype/StillImage"/>
    <dc:date>2021-08-20T13:43:37.995155</dc:date>
    <dc:format>image/svg+xml</dc:format>
    <dc:creator>
     <cc:Agent>
      <dc:title>Matplotlib v3.3.4, https://matplotlib.org/</dc:title>
     </cc:Agent>
    </dc:creator>
   </cc:Work>
  </rdf:RDF>
 </metadata>
 <defs>
  <style type="text/css">*{stroke-linecap:butt;stroke-linejoin:round;}</style>
 </defs>
 <g id="figure_1">
  <g id="patch_1">
   <path d="M -0 338.4 
L 338.4 338.4 
L 338.4 0 
L -0 0 
z
" style="fill:#ffffff;"/>
  </g>
  <g id="axes_1">
   <g id="patch_2">
    <path d="M 7.2 331.2 
L 331.2 331.2 
L 331.2 7.2 
L 7.2 7.2 
z
" style="fill:#ffffff;"/>
   </g>
   <g id="patch_3">
    <path clip-path="url(#p0bc49996e3)" d="M 13.430769 324.969231 
L 13.430769 13.430769 
L 324.969231 13.430769 
L 324.969231 324.969231 
z
" style="fill:none;stroke:#000000;stroke-linejoin:miter;"/>
   </g>
   <g id="patch_4">
    <path clip-path="url(#p0bc49996e3)" d="M 200.353846 146.393802 
L 199.915268 146.142954 
L 199.409631 145.859564 
L 198.985613 145.626652 
L 198.551648 145.392685 
L 198.091423 145.14937 
L 197.547103 144.867899 
L 197.220199 144.702099 
L 196.802827 144.49391 
L 195.917009 144.06486 
L 195.891078 144.05256 
L 195.407746 143.825954 
L 194.913605 143.599471 
L 194.361974 143.352762 
L 193.998622 143.193748 
L 193.435971 142.952921 
L 192.761585 142.672825 
L 192.584069 142.600631 
L 191.921619 142.336809 
L 191.237772 142.073617 
L 191.038217 141.998548 
L 190.273416 141.718024 
L 189.937333 141.598323 
L 189.489762 141.442268 
L 188.97924 141.268906 
L 188.743801 141.190611 
L 188.209246 141.016699 
L 187.517728 140.79959 
L 187.068909 140.66339 
L 186.945103 140.626467 
L 186.22454 140.4171 
L 185.808496 140.300483 
L 185.191059 140.133131 
L 184.686595 140.001432 
L 184.364355 139.91966 
L 183.891108 139.802877 
L 183.64859 139.74455 
L 182.963186 139.585242 
L 182.478058 139.4774 
L 181.864127 139.346728 
L 181.413746 139.254968 
L 181.090166 139.191174 
L 180.42725 139.066022 
L 180.086947 139.004658 
L 179.543808 138.910749 
L 179.151074 138.845923 
L 178.932576 138.810971 
L 178.24517 138.706191 
L 177.773886 138.63888 
L 177.179336 138.559197 
L 176.900451 138.523825 
L 176.552707 138.481508 
L 175.969253 138.414959 
L 175.55131 138.370708 
L 174.919144 138.309186 
L 174.357864 138.260006 
L 174.27326 138.253037 
L 173.587748 138.20084 
L 173.171883 138.172879 
L 172.669182 138.142808 
L 172.343844 138.125518 
L 171.765211 138.098981 
L 171.190777 138.077965 
L 170.671644 138.063536 
L 170.214677 138.054416 
L 169.964634 138.050846 
L 169.207041 138.046154 
L 169.066375 138.046297 
L 168.601211 138.049031 
L 167.894927 138.059823 
L 167.291124 138.075401 
L 167.191637 138.07853 
L 166.399789 138.109109 
L 165.945016 138.131233 
L 165.630273 138.148496 
L 164.929547 138.192671 
L 164.808258 138.201122 
L 164.266272 138.241795 
L 163.578694 138.300245 
L 163.348557 138.321523 
L 162.590059 138.397755 
L 162.257074 138.434186 
L 161.759359 138.492021 
L 161.169813 138.565784 
L 161.013872 138.586251 
L 160.623249 138.639278 
L 159.939134 138.738224 
L 159.609582 138.788658 
L 159.234991 138.848179 
L 158.573464 138.959015 
L 158.058591 139.050359 
L 157.750083 139.107231 
L 157.327194 139.187802 
L 156.583241 139.336915 
L 156.382982 139.378666 
L 155.883318 139.485837 
L 155.157462 139.649187 
L 154.947007 139.698255 
L 154.3781 139.83476 
L 153.781048 139.984115 
L 153.429716 140.074939 
L 153.00315 140.188154 
L 152.396037 140.354885 
L 151.976309 140.474025 
L 151.741959 140.54193 
L 150.832366 140.814964 
L 150.678753 140.86257 
L 150.006856 141.075927 
L 149.529233 141.232704 
L 149.004536 141.409875 
L 148.462544 141.598366 
L 148.442883 141.605309 
L 147.550843 141.928145 
L 147.357064 142.000315 
L 146.968693 142.147167 
L 146.304003 142.405405 
L 145.642059 142.671337 
L 145.564856 142.702927 
L 144.878446 142.989131 
L 144.590956 143.111873 
L 144.18177 143.289525 
L 143.390384 143.643069 
L 143.038416 143.804575 
L 142.509338 144.052362 
L 141.887065 144.351595 
L 141.653547 144.466088 
L 141.227187 144.678266 
L 140.601802 144.996899 
L 140.019912 145.301408 
L 139.555874 145.549883 
L 139.279706 145.700168 
L 138.691263 146.026454 
L 138.386654 146.198641 
L 137.69294 146.599277 
L 137.638503 146.631221 
L 137.154917 146.918267 
L 136.248729 147.472259 
L 136.135497 147.542984 
L 135.496268 147.948627 
L 134.922753 148.321944 
L 134.71563 148.458984 
L 134.033545 148.918752 
L 133.684411 149.159203 
L 133.314877 149.417548 
L 132.769186 149.8064 
L 132.195993 150.224493 
L 131.675882 150.612625 
L 131.336521 150.87046 
L 130.814623 151.274203 
L 130.265042 151.709036 
L 130.026421 151.90099 
L 129.415418 152.401416 
L 129.024487 152.728468 
L 128.401223 153.261295 
L 127.822139 153.769287 
L 127.779342 153.807336 
L 127.268602 154.266902 
L 126.541984 154.938626 
L 126.107164 155.351002 
L 125.695716 155.748625 
L 125.222485 156.215125 
L 124.775968 156.664558 
L 124.450707 156.99777 
L 123.976315 157.492829 
L 123.528775 157.970032 
L 122.716498 158.86249 
L 122.209723 159.437317 
L 122.006988 159.671317 
L 121.572814 160.180476 
L 121.174549 160.657441 
L 120.466697 161.529708 
L 120.230901 161.827546 
L 119.551744 162.706812 
L 119.310531 163.027054 
L 118.833537 163.673226 
L 118.382206 164.301102 
L 118.006175 164.837079 
L 117.630143 165.385313 
L 117.200977 166.026741 
L 116.72039 166.766065 
L 116.508733 167.099089 
L 116.13506 167.698668 
L 115.761387 168.313821 
L 115.440606 168.855019 
L 115.058761 169.515968 
L 114.676916 170.19623 
L 114.621184 170.297211 
L 114.173924 171.124077 
L 113.726664 171.982074 
L 113.400017 172.630022 
L 113.178394 173.080633 
L 112.956771 173.540647 
L 112.609212 174.28219 
L 112.368072 174.812107 
L 112.126931 175.355579 
L 111.932175 175.805022 
L 111.737419 176.264423 
L 111.541121 176.738128 
L 111.344822 177.223197 
L 111.148524 177.720361 
L 110.952226 178.230436 
L 110.736007 178.808312 
L 110.519789 179.404351 
L 110.26676 180.127089 
L 110.013731 180.879914 
L 109.881415 181.286753 
L 109.7491 181.703403 
L 109.616785 182.130537 
L 109.48447 182.56891 
L 109.300133 183.199998 
L 109.115797 183.857267 
L 109.011333 184.24258 
L 108.906869 184.63803 
L 108.725801 185.349855 
L 108.635267 185.719585 
L 108.544733 186.099476 
L 108.454199 186.490364 
L 108.363665 186.893206 
L 108.273131 187.309111 
L 108.182597 187.73937 
L 108.082913 188.231543 
L 107.98323 188.745418 
L 107.883547 189.284018 
L 107.783864 189.851146 
L 107.712489 190.277412 
L 107.641115 190.723055 
L 107.56974 191.1909 
L 107.498366 191.684543 
L 107.426991 192.208671 
L 107.391304 192.484056 
L 107.355617 192.769602 
L 107.319929 193.066503 
L 107.284242 193.376208 
L 107.248555 193.700505 
L 107.212867 194.041642 
L 107.172798 194.448368 
L 107.132728 194.885555 
L 107.112693 195.117934 
L 107.092658 195.361198 
L 107.072623 195.617023 
L 107.052588 195.887567 
L 107.032553 196.175688 
L 107.012518 196.485312 
L 106.992483 196.82209 
L 106.982465 197.003193 
L 106.972448 197.194693 
L 106.96243 197.39861 
L 106.952413 197.617719 
L 106.942395 197.856015 
L 106.932378 198.119628 
L 106.92236 198.418879 
L 106.912343 198.773888 
L 106.902325 199.236602 
L 106.892308 200.353846 
L 106.892308 84.086109 
L 107.200824 83.90916 
L 107.716178 83.618761 
L 108.460167 83.210783 
L 108.821761 83.017222 
L 109.21216 82.81166 
L 109.63524 82.592854 
L 110.368976 82.223019 
L 110.804982 82.00896 
L 111.214853 81.811558 
L 111.757702 81.555749 
L 112.05812 81.416916 
L 112.475149 81.227387 
L 112.820226 81.073344 
L 113.537407 80.761166 
L 113.851223 80.627918 
L 114.316757 80.433965 
L 114.659601 80.293945 
L 115.488966 79.964988 
L 115.608529 79.918695 
L 116.36821 79.631128 
L 116.530084 79.571311 
L 117.003419 79.399314 
L 117.759333 79.133562 
L 118.121407 79.010123 
L 118.585668 78.855462 
L 118.89407 78.754955 
L 119.450379 78.578131 
L 119.820136 78.463767 
L 120.281601 78.324557 
L 120.821341 78.166655 
L 121.523706 77.96906 
L 122.050557 77.826644 
L 122.188215 77.790247 
L 122.693454 77.65954 
L 123.264878 77.517133 
L 123.994961 77.343497 
L 124.265138 77.281591 
L 124.699735 77.184658 
L 125.03377 77.112367 
L 125.913104 76.9312 
L 125.991966 76.915596 
L 126.50024 76.817563 
L 127.243508 76.682065 
L 127.643814 76.612939 
L 128.104311 76.536738 
L 128.703309 76.442909 
L 128.856642 76.419849 
L 129.398215 76.341521 
L 130.028382 76.25648 
L 130.542937 76.191888 
L 130.911926 76.148243 
L 131.478432 76.085573 
L 131.93389 76.038987 
L 132.054062 76.027259 
L 132.649445 75.972616 
L 133.249882 75.923338 
L 133.431957 75.909549 
L 134.043738 75.867145 
L 134.776833 75.824292 
L 134.898454 75.818021 
L 135.390398 75.795086 
L 135.870036 75.776474 
L 136.418546 75.759723 
L 136.837437 75.750187 
L 137.283976 75.743123 
L 138.020138 75.738467 
L 138.327707 75.739098 
L 138.760486 75.742556 
L 139.24107 75.74992 
L 139.851914 75.764634 
L 140.386493 75.78243 
L 140.889711 75.803382 
L 141.184428 75.817545 
L 141.481113 75.833216 
L 142.202938 75.877274 
L 142.357755 75.887819 
L 143.201099 75.952072 
L 143.328161 75.962751 
L 143.9953 76.023124 
L 144.568872 76.080819 
L 144.99801 76.127496 
L 145.433162 76.177902 
L 145.979961 76.245642 
L 146.486677 76.312807 
L 146.596917 76.32798 
L 147.429187 76.449018 
L 147.627733 76.479589 
L 148.357356 76.597577 
L 148.820411 76.677074 
L 149.113033 76.729168 
L 149.792239 76.855648 
L 150.164819 76.928346 
L 150.407315 76.976929 
L 151.013717 77.102813 
L 151.457429 77.198917 
L 151.792509 77.27374 
L 152.377691 77.409073 
L 152.724352 77.492054 
L 153.156205 77.598368 
L 153.641472 77.721743 
L 154.397946 77.922386 
L 154.716609 78.009961 
L 155.141072 78.129443 
L 155.760024 78.309504 
L 156.007644 78.383491 
L 156.447084 78.517553 
L 157.334858 78.79926 
L 157.824369 78.96087 
L 157.906772 78.988518 
L 158.777505 79.288519 
L 158.813359 79.301182 
L 159.665609 79.609456 
L 159.879743 79.689124 
L 160.388388 79.881963 
L 160.950656 80.101074 
L 161.483588 80.314575 
L 161.726511 80.413791 
L 162.315674 80.659405 
L 162.840841 80.884348 
L 163.278444 81.076161 
L 163.592221 81.216171 
L 164.228096 81.506306 
L 164.480306 81.623782 
L 165.288689 82.009623 
L 165.780074 82.251188 
L 165.922278 82.3221 
L 166.339781 82.532919 
L 166.882407 82.81284 
L 167.418912 83.096271 
L 167.992058 83.406504 
L 168.600703 83.744514 
L 169.079491 84.016713 
L 169.519169 84.271645 
L 169.948478 84.525221 
L 170.157531 84.650386 
L 170.917204 85.114664 
L 171.327849 85.371897 
L 171.935329 85.760665 
L 172.038362 85.827591 
L 172.521706 86.145433 
L 173.088788 86.526621 
L 173.778295 87.002421 
L 173.828793 87.037809 
L 174.587224 87.578355 
L 175.15401 87.993626 
L 175.464176 88.225073 
L 175.775208 88.460198 
L 176.500293 89.020368 
L 177.049376 89.456061 
L 177.179108 89.560482 
L 177.735884 90.015186 
L 178.460223 90.623042 
L 178.754712 90.875593 
L 179.117437 91.191077 
L 179.608048 91.625712 
L 179.939679 91.924781 
L 180.746118 92.670372 
L 180.971846 92.883852 
L 181.531039 93.422021 
L 182.216342 94.100244 
L 182.654488 94.545061 
L 182.968632 94.869545 
L 183.310754 95.228349 
L 183.719277 95.664385 
L 184.342838 96.346447 
L 184.823629 96.886509 
L 185.301946 97.436566 
L 185.888232 98.128939 
L 186.429905 98.787255 
L 186.964362 99.455256 
L 187.317956 99.907747 
L 187.581756 100.251014 
L 187.967484 100.761984 
L 188.353211 101.284102 
L 188.842436 101.963108 
L 189.199336 102.470875 
L 189.679962 103.172118 
L 190.133903 103.853832 
L 190.422084 104.296925 
L 190.822775 104.927024 
L 191.396659 105.859632 
L 191.68163 106.336783 
L 192.047234 106.963492 
L 192.412837 107.60749 
L 192.691344 108.11036 
L 192.96985 108.624458 
L 193.284724 109.219969 
L 193.535368 109.705447 
L 193.786012 110.201644 
L 194.065081 110.767438 
L 194.34415 111.348136 
L 194.611916 111.920246 
L 194.879682 112.507975 
L 195.135657 113.085442 
L 195.391631 113.679276 
L 195.648409 114.292654 
L 195.980007 115.113268 
L 196.301946 115.943865 
L 196.462916 116.372889 
L 196.623886 116.811799 
L 196.890837 117.563191 
L 197.033244 117.97698 
L 197.175651 118.400515 
L 197.318058 118.83444 
L 197.460465 119.279476 
L 197.673187 119.966735 
L 197.88591 120.683778 
L 198.071921 121.338197 
L 198.257932 122.021476 
L 198.443943 122.737476 
L 198.536948 123.109209 
L 198.629954 123.491027 
L 198.764164 124.061458 
L 198.898375 124.657514 
L 199.032586 125.282784 
L 199.166797 125.941794 
L 199.237549 126.304701 
L 199.308301 126.679629 
L 199.399246 127.18123 
L 199.490192 127.707938 
L 199.581138 128.263807 
L 199.62661 128.554268 
L 199.672083 128.854127 
L 199.717556 129.164336 
L 199.763029 129.486021 
L 199.808502 129.820528 
L 199.853974 130.169489 
L 199.899447 130.53492 
L 199.94492 130.919354 
L 199.990393 131.326051 
L 200.035866 131.759329 
L 200.075613 132.164428 
L 200.115361 132.599863 
L 200.135234 132.831311 
L 200.155108 133.073599 
L 200.174982 133.328398 
L 200.194856 133.597855 
L 200.21473 133.884819 
L 200.234603 134.193199 
L 200.254477 134.528623 
L 200.264414 134.708998 
L 200.274351 134.899727 
L 200.284288 135.102824 
L 200.294225 135.321051 
L 200.304162 135.558388 
L 200.314099 135.820939 
L 200.324035 136.118985 
L 200.333972 136.472564 
L 200.343909 136.933414 
L 200.353846 138.046154 
z
" style="fill:#808080;opacity:0.5;"/>
   </g>
   <g id="patch_5">
    <path clip-path="url(#p0bc49996e3)" d="M 75.738462 138.046154 
L 75.738462 138.046154 
L 75.741018 137.481733 
L 75.743575 137.247951 
L 75.746131 137.068568 
L 75.748687 136.917347 
L 75.751244 136.784122 
L 75.7538 136.663682 
L 75.756357 136.552929 
L 75.758913 136.449846 
L 75.76147 136.353031 
L 75.764026 136.261464 
L 75.766583 136.174374 
L 75.769139 136.091164 
L 75.774252 135.934566 
L 75.779365 135.788818 
L 75.784478 135.651937 
L 75.789591 135.52248 
L 75.794704 135.399356 
L 75.799817 135.281721 
L 75.80493 135.1689 
L 75.810043 135.060347 
L 75.815156 134.955614 
L 75.820269 134.854323 
L 75.82865 134.694919 
L 75.837032 134.542781 
L 75.845413 134.396999 
L 75.853794 134.256839 
L 75.862175 134.1217 
L 75.870557 133.99108 
L 75.878938 133.864555 
L 75.887319 133.741763 
L 75.8957 133.622394 
L 75.904082 133.506179 
L 75.920844 133.282289 
L 75.937607 133.068516 
L 75.954369 132.863608 
L 75.971132 132.66655 
L 75.987894 132.476511 
L 76.004657 132.292795 
L 76.021419 132.114813 
L 76.038182 131.942065 
L 76.054944 131.774118 
L 76.071707 131.610595 
L 76.088469 131.451169 
L 76.108292 131.267529 
L 76.128114 131.08879 
L 76.147937 130.914585 
L 76.16776 130.744589 
L 76.187582 130.578515 
L 76.207405 130.416106 
L 76.227227 130.257132 
L 76.24705 130.101389 
L 76.287886 129.789955 
L 76.328721 129.490043 
L 76.369557 129.200483 
L 76.410392 128.920288 
L 76.445047 128.689226 
L 76.479701 128.463859 
L 76.514355 128.243794 
L 76.549009 128.028683 
L 76.594941 127.75067 
L 76.640873 127.48017 
L 76.686805 127.216619 
L 76.732737 126.959521 
L 76.793998 126.62591 
L 76.856749 126.294333 
L 76.9195 125.972185 
L 76.982251 125.658729 
L 77.045002 125.353322 
L 77.110651 125.041808 
L 77.164729 124.790944 
L 77.218806 124.544957 
L 77.272884 124.303586 
L 77.326962 124.06659 
L 77.379167 123.841746 
L 77.431372 123.620594 
L 77.483578 123.402969 
L 77.535783 123.188714 
L 77.582775 122.998619 
L 77.64904 122.734814 
L 77.715305 122.47576 
L 77.78157 122.221223 
L 77.847835 121.970989 
L 77.961598 121.550862 
L 78.051144 121.22809 
L 78.140689 120.911865 
L 78.224904 120.620123 
L 78.309118 120.333586 
L 78.407685 120.004491 
L 78.484416 119.752769 
L 78.564777 119.493139 
L 78.645138 119.237436 
L 78.726886 118.981187 
L 78.808633 118.728683 
L 78.93339 118.350222 
L 79.058148 117.979673 
L 79.109106 117.830493 
L 79.233068 117.47264 
L 79.35703 117.121641 
L 79.499288 116.726844 
L 79.622877 116.390456 
L 79.731997 116.098315 
L 79.841116 115.810549 
L 79.939321 115.555167 
L 80.037525 115.303078 
L 80.151787 115.013767 
L 80.248145 114.773021 
L 80.402173 114.394092 
L 80.58616 113.950561 
L 80.700603 113.67945 
L 80.815045 113.411854 
L 80.965613 113.064953 
L 81.05628 112.858799 
L 81.154751 112.637164 
L 81.287113 112.34285 
L 81.419476 112.052543 
L 81.493134 111.892675 
L 81.647596 111.56123 
L 81.786159 111.26815 
L 81.986366 110.851509 
L 82.129693 110.558013 
L 82.32779 110.158658 
L 82.501389 109.814477 
L 82.686567 109.453066 
L 82.838121 109.161527 
L 82.967258 108.916037 
L 83.105703 108.655759 
L 83.33073 108.238925 
L 83.451039 108.019133 
L 83.597112 107.755061 
L 83.769621 107.447028 
L 83.928928 107.166155 
L 84.056189 106.94419 
L 84.133237 106.810822 
L 84.288066 106.545099 
L 84.569688 106.069348 
L 84.684547 105.878041 
L 84.839859 105.6218 
L 84.9127 105.502573 
L 85.162514 105.098177 
L 85.358832 104.785147 
L 85.370157 104.767213 
L 85.534921 104.507833 
L 85.692752 104.261988 
L 85.947675 103.870182 
L 86.062878 103.695207 
L 86.24104 103.427103 
L 86.429662 103.146493 
L 86.571627 102.937443 
L 86.770894 102.647054 
L 86.817291 102.579943 
L 87.078281 102.205891 
L 87.143734 102.112991 
L 87.316037 101.870143 
L 87.524676 101.579336 
L 87.713427 101.319255 
L 87.838286 101.148748 
L 87.898212 101.067343 
L 88.060384 100.848421 
L 88.18608 100.680106 
L 88.387012 100.413479 
L 88.553451 100.194854 
L 88.671092 100.041526 
L 88.837269 99.826601 
L 89.009724 99.605588 
L 89.149115 99.428436 
L 89.334397 99.194985 
L 89.53007 98.95091 
L 89.743508 98.687509 
L 89.793587 98.62613 
L 89.981591 98.397114 
L 90.158966 98.183066 
L 90.278539 98.03986 
L 90.45673 97.828058 
L 90.667928 97.579473 
L 90.8071 97.417096 
L 90.879233 97.333379 
L 91.151368 97.020215 
L 91.307147 96.842831 
L 91.440873 96.691633 
L 91.588602 96.525744 
L 91.774775 96.318369 
L 91.927841 96.14926 
L 91.979448 96.092523 
L 92.209592 95.8412 
L 92.320952 95.720577 
L 92.504522 95.523121 
L 92.666466 95.350341 
L 92.84572 95.160617 
L 93.029197 94.968061 
L 93.182712 94.808206 
L 93.272411 94.715328 
L 93.354597 94.630566 
L 93.605977 94.373288 
L 93.763504 94.21357 
L 93.964744 94.011193 
L 94.037559 93.938421 
L 94.134152 93.842255 
L 94.410083 93.569847 
L 94.581865 93.401959 
L 94.658106 93.327859 
L 94.887674 93.106259 
L 95.044954 92.955741 
L 95.216171 92.793075 
L 95.37903 92.639491 
L 95.409816 92.610582 
L 95.60029 92.43259 
L 95.719684 92.321779 
L 95.973418 92.088201 
L 96.073791 91.996515 
L 96.24459 91.841417 
L 96.393987 91.706694 
L 96.624813 91.500251 
L 96.639724 91.486986 
L 96.850791 91.300132 
L 97.004449 91.165166 
L 97.221265 90.976238 
L 97.420898 90.803831 
L 97.534685 90.706219 
L 97.67146 90.589514 
L 97.764739 90.510313 
L 97.903291 90.393252 
L 98.090989 90.235764 
L 98.250258 90.103113 
L 98.38915 89.988162 
L 98.596653 89.817683 
L 98.804133 89.648712 
L 98.930932 89.546175 
L 99.032824 89.464176 
L 99.157606 89.364234 
L 99.305008 89.246849 
L 99.504241 89.089341 
L 99.713723 88.925148 
L 99.833079 88.832239 
L 100.056749 88.659378 
L 100.120385 88.610493 
L 100.316681 88.460517 
L 100.528572 88.300002 
L 100.570245 88.268601 
L 100.72585 88.151831 
L 100.930182 87.999644 
L 101.168568 87.823727 
L 101.30057 87.727066 
L 101.336703 87.7007 
L 101.564917 87.535087 
L 101.70534 87.433964 
L 101.87543 87.312267 
L 102.009836 87.216711 
L 102.225646 87.064395 
L 102.397936 86.943775 
L 102.457191 86.902491 
L 102.597102 86.805416 
L 102.821892 86.65063 
L 102.974323 86.546492 
L 103.133925 86.438162 
L 103.259514 86.353425 
L 103.521495 86.178086 
L 103.667447 86.081233 
L 103.717402 86.048218 
L 103.916041 85.917621 
L 104.049392 85.830555 
L 104.241802 85.705784 
L 104.396514 85.606186 
L 104.490424 85.546044 
L 104.668398 85.432715 
L 104.781426 85.36118 
L 104.955841 85.25146 
L 105.231898 85.079437 
L 105.317898 85.026254 
L 105.523345 84.899983 
L 105.593783 84.856943 
L 105.820194 84.719462 
L 106.010804 84.604739 
L 106.078598 84.564158 
L 106.266092 84.452533 
L 106.430345 84.355474 
L 106.595364 84.258643 
L 106.691544 84.202519 
L 106.892308 84.086109 
L 106.892308 138.046154 
z
" style="fill:#808080;opacity:0.5;"/>
   </g>
   <g id="patch_6">
    <path clip-path="url(#p0bc49996e3)" d="M 75.738462 138.046154 
L 75.738462 138.046154 
L 75.743204 138.814882 
L 75.747946 139.133279 
L 75.752688 139.377579 
L 75.757431 139.583522 
L 75.762173 139.764951 
L 75.766915 139.928966 
L 75.771658 140.079785 
L 75.7764 140.220156 
L 75.781142 140.351987 
L 75.785885 140.476669 
L 75.790627 140.595251 
L 75.795369 140.708549 
L 75.800112 140.817209 
L 75.804854 140.921759 
L 75.809596 141.022632 
L 75.814339 141.120188 
L 75.823823 141.306536 
L 75.833308 141.482767 
L 75.842792 141.650367 
L 75.852277 141.810488 
L 75.861762 141.964048 
L 75.871246 142.11179 
L 75.880731 142.254327 
L 75.890216 142.392171 
L 75.902477 142.564116 
L 75.914739 142.729721 
L 75.927001 142.889636 
L 75.939262 143.044408 
L 75.951524 143.194499 
L 75.963786 143.340309 
L 75.976047 143.482181 
L 75.988309 143.620417 
L 76.000571 143.75528 
L 76.012832 143.887005 
L 76.037356 144.141846 
L 76.061879 144.386358 
L 76.086402 144.621693 
L 76.102981 144.776077 
L 76.11956 144.926958 
L 76.152717 145.219091 
L 76.185875 145.499635 
L 76.219032 145.769854 
L 76.242507 145.955497 
L 76.265981 146.136813 
L 76.289455 146.314087 
L 76.31293 146.487574 
L 76.336404 146.657502 
L 76.359879 146.824079 
L 76.406827 147.14791 
L 76.434037 147.330314 
L 76.461247 147.509124 
L 76.488457 147.684541 
L 76.515667 147.856747 
L 76.548341 148.059525 
L 76.581016 148.258172 
L 76.61369 148.452926 
L 76.646364 148.644001 
L 76.685851 148.870282 
L 76.725338 149.091788 
L 76.764824 149.308799 
L 76.804311 149.521571 
L 76.842219 149.722063 
L 76.880127 149.91905 
L 76.918035 150.112701 
L 76.955943 150.303176 
L 77.007904 150.559368 
L 77.059865 150.810208 
L 77.111826 151.056004 
L 77.163787 151.297038 
L 77.229441 151.595176 
L 77.320862 151.999198 
L 77.412283 152.391264 
L 77.480068 152.674816 
L 77.547853 152.952667 
L 77.613029 153.214739 
L 77.678206 153.472085 
L 77.743382 153.724935 
L 77.808558 153.973506 
L 77.874282 154.220032 
L 77.940006 154.462594 
L 78.010166 154.717346 
L 78.080326 154.967973 
L 78.177635 155.309092 
L 78.301463 155.732886 
L 78.425291 156.145913 
L 78.508515 156.417819 
L 78.591739 156.685388 
L 78.638052 156.832478 
L 78.737216 157.143231 
L 78.836379 157.448501 
L 78.945238 157.777608 
L 79.054098 158.100725 
L 79.192655 158.503774 
L 79.286874 158.772841 
L 79.426711 159.165091 
L 79.582215 159.591834 
L 79.710515 159.93683 
L 79.838815 160.275733 
L 79.982647 160.648757 
L 80.112648 160.979915 
L 80.288408 161.419029 
L 80.397065 161.685762 
L 80.505722 161.949025 
L 80.552977 162.062463 
L 80.667754 162.335405 
L 80.782531 162.604778 
L 80.893769 162.862548 
L 81.038226 163.192618 
L 81.183632 163.519711 
L 81.334635 163.854141 
L 81.518154 164.253668 
L 81.710604 164.664838 
L 81.889266 165.039718 
L 82.015659 165.301102 
L 82.080945 165.434909 
L 82.331607 165.941276 
L 82.439664 166.156059 
L 82.576898 166.425903 
L 82.799302 166.856462 
L 82.954911 167.152913 
L 83.023405 167.282187 
L 83.194523 167.601985 
L 83.414784 168.007161 
L 83.563097 168.276024 
L 83.795237 168.690672 
L 83.94277 168.950398 
L 84.090823 169.208162 
L 84.268496 169.513789 
L 84.327755 169.614844 
L 84.578103 170.037028 
L 84.632949 170.128518 
L 84.777505 170.367966 
L 84.930926 170.619473 
L 85.117293 170.921436 
L 85.294045 171.204314 
L 85.448849 171.449327 
L 85.538791 171.590533 
L 85.727136 171.883543 
L 85.836567 172.052147 
L 86.035845 172.356156 
L 86.209534 172.618012 
L 86.324171 172.789282 
L 86.602219 173.199675 
L 86.757819 173.426307 
L 86.838719 173.543296 
L 87.011839 173.791744 
L 87.161265 174.004137 
L 87.377008 174.307513 
L 87.520281 174.506882 
L 87.569483 174.574968 
L 87.854514 174.965631 
L 88.01244 175.179373 
L 88.167762 175.387747 
L 88.333478 175.608082 
L 88.490565 175.815084 
L 88.561514 175.907994 
L 88.70068 176.089192 
L 88.845042 176.275712 
L 89.064517 176.556513 
L 89.272243 176.819265 
L 89.281711 176.831172 
L 89.488693 177.089995 
L 89.718182 177.373697 
L 89.861414 177.549057 
L 90.049286 177.777114 
L 90.129073 177.873304 
L 90.233752 177.998911 
L 90.408453 178.207054 
L 90.630881 178.46942 
L 90.83296 178.705259 
L 90.915973 178.801455 
L 91.051684 178.957868 
L 91.225002 179.156107 
L 91.460446 179.422721 
L 91.569271 179.544924 
L 91.69643 179.686899 
L 91.797761 179.799413 
L 92.074181 180.103569 
L 92.121972 180.15575 
L 92.363043 180.417157 
L 92.433912 180.493437 
L 92.688523 180.765398 
L 92.879194 180.966945 
L 92.897225 180.985911 
L 93.126819 181.226032 
L 93.274336 181.378969 
L 93.36129 181.46863 
L 93.544266 181.656135 
L 93.805126 181.920747 
L 93.86542 181.981462 
L 94.079547 182.19574 
L 94.226011 182.341116 
L 94.359898 182.473168 
L 94.596918 182.704999 
L 94.623836 182.731172 
L 94.783494 182.885765 
L 95.008405 183.101683 
L 95.19359 183.277849 
L 95.365491 183.440091 
L 95.435746 183.506044 
L 95.632135 183.68933 
L 95.824259 183.867111 
L 95.977176 184.007547 
L 96.063578 184.086482 
L 96.181822 184.194028 
L 96.425599 184.414009 
L 96.62299 184.590434 
L 96.682577 184.643397 
L 96.93693 184.867947 
L 97.07174 184.985966 
L 97.146856 185.05143 
L 97.343234 185.22158 
L 97.48486 185.343405 
L 97.733725 185.555696 
L 97.884655 185.683351 
L 97.9477 185.736431 
L 98.154387 185.909454 
L 98.231313 185.973463 
L 98.457995 186.160873 
L 98.613916 186.28874 
L 98.812353 186.450259 
L 98.854131 186.484092 
L 99.081186 186.66693 
L 99.269491 186.817241 
L 99.375198 186.9011 
L 99.527406 187.021195 
L 99.627768 187.099962 
L 99.8543 187.276539 
L 100.082001 187.452344 
L 100.222451 187.55995 
L 100.387638 187.685702 
L 100.488281 187.761893 
L 100.623428 187.863702 
L 100.821836 188.012129 
L 100.993717 188.139721 
L 101.120522 188.233266 
L 101.18258 188.278866 
L 101.369506 188.41551 
L 101.631438 188.605198 
L 101.73301 188.6782 
L 101.806723 188.730986 
L 102.095976 188.936558 
L 102.12607 188.957804 
L 102.413461 189.159359 
L 102.538646 189.246402 
L 102.732749 189.38047 
L 102.847839 189.459451 
L 103.049411 189.596872 
L 103.103373 189.633464 
L 103.341217 189.793771 
L 103.433542 189.85557 
L 103.665146 190.009553 
L 103.830972 190.11889 
L 103.952813 190.198744 
L 104.138972 190.319967 
L 104.25736 190.396569 
L 104.394485 190.48482 
L 104.562554 190.592296 
L 104.683683 190.669286 
L 104.799109 190.742288 
L 104.989589 190.861985 
L 105.102748 190.932641 
L 105.28293 191.044453 
L 105.546131 191.206262 
L 105.69134 191.294764 
L 105.71889 191.311495 
L 105.957284 191.45545 
L 106.118431 191.551939 
L 106.267221 191.640444 
L 106.482898 191.767745 
L 106.501842 191.778871 
L 106.700063 191.894748 
L 106.892308 192.006198 
L 106.892308 138.046154 
z
" style="fill:#808080;opacity:0.5;"/>
   </g>
   <g id="patch_7">
    <path clip-path="url(#p0bc49996e3)" d="M 200.353846 138.046154 
L 200.335398 139.562244 
L 200.316951 140.190071 
L 200.298503 140.671711 
L 200.280055 141.077661 
L 200.261608 141.435231 
L 200.24316 141.758427 
L 200.224712 142.05557 
L 200.206264 142.332083 
L 200.187817 142.591731 
L 200.169369 142.837258 
L 200.150921 143.070733 
L 200.132473 143.293767 
L 200.095578 143.713383 
L 200.058683 144.103778 
L 200.021787 144.470281 
L 199.984892 144.816773 
L 199.947996 145.146185 
L 199.911101 145.460793 
L 199.874205 145.762408 
L 199.83731 146.0525 
L 199.763519 146.602752 
L 199.716726 146.93373 
L 199.669934 147.252579 
L 199.623141 147.560518 
L 199.576349 147.858576 
L 199.482764 148.428421 
L 199.389179 148.967775 
L 199.283209 149.547094 
L 199.177239 150.097667 
L 199.071269 150.62327 
L 198.965299 151.126914 
L 198.86548 151.58344 
L 198.765661 152.024351 
L 198.665842 152.451083 
L 198.566023 152.864859 
L 198.398898 153.531462 
L 198.231774 154.168799 
L 198.121679 154.574305 
L 198.011584 154.969382 
L 197.791395 155.731025 
L 197.571206 156.45856 
L 197.351017 157.155883 
L 197.283568 157.36395 
L 197.018923 158.15737 
L 196.754278 158.917299 
L 196.561968 159.450545 
L 196.369659 159.969139 
L 196.17735 160.474096 
L 195.98504 160.966319 
L 195.724347 161.614662 
L 195.463653 162.242833 
L 195.35304 162.503655 
L 195.09998 163.088308 
L 194.84692 163.657118 
L 194.518629 164.3731 
L 194.190338 165.06613 
L 193.770305 165.922085 
L 193.432533 166.587308 
L 193.1039 167.216226 
L 192.775267 167.828241 
L 192.500222 168.328211 
L 192.225177 168.8176 
L 192.011501 169.190813 
L 191.484696 170.086296 
L 191.016428 170.854667 
L 190.691034 171.374297 
L 190.293862 171.993547 
L 189.896691 172.597136 
L 189.642159 172.976095 
L 189.160931 173.676591 
L 188.793924 174.197397 
L 188.426916 174.707132 
L 188.329573 174.840532 
L 187.894123 175.428349 
L 187.458673 176.002068 
L 187.352956 176.1393 
L 186.933159 176.676573 
L 186.513361 177.201975 
L 186.320383 177.439647 
L 185.884803 177.967478 
L 185.174823 178.803203 
L 184.980601 179.026712 
L 184.165407 179.942013 
L 184.082325 180.033289 
L 183.559208 180.599772 
L 182.774741 181.423591 
L 182.32769 181.879863 
L 181.937294 182.270766 
L 181.414188 182.783858 
L 181.227999 182.963598 
L 180.620535 183.539786 
L 179.945474 184.162263 
L 179.572404 184.498485 
L 179.179614 184.846656 
L 178.803252 185.174781 
L 178.11121 185.764492 
L 177.75803 186.058813 
L 177.504596 186.26731 
L 176.898665 186.756839 
L 176.255457 187.262997 
L 175.894566 187.541065 
L 175.537502 187.81208 
L 174.942734 188.254628 
L 174.728842 188.411111 
L 174.109282 188.856579 
L 173.410795 189.345186 
L 173.270677 189.441499 
L 172.841524 189.733006 
L 172.286193 190.102548 
L 171.593055 190.551905 
L 171.425116 190.658827 
L 170.686085 191.120473 
L 170.268399 191.37509 
L 169.612079 191.766177 
L 169.476771 191.845455 
L 168.939183 192.155943 
L 168.191718 192.575902 
L 168.178137 192.583408 
L 167.429488 192.990382 
L 167.162089 193.132548 
L 166.76756 193.339276 
L 166.054574 193.70383 
L 165.789793 193.836288 
L 164.95692 194.242766 
L 164.564291 194.429103 
L 164.106075 194.642347 
L 163.527323 194.905265 
L 163.188261 195.056004 
L 162.894406 195.184695 
L 162.264627 195.454464 
L 161.622204 195.721264 
L 161.409213 195.807871 
L 160.906892 196.008514 
L 160.390597 196.209496 
L 160.19611 196.283839 
L 159.49951 196.544035 
L 158.935992 196.747629 
L 158.649581 196.848767 
L 158.24091 196.990368 
L 157.817187 197.133841 
L 157.254095 197.31928 
L 156.903559 197.431731 
L 156.029277 197.7023 
L 155.940104 197.729108 
L 155.305415 197.915732 
L 154.960083 198.014208 
L 154.108915 198.247784 
L 153.66489 198.364506 
L 153.564248 198.390476 
L 152.829016 198.574788 
L 152.525153 198.648193 
L 151.822592 198.811755 
L 151.483641 198.887607 
L 150.88484 199.016775 
L 150.510196 199.094464 
L 150.290612 199.138885 
L 149.477153 199.296303 
L 148.935657 199.394888 
L 148.619768 199.450121 
L 148.168183 199.526175 
L 147.597114 199.617476 
L 147.185587 199.679905 
L 146.941926 199.715545 
L 146.573763 199.767531 
L 145.886319 199.858615 
L 145.346196 199.924728 
L 145.165638 199.945762 
L 144.667601 200.001016 
L 143.950241 200.073489 
L 143.579195 200.107688 
L 143.164252 200.143284 
L 142.568115 200.18954 
L 142.185035 200.216229 
L 141.576959 200.253725 
L 141.292141 200.269237 
L 140.607105 200.301194 
L 140.371604 200.310436 
L 139.722003 200.331305 
L 139.182877 200.343476 
L 138.606108 200.35133 
L 138.528016 200.351983 
L 138.040577 200.353846 
L 137.56481 200.351987 
L 137.08401 200.346417 
L 136.658903 200.338401 
L 136.226839 200.32728 
L 135.691012 200.30932 
L 135.123714 200.285272 
L 134.392355 200.246622 
L 134.320549 200.242363 
L 133.575593 200.193258 
L 133.402954 200.180599 
L 132.549096 200.110885 
L 132.286759 200.087091 
L 131.56391 200.015735 
L 131.088556 199.964167 
L 130.752216 199.925448 
L 130.554717 199.901848 
L 130.109441 199.846292 
L 129.381306 199.748414 
L 129.09115 199.706971 
L 128.641155 199.63994 
L 128.035111 199.544345 
L 127.663808 199.482751 
L 127.198856 199.402365 
L 126.454076 199.266022 
L 126.042095 199.186575 
L 125.478126 199.073141 
L 125.407302 199.058513 
L 124.878269 198.946526 
L 124.045746 198.760543 
L 123.706081 198.681216 
L 123.257478 198.573368 
L 122.832111 198.46785 
L 122.206472 198.306862 
L 121.77767 198.192517 
L 121.511481 198.119884 
L 121.172629 198.025589 
L 120.638035 197.872619 
L 120.218289 197.748882 
L 119.793793 197.620476 
L 119.016535 197.376771 
L 118.532324 197.219281 
L 118.161455 197.095686 
L 117.602111 196.90437 
L 117.223862 196.771623 
L 116.861241 196.641785 
L 116.446462 196.49016 
L 115.948107 196.303556 
L 115.498143 196.130883 
L 114.9346 195.908962 
L 114.1916 195.606633 
L 113.722056 195.40979 
L 113.669184 195.387342 
L 113.201976 195.186467 
L 112.33808 194.803034 
L 111.978105 194.638604 
L 111.772437 194.543413 
L 110.929381 194.143651 
L 110.493543 193.930876 
L 110.11183 193.741056 
L 109.758018 193.562186 
L 109.028499 193.184382 
L 108.623358 192.96926 
L 108.505312 192.905858 
L 107.966649 192.61237 
L 107.250882 192.211639 
L 106.892308 192.006198 
L 106.892308 200.353846 
L 106.906479 201.682649 
L 106.92065 202.232951 
L 106.934821 202.655139 
L 106.948992 203.010999 
L 106.963162 203.324464 
L 106.977333 203.60781 
L 106.991504 203.868329 
L 107.005675 204.110773 
L 107.019846 204.338442 
L 107.034017 204.55374 
L 107.062359 204.954075 
L 107.090701 205.322096 
L 107.119043 205.664523 
L 107.147385 205.986028 
L 107.175727 206.290011 
L 107.204069 206.579038 
L 107.232411 206.855106 
L 107.260752 207.1198 
L 107.289094 207.374408 
L 107.345778 207.857429 
L 107.385924 208.181269 
L 107.42607 208.492034 
L 107.466216 208.79117 
L 107.506362 209.079873 
L 107.586654 209.629842 
L 107.666946 210.148322 
L 107.747238 210.640076 
L 107.82753 211.10877 
L 107.907821 211.557299 
L 107.988113 211.987996 
L 108.069526 212.408458 
L 108.150939 212.814209 
L 108.232352 213.206642 
L 108.313764 213.586942 
L 108.39422 213.951845 
L 108.474675 214.306745 
L 108.635585 214.989425 
L 108.796496 215.639957 
L 108.957406 216.262284 
L 109.072576 216.692188 
L 109.251176 217.335809 
L 109.429776 217.954099 
L 109.608376 218.54964 
L 109.786977 219.124599 
L 109.974718 219.708808 
L 110.16246 220.274122 
L 110.367355 220.871362 
L 110.572251 221.449712 
L 110.762399 221.970861 
L 110.952548 222.478105 
L 111.142696 222.972378 
L 111.332845 223.454514 
L 111.397395 223.615562 
L 111.7381 224.444893 
L 112.078804 225.241946 
L 112.323684 225.796589 
L 112.568563 226.337088 
L 112.911649 227.072193 
L 113.276516 227.827696 
L 113.641383 228.558253 
L 113.894628 229.051658 
L 114.147874 229.534524 
L 114.221116 229.672284 
L 114.529124 230.242704 
L 114.837132 230.799324 
L 115.29204 231.597731 
L 115.696226 232.284939 
L 116.019348 232.820241 
L 116.342471 233.343695 
L 116.801716 234.068359 
L 117.397703 234.977113 
L 117.67313 235.385692 
L 118.088763 235.989362 
L 118.441646 236.490227 
L 118.980877 237.235932 
L 119.355699 237.740932 
L 119.73052 238.235492 
L 120.061337 238.663641 
L 120.33445 239.0114 
L 120.91951 239.739666 
L 121.506302 240.448231 
L 121.876605 240.884635 
L 122.294488 241.36752 
L 123.045398 242.21076 
L 123.254815 242.440525 
L 123.750206 242.975023 
L 124.417337 243.675453 
L 124.825555 244.093498 
L 125.166274 244.43649 
L 125.830828 245.090447 
L 125.955626 245.211093 
L 126.833345 246.040989 
L 127.089677 246.277361 
L 127.525692 246.673394 
L 128.099019 247.182874 
L 128.517106 247.546543 
L 129.114621 248.055114 
L 129.527682 248.399197 
L 129.800102 248.622848 
L 130.41858 249.121151 
L 131.053127 249.619093 
L 131.499919 249.961834 
L 131.990103 250.330562 
L 132.111298 250.420569 
L 132.769253 250.90134 
L 133.24157 251.23842 
L 133.528116 251.439707 
L 134.145843 251.86554 
L 134.693352 252.233898 
L 135.056356 252.473517 
L 135.510488 252.768208 
L 135.859183 252.990701 
L 136.352787 253.300132 
L 136.97911 253.683601 
L 137.538168 254.017399 
L 137.926593 254.244685 
L 138.196542 254.400438 
L 138.705577 254.689273 
L 139.339655 255.040301 
L 139.582857 255.172395 
L 140.132473 255.4658 
L 140.839945 255.833174 
L 141.154912 255.993055 
L 141.798795 256.312961 
L 142.334597 256.572158 
L 142.436231 256.620614 
L 142.945107 256.859856 
L 143.715781 257.21159 
L 143.809625 257.253559 
L 144.311621 257.47492 
L 145.160142 257.837181 
L 145.319303 257.903484 
L 145.888648 258.136451 
L 146.543951 258.39652 
L 146.838243 258.510534 
L 147.173314 258.638266 
L 147.893449 258.905357 
L 148.041404 258.958985 
L 148.580507 259.150828 
L 149.033373 259.30769 
L 149.471306 259.455683 
L 149.878147 259.589938 
L 150.36975 259.74804 
L 151.190044 260.001897 
L 151.57932 260.118051 
L 151.763303 260.171988 
L 152.224473 260.304493 
L 152.861544 260.481239 
L 153.164661 260.562786 
L 153.807887 260.730426 
L 154.506085 260.904134 
L 154.845726 260.985549 
L 155.311797 261.094 
L 155.910182 261.227726 
L 156.284272 261.308194 
L 156.884453 261.432286 
L 157.297505 261.51412 
L 157.562795 261.565152 
L 158.014267 261.649261 
L 158.784141 261.78477 
L 158.973346 261.816551 
L 159.271803 261.865466 
L 160.194255 262.007273 
L 160.48685 262.049304 
L 161.012998 262.121326 
L 161.170942 262.142055 
L 161.966928 262.240284 
L 162.157799 262.262294 
L 162.670372 262.318453 
L 163.431701 262.393956 
L 163.540343 262.403961 
L 163.983797 262.442813 
L 164.837156 262.508606 
L 165.018561 262.521073 
L 165.536044 262.553717 
L 166.047688 262.581745 
L 166.69881 262.611316 
L 167.007339 262.622946 
L 167.315366 262.633029 
L 167.885468 262.64767 
L 168.202363 262.653551 
L 168.711256 262.659622 
L 169.292761 262.661469 
L 169.86775 262.65796 
L 170.07231 262.655432 
L 170.795735 262.641101 
L 171.136054 262.631452 
L 171.625244 262.614321 
L 172.317053 262.583522 
L 172.573751 262.570133 
L 173.125495 262.537759 
L 173.574348 262.507797 
L 174.151733 262.464464 
L 174.46243 262.438912 
L 175.0229 262.388855 
L 175.379086 262.35439 
L 176.144092 262.273375 
L 176.504004 262.231952 
L 176.749187 262.202519 
L 177.313713 262.130995 
L 177.875988 262.054541 
L 178.495506 261.964252 
L 178.644448 261.941596 
L 178.985796 261.888281 
L 179.677593 261.774271 
L 180.13477 261.694529 
L 180.497362 261.628785 
L 180.870728 261.558769 
L 181.355976 261.464244 
L 181.947233 261.343653 
L 182.380127 261.25157 
L 182.933612 261.129141 
L 183.572783 260.981164 
L 184.050425 260.865939 
L 184.528591 260.746584 
L 184.666803 260.711336 
L 185.106715 260.596895 
L 185.712064 260.433795 
L 186.466986 260.221197 
L 186.726782 260.145655 
L 187.218945 259.999182 
L 187.591132 259.885475 
L 187.947632 259.774169 
L 188.420193 259.623001 
L 189.065581 259.409813 
L 189.615715 259.221895 
L 190.038833 259.073447 
L 190.720107 258.827204 
L 191.130673 258.674461 
L 191.233091 258.635845 
L 191.888337 258.383906 
L 192.150494 258.280725 
L 192.759691 258.035641 
L 193.124095 257.885457 
L 193.687297 257.648007 
L 194.422125 257.32834 
L 194.805841 257.156922 
L 195.211347 256.97238 
L 195.720346 256.735756 
L 196.190623 256.512148 
L 196.512749 256.356188 
L 197.064084 256.083922 
L 197.755462 255.73285 
L 197.938519 255.638076 
L 198.512511 255.33589 
L 199.020035 255.062292 
L 199.293129 254.912549 
L 200.008563 254.511772 
L 200.353846 254.313891 
z
" style="fill:#808080;opacity:0.5;"/>
   </g>
   <g id="patch_8">
    <path clip-path="url(#p0bc49996e3)" d="M 231.507692 200.353846 
L 231.500467 199.404971 
L 231.493241 199.011972 
L 231.486016 198.710441 
L 231.47879 198.45626 
L 231.471564 198.232342 
L 231.464339 198.029922 
L 231.457113 197.843794 
L 231.449888 197.670566 
L 231.442662 197.50788 
L 231.435437 197.354021 
L 231.428211 197.207695 
L 231.420985 197.067893 
L 231.41376 196.933817 
L 231.406534 196.804817 
L 231.399309 196.680359 
L 231.392083 196.559995 
L 231.384858 196.443347 
L 231.377632 196.330093 
L 231.363181 196.112684 
L 231.34873 195.905936 
L 231.334279 195.708425 
L 231.319828 195.51902 
L 231.305376 195.336801 
L 231.290925 195.161012 
L 231.276474 194.991022 
L 231.259258 194.795335 
L 231.242041 194.606357 
L 231.224825 194.423449 
L 231.207609 194.246064 
L 231.179802 193.970068 
L 231.151996 193.705636 
L 231.12419 193.451438 
L 231.096384 193.206384 
L 231.068577 192.969562 
L 231.040771 192.740204 
L 231.012965 192.517655 
L 230.985159 192.30135 
L 230.943536 191.988189 
L 230.901914 191.686535 
L 230.860292 191.395225 
L 230.81867 191.113282 
L 230.783344 190.880715 
L 230.748019 190.65385 
L 230.712693 190.432298 
L 230.677367 190.215709 
L 230.625354 189.90519 
L 230.573832 189.606693 
L 230.522309 189.316505 
L 230.470787 189.033989 
L 230.419265 188.758583 
L 230.380688 188.556733 
L 230.342112 188.358403 
L 230.303536 188.163421 
L 230.264959 187.97163 
L 230.192917 187.621503 
L 230.120875 187.281147 
L 230.068125 187.037693 
L 230.015374 186.798816 
L 229.962623 186.564278 
L 229.909872 186.333862 
L 229.840091 186.035051 
L 229.77031 185.742682 
L 229.718658 185.530199 
L 229.667007 185.320896 
L 229.563704 184.911316 
L 229.506062 184.687723 
L 229.44842 184.467486 
L 229.375911 184.195003 
L 229.269157 183.802567 
L 229.162403 183.419895 
L 229.07741 183.121774 
L 228.962875 182.728655 
L 228.848339 182.344844 
L 228.737802 181.98271 
L 228.627265 181.628231 
L 228.5238 181.302987 
L 228.441271 181.047879 
L 228.358741 180.796447 
L 228.271335 180.534011 
L 228.183929 180.275385 
L 228.086516 179.99146 
L 227.926463 179.53436 
L 227.839349 179.290246 
L 227.752235 179.049286 
L 227.619055 178.686761 
L 227.517743 178.415537 
L 227.416431 178.148088 
L 227.243871 177.700865 
L 227.191753 177.567775 
L 227.089183 177.308435 
L 226.986613 177.052433 
L 226.833553 176.676387 
L 226.694701 176.341185 
L 226.557811 176.016015 
L 226.382682 175.607343 
L 226.259983 175.325725 
L 226.137284 175.047836 
L 225.952465 174.636026 
L 225.944943 174.619434 
L 225.78129 174.261584 
L 225.592501 173.856028 
L 225.467514 173.591644 
L 225.342526 173.330425 
L 225.290158 173.221897 
L 225.113177 172.859026 
L 224.85743 172.344937 
L 224.809711 172.250314 
L 224.639957 171.916904 
L 224.424082 171.499915 
L 224.37701 171.410002 
L 224.174497 171.027182 
L 224.017219 170.734241 
L 223.842611 170.413346 
L 223.746146 170.237963 
L 223.524995 169.840842 
L 223.30271 169.448421 
L 223.25355 169.362521 
L 222.987724 168.903421 
L 222.920151 168.788139 
L 222.78882 168.565689 
L 222.557079 168.178224 
L 222.360321 167.854172 
L 222.250424 167.675091 
L 222.163869 167.534994 
L 221.882139 167.084629 
L 221.812276 166.974257 
L 221.66665 166.745824 
L 221.458012 166.422317 
L 221.386735 166.312794 
L 221.182769 166.002132 
L 221.039639 165.786515 
L 220.829943 165.474088 
L 220.674479 165.245065 
L 220.566113 165.086709 
L 220.314346 164.722791 
L 220.25725 164.641024 
L 220.003123 164.280432 
L 219.883409 164.112426 
L 219.728364 163.896571 
L 219.573128 163.68238 
L 219.487925 163.565627 
L 219.236068 163.223799 
L 219.095123 163.034613 
L 219.025906 162.942249 
L 218.835712 162.690275 
L 218.62054 162.408375 
L 218.518697 162.276101 
L 218.388089 162.107534 
L 218.191652 161.856228 
L 217.974243 161.581153 
L 217.862263 161.440704 
L 217.738641 161.286611 
L 217.561008 161.066935 
L 217.377071 160.84159 
L 217.219283 160.649981 
L 217.151176 160.567753 
L 217.010494 160.398806 
L 216.746689 160.085237 
L 216.58549 159.895672 
L 216.50681 159.803701 
L 216.371451 159.646319 
L 216.153952 159.395637 
L 216.080198 159.31124 
L 215.904173 159.111044 
L 215.684765 158.863906 
L 215.532439 158.69387 
L 215.31724 158.455771 
L 215.158896 158.28214 
L 215.014378 158.124813 
L 214.984455 158.092372 
L 214.794145 157.887124 
L 214.600262 157.679911 
L 214.495934 157.569189 
L 214.24682 157.306982 
L 214.121334 157.176047 
L 213.924934 156.972643 
L 213.763957 156.807293 
L 213.624713 156.665251 
L 213.544389 156.583723 
L 213.292672 156.330161 
L 213.196036 156.233586 
L 213.040945 156.079474 
L 212.917156 155.957239 
L 212.643784 155.689697 
L 212.534774 155.583925 
L 212.350801 155.406578 
L 212.291933 155.350137 
L 212.07356 155.142051 
L 211.944071 155.019611 
L 211.825457 154.908066 
L 211.610618 154.70751 
L 211.466528 154.574056 
L 211.339263 154.456885 
L 211.11423 154.251288 
L 210.9578 154.109553 
L 210.909702 154.066167 
L 210.659686 153.842095 
L 210.462108 153.666728 
L 210.328654 153.54912 
L 210.293481 153.518237 
L 210.001861 153.263968 
L 209.865358 153.146037 
L 209.669376 152.977923 
L 209.543199 152.87043 
L 209.44191 152.784557 
L 209.26491 152.635385 
L 209.075757 152.477207 
L 208.898445 152.330082 
L 208.760449 152.216341 
L 208.670644 152.142677 
L 208.478126 151.985702 
L 208.29196 151.835116 
L 208.112586 151.691138 
L 208.007948 151.60765 
L 207.822322 151.460444 
L 207.685559 151.352721 
L 207.615976 151.29815 
L 207.461324 151.177433 
L 207.233438 151.000973 
L 207.052727 150.862235 
L 206.939249 150.775649 
L 206.845256 150.704241 
L 206.6519 150.558227 
L 206.447336 150.405027 
L 206.359913 150.339954 
L 206.213036 150.23116 
L 206.033237 150.098885 
L 205.80138 149.92977 
L 205.605463 149.788139 
L 205.543292 149.743435 
L 205.413206 149.650274 
L 205.203875 149.501417 
L 205.104891 149.431481 
L 204.905188 149.291256 
L 204.730908 149.169834 
L 204.638217 149.105614 
L 204.481397 148.997527 
L 204.235574 148.829512 
L 204.171954 148.786309 
L 203.938847 148.628987 
L 203.841169 148.563519 
L 203.640022 148.429541 
L 203.460231 148.310738 
L 203.278817 148.191764 
L 203.249792 148.172814 
L 202.991176 148.004969 
L 202.800573 147.882425 
L 202.678443 147.804418 
L 202.488889 147.684136 
L 202.331926 147.585257 
L 202.236907 147.525716 
L 202.043354 147.405167 
L 201.881801 147.305298 
L 201.69267 147.189244 
L 201.533229 147.092126 
L 201.457636 147.04631 
L 201.251625 146.92219 
L 201.186968 146.883458 
L 200.92687 146.728719 
L 200.895014 146.709885 
L 200.673721 146.57975 
L 200.498231 146.477421 
L 200.353846 146.393802 
L 200.353846 254.313891 
L 200.50659 254.225415 
L 200.739802 254.089211 
L 200.795001 254.056774 
L 200.907205 253.990603 
L 201.077876 253.889344 
L 201.261727 253.779441 
L 201.396612 253.698262 
L 201.539267 253.6119 
L 201.732563 253.494046 
L 201.970835 253.347439 
L 202.129519 253.248981 
L 202.197498 253.2066 
L 202.359888 253.104869 
L 202.563491 252.976332 
L 202.656715 252.91711 
L 202.874621 252.777776 
L 203.090119 252.638723 
L 203.217015 252.556252 
L 203.259215 252.528729 
L 203.434555 252.413848 
L 203.621284 252.290574 
L 203.719988 252.225023 
L 203.948264 252.072379 
L 204.112788 251.961459 
L 204.21831 251.889916 
L 204.48409 251.708316 
L 204.526334 251.679265 
L 204.693474 251.563824 
L 204.914868 251.409666 
L 204.972163 251.369538 
L 205.186187 251.218793 
L 205.435938 251.041175 
L 205.552519 250.95763 
L 205.63053 250.901497 
L 205.840598 250.749432 
L 206.067105 250.583967 
L 206.122952 250.54293 
L 206.282054 250.425492 
L 206.429084 250.316271 
L 206.6317 250.164651 
L 206.72522 250.094236 
L 206.895233 249.965517 
L 207.143588 249.775831 
L 207.226576 249.712007 
L 207.401624 249.57665 
L 207.620551 249.405959 
L 207.784338 249.277229 
L 207.926998 249.164379 
L 208.087839 249.036333 
L 208.214687 248.934735 
L 208.366378 248.812523 
L 208.532345 248.67791 
L 208.66105 248.572867 
L 208.780136 248.475165 
L 209.037179 248.262589 
L 209.077918 248.228685 
L 209.204112 248.123288 
L 209.463034 247.905256 
L 209.579963 247.806002 
L 209.734759 247.673841 
L 209.89096 247.539589 
L 209.992709 247.451653 
L 210.199863 247.271431 
L 210.341372 247.147393 
L 210.466998 247.036642 
L 210.690258 246.838327 
L 210.883373 246.665237 
L 210.983237 246.575157 
L 211.226191 246.354365 
L 211.253002 246.329857 
L 211.494357 246.107927 
L 211.578663 246.029851 
L 211.762677 245.858429 
L 211.87464 245.753446 
L 212.102353 245.53832 
L 212.307596 245.342553 
L 212.484125 245.172738 
L 212.500406 245.157008 
L 212.648847 245.013069 
L 212.85043 244.816061 
L 213.06877 244.600648 
L 213.241326 244.428897 
L 213.286928 244.383283 
L 213.5332 244.135302 
L 213.619586 244.047655 
L 213.889659 243.771387 
L 213.985593 243.672424 
L 214.065121 243.590051 
L 214.271608 243.374756 
L 214.418373 243.220468 
L 214.672632 242.950657 
L 214.689618 242.932516 
L 214.886255 242.721459 
L 215.048294 242.546055 
L 215.238069 242.3389 
L 215.44699 242.108659 
L 215.593344 241.945986 
L 215.70493 241.821183 
L 215.911136 241.588763 
L 215.99519 241.493349 
L 216.174343 241.288667 
L 216.268188 241.180727 
L 216.505312 240.905738 
L 216.685841 240.694191 
L 216.782719 240.579875 
L 216.906176 240.433383 
L 217.091739 240.211466 
L 217.319557 239.936125 
L 217.493066 239.724245 
L 217.617004 239.571728 
L 217.807854 239.334932 
L 217.871762 239.255107 
L 217.979861 239.119471 
L 218.272059 238.748919 
L 218.310237 238.700073 
L 218.490254 238.468402 
L 218.592792 238.335429 
L 218.893443 237.941214 
L 218.91911 237.907256 
L 219.122517 237.636427 
L 219.288454 237.413195 
L 219.510899 237.110642 
L 219.540964 237.069455 
L 219.790092 236.725417 
L 219.971166 236.472224 
L 220.070379 236.332354 
L 220.293542 236.014729 
L 220.456836 235.779618 
L 220.599015 235.573013 
L 220.772466 235.318532 
L 220.823029 235.243835 
L 221.066628 234.880667 
L 221.130489 234.784543 
L 221.335156 234.47384 
L 221.525238 234.181616 
L 221.691037 233.923767 
L 221.734463 233.855767 
L 221.918711 233.56508 
L 222.086878 233.296624 
L 222.197789 233.117896 
L 222.38422 232.814395 
L 222.607498 232.44571 
L 222.807444 232.110584 
L 222.933753 231.896394 
L 223.044228 231.707436 
L 223.139238 231.543703 
L 223.327546 231.215753 
L 223.570025 230.786541 
L 223.740115 230.480652 
L 223.871268 230.241988 
L 224.031538 229.946936 
L 224.173922 229.681587 
L 224.305315 229.433955 
L 224.415753 229.223712 
L 224.585943 228.895848 
L 224.709435 228.654926 
L 224.85809 228.361445 
L 225.006744 228.064058 
L 225.084576 227.906754 
L 225.278993 227.508866 
L 225.44713 227.158863 
L 225.515491 227.014941 
L 225.669842 226.686439 
L 225.83389 226.331741 
L 225.965006 226.043974 
L 226.093658 225.757788 
L 226.222309 225.467682 
L 226.408932 225.039604 
L 226.4933 224.843156 
L 226.664189 224.439433 
L 226.766683 224.193425 
L 226.921096 223.817084 
L 227.044262 223.511779 
L 227.167428 223.201731 
L 227.329203 222.786953 
L 227.376475 222.664074 
L 227.492734 222.35852 
L 227.608993 222.048039 
L 227.768619 221.613325 
L 227.861101 221.356792 
L 228.005549 220.948891 
L 228.131223 220.586481 
L 228.256896 220.216665 
L 228.366238 219.888553 
L 228.447417 219.640942 
L 228.528596 219.389765 
L 228.627406 219.079015 
L 228.726216 218.762489 
L 228.808846 218.493139 
L 228.891477 218.219347 
L 228.954958 218.005858 
L 229.078406 217.582455 
L 229.201855 217.147474 
L 229.310013 216.756129 
L 229.40922 216.388133 
L 229.508427 216.010861 
L 229.569352 215.774282 
L 229.666723 215.387938 
L 229.764094 214.990752 
L 229.833688 214.699731 
L 229.903281 214.402339 
L 229.950573 214.196405 
L 229.997864 213.987197 
L 230.045155 213.774561 
L 230.092447 213.558332 
L 230.139589 213.339032 
L 230.186731 213.115789 
L 230.233873 212.888394 
L 230.281015 212.656615 
L 230.347694 212.320805 
L 230.414372 211.974912 
L 230.459487 211.734695 
L 230.504603 211.489115 
L 230.566349 211.143643 
L 230.628096 210.786372 
L 230.658969 210.602927 
L 230.689842 210.416045 
L 230.720715 210.225528 
L 230.751589 210.031163 
L 230.791404 209.774432 
L 230.83122 209.510332 
L 230.867425 209.263238 
L 230.903629 209.008941 
L 230.939834 208.746787 
L 230.976038 208.476015 
L 231.009632 208.216283 
L 231.043226 207.947524 
L 231.076819 207.668744 
L 231.110413 207.378749 
L 231.12721 207.229104 
L 231.144007 207.076087 
L 231.160804 206.919462 
L 231.177601 206.758963 
L 231.194398 206.594294 
L 231.211194 206.425113 
L 231.227991 206.251033 
L 231.244788 206.071606 
L 231.264859 205.849467 
L 231.284929 205.617886 
L 231.298852 205.451016 
L 231.312774 205.278456 
L 231.326697 205.099584 
L 231.34062 204.913659 
L 231.354543 204.719779 
L 231.368465 204.516832 
L 231.382388 204.303423 
L 231.389349 204.192252 
L 231.396311 204.077751 
L 231.403272 203.959602 
L 231.410233 203.837435 
L 231.417195 203.71081 
L 231.424156 203.579203 
L 231.431117 203.441976 
L 231.438079 203.298345 
L 231.44504 203.147321 
L 231.452001 202.987633 
L 231.458963 202.817597 
L 231.465924 202.6349 
L 231.472886 202.436212 
L 231.479847 202.216423 
L 231.486808 201.96693 
L 231.49377 201.67096 
L 231.500731 201.285213 
z
" style="fill:#808080;opacity:0.5;"/>
   </g>
   <g id="matplotlib.axis_1"/>
   <g id="matplotlib.axis_2"/>
   <g id="line2d_1">
    <path clip-path="url(#p0bc49996e3)" d="M 106.892308 84.086109 
L 109.63524 82.592854 
L 112.820226 81.073344 
L 116.530084 79.571311 
L 120.281601 78.324557 
L 123.994961 77.343497 
L 127.643814 76.612939 
L 131.478432 76.085573 
L 135.390398 75.795086 
L 139.24107 75.74992 
L 143.201099 75.952072 
L 146.596917 76.32798 
L 150.407315 76.976929 
L 153.641472 77.721743 
L 157.334858 78.79926 
L 160.950656 80.101074 
L 164.480306 81.623782 
L 167.992058 83.406504 
L 171.327849 85.371897 
L 174.587224 87.578355 
L 177.735884 90.015186 
L 180.746118 92.670372 
L 183.310754 95.228349 
L 185.888232 98.128939 
L 188.353211 101.284102 
L 190.422084 104.296925 
L 192.412837 107.60749 
L 194.065081 110.767438 
L 195.648409 114.292654 
L 197.033244 117.97698 
L 198.071921 121.338197 
L 199.032586 125.282784 
L 199.717556 129.164336 
L 200.135234 132.831311 
L 200.333972 136.472564 
L 200.353846 138.046154 
L 200.353846 138.046154 
" style="fill:none;stroke:#0000ff;stroke-linecap:square;"/>
   </g>
   <g id="line2d_2">
    <path clip-path="url(#p0bc49996e3)" d="M 75.738462 138.046154 
L 75.862175 134.1217 
L 76.207405 130.416106 
L 76.732737 126.959521 
L 77.535783 123.188714 
L 78.484416 119.752769 
L 79.622877 116.390456 
L 81.05628 112.858799 
L 82.686567 109.453066 
L 84.569688 106.069348 
L 86.571627 102.937443 
L 88.837269 99.826601 
L 91.151368 97.020215 
L 93.763504 94.21357 
L 96.393987 91.706694 
L 99.305008 89.246849 
L 102.225646 87.064395 
L 105.317898 85.026254 
L 106.892308 84.086109 
L 106.892308 84.086109 
" style="fill:none;stroke:#0000ff;stroke-linecap:square;"/>
   </g>
   <g id="line2d_3">
    <path clip-path="url(#p0bc49996e3)" d="M 75.738462 138.046154 
L 75.871246 142.11179 
L 76.219032 145.769854 
L 76.804311 149.521571 
L 77.613029 153.214739 
L 78.638052 156.832478 
L 79.838815 160.275733 
L 81.334635 163.854141 
L 83.023405 167.282187 
L 84.930926 170.619473 
L 87.011839 173.791744 
L 89.281711 176.831172 
L 91.69643 179.686899 
L 94.226011 182.341116 
L 96.93693 184.867947 
L 99.8543 187.276539 
L 102.847839 189.459451 
L 105.957284 191.45545 
L 106.892308 192.006198 
L 106.892308 192.006198 
" style="fill:none;stroke:#0000ff;stroke-linecap:square;"/>
   </g>
   <g id="line2d_4">
    <path clip-path="url(#p0bc49996e3)" d="M 106.892308 200.353846 
L 107.034017 204.55374 
L 107.385924 208.181269 
L 107.988113 211.987996 
L 108.796496 215.639957 
L 109.786977 219.124599 
L 110.952548 222.478105 
L 112.323684 225.796589 
L 113.894628 229.051658 
L 115.696226 232.284939 
L 117.67313 235.385692 
L 120.061337 238.663641 
L 122.294488 241.36752 
L 125.166274 244.43649 
L 128.099019 247.182874 
L 131.053127 249.619093 
L 134.145843 251.86554 
L 137.538168 254.017399 
L 140.839945 255.833174 
L 144.311621 257.47492 
L 148.041404 258.958985 
L 151.763303 260.171988 
L 155.311797 261.094 
L 159.271803 261.865466 
L 163.431701 262.393956 
L 167.007339 262.622946 
L 170.795735 262.641101 
L 174.46243 262.438912 
L 177.875988 262.054541 
L 181.355976 261.464244 
L 185.106715 260.596895 
L 188.420193 259.623001 
L 192.150494 258.280725 
L 195.720346 256.735756 
L 199.020035 255.062292 
L 200.353846 254.313891 
L 200.353846 254.313891 
" style="fill:none;stroke:#228b22;stroke-linecap:square;"/>
   </g>
   <g id="line2d_5">
    <path clip-path="url(#p0bc49996e3)" d="M 200.353846 254.313891 
L 203.434555 252.413848 
L 206.429084 250.316271 
L 209.204112 248.123288 
L 212.102353 245.53832 
L 214.689618 242.932516 
L 217.091739 240.211466 
L 219.288454 237.413195 
L 221.335156 234.47384 
L 223.327546 231.215753 
L 225.084576 227.906754 
L 226.664189 224.439433 
L 228.005549 220.948891 
L 229.078406 217.582455 
L 230.045155 213.774561 
L 230.751589 210.031163 
L 231.227991 206.251033 
L 231.465924 202.6349 
L 231.507692 200.353846 
L 231.507692 200.353846 
" style="fill:none;stroke:#228b22;stroke-linecap:square;"/>
   </g>
   <g id="text_1">
    <!-- $\Omega$ -->
    <g transform="translate(16.011538 22.420913)scale(0.1 -0.1)">
     <defs>
      <path d="M 7.71875 0 
L 4.390625 16.609375 
L 7.328125 16.609375 
Q 7.859375 13.71875 8.296875 11.5 
Q 8.734375 9.28125 9.4375 8.375 
Q 10.15625 7.46875 11.71875 7.171875 
Q 13.28125 6.890625 16.890625 6.890625 
L 23 6.890625 
Q 21.53125 12.546875 15.6875 21.65625 
Q 9.859375 30.765625 7.734375 34.890625 
Q 5.609375 39.015625 5.609375 45.515625 
Q 5.609375 53.078125 10.09375 58.765625 
Q 14.59375 64.453125 21.703125 67.484375 
Q 28.8125 70.515625 36.078125 70.515625 
Q 43.3125 70.515625 50.40625 67.484375 
Q 57.515625 64.453125 62 58.71875 
Q 66.5 52.984375 66.5 45.515625 
Q 66.5 40.4375 64.640625 35.9375 
Q 62.796875 31.453125 59.90625 26.953125 
Q 57.03125 22.46875 53.6875 16.9375 
Q 50.34375 11.421875 49.125 6.890625 
L 55.171875 6.890625 
Q 58.84375 6.890625 60.453125 7.171875 
Q 62.0625 7.46875 62.734375 8.375 
Q 63.421875 9.28125 63.84375 11.5 
Q 64.265625 13.71875 64.796875 16.609375 
L 67.671875 16.609375 
L 64.40625 0 
L 46.6875 0 
Q 45.703125 0 45.703125 1.3125 
Q 45.703125 6.390625 46.9375 11.265625 
Q 48.1875 16.15625 50.625 23.09375 
Q 53.078125 30.03125 54.4375 35.328125 
Q 55.8125 40.625 55.8125 45.515625 
Q 55.8125 51.515625 53.46875 56.640625 
Q 51.125 61.765625 46.625 64.84375 
Q 42.140625 67.921875 36.078125 67.921875 
Q 26.953125 67.921875 21.625 61.40625 
Q 16.3125 54.890625 16.3125 45.515625 
Q 16.359375 40.375 17.53125 35.828125 
Q 18.703125 31.296875 21.3125 23.71875 
Q 23.921875 16.15625 25.171875 11.265625 
Q 26.421875 6.390625 26.421875 1.3125 
Q 26.421875 0 25.390625 0 
z
" id="Cmr10-173"/>
     </defs>
     <use transform="translate(0 0.484375)" xlink:href="#Cmr10-173"/>
    </g>
   </g>
   <g id="text_2">
    <!-- $A$ -->
    <g style="fill:#0000ff;" transform="translate(103.142308 78.497837)scale(0.1 -0.1)">
     <defs>
      <path d="M 4.5 0 
Q 3.515625 0 3.515625 1.3125 
Q 3.90625 3.515625 4.78125 3.515625 
Q 8.84375 3.515625 11.796875 5.125 
Q 14.75 6.734375 16.890625 10.109375 
Q 17.09375 10.296875 17.09375 10.296875 
L 52.78125 70.515625 
Q 53.5625 71.578125 54.6875 71.578125 
L 56 71.578125 
Q 56.296875 71.578125 56.59375 71.453125 
Q 56.890625 71.34375 57.109375 71.0625 
Q 57.328125 70.796875 57.328125 70.515625 
L 63.375 5.90625 
Q 63.375 5.46875 63.8125 4.59375 
Q 64.796875 3.515625 71.296875 3.515625 
Q 72.3125 3.515625 72.3125 2.203125 
Q 71.96875 0.875 71.75 0.4375 
Q 71.53125 0 70.609375 0 
L 45.609375 0 
Q 44.671875 0 44.671875 1.3125 
Q 45.21875 3.515625 46 3.515625 
Q 53.90625 3.515625 54.390625 6.203125 
L 52.875 22.703125 
L 28.21875 22.703125 
L 20.21875 9.28125 
Q 19.484375 8.203125 19.484375 6.78125 
Q 19.484375 5.03125 21.171875 4.265625 
Q 22.859375 3.515625 24.90625 3.515625 
Q 25.875 3.515625 25.875 2.203125 
Q 25.53125 0.78125 25.328125 0.390625 
Q 25.140625 0 24.21875 0 
z
M 30.171875 26.21875 
L 52.484375 26.21875 
L 49.515625 58.59375 
z
" id="Cmmi10-65"/>
     </defs>
     <use transform="translate(0 0.421875)" xlink:href="#Cmmi10-65"/>
    </g>
   </g>
   <g id="text_3">
    <!-- $B$ -->
    <g style="fill:#ff0000;" transform="translate(227.707692 78.497837)scale(0.1 -0.1)">
     <defs>
      <path d="M 4.984375 0 
Q 4 0 4 1.3125 
Q 4.046875 1.5625 4.1875 2.140625 
Q 4.34375 2.734375 4.578125 3.125 
Q 4.828125 3.515625 5.328125 3.515625 
Q 8.15625 3.515625 10.25 3.65625 
Q 12.359375 3.8125 13.8125 4.203125 
Q 14.984375 4.640625 15.71875 6.890625 
L 29.390625 61.8125 
Q 29.59375 62.796875 29.59375 63.1875 
Q 29.59375 64.265625 28.421875 64.40625 
Q 26.515625 64.796875 21.1875 64.796875 
Q 20.21875 64.796875 20.21875 66.109375 
Q 20.265625 66.359375 20.40625 66.96875 
Q 20.5625 67.578125 20.828125 67.9375 
Q 21.09375 68.3125 21.484375 68.3125 
L 57.328125 68.3125 
Q 60.59375 68.3125 63.796875 67.5 
Q 67 66.703125 69.703125 64.9375 
Q 72.40625 63.1875 74 60.5625 
Q 75.59375 57.953125 75.59375 54.5 
Q 75.59375 50.734375 73.65625 47.5 
Q 71.734375 44.28125 68.671875 41.890625 
Q 65.625 39.5 62.078125 37.953125 
Q 58.546875 36.421875 54.6875 35.6875 
Q 57.421875 35.6875 60.21875 34.609375 
Q 63.03125 33.546875 65.234375 31.6875 
Q 67.4375 29.828125 68.78125 27.234375 
Q 70.125 24.65625 70.125 21.6875 
Q 70.125 15.671875 65.921875 10.6875 
Q 61.71875 5.71875 55.34375 2.859375 
Q 48.96875 0 43.015625 0 
z
M 23.390625 4.296875 
Q 23.390625 3.515625 26.8125 3.515625 
L 41.109375 3.515625 
Q 46 3.515625 50.484375 6.21875 
Q 54.984375 8.9375 57.6875 13.421875 
Q 60.40625 17.921875 60.40625 22.796875 
Q 60.40625 25.78125 59.15625 28.4375 
Q 57.90625 31.109375 55.5625 32.640625 
Q 53.21875 34.1875 50.203125 34.1875 
L 30.71875 34.1875 
L 23.78125 6.5 
Q 23.390625 5.125 23.390625 4.296875 
z
M 31.390625 36.8125 
L 46.578125 36.8125 
Q 51.375 36.8125 55.890625 39.25 
Q 60.40625 41.703125 63.25 45.890625 
Q 66.109375 50.09375 66.109375 54.78125 
Q 66.109375 59.125 63.390625 61.953125 
Q 60.6875 64.796875 56.390625 64.796875 
L 42.671875 64.796875 
Q 39.984375 64.796875 39.0625 64.296875 
Q 38.140625 63.8125 37.5 61.375 
z
" id="Cmmi10-66"/>
     </defs>
     <use transform="translate(0 0.6875)" xlink:href="#Cmmi10-66"/>
    </g>
   </g>
   <g id="text_4">
    <!-- $C$ -->
    <g style="fill:#228b22;" transform="translate(150.023077 271.651683)scale(0.1 -0.1)">
     <defs>
      <path d="M 14.59375 21.578125 
Q 14.59375 15.578125 16.90625 11.015625 
Q 19.234375 6.453125 23.65625 3.875 
Q 28.078125 1.3125 34.078125 1.3125 
Q 40.375 1.3125 46.203125 4.53125 
Q 52.046875 7.765625 56.171875 13.15625 
Q 60.296875 18.5625 61.8125 24.609375 
Q 62.015625 25.203125 62.59375 25.203125 
L 63.8125 25.203125 
Q 64.203125 25.203125 64.453125 24.921875 
Q 64.703125 24.65625 64.703125 24.3125 
Q 64.703125 24.21875 64.59375 24.03125 
Q 62.890625 17.09375 57.984375 11.015625 
Q 53.078125 4.9375 46.234375 1.359375 
Q 39.40625 -2.203125 32.171875 -2.203125 
Q 24.359375 -2.203125 18.15625 1.3125 
Q 11.96875 4.828125 8.515625 11.078125 
Q 5.078125 17.328125 5.078125 25.203125 
Q 5.078125 33.59375 8.828125 41.8125 
Q 12.59375 50.046875 18.9375 56.46875 
Q 25.296875 62.890625 33.421875 66.703125 
Q 41.546875 70.515625 49.90625 70.515625 
Q 53.21875 70.515625 56.25 69.5 
Q 59.28125 68.5 61.859375 66.453125 
Q 64.453125 64.40625 66.109375 61.71875 
L 74.03125 70.3125 
Q 74.03125 70.515625 74.515625 70.515625 
L 75.09375 70.515625 
Q 75.484375 70.515625 75.734375 70.171875 
Q 75.984375 69.828125 75.984375 69.484375 
L 69.1875 42.484375 
Q 69.1875 41.796875 68.40625 41.796875 
L 66.609375 41.796875 
Q 65.828125 41.796875 65.828125 42.921875 
Q 66.21875 45.125 66.21875 48.1875 
Q 66.21875 53.078125 64.546875 57.390625 
Q 62.890625 61.71875 59.390625 64.359375 
Q 55.90625 67 50.875 67 
Q 42.71875 67 35.9375 62.890625 
Q 29.15625 58.796875 24.4375 52.125 
Q 19.734375 45.453125 17.15625 37.328125 
Q 14.59375 29.203125 14.59375 21.578125 
z
" id="Cmmi10-67"/>
     </defs>
     <use transform="translate(0 0.484375)" xlink:href="#Cmmi10-67"/>
    </g>
   </g>
   <g id="patch_9">
    <path clip-path="url(#p0bc49996e3)" d="M 138.046154 200.353846 
C 154.570347 200.353846 170.419977 193.788715 182.104346 182.104346 
C 193.788715 170.419977 200.353846 154.570347 200.353846 138.046154 
C 200.353846 121.521961 193.788715 105.672331 182.104346 93.987962 
C 170.419977 82.303593 154.570347 75.738462 138.046154 75.738462 
C 121.521961 75.738462 105.672331 82.303593 93.987962 93.987962 
C 82.303593 105.672331 75.738462 121.521961 75.738462 138.046154 
C 75.738462 154.570347 82.303593 170.419977 93.987962 182.104346 
C 105.672331 193.788715 121.521961 200.353846 138.046154 200.353846 
z
" style="fill:none;stroke:#0000ff;stroke-linejoin:miter;"/>
   </g>
   <g id="patch_10">
    <path clip-path="url(#p0bc49996e3)" d="M 200.353846 200.353846 
C 216.878039 200.353846 232.727669 193.788715 244.412038 182.104346 
C 256.096407 170.419977 262.661538 154.570347 262.661538 138.046154 
C 262.661538 121.521961 256.096407 105.672331 244.412038 93.987962 
C 232.727669 82.303593 216.878039 75.738462 200.353846 75.738462 
C 183.829653 75.738462 167.980023 82.303593 156.295654 93.987962 
C 144.611285 105.672331 138.046154 121.521961 138.046154 138.046154 
C 138.046154 154.570347 144.611285 170.419977 156.295654 182.104346 
C 167.980023 193.788715 183.829653 200.353846 200.353846 200.353846 
z
" style="fill:none;stroke:#ff0000;stroke-linejoin:miter;"/>
   </g>
   <g id="patch_11">
    <path clip-path="url(#p0bc49996e3)" d="M 169.2 262.661538 
C 185.724193 262.661538 201.573823 256.096407 213.258192 244.412038 
C 224.942561 232.727669 231.507692 216.878039 231.507692 200.353846 
C 231.507692 183.829653 224.942561 167.980023 213.258192 156.295654 
C 201.573823 144.611285 185.724193 138.046154 169.2 138.046154 
C 152.675807 138.046154 136.826177 144.611285 125.141808 156.295654 
C 113.457439 167.980023 106.892308 183.829653 106.892308 200.353846 
C 106.892308 216.878039 113.457439 232.727669 125.141808 244.412038 
C 136.826177 256.096407 152.675807 262.661538 169.2 262.661538 
z
" style="fill:none;stroke:#228b22;stroke-linejoin:miter;"/>
   </g>
  </g>
 </g>
 <defs>
  <clipPath id="p0bc49996e3">
   <rect height="324" width="324" x="7.2" y="7.2"/>
  </clipPath>
 </defs>
</svg>
