<?xml version="1.0" encoding="utf-8" standalone="no"?>
<!DOCTYPE svg PUBLIC "-//W3C//DTD SVG 1.1//EN"
  "http://www.w3.org/Graphics/SVG/1.1/DTD/svg11.dtd">
<!-- Created with matplotlib (https://matplotlib.org/) -->
<svg height="338.4pt" version="1.1" viewBox="0 0 338.4 338.4" width="338.4pt" xmlns="http://www.w3.org/2000/svg" xmlns:xlink="http://www.w3.org/1999/xlink">
 <metadata>
  <rdf:RDF xmlns:cc="http://creativecommons.org/ns#" xmlns:dc="http://purl.org/dc/elements/1.1/" xmlns:rdf="http://www.w3.org/1999/02/22-rdf-syntax-ns#">
   <cc:Work>
    <dc:type rdf:resource="http://purl.org/dc/dcmitype/StillImage"/>
    <dc:date>2021-08-20T18:31:16.680842</dc:date>
    <dc:format>image/svg+xml</dc:format>
    <dc:creator>
     <cc:Agent>
      <dc:title>Matplotlib v3.3.4, https://matplotlib.org/</dc:title>
     </cc:Agent>
    </dc:creator>
   </cc:Work>
  </rdf:RDF>
 </metadata>
 <defs>
  <style type="text/css">*{stroke-linecap:butt;stroke-linejoin:round;}</style>
 </defs>
 <g id="figure_1">
  <g id="patch_1">
   <path d="M -0 338.4 
L 338.4 338.4 
L 338.4 0 
L -0 0 
z
" style="fill:#ffffff;"/>
  </g>
  <g id="axes_1">
   <g id="patch_2">
    <path d="M 7.2 331.2 
L 331.2 331.2 
L 331.2 7.2 
L 7.2 7.2 
z
" style="fill:#ffffff;"/>
   </g>
   <g id="patch_3">
    <path clip-path="url(#pee96c1a262)" d="M 13.430769 324.969231 
L 13.430769 13.430769 
L 324.969231 13.430769 
L 324.969231 324.969231 
z
" style="fill:none;stroke:#000000;stroke-linejoin:miter;"/>
   </g>
   <g id="patch_4">
    <path clip-path="url(#pee96c1a262)" d="M 169.2 138.046154 
L 169.003757 138.046463 
L 168.81527 138.047342 
L 168.754258 138.047748 
L 168.525714 138.049802 
L 168.437956 138.050814 
L 168.200711 138.054168 
L 168.167882 138.054703 
L 167.996598 138.057776 
L 167.73866 138.063293 
L 167.658069 138.065236 
L 167.446735 138.070826 
L 167.391535 138.072404 
L 167.203 138.078165 
L 167.04356 138.083482 
L 166.9242 138.08773 
L 166.698534 138.096387 
L 166.484821 138.105342 
L 166.37054 138.110431 
L 166.223539 138.117288 
L 166.000022 138.12838 
L 165.961464 138.130375 
L 165.706078 138.144192 
L 165.647283 138.147522 
L 165.421533 138.160826 
L 165.29654 138.168546 
L 165.074872 138.182857 
L 165.044353 138.18489 
L 164.859195 138.197544 
L 164.687447 138.209777 
L 164.517358 138.222361 
L 164.358453 138.234542 
L 164.134299 138.252419 
L 164.109781 138.254424 
L 163.880912 138.273609 
L 163.738239 138.285999 
L 163.490817 138.308268 
L 163.429744 138.313918 
L 163.259281 138.330009 
L 163.03274 138.352125 
L 162.877602 138.367753 
L 162.756449 138.380229 
L 162.661231 138.390203 
L 162.526797 138.404537 
L 162.237395 138.436396 
L 162.093828 138.452709 
L 161.964451 138.467698 
L 161.887103 138.47679 
L 161.660093 138.504042 
L 161.603268 138.510995 
L 161.366626 138.540524 
L 161.14458 138.569069 
L 161.091519 138.57601 
L 160.918563 138.598957 
L 160.686692 138.630495 
L 160.562481 138.647754 
L 160.509082 138.655253 
L 160.230129 138.69519 
L 160.120148 138.711289 
L 160.029881 138.724653 
L 159.858749 138.75036 
L 159.576349 138.793844 
L 159.537774 138.799887 
L 159.315481 138.835192 
L 159.16528 138.859514 
L 159.048031 138.878761 
L 158.860948 138.909949 
L 158.643523 138.94693 
L 158.508077 138.970369 
L 158.442073 138.981902 
L 158.314996 139.004313 
L 158.136048 139.036332 
L 157.996494 139.061677 
L 157.738932 139.109316 
L 157.652456 139.125562 
L 157.499347 139.154637 
L 157.364853 139.180504 
L 157.07668 139.236961 
L 156.920225 139.268204 
L 156.842228 139.283935 
L 156.730236 139.306704 
L 156.549906 139.343817 
L 156.411755 139.372625 
L 156.143032 139.429597 
L 156.039241 139.451934 
L 155.889344 139.484519 
L 155.660849 139.534935 
L 155.630356 139.541732 
L 155.385717 139.596838 
L 155.324592 139.610768 
L 155.132766 139.654905 
L 154.977753 139.691039 
L 154.807387 139.731233 
L 154.658076 139.766876 
L 154.536198 139.796258 
L 154.377621 139.834877 
L 154.102835 139.90284 
L 153.951512 139.940833 
L 153.864399 139.962888 
L 153.691333 140.0071 
L 153.590004 140.033232 
L 153.434577 140.073667 
L 153.256782 140.120448 
L 153.044915 140.176926 
L 152.935885 140.206302 
L 152.720686 140.264906 
L 152.545851 140.313128 
L 152.453698 140.338766 
L 152.241759 140.398308 
L 152.108574 140.436139 
L 151.902062 140.495431 
L 151.848802 140.510848 
L 151.624666 140.57629 
L 151.459441 140.625117 
L 151.28209 140.67808 
L 151.232435 140.693012 
L 151.094463 140.734738 
L 150.91192 140.79048 
L 150.762241 140.836642 
L 150.554079 140.901528 
L 150.361854 140.962157 
L 150.322983 140.9745 
L 150.097677 141.046597 
L 149.988411 141.081902 
L 149.733636 141.165087 
L 149.662894 141.1884 
L 149.44939 141.259329 
L 149.31079 141.305833 
L 149.221169 141.336096 
L 149.003156 141.410348 
L 148.819867 141.47347 
L 148.698699 141.515549 
L 148.5837 141.555745 
L 148.35467 141.636551 
L 148.175115 141.700605 
L 148.110629 141.723761 
L 147.985356 141.768973 
L 147.757126 141.852123 
L 147.656184 141.88922 
L 147.457385 141.962861 
L 147.342577 142.005739 
L 147.068096 142.109298 
L 147.036298 142.121391 
L 146.79585 142.213476 
L 146.71667 142.24405 
L 146.513361 142.323122 
L 146.359495 142.38351 
L 146.242177 142.429871 
L 145.999779 142.526532 
L 145.942516 142.549539 
L 145.754282 142.625631 
L 145.619962 142.680366 
L 145.477763 142.738709 
L 145.183985 142.860546 
L 145.019118 142.929692 
L 144.963237 142.953255 
L 144.848605 143.001792 
L 144.641206 143.090296 
L 144.490247 143.155274 
L 144.290358 143.242041 
L 144.121815 143.315849 
L 144.025431 143.358324 
L 143.820362 143.449343 
L 143.659238 143.521478 
L 143.489946 143.597863 
L 143.427477 143.626202 
L 143.168586 143.744536 
L 143.126745 143.763795 
L 142.921497 143.858813 
L 142.761379 143.933567 
L 142.628188 143.996173 
L 142.475291 144.068515 
L 142.338382 144.133725 
L 142.124266 144.23653 
L 141.8939 144.348262 
L 141.79545 144.39637 
L 141.598713 144.493149 
L 141.456468 144.563659 
L 141.352841 144.615311 
L 141.181376 144.701306 
L 141.049384 144.767955 
L 140.906819 144.840385 
L 140.705175 144.943617 
L 140.500909 145.049139 
L 140.316367 145.145294 
L 140.279446 145.164625 
L 140.038521 145.291548 
L 139.87583 145.378019 
L 139.771812 145.433629 
L 139.587306 145.532893 
L 139.462769 145.600347 
L 139.244408 145.719507 
L 139.112996 145.791765 
L 139.051438 145.825755 
L 138.792715 145.969606 
L 138.608952 146.07276 
L 138.516842 146.124773 
L 138.37632 146.204522 
L 138.162007 146.32708 
L 138.046154 146.393802 
L 138.046154 138.046154 
L 138.049924 138.731619 
L 138.053695 139.015533 
L 138.057466 139.233378 
L 138.061236 139.417022 
L 138.065007 139.578808 
L 138.068778 139.725066 
L 138.072548 139.859559 
L 138.076319 139.984736 
L 138.080089 140.1023 
L 138.08386 140.21349 
L 138.087631 140.31924 
L 138.091401 140.420279 
L 138.095172 140.517185 
L 138.098942 140.610425 
L 138.106484 140.787392 
L 138.114025 140.953588 
L 138.121566 141.110765 
L 138.129107 141.260248 
L 138.136649 141.403064 
L 138.14419 141.540031 
L 138.151731 141.671812 
L 138.159272 141.798953 
L 138.166814 141.921911 
L 138.175564 142.05985 
L 138.184315 142.193185 
L 138.193065 142.322347 
L 138.201816 142.447703 
L 138.210566 142.569569 
L 138.219317 142.688221 
L 138.236818 142.916814 
L 138.254319 143.135089 
L 138.27182 143.344321 
L 138.289321 143.545543 
L 138.306822 143.739603 
L 138.323219 143.915551 
L 138.339616 144.086332 
L 138.356012 144.252371 
L 138.372409 144.41404 
L 138.388806 144.571664 
L 138.405202 144.725529 
L 138.421599 144.875889 
L 138.437996 145.022971 
L 138.470789 145.308093 
L 138.503582 145.582292 
L 138.536376 145.846722 
L 138.569169 146.102343 
L 138.595271 146.300056 
L 138.621373 146.493062 
L 138.664929 146.805494 
L 138.708485 147.10695 
L 138.752042 147.398492 
L 138.795598 147.681019 
L 138.826817 147.878407 
L 138.858036 148.071813 
L 138.889255 148.261463 
L 138.920474 148.447561 
L 138.951693 148.630296 
L 138.982912 148.809839 
L 139.045349 149.159963 
L 139.081946 149.359987 
L 139.118543 149.556419 
L 139.181693 149.887444 
L 139.244842 150.209135 
L 139.307991 150.522215 
L 139.371141 150.827317 
L 139.44837 151.19041 
L 139.493306 151.396928 
L 139.538242 151.600151 
L 139.611453 151.92456 
L 139.684663 152.241179 
L 139.757873 152.550519 
L 139.831084 152.853036 
L 139.903298 153.145153 
L 139.962597 153.380608 
L 140.021895 153.612277 
L 140.081193 153.840325 
L 140.140492 154.064908 
L 140.206496 154.310987 
L 140.2725 154.553135 
L 140.341447 154.802064 
L 140.410395 155.047069 
L 140.502511 155.368573 
L 140.594627 155.683736 
L 140.687018 155.993803 
L 140.791323 156.336983 
L 140.866674 156.580579 
L 140.942025 156.820712 
L 141.017376 157.057514 
L 141.092727 157.291108 
L 141.116849 157.36523 
L 141.207488 157.640972 
L 141.298128 157.912473 
L 141.459601 158.386174 
L 141.550101 158.64635 
L 141.640601 158.902887 
L 141.799717 159.345507 
L 141.887414 159.585067 
L 142.029644 159.967285 
L 142.171875 160.342045 
L 142.29278 160.655027 
L 142.454102 161.065019 
L 142.553717 161.31402 
L 142.758037 161.815278 
L 142.839068 162.010687 
L 142.964537 162.309618 
L 143.090005 162.60427 
L 143.21546 162.894762 
L 143.317808 163.128795 
L 143.543767 163.636454 
L 143.614402 163.792686 
L 143.781119 164.156977 
L 143.934922 164.487665 
L 144.088653 164.813233 
L 144.271424 165.194089 
L 144.481072 165.622985 
L 144.588621 165.839825 
L 144.75478 166.170741 
L 144.979893 166.611409 
L 145.162572 166.962789 
L 145.279457 167.18479 
L 145.442211 167.490353 
L 145.510012 167.61645 
L 145.646298 167.867836 
L 145.915842 168.357079 
L 145.975508 168.463991 
L 146.127833 168.73472 
L 146.357529 169.137089 
L 146.551424 169.471428 
L 146.613574 169.577593 
L 146.86325 169.999317 
L 146.957266 170.15618 
L 147.142317 170.461917 
L 147.346772 170.795179 
L 147.442658 170.949872 
L 147.556292 171.131903 
L 147.731525 171.409905 
L 147.899749 171.673765 
L 148.079888 171.953112 
L 148.279771 172.259298 
L 148.407519 172.452949 
L 148.541057 172.653717 
L 148.641102 172.803033 
L 148.80494 173.045565 
L 149.015621 173.353875 
L 149.165809 173.571263 
L 149.380982 173.879318 
L 149.437153 173.959089 
L 149.578951 174.159289 
L 149.809052 174.480647 
L 149.954435 174.68149 
L 150.023633 174.776498 
L 150.219116 175.042874 
L 150.379518 175.259258 
L 150.572468 175.516982 
L 150.656246 175.628025 
L 150.811868 175.832937 
L 151.09833 176.205592 
L 151.161421 176.286889 
L 151.410683 176.605398 
L 151.51715 176.740154 
L 151.695139 176.963743 
L 151.757317 177.041357 
L 151.931855 177.257877 
L 152.070376 177.42832 
L 152.28497 177.689963 
L 152.479914 177.92516 
L 152.652185 178.131064 
L 152.724834 178.217359 
L 152.981982 178.520281 
L 153.004619 178.546762 
L 153.254266 178.836815 
L 153.343478 178.939598 
L 153.535414 179.159204 
L 153.696143 179.34152 
L 153.920167 179.593259 
L 154.016007 179.700123 
L 154.182557 179.884659 
L 154.27019 179.981165 
L 154.449345 180.177203 
L 154.683768 180.431204 
L 154.787644 180.542856 
L 154.892046 180.654525 
L 155.116634 180.892894 
L 155.227378 181.009515 
L 155.380955 181.170249 
L 155.635984 181.434647 
L 155.760939 181.563061 
L 155.944947 181.750824 
L 155.975438 181.781785 
L 156.212552 182.021086 
L 156.35634 182.164948 
L 156.551966 182.359175 
L 156.606692 182.413203 
L 156.860137 182.661687 
L 156.926918 182.726691 
L 157.141011 182.933785 
L 157.281981 183.069069 
L 157.408818 183.190069 
L 157.666574 183.433876 
L 157.694588 183.460206 
L 157.921745 183.67252 
L 158.113489 183.850092 
L 158.25757 183.982545 
L 158.361077 184.077185 
L 158.525644 184.226777 
L 158.787781 184.462861 
L 158.889193 184.553477 
L 159.097793 184.738622 
L 159.199648 184.828421 
L 159.265742 184.886481 
L 159.510068 185.09968 
L 159.711171 185.273492 
L 159.881471 185.419515 
L 159.887264 185.424464 
L 160.171737 185.665967 
L 160.352738 185.818111 
L 160.460782 185.908372 
L 160.647377 186.063285 
L 160.697627 186.104793 
L 160.923124 186.289979 
L 161.006026 186.357618 
L 161.181922 186.500348 
L 161.444512 186.711462 
L 161.509361 186.76324 
L 161.718683 186.929409 
L 161.800207 186.993732 
L 161.984827 187.138586 
L 162.197222 187.303849 
L 162.342562 187.416092 
L 162.485523 187.525833 
L 162.667187 187.664338 
L 162.735876 187.716435 
L 162.886264 187.829975 
L 163.123724 188.007804 
L 163.313764 188.148857 
L 163.414712 188.223329 
L 163.509372 188.292878 
L 163.716929 188.444416 
L 163.917072 188.589304 
L 163.985804 188.638782 
L 164.224092 188.809225 
L 164.303509 188.865655 
L 164.509727 189.011315 
L 164.581943 189.062029 
L 164.82169 189.229299 
L 164.936489 189.308804 
L 165.200425 189.490158 
L 165.219522 189.503201 
L 165.365889 189.602835 
L 165.580192 189.747619 
L 165.831851 189.915995 
L 165.889898 189.954581 
L 166.05771 190.065607 
L 166.198642 190.15825 
L 166.34351 190.252912 
L 166.49175 190.349184 
L 166.734749 190.505708 
L 166.821137 190.56097 
L 167.046295 190.704065 
L 167.136272 190.76087 
L 167.367023 190.905571 
L 167.483634 190.978164 
L 167.654483 191.083878 
L 167.787743 191.165806 
L 167.970218 191.277246 
L 168.065997 191.335396 
L 168.202224 191.417698 
L 168.349066 191.505882 
L 168.64179 191.680043 
L 168.73272 191.733703 
L 168.955201 191.864121 
L 169.065205 191.928149 
L 169.2 192.006198 
z
" style="fill:#808080;opacity:0.5;"/>
   </g>
   <g id="patch_5">
    <path clip-path="url(#pee96c1a262)" d="M 169.2 192.006198 
L 168.736759 192.271012 
L 168.640727 192.325253 
L 168.169265 192.588309 
L 167.929106 192.720258 
L 167.517238 192.943364 
L 167.376145 193.018875 
L 166.920788 193.259413 
L 166.817645 193.313231 
L 166.232723 193.613823 
L 166.030625 193.715875 
L 165.781 193.840659 
L 165.480692 193.988934 
L 164.982093 194.230704 
L 164.885331 194.276991 
L 164.401188 194.505526 
L 164.233259 194.583611 
L 164.022083 194.680946 
L 163.623506 194.862064 
L 163.212885 195.045138 
L 163.087208 195.100462 
L 162.517804 195.346999 
L 162.247971 195.461488 
L 161.988418 195.570205 
L 161.556205 195.748199 
L 161.453531 195.789926 
L 161.161508 195.907444 
L 160.8644 196.025255 
L 160.347769 196.225931 
L 160.061786 196.33475 
L 159.799815 196.433025 
L 159.457985 196.559246 
L 159.107896 196.68617 
L 158.874092 196.76962 
L 158.442391 196.920953 
L 158.247658 196.988055 
L 157.998418 197.072891 
L 157.683642 197.178358 
L 157.2757 197.312275 
L 157.028943 197.391771 
L 156.640745 197.514546 
L 156.412692 197.585375 
L 156.043868 197.6979 
L 155.591006 197.832663 
L 155.354065 197.901686 
L 155.173554 197.953588 
L 154.813074 198.055477 
L 154.503428 198.141134 
L 154.313059 198.192944 
L 153.894608 198.304556 
L 153.544713 198.395497 
L 153.176414 198.488885 
L 153.035858 198.523896 
L 152.479889 198.658989 
L 152.314181 198.69821 
L 151.990885 198.773355 
L 151.62855 198.855422 
L 151.397669 198.906531 
L 151.147082 198.960965 
L 150.837542 199.026716 
L 150.56615 199.083013 
L 150.182171 199.160519 
L 149.919873 199.212021 
L 149.581677 199.276704 
L 149.041134 199.376073 
L 148.953541 199.391711 
L 148.667207 199.441933 
L 148.1544 199.528443 
L 147.970725 199.558359 
L 147.660082 199.607675 
L 147.232663 199.672906 
L 146.945459 199.715035 
L 146.532229 199.773255 
L 146.265645 199.809318 
L 146.014075 199.842276 
L 145.59951 199.894317 
L 145.466921 199.910366 
L 144.988296 199.965902 
L 144.759771 199.991096 
L 144.550497 200.01342 
L 144.090111 200.060016 
L 143.860894 200.081928 
L 143.618092 200.104208 
L 143.264687 200.134924 
L 142.932195 200.161974 
L 142.494252 200.19487 
L 142.161203 200.217811 
L 141.851761 200.237519 
L 141.780406 200.241844 
L 141.479871 200.25916 
L 141.037859 200.281981 
L 140.848188 200.290809 
L 140.490475 200.305883 
L 139.932687 200.32528 
L 139.767865 200.330054 
L 139.562629 200.335389 
L 139.210477 200.342967 
L 138.846584 200.348705 
L 138.572588 200.351622 
L 138.340937 200.353149 
L 137.842029 200.353512 
L 137.544314 200.351825 
L 137.361888 200.350089 
L 136.874339 200.342826 
L 136.781996 200.341021 
L 136.266815 200.328434 
L 136.142478 200.324758 
L 135.809444 200.313687 
L 135.243127 200.290765 
L 135.119363 200.285068 
L 134.878739 200.273286 
L 134.490368 200.252302 
L 134.209857 200.235633 
L 133.941257 200.218482 
L 133.397815 200.180214 
L 133.208346 200.165749 
L 132.965051 200.146322 
L 132.701971 200.124236 
L 132.386262 200.096248 
L 131.897676 200.04974 
L 131.774529 200.037405 
L 131.179541 199.974323 
L 130.940183 199.947315 
L 130.640512 199.912178 
L 130.287808 199.868938 
L 130.019688 199.834699 
L 129.603053 199.779148 
L 129.324013 199.740341 
L 129.161344 199.717125 
L 128.770838 199.659602 
L 128.502411 199.618595 
L 128.085381 199.552507 
L 127.815484 199.50819 
L 127.433585 199.4434 
L 127.113588 199.387229 
L 126.899147 199.348623 
L 126.58296 199.290286 
L 126.195546 199.216503 
L 126.113434 199.200538 
L 125.780193 199.134571 
L 125.313894 199.039088 
L 124.930979 198.957899 
L 124.592725 198.884084 
L 124.316228 198.822281 
L 124.08558 198.769715 
L 123.793099 198.70173 
L 123.499872 198.632078 
L 123.187617 198.556255 
L 122.869527 198.477259 
L 122.401585 198.357811 
L 122.161646 198.295062 
L 121.930527 198.233653 
L 121.731228 198.179936 
L 121.1872 198.029687 
L 120.921606 197.954404 
L 120.611571 197.864912 
L 120.50473 197.833669 
L 119.91075 197.656184 
L 119.639935 197.573119 
L 119.350568 197.482873 
L 119.170069 197.425796 
L 118.869077 197.329273 
L 118.359957 197.16216 
L 118.042755 197.055582 
L 117.973392 197.032023 
L 117.514867 196.873994 
L 117.070661 196.717077 
L 116.756198 196.603701 
L 116.509155 196.513292 
L 116.381293 196.466033 
L 116.057865 196.34507 
L 115.666885 196.196105 
L 115.334708 196.067174 
L 115.033294 195.948285 
L 114.630658 195.786634 
L 114.523286 195.742975 
L 114.051337 195.548304 
L 113.779391 195.434068 
L 113.460308 195.298095 
L 113.177468 195.175805 
L 112.963485 195.08218 
L 112.648125 194.942451 
L 112.370117 194.817535 
L 112.036494 194.665462 
L 111.450792 194.392718 
L 111.225447 194.285803 
L 110.809379 194.085485 
L 110.516017 193.941951 
L 110.238092 193.804204 
L 110.071393 193.720756 
L 109.726978 193.546359 
L 109.383981 193.370004 
L 109.1589 193.252812 
L 108.710577 193.015895 
L 108.406147 192.852344 
L 108.284953 192.786627 
L 107.712607 192.471556 
L 107.379309 192.284453 
L 107.31602 192.24862 
L 106.892308 192.006198 
L 106.892308 200.353846 
L 106.904766 201.59978 
L 106.917224 202.115775 
L 106.929683 202.511652 
L 106.942141 202.845341 
L 106.9546 203.139283 
L 106.967058 203.404986 
L 106.979516 203.649289 
L 106.991975 203.876647 
L 107.004433 204.090154 
L 107.016892 204.292063 
L 107.02935 204.484076 
L 107.041808 204.667515 
L 107.054267 204.84343 
L 107.066725 205.012674 
L 107.091642 205.333844 
L 107.116559 205.635403 
L 107.141476 205.920538 
L 107.166392 206.191657 
L 107.191309 206.45063 
L 107.216226 206.698944 
L 107.241143 206.937805 
L 107.266059 207.168208 
L 107.290976 207.390983 
L 107.330071 207.726801 
L 107.369167 208.047776 
L 107.408262 208.355696 
L 107.447357 208.652014 
L 107.501472 209.04523 
L 107.555587 209.421087 
L 107.609702 209.781661 
L 107.663817 210.128645 
L 107.717932 210.463436 
L 107.772047 210.78721 
L 107.826162 211.100962 
L 107.880277 211.405546 
L 107.961662 211.847954 
L 108.043048 212.273398 
L 108.124433 212.683634 
L 108.205819 213.080133 
L 108.309839 213.56887 
L 108.378197 213.879999 
L 108.446555 214.183792 
L 108.514912 214.480724 
L 108.58327 214.771217 
L 108.719985 215.334379 
L 108.856701 215.87592 
L 108.946192 216.219757 
L 109.035683 216.555805 
L 109.180524 217.084387 
L 109.325364 217.595555 
L 109.440527 217.990566 
L 109.555689 218.376185 
L 109.750484 219.008699 
L 109.945278 219.618489 
L 110.137293 220.199378 
L 110.329307 220.761934 
L 110.481551 221.195924 
L 110.633794 221.61997 
L 110.808186 222.094237 
L 110.944021 222.455644 
L 111.079857 222.810414 
L 111.351527 223.501258 
L 111.546851 223.98355 
L 111.742175 224.45461 
L 111.782778 224.551184 
L 112.085904 225.258235 
L 112.312726 225.772079 
L 112.539548 226.273755 
L 112.69369 226.608092 
L 112.86955 226.98332 
L 113.04541 227.352189 
L 113.248536 227.770668 
L 113.451661 228.181373 
L 113.650584 228.57637 
L 113.849506 228.964531 
L 114.027662 229.306595 
L 114.407425 230.019016 
L 114.651361 230.465215 
L 114.888836 230.891462 
L 115.12631 231.310018 
L 115.448039 231.865355 
L 115.54893 232.036826 
L 116.002175 232.792094 
L 116.35266 233.360015 
L 116.609883 233.768336 
L 116.939464 234.281489 
L 117.07216 234.485017 
L 117.374047 234.941693 
L 117.675935 235.389816 
L 117.773065 235.532233 
L 118.172079 236.108564 
L 118.41712 236.455752 
L 118.794214 236.980411 
L 119.016418 237.284275 
L 119.535361 237.979265 
L 119.721498 238.223707 
L 120.153484 238.781541 
L 120.259399 238.916342 
L 120.579223 239.318812 
L 121.135905 240.003453 
L 121.234906 240.12316 
L 121.661651 240.6323 
L 121.857536 240.862359 
L 122.08876 241.131041 
L 122.550273 241.658222 
L 122.944559 242.099298 
L 123.204066 242.385055 
L 123.542448 242.752389 
L 123.884882 243.118184 
L 124.142639 243.389677 
L 124.39007 243.647248 
L 124.860594 244.129017 
L 125.164946 244.435164 
L 125.41618 244.684712 
L 125.612731 244.87798 
L 125.896156 245.153685 
L 126.399655 245.634957 
L 126.697807 245.914927 
L 126.856498 246.062448 
L 127.08924 246.276961 
L 127.591942 246.732915 
L 127.846849 246.960342 
L 128.079429 247.165673 
L 128.395744 247.441649 
L 128.769789 247.763197 
L 129.076478 248.023035 
L 129.490785 248.368706 
L 129.629281 248.482909 
L 130.215143 248.958675 
L 130.266095 248.999499 
L 130.653407 249.306973 
L 131.07946 249.639472 
L 131.400943 249.88646 
L 131.611575 250.04649 
L 131.98941 250.330045 
L 132.277826 250.543502 
L 132.43355 250.65769 
L 132.989847 251.059599 
L 133.251255 251.245262 
L 133.547266 251.453074 
L 133.700496 251.559644 
L 134.201128 251.903118 
L 134.574436 252.154607 
L 134.665624 252.215444 
L 134.953868 252.406233 
L 135.302209 252.633749 
L 135.70307 252.891492 
L 136.007054 253.084074 
L 136.221811 253.218651 
L 136.537918 253.414537 
L 136.813588 253.583244 
L 137.221825 253.829493 
L 137.463242 253.973122 
L 138.045603 254.313573 
L 138.294234 254.456361 
L 138.44651 254.543064 
L 138.980509 254.84266 
L 139.169145 254.946852 
L 139.574026 255.167624 
L 139.763681 255.269706 
L 140.0124 255.402302 
L 140.366797 255.588753 
L 140.848934 255.837768 
L 140.959436 255.894093 
L 141.19604 256.013767 
L 141.688114 256.258628 
L 141.902285 256.363518 
L 142.119302 256.468767 
L 142.440825 256.622799 
L 142.775974 256.780962 
L 143.081921 256.923224 
L 143.659849 257.186488 
L 143.975909 257.327469 
L 144.270204 257.456856 
L 144.552938 257.57946 
L 144.630963 257.613002 
L 145.163946 257.838772 
L 145.397139 257.935721 
L 145.814654 258.106544 
L 145.876962 258.131735 
L 146.492409 258.376375 
L 146.709654 258.460927 
L 147.052685 258.592536 
L 147.307093 258.688648 
L 147.667016 258.822463 
L 148.055377 258.964028 
L 148.359742 259.072942 
L 148.508796 259.12563 
L 148.835049 259.239475 
L 149.195854 259.363021 
L 149.377947 259.424437 
L 149.766485 259.553399 
L 150.233313 259.704611 
L 150.510336 259.792428 
L 150.613597 259.824798 
L 151.004881 259.945676 
L 151.221677 260.011439 
L 151.569093 260.115035 
L 151.958257 260.228472 
L 152.159269 260.285991 
L 152.666176 260.42781 
L 152.83635 260.474387 
L 153.367639 260.616479 
L 153.582046 260.672401 
L 153.79603 260.727402 
L 154.315212 260.857496 
L 154.459546 260.892821 
L 154.904319 260.99939 
L 155.123487 261.050636 
L 155.542712 261.146337 
L 155.797094 261.202927 
L 156.008823 261.249177 
L 156.224638 261.295527 
L 156.644442 261.3834 
L 156.893969 261.434204 
L 157.174386 261.490031 
L 157.764968 261.603243 
L 158.010901 261.648647 
L 158.188838 261.680862 
L 158.403773 261.719064 
L 158.938678 261.810772 
L 159.316785 261.87271 
L 159.58624 261.915394 
L 159.751497 261.940974 
L 160.261014 262.016988 
L 160.431532 262.041466 
L 160.838448 262.097939 
L 160.945324 262.112318 
L 161.39748 262.17107 
L 161.612918 262.197881 
L 161.996426 262.243724 
L 162.162865 262.26287 
L 162.607559 262.311802 
L 162.874634 262.339637 
L 163.395266 262.390558 
L 163.648519 262.413733 
L 163.833326 262.429988 
L 164.087146 262.451408 
L 164.634607 262.494056 
L 164.809138 262.506632 
L 165.044755 262.522829 
L 165.471317 262.549871 
L 165.717964 262.564166 
L 166.032582 262.580978 
L 166.393281 262.59829 
L 166.773827 262.614285 
L 167.081988 262.62553 
L 167.232123 262.630455 
L 167.523832 262.638989 
L 168.092006 262.651686 
L 168.316529 262.655275 
L 168.451671 262.657045 
L 169.01332 262.661259 
L 169.2 262.661538 
z
" style="fill:#808080;opacity:0.5;"/>
   </g>
   <g id="patch_6">
    <path clip-path="url(#pee96c1a262)" d="M 200.353846 146.393802 
L 200.223221 146.318596 
L 200.099066 146.247504 
L 199.887323 146.12713 
L 199.701734 146.022523 
L 199.63257 145.983751 
L 199.366757 145.835819 
L 199.236187 145.763774 
L 199.174616 145.729942 
L 198.917473 145.589622 
L 198.73677 145.491949 
L 198.666561 145.454208 
L 198.417153 145.32107 
L 198.325916 145.272728 
L 198.091262 145.149286 
L 197.932573 145.066526 
L 197.774113 144.984463 
L 197.746105 144.970018 
L 197.606278 144.898171 
L 197.437908 144.812248 
L 197.213126 144.698538 
L 197.042503 144.612985 
L 196.864096 144.524228 
L 196.677446 144.432129 
L 196.58484 144.386721 
L 196.379534 144.28673 
L 196.345707 144.270345 
L 196.120284 144.161793 
L 196.012204 144.110142 
L 195.826726 144.022097 
L 195.723495 143.973417 
L 195.55455 143.894248 
L 195.416738 143.830124 
L 195.178421 143.720198 
L 195.056121 143.664257 
L 194.812182 143.553629 
L 194.656092 143.483503 
L 194.554534 143.438153 
L 194.45495 143.393895 
L 194.323016 143.335581 
L 194.033036 143.20869 
L 194.001215 143.194872 
L 193.760342 143.09096 
L 193.617324 143.02983 
L 193.479853 142.971469 
L 193.254356 142.876577 
L 193.159992 142.837176 
L 193.061302 142.796164 
L 192.871243 142.71774 
L 192.72033 142.65599 
L 192.500085 142.566698 
L 192.393091 142.523672 
L 192.223897 142.456103 
L 192.031873 142.38011 
L 191.950637 142.348182 
L 191.791122 142.285871 
L 191.588169 142.207321 
L 191.452271 142.155178 
L 191.298841 142.096746 
L 191.074588 142.012172 
L 190.95846 141.968763 
L 190.726138 141.882709 
L 190.63346 141.848673 
L 190.53354 141.812163 
L 190.37367 141.754151 
L 190.196431 141.690413 
L 190.015926 141.62612 
L 189.80262 141.55095 
L 189.710773 141.51885 
L 189.515181 141.451028 
L 189.407871 141.414127 
L 189.204074 141.344647 
L 189.111222 141.313252 
L 188.959895 141.262433 
L 188.786766 141.204821 
L 188.536463 141.122522 
L 188.398229 141.077573 
L 188.249719 141.02968 
L 188.19524 141.012213 
L 187.941687 140.931647 
L 187.867446 140.908283 
L 187.702322 140.856681 
L 187.473569 140.786026 
L 187.398735 140.763121 
L 187.190512 140.699928 
L 186.991819 140.640366 
L 186.820694 140.589646 
L 186.66554 140.544119 
L 186.629978 140.533746 
L 186.369546 140.458477 
L 186.196434 140.409124 
L 186.070694 140.373614 
L 185.971974 140.345935 
L 185.735619 140.280376 
L 185.569088 140.234785 
L 185.506878 140.217882 
L 185.364004 140.179321 
L 185.117165 140.113557 
L 184.95146 140.070017 
L 184.919889 140.061777 
L 184.757994 140.019798 
L 184.545334 139.96536 
L 184.454859 139.942442 
L 184.1825 139.874319 
L 184.022856 139.834994 
L 183.874343 139.798812 
L 183.789984 139.778431 
L 183.56231 139.724047 
L 183.493486 139.707785 
L 183.258312 139.652838 
L 183.098026 139.615939 
L 182.963644 139.585346 
L 182.758061 139.539148 
L 182.712042 139.528907 
L 182.489974 139.48 
L 182.340085 139.44747 
L 182.245033 139.427041 
L 182.019243 139.379134 
L 181.842254 139.342192 
L 181.77438 139.328167 
L 181.57495 139.287414 
L 181.478648 139.267978 
L 181.197628 139.212163 
L 181.030854 139.179673 
L 181.00611 139.174893 
L 180.71911 139.120206 
L 180.684178 139.113646 
L 180.504414 139.080208 
L 180.242059 139.032386 
L 180.23107 139.030408 
L 179.934954 138.977879 
L 179.830441 138.959691 
L 179.621609 138.923898 
L 179.552252 138.912171 
L 179.3571 138.879609 
L 179.248135 138.861704 
L 179.074789 138.833629 
L 178.917875 138.808648 
L 178.766026 138.784863 
L 178.558711 138.75301 
L 178.47935 138.741005 
L 178.302295 138.714599 
L 178.059949 138.679299 
L 177.990282 138.66933 
L 177.875698 138.65311 
L 177.603802 138.61549 
L 177.570978 138.611031 
L 177.312477 138.576534 
L 177.191357 138.56075 
L 177.087195 138.547369 
L 176.908089 138.524776 
L 176.649833 138.493128 
L 176.506917 138.476084 
L 176.419095 138.465776 
L 176.298831 138.451866 
L 176.118856 138.431492 
L 175.857211 138.402817 
L 175.713422 138.387534 
L 175.571554 138.372786 
L 175.515486 138.367048 
L 175.329233 138.348354 
L 175.093211 138.325477 
L 175.031634 138.319657 
L 174.764804 138.295152 
L 174.714469 138.290659 
L 174.550876 138.276341 
L 174.302937 138.255468 
L 174.272531 138.252977 
L 174.085626 138.237993 
L 173.899187 138.223611 
L 173.746707 138.212266 
L 173.566916 138.199373 
L 173.455599 138.191652 
L 173.231664 138.176726 
L 173.061239 138.16591 
L 172.973553 138.160528 
L 172.735406 138.146536 
L 172.676512 138.143217 
L 172.522994 138.134828 
L 172.344091 138.125531 
L 172.199374 138.118388 
L 171.958131 138.10723 
L 171.921548 138.10562 
L 171.634061 138.093716 
L 171.489172 138.08822 
L 171.385125 138.084482 
L 171.214631 138.078732 
L 171.019781 138.072734 
L 170.868835 138.068507 
L 170.730855 138.064963 
L 170.552764 138.060841 
L 170.503271 138.059785 
L 170.358936 138.056933 
L 170.115577 138.052881 
L 170.023334 138.051594 
L 169.810944 138.049149 
L 169.735793 138.048458 
L 169.472276 138.046749 
L 169.326316 138.046282 
L 169.2 138.046154 
L 169.2 262.661538 
L 169.302621 262.661454 
L 169.556077 262.660521 
L 169.609274 262.660194 
L 169.760322 262.659019 
L 170.012426 262.656242 
L 170.122675 262.654706 
L 170.251812 262.65266 
L 170.451678 262.648965 
L 170.589319 262.646047 
L 170.83853 262.63999 
L 170.90066 262.638325 
L 171.085984 262.632989 
L 171.293835 262.626347 
L 171.369644 262.623752 
L 171.485364 262.619612 
L 171.725541 262.610333 
L 171.902913 262.602885 
L 172.044939 262.596555 
L 172.187641 262.589869 
L 172.26852 262.585934 
L 172.499291 262.574126 
L 172.703412 262.562966 
L 172.780455 262.55858 
L 172.97915 262.546824 
L 173.134675 262.537179 
L 173.283153 262.527606 
L 173.480087 262.514359 
L 173.546995 262.509716 
L 173.744226 262.495608 
L 173.957181 262.479668 
L 174.087774 262.46953 
L 174.237314 262.457582 
L 174.35227 262.448151 
L 174.494311 262.436201 
L 174.620847 262.42528 
L 174.91359 262.399019 
L 174.982976 262.39259 
L 175.082298 262.383251 
L 175.378844 262.354414 
L 175.474775 262.344779 
L 175.598492 262.332131 
L 175.714585 262.320036 
L 175.891179 262.301216 
L 176.142703 262.273531 
L 176.233608 262.263271 
L 176.438142 262.239691 
L 176.503887 262.231966 
L 176.693424 262.2093 
L 176.863859 262.188414 
L 176.987574 262.172955 
L 177.158828 262.15114 
L 177.405015 262.118935 
L 177.473105 262.109852 
L 177.649811 262.085922 
L 177.836285 262.060111 
L 177.978148 262.04009 
L 178.052593 262.02945 
L 178.259414 261.99941 
L 178.4799 261.966604 
L 178.551793 261.955733 
L 178.743167 261.926376 
L 178.906671 261.900812 
L 179.059911 261.876449 
L 179.20288 261.853366 
L 179.441128 261.814141 
L 179.500056 261.804293 
L 179.708065 261.769065 
L 179.919753 261.73247 
L 179.946503 261.727792 
L 180.229533 261.67756 
L 180.239405 261.675784 
L 180.505858 261.627218 
L 180.563533 261.616548 
L 180.840219 261.564579 
L 180.897577 261.553644 
L 181.044885 261.525304 
L 181.177361 261.499503 
L 181.399697 261.455531 
L 181.569518 261.421379 
L 181.659139 261.403157 
L 181.929555 261.347345 
L 181.972743 261.338316 
L 182.155267 261.299802 
L 182.325232 261.263425 
L 182.51768 261.221637 
L 182.726197 261.175639 
L 182.802851 261.158541 
L 182.904084 261.135806 
L 183.088067 261.094032 
L 183.319653 261.040615 
L 183.47453 261.004372 
L 183.621124 260.969683 
L 183.682655 260.955011 
L 183.957947 260.888559 
L 184.090396 260.856116 
L 184.199867 260.829069 
L 184.461022 260.763694 
L 184.611564 260.725464 
L 184.64498 260.716923 
L 184.793842 260.678639 
L 185.029845 260.617139 
L 185.171108 260.579856 
L 185.261202 260.555892 
L 185.519337 260.486431 
L 185.596997 260.465301 
L 185.843278 260.397579 
L 185.884895 260.386027 
L 186.082757 260.330684 
L 186.24099 260.285917 
L 186.401523 260.240039 
L 186.651736 260.167602 
L 186.789255 260.127307 
L 186.932352 260.085012 
L 187.121956 260.028397 
L 187.188969 260.00823 
L 187.283634 259.979602 
L 187.541251 259.900862 
L 187.737801 259.839966 
L 187.84344 259.806943 
L 188.05276 259.740898 
L 188.132511 259.715522 
L 188.222417 259.686773 
L 188.423884 259.621804 
L 188.625308 259.556092 
L 188.837173 259.486155 
L 188.904093 259.463889 
L 189.091555 259.401069 
L 189.244298 259.349394 
L 189.436176 259.283853 
L 189.57522 259.235923 
L 189.726702 259.183286 
L 189.921617 259.114914 
L 190.070523 259.062191 
L 190.232297 259.00443 
L 190.302582 258.979178 
L 190.417606 258.937647 
L 190.61373 258.866244 
L 190.851205 258.778788 
L 190.981264 258.730426 
L 191.07691 258.69465 
L 191.276374 258.619464 
L 191.380593 258.57987 
L 191.510973 258.530035 
L 191.772224 258.42917 
L 191.858554 258.395542 
L 192.062525 258.315501 
L 192.247169 258.24233 
L 192.299831 258.221336 
L 192.488408 258.145702 
L 192.612141 258.095687 
L 192.851398 257.998099 
L 193.064878 257.910046 
L 193.129318 257.883284 
L 193.372099 257.781698 
L 193.445345 257.750813 
L 193.650591 257.663681 
L 193.700807 257.642231 
L 193.898932 257.557091 
L 194.153778 257.446381 
L 194.17064 257.439008 
L 194.334994 257.366832 
L 194.539184 257.276375 
L 194.749942 257.182087 
L 194.899526 257.114597 
L 194.976515 257.079676 
L 195.225266 256.965983 
L 195.42182 256.875211 
L 195.454361 256.860103 
L 195.717733 256.736985 
L 195.793056 256.701498 
L 196.003886 256.601515 
L 196.080803 256.564797 
L 196.358402 256.431201 
L 196.504719 256.360104 
L 196.576146 256.325224 
L 196.796913 256.216704 
L 196.835121 256.197813 
L 197.115947 256.057961 
L 197.237183 255.997039 
L 197.368412 255.930722 
L 197.581551 255.82218 
L 197.73068 255.745622 
L 197.835724 255.691391 
L 198.045643 255.582257 
L 198.14118 255.532253 
L 198.26036 255.469579 
L 198.508264 255.338155 
L 198.708342 255.231039 
L 198.772957 255.196245 
L 198.903282 255.125769 
L 199.134087 254.999971 
L 199.236649 254.943664 
L 199.343593 254.884685 
L 199.512232 254.791123 
L 199.759994 254.652422 
L 199.947857 254.546261 
L 199.985304 254.524997 
L 200.247217 254.375313 
L 200.353846 254.313891 
z
" style="fill:#808080;opacity:0.5;"/>
   </g>
   <g id="patch_7">
    <path clip-path="url(#pee96c1a262)" d="M 231.507692 200.353846 
L 231.500387 199.399754 
L 231.493082 199.004596 
L 231.485777 198.701407 
L 231.478471 198.44583 
L 231.471166 198.220681 
L 231.463861 198.01715 
L 231.456556 197.83 
L 231.44925 197.65582 
L 231.441945 197.492241 
L 231.43464 197.337538 
L 231.427335 197.190408 
L 231.420029 197.04984 
L 231.412724 196.915028 
L 231.405419 196.785321 
L 231.398114 196.66018 
L 231.390808 196.539156 
L 231.383503 196.421869 
L 231.376198 196.307993 
L 231.361588 196.089393 
L 231.346977 195.881513 
L 231.332367 195.68292 
L 231.317756 195.492478 
L 231.303146 195.309262 
L 231.288535 195.132512 
L 231.273925 194.961592 
L 231.255152 194.749682 
L 231.236379 194.545558 
L 231.217606 194.348426 
L 231.198833 194.15762 
L 231.18006 193.972572 
L 231.161287 193.792795 
L 231.142514 193.617867 
L 231.123742 193.447418 
L 231.103339 193.266877 
L 231.082937 193.090881 
L 231.062534 192.919105 
L 231.042132 192.751264 
L 231.015983 192.541501 
L 230.989835 192.337311 
L 230.963686 192.138278 
L 230.937538 191.944035 
L 230.911389 191.754257 
L 230.885241 191.568657 
L 230.859093 191.386973 
L 230.832944 191.208972 
L 230.798503 190.979786 
L 230.764061 190.756195 
L 230.729619 190.537816 
L 230.695178 190.324309 
L 230.658367 190.101157 
L 230.621556 189.882889 
L 230.561623 189.537201 
L 230.501689 189.202547 
L 230.441755 188.87796 
L 230.381821 188.562609 
L 230.335046 188.322441 
L 230.28827 188.087152 
L 230.239052 187.844545 
L 230.189835 187.606744 
L 230.140617 187.373486 
L 230.091399 187.144529 
L 230.00957 186.772803 
L 229.927741 186.411465 
L 229.875555 186.186081 
L 229.823369 185.964417 
L 229.771183 185.746302 
L 229.718997 185.53158 
L 229.64231 185.221905 
L 229.565624 184.918823 
L 229.498033 184.656847 
L 229.430441 184.399459 
L 229.370408 184.174523 
L 229.310375 183.952891 
L 229.236877 183.685855 
L 229.163379 183.42335 
L 229.056794 183.0503 
L 228.950209 182.685768 
L 228.858656 182.379052 
L 228.75177 182.02804 
L 228.644884 181.684238 
L 228.525908 181.309552 
L 228.415061 180.967637 
L 228.304213 180.632272 
L 228.284053 180.571957 
L 228.18007 180.264051 
L 228.076087 179.961324 
L 227.959945 179.629045 
L 227.802409 179.187689 
L 227.64456 178.755653 
L 227.516808 178.413052 
L 227.389056 178.076453 
L 227.288535 177.815641 
L 227.152064 177.467021 
L 227.034684 177.172003 
L 226.917304 176.88128 
L 226.822589 176.649718 
L 226.637239 176.204062 
L 226.571809 176.049031 
L 226.425618 175.706795 
L 226.279427 175.370102 
L 226.260702 175.327364 
L 226.097563 174.958653 
L 225.966704 174.667472 
L 225.835846 174.380215 
L 225.770315 174.237799 
L 225.639993 173.957337 
L 225.509671 173.680461 
L 225.420744 173.493531 
L 225.29027 173.222128 
L 225.146075 172.926028 
L 224.969265 172.568282 
L 224.849078 172.328346 
L 224.628832 171.895225 
L 224.524697 171.693309 
L 224.35752 171.372879 
L 224.198333 171.071908 
L 223.946568 170.603857 
L 223.75895 170.261164 
L 223.611615 169.995574 
L 223.49623 169.789685 
L 223.440636 169.691133 
L 223.209879 169.286476 
L 222.989619 168.906662 
L 222.865776 168.695782 
L 222.750647 168.501425 
L 222.650128 168.333035 
L 222.400395 167.919813 
L 222.297786 167.752104 
L 222.161748 167.531571 
L 221.967284 167.219841 
L 221.787756 166.935641 
L 221.653433 166.7252 
L 221.564432 166.586779 
L 221.353116 166.26131 
L 221.177098 165.993551 
L 221.07539 165.840191 
L 220.857269 165.514571 
L 220.687614 165.264331 
L 220.591691 165.123992 
L 220.361404 164.790393 
L 220.176382 164.525686 
L 220.13467 164.466412 
L 219.861174 164.08135 
L 219.740534 163.913444 
L 219.67855 163.82763 
L 219.503755 163.587276 
L 219.24962 163.242069 
L 219.130913 163.082511 
L 218.920687 162.802524 
L 218.750638 162.57842 
L 218.720549 162.538985 
L 218.435742 162.168899 
L 218.359328 162.070574 
L 218.276047 161.963872 
L 218.031083 161.652763 
L 217.945475 161.544992 
L 217.772976 161.329309 
L 217.560047 161.065752 
L 217.363867 160.825496 
L 217.303165 160.751649 
L 217.14344 160.558431 
L 216.899533 160.266403 
L 216.720801 160.05469 
L 216.692793 160.021686 
L 216.440838 159.726863 
L 216.387818 159.665293 
L 216.191031 159.438183 
L 216.05901 159.28705 
L 215.895325 159.101027 
L 215.648335 158.823126 
L 215.612396 158.782967 
L 215.442781 158.594372 
L 215.223115 158.352401 
L 215.060964 158.17541 
L 214.989974 158.098352 
L 214.753924 157.843983 
L 214.588252 157.667138 
L 214.493277 157.566376 
L 214.243464 157.30347 
L 214.117423 157.17198 
L 214.025404 157.076465 
L 213.748625 156.791609 
L 213.713701 156.755922 
L 213.430452 156.468591 
L 213.294187 156.331679 
L 213.130681 156.168511 
L 213.012432 156.051258 
L 212.91056 155.950744 
L 212.7047 155.749031 
L 212.602109 155.6492 
L 212.460219 155.51188 
L 212.258582 155.318226 
L 212.05243 155.122024 
L 212.00914 155.08105 
L 211.7803 154.865754 
L 211.621221 154.717363 
L 211.458107 154.566284 
L 211.248341 154.373573 
L 211.093799 154.232721 
L 211.046183 154.189515 
L 210.918924 154.074478 
L 210.644663 153.828709 
L 210.51491 153.713448 
L 210.400781 153.612599 
L 210.280325 153.506696 
L 210.020903 153.280474 
L 209.976599 153.242091 
L 209.67674 152.984214 
L 209.62462 152.939727 
L 209.505302 152.838257 
L 209.343077 152.701124 
L 209.182263 152.566116 
L 209.001511 152.415466 
L 208.792113 152.242381 
L 208.578316 152.067236 
L 208.564536 152.056001 
L 208.269885 151.817338 
L 208.212794 151.771438 
L 208.001636 151.602625 
L 207.791327 151.435977 
L 207.637145 151.314735 
L 207.614459 151.296962 
L 207.363342 151.101355 
L 207.194779 150.971205 
L 207.014562 150.833068 
L 206.88019 150.730748 
L 206.784534 150.65826 
L 206.621438 150.535331 
L 206.429059 150.391403 
L 206.360467 150.340366 
L 206.109248 150.154683 
L 206.063764 150.121273 
L 205.893888 149.997048 
L 205.751264 149.89343 
L 205.4841 149.700983 
L 205.366528 149.616968 
L 205.270224 149.548458 
L 205.081791 149.415201 
L 204.843134 149.247922 
L 204.782559 149.205728 
L 204.65549 149.117563 
L 204.406281 148.946004 
L 204.330608 148.894261 
L 204.182043 148.793152 
L 203.895322 148.599782 
L 203.766074 148.513369 
L 203.640581 148.429913 
L 203.507502 148.341887 
L 203.392017 148.265897 
L 203.236418 148.164089 
L 202.937891 147.970612 
L 202.792653 147.877354 
L 202.6405 147.780264 
L 202.540111 147.716545 
L 202.332773 147.585789 
L 202.237154 147.525871 
L 202.150082 147.471518 
L 201.849141 147.285191 
L 201.791862 147.249994 
L 201.545474 147.099562 
L 201.401963 147.01266 
L 201.298241 146.950181 
L 201.094952 146.82852 
L 201.035182 146.792949 
L 200.776665 146.640135 
L 200.705433 146.598324 
L 200.551269 146.508266 
L 200.353846 146.393802 
L 200.353846 254.313891 
L 200.467433 254.248151 
L 200.711553 254.105781 
L 200.794258 254.057211 
L 200.946906 253.967114 
L 201.123475 253.862166 
L 201.28874 253.763221 
L 201.522229 253.622243 
L 201.565506 253.595959 
L 201.754985 253.480313 
L 201.863732 253.413521 
L 202.058463 253.29315 
L 202.161715 253.228924 
L 202.329527 253.123941 
L 202.55944 252.9789 
L 202.7087 252.883985 
L 202.854598 252.790632 
L 202.987448 252.70513 
L 203.107957 252.627156 
L 203.319443 252.489363 
L 203.554408 252.334835 
L 203.655836 252.267658 
L 203.777629 252.186617 
L 203.924992 252.088008 
L 204.107606 251.964965 
L 204.3255 251.816918 
L 204.449373 251.732151 
L 204.624015 251.611896 
L 204.773186 251.508484 
L 204.908561 251.414077 
L 204.975254 251.367371 
L 205.168209 251.231508 
L 205.385652 251.077086 
L 205.593779 250.927963 
L 205.675035 250.869392 
L 205.820695 250.763897 
L 205.986373 250.643122 
L 206.136193 250.533186 
L 206.347176 250.377199 
L 206.529654 250.241174 
L 206.575448 250.206874 
L 206.74178 250.081739 
L 206.945785 249.927067 
L 207.091487 249.815789 
L 207.199596 249.732781 
L 207.413564 249.567381 
L 207.501995 249.498588 
L 207.723866 249.324861 
L 207.898351 249.187095 
L 207.985307 249.118059 
L 208.190601 248.954068 
L 208.266687 248.892928 
L 208.522318 248.68607 
L 208.712458 248.530751 
L 208.833461 248.431256 
L 209.03422 248.265049 
L 209.194905 248.130997 
L 209.208945 248.11924 
L 209.403558 247.955553 
L 209.603201 247.786217 
L 209.675346 247.72467 
L 209.849477 247.57533 
L 210.077049 247.378471 
L 210.283294 247.198392 
L 210.345853 247.143453 
L 210.533361 246.977893 
L 210.623485 246.89784 
L 210.872075 246.675403 
L 210.996405 246.56325 
L 211.188496 246.388776 
L 211.327258 246.261827 
L 211.406358 246.189115 
L 211.700075 245.916903 
L 211.847041 245.779372 
L 211.954086 245.678637 
L 212.065951 245.572855 
L 212.292174 245.357324 
L 212.39095 245.262535 
L 212.509505 245.148213 
L 212.699153 244.964071 
L 212.874416 244.792499 
L 213.065863 244.60353 
L 213.165724 244.504312 
L 213.344854 244.325205 
L 213.533524 244.134975 
L 213.637568 244.029366 
L 213.893238 243.767703 
L 213.927345 243.732564 
L 214.067383 243.587704 
L 214.220233 243.428516 
L 214.49072 243.144023 
L 214.644436 242.980736 
L 214.733121 242.885992 
L 214.939863 242.663578 
L 215.074696 242.517347 
L 215.262358 242.31225 
L 215.416841 242.142027 
L 215.527613 242.019189 
L 215.680483 241.848584 
L 215.822821 241.688591 
L 215.966178 241.526326 
L 216.180427 241.281685 
L 216.322876 241.117593 
L 216.492419 240.920774 
L 216.574731 240.824618 
L 216.809218 240.548508 
L 216.90717 240.4322 
L 217.175737 240.11032 
L 217.271266 239.994758 
L 217.37168 239.872674 
L 217.511083 239.702134 
L 217.658226 239.520782 
L 217.864715 239.263922 
L 218.033769 239.05154 
L 218.262961 238.760543 
L 218.313752 238.695572 
L 218.527052 238.420767 
L 218.716166 238.174447 
L 218.810955 238.050022 
L 219.020933 237.772065 
L 219.180715 237.558371 
L 219.25342 237.460498 
L 219.407641 237.25156 
L 219.611379 236.972712 
L 219.688284 236.866607 
L 219.889977 236.58608 
L 220.035405 236.381754 
L 220.219104 236.121143 
L 220.347869 235.936763 
L 220.543205 235.654326 
L 220.670616 235.468291 
L 220.866328 235.179686 
L 220.972835 235.021152 
L 221.10481 234.823242 
L 221.354839 234.443747 
L 221.548632 234.145402 
L 221.654912 233.980186 
L 221.783416 233.778881 
L 221.937342 233.535487 
L 222.087478 233.295662 
L 222.329813 232.903369 
L 222.486719 232.645859 
L 222.634312 232.401043 
L 222.783491 232.150984 
L 222.867064 232.009726 
L 223.106111 231.600921 
L 223.245227 231.359684 
L 223.399884 231.088535 
L 223.56422 230.796909 
L 223.73903 230.482615 
L 223.909936 230.171147 
L 223.996477 230.011807 
L 224.074398 229.867384 
L 224.29204 229.459098 
L 224.401905 229.250182 
L 224.609395 228.850292 
L 224.745741 228.583604 
L 224.864031 228.349636 
L 225.048935 227.978926 
L 225.182797 227.706633 
L 225.341412 227.379582 
L 225.52144 227.002372 
L 225.723616 226.570814 
L 225.819295 226.363536 
L 225.938678 226.102068 
L 226.058061 225.837358 
L 226.171028 225.583798 
L 226.359988 225.152723 
L 226.443319 224.959759 
L 226.592332 224.610159 
L 226.727199 224.288548 
L 226.862065 223.961785 
L 226.942815 223.763585 
L 227.062954 223.465036 
L 227.16618 223.204897 
L 227.269405 222.941291 
L 227.422349 222.544082 
L 227.53706 222.240736 
L 227.632762 221.983938 
L 227.728464 221.723625 
L 227.854253 221.375909 
L 227.991667 220.988486 
L 228.140945 220.55814 
L 228.290223 220.117299 
L 228.318662 220.032065 
L 228.416366 219.736069 
L 228.514069 219.434981 
L 228.60708 219.143401 
L 228.700091 218.846756 
L 228.808323 218.494859 
L 228.933476 218.078415 
L 229.030032 217.749702 
L 229.126587 217.414111 
L 229.222116 217.074916 
L 229.317644 216.728139 
L 229.411613 216.379145 
L 229.505582 216.021817 
L 229.605803 215.63087 
L 229.706025 215.228976 
L 229.776662 214.938651 
L 229.847299 214.642079 
L 229.921748 214.322307 
L 229.996196 213.994635 
L 230.041354 213.791783 
L 230.086513 213.585667 
L 230.162039 213.233223 
L 230.237565 212.870403 
L 230.307951 212.522118 
L 230.378337 212.163147 
L 230.439379 211.842403 
L 230.500421 211.512111 
L 230.555729 211.203869 
L 230.611037 210.88632 
L 230.666345 210.558595 
L 230.721653 210.21968 
L 230.762931 209.958742 
L 230.804209 209.690332 
L 230.845487 209.413785 
L 230.886764 209.128332 
L 230.924238 208.860722 
L 230.961712 208.584246 
L 230.999185 208.297976 
L 231.036659 208.000813 
L 231.056641 207.83746 
L 231.076623 207.670406 
L 231.096605 207.499392 
L 231.116587 207.324125 
L 231.136569 207.144278 
L 231.156551 206.959476 
L 231.176533 206.76929 
L 231.196515 206.573227 
L 231.215373 206.382286 
L 231.234231 206.185034 
L 231.253089 205.980809 
L 231.271947 205.768822 
L 231.290805 205.548122 
L 231.309663 205.317547 
L 231.328521 205.075651 
L 231.33795 204.949902 
L 231.347379 204.820595 
L 231.357398 204.678931 
L 231.367418 204.532443 
L 231.377438 204.380605 
L 231.387457 204.222787 
L 231.397477 204.058224 
L 231.407496 203.885974 
L 231.417516 203.704851 
L 231.427536 203.513331 
L 231.432545 203.413066 
L 231.437555 203.309393 
L 231.442565 203.201939 
L 231.447575 203.090261 
L 231.452585 202.973816 
L 231.457594 202.85194 
L 231.462604 202.723794 
L 231.467614 202.588299 
L 231.472624 202.444027 
L 231.477634 202.289017 
L 231.482643 202.120443 
L 231.487653 201.93397 
L 231.492663 201.722301 
L 231.497673 201.471207 
L 231.502683 201.143956 
z
" style="fill:#808080;opacity:0.5;"/>
   </g>
   <g id="matplotlib.axis_1"/>
   <g id="matplotlib.axis_2"/>
   <g id="line2d_1">
    <path clip-path="url(#pee96c1a262)" d="M 138.046154 138.046154 
L 138.175564 142.05985 
L 138.503582 145.582292 
L 139.081946 149.359987 
L 139.831084 152.853036 
L 140.866674 156.580579 
L 142.029644 159.967285 
L 143.317808 163.128795 
L 144.979893 166.611409 
L 146.86325 169.999317 
L 148.80494 173.045565 
L 151.09833 176.205592 
L 153.343478 178.939598 
L 155.944947 181.750824 
L 158.525644 184.226777 
L 161.444512 186.711462 
L 164.303509 188.865655 
L 167.483634 190.978164 
L 169.2 192.006198 
L 169.2 192.006198 
" style="fill:none;stroke:#ff0000;stroke-linecap:square;"/>
   </g>
   <g id="line2d_2">
    <path clip-path="url(#pee96c1a262)" d="M 106.892308 200.353846 
L 107.041808 204.667515 
L 107.408262 208.355696 
L 107.961662 211.847954 
L 108.719985 215.334379 
L 109.750484 219.008699 
L 111.079857 222.810414 
L 112.539548 226.273755 
L 114.027662 229.306595 
L 116.002175 232.792094 
L 118.172079 236.108564 
L 120.259399 238.916342 
L 122.550273 241.658222 
L 125.164946 244.435164 
L 127.846849 246.960342 
L 130.653407 249.306973 
L 133.700496 251.559644 
L 136.813588 253.583244 
L 140.0124 255.402302 
L 143.081921 256.923224 
L 146.709654 258.460927 
L 150.233313 259.704611 
L 153.79603 260.727402 
L 157.174386 261.490031 
L 160.945324 262.112318 
L 164.809138 262.506632 
L 168.451671 262.657045 
L 169.2 262.661538 
L 169.2 262.661538 
" style="fill:none;stroke:#228b22;stroke-linecap:square;"/>
   </g>
   <g id="line2d_3">
    <path clip-path="url(#pee96c1a262)" d="M 169.2 262.661538 
L 172.780455 262.55858 
L 176.503887 262.231966 
L 180.239405 261.675784 
L 183.957947 260.888559 
L 187.541251 259.900862 
L 191.07691 258.69465 
L 194.539184 257.276375 
L 197.835724 255.691391 
L 200.353846 254.313891 
L 200.353846 254.313891 
" style="fill:none;stroke:#228b22;stroke-linecap:square;"/>
   </g>
   <g id="line2d_4">
    <path clip-path="url(#pee96c1a262)" d="M 200.353846 254.313891 
L 203.554408 252.334835 
L 206.575448 250.206874 
L 209.403558 247.955553 
L 212.065951 245.572855 
L 214.733121 242.885992 
L 217.271266 239.994758 
L 219.407641 237.25156 
L 221.548632 234.145402 
L 223.399884 231.088535 
L 225.182797 227.706633 
L 226.727199 224.288548 
L 227.991667 220.988486 
L 229.126587 217.414111 
L 230.041354 213.791783 
L 230.721653 210.21968 
L 231.196515 206.573227 
L 231.457594 202.85194 
L 231.507692 200.353846 
L 231.507692 200.353846 
" style="fill:none;stroke:#228b22;stroke-linecap:square;"/>
   </g>
   <g id="text_1">
    <!-- $\Omega$ -->
    <g transform="translate(16.011538 22.420913)scale(0.1 -0.1)">
     <defs>
      <path d="M 7.71875 0 
L 4.390625 16.609375 
L 7.328125 16.609375 
Q 7.859375 13.71875 8.296875 11.5 
Q 8.734375 9.28125 9.4375 8.375 
Q 10.15625 7.46875 11.71875 7.171875 
Q 13.28125 6.890625 16.890625 6.890625 
L 23 6.890625 
Q 21.53125 12.546875 15.6875 21.65625 
Q 9.859375 30.765625 7.734375 34.890625 
Q 5.609375 39.015625 5.609375 45.515625 
Q 5.609375 53.078125 10.09375 58.765625 
Q 14.59375 64.453125 21.703125 67.484375 
Q 28.8125 70.515625 36.078125 70.515625 
Q 43.3125 70.515625 50.40625 67.484375 
Q 57.515625 64.453125 62 58.71875 
Q 66.5 52.984375 66.5 45.515625 
Q 66.5 40.4375 64.640625 35.9375 
Q 62.796875 31.453125 59.90625 26.953125 
Q 57.03125 22.46875 53.6875 16.9375 
Q 50.34375 11.421875 49.125 6.890625 
L 55.171875 6.890625 
Q 58.84375 6.890625 60.453125 7.171875 
Q 62.0625 7.46875 62.734375 8.375 
Q 63.421875 9.28125 63.84375 11.5 
Q 64.265625 13.71875 64.796875 16.609375 
L 67.671875 16.609375 
L 64.40625 0 
L 46.6875 0 
Q 45.703125 0 45.703125 1.3125 
Q 45.703125 6.390625 46.9375 11.265625 
Q 48.1875 16.15625 50.625 23.09375 
Q 53.078125 30.03125 54.4375 35.328125 
Q 55.8125 40.625 55.8125 45.515625 
Q 55.8125 51.515625 53.46875 56.640625 
Q 51.125 61.765625 46.625 64.84375 
Q 42.140625 67.921875 36.078125 67.921875 
Q 26.953125 67.921875 21.625 61.40625 
Q 16.3125 54.890625 16.3125 45.515625 
Q 16.359375 40.375 17.53125 35.828125 
Q 18.703125 31.296875 21.3125 23.71875 
Q 23.921875 16.15625 25.171875 11.265625 
Q 26.421875 6.390625 26.421875 1.3125 
Q 26.421875 0 25.390625 0 
z
" id="Cmr10-173"/>
     </defs>
     <use transform="translate(0 0.484375)" xlink:href="#Cmr10-173"/>
    </g>
   </g>
   <g id="text_2">
    <!-- $A$ -->
    <g style="fill:#0000ff;" transform="translate(103.142308 78.497837)scale(0.1 -0.1)">
     <defs>
      <path d="M 4.5 0 
Q 3.515625 0 3.515625 1.3125 
Q 3.90625 3.515625 4.78125 3.515625 
Q 8.84375 3.515625 11.796875 5.125 
Q 14.75 6.734375 16.890625 10.109375 
Q 17.09375 10.296875 17.09375 10.296875 
L 52.78125 70.515625 
Q 53.5625 71.578125 54.6875 71.578125 
L 56 71.578125 
Q 56.296875 71.578125 56.59375 71.453125 
Q 56.890625 71.34375 57.109375 71.0625 
Q 57.328125 70.796875 57.328125 70.515625 
L 63.375 5.90625 
Q 63.375 5.46875 63.8125 4.59375 
Q 64.796875 3.515625 71.296875 3.515625 
Q 72.3125 3.515625 72.3125 2.203125 
Q 71.96875 0.875 71.75 0.4375 
Q 71.53125 0 70.609375 0 
L 45.609375 0 
Q 44.671875 0 44.671875 1.3125 
Q 45.21875 3.515625 46 3.515625 
Q 53.90625 3.515625 54.390625 6.203125 
L 52.875 22.703125 
L 28.21875 22.703125 
L 20.21875 9.28125 
Q 19.484375 8.203125 19.484375 6.78125 
Q 19.484375 5.03125 21.171875 4.265625 
Q 22.859375 3.515625 24.90625 3.515625 
Q 25.875 3.515625 25.875 2.203125 
Q 25.53125 0.78125 25.328125 0.390625 
Q 25.140625 0 24.21875 0 
z
M 30.171875 26.21875 
L 52.484375 26.21875 
L 49.515625 58.59375 
z
" id="Cmmi10-65"/>
     </defs>
     <use transform="translate(0 0.421875)" xlink:href="#Cmmi10-65"/>
    </g>
   </g>
   <g id="text_3">
    <!-- $B$ -->
    <g style="fill:#ff0000;" transform="translate(227.707692 78.497837)scale(0.1 -0.1)">
     <defs>
      <path d="M 4.984375 0 
Q 4 0 4 1.3125 
Q 4.046875 1.5625 4.1875 2.140625 
Q 4.34375 2.734375 4.578125 3.125 
Q 4.828125 3.515625 5.328125 3.515625 
Q 8.15625 3.515625 10.25 3.65625 
Q 12.359375 3.8125 13.8125 4.203125 
Q 14.984375 4.640625 15.71875 6.890625 
L 29.390625 61.8125 
Q 29.59375 62.796875 29.59375 63.1875 
Q 29.59375 64.265625 28.421875 64.40625 
Q 26.515625 64.796875 21.1875 64.796875 
Q 20.21875 64.796875 20.21875 66.109375 
Q 20.265625 66.359375 20.40625 66.96875 
Q 20.5625 67.578125 20.828125 67.9375 
Q 21.09375 68.3125 21.484375 68.3125 
L 57.328125 68.3125 
Q 60.59375 68.3125 63.796875 67.5 
Q 67 66.703125 69.703125 64.9375 
Q 72.40625 63.1875 74 60.5625 
Q 75.59375 57.953125 75.59375 54.5 
Q 75.59375 50.734375 73.65625 47.5 
Q 71.734375 44.28125 68.671875 41.890625 
Q 65.625 39.5 62.078125 37.953125 
Q 58.546875 36.421875 54.6875 35.6875 
Q 57.421875 35.6875 60.21875 34.609375 
Q 63.03125 33.546875 65.234375 31.6875 
Q 67.4375 29.828125 68.78125 27.234375 
Q 70.125 24.65625 70.125 21.6875 
Q 70.125 15.671875 65.921875 10.6875 
Q 61.71875 5.71875 55.34375 2.859375 
Q 48.96875 0 43.015625 0 
z
M 23.390625 4.296875 
Q 23.390625 3.515625 26.8125 3.515625 
L 41.109375 3.515625 
Q 46 3.515625 50.484375 6.21875 
Q 54.984375 8.9375 57.6875 13.421875 
Q 60.40625 17.921875 60.40625 22.796875 
Q 60.40625 25.78125 59.15625 28.4375 
Q 57.90625 31.109375 55.5625 32.640625 
Q 53.21875 34.1875 50.203125 34.1875 
L 30.71875 34.1875 
L 23.78125 6.5 
Q 23.390625 5.125 23.390625 4.296875 
z
M 31.390625 36.8125 
L 46.578125 36.8125 
Q 51.375 36.8125 55.890625 39.25 
Q 60.40625 41.703125 63.25 45.890625 
Q 66.109375 50.09375 66.109375 54.78125 
Q 66.109375 59.125 63.390625 61.953125 
Q 60.6875 64.796875 56.390625 64.796875 
L 42.671875 64.796875 
Q 39.984375 64.796875 39.0625 64.296875 
Q 38.140625 63.8125 37.5 61.375 
z
" id="Cmmi10-66"/>
     </defs>
     <use transform="translate(0 0.6875)" xlink:href="#Cmmi10-66"/>
    </g>
   </g>
   <g id="text_4">
    <!-- $C$ -->
    <g style="fill:#228b22;" transform="translate(150.023077 271.651683)scale(0.1 -0.1)">
     <defs>
      <path d="M 14.59375 21.578125 
Q 14.59375 15.578125 16.90625 11.015625 
Q 19.234375 6.453125 23.65625 3.875 
Q 28.078125 1.3125 34.078125 1.3125 
Q 40.375 1.3125 46.203125 4.53125 
Q 52.046875 7.765625 56.171875 13.15625 
Q 60.296875 18.5625 61.8125 24.609375 
Q 62.015625 25.203125 62.59375 25.203125 
L 63.8125 25.203125 
Q 64.203125 25.203125 64.453125 24.921875 
Q 64.703125 24.65625 64.703125 24.3125 
Q 64.703125 24.21875 64.59375 24.03125 
Q 62.890625 17.09375 57.984375 11.015625 
Q 53.078125 4.9375 46.234375 1.359375 
Q 39.40625 -2.203125 32.171875 -2.203125 
Q 24.359375 -2.203125 18.15625 1.3125 
Q 11.96875 4.828125 8.515625 11.078125 
Q 5.078125 17.328125 5.078125 25.203125 
Q 5.078125 33.59375 8.828125 41.8125 
Q 12.59375 50.046875 18.9375 56.46875 
Q 25.296875 62.890625 33.421875 66.703125 
Q 41.546875 70.515625 49.90625 70.515625 
Q 53.21875 70.515625 56.25 69.5 
Q 59.28125 68.5 61.859375 66.453125 
Q 64.453125 64.40625 66.109375 61.71875 
L 74.03125 70.3125 
Q 74.03125 70.515625 74.515625 70.515625 
L 75.09375 70.515625 
Q 75.484375 70.515625 75.734375 70.171875 
Q 75.984375 69.828125 75.984375 69.484375 
L 69.1875 42.484375 
Q 69.1875 41.796875 68.40625 41.796875 
L 66.609375 41.796875 
Q 65.828125 41.796875 65.828125 42.921875 
Q 66.21875 45.125 66.21875 48.1875 
Q 66.21875 53.078125 64.546875 57.390625 
Q 62.890625 61.71875 59.390625 64.359375 
Q 55.90625 67 50.875 67 
Q 42.71875 67 35.9375 62.890625 
Q 29.15625 58.796875 24.4375 52.125 
Q 19.734375 45.453125 17.15625 37.328125 
Q 14.59375 29.203125 14.59375 21.578125 
z
" id="Cmmi10-67"/>
     </defs>
     <use transform="translate(0 0.484375)" xlink:href="#Cmmi10-67"/>
    </g>
   </g>
   <g id="patch_8">
    <path clip-path="url(#pee96c1a262)" d="M 138.046154 200.353846 
C 154.570347 200.353846 170.419977 193.788715 182.104346 182.104346 
C 193.788715 170.419977 200.353846 154.570347 200.353846 138.046154 
C 200.353846 121.521961 193.788715 105.672331 182.104346 93.987962 
C 170.419977 82.303593 154.570347 75.738462 138.046154 75.738462 
C 121.521961 75.738462 105.672331 82.303593 93.987962 93.987962 
C 82.303593 105.672331 75.738462 121.521961 75.738462 138.046154 
C 75.738462 154.570347 82.303593 170.419977 93.987962 182.104346 
C 105.672331 193.788715 121.521961 200.353846 138.046154 200.353846 
z
" style="fill:none;stroke:#0000ff;stroke-linejoin:miter;"/>
   </g>
   <g id="patch_9">
    <path clip-path="url(#pee96c1a262)" d="M 200.353846 200.353846 
C 216.878039 200.353846 232.727669 193.788715 244.412038 182.104346 
C 256.096407 170.419977 262.661538 154.570347 262.661538 138.046154 
C 262.661538 121.521961 256.096407 105.672331 244.412038 93.987962 
C 232.727669 82.303593 216.878039 75.738462 200.353846 75.738462 
C 183.829653 75.738462 167.980023 82.303593 156.295654 93.987962 
C 144.611285 105.672331 138.046154 121.521961 138.046154 138.046154 
C 138.046154 154.570347 144.611285 170.419977 156.295654 182.104346 
C 167.980023 193.788715 183.829653 200.353846 200.353846 200.353846 
z
" style="fill:none;stroke:#ff0000;stroke-linejoin:miter;"/>
   </g>
   <g id="patch_10">
    <path clip-path="url(#pee96c1a262)" d="M 169.2 262.661538 
C 185.724193 262.661538 201.573823 256.096407 213.258192 244.412038 
C 224.942561 232.727669 231.507692 216.878039 231.507692 200.353846 
C 231.507692 183.829653 224.942561 167.980023 213.258192 156.295654 
C 201.573823 144.611285 185.724193 138.046154 169.2 138.046154 
C 152.675807 138.046154 136.826177 144.611285 125.141808 156.295654 
C 113.457439 167.980023 106.892308 183.829653 106.892308 200.353846 
C 106.892308 216.878039 113.457439 232.727669 125.141808 244.412038 
C 136.826177 256.096407 152.675807 262.661538 169.2 262.661538 
z
" style="fill:none;stroke:#228b22;stroke-linejoin:miter;"/>
   </g>
  </g>
 </g>
 <defs>
  <clipPath id="pee96c1a262">
   <rect height="324" width="324" x="7.2" y="7.2"/>
  </clipPath>
 </defs>
</svg>
